0
SECTION
2
HEADER
9
$INSUNITS
70
4
9
$ACADVER
1
AC1014
9
$HANDSEED
5
FFFF
0
ENDSEC
0
SECTION
2
TABLES
0
TABLE
2
VPORT
5
8
100
AcDbSymbolTable
0
ENDTAB
0
TABLE
2
LTYPE
5
5
100
AcDbSymbolTable
0
LTYPE
5
14
100
AcDbSymbolTableRecord
100
AcDbLinetypeTableRecord
2
BYBLOCK
70
0
0
LTYPE
5
15
100
AcDbSymbolTableRecord
100
AcDbLinetypeTableRecord
2
BYLAYER
70
0
0
LTYPE
5
16
100
AcDbSymbolTableRecord
100
AcDbLinetypeTableRecord
2
DASHED
70
0
3
Dashed __ __ __ __ __ __ __ __ __ __ __ __ __ _
72
65
73
2
40
0.75
49
0.5
74
0
49
-0.25
74
0
0
ENDTAB
0
TABLE
2
LAYER
5
2
100
AcDbSymbolTable
70
3
0
LAYER
5
50
100
AcDbSymbolTableRecord
100
AcDbLayerTableRecord
2
1
70
0
62
7
6
DASHED
0
LAYER
5
51
100
AcDbSymbolTableRecord
100
AcDbLayerTableRecord
2
0
70
0
62
7
6
CONTINUOUS
0
ENDTAB
0
TABLE
2
STYLE
5
3
100
AcDbSymbolTable
70
1
0
STYLE
5
11
100
AcDbSymbolTableRecord
100
AcDbTextStyleTableRecord
2
STANDARD
70
0
0
ENDTAB
0
TABLE
2
VIEW
5
6
100
AcDbSymbolTable
70
0
0
ENDTAB
0
TABLE
2
UCS
5
7
100
AcDbSymbolTable
70
0
0
ENDTAB
0
TABLE
2
APPID
5
9
100
AcDbSymbolTable
70
2
0
APPID
5
12
100
AcDbSymbolTableRecord
100
AcDbRegAppTableRecord
2
ACAD
70
0
0
ENDTAB
0
TABLE
2
DIMSTYLE
5
A
100
AcDbSymbolTable
70
1
0
ENDTAB
0
TABLE
2
BLOCK_RECORD
5
1
100
AcDbSymbolTable
70
1
0
BLOCK_RECORD
5
1F
100
AcDbSymbolTableRecord
100
AcDbBlockTableRecord
2
*MODEL_SPACE
0
BLOCK_RECORD
5
1B
100
AcDbSymbolTableRecord
100
AcDbBlockTableRecord
2
*PAPER_SPACE
0
ENDTAB
0
ENDSEC
0
SECTION
2
BLOCKS
0
BLOCK
5
20
100
AcDbEntity
100
AcDbBlockBegin
2
*MODEL_SPACE
0
ENDBLK
5
21
100
AcDbEntity
100
AcDbBlockEnd
0
BLOCK
5
1C
100
AcDbEntity
100
AcDbBlockBegin
2
*PAPER_SPACE
0
ENDBLK
5
1D
100
AcDbEntity
100
AcDbBlockEnd
0
ENDSEC
0
SECTION
2
ENTITIES
0
LWPOLYLINE
5
100
100
AcDbEntity
8
0
100
AcDbPolyline
90
20
70
1
43
0.0
10
-38.495157593199693
20
-31.9080372613973
42
0.4699802227020547
10
38.4951575931997
20
-31.908037261397304
10
42.226983332692747
20
-34.579762080330887
10
47.1598441407276
20
-33.763132269122771
10
46.343214329519483
20
-28.830271461087925
10
42.611388590026429
20
-26.158546642154356
42
0.28245496628879435
10
42.611388590026451
20
26.158546642154342
10
46.343214329519483
20
28.830271461087925
10
47.1598441407276
20
33.763132269122771
10
42.226983332692747
20
34.579762080330887
10
38.4951575931997
20
31.908037261397322
42
0.46998022270205464
10
-38.4951575931997
20
31.908037261397311
10
-42.226983332692747
20
34.579762080330887
10
-47.1598441407276
20
33.763132269122771
10
-46.343214329519483
20
28.830271461087925
10
-42.611388590026429
20
26.158546642154356
42
0.2824549662887943
10
-42.611388590026436
20
-26.158546642154334
10
-46.343214329519483
20
-28.830271461087925
10
-47.1598441407276
20
-33.763132269122771
10
-42.226983332692747
20
-34.579762080330887
0
CIRCLE
5
101
100
AcDbEntity
8
0
100
AcDbCircle
10
43.256960487701875
20
30.968942012367798
30
0
40
1.58555
210
0
220
-0
230
1
0
CIRCLE
5
102
100
AcDbEntity
8
0
100
AcDbCircle
10
-43.256960487701875
20
30.968942012367798
30
0
40
1.58555
210
0
220
-0
230
1
0
CIRCLE
5
103
100
AcDbEntity
8
0
100
AcDbCircle
10
-43.256960487701875
20
-30.968942012367798
30
0
40
1.58555
210
0
220
-0
230
1
0
CIRCLE
5
104
100
AcDbEntity
8
0
100
AcDbCircle
10
43.256960487701875
20
-30.968942012367798
30
0
40
1.58555
210
0
220
-0
230
1
0
LWPOLYLINE
5
105
100
AcDbEntity
8
0
100
AcDbPolyline
90
3
70
1
43
0.0
10
-39.887341346996017
20
-3.0000000447034765
42
0.28520880458975462
10
-14.999999999999989
20
-37.080992435478308
10
-15
20
-3.0000000447034836
0
LWPOLYLINE
5
106
100
AcDbEntity
8
0
100
AcDbPolyline
90
3
70
1
43
0.0
10
-15
20
37.080992435478336
10
-15
20
3.0000000447034836
10
-39.88734134699606
20
3.0000000447034725
42
-0.28520880458975462
0
LWPOLYLINE
5
107
100
AcDbEntity
8
0
100
AcDbPolyline
90
3
70
1
43
0.0
10
39.887341346996017
20
3.0000000447034787
42
0.28520880458975456
10
14.999999999999989
20
37.080992435478308
10
15
20
3.0000000447034836
0
CIRCLE
5
108
100
AcDbEntity
8
0
100
AcDbCircle
10
35
20
0
30
0
40
1.58555
210
0
220
-0
230
1
0
CIRCLE
5
109
100
AcDbEntity
8
0
100
AcDbCircle
10
-35
20
0
30
0
40
1.58555
210
0
220
-0
230
1
0
LWPOLYLINE
5
110
100
AcDbEntity
8
0
100
AcDbPolyline
90
3
70
1
43
0.0
10
14.999999999999991
20
-37.080992435478322
42
0.28520880458975462
10
39.887341346996045
20
-3.0000000447034791
10
15
20
-3.0000000447034836
0
ENDSEC
0
SECTION
2
OBJECTS
0
DICTIONARY
5
C
100
AcDbDictionary
3
ACAD_GROUP
350
D
3
ACAD_MLINESTYLE
350
17
0
DICTIONARY
5
D
100
AcDbDictionary
0
DICTIONARY
5
1A
330
C
100
AcDbDictionary
0
DICTIONARY
5
17
100
AcDbDictionary
0
ENDSEC
0
EOF
