%TF.GenerationSoftware,KiCad,Pcbnew,8.0.5*%
%TF.CreationDate,2025-05-26T21:18:26+09:00*%
%TF.ProjectId,mein board,6d65696e-2062-46f6-9172-642e6b696361,rev?*%
%TF.SameCoordinates,Original*%
%TF.FileFunction,Copper,L1,Top*%
%TF.FilePolarity,Positive*%
%FSLAX46Y46*%
G04 Gerber Fmt 4.6, Leading zero omitted, Abs format (unit mm)*
G04 Created by KiCad (PCBNEW 8.0.5) date 2025-05-26 21:18:26*
%MOMM*%
%LPD*%
G01*
G04 APERTURE LIST*
G04 Aperture macros list*
%AMRoundRect*
0 Rectangle with rounded corners*
0 $1 Rounding radius*
0 $2 $3 $4 $5 $6 $7 $8 $9 X,Y pos of 4 corners*
0 Add a 4 corners polygon primitive as box body*
4,1,4,$2,$3,$4,$5,$6,$7,$8,$9,$2,$3,0*
0 Add four circle primitives for the rounded corners*
1,1,$1+$1,$2,$3*
1,1,$1+$1,$4,$5*
1,1,$1+$1,$6,$7*
1,1,$1+$1,$8,$9*
0 Add four rect primitives between the rounded corners*
20,1,$1+$1,$2,$3,$4,$5,0*
20,1,$1+$1,$4,$5,$6,$7,0*
20,1,$1+$1,$6,$7,$8,$9,0*
20,1,$1+$1,$8,$9,$2,$3,0*%
G04 Aperture macros list end*
%TA.AperFunction,SMDPad,CuDef*%
%ADD10RoundRect,0.140000X-0.140000X-0.170000X0.140000X-0.170000X0.140000X0.170000X-0.140000X0.170000X0*%
%TD*%
%TA.AperFunction,ComponentPad*%
%ADD11C,2.775000*%
%TD*%
%TA.AperFunction,ComponentPad*%
%ADD12R,1.700000X1.700000*%
%TD*%
%TA.AperFunction,ComponentPad*%
%ADD13O,1.700000X1.700000*%
%TD*%
%TA.AperFunction,SMDPad,CuDef*%
%ADD14R,2.000000X2.500000*%
%TD*%
%TA.AperFunction,SMDPad,CuDef*%
%ADD15R,6.000000X6.000000*%
%TD*%
%TA.AperFunction,SMDPad,CuDef*%
%ADD16RoundRect,0.140000X0.140000X0.170000X-0.140000X0.170000X-0.140000X-0.170000X0.140000X-0.170000X0*%
%TD*%
%TA.AperFunction,ComponentPad*%
%ADD17C,3.000000*%
%TD*%
%TA.AperFunction,ComponentPad*%
%ADD18R,1.600000X1.600000*%
%TD*%
%TA.AperFunction,ComponentPad*%
%ADD19C,1.600000*%
%TD*%
%TA.AperFunction,ComponentPad*%
%ADD20RoundRect,0.250000X0.600000X0.750000X-0.600000X0.750000X-0.600000X-0.750000X0.600000X-0.750000X0*%
%TD*%
%TA.AperFunction,ComponentPad*%
%ADD21O,1.700000X2.000000*%
%TD*%
%TA.AperFunction,SMDPad,CuDef*%
%ADD22RoundRect,0.140000X-0.170000X0.140000X-0.170000X-0.140000X0.170000X-0.140000X0.170000X0.140000X0*%
%TD*%
%TA.AperFunction,ComponentPad*%
%ADD23RoundRect,0.250000X0.600000X-0.600000X0.600000X0.600000X-0.600000X0.600000X-0.600000X-0.600000X0*%
%TD*%
%TA.AperFunction,ComponentPad*%
%ADD24C,1.700000*%
%TD*%
%TA.AperFunction,SMDPad,CuDef*%
%ADD25RoundRect,0.225000X0.225000X0.250000X-0.225000X0.250000X-0.225000X-0.250000X0.225000X-0.250000X0*%
%TD*%
%TA.AperFunction,ViaPad*%
%ADD26C,0.800000*%
%TD*%
%TA.AperFunction,Conductor*%
%ADD27C,0.750000*%
%TD*%
%TA.AperFunction,Conductor*%
%ADD28C,0.950000*%
%TD*%
%TA.AperFunction,Conductor*%
%ADD29C,1.000000*%
%TD*%
%TA.AperFunction,Conductor*%
%ADD30C,0.500000*%
%TD*%
G04 APERTURE END LIST*
D10*
%TO.P,C3,1*%
%TO.N,+9V*%
X174650000Y-131750000D03*
%TO.P,C3,2*%
%TO.N,GND*%
X175610000Y-131750000D03*
%TD*%
%TO.P,C1,1*%
%TO.N,+9V*%
X174650000Y-127750000D03*
%TO.P,C1,2*%
%TO.N,GND*%
X175610000Y-127750000D03*
%TD*%
D11*
%TO.P,SW1,1,A*%
%TO.N,+9V*%
X162850000Y-124700000D03*
%TO.P,SW1,2,B*%
%TO.N,Net-(F1-Pad2)*%
X162850000Y-120000000D03*
%TO.P,SW1,3,C*%
%TO.N,unconnected-(SW1-C-Pad3)*%
X162850000Y-115300000D03*
%TO.P,SW1,4,A*%
%TO.N,+9V*%
X167650000Y-124700000D03*
%TO.P,SW1,5,B*%
%TO.N,Net-(F1-Pad2)*%
X167650000Y-120000000D03*
%TO.P,SW1,6,C*%
%TO.N,unconnected-(SW1-C-Pad6)*%
X167650000Y-115300000D03*
%TD*%
D12*
%TO.P,J9,1,Pin_1*%
%TO.N,+9V*%
X237700000Y-105000000D03*
D13*
%TO.P,J9,2,Pin_2*%
%TO.N,GND*%
X237700000Y-107540000D03*
%TO.P,J9,3,Pin_3*%
%TO.N,BOUT1*%
X237700000Y-110080000D03*
%TO.P,J9,4,Pin_4*%
%TO.N,BOUT2*%
X237700000Y-112620000D03*
%TO.P,J9,5,Pin_5*%
%TO.N,unconnected-(J9-Pin_5-Pad5)*%
X237700000Y-115160000D03*
%TO.P,J9,6,Pin_6*%
%TO.N,unconnected-(J9-Pin_6-Pad6)*%
X237700000Y-117700000D03*
%TO.P,J9,7,Pin_7*%
%TO.N,unconnected-(J9-Pin_7-Pad7)*%
X237700000Y-120240000D03*
%TD*%
D14*
%TO.P,IC1,1,VIN*%
%TO.N,+9V*%
X174650000Y-124700000D03*
D15*
%TO.P,IC1,2,GND*%
%TO.N,GND*%
X176950000Y-118450000D03*
D14*
%TO.P,IC1,3,VOUT*%
%TO.N,+5V*%
X179250000Y-124700000D03*
%TD*%
D16*
%TO.P,C7,1*%
%TO.N,AOUT1*%
X171710000Y-109000000D03*
%TO.P,C7,2*%
%TO.N,AOUT2*%
X170750000Y-109000000D03*
%TD*%
D12*
%TO.P,J4,1,Pin_1*%
%TO.N,+9V*%
X212260000Y-130200000D03*
D13*
%TO.P,J4,2,Pin_2*%
%TO.N,GND*%
X209720000Y-130200000D03*
%TO.P,J4,3,Pin_3*%
%TO.N,AOUT1*%
X207180000Y-130200000D03*
%TO.P,J4,4,Pin_4*%
%TO.N,AOUT2*%
X204640000Y-130200000D03*
%TO.P,J4,5,Pin_5*%
%TO.N,unconnected-(J4-Pin_5-Pad5)*%
X202100000Y-130200000D03*
%TO.P,J4,6,Pin_6*%
%TO.N,unconnected-(J4-Pin_6-Pad6)*%
X199560000Y-130200000D03*
%TO.P,J4,7,Pin_7*%
%TO.N,unconnected-(J4-Pin_7-Pad7)*%
X197020000Y-130200000D03*
%TD*%
D17*
%TO.P,F1,1*%
%TO.N,Net-(J5-Pin_2)*%
X153750000Y-102250000D03*
%TO.P,F1,2*%
%TO.N,Net-(F1-Pad2)*%
X153750000Y-124750000D03*
%TD*%
D16*
%TO.P,C4,1*%
%TO.N,+5V*%
X179250000Y-127750000D03*
%TO.P,C4,2*%
%TO.N,GND*%
X178290000Y-127750000D03*
%TD*%
D18*
%TO.P,C11,1*%
%TO.N,+9V*%
X205000000Y-137500000D03*
D19*
%TO.P,C11,2*%
%TO.N,GND*%
X205000000Y-135000000D03*
%TD*%
D20*
%TO.P,J5,1,Pin_1*%
%TO.N,GND*%
X183400000Y-104180000D03*
D21*
%TO.P,J5,2,Pin_2*%
%TO.N,Net-(J5-Pin_2)*%
X180900000Y-104180000D03*
%TD*%
D20*
%TO.P,J1,1,Pin_1*%
%TO.N,AOUT1*%
X172500000Y-104180000D03*
D21*
%TO.P,J1,2,Pin_2*%
%TO.N,AOUT2*%
X170000000Y-104180000D03*
%TD*%
D20*
%TO.P,J2,1,Pin_1*%
%TO.N,BOUT1*%
X217500000Y-104180000D03*
D21*
%TO.P,J2,2,Pin_2*%
%TO.N,BOUT2*%
X215000000Y-104180000D03*
%TD*%
D22*
%TO.P,C12,1*%
%TO.N,+9V*%
X242500000Y-105000000D03*
%TO.P,C12,2*%
%TO.N,GND*%
X242500000Y-105960000D03*
%TD*%
D16*
%TO.P,C10,1*%
%TO.N,+9V*%
X212260000Y-135000000D03*
%TO.P,C10,2*%
%TO.N,GND*%
X211300000Y-135000000D03*
%TD*%
D12*
%TO.P,J8,1,Pin_1*%
%TO.N,unconnected-(J8-Pin_1-Pad1)*%
X225000000Y-105000000D03*
D13*
%TO.P,J8,2,Pin_2*%
%TO.N,GND*%
X225000000Y-107540000D03*
%TO.P,J8,3,Pin_3*%
%TO.N,PWM3*%
X225000000Y-110080000D03*
%TO.P,J8,4,Pin_4*%
%TO.N,PWM4*%
X225000000Y-112620000D03*
%TO.P,J8,5,Pin_5*%
%TO.N,+5V*%
X225000000Y-115160000D03*
%TO.P,J8,6,Pin_6*%
X225000000Y-117700000D03*
%TO.P,J8,7,Pin_7*%
%TO.N,unconnected-(J8-Pin_7-Pad7)*%
X225000000Y-120240000D03*
%TD*%
D18*
%TO.P,C9,1*%
%TO.N,+9V*%
X250000000Y-105000000D03*
D19*
%TO.P,C9,2*%
%TO.N,GND*%
X250000000Y-107500000D03*
%TD*%
D14*
%TO.P,IC2,1,VIN*%
%TO.N,+9V*%
X185300000Y-124700000D03*
%TO.P,IC2,2,VOUT*%
%TO.N,+3.3V*%
X189900000Y-124700000D03*
D15*
%TO.P,IC2,3,GND*%
%TO.N,GND*%
X187600000Y-118450000D03*
%TD*%
D16*
%TO.P,C8,1*%
%TO.N,BOUT1*%
X216710000Y-109000000D03*
%TO.P,C8,2*%
%TO.N,BOUT2*%
X215750000Y-109000000D03*
%TD*%
D10*
%TO.P,C5,1*%
%TO.N,+9V*%
X185300000Y-127750000D03*
%TO.P,C5,2*%
%TO.N,GND*%
X186260000Y-127750000D03*
%TD*%
D23*
%TO.P,J6,1,Pin_1*%
%TO.N,PWM1*%
X194920000Y-106500000D03*
D24*
%TO.P,J6,2,Pin_2*%
%TO.N,PWM3*%
X194920000Y-103960000D03*
%TO.P,J6,3,Pin_3*%
%TO.N,PWM2*%
X197460000Y-106500000D03*
%TO.P,J6,4,Pin_4*%
%TO.N,PWM4*%
X197460000Y-103960000D03*
%TO.P,J6,5,Pin_5*%
%TO.N,+3.3V*%
X200000000Y-106500000D03*
%TO.P,J6,6,Pin_6*%
%TO.N,+9V*%
X200000000Y-103960000D03*
%TO.P,J6,7,Pin_7*%
%TO.N,GND*%
X202540000Y-106500000D03*
%TO.P,J6,8,Pin_8*%
X202540000Y-103960000D03*
%TO.P,J6,9,Pin_9*%
X205080000Y-106500000D03*
%TO.P,J6,10,Pin_10*%
X205080000Y-103960000D03*
%TD*%
D10*
%TO.P,C2,1*%
%TO.N,+9V*%
X174650000Y-129750000D03*
%TO.P,C2,2*%
%TO.N,GND*%
X175610000Y-129750000D03*
%TD*%
D12*
%TO.P,J3,1,Pin_1*%
%TO.N,unconnected-(J3-Pin_1-Pad1)*%
X212000000Y-117500000D03*
D13*
%TO.P,J3,2,Pin_2*%
%TO.N,GND*%
X209460000Y-117500000D03*
%TO.P,J3,3,Pin_3*%
%TO.N,PWM1*%
X206920000Y-117500000D03*
%TO.P,J3,4,Pin_4*%
%TO.N,PWM2*%
X204380000Y-117500000D03*
%TO.P,J3,5,Pin_5*%
%TO.N,+5V*%
X201840000Y-117500000D03*
%TO.P,J3,6,Pin_6*%
X199300000Y-117500000D03*
%TO.P,J3,7,Pin_7*%
%TO.N,unconnected-(J3-Pin_7-Pad7)*%
X196760000Y-117500000D03*
%TD*%
D25*
%TO.P,C6,1*%
%TO.N,+3.3V*%
X189900000Y-127750000D03*
%TO.P,C6,2*%
%TO.N,GND*%
X188350000Y-127750000D03*
%TD*%
D26*
%TO.N,AOUT2*%
X170750000Y-111650000D03*
%TO.N,AOUT1*%
X172600000Y-112325000D03*
%TO.N,BOUT2*%
X216125000Y-111250000D03*
%TO.N,GND*%
X163975000Y-111550000D03*
X254925000Y-105725000D03*
X141300000Y-101100000D03*
X257850000Y-114450000D03*
X188525000Y-106325000D03*
X149125000Y-126025000D03*
X242625000Y-120700000D03*
X141050000Y-104650000D03*
X151825000Y-128175000D03*
X247350000Y-118225000D03*
X142925000Y-106625000D03*
X214775000Y-127200000D03*
X247850000Y-101450000D03*
X203025000Y-109050000D03*
X227525000Y-109650000D03*
X167600000Y-111250000D03*
X242400000Y-103200000D03*
X228375000Y-114625000D03*
X210350000Y-111275000D03*
X147850000Y-106325000D03*
X194125000Y-140275000D03*
X250575000Y-101875000D03*
X258825000Y-121675000D03*
X192575000Y-105875000D03*
X245525000Y-101525000D03*
X163725000Y-129575000D03*
X237500000Y-101400000D03*
X150625000Y-101475000D03*
X159750000Y-112575000D03*
X250500000Y-125650000D03*
X259075000Y-117350000D03*
X180675000Y-133525000D03*
X147850000Y-102725000D03*
X208775000Y-127300000D03*
X213700000Y-132000000D03*
X222600000Y-135500000D03*
X153375000Y-105375000D03*
X231475000Y-111700000D03*
X145700000Y-124100000D03*
X207150000Y-132850000D03*
X212900000Y-111200000D03*
X257375000Y-107225000D03*
X245650000Y-128900000D03*
X190475000Y-108650000D03*
X167025000Y-108875000D03*
X163600000Y-109450000D03*
X194100000Y-133275000D03*
X209825000Y-114650000D03*
X179400000Y-138025000D03*
X156575000Y-121500000D03*
X211250000Y-139475000D03*
X230900000Y-126650000D03*
X174300000Y-136000000D03*
X210300000Y-105775000D03*
X192150000Y-102900000D03*
X236000000Y-126650000D03*
X146550000Y-122925000D03*
X157925000Y-129125000D03*
X147625000Y-118475000D03*
X157725000Y-101000000D03*
X258425000Y-101225000D03*
X207425000Y-103900000D03*
X143500000Y-111500000D03*
X230550000Y-115225000D03*
X211675000Y-113450000D03*
X152650000Y-119600000D03*
X181250000Y-113575000D03*
X207425000Y-108900000D03*
X205400000Y-111000000D03*
X145975000Y-100950000D03*
X258625000Y-105850000D03*
X199700000Y-132975000D03*
X244550000Y-117500000D03*
X186000000Y-139850000D03*
X141725000Y-114475000D03*
X247025000Y-114875000D03*
X185900000Y-133400000D03*
X206475000Y-140800000D03*
X234275000Y-122400000D03*
X161150000Y-105675000D03*
X180900000Y-110100000D03*
X227675000Y-134775000D03*
X244800000Y-110275000D03*
X164500000Y-133325000D03*
X240875000Y-109700000D03*
X188800000Y-103200000D03*
X152425000Y-108650000D03*
X217600000Y-127100000D03*
X256400000Y-116775000D03*
X243400000Y-113875000D03*
X215625000Y-138700000D03*
X250450000Y-114100000D03*
X182900000Y-135475000D03*
X158025000Y-115325000D03*
X241025000Y-107375000D03*
X249500000Y-117150000D03*
X254400000Y-124475000D03*
X218300000Y-136950000D03*
X244500000Y-108575000D03*
X167500000Y-128900000D03*
X141000000Y-121600000D03*
X190900000Y-137900000D03*
X232150000Y-106325000D03*
X196950000Y-135400000D03*
X197550000Y-140725000D03*
X192725000Y-109000000D03*
X169300000Y-135275000D03*
X190550000Y-111975000D03*
X252900000Y-101825000D03*
X176525000Y-109075000D03*
X141500000Y-110325000D03*
X145675000Y-115375000D03*
X224900000Y-127850000D03*
X203825000Y-132750000D03*
X185175000Y-109225000D03*
X253575000Y-121025000D03*
X186700000Y-111850000D03*
X151550000Y-115975000D03*
X237650000Y-133300000D03*
X155325000Y-116425000D03*
X201400000Y-140800000D03*
X158600000Y-109675000D03*
X257500000Y-110800000D03*
X228100000Y-118150000D03*
X165000000Y-105225000D03*
X165300000Y-101000000D03*
X252500000Y-111400000D03*
X227950000Y-104075000D03*
X241825000Y-131600000D03*
X230500000Y-134050000D03*
X157725000Y-106025000D03*
X161975000Y-100950000D03*
X145350000Y-109050000D03*
X240200000Y-122725000D03*
X233875000Y-134550000D03*
X209050000Y-132900000D03*
X240025000Y-101950000D03*
X240775000Y-117925000D03*
X190000000Y-140150000D03*
X141125000Y-117275000D03*
X248325000Y-111675000D03*
X144025000Y-116450000D03*
%TO.N,+5V*%
X221025000Y-121675000D03*
X181950000Y-124700000D03*
X192100000Y-124700000D03*
%TO.N,+3.3V*%
X193575000Y-116225000D03*
%TO.N,PWM1*%
X198625000Y-109000000D03*
%TD*%
D27*
%TO.N,AOUT2*%
X170750000Y-109000000D02*
X170750000Y-111650000D01*
X170000000Y-108250000D02*
X170750000Y-109000000D01*
X170000000Y-104180000D02*
X170000000Y-108250000D01*
%TO.N,AOUT1*%
X172500000Y-108210000D02*
X171710000Y-109000000D01*
X172500000Y-104180000D02*
X172500000Y-108210000D01*
X171710000Y-111435000D02*
X172600000Y-112325000D01*
X171710000Y-109000000D02*
X171710000Y-111435000D01*
%TO.N,BOUT1*%
X236845000Y-110080000D02*
X237700000Y-110080000D01*
X235075000Y-111850000D02*
X236845000Y-110080000D01*
X217500000Y-108210000D02*
X216710000Y-109000000D01*
X217425000Y-110800000D02*
X217425000Y-115950000D01*
X216710000Y-109000000D02*
X216710000Y-110085000D01*
X235075000Y-114475000D02*
X235075000Y-111850000D01*
X217500000Y-104180000D02*
X217500000Y-108210000D01*
X217425000Y-115950000D02*
X223430000Y-121955000D01*
X216710000Y-110085000D02*
X217425000Y-110800000D01*
X227595000Y-121955000D02*
X235075000Y-114475000D01*
X223430000Y-121955000D02*
X227595000Y-121955000D01*
%TO.N,BOUT2*%
X215750000Y-110875000D02*
X216125000Y-111250000D01*
X215750000Y-109000000D02*
X215750000Y-110875000D01*
X215000000Y-104180000D02*
X215000000Y-108250000D01*
X215000000Y-108250000D02*
X215750000Y-109000000D01*
D28*
%TO.N,+9V*%
X210266464Y-137500000D02*
X210620732Y-137145732D01*
X254925000Y-115475000D02*
X254925000Y-108425000D01*
X202285000Y-101675000D02*
X200000000Y-103960000D01*
X210620732Y-137145732D02*
X217566464Y-130200000D01*
X174650000Y-127750000D02*
X174650000Y-124700000D01*
D29*
X167650000Y-124700000D02*
X174650000Y-124700000D01*
D28*
X240200000Y-130200000D02*
X254925000Y-115475000D01*
X205000000Y-137500000D02*
X210266464Y-137500000D01*
X176850000Y-122500000D02*
X183100000Y-122500000D01*
X185300000Y-128256464D02*
X194543536Y-137500000D01*
X251500000Y-105000000D02*
X250000000Y-105000000D01*
X242500000Y-105000000D02*
X250000000Y-105000000D01*
X183100000Y-122500000D02*
X185300000Y-124700000D01*
X185300000Y-127750000D02*
X185300000Y-128256464D01*
X210620732Y-137145732D02*
X212260000Y-135506464D01*
X237700000Y-105000000D02*
X234375000Y-101675000D01*
X194543536Y-137500000D02*
X205000000Y-137500000D01*
D29*
X162850000Y-124700000D02*
X167650000Y-124700000D01*
D28*
X174650000Y-127750000D02*
X174650000Y-131750000D01*
X185300000Y-124700000D02*
X185300000Y-127750000D01*
X234375000Y-101675000D02*
X202285000Y-101675000D01*
X217566464Y-130200000D02*
X240200000Y-130200000D01*
X174650000Y-124700000D02*
X176850000Y-122500000D01*
X242500000Y-105000000D02*
X237700000Y-105000000D01*
X212260000Y-135506464D02*
X212260000Y-135000000D01*
X254925000Y-108425000D02*
X251500000Y-105000000D01*
X212260000Y-135000000D02*
X212260000Y-130200000D01*
%TO.N,+5V*%
X221025000Y-121675000D02*
X218000000Y-124700000D01*
X192100000Y-124700000D02*
X199300000Y-117500000D01*
X218000000Y-124700000D02*
X192100000Y-124700000D01*
D29*
X199300000Y-117500000D02*
X201840000Y-117500000D01*
D28*
X179250000Y-127750000D02*
X179250000Y-124700000D01*
D29*
X225000000Y-115160000D02*
X225000000Y-117700000D01*
D28*
X179250000Y-124700000D02*
X181950000Y-124700000D01*
%TO.N,+3.3V*%
X189900000Y-124700000D02*
X189900000Y-127750000D01*
D29*
X193575000Y-121025000D02*
X189900000Y-124700000D01*
X193575000Y-116225000D02*
X193575000Y-121025000D01*
%TO.N,Net-(F1-Pad2)*%
X158100000Y-124750000D02*
X162850000Y-120000000D01*
X162850000Y-120000000D02*
X167650000Y-120000000D01*
X153750000Y-124750000D02*
X158100000Y-124750000D01*
%TO.N,Net-(J5-Pin_2)*%
X179170430Y-102250000D02*
X153750000Y-102250000D01*
X180900000Y-103979570D02*
X179170430Y-102250000D01*
X180900000Y-104180000D02*
X180900000Y-103979570D01*
D30*
%TO.N,PWM2*%
X197460000Y-106500000D02*
X197460000Y-110580000D01*
X197460000Y-110580000D02*
X204380000Y-117500000D01*
%TO.N,PWM1*%
X198625000Y-109000000D02*
X200225000Y-109000000D01*
X200225000Y-109000000D02*
X206920000Y-115695000D01*
X206920000Y-115695000D02*
X206920000Y-117500000D01*
%TD*%
%TA.AperFunction,Conductor*%
%TO.N,GND*%
G36*
X204614075Y-104152993D02*
G01*
X204679901Y-104267007D01*
X204772993Y-104360099D01*
X204887007Y-104425925D01*
X204950590Y-104442962D01*
X204318625Y-105074925D01*
X204395031Y-105128425D01*
X204438655Y-105183002D01*
X204445848Y-105252501D01*
X204414326Y-105314855D01*
X204395029Y-105331576D01*
X204318625Y-105385072D01*
X204950590Y-106017037D01*
X204887007Y-106034075D01*
X204772993Y-106099901D01*
X204679901Y-106192993D01*
X204614075Y-106307007D01*
X204597037Y-106370589D01*
X203965073Y-105738625D01*
X203965072Y-105738626D01*
X203911574Y-105815030D01*
X203856998Y-105858655D01*
X203787499Y-105865849D01*
X203725144Y-105834326D01*
X203708424Y-105815030D01*
X203654925Y-105738626D01*
X203654925Y-105738625D01*
X203022962Y-106370589D01*
X203005925Y-106307007D01*
X202940099Y-106192993D01*
X202847007Y-106099901D01*
X202732993Y-106034075D01*
X202669410Y-106017037D01*
X203301373Y-105385073D01*
X203224969Y-105331576D01*
X203181344Y-105276999D01*
X203174150Y-105207501D01*
X203205672Y-105145146D01*
X203224968Y-105128425D01*
X203301373Y-105074925D01*
X202669409Y-104442962D01*
X202732993Y-104425925D01*
X202847007Y-104360099D01*
X202940099Y-104267007D01*
X203005925Y-104152993D01*
X203022962Y-104089410D01*
X203654925Y-104721373D01*
X203708425Y-104644968D01*
X203763002Y-104601344D01*
X203832501Y-104594151D01*
X203894855Y-104625673D01*
X203911576Y-104644969D01*
X203965073Y-104721372D01*
X204597037Y-104089409D01*
X204614075Y-104152993D01*
G37*
%TD.AperFunction*%
%TA.AperFunction,Conductor*%
G36*
X152987383Y-100520185D02*
G01*
X153033138Y-100572989D01*
X153043082Y-100642147D01*
X153014057Y-100705703D01*
X152974145Y-100736220D01*
X152897373Y-100773190D01*
X152897372Y-100773191D01*
X152686782Y-100916768D01*
X152499952Y-101090121D01*
X152499950Y-101090123D01*
X152341041Y-101289388D01*
X152213608Y-101510109D01*
X152120492Y-101747362D01*
X152120490Y-101747369D01*
X152063777Y-101995845D01*
X152044732Y-102249995D01*
X152044732Y-102250004D01*
X152063777Y-102504154D01*
X152118895Y-102745643D01*
X152120492Y-102752637D01*
X152213607Y-102989888D01*
X152341041Y-103210612D01*
X152499950Y-103409877D01*
X152686783Y-103583232D01*
X152897366Y-103726805D01*
X152897371Y-103726807D01*
X152897372Y-103726808D01*
X152897373Y-103726809D01*
X152980846Y-103767007D01*
X153126992Y-103837387D01*
X153126993Y-103837387D01*
X153126996Y-103837389D01*
X153370542Y-103912513D01*
X153622565Y-103950500D01*
X153877435Y-103950500D01*
X154129458Y-103912513D01*
X154373004Y-103837389D01*
X154602634Y-103726805D01*
X154813217Y-103583232D01*
X155000050Y-103409877D01*
X155158959Y-103210612D01*
X155273338Y-103012499D01*
X155323905Y-102964285D01*
X155380725Y-102950500D01*
X169315962Y-102950500D01*
X169383001Y-102970185D01*
X169428756Y-103022989D01*
X169438700Y-103092147D01*
X169409675Y-103155703D01*
X169384852Y-103177603D01*
X169330342Y-103214024D01*
X169184024Y-103360342D01*
X169069058Y-103532403D01*
X168989870Y-103723579D01*
X168989868Y-103723587D01*
X168949500Y-103926530D01*
X168949500Y-104433469D01*
X168989868Y-104636412D01*
X168989870Y-104636420D01*
X169069058Y-104827596D01*
X169184024Y-104999657D01*
X169330340Y-105145973D01*
X169330343Y-105145975D01*
X169330345Y-105145977D01*
X169369390Y-105172066D01*
X169414196Y-105225677D01*
X169424500Y-105275168D01*
X169424500Y-108325765D01*
X169463719Y-108472136D01*
X169493592Y-108523876D01*
X169539485Y-108603365D01*
X169849537Y-108913417D01*
X170138181Y-109202060D01*
X170171666Y-109263383D01*
X170174500Y-109289741D01*
X170174500Y-111445530D01*
X170166598Y-111485259D01*
X170167060Y-111485383D01*
X170165171Y-111492431D01*
X170165063Y-111492978D01*
X170164956Y-111493235D01*
X170144318Y-111649998D01*
X170144318Y-111650001D01*
X170164955Y-111806760D01*
X170164956Y-111806762D01*
X170219693Y-111938910D01*
X170225464Y-111952841D01*
X170321718Y-112078282D01*
X170447159Y-112174536D01*
X170593238Y-112235044D01*
X170671619Y-112245363D01*
X170749999Y-112255682D01*
X170750000Y-112255682D01*
X170750001Y-112255682D01*
X170802254Y-112248802D01*
X170906762Y-112235044D01*
X171052841Y-112174536D01*
X171178282Y-112078282D01*
X171248997Y-111986123D01*
X171305421Y-111944923D01*
X171375167Y-111940768D01*
X171435051Y-111973931D01*
X172048478Y-112587358D01*
X172070983Y-112621038D01*
X172071398Y-112620799D01*
X172075054Y-112627132D01*
X172075358Y-112627586D01*
X172075462Y-112627838D01*
X172075464Y-112627841D01*
X172101023Y-112661151D01*
X172171718Y-112753282D01*
X172297159Y-112849536D01*
X172443238Y-112910044D01*
X172521619Y-112920363D01*
X172599999Y-112930682D01*
X172600000Y-112930682D01*
X172600001Y-112930682D01*
X172652254Y-112923802D01*
X172756762Y-112910044D01*
X172902841Y-112849536D01*
X173028282Y-112753282D01*
X173124536Y-112627841D01*
X173185044Y-112481762D01*
X173205682Y-112325000D01*
X173199652Y-112279201D01*
X173185044Y-112168239D01*
X173185044Y-112168238D01*
X173124536Y-112022159D01*
X173028282Y-111896718D01*
X173028280Y-111896717D01*
X173028280Y-111896716D01*
X172902841Y-111800464D01*
X172902838Y-111800462D01*
X172902586Y-111800358D01*
X172902132Y-111800054D01*
X172895799Y-111796398D01*
X172896038Y-111795983D01*
X172862358Y-111773478D01*
X172321819Y-111232939D01*
X172288334Y-111171616D01*
X172285500Y-111145258D01*
X172285500Y-109289742D01*
X172305185Y-109222703D01*
X172321819Y-109202061D01*
X172610463Y-108913417D01*
X172960515Y-108563365D01*
X173036281Y-108432135D01*
X173075500Y-108285766D01*
X173075500Y-108134233D01*
X173075500Y-105845730D01*
X193869500Y-105845730D01*
X193869500Y-107154269D01*
X193872353Y-107184699D01*
X193872353Y-107184701D01*
X193909200Y-107290000D01*
X193917207Y-107312882D01*
X193997850Y-107422150D01*
X194107118Y-107502793D01*
X194149845Y-107517744D01*
X194235299Y-107547646D01*
X194265730Y-107550500D01*
X194265734Y-107550500D01*
X195574270Y-107550500D01*
X195604699Y-107547646D01*
X195604701Y-107547646D01*
X195670349Y-107524674D01*
X195732882Y-107502793D01*
X195842150Y-107422150D01*
X195922793Y-107312882D01*
X195967552Y-107184969D01*
X195967646Y-107184701D01*
X195967646Y-107184699D01*
X195970500Y-107154269D01*
X195970500Y-106500000D01*
X196404417Y-106500000D01*
X196424699Y-106705932D01*
X196434666Y-106738789D01*
X196484768Y-106903954D01*
X196582315Y-107086450D01*
X196582317Y-107086452D01*
X196713589Y-107246410D01*
X196844864Y-107354143D01*
X196873546Y-107377682D01*
X196873549Y-107377684D01*
X196873551Y-107377686D01*
X196900242Y-107391952D01*
X196943953Y-107415316D01*
X196993797Y-107464277D01*
X197009500Y-107524674D01*
X197009500Y-110639309D01*
X197016773Y-110666450D01*
X197032246Y-110724200D01*
X197032253Y-110724223D01*
X197032256Y-110724234D01*
X197040201Y-110753887D01*
X197099511Y-110856614D01*
X197099513Y-110856616D01*
X203336893Y-117093997D01*
X203370378Y-117155320D01*
X203367873Y-117217672D01*
X203344699Y-117294066D01*
X203324417Y-117500000D01*
X203344699Y-117705932D01*
X203358235Y-117750553D01*
X203404768Y-117903954D01*
X203502315Y-118086450D01*
X203502317Y-118086452D01*
X203633589Y-118246410D01*
X203730209Y-118325702D01*
X203793550Y-118377685D01*
X203976046Y-118475232D01*
X204174066Y-118535300D01*
X204174065Y-118535300D01*
X204192529Y-118537118D01*
X204380000Y-118555583D01*
X204585934Y-118535300D01*
X204783954Y-118475232D01*
X204966450Y-118377685D01*
X205126410Y-118246410D01*
X205257685Y-118086450D01*
X205355232Y-117903954D01*
X205415300Y-117705934D01*
X205435583Y-117500000D01*
X205415300Y-117294066D01*
X205355232Y-117096046D01*
X205257685Y-116913550D01*
X205182897Y-116822420D01*
X205126410Y-116753589D01*
X205008677Y-116656969D01*
X204966450Y-116622315D01*
X204783954Y-116524768D01*
X204585934Y-116464700D01*
X204585932Y-116464699D01*
X204585934Y-116464699D01*
X204380000Y-116444417D01*
X204174066Y-116464699D01*
X204097672Y-116487873D01*
X204027805Y-116488496D01*
X203973997Y-116456893D01*
X197946819Y-110429715D01*
X197913334Y-110368392D01*
X197910500Y-110342034D01*
X197910500Y-109420567D01*
X197930185Y-109353528D01*
X197982989Y-109307773D01*
X198052147Y-109297829D01*
X198115703Y-109326854D01*
X198132874Y-109345079D01*
X198196718Y-109428282D01*
X198322159Y-109524536D01*
X198468238Y-109585044D01*
X198546619Y-109595363D01*
X198624999Y-109605682D01*
X198625000Y-109605682D01*
X198625001Y-109605682D01*
X198677254Y-109598802D01*
X198781762Y-109585044D01*
X198927841Y-109524536D01*
X198990933Y-109476123D01*
X199056102Y-109450930D01*
X199066419Y-109450500D01*
X199987035Y-109450500D01*
X200054074Y-109470185D01*
X200074716Y-109486819D01*
X206433181Y-115845284D01*
X206466666Y-115906607D01*
X206469500Y-115932965D01*
X206469500Y-116475324D01*
X206449815Y-116542363D01*
X206403955Y-116584681D01*
X206333549Y-116622315D01*
X206173589Y-116753589D01*
X206042317Y-116913547D01*
X206042315Y-116913550D01*
X206020914Y-116953589D01*
X205944769Y-117096043D01*
X205944769Y-117096044D01*
X205944768Y-117096046D01*
X205939459Y-117113547D01*
X205884699Y-117294067D01*
X205864417Y-117500000D01*
X205884699Y-117705932D01*
X205898235Y-117750553D01*
X205944768Y-117903954D01*
X206042315Y-118086450D01*
X206042317Y-118086452D01*
X206173589Y-118246410D01*
X206270209Y-118325702D01*
X206333550Y-118377685D01*
X206516046Y-118475232D01*
X206714066Y-118535300D01*
X206714065Y-118535300D01*
X206732529Y-118537118D01*
X206920000Y-118555583D01*
X207125934Y-118535300D01*
X207323954Y-118475232D01*
X207506450Y-118377685D01*
X207666410Y-118246410D01*
X207797685Y-118086450D01*
X207895232Y-117903954D01*
X207915406Y-117837446D01*
X207953702Y-117779010D01*
X208017514Y-117750553D01*
X208086581Y-117761112D01*
X208138975Y-117807336D01*
X208153841Y-117841349D01*
X208186567Y-117963486D01*
X208186570Y-117963492D01*
X208286399Y-118177578D01*
X208421894Y-118371082D01*
X208588917Y-118538105D01*
X208782421Y-118673600D01*
X208996507Y-118773429D01*
X208996516Y-118773433D01*
X209210000Y-118830634D01*
X209210000Y-117933012D01*
X209267007Y-117965925D01*
X209394174Y-118000000D01*
X209525826Y-118000000D01*
X209652993Y-117965925D01*
X209710000Y-117933012D01*
X209710000Y-118830633D01*
X209923483Y-118773433D01*
X209923492Y-118773429D01*
X210137578Y-118673600D01*
X210331082Y-118538105D01*
X210498105Y-118371082D01*
X210633599Y-118177578D01*
X210713118Y-118007051D01*
X210759290Y-117954612D01*
X210826484Y-117935460D01*
X210893365Y-117955676D01*
X210938699Y-118008841D01*
X210949500Y-118059456D01*
X210949500Y-118369752D01*
X210961131Y-118428229D01*
X210961132Y-118428230D01*
X211005447Y-118494552D01*
X211071769Y-118538867D01*
X211071770Y-118538868D01*
X211130247Y-118550499D01*
X211130250Y-118550500D01*
X211130252Y-118550500D01*
X212869750Y-118550500D01*
X212869751Y-118550499D01*
X212889400Y-118546591D01*
X212928229Y-118538868D01*
X212928229Y-118538867D01*
X212928231Y-118538867D01*
X212994552Y-118494552D01*
X213038867Y-118428231D01*
X213038867Y-118428229D01*
X213038868Y-118428229D01*
X213048922Y-118377682D01*
X213050500Y-118369748D01*
X213050500Y-116630252D01*
X213050500Y-116630249D01*
X213050499Y-116630247D01*
X213038868Y-116571770D01*
X213038867Y-116571769D01*
X212994552Y-116505447D01*
X212928230Y-116461132D01*
X212928229Y-116461131D01*
X212869752Y-116449500D01*
X212869748Y-116449500D01*
X211130252Y-116449500D01*
X211130247Y-116449500D01*
X211071770Y-116461131D01*
X211071769Y-116461132D01*
X211005447Y-116505447D01*
X210961132Y-116571769D01*
X210961131Y-116571770D01*
X210949500Y-116630247D01*
X210949500Y-116940543D01*
X210929815Y-117007582D01*
X210877011Y-117053337D01*
X210807853Y-117063281D01*
X210744297Y-117034256D01*
X210713118Y-116992948D01*
X210633600Y-116822422D01*
X210633599Y-116822420D01*
X210498113Y-116628926D01*
X210498108Y-116628920D01*
X210331082Y-116461894D01*
X210137578Y-116326399D01*
X209923492Y-116226570D01*
X209923486Y-116226567D01*
X209710000Y-116169364D01*
X209710000Y-117066988D01*
X209652993Y-117034075D01*
X209525826Y-117000000D01*
X209394174Y-117000000D01*
X209267007Y-117034075D01*
X209210000Y-117066988D01*
X209210000Y-116169364D01*
X209209999Y-116169364D01*
X208996513Y-116226567D01*
X208996507Y-116226570D01*
X208782422Y-116326399D01*
X208782420Y-116326400D01*
X208588926Y-116461886D01*
X208588920Y-116461891D01*
X208421891Y-116628920D01*
X208421886Y-116628926D01*
X208286400Y-116822420D01*
X208286399Y-116822422D01*
X208186570Y-117036507D01*
X208186567Y-117036514D01*
X208153841Y-117158650D01*
X208117476Y-117218310D01*
X208054629Y-117248839D01*
X207985253Y-117240544D01*
X207931375Y-117196059D01*
X207915406Y-117162553D01*
X207895232Y-117096046D01*
X207797685Y-116913550D01*
X207722897Y-116822420D01*
X207666410Y-116753589D01*
X207506450Y-116622315D01*
X207436045Y-116584681D01*
X207386201Y-116535718D01*
X207370500Y-116475324D01*
X207370500Y-115635693D01*
X207370500Y-115635691D01*
X207345270Y-115541531D01*
X207345270Y-115541530D01*
X207345270Y-115541529D01*
X207342534Y-115531322D01*
X207339799Y-115521113D01*
X207339795Y-115521106D01*
X207280494Y-115418392D01*
X207280488Y-115418384D01*
X200501616Y-108639513D01*
X200501614Y-108639511D01*
X200453832Y-108611924D01*
X200398885Y-108580199D01*
X200367228Y-108571718D01*
X200325768Y-108560609D01*
X200284309Y-108549500D01*
X200284308Y-108549500D01*
X199066419Y-108549500D01*
X198999380Y-108529815D01*
X198990933Y-108523876D01*
X198927842Y-108475464D01*
X198781762Y-108414956D01*
X198781760Y-108414955D01*
X198625001Y-108394318D01*
X198624999Y-108394318D01*
X198468239Y-108414955D01*
X198468237Y-108414956D01*
X198322160Y-108475463D01*
X198322159Y-108475464D01*
X198196718Y-108571718D01*
X198196717Y-108571719D01*
X198196716Y-108571720D01*
X198132875Y-108654919D01*
X198076447Y-108696121D01*
X198006701Y-108700276D01*
X197945781Y-108666063D01*
X197913029Y-108604346D01*
X197910500Y-108579432D01*
X197910500Y-107524674D01*
X197930185Y-107457635D01*
X197976046Y-107415316D01*
X198046450Y-107377685D01*
X198206410Y-107246410D01*
X198337685Y-107086450D01*
X198435232Y-106903954D01*
X198495300Y-106705934D01*
X198515583Y-106500000D01*
X198495300Y-106294066D01*
X198435232Y-106096046D01*
X198337685Y-105913550D01*
X198272668Y-105834326D01*
X198206410Y-105753589D01*
X198046452Y-105622317D01*
X198046453Y-105622317D01*
X198046450Y-105622315D01*
X197863954Y-105524768D01*
X197665934Y-105464700D01*
X197665932Y-105464699D01*
X197665934Y-105464699D01*
X197460000Y-105444417D01*
X197254067Y-105464699D01*
X197056043Y-105524769D01*
X196956737Y-105577850D01*
X196873550Y-105622315D01*
X196873548Y-105622316D01*
X196873547Y-105622317D01*
X196713589Y-105753589D01*
X196611300Y-105878231D01*
X196582315Y-105913550D01*
X196574468Y-105928231D01*
X196484769Y-106096043D01*
X196424699Y-106294067D01*
X196404417Y-106500000D01*
X195970500Y-106500000D01*
X195970500Y-105845730D01*
X195967646Y-105815300D01*
X195967646Y-105815298D01*
X195930800Y-105710000D01*
X195922793Y-105687118D01*
X195842150Y-105577850D01*
X195732882Y-105497207D01*
X195732880Y-105497206D01*
X195604700Y-105452353D01*
X195574270Y-105449500D01*
X195574266Y-105449500D01*
X194265734Y-105449500D01*
X194265730Y-105449500D01*
X194235300Y-105452353D01*
X194235298Y-105452353D01*
X194107119Y-105497206D01*
X194107117Y-105497207D01*
X193997850Y-105577850D01*
X193917207Y-105687117D01*
X193917206Y-105687119D01*
X193872353Y-105815298D01*
X193872353Y-105815300D01*
X193869500Y-105845730D01*
X173075500Y-105845730D01*
X173075500Y-105500802D01*
X173095185Y-105433763D01*
X173147989Y-105388008D01*
X173177519Y-105380122D01*
X173177330Y-105379256D01*
X173184701Y-105377646D01*
X173248790Y-105355219D01*
X173312882Y-105332793D01*
X173422150Y-105252150D01*
X173502793Y-105142882D01*
X173547282Y-105015740D01*
X173547646Y-105014701D01*
X173547646Y-105014699D01*
X173550500Y-104984269D01*
X173550500Y-103375730D01*
X173547646Y-103345300D01*
X173547646Y-103345298D01*
X173502793Y-103217119D01*
X173502792Y-103217117D01*
X173451879Y-103148131D01*
X173427909Y-103082505D01*
X173443224Y-103014335D01*
X173492964Y-102965266D01*
X173551650Y-102950500D01*
X178828911Y-102950500D01*
X178895950Y-102970185D01*
X178916592Y-102986819D01*
X179813181Y-103883407D01*
X179846666Y-103944730D01*
X179849500Y-103971088D01*
X179849500Y-104433469D01*
X179889868Y-104636412D01*
X179889870Y-104636420D01*
X179969058Y-104827596D01*
X180084024Y-104999657D01*
X180230342Y-105145975D01*
X180230345Y-105145977D01*
X180402402Y-105260941D01*
X180593580Y-105340130D01*
X180782187Y-105377646D01*
X180796530Y-105380499D01*
X180796534Y-105380500D01*
X180796535Y-105380500D01*
X181003466Y-105380500D01*
X181003467Y-105380499D01*
X181206420Y-105340130D01*
X181397598Y-105260941D01*
X181569655Y-105145977D01*
X181715977Y-104999655D01*
X181822901Y-104839630D01*
X181876509Y-104794829D01*
X181945834Y-104786120D01*
X182008861Y-104816274D01*
X182045581Y-104875717D01*
X182050000Y-104908522D01*
X182050000Y-104979970D01*
X182050001Y-104979987D01*
X182060494Y-105082697D01*
X182115641Y-105249119D01*
X182115643Y-105249124D01*
X182207684Y-105398345D01*
X182331654Y-105522315D01*
X182480875Y-105614356D01*
X182480880Y-105614358D01*
X182647302Y-105669505D01*
X182647309Y-105669506D01*
X182750019Y-105679999D01*
X183149999Y-105679999D01*
X183150000Y-105679998D01*
X183150000Y-104613012D01*
X183207007Y-104645925D01*
X183334174Y-104680000D01*
X183465826Y-104680000D01*
X183592993Y-104645925D01*
X183650000Y-104613012D01*
X183650000Y-105679999D01*
X184049972Y-105679999D01*
X184049986Y-105679998D01*
X184152697Y-105669505D01*
X184319119Y-105614358D01*
X184319124Y-105614356D01*
X184468345Y-105522315D01*
X184592315Y-105398345D01*
X184684356Y-105249124D01*
X184684358Y-105249119D01*
X184739505Y-105082697D01*
X184739506Y-105082690D01*
X184749999Y-104979986D01*
X184750000Y-104979973D01*
X184750000Y-104430000D01*
X183833012Y-104430000D01*
X183865925Y-104372993D01*
X183900000Y-104245826D01*
X183900000Y-104114174D01*
X183865925Y-103987007D01*
X183850333Y-103960000D01*
X193864417Y-103960000D01*
X193884699Y-104165932D01*
X193893616Y-104195326D01*
X193944768Y-104363954D01*
X194042315Y-104546450D01*
X194042317Y-104546452D01*
X194173589Y-104706410D01*
X194270209Y-104785702D01*
X194333550Y-104837685D01*
X194516046Y-104935232D01*
X194714066Y-104995300D01*
X194714065Y-104995300D01*
X194732529Y-104997118D01*
X194920000Y-105015583D01*
X195125934Y-104995300D01*
X195323954Y-104935232D01*
X195506450Y-104837685D01*
X195666410Y-104706410D01*
X195797685Y-104546450D01*
X195895232Y-104363954D01*
X195955300Y-104165934D01*
X195975583Y-103960000D01*
X196404417Y-103960000D01*
X196424699Y-104165932D01*
X196433616Y-104195326D01*
X196484768Y-104363954D01*
X196582315Y-104546450D01*
X196582317Y-104546452D01*
X196713589Y-104706410D01*
X196810209Y-104785702D01*
X196873550Y-104837685D01*
X197056046Y-104935232D01*
X197254066Y-104995300D01*
X197254065Y-104995300D01*
X197272529Y-104997118D01*
X197460000Y-105015583D01*
X197665934Y-104995300D01*
X197863954Y-104935232D01*
X198046450Y-104837685D01*
X198206410Y-104706410D01*
X198337685Y-104546450D01*
X198435232Y-104363954D01*
X198495300Y-104165934D01*
X198515583Y-103960000D01*
X198495300Y-103754066D01*
X198435232Y-103556046D01*
X198337685Y-103373550D01*
X198272668Y-103294326D01*
X198206410Y-103213589D01*
X198066853Y-103099059D01*
X198046450Y-103082315D01*
X197863954Y-102984768D01*
X197665934Y-102924700D01*
X197665932Y-102924699D01*
X197665934Y-102924699D01*
X197460000Y-102904417D01*
X197254067Y-102924699D01*
X197123570Y-102964285D01*
X197073413Y-102979500D01*
X197056043Y-102984769D01*
X196976649Y-103027207D01*
X196873550Y-103082315D01*
X196873548Y-103082316D01*
X196873547Y-103082317D01*
X196713589Y-103213589D01*
X196582317Y-103373547D01*
X196582315Y-103373550D01*
X196562898Y-103409876D01*
X196484769Y-103556043D01*
X196424699Y-103754067D01*
X196404417Y-103960000D01*
X195975583Y-103960000D01*
X195955300Y-103754066D01*
X195895232Y-103556046D01*
X195797685Y-103373550D01*
X195732668Y-103294326D01*
X195666410Y-103213589D01*
X195526853Y-103099059D01*
X195506450Y-103082315D01*
X195323954Y-102984768D01*
X195125934Y-102924700D01*
X195125932Y-102924699D01*
X195125934Y-102924699D01*
X194920000Y-102904417D01*
X194714067Y-102924699D01*
X194583570Y-102964285D01*
X194533413Y-102979500D01*
X194516043Y-102984769D01*
X194436649Y-103027207D01*
X194333550Y-103082315D01*
X194333548Y-103082316D01*
X194333547Y-103082317D01*
X194173589Y-103213589D01*
X194042317Y-103373547D01*
X194042315Y-103373550D01*
X194022898Y-103409876D01*
X193944769Y-103556043D01*
X193884699Y-103754067D01*
X193864417Y-103960000D01*
X183850333Y-103960000D01*
X183833012Y-103930000D01*
X184749999Y-103930000D01*
X184749999Y-103380028D01*
X184749998Y-103380013D01*
X184739505Y-103277302D01*
X184684358Y-103110880D01*
X184684356Y-103110875D01*
X184592315Y-102961654D01*
X184468345Y-102837684D01*
X184319124Y-102745643D01*
X184319119Y-102745641D01*
X184152697Y-102690494D01*
X184152690Y-102690493D01*
X184049986Y-102680000D01*
X183650000Y-102680000D01*
X183650000Y-103746988D01*
X183592993Y-103714075D01*
X183465826Y-103680000D01*
X183334174Y-103680000D01*
X183207007Y-103714075D01*
X183150000Y-103746988D01*
X183150000Y-102680000D01*
X182750028Y-102680000D01*
X182750012Y-102680001D01*
X182647302Y-102690494D01*
X182480880Y-102745641D01*
X182480875Y-102745643D01*
X182331654Y-102837684D01*
X182207684Y-102961654D01*
X182115643Y-103110875D01*
X182115641Y-103110880D01*
X182060494Y-103277302D01*
X182060493Y-103277309D01*
X182050000Y-103380013D01*
X182050000Y-103451473D01*
X182030315Y-103518512D01*
X181977511Y-103564267D01*
X181908353Y-103574211D01*
X181844797Y-103545186D01*
X181822898Y-103520363D01*
X181715980Y-103360349D01*
X181715974Y-103360341D01*
X181569657Y-103214024D01*
X181471044Y-103148134D01*
X181397598Y-103099059D01*
X181357633Y-103082505D01*
X181206420Y-103019870D01*
X181206412Y-103019868D01*
X181003469Y-102979500D01*
X181003465Y-102979500D01*
X180941948Y-102979500D01*
X180874909Y-102959815D01*
X180854267Y-102943181D01*
X179616976Y-101705888D01*
X179616975Y-101705887D01*
X179502237Y-101629222D01*
X179374762Y-101576421D01*
X179374752Y-101576418D01*
X179239426Y-101549500D01*
X179239424Y-101549500D01*
X179239423Y-101549500D01*
X155380725Y-101549500D01*
X155313686Y-101529815D01*
X155273338Y-101487500D01*
X155158959Y-101289388D01*
X155000050Y-101090123D01*
X154813217Y-100916768D01*
X154602634Y-100773195D01*
X154602630Y-100773193D01*
X154602627Y-100773191D01*
X154602626Y-100773190D01*
X154525855Y-100736220D01*
X154473995Y-100689398D01*
X154455682Y-100621971D01*
X154476730Y-100555347D01*
X154530456Y-100510678D01*
X154579656Y-100500500D01*
X259375501Y-100500500D01*
X259442540Y-100520185D01*
X259488295Y-100572989D01*
X259499500Y-100624499D01*
X259499500Y-111389485D01*
X259499500Y-121909808D01*
X259479815Y-121976847D01*
X259451227Y-122007998D01*
X258170212Y-122995956D01*
X258168243Y-122997444D01*
X256625980Y-124138654D01*
X256623981Y-124140103D01*
X255059288Y-125250398D01*
X255057261Y-125251806D01*
X253470811Y-126330712D01*
X253468756Y-126332080D01*
X251861133Y-127379197D01*
X251859051Y-127380524D01*
X250230889Y-128395441D01*
X250228781Y-128396726D01*
X248580723Y-129379040D01*
X248578590Y-129380282D01*
X246911363Y-130329561D01*
X246909206Y-130330761D01*
X245223395Y-131246673D01*
X245221215Y-131247830D01*
X243517447Y-132130033D01*
X243515243Y-132131146D01*
X241794313Y-132979229D01*
X241792088Y-132980298D01*
X240054635Y-133793946D01*
X240052390Y-133794971D01*
X238299024Y-134573899D01*
X238296758Y-134574879D01*
X236528229Y-135318751D01*
X236525944Y-135319685D01*
X234743018Y-136028182D01*
X234740715Y-136029071D01*
X232943968Y-136701962D01*
X232941648Y-136702804D01*
X231131951Y-137339764D01*
X231129614Y-137340561D01*
X229307493Y-137941403D01*
X229305141Y-137942152D01*
X227471525Y-138506574D01*
X227469159Y-138507277D01*
X225624624Y-139035098D01*
X225622244Y-139035754D01*
X223767547Y-139526759D01*
X223765154Y-139527367D01*
X221901039Y-139981356D01*
X221898635Y-139981916D01*
X220025896Y-140398698D01*
X220023482Y-140399210D01*
X218142798Y-140778635D01*
X218140373Y-140779099D01*
X216252536Y-141121007D01*
X216250103Y-141121423D01*
X214355785Y-141425690D01*
X214353344Y-141426057D01*
X212453352Y-141692554D01*
X212450904Y-141692872D01*
X210546039Y-141921488D01*
X210543585Y-141921758D01*
X208634508Y-142112414D01*
X208632050Y-142112635D01*
X206719552Y-142265251D01*
X206717089Y-142265423D01*
X204801942Y-142379936D01*
X204799477Y-142380059D01*
X202882378Y-142456430D01*
X202879910Y-142456503D01*
X200961776Y-142494694D01*
X200959308Y-142494719D01*
X199040691Y-142494719D01*
X199038223Y-142494694D01*
X197120088Y-142456503D01*
X197117620Y-142456430D01*
X195200521Y-142380059D01*
X195198056Y-142379936D01*
X193282908Y-142265423D01*
X193280445Y-142265251D01*
X191367947Y-142112635D01*
X191365489Y-142112414D01*
X189456413Y-141921758D01*
X189453959Y-141921488D01*
X187549094Y-141692872D01*
X187546646Y-141692554D01*
X185646654Y-141426056D01*
X185644213Y-141425689D01*
X183749895Y-141121423D01*
X183747462Y-141121007D01*
X181859625Y-140779099D01*
X181857200Y-140778635D01*
X179976515Y-140399210D01*
X179974101Y-140398698D01*
X178101363Y-139981916D01*
X178098958Y-139981356D01*
X176234843Y-139527366D01*
X176232451Y-139526758D01*
X174377754Y-139035753D01*
X174375374Y-139035097D01*
X172734514Y-138565558D01*
X172530833Y-138507274D01*
X172528473Y-138506573D01*
X172470955Y-138488868D01*
X172326987Y-138444552D01*
X170694857Y-137942152D01*
X170692505Y-137941403D01*
X168870384Y-137340560D01*
X168868047Y-137339763D01*
X167058350Y-136702803D01*
X167056030Y-136701961D01*
X165259283Y-136029070D01*
X165256980Y-136028181D01*
X163474054Y-135319685D01*
X163471769Y-135318751D01*
X161703221Y-134574870D01*
X161700956Y-134573890D01*
X159947628Y-133794980D01*
X159945382Y-133793955D01*
X159902202Y-133773734D01*
X158207907Y-132980295D01*
X158205685Y-132979228D01*
X156484755Y-132131146D01*
X156482551Y-132130033D01*
X154778783Y-131247830D01*
X154776603Y-131246673D01*
X153090792Y-130330760D01*
X153088635Y-130329560D01*
X151421408Y-129380281D01*
X151419275Y-129379039D01*
X149771217Y-128396725D01*
X149769109Y-128395440D01*
X148140947Y-127380523D01*
X148138865Y-127379196D01*
X147161336Y-126742488D01*
X146531212Y-126332059D01*
X146529189Y-126330712D01*
X145179518Y-125412835D01*
X144942737Y-125251806D01*
X144940710Y-125250398D01*
X144442732Y-124897036D01*
X144235513Y-124749995D01*
X152044732Y-124749995D01*
X152044732Y-124750004D01*
X152063777Y-125004154D01*
X152120142Y-125251107D01*
X152120492Y-125252637D01*
X152213607Y-125489888D01*
X152341041Y-125710612D01*
X152499950Y-125909877D01*
X152686783Y-126083232D01*
X152897366Y-126226805D01*
X152897371Y-126226807D01*
X152897372Y-126226808D01*
X152897373Y-126226809D01*
X153019328Y-126285538D01*
X153126992Y-126337387D01*
X153126993Y-126337387D01*
X153126996Y-126337389D01*
X153370542Y-126412513D01*
X153622565Y-126450500D01*
X153877435Y-126450500D01*
X154129458Y-126412513D01*
X154373004Y-126337389D01*
X154602634Y-126226805D01*
X154813217Y-126083232D01*
X155000050Y-125909877D01*
X155158959Y-125710612D01*
X155273338Y-125512499D01*
X155323905Y-125464285D01*
X155380725Y-125450500D01*
X158168996Y-125450500D01*
X158260040Y-125432389D01*
X158304328Y-125423580D01*
X158420404Y-125375500D01*
X158431807Y-125370777D01*
X158431808Y-125370776D01*
X158431811Y-125370775D01*
X158546543Y-125294114D01*
X159140657Y-124700000D01*
X161257090Y-124700000D01*
X161276700Y-124949181D01*
X161276700Y-124949184D01*
X161276701Y-124949186D01*
X161335053Y-125192236D01*
X161335054Y-125192240D01*
X161430704Y-125423162D01*
X161430706Y-125423165D01*
X161561305Y-125636283D01*
X161561306Y-125636285D01*
X161561307Y-125636287D01*
X161561309Y-125636289D01*
X161723643Y-125826357D01*
X161913711Y-125988691D01*
X161913713Y-125988692D01*
X161913714Y-125988693D01*
X161913716Y-125988694D01*
X162126834Y-126119293D01*
X162126837Y-126119295D01*
X162339691Y-126207461D01*
X162357764Y-126214947D01*
X162600814Y-126273299D01*
X162850000Y-126292910D01*
X163099186Y-126273299D01*
X163342236Y-126214947D01*
X163470772Y-126161706D01*
X163573162Y-126119295D01*
X163573163Y-126119294D01*
X163573166Y-126119293D01*
X163786289Y-125988691D01*
X163976357Y-125826357D01*
X164138691Y-125636289D01*
X164164741Y-125593778D01*
X164246899Y-125459710D01*
X164298710Y-125412835D01*
X164352626Y-125400500D01*
X166147374Y-125400500D01*
X166214413Y-125420185D01*
X166253101Y-125459710D01*
X166361305Y-125636284D01*
X166361306Y-125636285D01*
X166361307Y-125636287D01*
X166361309Y-125636289D01*
X166523643Y-125826357D01*
X166713711Y-125988691D01*
X166713713Y-125988692D01*
X166713714Y-125988693D01*
X166713716Y-125988694D01*
X166926834Y-126119293D01*
X166926837Y-126119295D01*
X167139691Y-126207461D01*
X167157764Y-126214947D01*
X167400814Y-126273299D01*
X167650000Y-126292910D01*
X167899186Y-126273299D01*
X168142236Y-126214947D01*
X168270772Y-126161706D01*
X168373162Y-126119295D01*
X168373163Y-126119294D01*
X168373166Y-126119293D01*
X168586289Y-125988691D01*
X168776357Y-125826357D01*
X168938691Y-125636289D01*
X168964741Y-125593778D01*
X169046899Y-125459710D01*
X169098710Y-125412835D01*
X169152626Y-125400500D01*
X173325500Y-125400500D01*
X173392539Y-125420185D01*
X173438294Y-125472989D01*
X173449500Y-125524500D01*
X173449500Y-125969752D01*
X173461131Y-126028229D01*
X173461132Y-126028230D01*
X173505447Y-126094552D01*
X173571769Y-126138867D01*
X173571770Y-126138868D01*
X173630247Y-126150499D01*
X173630250Y-126150500D01*
X173630252Y-126150500D01*
X173850500Y-126150500D01*
X173917539Y-126170185D01*
X173963294Y-126222989D01*
X173974500Y-126274500D01*
X173974500Y-127683469D01*
X173974500Y-131816531D01*
X173974500Y-131816533D01*
X173974499Y-131816533D01*
X174000458Y-131947030D01*
X174000461Y-131947040D01*
X174051376Y-132069961D01*
X174051386Y-132069979D01*
X174125301Y-132180601D01*
X174125307Y-132180609D01*
X174219390Y-132274692D01*
X174219398Y-132274698D01*
X174330020Y-132348613D01*
X174330023Y-132348614D01*
X174330031Y-132348620D01*
X174452964Y-132399540D01*
X174452968Y-132399540D01*
X174452969Y-132399541D01*
X174583466Y-132425500D01*
X174583469Y-132425500D01*
X174716533Y-132425500D01*
X174804325Y-132408035D01*
X174847036Y-132399540D01*
X174910080Y-132373426D01*
X174979544Y-132365958D01*
X175042024Y-132397232D01*
X175045211Y-132400308D01*
X175074616Y-132429714D01*
X175074625Y-132429721D01*
X175213804Y-132512031D01*
X175360000Y-132554504D01*
X175360000Y-132554503D01*
X175860000Y-132554503D01*
X176006195Y-132512031D01*
X176145374Y-132429721D01*
X176145383Y-132429714D01*
X176259714Y-132315383D01*
X176259721Y-132315374D01*
X176342031Y-132176195D01*
X176342033Y-132176190D01*
X176387144Y-132020918D01*
X176387145Y-132020912D01*
X176388790Y-132000000D01*
X175860000Y-132000000D01*
X175860000Y-132554503D01*
X175360000Y-132554503D01*
X175360000Y-130945494D01*
X175860000Y-130945494D01*
X175860000Y-131500000D01*
X176388790Y-131500000D01*
X176387145Y-131479089D01*
X176342031Y-131323804D01*
X176259721Y-131184625D01*
X176259714Y-131184616D01*
X176145383Y-131070285D01*
X176145374Y-131070278D01*
X176006193Y-130987967D01*
X176006190Y-130987965D01*
X175860001Y-130945493D01*
X175860000Y-130945494D01*
X175360000Y-130945494D01*
X175360000Y-130936630D01*
X175333256Y-130900797D01*
X175325500Y-130857631D01*
X175325500Y-130642367D01*
X175345185Y-130575328D01*
X175360000Y-130559392D01*
X175360000Y-130554503D01*
X175860000Y-130554503D01*
X176006195Y-130512031D01*
X176145374Y-130429721D01*
X176145383Y-130429714D01*
X176259714Y-130315383D01*
X176259721Y-130315374D01*
X176342031Y-130176195D01*
X176342033Y-130176190D01*
X176387144Y-130020918D01*
X176387145Y-130020912D01*
X176388790Y-130000000D01*
X175860000Y-130000000D01*
X175860000Y-130554503D01*
X175360000Y-130554503D01*
X175360000Y-128945494D01*
X175860000Y-128945494D01*
X175860000Y-129500000D01*
X176388790Y-129500000D01*
X176387145Y-129479089D01*
X176342031Y-129323804D01*
X176259721Y-129184625D01*
X176259714Y-129184616D01*
X176145383Y-129070285D01*
X176145374Y-129070278D01*
X176006193Y-128987967D01*
X176006190Y-128987965D01*
X175860001Y-128945493D01*
X175860000Y-128945494D01*
X175360000Y-128945494D01*
X175360000Y-128936630D01*
X175333256Y-128900797D01*
X175325500Y-128857631D01*
X175325500Y-128642367D01*
X175345185Y-128575328D01*
X175360000Y-128559392D01*
X175360000Y-128554503D01*
X175860000Y-128554503D01*
X176006195Y-128512031D01*
X176145374Y-128429721D01*
X176145383Y-128429714D01*
X176259714Y-128315383D01*
X176259721Y-128315374D01*
X176342031Y-128176195D01*
X176342033Y-128176190D01*
X176387144Y-128020918D01*
X176387145Y-128020912D01*
X176388790Y-128000000D01*
X177511210Y-128000000D01*
X177512854Y-128020910D01*
X177557968Y-128176195D01*
X177640278Y-128315374D01*
X177640285Y-128315383D01*
X177754616Y-128429714D01*
X177754625Y-128429721D01*
X177893804Y-128512031D01*
X178040000Y-128554504D01*
X178040000Y-128000000D01*
X177511210Y-128000000D01*
X176388790Y-128000000D01*
X175860000Y-128000000D01*
X175860000Y-128554503D01*
X175360000Y-128554503D01*
X175360000Y-126945494D01*
X175860000Y-126945494D01*
X175860000Y-127500000D01*
X176388790Y-127500000D01*
X176388790Y-127499999D01*
X177511209Y-127499999D01*
X177511210Y-127500000D01*
X178040000Y-127500000D01*
X178040000Y-126945494D01*
X178039998Y-126945493D01*
X177893809Y-126987965D01*
X177893806Y-126987967D01*
X177754625Y-127070278D01*
X177754616Y-127070285D01*
X177640285Y-127184616D01*
X177640278Y-127184625D01*
X177557968Y-127323804D01*
X177557966Y-127323809D01*
X177512855Y-127479081D01*
X177512854Y-127479087D01*
X177511209Y-127499999D01*
X176388790Y-127499999D01*
X176387145Y-127479089D01*
X176342031Y-127323804D01*
X176259721Y-127184625D01*
X176259714Y-127184616D01*
X176145383Y-127070285D01*
X176145374Y-127070278D01*
X176006193Y-126987967D01*
X176006190Y-126987965D01*
X175860001Y-126945493D01*
X175860000Y-126945494D01*
X175360000Y-126945494D01*
X175360000Y-126936630D01*
X175333256Y-126900797D01*
X175325500Y-126857631D01*
X175325500Y-126274500D01*
X175345185Y-126207461D01*
X175397989Y-126161706D01*
X175449500Y-126150500D01*
X175669750Y-126150500D01*
X175669751Y-126150499D01*
X175684568Y-126147552D01*
X175728229Y-126138868D01*
X175728229Y-126138867D01*
X175728231Y-126138867D01*
X175794552Y-126094552D01*
X175838867Y-126028231D01*
X175838867Y-126028229D01*
X175838868Y-126028229D01*
X175850499Y-125969752D01*
X175850500Y-125969750D01*
X175850500Y-124506163D01*
X175870185Y-124439124D01*
X175886819Y-124418482D01*
X177093482Y-123211819D01*
X177154805Y-123178334D01*
X177181163Y-123175500D01*
X177960288Y-123175500D01*
X178027327Y-123195185D01*
X178073082Y-123247989D01*
X178083026Y-123317147D01*
X178063390Y-123368390D01*
X178062393Y-123369882D01*
X178061131Y-123371771D01*
X178049500Y-123430247D01*
X178049500Y-125969752D01*
X178061131Y-126028229D01*
X178061132Y-126028230D01*
X178105447Y-126094552D01*
X178171769Y-126138867D01*
X178171770Y-126138868D01*
X178230247Y-126150499D01*
X178230250Y-126150500D01*
X178230252Y-126150500D01*
X178450500Y-126150500D01*
X178517539Y-126170185D01*
X178563294Y-126222989D01*
X178574500Y-126274500D01*
X178574500Y-126857631D01*
X178554815Y-126924670D01*
X178540000Y-126940605D01*
X178540000Y-128554503D01*
X178686195Y-128512031D01*
X178825372Y-128429722D01*
X178825380Y-128429716D01*
X178854788Y-128400308D01*
X178916110Y-128366822D01*
X178985802Y-128371806D01*
X178989883Y-128373411D01*
X179052964Y-128399540D01*
X179052968Y-128399540D01*
X179052969Y-128399541D01*
X179183466Y-128425500D01*
X179183469Y-128425500D01*
X179316533Y-128425500D01*
X179404325Y-128408035D01*
X179447036Y-128399540D01*
X179569969Y-128348620D01*
X179680606Y-128274695D01*
X179774695Y-128180606D01*
X179848620Y-128069969D01*
X179899540Y-127947036D01*
X179908035Y-127904325D01*
X179925500Y-127816533D01*
X179925500Y-126274500D01*
X179945185Y-126207461D01*
X179997989Y-126161706D01*
X180049500Y-126150500D01*
X180269750Y-126150500D01*
X180269751Y-126150499D01*
X180284568Y-126147552D01*
X180328229Y-126138868D01*
X180328229Y-126138867D01*
X180328231Y-126138867D01*
X180394552Y-126094552D01*
X180438867Y-126028231D01*
X180438867Y-126028229D01*
X180438868Y-126028229D01*
X180450499Y-125969752D01*
X180450500Y-125969750D01*
X180450500Y-125499500D01*
X180470185Y-125432461D01*
X180522989Y-125386706D01*
X180574500Y-125375500D01*
X182016533Y-125375500D01*
X182104325Y-125358035D01*
X182147036Y-125349540D01*
X182269969Y-125298620D01*
X182380606Y-125224695D01*
X182474695Y-125130606D01*
X182548620Y-125019969D01*
X182599540Y-124897036D01*
X182608035Y-124854325D01*
X182625500Y-124766533D01*
X182625500Y-124633466D01*
X182599541Y-124502969D01*
X182599540Y-124502968D01*
X182599540Y-124502964D01*
X182581586Y-124459618D01*
X182548623Y-124380038D01*
X182548622Y-124380037D01*
X182548620Y-124380031D01*
X182492462Y-124295985D01*
X182474698Y-124269398D01*
X182474692Y-124269390D01*
X182380609Y-124175307D01*
X182380601Y-124175301D01*
X182269979Y-124101386D01*
X182269972Y-124101382D01*
X182269969Y-124101380D01*
X182269965Y-124101378D01*
X182269961Y-124101376D01*
X182147040Y-124050461D01*
X182147030Y-124050458D01*
X182016533Y-124024500D01*
X182016531Y-124024500D01*
X180574500Y-124024500D01*
X180507461Y-124004815D01*
X180461706Y-123952011D01*
X180450500Y-123900500D01*
X180450500Y-123430249D01*
X180450499Y-123430247D01*
X180438868Y-123371771D01*
X180438867Y-123371769D01*
X180436609Y-123368390D01*
X180415732Y-123301715D01*
X180434216Y-123234334D01*
X180486194Y-123187644D01*
X180539712Y-123175500D01*
X182768837Y-123175500D01*
X182835876Y-123195185D01*
X182856518Y-123211819D01*
X184063181Y-124418482D01*
X184096666Y-124479805D01*
X184099500Y-124506163D01*
X184099500Y-125969752D01*
X184111131Y-126028229D01*
X184111132Y-126028230D01*
X184155447Y-126094552D01*
X184221769Y-126138867D01*
X184221770Y-126138868D01*
X184280247Y-126150499D01*
X184280250Y-126150500D01*
X184280252Y-126150500D01*
X184500500Y-126150500D01*
X184567539Y-126170185D01*
X184613294Y-126222989D01*
X184624500Y-126274500D01*
X184624500Y-128322999D01*
X184650457Y-128453492D01*
X184650459Y-128453500D01*
X184701378Y-128576429D01*
X184701383Y-128576439D01*
X184775304Y-128687069D01*
X184775307Y-128687073D01*
X194112926Y-138024692D01*
X194112930Y-138024695D01*
X194223560Y-138098616D01*
X194223564Y-138098618D01*
X194223567Y-138098620D01*
X194346500Y-138149541D01*
X194477000Y-138175499D01*
X194477004Y-138175500D01*
X194477005Y-138175500D01*
X203875500Y-138175500D01*
X203942539Y-138195185D01*
X203988294Y-138247989D01*
X203999500Y-138299500D01*
X203999500Y-138319752D01*
X204011131Y-138378229D01*
X204011132Y-138378230D01*
X204055447Y-138444552D01*
X204121769Y-138488867D01*
X204121770Y-138488868D01*
X204180247Y-138500499D01*
X204180250Y-138500500D01*
X204180252Y-138500500D01*
X205819750Y-138500500D01*
X205819751Y-138500499D01*
X205834568Y-138497552D01*
X205878229Y-138488868D01*
X205878229Y-138488867D01*
X205878231Y-138488867D01*
X205944552Y-138444552D01*
X205988867Y-138378231D01*
X205988867Y-138378229D01*
X205988868Y-138378229D01*
X206000499Y-138319752D01*
X206000500Y-138319750D01*
X206000500Y-138299500D01*
X206020185Y-138232461D01*
X206072989Y-138186706D01*
X206124500Y-138175500D01*
X210332996Y-138175500D01*
X210332997Y-138175499D01*
X210463500Y-138149541D01*
X210586433Y-138098620D01*
X210697070Y-138024695D01*
X211145427Y-137576338D01*
X212784695Y-135937070D01*
X217809946Y-130911819D01*
X217871269Y-130878334D01*
X217897627Y-130875500D01*
X240266532Y-130875500D01*
X240266533Y-130875499D01*
X240397036Y-130849541D01*
X240519969Y-130798620D01*
X240630606Y-130724695D01*
X250856979Y-120498322D01*
X254409076Y-120498322D01*
X254428550Y-120783030D01*
X254428550Y-120783034D01*
X254428551Y-120783036D01*
X254437573Y-120826452D01*
X254486613Y-121062449D01*
X254486614Y-121062452D01*
X254582179Y-121331344D01*
X254582178Y-121331344D01*
X254691306Y-121541951D01*
X254713474Y-121584733D01*
X254878047Y-121817879D01*
X254878051Y-121817883D01*
X254878051Y-121817884D01*
X255072836Y-122026447D01*
X255196652Y-122127178D01*
X255294205Y-122206544D01*
X255294207Y-122206545D01*
X255294208Y-122206546D01*
X255538040Y-122354824D01*
X255538045Y-122354826D01*
X255665021Y-122409979D01*
X255799792Y-122468518D01*
X256074589Y-122545512D01*
X256323144Y-122579676D01*
X256357309Y-122584372D01*
X256357310Y-122584372D01*
X256642691Y-122584372D01*
X256673171Y-122580182D01*
X256925411Y-122545512D01*
X257200208Y-122468518D01*
X257461961Y-122354823D01*
X257705795Y-122206544D01*
X257927167Y-122026444D01*
X258121953Y-121817879D01*
X258286526Y-121584733D01*
X258417819Y-121331348D01*
X258513387Y-121062447D01*
X258571449Y-120783036D01*
X258590924Y-120498322D01*
X258571449Y-120213608D01*
X258513387Y-119934197D01*
X258417820Y-119665299D01*
X258417821Y-119665299D01*
X258328848Y-119493589D01*
X258286526Y-119411911D01*
X258121953Y-119178765D01*
X258121948Y-119178759D01*
X257927163Y-118970196D01*
X257705791Y-118790097D01*
X257461959Y-118641819D01*
X257461954Y-118641817D01*
X257200213Y-118528128D01*
X257200211Y-118528127D01*
X257200208Y-118528126D01*
X257046481Y-118485054D01*
X256925417Y-118451133D01*
X256925412Y-118451132D01*
X256925411Y-118451132D01*
X256758798Y-118428231D01*
X256642691Y-118412272D01*
X256642690Y-118412272D01*
X256357310Y-118412272D01*
X256357309Y-118412272D01*
X256074589Y-118451132D01*
X256074582Y-118451133D01*
X255868236Y-118508948D01*
X255799792Y-118528126D01*
X255799789Y-118528126D01*
X255799786Y-118528128D01*
X255799785Y-118528128D01*
X255538045Y-118641817D01*
X255538040Y-118641819D01*
X255294208Y-118790097D01*
X255072836Y-118970196D01*
X254878051Y-119178759D01*
X254878051Y-119178760D01*
X254878048Y-119178762D01*
X254878047Y-119178765D01*
X254859741Y-119204699D01*
X254713474Y-119411910D01*
X254582179Y-119665299D01*
X254486614Y-119934191D01*
X254486613Y-119934194D01*
X254428550Y-120213613D01*
X254409076Y-120498322D01*
X250856979Y-120498322D01*
X255449695Y-115905606D01*
X255457997Y-115893182D01*
X255474230Y-115868888D01*
X255523613Y-115794979D01*
X255523620Y-115794969D01*
X255543717Y-115746450D01*
X255574541Y-115672036D01*
X255590059Y-115594018D01*
X255600500Y-115541533D01*
X255600500Y-108358466D01*
X255574541Y-108227969D01*
X255574540Y-108227968D01*
X255574540Y-108227964D01*
X255523620Y-108105031D01*
X255485472Y-108047939D01*
X255449698Y-107994398D01*
X255449697Y-107994397D01*
X255449695Y-107994394D01*
X255355606Y-107900305D01*
X253647448Y-106192147D01*
X251930609Y-104475307D01*
X251930605Y-104475304D01*
X251819975Y-104401383D01*
X251819965Y-104401378D01*
X251697036Y-104350459D01*
X251697028Y-104350457D01*
X251566535Y-104324500D01*
X251566531Y-104324500D01*
X251124500Y-104324500D01*
X251057461Y-104304815D01*
X251011706Y-104252011D01*
X251000500Y-104200500D01*
X251000500Y-104180249D01*
X251000499Y-104180247D01*
X250988868Y-104121770D01*
X250988867Y-104121769D01*
X250944552Y-104055447D01*
X250878230Y-104011132D01*
X250878229Y-104011131D01*
X250819752Y-103999500D01*
X250819748Y-103999500D01*
X249180252Y-103999500D01*
X249180247Y-103999500D01*
X249121770Y-104011131D01*
X249121769Y-104011132D01*
X249055447Y-104055447D01*
X249011132Y-104121769D01*
X249011131Y-104121770D01*
X248999500Y-104180247D01*
X248999500Y-104200500D01*
X248979815Y-104267539D01*
X248927011Y-104313294D01*
X248875500Y-104324500D01*
X238874500Y-104324500D01*
X238807461Y-104304815D01*
X238761706Y-104252011D01*
X238750500Y-104200500D01*
X238750500Y-104130249D01*
X238750499Y-104130247D01*
X238738868Y-104071770D01*
X238738867Y-104071769D01*
X238694552Y-104005447D01*
X238628230Y-103961132D01*
X238628229Y-103961131D01*
X238569752Y-103949500D01*
X238569748Y-103949500D01*
X237656163Y-103949500D01*
X237589124Y-103929815D01*
X237568482Y-103913181D01*
X237155300Y-103499999D01*
X254494390Y-103499999D01*
X254494390Y-103500002D01*
X254514804Y-103785434D01*
X254575628Y-104065038D01*
X254575630Y-104065044D01*
X254575631Y-104065047D01*
X254651081Y-104267336D01*
X254675635Y-104333167D01*
X254812770Y-104584310D01*
X254812775Y-104584318D01*
X254984254Y-104813388D01*
X254984270Y-104813406D01*
X255186594Y-105015730D01*
X255186612Y-105015746D01*
X255415682Y-105187225D01*
X255415690Y-105187230D01*
X255666833Y-105324365D01*
X255666832Y-105324365D01*
X255666836Y-105324366D01*
X255666839Y-105324368D01*
X255934954Y-105424370D01*
X255934960Y-105424371D01*
X255934962Y-105424372D01*
X256214566Y-105485196D01*
X256214568Y-105485196D01*
X256214572Y-105485197D01*
X256468220Y-105503338D01*
X256499999Y-105505611D01*
X256500000Y-105505611D01*
X256500001Y-105505611D01*
X256528595Y-105503565D01*
X256785428Y-105485197D01*
X256879652Y-105464700D01*
X257065037Y-105424372D01*
X257065037Y-105424371D01*
X257065046Y-105424370D01*
X257333161Y-105324368D01*
X257584315Y-105187227D01*
X257813395Y-105015740D01*
X258015739Y-104813396D01*
X258187226Y-104584316D01*
X258324367Y-104333162D01*
X258424369Y-104065047D01*
X258436097Y-104011133D01*
X258485195Y-103785434D01*
X258485195Y-103785433D01*
X258485196Y-103785429D01*
X258505610Y-103500001D01*
X258485196Y-103214573D01*
X258485076Y-103214023D01*
X258424371Y-102934963D01*
X258424370Y-102934961D01*
X258424369Y-102934955D01*
X258324367Y-102666840D01*
X258301756Y-102625432D01*
X258187229Y-102415691D01*
X258187224Y-102415683D01*
X258015745Y-102186613D01*
X258015729Y-102186595D01*
X257813405Y-101984271D01*
X257813387Y-101984255D01*
X257584317Y-101812776D01*
X257584309Y-101812771D01*
X257333166Y-101675636D01*
X257333167Y-101675636D01*
X257208726Y-101629222D01*
X257065046Y-101575632D01*
X257065043Y-101575631D01*
X257065037Y-101575629D01*
X256785433Y-101514805D01*
X256500001Y-101494391D01*
X256499999Y-101494391D01*
X256214566Y-101514805D01*
X255934962Y-101575629D01*
X255666833Y-101675636D01*
X255415690Y-101812771D01*
X255415682Y-101812776D01*
X255186612Y-101984255D01*
X255186594Y-101984271D01*
X254984270Y-102186595D01*
X254984254Y-102186613D01*
X254812775Y-102415683D01*
X254812770Y-102415691D01*
X254675635Y-102666834D01*
X254575628Y-102934963D01*
X254514804Y-103214567D01*
X254494390Y-103499999D01*
X237155300Y-103499999D01*
X234805609Y-101150307D01*
X234805605Y-101150304D01*
X234694975Y-101076383D01*
X234694965Y-101076378D01*
X234572036Y-101025459D01*
X234572028Y-101025457D01*
X234441535Y-100999500D01*
X234441531Y-100999500D01*
X202351531Y-100999500D01*
X202218469Y-100999500D01*
X202218464Y-100999500D01*
X202087971Y-101025457D01*
X202087963Y-101025459D01*
X201965034Y-101076378D01*
X201965024Y-101076383D01*
X201854394Y-101150304D01*
X201854390Y-101150307D01*
X200132760Y-102871937D01*
X200071437Y-102905422D01*
X200032928Y-102907659D01*
X200000003Y-102904417D01*
X200000001Y-102904417D01*
X200000000Y-102904417D01*
X199979718Y-102906414D01*
X199794067Y-102924699D01*
X199663570Y-102964285D01*
X199613413Y-102979500D01*
X199596043Y-102984769D01*
X199516649Y-103027207D01*
X199413550Y-103082315D01*
X199413548Y-103082316D01*
X199413547Y-103082317D01*
X199253589Y-103213589D01*
X199122317Y-103373547D01*
X199122315Y-103373550D01*
X199102898Y-103409876D01*
X199024769Y-103556043D01*
X198964699Y-103754067D01*
X198944417Y-103960000D01*
X198964699Y-104165932D01*
X198973616Y-104195326D01*
X199024768Y-104363954D01*
X199122315Y-104546450D01*
X199122317Y-104546452D01*
X199253589Y-104706410D01*
X199350209Y-104785702D01*
X199413550Y-104837685D01*
X199596046Y-104935232D01*
X199794066Y-104995300D01*
X199794065Y-104995300D01*
X199812529Y-104997118D01*
X200000000Y-105015583D01*
X200205934Y-104995300D01*
X200403954Y-104935232D01*
X200586450Y-104837685D01*
X200746410Y-104706410D01*
X200877685Y-104546450D01*
X200975232Y-104363954D01*
X200995406Y-104297446D01*
X201033702Y-104239010D01*
X201097514Y-104210553D01*
X201166581Y-104221112D01*
X201218975Y-104267336D01*
X201233841Y-104301349D01*
X201266567Y-104423486D01*
X201266570Y-104423492D01*
X201366400Y-104637579D01*
X201366402Y-104637583D01*
X201425072Y-104721373D01*
X201425073Y-104721373D01*
X202057037Y-104089408D01*
X202074075Y-104152993D01*
X202139901Y-104267007D01*
X202232993Y-104360099D01*
X202347007Y-104425925D01*
X202410590Y-104442962D01*
X201778625Y-105074925D01*
X201855031Y-105128425D01*
X201898655Y-105183002D01*
X201905848Y-105252501D01*
X201874326Y-105314855D01*
X201855029Y-105331576D01*
X201778625Y-105385072D01*
X202410590Y-106017037D01*
X202347007Y-106034075D01*
X202232993Y-106099901D01*
X202139901Y-106192993D01*
X202074075Y-106307007D01*
X202057037Y-106370590D01*
X201425072Y-105738625D01*
X201366401Y-105822419D01*
X201266570Y-106036507D01*
X201266567Y-106036514D01*
X201233841Y-106158650D01*
X201197476Y-106218310D01*
X201134629Y-106248839D01*
X201065253Y-106240544D01*
X201011375Y-106196059D01*
X200995406Y-106162553D01*
X200975232Y-106096046D01*
X200877685Y-105913550D01*
X200812668Y-105834326D01*
X200746410Y-105753589D01*
X200586452Y-105622317D01*
X200586453Y-105622317D01*
X200586450Y-105622315D01*
X200403954Y-105524768D01*
X200205934Y-105464700D01*
X200205932Y-105464699D01*
X200205934Y-105464699D01*
X200000000Y-105444417D01*
X199794067Y-105464699D01*
X199596043Y-105524769D01*
X199496737Y-105577850D01*
X199413550Y-105622315D01*
X199413548Y-105622316D01*
X199413547Y-105622317D01*
X199253589Y-105753589D01*
X199151300Y-105878231D01*
X199122315Y-105913550D01*
X199114468Y-105928231D01*
X199024769Y-106096043D01*
X198964699Y-106294067D01*
X198944417Y-106500000D01*
X198964699Y-106705932D01*
X198974666Y-106738789D01*
X199024768Y-106903954D01*
X199122315Y-107086450D01*
X199122317Y-107086452D01*
X199253589Y-107246410D01*
X199334584Y-107312880D01*
X199413550Y-107377685D01*
X199596046Y-107475232D01*
X199794066Y-107535300D01*
X199794065Y-107535300D01*
X199812529Y-107537118D01*
X200000000Y-107555583D01*
X200205934Y-107535300D01*
X200403954Y-107475232D01*
X200586450Y-107377685D01*
X200746410Y-107246410D01*
X200877685Y-107086450D01*
X200975232Y-106903954D01*
X200995406Y-106837446D01*
X201033702Y-106779010D01*
X201097514Y-106750553D01*
X201166581Y-106761112D01*
X201218975Y-106807336D01*
X201233841Y-106841349D01*
X201266567Y-106963486D01*
X201266570Y-106963492D01*
X201366399Y-107177577D01*
X201366402Y-107177583D01*
X201425072Y-107261373D01*
X201425073Y-107261373D01*
X202057037Y-106629409D01*
X202074075Y-106692993D01*
X202139901Y-106807007D01*
X202232993Y-106900099D01*
X202347007Y-106965925D01*
X202410590Y-106982962D01*
X201778625Y-107614925D01*
X201862421Y-107673599D01*
X202076507Y-107773429D01*
X202076516Y-107773433D01*
X202304673Y-107834567D01*
X202304684Y-107834569D01*
X202539998Y-107855157D01*
X202540002Y-107855157D01*
X202775315Y-107834569D01*
X202775326Y-107834567D01*
X203003483Y-107773433D01*
X203003492Y-107773429D01*
X203217578Y-107673600D01*
X203217582Y-107673598D01*
X203301373Y-107614926D01*
X203301373Y-107614925D01*
X202669409Y-106982962D01*
X202732993Y-106965925D01*
X202847007Y-106900099D01*
X202940099Y-106807007D01*
X203005925Y-106692993D01*
X203022962Y-106629410D01*
X203654925Y-107261373D01*
X203708425Y-107184968D01*
X203763002Y-107141344D01*
X203832501Y-107134151D01*
X203894855Y-107165673D01*
X203911576Y-107184969D01*
X203965073Y-107261372D01*
X204597037Y-106629409D01*
X204614075Y-106692993D01*
X204679901Y-106807007D01*
X204772993Y-106900099D01*
X204887007Y-106965925D01*
X204950590Y-106982962D01*
X204318625Y-107614925D01*
X204402421Y-107673599D01*
X204616507Y-107773429D01*
X204616516Y-107773433D01*
X204844673Y-107834567D01*
X204844684Y-107834569D01*
X205079998Y-107855157D01*
X205080002Y-107855157D01*
X205315315Y-107834569D01*
X205315326Y-107834567D01*
X205543483Y-107773433D01*
X205543492Y-107773429D01*
X205757578Y-107673600D01*
X205757582Y-107673598D01*
X205841373Y-107614926D01*
X205841373Y-107614925D01*
X205209409Y-106982962D01*
X205272993Y-106965925D01*
X205387007Y-106900099D01*
X205480099Y-106807007D01*
X205545925Y-106692993D01*
X205562962Y-106629410D01*
X206194925Y-107261373D01*
X206194926Y-107261373D01*
X206253598Y-107177582D01*
X206253601Y-107177577D01*
X206353429Y-106963492D01*
X206353433Y-106963483D01*
X206414567Y-106735326D01*
X206414569Y-106735315D01*
X206435157Y-106500001D01*
X206435157Y-106499998D01*
X206414569Y-106264684D01*
X206414567Y-106264673D01*
X206353433Y-106036516D01*
X206353429Y-106036507D01*
X206253600Y-105822423D01*
X206253599Y-105822421D01*
X206194925Y-105738626D01*
X206194925Y-105738625D01*
X205562962Y-106370589D01*
X205545925Y-106307007D01*
X205480099Y-106192993D01*
X205387007Y-106099901D01*
X205272993Y-106034075D01*
X205209410Y-106017037D01*
X205841373Y-105385073D01*
X205764969Y-105331576D01*
X205721344Y-105276999D01*
X205714150Y-105207501D01*
X205745672Y-105145146D01*
X205764968Y-105128425D01*
X205841373Y-105074925D01*
X205209409Y-104442962D01*
X205272993Y-104425925D01*
X205387007Y-104360099D01*
X205480099Y-104267007D01*
X205545925Y-104152993D01*
X205562962Y-104089410D01*
X206194925Y-104721373D01*
X206194926Y-104721373D01*
X206253598Y-104637582D01*
X206253600Y-104637578D01*
X206353429Y-104423492D01*
X206353433Y-104423483D01*
X206414567Y-104195326D01*
X206414569Y-104195315D01*
X206435157Y-103960001D01*
X206435157Y-103959998D01*
X206414569Y-103724684D01*
X206414567Y-103724673D01*
X206353433Y-103496516D01*
X206353429Y-103496507D01*
X206253600Y-103282423D01*
X206253599Y-103282421D01*
X206194925Y-103198626D01*
X206194925Y-103198625D01*
X205562962Y-103830589D01*
X205545925Y-103767007D01*
X205480099Y-103652993D01*
X205387007Y-103559901D01*
X205272993Y-103494075D01*
X205209410Y-103477037D01*
X205841373Y-102845073D01*
X205841373Y-102845072D01*
X205757583Y-102786402D01*
X205757579Y-102786400D01*
X205543492Y-102686570D01*
X205543483Y-102686566D01*
X205315326Y-102625432D01*
X205315315Y-102625430D01*
X205080002Y-102604843D01*
X205079998Y-102604843D01*
X204844684Y-102625430D01*
X204844673Y-102625432D01*
X204616516Y-102686566D01*
X204616507Y-102686570D01*
X204402419Y-102786401D01*
X204318625Y-102845072D01*
X204950590Y-103477037D01*
X204887007Y-103494075D01*
X204772993Y-103559901D01*
X204679901Y-103652993D01*
X204614075Y-103767007D01*
X204597037Y-103830589D01*
X203965073Y-103198625D01*
X203965072Y-103198626D01*
X203911574Y-103275030D01*
X203856998Y-103318655D01*
X203787499Y-103325849D01*
X203725144Y-103294326D01*
X203708424Y-103275030D01*
X203654925Y-103198626D01*
X203654925Y-103198625D01*
X203022962Y-103830589D01*
X203005925Y-103767007D01*
X202940099Y-103652993D01*
X202847007Y-103559901D01*
X202732993Y-103494075D01*
X202669408Y-103477037D01*
X203301373Y-102845073D01*
X203301373Y-102845072D01*
X203217583Y-102786402D01*
X203217579Y-102786400D01*
X203003492Y-102686570D01*
X203003483Y-102686566D01*
X202775326Y-102625432D01*
X202775316Y-102625430D01*
X202593830Y-102609552D01*
X202528762Y-102584099D01*
X202487783Y-102527508D01*
X202483905Y-102457746D01*
X202516959Y-102398341D01*
X202528486Y-102386815D01*
X202589810Y-102353333D01*
X202616163Y-102350500D01*
X234043837Y-102350500D01*
X234110876Y-102370185D01*
X234131518Y-102386819D01*
X236613181Y-104868482D01*
X236646666Y-104929805D01*
X236649500Y-104956163D01*
X236649500Y-105869752D01*
X236661131Y-105928229D01*
X236661132Y-105928230D01*
X236705447Y-105994552D01*
X236771769Y-106038867D01*
X236771770Y-106038868D01*
X236830247Y-106050499D01*
X236830250Y-106050500D01*
X237140543Y-106050500D01*
X237207582Y-106070185D01*
X237253337Y-106122989D01*
X237263281Y-106192147D01*
X237234256Y-106255703D01*
X237192948Y-106286882D01*
X237022422Y-106366399D01*
X237022420Y-106366400D01*
X236828926Y-106501886D01*
X236828920Y-106501891D01*
X236661891Y-106668920D01*
X236661886Y-106668926D01*
X236526400Y-106862420D01*
X236526399Y-106862422D01*
X236426570Y-107076507D01*
X236426567Y-107076513D01*
X236369364Y-107289999D01*
X236369364Y-107290000D01*
X237266988Y-107290000D01*
X237234075Y-107347007D01*
X237200000Y-107474174D01*
X237200000Y-107605826D01*
X237234075Y-107732993D01*
X237266988Y-107790000D01*
X236369364Y-107790000D01*
X236426567Y-108003486D01*
X236426570Y-108003492D01*
X236526399Y-108217578D01*
X236661894Y-108411082D01*
X236828917Y-108578105D01*
X237022421Y-108713600D01*
X237236507Y-108813429D01*
X237236516Y-108813433D01*
X237358649Y-108846158D01*
X237418310Y-108882523D01*
X237448839Y-108945369D01*
X237440545Y-109014745D01*
X237396059Y-109068623D01*
X237362552Y-109084593D01*
X237296046Y-109104767D01*
X237165358Y-109174622D01*
X237113550Y-109202315D01*
X237113548Y-109202316D01*
X237113547Y-109202317D01*
X236953589Y-109333590D01*
X236849754Y-109460113D01*
X236792008Y-109499447D01*
X236770099Y-109504385D01*
X236769244Y-109504497D01*
X236622863Y-109543719D01*
X236491635Y-109619485D01*
X236491632Y-109619487D01*
X234614487Y-111496632D01*
X234614485Y-111496635D01*
X234538719Y-111627863D01*
X234499500Y-111774234D01*
X234499500Y-114185258D01*
X234479815Y-114252297D01*
X234463181Y-114272939D01*
X227392939Y-121343181D01*
X227331616Y-121376666D01*
X227305258Y-121379500D01*
X225591664Y-121379500D01*
X225524625Y-121359815D01*
X225478870Y-121307011D01*
X225468926Y-121237853D01*
X225497951Y-121174297D01*
X225533207Y-121146143D01*
X225586450Y-121117685D01*
X225746410Y-120986410D01*
X225877685Y-120826450D01*
X225975232Y-120643954D01*
X226035300Y-120445934D01*
X226055583Y-120240000D01*
X226035300Y-120034066D01*
X225975232Y-119836046D01*
X225877685Y-119653550D01*
X225825702Y-119590209D01*
X225746410Y-119493589D01*
X225586452Y-119362317D01*
X225586453Y-119362317D01*
X225586450Y-119362315D01*
X225403954Y-119264768D01*
X225205934Y-119204700D01*
X225205932Y-119204699D01*
X225205934Y-119204699D01*
X225000000Y-119184417D01*
X224794067Y-119204699D01*
X224596043Y-119264769D01*
X224485898Y-119323643D01*
X224413550Y-119362315D01*
X224413548Y-119362316D01*
X224413547Y-119362317D01*
X224253589Y-119493589D01*
X224122317Y-119653547D01*
X224024769Y-119836043D01*
X223964699Y-120034067D01*
X223944417Y-120240000D01*
X223964699Y-120445932D01*
X223985621Y-120514902D01*
X224024768Y-120643954D01*
X224122315Y-120826450D01*
X224122317Y-120826452D01*
X224253589Y-120986410D01*
X224301174Y-121025461D01*
X224413550Y-121117685D01*
X224466791Y-121146143D01*
X224516634Y-121195105D01*
X224532094Y-121263242D01*
X224508262Y-121328922D01*
X224452704Y-121371291D01*
X224408336Y-121379500D01*
X223719742Y-121379500D01*
X223652703Y-121359815D01*
X223632061Y-121343181D01*
X218036819Y-115747939D01*
X218003334Y-115686616D01*
X218000500Y-115660258D01*
X218000500Y-115160000D01*
X223944417Y-115160000D01*
X223964699Y-115365932D01*
X223980610Y-115418384D01*
X224024768Y-115563954D01*
X224122315Y-115746450D01*
X224253590Y-115906410D01*
X224254159Y-115906877D01*
X224254379Y-115907199D01*
X224257893Y-115910713D01*
X224257226Y-115911379D01*
X224293496Y-115964618D01*
X224299500Y-116002734D01*
X224299500Y-116857265D01*
X224279815Y-116924304D01*
X224257729Y-116949115D01*
X224257897Y-116949283D01*
X224255021Y-116952158D01*
X224254173Y-116953110D01*
X224253590Y-116953590D01*
X224253588Y-116953592D01*
X224122317Y-117113546D01*
X224024769Y-117296043D01*
X223964699Y-117494067D01*
X223944417Y-117700000D01*
X223964699Y-117905932D01*
X223979466Y-117954612D01*
X224024768Y-118103954D01*
X224122315Y-118286450D01*
X224122317Y-118286452D01*
X224253589Y-118446410D01*
X224350209Y-118525702D01*
X224413550Y-118577685D01*
X224596046Y-118675232D01*
X224794066Y-118735300D01*
X224794065Y-118735300D01*
X224799000Y-118735786D01*
X225000000Y-118755583D01*
X225205934Y-118735300D01*
X225403954Y-118675232D01*
X225586450Y-118577685D01*
X225746410Y-118446410D01*
X225877685Y-118286450D01*
X225975232Y-118103954D01*
X226035300Y-117905934D01*
X226055583Y-117700000D01*
X226035300Y-117494066D01*
X225975232Y-117296046D01*
X225877685Y-117113550D01*
X225863317Y-117096043D01*
X225828270Y-117053337D01*
X225746410Y-116953590D01*
X225745827Y-116953112D01*
X225745604Y-116952784D01*
X225742103Y-116949283D01*
X225742767Y-116948618D01*
X225706498Y-116895365D01*
X225700500Y-116857265D01*
X225700500Y-116002734D01*
X225720185Y-115935695D01*
X225742275Y-115910881D01*
X225742107Y-115910713D01*
X225745003Y-115907816D01*
X225745838Y-115906879D01*
X225746410Y-115906410D01*
X225877685Y-115746450D01*
X225975232Y-115563954D01*
X226035300Y-115365934D01*
X226055583Y-115160000D01*
X226035300Y-114954066D01*
X225975232Y-114756046D01*
X225877685Y-114573550D01*
X225825702Y-114510209D01*
X225746410Y-114413589D01*
X225586452Y-114282317D01*
X225586453Y-114282317D01*
X225586450Y-114282315D01*
X225403954Y-114184768D01*
X225205934Y-114124700D01*
X225205932Y-114124699D01*
X225205934Y-114124699D01*
X225000000Y-114104417D01*
X224794067Y-114124699D01*
X224596043Y-114184769D01*
X224485898Y-114243643D01*
X224413550Y-114282315D01*
X224413548Y-114282316D01*
X224413547Y-114282317D01*
X224253589Y-114413589D01*
X224122317Y-114573547D01*
X224024769Y-114756043D01*
X223964699Y-114954067D01*
X223944417Y-115160000D01*
X218000500Y-115160000D01*
X218000500Y-112620000D01*
X223944417Y-112620000D01*
X223964699Y-112825932D01*
X223990214Y-112910043D01*
X224024768Y-113023954D01*
X224122315Y-113206450D01*
X224122317Y-113206452D01*
X224253589Y-113366410D01*
X224350209Y-113445702D01*
X224413550Y-113497685D01*
X224596046Y-113595232D01*
X224794066Y-113655300D01*
X224794065Y-113655300D01*
X224812529Y-113657118D01*
X225000000Y-113675583D01*
X225205934Y-113655300D01*
X225403954Y-113595232D01*
X225586450Y-113497685D01*
X225746410Y-113366410D01*
X225877685Y-113206450D01*
X225975232Y-113023954D01*
X226035300Y-112825934D01*
X226055583Y-112620000D01*
X226035300Y-112414066D01*
X225975232Y-112216046D01*
X225877685Y-112033550D01*
X225801541Y-111940768D01*
X225746410Y-111873589D01*
X225586452Y-111742317D01*
X225586453Y-111742317D01*
X225586450Y-111742315D01*
X225403954Y-111644768D01*
X225205934Y-111584700D01*
X225205932Y-111584699D01*
X225205934Y-111584699D01*
X225000000Y-111564417D01*
X224794067Y-111584699D01*
X224596043Y-111644769D01*
X224533350Y-111678280D01*
X224413550Y-111742315D01*
X224413548Y-111742316D01*
X224413547Y-111742317D01*
X224253589Y-111873589D01*
X224136094Y-112016760D01*
X224122315Y-112033550D01*
X224083643Y-112105898D01*
X224024769Y-112216043D01*
X223964699Y-112414067D01*
X223944417Y-112620000D01*
X218000500Y-112620000D01*
X218000500Y-110724234D01*
X217998272Y-110715920D01*
X217961281Y-110577865D01*
X217885515Y-110446635D01*
X217778365Y-110339485D01*
X217321819Y-109882939D01*
X217288334Y-109821616D01*
X217285500Y-109795258D01*
X217285500Y-109289742D01*
X217305185Y-109222703D01*
X217321819Y-109202061D01*
X217610463Y-108913417D01*
X217960515Y-108563365D01*
X218036281Y-108432135D01*
X218075500Y-108285766D01*
X218075500Y-108134233D01*
X218075500Y-107289999D01*
X223669364Y-107289999D01*
X223669364Y-107290000D01*
X224566988Y-107290000D01*
X224534075Y-107347007D01*
X224500000Y-107474174D01*
X224500000Y-107605826D01*
X224534075Y-107732993D01*
X224566988Y-107790000D01*
X223669364Y-107790000D01*
X223726567Y-108003486D01*
X223726570Y-108003492D01*
X223826399Y-108217578D01*
X223961894Y-108411082D01*
X224128917Y-108578105D01*
X224322421Y-108713600D01*
X224536507Y-108813429D01*
X224536516Y-108813433D01*
X224658649Y-108846158D01*
X224718310Y-108882523D01*
X224748839Y-108945369D01*
X224740545Y-109014745D01*
X224696059Y-109068623D01*
X224662552Y-109084593D01*
X224596046Y-109104767D01*
X224465358Y-109174622D01*
X224413550Y-109202315D01*
X224413548Y-109202316D01*
X224413547Y-109202317D01*
X224253589Y-109333589D01*
X224122317Y-109493547D01*
X224122315Y-109493550D01*
X224095499Y-109543719D01*
X224024769Y-109676043D01*
X223964699Y-109874067D01*
X223944417Y-110080000D01*
X223964699Y-110285932D01*
X223989713Y-110368392D01*
X224024768Y-110483954D01*
X224122315Y-110666450D01*
X224122317Y-110666452D01*
X224253589Y-110826410D01*
X224350209Y-110905702D01*
X224413550Y-110957685D01*
X224596046Y-111055232D01*
X224794066Y-111115300D01*
X224794065Y-111115300D01*
X224812529Y-111117118D01*
X225000000Y-111135583D01*
X225205934Y-111115300D01*
X225403954Y-111055232D01*
X225586450Y-110957685D01*
X225746410Y-110826410D01*
X225877685Y-110666450D01*
X225975232Y-110483954D01*
X226035300Y-110285934D01*
X226055583Y-110080000D01*
X226035300Y-109874066D01*
X225975232Y-109676046D01*
X225877685Y-109493550D01*
X225762773Y-109353528D01*
X225746410Y-109333589D01*
X225586452Y-109202317D01*
X225586453Y-109202317D01*
X225586450Y-109202315D01*
X225403954Y-109104768D01*
X225337447Y-109084593D01*
X225279009Y-109046296D01*
X225250553Y-108982484D01*
X225261113Y-108913417D01*
X225307337Y-108861023D01*
X225341350Y-108846158D01*
X225463483Y-108813433D01*
X225463492Y-108813429D01*
X225677578Y-108713600D01*
X225871082Y-108578105D01*
X226038105Y-108411082D01*
X226173600Y-108217578D01*
X226273429Y-108003492D01*
X226273432Y-108003486D01*
X226330636Y-107790000D01*
X225433012Y-107790000D01*
X225465925Y-107732993D01*
X225500000Y-107605826D01*
X225500000Y-107474174D01*
X225465925Y-107347007D01*
X225433012Y-107290000D01*
X226330636Y-107290000D01*
X226330635Y-107289999D01*
X226273432Y-107076513D01*
X226273429Y-107076507D01*
X226173600Y-106862422D01*
X226173599Y-106862420D01*
X226038113Y-106668926D01*
X226038108Y-106668920D01*
X225871082Y-106501894D01*
X225677578Y-106366399D01*
X225507052Y-106286882D01*
X225454613Y-106240710D01*
X225435461Y-106173516D01*
X225455677Y-106106635D01*
X225508842Y-106061300D01*
X225559457Y-106050500D01*
X225869750Y-106050500D01*
X225869751Y-106050499D01*
X225884568Y-106047552D01*
X225928229Y-106038868D01*
X225928229Y-106038867D01*
X225928231Y-106038867D01*
X225994552Y-105994552D01*
X226038867Y-105928231D01*
X226038867Y-105928229D01*
X226038868Y-105928229D01*
X226050499Y-105869752D01*
X226050500Y-105869750D01*
X226050500Y-104130249D01*
X226050499Y-104130247D01*
X226038868Y-104071770D01*
X226038867Y-104071769D01*
X225994552Y-104005447D01*
X225928230Y-103961132D01*
X225928229Y-103961131D01*
X225869752Y-103949500D01*
X225869748Y-103949500D01*
X224130252Y-103949500D01*
X224130247Y-103949500D01*
X224071770Y-103961131D01*
X224071769Y-103961132D01*
X224005447Y-104005447D01*
X223961132Y-104071769D01*
X223961131Y-104071770D01*
X223949500Y-104130247D01*
X223949500Y-105869752D01*
X223961131Y-105928229D01*
X223961132Y-105928230D01*
X224005447Y-105994552D01*
X224071769Y-106038867D01*
X224071770Y-106038868D01*
X224130247Y-106050499D01*
X224130250Y-106050500D01*
X224440543Y-106050500D01*
X224507582Y-106070185D01*
X224553337Y-106122989D01*
X224563281Y-106192147D01*
X224534256Y-106255703D01*
X224492948Y-106286882D01*
X224322422Y-106366399D01*
X224322420Y-106366400D01*
X224128926Y-106501886D01*
X224128920Y-106501891D01*
X223961891Y-106668920D01*
X223961886Y-106668926D01*
X223826400Y-106862420D01*
X223826399Y-106862422D01*
X223726570Y-107076507D01*
X223726567Y-107076513D01*
X223669364Y-107289999D01*
X218075500Y-107289999D01*
X218075500Y-105500802D01*
X218095185Y-105433763D01*
X218147989Y-105388008D01*
X218177519Y-105380122D01*
X218177330Y-105379256D01*
X218184701Y-105377646D01*
X218248790Y-105355219D01*
X218312882Y-105332793D01*
X218422150Y-105252150D01*
X218502793Y-105142882D01*
X218547282Y-105015740D01*
X218547646Y-105014701D01*
X218547646Y-105014699D01*
X218550500Y-104984269D01*
X218550500Y-103375730D01*
X218547646Y-103345300D01*
X218547646Y-103345298D01*
X218502793Y-103217119D01*
X218502792Y-103217117D01*
X218422150Y-103107850D01*
X218312882Y-103027207D01*
X218312880Y-103027206D01*
X218184700Y-102982353D01*
X218154270Y-102979500D01*
X218154266Y-102979500D01*
X216845734Y-102979500D01*
X216845730Y-102979500D01*
X216815300Y-102982353D01*
X216815298Y-102982353D01*
X216687119Y-103027206D01*
X216687117Y-103027207D01*
X216577850Y-103107850D01*
X216497207Y-103217117D01*
X216497206Y-103217119D01*
X216452353Y-103345298D01*
X216452353Y-103345300D01*
X216449500Y-103375730D01*
X216449500Y-104984269D01*
X216452353Y-105014699D01*
X216452353Y-105014701D01*
X216492148Y-105128425D01*
X216497207Y-105142882D01*
X216577850Y-105252150D01*
X216687118Y-105332793D01*
X216708086Y-105340130D01*
X216815298Y-105377646D01*
X216822670Y-105379256D01*
X216822206Y-105381379D01*
X216876982Y-105403198D01*
X216917609Y-105460041D01*
X216924500Y-105500802D01*
X216924500Y-107920258D01*
X216904815Y-107987297D01*
X216888181Y-108007939D01*
X216356634Y-108539486D01*
X216317680Y-108578439D01*
X216256357Y-108611924D01*
X216186665Y-108606938D01*
X216142319Y-108578438D01*
X216099046Y-108535165D01*
X216099023Y-108535144D01*
X215611819Y-108047939D01*
X215578334Y-107986616D01*
X215575500Y-107960258D01*
X215575500Y-105275168D01*
X215595185Y-105208129D01*
X215630608Y-105172066D01*
X215669655Y-105145977D01*
X215815977Y-104999655D01*
X215930941Y-104827598D01*
X216010130Y-104636420D01*
X216050500Y-104433465D01*
X216050500Y-103926535D01*
X216010130Y-103723580D01*
X215930941Y-103532402D01*
X215815977Y-103360345D01*
X215815975Y-103360342D01*
X215669657Y-103214024D01*
X215571044Y-103148134D01*
X215497598Y-103099059D01*
X215457633Y-103082505D01*
X215306420Y-103019870D01*
X215306412Y-103019868D01*
X215103469Y-102979500D01*
X215103465Y-102979500D01*
X214896535Y-102979500D01*
X214896530Y-102979500D01*
X214693587Y-103019868D01*
X214693579Y-103019870D01*
X214502403Y-103099058D01*
X214330342Y-103214024D01*
X214184024Y-103360342D01*
X214069058Y-103532403D01*
X213989870Y-103723579D01*
X213989868Y-103723587D01*
X213949500Y-103926530D01*
X213949500Y-104433469D01*
X213989868Y-104636412D01*
X213989870Y-104636420D01*
X214069058Y-104827596D01*
X214184024Y-104999657D01*
X214330340Y-105145973D01*
X214330343Y-105145975D01*
X214330345Y-105145977D01*
X214369390Y-105172066D01*
X214414196Y-105225677D01*
X214424500Y-105275168D01*
X214424500Y-108325765D01*
X214463719Y-108472136D01*
X214493592Y-108523876D01*
X214539485Y-108603365D01*
X214849537Y-108913417D01*
X215138181Y-109202060D01*
X215171666Y-109263383D01*
X215174500Y-109289741D01*
X215174500Y-110950765D01*
X215213719Y-111097136D01*
X215235916Y-111135582D01*
X215289485Y-111228365D01*
X215289487Y-111228367D01*
X215573478Y-111512358D01*
X215595983Y-111546038D01*
X215596398Y-111545799D01*
X215600054Y-111552132D01*
X215600358Y-111552586D01*
X215600462Y-111552838D01*
X215600464Y-111552841D01*
X215696715Y-111678279D01*
X215696718Y-111678282D01*
X215822159Y-111774536D01*
X215968238Y-111835044D01*
X216046619Y-111845363D01*
X216124999Y-111855682D01*
X216125000Y-111855682D01*
X216125001Y-111855682D01*
X216177254Y-111848802D01*
X216281762Y-111835044D01*
X216427841Y-111774536D01*
X216553282Y-111678282D01*
X216627124Y-111582049D01*
X216683552Y-111540846D01*
X216753298Y-111536691D01*
X216814218Y-111570903D01*
X216846971Y-111632621D01*
X216849500Y-111657535D01*
X216849500Y-116025765D01*
X216888719Y-116172136D01*
X216902093Y-116195300D01*
X216964485Y-116303365D01*
X222969485Y-122308365D01*
X223076635Y-122415515D01*
X223207865Y-122491281D01*
X223354233Y-122530500D01*
X223354234Y-122530500D01*
X223354235Y-122530500D01*
X227670764Y-122530500D01*
X227670766Y-122530500D01*
X227817135Y-122491281D01*
X227948365Y-122415515D01*
X230123880Y-120240000D01*
X236644417Y-120240000D01*
X236664699Y-120445932D01*
X236685621Y-120514902D01*
X236724768Y-120643954D01*
X236822315Y-120826450D01*
X236822317Y-120826452D01*
X236953589Y-120986410D01*
X237001174Y-121025461D01*
X237113550Y-121117685D01*
X237296046Y-121215232D01*
X237494066Y-121275300D01*
X237494065Y-121275300D01*
X237512529Y-121277118D01*
X237700000Y-121295583D01*
X237905934Y-121275300D01*
X238103954Y-121215232D01*
X238286450Y-121117685D01*
X238446410Y-120986410D01*
X238577685Y-120826450D01*
X238675232Y-120643954D01*
X238735300Y-120445934D01*
X238755583Y-120240000D01*
X238735300Y-120034066D01*
X238675232Y-119836046D01*
X238577685Y-119653550D01*
X238525702Y-119590209D01*
X238446410Y-119493589D01*
X238286452Y-119362317D01*
X238286453Y-119362317D01*
X238286450Y-119362315D01*
X238103954Y-119264768D01*
X237905934Y-119204700D01*
X237905932Y-119204699D01*
X237905934Y-119204699D01*
X237700000Y-119184417D01*
X237494067Y-119204699D01*
X237296043Y-119264769D01*
X237185898Y-119323643D01*
X237113550Y-119362315D01*
X237113548Y-119362316D01*
X237113547Y-119362317D01*
X236953589Y-119493589D01*
X236822317Y-119653547D01*
X236724769Y-119836043D01*
X236664699Y-120034067D01*
X236644417Y-120240000D01*
X230123880Y-120240000D01*
X232663880Y-117700000D01*
X236644417Y-117700000D01*
X236664699Y-117905932D01*
X236679466Y-117954612D01*
X236724768Y-118103954D01*
X236822315Y-118286450D01*
X236822317Y-118286452D01*
X236953589Y-118446410D01*
X237050209Y-118525702D01*
X237113550Y-118577685D01*
X237296046Y-118675232D01*
X237494066Y-118735300D01*
X237494065Y-118735300D01*
X237499000Y-118735786D01*
X237700000Y-118755583D01*
X237905934Y-118735300D01*
X238103954Y-118675232D01*
X238286450Y-118577685D01*
X238446410Y-118446410D01*
X238577685Y-118286450D01*
X238675232Y-118103954D01*
X238735300Y-117905934D01*
X238755583Y-117700000D01*
X238735300Y-117494066D01*
X238675232Y-117296046D01*
X238577685Y-117113550D01*
X238514458Y-117036507D01*
X238446410Y-116953589D01*
X238286452Y-116822317D01*
X238286453Y-116822317D01*
X238286450Y-116822315D01*
X238103954Y-116724768D01*
X237905934Y-116664700D01*
X237905932Y-116664699D01*
X237905934Y-116664699D01*
X237700000Y-116644417D01*
X237494067Y-116664699D01*
X237296043Y-116724769D01*
X237239460Y-116755014D01*
X237113550Y-116822315D01*
X237113548Y-116822316D01*
X237113547Y-116822317D01*
X236953589Y-116953589D01*
X236833516Y-117099901D01*
X236822315Y-117113550D01*
X236799988Y-117155320D01*
X236724769Y-117296043D01*
X236664699Y-117494067D01*
X236644417Y-117700000D01*
X232663880Y-117700000D01*
X235203880Y-115160000D01*
X236644417Y-115160000D01*
X236664699Y-115365932D01*
X236680610Y-115418384D01*
X236724768Y-115563954D01*
X236822315Y-115746450D01*
X236822317Y-115746452D01*
X236953589Y-115906410D01*
X237024517Y-115964618D01*
X237113550Y-116037685D01*
X237296046Y-116135232D01*
X237494066Y-116195300D01*
X237494065Y-116195300D01*
X237512529Y-116197118D01*
X237700000Y-116215583D01*
X237905934Y-116195300D01*
X238103954Y-116135232D01*
X238286450Y-116037685D01*
X238446410Y-115906410D01*
X238577685Y-115746450D01*
X238675232Y-115563954D01*
X238735300Y-115365934D01*
X238755583Y-115160000D01*
X238735300Y-114954066D01*
X238675232Y-114756046D01*
X238577685Y-114573550D01*
X238525702Y-114510209D01*
X238446410Y-114413589D01*
X238286452Y-114282317D01*
X238286453Y-114282317D01*
X238286450Y-114282315D01*
X238103954Y-114184768D01*
X237905934Y-114124700D01*
X237905932Y-114124699D01*
X237905934Y-114124699D01*
X237700000Y-114104417D01*
X237494067Y-114124699D01*
X237296043Y-114184769D01*
X237185898Y-114243643D01*
X237113550Y-114282315D01*
X237113548Y-114282316D01*
X237113547Y-114282317D01*
X236953589Y-114413589D01*
X236822317Y-114573547D01*
X236724769Y-114756043D01*
X236664699Y-114954067D01*
X236644417Y-115160000D01*
X235203880Y-115160000D01*
X235535514Y-114828366D01*
X235535617Y-114828189D01*
X235611281Y-114697135D01*
X235650500Y-114550766D01*
X235650500Y-112620000D01*
X236644417Y-112620000D01*
X236664699Y-112825932D01*
X236690214Y-112910043D01*
X236724768Y-113023954D01*
X236822315Y-113206450D01*
X236822317Y-113206452D01*
X236953589Y-113366410D01*
X237050209Y-113445702D01*
X237113550Y-113497685D01*
X237296046Y-113595232D01*
X237494066Y-113655300D01*
X237494065Y-113655300D01*
X237512529Y-113657118D01*
X237700000Y-113675583D01*
X237905934Y-113655300D01*
X238103954Y-113595232D01*
X238286450Y-113497685D01*
X238446410Y-113366410D01*
X238577685Y-113206450D01*
X238675232Y-113023954D01*
X238735300Y-112825934D01*
X238755583Y-112620000D01*
X238735300Y-112414066D01*
X238675232Y-112216046D01*
X238577685Y-112033550D01*
X238501541Y-111940768D01*
X238446410Y-111873589D01*
X238286452Y-111742317D01*
X238286453Y-111742317D01*
X238286450Y-111742315D01*
X238103954Y-111644768D01*
X237905934Y-111584700D01*
X237905932Y-111584699D01*
X237905934Y-111584699D01*
X237700000Y-111564417D01*
X237494067Y-111584699D01*
X237296043Y-111644769D01*
X237233350Y-111678280D01*
X237113550Y-111742315D01*
X237113548Y-111742316D01*
X237113547Y-111742317D01*
X236953589Y-111873589D01*
X236836094Y-112016760D01*
X236822315Y-112033550D01*
X236783643Y-112105898D01*
X236724769Y-112216043D01*
X236664699Y-112414067D01*
X236644417Y-112620000D01*
X235650500Y-112620000D01*
X235650500Y-112139741D01*
X235670185Y-112072702D01*
X235686814Y-112052065D01*
X236851537Y-110887341D01*
X236912858Y-110853858D01*
X236982550Y-110858842D01*
X237017877Y-110879168D01*
X237113550Y-110957685D01*
X237296046Y-111055232D01*
X237494066Y-111115300D01*
X237494065Y-111115300D01*
X237512529Y-111117118D01*
X237700000Y-111135583D01*
X237905934Y-111115300D01*
X238103954Y-111055232D01*
X238286450Y-110957685D01*
X238446410Y-110826410D01*
X238577685Y-110666450D01*
X238675232Y-110483954D01*
X238735300Y-110285934D01*
X238755583Y-110080000D01*
X238735300Y-109874066D01*
X238675232Y-109676046D01*
X238577685Y-109493550D01*
X238462773Y-109353528D01*
X238446410Y-109333589D01*
X238286452Y-109202317D01*
X238286453Y-109202317D01*
X238286450Y-109202315D01*
X238103954Y-109104768D01*
X238037447Y-109084593D01*
X237979009Y-109046296D01*
X237950553Y-108982484D01*
X237961113Y-108913417D01*
X238007337Y-108861023D01*
X238041350Y-108846158D01*
X238163483Y-108813433D01*
X238163492Y-108813429D01*
X238377578Y-108713600D01*
X238571082Y-108578105D01*
X238738105Y-108411082D01*
X238873600Y-108217578D01*
X238973429Y-108003492D01*
X238973432Y-108003486D01*
X239030636Y-107790000D01*
X238133012Y-107790000D01*
X238165925Y-107732993D01*
X238200000Y-107605826D01*
X238200000Y-107474174D01*
X238165925Y-107347007D01*
X238133012Y-107290000D01*
X239030636Y-107290000D01*
X239030635Y-107289999D01*
X238973432Y-107076513D01*
X238973429Y-107076507D01*
X238873600Y-106862422D01*
X238873599Y-106862420D01*
X238738113Y-106668926D01*
X238738108Y-106668920D01*
X238571082Y-106501894D01*
X238377578Y-106366399D01*
X238207052Y-106286882D01*
X238154613Y-106240710D01*
X238145860Y-106210000D01*
X241695496Y-106210000D01*
X241737968Y-106356195D01*
X241820278Y-106495374D01*
X241820285Y-106495383D01*
X241934616Y-106609714D01*
X241934625Y-106609721D01*
X242073804Y-106692031D01*
X242229089Y-106737145D01*
X242250000Y-106738789D01*
X242750000Y-106738789D01*
X242770910Y-106737145D01*
X242926195Y-106692031D01*
X243065374Y-106609721D01*
X243065383Y-106609714D01*
X243179714Y-106495383D01*
X243179721Y-106495374D01*
X243262031Y-106356195D01*
X243304504Y-106210000D01*
X242750000Y-106210000D01*
X242750000Y-106738789D01*
X242250000Y-106738789D01*
X242250000Y-106210000D01*
X241695496Y-106210000D01*
X238145860Y-106210000D01*
X238135461Y-106173516D01*
X238155677Y-106106635D01*
X238208842Y-106061300D01*
X238259457Y-106050500D01*
X238569750Y-106050500D01*
X238569751Y-106050499D01*
X238584568Y-106047552D01*
X238628229Y-106038868D01*
X238628229Y-106038867D01*
X238628231Y-106038867D01*
X238694552Y-105994552D01*
X238738867Y-105928231D01*
X238738867Y-105928229D01*
X238738868Y-105928229D01*
X238750499Y-105869752D01*
X238750500Y-105869750D01*
X238750500Y-105799500D01*
X238770185Y-105732461D01*
X238822989Y-105686706D01*
X238874500Y-105675500D01*
X241607633Y-105675500D01*
X241674672Y-105695185D01*
X241690607Y-105710000D01*
X243313369Y-105710000D01*
X243349199Y-105683257D01*
X243392367Y-105675500D01*
X248875500Y-105675500D01*
X248942539Y-105695185D01*
X248988294Y-105747989D01*
X248999500Y-105799500D01*
X248999500Y-105819752D01*
X249011131Y-105878229D01*
X249011132Y-105878230D01*
X249055447Y-105944552D01*
X249121769Y-105988867D01*
X249121770Y-105988868D01*
X249180247Y-106000499D01*
X249180250Y-106000500D01*
X249631520Y-106000500D01*
X249698559Y-106020185D01*
X249744314Y-106072989D01*
X249754258Y-106142147D01*
X249725233Y-106205703D01*
X249666455Y-106243477D01*
X249663613Y-106244275D01*
X249553682Y-106273730D01*
X249553673Y-106273734D01*
X249347516Y-106369866D01*
X249347512Y-106369868D01*
X249274526Y-106420973D01*
X249274526Y-106420974D01*
X249953553Y-107100000D01*
X249947339Y-107100000D01*
X249845606Y-107127259D01*
X249754394Y-107179920D01*
X249679920Y-107254394D01*
X249627259Y-107345606D01*
X249600000Y-107447339D01*
X249600000Y-107453552D01*
X248920974Y-106774526D01*
X248920973Y-106774526D01*
X248869868Y-106847512D01*
X248869866Y-106847516D01*
X248773734Y-107053673D01*
X248773730Y-107053682D01*
X248714860Y-107273389D01*
X248714858Y-107273400D01*
X248695034Y-107499997D01*
X248695034Y-107500002D01*
X248714858Y-107726599D01*
X248714860Y-107726610D01*
X248773730Y-107946317D01*
X248773735Y-107946331D01*
X248869863Y-108152478D01*
X248920974Y-108225472D01*
X249600000Y-107546446D01*
X249600000Y-107552661D01*
X249627259Y-107654394D01*
X249679920Y-107745606D01*
X249754394Y-107820080D01*
X249845606Y-107872741D01*
X249947339Y-107900000D01*
X249953553Y-107900000D01*
X249274526Y-108579025D01*
X249347513Y-108630132D01*
X249347521Y-108630136D01*
X249553668Y-108726264D01*
X249553682Y-108726269D01*
X249773389Y-108785139D01*
X249773400Y-108785141D01*
X249999998Y-108804966D01*
X250000002Y-108804966D01*
X250226599Y-108785141D01*
X250226610Y-108785139D01*
X250446317Y-108726269D01*
X250446331Y-108726264D01*
X250652478Y-108630136D01*
X250725471Y-108579024D01*
X250046447Y-107900000D01*
X250052661Y-107900000D01*
X250154394Y-107872741D01*
X250245606Y-107820080D01*
X250320080Y-107745606D01*
X250372741Y-107654394D01*
X250400000Y-107552661D01*
X250400000Y-107546447D01*
X251079024Y-108225471D01*
X251130136Y-108152478D01*
X251226264Y-107946331D01*
X251226269Y-107946317D01*
X251285139Y-107726610D01*
X251285141Y-107726599D01*
X251304966Y-107500002D01*
X251304966Y-107499997D01*
X251285141Y-107273400D01*
X251285139Y-107273389D01*
X251226269Y-107053682D01*
X251226264Y-107053668D01*
X251130136Y-106847521D01*
X251130132Y-106847513D01*
X251079025Y-106774526D01*
X250400000Y-107453551D01*
X250400000Y-107447339D01*
X250372741Y-107345606D01*
X250320080Y-107254394D01*
X250245606Y-107179920D01*
X250154394Y-107127259D01*
X250052661Y-107100000D01*
X250046448Y-107100000D01*
X250725472Y-106420974D01*
X250652478Y-106369863D01*
X250446331Y-106273735D01*
X250446317Y-106273730D01*
X250336387Y-106244275D01*
X250276726Y-106207910D01*
X250246197Y-106145063D01*
X250254492Y-106075688D01*
X250298977Y-106021810D01*
X250365529Y-106000535D01*
X250368480Y-106000500D01*
X250819750Y-106000500D01*
X250819751Y-106000499D01*
X250834568Y-105997552D01*
X250878229Y-105988868D01*
X250878229Y-105988867D01*
X250878231Y-105988867D01*
X250944552Y-105944552D01*
X250988867Y-105878231D01*
X250988867Y-105878229D01*
X250988868Y-105878229D01*
X251000499Y-105819752D01*
X251000500Y-105819750D01*
X251000500Y-105799500D01*
X251020185Y-105732461D01*
X251072989Y-105686706D01*
X251124500Y-105675500D01*
X251168837Y-105675500D01*
X251235876Y-105695185D01*
X251256518Y-105711819D01*
X254213181Y-108668482D01*
X254246666Y-108729805D01*
X254249500Y-108756163D01*
X254249500Y-115143837D01*
X254229815Y-115210876D01*
X254213181Y-115231518D01*
X239956518Y-129488181D01*
X239895195Y-129521666D01*
X239868837Y-129524500D01*
X217499931Y-129524500D01*
X217369433Y-129550458D01*
X217369423Y-129550461D01*
X217246502Y-129601376D01*
X217246484Y-129601386D01*
X217135862Y-129675301D01*
X217135854Y-129675307D01*
X213147181Y-133663981D01*
X213085858Y-133697466D01*
X213016166Y-133692482D01*
X212960233Y-133650610D01*
X212935816Y-133585146D01*
X212935500Y-133576300D01*
X212935500Y-131374500D01*
X212955185Y-131307461D01*
X213007989Y-131261706D01*
X213059500Y-131250500D01*
X213129750Y-131250500D01*
X213129751Y-131250499D01*
X213148988Y-131246673D01*
X213188229Y-131238868D01*
X213188229Y-131238867D01*
X213188231Y-131238867D01*
X213254552Y-131194552D01*
X213298867Y-131128231D01*
X213298867Y-131128229D01*
X213298868Y-131128229D01*
X213308922Y-131077682D01*
X213310500Y-131069748D01*
X213310500Y-129330252D01*
X213310500Y-129330249D01*
X213310499Y-129330247D01*
X213298868Y-129271770D01*
X213298867Y-129271769D01*
X213254552Y-129205447D01*
X213188230Y-129161132D01*
X213188229Y-129161131D01*
X213129752Y-129149500D01*
X213129748Y-129149500D01*
X211390252Y-129149500D01*
X211390247Y-129149500D01*
X211331770Y-129161131D01*
X211331769Y-129161132D01*
X211265447Y-129205447D01*
X211221132Y-129271769D01*
X211221131Y-129271770D01*
X211209500Y-129330247D01*
X211209500Y-129640543D01*
X211189815Y-129707582D01*
X211137011Y-129753337D01*
X211067853Y-129763281D01*
X211004297Y-129734256D01*
X210973118Y-129692948D01*
X210893600Y-129522422D01*
X210893599Y-129522420D01*
X210758113Y-129328926D01*
X210758108Y-129328920D01*
X210591082Y-129161894D01*
X210397578Y-129026399D01*
X210183492Y-128926570D01*
X210183486Y-128926567D01*
X209970000Y-128869364D01*
X209970000Y-129766988D01*
X209912993Y-129734075D01*
X209785826Y-129700000D01*
X209654174Y-129700000D01*
X209527007Y-129734075D01*
X209470000Y-129766988D01*
X209470000Y-128869364D01*
X209469999Y-128869364D01*
X209256513Y-128926567D01*
X209256507Y-128926570D01*
X209042422Y-129026399D01*
X209042420Y-129026400D01*
X208848926Y-129161886D01*
X208848920Y-129161891D01*
X208681891Y-129328920D01*
X208681886Y-129328926D01*
X208546400Y-129522420D01*
X208546399Y-129522422D01*
X208446570Y-129736507D01*
X208446567Y-129736514D01*
X208413841Y-129858650D01*
X208377476Y-129918310D01*
X208314629Y-129948839D01*
X208245253Y-129940544D01*
X208191375Y-129896059D01*
X208175406Y-129862553D01*
X208155232Y-129796046D01*
X208057685Y-129613550D01*
X207982278Y-129521666D01*
X207926410Y-129453589D01*
X207776121Y-129330252D01*
X207766450Y-129322315D01*
X207583954Y-129224768D01*
X207385934Y-129164700D01*
X207385932Y-129164699D01*
X207385934Y-129164699D01*
X207180000Y-129144417D01*
X206974067Y-129164699D01*
X206776043Y-129224769D01*
X206688114Y-129271769D01*
X206593550Y-129322315D01*
X206593548Y-129322316D01*
X206593547Y-129322317D01*
X206433589Y-129453589D01*
X206302317Y-129613547D01*
X206204769Y-129796043D01*
X206144699Y-129994067D01*
X206124417Y-130200000D01*
X206144699Y-130405932D01*
X206158235Y-130450553D01*
X206204768Y-130603954D01*
X206302315Y-130786450D01*
X206336969Y-130828677D01*
X206433589Y-130946410D01*
X206530209Y-131025702D01*
X206593550Y-131077685D01*
X206776046Y-131175232D01*
X206974066Y-131235300D01*
X206974065Y-131235300D01*
X206992529Y-131237118D01*
X207180000Y-131255583D01*
X207385934Y-131235300D01*
X207583954Y-131175232D01*
X207766450Y-131077685D01*
X207926410Y-130946410D01*
X208057685Y-130786450D01*
X208155232Y-130603954D01*
X208175406Y-130537446D01*
X208213702Y-130479010D01*
X208277514Y-130450553D01*
X208346581Y-130461112D01*
X208398975Y-130507336D01*
X208413841Y-130541349D01*
X208446567Y-130663486D01*
X208446570Y-130663492D01*
X208546399Y-130877578D01*
X208681894Y-131071082D01*
X208848917Y-131238105D01*
X209042421Y-131373600D01*
X209256507Y-131473429D01*
X209256516Y-131473433D01*
X209470000Y-131530634D01*
X209470000Y-130633012D01*
X209527007Y-130665925D01*
X209654174Y-130700000D01*
X209785826Y-130700000D01*
X209912993Y-130665925D01*
X209970000Y-130633012D01*
X209970000Y-131530633D01*
X210183483Y-131473433D01*
X210183492Y-131473429D01*
X210397578Y-131373600D01*
X210591082Y-131238105D01*
X210758105Y-131071082D01*
X210893599Y-130877578D01*
X210973118Y-130707051D01*
X211019290Y-130654612D01*
X211086484Y-130635460D01*
X211153365Y-130655676D01*
X211198699Y-130708841D01*
X211209500Y-130759456D01*
X211209500Y-131069752D01*
X211221131Y-131128229D01*
X211221132Y-131128230D01*
X211265447Y-131194552D01*
X211331769Y-131238867D01*
X211331770Y-131238868D01*
X211390247Y-131250499D01*
X211390250Y-131250500D01*
X211390252Y-131250500D01*
X211460500Y-131250500D01*
X211527539Y-131270185D01*
X211573294Y-131322989D01*
X211584500Y-131374500D01*
X211584500Y-134107631D01*
X211564815Y-134174670D01*
X211550000Y-134190605D01*
X211550000Y-135126000D01*
X211530315Y-135193039D01*
X211477511Y-135238794D01*
X211426000Y-135250000D01*
X210521210Y-135250000D01*
X210522854Y-135270910D01*
X210567968Y-135426195D01*
X210650278Y-135565374D01*
X210650285Y-135565383D01*
X210764616Y-135679714D01*
X210764624Y-135679720D01*
X210857526Y-135734662D01*
X210905209Y-135785731D01*
X210917713Y-135854472D01*
X210891068Y-135919062D01*
X210882086Y-135929075D01*
X210190126Y-136621037D01*
X210022982Y-136788181D01*
X209961659Y-136821666D01*
X209935301Y-136824500D01*
X206124500Y-136824500D01*
X206057461Y-136804815D01*
X206011706Y-136752011D01*
X206000500Y-136700500D01*
X206000500Y-136680249D01*
X206000499Y-136680247D01*
X205988868Y-136621770D01*
X205988867Y-136621769D01*
X205944552Y-136555447D01*
X205878230Y-136511132D01*
X205878229Y-136511131D01*
X205819752Y-136499500D01*
X205819748Y-136499500D01*
X205368480Y-136499500D01*
X205301441Y-136479815D01*
X205255686Y-136427011D01*
X205245742Y-136357853D01*
X205274767Y-136294297D01*
X205333545Y-136256523D01*
X205336387Y-136255725D01*
X205446317Y-136226269D01*
X205446331Y-136226264D01*
X205652478Y-136130136D01*
X205725471Y-136079024D01*
X205046447Y-135400000D01*
X205052661Y-135400000D01*
X205154394Y-135372741D01*
X205245606Y-135320080D01*
X205320080Y-135245606D01*
X205372741Y-135154394D01*
X205400000Y-135052661D01*
X205400000Y-135046447D01*
X206079024Y-135725471D01*
X206130136Y-135652478D01*
X206226264Y-135446331D01*
X206226269Y-135446317D01*
X206285139Y-135226610D01*
X206285141Y-135226599D01*
X206304966Y-135000002D01*
X206304966Y-134999997D01*
X206285141Y-134773400D01*
X206285139Y-134773389D01*
X206278872Y-134749999D01*
X210521209Y-134749999D01*
X210521210Y-134750000D01*
X211050000Y-134750000D01*
X211050000Y-134195494D01*
X211049998Y-134195493D01*
X210903809Y-134237965D01*
X210903806Y-134237967D01*
X210764625Y-134320278D01*
X210764616Y-134320285D01*
X210650285Y-134434616D01*
X210650278Y-134434625D01*
X210567968Y-134573804D01*
X210567966Y-134573809D01*
X210522855Y-134729081D01*
X210522854Y-134729087D01*
X210521209Y-134749999D01*
X206278872Y-134749999D01*
X206226269Y-134553682D01*
X206226264Y-134553668D01*
X206130136Y-134347521D01*
X206130132Y-134347513D01*
X206079025Y-134274526D01*
X205400000Y-134953551D01*
X205400000Y-134947339D01*
X205372741Y-134845606D01*
X205320080Y-134754394D01*
X205245606Y-134679920D01*
X205154394Y-134627259D01*
X205052661Y-134600000D01*
X205046448Y-134600000D01*
X205725472Y-133920974D01*
X205652478Y-133869863D01*
X205446331Y-133773735D01*
X205446317Y-133773730D01*
X205226610Y-133714860D01*
X205226599Y-133714858D01*
X205000002Y-133695034D01*
X204999998Y-133695034D01*
X204773400Y-133714858D01*
X204773389Y-133714860D01*
X204553682Y-133773730D01*
X204553673Y-133773734D01*
X204347516Y-133869866D01*
X204347512Y-133869868D01*
X204274526Y-133920973D01*
X204274526Y-133920974D01*
X204953553Y-134600000D01*
X204947339Y-134600000D01*
X204845606Y-134627259D01*
X204754394Y-134679920D01*
X204679920Y-134754394D01*
X204627259Y-134845606D01*
X204600000Y-134947339D01*
X204600000Y-134953552D01*
X203920974Y-134274526D01*
X203920973Y-134274526D01*
X203869868Y-134347512D01*
X203869866Y-134347516D01*
X203773734Y-134553673D01*
X203773730Y-134553682D01*
X203714860Y-134773389D01*
X203714858Y-134773400D01*
X203695034Y-134999997D01*
X203695034Y-135000002D01*
X203714858Y-135226599D01*
X203714860Y-135226610D01*
X203773730Y-135446317D01*
X203773735Y-135446331D01*
X203869863Y-135652478D01*
X203920974Y-135725472D01*
X204600000Y-135046446D01*
X204600000Y-135052661D01*
X204627259Y-135154394D01*
X204679920Y-135245606D01*
X204754394Y-135320080D01*
X204845606Y-135372741D01*
X204947339Y-135400000D01*
X204953553Y-135400000D01*
X204274526Y-136079025D01*
X204347513Y-136130132D01*
X204347521Y-136130136D01*
X204553668Y-136226264D01*
X204553682Y-136226269D01*
X204663613Y-136255725D01*
X204723274Y-136292090D01*
X204753803Y-136354937D01*
X204745508Y-136424312D01*
X204701023Y-136478190D01*
X204634471Y-136499465D01*
X204631520Y-136499500D01*
X204180247Y-136499500D01*
X204121770Y-136511131D01*
X204121769Y-136511132D01*
X204055447Y-136555447D01*
X204011132Y-136621769D01*
X204011131Y-136621770D01*
X203999500Y-136680247D01*
X203999500Y-136700500D01*
X203979815Y-136767539D01*
X203927011Y-136813294D01*
X203875500Y-136824500D01*
X194874699Y-136824500D01*
X194807660Y-136804815D01*
X194787018Y-136788181D01*
X188198837Y-130200000D01*
X195964417Y-130200000D01*
X195984699Y-130405932D01*
X195998235Y-130450553D01*
X196044768Y-130603954D01*
X196142315Y-130786450D01*
X196176969Y-130828677D01*
X196273589Y-130946410D01*
X196370209Y-131025702D01*
X196433550Y-131077685D01*
X196616046Y-131175232D01*
X196814066Y-131235300D01*
X196814065Y-131235300D01*
X196832529Y-131237118D01*
X197020000Y-131255583D01*
X197225934Y-131235300D01*
X197423954Y-131175232D01*
X197606450Y-131077685D01*
X197766410Y-130946410D01*
X197897685Y-130786450D01*
X197995232Y-130603954D01*
X198055300Y-130405934D01*
X198075583Y-130200000D01*
X198504417Y-130200000D01*
X198524699Y-130405932D01*
X198538235Y-130450553D01*
X198584768Y-130603954D01*
X198682315Y-130786450D01*
X198716969Y-130828677D01*
X198813589Y-130946410D01*
X198910209Y-131025702D01*
X198973550Y-131077685D01*
X199156046Y-131175232D01*
X199354066Y-131235300D01*
X199354065Y-131235300D01*
X199372529Y-131237118D01*
X199560000Y-131255583D01*
X199765934Y-131235300D01*
X199963954Y-131175232D01*
X200146450Y-131077685D01*
X200306410Y-130946410D01*
X200437685Y-130786450D01*
X200535232Y-130603954D01*
X200595300Y-130405934D01*
X200615583Y-130200000D01*
X201044417Y-130200000D01*
X201064699Y-130405932D01*
X201078235Y-130450553D01*
X201124768Y-130603954D01*
X201222315Y-130786450D01*
X201256969Y-130828677D01*
X201353589Y-130946410D01*
X201450209Y-131025702D01*
X201513550Y-131077685D01*
X201696046Y-131175232D01*
X201894066Y-131235300D01*
X201894065Y-131235300D01*
X201912529Y-131237118D01*
X202100000Y-131255583D01*
X202305934Y-131235300D01*
X202503954Y-131175232D01*
X202686450Y-131077685D01*
X202846410Y-130946410D01*
X202977685Y-130786450D01*
X203075232Y-130603954D01*
X203135300Y-130405934D01*
X203155583Y-130200000D01*
X203584417Y-130200000D01*
X203604699Y-130405932D01*
X203618235Y-130450553D01*
X203664768Y-130603954D01*
X203762315Y-130786450D01*
X203796969Y-130828677D01*
X203893589Y-130946410D01*
X203990209Y-131025702D01*
X204053550Y-131077685D01*
X204236046Y-131175232D01*
X204434066Y-131235300D01*
X204434065Y-131235300D01*
X204452529Y-131237118D01*
X204640000Y-131255583D01*
X204845934Y-131235300D01*
X205043954Y-131175232D01*
X205226450Y-131077685D01*
X205386410Y-130946410D01*
X205517685Y-130786450D01*
X205615232Y-130603954D01*
X205675300Y-130405934D01*
X205695583Y-130200000D01*
X205675300Y-129994066D01*
X205615232Y-129796046D01*
X205517685Y-129613550D01*
X205442278Y-129521666D01*
X205386410Y-129453589D01*
X205236121Y-129330252D01*
X205226450Y-129322315D01*
X205043954Y-129224768D01*
X204845934Y-129164700D01*
X204845932Y-129164699D01*
X204845934Y-129164699D01*
X204640000Y-129144417D01*
X204434067Y-129164699D01*
X204236043Y-129224769D01*
X204148114Y-129271769D01*
X204053550Y-129322315D01*
X204053548Y-129322316D01*
X204053547Y-129322317D01*
X203893589Y-129453589D01*
X203762317Y-129613547D01*
X203664769Y-129796043D01*
X203604699Y-129994067D01*
X203584417Y-130200000D01*
X203155583Y-130200000D01*
X203135300Y-129994066D01*
X203075232Y-129796046D01*
X202977685Y-129613550D01*
X202902278Y-129521666D01*
X202846410Y-129453589D01*
X202696121Y-129330252D01*
X202686450Y-129322315D01*
X202503954Y-129224768D01*
X202305934Y-129164700D01*
X202305932Y-129164699D01*
X202305934Y-129164699D01*
X202100000Y-129144417D01*
X201894067Y-129164699D01*
X201696043Y-129224769D01*
X201608114Y-129271769D01*
X201513550Y-129322315D01*
X201513548Y-129322316D01*
X201513547Y-129322317D01*
X201353589Y-129453589D01*
X201222317Y-129613547D01*
X201124769Y-129796043D01*
X201064699Y-129994067D01*
X201044417Y-130200000D01*
X200615583Y-130200000D01*
X200595300Y-129994066D01*
X200535232Y-129796046D01*
X200437685Y-129613550D01*
X200362278Y-129521666D01*
X200306410Y-129453589D01*
X200156121Y-129330252D01*
X200146450Y-129322315D01*
X199963954Y-129224768D01*
X199765934Y-129164700D01*
X199765932Y-129164699D01*
X199765934Y-129164699D01*
X199560000Y-129144417D01*
X199354067Y-129164699D01*
X199156043Y-129224769D01*
X199068114Y-129271769D01*
X198973550Y-129322315D01*
X198973548Y-129322316D01*
X198973547Y-129322317D01*
X198813589Y-129453589D01*
X198682317Y-129613547D01*
X198584769Y-129796043D01*
X198524699Y-129994067D01*
X198504417Y-130200000D01*
X198075583Y-130200000D01*
X198055300Y-129994066D01*
X197995232Y-129796046D01*
X197897685Y-129613550D01*
X197822278Y-129521666D01*
X197766410Y-129453589D01*
X197616121Y-129330252D01*
X197606450Y-129322315D01*
X197423954Y-129224768D01*
X197225934Y-129164700D01*
X197225932Y-129164699D01*
X197225934Y-129164699D01*
X197020000Y-129144417D01*
X196814067Y-129164699D01*
X196616043Y-129224769D01*
X196528114Y-129271769D01*
X196433550Y-129322315D01*
X196433548Y-129322316D01*
X196433547Y-129322317D01*
X196273589Y-129453589D01*
X196142317Y-129613547D01*
X196044769Y-129796043D01*
X195984699Y-129994067D01*
X195964417Y-130200000D01*
X188198837Y-130200000D01*
X186677913Y-128679076D01*
X186644428Y-128617753D01*
X186649412Y-128548061D01*
X186691284Y-128492128D01*
X186702473Y-128484663D01*
X186795374Y-128429721D01*
X186795383Y-128429714D01*
X186909714Y-128315383D01*
X186909721Y-128315374D01*
X186992031Y-128176195D01*
X186992033Y-128176190D01*
X187029182Y-128048322D01*
X187400001Y-128048322D01*
X187410144Y-128147607D01*
X187463452Y-128308481D01*
X187463457Y-128308492D01*
X187552424Y-128452728D01*
X187552427Y-128452732D01*
X187672267Y-128572572D01*
X187672271Y-128572575D01*
X187816507Y-128661542D01*
X187816518Y-128661547D01*
X187977393Y-128714855D01*
X188076683Y-128724999D01*
X188100000Y-128724998D01*
X188100000Y-128000000D01*
X187400001Y-128000000D01*
X187400001Y-128048322D01*
X187029182Y-128048322D01*
X187037144Y-128020918D01*
X187037145Y-128020912D01*
X187038790Y-128000000D01*
X186134000Y-128000000D01*
X186066961Y-127980315D01*
X186021206Y-127927511D01*
X186010000Y-127876000D01*
X186010000Y-126945494D01*
X186510000Y-126945494D01*
X186510000Y-127500000D01*
X187038790Y-127500000D01*
X187037145Y-127479089D01*
X187029181Y-127451677D01*
X187400000Y-127451677D01*
X187400000Y-127500000D01*
X188100000Y-127500000D01*
X188100000Y-126775000D01*
X188600000Y-126775000D01*
X188600000Y-128724999D01*
X188623308Y-128724999D01*
X188623322Y-128724998D01*
X188722607Y-128714855D01*
X188883481Y-128661547D01*
X188883492Y-128661542D01*
X189027728Y-128572575D01*
X189027732Y-128572572D01*
X189147573Y-128452731D01*
X189209606Y-128352160D01*
X189261554Y-128305435D01*
X189330516Y-128294212D01*
X189394599Y-128322056D01*
X189402826Y-128329575D01*
X189421774Y-128348523D01*
X189421778Y-128348526D01*
X189421780Y-128348528D01*
X189541874Y-128409719D01*
X189541876Y-128409719D01*
X189541878Y-128409720D01*
X189641507Y-128425500D01*
X189641512Y-128425500D01*
X190158493Y-128425500D01*
X190258121Y-128409720D01*
X190258121Y-128409719D01*
X190258126Y-128409719D01*
X190378220Y-128348528D01*
X190473528Y-128253220D01*
X190534719Y-128133126D01*
X190534720Y-128133121D01*
X190550500Y-128033493D01*
X190550500Y-127954421D01*
X190552883Y-127930228D01*
X190553424Y-127927511D01*
X190575500Y-127816531D01*
X190575500Y-126274500D01*
X190595185Y-126207461D01*
X190647989Y-126161706D01*
X190699500Y-126150500D01*
X190919750Y-126150500D01*
X190919751Y-126150499D01*
X190934568Y-126147552D01*
X190978229Y-126138868D01*
X190978229Y-126138867D01*
X190978231Y-126138867D01*
X191044552Y-126094552D01*
X191088867Y-126028231D01*
X191088867Y-126028229D01*
X191088868Y-126028229D01*
X191100499Y-125969752D01*
X191100500Y-125969750D01*
X191100500Y-124541519D01*
X191120185Y-124474480D01*
X191136813Y-124453843D01*
X191266173Y-124324483D01*
X191327492Y-124291001D01*
X191397184Y-124295985D01*
X191453118Y-124337856D01*
X191477535Y-124403320D01*
X191468413Y-124459618D01*
X191450459Y-124502964D01*
X191450457Y-124502971D01*
X191424500Y-124633464D01*
X191424500Y-124766535D01*
X191450457Y-124897028D01*
X191450459Y-124897036D01*
X191501378Y-125019965D01*
X191501383Y-125019975D01*
X191575304Y-125130605D01*
X191575307Y-125130609D01*
X191669390Y-125224692D01*
X191669394Y-125224695D01*
X191780024Y-125298616D01*
X191780028Y-125298618D01*
X191780031Y-125298620D01*
X191902964Y-125349541D01*
X192009715Y-125370775D01*
X192033464Y-125375499D01*
X192033468Y-125375500D01*
X192033469Y-125375500D01*
X218066532Y-125375500D01*
X218066533Y-125375499D01*
X218197036Y-125349541D01*
X218319969Y-125298620D01*
X218430606Y-125224695D01*
X221549695Y-122105606D01*
X221623620Y-121994969D01*
X221674540Y-121872036D01*
X221687912Y-121804815D01*
X221700500Y-121741533D01*
X221700500Y-121608466D01*
X221674541Y-121477969D01*
X221674540Y-121477968D01*
X221674540Y-121477964D01*
X221671083Y-121469619D01*
X221623623Y-121355038D01*
X221623622Y-121355037D01*
X221623620Y-121355031D01*
X221610796Y-121335839D01*
X221549698Y-121244398D01*
X221549692Y-121244390D01*
X221455609Y-121150307D01*
X221455601Y-121150301D01*
X221344979Y-121076386D01*
X221344972Y-121076382D01*
X221344969Y-121076380D01*
X221344965Y-121076378D01*
X221344961Y-121076376D01*
X221222040Y-121025461D01*
X221222030Y-121025458D01*
X221091533Y-120999500D01*
X221091531Y-120999500D01*
X220958469Y-120999500D01*
X220958467Y-120999500D01*
X220827969Y-121025458D01*
X220827959Y-121025461D01*
X220705038Y-121076376D01*
X220705020Y-121076386D01*
X220594398Y-121150301D01*
X220594390Y-121150307D01*
X217756518Y-123988181D01*
X217695195Y-124021666D01*
X217668837Y-124024500D01*
X194030163Y-124024500D01*
X193963124Y-124004815D01*
X193917369Y-123952011D01*
X193907425Y-123882853D01*
X193936450Y-123819297D01*
X193942482Y-123812819D01*
X195231194Y-122524107D01*
X199167240Y-118588059D01*
X199228561Y-118554576D01*
X199267069Y-118552339D01*
X199300000Y-118555583D01*
X199505934Y-118535300D01*
X199703954Y-118475232D01*
X199886450Y-118377685D01*
X200046410Y-118246410D01*
X200046885Y-118245830D01*
X200047212Y-118245608D01*
X200050713Y-118242107D01*
X200051377Y-118242771D01*
X200104632Y-118206499D01*
X200142735Y-118200500D01*
X200997265Y-118200500D01*
X201064304Y-118220185D01*
X201089119Y-118242274D01*
X201089287Y-118242107D01*
X201092165Y-118244985D01*
X201093114Y-118245830D01*
X201093590Y-118246410D01*
X201253550Y-118377685D01*
X201436046Y-118475232D01*
X201634066Y-118535300D01*
X201634065Y-118535300D01*
X201652529Y-118537118D01*
X201840000Y-118555583D01*
X202045934Y-118535300D01*
X202243954Y-118475232D01*
X202426450Y-118377685D01*
X202586410Y-118246410D01*
X202717685Y-118086450D01*
X202815232Y-117903954D01*
X202875300Y-117705934D01*
X202895583Y-117500000D01*
X202875300Y-117294066D01*
X202815232Y-117096046D01*
X202717685Y-116913550D01*
X202642897Y-116822420D01*
X202586410Y-116753589D01*
X202468677Y-116656969D01*
X202426450Y-116622315D01*
X202243954Y-116524768D01*
X202045934Y-116464700D01*
X202045932Y-116464699D01*
X202045934Y-116464699D01*
X201840000Y-116444417D01*
X201634067Y-116464699D01*
X201436043Y-116524769D01*
X201348114Y-116571769D01*
X201253550Y-116622315D01*
X201253548Y-116622316D01*
X201253547Y-116622317D01*
X201093591Y-116753588D01*
X201093115Y-116754169D01*
X201092787Y-116754391D01*
X201089287Y-116757893D01*
X201088622Y-116757228D01*
X201035368Y-116793501D01*
X200997265Y-116799500D01*
X200142735Y-116799500D01*
X200075696Y-116779815D01*
X200050880Y-116757725D01*
X200050713Y-116757893D01*
X200047834Y-116755014D01*
X200046885Y-116754169D01*
X200046408Y-116753588D01*
X199966430Y-116687952D01*
X199886450Y-116622315D01*
X199703954Y-116524768D01*
X199505934Y-116464700D01*
X199505932Y-116464699D01*
X199505934Y-116464699D01*
X199300000Y-116444417D01*
X199094067Y-116464699D01*
X198896043Y-116524769D01*
X198808114Y-116571769D01*
X198713550Y-116622315D01*
X198713548Y-116622316D01*
X198713547Y-116622317D01*
X198553589Y-116753589D01*
X198422317Y-116913547D01*
X198422315Y-116913550D01*
X198400914Y-116953589D01*
X198324769Y-117096043D01*
X198324769Y-117096044D01*
X198324768Y-117096046D01*
X198319459Y-117113547D01*
X198264699Y-117294067D01*
X198244417Y-117500000D01*
X198244417Y-117500002D01*
X198247659Y-117532928D01*
X198234639Y-117601574D01*
X198211937Y-117632760D01*
X197995786Y-117848911D01*
X197934463Y-117882396D01*
X197864771Y-117877412D01*
X197808838Y-117835540D01*
X197784421Y-117770076D01*
X197789446Y-117725231D01*
X197795300Y-117705934D01*
X197815583Y-117500000D01*
X197795300Y-117294066D01*
X197735232Y-117096046D01*
X197637685Y-116913550D01*
X197562897Y-116822420D01*
X197506410Y-116753589D01*
X197388677Y-116656969D01*
X197346450Y-116622315D01*
X197163954Y-116524768D01*
X196965934Y-116464700D01*
X196965932Y-116464699D01*
X196965934Y-116464699D01*
X196760000Y-116444417D01*
X196554067Y-116464699D01*
X196356043Y-116524769D01*
X196268114Y-116571769D01*
X196173550Y-116622315D01*
X196173548Y-116622316D01*
X196173547Y-116622317D01*
X196013589Y-116753589D01*
X195882317Y-116913547D01*
X195882315Y-116913550D01*
X195860914Y-116953589D01*
X195784769Y-117096043D01*
X195784769Y-117096044D01*
X195784768Y-117096046D01*
X195779459Y-117113547D01*
X195724699Y-117294067D01*
X195704417Y-117500000D01*
X195724699Y-117705932D01*
X195738235Y-117750553D01*
X195784768Y-117903954D01*
X195882315Y-118086450D01*
X195882317Y-118086452D01*
X196013589Y-118246410D01*
X196110209Y-118325702D01*
X196173550Y-118377685D01*
X196356046Y-118475232D01*
X196554066Y-118535300D01*
X196554065Y-118535300D01*
X196572529Y-118537118D01*
X196760000Y-118555583D01*
X196965934Y-118535300D01*
X196985232Y-118529445D01*
X197055098Y-118528820D01*
X197114212Y-118566066D01*
X197143805Y-118629359D01*
X197134481Y-118698604D01*
X197108911Y-118735786D01*
X194430023Y-121414674D01*
X194368700Y-121448159D01*
X194299008Y-121443175D01*
X194243075Y-121401303D01*
X194218658Y-121335839D01*
X194227780Y-121279542D01*
X194248580Y-121229328D01*
X194259527Y-121174297D01*
X194275500Y-121093996D01*
X194275500Y-116156004D01*
X194248581Y-116020677D01*
X194248580Y-116020676D01*
X194248580Y-116020672D01*
X194216858Y-115944087D01*
X194195778Y-115893195D01*
X194195771Y-115893182D01*
X194119114Y-115778458D01*
X194119111Y-115778454D01*
X194021545Y-115680888D01*
X194021541Y-115680885D01*
X193906817Y-115604228D01*
X193906804Y-115604221D01*
X193779332Y-115551421D01*
X193779322Y-115551418D01*
X193643995Y-115524500D01*
X193643993Y-115524500D01*
X193506007Y-115524500D01*
X193506005Y-115524500D01*
X193370677Y-115551418D01*
X193370667Y-115551421D01*
X193243195Y-115604221D01*
X193243182Y-115604228D01*
X193128458Y-115680885D01*
X193128454Y-115680888D01*
X193030888Y-115778454D01*
X193030885Y-115778458D01*
X192954228Y-115893182D01*
X192954221Y-115893195D01*
X192901421Y-116020667D01*
X192901418Y-116020677D01*
X192874500Y-116156004D01*
X192874500Y-120683481D01*
X192854815Y-120750520D01*
X192838181Y-120771162D01*
X190396162Y-123213181D01*
X190334839Y-123246666D01*
X190308481Y-123249500D01*
X188880247Y-123249500D01*
X188821770Y-123261131D01*
X188821769Y-123261132D01*
X188755447Y-123305447D01*
X188711132Y-123371769D01*
X188711131Y-123371770D01*
X188699500Y-123430247D01*
X188699500Y-125969752D01*
X188711131Y-126028229D01*
X188711132Y-126028230D01*
X188755447Y-126094552D01*
X188821769Y-126138867D01*
X188821770Y-126138868D01*
X188880247Y-126150499D01*
X188880250Y-126150500D01*
X188880252Y-126150500D01*
X189100500Y-126150500D01*
X189167539Y-126170185D01*
X189213294Y-126222989D01*
X189224500Y-126274500D01*
X189224500Y-126826885D01*
X189204815Y-126893924D01*
X189152011Y-126939679D01*
X189082853Y-126949623D01*
X189035167Y-126929128D01*
X189033879Y-126931218D01*
X188883492Y-126838457D01*
X188883481Y-126838452D01*
X188722606Y-126785144D01*
X188623322Y-126775000D01*
X188600000Y-126775000D01*
X188100000Y-126775000D01*
X188100000Y-126774999D01*
X188076693Y-126775000D01*
X188076674Y-126775001D01*
X187977392Y-126785144D01*
X187816518Y-126838452D01*
X187816507Y-126838457D01*
X187672271Y-126927424D01*
X187672267Y-126927427D01*
X187552427Y-127047267D01*
X187552424Y-127047271D01*
X187463457Y-127191507D01*
X187463452Y-127191518D01*
X187410144Y-127352393D01*
X187400000Y-127451677D01*
X187029181Y-127451677D01*
X186992031Y-127323804D01*
X186909721Y-127184625D01*
X186909714Y-127184616D01*
X186795383Y-127070285D01*
X186795374Y-127070278D01*
X186656193Y-126987967D01*
X186656190Y-126987965D01*
X186510001Y-126945493D01*
X186510000Y-126945494D01*
X186010000Y-126945494D01*
X186010000Y-126936630D01*
X185983256Y-126900797D01*
X185975500Y-126857631D01*
X185975500Y-126274500D01*
X185995185Y-126207461D01*
X186047989Y-126161706D01*
X186099500Y-126150500D01*
X186319750Y-126150500D01*
X186319751Y-126150499D01*
X186334568Y-126147552D01*
X186378229Y-126138868D01*
X186378229Y-126138867D01*
X186378231Y-126138867D01*
X186444552Y-126094552D01*
X186488867Y-126028231D01*
X186488867Y-126028229D01*
X186488868Y-126028229D01*
X186500499Y-125969752D01*
X186500500Y-125969750D01*
X186500500Y-123430249D01*
X186500499Y-123430247D01*
X186488868Y-123371770D01*
X186488867Y-123371769D01*
X186444552Y-123305447D01*
X186378230Y-123261132D01*
X186378229Y-123261131D01*
X186319752Y-123249500D01*
X186319748Y-123249500D01*
X184856163Y-123249500D01*
X184789124Y-123229815D01*
X184768482Y-123213181D01*
X183530609Y-121975307D01*
X183530605Y-121975304D01*
X183419975Y-121901383D01*
X183419965Y-121901378D01*
X183297036Y-121850459D01*
X183297028Y-121850457D01*
X183166535Y-121824500D01*
X183166531Y-121824500D01*
X180522561Y-121824500D01*
X180455522Y-121804815D01*
X180409767Y-121752011D01*
X180399823Y-121682853D01*
X180406379Y-121657167D01*
X180443596Y-121557380D01*
X180443598Y-121557372D01*
X180449999Y-121497844D01*
X184100000Y-121497844D01*
X184106401Y-121557372D01*
X184106403Y-121557379D01*
X184156645Y-121692086D01*
X184156649Y-121692093D01*
X184242809Y-121807187D01*
X184242812Y-121807190D01*
X184357906Y-121893350D01*
X184357913Y-121893354D01*
X184492620Y-121943596D01*
X184492627Y-121943598D01*
X184552155Y-121949999D01*
X184552172Y-121950000D01*
X187350000Y-121950000D01*
X187850000Y-121950000D01*
X190647828Y-121950000D01*
X190647844Y-121949999D01*
X190707372Y-121943598D01*
X190707379Y-121943596D01*
X190842086Y-121893354D01*
X190842093Y-121893350D01*
X190957187Y-121807190D01*
X190957190Y-121807187D01*
X191043350Y-121692093D01*
X191043354Y-121692086D01*
X191093596Y-121557379D01*
X191093598Y-121557372D01*
X191099999Y-121497844D01*
X191100000Y-121497827D01*
X191100000Y-118700000D01*
X187850000Y-118700000D01*
X187850000Y-121950000D01*
X187350000Y-121950000D01*
X187350000Y-118700000D01*
X184100000Y-118700000D01*
X184100000Y-121497844D01*
X180449999Y-121497844D01*
X180450000Y-121497827D01*
X180450000Y-118700000D01*
X173450000Y-118700000D01*
X173450000Y-121497844D01*
X173456401Y-121557372D01*
X173456403Y-121557379D01*
X173506645Y-121692086D01*
X173506649Y-121692093D01*
X173592809Y-121807187D01*
X173592812Y-121807190D01*
X173707906Y-121893350D01*
X173707913Y-121893354D01*
X173842620Y-121943596D01*
X173842627Y-121943598D01*
X173902155Y-121949999D01*
X173902172Y-121950000D01*
X176145336Y-121950000D01*
X176212375Y-121969685D01*
X176258130Y-122022489D01*
X176268074Y-122091647D01*
X176239049Y-122155203D01*
X176233017Y-122161681D01*
X175181518Y-123213181D01*
X175120195Y-123246666D01*
X175093837Y-123249500D01*
X173630247Y-123249500D01*
X173571770Y-123261131D01*
X173571769Y-123261132D01*
X173505447Y-123305447D01*
X173461132Y-123371769D01*
X173461131Y-123371770D01*
X173449500Y-123430247D01*
X173449500Y-123875500D01*
X173429815Y-123942539D01*
X173377011Y-123988294D01*
X173325500Y-123999500D01*
X169152626Y-123999500D01*
X169085587Y-123979815D01*
X169046899Y-123940290D01*
X168938694Y-123763715D01*
X168938693Y-123763714D01*
X168938692Y-123763713D01*
X168938691Y-123763711D01*
X168776357Y-123573643D01*
X168586289Y-123411309D01*
X168586287Y-123411307D01*
X168586285Y-123411306D01*
X168586283Y-123411305D01*
X168373165Y-123280706D01*
X168373162Y-123280704D01*
X168142240Y-123185054D01*
X168102445Y-123175500D01*
X167899186Y-123126701D01*
X167899184Y-123126700D01*
X167899181Y-123126700D01*
X167650000Y-123107090D01*
X167400818Y-123126700D01*
X167157759Y-123185054D01*
X166926837Y-123280704D01*
X166926834Y-123280706D01*
X166713716Y-123411305D01*
X166713714Y-123411306D01*
X166523643Y-123573643D01*
X166361306Y-123763714D01*
X166361305Y-123763715D01*
X166253101Y-123940290D01*
X166201290Y-123987165D01*
X166147374Y-123999500D01*
X164352626Y-123999500D01*
X164285587Y-123979815D01*
X164246899Y-123940290D01*
X164138694Y-123763715D01*
X164138693Y-123763714D01*
X164138692Y-123763713D01*
X164138691Y-123763711D01*
X163976357Y-123573643D01*
X163786289Y-123411309D01*
X163786287Y-123411307D01*
X163786285Y-123411306D01*
X163786283Y-123411305D01*
X163573165Y-123280706D01*
X163573162Y-123280704D01*
X163342240Y-123185054D01*
X163302445Y-123175500D01*
X163099186Y-123126701D01*
X163099184Y-123126700D01*
X163099181Y-123126700D01*
X162850000Y-123107090D01*
X162600818Y-123126700D01*
X162357759Y-123185054D01*
X162126837Y-123280704D01*
X162126834Y-123280706D01*
X161913716Y-123411305D01*
X161913714Y-123411306D01*
X161723643Y-123573643D01*
X161561306Y-123763714D01*
X161561305Y-123763716D01*
X161430706Y-123976834D01*
X161430704Y-123976837D01*
X161335054Y-124207759D01*
X161276700Y-124450818D01*
X161257090Y-124700000D01*
X159140657Y-124700000D01*
X162282812Y-121557842D01*
X162344133Y-121524359D01*
X162399432Y-121524950D01*
X162600814Y-121573299D01*
X162850000Y-121592910D01*
X163099186Y-121573299D01*
X163342236Y-121514947D01*
X163515510Y-121443175D01*
X163573162Y-121419295D01*
X163573163Y-121419294D01*
X163573166Y-121419293D01*
X163786289Y-121288691D01*
X163976357Y-121126357D01*
X164138691Y-120936289D01*
X164205999Y-120826452D01*
X164246899Y-120759710D01*
X164298710Y-120712835D01*
X164352626Y-120700500D01*
X166147374Y-120700500D01*
X166214413Y-120720185D01*
X166253101Y-120759710D01*
X166361305Y-120936284D01*
X166361306Y-120936285D01*
X166361307Y-120936287D01*
X166361309Y-120936289D01*
X166523643Y-121126357D01*
X166713711Y-121288691D01*
X166713713Y-121288692D01*
X166713714Y-121288693D01*
X166713716Y-121288694D01*
X166926834Y-121419293D01*
X166926837Y-121419295D01*
X167135097Y-121505558D01*
X167157764Y-121514947D01*
X167400814Y-121573299D01*
X167650000Y-121592910D01*
X167899186Y-121573299D01*
X168142236Y-121514947D01*
X168315510Y-121443175D01*
X168373162Y-121419295D01*
X168373163Y-121419294D01*
X168373166Y-121419293D01*
X168586289Y-121288691D01*
X168776357Y-121126357D01*
X168938691Y-120936289D01*
X169069293Y-120723166D01*
X169073573Y-120712835D01*
X169164945Y-120492240D01*
X169164947Y-120492236D01*
X169223299Y-120249186D01*
X169242910Y-120000000D01*
X169223299Y-119750814D01*
X169164947Y-119507764D01*
X169159076Y-119493589D01*
X169069295Y-119276837D01*
X169069293Y-119276834D01*
X168938694Y-119063716D01*
X168938693Y-119063714D01*
X168938692Y-119063713D01*
X168938691Y-119063711D01*
X168776357Y-118873643D01*
X168586289Y-118711309D01*
X168586287Y-118711307D01*
X168586285Y-118711306D01*
X168586283Y-118711305D01*
X168373165Y-118580706D01*
X168373162Y-118580704D01*
X168142240Y-118485054D01*
X168000951Y-118451133D01*
X167899186Y-118426701D01*
X167899184Y-118426700D01*
X167899181Y-118426700D01*
X167650000Y-118407090D01*
X167400818Y-118426700D01*
X167157759Y-118485054D01*
X166926837Y-118580704D01*
X166926834Y-118580706D01*
X166713716Y-118711305D01*
X166713714Y-118711306D01*
X166523643Y-118873643D01*
X166361306Y-119063714D01*
X166361305Y-119063715D01*
X166253101Y-119240290D01*
X166201290Y-119287165D01*
X166147374Y-119299500D01*
X164352626Y-119299500D01*
X164285587Y-119279815D01*
X164246899Y-119240290D01*
X164138694Y-119063715D01*
X164138693Y-119063714D01*
X164138692Y-119063713D01*
X164138691Y-119063711D01*
X163976357Y-118873643D01*
X163786289Y-118711309D01*
X163786287Y-118711307D01*
X163786285Y-118711306D01*
X163786283Y-118711305D01*
X163573165Y-118580706D01*
X163573162Y-118580704D01*
X163342240Y-118485054D01*
X163200951Y-118451133D01*
X163099186Y-118426701D01*
X163099184Y-118426700D01*
X163099181Y-118426700D01*
X162850000Y-118407090D01*
X162600818Y-118426700D01*
X162357759Y-118485054D01*
X162126837Y-118580704D01*
X162126834Y-118580706D01*
X161913716Y-118711305D01*
X161913714Y-118711306D01*
X161723643Y-118873643D01*
X161561306Y-119063714D01*
X161561305Y-119063716D01*
X161430706Y-119276834D01*
X161430704Y-119276837D01*
X161335054Y-119507759D01*
X161276700Y-119750818D01*
X161257090Y-120000000D01*
X161276700Y-120249182D01*
X161325047Y-120450560D01*
X161321556Y-120520342D01*
X161292154Y-120567188D01*
X157846162Y-124013181D01*
X157784839Y-124046666D01*
X157758481Y-124049500D01*
X155380725Y-124049500D01*
X155313686Y-124029815D01*
X155273338Y-123987500D01*
X155267180Y-123976834D01*
X155158959Y-123789388D01*
X155000050Y-123590123D01*
X154813217Y-123416768D01*
X154602634Y-123273195D01*
X154602630Y-123273193D01*
X154602627Y-123273191D01*
X154602626Y-123273190D01*
X154373006Y-123162612D01*
X154373008Y-123162612D01*
X154129466Y-123087489D01*
X154129462Y-123087488D01*
X154129458Y-123087487D01*
X154008231Y-123069214D01*
X153877440Y-123049500D01*
X153877435Y-123049500D01*
X153622565Y-123049500D01*
X153622559Y-123049500D01*
X153465609Y-123073157D01*
X153370542Y-123087487D01*
X153370539Y-123087488D01*
X153370533Y-123087489D01*
X153126992Y-123162612D01*
X152897373Y-123273190D01*
X152897372Y-123273191D01*
X152686782Y-123416768D01*
X152499952Y-123590121D01*
X152499950Y-123590123D01*
X152341041Y-123789388D01*
X152213608Y-124010109D01*
X152120492Y-124247362D01*
X152120490Y-124247369D01*
X152063777Y-124495845D01*
X152044732Y-124749995D01*
X144235513Y-124749995D01*
X143375992Y-124140084D01*
X143374044Y-124138672D01*
X142867311Y-123763711D01*
X141831756Y-122997443D01*
X141829787Y-122995955D01*
X140548773Y-122007997D01*
X140507708Y-121951469D01*
X140500500Y-121909807D01*
X140500500Y-120498322D01*
X141409076Y-120498322D01*
X141428550Y-120783030D01*
X141428550Y-120783034D01*
X141428551Y-120783036D01*
X141437573Y-120826452D01*
X141486613Y-121062449D01*
X141486614Y-121062452D01*
X141582179Y-121331344D01*
X141582178Y-121331344D01*
X141691306Y-121541951D01*
X141713474Y-121584733D01*
X141878047Y-121817879D01*
X141878051Y-121817883D01*
X141878051Y-121817884D01*
X142072836Y-122026447D01*
X142196652Y-122127178D01*
X142294205Y-122206544D01*
X142294207Y-122206545D01*
X142294208Y-122206546D01*
X142538040Y-122354824D01*
X142538045Y-122354826D01*
X142665021Y-122409979D01*
X142799792Y-122468518D01*
X143074589Y-122545512D01*
X143323144Y-122579676D01*
X143357309Y-122584372D01*
X143357310Y-122584372D01*
X143642691Y-122584372D01*
X143673171Y-122580182D01*
X143925411Y-122545512D01*
X144200208Y-122468518D01*
X144461961Y-122354823D01*
X144705795Y-122206544D01*
X144927167Y-122026444D01*
X145121953Y-121817879D01*
X145286526Y-121584733D01*
X145417819Y-121331348D01*
X145513387Y-121062447D01*
X145571449Y-120783036D01*
X145590924Y-120498322D01*
X145571449Y-120213608D01*
X145513387Y-119934197D01*
X145417820Y-119665299D01*
X145417821Y-119665299D01*
X145328848Y-119493589D01*
X145286526Y-119411911D01*
X145121953Y-119178765D01*
X145121948Y-119178759D01*
X144927163Y-118970196D01*
X144705791Y-118790097D01*
X144461959Y-118641819D01*
X144461954Y-118641817D01*
X144200213Y-118528128D01*
X144200211Y-118528127D01*
X144200208Y-118528126D01*
X144046481Y-118485054D01*
X143925417Y-118451133D01*
X143925412Y-118451132D01*
X143925411Y-118451132D01*
X143758798Y-118428231D01*
X143642691Y-118412272D01*
X143642690Y-118412272D01*
X143357310Y-118412272D01*
X143357309Y-118412272D01*
X143074589Y-118451132D01*
X143074582Y-118451133D01*
X142868236Y-118508948D01*
X142799792Y-118528126D01*
X142799789Y-118528126D01*
X142799786Y-118528128D01*
X142799785Y-118528128D01*
X142538045Y-118641817D01*
X142538040Y-118641819D01*
X142294208Y-118790097D01*
X142072836Y-118970196D01*
X141878051Y-119178759D01*
X141878051Y-119178760D01*
X141878048Y-119178762D01*
X141878047Y-119178765D01*
X141859741Y-119204699D01*
X141713474Y-119411910D01*
X141582179Y-119665299D01*
X141486614Y-119934191D01*
X141486613Y-119934194D01*
X141428550Y-120213613D01*
X141409076Y-120498322D01*
X140500500Y-120498322D01*
X140500500Y-115300000D01*
X161257090Y-115300000D01*
X161276700Y-115549181D01*
X161276700Y-115549184D01*
X161276701Y-115549186D01*
X161306193Y-115672028D01*
X161335054Y-115792240D01*
X161430704Y-116023162D01*
X161430706Y-116023165D01*
X161561305Y-116236283D01*
X161561306Y-116236285D01*
X161561307Y-116236287D01*
X161561309Y-116236289D01*
X161723643Y-116426357D01*
X161913711Y-116588691D01*
X161981532Y-116630252D01*
X162126834Y-116719293D01*
X162126837Y-116719295D01*
X162357759Y-116814945D01*
X162357764Y-116814947D01*
X162600814Y-116873299D01*
X162850000Y-116892910D01*
X163099186Y-116873299D01*
X163342236Y-116814947D01*
X163480383Y-116757725D01*
X163573162Y-116719295D01*
X163573163Y-116719294D01*
X163573166Y-116719293D01*
X163786289Y-116588691D01*
X163976357Y-116426357D01*
X164138691Y-116236289D01*
X164269293Y-116023166D01*
X164302049Y-115944087D01*
X164342974Y-115845284D01*
X164364947Y-115792236D01*
X164423299Y-115549186D01*
X164442910Y-115300000D01*
X166057090Y-115300000D01*
X166076700Y-115549181D01*
X166076700Y-115549184D01*
X166076701Y-115549186D01*
X166106193Y-115672028D01*
X166135054Y-115792240D01*
X166230704Y-116023162D01*
X166230706Y-116023165D01*
X166361305Y-116236283D01*
X166361306Y-116236285D01*
X166361307Y-116236287D01*
X166361309Y-116236289D01*
X166523643Y-116426357D01*
X166713711Y-116588691D01*
X166781532Y-116630252D01*
X166926834Y-116719293D01*
X166926837Y-116719295D01*
X167157759Y-116814945D01*
X167157764Y-116814947D01*
X167400814Y-116873299D01*
X167650000Y-116892910D01*
X167899186Y-116873299D01*
X168142236Y-116814947D01*
X168280383Y-116757725D01*
X168373162Y-116719295D01*
X168373163Y-116719294D01*
X168373166Y-116719293D01*
X168586289Y-116588691D01*
X168776357Y-116426357D01*
X168938691Y-116236289D01*
X169069293Y-116023166D01*
X169102049Y-115944087D01*
X169142974Y-115845284D01*
X169164947Y-115792236D01*
X169223299Y-115549186D01*
X169234870Y-115402155D01*
X173450000Y-115402155D01*
X173450000Y-118200000D01*
X176700000Y-118200000D01*
X177200000Y-118200000D01*
X180450000Y-118200000D01*
X180450000Y-115402172D01*
X180449999Y-115402155D01*
X184100000Y-115402155D01*
X184100000Y-118200000D01*
X187350000Y-118200000D01*
X187850000Y-118200000D01*
X191100000Y-118200000D01*
X191100000Y-115402172D01*
X191099999Y-115402155D01*
X191093598Y-115342627D01*
X191093596Y-115342620D01*
X191043354Y-115207913D01*
X191043350Y-115207906D01*
X190957190Y-115092812D01*
X190957187Y-115092809D01*
X190842093Y-115006649D01*
X190842086Y-115006645D01*
X190707379Y-114956403D01*
X190707372Y-114956401D01*
X190647844Y-114950000D01*
X187850000Y-114950000D01*
X187850000Y-118200000D01*
X187350000Y-118200000D01*
X187350000Y-114950000D01*
X184552155Y-114950000D01*
X184492627Y-114956401D01*
X184492620Y-114956403D01*
X184357913Y-115006645D01*
X184357906Y-115006649D01*
X184242812Y-115092809D01*
X184242809Y-115092812D01*
X184156649Y-115207906D01*
X184156645Y-115207913D01*
X184106403Y-115342620D01*
X184106401Y-115342627D01*
X184100000Y-115402155D01*
X180449999Y-115402155D01*
X180443598Y-115342627D01*
X180443596Y-115342620D01*
X180393354Y-115207913D01*
X180393350Y-115207906D01*
X180307190Y-115092812D01*
X180307187Y-115092809D01*
X180192093Y-115006649D01*
X180192086Y-115006645D01*
X180057379Y-114956403D01*
X180057372Y-114956401D01*
X179997844Y-114950000D01*
X177200000Y-114950000D01*
X177200000Y-118200000D01*
X176700000Y-118200000D01*
X176700000Y-114950000D01*
X173902155Y-114950000D01*
X173842627Y-114956401D01*
X173842620Y-114956403D01*
X173707913Y-115006645D01*
X173707906Y-115006649D01*
X173592812Y-115092809D01*
X173592809Y-115092812D01*
X173506649Y-115207906D01*
X173506645Y-115207913D01*
X173456403Y-115342620D01*
X173456401Y-115342627D01*
X173450000Y-115402155D01*
X169234870Y-115402155D01*
X169242910Y-115300000D01*
X169223299Y-115050814D01*
X169164947Y-114807764D01*
X169119124Y-114697137D01*
X169069295Y-114576837D01*
X169069293Y-114576834D01*
X169067279Y-114573547D01*
X168938691Y-114363711D01*
X168776357Y-114173643D01*
X168586289Y-114011309D01*
X168586287Y-114011307D01*
X168586285Y-114011306D01*
X168586283Y-114011305D01*
X168373165Y-113880706D01*
X168373162Y-113880704D01*
X168142240Y-113785054D01*
X168142236Y-113785053D01*
X167899186Y-113726701D01*
X167899184Y-113726700D01*
X167899181Y-113726700D01*
X167650000Y-113707090D01*
X167400818Y-113726700D01*
X167157759Y-113785054D01*
X166926837Y-113880704D01*
X166926834Y-113880706D01*
X166713716Y-114011305D01*
X166713714Y-114011306D01*
X166523643Y-114173643D01*
X166361306Y-114363714D01*
X166361305Y-114363716D01*
X166230706Y-114576834D01*
X166230704Y-114576837D01*
X166135054Y-114807759D01*
X166076700Y-115050818D01*
X166057090Y-115300000D01*
X164442910Y-115300000D01*
X164423299Y-115050814D01*
X164364947Y-114807764D01*
X164319124Y-114697137D01*
X164269295Y-114576837D01*
X164269293Y-114576834D01*
X164267279Y-114573547D01*
X164138691Y-114363711D01*
X163976357Y-114173643D01*
X163786289Y-114011309D01*
X163786287Y-114011307D01*
X163786285Y-114011306D01*
X163786283Y-114011305D01*
X163573165Y-113880706D01*
X163573162Y-113880704D01*
X163342240Y-113785054D01*
X163342236Y-113785053D01*
X163099186Y-113726701D01*
X163099184Y-113726700D01*
X163099181Y-113726700D01*
X162850000Y-113707090D01*
X162600818Y-113726700D01*
X162357759Y-113785054D01*
X162126837Y-113880704D01*
X162126834Y-113880706D01*
X161913716Y-114011305D01*
X161913714Y-114011306D01*
X161723643Y-114173643D01*
X161561306Y-114363714D01*
X161561305Y-114363716D01*
X161430706Y-114576834D01*
X161430704Y-114576837D01*
X161335054Y-114807759D01*
X161276700Y-115050818D01*
X161257090Y-115300000D01*
X140500500Y-115300000D01*
X140500500Y-113374038D01*
X152149500Y-113374038D01*
X152149500Y-113625962D01*
X152165456Y-113726701D01*
X152188910Y-113874785D01*
X152266760Y-114114383D01*
X152381132Y-114338848D01*
X152529201Y-114542649D01*
X152529205Y-114542654D01*
X152707345Y-114720794D01*
X152707350Y-114720798D01*
X152855069Y-114828121D01*
X152911155Y-114868870D01*
X153054184Y-114941747D01*
X153135616Y-114983239D01*
X153135618Y-114983239D01*
X153135621Y-114983241D01*
X153375215Y-115061090D01*
X153624038Y-115100500D01*
X153624039Y-115100500D01*
X153875961Y-115100500D01*
X153875962Y-115100500D01*
X154124785Y-115061090D01*
X154364379Y-114983241D01*
X154588845Y-114868870D01*
X154792656Y-114720793D01*
X154970793Y-114542656D01*
X155118870Y-114338845D01*
X155233241Y-114114379D01*
X155311090Y-113874785D01*
X155350500Y-113625962D01*
X155350500Y-113374038D01*
X155311090Y-113125215D01*
X155233241Y-112885621D01*
X155233239Y-112885618D01*
X155233239Y-112885616D01*
X155165810Y-112753280D01*
X155118870Y-112661155D01*
X155077926Y-112604800D01*
X154970798Y-112457350D01*
X154970794Y-112457345D01*
X154792654Y-112279205D01*
X154792649Y-112279201D01*
X154588848Y-112131132D01*
X154588847Y-112131131D01*
X154588845Y-112131130D01*
X154485121Y-112078280D01*
X154364383Y-112016760D01*
X154124785Y-111938910D01*
X153875962Y-111899500D01*
X153624038Y-111899500D01*
X153499626Y-111919205D01*
X153375214Y-111938910D01*
X153135616Y-112016760D01*
X152911151Y-112131132D01*
X152707350Y-112279201D01*
X152707345Y-112279205D01*
X152529205Y-112457345D01*
X152529201Y-112457350D01*
X152381132Y-112661151D01*
X152266760Y-112885616D01*
X152188910Y-113125214D01*
X152176043Y-113206452D01*
X152149500Y-113374038D01*
X140500500Y-113374038D01*
X140500500Y-103499999D01*
X141494390Y-103499999D01*
X141494390Y-103500002D01*
X141514804Y-103785434D01*
X141575628Y-104065038D01*
X141575630Y-104065044D01*
X141575631Y-104065047D01*
X141651081Y-104267336D01*
X141675635Y-104333167D01*
X141812770Y-104584310D01*
X141812775Y-104584318D01*
X141984254Y-104813388D01*
X141984270Y-104813406D01*
X142186594Y-105015730D01*
X142186612Y-105015746D01*
X142415682Y-105187225D01*
X142415690Y-105187230D01*
X142666833Y-105324365D01*
X142666832Y-105324365D01*
X142666836Y-105324366D01*
X142666839Y-105324368D01*
X142934954Y-105424370D01*
X142934960Y-105424371D01*
X142934962Y-105424372D01*
X143214566Y-105485196D01*
X143214568Y-105485196D01*
X143214572Y-105485197D01*
X143468220Y-105503338D01*
X143499999Y-105505611D01*
X143500000Y-105505611D01*
X143500001Y-105505611D01*
X143528595Y-105503565D01*
X143785428Y-105485197D01*
X143879652Y-105464700D01*
X144065037Y-105424372D01*
X144065037Y-105424371D01*
X144065046Y-105424370D01*
X144333161Y-105324368D01*
X144584315Y-105187227D01*
X144813395Y-105015740D01*
X145015739Y-104813396D01*
X145187226Y-104584316D01*
X145324367Y-104333162D01*
X145424369Y-104065047D01*
X145436097Y-104011133D01*
X145485195Y-103785434D01*
X145485195Y-103785433D01*
X145485196Y-103785429D01*
X145505610Y-103500001D01*
X145485196Y-103214573D01*
X145485076Y-103214023D01*
X145424371Y-102934963D01*
X145424370Y-102934961D01*
X145424369Y-102934955D01*
X145324367Y-102666840D01*
X145301756Y-102625432D01*
X145187229Y-102415691D01*
X145187224Y-102415683D01*
X145015745Y-102186613D01*
X145015729Y-102186595D01*
X144813405Y-101984271D01*
X144813387Y-101984255D01*
X144584317Y-101812776D01*
X144584309Y-101812771D01*
X144333166Y-101675636D01*
X144333167Y-101675636D01*
X144208726Y-101629222D01*
X144065046Y-101575632D01*
X144065043Y-101575631D01*
X144065037Y-101575629D01*
X143785433Y-101514805D01*
X143500001Y-101494391D01*
X143499999Y-101494391D01*
X143214566Y-101514805D01*
X142934962Y-101575629D01*
X142666833Y-101675636D01*
X142415690Y-101812771D01*
X142415682Y-101812776D01*
X142186612Y-101984255D01*
X142186594Y-101984271D01*
X141984270Y-102186595D01*
X141984254Y-102186613D01*
X141812775Y-102415683D01*
X141812770Y-102415691D01*
X141675635Y-102666834D01*
X141575628Y-102934963D01*
X141514804Y-103214567D01*
X141494390Y-103499999D01*
X140500500Y-103499999D01*
X140500500Y-100624500D01*
X140520185Y-100557461D01*
X140572989Y-100511706D01*
X140624500Y-100500500D01*
X152920344Y-100500500D01*
X152987383Y-100520185D01*
G37*
%TD.AperFunction*%
%TD*%
M02*
