M48
; DRILL file {KiCad 8.0.5} date 2025-05-26T21:20:53+0900
; FORMAT={-:-/ absolute / metric / decimal}
; #@! TF.CreationDate,2025-05-26T21:20:53+09:00
; #@! TF.GenerationSoftware,Kicad,Pcbnew,8.0.5
; #@! TF.FileFunction,MixedPlating,1,2
FMAT,2
METRIC
; #@! TA.AperFunction,Plated,PTH,ViaDrill
T1C0.400
; #@! TA.AperFunction,Plated,PTH,ComponentDrill
T2C0.800
; #@! TA.AperFunction,Plated,PTH,ComponentDrill
T3C1.000
; #@! TA.AperFunction,Plated,PTH,ComponentDrill
T4C1.300
; #@! TA.AperFunction,Plated,PTH,ComponentDrill
T5C1.850
; #@! TA.AperFunction,NonPlated,NPTH,ComponentDrill
T6C2.700
%
G90
G05
T1
X141.0Y-121.6
X141.05Y-104.65
X141.125Y-117.275
X141.3Y-101.1
X141.5Y-110.325
X141.725Y-114.475
X142.925Y-106.625
X143.5Y-111.5
X144.025Y-116.45
X145.35Y-109.05
X145.675Y-115.375
X145.7Y-124.1
X145.975Y-100.95
X146.55Y-122.925
X147.625Y-118.475
X147.85Y-102.725
X147.85Y-106.325
X149.125Y-126.025
X150.625Y-101.475
X151.55Y-115.975
X151.825Y-128.175
X152.425Y-108.65
X152.65Y-119.6
X153.375Y-105.375
X155.325Y-116.425
X156.575Y-121.5
X157.725Y-101.0
X157.725Y-106.025
X157.925Y-129.125
X158.025Y-115.325
X158.6Y-109.675
X159.75Y-112.575
X161.15Y-105.675
X161.975Y-100.95
X163.6Y-109.45
X163.725Y-129.575
X163.975Y-111.55
X164.5Y-133.325
X165.0Y-105.225
X165.3Y-101.0
X167.025Y-108.875
X167.5Y-128.9
X167.6Y-111.25
X169.3Y-135.275
X170.75Y-111.65
X172.6Y-112.325
X174.3Y-136.0
X176.525Y-109.075
X179.4Y-138.025
X180.675Y-133.525
X180.9Y-110.1
X181.25Y-113.575
X181.95Y-124.7
X182.9Y-135.475
X185.175Y-109.225
X185.9Y-133.4
X186.0Y-139.85
X186.7Y-111.85
X188.525Y-106.325
X188.8Y-103.2
X190.0Y-140.15
X190.475Y-108.65
X190.55Y-111.975
X190.9Y-137.9
X192.1Y-124.7
X192.15Y-102.9
X192.575Y-105.875
X192.725Y-109.0
X193.575Y-116.225
X194.1Y-133.275
X194.125Y-140.275
X196.95Y-135.4
X197.55Y-140.725
X198.625Y-109.0
X199.7Y-132.975
X201.4Y-140.8
X203.025Y-109.05
X203.825Y-132.75
X205.4Y-111.0
X206.475Y-140.8
X207.15Y-132.85
X207.425Y-103.9
X207.425Y-108.9
X208.775Y-127.3
X209.05Y-132.9
X209.825Y-114.65
X210.3Y-105.775
X210.35Y-111.275
X211.25Y-139.475
X211.675Y-113.45
X212.9Y-111.2
X213.7Y-132.0
X214.775Y-127.2
X215.625Y-138.7
X216.125Y-111.25
X217.6Y-127.1
X218.3Y-136.95
X221.025Y-121.675
X222.6Y-135.5
X224.9Y-127.85
X227.525Y-109.65
X227.675Y-134.775
X227.95Y-104.075
X228.1Y-118.15
X228.375Y-114.625
X230.5Y-134.05
X230.55Y-115.225
X230.9Y-126.65
X231.475Y-111.7
X232.15Y-106.325
X233.875Y-134.55
X234.275Y-122.4
X236.0Y-126.65
X237.5Y-101.4
X237.65Y-133.3
X240.025Y-101.95
X240.2Y-122.725
X240.775Y-117.925
X240.875Y-109.7
X241.025Y-107.375
X241.825Y-131.6
X242.4Y-103.2
X242.625Y-120.7
X243.4Y-113.875
X244.5Y-108.575
X244.55Y-117.5
X244.8Y-110.275
X245.525Y-101.525
X245.65Y-128.9
X247.025Y-114.875
X247.35Y-118.225
X247.85Y-101.45
X248.325Y-111.675
X249.5Y-117.15
X250.45Y-114.1
X250.5Y-125.65
X250.575Y-101.875
X252.5Y-111.4
X252.9Y-101.825
X253.575Y-121.025
X254.4Y-124.475
X254.925Y-105.725
X256.4Y-116.775
X257.375Y-107.225
X257.5Y-110.8
X257.85Y-114.45
X258.425Y-101.225
X258.625Y-105.85
X258.825Y-121.675
X259.075Y-117.35
T2
X205.0Y-135.0
X205.0Y-137.5
X250.0Y-105.0
X250.0Y-107.5
T3
X170.0Y-104.18
X172.5Y-104.18
X180.9Y-104.18
X183.4Y-104.18
X194.92Y-103.96
X194.92Y-106.5
X196.76Y-117.5
X197.02Y-130.2
X197.46Y-103.96
X197.46Y-106.5
X199.3Y-117.5
X199.56Y-130.2
X200.0Y-103.96
X200.0Y-106.5
X201.84Y-117.5
X202.1Y-130.2
X202.54Y-103.96
X202.54Y-106.5
X204.38Y-117.5
X204.64Y-130.2
X205.08Y-103.96
X205.08Y-106.5
X206.92Y-117.5
X207.18Y-130.2
X209.46Y-117.5
X209.72Y-130.2
X212.0Y-117.5
X212.26Y-130.2
X215.0Y-104.18
X217.5Y-104.18
X225.0Y-105.0
X225.0Y-107.54
X225.0Y-110.08
X225.0Y-112.62
X225.0Y-115.16
X225.0Y-117.7
X225.0Y-120.24
X237.7Y-105.0
X237.7Y-107.54
X237.7Y-110.08
X237.7Y-112.62
X237.7Y-115.16
X237.7Y-117.7
X237.7Y-120.24
T4
X153.75Y-102.25
X153.75Y-124.75
T5
X162.85Y-115.3
X162.85Y-120.0
X162.85Y-124.7
X167.65Y-115.3
X167.65Y-120.0
X167.65Y-124.7
T6
X153.75Y-113.5
M30
