M48
; DRILL file {KiCad 8.0.5} date 2025-04-14T17:34:37+0900
; FORMAT={-:-/ absolute / inch / decimal}
; #@! TF.CreationDate,2025-04-14T17:34:37+09:00
; #@! TF.GenerationSoftware,Kicad,Pcbnew,8.0.5
; #@! TF.FileFunction,Plated,1,2,PTH
FMAT,2
INCH
; #@! TA.AperFunction,Plated,PTH,ViaDrill
T1C0.0118
; #@! TA.AperFunction,Plated,PTH,ViaDrill
T2C0.0157
; #@! TA.AperFunction,Plated,PTH,ComponentDrill
T3C0.0354
; #@! TA.AperFunction,Plated,PTH,ComponentDrill
T4C0.0374
; #@! TA.AperFunction,Plated,PTH,ComponentDrill
T5C0.0394
%
G90
G05
T1
X7.6437Y-3.6122
X8.0846Y-3.3386
X9.3819Y-3.8976
X9.3957Y-3.9843
X9.7717Y-3.7795
X9.7717Y-3.9528
X9.7874Y-3.8583
X9.7953Y-3.7087
T2
X5.9606Y-3.9331
X5.9685Y-3.8091
X5.9803Y-4.0984
X5.9823Y-4.0177
X5.9921Y-4.2067
X6.0098Y-3.6693
X6.0177Y-3.5551
X6.0512Y-4.4528
X6.061Y-3.4055
X6.0886Y-3.3228
X6.0906Y-4.1535
X6.0906Y-4.565
X6.0925Y-4.3189
X6.1083Y-3.4744
X6.1142Y-3.2402
X6.1358Y-4.6654
X6.1496Y-4.3917
X6.1713Y-3.1083
X6.1811Y-4.8209
X6.2028Y-3.0217
X6.2421Y-3.7205
X6.248Y-4.2224
X6.25Y-3.8425
X6.252Y-2.9055
X6.252Y-4.0079
X6.2598Y-3.6358
X6.2736Y-4.9213
X6.2913Y-3.5394
X6.3307Y-2.8169
X6.3406Y-5.002
X6.3484Y-3.9094
X6.3543Y-4.4862
X6.3661Y-4.561
X6.3858Y-4.624
X6.3917Y-2.7539
X6.4016Y-3.2205
X6.4094Y-5.1161
X6.4291Y-4.8524
X6.439Y-4.7028
X6.4528Y-2.6772
X6.4724Y-4.748
X6.4902Y-5.2126
X6.4921Y-4.9114
X6.5531Y-2.6004
X6.5728Y-2.9547
X6.5866Y-5.3228
X6.624Y-2.5138
X6.6319Y-5.0551
X6.6358Y-3.998
X6.6575Y-2.8346
X6.6752Y-5.4213
X6.6791Y-3.9016
X6.7165Y-2.435
X6.748Y-5.1752
X6.7539Y-5.4547
X6.7756Y-2.3622
X6.7992Y-3.9646
X6.7992Y-5.502
X6.8583Y-2.5276
X6.8622Y-2.315
X6.8878Y-5.2205
X6.8937Y-5.5689
X6.9154Y-3.9213
X6.937Y-2.2756
X7.0118Y-5.3307
X7.0276Y-5.6496
X7.0315Y-2.2421
X7.0413Y-4.0
X7.0906Y-5.3701
X7.1398Y-2.2087
X7.1575Y-3.8898
X7.1614Y-5.685
X7.2539Y-2.1476
X7.313Y-4.0079
X7.3189Y-5.7598
X7.3543Y-5.0925
X7.3563Y-3.4724
X7.3602Y-2.1063
X7.3701Y-3.2717
X7.3701Y-3.5965
X7.3701Y-5.2579
X7.374Y-3.8091
X7.376Y-2.7126
X7.3819Y-2.935
X7.3839Y-4.5827
X7.3878Y-5.3642
X7.3917Y-3.3878
X7.3917Y-5.7579
X7.3937Y-4.2421
X7.3996Y-4.437
X7.4016Y-2.7992
X7.4016Y-3.537
X7.4055Y-4.7461
X7.4094Y-4.0433
X7.4114Y-3.1083
X7.4252Y-4.1417
X7.4252Y-5.6909
X7.4311Y-2.4921
X7.435Y-4.9528
X7.439Y-2.0807
X7.4469Y-2.3839
X7.4803Y-5.7795
X7.4843Y-2.6437
X7.4843Y-5.1693
X7.4843Y-5.5492
X7.5315Y-2.5394
X7.5512Y-2.4232
X7.5512Y-5.7717
X7.563Y-5.689
X7.5827Y-2.0768
X7.6181Y-3.0118
X7.626Y-2.4783
X7.628Y-5.7972
X7.6693Y-5.7146
X7.6811Y-2.0492
X7.6909Y-2.5335
X7.6909Y-5.4291
X7.6988Y-5.8189
X7.7087Y-3.0866
X7.7126Y-3.2283
X7.7146Y-2.3543
X7.7146Y-2.9311
X7.7244Y-5.5571
X7.7559Y-3.537
X7.7618Y-2.4744
X7.7638Y-5.4331
X7.7815Y-2.0394
X7.7972Y-2.8484
X7.813Y-4.7618
X7.8228Y-2.3799
X7.8268Y-4.3012
X7.8307Y-5.0335
X7.8327Y-5.8228
X7.8346Y-3.1496
X7.8366Y-3.065
X7.8366Y-3.2539
X7.8543Y-3.3937
X7.8602Y-3.8327
X7.8661Y-4.4567
X7.8681Y-2.7874
X7.876Y-2.0512
X7.8799Y-4.1358
X7.9016Y-2.7008
X7.9154Y-3.5807
X7.9193Y-2.9035
X7.9291Y-2.6417
X7.9331Y-4.9764
X7.9409Y-5.8287
X7.9469Y-3.1161
X7.9528Y-3.248
X7.9606Y-4.5748
X7.9665Y-4.7972
X7.998Y-3.7323
X8.0118Y-3.9469
X8.0217Y-3.5
X8.0315Y-5.1575
X8.0571Y-4.2992
X8.0945Y-2.0394
X8.0984Y-5.7815
X8.1378Y-2.1496
X8.1614Y-2.7185
X8.1634Y-2.4075
X8.1654Y-2.5236
X8.2067Y-3.0059
X8.2264Y-2.8524
X8.2441Y-2.4252
X8.2441Y-5.748
X8.2559Y-2.1594
X8.2579Y-5.811
X8.2677Y-2.0669
X8.2677Y-2.5728
X8.2894Y-4.128
X8.2913Y-4.9075
X8.3031Y-4.7087
X8.315Y-3.622
X8.3189Y-3.4291
X8.3209Y-4.5197
X8.3248Y-3.8583
X8.3524Y-2.1791
X8.3524Y-2.9213
X8.3642Y-2.7421
X8.3681Y-2.4724
X8.3701Y-3.0453
X8.3701Y-3.1988
X8.376Y-2.1043
X8.3858Y-2.563
X8.3957Y-5.7264
X8.5177Y-3.9094
X8.5256Y-5.7146
X8.5394Y-2.1614
X8.5394Y-2.4528
X8.5866Y-5.6791
X8.6024Y-2.4862
X8.6161Y-3.8898
X8.6457Y-2.2047
X8.6476Y-3.9843
X8.6516Y-2.5098
X8.6575Y-5.6693
X8.7323Y-3.9134
X8.7539Y-5.6083
X8.7618Y-2.2598
X8.813Y-4.002
X8.8524Y-5.5551
X8.9134Y-5.5217
X8.9331Y-2.3839
X8.9783Y-2.7402
X8.9902Y-5.4508
X9.002Y-3.8839
X9.0157Y-2.5177
X9.0315Y-2.7933
X9.0591Y-5.3996
X9.0689Y-2.8445
X9.0689Y-3.9921
X9.0846Y-2.4823
X9.1299Y-5.3524
X9.1693Y-2.565
X9.1693Y-5.311
X9.1909Y-2.9055
X9.2657Y-5.2382
X9.2756Y-2.9606
X9.2835Y-2.687
X9.3091Y-3.1693
X9.3091Y-5.187
X9.3228Y-2.9882
X9.3445Y-5.1142
X9.3465Y-2.7618
X9.376Y-3.2913
X9.3976Y-3.3701
X9.4213Y-4.9843
X9.4272Y-2.8346
X9.4311Y-3.4744
X9.4528Y-2.7028
X9.4528Y-3.5965
X9.4705Y-2.9213
X9.5039Y-3.0098
X9.5157Y-4.8701
X9.5217Y-3.0669
X9.5335Y-2.8366
X9.5394Y-3.8071
X9.5591Y-3.5039
X9.561Y-3.7146
X9.5689Y-4.7697
X9.5846Y-4.1594
X9.5886Y-4.3524
X9.6024Y-3.1319
X9.6339Y-4.6417
X9.6358Y-3.2343
X9.6535Y-3.7264
X9.6594Y-4.5591
X9.6614Y-3.5965
X9.6713Y-3.3287
X9.6811Y-2.6496
X9.6949Y-4.4665
X9.7126Y-4.3937
X9.7146Y-3.4055
X9.7244Y-4.252
T3
X6.0874Y-3.837
X6.0874Y-3.937
X6.0874Y-4.037
X6.1852Y-3.3457
X6.1852Y-4.5283
X6.2234Y-3.2533
X6.2234Y-4.6207
X6.2617Y-3.1609
X6.2617Y-4.7131
X6.54Y-2.7444
X6.54Y-5.1296
X6.6107Y-2.6737
X6.6107Y-5.2003
X6.6814Y-2.603
X6.6814Y-5.271
X7.0979Y-5.5493
X7.098Y-2.3247
X7.1903Y-5.5876
X7.1903Y-2.2864
X7.2827Y-5.6258
X7.2827Y-2.2482
X7.774Y-2.1504
X7.774Y-5.7236
X7.874Y-2.1504
X7.874Y-5.7236
X7.974Y-2.1504
X7.974Y-5.7236
X8.4653Y-5.6258
X8.4653Y-2.2482
X8.5577Y-5.5876
X8.5577Y-2.2864
X8.6501Y-5.5493
X8.6501Y-2.3247
X9.0666Y-2.603
X9.0666Y-5.271
X9.1373Y-2.6737
X9.1373Y-5.2003
X9.208Y-2.7444
X9.208Y-5.1296
X9.4863Y-3.1609
X9.4863Y-4.7131
X9.5246Y-3.2533
X9.5246Y-4.6207
X9.5629Y-3.3457
X9.5629Y-4.5283
X9.6606Y-3.837
X9.6606Y-3.937
X9.6606Y-4.037
T4
X7.674Y-5.2713
X7.7724Y-5.2713
X7.8709Y-5.2713
X7.9693Y-5.2713
X8.0677Y-5.2713
T5
X7.574Y-3.237
X7.574Y-3.337
X7.574Y-3.437
X7.574Y-3.537
X7.574Y-3.637
X7.574Y-3.737
X7.574Y-3.837
X7.574Y-3.937
X7.574Y-4.037
X7.574Y-4.137
X7.574Y-4.237
X7.574Y-4.337
X7.574Y-4.437
X7.574Y-4.537
X7.574Y-4.637
X8.174Y-3.237
X8.174Y-3.337
X8.174Y-3.437
X8.174Y-3.537
X8.174Y-3.637
X8.174Y-3.737
X8.174Y-3.837
X8.174Y-3.937
X8.174Y-4.037
X8.174Y-4.137
X8.174Y-4.237
X8.174Y-4.337
X8.174Y-4.437
X8.174Y-4.537
X8.174Y-4.637
M30
