%TF.GenerationSoftware,KiCad,Pcbnew,9.0.7*%
%TF.CreationDate,2026-02-18T21:22:09+09:00*%
%TF.ProjectId,IR board_1.0,49522062-6f61-4726-945f-312e302e6b69,rev?*%
%TF.SameCoordinates,Original*%
%TF.FileFunction,Legend,Top*%
%TF.FilePolarity,Positive*%
%FSLAX46Y46*%
G04 Gerber Fmt 4.6, Leading zero omitted, Abs format (unit mm)*
G04 Created by KiCad (PCBNEW 9.0.7) date 2026-02-18 21:22:09*
%MOMM*%
%LPD*%
G01*
G04 APERTURE LIST*
%ADD10C,0.150000*%
%ADD11C,0.158750*%
%ADD12C,0.120000*%
%ADD13C,0.100000*%
%ADD14C,0.200000*%
G04 APERTURE END LIST*
D10*
X209304819Y-145968333D02*
X210019104Y-145968333D01*
X210019104Y-145968333D02*
X210161961Y-146015952D01*
X210161961Y-146015952D02*
X210257200Y-146111190D01*
X210257200Y-146111190D02*
X210304819Y-146254047D01*
X210304819Y-146254047D02*
X210304819Y-146349285D01*
X210304819Y-144968333D02*
X210304819Y-145539761D01*
X210304819Y-145254047D02*
X209304819Y-145254047D01*
X209304819Y-145254047D02*
X209447676Y-145349285D01*
X209447676Y-145349285D02*
X209542914Y-145444523D01*
X209542914Y-145444523D02*
X209590533Y-145539761D01*
D11*
X197913571Y-78304271D02*
X197913571Y-77034271D01*
X197913571Y-77034271D02*
X198639286Y-78304271D01*
X198639286Y-78304271D02*
X198639286Y-77034271D01*
X199969762Y-78304271D02*
X199546428Y-77699509D01*
X199244047Y-78304271D02*
X199244047Y-77034271D01*
X199244047Y-77034271D02*
X199727857Y-77034271D01*
X199727857Y-77034271D02*
X199848809Y-77094747D01*
X199848809Y-77094747D02*
X199909286Y-77155223D01*
X199909286Y-77155223D02*
X199969762Y-77276175D01*
X199969762Y-77276175D02*
X199969762Y-77457604D01*
X199969762Y-77457604D02*
X199909286Y-77578556D01*
X199909286Y-77578556D02*
X199848809Y-77639033D01*
X199848809Y-77639033D02*
X199727857Y-77699509D01*
X199727857Y-77699509D02*
X199244047Y-77699509D01*
X200453571Y-78243795D02*
X200635000Y-78304271D01*
X200635000Y-78304271D02*
X200937381Y-78304271D01*
X200937381Y-78304271D02*
X201058333Y-78243795D01*
X201058333Y-78243795D02*
X201118809Y-78183318D01*
X201118809Y-78183318D02*
X201179286Y-78062366D01*
X201179286Y-78062366D02*
X201179286Y-77941414D01*
X201179286Y-77941414D02*
X201118809Y-77820461D01*
X201118809Y-77820461D02*
X201058333Y-77759985D01*
X201058333Y-77759985D02*
X200937381Y-77699509D01*
X200937381Y-77699509D02*
X200695476Y-77639033D01*
X200695476Y-77639033D02*
X200574524Y-77578556D01*
X200574524Y-77578556D02*
X200514047Y-77518080D01*
X200514047Y-77518080D02*
X200453571Y-77397128D01*
X200453571Y-77397128D02*
X200453571Y-77276175D01*
X200453571Y-77276175D02*
X200514047Y-77155223D01*
X200514047Y-77155223D02*
X200574524Y-77094747D01*
X200574524Y-77094747D02*
X200695476Y-77034271D01*
X200695476Y-77034271D02*
X200997857Y-77034271D01*
X200997857Y-77034271D02*
X201179286Y-77094747D01*
X201542143Y-77034271D02*
X202267857Y-77034271D01*
X201905000Y-78304271D02*
X201905000Y-77034271D01*
D12*
%TO.C,J1*%
X207580000Y-139980000D02*
X208850000Y-139980000D01*
X208850000Y-139980000D02*
X208850000Y-141250000D01*
D13*
%TO.C,NRST*%
X196900000Y-73400000D02*
X196900000Y-73400000D01*
X197000000Y-73400000D02*
X197000000Y-73400000D01*
D14*
X197900000Y-74075000D02*
X197900000Y-74875000D01*
X198800000Y-72875000D02*
X201200000Y-72875000D01*
X198800000Y-76075000D02*
X201200000Y-76075000D01*
X202100000Y-74075000D02*
X202100000Y-74875000D01*
D13*
X196900000Y-73400000D02*
G75*
G02*
X197000000Y-73400000I50000J0D01*
G01*
X197000000Y-73400000D02*
G75*
G02*
X196900000Y-73400000I-50000J0D01*
G01*
D14*
%TO.C,SW2*%
X211500000Y-65900000D02*
X211500000Y-65900000D01*
X211500000Y-66100000D02*
X211500000Y-66100000D01*
D13*
X213250000Y-62500000D02*
X225250000Y-62500000D01*
X213250000Y-64500000D02*
X213250000Y-62500000D01*
X213250000Y-72500000D02*
X213250000Y-74500000D01*
X213250000Y-74500000D02*
X225250000Y-74500000D01*
X225250000Y-62500000D02*
X225250000Y-64500000D01*
X225250000Y-74500000D02*
X225250000Y-72500000D01*
D14*
X211500000Y-65900000D02*
G75*
G02*
X211500000Y-66100000I0J-100000D01*
G01*
X211500000Y-66100000D02*
G75*
G02*
X211500000Y-65900000I0J100000D01*
G01*
%TD*%
M02*
