ISO-10303-21;
HEADER;
/* Generated by software containing ST-Developer
 * from STEP Tools, Inc. (www.steptools.com) 
 */

FILE_DESCRIPTION(
/* description */ (''),
/* implementation_level */ '2;1');

FILE_NAME(
/* name */ 'Dribbler board v33.step',
/* time_stamp */ '2025-09-20T14:46:58+09:00',
/* author */ (''),
/* organization */ (''),
/* preprocessor_version */ 'ST-DEVELOPER v20.1',
/* originating_system */ 'Autodesk Translation Framework v14.17.0.0',
/* authorisation */ '');

FILE_SCHEMA (('AUTOMOTIVE_DESIGN { 1 0 10303 214 3 1 1 }'));
ENDSEC;

DATA;
#10=MECHANICAL_DESIGN_GEOMETRIC_PRESENTATION_REPRESENTATION('',(#17),#1875);
#11=SHAPE_REPRESENTATION_RELATIONSHIP('SRR','None',#1885,#12);
#12=ADVANCED_BREP_SHAPE_REPRESENTATION('',(#18),#1873);
#13=ITEM_DEFINED_TRANSFORMATION($,$,#1112,#1224);
#14=(
REPRESENTATION_RELATIONSHIP($,$,#1886,#1885)
REPRESENTATION_RELATIONSHIP_WITH_TRANSFORMATION(#13)
SHAPE_REPRESENTATION_RELATIONSHIP()
);
#15=CONTEXT_DEPENDENT_SHAPE_REPRESENTATION(#14,#1884);
#16=NEXT_ASSEMBLY_USAGE_OCCURRENCE('Component1:1','Component1:1',
'Component1:1',#1888,#1889,'Component1:1');
#17=STYLED_ITEM('',(#1900),#18);
#18=MANIFOLD_SOLID_BREP('\X2\30DC30C730A3\X0\1',#1098);
#19=FACE_BOUND('',#120,.T.);
#20=FACE_BOUND('',#121,.T.);
#21=FACE_BOUND('',#122,.T.);
#22=FACE_BOUND('',#123,.T.);
#23=FACE_BOUND('',#124,.T.);
#24=FACE_BOUND('',#126,.T.);
#25=FACE_BOUND('',#135,.T.);
#26=FACE_BOUND('',#136,.T.);
#27=FACE_BOUND('',#137,.T.);
#28=FACE_BOUND('',#138,.T.);
#29=FACE_BOUND('',#139,.T.);
#30=FACE_BOUND('',#148,.T.);
#31=FACE_BOUND('',#151,.T.);
#32=FACE_BOUND('',#153,.T.);
#33=FACE_BOUND('',#166,.T.);
#34=FACE_BOUND('',#172,.T.);
#35=PLANE('',#1119);
#36=PLANE('',#1140);
#37=PLANE('',#1143);
#38=PLANE('',#1148);
#39=PLANE('',#1155);
#40=PLANE('',#1172);
#41=PLANE('',#1174);
#42=PLANE('',#1178);
#43=PLANE('',#1179);
#44=PLANE('',#1182);
#45=PLANE('',#1186);
#46=PLANE('',#1187);
#47=PLANE('',#1188);
#48=PLANE('',#1190);
#49=PLANE('',#1192);
#50=PLANE('',#1195);
#51=PLANE('',#1196);
#52=PLANE('',#1198);
#53=PLANE('',#1199);
#54=PLANE('',#1203);
#55=PLANE('',#1205);
#56=PLANE('',#1206);
#57=PLANE('',#1209);
#58=PLANE('',#1210);
#59=PLANE('',#1213);
#60=PLANE('',#1218);
#61=PLANE('',#1223);
#62=FACE_OUTER_BOUND('',#117,.T.);
#63=FACE_OUTER_BOUND('',#118,.T.);
#64=FACE_OUTER_BOUND('',#119,.T.);
#65=FACE_OUTER_BOUND('',#125,.T.);
#66=FACE_OUTER_BOUND('',#127,.T.);
#67=FACE_OUTER_BOUND('',#128,.T.);
#68=FACE_OUTER_BOUND('',#129,.T.);
#69=FACE_OUTER_BOUND('',#130,.T.);
#70=FACE_OUTER_BOUND('',#131,.T.);
#71=FACE_OUTER_BOUND('',#132,.T.);
#72=FACE_OUTER_BOUND('',#133,.T.);
#73=FACE_OUTER_BOUND('',#134,.T.);
#74=FACE_OUTER_BOUND('',#140,.T.);
#75=FACE_OUTER_BOUND('',#141,.T.);
#76=FACE_OUTER_BOUND('',#142,.T.);
#77=FACE_OUTER_BOUND('',#143,.T.);
#78=FACE_OUTER_BOUND('',#144,.T.);
#79=FACE_OUTER_BOUND('',#145,.T.);
#80=FACE_OUTER_BOUND('',#146,.T.);
#81=FACE_OUTER_BOUND('',#147,.T.);
#82=FACE_OUTER_BOUND('',#149,.T.);
#83=FACE_OUTER_BOUND('',#150,.T.);
#84=FACE_OUTER_BOUND('',#152,.T.);
#85=FACE_OUTER_BOUND('',#154,.T.);
#86=FACE_OUTER_BOUND('',#155,.T.);
#87=FACE_OUTER_BOUND('',#156,.T.);
#88=FACE_OUTER_BOUND('',#157,.T.);
#89=FACE_OUTER_BOUND('',#158,.T.);
#90=FACE_OUTER_BOUND('',#159,.T.);
#91=FACE_OUTER_BOUND('',#160,.T.);
#92=FACE_OUTER_BOUND('',#161,.T.);
#93=FACE_OUTER_BOUND('',#162,.T.);
#94=FACE_OUTER_BOUND('',#163,.T.);
#95=FACE_OUTER_BOUND('',#164,.T.);
#96=FACE_OUTER_BOUND('',#165,.T.);
#97=FACE_OUTER_BOUND('',#167,.T.);
#98=FACE_OUTER_BOUND('',#168,.T.);
#99=FACE_OUTER_BOUND('',#169,.T.);
#100=FACE_OUTER_BOUND('',#170,.T.);
#101=FACE_OUTER_BOUND('',#171,.T.);
#102=FACE_OUTER_BOUND('',#173,.T.);
#103=FACE_OUTER_BOUND('',#174,.T.);
#104=FACE_OUTER_BOUND('',#175,.T.);
#105=FACE_OUTER_BOUND('',#176,.T.);
#106=FACE_OUTER_BOUND('',#177,.T.);
#107=FACE_OUTER_BOUND('',#178,.T.);
#108=FACE_OUTER_BOUND('',#179,.T.);
#109=FACE_OUTER_BOUND('',#180,.T.);
#110=FACE_OUTER_BOUND('',#181,.T.);
#111=FACE_OUTER_BOUND('',#182,.T.);
#112=FACE_OUTER_BOUND('',#183,.T.);
#113=FACE_OUTER_BOUND('',#184,.T.);
#114=FACE_OUTER_BOUND('',#185,.T.);
#115=FACE_OUTER_BOUND('',#186,.T.);
#116=FACE_OUTER_BOUND('',#187,.T.);
#117=EDGE_LOOP('',(#703,#704,#705,#706));
#118=EDGE_LOOP('',(#707,#708,#709,#710));
#119=EDGE_LOOP('',(#711,#712,#713,#714,#715,#716,#717,#718,#719,#720,#721,
#722,#723,#724,#725,#726,#727,#728,#729,#730,#731,#732,#733));
#120=EDGE_LOOP('',(#734,#735,#736,#737,#738,#739,#740,#741,#742,#743,#744,
#745));
#121=EDGE_LOOP('',(#746));
#122=EDGE_LOOP('',(#747));
#123=EDGE_LOOP('',(#748));
#124=EDGE_LOOP('',(#749));
#125=EDGE_LOOP('',(#750,#751,#752,#753,#754,#755,#756,#757));
#126=EDGE_LOOP('',(#758));
#127=EDGE_LOOP('',(#759,#760,#761,#762));
#128=EDGE_LOOP('',(#763,#764,#765,#766));
#129=EDGE_LOOP('',(#767,#768,#769,#770));
#130=EDGE_LOOP('',(#771,#772,#773,#774));
#131=EDGE_LOOP('',(#775,#776,#777,#778));
#132=EDGE_LOOP('',(#779,#780,#781,#782));
#133=EDGE_LOOP('',(#783,#784,#785,#786));
#134=EDGE_LOOP('',(#787,#788,#789,#790,#791,#792,#793,#794,#795,#796,#797,
#798,#799,#800,#801,#802,#803,#804,#805,#806,#807,#808,#809,#810,#811,#812,
#813,#814,#815,#816));
#135=EDGE_LOOP('',(#817,#818,#819,#820,#821,#822,#823,#824,#825,#826,#827,
#828));
#136=EDGE_LOOP('',(#829));
#137=EDGE_LOOP('',(#830));
#138=EDGE_LOOP('',(#831));
#139=EDGE_LOOP('',(#832));
#140=EDGE_LOOP('',(#833,#834,#835,#836,#837,#838));
#141=EDGE_LOOP('',(#839,#840,#841,#842));
#142=EDGE_LOOP('',(#843,#844,#845,#846));
#143=EDGE_LOOP('',(#847,#848,#849,#850));
#144=EDGE_LOOP('',(#851,#852,#853,#854,#855));
#145=EDGE_LOOP('',(#856,#857,#858,#859));
#146=EDGE_LOOP('',(#860,#861,#862,#863));
#147=EDGE_LOOP('',(#864,#865,#866,#867));
#148=EDGE_LOOP('',(#868));
#149=EDGE_LOOP('',(#869,#870,#871,#872));
#150=EDGE_LOOP('',(#873,#874,#875,#876));
#151=EDGE_LOOP('',(#877));
#152=EDGE_LOOP('',(#878,#879,#880,#881));
#153=EDGE_LOOP('',(#882));
#154=EDGE_LOOP('',(#883,#884,#885,#886));
#155=EDGE_LOOP('',(#887,#888,#889,#890));
#156=EDGE_LOOP('',(#891,#892,#893,#894));
#157=EDGE_LOOP('',(#895,#896,#897,#898));
#158=EDGE_LOOP('',(#899,#900,#901,#902));
#159=EDGE_LOOP('',(#903,#904,#905,#906));
#160=EDGE_LOOP('',(#907,#908,#909,#910));
#161=EDGE_LOOP('',(#911,#912,#913,#914));
#162=EDGE_LOOP('',(#915,#916,#917,#918));
#163=EDGE_LOOP('',(#919,#920,#921,#922));
#164=EDGE_LOOP('',(#923,#924,#925,#926));
#165=EDGE_LOOP('',(#927,#928,#929,#930));
#166=EDGE_LOOP('',(#931));
#167=EDGE_LOOP('',(#932,#933,#934,#935));
#168=EDGE_LOOP('',(#936,#937,#938,#939));
#169=EDGE_LOOP('',(#940,#941,#942,#943));
#170=EDGE_LOOP('',(#944,#945,#946,#947));
#171=EDGE_LOOP('',(#948,#949,#950,#951,#952,#953));
#172=EDGE_LOOP('',(#954));
#173=EDGE_LOOP('',(#955,#956,#957,#958));
#174=EDGE_LOOP('',(#959,#960,#961,#962));
#175=EDGE_LOOP('',(#963,#964,#965,#966));
#176=EDGE_LOOP('',(#967,#968,#969,#970));
#177=EDGE_LOOP('',(#971,#972,#973,#974));
#178=EDGE_LOOP('',(#975,#976,#977,#978));
#179=EDGE_LOOP('',(#979,#980,#981,#982));
#180=EDGE_LOOP('',(#983,#984,#985,#986));
#181=EDGE_LOOP('',(#987,#988,#989,#990));
#182=EDGE_LOOP('',(#991,#992,#993,#994));
#183=EDGE_LOOP('',(#995,#996,#997,#998));
#184=EDGE_LOOP('',(#999,#1000,#1001,#1002));
#185=EDGE_LOOP('',(#1003,#1004,#1005,#1006));
#186=EDGE_LOOP('',(#1007,#1008,#1009,#1010));
#187=EDGE_LOOP('',(#1011,#1012,#1013,#1014));
#188=LINE('',#1560,#288);
#189=LINE('',#1563,#289);
#190=LINE('',#1568,#290);
#191=LINE('',#1572,#291);
#192=LINE('',#1576,#292);
#193=LINE('',#1580,#293);
#194=LINE('',#1586,#294);
#195=LINE('',#1590,#295);
#196=LINE('',#1592,#296);
#197=LINE('',#1596,#297);
#198=LINE('',#1600,#298);
#199=LINE('',#1604,#299);
#200=LINE('',#1608,#300);
#201=LINE('',#1611,#301);
#202=LINE('',#1616,#302);
#203=LINE('',#1622,#303);
#204=LINE('',#1626,#304);
#205=LINE('',#1630,#305);
#206=LINE('',#1632,#306);
#207=LINE('',#1635,#307);
#208=LINE('',#1646,#308);
#209=LINE('',#1648,#309);
#210=LINE('',#1652,#310);
#211=LINE('',#1654,#311);
#212=LINE('',#1655,#312);
#213=LINE('',#1660,#313);
#214=LINE('',#1661,#314);
#215=LINE('',#1665,#315);
#216=LINE('',#1670,#316);
#217=LINE('',#1671,#317);
#218=LINE('',#1673,#318);
#219=LINE('',#1678,#319);
#220=LINE('',#1679,#320);
#221=LINE('',#1682,#321);
#222=LINE('',#1688,#322);
#223=LINE('',#1689,#323);
#224=LINE('',#1694,#324);
#225=LINE('',#1698,#325);
#226=LINE('',#1702,#326);
#227=LINE('',#1704,#327);
#228=LINE('',#1706,#328);
#229=LINE('',#1709,#329);
#230=LINE('',#1711,#330);
#231=LINE('',#1713,#331);
#232=LINE('',#1715,#332);
#233=LINE('',#1719,#333);
#234=LINE('',#1724,#334);
#235=LINE('',#1726,#335);
#236=LINE('',#1728,#336);
#237=LINE('',#1729,#337);
#238=LINE('',#1731,#338);
#239=LINE('',#1735,#339);
#240=LINE('',#1737,#340);
#241=LINE('',#1741,#341);
#242=LINE('',#1745,#342);
#243=LINE('',#1750,#343);
#244=LINE('',#1761,#344);
#245=LINE('',#1763,#345);
#246=LINE('',#1764,#346);
#247=LINE('',#1766,#347);
#248=LINE('',#1767,#348);
#249=LINE('',#1769,#349);
#250=LINE('',#1774,#350);
#251=LINE('',#1777,#351);
#252=LINE('',#1778,#352);
#253=LINE('',#1781,#353);
#254=LINE('',#1782,#354);
#255=LINE('',#1786,#355);
#256=LINE('',#1788,#356);
#257=LINE('',#1793,#357);
#258=LINE('',#1798,#358);
#259=LINE('',#1800,#359);
#260=LINE('',#1801,#360);
#261=LINE('',#1803,#361);
#262=LINE('',#1805,#362);
#263=LINE('',#1806,#363);
#264=LINE('',#1810,#364);
#265=LINE('',#1812,#365);
#266=LINE('',#1814,#366);
#267=LINE('',#1816,#367);
#268=LINE('',#1820,#368);
#269=LINE('',#1823,#369);
#270=LINE('',#1827,#370);
#271=LINE('',#1828,#371);
#272=LINE('',#1831,#372);
#273=LINE('',#1832,#373);
#274=LINE('',#1834,#374);
#275=LINE('',#1835,#375);
#276=LINE('',#1837,#376);
#277=LINE('',#1841,#377);
#278=LINE('',#1847,#378);
#279=LINE('',#1849,#379);
#280=LINE('',#1852,#380);
#281=LINE('',#1854,#381);
#282=LINE('',#1856,#382);
#283=LINE('',#1858,#383);
#284=LINE('',#1861,#384);
#285=LINE('',#1863,#385);
#286=LINE('',#1865,#386);
#287=LINE('',#1867,#387);
#288=VECTOR('',#1233,10.);
#289=VECTOR('',#1236,10.);
#290=VECTOR('',#1241,10.);
#291=VECTOR('',#1246,10.);
#292=VECTOR('',#1249,10.);
#293=VECTOR('',#1252,10.);
#294=VECTOR('',#1257,10.);
#295=VECTOR('',#1260,10.);
#296=VECTOR('',#1261,10.);
#297=VECTOR('',#1264,10.);
#298=VECTOR('',#1267,10.);
#299=VECTOR('',#1270,10.);
#300=VECTOR('',#1273,10.);
#301=VECTOR('',#1276,10.);
#302=VECTOR('',#1279,10.);
#303=VECTOR('',#1284,10.);
#304=VECTOR('',#1287,10.);
#305=VECTOR('',#1290,10.);
#306=VECTOR('',#1291,10.);
#307=VECTOR('',#1294,10.);
#308=VECTOR('',#1305,10.);
#309=VECTOR('',#1306,10.);
#310=VECTOR('',#1309,10.);
#311=VECTOR('',#1310,10.);
#312=VECTOR('',#1311,10.);
#313=VECTOR('',#1316,10.);
#314=VECTOR('',#1317,10.);
#315=VECTOR('',#1322,10.);
#316=VECTOR('',#1327,10.);
#317=VECTOR('',#1328,10.);
#318=VECTOR('',#1331,10.);
#319=VECTOR('',#1336,10.);
#320=VECTOR('',#1337,10.);
#321=VECTOR('',#1340,1.5);
#322=VECTOR('',#1347,10.);
#323=VECTOR('',#1348,10.);
#324=VECTOR('',#1353,10.);
#325=VECTOR('',#1356,10.);
#326=VECTOR('',#1359,10.);
#327=VECTOR('',#1360,10.);
#328=VECTOR('',#1361,10.);
#329=VECTOR('',#1364,10.);
#330=VECTOR('',#1365,10.);
#331=VECTOR('',#1366,10.);
#332=VECTOR('',#1367,10.);
#333=VECTOR('',#1370,10.);
#334=VECTOR('',#1375,10.);
#335=VECTOR('',#1376,10.);
#336=VECTOR('',#1377,10.);
#337=VECTOR('',#1378,10.);
#338=VECTOR('',#1379,10.);
#339=VECTOR('',#1382,10.);
#340=VECTOR('',#1383,10.);
#341=VECTOR('',#1386,10.);
#342=VECTOR('',#1389,10.);
#343=VECTOR('',#1394,10.);
#344=VECTOR('',#1405,10.);
#345=VECTOR('',#1406,10.);
#346=VECTOR('',#1407,10.);
#347=VECTOR('',#1410,10.);
#348=VECTOR('',#1411,10.);
#349=VECTOR('',#1414,1.58);
#350=VECTOR('',#1419,10.);
#351=VECTOR('',#1424,10.);
#352=VECTOR('',#1425,10.);
#353=VECTOR('',#1428,10.);
#354=VECTOR('',#1429,10.);
#355=VECTOR('',#1434,10.);
#356=VECTOR('',#1437,10.);
#357=VECTOR('',#1442,2.25);
#358=VECTOR('',#1451,10.);
#359=VECTOR('',#1454,10.);
#360=VECTOR('',#1455,10.);
#361=VECTOR('',#1458,10.);
#362=VECTOR('',#1461,3.);
#363=VECTOR('',#1462,3.);
#364=VECTOR('',#1469,10.);
#365=VECTOR('',#1472,10.);
#366=VECTOR('',#1475,10.);
#367=VECTOR('',#1478,10.);
#368=VECTOR('',#1483,10.);
#369=VECTOR('',#1486,10.);
#370=VECTOR('',#1491,10.);
#371=VECTOR('',#1492,10.);
#372=VECTOR('',#1495,10.);
#373=VECTOR('',#1496,10.);
#374=VECTOR('',#1499,10.);
#375=VECTOR('',#1500,10.);
#376=VECTOR('',#1503,10.);
#377=VECTOR('',#1508,10.);
#378=VECTOR('',#1517,1.58);
#379=VECTOR('',#1520,10.);
#380=VECTOR('',#1525,10.);
#381=VECTOR('',#1528,10.);
#382=VECTOR('',#1531,1.5);
#383=VECTOR('',#1534,10.);
#384=VECTOR('',#1539,1.5);
#385=VECTOR('',#1542,1.5);
#386=VECTOR('',#1545,1.5);
#387=VECTOR('',#1548,1.5);
#388=CIRCLE('',#1114,0.5);
#389=CIRCLE('',#1115,0.5);
#390=CIRCLE('',#1117,0.5);
#391=CIRCLE('',#1118,0.5);
#392=CIRCLE('',#1120,1.);
#393=CIRCLE('',#1121,4.5);
#394=CIRCLE('',#1122,1.58);
#395=CIRCLE('',#1123,1.58);
#396=CIRCLE('',#1124,3.);
#397=CIRCLE('',#1125,3.);
#398=CIRCLE('',#1126,1.);
#399=CIRCLE('',#1127,1.);
#400=CIRCLE('',#1128,3.);
#401=CIRCLE('',#1129,3.);
#402=CIRCLE('',#1130,3.19615292934611);
#403=CIRCLE('',#1131,3.);
#404=CIRCLE('',#1132,3.);
#405=CIRCLE('',#1133,3.);
#406=CIRCLE('',#1134,2.99999999999998);
#407=CIRCLE('',#1135,3.00000000000001);
#408=CIRCLE('',#1136,1.5);
#409=CIRCLE('',#1137,1.5);
#410=CIRCLE('',#1138,1.5);
#411=CIRCLE('',#1139,1.5);
#412=CIRCLE('',#1141,3.);
#413=CIRCLE('',#1142,1.5);
#414=CIRCLE('',#1145,1.);
#415=CIRCLE('',#1147,4.5);
#416=CIRCLE('',#1150,3.19615292934611);
#417=CIRCLE('',#1152,1.5);
#418=CIRCLE('',#1154,3.);
#419=CIRCLE('',#1156,3.);
#420=CIRCLE('',#1157,3.);
#421=CIRCLE('',#1158,1.);
#422=CIRCLE('',#1159,1.);
#423=CIRCLE('',#1160,3.);
#424=CIRCLE('',#1161,1.58);
#425=CIRCLE('',#1162,1.58);
#426=CIRCLE('',#1163,3.00000000000001);
#427=CIRCLE('',#1164,2.99999999999998);
#428=CIRCLE('',#1165,3.);
#429=CIRCLE('',#1166,3.);
#430=CIRCLE('',#1167,3.);
#431=CIRCLE('',#1168,1.5);
#432=CIRCLE('',#1169,1.5);
#433=CIRCLE('',#1170,1.5);
#434=CIRCLE('',#1171,1.5);
#435=CIRCLE('',#1176,4.);
#436=CIRCLE('',#1177,4.);
#437=CIRCLE('',#1181,3.);
#438=CIRCLE('',#1184,2.25);
#439=CIRCLE('',#1185,2.25);
#440=CIRCLE('',#1200,3.);
#441=CIRCLE('',#1201,1.5);
#442=CIRCLE('',#1207,3.);
#443=CIRCLE('',#1208,1.5);
#444=VERTEX_POINT('',#1556);
#445=VERTEX_POINT('',#1557);
#446=VERTEX_POINT('',#1559);
#447=VERTEX_POINT('',#1561);
#448=VERTEX_POINT('',#1565);
#449=VERTEX_POINT('',#1567);
#450=VERTEX_POINT('',#1571);
#451=VERTEX_POINT('',#1573);
#452=VERTEX_POINT('',#1575);
#453=VERTEX_POINT('',#1577);
#454=VERTEX_POINT('',#1579);
#455=VERTEX_POINT('',#1581);
#456=VERTEX_POINT('',#1583);
#457=VERTEX_POINT('',#1585);
#458=VERTEX_POINT('',#1587);
#459=VERTEX_POINT('',#1589);
#460=VERTEX_POINT('',#1591);
#461=VERTEX_POINT('',#1593);
#462=VERTEX_POINT('',#1595);
#463=VERTEX_POINT('',#1597);
#464=VERTEX_POINT('',#1599);
#465=VERTEX_POINT('',#1601);
#466=VERTEX_POINT('',#1603);
#467=VERTEX_POINT('',#1605);
#468=VERTEX_POINT('',#1607);
#469=VERTEX_POINT('',#1609);
#470=VERTEX_POINT('',#1612);
#471=VERTEX_POINT('',#1613);
#472=VERTEX_POINT('',#1615);
#473=VERTEX_POINT('',#1617);
#474=VERTEX_POINT('',#1619);
#475=VERTEX_POINT('',#1621);
#476=VERTEX_POINT('',#1623);
#477=VERTEX_POINT('',#1625);
#478=VERTEX_POINT('',#1627);
#479=VERTEX_POINT('',#1629);
#480=VERTEX_POINT('',#1631);
#481=VERTEX_POINT('',#1633);
#482=VERTEX_POINT('',#1636);
#483=VERTEX_POINT('',#1638);
#484=VERTEX_POINT('',#1640);
#485=VERTEX_POINT('',#1642);
#486=VERTEX_POINT('',#1645);
#487=VERTEX_POINT('',#1647);
#488=VERTEX_POINT('',#1649);
#489=VERTEX_POINT('',#1651);
#490=VERTEX_POINT('',#1653);
#491=VERTEX_POINT('',#1656);
#492=VERTEX_POINT('',#1659);
#493=VERTEX_POINT('',#1663);
#494=VERTEX_POINT('',#1667);
#495=VERTEX_POINT('',#1668);
#496=VERTEX_POINT('',#1675);
#497=VERTEX_POINT('',#1676);
#498=VERTEX_POINT('',#1681);
#499=VERTEX_POINT('',#1685);
#500=VERTEX_POINT('',#1686);
#501=VERTEX_POINT('',#1691);
#502=VERTEX_POINT('',#1693);
#503=VERTEX_POINT('',#1695);
#504=VERTEX_POINT('',#1697);
#505=VERTEX_POINT('',#1699);
#506=VERTEX_POINT('',#1701);
#507=VERTEX_POINT('',#1703);
#508=VERTEX_POINT('',#1705);
#509=VERTEX_POINT('',#1707);
#510=VERTEX_POINT('',#1710);
#511=VERTEX_POINT('',#1712);
#512=VERTEX_POINT('',#1714);
#513=VERTEX_POINT('',#1716);
#514=VERTEX_POINT('',#1718);
#515=VERTEX_POINT('',#1720);
#516=VERTEX_POINT('',#1722);
#517=VERTEX_POINT('',#1725);
#518=VERTEX_POINT('',#1727);
#519=VERTEX_POINT('',#1730);
#520=VERTEX_POINT('',#1732);
#521=VERTEX_POINT('',#1734);
#522=VERTEX_POINT('',#1736);
#523=VERTEX_POINT('',#1738);
#524=VERTEX_POINT('',#1740);
#525=VERTEX_POINT('',#1742);
#526=VERTEX_POINT('',#1744);
#527=VERTEX_POINT('',#1746);
#528=VERTEX_POINT('',#1748);
#529=VERTEX_POINT('',#1751);
#530=VERTEX_POINT('',#1753);
#531=VERTEX_POINT('',#1755);
#532=VERTEX_POINT('',#1757);
#533=VERTEX_POINT('',#1760);
#534=VERTEX_POINT('',#1762);
#535=VERTEX_POINT('',#1771);
#536=VERTEX_POINT('',#1773);
#537=VERTEX_POINT('',#1780);
#538=VERTEX_POINT('',#1784);
#539=VERTEX_POINT('',#1790);
#540=VERTEX_POINT('',#1792);
#541=VERTEX_POINT('',#1819);
#542=VERTEX_POINT('',#1821);
#543=VERTEX_POINT('',#1824);
#544=VERTEX_POINT('',#1830);
#545=VERTEX_POINT('',#1839);
#546=VERTEX_POINT('',#1842);
#547=EDGE_CURVE('',#444,#445,#388,.T.);
#548=EDGE_CURVE('',#446,#445,#188,.T.);
#549=EDGE_CURVE('',#446,#447,#389,.T.);
#550=EDGE_CURVE('',#447,#444,#189,.T.);
#551=EDGE_CURVE('',#445,#448,#390,.T.);
#552=EDGE_CURVE('',#448,#449,#190,.T.);
#553=EDGE_CURVE('',#449,#446,#391,.T.);
#554=EDGE_CURVE('',#449,#450,#191,.T.);
#555=EDGE_CURVE('',#451,#450,#392,.T.);
#556=EDGE_CURVE('',#451,#452,#192,.T.);
#557=EDGE_CURVE('',#452,#453,#393,.T.);
#558=EDGE_CURVE('',#453,#454,#193,.T.);
#559=EDGE_CURVE('',#455,#454,#394,.T.);
#560=EDGE_CURVE('',#456,#455,#395,.T.);
#561=EDGE_CURVE('',#456,#457,#194,.T.);
#562=EDGE_CURVE('',#458,#457,#396,.T.);
#563=EDGE_CURVE('',#458,#459,#195,.T.);
#564=EDGE_CURVE('',#459,#460,#196,.T.);
#565=EDGE_CURVE('',#461,#460,#397,.T.);
#566=EDGE_CURVE('',#461,#462,#197,.T.);
#567=EDGE_CURVE('',#463,#462,#398,.T.);
#568=EDGE_CURVE('',#464,#463,#198,.T.);
#569=EDGE_CURVE('',#465,#464,#399,.T.);
#570=EDGE_CURVE('',#466,#465,#199,.T.);
#571=EDGE_CURVE('',#467,#466,#400,.T.);
#572=EDGE_CURVE('',#467,#468,#200,.T.);
#573=EDGE_CURVE('',#469,#468,#401,.T.);
#574=EDGE_CURVE('',#469,#447,#201,.T.);
#575=EDGE_CURVE('',#470,#471,#402,.T.);
#576=EDGE_CURVE('',#471,#472,#202,.T.);
#577=EDGE_CURVE('',#472,#473,#403,.F.);
#578=EDGE_CURVE('',#474,#473,#404,.T.);
#579=EDGE_CURVE('',#474,#475,#203,.T.);
#580=EDGE_CURVE('',#476,#475,#405,.T.);
#581=EDGE_CURVE('',#476,#477,#204,.T.);
#582=EDGE_CURVE('',#477,#478,#406,.T.);
#583=EDGE_CURVE('',#478,#479,#205,.T.);
#584=EDGE_CURVE('',#479,#480,#206,.T.);
#585=EDGE_CURVE('',#480,#481,#407,.T.);
#586=EDGE_CURVE('',#481,#470,#207,.T.);
#587=EDGE_CURVE('',#482,#482,#408,.T.);
#588=EDGE_CURVE('',#483,#483,#409,.T.);
#589=EDGE_CURVE('',#484,#484,#410,.T.);
#590=EDGE_CURVE('',#485,#485,#411,.T.);
#591=EDGE_CURVE('',#486,#448,#208,.T.);
#592=EDGE_CURVE('',#486,#487,#209,.T.);
#593=EDGE_CURVE('',#487,#488,#412,.T.);
#594=EDGE_CURVE('',#488,#489,#210,.T.);
#595=EDGE_CURVE('',#490,#489,#211,.T.);
#596=EDGE_CURVE('',#450,#490,#212,.T.);
#597=EDGE_CURVE('',#491,#491,#413,.T.);
#598=EDGE_CURVE('',#492,#469,#213,.T.);
#599=EDGE_CURVE('',#492,#444,#214,.T.);
#600=EDGE_CURVE('',#490,#493,#414,.T.);
#601=EDGE_CURVE('',#493,#451,#215,.T.);
#602=EDGE_CURVE('',#494,#495,#415,.T.);
#603=EDGE_CURVE('',#494,#453,#216,.T.);
#604=EDGE_CURVE('',#452,#495,#217,.T.);
#605=EDGE_CURVE('',#495,#493,#218,.T.);
#606=EDGE_CURVE('',#496,#497,#416,.T.);
#607=EDGE_CURVE('',#496,#471,#219,.T.);
#608=EDGE_CURVE('',#470,#497,#220,.T.);
#609=EDGE_CURVE('',#491,#498,#221,.T.);
#610=EDGE_CURVE('',#498,#498,#417,.T.);
#611=EDGE_CURVE('',#499,#500,#418,.T.);
#612=EDGE_CURVE('',#500,#461,#222,.T.);
#613=EDGE_CURVE('',#460,#499,#223,.T.);
#614=EDGE_CURVE('',#501,#492,#419,.T.);
#615=EDGE_CURVE('',#502,#501,#224,.T.);
#616=EDGE_CURVE('',#503,#502,#420,.T.);
#617=EDGE_CURVE('',#504,#503,#225,.T.);
#618=EDGE_CURVE('',#505,#504,#421,.T.);
#619=EDGE_CURVE('',#505,#506,#226,.T.);
#620=EDGE_CURVE('',#506,#507,#227,.T.);
#621=EDGE_CURVE('',#507,#508,#228,.T.);
#622=EDGE_CURVE('',#509,#508,#422,.T.);
#623=EDGE_CURVE('',#500,#509,#229,.T.);
#624=EDGE_CURVE('',#510,#499,#230,.T.);
#625=EDGE_CURVE('',#510,#511,#231,.T.);
#626=EDGE_CURVE('',#511,#512,#232,.T.);
#627=EDGE_CURVE('',#513,#512,#423,.T.);
#628=EDGE_CURVE('',#513,#514,#233,.T.);
#629=EDGE_CURVE('',#515,#514,#424,.T.);
#630=EDGE_CURVE('',#516,#515,#425,.T.);
#631=EDGE_CURVE('',#516,#494,#234,.T.);
#632=EDGE_CURVE('',#489,#517,#235,.T.);
#633=EDGE_CURVE('',#517,#518,#236,.T.);
#634=EDGE_CURVE('',#518,#486,#237,.T.);
#635=EDGE_CURVE('',#497,#519,#238,.T.);
#636=EDGE_CURVE('',#519,#520,#426,.T.);
#637=EDGE_CURVE('',#520,#521,#239,.T.);
#638=EDGE_CURVE('',#521,#522,#240,.T.);
#639=EDGE_CURVE('',#522,#523,#427,.T.);
#640=EDGE_CURVE('',#523,#524,#241,.T.);
#641=EDGE_CURVE('',#525,#524,#428,.T.);
#642=EDGE_CURVE('',#525,#526,#242,.T.);
#643=EDGE_CURVE('',#527,#526,#429,.T.);
#644=EDGE_CURVE('',#528,#527,#430,.T.);
#645=EDGE_CURVE('',#528,#496,#243,.T.);
#646=EDGE_CURVE('',#529,#529,#431,.T.);
#647=EDGE_CURVE('',#530,#530,#432,.T.);
#648=EDGE_CURVE('',#531,#531,#433,.T.);
#649=EDGE_CURVE('',#532,#532,#434,.T.);
#650=EDGE_CURVE('',#459,#533,#244,.T.);
#651=EDGE_CURVE('',#534,#533,#245,.T.);
#652=EDGE_CURVE('',#534,#510,#246,.T.);
#653=EDGE_CURVE('',#457,#513,#247,.T.);
#654=EDGE_CURVE('',#512,#458,#248,.T.);
#655=EDGE_CURVE('',#514,#456,#249,.T.);
#656=EDGE_CURVE('',#533,#535,#435,.T.);
#657=EDGE_CURVE('',#536,#535,#250,.T.);
#658=EDGE_CURVE('',#534,#536,#436,.T.);
#659=EDGE_CURVE('',#511,#536,#251,.T.);
#660=EDGE_CURVE('',#535,#458,#252,.T.);
#661=EDGE_CURVE('',#518,#537,#253,.T.);
#662=EDGE_CURVE('',#487,#537,#254,.T.);
#663=EDGE_CURVE('',#537,#538,#437,.T.);
#664=EDGE_CURVE('',#538,#488,#255,.T.);
#665=EDGE_CURVE('',#538,#517,#256,.T.);
#666=EDGE_CURVE('',#539,#539,#438,.T.);
#667=EDGE_CURVE('',#539,#540,#257,.T.);
#668=EDGE_CURVE('',#540,#540,#439,.T.);
#669=EDGE_CURVE('',#481,#519,#258,.T.);
#670=EDGE_CURVE('',#475,#525,#259,.T.);
#671=EDGE_CURVE('',#524,#476,#260,.T.);
#672=EDGE_CURVE('',#526,#474,#261,.T.);
#673=EDGE_CURVE('',#527,#473,#262,.T.);
#674=EDGE_CURVE('',#472,#528,#263,.T.);
#675=EDGE_CURVE('',#480,#520,#264,.T.);
#676=EDGE_CURVE('',#479,#521,#265,.T.);
#677=EDGE_CURVE('',#478,#522,#266,.T.);
#678=EDGE_CURVE('',#477,#523,#267,.T.);
#679=EDGE_CURVE('',#541,#506,#268,.T.);
#680=EDGE_CURVE('',#542,#541,#440,.T.);
#681=EDGE_CURVE('',#507,#542,#269,.T.);
#682=EDGE_CURVE('',#543,#543,#441,.T.);
#683=EDGE_CURVE('',#463,#508,#270,.T.);
#684=EDGE_CURVE('',#462,#509,#271,.T.);
#685=EDGE_CURVE('',#542,#544,#272,.T.);
#686=EDGE_CURVE('',#508,#544,#273,.T.);
#687=EDGE_CURVE('',#504,#465,#274,.T.);
#688=EDGE_CURVE('',#505,#464,#275,.T.);
#689=EDGE_CURVE('',#466,#503,#276,.T.);
#690=EDGE_CURVE('',#544,#545,#442,.T.);
#691=EDGE_CURVE('',#545,#505,#277,.T.);
#692=EDGE_CURVE('',#546,#546,#443,.T.);
#693=EDGE_CURVE('',#455,#515,#278,.T.);
#694=EDGE_CURVE('',#454,#516,#279,.T.);
#695=EDGE_CURVE('',#502,#467,#280,.T.);
#696=EDGE_CURVE('',#468,#501,#281,.T.);
#697=EDGE_CURVE('',#546,#543,#282,.T.);
#698=EDGE_CURVE('',#541,#545,#283,.T.);
#699=EDGE_CURVE('',#529,#485,#284,.T.);
#700=EDGE_CURVE('',#530,#484,#285,.T.);
#701=EDGE_CURVE('',#531,#483,#286,.T.);
#702=EDGE_CURVE('',#532,#482,#287,.T.);
#703=ORIENTED_EDGE('',*,*,#547,.T.);
#704=ORIENTED_EDGE('',*,*,#548,.F.);
#705=ORIENTED_EDGE('',*,*,#549,.T.);
#706=ORIENTED_EDGE('',*,*,#550,.T.);
#707=ORIENTED_EDGE('',*,*,#551,.T.);
#708=ORIENTED_EDGE('',*,*,#552,.T.);
#709=ORIENTED_EDGE('',*,*,#553,.T.);
#710=ORIENTED_EDGE('',*,*,#548,.T.);
#711=ORIENTED_EDGE('',*,*,#553,.F.);
#712=ORIENTED_EDGE('',*,*,#554,.T.);
#713=ORIENTED_EDGE('',*,*,#555,.F.);
#714=ORIENTED_EDGE('',*,*,#556,.T.);
#715=ORIENTED_EDGE('',*,*,#557,.T.);
#716=ORIENTED_EDGE('',*,*,#558,.T.);
#717=ORIENTED_EDGE('',*,*,#559,.F.);
#718=ORIENTED_EDGE('',*,*,#560,.F.);
#719=ORIENTED_EDGE('',*,*,#561,.T.);
#720=ORIENTED_EDGE('',*,*,#562,.F.);
#721=ORIENTED_EDGE('',*,*,#563,.T.);
#722=ORIENTED_EDGE('',*,*,#564,.T.);
#723=ORIENTED_EDGE('',*,*,#565,.F.);
#724=ORIENTED_EDGE('',*,*,#566,.T.);
#725=ORIENTED_EDGE('',*,*,#567,.F.);
#726=ORIENTED_EDGE('',*,*,#568,.F.);
#727=ORIENTED_EDGE('',*,*,#569,.F.);
#728=ORIENTED_EDGE('',*,*,#570,.F.);
#729=ORIENTED_EDGE('',*,*,#571,.F.);
#730=ORIENTED_EDGE('',*,*,#572,.T.);
#731=ORIENTED_EDGE('',*,*,#573,.F.);
#732=ORIENTED_EDGE('',*,*,#574,.T.);
#733=ORIENTED_EDGE('',*,*,#549,.F.);
#734=ORIENTED_EDGE('',*,*,#575,.T.);
#735=ORIENTED_EDGE('',*,*,#576,.T.);
#736=ORIENTED_EDGE('',*,*,#577,.T.);
#737=ORIENTED_EDGE('',*,*,#578,.F.);
#738=ORIENTED_EDGE('',*,*,#579,.T.);
#739=ORIENTED_EDGE('',*,*,#580,.F.);
#740=ORIENTED_EDGE('',*,*,#581,.T.);
#741=ORIENTED_EDGE('',*,*,#582,.T.);
#742=ORIENTED_EDGE('',*,*,#583,.T.);
#743=ORIENTED_EDGE('',*,*,#584,.T.);
#744=ORIENTED_EDGE('',*,*,#585,.T.);
#745=ORIENTED_EDGE('',*,*,#586,.T.);
#746=ORIENTED_EDGE('',*,*,#587,.T.);
#747=ORIENTED_EDGE('',*,*,#588,.T.);
#748=ORIENTED_EDGE('',*,*,#589,.T.);
#749=ORIENTED_EDGE('',*,*,#590,.T.);
#750=ORIENTED_EDGE('',*,*,#552,.F.);
#751=ORIENTED_EDGE('',*,*,#591,.F.);
#752=ORIENTED_EDGE('',*,*,#592,.T.);
#753=ORIENTED_EDGE('',*,*,#593,.T.);
#754=ORIENTED_EDGE('',*,*,#594,.T.);
#755=ORIENTED_EDGE('',*,*,#595,.F.);
#756=ORIENTED_EDGE('',*,*,#596,.F.);
#757=ORIENTED_EDGE('',*,*,#554,.F.);
#758=ORIENTED_EDGE('',*,*,#597,.T.);
#759=ORIENTED_EDGE('',*,*,#550,.F.);
#760=ORIENTED_EDGE('',*,*,#574,.F.);
#761=ORIENTED_EDGE('',*,*,#598,.F.);
#762=ORIENTED_EDGE('',*,*,#599,.T.);
#763=ORIENTED_EDGE('',*,*,#600,.T.);
#764=ORIENTED_EDGE('',*,*,#601,.T.);
#765=ORIENTED_EDGE('',*,*,#555,.T.);
#766=ORIENTED_EDGE('',*,*,#596,.T.);
#767=ORIENTED_EDGE('',*,*,#602,.F.);
#768=ORIENTED_EDGE('',*,*,#603,.T.);
#769=ORIENTED_EDGE('',*,*,#557,.F.);
#770=ORIENTED_EDGE('',*,*,#604,.T.);
#771=ORIENTED_EDGE('',*,*,#601,.F.);
#772=ORIENTED_EDGE('',*,*,#605,.F.);
#773=ORIENTED_EDGE('',*,*,#604,.F.);
#774=ORIENTED_EDGE('',*,*,#556,.F.);
#775=ORIENTED_EDGE('',*,*,#606,.F.);
#776=ORIENTED_EDGE('',*,*,#607,.T.);
#777=ORIENTED_EDGE('',*,*,#575,.F.);
#778=ORIENTED_EDGE('',*,*,#608,.T.);
#779=ORIENTED_EDGE('',*,*,#597,.F.);
#780=ORIENTED_EDGE('',*,*,#609,.T.);
#781=ORIENTED_EDGE('',*,*,#610,.F.);
#782=ORIENTED_EDGE('',*,*,#609,.F.);
#783=ORIENTED_EDGE('',*,*,#611,.T.);
#784=ORIENTED_EDGE('',*,*,#612,.T.);
#785=ORIENTED_EDGE('',*,*,#565,.T.);
#786=ORIENTED_EDGE('',*,*,#613,.T.);
#787=ORIENTED_EDGE('',*,*,#551,.F.);
#788=ORIENTED_EDGE('',*,*,#547,.F.);
#789=ORIENTED_EDGE('',*,*,#599,.F.);
#790=ORIENTED_EDGE('',*,*,#614,.F.);
#791=ORIENTED_EDGE('',*,*,#615,.F.);
#792=ORIENTED_EDGE('',*,*,#616,.F.);
#793=ORIENTED_EDGE('',*,*,#617,.F.);
#794=ORIENTED_EDGE('',*,*,#618,.F.);
#795=ORIENTED_EDGE('',*,*,#619,.T.);
#796=ORIENTED_EDGE('',*,*,#620,.T.);
#797=ORIENTED_EDGE('',*,*,#621,.T.);
#798=ORIENTED_EDGE('',*,*,#622,.F.);
#799=ORIENTED_EDGE('',*,*,#623,.F.);
#800=ORIENTED_EDGE('',*,*,#611,.F.);
#801=ORIENTED_EDGE('',*,*,#624,.F.);
#802=ORIENTED_EDGE('',*,*,#625,.T.);
#803=ORIENTED_EDGE('',*,*,#626,.T.);
#804=ORIENTED_EDGE('',*,*,#627,.F.);
#805=ORIENTED_EDGE('',*,*,#628,.T.);
#806=ORIENTED_EDGE('',*,*,#629,.F.);
#807=ORIENTED_EDGE('',*,*,#630,.F.);
#808=ORIENTED_EDGE('',*,*,#631,.T.);
#809=ORIENTED_EDGE('',*,*,#602,.T.);
#810=ORIENTED_EDGE('',*,*,#605,.T.);
#811=ORIENTED_EDGE('',*,*,#600,.F.);
#812=ORIENTED_EDGE('',*,*,#595,.T.);
#813=ORIENTED_EDGE('',*,*,#632,.T.);
#814=ORIENTED_EDGE('',*,*,#633,.T.);
#815=ORIENTED_EDGE('',*,*,#634,.T.);
#816=ORIENTED_EDGE('',*,*,#591,.T.);
#817=ORIENTED_EDGE('',*,*,#606,.T.);
#818=ORIENTED_EDGE('',*,*,#635,.T.);
#819=ORIENTED_EDGE('',*,*,#636,.T.);
#820=ORIENTED_EDGE('',*,*,#637,.T.);
#821=ORIENTED_EDGE('',*,*,#638,.T.);
#822=ORIENTED_EDGE('',*,*,#639,.T.);
#823=ORIENTED_EDGE('',*,*,#640,.T.);
#824=ORIENTED_EDGE('',*,*,#641,.F.);
#825=ORIENTED_EDGE('',*,*,#642,.T.);
#826=ORIENTED_EDGE('',*,*,#643,.F.);
#827=ORIENTED_EDGE('',*,*,#644,.F.);
#828=ORIENTED_EDGE('',*,*,#645,.T.);
#829=ORIENTED_EDGE('',*,*,#646,.T.);
#830=ORIENTED_EDGE('',*,*,#647,.T.);
#831=ORIENTED_EDGE('',*,*,#648,.T.);
#832=ORIENTED_EDGE('',*,*,#649,.T.);
#833=ORIENTED_EDGE('',*,*,#613,.F.);
#834=ORIENTED_EDGE('',*,*,#564,.F.);
#835=ORIENTED_EDGE('',*,*,#650,.T.);
#836=ORIENTED_EDGE('',*,*,#651,.F.);
#837=ORIENTED_EDGE('',*,*,#652,.T.);
#838=ORIENTED_EDGE('',*,*,#624,.T.);
#839=ORIENTED_EDGE('',*,*,#562,.T.);
#840=ORIENTED_EDGE('',*,*,#653,.T.);
#841=ORIENTED_EDGE('',*,*,#627,.T.);
#842=ORIENTED_EDGE('',*,*,#654,.T.);
#843=ORIENTED_EDGE('',*,*,#653,.F.);
#844=ORIENTED_EDGE('',*,*,#561,.F.);
#845=ORIENTED_EDGE('',*,*,#655,.F.);
#846=ORIENTED_EDGE('',*,*,#628,.F.);
#847=ORIENTED_EDGE('',*,*,#656,.T.);
#848=ORIENTED_EDGE('',*,*,#657,.F.);
#849=ORIENTED_EDGE('',*,*,#658,.F.);
#850=ORIENTED_EDGE('',*,*,#651,.T.);
#851=ORIENTED_EDGE('',*,*,#654,.F.);
#852=ORIENTED_EDGE('',*,*,#626,.F.);
#853=ORIENTED_EDGE('',*,*,#659,.T.);
#854=ORIENTED_EDGE('',*,*,#657,.T.);
#855=ORIENTED_EDGE('',*,*,#660,.T.);
#856=ORIENTED_EDGE('',*,*,#661,.T.);
#857=ORIENTED_EDGE('',*,*,#662,.F.);
#858=ORIENTED_EDGE('',*,*,#592,.F.);
#859=ORIENTED_EDGE('',*,*,#634,.F.);
#860=ORIENTED_EDGE('',*,*,#663,.T.);
#861=ORIENTED_EDGE('',*,*,#664,.T.);
#862=ORIENTED_EDGE('',*,*,#593,.F.);
#863=ORIENTED_EDGE('',*,*,#662,.T.);
#864=ORIENTED_EDGE('',*,*,#663,.F.);
#865=ORIENTED_EDGE('',*,*,#661,.F.);
#866=ORIENTED_EDGE('',*,*,#633,.F.);
#867=ORIENTED_EDGE('',*,*,#665,.F.);
#868=ORIENTED_EDGE('',*,*,#610,.T.);
#869=ORIENTED_EDGE('',*,*,#666,.F.);
#870=ORIENTED_EDGE('',*,*,#667,.T.);
#871=ORIENTED_EDGE('',*,*,#668,.F.);
#872=ORIENTED_EDGE('',*,*,#667,.F.);
#873=ORIENTED_EDGE('',*,*,#563,.F.);
#874=ORIENTED_EDGE('',*,*,#660,.F.);
#875=ORIENTED_EDGE('',*,*,#656,.F.);
#876=ORIENTED_EDGE('',*,*,#650,.F.);
#877=ORIENTED_EDGE('',*,*,#668,.T.);
#878=ORIENTED_EDGE('',*,*,#625,.F.);
#879=ORIENTED_EDGE('',*,*,#652,.F.);
#880=ORIENTED_EDGE('',*,*,#658,.T.);
#881=ORIENTED_EDGE('',*,*,#659,.F.);
#882=ORIENTED_EDGE('',*,*,#666,.T.);
#883=ORIENTED_EDGE('',*,*,#608,.F.);
#884=ORIENTED_EDGE('',*,*,#586,.F.);
#885=ORIENTED_EDGE('',*,*,#669,.T.);
#886=ORIENTED_EDGE('',*,*,#635,.F.);
#887=ORIENTED_EDGE('',*,*,#580,.T.);
#888=ORIENTED_EDGE('',*,*,#670,.T.);
#889=ORIENTED_EDGE('',*,*,#641,.T.);
#890=ORIENTED_EDGE('',*,*,#671,.T.);
#891=ORIENTED_EDGE('',*,*,#670,.F.);
#892=ORIENTED_EDGE('',*,*,#579,.F.);
#893=ORIENTED_EDGE('',*,*,#672,.F.);
#894=ORIENTED_EDGE('',*,*,#642,.F.);
#895=ORIENTED_EDGE('',*,*,#644,.T.);
#896=ORIENTED_EDGE('',*,*,#673,.T.);
#897=ORIENTED_EDGE('',*,*,#577,.F.);
#898=ORIENTED_EDGE('',*,*,#674,.T.);
#899=ORIENTED_EDGE('',*,*,#607,.F.);
#900=ORIENTED_EDGE('',*,*,#645,.F.);
#901=ORIENTED_EDGE('',*,*,#674,.F.);
#902=ORIENTED_EDGE('',*,*,#576,.F.);
#903=ORIENTED_EDGE('',*,*,#673,.F.);
#904=ORIENTED_EDGE('',*,*,#643,.T.);
#905=ORIENTED_EDGE('',*,*,#672,.T.);
#906=ORIENTED_EDGE('',*,*,#578,.T.);
#907=ORIENTED_EDGE('',*,*,#585,.F.);
#908=ORIENTED_EDGE('',*,*,#675,.T.);
#909=ORIENTED_EDGE('',*,*,#636,.F.);
#910=ORIENTED_EDGE('',*,*,#669,.F.);
#911=ORIENTED_EDGE('',*,*,#584,.F.);
#912=ORIENTED_EDGE('',*,*,#676,.T.);
#913=ORIENTED_EDGE('',*,*,#637,.F.);
#914=ORIENTED_EDGE('',*,*,#675,.F.);
#915=ORIENTED_EDGE('',*,*,#583,.F.);
#916=ORIENTED_EDGE('',*,*,#677,.T.);
#917=ORIENTED_EDGE('',*,*,#638,.F.);
#918=ORIENTED_EDGE('',*,*,#676,.F.);
#919=ORIENTED_EDGE('',*,*,#582,.F.);
#920=ORIENTED_EDGE('',*,*,#678,.T.);
#921=ORIENTED_EDGE('',*,*,#639,.F.);
#922=ORIENTED_EDGE('',*,*,#677,.F.);
#923=ORIENTED_EDGE('',*,*,#671,.F.);
#924=ORIENTED_EDGE('',*,*,#640,.F.);
#925=ORIENTED_EDGE('',*,*,#678,.F.);
#926=ORIENTED_EDGE('',*,*,#581,.F.);
#927=ORIENTED_EDGE('',*,*,#620,.F.);
#928=ORIENTED_EDGE('',*,*,#679,.F.);
#929=ORIENTED_EDGE('',*,*,#680,.F.);
#930=ORIENTED_EDGE('',*,*,#681,.F.);
#931=ORIENTED_EDGE('',*,*,#682,.F.);
#932=ORIENTED_EDGE('',*,*,#622,.T.);
#933=ORIENTED_EDGE('',*,*,#683,.F.);
#934=ORIENTED_EDGE('',*,*,#567,.T.);
#935=ORIENTED_EDGE('',*,*,#684,.T.);
#936=ORIENTED_EDGE('',*,*,#681,.T.);
#937=ORIENTED_EDGE('',*,*,#685,.T.);
#938=ORIENTED_EDGE('',*,*,#686,.F.);
#939=ORIENTED_EDGE('',*,*,#621,.F.);
#940=ORIENTED_EDGE('',*,*,#618,.T.);
#941=ORIENTED_EDGE('',*,*,#687,.T.);
#942=ORIENTED_EDGE('',*,*,#569,.T.);
#943=ORIENTED_EDGE('',*,*,#688,.F.);
#944=ORIENTED_EDGE('',*,*,#687,.F.);
#945=ORIENTED_EDGE('',*,*,#617,.T.);
#946=ORIENTED_EDGE('',*,*,#689,.F.);
#947=ORIENTED_EDGE('',*,*,#570,.T.);
#948=ORIENTED_EDGE('',*,*,#683,.T.);
#949=ORIENTED_EDGE('',*,*,#686,.T.);
#950=ORIENTED_EDGE('',*,*,#690,.T.);
#951=ORIENTED_EDGE('',*,*,#691,.T.);
#952=ORIENTED_EDGE('',*,*,#688,.T.);
#953=ORIENTED_EDGE('',*,*,#568,.T.);
#954=ORIENTED_EDGE('',*,*,#692,.T.);
#955=ORIENTED_EDGE('',*,*,#612,.F.);
#956=ORIENTED_EDGE('',*,*,#623,.T.);
#957=ORIENTED_EDGE('',*,*,#684,.F.);
#958=ORIENTED_EDGE('',*,*,#566,.F.);
#959=ORIENTED_EDGE('',*,*,#665,.T.);
#960=ORIENTED_EDGE('',*,*,#632,.F.);
#961=ORIENTED_EDGE('',*,*,#594,.F.);
#962=ORIENTED_EDGE('',*,*,#664,.F.);
#963=ORIENTED_EDGE('',*,*,#560,.T.);
#964=ORIENTED_EDGE('',*,*,#693,.T.);
#965=ORIENTED_EDGE('',*,*,#629,.T.);
#966=ORIENTED_EDGE('',*,*,#655,.T.);
#967=ORIENTED_EDGE('',*,*,#693,.F.);
#968=ORIENTED_EDGE('',*,*,#559,.T.);
#969=ORIENTED_EDGE('',*,*,#694,.T.);
#970=ORIENTED_EDGE('',*,*,#630,.T.);
#971=ORIENTED_EDGE('',*,*,#694,.F.);
#972=ORIENTED_EDGE('',*,*,#558,.F.);
#973=ORIENTED_EDGE('',*,*,#603,.F.);
#974=ORIENTED_EDGE('',*,*,#631,.F.);
#975=ORIENTED_EDGE('',*,*,#571,.T.);
#976=ORIENTED_EDGE('',*,*,#689,.T.);
#977=ORIENTED_EDGE('',*,*,#616,.T.);
#978=ORIENTED_EDGE('',*,*,#695,.T.);
#979=ORIENTED_EDGE('',*,*,#614,.T.);
#980=ORIENTED_EDGE('',*,*,#598,.T.);
#981=ORIENTED_EDGE('',*,*,#573,.T.);
#982=ORIENTED_EDGE('',*,*,#696,.T.);
#983=ORIENTED_EDGE('',*,*,#692,.F.);
#984=ORIENTED_EDGE('',*,*,#697,.T.);
#985=ORIENTED_EDGE('',*,*,#682,.T.);
#986=ORIENTED_EDGE('',*,*,#697,.F.);
#987=ORIENTED_EDGE('',*,*,#680,.T.);
#988=ORIENTED_EDGE('',*,*,#698,.T.);
#989=ORIENTED_EDGE('',*,*,#690,.F.);
#990=ORIENTED_EDGE('',*,*,#685,.F.);
#991=ORIENTED_EDGE('',*,*,#679,.T.);
#992=ORIENTED_EDGE('',*,*,#619,.F.);
#993=ORIENTED_EDGE('',*,*,#691,.F.);
#994=ORIENTED_EDGE('',*,*,#698,.F.);
#995=ORIENTED_EDGE('',*,*,#646,.F.);
#996=ORIENTED_EDGE('',*,*,#699,.T.);
#997=ORIENTED_EDGE('',*,*,#590,.F.);
#998=ORIENTED_EDGE('',*,*,#699,.F.);
#999=ORIENTED_EDGE('',*,*,#647,.F.);
#1000=ORIENTED_EDGE('',*,*,#700,.T.);
#1001=ORIENTED_EDGE('',*,*,#589,.F.);
#1002=ORIENTED_EDGE('',*,*,#700,.F.);
#1003=ORIENTED_EDGE('',*,*,#648,.F.);
#1004=ORIENTED_EDGE('',*,*,#701,.T.);
#1005=ORIENTED_EDGE('',*,*,#588,.F.);
#1006=ORIENTED_EDGE('',*,*,#701,.F.);
#1007=ORIENTED_EDGE('',*,*,#649,.F.);
#1008=ORIENTED_EDGE('',*,*,#702,.T.);
#1009=ORIENTED_EDGE('',*,*,#587,.F.);
#1010=ORIENTED_EDGE('',*,*,#702,.F.);
#1011=ORIENTED_EDGE('',*,*,#695,.F.);
#1012=ORIENTED_EDGE('',*,*,#615,.T.);
#1013=ORIENTED_EDGE('',*,*,#696,.F.);
#1014=ORIENTED_EDGE('',*,*,#572,.F.);
#1015=CYLINDRICAL_SURFACE('',#1113,0.5);
#1016=CYLINDRICAL_SURFACE('',#1116,0.5);
#1017=CYLINDRICAL_SURFACE('',#1144,1.);
#1018=CYLINDRICAL_SURFACE('',#1146,4.5);
#1019=CYLINDRICAL_SURFACE('',#1149,3.19615292934611);
#1020=CYLINDRICAL_SURFACE('',#1151,1.5);
#1021=CYLINDRICAL_SURFACE('',#1153,3.);
#1022=CYLINDRICAL_SURFACE('',#1173,3.);
#1023=CYLINDRICAL_SURFACE('',#1175,4.);
#1024=CYLINDRICAL_SURFACE('',#1180,3.);
#1025=CYLINDRICAL_SURFACE('',#1183,2.25);
#1026=CYLINDRICAL_SURFACE('',#1189,3.);
#1027=CYLINDRICAL_SURFACE('',#1191,3.);
#1028=CYLINDRICAL_SURFACE('',#1193,3.);
#1029=CYLINDRICAL_SURFACE('',#1194,3.00000000000001);
#1030=CYLINDRICAL_SURFACE('',#1197,2.99999999999998);
#1031=CYLINDRICAL_SURFACE('',#1202,1.);
#1032=CYLINDRICAL_SURFACE('',#1204,1.);
#1033=CYLINDRICAL_SURFACE('',#1211,1.58);
#1034=CYLINDRICAL_SURFACE('',#1212,1.58);
#1035=CYLINDRICAL_SURFACE('',#1214,3.);
#1036=CYLINDRICAL_SURFACE('',#1215,3.);
#1037=CYLINDRICAL_SURFACE('',#1216,1.5);
#1038=CYLINDRICAL_SURFACE('',#1217,3.);
#1039=CYLINDRICAL_SURFACE('',#1219,1.5);
#1040=CYLINDRICAL_SURFACE('',#1220,1.5);
#1041=CYLINDRICAL_SURFACE('',#1221,1.5);
#1042=CYLINDRICAL_SURFACE('',#1222,1.5);
#1043=ADVANCED_FACE('',(#62),#1015,.F.);
#1044=ADVANCED_FACE('',(#63),#1016,.T.);
#1045=ADVANCED_FACE('',(#64,#19,#20,#21,#22,#23),#35,.T.);
#1046=ADVANCED_FACE('',(#65,#24),#36,.T.);
#1047=ADVANCED_FACE('',(#66),#37,.T.);
#1048=ADVANCED_FACE('',(#67),#1017,.T.);
#1049=ADVANCED_FACE('',(#68),#1018,.F.);
#1050=ADVANCED_FACE('',(#69),#38,.T.);
#1051=ADVANCED_FACE('',(#70),#1019,.F.);
#1052=ADVANCED_FACE('',(#71),#1020,.F.);
#1053=ADVANCED_FACE('',(#72),#1021,.T.);
#1054=ADVANCED_FACE('',(#73,#25,#26,#27,#28,#29),#39,.F.);
#1055=ADVANCED_FACE('',(#74),#40,.T.);
#1056=ADVANCED_FACE('',(#75),#1022,.F.);
#1057=ADVANCED_FACE('',(#76),#41,.F.);
#1058=ADVANCED_FACE('',(#77),#1023,.T.);
#1059=ADVANCED_FACE('',(#78),#42,.T.);
#1060=ADVANCED_FACE('',(#79),#43,.T.);
#1061=ADVANCED_FACE('',(#80),#1024,.T.);
#1062=ADVANCED_FACE('',(#81,#30),#44,.F.);
#1063=ADVANCED_FACE('',(#82),#1025,.F.);
#1064=ADVANCED_FACE('',(#83,#31),#45,.F.);
#1065=ADVANCED_FACE('',(#84,#32),#46,.T.);
#1066=ADVANCED_FACE('',(#85),#47,.F.);
#1067=ADVANCED_FACE('',(#86),#1026,.F.);
#1068=ADVANCED_FACE('',(#87),#48,.F.);
#1069=ADVANCED_FACE('',(#88),#1027,.F.);
#1070=ADVANCED_FACE('',(#89),#49,.F.);
#1071=ADVANCED_FACE('',(#90),#1028,.T.);
#1072=ADVANCED_FACE('',(#91),#1029,.F.);
#1073=ADVANCED_FACE('',(#92),#50,.F.);
#1074=ADVANCED_FACE('',(#93),#51,.F.);
#1075=ADVANCED_FACE('',(#94),#1030,.F.);
#1076=ADVANCED_FACE('',(#95),#52,.F.);
#1077=ADVANCED_FACE('',(#96,#33),#53,.F.);
#1078=ADVANCED_FACE('',(#97),#1031,.F.);
#1079=ADVANCED_FACE('',(#98),#54,.T.);
#1080=ADVANCED_FACE('',(#99),#1032,.F.);
#1081=ADVANCED_FACE('',(#100),#55,.T.);
#1082=ADVANCED_FACE('',(#101,#34),#56,.T.);
#1083=ADVANCED_FACE('',(#102),#57,.T.);
#1084=ADVANCED_FACE('',(#103),#58,.T.);
#1085=ADVANCED_FACE('',(#104),#1033,.T.);
#1086=ADVANCED_FACE('',(#105),#1034,.F.);
#1087=ADVANCED_FACE('',(#106),#59,.F.);
#1088=ADVANCED_FACE('',(#107),#1035,.T.);
#1089=ADVANCED_FACE('',(#108),#1036,.T.);
#1090=ADVANCED_FACE('',(#109),#1037,.F.);
#1091=ADVANCED_FACE('',(#110),#1038,.T.);
#1092=ADVANCED_FACE('',(#111),#60,.T.);
#1093=ADVANCED_FACE('',(#112),#1039,.F.);
#1094=ADVANCED_FACE('',(#113),#1040,.F.);
#1095=ADVANCED_FACE('',(#114),#1041,.F.);
#1096=ADVANCED_FACE('',(#115),#1042,.F.);
#1097=ADVANCED_FACE('',(#116),#61,.T.);
#1098=CLOSED_SHELL('',(#1043,#1044,#1045,#1046,#1047,#1048,#1049,#1050,
#1051,#1052,#1053,#1054,#1055,#1056,#1057,#1058,#1059,#1060,#1061,#1062,
#1063,#1064,#1065,#1066,#1067,#1068,#1069,#1070,#1071,#1072,#1073,#1074,
#1075,#1076,#1077,#1078,#1079,#1080,#1081,#1082,#1083,#1084,#1085,#1086,
#1087,#1088,#1089,#1090,#1091,#1092,#1093,#1094,#1095,#1096,#1097));
#1099=DERIVED_UNIT_ELEMENT(#1101,1.);
#1100=DERIVED_UNIT_ELEMENT(#1877,-3.);
#1101=(
MASS_UNIT()
NAMED_UNIT(*)
SI_UNIT(.KILO.,.GRAM.)
);
#1102=DERIVED_UNIT((#1099,#1100));
#1103=MEASURE_REPRESENTATION_ITEM('density measure',
POSITIVE_RATIO_MEASURE(7850.),#1102);
#1104=PROPERTY_DEFINITION_REPRESENTATION(#1109,#1106);
#1105=PROPERTY_DEFINITION_REPRESENTATION(#1110,#1107);
#1106=REPRESENTATION('material name',(#1108),#1874);
#1107=REPRESENTATION('density',(#1103),#1874);
#1108=DESCRIPTIVE_REPRESENTATION_ITEM('\X2\92FC\X0\','\X2\92FC\X0\');
#1109=PROPERTY_DEFINITION('material property','material name',#1889);
#1110=PROPERTY_DEFINITION('material property','density of part',#1889);
#1111=AXIS2_PLACEMENT_3D('',#1553,#1225,#1226);
#1112=AXIS2_PLACEMENT_3D('',#1554,#1227,#1228);
#1113=AXIS2_PLACEMENT_3D('',#1555,#1229,#1230);
#1114=AXIS2_PLACEMENT_3D('',#1558,#1231,#1232);
#1115=AXIS2_PLACEMENT_3D('',#1562,#1234,#1235);
#1116=AXIS2_PLACEMENT_3D('',#1564,#1237,#1238);
#1117=AXIS2_PLACEMENT_3D('',#1566,#1239,#1240);
#1118=AXIS2_PLACEMENT_3D('',#1569,#1242,#1243);
#1119=AXIS2_PLACEMENT_3D('',#1570,#1244,#1245);
#1120=AXIS2_PLACEMENT_3D('',#1574,#1247,#1248);
#1121=AXIS2_PLACEMENT_3D('',#1578,#1250,#1251);
#1122=AXIS2_PLACEMENT_3D('',#1582,#1253,#1254);
#1123=AXIS2_PLACEMENT_3D('',#1584,#1255,#1256);
#1124=AXIS2_PLACEMENT_3D('',#1588,#1258,#1259);
#1125=AXIS2_PLACEMENT_3D('',#1594,#1262,#1263);
#1126=AXIS2_PLACEMENT_3D('',#1598,#1265,#1266);
#1127=AXIS2_PLACEMENT_3D('',#1602,#1268,#1269);
#1128=AXIS2_PLACEMENT_3D('',#1606,#1271,#1272);
#1129=AXIS2_PLACEMENT_3D('',#1610,#1274,#1275);
#1130=AXIS2_PLACEMENT_3D('',#1614,#1277,#1278);
#1131=AXIS2_PLACEMENT_3D('',#1618,#1280,#1281);
#1132=AXIS2_PLACEMENT_3D('',#1620,#1282,#1283);
#1133=AXIS2_PLACEMENT_3D('',#1624,#1285,#1286);
#1134=AXIS2_PLACEMENT_3D('',#1628,#1288,#1289);
#1135=AXIS2_PLACEMENT_3D('',#1634,#1292,#1293);
#1136=AXIS2_PLACEMENT_3D('',#1637,#1295,#1296);
#1137=AXIS2_PLACEMENT_3D('',#1639,#1297,#1298);
#1138=AXIS2_PLACEMENT_3D('',#1641,#1299,#1300);
#1139=AXIS2_PLACEMENT_3D('',#1643,#1301,#1302);
#1140=AXIS2_PLACEMENT_3D('',#1644,#1303,#1304);
#1141=AXIS2_PLACEMENT_3D('',#1650,#1307,#1308);
#1142=AXIS2_PLACEMENT_3D('',#1657,#1312,#1313);
#1143=AXIS2_PLACEMENT_3D('',#1658,#1314,#1315);
#1144=AXIS2_PLACEMENT_3D('',#1662,#1318,#1319);
#1145=AXIS2_PLACEMENT_3D('',#1664,#1320,#1321);
#1146=AXIS2_PLACEMENT_3D('',#1666,#1323,#1324);
#1147=AXIS2_PLACEMENT_3D('',#1669,#1325,#1326);
#1148=AXIS2_PLACEMENT_3D('',#1672,#1329,#1330);
#1149=AXIS2_PLACEMENT_3D('',#1674,#1332,#1333);
#1150=AXIS2_PLACEMENT_3D('',#1677,#1334,#1335);
#1151=AXIS2_PLACEMENT_3D('',#1680,#1338,#1339);
#1152=AXIS2_PLACEMENT_3D('',#1683,#1341,#1342);
#1153=AXIS2_PLACEMENT_3D('',#1684,#1343,#1344);
#1154=AXIS2_PLACEMENT_3D('',#1687,#1345,#1346);
#1155=AXIS2_PLACEMENT_3D('',#1690,#1349,#1350);
#1156=AXIS2_PLACEMENT_3D('',#1692,#1351,#1352);
#1157=AXIS2_PLACEMENT_3D('',#1696,#1354,#1355);
#1158=AXIS2_PLACEMENT_3D('',#1700,#1357,#1358);
#1159=AXIS2_PLACEMENT_3D('',#1708,#1362,#1363);
#1160=AXIS2_PLACEMENT_3D('',#1717,#1368,#1369);
#1161=AXIS2_PLACEMENT_3D('',#1721,#1371,#1372);
#1162=AXIS2_PLACEMENT_3D('',#1723,#1373,#1374);
#1163=AXIS2_PLACEMENT_3D('',#1733,#1380,#1381);
#1164=AXIS2_PLACEMENT_3D('',#1739,#1384,#1385);
#1165=AXIS2_PLACEMENT_3D('',#1743,#1387,#1388);
#1166=AXIS2_PLACEMENT_3D('',#1747,#1390,#1391);
#1167=AXIS2_PLACEMENT_3D('',#1749,#1392,#1393);
#1168=AXIS2_PLACEMENT_3D('',#1752,#1395,#1396);
#1169=AXIS2_PLACEMENT_3D('',#1754,#1397,#1398);
#1170=AXIS2_PLACEMENT_3D('',#1756,#1399,#1400);
#1171=AXIS2_PLACEMENT_3D('',#1758,#1401,#1402);
#1172=AXIS2_PLACEMENT_3D('',#1759,#1403,#1404);
#1173=AXIS2_PLACEMENT_3D('',#1765,#1408,#1409);
#1174=AXIS2_PLACEMENT_3D('',#1768,#1412,#1413);
#1175=AXIS2_PLACEMENT_3D('',#1770,#1415,#1416);
#1176=AXIS2_PLACEMENT_3D('',#1772,#1417,#1418);
#1177=AXIS2_PLACEMENT_3D('',#1775,#1420,#1421);
#1178=AXIS2_PLACEMENT_3D('',#1776,#1422,#1423);
#1179=AXIS2_PLACEMENT_3D('',#1779,#1426,#1427);
#1180=AXIS2_PLACEMENT_3D('',#1783,#1430,#1431);
#1181=AXIS2_PLACEMENT_3D('',#1785,#1432,#1433);
#1182=AXIS2_PLACEMENT_3D('',#1787,#1435,#1436);
#1183=AXIS2_PLACEMENT_3D('',#1789,#1438,#1439);
#1184=AXIS2_PLACEMENT_3D('',#1791,#1440,#1441);
#1185=AXIS2_PLACEMENT_3D('',#1794,#1443,#1444);
#1186=AXIS2_PLACEMENT_3D('',#1795,#1445,#1446);
#1187=AXIS2_PLACEMENT_3D('',#1796,#1447,#1448);
#1188=AXIS2_PLACEMENT_3D('',#1797,#1449,#1450);
#1189=AXIS2_PLACEMENT_3D('',#1799,#1452,#1453);
#1190=AXIS2_PLACEMENT_3D('',#1802,#1456,#1457);
#1191=AXIS2_PLACEMENT_3D('',#1804,#1459,#1460);
#1192=AXIS2_PLACEMENT_3D('',#1807,#1463,#1464);
#1193=AXIS2_PLACEMENT_3D('',#1808,#1465,#1466);
#1194=AXIS2_PLACEMENT_3D('',#1809,#1467,#1468);
#1195=AXIS2_PLACEMENT_3D('',#1811,#1470,#1471);
#1196=AXIS2_PLACEMENT_3D('',#1813,#1473,#1474);
#1197=AXIS2_PLACEMENT_3D('',#1815,#1476,#1477);
#1198=AXIS2_PLACEMENT_3D('',#1817,#1479,#1480);
#1199=AXIS2_PLACEMENT_3D('',#1818,#1481,#1482);
#1200=AXIS2_PLACEMENT_3D('',#1822,#1484,#1485);
#1201=AXIS2_PLACEMENT_3D('',#1825,#1487,#1488);
#1202=AXIS2_PLACEMENT_3D('',#1826,#1489,#1490);
#1203=AXIS2_PLACEMENT_3D('',#1829,#1493,#1494);
#1204=AXIS2_PLACEMENT_3D('',#1833,#1497,#1498);
#1205=AXIS2_PLACEMENT_3D('',#1836,#1501,#1502);
#1206=AXIS2_PLACEMENT_3D('',#1838,#1504,#1505);
#1207=AXIS2_PLACEMENT_3D('',#1840,#1506,#1507);
#1208=AXIS2_PLACEMENT_3D('',#1843,#1509,#1510);
#1209=AXIS2_PLACEMENT_3D('',#1844,#1511,#1512);
#1210=AXIS2_PLACEMENT_3D('',#1845,#1513,#1514);
#1211=AXIS2_PLACEMENT_3D('',#1846,#1515,#1516);
#1212=AXIS2_PLACEMENT_3D('',#1848,#1518,#1519);
#1213=AXIS2_PLACEMENT_3D('',#1850,#1521,#1522);
#1214=AXIS2_PLACEMENT_3D('',#1851,#1523,#1524);
#1215=AXIS2_PLACEMENT_3D('',#1853,#1526,#1527);
#1216=AXIS2_PLACEMENT_3D('',#1855,#1529,#1530);
#1217=AXIS2_PLACEMENT_3D('',#1857,#1532,#1533);
#1218=AXIS2_PLACEMENT_3D('',#1859,#1535,#1536);
#1219=AXIS2_PLACEMENT_3D('',#1860,#1537,#1538);
#1220=AXIS2_PLACEMENT_3D('',#1862,#1540,#1541);
#1221=AXIS2_PLACEMENT_3D('',#1864,#1543,#1544);
#1222=AXIS2_PLACEMENT_3D('',#1866,#1546,#1547);
#1223=AXIS2_PLACEMENT_3D('',#1868,#1549,#1550);
#1224=AXIS2_PLACEMENT_3D('',#1869,#1551,#1552);
#1225=DIRECTION('axis',(0.,0.,1.));
#1226=DIRECTION('refdir',(1.,0.,0.));
#1227=DIRECTION('axis',(0.,0.,1.));
#1228=DIRECTION('refdir',(1.,0.,0.));
#1229=DIRECTION('center_axis',(0.,0.,1.));
#1230=DIRECTION('ref_axis',(-0.707106781186554,0.707106781186541,0.));
#1231=DIRECTION('center_axis',(0.,0.,-1.));
#1232=DIRECTION('ref_axis',(-0.707106781186554,0.707106781186541,0.));
#1233=DIRECTION('',(0.,0.,-1.));
#1234=DIRECTION('center_axis',(0.,0.,1.));
#1235=DIRECTION('ref_axis',(-0.707106781186554,0.707106781186541,0.));
#1236=DIRECTION('',(0.,0.,-1.));
#1237=DIRECTION('center_axis',(0.,0.,-1.));
#1238=DIRECTION('ref_axis',(0.707106781186554,-0.707106781186541,0.));
#1239=DIRECTION('center_axis',(0.,0.,1.));
#1240=DIRECTION('ref_axis',(0.707106781186554,-0.707106781186541,0.));
#1241=DIRECTION('',(0.,0.,1.));
#1242=DIRECTION('center_axis',(0.,0.,-1.));
#1243=DIRECTION('ref_axis',(0.707106781186554,-0.707106781186541,0.));
#1244=DIRECTION('center_axis',(0.,0.,1.));
#1245=DIRECTION('ref_axis',(1.,0.,0.));
#1246=DIRECTION('',(0.,1.,0.));
#1247=DIRECTION('center_axis',(0.,0.,-1.));
#1248=DIRECTION('ref_axis',(0.707106781186546,0.707106781186549,0.));
#1249=DIRECTION('',(-1.,0.,0.));
#1250=DIRECTION('center_axis',(0.,0.,-1.));
#1251=DIRECTION('ref_axis',(-1.,0.,0.));
#1252=DIRECTION('',(0.,1.,0.));
#1253=DIRECTION('center_axis',(0.,0.,1.));
#1254=DIRECTION('ref_axis',(-0.707106781186547,0.707106781186547,0.));
#1255=DIRECTION('center_axis',(0.,0.,-1.));
#1256=DIRECTION('ref_axis',(-1.,0.,0.));
#1257=DIRECTION('',(0.,1.,0.));
#1258=DIRECTION('center_axis',(0.,0.,1.));
#1259=DIRECTION('ref_axis',(-0.707106781186545,0.70710678118655,0.));
#1260=DIRECTION('',(0.,1.,0.));
#1261=DIRECTION('',(-1.,0.,0.));
#1262=DIRECTION('center_axis',(0.,0.,-1.));
#1263=DIRECTION('ref_axis',(-0.707106781186548,0.707106781186548,0.));
#1264=DIRECTION('',(0.,-1.,0.));
#1265=DIRECTION('center_axis',(0.,0.,1.));
#1266=DIRECTION('ref_axis',(0.707106781186548,-0.707106781186548,0.));
#1267=DIRECTION('',(0.,1.,0.));
#1268=DIRECTION('center_axis',(0.,0.,1.));
#1269=DIRECTION('ref_axis',(0.707106781186548,0.707106781186548,0.));
#1270=DIRECTION('',(0.,1.,0.));
#1271=DIRECTION('center_axis',(0.,0.,-1.));
#1272=DIRECTION('ref_axis',(-0.707106781186549,-0.707106781186546,0.));
#1273=DIRECTION('',(1.,-4.80096443081149E-17,0.));
#1274=DIRECTION('center_axis',(0.,0.,-1.));
#1275=DIRECTION('ref_axis',(0.707106781186549,-0.707106781186546,0.));
#1276=DIRECTION('',(0.,1.,0.));
#1277=DIRECTION('center_axis',(0.,0.,-1.));
#1278=DIRECTION('ref_axis',(-1.,0.,0.));
#1279=DIRECTION('',(0.,1.,0.));
#1280=DIRECTION('center_axis',(0.,0.,1.));
#1281=DIRECTION('ref_axis',(1.,0.,0.));
#1282=DIRECTION('center_axis',(0.,0.,-1.));
#1283=DIRECTION('ref_axis',(0.707106781186546,-0.707106781186549,0.));
#1284=DIRECTION('',(0.,1.,0.));
#1285=DIRECTION('center_axis',(0.,0.,1.));
#1286=DIRECTION('ref_axis',(-0.707106781186547,0.707106781186547,0.));
#1287=DIRECTION('',(1.,0.,0.));
#1288=DIRECTION('center_axis',(0.,0.,-1.));
#1289=DIRECTION('ref_axis',(0.999999999999996,-9.23872030729934E-8,0.));
#1290=DIRECTION('',(-9.23871993707686E-8,-0.999999999999996,0.));
#1291=DIRECTION('',(-1.70803538921723E-16,-1.,0.));
#1292=DIRECTION('center_axis',(0.,0.,-1.));
#1293=DIRECTION('ref_axis',(4.44089209850061E-15,-1.,0.));
#1294=DIRECTION('',(-1.,6.00790970943234E-17,0.));
#1295=DIRECTION('center_axis',(0.,0.,-1.));
#1296=DIRECTION('ref_axis',(-1.,0.,0.));
#1297=DIRECTION('center_axis',(0.,0.,-1.));
#1298=DIRECTION('ref_axis',(-1.,0.,0.));
#1299=DIRECTION('center_axis',(0.,0.,-1.));
#1300=DIRECTION('ref_axis',(-1.,0.,0.));
#1301=DIRECTION('center_axis',(0.,0.,-1.));
#1302=DIRECTION('ref_axis',(-1.,0.,0.));
#1303=DIRECTION('center_axis',(1.,0.,0.));
#1304=DIRECTION('ref_axis',(0.,1.,0.));
#1305=DIRECTION('',(0.,-1.,0.));
#1306=DIRECTION('',(0.,0.,-1.));
#1307=DIRECTION('center_axis',(1.,0.,0.));
#1308=DIRECTION('ref_axis',(0.,-0.999999999999999,3.47898341616451E-8));
#1309=DIRECTION('',(0.,-1.48029736616688E-15,1.));
#1310=DIRECTION('',(0.,-1.,0.));
#1311=DIRECTION('',(0.,0.,-1.));
#1312=DIRECTION('center_axis',(-1.,0.,0.));
#1313=DIRECTION('ref_axis',(0.,1.,0.));
#1314=DIRECTION('center_axis',(1.,0.,0.));
#1315=DIRECTION('ref_axis',(0.,0.,-1.));
#1316=DIRECTION('',(0.,0.,1.));
#1317=DIRECTION('',(0.,1.,0.));
#1318=DIRECTION('center_axis',(0.,0.,-1.));
#1319=DIRECTION('ref_axis',(0.707106781186546,0.707106781186549,0.));
#1320=DIRECTION('center_axis',(0.,0.,1.));
#1321=DIRECTION('ref_axis',(0.707106781186546,0.707106781186549,0.));
#1322=DIRECTION('',(0.,0.,1.));
#1323=DIRECTION('center_axis',(0.,0.,-1.));
#1324=DIRECTION('ref_axis',(-1.,0.,0.));
#1325=DIRECTION('center_axis',(0.,0.,1.));
#1326=DIRECTION('ref_axis',(-1.,0.,0.));
#1327=DIRECTION('',(0.,0.,1.));
#1328=DIRECTION('',(0.,0.,-1.));
#1329=DIRECTION('center_axis',(0.,1.,0.));
#1330=DIRECTION('ref_axis',(1.,0.,0.));
#1331=DIRECTION('',(1.,0.,0.));
#1332=DIRECTION('center_axis',(0.,0.,-1.));
#1333=DIRECTION('ref_axis',(-1.,0.,0.));
#1334=DIRECTION('center_axis',(0.,0.,1.));
#1335=DIRECTION('ref_axis',(-1.,0.,0.));
#1336=DIRECTION('',(0.,0.,1.));
#1337=DIRECTION('',(0.,0.,-1.));
#1338=DIRECTION('center_axis',(-1.,0.,0.));
#1339=DIRECTION('ref_axis',(0.,1.,0.));
#1340=DIRECTION('',(-1.,0.,0.));
#1341=DIRECTION('center_axis',(1.,0.,0.));
#1342=DIRECTION('ref_axis',(0.,1.,0.));
#1343=DIRECTION('center_axis',(0.,0.,-1.));
#1344=DIRECTION('ref_axis',(-0.707106781186548,0.707106781186548,0.));
#1345=DIRECTION('center_axis',(0.,0.,1.));
#1346=DIRECTION('ref_axis',(-0.707106781186548,0.707106781186548,0.));
#1347=DIRECTION('',(0.,0.,1.));
#1348=DIRECTION('',(0.,0.,-1.));
#1349=DIRECTION('center_axis',(0.,0.,1.));
#1350=DIRECTION('ref_axis',(1.,0.,0.));
#1351=DIRECTION('center_axis',(0.,0.,1.));
#1352=DIRECTION('ref_axis',(0.707106781186549,-0.707106781186546,0.));
#1353=DIRECTION('',(1.,-4.80096443081149E-17,0.));
#1354=DIRECTION('center_axis',(0.,0.,1.));
#1355=DIRECTION('ref_axis',(-0.707106781186549,-0.707106781186546,0.));
#1356=DIRECTION('',(-1.30614473485313E-16,-1.,0.));
#1357=DIRECTION('center_axis',(0.,0.,-1.));
#1358=DIRECTION('ref_axis',(0.707106781186548,0.707106781186548,0.));
#1359=DIRECTION('',(1.,0.,0.));
#1360=DIRECTION('',(0.,1.,0.));
#1361=DIRECTION('',(-1.,0.,0.));
#1362=DIRECTION('center_axis',(0.,0.,-1.));
#1363=DIRECTION('ref_axis',(0.707106781186548,-0.707106781186548,0.));
#1364=DIRECTION('',(-1.30614473485313E-16,-1.,0.));
#1365=DIRECTION('',(-1.,0.,0.));
#1366=DIRECTION('',(0.,-1.,0.));
#1367=DIRECTION('',(-1.,0.,0.));
#1368=DIRECTION('center_axis',(0.,0.,-1.));
#1369=DIRECTION('ref_axis',(-0.707106781186545,0.70710678118655,0.));
#1370=DIRECTION('',(0.,-1.,0.));
#1371=DIRECTION('center_axis',(0.,0.,1.));
#1372=DIRECTION('ref_axis',(-1.,0.,0.));
#1373=DIRECTION('center_axis',(0.,0.,-1.));
#1374=DIRECTION('ref_axis',(-0.707106781186547,0.707106781186547,0.));
#1375=DIRECTION('',(0.,-1.,0.));
#1376=DIRECTION('',(-1.,0.,0.));
#1377=DIRECTION('',(0.,-1.,0.));
#1378=DIRECTION('',(1.,0.,0.));
#1379=DIRECTION('',(1.,-6.00790970943234E-17,0.));
#1380=DIRECTION('center_axis',(0.,0.,1.));
#1381=DIRECTION('ref_axis',(4.44089209850061E-15,-1.,0.));
#1382=DIRECTION('',(1.70803538921723E-16,1.,0.));
#1383=DIRECTION('',(9.23871993707686E-8,0.999999999999996,0.));
#1384=DIRECTION('center_axis',(0.,0.,1.));
#1385=DIRECTION('ref_axis',(0.999999999999996,-9.23872030729934E-8,0.));
#1386=DIRECTION('',(-1.,0.,0.));
#1387=DIRECTION('center_axis',(0.,0.,-1.));
#1388=DIRECTION('ref_axis',(-0.707106781186547,0.707106781186547,0.));
#1389=DIRECTION('',(0.,-1.,0.));
#1390=DIRECTION('center_axis',(0.,0.,1.));
#1391=DIRECTION('ref_axis',(0.707106781186546,-0.707106781186549,0.));
#1392=DIRECTION('center_axis',(0.,0.,-1.));
#1393=DIRECTION('ref_axis',(1.,0.,0.));
#1394=DIRECTION('',(0.,-1.,0.));
#1395=DIRECTION('center_axis',(0.,0.,1.));
#1396=DIRECTION('ref_axis',(-1.,0.,0.));
#1397=DIRECTION('center_axis',(0.,0.,1.));
#1398=DIRECTION('ref_axis',(-1.,0.,0.));
#1399=DIRECTION('center_axis',(0.,0.,1.));
#1400=DIRECTION('ref_axis',(-1.,0.,0.));
#1401=DIRECTION('center_axis',(0.,0.,1.));
#1402=DIRECTION('ref_axis',(-1.,0.,0.));
#1403=DIRECTION('center_axis',(0.,1.,0.));
#1404=DIRECTION('ref_axis',(0.,0.,1.));
#1405=DIRECTION('',(0.,0.,1.));
#1406=DIRECTION('',(-1.,0.,0.));
#1407=DIRECTION('',(0.,0.,-1.));
#1408=DIRECTION('center_axis',(0.,0.,1.));
#1409=DIRECTION('ref_axis',(-0.707106781186545,0.70710678118655,0.));
#1410=DIRECTION('',(0.,0.,-1.));
#1411=DIRECTION('',(0.,0.,1.));
#1412=DIRECTION('center_axis',(-1.,0.,0.));
#1413=DIRECTION('ref_axis',(0.,1.,0.));
#1414=DIRECTION('',(0.,0.,1.));
#1415=DIRECTION('center_axis',(-1.,0.,0.));
#1416=DIRECTION('ref_axis',(0.,1.,0.));
#1417=DIRECTION('center_axis',(1.,0.,0.));
#1418=DIRECTION('ref_axis',(0.,1.,0.));
#1419=DIRECTION('',(-1.,0.,0.));
#1420=DIRECTION('center_axis',(1.,0.,0.));
#1421=DIRECTION('ref_axis',(0.,1.,0.));
#1422=DIRECTION('center_axis',(0.,-1.,0.));
#1423=DIRECTION('ref_axis',(0.,0.,1.));
#1424=DIRECTION('',(0.,0.,1.));
#1425=DIRECTION('',(0.,0.,-1.));
#1426=DIRECTION('center_axis',(0.,-1.,0.));
#1427=DIRECTION('ref_axis',(0.,0.,1.));
#1428=DIRECTION('',(0.,0.,-1.));
#1429=DIRECTION('',(-1.,0.,0.));
#1430=DIRECTION('center_axis',(-1.,0.,0.));
#1431=DIRECTION('ref_axis',(0.,-1.73949170010865E-8,-1.));
#1432=DIRECTION('center_axis',(1.,0.,0.));
#1433=DIRECTION('ref_axis',(0.,1.,0.));
#1434=DIRECTION('',(1.,0.,0.));
#1435=DIRECTION('center_axis',(1.,0.,0.));
#1436=DIRECTION('ref_axis',(0.,1.,0.));
#1437=DIRECTION('',(0.,0.,1.));
#1438=DIRECTION('center_axis',(-1.,0.,0.));
#1439=DIRECTION('ref_axis',(0.,1.,0.));
#1440=DIRECTION('center_axis',(-1.,0.,0.));
#1441=DIRECTION('ref_axis',(0.,1.,0.));
#1442=DIRECTION('',(-1.,0.,0.));
#1443=DIRECTION('center_axis',(1.,0.,0.));
#1444=DIRECTION('ref_axis',(0.,1.,0.));
#1445=DIRECTION('center_axis',(1.,0.,0.));
#1446=DIRECTION('ref_axis',(0.,1.,0.));
#1447=DIRECTION('center_axis',(1.,0.,0.));
#1448=DIRECTION('ref_axis',(0.,1.,0.));
#1449=DIRECTION('center_axis',(-6.00790970943234E-17,-1.,0.));
#1450=DIRECTION('ref_axis',(-1.,6.00790970943234E-17,0.));
#1451=DIRECTION('',(0.,0.,-1.));
#1452=DIRECTION('center_axis',(0.,0.,-1.));
#1453=DIRECTION('ref_axis',(-0.707106781186547,0.707106781186547,0.));
#1454=DIRECTION('',(0.,0.,-1.));
#1455=DIRECTION('',(0.,0.,1.));
#1456=DIRECTION('center_axis',(-1.,0.,0.));
#1457=DIRECTION('ref_axis',(0.,1.,0.));
#1458=DIRECTION('',(0.,0.,1.));
#1459=DIRECTION('center_axis',(0.,0.,-1.));
#1460=DIRECTION('ref_axis',(1.,0.,0.));
#1461=DIRECTION('',(0.,0.,1.));
#1462=DIRECTION('',(0.,0.,-1.));
#1463=DIRECTION('center_axis',(-1.,0.,0.));
#1464=DIRECTION('ref_axis',(0.,1.,0.));
#1465=DIRECTION('center_axis',(0.,0.,-1.));
#1466=DIRECTION('ref_axis',(0.707106781186546,-0.707106781186549,0.));
#1467=DIRECTION('center_axis',(0.,0.,-1.));
#1468=DIRECTION('ref_axis',(4.44089209850061E-15,-1.,0.));
#1469=DIRECTION('',(0.,0.,-1.));
#1470=DIRECTION('center_axis',(1.,-1.70803538921723E-16,0.));
#1471=DIRECTION('ref_axis',(-1.70803538921723E-16,-1.,0.));
#1472=DIRECTION('',(0.,0.,-1.));
#1473=DIRECTION('center_axis',(0.999999999999996,-9.23871993707686E-8,0.));
#1474=DIRECTION('ref_axis',(-9.23871993707686E-8,-0.999999999999996,0.));
#1475=DIRECTION('',(0.,0.,-1.));
#1476=DIRECTION('center_axis',(0.,0.,-1.));
#1477=DIRECTION('ref_axis',(0.999999999999996,-9.23872030729934E-8,0.));
#1478=DIRECTION('',(0.,0.,-1.));
#1479=DIRECTION('center_axis',(0.,1.,0.));
#1480=DIRECTION('ref_axis',(1.,0.,0.));
#1481=DIRECTION('center_axis',(-1.,0.,0.));
#1482=DIRECTION('ref_axis',(0.,-1.,0.));
#1483=DIRECTION('',(0.,0.,1.));
#1484=DIRECTION('center_axis',(-1.,0.,0.));
#1485=DIRECTION('ref_axis',(0.,-1.,0.));
#1486=DIRECTION('',(0.,0.,-1.));
#1487=DIRECTION('center_axis',(1.,0.,0.));
#1488=DIRECTION('ref_axis',(0.,-1.,0.));
#1489=DIRECTION('center_axis',(0.,0.,1.));
#1490=DIRECTION('ref_axis',(0.707106781186548,-0.707106781186548,0.));
#1491=DIRECTION('',(2.52540809444176E-47,0.,-1.));
#1492=DIRECTION('',(0.,0.,-1.));
#1493=DIRECTION('center_axis',(0.,1.,0.));
#1494=DIRECTION('ref_axis',(0.,0.,1.));
#1495=DIRECTION('',(-1.,0.,0.));
#1496=DIRECTION('',(2.52540809444176E-47,0.,-1.));
#1497=DIRECTION('center_axis',(0.,0.,-1.));
#1498=DIRECTION('ref_axis',(0.707106781186548,0.707106781186548,0.));
#1499=DIRECTION('',(0.,0.,1.));
#1500=DIRECTION('',(0.,0.,1.));
#1501=DIRECTION('center_axis',(-1.,1.30614473485313E-16,0.));
#1502=DIRECTION('ref_axis',(-1.30614473485313E-16,-1.,0.));
#1503=DIRECTION('',(0.,0.,-1.));
#1504=DIRECTION('center_axis',(-1.,0.,0.));
#1505=DIRECTION('ref_axis',(0.,-1.,0.));
#1506=DIRECTION('center_axis',(-1.,0.,0.));
#1507=DIRECTION('ref_axis',(0.,1.,1.8503717077086E-16));
#1508=DIRECTION('',(0.,0.,1.));
#1509=DIRECTION('center_axis',(1.,-2.46519032881566E-32,0.));
#1510=DIRECTION('ref_axis',(-2.46519032881566E-32,-1.,0.));
#1511=DIRECTION('center_axis',(-1.,1.30614473485313E-16,0.));
#1512=DIRECTION('ref_axis',(-1.30614473485313E-16,-1.,0.));
#1513=DIRECTION('center_axis',(0.,1.,0.));
#1514=DIRECTION('ref_axis',(0.,0.,-1.));
#1515=DIRECTION('center_axis',(0.,0.,-1.));
#1516=DIRECTION('ref_axis',(-1.,0.,0.));
#1517=DIRECTION('',(0.,0.,-1.));
#1518=DIRECTION('center_axis',(0.,0.,-1.));
#1519=DIRECTION('ref_axis',(-0.707106781186547,0.707106781186547,0.));
#1520=DIRECTION('',(0.,0.,-1.));
#1521=DIRECTION('center_axis',(-1.,0.,0.));
#1522=DIRECTION('ref_axis',(0.,1.,0.));
#1523=DIRECTION('center_axis',(0.,0.,1.));
#1524=DIRECTION('ref_axis',(-0.707106781186549,-0.707106781186546,0.));
#1525=DIRECTION('',(0.,0.,1.));
#1526=DIRECTION('center_axis',(0.,0.,-1.));
#1527=DIRECTION('ref_axis',(0.707106781186549,-0.707106781186546,0.));
#1528=DIRECTION('',(0.,0.,-1.));
#1529=DIRECTION('center_axis',(1.,0.,0.));
#1530=DIRECTION('ref_axis',(0.,-1.,0.));
#1531=DIRECTION('',(1.,0.,0.));
#1532=DIRECTION('center_axis',(1.,0.,0.));
#1533=DIRECTION('ref_axis',(0.,-1.,0.));
#1534=DIRECTION('',(-1.,0.,0.));
#1535=DIRECTION('center_axis',(0.,-1.,0.));
#1536=DIRECTION('ref_axis',(0.,0.,-1.));
#1537=DIRECTION('center_axis',(0.,0.,1.));
#1538=DIRECTION('ref_axis',(-1.,0.,0.));
#1539=DIRECTION('',(0.,0.,1.));
#1540=DIRECTION('center_axis',(0.,0.,1.));
#1541=DIRECTION('ref_axis',(-1.,0.,0.));
#1542=DIRECTION('',(0.,0.,1.));
#1543=DIRECTION('center_axis',(0.,0.,1.));
#1544=DIRECTION('ref_axis',(-1.,0.,0.));
#1545=DIRECTION('',(0.,0.,1.));
#1546=DIRECTION('center_axis',(0.,0.,1.));
#1547=DIRECTION('ref_axis',(-1.,0.,0.));
#1548=DIRECTION('',(0.,0.,1.));
#1549=DIRECTION('center_axis',(-4.80096443081149E-17,-1.,0.));
#1550=DIRECTION('ref_axis',(1.,-4.80096443081149E-17,0.));
#1551=DIRECTION('',(0.,0.,1.));
#1552=DIRECTION('',(1.,0.,0.));
#1553=CARTESIAN_POINT('',(0.,0.,0.));
#1554=CARTESIAN_POINT('',(0.,0.,0.));
#1555=CARTESIAN_POINT('Origin',(49.75,-29.,-0.25));
#1556=CARTESIAN_POINT('',(49.25,-29.,1.00148357108136E-31));
#1557=CARTESIAN_POINT('',(49.75,-28.5,0.));
#1558=CARTESIAN_POINT('Origin',(49.75,-29.,0.));
#1559=CARTESIAN_POINT('',(49.75,-28.5,3.));
#1560=CARTESIAN_POINT('',(49.75,-28.5,0.750000000000002));
#1561=CARTESIAN_POINT('',(49.25,-29.,3.));
#1562=CARTESIAN_POINT('Origin',(49.75,-29.,3.));
#1563=CARTESIAN_POINT('',(49.25,-29.,-0.25));
#1564=CARTESIAN_POINT('Origin',(49.75,-28.,0.750000000000002));
#1565=CARTESIAN_POINT('',(50.25,-28.,0.));
#1566=CARTESIAN_POINT('Origin',(49.75,-28.,0.));
#1567=CARTESIAN_POINT('',(50.25,-28.,3.));
#1568=CARTESIAN_POINT('',(50.25,-28.,0.750000000000002));
#1569=CARTESIAN_POINT('Origin',(49.75,-28.,3.));
#1570=CARTESIAN_POINT('Origin',(0.,4.44089209850063E-15,3.));
#1571=CARTESIAN_POINT('',(50.25,-20.5,3.));
#1572=CARTESIAN_POINT('',(50.25,-21.,3.));
#1573=CARTESIAN_POINT('',(49.25,-19.5,3.));
#1574=CARTESIAN_POINT('Origin',(49.25,-20.5,3.));
#1575=CARTESIAN_POINT('',(47.75,-19.5,3.));
#1576=CARTESIAN_POINT('',(24.4240381056767,-19.5,3.));
#1577=CARTESIAN_POINT('',(43.25,-15.,3.));
#1578=CARTESIAN_POINT('Origin',(47.75,-15.,3.));
#1579=CARTESIAN_POINT('',(43.25,23.42,3.));
#1580=CARTESIAN_POINT('',(43.25,11.,3.));
#1581=CARTESIAN_POINT('',(44.75,24.997973383806,3.));
#1582=CARTESIAN_POINT('Origin',(44.83,23.42,3.));
#1583=CARTESIAN_POINT('',(46.25,26.5759467676119,3.));
#1584=CARTESIAN_POINT('Origin',(44.67,26.5759467676119,3.));
#1585=CARTESIAN_POINT('',(46.25,30.75,3.));
#1586=CARTESIAN_POINT('',(46.25,15.5,3.));
#1587=CARTESIAN_POINT('',(49.25,33.75,3.));
#1588=CARTESIAN_POINT('Origin',(49.25,30.75,3.));
#1589=CARTESIAN_POINT('',(49.25,41.75,3.));
#1590=CARTESIAN_POINT('',(49.25,18.875,3.));
#1591=CARTESIAN_POINT('',(-43.25,41.75,3.));
#1592=CARTESIAN_POINT('',(-43.25,41.75,3.));
#1593=CARTESIAN_POINT('',(-46.25,38.75,3.));
#1594=CARTESIAN_POINT('Origin',(-43.25,38.75,3.));
#1595=CARTESIAN_POINT('',(-46.25,-20.0000004023314,3.));
#1596=CARTESIAN_POINT('',(-46.25,41.75,3.));
#1597=CARTESIAN_POINT('',(-47.25,-21.0000004023314,3.00000004470348));
#1598=CARTESIAN_POINT('Origin',(-47.25,-20.0000004023314,3.));
#1599=CARTESIAN_POINT('',(-47.25,-27.0000004023314,3.00000004470348));
#1600=CARTESIAN_POINT('',(-47.25,-27.0000004023314,3.00000004470348));
#1601=CARTESIAN_POINT('',(-46.25,-28.0000004023313,3.));
#1602=CARTESIAN_POINT('Origin',(-47.25,-28.0000004023313,3.));
#1603=CARTESIAN_POINT('',(-46.25,-31.,3.));
#1604=CARTESIAN_POINT('',(-46.25,34.,3.));
#1605=CARTESIAN_POINT('',(-43.25,-34.,3.));
#1606=CARTESIAN_POINT('Origin',(-43.25,-31.,3.));
#1607=CARTESIAN_POINT('',(46.25,-34.,3.));
#1608=CARTESIAN_POINT('',(-46.25,-34.,3.));
#1609=CARTESIAN_POINT('',(49.25,-31.,3.));
#1610=CARTESIAN_POINT('Origin',(46.25,-31.,3.));
#1611=CARTESIAN_POINT('',(49.25,34.,3.));
#1612=CARTESIAN_POINT('',(-38.053847284785,-29.0000005066395,3.));
#1613=CARTESIAN_POINT('',(-41.25,-25.8038475772934,3.));
#1614=CARTESIAN_POINT('Origin',(-38.0538470706539,-25.8038475772934,3.));
#1615=CARTESIAN_POINT('',(-41.25,23.5013445219445,3.));
#1616=CARTESIAN_POINT('',(-41.25,-13.2087121525221,3.));
#1617=CARTESIAN_POINT('',(-38.75,26.4593844134944,3.));
#1618=CARTESIAN_POINT('Origin',(-38.25,23.5013445219445,3.));
#1619=CARTESIAN_POINT('',(-36.25,29.4174243050442,3.));
#1620=CARTESIAN_POINT('Origin',(-39.25,29.4174243050442,3.));
#1621=CARTESIAN_POINT('',(-36.25,33.0000006109476,3.));
#1622=CARTESIAN_POINT('',(-36.25,13.2087121525221,3.));
#1623=CARTESIAN_POINT('',(-33.25,36.0000006109476,3.));
#1624=CARTESIAN_POINT('Origin',(-33.25,33.0000006109476,3.));
#1625=CARTESIAN_POINT('',(35.2500001847744,36.0000006109476,3.));
#1626=CARTESIAN_POINT('',(-18.125,36.0000006109476,3.));
#1627=CARTESIAN_POINT('',(38.2500001847744,33.000000333786,3.));
#1628=CARTESIAN_POINT('Origin',(35.2500001847744,33.0000006109476,3.));
#1629=CARTESIAN_POINT('',(38.25,31.000000461936,3.));
#1630=CARTESIAN_POINT('',(38.2499986603854,16.499998399988,3.));
#1631=CARTESIAN_POINT('',(38.25,-26.0000005066395,3.));
#1632=CARTESIAN_POINT('',(38.25,15.500000230968,3.));
#1633=CARTESIAN_POINT('',(35.25,-29.0000005066395,3.));
#1634=CARTESIAN_POINT('Origin',(35.25,-26.0000005066395,3.));
#1635=CARTESIAN_POINT('',(17.625,-29.0000005066395,3.));
#1636=CARTESIAN_POINT('',(-41.75,-31.,3.));
#1637=CARTESIAN_POINT('Origin',(-43.25,-31.,3.));
#1638=CARTESIAN_POINT('',(44.75,31.,3.));
#1639=CARTESIAN_POINT('Origin',(43.25,31.,3.));
#1640=CARTESIAN_POINT('',(-41.75,31.,3.));
#1641=CARTESIAN_POINT('Origin',(-43.25,31.,3.));
#1642=CARTESIAN_POINT('',(44.75,-31.,3.));
#1643=CARTESIAN_POINT('Origin',(43.25,-31.,3.));
#1644=CARTESIAN_POINT('Origin',(50.25,-24.,-1.5));
#1645=CARTESIAN_POINT('',(50.25,-27.,0.));
#1646=CARTESIAN_POINT('',(50.25,-28.5,0.));
#1647=CARTESIAN_POINT('',(50.25,-27.,-2.99999989563049));
#1648=CARTESIAN_POINT('',(50.25,-27.,3.));
#1649=CARTESIAN_POINT('',(50.25,-21.,-2.99999999999999));
#1650=CARTESIAN_POINT('Origin',(50.25,-24.,-2.99999999999999));
#1651=CARTESIAN_POINT('',(50.25,-21.,0.));
#1652=CARTESIAN_POINT('',(50.25,-21.,-2.99999999999999));
#1653=CARTESIAN_POINT('',(50.25,-20.5,0.));
#1654=CARTESIAN_POINT('',(50.25,-21.,0.));
#1655=CARTESIAN_POINT('',(50.25,-20.5,0.750000000000002));
#1656=CARTESIAN_POINT('',(50.25,-25.5,-2.99999999999999));
#1657=CARTESIAN_POINT('Origin',(50.25,-24.,-2.99999999999999));
#1658=CARTESIAN_POINT('Origin',(49.25,-22.5,-3.5));
#1659=CARTESIAN_POINT('',(49.25,-31.,1.00148357108136E-31));
#1660=CARTESIAN_POINT('',(49.25,-31.,-1.75));
#1661=CARTESIAN_POINT('',(49.25,-26.,1.00148357108136E-31));
#1662=CARTESIAN_POINT('Origin',(49.25,-20.5,0.750000000000002));
#1663=CARTESIAN_POINT('',(49.25,-19.5,0.));
#1664=CARTESIAN_POINT('Origin',(49.25,-20.5,0.));
#1665=CARTESIAN_POINT('',(49.25,-19.5,0.750000000000002));
#1666=CARTESIAN_POINT('Origin',(47.75,-15.,3.));
#1667=CARTESIAN_POINT('',(43.25,-15.,0.));
#1668=CARTESIAN_POINT('',(47.75,-19.5,0.));
#1669=CARTESIAN_POINT('Origin',(47.75,-15.,0.));
#1670=CARTESIAN_POINT('',(43.25,-15.,3.));
#1671=CARTESIAN_POINT('',(47.75,-19.5,3.));
#1672=CARTESIAN_POINT('Origin',(48.8480762113533,-19.5,3.));
#1673=CARTESIAN_POINT('',(24.4240381056767,-19.5,0.));
#1674=CARTESIAN_POINT('Origin',(-38.0538470706539,-25.8038475772934,3.));
#1675=CARTESIAN_POINT('',(-41.25,-25.8038475772934,0.));
#1676=CARTESIAN_POINT('',(-38.053847284785,-29.0000005066395,0.));
#1677=CARTESIAN_POINT('Origin',(-38.0538470706539,-25.8038475772934,0.));
#1678=CARTESIAN_POINT('',(-41.25,-25.8038475772934,3.));
#1679=CARTESIAN_POINT('',(-38.053847284785,-29.0000005066395,3.));
#1680=CARTESIAN_POINT('Origin',(33.75,-24.,-2.99999999999999));
#1681=CARTESIAN_POINT('',(47.25,-25.5,-2.99999999999999));
#1682=CARTESIAN_POINT('',(33.75,-25.5,-2.99999999999999));
#1683=CARTESIAN_POINT('Origin',(47.25,-24.,-2.99999999999999));
#1684=CARTESIAN_POINT('Origin',(-43.25,38.75,0.));
#1685=CARTESIAN_POINT('',(-43.25,41.75,0.));
#1686=CARTESIAN_POINT('',(-46.25,38.75,0.));
#1687=CARTESIAN_POINT('Origin',(-43.25,38.75,0.));
#1688=CARTESIAN_POINT('',(-46.25,38.75,0.));
#1689=CARTESIAN_POINT('',(-43.25,41.75,0.));
#1690=CARTESIAN_POINT('Origin',(0.,4.44089209850063E-15,0.));
#1691=CARTESIAN_POINT('',(46.25,-34.,0.));
#1692=CARTESIAN_POINT('Origin',(46.25,-31.,0.));
#1693=CARTESIAN_POINT('',(-43.25,-34.,0.));
#1694=CARTESIAN_POINT('',(-46.25,-34.,0.));
#1695=CARTESIAN_POINT('',(-46.25,-31.,0.));
#1696=CARTESIAN_POINT('Origin',(-43.25,-31.,0.));
#1697=CARTESIAN_POINT('',(-46.25,-28.0000004023313,0.));
#1698=CARTESIAN_POINT('',(-46.25,34.,0.));
#1699=CARTESIAN_POINT('',(-47.25,-27.0000004023314,0.));
#1700=CARTESIAN_POINT('Origin',(-47.25,-28.0000004023313,0.));
#1701=CARTESIAN_POINT('',(-44.25,-27.0000004023314,0.));
#1702=CARTESIAN_POINT('',(-23.125,-27.0000004023314,0.));
#1703=CARTESIAN_POINT('',(-44.25,-21.0000004023314,0.));
#1704=CARTESIAN_POINT('',(-44.25,-12.0000002011657,0.));
#1705=CARTESIAN_POINT('',(-47.25,-21.0000004023314,0.));
#1706=CARTESIAN_POINT('',(-23.125,-21.0000004023314,0.));
#1707=CARTESIAN_POINT('',(-46.25,-20.0000004023314,0.));
#1708=CARTESIAN_POINT('Origin',(-47.25,-20.0000004023314,0.));
#1709=CARTESIAN_POINT('',(-46.25,34.,0.));
#1710=CARTESIAN_POINT('',(52.25,41.75,0.));
#1711=CARTESIAN_POINT('',(49.25,41.75,0.));
#1712=CARTESIAN_POINT('',(52.25,33.75,0.));
#1713=CARTESIAN_POINT('',(52.25,34.5,0.));
#1714=CARTESIAN_POINT('',(49.25,33.75,0.));
#1715=CARTESIAN_POINT('',(52.25,33.75,0.));
#1716=CARTESIAN_POINT('',(46.25,30.75,0.));
#1717=CARTESIAN_POINT('Origin',(49.25,30.75,0.));
#1718=CARTESIAN_POINT('',(46.25,26.5759467676119,0.));
#1719=CARTESIAN_POINT('',(46.25,15.5,0.));
#1720=CARTESIAN_POINT('',(44.75,24.997973383806,0.));
#1721=CARTESIAN_POINT('Origin',(44.67,26.5759467676119,0.));
#1722=CARTESIAN_POINT('',(43.25,23.42,0.));
#1723=CARTESIAN_POINT('Origin',(44.83,23.42,0.));
#1724=CARTESIAN_POINT('',(43.25,-8.99999999999999,0.));
#1725=CARTESIAN_POINT('',(47.25,-21.,1.0547118733939E-14));
#1726=CARTESIAN_POINT('',(24.625,-21.,0.));
#1727=CARTESIAN_POINT('',(47.25,-27.,1.0547118733939E-14));
#1728=CARTESIAN_POINT('',(47.25,-12.,0.));
#1729=CARTESIAN_POINT('',(24.625,-27.,0.));
#1730=CARTESIAN_POINT('',(35.25,-29.0000005066395,0.));
#1731=CARTESIAN_POINT('',(17.625,-29.0000005066395,0.));
#1732=CARTESIAN_POINT('',(38.25,-26.0000005066395,0.));
#1733=CARTESIAN_POINT('Origin',(35.25,-26.0000005066395,0.));
#1734=CARTESIAN_POINT('',(38.25,31.000000461936,0.));
#1735=CARTESIAN_POINT('',(38.25,15.500000230968,0.));
#1736=CARTESIAN_POINT('',(38.2500001847744,33.000000333786,0.));
#1737=CARTESIAN_POINT('',(38.2499986603854,16.499998399988,0.));
#1738=CARTESIAN_POINT('',(35.2500001847744,36.0000006109476,0.));
#1739=CARTESIAN_POINT('Origin',(35.2500001847744,33.0000006109476,0.));
#1740=CARTESIAN_POINT('',(-33.25,36.0000006109476,0.));
#1741=CARTESIAN_POINT('',(-18.125,36.0000006109476,0.));
#1742=CARTESIAN_POINT('',(-36.25,33.0000006109476,0.));
#1743=CARTESIAN_POINT('Origin',(-33.25,33.0000006109476,0.));
#1744=CARTESIAN_POINT('',(-36.25,29.4174243050442,0.));
#1745=CARTESIAN_POINT('',(-36.25,13.2087121525221,0.));
#1746=CARTESIAN_POINT('',(-38.75,26.4593844134944,0.));
#1747=CARTESIAN_POINT('Origin',(-39.25,29.4174243050442,0.));
#1748=CARTESIAN_POINT('',(-41.25,23.5013445219445,0.));
#1749=CARTESIAN_POINT('Origin',(-38.25,23.5013445219445,0.));
#1750=CARTESIAN_POINT('',(-41.25,-13.2087121525221,0.));
#1751=CARTESIAN_POINT('',(44.75,-31.,0.));
#1752=CARTESIAN_POINT('Origin',(43.25,-31.,0.));
#1753=CARTESIAN_POINT('',(-41.75,31.,0.));
#1754=CARTESIAN_POINT('Origin',(-43.25,31.,0.));
#1755=CARTESIAN_POINT('',(44.75,31.,0.));
#1756=CARTESIAN_POINT('Origin',(43.25,31.,0.));
#1757=CARTESIAN_POINT('',(-41.75,-31.,0.));
#1758=CARTESIAN_POINT('Origin',(-43.25,-31.,0.));
#1759=CARTESIAN_POINT('Origin',(46.25,41.75,0.));
#1760=CARTESIAN_POINT('',(49.25,41.75,9.75));
#1761=CARTESIAN_POINT('',(49.25,41.75,4.));
#1762=CARTESIAN_POINT('',(52.25,41.75,9.75));
#1763=CARTESIAN_POINT('',(52.25,41.75,9.75));
#1764=CARTESIAN_POINT('',(52.25,41.75,4.));
#1765=CARTESIAN_POINT('Origin',(49.25,30.75,1.5));
#1766=CARTESIAN_POINT('',(46.25,30.75,1.5));
#1767=CARTESIAN_POINT('',(49.25,33.75,1.5));
#1768=CARTESIAN_POINT('Origin',(46.25,25.,3.));
#1769=CARTESIAN_POINT('',(46.25,26.5759467676119,3.));
#1770=CARTESIAN_POINT('Origin',(52.25,37.75,9.75));
#1771=CARTESIAN_POINT('',(49.25,33.75,9.75000011862578));
#1772=CARTESIAN_POINT('Origin',(49.25,37.75,9.75));
#1773=CARTESIAN_POINT('',(52.25,33.75,9.75000011862578));
#1774=CARTESIAN_POINT('',(52.25,33.75,9.75000011862578));
#1775=CARTESIAN_POINT('Origin',(52.25,37.75,9.75));
#1776=CARTESIAN_POINT('Origin',(52.25,33.75,0.));
#1777=CARTESIAN_POINT('',(52.25,33.75,0.));
#1778=CARTESIAN_POINT('',(49.25,33.75,3.4375));
#1779=CARTESIAN_POINT('Origin',(49.25,-27.,-2.99999989563049));
#1780=CARTESIAN_POINT('',(47.25,-27.,-2.99999989563049));
#1781=CARTESIAN_POINT('',(47.25,-27.,-2.99999994781524));
#1782=CARTESIAN_POINT('',(49.25,-27.,-2.99999989563049));
#1783=CARTESIAN_POINT('Origin',(49.25,-24.,-2.99999999999999));
#1784=CARTESIAN_POINT('',(47.25,-21.,-2.99999999999999));
#1785=CARTESIAN_POINT('Origin',(47.25,-24.,-2.99999999999999));
#1786=CARTESIAN_POINT('',(49.25,-21.,-2.99999999999999));
#1787=CARTESIAN_POINT('Origin',(47.25,-24.,-2.99999999999999));
#1788=CARTESIAN_POINT('',(47.25,-21.,-1.49999999999999));
#1789=CARTESIAN_POINT('Origin',(36.75,37.75,9.75));
#1790=CARTESIAN_POINT('',(52.25,35.5,9.75));
#1791=CARTESIAN_POINT('Origin',(52.25,37.75,9.75));
#1792=CARTESIAN_POINT('',(49.25,35.5,9.75));
#1793=CARTESIAN_POINT('',(36.75,35.5,9.75));
#1794=CARTESIAN_POINT('Origin',(49.25,37.75,9.75));
#1795=CARTESIAN_POINT('Origin',(49.25,37.75,8.));
#1796=CARTESIAN_POINT('Origin',(52.25,37.75,8.));
#1797=CARTESIAN_POINT('Origin',(35.25,-29.0000005066395,3.));
#1798=CARTESIAN_POINT('',(35.25,-29.0000005066395,3.));
#1799=CARTESIAN_POINT('Origin',(-33.25,33.0000006109476,3.));
#1800=CARTESIAN_POINT('',(-36.25,33.0000006109476,3.));
#1801=CARTESIAN_POINT('',(-33.25,36.0000006109476,3.));
#1802=CARTESIAN_POINT('Origin',(-36.25,26.4174243050442,3.));
#1803=CARTESIAN_POINT('',(-36.25,29.4174243050442,3.));
#1804=CARTESIAN_POINT('Origin',(-38.25,23.5013445219445,3.));
#1805=CARTESIAN_POINT('',(-38.75,26.4593844134944,3.));
#1806=CARTESIAN_POINT('',(-41.25,23.5013445219445,3.));
#1807=CARTESIAN_POINT('Origin',(-41.25,-26.4174243050442,3.));
#1808=CARTESIAN_POINT('Origin',(-39.25,29.4174243050442,3.));
#1809=CARTESIAN_POINT('Origin',(35.25,-26.0000005066395,3.));
#1810=CARTESIAN_POINT('',(38.25,-26.0000005066395,3.));
#1811=CARTESIAN_POINT('Origin',(38.25,31.000000461936,3.));
#1812=CARTESIAN_POINT('',(38.25,31.000000461936,3.));
#1813=CARTESIAN_POINT('Origin',(38.2500001847744,33.000000333786,3.));
#1814=CARTESIAN_POINT('',(38.2500001847744,33.000000333786,3.));
#1815=CARTESIAN_POINT('Origin',(35.2500001847744,33.0000006109476,3.));
#1816=CARTESIAN_POINT('',(35.2500001847744,36.0000006109476,3.));
#1817=CARTESIAN_POINT('Origin',(-36.25,36.0000006109476,3.));
#1818=CARTESIAN_POINT('Origin',(-44.25,-24.0000004023314,-3.));
#1819=CARTESIAN_POINT('',(-44.25,-27.0000004023314,-3.));
#1820=CARTESIAN_POINT('',(-44.25,-27.0000004023314,-1.5));
#1821=CARTESIAN_POINT('',(-44.25,-21.0000004023314,-3.));
#1822=CARTESIAN_POINT('Origin',(-44.25,-24.0000004023314,-3.));
#1823=CARTESIAN_POINT('',(-44.25,-21.0000004023314,-3.));
#1824=CARTESIAN_POINT('',(-44.25,-22.5000004023314,-3.));
#1825=CARTESIAN_POINT('Origin',(-44.25,-24.0000004023314,-3.));
#1826=CARTESIAN_POINT('Origin',(-47.25,-20.0000004023314,-1.5));
#1827=CARTESIAN_POINT('',(-47.25,-21.0000004023314,3.00000004470348));
#1828=CARTESIAN_POINT('',(-46.25,-20.0000004023314,-1.5));
#1829=CARTESIAN_POINT('Origin',(-46.25,-21.0000004023314,-3.));
#1830=CARTESIAN_POINT('',(-47.25,-21.0000004023314,-3.));
#1831=CARTESIAN_POINT('',(-46.25,-21.0000004023314,-3.));
#1832=CARTESIAN_POINT('',(-47.25,-21.0000004023314,3.00000004470348));
#1833=CARTESIAN_POINT('Origin',(-47.25,-28.0000004023313,0.));
#1834=CARTESIAN_POINT('',(-46.25,-28.0000004023313,0.));
#1835=CARTESIAN_POINT('',(-47.25,-27.0000004023314,-3.));
#1836=CARTESIAN_POINT('Origin',(-46.25,34.,0.));
#1837=CARTESIAN_POINT('',(-46.25,-31.,0.));
#1838=CARTESIAN_POINT('Origin',(-47.25,-24.0000004023314,-1.49999997764826));
#1839=CARTESIAN_POINT('',(-47.25,-27.0000004023314,-3.));
#1840=CARTESIAN_POINT('Origin',(-47.25,-24.0000004023314,-3.));
#1841=CARTESIAN_POINT('',(-47.25,-27.0000004023314,-3.));
#1842=CARTESIAN_POINT('',(-47.25,-22.5000004023314,-3.));
#1843=CARTESIAN_POINT('Origin',(-47.25,-24.0000004023314,-3.));
#1844=CARTESIAN_POINT('Origin',(-46.25,34.,0.));
#1845=CARTESIAN_POINT('Origin',(49.25,-21.,1.03620815631681E-14));
#1846=CARTESIAN_POINT('Origin',(44.67,26.5759467676119,3.));
#1847=CARTESIAN_POINT('',(44.75,24.997973383806,3.));
#1848=CARTESIAN_POINT('Origin',(44.83,23.42,3.));
#1849=CARTESIAN_POINT('',(43.25,23.42,3.));
#1850=CARTESIAN_POINT('Origin',(43.25,-18.,3.));
#1851=CARTESIAN_POINT('Origin',(-43.25,-31.,0.));
#1852=CARTESIAN_POINT('',(-43.25,-34.,0.));
#1853=CARTESIAN_POINT('Origin',(46.25,-31.,-1.75));
#1854=CARTESIAN_POINT('',(46.25,-34.,-1.75));
#1855=CARTESIAN_POINT('Origin',(-44.75,-24.0000004023314,-3.));
#1856=CARTESIAN_POINT('',(-44.75,-22.5000004023314,-3.));
#1857=CARTESIAN_POINT('Origin',(-46.25,-24.0000004023314,-3.));
#1858=CARTESIAN_POINT('',(-46.25,-27.0000004023314,-3.));
#1859=CARTESIAN_POINT('Origin',(-46.25,-27.0000004023314,0.));
#1860=CARTESIAN_POINT('Origin',(43.25,-31.,7.5));
#1861=CARTESIAN_POINT('',(44.75,-31.,7.5));
#1862=CARTESIAN_POINT('Origin',(-43.25,31.,7.5));
#1863=CARTESIAN_POINT('',(-41.75,31.,7.5));
#1864=CARTESIAN_POINT('Origin',(43.25,31.,7.5));
#1865=CARTESIAN_POINT('',(44.75,31.,7.5));
#1866=CARTESIAN_POINT('Origin',(-43.25,-31.,7.5));
#1867=CARTESIAN_POINT('',(-41.75,-31.,7.5));
#1868=CARTESIAN_POINT('Origin',(-46.25,-34.,0.));
#1869=CARTESIAN_POINT('',(0.,0.,0.));
#1870=UNCERTAINTY_MEASURE_WITH_UNIT(LENGTH_MEASURE(0.01),#1876,
'DISTANCE_ACCURACY_VALUE',
'Maximum model space distance between geometric entities at asserted c
onnectivities');
#1871=UNCERTAINTY_MEASURE_WITH_UNIT(LENGTH_MEASURE(0.01),#1876,
'DISTANCE_ACCURACY_VALUE',
'Maximum model space distance between geometric entities at asserted c
onnectivities');
#1872=UNCERTAINTY_MEASURE_WITH_UNIT(LENGTH_MEASURE(0.01),#1876,
'DISTANCE_ACCURACY_VALUE',
'Maximum model space distance between geometric entities at asserted c
onnectivities');
#1873=(
GEOMETRIC_REPRESENTATION_CONTEXT(3)
GLOBAL_UNCERTAINTY_ASSIGNED_CONTEXT((#1870))
GLOBAL_UNIT_ASSIGNED_CONTEXT((#1876,#1878,#1879))
REPRESENTATION_CONTEXT('','3D')
);
#1874=(
GEOMETRIC_REPRESENTATION_CONTEXT(3)
GLOBAL_UNCERTAINTY_ASSIGNED_CONTEXT((#1871))
GLOBAL_UNIT_ASSIGNED_CONTEXT((#1876,#1878,#1879))
REPRESENTATION_CONTEXT('','3D')
);
#1875=(
GEOMETRIC_REPRESENTATION_CONTEXT(3)
GLOBAL_UNCERTAINTY_ASSIGNED_CONTEXT((#1872))
GLOBAL_UNIT_ASSIGNED_CONTEXT((#1876,#1878,#1879))
REPRESENTATION_CONTEXT('','3D')
);
#1876=(
LENGTH_UNIT()
NAMED_UNIT(*)
SI_UNIT(.MILLI.,.METRE.)
);
#1877=(
LENGTH_UNIT()
NAMED_UNIT(*)
SI_UNIT($,.METRE.)
);
#1878=(
NAMED_UNIT(*)
PLANE_ANGLE_UNIT()
SI_UNIT($,.RADIAN.)
);
#1879=(
NAMED_UNIT(*)
SI_UNIT($,.STERADIAN.)
SOLID_ANGLE_UNIT()
);
#1880=SHAPE_DEFINITION_REPRESENTATION(#1882,#1885);
#1881=SHAPE_DEFINITION_REPRESENTATION(#1883,#1886);
#1882=PRODUCT_DEFINITION_SHAPE('',$,#1888);
#1883=PRODUCT_DEFINITION_SHAPE('',$,#1889);
#1884=PRODUCT_DEFINITION_SHAPE($,$,#16);
#1885=SHAPE_REPRESENTATION('',(#1111,#1224),#1873);
#1886=SHAPE_REPRESENTATION('',(#1112),#1874);
#1887=PRODUCT_DEFINITION_CONTEXT('part definition',#1895,'design');
#1888=PRODUCT_DEFINITION('Dribbler board','Dribbler board v33',#1890,#1887);
#1889=PRODUCT_DEFINITION('Component1','Component1',#1891,#1887);
#1890=PRODUCT_DEFINITION_FORMATION('',$,#1897);
#1891=PRODUCT_DEFINITION_FORMATION('',$,#1898);
#1892=PRODUCT_RELATED_PRODUCT_CATEGORY('Dribbler board v33',
'Dribbler board v33',(#1897));
#1893=PRODUCT_RELATED_PRODUCT_CATEGORY('Component1','Component1',(#1898));
#1894=APPLICATION_PROTOCOL_DEFINITION('international standard',
'automotive_design',2009,#1895);
#1895=APPLICATION_CONTEXT(
'Core Data for Automotive Mechanical Design Process');
#1896=PRODUCT_CONTEXT('part definition',#1895,'mechanical');
#1897=PRODUCT('Dribbler board','Dribbler board v33',$,(#1896));
#1898=PRODUCT('Component1','Component1',$,(#1896));
#1899=PRESENTATION_STYLE_ASSIGNMENT((#1901));
#1900=PRESENTATION_STYLE_ASSIGNMENT((#1902));
#1901=SURFACE_STYLE_USAGE(.BOTH.,#1903);
#1902=SURFACE_STYLE_USAGE(.BOTH.,#1904);
#1903=SURFACE_SIDE_STYLE('',(#1905));
#1904=SURFACE_SIDE_STYLE('',(#1906));
#1905=SURFACE_STYLE_FILL_AREA(#1907);
#1906=SURFACE_STYLE_FILL_AREA(#1908);
#1907=FILL_AREA_STYLE('\X2\92FC\X0\ - \X2\30B530C630F3\X0\',(#1909));
#1908=FILL_AREA_STYLE('\X2\30A230EB30DF30CB30A630E0\X0\ - \X2\30B530C630F3\X0\',
(#1910));
#1909=FILL_AREA_STYLE_COLOUR('\X2\92FC\X0\ - \X2\30B530C630F3\X0\',#1911);
#1910=FILL_AREA_STYLE_COLOUR('\X2\30A230EB30DF30CB30A630E0\X0\ - \X2\30B530C630F3\X0\',
#1912);
#1911=COLOUR_RGB('\X2\92FC\X0\ - \X2\30B530C630F3\X0\',0.627450980392157,
0.627450980392157,0.627450980392157);
#1912=COLOUR_RGB('\X2\30A230EB30DF30CB30A630E0\X0\ - \X2\30B530C630F3\X0\',
0.96078431372549,0.96078431372549,0.964705882352941);
ENDSEC;
END-ISO-10303-21;
