ISO-10303-21;
HEADER;
/* Generated by software containing ST-Developer
 * from STEP Tools, Inc. (www.steptools.com) 
 */

FILE_DESCRIPTION(
/* description */ (''),
/* implementation_level */ '2;1');

FILE_NAME(
/* name */ '',
/* time_stamp */ '2025-09-17T17:32:25+09:00',
/* author */ (''),
/* organization */ (''),
/* preprocessor_version */ 'ST-DEVELOPER v20.1',
/* originating_system */ 'Autodesk Translation Framework v14.17.0.0',
/* authorisation */ '');

FILE_SCHEMA (('AUTOMOTIVE_DESIGN { 1 0 10303 214 3 1 1 }'));
ENDSEC;

DATA;
#10=MECHANICAL_DESIGN_GEOMETRIC_PRESENTATION_REPRESENTATION('',(#13),#1004);
#11=SHAPE_REPRESENTATION_RELATIONSHIP('SRR','None',#1011,#12);
#12=ADVANCED_BREP_SHAPE_REPRESENTATION('',(#14),#1003);
#13=STYLED_ITEM('',(#1021),#14);
#14=MANIFOLD_SOLID_BREP('\X2\30DC30C730A3\X0\2',#584);
#15=FACE_BOUND('',#84,.T.);
#16=FACE_BOUND('',#85,.T.);
#17=FACE_BOUND('',#86,.T.);
#18=FACE_BOUND('',#87,.T.);
#19=FACE_BOUND('',#88,.T.);
#20=FACE_BOUND('',#89,.T.);
#21=FACE_BOUND('',#90,.T.);
#22=FACE_BOUND('',#106,.T.);
#23=FACE_BOUND('',#107,.T.);
#24=FACE_BOUND('',#108,.T.);
#25=FACE_BOUND('',#109,.T.);
#26=FACE_BOUND('',#110,.T.);
#27=FACE_BOUND('',#111,.T.);
#28=FACE_BOUND('',#112,.T.);
#29=PLANE('',#601);
#30=PLANE('',#605);
#31=PLANE('',#606);
#32=PLANE('',#607);
#33=PLANE('',#629);
#34=PLANE('',#640);
#35=PLANE('',#643);
#36=PLANE('',#646);
#37=PLANE('',#651);
#38=PLANE('',#654);
#39=PLANE('',#657);
#40=PLANE('',#660);
#41=FACE_OUTER_BOUND('',#70,.T.);
#42=FACE_OUTER_BOUND('',#71,.T.);
#43=FACE_OUTER_BOUND('',#72,.T.);
#44=FACE_OUTER_BOUND('',#73,.T.);
#45=FACE_OUTER_BOUND('',#74,.T.);
#46=FACE_OUTER_BOUND('',#75,.T.);
#47=FACE_OUTER_BOUND('',#76,.T.);
#48=FACE_OUTER_BOUND('',#77,.T.);
#49=FACE_OUTER_BOUND('',#78,.T.);
#50=FACE_OUTER_BOUND('',#79,.T.);
#51=FACE_OUTER_BOUND('',#80,.T.);
#52=FACE_OUTER_BOUND('',#81,.T.);
#53=FACE_OUTER_BOUND('',#82,.T.);
#54=FACE_OUTER_BOUND('',#83,.T.);
#55=FACE_OUTER_BOUND('',#91,.T.);
#56=FACE_OUTER_BOUND('',#92,.T.);
#57=FACE_OUTER_BOUND('',#93,.T.);
#58=FACE_OUTER_BOUND('',#94,.T.);
#59=FACE_OUTER_BOUND('',#95,.T.);
#60=FACE_OUTER_BOUND('',#96,.T.);
#61=FACE_OUTER_BOUND('',#97,.T.);
#62=FACE_OUTER_BOUND('',#98,.T.);
#63=FACE_OUTER_BOUND('',#99,.T.);
#64=FACE_OUTER_BOUND('',#100,.T.);
#65=FACE_OUTER_BOUND('',#101,.T.);
#66=FACE_OUTER_BOUND('',#102,.T.);
#67=FACE_OUTER_BOUND('',#103,.T.);
#68=FACE_OUTER_BOUND('',#104,.T.);
#69=FACE_OUTER_BOUND('',#105,.T.);
#70=EDGE_LOOP('',(#376,#377,#378,#379));
#71=EDGE_LOOP('',(#380,#381,#382,#383));
#72=EDGE_LOOP('',(#384,#385,#386,#387));
#73=EDGE_LOOP('',(#388,#389,#390,#391));
#74=EDGE_LOOP('',(#392,#393,#394,#395));
#75=EDGE_LOOP('',(#396,#397,#398,#399));
#76=EDGE_LOOP('',(#400,#401,#402,#403));
#77=EDGE_LOOP('',(#404,#405,#406,#407));
#78=EDGE_LOOP('',(#408,#409,#410,#411));
#79=EDGE_LOOP('',(#412,#413,#414,#415));
#80=EDGE_LOOP('',(#416,#417,#418,#419));
#81=EDGE_LOOP('',(#420,#421,#422,#423));
#82=EDGE_LOOP('',(#424,#425,#426,#427));
#83=EDGE_LOOP('',(#428,#429,#430,#431,#432,#433,#434,#435,#436,#437,#438,
#439,#440,#441,#442,#443,#444,#445,#446,#447));
#84=EDGE_LOOP('',(#448));
#85=EDGE_LOOP('',(#449));
#86=EDGE_LOOP('',(#450));
#87=EDGE_LOOP('',(#451));
#88=EDGE_LOOP('',(#452));
#89=EDGE_LOOP('',(#453));
#90=EDGE_LOOP('',(#454));
#91=EDGE_LOOP('',(#455,#456,#457,#458));
#92=EDGE_LOOP('',(#459,#460,#461,#462));
#93=EDGE_LOOP('',(#463,#464,#465,#466));
#94=EDGE_LOOP('',(#467,#468,#469,#470));
#95=EDGE_LOOP('',(#471,#472,#473,#474));
#96=EDGE_LOOP('',(#475,#476,#477,#478));
#97=EDGE_LOOP('',(#479,#480,#481,#482));
#98=EDGE_LOOP('',(#483,#484,#485,#486));
#99=EDGE_LOOP('',(#487,#488,#489,#490));
#100=EDGE_LOOP('',(#491,#492,#493,#494));
#101=EDGE_LOOP('',(#495,#496,#497,#498));
#102=EDGE_LOOP('',(#499,#500,#501,#502));
#103=EDGE_LOOP('',(#503,#504,#505,#506));
#104=EDGE_LOOP('',(#507,#508,#509,#510));
#105=EDGE_LOOP('',(#511,#512,#513,#514,#515,#516,#517,#518,#519,#520,#521,
#522,#523,#524,#525,#526,#527,#528,#529,#530));
#106=EDGE_LOOP('',(#531));
#107=EDGE_LOOP('',(#532));
#108=EDGE_LOOP('',(#533));
#109=EDGE_LOOP('',(#534));
#110=EDGE_LOOP('',(#535));
#111=EDGE_LOOP('',(#536));
#112=EDGE_LOOP('',(#537));
#113=LINE('',#842,#160);
#114=LINE('',#845,#161);
#115=LINE('',#848,#162);
#116=LINE('',#850,#163);
#117=LINE('',#851,#164);
#118=LINE('',#857,#165);
#119=LINE('',#860,#166);
#120=LINE('',#863,#167);
#121=LINE('',#865,#168);
#122=LINE('',#866,#169);
#123=LINE('',#869,#170);
#124=LINE('',#871,#171);
#125=LINE('',#872,#172);
#126=LINE('',#875,#173);
#127=LINE('',#877,#174);
#128=LINE('',#878,#175);
#129=LINE('',#886,#176);
#130=LINE('',#892,#177);
#131=LINE('',#898,#178);
#132=LINE('',#904,#179);
#133=LINE('',#910,#180);
#134=LINE('',#916,#181);
#135=LINE('',#922,#182);
#136=LINE('',#926,#183);
#137=LINE('',#930,#184);
#138=LINE('',#934,#185);
#139=LINE('',#938,#186);
#140=LINE('',#942,#187);
#141=LINE('',#948,#188);
#142=LINE('',#952,#189);
#143=LINE('',#953,#190);
#144=LINE('',#956,#191);
#145=LINE('',#960,#192);
#146=LINE('',#961,#193);
#147=LINE('',#964,#194);
#148=LINE('',#968,#195);
#149=LINE('',#969,#196);
#150=LINE('',#972,#197);
#151=LINE('',#977,#198);
#152=LINE('',#980,#199);
#153=LINE('',#981,#200);
#154=LINE('',#984,#201);
#155=LINE('',#988,#202);
#156=LINE('',#989,#203);
#157=LINE('',#992,#204);
#158=LINE('',#996,#205);
#159=LINE('',#997,#206);
#160=VECTOR('',#667,10.);
#161=VECTOR('',#670,10.);
#162=VECTOR('',#673,10.);
#163=VECTOR('',#674,10.);
#164=VECTOR('',#675,10.);
#165=VECTOR('',#680,20.);
#166=VECTOR('',#683,20.);
#167=VECTOR('',#686,10.);
#168=VECTOR('',#687,10.);
#169=VECTOR('',#688,10.);
#170=VECTOR('',#691,10.);
#171=VECTOR('',#692,10.);
#172=VECTOR('',#693,10.);
#173=VECTOR('',#696,10.);
#174=VECTOR('',#697,10.);
#175=VECTOR('',#698,10.);
#176=VECTOR('',#709,1.25);
#177=VECTOR('',#716,1.5);
#178=VECTOR('',#723,1.5);
#179=VECTOR('',#730,4.2);
#180=VECTOR('',#737,1.5);
#181=VECTOR('',#744,1.5);
#182=VECTOR('',#751,10.);
#183=VECTOR('',#754,10.);
#184=VECTOR('',#757,10.);
#185=VECTOR('',#760,10.);
#186=VECTOR('',#763,10.);
#187=VECTOR('',#766,10.);
#188=VECTOR('',#773,10.);
#189=VECTOR('',#778,10.);
#190=VECTOR('',#779,10.);
#191=VECTOR('',#782,10.);
#192=VECTOR('',#787,10.);
#193=VECTOR('',#788,10.);
#194=VECTOR('',#791,10.);
#195=VECTOR('',#796,10.);
#196=VECTOR('',#797,10.);
#197=VECTOR('',#800,10.);
#198=VECTOR('',#807,1.5);
#199=VECTOR('',#810,10.);
#200=VECTOR('',#811,10.);
#201=VECTOR('',#814,10.);
#202=VECTOR('',#819,10.);
#203=VECTOR('',#820,10.);
#204=VECTOR('',#823,10.);
#205=VECTOR('',#828,10.);
#206=VECTOR('',#829,10.);
#207=CIRCLE('',#599,10.);
#208=CIRCLE('',#600,10.);
#209=CIRCLE('',#603,20.);
#210=CIRCLE('',#604,20.);
#211=CIRCLE('',#609,2.5);
#212=CIRCLE('',#610,2.5);
#213=CIRCLE('',#612,1.25);
#214=CIRCLE('',#613,1.25);
#215=CIRCLE('',#615,1.5);
#216=CIRCLE('',#616,1.5);
#217=CIRCLE('',#618,1.5);
#218=CIRCLE('',#619,1.5);
#219=CIRCLE('',#621,4.2);
#220=CIRCLE('',#622,4.2);
#221=CIRCLE('',#624,1.5);
#222=CIRCLE('',#625,1.5);
#223=CIRCLE('',#627,1.5);
#224=CIRCLE('',#628,1.5);
#225=CIRCLE('',#630,0.999999999990705);
#226=CIRCLE('',#631,1.49999999999999);
#227=CIRCLE('',#632,1.49999999999999);
#228=CIRCLE('',#633,3.);
#229=CIRCLE('',#634,10.0000000000001);
#230=CIRCLE('',#635,9.99999999999999);
#231=CIRCLE('',#636,10.);
#232=CIRCLE('',#637,1.5);
#233=CIRCLE('',#639,10.);
#234=CIRCLE('',#642,9.99999999999999);
#235=CIRCLE('',#645,10.0000000000001);
#236=CIRCLE('',#648,3.);
#237=CIRCLE('',#650,1.5);
#238=CIRCLE('',#653,1.49999999999999);
#239=CIRCLE('',#656,1.49999999999999);
#240=CIRCLE('',#659,0.999999999990705);
#241=VERTEX_POINT('',#838);
#242=VERTEX_POINT('',#839);
#243=VERTEX_POINT('',#841);
#244=VERTEX_POINT('',#843);
#245=VERTEX_POINT('',#847);
#246=VERTEX_POINT('',#849);
#247=VERTEX_POINT('',#853);
#248=VERTEX_POINT('',#854);
#249=VERTEX_POINT('',#856);
#250=VERTEX_POINT('',#858);
#251=VERTEX_POINT('',#862);
#252=VERTEX_POINT('',#864);
#253=VERTEX_POINT('',#868);
#254=VERTEX_POINT('',#870);
#255=VERTEX_POINT('',#874);
#256=VERTEX_POINT('',#876);
#257=VERTEX_POINT('',#883);
#258=VERTEX_POINT('',#885);
#259=VERTEX_POINT('',#889);
#260=VERTEX_POINT('',#891);
#261=VERTEX_POINT('',#895);
#262=VERTEX_POINT('',#897);
#263=VERTEX_POINT('',#901);
#264=VERTEX_POINT('',#903);
#265=VERTEX_POINT('',#907);
#266=VERTEX_POINT('',#909);
#267=VERTEX_POINT('',#913);
#268=VERTEX_POINT('',#915);
#269=VERTEX_POINT('',#919);
#270=VERTEX_POINT('',#921);
#271=VERTEX_POINT('',#923);
#272=VERTEX_POINT('',#925);
#273=VERTEX_POINT('',#927);
#274=VERTEX_POINT('',#929);
#275=VERTEX_POINT('',#931);
#276=VERTEX_POINT('',#933);
#277=VERTEX_POINT('',#935);
#278=VERTEX_POINT('',#937);
#279=VERTEX_POINT('',#939);
#280=VERTEX_POINT('',#941);
#281=VERTEX_POINT('',#944);
#282=VERTEX_POINT('',#947);
#283=VERTEX_POINT('',#951);
#284=VERTEX_POINT('',#955);
#285=VERTEX_POINT('',#959);
#286=VERTEX_POINT('',#963);
#287=VERTEX_POINT('',#967);
#288=VERTEX_POINT('',#971);
#289=VERTEX_POINT('',#975);
#290=VERTEX_POINT('',#979);
#291=VERTEX_POINT('',#983);
#292=VERTEX_POINT('',#987);
#293=VERTEX_POINT('',#991);
#294=VERTEX_POINT('',#995);
#295=EDGE_CURVE('',#241,#242,#207,.T.);
#296=EDGE_CURVE('',#242,#243,#113,.T.);
#297=EDGE_CURVE('',#243,#244,#208,.T.);
#298=EDGE_CURVE('',#244,#241,#114,.T.);
#299=EDGE_CURVE('',#245,#242,#115,.T.);
#300=EDGE_CURVE('',#246,#245,#116,.T.);
#301=EDGE_CURVE('',#246,#243,#117,.T.);
#302=EDGE_CURVE('',#247,#248,#209,.F.);
#303=EDGE_CURVE('',#247,#249,#118,.T.);
#304=EDGE_CURVE('',#249,#250,#210,.T.);
#305=EDGE_CURVE('',#250,#248,#119,.T.);
#306=EDGE_CURVE('',#250,#251,#120,.T.);
#307=EDGE_CURVE('',#252,#251,#121,.T.);
#308=EDGE_CURVE('',#252,#248,#122,.T.);
#309=EDGE_CURVE('',#244,#253,#123,.T.);
#310=EDGE_CURVE('',#253,#254,#124,.T.);
#311=EDGE_CURVE('',#254,#241,#125,.T.);
#312=EDGE_CURVE('',#255,#247,#126,.T.);
#313=EDGE_CURVE('',#255,#256,#127,.T.);
#314=EDGE_CURVE('',#249,#256,#128,.T.);
#315=EDGE_CURVE('',#245,#256,#211,.T.);
#316=EDGE_CURVE('',#246,#255,#212,.T.);
#317=EDGE_CURVE('',#257,#257,#213,.T.);
#318=EDGE_CURVE('',#257,#258,#129,.T.);
#319=EDGE_CURVE('',#258,#258,#214,.T.);
#320=EDGE_CURVE('',#259,#259,#215,.T.);
#321=EDGE_CURVE('',#259,#260,#130,.T.);
#322=EDGE_CURVE('',#260,#260,#216,.T.);
#323=EDGE_CURVE('',#261,#261,#217,.T.);
#324=EDGE_CURVE('',#261,#262,#131,.T.);
#325=EDGE_CURVE('',#262,#262,#218,.T.);
#326=EDGE_CURVE('',#263,#263,#219,.T.);
#327=EDGE_CURVE('',#263,#264,#132,.T.);
#328=EDGE_CURVE('',#264,#264,#220,.T.);
#329=EDGE_CURVE('',#265,#265,#221,.T.);
#330=EDGE_CURVE('',#265,#266,#133,.T.);
#331=EDGE_CURVE('',#266,#266,#222,.T.);
#332=EDGE_CURVE('',#267,#267,#223,.T.);
#333=EDGE_CURVE('',#267,#268,#134,.T.);
#334=EDGE_CURVE('',#268,#268,#224,.T.);
#335=EDGE_CURVE('',#269,#254,#225,.T.);
#336=EDGE_CURVE('',#270,#269,#135,.T.);
#337=EDGE_CURVE('',#271,#270,#226,.T.);
#338=EDGE_CURVE('',#272,#271,#136,.T.);
#339=EDGE_CURVE('',#273,#272,#227,.T.);
#340=EDGE_CURVE('',#274,#273,#137,.T.);
#341=EDGE_CURVE('',#275,#274,#228,.T.);
#342=EDGE_CURVE('',#276,#275,#138,.T.);
#343=EDGE_CURVE('',#277,#276,#229,.T.);
#344=EDGE_CURVE('',#278,#277,#139,.T.);
#345=EDGE_CURVE('',#279,#278,#230,.T.);
#346=EDGE_CURVE('',#280,#279,#140,.T.);
#347=EDGE_CURVE('',#251,#280,#231,.T.);
#348=EDGE_CURVE('',#281,#281,#232,.T.);
#349=EDGE_CURVE('',#282,#280,#141,.T.);
#350=EDGE_CURVE('',#282,#252,#233,.T.);
#351=EDGE_CURVE('',#283,#279,#142,.T.);
#352=EDGE_CURVE('',#282,#283,#143,.T.);
#353=EDGE_CURVE('',#284,#278,#144,.T.);
#354=EDGE_CURVE('',#284,#283,#234,.T.);
#355=EDGE_CURVE('',#285,#277,#145,.T.);
#356=EDGE_CURVE('',#285,#284,#146,.T.);
#357=EDGE_CURVE('',#286,#276,#147,.T.);
#358=EDGE_CURVE('',#285,#286,#235,.T.);
#359=EDGE_CURVE('',#287,#275,#148,.T.);
#360=EDGE_CURVE('',#286,#287,#149,.T.);
#361=EDGE_CURVE('',#288,#274,#150,.T.);
#362=EDGE_CURVE('',#288,#287,#236,.T.);
#363=EDGE_CURVE('',#289,#289,#237,.T.);
#364=EDGE_CURVE('',#289,#281,#151,.T.);
#365=EDGE_CURVE('',#290,#273,#152,.T.);
#366=EDGE_CURVE('',#288,#290,#153,.T.);
#367=EDGE_CURVE('',#291,#272,#154,.T.);
#368=EDGE_CURVE('',#290,#291,#238,.T.);
#369=EDGE_CURVE('',#292,#271,#155,.T.);
#370=EDGE_CURVE('',#291,#292,#156,.T.);
#371=EDGE_CURVE('',#293,#270,#157,.T.);
#372=EDGE_CURVE('',#292,#293,#239,.T.);
#373=EDGE_CURVE('',#294,#269,#158,.T.);
#374=EDGE_CURVE('',#293,#294,#159,.T.);
#375=EDGE_CURVE('',#294,#253,#240,.T.);
#376=ORIENTED_EDGE('',*,*,#295,.T.);
#377=ORIENTED_EDGE('',*,*,#296,.T.);
#378=ORIENTED_EDGE('',*,*,#297,.T.);
#379=ORIENTED_EDGE('',*,*,#298,.T.);
#380=ORIENTED_EDGE('',*,*,#296,.F.);
#381=ORIENTED_EDGE('',*,*,#299,.F.);
#382=ORIENTED_EDGE('',*,*,#300,.F.);
#383=ORIENTED_EDGE('',*,*,#301,.T.);
#384=ORIENTED_EDGE('',*,*,#302,.F.);
#385=ORIENTED_EDGE('',*,*,#303,.T.);
#386=ORIENTED_EDGE('',*,*,#304,.T.);
#387=ORIENTED_EDGE('',*,*,#305,.T.);
#388=ORIENTED_EDGE('',*,*,#305,.F.);
#389=ORIENTED_EDGE('',*,*,#306,.T.);
#390=ORIENTED_EDGE('',*,*,#307,.F.);
#391=ORIENTED_EDGE('',*,*,#308,.T.);
#392=ORIENTED_EDGE('',*,*,#298,.F.);
#393=ORIENTED_EDGE('',*,*,#309,.T.);
#394=ORIENTED_EDGE('',*,*,#310,.T.);
#395=ORIENTED_EDGE('',*,*,#311,.T.);
#396=ORIENTED_EDGE('',*,*,#303,.F.);
#397=ORIENTED_EDGE('',*,*,#312,.F.);
#398=ORIENTED_EDGE('',*,*,#313,.T.);
#399=ORIENTED_EDGE('',*,*,#314,.F.);
#400=ORIENTED_EDGE('',*,*,#300,.T.);
#401=ORIENTED_EDGE('',*,*,#315,.T.);
#402=ORIENTED_EDGE('',*,*,#313,.F.);
#403=ORIENTED_EDGE('',*,*,#316,.F.);
#404=ORIENTED_EDGE('',*,*,#317,.F.);
#405=ORIENTED_EDGE('',*,*,#318,.T.);
#406=ORIENTED_EDGE('',*,*,#319,.F.);
#407=ORIENTED_EDGE('',*,*,#318,.F.);
#408=ORIENTED_EDGE('',*,*,#320,.F.);
#409=ORIENTED_EDGE('',*,*,#321,.T.);
#410=ORIENTED_EDGE('',*,*,#322,.F.);
#411=ORIENTED_EDGE('',*,*,#321,.F.);
#412=ORIENTED_EDGE('',*,*,#323,.F.);
#413=ORIENTED_EDGE('',*,*,#324,.T.);
#414=ORIENTED_EDGE('',*,*,#325,.F.);
#415=ORIENTED_EDGE('',*,*,#324,.F.);
#416=ORIENTED_EDGE('',*,*,#326,.T.);
#417=ORIENTED_EDGE('',*,*,#327,.T.);
#418=ORIENTED_EDGE('',*,*,#328,.F.);
#419=ORIENTED_EDGE('',*,*,#327,.F.);
#420=ORIENTED_EDGE('',*,*,#329,.F.);
#421=ORIENTED_EDGE('',*,*,#330,.T.);
#422=ORIENTED_EDGE('',*,*,#331,.F.);
#423=ORIENTED_EDGE('',*,*,#330,.F.);
#424=ORIENTED_EDGE('',*,*,#332,.F.);
#425=ORIENTED_EDGE('',*,*,#333,.T.);
#426=ORIENTED_EDGE('',*,*,#334,.F.);
#427=ORIENTED_EDGE('',*,*,#333,.F.);
#428=ORIENTED_EDGE('',*,*,#311,.F.);
#429=ORIENTED_EDGE('',*,*,#335,.F.);
#430=ORIENTED_EDGE('',*,*,#336,.F.);
#431=ORIENTED_EDGE('',*,*,#337,.F.);
#432=ORIENTED_EDGE('',*,*,#338,.F.);
#433=ORIENTED_EDGE('',*,*,#339,.F.);
#434=ORIENTED_EDGE('',*,*,#340,.F.);
#435=ORIENTED_EDGE('',*,*,#341,.F.);
#436=ORIENTED_EDGE('',*,*,#342,.F.);
#437=ORIENTED_EDGE('',*,*,#343,.F.);
#438=ORIENTED_EDGE('',*,*,#344,.F.);
#439=ORIENTED_EDGE('',*,*,#345,.F.);
#440=ORIENTED_EDGE('',*,*,#346,.F.);
#441=ORIENTED_EDGE('',*,*,#347,.F.);
#442=ORIENTED_EDGE('',*,*,#306,.F.);
#443=ORIENTED_EDGE('',*,*,#304,.F.);
#444=ORIENTED_EDGE('',*,*,#314,.T.);
#445=ORIENTED_EDGE('',*,*,#315,.F.);
#446=ORIENTED_EDGE('',*,*,#299,.T.);
#447=ORIENTED_EDGE('',*,*,#295,.F.);
#448=ORIENTED_EDGE('',*,*,#319,.T.);
#449=ORIENTED_EDGE('',*,*,#322,.T.);
#450=ORIENTED_EDGE('',*,*,#325,.T.);
#451=ORIENTED_EDGE('',*,*,#326,.F.);
#452=ORIENTED_EDGE('',*,*,#331,.T.);
#453=ORIENTED_EDGE('',*,*,#334,.T.);
#454=ORIENTED_EDGE('',*,*,#348,.F.);
#455=ORIENTED_EDGE('',*,*,#347,.T.);
#456=ORIENTED_EDGE('',*,*,#349,.F.);
#457=ORIENTED_EDGE('',*,*,#350,.T.);
#458=ORIENTED_EDGE('',*,*,#307,.T.);
#459=ORIENTED_EDGE('',*,*,#346,.T.);
#460=ORIENTED_EDGE('',*,*,#351,.F.);
#461=ORIENTED_EDGE('',*,*,#352,.F.);
#462=ORIENTED_EDGE('',*,*,#349,.T.);
#463=ORIENTED_EDGE('',*,*,#345,.T.);
#464=ORIENTED_EDGE('',*,*,#353,.F.);
#465=ORIENTED_EDGE('',*,*,#354,.T.);
#466=ORIENTED_EDGE('',*,*,#351,.T.);
#467=ORIENTED_EDGE('',*,*,#344,.T.);
#468=ORIENTED_EDGE('',*,*,#355,.F.);
#469=ORIENTED_EDGE('',*,*,#356,.T.);
#470=ORIENTED_EDGE('',*,*,#353,.T.);
#471=ORIENTED_EDGE('',*,*,#343,.T.);
#472=ORIENTED_EDGE('',*,*,#357,.F.);
#473=ORIENTED_EDGE('',*,*,#358,.F.);
#474=ORIENTED_EDGE('',*,*,#355,.T.);
#475=ORIENTED_EDGE('',*,*,#342,.T.);
#476=ORIENTED_EDGE('',*,*,#359,.F.);
#477=ORIENTED_EDGE('',*,*,#360,.F.);
#478=ORIENTED_EDGE('',*,*,#357,.T.);
#479=ORIENTED_EDGE('',*,*,#341,.T.);
#480=ORIENTED_EDGE('',*,*,#361,.F.);
#481=ORIENTED_EDGE('',*,*,#362,.T.);
#482=ORIENTED_EDGE('',*,*,#359,.T.);
#483=ORIENTED_EDGE('',*,*,#363,.F.);
#484=ORIENTED_EDGE('',*,*,#364,.T.);
#485=ORIENTED_EDGE('',*,*,#348,.T.);
#486=ORIENTED_EDGE('',*,*,#364,.F.);
#487=ORIENTED_EDGE('',*,*,#340,.T.);
#488=ORIENTED_EDGE('',*,*,#365,.F.);
#489=ORIENTED_EDGE('',*,*,#366,.F.);
#490=ORIENTED_EDGE('',*,*,#361,.T.);
#491=ORIENTED_EDGE('',*,*,#339,.T.);
#492=ORIENTED_EDGE('',*,*,#367,.F.);
#493=ORIENTED_EDGE('',*,*,#368,.F.);
#494=ORIENTED_EDGE('',*,*,#365,.T.);
#495=ORIENTED_EDGE('',*,*,#338,.T.);
#496=ORIENTED_EDGE('',*,*,#369,.F.);
#497=ORIENTED_EDGE('',*,*,#370,.F.);
#498=ORIENTED_EDGE('',*,*,#367,.T.);
#499=ORIENTED_EDGE('',*,*,#337,.T.);
#500=ORIENTED_EDGE('',*,*,#371,.F.);
#501=ORIENTED_EDGE('',*,*,#372,.F.);
#502=ORIENTED_EDGE('',*,*,#369,.T.);
#503=ORIENTED_EDGE('',*,*,#336,.T.);
#504=ORIENTED_EDGE('',*,*,#373,.F.);
#505=ORIENTED_EDGE('',*,*,#374,.F.);
#506=ORIENTED_EDGE('',*,*,#371,.T.);
#507=ORIENTED_EDGE('',*,*,#335,.T.);
#508=ORIENTED_EDGE('',*,*,#310,.F.);
#509=ORIENTED_EDGE('',*,*,#375,.F.);
#510=ORIENTED_EDGE('',*,*,#373,.T.);
#511=ORIENTED_EDGE('',*,*,#362,.F.);
#512=ORIENTED_EDGE('',*,*,#366,.T.);
#513=ORIENTED_EDGE('',*,*,#368,.T.);
#514=ORIENTED_EDGE('',*,*,#370,.T.);
#515=ORIENTED_EDGE('',*,*,#372,.T.);
#516=ORIENTED_EDGE('',*,*,#374,.T.);
#517=ORIENTED_EDGE('',*,*,#375,.T.);
#518=ORIENTED_EDGE('',*,*,#309,.F.);
#519=ORIENTED_EDGE('',*,*,#297,.F.);
#520=ORIENTED_EDGE('',*,*,#301,.F.);
#521=ORIENTED_EDGE('',*,*,#316,.T.);
#522=ORIENTED_EDGE('',*,*,#312,.T.);
#523=ORIENTED_EDGE('',*,*,#302,.T.);
#524=ORIENTED_EDGE('',*,*,#308,.F.);
#525=ORIENTED_EDGE('',*,*,#350,.F.);
#526=ORIENTED_EDGE('',*,*,#352,.T.);
#527=ORIENTED_EDGE('',*,*,#354,.F.);
#528=ORIENTED_EDGE('',*,*,#356,.F.);
#529=ORIENTED_EDGE('',*,*,#358,.T.);
#530=ORIENTED_EDGE('',*,*,#360,.T.);
#531=ORIENTED_EDGE('',*,*,#317,.T.);
#532=ORIENTED_EDGE('',*,*,#320,.T.);
#533=ORIENTED_EDGE('',*,*,#323,.T.);
#534=ORIENTED_EDGE('',*,*,#328,.T.);
#535=ORIENTED_EDGE('',*,*,#329,.T.);
#536=ORIENTED_EDGE('',*,*,#332,.T.);
#537=ORIENTED_EDGE('',*,*,#363,.T.);
#538=CYLINDRICAL_SURFACE('',#598,10.);
#539=CYLINDRICAL_SURFACE('',#602,20.);
#540=CYLINDRICAL_SURFACE('',#608,2.5);
#541=CYLINDRICAL_SURFACE('',#611,1.25);
#542=CYLINDRICAL_SURFACE('',#614,1.5);
#543=CYLINDRICAL_SURFACE('',#617,1.5);
#544=CYLINDRICAL_SURFACE('',#620,4.2);
#545=CYLINDRICAL_SURFACE('',#623,1.5);
#546=CYLINDRICAL_SURFACE('',#626,1.5);
#547=CYLINDRICAL_SURFACE('',#638,10.);
#548=CYLINDRICAL_SURFACE('',#641,9.99999999999999);
#549=CYLINDRICAL_SURFACE('',#644,10.0000000000001);
#550=CYLINDRICAL_SURFACE('',#647,3.);
#551=CYLINDRICAL_SURFACE('',#649,1.5);
#552=CYLINDRICAL_SURFACE('',#652,1.49999999999999);
#553=CYLINDRICAL_SURFACE('',#655,1.49999999999999);
#554=CYLINDRICAL_SURFACE('',#658,0.999999999990705);
#555=ADVANCED_FACE('',(#41),#538,.F.);
#556=ADVANCED_FACE('',(#42),#29,.T.);
#557=ADVANCED_FACE('',(#43),#539,.F.);
#558=ADVANCED_FACE('',(#44),#30,.T.);
#559=ADVANCED_FACE('',(#45),#31,.T.);
#560=ADVANCED_FACE('',(#46),#32,.T.);
#561=ADVANCED_FACE('',(#47),#540,.T.);
#562=ADVANCED_FACE('',(#48),#541,.F.);
#563=ADVANCED_FACE('',(#49),#542,.F.);
#564=ADVANCED_FACE('',(#50),#543,.F.);
#565=ADVANCED_FACE('',(#51),#544,.F.);
#566=ADVANCED_FACE('',(#52),#545,.F.);
#567=ADVANCED_FACE('',(#53),#546,.F.);
#568=ADVANCED_FACE('',(#54,#15,#16,#17,#18,#19,#20,#21),#33,.T.);
#569=ADVANCED_FACE('',(#55),#547,.T.);
#570=ADVANCED_FACE('',(#56),#34,.T.);
#571=ADVANCED_FACE('',(#57),#548,.T.);
#572=ADVANCED_FACE('',(#58),#35,.T.);
#573=ADVANCED_FACE('',(#59),#549,.F.);
#574=ADVANCED_FACE('',(#60),#36,.T.);
#575=ADVANCED_FACE('',(#61),#550,.T.);
#576=ADVANCED_FACE('',(#62),#551,.F.);
#577=ADVANCED_FACE('',(#63),#37,.T.);
#578=ADVANCED_FACE('',(#64),#552,.F.);
#579=ADVANCED_FACE('',(#65),#38,.T.);
#580=ADVANCED_FACE('',(#66),#553,.F.);
#581=ADVANCED_FACE('',(#67),#39,.T.);
#582=ADVANCED_FACE('',(#68),#554,.F.);
#583=ADVANCED_FACE('',(#69,#22,#23,#24,#25,#26,#27,#28),#40,.F.);
#584=CLOSED_SHELL('',(#555,#556,#557,#558,#559,#560,#561,#562,#563,#564,
#565,#566,#567,#568,#569,#570,#571,#572,#573,#574,#575,#576,#577,#578,#579,
#580,#581,#582,#583));
#585=DERIVED_UNIT_ELEMENT(#587,1.);
#586=DERIVED_UNIT_ELEMENT(#1006,-3.);
#587=(
MASS_UNIT()
NAMED_UNIT(*)
SI_UNIT(.KILO.,.GRAM.)
);
#588=DERIVED_UNIT((#585,#586));
#589=MEASURE_REPRESENTATION_ITEM('density measure',
POSITIVE_RATIO_MEASURE(7850.),#588);
#590=PROPERTY_DEFINITION_REPRESENTATION(#595,#592);
#591=PROPERTY_DEFINITION_REPRESENTATION(#596,#593);
#592=REPRESENTATION('material name',(#594),#1003);
#593=REPRESENTATION('density',(#589),#1003);
#594=DESCRIPTIVE_REPRESENTATION_ITEM('\X2\92FC\X0\','\X2\92FC\X0\');
#595=PROPERTY_DEFINITION('material property','material name',#1013);
#596=PROPERTY_DEFINITION('material property','density of part',#1013);
#597=AXIS2_PLACEMENT_3D('',#836,#661,#662);
#598=AXIS2_PLACEMENT_3D('',#837,#663,#664);
#599=AXIS2_PLACEMENT_3D('',#840,#665,#666);
#600=AXIS2_PLACEMENT_3D('',#844,#668,#669);
#601=AXIS2_PLACEMENT_3D('',#846,#671,#672);
#602=AXIS2_PLACEMENT_3D('',#852,#676,#677);
#603=AXIS2_PLACEMENT_3D('',#855,#678,#679);
#604=AXIS2_PLACEMENT_3D('',#859,#681,#682);
#605=AXIS2_PLACEMENT_3D('',#861,#684,#685);
#606=AXIS2_PLACEMENT_3D('',#867,#689,#690);
#607=AXIS2_PLACEMENT_3D('',#873,#694,#695);
#608=AXIS2_PLACEMENT_3D('',#879,#699,#700);
#609=AXIS2_PLACEMENT_3D('',#880,#701,#702);
#610=AXIS2_PLACEMENT_3D('',#881,#703,#704);
#611=AXIS2_PLACEMENT_3D('',#882,#705,#706);
#612=AXIS2_PLACEMENT_3D('',#884,#707,#708);
#613=AXIS2_PLACEMENT_3D('',#887,#710,#711);
#614=AXIS2_PLACEMENT_3D('',#888,#712,#713);
#615=AXIS2_PLACEMENT_3D('',#890,#714,#715);
#616=AXIS2_PLACEMENT_3D('',#893,#717,#718);
#617=AXIS2_PLACEMENT_3D('',#894,#719,#720);
#618=AXIS2_PLACEMENT_3D('',#896,#721,#722);
#619=AXIS2_PLACEMENT_3D('',#899,#724,#725);
#620=AXIS2_PLACEMENT_3D('',#900,#726,#727);
#621=AXIS2_PLACEMENT_3D('',#902,#728,#729);
#622=AXIS2_PLACEMENT_3D('',#905,#731,#732);
#623=AXIS2_PLACEMENT_3D('',#906,#733,#734);
#624=AXIS2_PLACEMENT_3D('',#908,#735,#736);
#625=AXIS2_PLACEMENT_3D('',#911,#738,#739);
#626=AXIS2_PLACEMENT_3D('',#912,#740,#741);
#627=AXIS2_PLACEMENT_3D('',#914,#742,#743);
#628=AXIS2_PLACEMENT_3D('',#917,#745,#746);
#629=AXIS2_PLACEMENT_3D('',#918,#747,#748);
#630=AXIS2_PLACEMENT_3D('',#920,#749,#750);
#631=AXIS2_PLACEMENT_3D('',#924,#752,#753);
#632=AXIS2_PLACEMENT_3D('',#928,#755,#756);
#633=AXIS2_PLACEMENT_3D('',#932,#758,#759);
#634=AXIS2_PLACEMENT_3D('',#936,#761,#762);
#635=AXIS2_PLACEMENT_3D('',#940,#764,#765);
#636=AXIS2_PLACEMENT_3D('',#943,#767,#768);
#637=AXIS2_PLACEMENT_3D('',#945,#769,#770);
#638=AXIS2_PLACEMENT_3D('',#946,#771,#772);
#639=AXIS2_PLACEMENT_3D('',#949,#774,#775);
#640=AXIS2_PLACEMENT_3D('',#950,#776,#777);
#641=AXIS2_PLACEMENT_3D('',#954,#780,#781);
#642=AXIS2_PLACEMENT_3D('',#957,#783,#784);
#643=AXIS2_PLACEMENT_3D('',#958,#785,#786);
#644=AXIS2_PLACEMENT_3D('',#962,#789,#790);
#645=AXIS2_PLACEMENT_3D('',#965,#792,#793);
#646=AXIS2_PLACEMENT_3D('',#966,#794,#795);
#647=AXIS2_PLACEMENT_3D('',#970,#798,#799);
#648=AXIS2_PLACEMENT_3D('',#973,#801,#802);
#649=AXIS2_PLACEMENT_3D('',#974,#803,#804);
#650=AXIS2_PLACEMENT_3D('',#976,#805,#806);
#651=AXIS2_PLACEMENT_3D('',#978,#808,#809);
#652=AXIS2_PLACEMENT_3D('',#982,#812,#813);
#653=AXIS2_PLACEMENT_3D('',#985,#815,#816);
#654=AXIS2_PLACEMENT_3D('',#986,#817,#818);
#655=AXIS2_PLACEMENT_3D('',#990,#821,#822);
#656=AXIS2_PLACEMENT_3D('',#993,#824,#825);
#657=AXIS2_PLACEMENT_3D('',#994,#826,#827);
#658=AXIS2_PLACEMENT_3D('',#998,#830,#831);
#659=AXIS2_PLACEMENT_3D('',#999,#832,#833);
#660=AXIS2_PLACEMENT_3D('',#1000,#834,#835);
#661=DIRECTION('axis',(0.,0.,1.));
#662=DIRECTION('refdir',(1.,0.,0.));
#663=DIRECTION('center_axis',(0.,-1.,0.));
#664=DIRECTION('ref_axis',(-0.834328069145464,0.,0.551268240547196));
#665=DIRECTION('center_axis',(0.,1.,0.));
#666=DIRECTION('ref_axis',(-0.834328069145464,0.,0.551268240547196));
#667=DIRECTION('',(0.,-1.,0.));
#668=DIRECTION('center_axis',(0.,-1.,0.));
#669=DIRECTION('ref_axis',(-0.834328069145464,0.,0.551268240547196));
#670=DIRECTION('',(0.,1.,0.));
#671=DIRECTION('center_axis',(0.74054451519687,0.,-0.672007307260742));
#672=DIRECTION('ref_axis',(-0.672007307260742,0.,-0.74054451519687));
#673=DIRECTION('',(-0.672007307260742,0.,-0.74054451519687));
#674=DIRECTION('',(0.,1.,0.));
#675=DIRECTION('',(-0.672007307260742,0.,-0.74054451519687));
#676=DIRECTION('center_axis',(0.,-1.,0.));
#677=DIRECTION('ref_axis',(0.17364817766693,0.,-0.984807753012208));
#678=DIRECTION('center_axis',(0.,-1.,0.));
#679=DIRECTION('ref_axis',(0.17364817766693,0.,-0.984807753012208));
#680=DIRECTION('',(0.,1.,0.));
#681=DIRECTION('center_axis',(0.,1.,0.));
#682=DIRECTION('ref_axis',(0.17364817766693,0.,-0.984807753012208));
#683=DIRECTION('',(0.,-1.,0.));
#684=DIRECTION('center_axis',(-0.17364817766693,0.,0.984807753012208));
#685=DIRECTION('ref_axis',(0.984807753012208,0.,0.17364817766693));
#686=DIRECTION('',(-0.984807753012208,0.,-0.17364817766693));
#687=DIRECTION('',(0.,1.,0.));
#688=DIRECTION('',(0.984807753012208,0.,0.17364817766693));
#689=DIRECTION('center_axis',(0.908610641839753,0.,-0.417644228423609));
#690=DIRECTION('ref_axis',(-0.417644228423609,0.,-0.908610641839753));
#691=DIRECTION('',(-0.417644228423609,0.,-0.908610641839753));
#692=DIRECTION('',(0.,1.,0.));
#693=DIRECTION('',(0.417644228423609,0.,0.908610641839753));
#694=DIRECTION('center_axis',(-0.740544515196874,0.,0.672007307260737));
#695=DIRECTION('ref_axis',(0.672007307260737,0.,0.740544515196874));
#696=DIRECTION('',(-0.672007307260737,0.,-0.740544515196874));
#697=DIRECTION('',(0.,1.,0.));
#698=DIRECTION('',(0.672007307260737,0.,0.740544515196874));
#699=DIRECTION('center_axis',(0.,1.,0.));
#700=DIRECTION('ref_axis',(1.,0.,0.));
#701=DIRECTION('center_axis',(0.,-1.,0.));
#702=DIRECTION('ref_axis',(1.,0.,0.));
#703=DIRECTION('center_axis',(0.,-1.,0.));
#704=DIRECTION('ref_axis',(1.,0.,0.));
#705=DIRECTION('center_axis',(0.,1.,0.));
#706=DIRECTION('ref_axis',(1.,0.,0.));
#707=DIRECTION('center_axis',(0.,1.,0.));
#708=DIRECTION('ref_axis',(1.,0.,0.));
#709=DIRECTION('',(0.,1.,0.));
#710=DIRECTION('center_axis',(0.,-1.,0.));
#711=DIRECTION('ref_axis',(1.,0.,0.));
#712=DIRECTION('center_axis',(0.,1.,0.));
#713=DIRECTION('ref_axis',(0.,0.,-1.));
#714=DIRECTION('center_axis',(0.,1.,0.));
#715=DIRECTION('ref_axis',(0.,0.,-1.));
#716=DIRECTION('',(0.,1.,0.));
#717=DIRECTION('center_axis',(0.,-1.,0.));
#718=DIRECTION('ref_axis',(0.,0.,-1.));
#719=DIRECTION('center_axis',(0.,1.,0.));
#720=DIRECTION('ref_axis',(0.,0.,-1.));
#721=DIRECTION('center_axis',(0.,1.,0.));
#722=DIRECTION('ref_axis',(0.,0.,-1.));
#723=DIRECTION('',(0.,1.,0.));
#724=DIRECTION('center_axis',(0.,-1.,0.));
#725=DIRECTION('ref_axis',(0.,0.,-1.));
#726=DIRECTION('center_axis',(0.,1.,0.));
#727=DIRECTION('ref_axis',(1.,0.,0.));
#728=DIRECTION('center_axis',(0.,1.,0.));
#729=DIRECTION('ref_axis',(1.,0.,0.));
#730=DIRECTION('',(0.,-1.,0.));
#731=DIRECTION('center_axis',(0.,1.,0.));
#732=DIRECTION('ref_axis',(1.,0.,0.));
#733=DIRECTION('center_axis',(0.,1.,0.));
#734=DIRECTION('ref_axis',(0.,0.,-1.));
#735=DIRECTION('center_axis',(0.,1.,0.));
#736=DIRECTION('ref_axis',(0.,0.,-1.));
#737=DIRECTION('',(0.,1.,0.));
#738=DIRECTION('center_axis',(0.,-1.,0.));
#739=DIRECTION('ref_axis',(0.,0.,-1.));
#740=DIRECTION('center_axis',(0.,1.,0.));
#741=DIRECTION('ref_axis',(0.,0.,-1.));
#742=DIRECTION('center_axis',(0.,1.,0.));
#743=DIRECTION('ref_axis',(0.,0.,-1.));
#744=DIRECTION('',(0.,1.,0.));
#745=DIRECTION('center_axis',(0.,-1.,0.));
#746=DIRECTION('ref_axis',(0.,0.,-1.));
#747=DIRECTION('center_axis',(0.,1.,0.));
#748=DIRECTION('ref_axis',(1.,0.,0.));
#749=DIRECTION('center_axis',(0.,1.,0.));
#750=DIRECTION('ref_axis',(-0.939692620786041,0.,0.342020143325305));
#751=DIRECTION('',(0.342020143325677,0.,0.939692620785905));
#752=DIRECTION('center_axis',(0.,1.,0.));
#753=DIRECTION('ref_axis',(-0.766044443118973,0.,-0.642787609686545));
#754=DIRECTION('',(-0.642787609686522,0.,0.766044443118993));
#755=DIRECTION('center_axis',(0.,1.,0.));
#756=DIRECTION('ref_axis',(0.173648177666936,0.,-0.984807753012207));
#757=DIRECTION('',(-0.984807753012208,0.,-0.173648177666931));
#758=DIRECTION('center_axis',(0.,-1.,0.));
#759=DIRECTION('ref_axis',(1.,0.,0.));
#760=DIRECTION('',(0.992813620980161,0.,0.119670856921232));
#761=DIRECTION('center_axis',(0.,1.,0.));
#762=DIRECTION('ref_axis',(-0.883753768964736,0.,0.467952215338943));
#763=DIRECTION('',(-0.467952215338927,0.,-0.883753768964744));
#764=DIRECTION('center_axis',(0.,-1.,0.));
#765=DIRECTION('ref_axis',(0.883753768964738,0.,-0.467952215338938));
#766=DIRECTION('',(0.984807753012208,0.,0.17364817766693));
#767=DIRECTION('center_axis',(0.,-1.,0.));
#768=DIRECTION('ref_axis',(1.,0.,0.));
#769=DIRECTION('center_axis',(0.,1.,0.));
#770=DIRECTION('ref_axis',(0.,0.,-1.));
#771=DIRECTION('center_axis',(0.,1.,0.));
#772=DIRECTION('ref_axis',(-0.984807753012208,0.,-0.173648177666931));
#773=DIRECTION('',(0.,1.,0.));
#774=DIRECTION('center_axis',(0.,1.,0.));
#775=DIRECTION('ref_axis',(1.,0.,0.));
#776=DIRECTION('center_axis',(0.17364817766693,0.,-0.984807753012208));
#777=DIRECTION('ref_axis',(-0.984807753012208,0.,-0.17364817766693));
#778=DIRECTION('',(0.,1.,0.));
#779=DIRECTION('',(0.984807753012208,0.,0.17364817766693));
#780=DIRECTION('center_axis',(0.,1.,0.));
#781=DIRECTION('ref_axis',(0.883753768964738,0.,-0.467952215338938));
#782=DIRECTION('',(0.,1.,0.));
#783=DIRECTION('center_axis',(0.,1.,0.));
#784=DIRECTION('ref_axis',(0.883753768964738,0.,-0.467952215338938));
#785=DIRECTION('center_axis',(-0.883753768964744,0.,0.467952215338927));
#786=DIRECTION('ref_axis',(0.467952215338927,0.,0.883753768964744));
#787=DIRECTION('',(0.,1.,0.));
#788=DIRECTION('',(0.467952215338927,0.,0.883753768964744));
#789=DIRECTION('center_axis',(0.,1.,0.));
#790=DIRECTION('ref_axis',(-0.883753768964736,0.,0.467952215338943));
#791=DIRECTION('',(0.,1.,0.));
#792=DIRECTION('center_axis',(0.,1.,0.));
#793=DIRECTION('ref_axis',(-0.883753768964736,0.,0.467952215338943));
#794=DIRECTION('center_axis',(0.119670856921232,0.,-0.992813620980161));
#795=DIRECTION('ref_axis',(-0.992813620980161,0.,-0.119670856921232));
#796=DIRECTION('',(0.,1.,0.));
#797=DIRECTION('',(0.992813620980161,0.,0.119670856921232));
#798=DIRECTION('center_axis',(0.,1.,0.));
#799=DIRECTION('ref_axis',(1.,0.,0.));
#800=DIRECTION('',(0.,1.,0.));
#801=DIRECTION('center_axis',(0.,1.,0.));
#802=DIRECTION('ref_axis',(1.,0.,0.));
#803=DIRECTION('center_axis',(0.,1.,0.));
#804=DIRECTION('ref_axis',(0.,0.,-1.));
#805=DIRECTION('center_axis',(0.,1.,0.));
#806=DIRECTION('ref_axis',(0.,0.,-1.));
#807=DIRECTION('',(0.,1.,0.));
#808=DIRECTION('center_axis',(-0.173648177666931,0.,0.984807753012208));
#809=DIRECTION('ref_axis',(0.984807753012208,0.,0.173648177666931));
#810=DIRECTION('',(0.,1.,0.));
#811=DIRECTION('',(-0.984807753012208,0.,-0.173648177666931));
#812=DIRECTION('center_axis',(0.,1.,0.));
#813=DIRECTION('ref_axis',(0.173648177666936,0.,-0.984807753012207));
#814=DIRECTION('',(0.,1.,0.));
#815=DIRECTION('center_axis',(0.,1.,0.));
#816=DIRECTION('ref_axis',(0.173648177666936,0.,-0.984807753012207));
#817=DIRECTION('center_axis',(0.766044443118993,0.,0.642787609686522));
#818=DIRECTION('ref_axis',(0.642787609686522,0.,-0.766044443118993));
#819=DIRECTION('',(0.,1.,0.));
#820=DIRECTION('',(-0.642787609686522,0.,0.766044443118993));
#821=DIRECTION('center_axis',(0.,1.,0.));
#822=DIRECTION('ref_axis',(-0.766044443118973,0.,-0.642787609686545));
#823=DIRECTION('',(0.,1.,0.));
#824=DIRECTION('center_axis',(0.,1.,0.));
#825=DIRECTION('ref_axis',(-0.766044443118973,0.,-0.642787609686545));
#826=DIRECTION('center_axis',(0.939692620785905,0.,-0.342020143325677));
#827=DIRECTION('ref_axis',(-0.342020143325677,0.,-0.939692620785905));
#828=DIRECTION('',(0.,1.,0.));
#829=DIRECTION('',(0.342020143325677,0.,0.939692620785905));
#830=DIRECTION('center_axis',(0.,1.,0.));
#831=DIRECTION('ref_axis',(-0.939692620786041,0.,0.342020143325305));
#832=DIRECTION('center_axis',(0.,1.,0.));
#833=DIRECTION('ref_axis',(-0.939692620786041,0.,0.342020143325305));
#834=DIRECTION('center_axis',(0.,1.,0.));
#835=DIRECTION('ref_axis',(1.,0.,0.));
#836=CARTESIAN_POINT('',(0.,0.,0.));
#837=CARTESIAN_POINT('Origin',(71.112558312511,0.,17.5845495462125));
#838=CARTESIAN_POINT('',(62.0264518941135,2.,21.7609918304486));
#839=CARTESIAN_POINT('',(63.7071131605423,2.,24.3046226188199));
#840=CARTESIAN_POINT('Origin',(71.112558312511,2.,17.5845495462125));
#841=CARTESIAN_POINT('',(63.7071131605423,0.,24.3046226188199));
#842=CARTESIAN_POINT('',(63.7071131605423,0.,24.3046226188199));
#843=CARTESIAN_POINT('',(62.0264518941135,0.,21.7609918304486));
#844=CARTESIAN_POINT('Origin',(71.112558312511,0.,17.5845495462125));
#845=CARTESIAN_POINT('',(62.0264518941135,0.,21.7609918304486));
#846=CARTESIAN_POINT('Origin',(65.8938079386161,0.,26.7143357377338));
#847=CARTESIAN_POINT('',(65.8938079386161,2.,26.7143357377338));
#848=CARTESIAN_POINT('',(65.8938079386161,2.,26.7143357377338));
#849=CARTESIAN_POINT('',(65.8938079386161,0.,26.7143357377338));
#850=CARTESIAN_POINT('',(65.8938079386161,0.,26.7143357377338));
#851=CARTESIAN_POINT('',(65.8938079386161,0.,26.7143357377338));
#852=CARTESIAN_POINT('Origin',(42.3056491422628,0.,37.9224257367392));
#853=CARTESIAN_POINT('',(57.1165394462003,0.,24.4822795915245));
#854=CARTESIAN_POINT('',(45.7786126956014,0.,18.2262706764951));
#855=CARTESIAN_POINT('Origin',(42.3056491422628,0.,37.9224257367392));
#856=CARTESIAN_POINT('',(57.1165394462003,2.,24.4822795915245));
#857=CARTESIAN_POINT('',(57.1165394462003,0.,24.4822795915245));
#858=CARTESIAN_POINT('',(45.7786126956014,2.,18.2262706764951));
#859=CARTESIAN_POINT('Origin',(42.3056491422628,2.,37.9224257367392));
#860=CARTESIAN_POINT('',(45.7786126956014,0.,18.226270676495));
#861=CARTESIAN_POINT('Origin',(-1.7364821709634,0.,9.84807746059739));
#862=CARTESIAN_POINT('',(-1.7364821709634,2.,9.84807746059739));
#863=CARTESIAN_POINT('',(13.2138983737363,2.,12.4842329224869));
#864=CARTESIAN_POINT('',(-1.7364821709634,0.,9.84807746059739));
#865=CARTESIAN_POINT('',(-1.7364821709634,0.,9.84807746059739));
#866=CARTESIAN_POINT('',(-1.7364821709634,0.,9.84807746059739));
#867=CARTESIAN_POINT('Origin',(63.5127526234633,0.,24.9945302532319));
#868=CARTESIAN_POINT('',(60.7923292173443,0.,19.076082232438));
#869=CARTESIAN_POINT('',(63.5127526234633,0.,24.9945302532319));
#870=CARTESIAN_POINT('',(60.7923292173443,2.,19.076082232438));
#871=CARTESIAN_POINT('',(60.7923292173443,0.,19.076082232438));
#872=CARTESIAN_POINT('',(57.6543931382684,2.,12.2493097767933));
#873=CARTESIAN_POINT('Origin',(52.5200342060629,0.,19.4169823724621));
#874=CARTESIAN_POINT('',(62.1910853626318,0.,30.0743722740375));
#875=CARTESIAN_POINT('',(62.1910853626318,0.,30.0743722740375));
#876=CARTESIAN_POINT('',(62.1910853626318,2.,30.0743722740375));
#877=CARTESIAN_POINT('',(62.1910853626318,0.,30.0743722740375));
#878=CARTESIAN_POINT('',(62.1910853626318,2.,30.0743722740375));
#879=CARTESIAN_POINT('Origin',(64.042446650624,0.,28.3943540058856));
#880=CARTESIAN_POINT('Origin',(64.042446650624,2.,28.3943540058856));
#881=CARTESIAN_POINT('Origin',(64.042446650624,0.,28.3943540058856));
#882=CARTESIAN_POINT('Origin',(64.042446650624,0.,28.3943540058856));
#883=CARTESIAN_POINT('',(62.792446650624,0.,28.3943540058856));
#884=CARTESIAN_POINT('Origin',(64.042446650624,0.,28.3943540058856));
#885=CARTESIAN_POINT('',(62.792446650624,2.,28.3943540058856));
#886=CARTESIAN_POINT('',(62.792446650624,0.,28.3943540058856));
#887=CARTESIAN_POINT('Origin',(64.042446650624,2.,28.3943540058856));
#888=CARTESIAN_POINT('Origin',(15.8920553073301,50.,8.47796611805021));
#889=CARTESIAN_POINT('',(15.8920553073301,0.,9.97796611805021));
#890=CARTESIAN_POINT('Origin',(15.8920553073301,0.,8.47796611805021));
#891=CARTESIAN_POINT('',(15.8920553073301,2.,9.97796611805021));
#892=CARTESIAN_POINT('',(15.8920553073301,50.,9.97796611805021));
#893=CARTESIAN_POINT('Origin',(15.8920553073301,2.,8.47796611805021));
#894=CARTESIAN_POINT('Origin',(30.8920553073301,50.,8.47796611805021));
#895=CARTESIAN_POINT('',(30.8920553073301,0.,9.97796611805021));
#896=CARTESIAN_POINT('Origin',(30.8920553073301,0.,8.47796611805021));
#897=CARTESIAN_POINT('',(30.8920553073301,2.,9.97796611805021));
#898=CARTESIAN_POINT('',(30.8920553073301,50.,9.97796611805021));
#899=CARTESIAN_POINT('Origin',(30.8920553073301,2.,8.47796611805021));
#900=CARTESIAN_POINT('Origin',(-2.22044604925031E-15,0.,-1.11022302462516E-15));
#901=CARTESIAN_POINT('',(-4.2,2.,-1.62457468026704E-15));
#902=CARTESIAN_POINT('Origin',(-2.22044604925031E-15,2.,-1.11022302462516E-15));
#903=CARTESIAN_POINT('',(-4.2,0.,-1.62457468026704E-15));
#904=CARTESIAN_POINT('',(-4.2,0.,-5.95871368983268E-16));
#905=CARTESIAN_POINT('Origin',(-2.22044604925031E-15,0.,-1.11022302462516E-15));
#906=CARTESIAN_POINT('Origin',(16.0228457403451,5.,2.82526001175254));
#907=CARTESIAN_POINT('',(16.0228457403451,0.,4.32526001175254));
#908=CARTESIAN_POINT('Origin',(16.0228457403451,0.,2.82526001175254));
#909=CARTESIAN_POINT('',(16.0228457403451,2.,4.32526001175254));
#910=CARTESIAN_POINT('',(16.0228457403451,5.,4.32526001175254));
#911=CARTESIAN_POINT('Origin',(16.0228457403451,2.,2.82526001175254));
#912=CARTESIAN_POINT('Origin',(45.5670783307113,5.,8.03470534176046));
#913=CARTESIAN_POINT('',(45.5670783307113,0.,9.53470534176046));
#914=CARTESIAN_POINT('Origin',(45.5670783307113,0.,8.03470534176046));
#915=CARTESIAN_POINT('',(45.5670783307113,2.,9.53470534176046));
#916=CARTESIAN_POINT('',(45.5670783307113,5.,9.53470534176046));
#917=CARTESIAN_POINT('Origin',(45.5670783307113,2.,8.03470534176046));
#918=CARTESIAN_POINT('Origin',(29.0764556618908,2.,9.94717700294281));
#919=CARTESIAN_POINT('',(60.7612472383981,2.,19.00045814734));
#920=CARTESIAN_POINT('Origin',(61.7009398591754,2.,18.6584380040179));
#921=CARTESIAN_POINT('',(60.0453788354107,2.,17.0336258748309));
#922=CARTESIAN_POINT('',(57.453204737256,2.,9.91168607285599));
#923=CARTESIAN_POINT('',(60.3058511019111,2.,15.5564142453126));
#924=CARTESIAN_POINT('Origin',(61.4549177665895,2.,16.5205956598424));
#925=CARTESIAN_POINT('',(61.1208731325178,2.,14.5851088122935));
#926=CARTESIAN_POINT('',(55.2352392250489,2.,21.5993341662143));
#927=CARTESIAN_POINT('',(62.5304120636967,2.,14.072078597305));
#928=CARTESIAN_POINT('Origin',(62.2699397971963,2.,15.5492902268233));
#929=CARTESIAN_POINT('',(64.6319667907809,2.,14.4426393971254));
#930=CARTESIAN_POINT('',(45.9551141129006,2.,11.1494063552979));
#931=CARTESIAN_POINT('',(65.5119238945454,2.,8.50977527514829));
#932=CARTESIAN_POINT('Origin',(65.1529113237817,2.,11.4882161380888));
#933=CARTESIAN_POINT('',(61.7559339148836,2.,8.05703920268192));
#934=CARTESIAN_POINT('',(47.6404774906639,2.,6.35560327309324));
#935=CARTESIAN_POINT('',(54.1151047944486,2.,2.8084251462697));
#936=CARTESIAN_POINT('Origin',(62.952642484096,2.,-1.87109700711978));
#937=CARTESIAN_POINT('',(54.4046160203587,2.,3.35518318837107));
#938=CARTESIAN_POINT('',(52.8497637656295,2.,0.418758281599257));
#939=CARTESIAN_POINT('',(47.3035601073807,2.,-1.81337218836162));
#940=CARTESIAN_POINT('Origin',(45.5670783307113,2.,8.03470534176045));
#941=CARTESIAN_POINT('',(1.7364813823752,2.,-9.84807759964676));
#942=CARTESIAN_POINT('',(39.4704012895776,2.,-3.19456943211473));
#943=CARTESIAN_POINT('Origin',(0.,2.,0.));
#944=CARTESIAN_POINT('',(65.1529113237817,2.,12.9882161380888));
#945=CARTESIAN_POINT('Origin',(65.1529113237817,2.,11.4882161380888));
#946=CARTESIAN_POINT('Origin',(0.,0.,0.));
#947=CARTESIAN_POINT('',(1.7364813823752,0.,-9.84807759964676));
#948=CARTESIAN_POINT('',(1.7364813823752,0.,-9.84807759964676));
#949=CARTESIAN_POINT('Origin',(0.,0.,0.));
#950=CARTESIAN_POINT('Origin',(47.3035601073806,0.,-1.81337218836163));
#951=CARTESIAN_POINT('',(47.3035601073807,0.,-1.81337218836162));
#952=CARTESIAN_POINT('',(47.3035601073807,0.,-1.81337218836162));
#953=CARTESIAN_POINT('',(1.7364813823752,0.,-9.84807759964676));
#954=CARTESIAN_POINT('Origin',(45.5670783307113,0.,8.03470534176045));
#955=CARTESIAN_POINT('',(54.4046160203587,0.,3.35518318837107));
#956=CARTESIAN_POINT('',(54.4046160203587,0.,3.35518318837107));
#957=CARTESIAN_POINT('Origin',(45.5670783307113,0.,8.03470534176045));
#958=CARTESIAN_POINT('Origin',(54.1151047944486,0.,2.8084251462697));
#959=CARTESIAN_POINT('',(54.1151047944486,0.,2.8084251462697));
#960=CARTESIAN_POINT('',(54.1151047944486,0.,2.8084251462697));
#961=CARTESIAN_POINT('',(54.1151047944486,0.,2.8084251462697));
#962=CARTESIAN_POINT('Origin',(62.952642484096,0.,-1.87109700711978));
#963=CARTESIAN_POINT('',(61.7559339148836,0.,8.05703920268192));
#964=CARTESIAN_POINT('',(61.7559339148836,0.,8.05703920268192));
#965=CARTESIAN_POINT('Origin',(62.952642484096,0.,-1.87109700711978));
#966=CARTESIAN_POINT('Origin',(65.5119238945454,0.,8.50977527514829));
#967=CARTESIAN_POINT('',(65.5119238945454,0.,8.50977527514829));
#968=CARTESIAN_POINT('',(65.5119238945454,0.,8.50977527514829));
#969=CARTESIAN_POINT('',(61.7559339148836,0.,8.05703920268192));
#970=CARTESIAN_POINT('Origin',(65.1529113237817,0.,11.4882161380888));
#971=CARTESIAN_POINT('',(64.6319667907809,0.,14.4426393971254));
#972=CARTESIAN_POINT('',(64.6319667907809,0.,14.4426393971254));
#973=CARTESIAN_POINT('Origin',(65.1529113237817,0.,11.4882161380888));
#974=CARTESIAN_POINT('Origin',(65.1529113237817,1.5,11.4882161380888));
#975=CARTESIAN_POINT('',(65.1529113237817,0.,12.9882161380888));
#976=CARTESIAN_POINT('Origin',(65.1529113237817,0.,11.4882161380888));
#977=CARTESIAN_POINT('',(65.1529113237817,1.5,12.9882161380888));
#978=CARTESIAN_POINT('Origin',(62.5304120636967,0.,14.072078597305));
#979=CARTESIAN_POINT('',(62.5304120636967,0.,14.072078597305));
#980=CARTESIAN_POINT('',(62.5304120636967,0.,14.072078597305));
#981=CARTESIAN_POINT('',(64.6319667907809,0.,14.4426393971254));
#982=CARTESIAN_POINT('Origin',(62.2699397971963,0.,15.5492902268233));
#983=CARTESIAN_POINT('',(61.1208731325178,0.,14.5851088122935));
#984=CARTESIAN_POINT('',(61.1208731325178,0.,14.5851088122935));
#985=CARTESIAN_POINT('Origin',(62.2699397971963,0.,15.5492902268233));
#986=CARTESIAN_POINT('Origin',(60.3058511019111,0.,15.5564142453126));
#987=CARTESIAN_POINT('',(60.3058511019111,0.,15.5564142453126));
#988=CARTESIAN_POINT('',(60.3058511019111,0.,15.5564142453126));
#989=CARTESIAN_POINT('',(61.1208731325178,0.,14.5851088122935));
#990=CARTESIAN_POINT('Origin',(61.4549177665895,0.,16.5205956598424));
#991=CARTESIAN_POINT('',(60.0453788354107,0.,17.0336258748309));
#992=CARTESIAN_POINT('',(60.0453788354107,0.,17.0336258748309));
#993=CARTESIAN_POINT('Origin',(61.4549177665895,0.,16.5205956598424));
#994=CARTESIAN_POINT('Origin',(60.7612472383981,0.,19.00045814734));
#995=CARTESIAN_POINT('',(60.7612472383981,0.,19.00045814734));
#996=CARTESIAN_POINT('',(60.7612472383981,0.,19.00045814734));
#997=CARTESIAN_POINT('',(60.0453788354106,0.,17.0336258748309));
#998=CARTESIAN_POINT('Origin',(61.7009398591754,0.,18.6584380040179));
#999=CARTESIAN_POINT('Origin',(61.7009398591754,0.,18.6584380040179));
#1000=CARTESIAN_POINT('Origin',(29.0764556618908,0.,9.94717700294281));
#1001=UNCERTAINTY_MEASURE_WITH_UNIT(LENGTH_MEASURE(0.01),#1005,
'DISTANCE_ACCURACY_VALUE',
'Maximum model space distance between geometric entities at asserted c
onnectivities');
#1002=UNCERTAINTY_MEASURE_WITH_UNIT(LENGTH_MEASURE(0.01),#1005,
'DISTANCE_ACCURACY_VALUE',
'Maximum model space distance between geometric entities at asserted c
onnectivities');
#1003=(
GEOMETRIC_REPRESENTATION_CONTEXT(3)
GLOBAL_UNCERTAINTY_ASSIGNED_CONTEXT((#1001))
GLOBAL_UNIT_ASSIGNED_CONTEXT((#1005,#1007,#1008))
REPRESENTATION_CONTEXT('','3D')
);
#1004=(
GEOMETRIC_REPRESENTATION_CONTEXT(3)
GLOBAL_UNCERTAINTY_ASSIGNED_CONTEXT((#1002))
GLOBAL_UNIT_ASSIGNED_CONTEXT((#1005,#1007,#1008))
REPRESENTATION_CONTEXT('','3D')
);
#1005=(
LENGTH_UNIT()
NAMED_UNIT(*)
SI_UNIT(.MILLI.,.METRE.)
);
#1006=(
LENGTH_UNIT()
NAMED_UNIT(*)
SI_UNIT($,.METRE.)
);
#1007=(
NAMED_UNIT(*)
PLANE_ANGLE_UNIT()
SI_UNIT($,.RADIAN.)
);
#1008=(
NAMED_UNIT(*)
SI_UNIT($,.STERADIAN.)
SOLID_ANGLE_UNIT()
);
#1009=SHAPE_DEFINITION_REPRESENTATION(#1010,#1011);
#1010=PRODUCT_DEFINITION_SHAPE('',$,#1013);
#1011=SHAPE_REPRESENTATION('',(#597),#1003);
#1012=PRODUCT_DEFINITION_CONTEXT('part definition',#1017,'design');
#1013=PRODUCT_DEFINITION('Dribbler Wall\X2\2460\X0\',
'Dribbler Wall\X2\2460\X0\ v23',#1014,#1012);
#1014=PRODUCT_DEFINITION_FORMATION('',$,#1019);
#1015=PRODUCT_RELATED_PRODUCT_CATEGORY('Dribbler Wall\X2\2460\X0\ v23',
'Dribbler Wall\X2\2460\X0\ v23',(#1019));
#1016=APPLICATION_PROTOCOL_DEFINITION('international standard',
'automotive_design',2009,#1017);
#1017=APPLICATION_CONTEXT(
'Core Data for Automotive Mechanical Design Process');
#1018=PRODUCT_CONTEXT('part definition',#1017,'mechanical');
#1019=PRODUCT('Dribbler Wall\X2\2460\X0\','Dribbler Wall\X2\2460\X0\ v
23',$,(#1018));
#1020=PRESENTATION_STYLE_ASSIGNMENT((#1022));
#1021=PRESENTATION_STYLE_ASSIGNMENT((#1023));
#1022=SURFACE_STYLE_USAGE(.BOTH.,#1024);
#1023=SURFACE_STYLE_USAGE(.BOTH.,#1025);
#1024=SURFACE_SIDE_STYLE('',(#1026));
#1025=SURFACE_SIDE_STYLE('',(#1027));
#1026=SURFACE_STYLE_FILL_AREA(#1028);
#1027=SURFACE_STYLE_FILL_AREA(#1029);
#1028=FILL_AREA_STYLE('\X2\92FC\X0\ - \X2\30B530C630F3\X0\',(#1030));
#1029=FILL_AREA_STYLE('\X2\30A230EB30DF30CB30A630E0\X0\ - \X2\30B530C630F3\X0\',
(#1031));
#1030=FILL_AREA_STYLE_COLOUR('\X2\92FC\X0\ - \X2\30B530C630F3\X0\',#1032);
#1031=FILL_AREA_STYLE_COLOUR('\X2\30A230EB30DF30CB30A630E0\X0\ - \X2\30B530C630F3\X0\',
#1033);
#1032=COLOUR_RGB('\X2\92FC\X0\ - \X2\30B530C630F3\X0\',0.627450980392157,
0.627450980392157,0.627450980392157);
#1033=COLOUR_RGB('\X2\30A230EB30DF30CB30A630E0\X0\ - \X2\30B530C630F3\X0\',
0.96078431372549,0.96078431372549,0.964705882352941);
ENDSEC;
END-ISO-10303-21;
