ISO-10303-21;
HEADER;
/* Generated by software containing ST-Developer
 * from STEP Tools, Inc. (www.steptools.com) 
 */

FILE_DESCRIPTION(
/* description */ (''),
/* implementation_level */ '2;1');

FILE_NAME(
/* name */ 'Dribbler Axis v5.step',
/* time_stamp */ '2025-09-17T17:35:05+09:00',
/* author */ (''),
/* organization */ (''),
/* preprocessor_version */ 'ST-DEVELOPER v20.1',
/* originating_system */ 'Autodesk Translation Framework v14.17.0.0',
/* authorisation */ '');

FILE_SCHEMA (('AUTOMOTIVE_DESIGN { 1 0 10303 214 3 1 1 }'));
ENDSEC;

DATA;
#10=MECHANICAL_DESIGN_GEOMETRIC_PRESENTATION_REPRESENTATION('',(#13),#266);
#11=SHAPE_REPRESENTATION_RELATIONSHIP('SRR','None',#273,#12);
#12=ADVANCED_BREP_SHAPE_REPRESENTATION('',(#14),#265);
#13=STYLED_ITEM('',(#283),#14);
#14=MANIFOLD_SOLID_BREP('\X2\30DC30C730A3\X0\1',#142);
#15=FACE_BOUND('',#38,.T.);
#16=FACE_BOUND('',#41,.T.);
#17=FACE_BOUND('',#43,.T.);
#18=FACE_BOUND('',#49,.T.);
#19=PLANE('',#159);
#20=PLANE('',#161);
#21=PLANE('',#162);
#22=PLANE('',#165);
#23=PLANE('',#171);
#24=PLANE('',#175);
#25=FACE_OUTER_BOUND('',#36,.T.);
#26=FACE_OUTER_BOUND('',#37,.T.);
#27=FACE_OUTER_BOUND('',#39,.T.);
#28=FACE_OUTER_BOUND('',#40,.T.);
#29=FACE_OUTER_BOUND('',#42,.T.);
#30=FACE_OUTER_BOUND('',#44,.T.);
#31=FACE_OUTER_BOUND('',#45,.T.);
#32=FACE_OUTER_BOUND('',#46,.T.);
#33=FACE_OUTER_BOUND('',#47,.T.);
#34=FACE_OUTER_BOUND('',#48,.T.);
#35=FACE_OUTER_BOUND('',#50,.T.);
#36=EDGE_LOOP('',(#96,#97,#98,#99));
#37=EDGE_LOOP('',(#100));
#38=EDGE_LOOP('',(#101));
#39=EDGE_LOOP('',(#102));
#40=EDGE_LOOP('',(#103));
#41=EDGE_LOOP('',(#104));
#42=EDGE_LOOP('',(#105));
#43=EDGE_LOOP('',(#106));
#44=EDGE_LOOP('',(#107,#108,#109,#110));
#45=EDGE_LOOP('',(#111,#112,#113,#114));
#46=EDGE_LOOP('',(#115));
#47=EDGE_LOOP('',(#116,#117,#118,#119));
#48=EDGE_LOOP('',(#120));
#49=EDGE_LOOP('',(#121));
#50=EDGE_LOOP('',(#122,#123,#124,#125));
#51=LINE('',#231,#56);
#52=LINE('',#248,#57);
#53=LINE('',#252,#58);
#54=LINE('',#258,#59);
#55=LINE('',#262,#60);
#56=VECTOR('',#183,2.5);
#57=VECTOR('',#206,2.35);
#58=VECTOR('',#211,2.35);
#59=VECTOR('',#218,2.5);
#60=VECTOR('',#225,2.5);
#61=CIRCLE('',#157,2.5);
#62=CIRCLE('',#158,2.5);
#63=CIRCLE('',#160,2.35);
#64=CIRCLE('',#163,2.5);
#65=CIRCLE('',#164,2.35);
#66=CIRCLE('',#166,2.5);
#67=CIRCLE('',#167,2.35);
#68=CIRCLE('',#170,2.35);
#69=CIRCLE('',#172,2.5);
#70=CIRCLE('',#174,2.5);
#71=VERTEX_POINT('',#228);
#72=VERTEX_POINT('',#230);
#73=VERTEX_POINT('',#234);
#74=VERTEX_POINT('',#238);
#75=VERTEX_POINT('',#240);
#76=VERTEX_POINT('',#243);
#77=VERTEX_POINT('',#245);
#78=VERTEX_POINT('',#250);
#79=VERTEX_POINT('',#254);
#80=VERTEX_POINT('',#257);
#81=EDGE_CURVE('',#71,#71,#61,.T.);
#82=EDGE_CURVE('',#71,#72,#51,.T.);
#83=EDGE_CURVE('',#72,#72,#62,.T.);
#84=EDGE_CURVE('',#73,#73,#63,.T.);
#85=EDGE_CURVE('',#74,#74,#64,.T.);
#86=EDGE_CURVE('',#75,#75,#65,.T.);
#87=EDGE_CURVE('',#76,#76,#66,.T.);
#88=EDGE_CURVE('',#77,#77,#67,.T.);
#89=EDGE_CURVE('',#77,#73,#52,.T.);
#90=EDGE_CURVE('',#78,#78,#68,.T.);
#91=EDGE_CURVE('',#78,#75,#53,.T.);
#92=EDGE_CURVE('',#79,#79,#69,.T.);
#93=EDGE_CURVE('',#79,#80,#54,.T.);
#94=EDGE_CURVE('',#80,#80,#70,.T.);
#95=EDGE_CURVE('',#76,#74,#55,.T.);
#96=ORIENTED_EDGE('',*,*,#81,.F.);
#97=ORIENTED_EDGE('',*,*,#82,.T.);
#98=ORIENTED_EDGE('',*,*,#83,.F.);
#99=ORIENTED_EDGE('',*,*,#82,.F.);
#100=ORIENTED_EDGE('',*,*,#81,.T.);
#101=ORIENTED_EDGE('',*,*,#84,.T.);
#102=ORIENTED_EDGE('',*,*,#83,.T.);
#103=ORIENTED_EDGE('',*,*,#85,.T.);
#104=ORIENTED_EDGE('',*,*,#86,.T.);
#105=ORIENTED_EDGE('',*,*,#87,.T.);
#106=ORIENTED_EDGE('',*,*,#88,.T.);
#107=ORIENTED_EDGE('',*,*,#88,.F.);
#108=ORIENTED_EDGE('',*,*,#89,.T.);
#109=ORIENTED_EDGE('',*,*,#84,.F.);
#110=ORIENTED_EDGE('',*,*,#89,.F.);
#111=ORIENTED_EDGE('',*,*,#90,.F.);
#112=ORIENTED_EDGE('',*,*,#91,.T.);
#113=ORIENTED_EDGE('',*,*,#86,.F.);
#114=ORIENTED_EDGE('',*,*,#91,.F.);
#115=ORIENTED_EDGE('',*,*,#92,.T.);
#116=ORIENTED_EDGE('',*,*,#92,.F.);
#117=ORIENTED_EDGE('',*,*,#93,.T.);
#118=ORIENTED_EDGE('',*,*,#94,.T.);
#119=ORIENTED_EDGE('',*,*,#93,.F.);
#120=ORIENTED_EDGE('',*,*,#94,.F.);
#121=ORIENTED_EDGE('',*,*,#90,.T.);
#122=ORIENTED_EDGE('',*,*,#87,.F.);
#123=ORIENTED_EDGE('',*,*,#95,.T.);
#124=ORIENTED_EDGE('',*,*,#85,.F.);
#125=ORIENTED_EDGE('',*,*,#95,.F.);
#126=CYLINDRICAL_SURFACE('',#156,2.5);
#127=CYLINDRICAL_SURFACE('',#168,2.35);
#128=CYLINDRICAL_SURFACE('',#169,2.35);
#129=CYLINDRICAL_SURFACE('',#173,2.5);
#130=CYLINDRICAL_SURFACE('',#176,2.5);
#131=ADVANCED_FACE('',(#25),#126,.T.);
#132=ADVANCED_FACE('',(#26,#15),#19,.T.);
#133=ADVANCED_FACE('',(#27),#20,.F.);
#134=ADVANCED_FACE('',(#28,#16),#21,.T.);
#135=ADVANCED_FACE('',(#29,#17),#22,.F.);
#136=ADVANCED_FACE('',(#30),#127,.T.);
#137=ADVANCED_FACE('',(#31),#128,.T.);
#138=ADVANCED_FACE('',(#32),#23,.T.);
#139=ADVANCED_FACE('',(#33),#129,.T.);
#140=ADVANCED_FACE('',(#34,#18),#24,.F.);
#141=ADVANCED_FACE('',(#35),#130,.T.);
#142=CLOSED_SHELL('',(#131,#132,#133,#134,#135,#136,#137,#138,#139,#140,
#141));
#143=DERIVED_UNIT_ELEMENT(#145,1.);
#144=DERIVED_UNIT_ELEMENT(#268,-3.);
#145=(
MASS_UNIT()
NAMED_UNIT(*)
SI_UNIT(.KILO.,.GRAM.)
);
#146=DERIVED_UNIT((#143,#144));
#147=MEASURE_REPRESENTATION_ITEM('density measure',
POSITIVE_RATIO_MEASURE(7850.),#146);
#148=PROPERTY_DEFINITION_REPRESENTATION(#153,#150);
#149=PROPERTY_DEFINITION_REPRESENTATION(#154,#151);
#150=REPRESENTATION('material name',(#152),#265);
#151=REPRESENTATION('density',(#147),#265);
#152=DESCRIPTIVE_REPRESENTATION_ITEM('\X2\92FC\X0\','\X2\92FC\X0\');
#153=PROPERTY_DEFINITION('material property','material name',#275);
#154=PROPERTY_DEFINITION('material property','density of part',#275);
#155=AXIS2_PLACEMENT_3D('',#226,#177,#178);
#156=AXIS2_PLACEMENT_3D('',#227,#179,#180);
#157=AXIS2_PLACEMENT_3D('',#229,#181,#182);
#158=AXIS2_PLACEMENT_3D('',#232,#184,#185);
#159=AXIS2_PLACEMENT_3D('',#233,#186,#187);
#160=AXIS2_PLACEMENT_3D('',#235,#188,#189);
#161=AXIS2_PLACEMENT_3D('',#236,#190,#191);
#162=AXIS2_PLACEMENT_3D('',#237,#192,#193);
#163=AXIS2_PLACEMENT_3D('',#239,#194,#195);
#164=AXIS2_PLACEMENT_3D('',#241,#196,#197);
#165=AXIS2_PLACEMENT_3D('',#242,#198,#199);
#166=AXIS2_PLACEMENT_3D('',#244,#200,#201);
#167=AXIS2_PLACEMENT_3D('',#246,#202,#203);
#168=AXIS2_PLACEMENT_3D('',#247,#204,#205);
#169=AXIS2_PLACEMENT_3D('',#249,#207,#208);
#170=AXIS2_PLACEMENT_3D('',#251,#209,#210);
#171=AXIS2_PLACEMENT_3D('',#253,#212,#213);
#172=AXIS2_PLACEMENT_3D('',#255,#214,#215);
#173=AXIS2_PLACEMENT_3D('',#256,#216,#217);
#174=AXIS2_PLACEMENT_3D('',#259,#219,#220);
#175=AXIS2_PLACEMENT_3D('',#260,#221,#222);
#176=AXIS2_PLACEMENT_3D('',#261,#223,#224);
#177=DIRECTION('axis',(0.,0.,1.));
#178=DIRECTION('refdir',(1.,0.,0.));
#179=DIRECTION('center_axis',(1.,0.,0.));
#180=DIRECTION('ref_axis',(0.,-1.,0.));
#181=DIRECTION('center_axis',(1.,0.,0.));
#182=DIRECTION('ref_axis',(0.,-1.,0.));
#183=DIRECTION('',(-1.,0.,0.));
#184=DIRECTION('center_axis',(-1.,0.,0.));
#185=DIRECTION('ref_axis',(0.,-1.,0.));
#186=DIRECTION('center_axis',(1.,0.,0.));
#187=DIRECTION('ref_axis',(0.,1.,0.));
#188=DIRECTION('center_axis',(-1.,0.,0.));
#189=DIRECTION('ref_axis',(0.,-1.,0.));
#190=DIRECTION('center_axis',(1.,0.,0.));
#191=DIRECTION('ref_axis',(0.,1.,0.));
#192=DIRECTION('center_axis',(1.,0.,0.));
#193=DIRECTION('ref_axis',(0.,1.,0.));
#194=DIRECTION('center_axis',(1.,0.,0.));
#195=DIRECTION('ref_axis',(0.,1.,0.));
#196=DIRECTION('center_axis',(-1.,0.,0.));
#197=DIRECTION('ref_axis',(0.,1.,0.));
#198=DIRECTION('center_axis',(1.,0.,0.));
#199=DIRECTION('ref_axis',(0.,1.,0.));
#200=DIRECTION('center_axis',(-1.,0.,0.));
#201=DIRECTION('ref_axis',(0.,1.,0.));
#202=DIRECTION('center_axis',(1.,0.,0.));
#203=DIRECTION('ref_axis',(0.,-1.,0.));
#204=DIRECTION('center_axis',(1.,0.,0.));
#205=DIRECTION('ref_axis',(0.,-1.,0.));
#206=DIRECTION('',(-1.,0.,0.));
#207=DIRECTION('center_axis',(1.,0.,0.));
#208=DIRECTION('ref_axis',(0.,1.,0.));
#209=DIRECTION('center_axis',(1.,0.,0.));
#210=DIRECTION('ref_axis',(0.,1.,0.));
#211=DIRECTION('',(-1.,0.,0.));
#212=DIRECTION('center_axis',(1.,0.,0.));
#213=DIRECTION('ref_axis',(0.,1.,0.));
#214=DIRECTION('center_axis',(1.,0.,0.));
#215=DIRECTION('ref_axis',(0.,1.,0.));
#216=DIRECTION('center_axis',(1.,0.,0.));
#217=DIRECTION('ref_axis',(0.,1.,0.));
#218=DIRECTION('',(-1.,0.,0.));
#219=DIRECTION('center_axis',(1.,0.,0.));
#220=DIRECTION('ref_axis',(0.,1.,0.));
#221=DIRECTION('center_axis',(1.,0.,0.));
#222=DIRECTION('ref_axis',(0.,1.,0.));
#223=DIRECTION('center_axis',(-1.,0.,0.));
#224=DIRECTION('ref_axis',(0.,1.,0.));
#225=DIRECTION('',(1.,0.,0.));
#226=CARTESIAN_POINT('',(0.,0.,0.));
#227=CARTESIAN_POINT('Origin',(-3.,0.,0.));
#228=CARTESIAN_POINT('',(-1.4,2.5,-3.06161699786838E-16));
#229=CARTESIAN_POINT('Origin',(-1.4,0.,0.));
#230=CARTESIAN_POINT('',(-3.,2.5,-3.06161699786838E-16));
#231=CARTESIAN_POINT('',(-3.,2.5,3.06161699786838E-16));
#232=CARTESIAN_POINT('Origin',(-3.,0.,0.));
#233=CARTESIAN_POINT('Origin',(-1.4,0.,0.));
#234=CARTESIAN_POINT('',(-1.4,2.35,-2.87791997799628E-16));
#235=CARTESIAN_POINT('Origin',(-1.4,0.,0.));
#236=CARTESIAN_POINT('Origin',(-3.,0.,0.));
#237=CARTESIAN_POINT('Origin',(111.5,0.,0.));
#238=CARTESIAN_POINT('',(111.5,-2.5,-3.06161699786838E-16));
#239=CARTESIAN_POINT('Origin',(111.5,0.,0.));
#240=CARTESIAN_POINT('',(111.5,-2.35,-2.87791997799628E-16));
#241=CARTESIAN_POINT('Origin',(111.5,0.,0.));
#242=CARTESIAN_POINT('Origin',(0.,0.,0.));
#243=CARTESIAN_POINT('',(0.,-2.5,-3.06161699786838E-16));
#244=CARTESIAN_POINT('Origin',(0.,0.,0.));
#245=CARTESIAN_POINT('',(3.05311331771918E-15,2.35,-2.87791997799628E-16));
#246=CARTESIAN_POINT('Origin',(0.,0.,0.));
#247=CARTESIAN_POINT('Origin',(-1.4,0.,0.));
#248=CARTESIAN_POINT('',(-1.4,2.35,2.87791997799628E-16));
#249=CARTESIAN_POINT('Origin',(111.5,0.,0.));
#250=CARTESIAN_POINT('',(112.9,-2.35,-2.87791997799628E-16));
#251=CARTESIAN_POINT('Origin',(112.9,0.,0.));
#252=CARTESIAN_POINT('',(111.5,-2.35,-2.87791997799628E-16));
#253=CARTESIAN_POINT('Origin',(115.9,0.,0.));
#254=CARTESIAN_POINT('',(115.9,-2.5,-3.06161699786838E-16));
#255=CARTESIAN_POINT('Origin',(115.9,0.,0.));
#256=CARTESIAN_POINT('Origin',(112.9,0.,0.));
#257=CARTESIAN_POINT('',(112.9,-2.5,-3.06161699786838E-16));
#258=CARTESIAN_POINT('',(112.9,-2.5,-3.06161699786838E-16));
#259=CARTESIAN_POINT('Origin',(112.9,0.,0.));
#260=CARTESIAN_POINT('Origin',(112.9,0.,0.));
#261=CARTESIAN_POINT('Origin',(111.5,0.,0.));
#262=CARTESIAN_POINT('',(111.5,-2.5,3.06161699786838E-16));
#263=UNCERTAINTY_MEASURE_WITH_UNIT(LENGTH_MEASURE(0.01),#267,
'DISTANCE_ACCURACY_VALUE',
'Maximum model space distance between geometric entities at asserted c
onnectivities');
#264=UNCERTAINTY_MEASURE_WITH_UNIT(LENGTH_MEASURE(0.01),#267,
'DISTANCE_ACCURACY_VALUE',
'Maximum model space distance between geometric entities at asserted c
onnectivities');
#265=(
GEOMETRIC_REPRESENTATION_CONTEXT(3)
GLOBAL_UNCERTAINTY_ASSIGNED_CONTEXT((#263))
GLOBAL_UNIT_ASSIGNED_CONTEXT((#267,#269,#270))
REPRESENTATION_CONTEXT('','3D')
);
#266=(
GEOMETRIC_REPRESENTATION_CONTEXT(3)
GLOBAL_UNCERTAINTY_ASSIGNED_CONTEXT((#264))
GLOBAL_UNIT_ASSIGNED_CONTEXT((#267,#269,#270))
REPRESENTATION_CONTEXT('','3D')
);
#267=(
LENGTH_UNIT()
NAMED_UNIT(*)
SI_UNIT(.MILLI.,.METRE.)
);
#268=(
LENGTH_UNIT()
NAMED_UNIT(*)
SI_UNIT($,.METRE.)
);
#269=(
NAMED_UNIT(*)
PLANE_ANGLE_UNIT()
SI_UNIT($,.RADIAN.)
);
#270=(
NAMED_UNIT(*)
SI_UNIT($,.STERADIAN.)
SOLID_ANGLE_UNIT()
);
#271=SHAPE_DEFINITION_REPRESENTATION(#272,#273);
#272=PRODUCT_DEFINITION_SHAPE('',$,#275);
#273=SHAPE_REPRESENTATION('',(#155),#265);
#274=PRODUCT_DEFINITION_CONTEXT('part definition',#279,'design');
#275=PRODUCT_DEFINITION('Dribbler Axis','Dribbler Axis v5',#276,#274);
#276=PRODUCT_DEFINITION_FORMATION('',$,#281);
#277=PRODUCT_RELATED_PRODUCT_CATEGORY('Dribbler Axis v5',
'Dribbler Axis v5',(#281));
#278=APPLICATION_PROTOCOL_DEFINITION('international standard',
'automotive_design',2009,#279);
#279=APPLICATION_CONTEXT(
'Core Data for Automotive Mechanical Design Process');
#280=PRODUCT_CONTEXT('part definition',#279,'mechanical');
#281=PRODUCT('Dribbler Axis','Dribbler Axis v5',$,(#280));
#282=PRESENTATION_STYLE_ASSIGNMENT((#286));
#283=PRESENTATION_STYLE_ASSIGNMENT((#287));
#284=PRESENTATION_STYLE_ASSIGNMENT((#288));
#285=PRESENTATION_STYLE_ASSIGNMENT((#289));
#286=SURFACE_STYLE_USAGE(.BOTH.,#290);
#287=SURFACE_STYLE_USAGE(.BOTH.,#291);
#288=SURFACE_STYLE_USAGE(.BOTH.,#292);
#289=SURFACE_STYLE_USAGE(.BOTH.,#293);
#290=SURFACE_SIDE_STYLE('',(#294));
#291=SURFACE_SIDE_STYLE('',(#295));
#292=SURFACE_SIDE_STYLE('',(#296));
#293=SURFACE_SIDE_STYLE('',(#297));
#294=SURFACE_STYLE_FILL_AREA(#298);
#295=SURFACE_STYLE_FILL_AREA(#299);
#296=SURFACE_STYLE_FILL_AREA(#300);
#297=SURFACE_STYLE_FILL_AREA(#301);
#298=FILL_AREA_STYLE('\X2\92FC\X0\ - \X2\30B530C630F3\X0\',(#302));
#299=FILL_AREA_STYLE('\X2\30A230EB30DF30CB30A630E0\X0\ - \X2\3064308451FA3057\X0\',
(#303));
#300=FILL_AREA_STYLE('\X2\30B730EA30B330FC30F3\X0\(\X2\767D\X0\)',(#304));
#301=FILL_AREA_STYLE(
'PA 12 - Nylon - PA 603-CF (EOS P 3D \X2\30D730EA30F330BF4F7F7528\X0\)',
(#305));
#302=FILL_AREA_STYLE_COLOUR('\X2\92FC\X0\ - \X2\30B530C630F3\X0\',#306);
#303=FILL_AREA_STYLE_COLOUR('\X2\30A230EB30DF30CB30A630E0\X0\ - \X2\3064308451FA3057\X0\',
#307);
#304=FILL_AREA_STYLE_COLOUR('\X2\30B730EA30B330FC30F3\X0\(\X2\767D\X0\)',
#308);
#305=FILL_AREA_STYLE_COLOUR(
'PA 12 - Nylon - PA 603-CF (EOS P 3D \X2\30D730EA30F330BF4F7F7528\X0\)',
#309);
#306=COLOUR_RGB('\X2\92FC\X0\ - \X2\30B530C630F3\X0\',0.627450980392157,
0.627450980392157,0.627450980392157);
#307=COLOUR_RGB('\X2\30A230EB30DF30CB30A630E0\X0\ - \X2\3064308451FA3057\X0\',
0.96078431372549,0.96078431372549,0.964705882352941);
#308=COLOUR_RGB('\X2\30B730EA30B330FC30F3\X0\(\X2\767D\X0\)',0.964705882352941,
0.964705882352941,0.952941176470588);
#309=COLOUR_RGB(
'PA 12 - Nylon - PA 603-CF (EOS P 3D \X2\30D730EA30F330BF4F7F7528\X0\)',
0.247058823529412,0.247058823529412,0.247058823529412);
ENDSEC;
END-ISO-10303-21;
