%TF.GenerationSoftware,KiCad,Pcbnew,8.0.5*%
%TF.CreationDate,2025-10-19T11:05:18+09:00*%
%TF.ProjectId,_____,c9ead6e9-fc2e-46b6-9963-61645f706362,rev?*%
%TF.SameCoordinates,Original*%
%TF.FileFunction,Legend,Top*%
%TF.FilePolarity,Positive*%
%FSLAX46Y46*%
G04 Gerber Fmt 4.6, Leading zero omitted, Abs format (unit mm)*
G04 Created by KiCad (PCBNEW 8.0.5) date 2025-10-19 11:05:18*
%MOMM*%
%LPD*%
G01*
G04 APERTURE LIST*
G04 Aperture macros list*
%AMRoundRect*
0 Rectangle with rounded corners*
0 $1 Rounding radius*
0 $2 $3 $4 $5 $6 $7 $8 $9 X,Y pos of 4 corners*
0 Add a 4 corners polygon primitive as box body*
4,1,4,$2,$3,$4,$5,$6,$7,$8,$9,$2,$3,0*
0 Add four circle primitives for the rounded corners*
1,1,$1+$1,$2,$3*
1,1,$1+$1,$4,$5*
1,1,$1+$1,$6,$7*
1,1,$1+$1,$8,$9*
0 Add four rect primitives between the rounded corners*
20,1,$1+$1,$2,$3,$4,$5,0*
20,1,$1+$1,$4,$5,$6,$7,0*
20,1,$1+$1,$6,$7,$8,$9,0*
20,1,$1+$1,$8,$9,$2,$3,0*%
G04 Aperture macros list end*
%ADD10C,0.150000*%
%ADD11C,0.120000*%
%ADD12C,0.000000*%
%ADD13C,0.100000*%
%ADD14RoundRect,0.250000X-0.600000X-0.725000X0.600000X-0.725000X0.600000X0.725000X-0.600000X0.725000X0*%
%ADD15O,1.700000X1.950000*%
%ADD16RoundRect,0.200000X0.275000X-0.200000X0.275000X0.200000X-0.275000X0.200000X-0.275000X-0.200000X0*%
%ADD17R,1.800000X1.800000*%
%ADD18C,1.800000*%
%ADD19RoundRect,0.200000X-0.200000X-0.275000X0.200000X-0.275000X0.200000X0.275000X-0.200000X0.275000X0*%
%ADD20R,1.416000X1.416000*%
%ADD21C,1.416000*%
%ADD22R,0.900000X2.000000*%
%ADD23RoundRect,1.025000X-1.025000X-1.025000X1.025000X-1.025000X1.025000X1.025000X-1.025000X1.025000X0*%
%ADD24C,4.100000*%
G04 APERTURE END LIST*
D10*
X120016666Y-67104819D02*
X120016666Y-67819104D01*
X120016666Y-67819104D02*
X119969047Y-67961961D01*
X119969047Y-67961961D02*
X119873809Y-68057200D01*
X119873809Y-68057200D02*
X119730952Y-68104819D01*
X119730952Y-68104819D02*
X119635714Y-68104819D01*
X120445238Y-67200057D02*
X120492857Y-67152438D01*
X120492857Y-67152438D02*
X120588095Y-67104819D01*
X120588095Y-67104819D02*
X120826190Y-67104819D01*
X120826190Y-67104819D02*
X120921428Y-67152438D01*
X120921428Y-67152438D02*
X120969047Y-67200057D01*
X120969047Y-67200057D02*
X121016666Y-67295295D01*
X121016666Y-67295295D02*
X121016666Y-67390533D01*
X121016666Y-67390533D02*
X120969047Y-67533390D01*
X120969047Y-67533390D02*
X120397619Y-68104819D01*
X120397619Y-68104819D02*
X121016666Y-68104819D01*
X87624819Y-101166666D02*
X87148628Y-101499999D01*
X87624819Y-101738094D02*
X86624819Y-101738094D01*
X86624819Y-101738094D02*
X86624819Y-101357142D01*
X86624819Y-101357142D02*
X86672438Y-101261904D01*
X86672438Y-101261904D02*
X86720057Y-101214285D01*
X86720057Y-101214285D02*
X86815295Y-101166666D01*
X86815295Y-101166666D02*
X86958152Y-101166666D01*
X86958152Y-101166666D02*
X87053390Y-101214285D01*
X87053390Y-101214285D02*
X87101009Y-101261904D01*
X87101009Y-101261904D02*
X87148628Y-101357142D01*
X87148628Y-101357142D02*
X87148628Y-101738094D01*
X87624819Y-100214285D02*
X87624819Y-100785713D01*
X87624819Y-100499999D02*
X86624819Y-100499999D01*
X86624819Y-100499999D02*
X86767676Y-100595237D01*
X86767676Y-100595237D02*
X86862914Y-100690475D01*
X86862914Y-100690475D02*
X86910533Y-100785713D01*
X152166666Y-67354819D02*
X152166666Y-68069104D01*
X152166666Y-68069104D02*
X152119047Y-68211961D01*
X152119047Y-68211961D02*
X152023809Y-68307200D01*
X152023809Y-68307200D02*
X151880952Y-68354819D01*
X151880952Y-68354819D02*
X151785714Y-68354819D01*
X153166666Y-68354819D02*
X152595238Y-68354819D01*
X152880952Y-68354819D02*
X152880952Y-67354819D01*
X152880952Y-67354819D02*
X152785714Y-67497676D01*
X152785714Y-67497676D02*
X152690476Y-67592914D01*
X152690476Y-67592914D02*
X152595238Y-67640533D01*
X185521905Y-107754819D02*
X185521905Y-106754819D01*
X185521905Y-106754819D02*
X185760000Y-106754819D01*
X185760000Y-106754819D02*
X185902857Y-106802438D01*
X185902857Y-106802438D02*
X185998095Y-106897676D01*
X185998095Y-106897676D02*
X186045714Y-106992914D01*
X186045714Y-106992914D02*
X186093333Y-107183390D01*
X186093333Y-107183390D02*
X186093333Y-107326247D01*
X186093333Y-107326247D02*
X186045714Y-107516723D01*
X186045714Y-107516723D02*
X185998095Y-107611961D01*
X185998095Y-107611961D02*
X185902857Y-107707200D01*
X185902857Y-107707200D02*
X185760000Y-107754819D01*
X185760000Y-107754819D02*
X185521905Y-107754819D01*
X187045714Y-107754819D02*
X186474286Y-107754819D01*
X186760000Y-107754819D02*
X186760000Y-106754819D01*
X186760000Y-106754819D02*
X186664762Y-106897676D01*
X186664762Y-106897676D02*
X186569524Y-106992914D01*
X186569524Y-106992914D02*
X186474286Y-107040533D01*
X180158333Y-99074819D02*
X179825000Y-98598628D01*
X179586905Y-99074819D02*
X179586905Y-98074819D01*
X179586905Y-98074819D02*
X179967857Y-98074819D01*
X179967857Y-98074819D02*
X180063095Y-98122438D01*
X180063095Y-98122438D02*
X180110714Y-98170057D01*
X180110714Y-98170057D02*
X180158333Y-98265295D01*
X180158333Y-98265295D02*
X180158333Y-98408152D01*
X180158333Y-98408152D02*
X180110714Y-98503390D01*
X180110714Y-98503390D02*
X180063095Y-98551009D01*
X180063095Y-98551009D02*
X179967857Y-98598628D01*
X179967857Y-98598628D02*
X179586905Y-98598628D01*
X180539286Y-98170057D02*
X180586905Y-98122438D01*
X180586905Y-98122438D02*
X180682143Y-98074819D01*
X180682143Y-98074819D02*
X180920238Y-98074819D01*
X180920238Y-98074819D02*
X181015476Y-98122438D01*
X181015476Y-98122438D02*
X181063095Y-98170057D01*
X181063095Y-98170057D02*
X181110714Y-98265295D01*
X181110714Y-98265295D02*
X181110714Y-98360533D01*
X181110714Y-98360533D02*
X181063095Y-98503390D01*
X181063095Y-98503390D02*
X180491667Y-99074819D01*
X180491667Y-99074819D02*
X181110714Y-99074819D01*
X137316666Y-84454819D02*
X137316666Y-85169104D01*
X137316666Y-85169104D02*
X137269047Y-85311961D01*
X137269047Y-85311961D02*
X137173809Y-85407200D01*
X137173809Y-85407200D02*
X137030952Y-85454819D01*
X137030952Y-85454819D02*
X136935714Y-85454819D01*
X137697619Y-84454819D02*
X138316666Y-84454819D01*
X138316666Y-84454819D02*
X137983333Y-84835771D01*
X137983333Y-84835771D02*
X138126190Y-84835771D01*
X138126190Y-84835771D02*
X138221428Y-84883390D01*
X138221428Y-84883390D02*
X138269047Y-84931009D01*
X138269047Y-84931009D02*
X138316666Y-85026247D01*
X138316666Y-85026247D02*
X138316666Y-85264342D01*
X138316666Y-85264342D02*
X138269047Y-85359580D01*
X138269047Y-85359580D02*
X138221428Y-85407200D01*
X138221428Y-85407200D02*
X138126190Y-85454819D01*
X138126190Y-85454819D02*
X137840476Y-85454819D01*
X137840476Y-85454819D02*
X137745238Y-85407200D01*
X137745238Y-85407200D02*
X137697619Y-85359580D01*
X143669048Y-84573866D02*
X144430953Y-84573866D01*
X131178571Y-84614700D02*
X132321429Y-84614700D01*
X131750000Y-85186128D02*
X131750000Y-84043271D01*
D11*
%TO.C,J2*%
X112500000Y-68450000D02*
X112500000Y-69700000D01*
X112790000Y-68740000D02*
X112790000Y-74710000D01*
X112790000Y-74710000D02*
X127910000Y-74710000D01*
X112800000Y-68750000D02*
X112800000Y-69500000D01*
X112800000Y-69500000D02*
X114600000Y-69500000D01*
X112800000Y-71000000D02*
X113550000Y-71000000D01*
X113550000Y-71000000D02*
X113550000Y-73950000D01*
X113550000Y-73950000D02*
X120350000Y-73950000D01*
X113750000Y-68450000D02*
X112500000Y-68450000D01*
X114600000Y-68750000D02*
X112800000Y-68750000D01*
X114600000Y-69500000D02*
X114600000Y-68750000D01*
X116100000Y-68750000D02*
X116100000Y-69500000D01*
X116100000Y-69500000D02*
X124600000Y-69500000D01*
X124600000Y-68750000D02*
X116100000Y-68750000D01*
X124600000Y-69500000D02*
X124600000Y-68750000D01*
X126100000Y-68750000D02*
X126100000Y-69500000D01*
X126100000Y-69500000D02*
X127900000Y-69500000D01*
X127150000Y-71000000D02*
X127150000Y-73950000D01*
X127150000Y-73950000D02*
X120350000Y-73950000D01*
X127900000Y-68750000D02*
X126100000Y-68750000D01*
X127900000Y-69500000D02*
X127900000Y-68750000D01*
X127900000Y-71000000D02*
X127150000Y-71000000D01*
X127910000Y-68740000D02*
X112790000Y-68740000D01*
X127910000Y-74710000D02*
X127910000Y-68740000D01*
%TO.C,R1*%
X88077500Y-101237258D02*
X88077500Y-100762742D01*
X89122500Y-101237258D02*
X89122500Y-100762742D01*
%TO.C,J1*%
X147150000Y-68700000D02*
X147150000Y-69950000D01*
X147440000Y-68990000D02*
X147440000Y-74960000D01*
X147440000Y-74960000D02*
X157560000Y-74960000D01*
X147450000Y-69000000D02*
X147450000Y-69750000D01*
X147450000Y-69750000D02*
X149250000Y-69750000D01*
X147450000Y-71250000D02*
X148200000Y-71250000D01*
X148200000Y-71250000D02*
X148200000Y-74200000D01*
X148200000Y-74200000D02*
X152500000Y-74200000D01*
X148400000Y-68700000D02*
X147150000Y-68700000D01*
X149250000Y-69000000D02*
X147450000Y-69000000D01*
X149250000Y-69750000D02*
X149250000Y-69000000D01*
X150750000Y-69000000D02*
X150750000Y-69750000D01*
X150750000Y-69750000D02*
X154250000Y-69750000D01*
X154250000Y-69000000D02*
X150750000Y-69000000D01*
X154250000Y-69750000D02*
X154250000Y-69000000D01*
X155750000Y-69000000D02*
X155750000Y-69750000D01*
X155750000Y-69750000D02*
X157550000Y-69750000D01*
X156800000Y-71250000D02*
X156800000Y-74200000D01*
X156800000Y-74200000D02*
X152500000Y-74200000D01*
X157550000Y-69000000D02*
X155750000Y-69000000D01*
X157550000Y-69750000D02*
X157550000Y-69000000D01*
X157550000Y-71250000D02*
X156800000Y-71250000D01*
X157560000Y-68990000D02*
X147440000Y-68990000D01*
X157560000Y-74960000D02*
X157560000Y-68990000D01*
%TO.C,D1*%
X183845000Y-104740000D02*
X180755000Y-104740000D01*
X182300462Y-110290000D02*
G75*
G02*
X180755170Y-104740000I-462J2990000D01*
G01*
X183844830Y-104740000D02*
G75*
G02*
X182299538Y-110290000I-1544830J-2560000D01*
G01*
X184800000Y-107300000D02*
G75*
G02*
X179800000Y-107300000I-2500000J0D01*
G01*
X179800000Y-107300000D02*
G75*
G02*
X184800000Y-107300000I2500000J0D01*
G01*
D12*
%TO.C,G\u002A\u002A\u002A*%
G36*
X134324460Y-92572763D02*
G01*
X134318863Y-92578360D01*
X134313266Y-92572763D01*
X134318863Y-92567166D01*
X134324460Y-92572763D01*
G37*
G36*
X135083174Y-91618655D02*
G01*
X135079489Y-91627796D01*
X135065905Y-91633067D01*
X135061263Y-91631185D01*
X135045796Y-91631924D01*
X135042334Y-91635712D01*
X135027031Y-91646219D01*
X135001607Y-91654454D01*
X134985126Y-91657005D01*
X134985526Y-91653373D01*
X135004098Y-91642001D01*
X135018511Y-91634061D01*
X135053348Y-91617684D01*
X135075748Y-91612462D01*
X135083174Y-91618655D01*
G37*
G36*
X136256897Y-91330972D02*
G01*
X136415633Y-91353161D01*
X136557735Y-91391528D01*
X136607737Y-91409924D01*
X136656486Y-91429979D01*
X136699577Y-91449627D01*
X136732604Y-91466802D01*
X136751161Y-91479440D01*
X136753636Y-91483371D01*
X136762783Y-91491381D01*
X136771209Y-91492507D01*
X136795433Y-91500335D01*
X136831898Y-91522344D01*
X136877598Y-91556326D01*
X136929525Y-91600070D01*
X136975924Y-91642905D01*
X137016794Y-91684082D01*
X137055021Y-91726044D01*
X137087464Y-91764968D01*
X137110982Y-91797033D01*
X137122434Y-91818414D01*
X137123050Y-91821959D01*
X137112328Y-91823612D01*
X137082052Y-91825106D01*
X137035057Y-91826383D01*
X136974176Y-91827385D01*
X136902244Y-91828054D01*
X136822096Y-91828333D01*
X136810085Y-91828338D01*
X136497120Y-91828338D01*
X136465859Y-91787174D01*
X136386196Y-91698559D01*
X136294054Y-91626696D01*
X136188285Y-91570993D01*
X136067739Y-91530861D01*
X135931269Y-91505709D01*
X135914001Y-91503695D01*
X135809910Y-91496677D01*
X135702093Y-91498678D01*
X135586518Y-91510092D01*
X135459151Y-91531313D01*
X135320758Y-91561583D01*
X135267160Y-91574398D01*
X135221225Y-91585367D01*
X135187463Y-91593414D01*
X135170386Y-91597464D01*
X135169634Y-91597639D01*
X135150779Y-91603038D01*
X135133353Y-91608656D01*
X135106381Y-91614858D01*
X135096760Y-91611003D01*
X135103392Y-91599719D01*
X135125183Y-91583636D01*
X135149133Y-91570805D01*
X135183925Y-91555497D01*
X135210661Y-91546165D01*
X135222893Y-91544756D01*
X135236442Y-91541996D01*
X135248880Y-91532401D01*
X135272197Y-91518012D01*
X135287042Y-91514896D01*
X135306242Y-91510042D01*
X135311430Y-91504504D01*
X135323460Y-91496508D01*
X135353205Y-91483834D01*
X135396788Y-91467737D01*
X135450336Y-91449471D01*
X135509974Y-91430287D01*
X135571825Y-91411440D01*
X135632015Y-91394183D01*
X135686670Y-91379770D01*
X135723755Y-91371139D01*
X135909349Y-91339922D01*
X136087599Y-91326546D01*
X136256897Y-91330972D01*
G37*
G36*
X135015137Y-91948677D02*
G01*
X135009794Y-91984990D01*
X135004522Y-92016680D01*
X135004158Y-92018642D01*
X134981067Y-92140989D01*
X134961305Y-92243448D01*
X134944235Y-92328166D01*
X134929219Y-92397289D01*
X134915617Y-92452962D01*
X134902791Y-92497333D01*
X134890102Y-92532548D01*
X134876912Y-92560752D01*
X134862582Y-92584093D01*
X134846473Y-92604717D01*
X134827947Y-92624769D01*
X134822008Y-92630806D01*
X134787918Y-92663766D01*
X134763363Y-92682856D01*
X134743185Y-92691098D01*
X134722226Y-92691517D01*
X134719061Y-92691139D01*
X134706140Y-92695890D01*
X134705068Y-92699737D01*
X134694775Y-92709895D01*
X134667419Y-92718196D01*
X134628285Y-92724131D01*
X134582659Y-92727193D01*
X134535825Y-92726871D01*
X134493069Y-92722659D01*
X134483980Y-92721008D01*
X134455041Y-92712824D01*
X134438172Y-92703555D01*
X134436404Y-92700179D01*
X134429735Y-92693659D01*
X134426735Y-92694958D01*
X134415219Y-92690693D01*
X134393762Y-92675545D01*
X134368207Y-92654509D01*
X134344397Y-92632579D01*
X134328175Y-92614752D01*
X134324460Y-92607523D01*
X134334417Y-92576127D01*
X134361369Y-92543560D01*
X134395542Y-92518369D01*
X134434600Y-92497665D01*
X134461511Y-92490790D01*
X134481898Y-92497951D01*
X134501385Y-92519359D01*
X134503570Y-92522388D01*
X134521850Y-92543543D01*
X134542765Y-92553373D01*
X134575612Y-92555955D01*
X134580202Y-92555971D01*
X134614662Y-92553795D01*
X134642614Y-92545654D01*
X134665430Y-92529128D01*
X134684484Y-92501796D01*
X134701147Y-92461239D01*
X134716793Y-92405036D01*
X134732793Y-92330769D01*
X134745273Y-92264918D01*
X134750340Y-92238283D01*
X134758443Y-92196785D01*
X134768528Y-92145708D01*
X134779541Y-92090336D01*
X134790427Y-92035954D01*
X134800132Y-91987846D01*
X134807602Y-91951297D01*
X134811715Y-91931886D01*
X134815803Y-91919971D01*
X134824488Y-91912556D01*
X134842297Y-91908581D01*
X134873760Y-91906982D01*
X134919150Y-91906699D01*
X135020862Y-91906699D01*
X135015137Y-91948677D01*
G37*
G36*
X136350639Y-91934264D02*
G01*
X136346606Y-91955498D01*
X136338691Y-91962670D01*
X136331467Y-91971252D01*
X136332783Y-91982261D01*
X136333539Y-92002871D01*
X136329558Y-92037361D01*
X136322467Y-92074614D01*
X136312833Y-92120508D01*
X136304647Y-92164791D01*
X136300573Y-92191380D01*
X136294082Y-92221403D01*
X136284889Y-92240950D01*
X136282459Y-92243156D01*
X136275279Y-92258972D01*
X136277432Y-92274715D01*
X136278873Y-92294239D01*
X136271835Y-92298501D01*
X136263831Y-92306646D01*
X136265520Y-92316303D01*
X136267655Y-92338283D01*
X136265007Y-92345987D01*
X136258809Y-92364996D01*
X136254544Y-92392553D01*
X136248515Y-92443245D01*
X136241420Y-92474542D01*
X136236795Y-92483243D01*
X136234033Y-92497652D01*
X136236006Y-92517054D01*
X136241306Y-92544777D01*
X136393923Y-92544948D01*
X136451135Y-92545702D01*
X136500954Y-92547645D01*
X136538755Y-92550504D01*
X136559912Y-92554005D01*
X136562009Y-92554917D01*
X136569371Y-92562543D01*
X136572419Y-92576208D01*
X136570970Y-92600067D01*
X136564843Y-92638274D01*
X136556463Y-92681908D01*
X136550359Y-92712692D01*
X136271389Y-92712692D01*
X136185356Y-92712646D01*
X136119122Y-92712363D01*
X136070098Y-92711622D01*
X136035697Y-92710206D01*
X136013329Y-92707895D01*
X136000404Y-92704471D01*
X135994335Y-92699714D01*
X135992531Y-92693407D01*
X135992420Y-92689107D01*
X135995112Y-92662133D01*
X136002087Y-92625936D01*
X136011696Y-92586635D01*
X136022287Y-92550351D01*
X136032211Y-92523202D01*
X136039817Y-92511309D01*
X136040401Y-92511194D01*
X136044998Y-92504880D01*
X136040411Y-92497201D01*
X136037348Y-92478188D01*
X136041087Y-92438515D01*
X136051557Y-92378826D01*
X136055381Y-92360070D01*
X136068946Y-92293383D01*
X136084001Y-92216739D01*
X136098188Y-92142239D01*
X136104470Y-92108197D01*
X136114593Y-92053622D01*
X136124150Y-92004097D01*
X136131970Y-91965577D01*
X136136390Y-91945879D01*
X136144914Y-91912296D01*
X136247777Y-91909077D01*
X136350639Y-91905858D01*
X136350639Y-91934264D01*
G37*
G36*
X139512999Y-91817506D02*
G01*
X139567963Y-91819063D01*
X139606382Y-91822526D01*
X139631173Y-91828600D01*
X139645257Y-91837996D01*
X139651551Y-91851422D01*
X139652975Y-91869180D01*
X139650172Y-91889347D01*
X139642550Y-91926309D01*
X139631292Y-91975410D01*
X139617577Y-92031993D01*
X139602588Y-92091401D01*
X139587506Y-92148977D01*
X139573512Y-92200065D01*
X139561788Y-92240009D01*
X139553515Y-92264150D01*
X139551910Y-92267565D01*
X139542873Y-92294922D01*
X139541003Y-92312342D01*
X139538127Y-92333837D01*
X139530426Y-92370696D01*
X139519254Y-92416762D01*
X139512056Y-92444028D01*
X139495916Y-92504408D01*
X139479529Y-92567495D01*
X139463900Y-92629211D01*
X139450036Y-92685475D01*
X139438943Y-92732208D01*
X139431626Y-92765328D01*
X139429088Y-92780572D01*
X139439924Y-92783736D01*
X139471004Y-92786433D01*
X139520186Y-92788584D01*
X139585331Y-92790109D01*
X139664295Y-92790930D01*
X139712809Y-92791053D01*
X139800013Y-92791136D01*
X139867584Y-92791520D01*
X139918276Y-92792408D01*
X139954847Y-92794004D01*
X139980050Y-92796510D01*
X139996641Y-92800130D01*
X140007375Y-92805068D01*
X140015008Y-92811525D01*
X140016819Y-92813472D01*
X140028912Y-92830297D01*
X140031232Y-92848682D01*
X140024577Y-92877653D01*
X140022963Y-92883107D01*
X140012812Y-92919490D01*
X140005090Y-92951481D01*
X140003824Y-92957854D01*
X139997364Y-92983488D01*
X139992020Y-92996407D01*
X139986163Y-93015006D01*
X139982704Y-93039262D01*
X139981584Y-93054628D01*
X139979575Y-93067372D01*
X139974744Y-93077740D01*
X139965163Y-93085976D01*
X139948900Y-93092326D01*
X139924026Y-93097033D01*
X139888610Y-93100343D01*
X139840721Y-93102500D01*
X139778429Y-93103749D01*
X139699805Y-93104335D01*
X139602916Y-93104503D01*
X139485834Y-93104496D01*
X139468138Y-93104495D01*
X139350935Y-93104447D01*
X139254056Y-93104248D01*
X139175434Y-93103813D01*
X139113004Y-93103060D01*
X139064701Y-93101903D01*
X139028458Y-93100260D01*
X139002210Y-93098046D01*
X138983892Y-93095177D01*
X138971438Y-93091571D01*
X138962783Y-93087142D01*
X138958239Y-93083802D01*
X138932685Y-93063110D01*
X139025849Y-92694798D01*
X139048591Y-92605061D01*
X139070178Y-92520208D01*
X139089847Y-92443210D01*
X139106838Y-92377036D01*
X139120387Y-92324657D01*
X139129732Y-92289044D01*
X139133243Y-92276112D01*
X139141020Y-92247296D01*
X139152792Y-92202080D01*
X139167188Y-92145802D01*
X139182837Y-92083798D01*
X139189332Y-92057822D01*
X139204667Y-91996522D01*
X139218858Y-91940196D01*
X139230675Y-91893693D01*
X139238891Y-91861859D01*
X139241110Y-91853525D01*
X139251031Y-91817144D01*
X139438570Y-91817144D01*
X139512999Y-91817506D01*
G37*
G36*
X137234373Y-91891507D02*
G01*
X137249766Y-91894250D01*
X137316586Y-91913712D01*
X137376391Y-91942082D01*
X137422184Y-91975902D01*
X137428747Y-91982686D01*
X137438863Y-91995561D01*
X137439933Y-92006918D01*
X137429676Y-92021865D01*
X137405812Y-92045508D01*
X137396990Y-92053811D01*
X137360547Y-92087151D01*
X137335460Y-92106434D01*
X137317227Y-92113403D01*
X137301344Y-92109804D01*
X137283716Y-92097703D01*
X137229599Y-92067433D01*
X137172540Y-92056785D01*
X137114906Y-92063631D01*
X137059064Y-92085845D01*
X137007383Y-92121297D01*
X136962228Y-92167860D01*
X136925969Y-92223407D01*
X136900972Y-92285810D01*
X136889604Y-92352940D01*
X136894234Y-92422671D01*
X136899012Y-92443466D01*
X136922851Y-92497340D01*
X136961683Y-92534849D01*
X137011683Y-92556127D01*
X137070227Y-92561453D01*
X137132412Y-92549474D01*
X137189985Y-92521851D01*
X137193412Y-92519525D01*
X137219428Y-92506491D01*
X137240460Y-92504062D01*
X137241569Y-92504423D01*
X137252793Y-92504987D01*
X137251706Y-92499871D01*
X137252112Y-92489623D01*
X137255672Y-92488805D01*
X137267435Y-92497237D01*
X137287091Y-92519146D01*
X137306362Y-92544323D01*
X137328264Y-92575729D01*
X137336968Y-92595745D01*
X137331990Y-92611408D01*
X137312846Y-92629756D01*
X137299750Y-92640543D01*
X137268868Y-92660218D01*
X137224262Y-92681936D01*
X137173933Y-92702331D01*
X137125883Y-92718040D01*
X137101932Y-92723730D01*
X137065659Y-92730145D01*
X137038383Y-92732933D01*
X137011339Y-92732088D01*
X136975764Y-92727604D01*
X136949537Y-92723606D01*
X136904926Y-92714171D01*
X136863529Y-92701101D01*
X136830758Y-92686580D01*
X136812025Y-92672794D01*
X136809608Y-92667104D01*
X136803608Y-92659727D01*
X136800782Y-92660854D01*
X136786864Y-92657479D01*
X136765681Y-92639349D01*
X136741186Y-92611085D01*
X136729936Y-92595152D01*
X137324548Y-92595152D01*
X137330146Y-92600749D01*
X137335743Y-92595152D01*
X137330146Y-92589555D01*
X137324548Y-92595152D01*
X136729936Y-92595152D01*
X136717335Y-92577306D01*
X136698082Y-92542632D01*
X136696394Y-92538916D01*
X136680849Y-92482466D01*
X136676054Y-92413216D01*
X136681166Y-92337517D01*
X136689507Y-92292904D01*
X136865580Y-92292904D01*
X136871177Y-92298501D01*
X136876774Y-92292904D01*
X136871177Y-92287307D01*
X136865580Y-92292904D01*
X136689507Y-92292904D01*
X136695337Y-92261720D01*
X136717723Y-92192175D01*
X136747479Y-92135235D01*
X136750749Y-92130586D01*
X136786986Y-92086804D01*
X136804519Y-92069017D01*
X137022301Y-92069017D01*
X137027898Y-92074614D01*
X137033495Y-92069017D01*
X137027898Y-92063420D01*
X137022301Y-92069017D01*
X136804519Y-92069017D01*
X136832882Y-92040242D01*
X136882564Y-91996131D01*
X136930163Y-91959703D01*
X136967933Y-91937059D01*
X137058032Y-91903946D01*
X137148613Y-91888494D01*
X137234373Y-91891507D01*
G37*
G36*
X138715428Y-91817226D02*
G01*
X138783108Y-91817601D01*
X138833719Y-91818463D01*
X138869921Y-91820005D01*
X138894375Y-91822421D01*
X138909741Y-91825902D01*
X138918679Y-91830644D01*
X138923848Y-91836839D01*
X138924908Y-91838722D01*
X138932112Y-91862584D01*
X138931222Y-91875103D01*
X138925280Y-91897388D01*
X138921171Y-91917893D01*
X138913981Y-91953210D01*
X138903119Y-91999235D01*
X138890272Y-92049585D01*
X138877129Y-92097876D01*
X138865375Y-92137724D01*
X138856698Y-92162746D01*
X138856073Y-92164169D01*
X138845235Y-92196769D01*
X138841135Y-92220141D01*
X138837041Y-92246743D01*
X138829157Y-92281929D01*
X138819474Y-92318292D01*
X138809981Y-92348430D01*
X138802669Y-92364938D01*
X138802015Y-92365667D01*
X138796850Y-92379975D01*
X138794594Y-92399250D01*
X138790502Y-92430292D01*
X138781895Y-92471883D01*
X138771267Y-92513310D01*
X138761112Y-92543858D01*
X138760718Y-92544777D01*
X138752735Y-92571592D01*
X138751412Y-92579878D01*
X138745614Y-92611903D01*
X138735279Y-92651926D01*
X138722532Y-92693294D01*
X138709501Y-92729356D01*
X138698311Y-92753460D01*
X138694193Y-92758851D01*
X138681729Y-92779691D01*
X138679066Y-92795530D01*
X138669978Y-92828469D01*
X138642445Y-92872339D01*
X138631759Y-92886205D01*
X138619273Y-92902380D01*
X138600892Y-92926659D01*
X138599236Y-92928864D01*
X138579158Y-92948739D01*
X138561705Y-92954827D01*
X138560177Y-92954403D01*
X138547191Y-92957476D01*
X138544734Y-92968622D01*
X138535562Y-92987523D01*
X138513949Y-93004170D01*
X138485479Y-93020243D01*
X138465593Y-93033956D01*
X138446512Y-93044972D01*
X138415996Y-93058201D01*
X138380630Y-93071338D01*
X138347001Y-93082079D01*
X138321695Y-93088118D01*
X138311644Y-93087830D01*
X138299830Y-93089307D01*
X138289372Y-93096196D01*
X138271330Y-93101936D01*
X138235155Y-93106573D01*
X138185076Y-93110073D01*
X138125322Y-93112400D01*
X138060123Y-93113517D01*
X137993710Y-93113390D01*
X137930311Y-93111983D01*
X137874157Y-93109260D01*
X137829476Y-93105186D01*
X137802426Y-93100295D01*
X137769643Y-93090566D01*
X137747650Y-93080376D01*
X137735453Y-93065888D01*
X137732057Y-93043262D01*
X137736468Y-93008660D01*
X137747693Y-92958242D01*
X137756382Y-92922498D01*
X137789874Y-92785456D01*
X137836013Y-92782065D01*
X137877918Y-92784331D01*
X137919408Y-92794352D01*
X137923756Y-92796058D01*
X137963513Y-92806403D01*
X138016536Y-92812064D01*
X138074164Y-92812881D01*
X138127737Y-92808692D01*
X138165253Y-92800535D01*
X138197502Y-92787690D01*
X138225355Y-92771317D01*
X138249878Y-92749245D01*
X138272136Y-92719304D01*
X138293194Y-92679324D01*
X138314118Y-92627134D01*
X138335972Y-92560565D01*
X138359823Y-92477447D01*
X138386735Y-92375609D01*
X138400686Y-92320890D01*
X138414317Y-92266934D01*
X138423604Y-92229710D01*
X138429690Y-92204242D01*
X138433719Y-92185556D01*
X138436835Y-92168677D01*
X138439925Y-92150176D01*
X138446846Y-92108197D01*
X138367715Y-92108197D01*
X138327659Y-92106751D01*
X138297012Y-92102947D01*
X138282070Y-92097589D01*
X138281808Y-92097233D01*
X138280690Y-92079896D01*
X138286172Y-92047059D01*
X138297143Y-92004239D01*
X138306626Y-91973865D01*
X138311514Y-91951763D01*
X138316011Y-91920035D01*
X138316428Y-91916123D01*
X138322462Y-91879446D01*
X138331282Y-91847141D01*
X138331650Y-91846158D01*
X138342681Y-91817144D01*
X138628020Y-91817144D01*
X138715428Y-91817226D01*
G37*
G36*
X143972935Y-91800176D02*
G01*
X144047032Y-91802986D01*
X144111149Y-91808299D01*
X144158364Y-91815820D01*
X144199830Y-91826743D01*
X144247698Y-91841696D01*
X144296877Y-91858783D01*
X144342274Y-91876109D01*
X144378797Y-91891779D01*
X144401352Y-91903899D01*
X144405694Y-91907854D01*
X144404979Y-91921493D01*
X144399090Y-91951866D01*
X144389273Y-91994258D01*
X144376774Y-92043954D01*
X144362839Y-92096240D01*
X144348713Y-92146400D01*
X144335643Y-92189719D01*
X144324875Y-92221483D01*
X144319473Y-92234134D01*
X144298773Y-92252070D01*
X144266512Y-92252556D01*
X144224633Y-92235996D01*
X144177349Y-92204562D01*
X144112566Y-92158360D01*
X144055256Y-92125518D01*
X144013178Y-92109138D01*
X143992715Y-92106660D01*
X143955954Y-92104806D01*
X143908982Y-92103819D01*
X143878845Y-92103743D01*
X143824668Y-92104650D01*
X143785664Y-92107692D01*
X143754634Y-92114216D01*
X143724378Y-92125565D01*
X143699541Y-92137229D01*
X143620509Y-92188002D01*
X143555577Y-92255110D01*
X143505857Y-92336654D01*
X143472465Y-92430730D01*
X143456512Y-92535437D01*
X143455628Y-92553764D01*
X143458575Y-92637548D01*
X143474583Y-92703656D01*
X143504937Y-92753449D01*
X143550919Y-92788292D01*
X143613815Y-92809547D01*
X143694908Y-92818578D01*
X143705304Y-92818891D01*
X143750968Y-92818872D01*
X143789156Y-92816890D01*
X143813457Y-92813342D01*
X143817277Y-92811929D01*
X143837796Y-92803818D01*
X143872393Y-92792926D01*
X143913341Y-92781559D01*
X143946012Y-92773549D01*
X143960840Y-92766662D01*
X143988340Y-92751381D01*
X144022338Y-92731398D01*
X144056661Y-92710407D01*
X144085134Y-92692100D01*
X144100294Y-92681269D01*
X144123582Y-92672924D01*
X144155238Y-92672829D01*
X144184875Y-92679920D01*
X144201263Y-92691610D01*
X144204204Y-92708052D01*
X144200583Y-92739451D01*
X144190036Y-92787938D01*
X144175064Y-92845244D01*
X144160327Y-92896692D01*
X144146894Y-92939230D01*
X144136148Y-92968767D01*
X144129474Y-92981207D01*
X144129020Y-92981357D01*
X144124376Y-92989526D01*
X144126086Y-92996624D01*
X144121084Y-93008548D01*
X144096817Y-93023179D01*
X144055769Y-93039957D01*
X143982517Y-93065379D01*
X143909332Y-93088022D01*
X143844716Y-93105321D01*
X143822874Y-93110232D01*
X143777044Y-93116507D01*
X143716041Y-93120433D01*
X143646960Y-93121996D01*
X143576895Y-93121186D01*
X143512938Y-93117991D01*
X143462185Y-93112399D01*
X143453460Y-93110839D01*
X143367767Y-93090455D01*
X143297108Y-93065245D01*
X143234230Y-93032519D01*
X143222246Y-93025024D01*
X143173766Y-92988863D01*
X143130580Y-92947353D01*
X143095958Y-92904630D01*
X143073174Y-92864832D01*
X143065500Y-92832098D01*
X143065950Y-92827435D01*
X143061715Y-92814542D01*
X143057880Y-92813442D01*
X143046364Y-92802989D01*
X143037257Y-92774338D01*
X143030569Y-92731553D01*
X143026312Y-92678694D01*
X143024497Y-92619825D01*
X143025133Y-92559007D01*
X143028232Y-92500303D01*
X143033805Y-92447776D01*
X143041862Y-92405488D01*
X143052414Y-92377500D01*
X143056709Y-92371824D01*
X143065823Y-92352274D01*
X143067254Y-92340412D01*
X143073002Y-92314440D01*
X143088416Y-92277429D01*
X143110751Y-92233863D01*
X143137262Y-92188224D01*
X143165204Y-92144997D01*
X143191833Y-92108664D01*
X143214403Y-92083710D01*
X143229981Y-92074614D01*
X143244074Y-92065755D01*
X143256880Y-92047897D01*
X143272373Y-92028987D01*
X143300087Y-92003399D01*
X143334704Y-91975186D01*
X143370908Y-91948398D01*
X143403382Y-91927086D01*
X143426810Y-91915301D01*
X143432396Y-91914162D01*
X143446440Y-91909035D01*
X143447863Y-91905357D01*
X143457314Y-91895585D01*
X143480619Y-91882559D01*
X143510203Y-91869509D01*
X143538490Y-91859668D01*
X143557906Y-91856267D01*
X143561023Y-91857076D01*
X143570469Y-91855869D01*
X143571001Y-91852863D01*
X143580870Y-91844614D01*
X143606680Y-91833160D01*
X143640965Y-91821572D01*
X143684298Y-91812766D01*
X143744539Y-91806163D01*
X143816311Y-91801824D01*
X143894235Y-91799808D01*
X143972935Y-91800176D01*
G37*
G36*
X141225485Y-91795696D02*
G01*
X141260239Y-91797686D01*
X141278234Y-91800933D01*
X141279318Y-91801647D01*
X141294042Y-91806916D01*
X141321709Y-91811208D01*
X141328759Y-91811840D01*
X141361591Y-91817560D01*
X141408080Y-91829569D01*
X141461174Y-91845645D01*
X141513823Y-91863567D01*
X141558975Y-91881111D01*
X141581203Y-91891384D01*
X141603833Y-91907440D01*
X141610906Y-91927921D01*
X141603910Y-91959146D01*
X141599764Y-91970337D01*
X141589084Y-92001306D01*
X141582838Y-92024239D01*
X141578059Y-92044731D01*
X141569250Y-92080626D01*
X141557960Y-92125647D01*
X141552441Y-92147377D01*
X141526745Y-92248127D01*
X141487672Y-92251466D01*
X141464056Y-92250713D01*
X141439517Y-92242471D01*
X141408463Y-92224184D01*
X141373000Y-92199000D01*
X141311135Y-92156630D01*
X141256695Y-92128363D01*
X141202126Y-92111666D01*
X141139875Y-92104005D01*
X141085853Y-92102660D01*
X141031954Y-92103539D01*
X140992508Y-92107066D01*
X140959608Y-92114689D01*
X140925352Y-92127854D01*
X140909717Y-92134895D01*
X140831611Y-92182850D01*
X140766147Y-92247541D01*
X140714836Y-92326281D01*
X140679189Y-92416379D01*
X140660717Y-92515148D01*
X140658610Y-92581815D01*
X140667215Y-92658416D01*
X140687802Y-92721072D01*
X140713840Y-92760783D01*
X140754221Y-92790276D01*
X140810619Y-92809953D01*
X140878530Y-92818942D01*
X140953445Y-92816368D01*
X140980784Y-92812523D01*
X141021970Y-92805611D01*
X141055720Y-92800036D01*
X141074659Y-92797015D01*
X141093209Y-92791301D01*
X141124725Y-92778904D01*
X141157211Y-92764808D01*
X141192664Y-92749425D01*
X141220139Y-92738684D01*
X141232773Y-92735081D01*
X141242391Y-92726624D01*
X141242574Y-92724611D01*
X141252039Y-92714384D01*
X141275433Y-92702397D01*
X141281754Y-92699974D01*
X141307183Y-92688807D01*
X141320405Y-92679149D01*
X141320935Y-92677615D01*
X141330158Y-92668160D01*
X141344125Y-92662063D01*
X141370302Y-92663848D01*
X141395192Y-92679806D01*
X141409590Y-92703229D01*
X141410489Y-92710446D01*
X141407472Y-92730271D01*
X141399411Y-92765409D01*
X141387798Y-92810569D01*
X141374119Y-92860462D01*
X141359866Y-92909799D01*
X141346525Y-92953290D01*
X141335588Y-92985645D01*
X141328542Y-93001575D01*
X141328528Y-93001594D01*
X141308782Y-93016761D01*
X141275893Y-93033237D01*
X141238494Y-93047125D01*
X141214080Y-93053252D01*
X141182609Y-93062629D01*
X141164964Y-93070510D01*
X141142251Y-93077691D01*
X141129873Y-93076041D01*
X141113868Y-93076345D01*
X141085827Y-93085011D01*
X141067688Y-93092771D01*
X141035123Y-93105048D01*
X140994906Y-93113803D01*
X140941710Y-93119951D01*
X140889104Y-93123455D01*
X140835827Y-93125478D01*
X140794323Y-93125402D01*
X140768334Y-93123322D01*
X140761224Y-93120200D01*
X140751237Y-93115001D01*
X140725809Y-93113089D01*
X140708050Y-93113716D01*
X140642092Y-93109588D01*
X140568121Y-93090872D01*
X140492293Y-93060315D01*
X140420762Y-93020667D01*
X140359681Y-92974675D01*
X140330587Y-92945152D01*
X140300534Y-92904986D01*
X140275061Y-92861737D01*
X140256990Y-92821221D01*
X140249142Y-92789254D01*
X140249825Y-92778689D01*
X140248464Y-92759985D01*
X140242289Y-92754287D01*
X140233899Y-92740698D01*
X140228229Y-92709473D01*
X140225246Y-92665196D01*
X140224917Y-92612450D01*
X140227210Y-92555819D01*
X140232092Y-92499887D01*
X140239532Y-92449237D01*
X140244620Y-92425617D01*
X140259934Y-92371542D01*
X140278423Y-92317518D01*
X140298254Y-92267780D01*
X140317594Y-92226560D01*
X140334606Y-92198094D01*
X140347457Y-92186616D01*
X140348189Y-92186558D01*
X140356368Y-92182220D01*
X140354542Y-92179148D01*
X140356055Y-92166586D01*
X140368474Y-92143461D01*
X140376669Y-92131572D01*
X140456755Y-92040661D01*
X140553713Y-91960956D01*
X140663960Y-91894560D01*
X140753917Y-91856324D01*
X141432878Y-91856324D01*
X141438475Y-91861921D01*
X141444072Y-91856324D01*
X141438475Y-91850727D01*
X141432878Y-91856324D01*
X140753917Y-91856324D01*
X140783914Y-91843574D01*
X140909992Y-91810100D01*
X140930693Y-91806478D01*
X140966370Y-91802305D01*
X141013756Y-91798994D01*
X141068105Y-91796613D01*
X141124672Y-91795225D01*
X141178714Y-91794898D01*
X141225485Y-91795696D01*
G37*
G36*
X142423921Y-91819308D02*
G01*
X142504523Y-91820950D01*
X142565990Y-91823676D01*
X142606890Y-91827455D01*
X142613883Y-91828588D01*
X142709062Y-91851757D01*
X142786075Y-91882977D01*
X142848135Y-91923662D01*
X142865897Y-91939421D01*
X142905379Y-91979707D01*
X142932277Y-92015794D01*
X142948917Y-92053728D01*
X142957622Y-92099559D01*
X142960718Y-92159334D01*
X142960908Y-92186558D01*
X142960261Y-92242518D01*
X142957630Y-92282512D01*
X142951983Y-92312941D01*
X142942287Y-92340205D01*
X142932922Y-92360070D01*
X142915230Y-92395018D01*
X142901861Y-92418705D01*
X142887371Y-92439413D01*
X142866314Y-92465422D01*
X142853791Y-92480410D01*
X142829677Y-92505075D01*
X142808227Y-92520170D01*
X142800585Y-92522388D01*
X142780991Y-92530330D01*
X142759305Y-92549395D01*
X142732157Y-92571748D01*
X142688818Y-92597076D01*
X142634808Y-92622884D01*
X142575644Y-92646671D01*
X142516845Y-92665941D01*
X142482692Y-92674590D01*
X142439827Y-92681723D01*
X142381894Y-92688359D01*
X142316212Y-92693794D01*
X142250101Y-92697324D01*
X142244469Y-92697521D01*
X142172737Y-92700882D01*
X142119522Y-92705493D01*
X142086226Y-92711201D01*
X142075164Y-92716115D01*
X142067255Y-92732308D01*
X142056320Y-92764859D01*
X142044107Y-92808253D01*
X142037218Y-92835830D01*
X142025104Y-92884136D01*
X142013533Y-92925969D01*
X142004227Y-92955286D01*
X142000736Y-92963816D01*
X141992447Y-92989421D01*
X141986825Y-93023549D01*
X141986438Y-93028053D01*
X141983227Y-93055562D01*
X141976209Y-93075540D01*
X141962226Y-93089166D01*
X141938117Y-93097620D01*
X141900723Y-93102081D01*
X141846884Y-93103727D01*
X141783501Y-93103785D01*
X141722845Y-93102868D01*
X141668540Y-93100826D01*
X141625307Y-93097928D01*
X141597867Y-93094441D01*
X141592398Y-93092952D01*
X141571368Y-93074516D01*
X141567210Y-93053826D01*
X141569874Y-93032923D01*
X141577014Y-92996357D01*
X141587354Y-92949388D01*
X141599618Y-92897273D01*
X141612529Y-92845271D01*
X141624811Y-92798640D01*
X141635189Y-92762638D01*
X141642384Y-92742523D01*
X141643083Y-92741245D01*
X141649650Y-92721617D01*
X141652796Y-92701526D01*
X141656330Y-92682361D01*
X141664725Y-92645364D01*
X141666039Y-92639929D01*
X142529925Y-92639929D01*
X142535522Y-92645526D01*
X142541120Y-92639929D01*
X142535522Y-92634332D01*
X142529925Y-92639929D01*
X141666039Y-92639929D01*
X141677063Y-92594334D01*
X141692421Y-92533067D01*
X141709878Y-92465361D01*
X141712532Y-92455222D01*
X141728927Y-92392456D01*
X142149317Y-92392456D01*
X142159749Y-92395614D01*
X142188037Y-92397624D01*
X142229668Y-92398297D01*
X142272455Y-92397667D01*
X142321938Y-92395522D01*
X142361927Y-92392274D01*
X142387904Y-92388390D01*
X142395593Y-92384924D01*
X142402408Y-92380207D01*
X142405427Y-92381618D01*
X142418074Y-92377775D01*
X142441203Y-92361702D01*
X142466026Y-92340300D01*
X142506952Y-92292171D01*
X142525816Y-92244379D01*
X142522912Y-92196021D01*
X142517666Y-92180844D01*
X142508850Y-92154270D01*
X142506601Y-92136457D01*
X142506662Y-92136183D01*
X142504343Y-92130562D01*
X142501959Y-92132432D01*
X142487787Y-92133416D01*
X142462355Y-92126319D01*
X142456608Y-92124036D01*
X142423124Y-92115467D01*
X142374195Y-92109926D01*
X142322912Y-92108197D01*
X142276467Y-92108506D01*
X142247391Y-92110383D01*
X142230663Y-92115252D01*
X142221264Y-92124539D01*
X142214456Y-92138982D01*
X142203294Y-92172260D01*
X142197454Y-92197752D01*
X142192329Y-92222428D01*
X142183013Y-92260487D01*
X142171500Y-92303796D01*
X142171219Y-92304812D01*
X142160534Y-92344485D01*
X142152736Y-92375528D01*
X142149354Y-92391825D01*
X142149317Y-92392456D01*
X141728927Y-92392456D01*
X141730381Y-92386891D01*
X141746545Y-92324474D01*
X141760052Y-92271770D01*
X141769929Y-92232575D01*
X141775206Y-92210685D01*
X141775529Y-92209185D01*
X141783878Y-92185433D01*
X141792160Y-92174707D01*
X141798749Y-92159900D01*
X141797363Y-92152080D01*
X141798103Y-92136035D01*
X141804004Y-92102750D01*
X141814164Y-92056537D01*
X141827679Y-92001707D01*
X141833520Y-91979462D01*
X141875363Y-91822741D01*
X142211040Y-91819411D01*
X142325616Y-91818784D01*
X142423921Y-91819308D01*
G37*
G36*
X145152411Y-91822964D02*
G01*
X145241113Y-91823687D01*
X145311699Y-91824990D01*
X145366300Y-91826951D01*
X145407052Y-91829650D01*
X145436088Y-91833166D01*
X145455541Y-91837579D01*
X145457250Y-91838144D01*
X145496319Y-91852635D01*
X145537037Y-91869391D01*
X145573380Y-91885734D01*
X145599325Y-91898987D01*
X145608374Y-91905333D01*
X145621794Y-91915797D01*
X145636360Y-91924564D01*
X145673924Y-91956701D01*
X145703904Y-92005118D01*
X145723339Y-92064190D01*
X145728506Y-92099729D01*
X145725089Y-92183326D01*
X145701832Y-92259145D01*
X145660088Y-92324671D01*
X145601214Y-92377393D01*
X145568283Y-92396895D01*
X145527109Y-92418018D01*
X145568495Y-92443596D01*
X145619518Y-92487718D01*
X145656121Y-92545884D01*
X145676578Y-92613693D01*
X145679162Y-92686745D01*
X145675070Y-92715113D01*
X145665637Y-92751181D01*
X145651621Y-92791031D01*
X145635359Y-92829530D01*
X145619188Y-92861548D01*
X145605447Y-92881953D01*
X145597148Y-92886186D01*
X145587369Y-92891279D01*
X145577134Y-92907921D01*
X145561096Y-92929389D01*
X145533409Y-92955051D01*
X145514468Y-92969305D01*
X145482370Y-92989483D01*
X145446268Y-93009340D01*
X145411270Y-93026468D01*
X145382487Y-93038456D01*
X145365026Y-93042896D01*
X145362098Y-93041158D01*
X145355303Y-93041145D01*
X145348105Y-93046152D01*
X145331065Y-93053776D01*
X145298316Y-93063698D01*
X145256153Y-93074068D01*
X145244557Y-93076582D01*
X145212110Y-93082335D01*
X145172677Y-93087125D01*
X145123673Y-93091091D01*
X145062512Y-93094375D01*
X144986608Y-93097115D01*
X144893375Y-93099452D01*
X144785589Y-93101439D01*
X144684814Y-93103028D01*
X144604002Y-93104107D01*
X144540730Y-93104576D01*
X144492576Y-93104335D01*
X144457118Y-93103282D01*
X144431932Y-93101316D01*
X144414597Y-93098337D01*
X144402690Y-93094244D01*
X144393789Y-93088937D01*
X144388624Y-93084916D01*
X144361074Y-93062401D01*
X144381588Y-92974303D01*
X144392440Y-92931377D01*
X144402853Y-92896404D01*
X144410935Y-92875600D01*
X144412330Y-92873390D01*
X144420326Y-92855949D01*
X144420280Y-92851002D01*
X144420602Y-92832784D01*
X144425377Y-92805880D01*
X144429782Y-92789189D01*
X144852531Y-92789189D01*
X144861414Y-92799004D01*
X144885195Y-92802765D01*
X144927563Y-92804537D01*
X144927722Y-92804543D01*
X144994696Y-92805825D01*
X145053731Y-92804245D01*
X145099925Y-92800061D01*
X145127016Y-92794077D01*
X145150653Y-92786468D01*
X145157397Y-92784815D01*
X145184145Y-92772472D01*
X145213830Y-92749806D01*
X145237686Y-92724263D01*
X145245929Y-92709603D01*
X145252428Y-92679376D01*
X145254987Y-92651123D01*
X145252759Y-92629239D01*
X145241163Y-92614524D01*
X145214713Y-92600879D01*
X145206837Y-92597612D01*
X145165834Y-92586041D01*
X145107392Y-92576822D01*
X145037394Y-92570787D01*
X144984204Y-92567931D01*
X144948940Y-92567080D01*
X144927180Y-92568884D01*
X144914503Y-92573995D01*
X144906486Y-92583063D01*
X144902051Y-92590715D01*
X144891911Y-92615585D01*
X144890077Y-92631533D01*
X144886076Y-92644377D01*
X144881980Y-92645526D01*
X144874330Y-92655165D01*
X144871920Y-92676365D01*
X144869495Y-92711342D01*
X144864686Y-92735135D01*
X144854852Y-92769254D01*
X144852531Y-92789189D01*
X144429782Y-92789189D01*
X144432482Y-92778960D01*
X144439795Y-92760691D01*
X144443188Y-92757470D01*
X144448640Y-92747632D01*
X144451834Y-92723535D01*
X144451996Y-92719419D01*
X144455802Y-92689048D01*
X144464694Y-92646866D01*
X144475988Y-92604677D01*
X144483487Y-92578801D01*
X144492490Y-92546151D01*
X144503473Y-92504860D01*
X144516913Y-92453061D01*
X144533287Y-92388888D01*
X144553069Y-92310473D01*
X144562712Y-92271964D01*
X144984940Y-92271964D01*
X144990155Y-92284964D01*
X145006325Y-92290555D01*
X145030717Y-92294560D01*
X145053785Y-92296014D01*
X145082339Y-92294794D01*
X145123191Y-92290778D01*
X145147547Y-92288008D01*
X145214024Y-92274311D01*
X145260545Y-92250816D01*
X145287382Y-92217325D01*
X145294932Y-92179154D01*
X145289401Y-92149718D01*
X145271246Y-92129107D01*
X145238126Y-92116380D01*
X145187699Y-92110594D01*
X145124434Y-92110579D01*
X145021601Y-92113794D01*
X145008792Y-92158572D01*
X144998152Y-92199603D01*
X144989150Y-92240456D01*
X144988383Y-92244503D01*
X144984940Y-92271964D01*
X144562712Y-92271964D01*
X144576738Y-92215950D01*
X144604768Y-92103451D01*
X144635562Y-91979462D01*
X145653151Y-91979462D01*
X145658749Y-91985059D01*
X145664346Y-91979462D01*
X145658749Y-91973865D01*
X145653151Y-91979462D01*
X144635562Y-91979462D01*
X144637636Y-91971110D01*
X144638342Y-91968268D01*
X144674442Y-91822741D01*
X145043457Y-91822741D01*
X145152411Y-91822964D01*
G37*
G36*
X136836943Y-92780148D02*
G01*
X136909940Y-92780965D01*
X136972272Y-92782233D01*
X137021097Y-92783875D01*
X137053571Y-92785815D01*
X137066852Y-92787975D01*
X137067021Y-92788254D01*
X137062174Y-92801585D01*
X137050370Y-92823285D01*
X137035571Y-92847141D01*
X137021736Y-92866937D01*
X137012826Y-92876459D01*
X137011456Y-92875442D01*
X137006902Y-92877429D01*
X136995841Y-92895061D01*
X136990066Y-92905949D01*
X136970450Y-92937939D01*
X136942424Y-92975757D01*
X136910234Y-93014537D01*
X136878123Y-93049412D01*
X136850336Y-93075515D01*
X136831370Y-93087902D01*
X136813574Y-93099469D01*
X136809608Y-93108698D01*
X136801785Y-93122143D01*
X136780952Y-93145834D01*
X136751063Y-93175407D01*
X136739643Y-93185933D01*
X136703768Y-93217145D01*
X136664313Y-93249449D01*
X136624956Y-93280101D01*
X136589378Y-93306355D01*
X136561256Y-93325469D01*
X136544271Y-93334696D01*
X136540943Y-93334159D01*
X136534006Y-93335998D01*
X136517234Y-93349603D01*
X136516444Y-93350335D01*
X136492289Y-93366993D01*
X136472223Y-93373160D01*
X136450473Y-93381254D01*
X136443549Y-93389016D01*
X136431006Y-93399190D01*
X136403374Y-93416255D01*
X136365785Y-93437497D01*
X136323373Y-93460199D01*
X136281270Y-93481647D01*
X136244610Y-93499125D01*
X136218525Y-93509916D01*
X136211206Y-93511934D01*
X136190615Y-93519065D01*
X136188321Y-93520330D01*
X136166915Y-93529947D01*
X136136457Y-93540511D01*
X136105561Y-93549409D01*
X136082836Y-93554029D01*
X136077403Y-93553973D01*
X136062651Y-93558844D01*
X136060612Y-93561389D01*
X136046194Y-93570356D01*
X136016873Y-93581537D01*
X135979722Y-93592862D01*
X135941812Y-93602261D01*
X135910216Y-93607662D01*
X135900582Y-93608241D01*
X135875157Y-93612493D01*
X135862797Y-93619203D01*
X135843283Y-93628449D01*
X135805132Y-93638038D01*
X135752086Y-93647602D01*
X135687887Y-93656770D01*
X135616277Y-93665173D01*
X135540995Y-93672438D01*
X135465785Y-93678198D01*
X135394386Y-93682081D01*
X135330541Y-93683718D01*
X135277990Y-93682737D01*
X135247995Y-93680027D01*
X135104011Y-93655006D01*
X134970520Y-93623255D01*
X134849829Y-93585603D01*
X134744245Y-93542881D01*
X134656076Y-93495918D01*
X134587628Y-93445543D01*
X134582235Y-93440610D01*
X134558364Y-93420025D01*
X134540884Y-93408012D01*
X134537129Y-93406743D01*
X134525379Y-93398855D01*
X134505386Y-93378780D01*
X134493146Y-93364764D01*
X134469409Y-93336447D01*
X134449978Y-93313345D01*
X134444410Y-93306760D01*
X134427703Y-93284985D01*
X134406269Y-93254335D01*
X134383805Y-93220485D01*
X134364006Y-93189108D01*
X134350570Y-93165879D01*
X134346885Y-93157054D01*
X134342561Y-93142228D01*
X134331668Y-93115122D01*
X134325269Y-93100673D01*
X134315812Y-93074563D01*
X134304880Y-93036372D01*
X134293666Y-92991515D01*
X134283365Y-92945407D01*
X134275172Y-92903463D01*
X134270281Y-92871097D01*
X134269887Y-92853725D01*
X134270512Y-92852464D01*
X134276949Y-92859929D01*
X134290952Y-92883076D01*
X134309986Y-92917606D01*
X134318953Y-92934624D01*
X134340837Y-92974717D01*
X134360446Y-93007138D01*
X134374533Y-93026639D01*
X134377633Y-93029489D01*
X134390357Y-93043590D01*
X134391626Y-93048631D01*
X134399251Y-93060978D01*
X134419162Y-93083214D01*
X134444800Y-93108380D01*
X134477490Y-93137823D01*
X134513628Y-93168771D01*
X134549336Y-93198119D01*
X134580732Y-93222762D01*
X134603936Y-93239594D01*
X134615069Y-93245511D01*
X134615514Y-93244994D01*
X134624683Y-93246866D01*
X134648953Y-93256855D01*
X134683471Y-93272927D01*
X134691076Y-93276642D01*
X134737962Y-93296587D01*
X134796371Y-93316997D01*
X134855803Y-93334301D01*
X134872984Y-93338520D01*
X134914252Y-93346604D01*
X134965492Y-93354416D01*
X135022526Y-93361585D01*
X135081179Y-93367743D01*
X135137274Y-93372522D01*
X135186635Y-93375553D01*
X135225086Y-93376466D01*
X135248450Y-93374894D01*
X135253592Y-93372134D01*
X135263958Y-93368448D01*
X135291809Y-93364173D01*
X135332279Y-93359966D01*
X135359207Y-93357846D01*
X135438629Y-93349354D01*
X135526309Y-93335121D01*
X135615837Y-93316582D01*
X135700802Y-93295172D01*
X135774795Y-93272328D01*
X135820599Y-93254513D01*
X135846665Y-93243892D01*
X135863245Y-93238885D01*
X135864078Y-93238827D01*
X135878572Y-93233768D01*
X135907679Y-93220287D01*
X135946490Y-93200928D01*
X135990100Y-93178235D01*
X136033602Y-93154751D01*
X136072088Y-93133020D01*
X136095917Y-93118639D01*
X136174841Y-93062840D01*
X136252534Y-92997581D01*
X136321254Y-92929653D01*
X136352359Y-92893692D01*
X136382030Y-92856932D01*
X136407989Y-92824914D01*
X136425732Y-92803191D01*
X136428689Y-92799619D01*
X136435185Y-92793766D01*
X136445466Y-92789188D01*
X136462094Y-92785732D01*
X136487633Y-92783244D01*
X136524645Y-92781567D01*
X136575692Y-92780548D01*
X136643337Y-92780032D01*
X136730143Y-92779864D01*
X136756124Y-92779859D01*
X136836943Y-92780148D01*
G37*
G36*
X135595020Y-92001227D02*
G01*
X135678859Y-92007134D01*
X135745569Y-92020274D01*
X135799645Y-92042071D01*
X135845581Y-92073948D01*
X135856851Y-92084164D01*
X135897289Y-92125699D01*
X135922622Y-92161933D01*
X135936149Y-92200317D01*
X135941169Y-92248302D01*
X135941530Y-92275395D01*
X135940099Y-92323567D01*
X135934442Y-92359611D01*
X135922064Y-92393721D01*
X135903627Y-92430240D01*
X135878674Y-92470746D01*
X135849526Y-92509125D01*
X135819823Y-92541572D01*
X135793203Y-92564278D01*
X135773307Y-92573438D01*
X135767802Y-92572311D01*
X135759663Y-92574033D01*
X135759859Y-92579691D01*
X135751965Y-92591826D01*
X135727341Y-92606757D01*
X135691126Y-92622476D01*
X135648457Y-92636973D01*
X135604474Y-92648242D01*
X135570499Y-92653718D01*
X135533087Y-92656108D01*
X135509051Y-92652293D01*
X135489792Y-92640338D01*
X135482684Y-92633963D01*
X135455045Y-92607998D01*
X135406265Y-92632359D01*
X135349081Y-92651435D01*
X135292643Y-92653372D01*
X135241877Y-92639010D01*
X135201709Y-92609193D01*
X135191319Y-92595649D01*
X135186796Y-92583957D01*
X135320758Y-92583957D01*
X135326355Y-92589555D01*
X135331953Y-92583957D01*
X135326355Y-92578360D01*
X135320758Y-92583957D01*
X135186796Y-92583957D01*
X135175455Y-92554637D01*
X135170432Y-92501936D01*
X135170618Y-92500080D01*
X135298494Y-92500080D01*
X135302108Y-92536225D01*
X135311803Y-92553733D01*
X135339715Y-92567041D01*
X135377735Y-92566119D01*
X135419580Y-92551986D01*
X135452930Y-92530784D01*
X135489473Y-92493510D01*
X135519817Y-92448038D01*
X135542245Y-92399214D01*
X135555039Y-92351879D01*
X135556483Y-92310877D01*
X135544861Y-92281050D01*
X135542407Y-92278351D01*
X135514539Y-92265055D01*
X135476305Y-92265529D01*
X135433684Y-92278246D01*
X135392658Y-92301678D01*
X135369029Y-92322625D01*
X135341442Y-92360632D01*
X135319559Y-92406639D01*
X135304777Y-92455004D01*
X135298494Y-92500080D01*
X135170618Y-92500080D01*
X135176100Y-92445357D01*
X135192309Y-92392717D01*
X135195339Y-92386251D01*
X135234976Y-92324079D01*
X135287303Y-92268600D01*
X135347612Y-92223194D01*
X135411191Y-92191242D01*
X135473332Y-92176121D01*
X135489245Y-92175363D01*
X135511616Y-92176507D01*
X135532287Y-92181637D01*
X135558961Y-92193304D01*
X135587651Y-92207934D01*
X135609190Y-92215744D01*
X135623116Y-92208515D01*
X135627143Y-92203452D01*
X135641488Y-92192605D01*
X135667192Y-92188161D01*
X135704190Y-92188723D01*
X135767957Y-92192155D01*
X135722801Y-92292904D01*
X135700110Y-92343156D01*
X135677772Y-92391990D01*
X135659372Y-92431594D01*
X135653473Y-92444028D01*
X135633793Y-92485553D01*
X135622499Y-92511776D01*
X135618113Y-92527494D01*
X135619159Y-92537503D01*
X135622634Y-92544175D01*
X135640712Y-92554246D01*
X135670248Y-92547774D01*
X135708852Y-92525806D01*
X135754131Y-92489391D01*
X135760137Y-92483880D01*
X135790686Y-92453380D01*
X135813388Y-92426737D01*
X135824146Y-92408859D01*
X135824504Y-92406698D01*
X135829815Y-92387839D01*
X135833920Y-92383558D01*
X135840919Y-92368316D01*
X135844808Y-92337761D01*
X135845666Y-92298737D01*
X135843571Y-92258092D01*
X135838602Y-92222673D01*
X135831832Y-92201104D01*
X135794423Y-92152160D01*
X135740886Y-92115042D01*
X135675558Y-92092501D01*
X135655276Y-92089115D01*
X135587721Y-92084687D01*
X135515102Y-92087024D01*
X135445069Y-92095371D01*
X135385272Y-92108975D01*
X135359955Y-92118231D01*
X135331104Y-92130112D01*
X135312870Y-92135927D01*
X135309564Y-92135663D01*
X135302226Y-92137239D01*
X135282154Y-92152368D01*
X135252257Y-92178586D01*
X135215444Y-92213430D01*
X135201770Y-92226904D01*
X135145974Y-92293652D01*
X135106115Y-92365188D01*
X135082607Y-92438385D01*
X135075866Y-92510118D01*
X135086309Y-92577259D01*
X135114350Y-92636684D01*
X135142809Y-92670263D01*
X135198076Y-92708834D01*
X135268520Y-92736486D01*
X135349714Y-92753113D01*
X135437231Y-92758611D01*
X135526644Y-92752874D01*
X135613525Y-92735797D01*
X135693449Y-92707276D01*
X135736637Y-92684371D01*
X135780815Y-92660318D01*
X135818104Y-92648426D01*
X135853651Y-92645526D01*
X135907409Y-92645526D01*
X135864815Y-92689146D01*
X135799819Y-92742027D01*
X135717254Y-92786778D01*
X135641240Y-92815203D01*
X135586467Y-92827606D01*
X135517640Y-92836572D01*
X135442896Y-92841628D01*
X135370373Y-92842300D01*
X135308207Y-92838118D01*
X135291056Y-92835538D01*
X135192632Y-92809760D01*
X135112332Y-92771143D01*
X135057818Y-92727843D01*
X135025584Y-92692362D01*
X135008971Y-92664402D01*
X135005176Y-92638760D01*
X135005991Y-92631533D01*
X134998725Y-92623517D01*
X134995189Y-92623138D01*
X134987052Y-92615145D01*
X134987984Y-92609145D01*
X134988195Y-92588427D01*
X134983251Y-92569053D01*
X134978527Y-92534341D01*
X134982340Y-92485721D01*
X134993103Y-92429254D01*
X135009224Y-92371000D01*
X135029114Y-92317018D01*
X135051182Y-92273369D01*
X135066111Y-92253226D01*
X135082619Y-92232614D01*
X135088855Y-92218948D01*
X135088741Y-92218356D01*
X135094936Y-92204814D01*
X135116114Y-92182849D01*
X135148138Y-92155690D01*
X135186874Y-92126564D01*
X135228184Y-92098698D01*
X135267932Y-92075320D01*
X135279958Y-92069161D01*
X135357302Y-92035014D01*
X135427051Y-92013573D01*
X135498403Y-92002854D01*
X135580556Y-92000874D01*
X135595020Y-92001227D01*
G37*
D11*
%TO.C,R2*%
X180087742Y-99527500D02*
X180562258Y-99527500D01*
X180087742Y-100572500D02*
X180562258Y-100572500D01*
D13*
%TO.C,Q1*%
X88600000Y-109770000D02*
X88600000Y-109770000D01*
X88600000Y-109870000D02*
X88600000Y-109870000D01*
X88600000Y-109770000D02*
G75*
G02*
X88600000Y-109870000I0J-50000D01*
G01*
X88600000Y-109870000D02*
G75*
G02*
X88600000Y-109770000I0J50000D01*
G01*
D11*
%TO.C,J3*%
X129790000Y-74240000D02*
X129790000Y-79850000D01*
X129790000Y-74240000D02*
X130640000Y-74240000D01*
X130640000Y-66540000D02*
X130640000Y-74240000D01*
X130640000Y-66540000D02*
X144660000Y-66540000D01*
X135200000Y-83960000D02*
X138940000Y-83960000D01*
X144660000Y-66540000D02*
X144660000Y-74240000D01*
X144660000Y-74240000D02*
X145510000Y-74240000D01*
X145510000Y-74240000D02*
X145510000Y-79850000D01*
X132660100Y-83808718D02*
G75*
G02*
X129790000Y-79850000I1239898J3918716D01*
G01*
X145510000Y-79850000D02*
G75*
G02*
X143516806Y-83372958I-4110000J0D01*
G01*
%TD*%
%LPC*%
D14*
%TO.C,J2*%
X115350000Y-71200000D03*
D15*
X117850000Y-71200000D03*
X120350000Y-71200000D03*
X122850000Y-71200000D03*
X125350000Y-71200000D03*
%TD*%
D16*
%TO.C,R1*%
X88600000Y-101825000D03*
X88600000Y-100175000D03*
%TD*%
D14*
%TO.C,J1*%
X150000000Y-71450000D03*
D15*
X152500000Y-71450000D03*
X155000000Y-71450000D03*
%TD*%
D17*
%TO.C,D1*%
X182300000Y-106030000D03*
D18*
X182300000Y-108570000D03*
%TD*%
D19*
%TO.C,R2*%
X179500000Y-100050000D03*
X181150000Y-100050000D03*
%TD*%
D20*
%TO.C,Q1*%
X88600000Y-108570000D03*
D21*
X88600000Y-106030000D03*
%TD*%
D22*
%TO.C,J3*%
X130900000Y-76000000D03*
X144400000Y-76000000D03*
D23*
X141250000Y-82000000D03*
D24*
X134050000Y-82000000D03*
%TD*%
%LPD*%
M02*
