%TF.GenerationSoftware,KiCad,Pcbnew,8.0.5*%
%TF.CreationDate,2025-12-24T19:30:48+09:00*%
%TF.ProjectId,Sub_board_V1.0,5375625f-626f-4617-9264-5f56312e302e,rev?*%
%TF.SameCoordinates,Original*%
%TF.FileFunction,Copper,L2,Bot*%
%TF.FilePolarity,Positive*%
%FSLAX46Y46*%
G04 Gerber Fmt 4.6, Leading zero omitted, Abs format (unit mm)*
G04 Created by KiCad (PCBNEW 8.0.5) date 2025-12-24 19:30:48*
%MOMM*%
%LPD*%
G01*
G04 APERTURE LIST*
G04 Aperture macros list*
%AMRoundRect*
0 Rectangle with rounded corners*
0 $1 Rounding radius*
0 $2 $3 $4 $5 $6 $7 $8 $9 X,Y pos of 4 corners*
0 Add a 4 corners polygon primitive as box body*
4,1,4,$2,$3,$4,$5,$6,$7,$8,$9,$2,$3,0*
0 Add four circle primitives for the rounded corners*
1,1,$1+$1,$2,$3*
1,1,$1+$1,$4,$5*
1,1,$1+$1,$6,$7*
1,1,$1+$1,$8,$9*
0 Add four rect primitives between the rounded corners*
20,1,$1+$1,$2,$3,$4,$5,0*
20,1,$1+$1,$4,$5,$6,$7,0*
20,1,$1+$1,$6,$7,$8,$9,0*
20,1,$1+$1,$8,$9,$2,$3,0*%
G04 Aperture macros list end*
%TA.AperFunction,ComponentPad*%
%ADD10RoundRect,0.250000X0.600000X0.750000X-0.600000X0.750000X-0.600000X-0.750000X0.600000X-0.750000X0*%
%TD*%
%TA.AperFunction,ComponentPad*%
%ADD11O,1.700000X2.000000*%
%TD*%
%TA.AperFunction,ComponentPad*%
%ADD12R,1.700000X1.700000*%
%TD*%
%TA.AperFunction,ComponentPad*%
%ADD13O,1.700000X1.700000*%
%TD*%
%TA.AperFunction,ComponentPad*%
%ADD14RoundRect,0.250000X0.600000X-0.600000X0.600000X0.600000X-0.600000X0.600000X-0.600000X-0.600000X0*%
%TD*%
%TA.AperFunction,ComponentPad*%
%ADD15C,1.700000*%
%TD*%
%TA.AperFunction,ComponentPad*%
%ADD16C,1.905000*%
%TD*%
%TA.AperFunction,ComponentPad*%
%ADD17C,1.600000*%
%TD*%
%TA.AperFunction,ComponentPad*%
%ADD18RoundRect,0.250000X0.600000X0.725000X-0.600000X0.725000X-0.600000X-0.725000X0.600000X-0.725000X0*%
%TD*%
%TA.AperFunction,ComponentPad*%
%ADD19O,1.700000X1.950000*%
%TD*%
%TA.AperFunction,ComponentPad*%
%ADD20C,2.400000*%
%TD*%
%TA.AperFunction,ComponentPad*%
%ADD21R,2.400000X2.400000*%
%TD*%
%TA.AperFunction,ComponentPad*%
%ADD22C,1.400000*%
%TD*%
%TA.AperFunction,ComponentPad*%
%ADD23R,3.500000X3.500000*%
%TD*%
%TA.AperFunction,ComponentPad*%
%ADD24C,3.500000*%
%TD*%
%TA.AperFunction,ComponentPad*%
%ADD25R,0.900000X2.000000*%
%TD*%
%TA.AperFunction,ComponentPad*%
%ADD26RoundRect,1.025000X-1.025000X-1.025000X1.025000X-1.025000X1.025000X1.025000X-1.025000X1.025000X0*%
%TD*%
%TA.AperFunction,ComponentPad*%
%ADD27C,4.100000*%
%TD*%
%TA.AperFunction,ViaPad*%
%ADD28C,0.800000*%
%TD*%
%TA.AperFunction,ViaPad*%
%ADD29C,0.600000*%
%TD*%
%TA.AperFunction,Conductor*%
%ADD30C,1.000000*%
%TD*%
%TA.AperFunction,Conductor*%
%ADD31C,0.750000*%
%TD*%
%TA.AperFunction,Conductor*%
%ADD32C,0.500000*%
%TD*%
G04 APERTURE END LIST*
D10*
%TO.P,J6,1,Pin_1*%
%TO.N,OUT1*%
X149000000Y-103975000D03*
D11*
%TO.P,J6,2,Pin_2*%
%TO.N,OUT2*%
X146500000Y-103975000D03*
%TD*%
D12*
%TO.P,J4,1,Pin_1*%
%TO.N,+9V*%
X182500000Y-137500000D03*
D13*
%TO.P,J4,2,Pin_2*%
%TO.N,OUT1*%
X182500000Y-134960000D03*
%TO.P,J4,3,Pin_3*%
%TO.N,OUT2*%
X182500000Y-132420000D03*
%TO.P,J4,4,Pin_4*%
%TO.N,OUT1*%
X182500000Y-129880000D03*
%TO.P,J4,5,Pin_5*%
%TO.N,OUT2*%
X182500000Y-127340000D03*
%TO.P,J4,6,Pin_6*%
%TO.N,GND*%
X182500000Y-124800000D03*
%TD*%
D14*
%TO.P,J1,1,Pin_1*%
%TO.N,PWM1*%
X194920000Y-106250000D03*
D15*
%TO.P,J1,2,Pin_2*%
%TO.N,PWM0*%
X194920000Y-103710000D03*
%TO.P,J1,3,Pin_3*%
%TO.N,PWM3*%
X197460000Y-106250000D03*
%TO.P,J1,4,Pin_4*%
%TO.N,PWM2*%
X197460000Y-103710000D03*
%TO.P,J1,5,Pin_5*%
%TO.N,+9V*%
X200000000Y-106250000D03*
%TO.P,J1,6,Pin_6*%
%TO.N,PWM4*%
X200000000Y-103710000D03*
%TO.P,J1,7,Pin_7*%
%TO.N,+9V*%
X202540000Y-106250000D03*
%TO.P,J1,8,Pin_8*%
%TO.N,GND*%
X202540000Y-103710000D03*
%TO.P,J1,9,Pin_9*%
X205080000Y-106250000D03*
%TO.P,J1,10,Pin_10*%
X205080000Y-103710000D03*
%TD*%
D12*
%TO.P,J9,1,Pin_1*%
%TO.N,+9V*%
X225120000Y-137500000D03*
D13*
%TO.P,J9,2,Pin_2*%
%TO.N,OUT3*%
X225120000Y-134960000D03*
%TO.P,J9,3,Pin_3*%
%TO.N,OUT4*%
X225120000Y-132420000D03*
%TO.P,J9,4,Pin_4*%
%TO.N,OUT3*%
X225120000Y-129880000D03*
%TO.P,J9,5,Pin_5*%
%TO.N,OUT4*%
X225120000Y-127340000D03*
%TO.P,J9,6,Pin_6*%
%TO.N,GND*%
X225120000Y-124800000D03*
%TD*%
D16*
%TO.P,SW1,1,A*%
%TO.N,+9V*%
X165000000Y-114000000D03*
%TO.P,SW1,2,B*%
%TO.N,Net-(SW1-B)*%
X162460000Y-114000000D03*
%TO.P,SW1,3,C*%
%TO.N,unconnected-(SW1-C-Pad3)*%
X159920000Y-114000000D03*
%TD*%
D17*
%TO.P,C8,1*%
%TO.N,+9V*%
X233500000Y-137500000D03*
%TO.P,C8,2*%
%TO.N,GND*%
X233500000Y-135000000D03*
%TD*%
%TO.P,C2,1*%
%TO.N,+9V*%
X191250000Y-137500000D03*
%TO.P,C2,2*%
%TO.N,GND*%
X191250000Y-140000000D03*
%TD*%
D18*
%TO.P,J3,1,Pin_1*%
%TO.N,GND*%
X238000000Y-104000000D03*
D19*
%TO.P,J3,2,Pin_2*%
%TO.N,unconnected-(J3-Pin_2-Pad2)*%
X235500000Y-104000000D03*
%TO.P,J3,3,Pin_3*%
%TO.N,PWM4*%
X233000000Y-104000000D03*
%TD*%
D20*
%TO.P,F1,1*%
%TO.N,Net-(SW1-B)*%
X156375000Y-103100000D03*
D21*
X156375000Y-106500000D03*
D20*
%TO.P,F1,2*%
%TO.N,Net-(J8-Pin_2)*%
X169845000Y-103100000D03*
X169845000Y-106500000D03*
%TD*%
D22*
%TO.P,J8,*%
%TO.N,*%
X175950000Y-103975000D03*
X186950000Y-103975000D03*
D23*
%TO.P,J8,1,Pin_1*%
%TO.N,GND*%
X183950000Y-113975000D03*
D24*
%TO.P,J8,2,Pin_2*%
%TO.N,Net-(J8-Pin_2)*%
X178950000Y-113975000D03*
%TD*%
D25*
%TO.P,J2,*%
%TO.N,*%
X214150000Y-110000000D03*
X227650000Y-110000000D03*
D26*
%TO.P,J2,1,Pin_1*%
%TO.N,GND*%
X224500000Y-116000000D03*
D27*
%TO.P,J2,2,Pin_2*%
%TO.N,+9V*%
X217300000Y-116000000D03*
%TD*%
D12*
%TO.P,J5,1,Pin_1*%
%TO.N,+5V*%
X174880000Y-137500000D03*
D13*
%TO.P,J5,2,Pin_2*%
%TO.N,GND*%
X174880000Y-134960000D03*
%TO.P,J5,3,Pin_3*%
%TO.N,PWM0*%
X174880000Y-132420000D03*
%TO.P,J5,4,Pin_4*%
%TO.N,PWM1*%
X174880000Y-129880000D03*
%TO.P,J5,5,Pin_5*%
%TO.N,PWM0*%
X174880000Y-127340000D03*
%TO.P,J5,6,Pin_6*%
%TO.N,PWM1*%
X174880000Y-124800000D03*
%TD*%
D12*
%TO.P,J10,1,Pin_1*%
%TO.N,+5V*%
X217500000Y-137500000D03*
D13*
%TO.P,J10,2,Pin_2*%
%TO.N,GND*%
X217500000Y-134960000D03*
%TO.P,J10,3,Pin_3*%
%TO.N,PWM2*%
X217500000Y-132420000D03*
%TO.P,J10,4,Pin_4*%
%TO.N,PWM3*%
X217500000Y-129880000D03*
%TO.P,J10,5,Pin_5*%
%TO.N,PWM2*%
X217500000Y-127340000D03*
%TO.P,J10,6,Pin_6*%
%TO.N,PWM3*%
X217500000Y-124800000D03*
%TD*%
D10*
%TO.P,J7,1,Pin_1*%
%TO.N,OUT3*%
X247500000Y-104000000D03*
D11*
%TO.P,J7,2,Pin_2*%
%TO.N,OUT4*%
X245000000Y-104000000D03*
%TD*%
D28*
%TO.N,+9V*%
X191250000Y-117975000D03*
X169475000Y-117975000D03*
D29*
%TO.N,GND*%
X256775000Y-101150000D03*
X252850000Y-108625000D03*
X196850000Y-101500000D03*
X238950000Y-110350000D03*
X167200000Y-101050000D03*
X154150000Y-133900000D03*
X208975000Y-133075000D03*
X159525000Y-128350000D03*
X182550000Y-108600000D03*
X195225000Y-110850000D03*
X242000000Y-136650000D03*
X177925000Y-143750000D03*
X217800000Y-120275000D03*
X210525000Y-145825000D03*
X163775000Y-125750000D03*
X262100000Y-101025000D03*
X241350000Y-101200000D03*
X203300000Y-108350000D03*
X219450000Y-144525000D03*
X163375000Y-109775000D03*
X262175000Y-123700000D03*
X248775000Y-132525000D03*
X223050000Y-110650000D03*
X165350000Y-139650000D03*
X138800000Y-115025000D03*
X190350000Y-128925000D03*
X220850000Y-131750000D03*
X235375000Y-140000000D03*
X163000000Y-105650000D03*
X168850000Y-114850000D03*
X232775000Y-113700000D03*
X211025000Y-129150000D03*
X207425000Y-109700000D03*
X229300000Y-102700000D03*
D28*
X171825000Y-135075000D03*
D29*
X178350000Y-136800000D03*
X261900000Y-111700000D03*
X139325000Y-110275000D03*
X173150000Y-142525000D03*
X254225000Y-129375000D03*
X146425000Y-119850000D03*
X197500000Y-146525000D03*
X199875000Y-121750000D03*
X189925000Y-115950000D03*
X222825000Y-102775000D03*
X218175000Y-109600000D03*
X229075000Y-133650000D03*
X221875000Y-137800000D03*
X229700000Y-141750000D03*
X177600000Y-104625000D03*
X232125000Y-130950000D03*
X252625000Y-121650000D03*
X169175000Y-112700000D03*
X186775000Y-101475000D03*
X245950000Y-120925000D03*
X170025000Y-133475000D03*
X148725000Y-131125000D03*
X234600000Y-129725000D03*
X212400000Y-115350000D03*
X177500000Y-124925000D03*
X197600000Y-115450000D03*
X177000000Y-116000000D03*
X252450000Y-101125000D03*
X177675000Y-101500000D03*
X231950000Y-108600000D03*
X246900000Y-101225000D03*
X152100000Y-125425000D03*
X259125000Y-125925000D03*
X143475000Y-126725000D03*
X244425000Y-127625000D03*
X160700000Y-137150000D03*
X200000000Y-117125000D03*
X236350000Y-112875000D03*
X186075000Y-124350000D03*
X212850000Y-102625000D03*
X138600000Y-119875000D03*
X186150000Y-133500000D03*
X185700000Y-145150000D03*
X262050000Y-116475000D03*
X220425000Y-124425000D03*
X234475000Y-101100000D03*
X255175000Y-114600000D03*
X138400000Y-104850000D03*
X232175000Y-117325000D03*
X207125000Y-114700000D03*
X187375000Y-106475000D03*
X207100000Y-123025000D03*
X160375000Y-101125000D03*
X178500000Y-132625000D03*
X261825000Y-106025000D03*
D28*
%TO.N,+5V*%
X199400000Y-138800000D03*
X175175000Y-119275000D03*
X194875000Y-135675000D03*
X195300000Y-119275000D03*
%TO.N,OUT1*%
X169125000Y-120675000D03*
X179300000Y-121475000D03*
%TO.N,OUT2*%
X170400000Y-122125000D03*
%TO.N,OUT4*%
X234275000Y-121725000D03*
X230775000Y-125225000D03*
%TO.N,OUT3*%
X236050000Y-124250000D03*
X232600000Y-127700000D03*
%TO.N,PWM3*%
X208275000Y-118625000D03*
%TD*%
D30*
%TO.N,+9V*%
X169475000Y-117975000D02*
X191250000Y-117975000D01*
D31*
%TO.N,+5V*%
X195300000Y-119275000D02*
X175175000Y-119275000D01*
X198000000Y-138800000D02*
X199400000Y-138800000D01*
X194875000Y-135675000D02*
X198000000Y-138800000D01*
D30*
%TO.N,OUT1*%
X178500000Y-120675000D02*
X179300000Y-121475000D01*
X169125000Y-120675000D02*
X178500000Y-120675000D01*
%TO.N,OUT2*%
X170400000Y-122125000D02*
X177285000Y-122125000D01*
X177285000Y-122125000D02*
X182500000Y-127340000D01*
%TO.N,OUT4*%
X230775000Y-125225000D02*
X234275000Y-121725000D01*
%TO.N,OUT3*%
X232600000Y-127700000D02*
X236050000Y-124250000D01*
D32*
%TO.N,PWM3*%
X197460000Y-106250000D02*
X197460000Y-107810000D01*
X197460000Y-107810000D02*
X208275000Y-118625000D01*
%TO.N,PWM2*%
X199845000Y-101325000D02*
X207100000Y-101325000D01*
X197460000Y-103710000D02*
X199845000Y-101325000D01*
X207100000Y-101325000D02*
X210050000Y-104275000D01*
X210050000Y-104275000D02*
X210050000Y-119890000D01*
X210050000Y-119890000D02*
X217500000Y-127340000D01*
X215450000Y-125290000D02*
X215450000Y-130370000D01*
X215450000Y-130370000D02*
X217500000Y-132420000D01*
%TD*%
%TA.AperFunction,Conductor*%
%TO.N,GND*%
G36*
X199386353Y-100520185D02*
G01*
X199432108Y-100572989D01*
X199442052Y-100642147D01*
X199413027Y-100705703D01*
X199388205Y-100727602D01*
X199366584Y-100742048D01*
X199366580Y-100742051D01*
X197771500Y-102337130D01*
X197710177Y-102370615D01*
X197673012Y-102372977D01*
X197460002Y-102354341D01*
X197459999Y-102354341D01*
X197224596Y-102374936D01*
X197224586Y-102374938D01*
X196996344Y-102436094D01*
X196996335Y-102436098D01*
X196782171Y-102535964D01*
X196782169Y-102535965D01*
X196588597Y-102671505D01*
X196421505Y-102838597D01*
X196291575Y-103024158D01*
X196236998Y-103067783D01*
X196167500Y-103074977D01*
X196105145Y-103043454D01*
X196088425Y-103024158D01*
X195958494Y-102838597D01*
X195791402Y-102671506D01*
X195791395Y-102671501D01*
X195789181Y-102669951D01*
X195722763Y-102623444D01*
X195597834Y-102535967D01*
X195597830Y-102535965D01*
X195574318Y-102525001D01*
X195383663Y-102436097D01*
X195383659Y-102436096D01*
X195383655Y-102436094D01*
X195155413Y-102374938D01*
X195155403Y-102374936D01*
X194920001Y-102354341D01*
X194919999Y-102354341D01*
X194684596Y-102374936D01*
X194684586Y-102374938D01*
X194456344Y-102436094D01*
X194456335Y-102436098D01*
X194242171Y-102535964D01*
X194242169Y-102535965D01*
X194048597Y-102671505D01*
X193881505Y-102838597D01*
X193745965Y-103032169D01*
X193745964Y-103032171D01*
X193646098Y-103246335D01*
X193646094Y-103246344D01*
X193584938Y-103474586D01*
X193584936Y-103474596D01*
X193564341Y-103709999D01*
X193564341Y-103710000D01*
X193584936Y-103945403D01*
X193584938Y-103945413D01*
X193646094Y-104173655D01*
X193646096Y-104173659D01*
X193646097Y-104173663D01*
X193686300Y-104259878D01*
X193745965Y-104387830D01*
X193745967Y-104387834D01*
X193804462Y-104471373D01*
X193881505Y-104581401D01*
X194048599Y-104748495D01*
X194048604Y-104748499D01*
X194049968Y-104749643D01*
X194050407Y-104750303D01*
X194052427Y-104752323D01*
X194052021Y-104752728D01*
X194088669Y-104807815D01*
X194089776Y-104877676D01*
X194052937Y-104937046D01*
X194009267Y-104962336D01*
X194000669Y-104965184D01*
X194000663Y-104965187D01*
X193851342Y-105057289D01*
X193727289Y-105181342D01*
X193635187Y-105330663D01*
X193635185Y-105330668D01*
X193618701Y-105380414D01*
X193580001Y-105497203D01*
X193580001Y-105497204D01*
X193580000Y-105497204D01*
X193569500Y-105599983D01*
X193569500Y-106900001D01*
X193569501Y-106900018D01*
X193580000Y-107002796D01*
X193580001Y-107002799D01*
X193619303Y-107121402D01*
X193635186Y-107169334D01*
X193727288Y-107318656D01*
X193851344Y-107442712D01*
X194000666Y-107534814D01*
X194167203Y-107589999D01*
X194269991Y-107600500D01*
X195570008Y-107600499D01*
X195672797Y-107589999D01*
X195839334Y-107534814D01*
X195988656Y-107442712D01*
X196112712Y-107318656D01*
X196204814Y-107169334D01*
X196207662Y-107160738D01*
X196247429Y-107103294D01*
X196311944Y-107076468D01*
X196380720Y-107088779D01*
X196417483Y-107117766D01*
X196417677Y-107117573D01*
X196419313Y-107119209D01*
X196420354Y-107120030D01*
X196421501Y-107121398D01*
X196588595Y-107288492D01*
X196588598Y-107288494D01*
X196588599Y-107288495D01*
X196656623Y-107336125D01*
X196700248Y-107390701D01*
X196709500Y-107437700D01*
X196709500Y-107883918D01*
X196709500Y-107883920D01*
X196709499Y-107883920D01*
X196738340Y-108028907D01*
X196738343Y-108028917D01*
X196794914Y-108165491D01*
X196794916Y-108165495D01*
X196807709Y-108184642D01*
X196814022Y-108194090D01*
X196877049Y-108288418D01*
X196877052Y-108288421D01*
X207362228Y-118773595D01*
X207392478Y-118822958D01*
X207447818Y-118993277D01*
X207447821Y-118993284D01*
X207542467Y-119157216D01*
X207669129Y-119297888D01*
X207822265Y-119409148D01*
X207822270Y-119409151D01*
X207995192Y-119486142D01*
X207995197Y-119486144D01*
X208180354Y-119525500D01*
X208180355Y-119525500D01*
X208369644Y-119525500D01*
X208369646Y-119525500D01*
X208554803Y-119486144D01*
X208727730Y-119409151D01*
X208880871Y-119297888D01*
X209007533Y-119157216D01*
X209068113Y-119052287D01*
X209118680Y-119004073D01*
X209187287Y-118990849D01*
X209252151Y-119016817D01*
X209292680Y-119073731D01*
X209299500Y-119114288D01*
X209299500Y-119963918D01*
X209299500Y-119963920D01*
X209299499Y-119963920D01*
X209328340Y-120108907D01*
X209328343Y-120108917D01*
X209384914Y-120245492D01*
X209417812Y-120294727D01*
X209417813Y-120294730D01*
X209467046Y-120368414D01*
X209467052Y-120368421D01*
X214663181Y-125564549D01*
X214696666Y-125625872D01*
X214699500Y-125652230D01*
X214699500Y-130443918D01*
X214699500Y-130443920D01*
X214699499Y-130443920D01*
X214728340Y-130588907D01*
X214728343Y-130588917D01*
X214784913Y-130725490D01*
X214784914Y-130725491D01*
X214784916Y-130725495D01*
X214802222Y-130751395D01*
X214802225Y-130751399D01*
X214802226Y-130751401D01*
X214867051Y-130848420D01*
X214867052Y-130848421D01*
X216127130Y-132108498D01*
X216160615Y-132169821D01*
X216162977Y-132206986D01*
X216144341Y-132419997D01*
X216144341Y-132420000D01*
X216164936Y-132655403D01*
X216164938Y-132655413D01*
X216226094Y-132883655D01*
X216226096Y-132883659D01*
X216226097Y-132883663D01*
X216271915Y-132981919D01*
X216325965Y-133097830D01*
X216325967Y-133097834D01*
X216461501Y-133291395D01*
X216461506Y-133291402D01*
X216628597Y-133458493D01*
X216628603Y-133458498D01*
X216814594Y-133588730D01*
X216858219Y-133643307D01*
X216865413Y-133712805D01*
X216833890Y-133775160D01*
X216814595Y-133791880D01*
X216628922Y-133921890D01*
X216628920Y-133921891D01*
X216461891Y-134088920D01*
X216461886Y-134088926D01*
X216326400Y-134282420D01*
X216326399Y-134282422D01*
X216226570Y-134496507D01*
X216226567Y-134496513D01*
X216169364Y-134709999D01*
X216169364Y-134710000D01*
X217066988Y-134710000D01*
X217034075Y-134767007D01*
X217000000Y-134894174D01*
X217000000Y-135025826D01*
X217034075Y-135152993D01*
X217066988Y-135210000D01*
X216169364Y-135210000D01*
X216226567Y-135423486D01*
X216226570Y-135423492D01*
X216326399Y-135637578D01*
X216461894Y-135831082D01*
X216583946Y-135953134D01*
X216617431Y-136014457D01*
X216612447Y-136084149D01*
X216570575Y-136140082D01*
X216539598Y-136156997D01*
X216407671Y-136206202D01*
X216407664Y-136206206D01*
X216292455Y-136292452D01*
X216292452Y-136292455D01*
X216206206Y-136407664D01*
X216206202Y-136407671D01*
X216155908Y-136542517D01*
X216149501Y-136602116D01*
X216149501Y-136602123D01*
X216149500Y-136602135D01*
X216149500Y-138397870D01*
X216149501Y-138397876D01*
X216155908Y-138457483D01*
X216206202Y-138592328D01*
X216206206Y-138592335D01*
X216292452Y-138707544D01*
X216292455Y-138707547D01*
X216407664Y-138793793D01*
X216407671Y-138793797D01*
X216542517Y-138844091D01*
X216542516Y-138844091D01*
X216549444Y-138844835D01*
X216602127Y-138850500D01*
X218397872Y-138850499D01*
X218457483Y-138844091D01*
X218592331Y-138793796D01*
X218707546Y-138707546D01*
X218793796Y-138592331D01*
X218844091Y-138457483D01*
X218850500Y-138397873D01*
X218850499Y-136602128D01*
X218844091Y-136542517D01*
X218793796Y-136407669D01*
X218793795Y-136407668D01*
X218793793Y-136407664D01*
X218707547Y-136292455D01*
X218707544Y-136292452D01*
X218592335Y-136206206D01*
X218592328Y-136206202D01*
X218460401Y-136156997D01*
X218404467Y-136115126D01*
X218380050Y-136049662D01*
X218394902Y-135981389D01*
X218416053Y-135953133D01*
X218538108Y-135831078D01*
X218673600Y-135637578D01*
X218773429Y-135423492D01*
X218773432Y-135423486D01*
X218830636Y-135210000D01*
X217933012Y-135210000D01*
X217965925Y-135152993D01*
X218000000Y-135025826D01*
X218000000Y-134894174D01*
X217965925Y-134767007D01*
X217933012Y-134710000D01*
X218830636Y-134710000D01*
X218830635Y-134709999D01*
X218773432Y-134496513D01*
X218773429Y-134496507D01*
X218673600Y-134282422D01*
X218673599Y-134282420D01*
X218538113Y-134088926D01*
X218538108Y-134088920D01*
X218371078Y-133921890D01*
X218185405Y-133791879D01*
X218141780Y-133737302D01*
X218134588Y-133667804D01*
X218166110Y-133605449D01*
X218185406Y-133588730D01*
X218185842Y-133588425D01*
X218371401Y-133458495D01*
X218538495Y-133291401D01*
X218674035Y-133097830D01*
X218773903Y-132883663D01*
X218835063Y-132655408D01*
X218855659Y-132420000D01*
X218835063Y-132184592D01*
X218773903Y-131956337D01*
X218674035Y-131742171D01*
X218538495Y-131548599D01*
X218538494Y-131548597D01*
X218371402Y-131381506D01*
X218371396Y-131381501D01*
X218185842Y-131251575D01*
X218142217Y-131196998D01*
X218135023Y-131127500D01*
X218166546Y-131065145D01*
X218185842Y-131048425D01*
X218208026Y-131032891D01*
X218371401Y-130918495D01*
X218538495Y-130751401D01*
X218674035Y-130557830D01*
X218773903Y-130343663D01*
X218835063Y-130115408D01*
X218855659Y-129880000D01*
X218835063Y-129644592D01*
X218773903Y-129416337D01*
X218674035Y-129202171D01*
X218538495Y-129008599D01*
X218538494Y-129008597D01*
X218371402Y-128841506D01*
X218371396Y-128841501D01*
X218185842Y-128711575D01*
X218142217Y-128656998D01*
X218135023Y-128587500D01*
X218166546Y-128525145D01*
X218185842Y-128508425D01*
X218230527Y-128477136D01*
X218371401Y-128378495D01*
X218538495Y-128211401D01*
X218674035Y-128017830D01*
X218773903Y-127803663D01*
X218835063Y-127575408D01*
X218855659Y-127340000D01*
X218855659Y-127339999D01*
X223764341Y-127339999D01*
X223764341Y-127340000D01*
X223784936Y-127575403D01*
X223784938Y-127575413D01*
X223846094Y-127803655D01*
X223846096Y-127803659D01*
X223846097Y-127803663D01*
X223933840Y-127991828D01*
X223945965Y-128017830D01*
X223945967Y-128017834D01*
X224009934Y-128109187D01*
X224081501Y-128211396D01*
X224081506Y-128211402D01*
X224248597Y-128378493D01*
X224248603Y-128378498D01*
X224434158Y-128508425D01*
X224477783Y-128563002D01*
X224484977Y-128632500D01*
X224453454Y-128694855D01*
X224434158Y-128711575D01*
X224248597Y-128841505D01*
X224081505Y-129008597D01*
X223945965Y-129202169D01*
X223945964Y-129202171D01*
X223846098Y-129416335D01*
X223846094Y-129416344D01*
X223784938Y-129644586D01*
X223784936Y-129644596D01*
X223764341Y-129879999D01*
X223764341Y-129880000D01*
X223784936Y-130115403D01*
X223784938Y-130115413D01*
X223846094Y-130343655D01*
X223846096Y-130343659D01*
X223846097Y-130343663D01*
X223892847Y-130443918D01*
X223945965Y-130557830D01*
X223945967Y-130557834D01*
X224081501Y-130751395D01*
X224081505Y-130751401D01*
X224248597Y-130918493D01*
X224248603Y-130918498D01*
X224434158Y-131048425D01*
X224477783Y-131103002D01*
X224484977Y-131172500D01*
X224453454Y-131234855D01*
X224434158Y-131251575D01*
X224248597Y-131381505D01*
X224081505Y-131548597D01*
X223945965Y-131742169D01*
X223945964Y-131742171D01*
X223846098Y-131956335D01*
X223846094Y-131956344D01*
X223784938Y-132184586D01*
X223784936Y-132184596D01*
X223764341Y-132419999D01*
X223764341Y-132420000D01*
X223784936Y-132655403D01*
X223784938Y-132655413D01*
X223846094Y-132883655D01*
X223846096Y-132883659D01*
X223846097Y-132883663D01*
X223891915Y-132981919D01*
X223945965Y-133097830D01*
X223945967Y-133097834D01*
X224081501Y-133291395D01*
X224081506Y-133291402D01*
X224248597Y-133458493D01*
X224248603Y-133458498D01*
X224434158Y-133588425D01*
X224477783Y-133643002D01*
X224484977Y-133712500D01*
X224453454Y-133774855D01*
X224434158Y-133791575D01*
X224248597Y-133921505D01*
X224081505Y-134088597D01*
X223945965Y-134282169D01*
X223945964Y-134282171D01*
X223846098Y-134496335D01*
X223846094Y-134496344D01*
X223784938Y-134724586D01*
X223784936Y-134724596D01*
X223764341Y-134959999D01*
X223764341Y-134960000D01*
X223784936Y-135195403D01*
X223784938Y-135195413D01*
X223846094Y-135423655D01*
X223846096Y-135423659D01*
X223846097Y-135423663D01*
X223945847Y-135637578D01*
X223945965Y-135637830D01*
X223945967Y-135637834D01*
X224054281Y-135792521D01*
X224081501Y-135831396D01*
X224081506Y-135831402D01*
X224203430Y-135953326D01*
X224236915Y-136014649D01*
X224231931Y-136084341D01*
X224190059Y-136140274D01*
X224159083Y-136157189D01*
X224027669Y-136206203D01*
X224027664Y-136206206D01*
X223912455Y-136292452D01*
X223912452Y-136292455D01*
X223826206Y-136407664D01*
X223826202Y-136407671D01*
X223775908Y-136542517D01*
X223769501Y-136602116D01*
X223769501Y-136602123D01*
X223769500Y-136602135D01*
X223769500Y-138397870D01*
X223769501Y-138397876D01*
X223775908Y-138457483D01*
X223826202Y-138592328D01*
X223826206Y-138592335D01*
X223912452Y-138707544D01*
X223912455Y-138707547D01*
X224027664Y-138793793D01*
X224027671Y-138793797D01*
X224162517Y-138844091D01*
X224162516Y-138844091D01*
X224169444Y-138844835D01*
X224222127Y-138850500D01*
X226017872Y-138850499D01*
X226077483Y-138844091D01*
X226212331Y-138793796D01*
X226327546Y-138707546D01*
X226413796Y-138592331D01*
X226464091Y-138457483D01*
X226470500Y-138397873D01*
X226470499Y-137499998D01*
X232194532Y-137499998D01*
X232194532Y-137500001D01*
X232214364Y-137726686D01*
X232214366Y-137726697D01*
X232273258Y-137946488D01*
X232273261Y-137946497D01*
X232369431Y-138152732D01*
X232369432Y-138152734D01*
X232499954Y-138339141D01*
X232660858Y-138500045D01*
X232660861Y-138500047D01*
X232847266Y-138630568D01*
X233053504Y-138726739D01*
X233273308Y-138785635D01*
X233435230Y-138799801D01*
X233499998Y-138805468D01*
X233500000Y-138805468D01*
X233500002Y-138805468D01*
X233562499Y-138800000D01*
X233726692Y-138785635D01*
X233946496Y-138726739D01*
X234152734Y-138630568D01*
X234339139Y-138500047D01*
X234500047Y-138339139D01*
X234630568Y-138152734D01*
X234726739Y-137946496D01*
X234785635Y-137726692D01*
X234805468Y-137500000D01*
X234785635Y-137273308D01*
X234726739Y-137053504D01*
X234630568Y-136847266D01*
X234500047Y-136660861D01*
X234500045Y-136660858D01*
X234339141Y-136499954D01*
X234152734Y-136369432D01*
X234152730Y-136369430D01*
X234137022Y-136362105D01*
X234084583Y-136315931D01*
X234065433Y-136248737D01*
X234085650Y-136181857D01*
X234137028Y-136137340D01*
X234152481Y-136130134D01*
X234225471Y-136079024D01*
X233546447Y-135400000D01*
X233552661Y-135400000D01*
X233654394Y-135372741D01*
X233745606Y-135320080D01*
X233820080Y-135245606D01*
X233872741Y-135154394D01*
X233900000Y-135052661D01*
X233900000Y-135046447D01*
X234579024Y-135725471D01*
X234630136Y-135652478D01*
X234726264Y-135446331D01*
X234726269Y-135446317D01*
X234785139Y-135226610D01*
X234785141Y-135226599D01*
X234804966Y-135000002D01*
X234804966Y-134999997D01*
X234785141Y-134773400D01*
X234785139Y-134773389D01*
X234726269Y-134553682D01*
X234726264Y-134553668D01*
X234630136Y-134347521D01*
X234630132Y-134347513D01*
X234579025Y-134274526D01*
X233900000Y-134953551D01*
X233900000Y-134947339D01*
X233872741Y-134845606D01*
X233820080Y-134754394D01*
X233745606Y-134679920D01*
X233654394Y-134627259D01*
X233552661Y-134600000D01*
X233546448Y-134600000D01*
X234225472Y-133920974D01*
X234152478Y-133869863D01*
X233946331Y-133773735D01*
X233946317Y-133773730D01*
X233726610Y-133714860D01*
X233726599Y-133714858D01*
X233500002Y-133695034D01*
X233499998Y-133695034D01*
X233273400Y-133714858D01*
X233273389Y-133714860D01*
X233053682Y-133773730D01*
X233053673Y-133773734D01*
X232847516Y-133869866D01*
X232847512Y-133869868D01*
X232774526Y-133920973D01*
X232774526Y-133920974D01*
X233453553Y-134600000D01*
X233447339Y-134600000D01*
X233345606Y-134627259D01*
X233254394Y-134679920D01*
X233179920Y-134754394D01*
X233127259Y-134845606D01*
X233100000Y-134947339D01*
X233100000Y-134953552D01*
X232420974Y-134274526D01*
X232420973Y-134274526D01*
X232369868Y-134347512D01*
X232369866Y-134347516D01*
X232273734Y-134553673D01*
X232273730Y-134553682D01*
X232214860Y-134773389D01*
X232214858Y-134773400D01*
X232195034Y-134999997D01*
X232195034Y-135000002D01*
X232214858Y-135226599D01*
X232214860Y-135226610D01*
X232273730Y-135446317D01*
X232273735Y-135446331D01*
X232369863Y-135652478D01*
X232420974Y-135725472D01*
X233100000Y-135046446D01*
X233100000Y-135052661D01*
X233127259Y-135154394D01*
X233179920Y-135245606D01*
X233254394Y-135320080D01*
X233345606Y-135372741D01*
X233447339Y-135400000D01*
X233453553Y-135400000D01*
X232774526Y-136079025D01*
X232847513Y-136130132D01*
X232847515Y-136130133D01*
X232862973Y-136137341D01*
X232915413Y-136183513D01*
X232934566Y-136250706D01*
X232914351Y-136317587D01*
X232862979Y-136362104D01*
X232847270Y-136369429D01*
X232847265Y-136369432D01*
X232660858Y-136499954D01*
X232499954Y-136660858D01*
X232369432Y-136847265D01*
X232369431Y-136847267D01*
X232273261Y-137053502D01*
X232273258Y-137053511D01*
X232214366Y-137273302D01*
X232214364Y-137273313D01*
X232194532Y-137499998D01*
X226470499Y-137499998D01*
X226470499Y-136602128D01*
X226464091Y-136542517D01*
X226413796Y-136407669D01*
X226413795Y-136407668D01*
X226413793Y-136407664D01*
X226327547Y-136292455D01*
X226327544Y-136292452D01*
X226212335Y-136206206D01*
X226212328Y-136206202D01*
X226080917Y-136157189D01*
X226024983Y-136115318D01*
X226000566Y-136049853D01*
X226015418Y-135981580D01*
X226036563Y-135953332D01*
X226158495Y-135831401D01*
X226294035Y-135637830D01*
X226393903Y-135423663D01*
X226455063Y-135195408D01*
X226475659Y-134960000D01*
X226455063Y-134724592D01*
X226393903Y-134496337D01*
X226294035Y-134282171D01*
X226158495Y-134088599D01*
X226158494Y-134088597D01*
X225991402Y-133921506D01*
X225991396Y-133921501D01*
X225805842Y-133791575D01*
X225762217Y-133736998D01*
X225755023Y-133667500D01*
X225786546Y-133605145D01*
X225805842Y-133588425D01*
X225828026Y-133572891D01*
X225991401Y-133458495D01*
X226158495Y-133291401D01*
X226294035Y-133097830D01*
X226393903Y-132883663D01*
X226455063Y-132655408D01*
X226475659Y-132420000D01*
X226455063Y-132184592D01*
X226393903Y-131956337D01*
X226294035Y-131742171D01*
X226158495Y-131548599D01*
X226158494Y-131548597D01*
X225991402Y-131381506D01*
X225991396Y-131381501D01*
X225805842Y-131251575D01*
X225762217Y-131196998D01*
X225755023Y-131127500D01*
X225786546Y-131065145D01*
X225805842Y-131048425D01*
X225828026Y-131032891D01*
X225991401Y-130918495D01*
X226158495Y-130751401D01*
X226294035Y-130557830D01*
X226393903Y-130343663D01*
X226455063Y-130115408D01*
X226475659Y-129880000D01*
X226455063Y-129644592D01*
X226393903Y-129416337D01*
X226294035Y-129202171D01*
X226158495Y-129008599D01*
X226158494Y-129008597D01*
X225991402Y-128841506D01*
X225991396Y-128841501D01*
X225805842Y-128711575D01*
X225762217Y-128656998D01*
X225755023Y-128587500D01*
X225786546Y-128525145D01*
X225805842Y-128508425D01*
X225850527Y-128477136D01*
X225991401Y-128378495D01*
X226158495Y-128211401D01*
X226294035Y-128017830D01*
X226393903Y-127803663D01*
X226448084Y-127601455D01*
X231599500Y-127601455D01*
X231599500Y-127798544D01*
X231637947Y-127991828D01*
X231637949Y-127991836D01*
X231713367Y-128173910D01*
X231713372Y-128173920D01*
X231822860Y-128337780D01*
X231822863Y-128337784D01*
X231962215Y-128477136D01*
X231962219Y-128477139D01*
X232126079Y-128586627D01*
X232126083Y-128586629D01*
X232126086Y-128586631D01*
X232308164Y-128662051D01*
X232473081Y-128694855D01*
X232501455Y-128700499D01*
X232501458Y-128700500D01*
X232501460Y-128700500D01*
X232698542Y-128700500D01*
X232698543Y-128700499D01*
X232891836Y-128662051D01*
X233073914Y-128586631D01*
X233237781Y-128477139D01*
X236827139Y-124887781D01*
X236936631Y-124723914D01*
X237012051Y-124541836D01*
X237050500Y-124348540D01*
X237050500Y-124151460D01*
X237050500Y-124151457D01*
X237050499Y-124151455D01*
X237034292Y-124069977D01*
X237012051Y-123958164D01*
X236936631Y-123776086D01*
X236936629Y-123776083D01*
X236936627Y-123776079D01*
X236827139Y-123612219D01*
X236827136Y-123612215D01*
X236687784Y-123472863D01*
X236687780Y-123472860D01*
X236523920Y-123363372D01*
X236523910Y-123363367D01*
X236341836Y-123287949D01*
X236341828Y-123287947D01*
X236148543Y-123249500D01*
X236148540Y-123249500D01*
X235951460Y-123249500D01*
X235951457Y-123249500D01*
X235758171Y-123287947D01*
X235758163Y-123287949D01*
X235576089Y-123363367D01*
X235576079Y-123363372D01*
X235412219Y-123472860D01*
X235412215Y-123472863D01*
X231822863Y-127062215D01*
X231822860Y-127062219D01*
X231713372Y-127226079D01*
X231713367Y-127226089D01*
X231637949Y-127408163D01*
X231637947Y-127408171D01*
X231599500Y-127601455D01*
X226448084Y-127601455D01*
X226455063Y-127575408D01*
X226475659Y-127340000D01*
X226455063Y-127104592D01*
X226393903Y-126876337D01*
X226294035Y-126662171D01*
X226158495Y-126468599D01*
X226158494Y-126468597D01*
X225991402Y-126301506D01*
X225991401Y-126301505D01*
X225805405Y-126171269D01*
X225761781Y-126116692D01*
X225754588Y-126047193D01*
X225786110Y-125984839D01*
X225805405Y-125968119D01*
X225991082Y-125838105D01*
X226158105Y-125671082D01*
X226293600Y-125477578D01*
X226393429Y-125263492D01*
X226393432Y-125263486D01*
X226430150Y-125126455D01*
X229774500Y-125126455D01*
X229774500Y-125323544D01*
X229812947Y-125516828D01*
X229812949Y-125516836D01*
X229888367Y-125698910D01*
X229888372Y-125698920D01*
X229997860Y-125862780D01*
X229997863Y-125862784D01*
X230137215Y-126002136D01*
X230137219Y-126002139D01*
X230301079Y-126111627D01*
X230301083Y-126111629D01*
X230301086Y-126111631D01*
X230483164Y-126187051D01*
X230676455Y-126225499D01*
X230676458Y-126225500D01*
X230676460Y-126225500D01*
X230873542Y-126225500D01*
X230873543Y-126225499D01*
X231066836Y-126187051D01*
X231248914Y-126111631D01*
X231412781Y-126002139D01*
X234672540Y-122742381D01*
X257994390Y-122742381D01*
X257994390Y-122742384D01*
X258014804Y-123027816D01*
X258075628Y-123307420D01*
X258075630Y-123307426D01*
X258075631Y-123307429D01*
X258157367Y-123526570D01*
X258175635Y-123575549D01*
X258312770Y-123826692D01*
X258312775Y-123826700D01*
X258484254Y-124055770D01*
X258484270Y-124055788D01*
X258686594Y-124258112D01*
X258686612Y-124258128D01*
X258915682Y-124429607D01*
X258915690Y-124429612D01*
X259166833Y-124566747D01*
X259166832Y-124566747D01*
X259166836Y-124566748D01*
X259166839Y-124566750D01*
X259434954Y-124666752D01*
X259434960Y-124666753D01*
X259434962Y-124666754D01*
X259714566Y-124727578D01*
X259714568Y-124727578D01*
X259714572Y-124727579D01*
X259968220Y-124745720D01*
X259999999Y-124747993D01*
X260000000Y-124747993D01*
X260000001Y-124747993D01*
X260028595Y-124745947D01*
X260285428Y-124727579D01*
X260297068Y-124725047D01*
X260565037Y-124666754D01*
X260565037Y-124666753D01*
X260565046Y-124666752D01*
X260833161Y-124566750D01*
X261084315Y-124429609D01*
X261313395Y-124258122D01*
X261515739Y-124055778D01*
X261687226Y-123826698D01*
X261824367Y-123575544D01*
X261924369Y-123307429D01*
X261985196Y-123027811D01*
X262005610Y-122742383D01*
X261985196Y-122456955D01*
X261980866Y-122437052D01*
X261924371Y-122177345D01*
X261924370Y-122177343D01*
X261924369Y-122177337D01*
X261824367Y-121909222D01*
X261777581Y-121823541D01*
X261687229Y-121658073D01*
X261687224Y-121658065D01*
X261515745Y-121428995D01*
X261515729Y-121428977D01*
X261313405Y-121226653D01*
X261313387Y-121226637D01*
X261084317Y-121055158D01*
X261084309Y-121055153D01*
X260833166Y-120918018D01*
X260833167Y-120918018D01*
X260725915Y-120878015D01*
X260565046Y-120818014D01*
X260565043Y-120818013D01*
X260565037Y-120818011D01*
X260285433Y-120757187D01*
X260000001Y-120736773D01*
X259999999Y-120736773D01*
X259714566Y-120757187D01*
X259434962Y-120818011D01*
X259166833Y-120918018D01*
X258915690Y-121055153D01*
X258915682Y-121055158D01*
X258686612Y-121226637D01*
X258686594Y-121226653D01*
X258484270Y-121428977D01*
X258484254Y-121428995D01*
X258312775Y-121658065D01*
X258312770Y-121658073D01*
X258175635Y-121909216D01*
X258075628Y-122177345D01*
X258014804Y-122456949D01*
X257994390Y-122742381D01*
X234672540Y-122742381D01*
X235052139Y-122362782D01*
X235161631Y-122198915D01*
X235237051Y-122016836D01*
X235275500Y-121823541D01*
X235275500Y-121626460D01*
X235275500Y-121626457D01*
X235275499Y-121626455D01*
X235240825Y-121452139D01*
X235237051Y-121433165D01*
X235161631Y-121251086D01*
X235161630Y-121251085D01*
X235161627Y-121251079D01*
X235052139Y-121087219D01*
X235052136Y-121087215D01*
X234912784Y-120947863D01*
X234912780Y-120947860D01*
X234748920Y-120838372D01*
X234748911Y-120838367D01*
X234566835Y-120762949D01*
X234566827Y-120762947D01*
X234373543Y-120724500D01*
X234373540Y-120724500D01*
X234176459Y-120724500D01*
X234176456Y-120724500D01*
X233983171Y-120762947D01*
X233983163Y-120762949D01*
X233801087Y-120838367D01*
X233801078Y-120838372D01*
X233637218Y-120947860D01*
X233637214Y-120947863D01*
X229997863Y-124587215D01*
X229997860Y-124587219D01*
X229888372Y-124751079D01*
X229888367Y-124751089D01*
X229812949Y-124933163D01*
X229812947Y-124933171D01*
X229774500Y-125126455D01*
X226430150Y-125126455D01*
X226450636Y-125050000D01*
X225553012Y-125050000D01*
X225585925Y-124992993D01*
X225620000Y-124865826D01*
X225620000Y-124734174D01*
X225585925Y-124607007D01*
X225553012Y-124550000D01*
X226450636Y-124550000D01*
X226450635Y-124549999D01*
X226393432Y-124336513D01*
X226393429Y-124336507D01*
X226293600Y-124122422D01*
X226293599Y-124122420D01*
X226158113Y-123928926D01*
X226158108Y-123928920D01*
X225991082Y-123761894D01*
X225797578Y-123626399D01*
X225583492Y-123526570D01*
X225583486Y-123526567D01*
X225370000Y-123469364D01*
X225370000Y-124366988D01*
X225312993Y-124334075D01*
X225185826Y-124300000D01*
X225054174Y-124300000D01*
X224927007Y-124334075D01*
X224870000Y-124366988D01*
X224870000Y-123469364D01*
X224869999Y-123469364D01*
X224656513Y-123526567D01*
X224656507Y-123526570D01*
X224442422Y-123626399D01*
X224442420Y-123626400D01*
X224248926Y-123761886D01*
X224248920Y-123761891D01*
X224081891Y-123928920D01*
X224081886Y-123928926D01*
X223946400Y-124122420D01*
X223946399Y-124122422D01*
X223846570Y-124336507D01*
X223846567Y-124336513D01*
X223789364Y-124549999D01*
X223789364Y-124550000D01*
X224686988Y-124550000D01*
X224654075Y-124607007D01*
X224620000Y-124734174D01*
X224620000Y-124865826D01*
X224654075Y-124992993D01*
X224686988Y-125050000D01*
X223789364Y-125050000D01*
X223846567Y-125263486D01*
X223846570Y-125263492D01*
X223946399Y-125477578D01*
X224081894Y-125671082D01*
X224248917Y-125838105D01*
X224434595Y-125968119D01*
X224478219Y-126022696D01*
X224485412Y-126092195D01*
X224453890Y-126154549D01*
X224434595Y-126171269D01*
X224248594Y-126301508D01*
X224081505Y-126468597D01*
X223945965Y-126662169D01*
X223945964Y-126662171D01*
X223846098Y-126876335D01*
X223846094Y-126876344D01*
X223784938Y-127104586D01*
X223784936Y-127104596D01*
X223764341Y-127339999D01*
X218855659Y-127339999D01*
X218835063Y-127104592D01*
X218773903Y-126876337D01*
X218674035Y-126662171D01*
X218538495Y-126468599D01*
X218538494Y-126468597D01*
X218371402Y-126301506D01*
X218371396Y-126301501D01*
X218185842Y-126171575D01*
X218142217Y-126116998D01*
X218135023Y-126047500D01*
X218166546Y-125985145D01*
X218185842Y-125968425D01*
X218208026Y-125952891D01*
X218371401Y-125838495D01*
X218538495Y-125671401D01*
X218674035Y-125477830D01*
X218773903Y-125263663D01*
X218835063Y-125035408D01*
X218855659Y-124800000D01*
X218835063Y-124564592D01*
X218773903Y-124336337D01*
X218674035Y-124122171D01*
X218672984Y-124120669D01*
X218538494Y-123928597D01*
X218371402Y-123761506D01*
X218371395Y-123761501D01*
X218177834Y-123625967D01*
X218177830Y-123625965D01*
X218148343Y-123612215D01*
X217963663Y-123526097D01*
X217963659Y-123526096D01*
X217963655Y-123526094D01*
X217735413Y-123464938D01*
X217735403Y-123464936D01*
X217500001Y-123444341D01*
X217499999Y-123444341D01*
X217264596Y-123464936D01*
X217264586Y-123464938D01*
X217036344Y-123526094D01*
X217036335Y-123526098D01*
X216822171Y-123625964D01*
X216822169Y-123625965D01*
X216628597Y-123761505D01*
X216461505Y-123928597D01*
X216325965Y-124122169D01*
X216325964Y-124122171D01*
X216226098Y-124336335D01*
X216226094Y-124336344D01*
X216164938Y-124564586D01*
X216164936Y-124564596D01*
X216157624Y-124648174D01*
X216132171Y-124713243D01*
X216075580Y-124754221D01*
X216005818Y-124758099D01*
X215946415Y-124725047D01*
X210836819Y-119615451D01*
X210803334Y-119554128D01*
X210800500Y-119527770D01*
X210800500Y-115999994D01*
X214744457Y-115999994D01*
X214744457Y-116000005D01*
X214764606Y-116320283D01*
X214764607Y-116320290D01*
X214824745Y-116635542D01*
X214923916Y-116940759D01*
X214923918Y-116940764D01*
X215060558Y-117231138D01*
X215060562Y-117231144D01*
X215232520Y-117502108D01*
X215232522Y-117502111D01*
X215437087Y-117749388D01*
X215437089Y-117749390D01*
X215618025Y-117919299D01*
X215671034Y-117969078D01*
X215671044Y-117969086D01*
X215930660Y-118157708D01*
X215930666Y-118157711D01*
X215930672Y-118157716D01*
X216211903Y-118312324D01*
X216510294Y-118430466D01*
X216510293Y-118430466D01*
X216745479Y-118490851D01*
X216821139Y-118510277D01*
X216887935Y-118518715D01*
X217139524Y-118550499D01*
X217139533Y-118550499D01*
X217139536Y-118550500D01*
X217139538Y-118550500D01*
X217460462Y-118550500D01*
X217460464Y-118550500D01*
X217460467Y-118550499D01*
X217460475Y-118550499D01*
X217650463Y-118526497D01*
X217778861Y-118510277D01*
X218089706Y-118430466D01*
X218388097Y-118312324D01*
X218669328Y-118157716D01*
X218928964Y-117969080D01*
X219162911Y-117749390D01*
X219367478Y-117502110D01*
X219539439Y-117231142D01*
X219676084Y-116940758D01*
X219775256Y-116635538D01*
X219835392Y-116320294D01*
X219835393Y-116320283D01*
X219855543Y-116000005D01*
X219855543Y-115999994D01*
X219835393Y-115679716D01*
X219835392Y-115679709D01*
X219835392Y-115679706D01*
X219775256Y-115364462D01*
X219676084Y-115059242D01*
X219634221Y-114970278D01*
X219603377Y-114904731D01*
X221950000Y-114904731D01*
X221950000Y-115750000D01*
X223172769Y-115750000D01*
X223150000Y-115893753D01*
X223150000Y-116106247D01*
X223172769Y-116250000D01*
X221950000Y-116250000D01*
X221950000Y-117095268D01*
X221960215Y-117239958D01*
X221960217Y-117239968D01*
X222014313Y-117480165D01*
X222014315Y-117480172D01*
X222106244Y-117708585D01*
X222233620Y-117919289D01*
X222233627Y-117919299D01*
X222393153Y-118106846D01*
X222580700Y-118266372D01*
X222580710Y-118266379D01*
X222791414Y-118393755D01*
X223019827Y-118485684D01*
X223019834Y-118485686D01*
X223260031Y-118539782D01*
X223260041Y-118539784D01*
X223404731Y-118549999D01*
X223404734Y-118550000D01*
X224250000Y-118550000D01*
X224250000Y-117327231D01*
X224393753Y-117350000D01*
X224606247Y-117350000D01*
X224750000Y-117327231D01*
X224750000Y-118550000D01*
X225595266Y-118550000D01*
X225595268Y-118549999D01*
X225739958Y-118539784D01*
X225739968Y-118539782D01*
X225980165Y-118485686D01*
X225980172Y-118485684D01*
X226208585Y-118393755D01*
X226419289Y-118266379D01*
X226419299Y-118266372D01*
X226606846Y-118106846D01*
X226766372Y-117919299D01*
X226766379Y-117919289D01*
X226893755Y-117708585D01*
X226985684Y-117480172D01*
X226985686Y-117480165D01*
X227039782Y-117239968D01*
X227039784Y-117239958D01*
X227049999Y-117095268D01*
X227050000Y-117095266D01*
X227050000Y-116250000D01*
X225827231Y-116250000D01*
X225850000Y-116106247D01*
X225850000Y-115893753D01*
X225827231Y-115750000D01*
X227050000Y-115750000D01*
X227050000Y-114904734D01*
X227049999Y-114904731D01*
X227039784Y-114760041D01*
X227039782Y-114760031D01*
X226985686Y-114519834D01*
X226985684Y-114519827D01*
X226893755Y-114291414D01*
X226766379Y-114080710D01*
X226766372Y-114080700D01*
X226606846Y-113893153D01*
X226419299Y-113733627D01*
X226419289Y-113733620D01*
X226208585Y-113606244D01*
X225980172Y-113514315D01*
X225980165Y-113514313D01*
X225739968Y-113460217D01*
X225739958Y-113460215D01*
X225595268Y-113450000D01*
X224750000Y-113450000D01*
X224750000Y-114672768D01*
X224606247Y-114650000D01*
X224393753Y-114650000D01*
X224250000Y-114672768D01*
X224250000Y-113450000D01*
X223404731Y-113450000D01*
X223260041Y-113460215D01*
X223260031Y-113460217D01*
X223019834Y-113514313D01*
X223019827Y-113514315D01*
X222791414Y-113606244D01*
X222580710Y-113733620D01*
X222580700Y-113733627D01*
X222393153Y-113893153D01*
X222233627Y-114080700D01*
X222233620Y-114080710D01*
X222106244Y-114291414D01*
X222014315Y-114519827D01*
X222014313Y-114519834D01*
X221960217Y-114760031D01*
X221960215Y-114760041D01*
X221950000Y-114904731D01*
X219603377Y-114904731D01*
X219539441Y-114768861D01*
X219539437Y-114768855D01*
X219533843Y-114760041D01*
X219367478Y-114497890D01*
X219367477Y-114497888D01*
X219162912Y-114250611D01*
X218981975Y-114080700D01*
X218928964Y-114030920D01*
X218928961Y-114030918D01*
X218928955Y-114030913D01*
X218669339Y-113842291D01*
X218669321Y-113842280D01*
X218388096Y-113687675D01*
X218388093Y-113687674D01*
X218089703Y-113569533D01*
X218089706Y-113569533D01*
X217778864Y-113489723D01*
X217778851Y-113489721D01*
X217460475Y-113449500D01*
X217460464Y-113449500D01*
X217139536Y-113449500D01*
X217139524Y-113449500D01*
X216821148Y-113489721D01*
X216821135Y-113489723D01*
X216510294Y-113569533D01*
X216211906Y-113687674D01*
X216211903Y-113687675D01*
X215930678Y-113842280D01*
X215930660Y-113842291D01*
X215671044Y-114030913D01*
X215671034Y-114030921D01*
X215437087Y-114250611D01*
X215232522Y-114497888D01*
X215232520Y-114497891D01*
X215060562Y-114768855D01*
X215060558Y-114768861D01*
X214923918Y-115059235D01*
X214923916Y-115059240D01*
X214824745Y-115364457D01*
X214764607Y-115679709D01*
X214764606Y-115679716D01*
X214744457Y-115999994D01*
X210800500Y-115999994D01*
X210800500Y-108952135D01*
X213199500Y-108952135D01*
X213199500Y-111047870D01*
X213199501Y-111047876D01*
X213205908Y-111107483D01*
X213256202Y-111242328D01*
X213256206Y-111242335D01*
X213342452Y-111357544D01*
X213342455Y-111357547D01*
X213457664Y-111443793D01*
X213457671Y-111443797D01*
X213592517Y-111494091D01*
X213592516Y-111494091D01*
X213599444Y-111494835D01*
X213652127Y-111500500D01*
X214647872Y-111500499D01*
X214707483Y-111494091D01*
X214842331Y-111443796D01*
X214957546Y-111357546D01*
X215043796Y-111242331D01*
X215094091Y-111107483D01*
X215100500Y-111047873D01*
X215100499Y-108952135D01*
X226699500Y-108952135D01*
X226699500Y-111047870D01*
X226699501Y-111047876D01*
X226705908Y-111107483D01*
X226756202Y-111242328D01*
X226756206Y-111242335D01*
X226842452Y-111357544D01*
X226842455Y-111357547D01*
X226957664Y-111443793D01*
X226957671Y-111443797D01*
X227092517Y-111494091D01*
X227092516Y-111494091D01*
X227099444Y-111494835D01*
X227152127Y-111500500D01*
X228147872Y-111500499D01*
X228207483Y-111494091D01*
X228342331Y-111443796D01*
X228457546Y-111357546D01*
X228543796Y-111242331D01*
X228594091Y-111107483D01*
X228600500Y-111047873D01*
X228600499Y-108952128D01*
X228594091Y-108892517D01*
X228543796Y-108757669D01*
X228543795Y-108757668D01*
X228543793Y-108757664D01*
X228457547Y-108642455D01*
X228457544Y-108642452D01*
X228342335Y-108556206D01*
X228342328Y-108556202D01*
X228207482Y-108505908D01*
X228207483Y-108505908D01*
X228147883Y-108499501D01*
X228147881Y-108499500D01*
X228147873Y-108499500D01*
X228147864Y-108499500D01*
X227152129Y-108499500D01*
X227152123Y-108499501D01*
X227092516Y-108505908D01*
X226957671Y-108556202D01*
X226957664Y-108556206D01*
X226842455Y-108642452D01*
X226842452Y-108642455D01*
X226756206Y-108757664D01*
X226756202Y-108757671D01*
X226705908Y-108892517D01*
X226699501Y-108952116D01*
X226699501Y-108952123D01*
X226699500Y-108952135D01*
X215100499Y-108952135D01*
X215100499Y-108952128D01*
X215094091Y-108892517D01*
X215043796Y-108757669D01*
X215043795Y-108757668D01*
X215043793Y-108757664D01*
X214957547Y-108642455D01*
X214957544Y-108642452D01*
X214842335Y-108556206D01*
X214842328Y-108556202D01*
X214707482Y-108505908D01*
X214707483Y-108505908D01*
X214647883Y-108499501D01*
X214647881Y-108499500D01*
X214647873Y-108499500D01*
X214647864Y-108499500D01*
X213652129Y-108499500D01*
X213652123Y-108499501D01*
X213592516Y-108505908D01*
X213457671Y-108556202D01*
X213457664Y-108556206D01*
X213342455Y-108642452D01*
X213342452Y-108642455D01*
X213256206Y-108757664D01*
X213256202Y-108757671D01*
X213205908Y-108892517D01*
X213199501Y-108952116D01*
X213199501Y-108952123D01*
X213199500Y-108952135D01*
X210800500Y-108952135D01*
X210800500Y-104201079D01*
X210771659Y-104056092D01*
X210771658Y-104056091D01*
X210771658Y-104056087D01*
X210738070Y-103974999D01*
X210715085Y-103919507D01*
X210657391Y-103833161D01*
X210657390Y-103833159D01*
X210632954Y-103796586D01*
X210632950Y-103796582D01*
X210605081Y-103768713D01*
X231649500Y-103768713D01*
X231649500Y-104231287D01*
X231653460Y-104256287D01*
X231677890Y-104410538D01*
X231682754Y-104441243D01*
X231746434Y-104637230D01*
X231748444Y-104643414D01*
X231844951Y-104832820D01*
X231969890Y-105004786D01*
X232120213Y-105155109D01*
X232292179Y-105280048D01*
X232292181Y-105280049D01*
X232292184Y-105280051D01*
X232481588Y-105376557D01*
X232683757Y-105442246D01*
X232893713Y-105475500D01*
X232893714Y-105475500D01*
X233106286Y-105475500D01*
X233106287Y-105475500D01*
X233316243Y-105442246D01*
X233518412Y-105376557D01*
X233707816Y-105280051D01*
X233746256Y-105252123D01*
X233879786Y-105155109D01*
X233879788Y-105155106D01*
X233879792Y-105155104D01*
X234030104Y-105004792D01*
X234149683Y-104840204D01*
X234205011Y-104797540D01*
X234274624Y-104791561D01*
X234336420Y-104824166D01*
X234350313Y-104840199D01*
X234449048Y-104976097D01*
X234469896Y-105004792D01*
X234620213Y-105155109D01*
X234792179Y-105280048D01*
X234792181Y-105280049D01*
X234792184Y-105280051D01*
X234981588Y-105376557D01*
X235183757Y-105442246D01*
X235393713Y-105475500D01*
X235393714Y-105475500D01*
X235606286Y-105475500D01*
X235606287Y-105475500D01*
X235816243Y-105442246D01*
X236018412Y-105376557D01*
X236207816Y-105280051D01*
X236326729Y-105193656D01*
X236379784Y-105155110D01*
X236379784Y-105155109D01*
X236379792Y-105155104D01*
X236518967Y-105015928D01*
X236580286Y-104982446D01*
X236649978Y-104987430D01*
X236705912Y-105029301D01*
X236712184Y-105038515D01*
X236807684Y-105193345D01*
X236931654Y-105317315D01*
X237080875Y-105409356D01*
X237080880Y-105409358D01*
X237247302Y-105464505D01*
X237247309Y-105464506D01*
X237350019Y-105474999D01*
X237749999Y-105474999D01*
X237750000Y-105474998D01*
X237750000Y-104404145D01*
X237816657Y-104442630D01*
X237937465Y-104475000D01*
X238062535Y-104475000D01*
X238183343Y-104442630D01*
X238250000Y-104404145D01*
X238250000Y-105474999D01*
X238649972Y-105474999D01*
X238649986Y-105474998D01*
X238752697Y-105464505D01*
X238919119Y-105409358D01*
X238919124Y-105409356D01*
X239068345Y-105317315D01*
X239192315Y-105193345D01*
X239284356Y-105044124D01*
X239284358Y-105044119D01*
X239339505Y-104877697D01*
X239339506Y-104877690D01*
X239349999Y-104774986D01*
X239350000Y-104774973D01*
X239350000Y-104250000D01*
X238404146Y-104250000D01*
X238442630Y-104183343D01*
X238475000Y-104062535D01*
X238475000Y-103937465D01*
X238442630Y-103816657D01*
X238404146Y-103750000D01*
X239349999Y-103750000D01*
X239349999Y-103743713D01*
X243649500Y-103743713D01*
X243649500Y-104256287D01*
X243650069Y-104259877D01*
X243678793Y-104441239D01*
X243682754Y-104466243D01*
X243745012Y-104657853D01*
X243748444Y-104668414D01*
X243844951Y-104857820D01*
X243969890Y-105029786D01*
X244120213Y-105180109D01*
X244292179Y-105305048D01*
X244292181Y-105305049D01*
X244292184Y-105305051D01*
X244481588Y-105401557D01*
X244683757Y-105467246D01*
X244893713Y-105500500D01*
X244893714Y-105500500D01*
X245106286Y-105500500D01*
X245106287Y-105500500D01*
X245316243Y-105467246D01*
X245518412Y-105401557D01*
X245707816Y-105305051D01*
X245836572Y-105211505D01*
X245879784Y-105180110D01*
X245879784Y-105180109D01*
X245879792Y-105180104D01*
X246018604Y-105041291D01*
X246079923Y-105007809D01*
X246149615Y-105012793D01*
X246205549Y-105054664D01*
X246211821Y-105063878D01*
X246215185Y-105069333D01*
X246215186Y-105069334D01*
X246307288Y-105218656D01*
X246431344Y-105342712D01*
X246580666Y-105434814D01*
X246747203Y-105489999D01*
X246849991Y-105500500D01*
X248150008Y-105500499D01*
X248252797Y-105489999D01*
X248419334Y-105434814D01*
X248568656Y-105342712D01*
X248692712Y-105218656D01*
X248784814Y-105069334D01*
X248839999Y-104902797D01*
X248850500Y-104800009D01*
X248850499Y-103199992D01*
X248839999Y-103097203D01*
X248807788Y-102999998D01*
X257994390Y-102999998D01*
X257994390Y-103000001D01*
X258014804Y-103285433D01*
X258075628Y-103565037D01*
X258075630Y-103565043D01*
X258075631Y-103565046D01*
X258161991Y-103796586D01*
X258175635Y-103833166D01*
X258312770Y-104084309D01*
X258312775Y-104084317D01*
X258484254Y-104313387D01*
X258484270Y-104313405D01*
X258686594Y-104515729D01*
X258686612Y-104515745D01*
X258915682Y-104687224D01*
X258915690Y-104687229D01*
X259166833Y-104824364D01*
X259166832Y-104824364D01*
X259166836Y-104824365D01*
X259166839Y-104824367D01*
X259434954Y-104924369D01*
X259434960Y-104924370D01*
X259434962Y-104924371D01*
X259714566Y-104985195D01*
X259714568Y-104985195D01*
X259714572Y-104985196D01*
X259952238Y-105002194D01*
X259999999Y-105005610D01*
X260000000Y-105005610D01*
X260000001Y-105005610D01*
X260028595Y-105003564D01*
X260285428Y-104985196D01*
X260377418Y-104965185D01*
X260565037Y-104924371D01*
X260565037Y-104924370D01*
X260565046Y-104924369D01*
X260833161Y-104824367D01*
X261084315Y-104687226D01*
X261313395Y-104515739D01*
X261515739Y-104313395D01*
X261687226Y-104084315D01*
X261824367Y-103833161D01*
X261924369Y-103565046D01*
X261931175Y-103533760D01*
X261985195Y-103285433D01*
X261985195Y-103285432D01*
X261985196Y-103285428D01*
X262005610Y-103000000D01*
X261985196Y-102714572D01*
X261980927Y-102694949D01*
X261924371Y-102434962D01*
X261924370Y-102434960D01*
X261924369Y-102434954D01*
X261824367Y-102166839D01*
X261818674Y-102156414D01*
X261687229Y-101915690D01*
X261687224Y-101915682D01*
X261515745Y-101686612D01*
X261515729Y-101686594D01*
X261313405Y-101484270D01*
X261313387Y-101484254D01*
X261084317Y-101312775D01*
X261084309Y-101312770D01*
X260833166Y-101175635D01*
X260833167Y-101175635D01*
X260725915Y-101135632D01*
X260565046Y-101075631D01*
X260565043Y-101075630D01*
X260565037Y-101075628D01*
X260285433Y-101014804D01*
X260000001Y-100994390D01*
X259999999Y-100994390D01*
X259714566Y-101014804D01*
X259434962Y-101075628D01*
X259166833Y-101175635D01*
X258915690Y-101312770D01*
X258915682Y-101312775D01*
X258686612Y-101484254D01*
X258686594Y-101484270D01*
X258484270Y-101686594D01*
X258484254Y-101686612D01*
X258312775Y-101915682D01*
X258312770Y-101915690D01*
X258175635Y-102166833D01*
X258075628Y-102434962D01*
X258014804Y-102714566D01*
X257994390Y-102999998D01*
X248807788Y-102999998D01*
X248784814Y-102930666D01*
X248692712Y-102781344D01*
X248568656Y-102657288D01*
X248460603Y-102590641D01*
X248419336Y-102565187D01*
X248419331Y-102565185D01*
X248417862Y-102564698D01*
X248252797Y-102510001D01*
X248252795Y-102510000D01*
X248150010Y-102499500D01*
X246849998Y-102499500D01*
X246849981Y-102499501D01*
X246747203Y-102510000D01*
X246747200Y-102510001D01*
X246580668Y-102565185D01*
X246580663Y-102565187D01*
X246431342Y-102657289D01*
X246307289Y-102781342D01*
X246211821Y-102936121D01*
X246159873Y-102982845D01*
X246090910Y-102994068D01*
X246026828Y-102966224D01*
X246018601Y-102958705D01*
X245879786Y-102819890D01*
X245707820Y-102694951D01*
X245518414Y-102598444D01*
X245518413Y-102598443D01*
X245518412Y-102598443D01*
X245316243Y-102532754D01*
X245316241Y-102532753D01*
X245316240Y-102532753D01*
X245154957Y-102507208D01*
X245106287Y-102499500D01*
X244893713Y-102499500D01*
X244845042Y-102507208D01*
X244683760Y-102532753D01*
X244481585Y-102598444D01*
X244292179Y-102694951D01*
X244120213Y-102819890D01*
X243969890Y-102970213D01*
X243844951Y-103142179D01*
X243748444Y-103331585D01*
X243682753Y-103533760D01*
X243655354Y-103706753D01*
X243649500Y-103743713D01*
X239349999Y-103743713D01*
X239349999Y-103225028D01*
X239349998Y-103225013D01*
X239339505Y-103122302D01*
X239284358Y-102955880D01*
X239284356Y-102955875D01*
X239192315Y-102806654D01*
X239068345Y-102682684D01*
X238919124Y-102590643D01*
X238919119Y-102590641D01*
X238752697Y-102535494D01*
X238752690Y-102535493D01*
X238649986Y-102525000D01*
X238250000Y-102525000D01*
X238250000Y-103595854D01*
X238183343Y-103557370D01*
X238062535Y-103525000D01*
X237937465Y-103525000D01*
X237816657Y-103557370D01*
X237750000Y-103595854D01*
X237750000Y-102525000D01*
X237350028Y-102525000D01*
X237350012Y-102525001D01*
X237247302Y-102535494D01*
X237080880Y-102590641D01*
X237080875Y-102590643D01*
X236931654Y-102682684D01*
X236807683Y-102806655D01*
X236807680Y-102806659D01*
X236712183Y-102961484D01*
X236660235Y-103008209D01*
X236591273Y-103019430D01*
X236527191Y-102991587D01*
X236518964Y-102984068D01*
X236379786Y-102844890D01*
X236207820Y-102719951D01*
X236018414Y-102623444D01*
X236018413Y-102623443D01*
X236018412Y-102623443D01*
X235816243Y-102557754D01*
X235816241Y-102557753D01*
X235816240Y-102557753D01*
X235654957Y-102532208D01*
X235606287Y-102524500D01*
X235393713Y-102524500D01*
X235345042Y-102532208D01*
X235183760Y-102557753D01*
X234981585Y-102623444D01*
X234792179Y-102719951D01*
X234620213Y-102844890D01*
X234469894Y-102995209D01*
X234469890Y-102995214D01*
X234350318Y-103159793D01*
X234294989Y-103202459D01*
X234225375Y-103208438D01*
X234163580Y-103175833D01*
X234149682Y-103159793D01*
X234030109Y-102995214D01*
X234030105Y-102995209D01*
X233879786Y-102844890D01*
X233707820Y-102719951D01*
X233518414Y-102623444D01*
X233518413Y-102623443D01*
X233518412Y-102623443D01*
X233316243Y-102557754D01*
X233316241Y-102557753D01*
X233316240Y-102557753D01*
X233154957Y-102532208D01*
X233106287Y-102524500D01*
X232893713Y-102524500D01*
X232845042Y-102532208D01*
X232683760Y-102557753D01*
X232481585Y-102623444D01*
X232292179Y-102719951D01*
X232120213Y-102844890D01*
X231969890Y-102995213D01*
X231844951Y-103167179D01*
X231748444Y-103356585D01*
X231682753Y-103558760D01*
X231658799Y-103709999D01*
X231649500Y-103768713D01*
X210605081Y-103768713D01*
X207578421Y-100742052D01*
X207578417Y-100742049D01*
X207578416Y-100742048D01*
X207556794Y-100727601D01*
X207511991Y-100673991D01*
X207503282Y-100604666D01*
X207533437Y-100541638D01*
X207592879Y-100504919D01*
X207625686Y-100500500D01*
X262375500Y-100500500D01*
X262442539Y-100520185D01*
X262488294Y-100572989D01*
X262499500Y-100624500D01*
X262499500Y-123820696D01*
X262479815Y-123887735D01*
X262456780Y-123914342D01*
X261211515Y-124995160D01*
X261209585Y-124996801D01*
X259728456Y-126230213D01*
X259726494Y-126231813D01*
X258220490Y-127434716D01*
X258218495Y-127436276D01*
X256688289Y-128608137D01*
X256686263Y-128609657D01*
X255132350Y-129750092D01*
X255130293Y-129751569D01*
X253553469Y-130859993D01*
X253551382Y-130861428D01*
X251952263Y-131937411D01*
X251950148Y-131938803D01*
X250329366Y-132981919D01*
X250327222Y-132983268D01*
X248685509Y-133993047D01*
X248683339Y-133994352D01*
X247021287Y-134970428D01*
X247019090Y-134971688D01*
X245337494Y-135913595D01*
X245335272Y-135914810D01*
X243634773Y-136822187D01*
X243632527Y-136823356D01*
X241913853Y-137695818D01*
X241911583Y-137696941D01*
X240175489Y-138534102D01*
X240173197Y-138535179D01*
X238420329Y-139336729D01*
X238418015Y-139337759D01*
X236649138Y-140103348D01*
X236646804Y-140104330D01*
X234862662Y-140833635D01*
X234860308Y-140834569D01*
X233061677Y-141527273D01*
X233059305Y-141528159D01*
X231246859Y-142184003D01*
X231244469Y-142184840D01*
X229419068Y-142803513D01*
X229416661Y-142804302D01*
X227578947Y-143385586D01*
X227576525Y-143386325D01*
X225727322Y-143929960D01*
X225724885Y-143930649D01*
X223865036Y-144436385D01*
X223862586Y-144437025D01*
X221992705Y-144904698D01*
X221990242Y-144905287D01*
X220111260Y-145334662D01*
X220108785Y-145335201D01*
X218221399Y-145726119D01*
X218218914Y-145726607D01*
X216323994Y-146078889D01*
X216321500Y-146079327D01*
X214419685Y-146392855D01*
X214417182Y-146393241D01*
X212509424Y-146667854D01*
X212506914Y-146668189D01*
X210593952Y-146903785D01*
X210591436Y-146904069D01*
X208674013Y-147100554D01*
X208671491Y-147100786D01*
X206750514Y-147258067D01*
X206747988Y-147258248D01*
X204824203Y-147376266D01*
X204821674Y-147376396D01*
X202895782Y-147455106D01*
X202893250Y-147455183D01*
X200966256Y-147494545D01*
X200963724Y-147494571D01*
X199036276Y-147494571D01*
X199033744Y-147494545D01*
X197106749Y-147455183D01*
X197104217Y-147455106D01*
X195178325Y-147376396D01*
X195175796Y-147376266D01*
X193252011Y-147258248D01*
X193249485Y-147258067D01*
X191328507Y-147100786D01*
X191325985Y-147100554D01*
X189408563Y-146904069D01*
X189406047Y-146903785D01*
X187493084Y-146668189D01*
X187490574Y-146667854D01*
X185582816Y-146393241D01*
X185580313Y-146392855D01*
X183678499Y-146079327D01*
X183676005Y-146078889D01*
X181781084Y-145726607D01*
X181778599Y-145726119D01*
X179891214Y-145335201D01*
X179888739Y-145334662D01*
X178009756Y-144905286D01*
X178007293Y-144904697D01*
X176137412Y-144437025D01*
X176134962Y-144436385D01*
X174275114Y-143930649D01*
X174272677Y-143929960D01*
X172423474Y-143386325D01*
X172421052Y-143385586D01*
X170583337Y-142804302D01*
X170580930Y-142803513D01*
X168755529Y-142184840D01*
X168753139Y-142184003D01*
X166940694Y-141528158D01*
X166938322Y-141527272D01*
X165139690Y-140834569D01*
X165137336Y-140833635D01*
X164872730Y-140725472D01*
X163652308Y-140226599D01*
X163353194Y-140104330D01*
X163350860Y-140103348D01*
X161581984Y-139337759D01*
X161579670Y-139336729D01*
X159826802Y-138535178D01*
X159824510Y-138534101D01*
X158088416Y-137696941D01*
X158086146Y-137695818D01*
X156367471Y-136823356D01*
X156365225Y-136822187D01*
X154664726Y-135914810D01*
X154662504Y-135913595D01*
X152980909Y-134971688D01*
X152978712Y-134970428D01*
X151316660Y-133994352D01*
X151314490Y-133993047D01*
X149672776Y-132983268D01*
X149670632Y-132981919D01*
X148049851Y-131938803D01*
X148047736Y-131937411D01*
X146448617Y-130861428D01*
X146446530Y-130859993D01*
X144869706Y-129751569D01*
X144867649Y-129750092D01*
X143313735Y-128609656D01*
X143311709Y-128608136D01*
X141781504Y-127436276D01*
X141779509Y-127434716D01*
X140439263Y-126364211D01*
X140273488Y-126231800D01*
X140271542Y-126230213D01*
X140265882Y-126225500D01*
X138790410Y-124996796D01*
X138788484Y-124995159D01*
X138785988Y-124992993D01*
X138563630Y-124799999D01*
X173524341Y-124799999D01*
X173524341Y-124800000D01*
X173544936Y-125035403D01*
X173544938Y-125035413D01*
X173606094Y-125263655D01*
X173606096Y-125263659D01*
X173606097Y-125263663D01*
X173634020Y-125323544D01*
X173705965Y-125477830D01*
X173705967Y-125477834D01*
X173841501Y-125671395D01*
X173841506Y-125671402D01*
X174008597Y-125838493D01*
X174008603Y-125838498D01*
X174194158Y-125968425D01*
X174237783Y-126023002D01*
X174244977Y-126092500D01*
X174213454Y-126154855D01*
X174194158Y-126171575D01*
X174008597Y-126301505D01*
X173841505Y-126468597D01*
X173705965Y-126662169D01*
X173705964Y-126662171D01*
X173606098Y-126876335D01*
X173606094Y-126876344D01*
X173544938Y-127104586D01*
X173544936Y-127104596D01*
X173524341Y-127339999D01*
X173524341Y-127340000D01*
X173544936Y-127575403D01*
X173544938Y-127575413D01*
X173606094Y-127803655D01*
X173606096Y-127803659D01*
X173606097Y-127803663D01*
X173693840Y-127991828D01*
X173705965Y-128017830D01*
X173705967Y-128017834D01*
X173769934Y-128109187D01*
X173841501Y-128211396D01*
X173841506Y-128211402D01*
X174008597Y-128378493D01*
X174008603Y-128378498D01*
X174194158Y-128508425D01*
X174237783Y-128563002D01*
X174244977Y-128632500D01*
X174213454Y-128694855D01*
X174194158Y-128711575D01*
X174008597Y-128841505D01*
X173841505Y-129008597D01*
X173705965Y-129202169D01*
X173705964Y-129202171D01*
X173606098Y-129416335D01*
X173606094Y-129416344D01*
X173544938Y-129644586D01*
X173544936Y-129644596D01*
X173524341Y-129879999D01*
X173524341Y-129880000D01*
X173544936Y-130115403D01*
X173544938Y-130115413D01*
X173606094Y-130343655D01*
X173606096Y-130343659D01*
X173606097Y-130343663D01*
X173652847Y-130443918D01*
X173705965Y-130557830D01*
X173705967Y-130557834D01*
X173841501Y-130751395D01*
X173841505Y-130751401D01*
X174008597Y-130918493D01*
X174008603Y-130918498D01*
X174194158Y-131048425D01*
X174237783Y-131103002D01*
X174244977Y-131172500D01*
X174213454Y-131234855D01*
X174194158Y-131251575D01*
X174008597Y-131381505D01*
X173841505Y-131548597D01*
X173705965Y-131742169D01*
X173705964Y-131742171D01*
X173606098Y-131956335D01*
X173606094Y-131956344D01*
X173544938Y-132184586D01*
X173544936Y-132184596D01*
X173524341Y-132419999D01*
X173524341Y-132420000D01*
X173544936Y-132655403D01*
X173544938Y-132655413D01*
X173606094Y-132883655D01*
X173606096Y-132883659D01*
X173606097Y-132883663D01*
X173651915Y-132981919D01*
X173705965Y-133097830D01*
X173705967Y-133097834D01*
X173841501Y-133291395D01*
X173841506Y-133291402D01*
X174008597Y-133458493D01*
X174008603Y-133458498D01*
X174194594Y-133588730D01*
X174238219Y-133643307D01*
X174245413Y-133712805D01*
X174213890Y-133775160D01*
X174194595Y-133791880D01*
X174008922Y-133921890D01*
X174008920Y-133921891D01*
X173841891Y-134088920D01*
X173841886Y-134088926D01*
X173706400Y-134282420D01*
X173706399Y-134282422D01*
X173606570Y-134496507D01*
X173606567Y-134496513D01*
X173549364Y-134709999D01*
X173549364Y-134710000D01*
X174446988Y-134710000D01*
X174414075Y-134767007D01*
X174380000Y-134894174D01*
X174380000Y-135025826D01*
X174414075Y-135152993D01*
X174446988Y-135210000D01*
X173549364Y-135210000D01*
X173606567Y-135423486D01*
X173606570Y-135423492D01*
X173706399Y-135637578D01*
X173841894Y-135831082D01*
X173963946Y-135953134D01*
X173997431Y-136014457D01*
X173992447Y-136084149D01*
X173950575Y-136140082D01*
X173919598Y-136156997D01*
X173787671Y-136206202D01*
X173787664Y-136206206D01*
X173672455Y-136292452D01*
X173672452Y-136292455D01*
X173586206Y-136407664D01*
X173586202Y-136407671D01*
X173535908Y-136542517D01*
X173529501Y-136602116D01*
X173529501Y-136602123D01*
X173529500Y-136602135D01*
X173529500Y-138397870D01*
X173529501Y-138397876D01*
X173535908Y-138457483D01*
X173586202Y-138592328D01*
X173586206Y-138592335D01*
X173672452Y-138707544D01*
X173672455Y-138707547D01*
X173787664Y-138793793D01*
X173787671Y-138793797D01*
X173922517Y-138844091D01*
X173922516Y-138844091D01*
X173929444Y-138844835D01*
X173982127Y-138850500D01*
X175777872Y-138850499D01*
X175837483Y-138844091D01*
X175972331Y-138793796D01*
X176087546Y-138707546D01*
X176173796Y-138592331D01*
X176224091Y-138457483D01*
X176230500Y-138397873D01*
X176230499Y-136602128D01*
X176224091Y-136542517D01*
X176173796Y-136407669D01*
X176173795Y-136407668D01*
X176173793Y-136407664D01*
X176087547Y-136292455D01*
X176087544Y-136292452D01*
X175972335Y-136206206D01*
X175972328Y-136206202D01*
X175840401Y-136156997D01*
X175784467Y-136115126D01*
X175760050Y-136049662D01*
X175774902Y-135981389D01*
X175796053Y-135953133D01*
X175918108Y-135831078D01*
X176053600Y-135637578D01*
X176153429Y-135423492D01*
X176153432Y-135423486D01*
X176210636Y-135210000D01*
X175313012Y-135210000D01*
X175345925Y-135152993D01*
X175380000Y-135025826D01*
X175380000Y-134894174D01*
X175345925Y-134767007D01*
X175313012Y-134710000D01*
X176210636Y-134710000D01*
X176210635Y-134709999D01*
X176153432Y-134496513D01*
X176153429Y-134496507D01*
X176053600Y-134282422D01*
X176053599Y-134282420D01*
X175918113Y-134088926D01*
X175918108Y-134088920D01*
X175751078Y-133921890D01*
X175565405Y-133791879D01*
X175521780Y-133737302D01*
X175514588Y-133667804D01*
X175546110Y-133605449D01*
X175565406Y-133588730D01*
X175565842Y-133588425D01*
X175751401Y-133458495D01*
X175918495Y-133291401D01*
X176054035Y-133097830D01*
X176153903Y-132883663D01*
X176215063Y-132655408D01*
X176235659Y-132420000D01*
X176215063Y-132184592D01*
X176153903Y-131956337D01*
X176054035Y-131742171D01*
X175918495Y-131548599D01*
X175918494Y-131548597D01*
X175751402Y-131381506D01*
X175751396Y-131381501D01*
X175565842Y-131251575D01*
X175522217Y-131196998D01*
X175515023Y-131127500D01*
X175546546Y-131065145D01*
X175565842Y-131048425D01*
X175588026Y-131032891D01*
X175751401Y-130918495D01*
X175918495Y-130751401D01*
X176054035Y-130557830D01*
X176153903Y-130343663D01*
X176215063Y-130115408D01*
X176235659Y-129880000D01*
X176215063Y-129644592D01*
X176153903Y-129416337D01*
X176054035Y-129202171D01*
X175918495Y-129008599D01*
X175918494Y-129008597D01*
X175751402Y-128841506D01*
X175751396Y-128841501D01*
X175565842Y-128711575D01*
X175522217Y-128656998D01*
X175515023Y-128587500D01*
X175546546Y-128525145D01*
X175565842Y-128508425D01*
X175610527Y-128477136D01*
X175751401Y-128378495D01*
X175918495Y-128211401D01*
X176054035Y-128017830D01*
X176153903Y-127803663D01*
X176215063Y-127575408D01*
X176235659Y-127340000D01*
X176215063Y-127104592D01*
X176153903Y-126876337D01*
X176054035Y-126662171D01*
X175918495Y-126468599D01*
X175918494Y-126468597D01*
X175751402Y-126301506D01*
X175751396Y-126301501D01*
X175565842Y-126171575D01*
X175522217Y-126116998D01*
X175515023Y-126047500D01*
X175546546Y-125985145D01*
X175565842Y-125968425D01*
X175588026Y-125952891D01*
X175751401Y-125838495D01*
X175918495Y-125671401D01*
X176054035Y-125477830D01*
X176153903Y-125263663D01*
X176215063Y-125035408D01*
X176235659Y-124800000D01*
X176215063Y-124564592D01*
X176153903Y-124336337D01*
X176054035Y-124122171D01*
X176052984Y-124120669D01*
X175918494Y-123928597D01*
X175751402Y-123761506D01*
X175751395Y-123761501D01*
X175557834Y-123625967D01*
X175557830Y-123625965D01*
X175528343Y-123612215D01*
X175343663Y-123526097D01*
X175343659Y-123526096D01*
X175343655Y-123526094D01*
X175115413Y-123464938D01*
X175115403Y-123464936D01*
X174880001Y-123444341D01*
X174879999Y-123444341D01*
X174644596Y-123464936D01*
X174644586Y-123464938D01*
X174416344Y-123526094D01*
X174416335Y-123526098D01*
X174202171Y-123625964D01*
X174202169Y-123625965D01*
X174008597Y-123761505D01*
X173841505Y-123928597D01*
X173705965Y-124122169D01*
X173705964Y-124122171D01*
X173606098Y-124336335D01*
X173606094Y-124336344D01*
X173544938Y-124564586D01*
X173544936Y-124564596D01*
X173524341Y-124799999D01*
X138563630Y-124799999D01*
X138507267Y-124751079D01*
X137543220Y-123914342D01*
X137505494Y-123855533D01*
X137500500Y-123820696D01*
X137500500Y-122742381D01*
X137994390Y-122742381D01*
X137994390Y-122742384D01*
X138014804Y-123027816D01*
X138075628Y-123307420D01*
X138075630Y-123307426D01*
X138075631Y-123307429D01*
X138157367Y-123526570D01*
X138175635Y-123575549D01*
X138312770Y-123826692D01*
X138312775Y-123826700D01*
X138484254Y-124055770D01*
X138484270Y-124055788D01*
X138686594Y-124258112D01*
X138686612Y-124258128D01*
X138915682Y-124429607D01*
X138915690Y-124429612D01*
X139166833Y-124566747D01*
X139166832Y-124566747D01*
X139166836Y-124566748D01*
X139166839Y-124566750D01*
X139434954Y-124666752D01*
X139434960Y-124666753D01*
X139434962Y-124666754D01*
X139714566Y-124727578D01*
X139714568Y-124727578D01*
X139714572Y-124727579D01*
X139968220Y-124745720D01*
X139999999Y-124747993D01*
X140000000Y-124747993D01*
X140000001Y-124747993D01*
X140028595Y-124745947D01*
X140285428Y-124727579D01*
X140297068Y-124725047D01*
X140565037Y-124666754D01*
X140565037Y-124666753D01*
X140565046Y-124666752D01*
X140833161Y-124566750D01*
X141084315Y-124429609D01*
X141313395Y-124258122D01*
X141515739Y-124055778D01*
X141687226Y-123826698D01*
X141824367Y-123575544D01*
X141924369Y-123307429D01*
X141985196Y-123027811D01*
X142005610Y-122742383D01*
X141985196Y-122456955D01*
X141980866Y-122437052D01*
X141924371Y-122177345D01*
X141924370Y-122177343D01*
X141924369Y-122177337D01*
X141824367Y-121909222D01*
X141777581Y-121823541D01*
X141687229Y-121658073D01*
X141687224Y-121658065D01*
X141515745Y-121428995D01*
X141515729Y-121428977D01*
X141313405Y-121226653D01*
X141313387Y-121226637D01*
X141084317Y-121055158D01*
X141084309Y-121055153D01*
X140833166Y-120918018D01*
X140833167Y-120918018D01*
X140725915Y-120878015D01*
X140565046Y-120818014D01*
X140565043Y-120818013D01*
X140565037Y-120818011D01*
X140360620Y-120773543D01*
X168124499Y-120773543D01*
X168162947Y-120966829D01*
X168162950Y-120966839D01*
X168238364Y-121148907D01*
X168238371Y-121148920D01*
X168347860Y-121312781D01*
X168347863Y-121312785D01*
X168487214Y-121452136D01*
X168487218Y-121452139D01*
X168651079Y-121561628D01*
X168651092Y-121561635D01*
X168807596Y-121626460D01*
X168833165Y-121637051D01*
X168833169Y-121637051D01*
X168833170Y-121637052D01*
X169026456Y-121675500D01*
X169026459Y-121675500D01*
X169318582Y-121675500D01*
X169385621Y-121695185D01*
X169431376Y-121747989D01*
X169441320Y-121817147D01*
X169439089Y-121827181D01*
X169439137Y-121827191D01*
X169399500Y-122026456D01*
X169399500Y-122026459D01*
X169399500Y-122223541D01*
X169399500Y-122223543D01*
X169399499Y-122223543D01*
X169437947Y-122416829D01*
X169437950Y-122416839D01*
X169513364Y-122598907D01*
X169513371Y-122598920D01*
X169622860Y-122762781D01*
X169622863Y-122762785D01*
X169762214Y-122902136D01*
X169762218Y-122902139D01*
X169926079Y-123011628D01*
X169926092Y-123011635D01*
X170108160Y-123087049D01*
X170108165Y-123087051D01*
X170108169Y-123087051D01*
X170108170Y-123087052D01*
X170301456Y-123125500D01*
X170301459Y-123125500D01*
X176819218Y-123125500D01*
X176886257Y-123145185D01*
X176906898Y-123161818D01*
X179045079Y-125300000D01*
X181118108Y-127373029D01*
X181151593Y-127434352D01*
X181153955Y-127449901D01*
X181164936Y-127575403D01*
X181164938Y-127575413D01*
X181226094Y-127803655D01*
X181226096Y-127803659D01*
X181226097Y-127803663D01*
X181313840Y-127991828D01*
X181325965Y-128017830D01*
X181325967Y-128017834D01*
X181389934Y-128109187D01*
X181461501Y-128211396D01*
X181461506Y-128211402D01*
X181628597Y-128378493D01*
X181628603Y-128378498D01*
X181814158Y-128508425D01*
X181857783Y-128563002D01*
X181864977Y-128632500D01*
X181833454Y-128694855D01*
X181814158Y-128711575D01*
X181628597Y-128841505D01*
X181461505Y-129008597D01*
X181325965Y-129202169D01*
X181325964Y-129202171D01*
X181226098Y-129416335D01*
X181226094Y-129416344D01*
X181164938Y-129644586D01*
X181164936Y-129644596D01*
X181144341Y-129879999D01*
X181144341Y-129880000D01*
X181164936Y-130115403D01*
X181164938Y-130115413D01*
X181226094Y-130343655D01*
X181226096Y-130343659D01*
X181226097Y-130343663D01*
X181272847Y-130443918D01*
X181325965Y-130557830D01*
X181325967Y-130557834D01*
X181461501Y-130751395D01*
X181461505Y-130751401D01*
X181628597Y-130918493D01*
X181628603Y-130918498D01*
X181814158Y-131048425D01*
X181857783Y-131103002D01*
X181864977Y-131172500D01*
X181833454Y-131234855D01*
X181814158Y-131251575D01*
X181628597Y-131381505D01*
X181461505Y-131548597D01*
X181325965Y-131742169D01*
X181325964Y-131742171D01*
X181226098Y-131956335D01*
X181226094Y-131956344D01*
X181164938Y-132184586D01*
X181164936Y-132184596D01*
X181144341Y-132419999D01*
X181144341Y-132420000D01*
X181164936Y-132655403D01*
X181164938Y-132655413D01*
X181226094Y-132883655D01*
X181226096Y-132883659D01*
X181226097Y-132883663D01*
X181271915Y-132981919D01*
X181325965Y-133097830D01*
X181325967Y-133097834D01*
X181461501Y-133291395D01*
X181461506Y-133291402D01*
X181628597Y-133458493D01*
X181628603Y-133458498D01*
X181814158Y-133588425D01*
X181857783Y-133643002D01*
X181864977Y-133712500D01*
X181833454Y-133774855D01*
X181814158Y-133791575D01*
X181628597Y-133921505D01*
X181461505Y-134088597D01*
X181325965Y-134282169D01*
X181325964Y-134282171D01*
X181226098Y-134496335D01*
X181226094Y-134496344D01*
X181164938Y-134724586D01*
X181164936Y-134724596D01*
X181144341Y-134959999D01*
X181144341Y-134960000D01*
X181164936Y-135195403D01*
X181164938Y-135195413D01*
X181226094Y-135423655D01*
X181226096Y-135423659D01*
X181226097Y-135423663D01*
X181325847Y-135637578D01*
X181325965Y-135637830D01*
X181325967Y-135637834D01*
X181434281Y-135792521D01*
X181461501Y-135831396D01*
X181461506Y-135831402D01*
X181583430Y-135953326D01*
X181616915Y-136014649D01*
X181611931Y-136084341D01*
X181570059Y-136140274D01*
X181539083Y-136157189D01*
X181407669Y-136206203D01*
X181407664Y-136206206D01*
X181292455Y-136292452D01*
X181292452Y-136292455D01*
X181206206Y-136407664D01*
X181206202Y-136407671D01*
X181155908Y-136542517D01*
X181149501Y-136602116D01*
X181149501Y-136602123D01*
X181149500Y-136602135D01*
X181149500Y-138397870D01*
X181149501Y-138397876D01*
X181155908Y-138457483D01*
X181206202Y-138592328D01*
X181206206Y-138592335D01*
X181292452Y-138707544D01*
X181292455Y-138707547D01*
X181407664Y-138793793D01*
X181407671Y-138793797D01*
X181542517Y-138844091D01*
X181542516Y-138844091D01*
X181549444Y-138844835D01*
X181602127Y-138850500D01*
X183397872Y-138850499D01*
X183457483Y-138844091D01*
X183592331Y-138793796D01*
X183707546Y-138707546D01*
X183793796Y-138592331D01*
X183844091Y-138457483D01*
X183850500Y-138397873D01*
X183850499Y-137499998D01*
X189944532Y-137499998D01*
X189944532Y-137500001D01*
X189964364Y-137726686D01*
X189964366Y-137726697D01*
X190023258Y-137946488D01*
X190023261Y-137946497D01*
X190119431Y-138152732D01*
X190119432Y-138152734D01*
X190249954Y-138339141D01*
X190410858Y-138500045D01*
X190410861Y-138500047D01*
X190597266Y-138630568D01*
X190612975Y-138637893D01*
X190665414Y-138684064D01*
X190684567Y-138751257D01*
X190664352Y-138818138D01*
X190612979Y-138862656D01*
X190597514Y-138869867D01*
X190597512Y-138869868D01*
X190524526Y-138920973D01*
X190524526Y-138920974D01*
X191203553Y-139600000D01*
X191197339Y-139600000D01*
X191095606Y-139627259D01*
X191004394Y-139679920D01*
X190929920Y-139754394D01*
X190877259Y-139845606D01*
X190850000Y-139947339D01*
X190850000Y-139953552D01*
X190170974Y-139274526D01*
X190170973Y-139274526D01*
X190119868Y-139347512D01*
X190119866Y-139347516D01*
X190023734Y-139553673D01*
X190023730Y-139553682D01*
X189964860Y-139773389D01*
X189964858Y-139773400D01*
X189945034Y-139999997D01*
X189945034Y-140000002D01*
X189964858Y-140226599D01*
X189964860Y-140226610D01*
X190023730Y-140446317D01*
X190023735Y-140446331D01*
X190119863Y-140652478D01*
X190170974Y-140725472D01*
X190850000Y-140046446D01*
X190850000Y-140052661D01*
X190877259Y-140154394D01*
X190929920Y-140245606D01*
X191004394Y-140320080D01*
X191095606Y-140372741D01*
X191197339Y-140400000D01*
X191203553Y-140400000D01*
X190524526Y-141079025D01*
X190597513Y-141130132D01*
X190597521Y-141130136D01*
X190803668Y-141226264D01*
X190803682Y-141226269D01*
X191023389Y-141285139D01*
X191023400Y-141285141D01*
X191249998Y-141304966D01*
X191250002Y-141304966D01*
X191476599Y-141285141D01*
X191476610Y-141285139D01*
X191696317Y-141226269D01*
X191696331Y-141226264D01*
X191902478Y-141130136D01*
X191975471Y-141079024D01*
X191296447Y-140400000D01*
X191302661Y-140400000D01*
X191404394Y-140372741D01*
X191495606Y-140320080D01*
X191570080Y-140245606D01*
X191622741Y-140154394D01*
X191650000Y-140052661D01*
X191650000Y-140046447D01*
X192329024Y-140725471D01*
X192380136Y-140652478D01*
X192476264Y-140446331D01*
X192476269Y-140446317D01*
X192535139Y-140226610D01*
X192535141Y-140226599D01*
X192554966Y-140000002D01*
X192554966Y-139999997D01*
X192535141Y-139773400D01*
X192535139Y-139773389D01*
X192476269Y-139553682D01*
X192476264Y-139553668D01*
X192380136Y-139347521D01*
X192380132Y-139347513D01*
X192329025Y-139274526D01*
X191650000Y-139953551D01*
X191650000Y-139947339D01*
X191622741Y-139845606D01*
X191570080Y-139754394D01*
X191495606Y-139679920D01*
X191404394Y-139627259D01*
X191302661Y-139600000D01*
X191296448Y-139600000D01*
X191975472Y-138920974D01*
X191902480Y-138869864D01*
X191887024Y-138862657D01*
X191834585Y-138816484D01*
X191815433Y-138749290D01*
X191835649Y-138682409D01*
X191887023Y-138637893D01*
X191902734Y-138630568D01*
X192089139Y-138500047D01*
X192250047Y-138339139D01*
X192380568Y-138152734D01*
X192476739Y-137946496D01*
X192535635Y-137726692D01*
X192555468Y-137500000D01*
X192535635Y-137273308D01*
X192476739Y-137053504D01*
X192380568Y-136847266D01*
X192250047Y-136660861D01*
X192250045Y-136660858D01*
X192089141Y-136499954D01*
X191902734Y-136369432D01*
X191902732Y-136369431D01*
X191696497Y-136273261D01*
X191696488Y-136273258D01*
X191476697Y-136214366D01*
X191476693Y-136214365D01*
X191476692Y-136214365D01*
X191476691Y-136214364D01*
X191476686Y-136214364D01*
X191250002Y-136194532D01*
X191249998Y-136194532D01*
X191023313Y-136214364D01*
X191023302Y-136214366D01*
X190803511Y-136273258D01*
X190803502Y-136273261D01*
X190597267Y-136369431D01*
X190597265Y-136369432D01*
X190410858Y-136499954D01*
X190249954Y-136660858D01*
X190119432Y-136847265D01*
X190119431Y-136847267D01*
X190023261Y-137053502D01*
X190023258Y-137053511D01*
X189964366Y-137273302D01*
X189964364Y-137273313D01*
X189944532Y-137499998D01*
X183850499Y-137499998D01*
X183850499Y-136602128D01*
X183844091Y-136542517D01*
X183793796Y-136407669D01*
X183793795Y-136407668D01*
X183793793Y-136407664D01*
X183707547Y-136292455D01*
X183707544Y-136292452D01*
X183592335Y-136206206D01*
X183592328Y-136206202D01*
X183460917Y-136157189D01*
X183404983Y-136115318D01*
X183380566Y-136049853D01*
X183395418Y-135981580D01*
X183416563Y-135953332D01*
X183538495Y-135831401D01*
X183648008Y-135675000D01*
X193969540Y-135675000D01*
X193989326Y-135863256D01*
X193989327Y-135863259D01*
X194047818Y-136043277D01*
X194047821Y-136043284D01*
X194142467Y-136207216D01*
X194269129Y-136347888D01*
X194409763Y-136450064D01*
X194424552Y-136462696D01*
X197441897Y-139480042D01*
X197441901Y-139480045D01*
X197585288Y-139575854D01*
X197585301Y-139575861D01*
X197709388Y-139627259D01*
X197744626Y-139641855D01*
X197913766Y-139675499D01*
X197913769Y-139675500D01*
X197913771Y-139675500D01*
X198086229Y-139675500D01*
X199174706Y-139675500D01*
X199200486Y-139678209D01*
X199305354Y-139700500D01*
X199305355Y-139700500D01*
X199494644Y-139700500D01*
X199494646Y-139700500D01*
X199679803Y-139661144D01*
X199852730Y-139584151D01*
X200005871Y-139472888D01*
X200132533Y-139332216D01*
X200227179Y-139168284D01*
X200285674Y-138988256D01*
X200305460Y-138800000D01*
X200285674Y-138611744D01*
X200227179Y-138431716D01*
X200132533Y-138267784D01*
X200005871Y-138127112D01*
X200005870Y-138127111D01*
X199852734Y-138015851D01*
X199852729Y-138015848D01*
X199679807Y-137938857D01*
X199679802Y-137938855D01*
X199519651Y-137904815D01*
X199494646Y-137899500D01*
X199305354Y-137899500D01*
X199280349Y-137904815D01*
X199200487Y-137921790D01*
X199174706Y-137924500D01*
X198414006Y-137924500D01*
X198346967Y-137904815D01*
X198326325Y-137888181D01*
X195655418Y-135217274D01*
X195635711Y-135191591D01*
X195607534Y-135142785D01*
X195480870Y-135002111D01*
X195327734Y-134890851D01*
X195327729Y-134890848D01*
X195154807Y-134813857D01*
X195154802Y-134813855D01*
X195009001Y-134782865D01*
X194969646Y-134774500D01*
X194780354Y-134774500D01*
X194747897Y-134781398D01*
X194595197Y-134813855D01*
X194595192Y-134813857D01*
X194422270Y-134890848D01*
X194422265Y-134890851D01*
X194269129Y-135002111D01*
X194142466Y-135142785D01*
X194047821Y-135306715D01*
X194047818Y-135306722D01*
X193989327Y-135486740D01*
X193989326Y-135486744D01*
X193969540Y-135675000D01*
X183648008Y-135675000D01*
X183674035Y-135637830D01*
X183773903Y-135423663D01*
X183835063Y-135195408D01*
X183855659Y-134960000D01*
X183835063Y-134724592D01*
X183773903Y-134496337D01*
X183674035Y-134282171D01*
X183538495Y-134088599D01*
X183538494Y-134088597D01*
X183371402Y-133921506D01*
X183371396Y-133921501D01*
X183185842Y-133791575D01*
X183142217Y-133736998D01*
X183135023Y-133667500D01*
X183166546Y-133605145D01*
X183185842Y-133588425D01*
X183208026Y-133572891D01*
X183371401Y-133458495D01*
X183538495Y-133291401D01*
X183674035Y-133097830D01*
X183773903Y-132883663D01*
X183835063Y-132655408D01*
X183855659Y-132420000D01*
X183835063Y-132184592D01*
X183773903Y-131956337D01*
X183674035Y-131742171D01*
X183538495Y-131548599D01*
X183538494Y-131548597D01*
X183371402Y-131381506D01*
X183371396Y-131381501D01*
X183185842Y-131251575D01*
X183142217Y-131196998D01*
X183135023Y-131127500D01*
X183166546Y-131065145D01*
X183185842Y-131048425D01*
X183208026Y-131032891D01*
X183371401Y-130918495D01*
X183538495Y-130751401D01*
X183674035Y-130557830D01*
X183773903Y-130343663D01*
X183835063Y-130115408D01*
X183855659Y-129880000D01*
X183835063Y-129644592D01*
X183773903Y-129416337D01*
X183674035Y-129202171D01*
X183538495Y-129008599D01*
X183538494Y-129008597D01*
X183371402Y-128841506D01*
X183371396Y-128841501D01*
X183185842Y-128711575D01*
X183142217Y-128656998D01*
X183135023Y-128587500D01*
X183166546Y-128525145D01*
X183185842Y-128508425D01*
X183230527Y-128477136D01*
X183371401Y-128378495D01*
X183538495Y-128211401D01*
X183674035Y-128017830D01*
X183773903Y-127803663D01*
X183835063Y-127575408D01*
X183855659Y-127340000D01*
X183835063Y-127104592D01*
X183773903Y-126876337D01*
X183674035Y-126662171D01*
X183538495Y-126468599D01*
X183538494Y-126468597D01*
X183371402Y-126301506D01*
X183371401Y-126301505D01*
X183185405Y-126171269D01*
X183141781Y-126116692D01*
X183134588Y-126047193D01*
X183166110Y-125984839D01*
X183185405Y-125968119D01*
X183371082Y-125838105D01*
X183538105Y-125671082D01*
X183673600Y-125477578D01*
X183773429Y-125263492D01*
X183773432Y-125263486D01*
X183830636Y-125050000D01*
X182933012Y-125050000D01*
X182965925Y-124992993D01*
X183000000Y-124865826D01*
X183000000Y-124734174D01*
X182965925Y-124607007D01*
X182933012Y-124550000D01*
X183830636Y-124550000D01*
X183830635Y-124549999D01*
X183773432Y-124336513D01*
X183773429Y-124336507D01*
X183673600Y-124122422D01*
X183673599Y-124122420D01*
X183538113Y-123928926D01*
X183538108Y-123928920D01*
X183371082Y-123761894D01*
X183177578Y-123626399D01*
X182963492Y-123526570D01*
X182963486Y-123526567D01*
X182750000Y-123469364D01*
X182750000Y-124366988D01*
X182692993Y-124334075D01*
X182565826Y-124300000D01*
X182434174Y-124300000D01*
X182307007Y-124334075D01*
X182250000Y-124366988D01*
X182250000Y-123469364D01*
X182249999Y-123469364D01*
X182036513Y-123526567D01*
X182036507Y-123526570D01*
X181822422Y-123626399D01*
X181822420Y-123626400D01*
X181628926Y-123761886D01*
X181628920Y-123761891D01*
X181461891Y-123928920D01*
X181461886Y-123928926D01*
X181326400Y-124122420D01*
X181326399Y-124122422D01*
X181226570Y-124336507D01*
X181226564Y-124336522D01*
X181215558Y-124377597D01*
X181179193Y-124437257D01*
X181116345Y-124467785D01*
X181046970Y-124459490D01*
X181008104Y-124433184D01*
X179262100Y-122687180D01*
X179228616Y-122625858D01*
X179233600Y-122556166D01*
X179275472Y-122500233D01*
X179340936Y-122475816D01*
X179349782Y-122475500D01*
X179398542Y-122475500D01*
X179398543Y-122475499D01*
X179591836Y-122437051D01*
X179773914Y-122361631D01*
X179937781Y-122252139D01*
X180077139Y-122112781D01*
X180186631Y-121948914D01*
X180262051Y-121766836D01*
X180300500Y-121573540D01*
X180300500Y-121376460D01*
X180300500Y-121376457D01*
X180300499Y-121376455D01*
X180275562Y-121251088D01*
X180262051Y-121183164D01*
X180186631Y-121001086D01*
X180186629Y-121001083D01*
X180186627Y-121001079D01*
X180077139Y-120837219D01*
X180077136Y-120837215D01*
X179602101Y-120362181D01*
X179568616Y-120300858D01*
X179573600Y-120231167D01*
X179615471Y-120175233D01*
X179680936Y-120150816D01*
X179689782Y-120150500D01*
X195074706Y-120150500D01*
X195100486Y-120153209D01*
X195205354Y-120175500D01*
X195205355Y-120175500D01*
X195394644Y-120175500D01*
X195394646Y-120175500D01*
X195579803Y-120136144D01*
X195752730Y-120059151D01*
X195905871Y-119947888D01*
X196032533Y-119807216D01*
X196127179Y-119643284D01*
X196185674Y-119463256D01*
X196205460Y-119275000D01*
X196185674Y-119086744D01*
X196127179Y-118906716D01*
X196032533Y-118742784D01*
X195905871Y-118602112D01*
X195905870Y-118602111D01*
X195752734Y-118490851D01*
X195752729Y-118490848D01*
X195579807Y-118413857D01*
X195579802Y-118413855D01*
X195419651Y-118379815D01*
X195394646Y-118374500D01*
X195205354Y-118374500D01*
X195100487Y-118396790D01*
X195074706Y-118399500D01*
X192336757Y-118399500D01*
X192269718Y-118379815D01*
X192223963Y-118327011D01*
X192214019Y-118257853D01*
X192215140Y-118251309D01*
X192250499Y-118073545D01*
X192250500Y-118073543D01*
X192250500Y-117876456D01*
X192212052Y-117683170D01*
X192212051Y-117683169D01*
X192212051Y-117683165D01*
X192137057Y-117502111D01*
X192136635Y-117501092D01*
X192136628Y-117501079D01*
X192027139Y-117337218D01*
X192027136Y-117337214D01*
X191887785Y-117197863D01*
X191887781Y-117197860D01*
X191723920Y-117088371D01*
X191723907Y-117088364D01*
X191541839Y-117012950D01*
X191541829Y-117012947D01*
X191348543Y-116974500D01*
X191348541Y-116974500D01*
X169376459Y-116974500D01*
X169376457Y-116974500D01*
X169183170Y-117012947D01*
X169183160Y-117012950D01*
X169001092Y-117088364D01*
X169001079Y-117088371D01*
X168837218Y-117197860D01*
X168837214Y-117197863D01*
X168697863Y-117337214D01*
X168697860Y-117337218D01*
X168588371Y-117501079D01*
X168588364Y-117501092D01*
X168512950Y-117683160D01*
X168512947Y-117683170D01*
X168474500Y-117876456D01*
X168474500Y-117876459D01*
X168474500Y-118073541D01*
X168474500Y-118073543D01*
X168474499Y-118073543D01*
X168512947Y-118266829D01*
X168512950Y-118266839D01*
X168588364Y-118448907D01*
X168588371Y-118448920D01*
X168697860Y-118612781D01*
X168697863Y-118612785D01*
X168837214Y-118752136D01*
X168837218Y-118752139D01*
X169001079Y-118861628D01*
X169001092Y-118861635D01*
X169183160Y-118937049D01*
X169183165Y-118937051D01*
X169183169Y-118937051D01*
X169183170Y-118937052D01*
X169376456Y-118975500D01*
X169376459Y-118975500D01*
X174163303Y-118975500D01*
X174230342Y-118995185D01*
X174276097Y-119047989D01*
X174286623Y-119112458D01*
X174269540Y-119275000D01*
X174289326Y-119463256D01*
X174289327Y-119463259D01*
X174305223Y-119512182D01*
X174307218Y-119582023D01*
X174271138Y-119641856D01*
X174208437Y-119672684D01*
X174187292Y-119674500D01*
X169026457Y-119674500D01*
X168833170Y-119712947D01*
X168833160Y-119712950D01*
X168651092Y-119788364D01*
X168651079Y-119788371D01*
X168487218Y-119897860D01*
X168487214Y-119897863D01*
X168347863Y-120037214D01*
X168347860Y-120037218D01*
X168238371Y-120201079D01*
X168238364Y-120201092D01*
X168162950Y-120383160D01*
X168162947Y-120383170D01*
X168124500Y-120576456D01*
X168124500Y-120576459D01*
X168124500Y-120773541D01*
X168124500Y-120773543D01*
X168124499Y-120773543D01*
X140360620Y-120773543D01*
X140285433Y-120757187D01*
X140000001Y-120736773D01*
X139999999Y-120736773D01*
X139714566Y-120757187D01*
X139434962Y-120818011D01*
X139166833Y-120918018D01*
X138915690Y-121055153D01*
X138915682Y-121055158D01*
X138686612Y-121226637D01*
X138686594Y-121226653D01*
X138484270Y-121428977D01*
X138484254Y-121428995D01*
X138312775Y-121658065D01*
X138312770Y-121658073D01*
X138175635Y-121909216D01*
X138075628Y-122177345D01*
X138014804Y-122456949D01*
X137994390Y-122742381D01*
X137500500Y-122742381D01*
X137500500Y-113999994D01*
X158462020Y-113999994D01*
X158462020Y-114000005D01*
X158481904Y-114239972D01*
X158481904Y-114239975D01*
X158481905Y-114239976D01*
X158541017Y-114473405D01*
X158637745Y-114693922D01*
X158769449Y-114895510D01*
X158932537Y-115072671D01*
X159122561Y-115220572D01*
X159334336Y-115335179D01*
X159452598Y-115375778D01*
X159562083Y-115413365D01*
X159562085Y-115413365D01*
X159562087Y-115413366D01*
X159799601Y-115453000D01*
X159799602Y-115453000D01*
X160040398Y-115453000D01*
X160040399Y-115453000D01*
X160277913Y-115413366D01*
X160505664Y-115335179D01*
X160717439Y-115220572D01*
X160907463Y-115072671D01*
X161070551Y-114895510D01*
X161086190Y-114871571D01*
X161139336Y-114826214D01*
X161208567Y-114816790D01*
X161271904Y-114846291D01*
X161293808Y-114871570D01*
X161309449Y-114895510D01*
X161472537Y-115072671D01*
X161662561Y-115220572D01*
X161874336Y-115335179D01*
X161992598Y-115375778D01*
X162102083Y-115413365D01*
X162102085Y-115413365D01*
X162102087Y-115413366D01*
X162339601Y-115453000D01*
X162339602Y-115453000D01*
X162580398Y-115453000D01*
X162580399Y-115453000D01*
X162817913Y-115413366D01*
X163045664Y-115335179D01*
X163257439Y-115220572D01*
X163447463Y-115072671D01*
X163610551Y-114895510D01*
X163626190Y-114871571D01*
X163679336Y-114826214D01*
X163748567Y-114816790D01*
X163811904Y-114846291D01*
X163833808Y-114871570D01*
X163849449Y-114895510D01*
X164012537Y-115072671D01*
X164202561Y-115220572D01*
X164414336Y-115335179D01*
X164532598Y-115375778D01*
X164642083Y-115413365D01*
X164642085Y-115413365D01*
X164642087Y-115413366D01*
X164879601Y-115453000D01*
X164879602Y-115453000D01*
X165120398Y-115453000D01*
X165120399Y-115453000D01*
X165357913Y-115413366D01*
X165585664Y-115335179D01*
X165797439Y-115220572D01*
X165987463Y-115072671D01*
X166150551Y-114895510D01*
X166282255Y-114693922D01*
X166378983Y-114473405D01*
X166438095Y-114239976D01*
X166451293Y-114080700D01*
X166457980Y-114000005D01*
X166457980Y-113999994D01*
X166455908Y-113974992D01*
X176694671Y-113974992D01*
X176694671Y-113975007D01*
X176713964Y-114269363D01*
X176713965Y-114269373D01*
X176713966Y-114269380D01*
X176763782Y-114519827D01*
X176771518Y-114558716D01*
X176771521Y-114558730D01*
X176866349Y-114838080D01*
X176996825Y-115102660D01*
X176996829Y-115102667D01*
X177160725Y-115347955D01*
X177355241Y-115569758D01*
X177577044Y-115764274D01*
X177770823Y-115893753D01*
X177822335Y-115928172D01*
X178086923Y-116058652D01*
X178366278Y-116153481D01*
X178655620Y-116211034D01*
X178683888Y-116212886D01*
X178949993Y-116230329D01*
X178950000Y-116230329D01*
X178950007Y-116230329D01*
X179185675Y-116214881D01*
X179244380Y-116211034D01*
X179533722Y-116153481D01*
X179813077Y-116058652D01*
X180077665Y-115928172D01*
X180322957Y-115764273D01*
X180544758Y-115569758D01*
X180739273Y-115347957D01*
X180903172Y-115102665D01*
X181033652Y-114838077D01*
X181128481Y-114558722D01*
X181186034Y-114269380D01*
X181189881Y-114210675D01*
X181205329Y-113975007D01*
X181205329Y-113974992D01*
X181186035Y-113680636D01*
X181186034Y-113680620D01*
X181128481Y-113391278D01*
X181033652Y-113111923D01*
X180903172Y-112847336D01*
X180857797Y-112779428D01*
X180848042Y-112764829D01*
X180739273Y-112602043D01*
X180691001Y-112547000D01*
X180544758Y-112380241D01*
X180322955Y-112185725D01*
X180310129Y-112177155D01*
X181700000Y-112177155D01*
X181700000Y-113725000D01*
X183031116Y-113725000D01*
X183000000Y-113881433D01*
X183000000Y-114068567D01*
X183031116Y-114225000D01*
X181700000Y-114225000D01*
X181700000Y-115772844D01*
X181706401Y-115832372D01*
X181706403Y-115832379D01*
X181756645Y-115967086D01*
X181756649Y-115967093D01*
X181842809Y-116082187D01*
X181842812Y-116082190D01*
X181957906Y-116168350D01*
X181957913Y-116168354D01*
X182092620Y-116218596D01*
X182092627Y-116218598D01*
X182152155Y-116224999D01*
X182152172Y-116225000D01*
X183700000Y-116225000D01*
X183700000Y-114893883D01*
X183856433Y-114925000D01*
X184043567Y-114925000D01*
X184200000Y-114893883D01*
X184200000Y-116225000D01*
X185747828Y-116225000D01*
X185747844Y-116224999D01*
X185807372Y-116218598D01*
X185807379Y-116218596D01*
X185942086Y-116168354D01*
X185942093Y-116168350D01*
X186057187Y-116082190D01*
X186057190Y-116082187D01*
X186143350Y-115967093D01*
X186143354Y-115967086D01*
X186193596Y-115832379D01*
X186193598Y-115832372D01*
X186199999Y-115772844D01*
X186200000Y-115772827D01*
X186200000Y-114225000D01*
X184868884Y-114225000D01*
X184900000Y-114068567D01*
X184900000Y-113881433D01*
X184868884Y-113725000D01*
X186200000Y-113725000D01*
X186200000Y-112177172D01*
X186199999Y-112177155D01*
X186193598Y-112117627D01*
X186193596Y-112117620D01*
X186143354Y-111982913D01*
X186143350Y-111982906D01*
X186057190Y-111867812D01*
X186057187Y-111867809D01*
X185942093Y-111781649D01*
X185942086Y-111781645D01*
X185807379Y-111731403D01*
X185807372Y-111731401D01*
X185747844Y-111725000D01*
X184200000Y-111725000D01*
X184200000Y-113056116D01*
X184043567Y-113025000D01*
X183856433Y-113025000D01*
X183700000Y-113056116D01*
X183700000Y-111725000D01*
X182152155Y-111725000D01*
X182092627Y-111731401D01*
X182092620Y-111731403D01*
X181957913Y-111781645D01*
X181957906Y-111781649D01*
X181842812Y-111867809D01*
X181842809Y-111867812D01*
X181756649Y-111982906D01*
X181756645Y-111982913D01*
X181706403Y-112117620D01*
X181706401Y-112117627D01*
X181700000Y-112177155D01*
X180310129Y-112177155D01*
X180077667Y-112021829D01*
X180077660Y-112021825D01*
X179813080Y-111891349D01*
X179533730Y-111796521D01*
X179533724Y-111796519D01*
X179533722Y-111796519D01*
X179244380Y-111738966D01*
X179244373Y-111738965D01*
X179244363Y-111738964D01*
X178950007Y-111719671D01*
X178949993Y-111719671D01*
X178655636Y-111738964D01*
X178655624Y-111738965D01*
X178655620Y-111738966D01*
X178655612Y-111738967D01*
X178655609Y-111738968D01*
X178366283Y-111796518D01*
X178366269Y-111796521D01*
X178086919Y-111891349D01*
X177822334Y-112021828D01*
X177577041Y-112185728D01*
X177355241Y-112380241D01*
X177160728Y-112602041D01*
X176996828Y-112847334D01*
X176866349Y-113111919D01*
X176771521Y-113391269D01*
X176771518Y-113391283D01*
X176713968Y-113680609D01*
X176713964Y-113680636D01*
X176694671Y-113974992D01*
X166455908Y-113974992D01*
X166438095Y-113760027D01*
X166438095Y-113760024D01*
X166378983Y-113526595D01*
X166282255Y-113306078D01*
X166150551Y-113104490D01*
X165987463Y-112927329D01*
X165853358Y-112822951D01*
X165797441Y-112779429D01*
X165585665Y-112664821D01*
X165585656Y-112664818D01*
X165357916Y-112586634D01*
X165179777Y-112556908D01*
X165120399Y-112547000D01*
X164879601Y-112547000D01*
X164832098Y-112554926D01*
X164642083Y-112586634D01*
X164414343Y-112664818D01*
X164414334Y-112664821D01*
X164202558Y-112779429D01*
X164115312Y-112847336D01*
X164012537Y-112927329D01*
X163849449Y-113104490D01*
X163844593Y-113111923D01*
X163833808Y-113128431D01*
X163780661Y-113173787D01*
X163711430Y-113183210D01*
X163648094Y-113153707D01*
X163626192Y-113128431D01*
X163610551Y-113104490D01*
X163447463Y-112927329D01*
X163313358Y-112822951D01*
X163257441Y-112779429D01*
X163045665Y-112664821D01*
X163045656Y-112664818D01*
X162817916Y-112586634D01*
X162639777Y-112556908D01*
X162580399Y-112547000D01*
X162339601Y-112547000D01*
X162292098Y-112554926D01*
X162102083Y-112586634D01*
X161874343Y-112664818D01*
X161874334Y-112664821D01*
X161662558Y-112779429D01*
X161575312Y-112847336D01*
X161472537Y-112927329D01*
X161309449Y-113104490D01*
X161304593Y-113111923D01*
X161293808Y-113128431D01*
X161240661Y-113173787D01*
X161171430Y-113183210D01*
X161108094Y-113153707D01*
X161086192Y-113128431D01*
X161070551Y-113104490D01*
X160907463Y-112927329D01*
X160773358Y-112822951D01*
X160717441Y-112779429D01*
X160505665Y-112664821D01*
X160505656Y-112664818D01*
X160277916Y-112586634D01*
X160099777Y-112556908D01*
X160040399Y-112547000D01*
X159799601Y-112547000D01*
X159752098Y-112554926D01*
X159562083Y-112586634D01*
X159334343Y-112664818D01*
X159334334Y-112664821D01*
X159122558Y-112779429D01*
X159035312Y-112847336D01*
X158932537Y-112927329D01*
X158932534Y-112927331D01*
X158932534Y-112927332D01*
X158769449Y-113104490D01*
X158637743Y-113306081D01*
X158541017Y-113526594D01*
X158481904Y-113760027D01*
X158462020Y-113999994D01*
X137500500Y-113999994D01*
X137500500Y-102999998D01*
X137994390Y-102999998D01*
X137994390Y-103000001D01*
X138014804Y-103285433D01*
X138075628Y-103565037D01*
X138075630Y-103565043D01*
X138075631Y-103565046D01*
X138161991Y-103796586D01*
X138175635Y-103833166D01*
X138312770Y-104084309D01*
X138312775Y-104084317D01*
X138484254Y-104313387D01*
X138484270Y-104313405D01*
X138686594Y-104515729D01*
X138686612Y-104515745D01*
X138915682Y-104687224D01*
X138915690Y-104687229D01*
X139166833Y-104824364D01*
X139166832Y-104824364D01*
X139166836Y-104824365D01*
X139166839Y-104824367D01*
X139434954Y-104924369D01*
X139434960Y-104924370D01*
X139434962Y-104924371D01*
X139714566Y-104985195D01*
X139714568Y-104985195D01*
X139714572Y-104985196D01*
X139952238Y-105002194D01*
X139999999Y-105005610D01*
X140000000Y-105005610D01*
X140000001Y-105005610D01*
X140028595Y-105003564D01*
X140285428Y-104985196D01*
X140377418Y-104965185D01*
X140565037Y-104924371D01*
X140565037Y-104924370D01*
X140565046Y-104924369D01*
X140833161Y-104824367D01*
X141084315Y-104687226D01*
X141313395Y-104515739D01*
X141515739Y-104313395D01*
X141687226Y-104084315D01*
X141824367Y-103833161D01*
X141867054Y-103718713D01*
X145149500Y-103718713D01*
X145149500Y-104231287D01*
X145153460Y-104256287D01*
X145177890Y-104410538D01*
X145182754Y-104441243D01*
X145246434Y-104637230D01*
X145248444Y-104643414D01*
X145344951Y-104832820D01*
X145469890Y-105004786D01*
X145620213Y-105155109D01*
X145792179Y-105280048D01*
X145792181Y-105280049D01*
X145792184Y-105280051D01*
X145981588Y-105376557D01*
X146183757Y-105442246D01*
X146393713Y-105475500D01*
X146393714Y-105475500D01*
X146606286Y-105475500D01*
X146606287Y-105475500D01*
X146816243Y-105442246D01*
X147018412Y-105376557D01*
X147207816Y-105280051D01*
X147326729Y-105193656D01*
X147379784Y-105155110D01*
X147379784Y-105155109D01*
X147379792Y-105155104D01*
X147518604Y-105016291D01*
X147579923Y-104982809D01*
X147649615Y-104987793D01*
X147705549Y-105029664D01*
X147711821Y-105038878D01*
X147715185Y-105044333D01*
X147715186Y-105044334D01*
X147807288Y-105193656D01*
X147931344Y-105317712D01*
X148080666Y-105409814D01*
X148247203Y-105464999D01*
X148349991Y-105475500D01*
X149650008Y-105475499D01*
X149752797Y-105464999D01*
X149919334Y-105409814D01*
X150068656Y-105317712D01*
X150192712Y-105193656D01*
X150284814Y-105044334D01*
X150339999Y-104877797D01*
X150350500Y-104775009D01*
X150350499Y-103174992D01*
X150349701Y-103167184D01*
X150342838Y-103099995D01*
X154669732Y-103099995D01*
X154669732Y-103100004D01*
X154688777Y-103354154D01*
X154735476Y-103558757D01*
X154745492Y-103602637D01*
X154838607Y-103839888D01*
X154966041Y-104060612D01*
X155124950Y-104259877D01*
X155311783Y-104433232D01*
X155516855Y-104573048D01*
X155561156Y-104627075D01*
X155569216Y-104696478D01*
X155538473Y-104759221D01*
X155478690Y-104795383D01*
X155447003Y-104799500D01*
X155127130Y-104799500D01*
X155127123Y-104799501D01*
X155067516Y-104805908D01*
X154932671Y-104856202D01*
X154932664Y-104856206D01*
X154817455Y-104942452D01*
X154817452Y-104942455D01*
X154731206Y-105057664D01*
X154731202Y-105057671D01*
X154680908Y-105192517D01*
X154674501Y-105252116D01*
X154674501Y-105252123D01*
X154674500Y-105252135D01*
X154674500Y-107747870D01*
X154674501Y-107747876D01*
X154680908Y-107807483D01*
X154731202Y-107942328D01*
X154731206Y-107942335D01*
X154817452Y-108057544D01*
X154817455Y-108057547D01*
X154932664Y-108143793D01*
X154932671Y-108143797D01*
X155067517Y-108194091D01*
X155067516Y-108194091D01*
X155074444Y-108194835D01*
X155127127Y-108200500D01*
X157622872Y-108200499D01*
X157682483Y-108194091D01*
X157817331Y-108143796D01*
X157932546Y-108057546D01*
X158018796Y-107942331D01*
X158069091Y-107807483D01*
X158075500Y-107747873D01*
X158075499Y-105252128D01*
X158069214Y-105193657D01*
X158069091Y-105192516D01*
X158018797Y-105057671D01*
X158018793Y-105057664D01*
X157932547Y-104942455D01*
X157932544Y-104942452D01*
X157817335Y-104856206D01*
X157817328Y-104856202D01*
X157682482Y-104805908D01*
X157682483Y-104805908D01*
X157622883Y-104799501D01*
X157622881Y-104799500D01*
X157622873Y-104799500D01*
X157622865Y-104799500D01*
X157302998Y-104799500D01*
X157235959Y-104779815D01*
X157190204Y-104727011D01*
X157180260Y-104657853D01*
X157209285Y-104594297D01*
X157233141Y-104573050D01*
X157438217Y-104433232D01*
X157625050Y-104259877D01*
X157783959Y-104060612D01*
X157911393Y-103839888D01*
X158004508Y-103602637D01*
X158061222Y-103354157D01*
X158072776Y-103199981D01*
X158080268Y-103100004D01*
X158080268Y-103099995D01*
X168139732Y-103099995D01*
X168139732Y-103100004D01*
X168158777Y-103354154D01*
X168205476Y-103558757D01*
X168215492Y-103602637D01*
X168308607Y-103839888D01*
X168436041Y-104060612D01*
X168594950Y-104259877D01*
X168781783Y-104433232D01*
X168992366Y-104576805D01*
X168992371Y-104576807D01*
X168992372Y-104576808D01*
X168992374Y-104576809D01*
X169223846Y-104688280D01*
X169275706Y-104735102D01*
X169294019Y-104802529D01*
X169272971Y-104869153D01*
X169223846Y-104911720D01*
X168992374Y-105023190D01*
X168992372Y-105023191D01*
X168781782Y-105166768D01*
X168594952Y-105340121D01*
X168594950Y-105340123D01*
X168436041Y-105539388D01*
X168308608Y-105760109D01*
X168215492Y-105997362D01*
X168215490Y-105997369D01*
X168158777Y-106245845D01*
X168139732Y-106499995D01*
X168139732Y-106500004D01*
X168158777Y-106754154D01*
X168200146Y-106935405D01*
X168215492Y-107002637D01*
X168308607Y-107239888D01*
X168436041Y-107460612D01*
X168594950Y-107659877D01*
X168781783Y-107833232D01*
X168992366Y-107976805D01*
X168992371Y-107976807D01*
X168992372Y-107976808D01*
X168992373Y-107976809D01*
X169100557Y-108028907D01*
X169221992Y-108087387D01*
X169221993Y-108087387D01*
X169221996Y-108087389D01*
X169465542Y-108162513D01*
X169717565Y-108200500D01*
X169972435Y-108200500D01*
X170224458Y-108162513D01*
X170468004Y-108087389D01*
X170697634Y-107976805D01*
X170908217Y-107833232D01*
X171095050Y-107659877D01*
X171253959Y-107460612D01*
X171381393Y-107239888D01*
X171474508Y-107002637D01*
X171531222Y-106754157D01*
X171550268Y-106500000D01*
X171549168Y-106485326D01*
X171536466Y-106315826D01*
X171531222Y-106245843D01*
X171474508Y-105997363D01*
X171381393Y-105760112D01*
X171253959Y-105539388D01*
X171095050Y-105340123D01*
X170908217Y-105166768D01*
X170697634Y-105023195D01*
X170697630Y-105023193D01*
X170697627Y-105023191D01*
X170697626Y-105023190D01*
X170509711Y-104932696D01*
X170468004Y-104912611D01*
X170468001Y-104912610D01*
X170466153Y-104911720D01*
X170414293Y-104864898D01*
X170395980Y-104797471D01*
X170417028Y-104730847D01*
X170466153Y-104688280D01*
X170468001Y-104687389D01*
X170468004Y-104687389D01*
X170634696Y-104607114D01*
X170697626Y-104576809D01*
X170697626Y-104576808D01*
X170697634Y-104576805D01*
X170908217Y-104433232D01*
X171095050Y-104259877D01*
X171253959Y-104060612D01*
X171303387Y-103974999D01*
X174744357Y-103974999D01*
X174744357Y-103975000D01*
X174764884Y-104196535D01*
X174764885Y-104196537D01*
X174825769Y-104410523D01*
X174825775Y-104410538D01*
X174924938Y-104609683D01*
X174924943Y-104609691D01*
X175059020Y-104787238D01*
X175199100Y-104914937D01*
X175223352Y-104937046D01*
X175223437Y-104937123D01*
X175223439Y-104937125D01*
X175412595Y-105054245D01*
X175412596Y-105054245D01*
X175412599Y-105054247D01*
X175620060Y-105134618D01*
X175838757Y-105175500D01*
X175838759Y-105175500D01*
X176061241Y-105175500D01*
X176061243Y-105175500D01*
X176279940Y-105134618D01*
X176487401Y-105054247D01*
X176676562Y-104937124D01*
X176840981Y-104787236D01*
X176975058Y-104609689D01*
X177074229Y-104410528D01*
X177135115Y-104196536D01*
X177155643Y-103975000D01*
X177155643Y-103974999D01*
X185744357Y-103974999D01*
X185744357Y-103975000D01*
X185764884Y-104196535D01*
X185764885Y-104196537D01*
X185825769Y-104410523D01*
X185825775Y-104410538D01*
X185924938Y-104609683D01*
X185924943Y-104609691D01*
X186059020Y-104787238D01*
X186199100Y-104914937D01*
X186223352Y-104937046D01*
X186223437Y-104937123D01*
X186223439Y-104937125D01*
X186412595Y-105054245D01*
X186412596Y-105054245D01*
X186412599Y-105054247D01*
X186620060Y-105134618D01*
X186838757Y-105175500D01*
X186838759Y-105175500D01*
X187061241Y-105175500D01*
X187061243Y-105175500D01*
X187279940Y-105134618D01*
X187487401Y-105054247D01*
X187676562Y-104937124D01*
X187840981Y-104787236D01*
X187975058Y-104609689D01*
X188074229Y-104410528D01*
X188135115Y-104196536D01*
X188155643Y-103975000D01*
X188152900Y-103945403D01*
X188135115Y-103753464D01*
X188135114Y-103753462D01*
X188132340Y-103743713D01*
X188074229Y-103539472D01*
X188071385Y-103533760D01*
X187975061Y-103340316D01*
X187975056Y-103340308D01*
X187840979Y-103162761D01*
X187676562Y-103012876D01*
X187676560Y-103012874D01*
X187487404Y-102895754D01*
X187487398Y-102895752D01*
X187279940Y-102815382D01*
X187061243Y-102774500D01*
X186838757Y-102774500D01*
X186620060Y-102815382D01*
X186488864Y-102866207D01*
X186412601Y-102895752D01*
X186412595Y-102895754D01*
X186223439Y-103012874D01*
X186223437Y-103012876D01*
X186059020Y-103162761D01*
X185924943Y-103340308D01*
X185924938Y-103340316D01*
X185825775Y-103539461D01*
X185825769Y-103539476D01*
X185764885Y-103753462D01*
X185764884Y-103753464D01*
X185744357Y-103974999D01*
X177155643Y-103974999D01*
X177152900Y-103945403D01*
X177135115Y-103753464D01*
X177135114Y-103753462D01*
X177132340Y-103743713D01*
X177074229Y-103539472D01*
X177071385Y-103533760D01*
X176975061Y-103340316D01*
X176975056Y-103340308D01*
X176840979Y-103162761D01*
X176676562Y-103012876D01*
X176676560Y-103012874D01*
X176487404Y-102895754D01*
X176487398Y-102895752D01*
X176279940Y-102815382D01*
X176061243Y-102774500D01*
X175838757Y-102774500D01*
X175620060Y-102815382D01*
X175488864Y-102866207D01*
X175412601Y-102895752D01*
X175412595Y-102895754D01*
X175223439Y-103012874D01*
X175223437Y-103012876D01*
X175059020Y-103162761D01*
X174924943Y-103340308D01*
X174924938Y-103340316D01*
X174825775Y-103539461D01*
X174825769Y-103539476D01*
X174764885Y-103753462D01*
X174764884Y-103753464D01*
X174744357Y-103974999D01*
X171303387Y-103974999D01*
X171381393Y-103839888D01*
X171474508Y-103602637D01*
X171531222Y-103354157D01*
X171542776Y-103199981D01*
X171550268Y-103100004D01*
X171550268Y-103099995D01*
X171531222Y-102845845D01*
X171531005Y-102844896D01*
X171474508Y-102597363D01*
X171381393Y-102360112D01*
X171253959Y-102139388D01*
X171095050Y-101940123D01*
X170908217Y-101766768D01*
X170697634Y-101623195D01*
X170697630Y-101623193D01*
X170697627Y-101623191D01*
X170697626Y-101623190D01*
X170468006Y-101512612D01*
X170468008Y-101512612D01*
X170224466Y-101437489D01*
X170224462Y-101437488D01*
X170224458Y-101437487D01*
X170103231Y-101419214D01*
X169972440Y-101399500D01*
X169972435Y-101399500D01*
X169717565Y-101399500D01*
X169717559Y-101399500D01*
X169560609Y-101423157D01*
X169465542Y-101437487D01*
X169465539Y-101437488D01*
X169465533Y-101437489D01*
X169221992Y-101512612D01*
X168992373Y-101623190D01*
X168992372Y-101623191D01*
X168781782Y-101766768D01*
X168594952Y-101940121D01*
X168594950Y-101940123D01*
X168436041Y-102139388D01*
X168308608Y-102360109D01*
X168215492Y-102597362D01*
X168215490Y-102597369D01*
X168158777Y-102845845D01*
X168139732Y-103099995D01*
X158080268Y-103099995D01*
X158061222Y-102845845D01*
X158061005Y-102844896D01*
X158004508Y-102597363D01*
X157911393Y-102360112D01*
X157783959Y-102139388D01*
X157625050Y-101940123D01*
X157438217Y-101766768D01*
X157227634Y-101623195D01*
X157227630Y-101623193D01*
X157227627Y-101623191D01*
X157227626Y-101623190D01*
X156998006Y-101512612D01*
X156998008Y-101512612D01*
X156754466Y-101437489D01*
X156754462Y-101437488D01*
X156754458Y-101437487D01*
X156633231Y-101419214D01*
X156502440Y-101399500D01*
X156502435Y-101399500D01*
X156247565Y-101399500D01*
X156247559Y-101399500D01*
X156090609Y-101423157D01*
X155995542Y-101437487D01*
X155995539Y-101437488D01*
X155995533Y-101437489D01*
X155751992Y-101512612D01*
X155522373Y-101623190D01*
X155522372Y-101623191D01*
X155311782Y-101766768D01*
X155124952Y-101940121D01*
X155124950Y-101940123D01*
X154966041Y-102139388D01*
X154838608Y-102360109D01*
X154745492Y-102597362D01*
X154745490Y-102597369D01*
X154688777Y-102845845D01*
X154669732Y-103099995D01*
X150342838Y-103099995D01*
X150339999Y-103072203D01*
X150339998Y-103072200D01*
X150330617Y-103043891D01*
X150284814Y-102905666D01*
X150192712Y-102756344D01*
X150068656Y-102632288D01*
X149959864Y-102565185D01*
X149919336Y-102540187D01*
X149919331Y-102540185D01*
X149906593Y-102535964D01*
X149752797Y-102485001D01*
X149752795Y-102485000D01*
X149650010Y-102474500D01*
X148349998Y-102474500D01*
X148349981Y-102474501D01*
X148247203Y-102485000D01*
X148247200Y-102485001D01*
X148080668Y-102540185D01*
X148080663Y-102540187D01*
X147931342Y-102632289D01*
X147807289Y-102756342D01*
X147711821Y-102911121D01*
X147659873Y-102957845D01*
X147590910Y-102969068D01*
X147526828Y-102941224D01*
X147518601Y-102933705D01*
X147379786Y-102794890D01*
X147207820Y-102669951D01*
X147018414Y-102573444D01*
X147018413Y-102573443D01*
X147018412Y-102573443D01*
X146816243Y-102507754D01*
X146816241Y-102507753D01*
X146816240Y-102507753D01*
X146654957Y-102482208D01*
X146606287Y-102474500D01*
X146393713Y-102474500D01*
X146345042Y-102482208D01*
X146183760Y-102507753D01*
X145981585Y-102573444D01*
X145792179Y-102669951D01*
X145620213Y-102794890D01*
X145469890Y-102945213D01*
X145344951Y-103117179D01*
X145248444Y-103306585D01*
X145182753Y-103508760D01*
X145165150Y-103619905D01*
X145149500Y-103718713D01*
X141867054Y-103718713D01*
X141924369Y-103565046D01*
X141931175Y-103533760D01*
X141985195Y-103285433D01*
X141985195Y-103285432D01*
X141985196Y-103285428D01*
X142005610Y-103000000D01*
X141985196Y-102714572D01*
X141980927Y-102694949D01*
X141924371Y-102434962D01*
X141924370Y-102434960D01*
X141924369Y-102434954D01*
X141824367Y-102166839D01*
X141818674Y-102156414D01*
X141687229Y-101915690D01*
X141687224Y-101915682D01*
X141515745Y-101686612D01*
X141515729Y-101686594D01*
X141313405Y-101484270D01*
X141313387Y-101484254D01*
X141084317Y-101312775D01*
X141084309Y-101312770D01*
X140833166Y-101175635D01*
X140833167Y-101175635D01*
X140725915Y-101135632D01*
X140565046Y-101075631D01*
X140565043Y-101075630D01*
X140565037Y-101075628D01*
X140285433Y-101014804D01*
X140000001Y-100994390D01*
X139999999Y-100994390D01*
X139714566Y-101014804D01*
X139434962Y-101075628D01*
X139166833Y-101175635D01*
X138915690Y-101312770D01*
X138915682Y-101312775D01*
X138686612Y-101484254D01*
X138686594Y-101484270D01*
X138484270Y-101686594D01*
X138484254Y-101686612D01*
X138312775Y-101915682D01*
X138312770Y-101915690D01*
X138175635Y-102166833D01*
X138075628Y-102434962D01*
X138014804Y-102714566D01*
X137994390Y-102999998D01*
X137500500Y-102999998D01*
X137500500Y-100624500D01*
X137520185Y-100557461D01*
X137572989Y-100511706D01*
X137624500Y-100500500D01*
X199319314Y-100500500D01*
X199386353Y-100520185D01*
G37*
%TD.AperFunction*%
%TA.AperFunction,Conductor*%
G36*
X206804809Y-102095185D02*
G01*
X206825451Y-102111819D01*
X209263181Y-104549549D01*
X209296666Y-104610872D01*
X209299500Y-104637230D01*
X209299500Y-118135711D01*
X209279815Y-118202750D01*
X209227011Y-118248505D01*
X209157853Y-118258449D01*
X209094297Y-118229424D01*
X209068113Y-118197711D01*
X209007534Y-118092785D01*
X208944202Y-118022448D01*
X208880871Y-117952112D01*
X208835694Y-117919289D01*
X208727734Y-117840851D01*
X208727729Y-117840848D01*
X208554807Y-117763857D01*
X208554802Y-117763855D01*
X208489669Y-117750011D01*
X208428187Y-117716818D01*
X208427769Y-117716402D01*
X198246819Y-107535451D01*
X198213334Y-107474128D01*
X198210500Y-107447770D01*
X198210500Y-107437700D01*
X198230185Y-107370661D01*
X198263375Y-107336126D01*
X198331401Y-107288495D01*
X198498495Y-107121401D01*
X198628425Y-106935842D01*
X198683002Y-106892217D01*
X198752500Y-106885023D01*
X198814855Y-106916546D01*
X198831575Y-106935842D01*
X198958959Y-107117766D01*
X198961505Y-107121401D01*
X199128599Y-107288495D01*
X199171675Y-107318657D01*
X199322165Y-107424032D01*
X199322167Y-107424033D01*
X199322170Y-107424035D01*
X199536337Y-107523903D01*
X199764592Y-107585063D01*
X199941034Y-107600500D01*
X199999999Y-107605659D01*
X200000000Y-107605659D01*
X200000001Y-107605659D01*
X200058966Y-107600500D01*
X200235408Y-107585063D01*
X200463663Y-107523903D01*
X200677830Y-107424035D01*
X200871401Y-107288495D01*
X201038495Y-107121401D01*
X201168425Y-106935842D01*
X201223002Y-106892217D01*
X201292500Y-106885023D01*
X201354855Y-106916546D01*
X201371575Y-106935842D01*
X201498959Y-107117766D01*
X201501505Y-107121401D01*
X201668599Y-107288495D01*
X201711675Y-107318657D01*
X201862165Y-107424032D01*
X201862167Y-107424033D01*
X201862170Y-107424035D01*
X202076337Y-107523903D01*
X202304592Y-107585063D01*
X202481034Y-107600500D01*
X202539999Y-107605659D01*
X202540000Y-107605659D01*
X202540001Y-107605659D01*
X202598966Y-107600500D01*
X202775408Y-107585063D01*
X203003663Y-107523903D01*
X203217830Y-107424035D01*
X203411401Y-107288495D01*
X203578495Y-107121401D01*
X203708732Y-106935403D01*
X203763307Y-106891780D01*
X203832805Y-106884586D01*
X203895160Y-106916109D01*
X203911880Y-106935405D01*
X203965073Y-107011373D01*
X204597037Y-106379409D01*
X204614075Y-106442993D01*
X204679901Y-106557007D01*
X204772993Y-106650099D01*
X204887007Y-106715925D01*
X204950590Y-106732962D01*
X204318625Y-107364925D01*
X204402421Y-107423599D01*
X204616507Y-107523429D01*
X204616516Y-107523433D01*
X204844673Y-107584567D01*
X204844684Y-107584569D01*
X205079998Y-107605157D01*
X205080002Y-107605157D01*
X205315315Y-107584569D01*
X205315326Y-107584567D01*
X205543483Y-107523433D01*
X205543492Y-107523429D01*
X205757578Y-107423600D01*
X205757582Y-107423598D01*
X205841373Y-107364926D01*
X205841373Y-107364925D01*
X205209409Y-106732962D01*
X205272993Y-106715925D01*
X205387007Y-106650099D01*
X205480099Y-106557007D01*
X205545925Y-106442993D01*
X205562962Y-106379410D01*
X206194925Y-107011373D01*
X206194926Y-107011373D01*
X206253598Y-106927582D01*
X206253600Y-106927578D01*
X206353429Y-106713492D01*
X206353433Y-106713483D01*
X206414567Y-106485326D01*
X206414569Y-106485315D01*
X206435157Y-106250001D01*
X206435157Y-106249998D01*
X206414569Y-106014684D01*
X206414567Y-106014673D01*
X206353433Y-105786516D01*
X206353429Y-105786507D01*
X206253600Y-105572423D01*
X206253599Y-105572421D01*
X206194925Y-105488626D01*
X206194925Y-105488625D01*
X205562962Y-106120589D01*
X205545925Y-106057007D01*
X205480099Y-105942993D01*
X205387007Y-105849901D01*
X205272993Y-105784075D01*
X205209410Y-105767037D01*
X205841373Y-105135073D01*
X205764969Y-105081576D01*
X205721344Y-105026999D01*
X205714150Y-104957501D01*
X205745672Y-104895146D01*
X205764968Y-104878425D01*
X205841373Y-104824925D01*
X205209409Y-104192962D01*
X205272993Y-104175925D01*
X205387007Y-104110099D01*
X205480099Y-104017007D01*
X205545925Y-103902993D01*
X205562962Y-103839410D01*
X206194925Y-104471373D01*
X206194926Y-104471373D01*
X206253598Y-104387582D01*
X206253600Y-104387578D01*
X206353429Y-104173492D01*
X206353433Y-104173483D01*
X206414567Y-103945326D01*
X206414569Y-103945315D01*
X206435157Y-103710001D01*
X206435157Y-103709998D01*
X206414569Y-103474684D01*
X206414567Y-103474673D01*
X206353433Y-103246516D01*
X206353429Y-103246507D01*
X206253600Y-103032423D01*
X206253599Y-103032421D01*
X206194925Y-102948626D01*
X206194925Y-102948625D01*
X205562962Y-103580589D01*
X205545925Y-103517007D01*
X205480099Y-103402993D01*
X205387007Y-103309901D01*
X205272993Y-103244075D01*
X205209410Y-103227037D01*
X205841373Y-102595073D01*
X205841373Y-102595072D01*
X205757583Y-102536402D01*
X205757579Y-102536400D01*
X205543492Y-102436570D01*
X205543483Y-102436566D01*
X205315326Y-102375432D01*
X205315315Y-102375430D01*
X205080002Y-102354843D01*
X205079998Y-102354843D01*
X204844684Y-102375430D01*
X204844673Y-102375432D01*
X204616516Y-102436566D01*
X204616507Y-102436570D01*
X204402419Y-102536401D01*
X204318625Y-102595072D01*
X204950590Y-103227037D01*
X204887007Y-103244075D01*
X204772993Y-103309901D01*
X204679901Y-103402993D01*
X204614075Y-103517007D01*
X204597037Y-103580589D01*
X203965073Y-102948625D01*
X203965072Y-102948626D01*
X203911574Y-103025030D01*
X203856998Y-103068655D01*
X203787499Y-103075849D01*
X203725144Y-103044326D01*
X203708424Y-103025030D01*
X203654925Y-102948626D01*
X203654925Y-102948625D01*
X203022962Y-103580589D01*
X203005925Y-103517007D01*
X202940099Y-103402993D01*
X202847007Y-103309901D01*
X202732993Y-103244075D01*
X202669410Y-103227037D01*
X203301373Y-102595073D01*
X203301373Y-102595072D01*
X203217583Y-102536402D01*
X203217579Y-102536400D01*
X203003492Y-102436570D01*
X203003483Y-102436566D01*
X202775326Y-102375432D01*
X202775315Y-102375430D01*
X202540002Y-102354843D01*
X202539998Y-102354843D01*
X202304684Y-102375430D01*
X202304673Y-102375432D01*
X202076516Y-102436566D01*
X202076507Y-102436570D01*
X201862419Y-102536401D01*
X201778625Y-102595072D01*
X202410590Y-103227037D01*
X202347007Y-103244075D01*
X202232993Y-103309901D01*
X202139901Y-103402993D01*
X202074075Y-103517007D01*
X202057037Y-103580590D01*
X201425073Y-102948626D01*
X201371881Y-103024594D01*
X201317304Y-103068219D01*
X201247806Y-103075413D01*
X201185451Y-103043891D01*
X201168730Y-103024594D01*
X201038494Y-102838597D01*
X200871402Y-102671506D01*
X200871395Y-102671501D01*
X200869181Y-102669951D01*
X200802763Y-102623444D01*
X200677834Y-102535967D01*
X200677830Y-102535965D01*
X200654318Y-102525001D01*
X200463663Y-102436097D01*
X200463659Y-102436096D01*
X200463655Y-102436094D01*
X200235413Y-102374938D01*
X200235403Y-102374936D01*
X200151824Y-102367624D01*
X200086755Y-102342171D01*
X200045777Y-102285580D01*
X200041899Y-102215818D01*
X200074951Y-102156415D01*
X200119549Y-102111818D01*
X200180872Y-102078333D01*
X200207229Y-102075500D01*
X206737770Y-102075500D01*
X206804809Y-102095185D01*
G37*
%TD.AperFunction*%
%TA.AperFunction,Conductor*%
G36*
X204614075Y-103902993D02*
G01*
X204679901Y-104017007D01*
X204772993Y-104110099D01*
X204887007Y-104175925D01*
X204950590Y-104192962D01*
X204318625Y-104824925D01*
X204395031Y-104878425D01*
X204438655Y-104933002D01*
X204445848Y-105002501D01*
X204414326Y-105064855D01*
X204395029Y-105081576D01*
X204318625Y-105135072D01*
X204950590Y-105767037D01*
X204887007Y-105784075D01*
X204772993Y-105849901D01*
X204679901Y-105942993D01*
X204614075Y-106057007D01*
X204597037Y-106120589D01*
X203965073Y-105488626D01*
X203911881Y-105564594D01*
X203857304Y-105608219D01*
X203787806Y-105615413D01*
X203725451Y-105583891D01*
X203708730Y-105564594D01*
X203578494Y-105378597D01*
X203411402Y-105211506D01*
X203411401Y-105211505D01*
X203225405Y-105081269D01*
X203181781Y-105026692D01*
X203174588Y-104957193D01*
X203206110Y-104894839D01*
X203225405Y-104878119D01*
X203301373Y-104824925D01*
X202669409Y-104192962D01*
X202732993Y-104175925D01*
X202847007Y-104110099D01*
X202940099Y-104017007D01*
X203005925Y-103902993D01*
X203022962Y-103839410D01*
X203654925Y-104471373D01*
X203708425Y-104394968D01*
X203763002Y-104351344D01*
X203832501Y-104344151D01*
X203894855Y-104375673D01*
X203911576Y-104394969D01*
X203965073Y-104471372D01*
X204597037Y-103839409D01*
X204614075Y-103902993D01*
G37*
%TD.AperFunction*%
%TA.AperFunction,Conductor*%
G36*
X202074075Y-103902993D02*
G01*
X202139901Y-104017007D01*
X202232993Y-104110099D01*
X202347007Y-104175925D01*
X202410590Y-104192962D01*
X201778625Y-104824925D01*
X201854594Y-104878119D01*
X201898219Y-104932696D01*
X201905413Y-105002194D01*
X201873890Y-105064549D01*
X201854595Y-105081269D01*
X201668594Y-105211508D01*
X201501505Y-105378597D01*
X201371575Y-105564158D01*
X201316998Y-105607783D01*
X201247500Y-105614977D01*
X201185145Y-105583454D01*
X201168425Y-105564158D01*
X201038494Y-105378597D01*
X200871402Y-105211506D01*
X200871396Y-105211501D01*
X200685842Y-105081575D01*
X200642217Y-105026998D01*
X200635023Y-104957500D01*
X200666546Y-104895145D01*
X200685842Y-104878425D01*
X200744307Y-104837487D01*
X200871401Y-104748495D01*
X201038495Y-104581401D01*
X201168732Y-104395403D01*
X201223307Y-104351780D01*
X201292805Y-104344586D01*
X201355160Y-104376109D01*
X201371880Y-104395405D01*
X201425073Y-104471373D01*
X202057037Y-103839409D01*
X202074075Y-103902993D01*
G37*
%TD.AperFunction*%
%TD*%
M02*
