%TF.GenerationSoftware,KiCad,Pcbnew,8.0.5*%
%TF.CreationDate,2025-12-24T19:30:48+09:00*%
%TF.ProjectId,Sub_board_V1.0,5375625f-626f-4617-9264-5f56312e302e,rev?*%
%TF.SameCoordinates,Original*%
%TF.FileFunction,Soldermask,Top*%
%TF.FilePolarity,Negative*%
%FSLAX46Y46*%
G04 Gerber Fmt 4.6, Leading zero omitted, Abs format (unit mm)*
G04 Created by KiCad (PCBNEW 8.0.5) date 2025-12-24 19:30:48*
%MOMM*%
%LPD*%
G01*
G04 APERTURE LIST*
G04 Aperture macros list*
%AMRoundRect*
0 Rectangle with rounded corners*
0 $1 Rounding radius*
0 $2 $3 $4 $5 $6 $7 $8 $9 X,Y pos of 4 corners*
0 Add a 4 corners polygon primitive as box body*
4,1,4,$2,$3,$4,$5,$6,$7,$8,$9,$2,$3,0*
0 Add four circle primitives for the rounded corners*
1,1,$1+$1,$2,$3*
1,1,$1+$1,$4,$5*
1,1,$1+$1,$6,$7*
1,1,$1+$1,$8,$9*
0 Add four rect primitives between the rounded corners*
20,1,$1+$1,$2,$3,$4,$5,0*
20,1,$1+$1,$4,$5,$6,$7,0*
20,1,$1+$1,$6,$7,$8,$9,0*
20,1,$1+$1,$8,$9,$2,$3,0*%
G04 Aperture macros list end*
%ADD10R,2.000000X2.500000*%
%ADD11R,6.000000X6.000000*%
%ADD12RoundRect,0.225000X-0.225000X-0.250000X0.225000X-0.250000X0.225000X0.250000X-0.225000X0.250000X0*%
%ADD13RoundRect,0.250000X0.600000X0.750000X-0.600000X0.750000X-0.600000X-0.750000X0.600000X-0.750000X0*%
%ADD14O,1.700000X2.000000*%
%ADD15RoundRect,0.225000X0.250000X-0.225000X0.250000X0.225000X-0.250000X0.225000X-0.250000X-0.225000X0*%
%ADD16RoundRect,0.225000X0.225000X0.250000X-0.225000X0.250000X-0.225000X-0.250000X0.225000X-0.250000X0*%
%ADD17R,1.700000X1.700000*%
%ADD18O,1.700000X1.700000*%
%ADD19RoundRect,0.250000X0.600000X-0.600000X0.600000X0.600000X-0.600000X0.600000X-0.600000X-0.600000X0*%
%ADD20C,1.700000*%
%ADD21C,1.905000*%
%ADD22C,1.600000*%
%ADD23RoundRect,0.250000X0.600000X0.725000X-0.600000X0.725000X-0.600000X-0.725000X0.600000X-0.725000X0*%
%ADD24O,1.700000X1.950000*%
%ADD25C,2.400000*%
%ADD26R,2.400000X2.400000*%
%ADD27C,1.400000*%
%ADD28R,3.500000X3.500000*%
%ADD29C,3.500000*%
%ADD30R,0.900000X2.000000*%
%ADD31RoundRect,1.025000X-1.025000X-1.025000X1.025000X-1.025000X1.025000X1.025000X-1.025000X1.025000X0*%
%ADD32C,4.100000*%
G04 APERTURE END LIST*
D10*
%TO.C,IC1*%
X202300000Y-126250000D03*
D11*
X200000000Y-132500000D03*
D10*
X197700000Y-126250000D03*
%TD*%
D12*
%TO.C,C11*%
X202300000Y-121250000D03*
X203850000Y-121250000D03*
%TD*%
D13*
%TO.C,J6*%
X149000000Y-103975000D03*
D14*
X146500000Y-103975000D03*
%TD*%
D15*
%TO.C,C7*%
X228575000Y-139050000D03*
X228575000Y-137500000D03*
%TD*%
D16*
%TO.C,C5*%
X148505000Y-110000000D03*
X146955000Y-110000000D03*
%TD*%
D17*
%TO.C,J4*%
X182500000Y-137500000D03*
D18*
X182500000Y-134960000D03*
X182500000Y-132420000D03*
X182500000Y-129880000D03*
X182500000Y-127340000D03*
X182500000Y-124800000D03*
%TD*%
D19*
%TO.C,J1*%
X194920000Y-106250000D03*
D20*
X194920000Y-103710000D03*
X197460000Y-106250000D03*
X197460000Y-103710000D03*
X200000000Y-106250000D03*
X200000000Y-103710000D03*
X202540000Y-106250000D03*
X202540000Y-103710000D03*
X205080000Y-106250000D03*
X205080000Y-103710000D03*
%TD*%
D15*
%TO.C,C3*%
X168000000Y-139050000D03*
X168000000Y-137500000D03*
%TD*%
D17*
%TO.C,J9*%
X225120000Y-137500000D03*
D18*
X225120000Y-134960000D03*
X225120000Y-132420000D03*
X225120000Y-129880000D03*
X225120000Y-127340000D03*
X225120000Y-124800000D03*
%TD*%
D21*
%TO.C,SW1*%
X165000000Y-114000000D03*
X162460000Y-114000000D03*
X159920000Y-114000000D03*
%TD*%
D22*
%TO.C,C8*%
X233500000Y-137500000D03*
X233500000Y-135000000D03*
%TD*%
D12*
%TO.C,C12*%
X202300000Y-118750000D03*
X203850000Y-118750000D03*
%TD*%
D15*
%TO.C,C1*%
X186250000Y-139050000D03*
X186250000Y-137500000D03*
%TD*%
D16*
%TO.C,C14*%
X197700000Y-121250000D03*
X196150000Y-121250000D03*
%TD*%
%TO.C,C6*%
X247005000Y-110000000D03*
X245455000Y-110000000D03*
%TD*%
D15*
%TO.C,C4*%
X171250000Y-139050000D03*
X171250000Y-137500000D03*
%TD*%
D12*
%TO.C,C13*%
X202300000Y-116250000D03*
X203850000Y-116250000D03*
%TD*%
D22*
%TO.C,C2*%
X191250000Y-137500000D03*
X191250000Y-140000000D03*
%TD*%
D23*
%TO.C,J3*%
X238000000Y-104000000D03*
D24*
X235500000Y-104000000D03*
X233000000Y-104000000D03*
%TD*%
D25*
%TO.C,F1*%
X156375000Y-103100000D03*
D26*
X156375000Y-106500000D03*
D25*
X169845000Y-103100000D03*
X169845000Y-106500000D03*
%TD*%
D27*
%TO.C,J8*%
X175950000Y-103975000D03*
X186950000Y-103975000D03*
D28*
X183950000Y-113975000D03*
D29*
X178950000Y-113975000D03*
%TD*%
D30*
%TO.C,J2*%
X214150000Y-110000000D03*
X227650000Y-110000000D03*
D31*
X224500000Y-116000000D03*
D32*
X217300000Y-116000000D03*
%TD*%
D15*
%TO.C,C9*%
X213870000Y-139050000D03*
X213870000Y-137500000D03*
%TD*%
D17*
%TO.C,J5*%
X174880000Y-137500000D03*
D18*
X174880000Y-134960000D03*
X174880000Y-132420000D03*
X174880000Y-129880000D03*
X174880000Y-127340000D03*
X174880000Y-124800000D03*
%TD*%
D17*
%TO.C,J10*%
X217500000Y-137500000D03*
D18*
X217500000Y-134960000D03*
X217500000Y-132420000D03*
X217500000Y-129880000D03*
X217500000Y-127340000D03*
X217500000Y-124800000D03*
%TD*%
D15*
%TO.C,C10*%
X210620000Y-139050000D03*
X210620000Y-137500000D03*
%TD*%
D13*
%TO.C,J7*%
X247500000Y-104000000D03*
D14*
X245000000Y-104000000D03*
%TD*%
M02*
