M48
; DRILL file {KiCad 8.0.5} date 2025-12-24T19:30:49+0900
; FORMAT={-:-/ absolute / metric / decimal}
; #@! TF.CreationDate,2025-12-24T19:30:49+09:00
; #@! TF.GenerationSoftware,Kicad,Pcbnew,8.0.5
; #@! TF.FileFunction,Plated,1,2,PTH
FMAT,2
METRIC
; #@! TA.AperFunction,Plated,PTH,ViaDrill
T1C0.300
; #@! TA.AperFunction,Plated,PTH,ViaDrill
T2C0.400
; #@! TA.AperFunction,Plated,PTH,ComponentDrill
T3C0.600
; #@! TA.AperFunction,Plated,PTH,ComponentDrill
T4C0.800
; #@! TA.AperFunction,Plated,PTH,ComponentDrill
T5C0.950
; #@! TA.AperFunction,Plated,PTH,ComponentDrill
T6C1.000
; #@! TA.AperFunction,Plated,PTH,ComponentDrill
T7C1.270
; #@! TA.AperFunction,Plated,PTH,ComponentDrill
T8C1.600
; #@! TA.AperFunction,Plated,PTH,ComponentDrill
T9C1.900
; #@! TA.AperFunction,Plated,PTH,ComponentDrill
T10C2.700
%
G90
G05
T1
X138.4Y-104.85
X138.6Y-119.875
X138.8Y-115.025
X139.325Y-110.275
X143.475Y-126.725
X146.425Y-119.85
X148.725Y-131.125
X152.1Y-125.425
X154.15Y-133.9
X159.525Y-128.35
X160.375Y-101.125
X160.7Y-137.15
X163.0Y-105.65
X163.375Y-109.775
X163.775Y-125.75
X165.35Y-139.65
X167.2Y-101.05
X168.85Y-114.85
X169.175Y-112.7
X170.025Y-133.475
X173.15Y-142.525
X177.0Y-116.0
X177.5Y-124.925
X177.6Y-104.625
X177.675Y-101.5
X177.925Y-143.75
X178.35Y-136.8
X178.5Y-132.625
X182.55Y-108.6
X185.7Y-145.15
X186.075Y-124.35
X186.15Y-133.5
X186.775Y-101.475
X187.375Y-106.475
X189.925Y-115.95
X190.35Y-128.925
X195.225Y-110.85
X196.85Y-101.5
X197.5Y-146.525
X197.6Y-115.45
X199.875Y-121.75
X200.0Y-117.125
X203.3Y-108.35
X207.1Y-123.025
X207.125Y-114.7
X207.425Y-109.7
X208.975Y-133.075
X210.525Y-145.825
X211.025Y-129.15
X212.4Y-115.35
X212.85Y-102.625
X217.8Y-120.275
X218.175Y-109.6
X219.45Y-144.525
X220.425Y-124.425
X220.85Y-131.75
X221.875Y-137.8
X222.825Y-102.775
X223.05Y-110.65
X229.075Y-133.65
X229.3Y-102.7
X229.7Y-141.75
X231.95Y-108.6
X232.125Y-130.95
X232.175Y-117.325
X232.775Y-113.7
X234.475Y-101.1
X234.6Y-129.725
X235.375Y-140.0
X236.35Y-112.875
X238.95Y-110.35
X241.35Y-101.2
X242.0Y-136.65
X244.425Y-127.625
X245.95Y-120.925
X246.9Y-101.225
X248.775Y-132.525
X252.45Y-101.125
X252.625Y-121.65
X252.85Y-108.625
X254.225Y-129.375
X255.175Y-114.6
X256.775Y-101.15
X259.125Y-125.925
X261.825Y-106.025
X261.9Y-111.7
X262.05Y-116.475
X262.1Y-101.025
X262.175Y-123.7
T2
X169.125Y-120.675
X169.475Y-117.975
X170.4Y-122.125
X171.825Y-135.075
X175.175Y-119.275
X179.3Y-121.475
X191.25Y-117.975
X194.875Y-135.675
X195.3Y-119.275
X199.4Y-138.8
X208.275Y-118.625
X230.775Y-125.225
X232.6Y-127.7
X234.275Y-121.725
X236.05Y-124.25
T4
X191.25Y-137.5
X191.25Y-140.0
X233.5Y-135.0
X233.5Y-137.5
T5
X233.0Y-104.0
X235.5Y-104.0
X238.0Y-104.0
T6
X146.5Y-103.975
X149.0Y-103.975
X174.88Y-124.8
X174.88Y-127.34
X174.88Y-129.88
X174.88Y-132.42
X174.88Y-134.96
X174.88Y-137.5
X175.95Y-103.975
X182.5Y-124.8
X182.5Y-127.34
X182.5Y-129.88
X182.5Y-132.42
X182.5Y-134.96
X182.5Y-137.5
X186.95Y-103.975
X194.92Y-103.71
X194.92Y-106.25
X197.46Y-103.71
X197.46Y-106.25
X200.0Y-103.71
X200.0Y-106.25
X202.54Y-103.71
X202.54Y-106.25
X205.08Y-103.71
X205.08Y-106.25
X217.5Y-124.8
X217.5Y-127.34
X217.5Y-129.88
X217.5Y-132.42
X217.5Y-134.96
X217.5Y-137.5
X225.12Y-124.8
X225.12Y-127.34
X225.12Y-129.88
X225.12Y-132.42
X225.12Y-134.96
X225.12Y-137.5
X245.0Y-104.0
X247.5Y-104.0
T7
X159.92Y-114.0
X162.46Y-114.0
X165.0Y-114.0
T8
X156.375Y-103.1
X156.375Y-106.5
X169.845Y-103.1
X169.845Y-106.5
T9
X178.95Y-113.975
X183.95Y-113.975
T10
X217.3Y-116.0
X224.5Y-116.0
T3
G00X214.15Y-109.45
M15
G01X214.15Y-110.55
M16
G05
G00X227.65Y-109.45
M15
G01X227.65Y-110.55
M16
G05
M30
