%TF.GenerationSoftware,KiCad,Pcbnew,8.0.5*%
%TF.CreationDate,2025-10-03T19:24:38+09:00*%
%TF.ProjectId,mai__,6d6169fa-7f2e-46b6-9963-61645f706362,rev?*%
%TF.SameCoordinates,Original*%
%TF.FileFunction,Copper,L2,Bot*%
%TF.FilePolarity,Positive*%
%FSLAX46Y46*%
G04 Gerber Fmt 4.6, Leading zero omitted, Abs format (unit mm)*
G04 Created by KiCad (PCBNEW 8.0.5) date 2025-10-03 19:24:38*
%MOMM*%
%LPD*%
G01*
G04 APERTURE LIST*
G04 Aperture macros list*
%AMRoundRect*
0 Rectangle with rounded corners*
0 $1 Rounding radius*
0 $2 $3 $4 $5 $6 $7 $8 $9 X,Y pos of 4 corners*
0 Add a 4 corners polygon primitive as box body*
4,1,4,$2,$3,$4,$5,$6,$7,$8,$9,$2,$3,0*
0 Add four circle primitives for the rounded corners*
1,1,$1+$1,$2,$3*
1,1,$1+$1,$4,$5*
1,1,$1+$1,$6,$7*
1,1,$1+$1,$8,$9*
0 Add four rect primitives between the rounded corners*
20,1,$1+$1,$2,$3,$4,$5,0*
20,1,$1+$1,$4,$5,$6,$7,0*
20,1,$1+$1,$6,$7,$8,$9,0*
20,1,$1+$1,$8,$9,$2,$3,0*%
G04 Aperture macros list end*
%TA.AperFunction,ComponentPad*%
%ADD10C,1.950000*%
%TD*%
%TA.AperFunction,ComponentPad*%
%ADD11RoundRect,0.250000X0.600000X-0.600000X0.600000X0.600000X-0.600000X0.600000X-0.600000X-0.600000X0*%
%TD*%
%TA.AperFunction,ComponentPad*%
%ADD12C,1.700000*%
%TD*%
%TA.AperFunction,ComponentPad*%
%ADD13R,1.600000X1.600000*%
%TD*%
%TA.AperFunction,ComponentPad*%
%ADD14O,1.600000X1.600000*%
%TD*%
%TA.AperFunction,ComponentPad*%
%ADD15R,1.700000X1.700000*%
%TD*%
%TA.AperFunction,ComponentPad*%
%ADD16O,1.700000X1.700000*%
%TD*%
%TA.AperFunction,ComponentPad*%
%ADD17RoundRect,0.250000X-0.600000X-0.725000X0.600000X-0.725000X0.600000X0.725000X-0.600000X0.725000X0*%
%TD*%
%TA.AperFunction,ComponentPad*%
%ADD18O,1.700000X1.950000*%
%TD*%
%TA.AperFunction,ComponentPad*%
%ADD19RoundRect,0.250000X-0.600000X-0.750000X0.600000X-0.750000X0.600000X0.750000X-0.600000X0.750000X0*%
%TD*%
%TA.AperFunction,ComponentPad*%
%ADD20O,1.700000X2.000000*%
%TD*%
%TA.AperFunction,ViaPad*%
%ADD21C,1.000000*%
%TD*%
%TA.AperFunction,ViaPad*%
%ADD22C,0.600000*%
%TD*%
%TA.AperFunction,Conductor*%
%ADD23C,1.000000*%
%TD*%
%TA.AperFunction,Conductor*%
%ADD24C,0.500000*%
%TD*%
%TA.AperFunction,Conductor*%
%ADD25C,0.200000*%
%TD*%
G04 APERTURE END LIST*
D10*
%TO.P,S1,1,COM_1*%
%TO.N,+3.3V*%
X200750000Y-112100000D03*
%TO.P,S1,2,COM_2*%
%TO.N,unconnected-(S1-COM_2-Pad2)*%
X213250000Y-112100000D03*
%TO.P,S1,3,NO_1*%
%TO.N,unconnected-(S1-NO_1-Pad3)*%
X200750000Y-117100000D03*
%TO.P,S1,4,NO_2*%
%TO.N,D2*%
X213250000Y-117100000D03*
%TD*%
D11*
%TO.P,J1,1,Pin_1*%
%TO.N,PWM1*%
X164455550Y-122000000D03*
D12*
%TO.P,J1,2,Pin_2*%
%TO.N,PWM3*%
X164455550Y-119460000D03*
%TO.P,J1,3,Pin_3*%
%TO.N,PWM2*%
X166995550Y-122000000D03*
%TO.P,J1,4,Pin_4*%
%TO.N,PWM4*%
X166995550Y-119460000D03*
%TO.P,J1,5,Pin_5*%
%TO.N,+3.3V*%
X169535550Y-122000000D03*
%TO.P,J1,6,Pin_6*%
%TO.N,+5V*%
X169535550Y-119460000D03*
%TO.P,J1,7,Pin_7*%
%TO.N,GND*%
X172075550Y-122000000D03*
%TO.P,J1,8,Pin_8*%
%TO.N,+9V*%
X172075550Y-119460000D03*
%TO.P,J1,9,Pin_9*%
%TO.N,GND*%
X174615550Y-122000000D03*
%TO.P,J1,10,Pin_10*%
X174615550Y-119460000D03*
%TD*%
D13*
%TO.P,A1,1,NC*%
%TO.N,unconnected-(A1-NC-Pad1)*%
X158280000Y-63140000D03*
D14*
%TO.P,A1,2,IOREF*%
%TO.N,unconnected-(A1-IOREF-Pad2)*%
X160820000Y-63140000D03*
%TO.P,A1,3,~{RESET}*%
%TO.N,unconnected-(A1-~{RESET}-Pad3)*%
X163360000Y-63140000D03*
%TO.P,A1,4,3V3*%
%TO.N,unconnected-(A1-3V3-Pad4)*%
X165900000Y-63140000D03*
%TO.P,A1,5,+5V*%
%TO.N,unconnected-(A1-+5V-Pad5)*%
X168440000Y-63140000D03*
%TO.P,A1,6,GND*%
%TO.N,GND*%
X170980000Y-63140000D03*
%TO.P,A1,7,GND*%
X173520000Y-63140000D03*
%TO.P,A1,8,VIN*%
%TO.N,+9V*%
X176060000Y-63140000D03*
%TO.P,A1,9,A0*%
%TO.N,A0*%
X181140000Y-63140000D03*
%TO.P,A1,10,A1*%
%TO.N,A1*%
X183680000Y-63140000D03*
%TO.P,A1,11,A2*%
%TO.N,A2*%
X186220000Y-63140000D03*
%TO.P,A1,12,A3*%
%TO.N,A3*%
X188760000Y-63140000D03*
%TO.P,A1,13,SDA/A4*%
%TO.N,A4*%
X191300000Y-63140000D03*
%TO.P,A1,14,SCL/A5*%
%TO.N,IN1*%
X193840000Y-63140000D03*
%TO.P,A1,15,D0/RX*%
%TO.N,RX*%
X193840000Y-111400000D03*
%TO.P,A1,16,D1/TX*%
%TO.N,TX*%
X191300000Y-111400000D03*
%TO.P,A1,17,D2*%
%TO.N,D2*%
X188760000Y-111400000D03*
%TO.P,A1,18,D3*%
%TO.N,unconnected-(A1-D3-Pad18)*%
X186220000Y-111400000D03*
%TO.P,A1,19,D4*%
%TO.N,unconnected-(A1-D4-Pad19)*%
X183680000Y-111400000D03*
%TO.P,A1,20,D5*%
%TO.N,PWM1*%
X181140000Y-111400000D03*
%TO.P,A1,21,D6*%
%TO.N,PWM2*%
X178600000Y-111400000D03*
%TO.P,A1,22,D7*%
%TO.N,unconnected-(A1-D7-Pad22)*%
X176060000Y-111400000D03*
%TO.P,A1,23,D8*%
%TO.N,PWM3*%
X172000000Y-111400000D03*
%TO.P,A1,24,D9*%
%TO.N,PWM4*%
X169460000Y-111400000D03*
%TO.P,A1,25,D10*%
%TO.N,unconnected-(A1-D10-Pad25)*%
X166920000Y-111400000D03*
%TO.P,A1,26,D11*%
%TO.N,PWM5*%
X164380000Y-111400000D03*
%TO.P,A1,27,D12*%
%TO.N,unconnected-(A1-D12-Pad27)*%
X161840000Y-111400000D03*
%TO.P,A1,28,D13*%
%TO.N,unconnected-(A1-D13-Pad28)*%
X159300000Y-111400000D03*
%TO.P,A1,29,GND*%
%TO.N,GND*%
X156760000Y-111400000D03*
%TO.P,A1,30,AREF*%
%TO.N,unconnected-(A1-AREF-Pad30)*%
X154220000Y-111400000D03*
%TO.P,A1,31,SDA/A4*%
%TO.N,SDA*%
X151680000Y-111400000D03*
%TO.P,A1,32,SCL/A5*%
%TO.N,SCL*%
X149140000Y-111400000D03*
%TD*%
D15*
%TO.P,J9,1,Pin_1*%
%TO.N,+3.3V*%
X212000000Y-84000000D03*
D16*
%TO.P,J9,2,Pin_2*%
%TO.N,GND*%
X212000000Y-86540000D03*
%TO.P,J9,3,Pin_3*%
%TO.N,SCL*%
X212000000Y-89080000D03*
%TO.P,J9,4,Pin_4*%
%TO.N,SDA*%
X212000000Y-91620000D03*
%TO.P,J9,5,Pin_5*%
%TO.N,unconnected-(J9-Pin_5-Pad5)*%
X212000000Y-94160000D03*
%TO.P,J9,6,Pin_6*%
%TO.N,unconnected-(J9-Pin_6-Pad6)*%
X212000000Y-96700000D03*
%TO.P,J9,7,Pin_7*%
%TO.N,unconnected-(J9-Pin_7-Pad7)*%
X212000000Y-99240000D03*
%TO.P,J9,8,Pin_8*%
%TO.N,unconnected-(J9-Pin_8-Pad8)*%
X212000000Y-101780000D03*
%TD*%
D17*
%TO.P,J3,1,Pin_1*%
%TO.N,A0*%
X202500000Y-76020000D03*
D18*
%TO.P,J3,2,Pin_2*%
%TO.N,A1*%
X205000000Y-76020000D03*
%TO.P,J3,3,Pin_3*%
%TO.N,A2*%
X207500000Y-76020000D03*
%TO.P,J3,4,Pin_4*%
%TO.N,A3*%
X210000000Y-76020000D03*
%TO.P,J3,5,Pin_5*%
%TO.N,A4*%
X212500000Y-76020000D03*
%TD*%
D17*
%TO.P,J4,1,Pin_1*%
%TO.N,RX*%
X143770000Y-120680000D03*
D18*
%TO.P,J4,2,Pin_2*%
%TO.N,TX*%
X146270000Y-120680000D03*
%TO.P,J4,3,Pin_3*%
%TO.N,+9V*%
X148770000Y-120680000D03*
%TO.P,J4,4,Pin_4*%
%TO.N,GND*%
X151270000Y-120680000D03*
%TO.P,J4,5,Pin_5*%
%TO.N,+3.3V*%
X153770000Y-120680000D03*
%TD*%
D19*
%TO.P,J2,1,Pin_1*%
%TO.N,+3.3V*%
X132500000Y-120680000D03*
D20*
%TO.P,J2,2,Pin_2*%
%TO.N,GND*%
X135000000Y-120680000D03*
%TD*%
D17*
%TO.P,J5,1,Pin_1*%
%TO.N,GND*%
X202500000Y-68000000D03*
D18*
%TO.P,J5,2,Pin_2*%
%TO.N,PWM5*%
X205000000Y-68000000D03*
%TO.P,J5,3,Pin_3*%
%TO.N,IN1*%
X207500000Y-68000000D03*
%TO.P,J5,4,Pin_4*%
%TO.N,+5V*%
X210000000Y-68000000D03*
%TO.P,J5,5,Pin_5*%
%TO.N,+9V*%
X212500000Y-68000000D03*
%TD*%
D21*
%TO.N,GND*%
X195525000Y-68525000D03*
X193050000Y-66100000D03*
X190625000Y-71400000D03*
X186825000Y-67525000D03*
X192300000Y-70400000D03*
X189775000Y-67950000D03*
X195150000Y-70700000D03*
X190750000Y-66475000D03*
X139475000Y-122075000D03*
X153125000Y-123225000D03*
D22*
%TO.N,SDA*%
X166850000Y-103900000D03*
X201100000Y-99190000D03*
%TO.N,PWM3*%
X170410000Y-115760000D03*
%TO.N,SCL*%
X198870000Y-89080000D03*
X152740000Y-107800000D03*
X170240000Y-101020000D03*
D21*
%TO.N,GND*%
X184350000Y-84750000D03*
X190900000Y-100900000D03*
X160150000Y-85350000D03*
X195850000Y-111200000D03*
X214350000Y-64450000D03*
X145020000Y-113750000D03*
X172000000Y-97050000D03*
X157900000Y-115150000D03*
X159150000Y-70900000D03*
X178100000Y-67150000D03*
X170300000Y-74150000D03*
X166800000Y-102150000D03*
X156200000Y-90650000D03*
X190140000Y-108640000D03*
X151950000Y-94700000D03*
X137550000Y-66900000D03*
X183050000Y-75650000D03*
X170000000Y-108800000D03*
X183650000Y-97050000D03*
X129200000Y-111200000D03*
X149050000Y-79800000D03*
X200800000Y-103650000D03*
X180250000Y-108700000D03*
X145980000Y-109490000D03*
X207575000Y-59825000D03*
X129000000Y-79350000D03*
X145070000Y-117050000D03*
X124200000Y-106350000D03*
X215050000Y-126250000D03*
X149930000Y-107560000D03*
X130650000Y-124950000D03*
X177750000Y-79350000D03*
X188950000Y-92250000D03*
X183350000Y-101900000D03*
X176800000Y-92300000D03*
X152600000Y-113800000D03*
X195300000Y-107000000D03*
X167250000Y-59800000D03*
X175050000Y-108600000D03*
X129100000Y-89650000D03*
D22*
%TO.N,+3.3V*%
X191720000Y-121130000D03*
%TD*%
D23*
%TO.N,+9V*%
X205750000Y-61250000D02*
X212500000Y-68000000D01*
X177950000Y-61250000D02*
X205750000Y-61250000D01*
X176060000Y-63140000D02*
X177950000Y-61250000D01*
X144780000Y-94420000D02*
X176060000Y-63140000D01*
X144780000Y-111812943D02*
X144780000Y-94420000D01*
X148770000Y-120680000D02*
X148770000Y-115802943D01*
X148770000Y-115802943D02*
X144780000Y-111812943D01*
D24*
%TO.N,+3.3V*%
X137120000Y-125300000D02*
X132500000Y-120680000D01*
X158390000Y-125300000D02*
X137120000Y-125300000D01*
X158390000Y-125300000D02*
X153770000Y-120680000D01*
X166235550Y-125300000D02*
X158390000Y-125300000D01*
D25*
%TO.N,SDA*%
X159180000Y-103900000D02*
X166850000Y-103900000D01*
X212000000Y-91620000D02*
X208670000Y-91620000D01*
X151680000Y-111400000D02*
X159180000Y-103900000D01*
X201100000Y-99190000D02*
X201100000Y-99020000D01*
X208670000Y-91620000D02*
X201100000Y-99190000D01*
%TO.N,PWM3*%
X172000000Y-114170000D02*
X170410000Y-115760000D01*
X172000000Y-111400000D02*
X172000000Y-114170000D01*
%TO.N,SCL*%
X198870000Y-89080000D02*
X212000000Y-89080000D01*
X152740000Y-107800000D02*
X159520000Y-101020000D01*
X159520000Y-101020000D02*
X170240000Y-101020000D01*
%TO.N,PWM5*%
X164380000Y-111400000D02*
X164380000Y-108620000D01*
X164380000Y-108620000D02*
X205000000Y-68000000D01*
D24*
%TO.N,+3.3V*%
X172545550Y-125010000D02*
X169535550Y-122000000D01*
X187840000Y-125010000D02*
X172545550Y-125010000D01*
X191720000Y-121130000D02*
X187840000Y-125010000D01*
X169535550Y-122000000D02*
X166235550Y-125300000D01*
D25*
%TO.N,D2*%
X190560000Y-109600000D02*
X188760000Y-111400000D01*
X213250000Y-117100000D02*
X205750000Y-109600000D01*
X205750000Y-109600000D02*
X190560000Y-109600000D01*
%TO.N,PWM4*%
X169460000Y-116995550D02*
X166995550Y-119460000D01*
X169460000Y-111400000D02*
X169460000Y-116995550D01*
%TD*%
%TA.AperFunction,Conductor*%
%TO.N,GND*%
G36*
X180004055Y-62270185D02*
G01*
X180049810Y-62322989D01*
X180059754Y-62392147D01*
X180038591Y-62445621D01*
X180026130Y-62463417D01*
X180009432Y-62487265D01*
X180009431Y-62487267D01*
X179913261Y-62693502D01*
X179913258Y-62693511D01*
X179854366Y-62913302D01*
X179854364Y-62913313D01*
X179834532Y-63139998D01*
X179834532Y-63140001D01*
X179854364Y-63366686D01*
X179854366Y-63366697D01*
X179913258Y-63586488D01*
X179913261Y-63586497D01*
X180009431Y-63792732D01*
X180009432Y-63792734D01*
X180139954Y-63979141D01*
X180300858Y-64140045D01*
X180300861Y-64140047D01*
X180487266Y-64270568D01*
X180693504Y-64366739D01*
X180913308Y-64425635D01*
X181075230Y-64439801D01*
X181139998Y-64445468D01*
X181140000Y-64445468D01*
X181140002Y-64445468D01*
X181196807Y-64440498D01*
X181366692Y-64425635D01*
X181586496Y-64366739D01*
X181792734Y-64270568D01*
X181979139Y-64140047D01*
X182140047Y-63979139D01*
X182270568Y-63792734D01*
X182297618Y-63734724D01*
X182343790Y-63682285D01*
X182410983Y-63663133D01*
X182477865Y-63683348D01*
X182522382Y-63734725D01*
X182549429Y-63792728D01*
X182549432Y-63792734D01*
X182679954Y-63979141D01*
X182840858Y-64140045D01*
X182840861Y-64140047D01*
X183027266Y-64270568D01*
X183233504Y-64366739D01*
X183453308Y-64425635D01*
X183615230Y-64439801D01*
X183679998Y-64445468D01*
X183680000Y-64445468D01*
X183680002Y-64445468D01*
X183736807Y-64440498D01*
X183906692Y-64425635D01*
X184126496Y-64366739D01*
X184332734Y-64270568D01*
X184519139Y-64140047D01*
X184680047Y-63979139D01*
X184810568Y-63792734D01*
X184837618Y-63734724D01*
X184883790Y-63682285D01*
X184950983Y-63663133D01*
X185017865Y-63683348D01*
X185062382Y-63734725D01*
X185089429Y-63792728D01*
X185089432Y-63792734D01*
X185219954Y-63979141D01*
X185380858Y-64140045D01*
X185380861Y-64140047D01*
X185567266Y-64270568D01*
X185773504Y-64366739D01*
X185993308Y-64425635D01*
X186155230Y-64439801D01*
X186219998Y-64445468D01*
X186220000Y-64445468D01*
X186220002Y-64445468D01*
X186276807Y-64440498D01*
X186446692Y-64425635D01*
X186666496Y-64366739D01*
X186872734Y-64270568D01*
X187059139Y-64140047D01*
X187220047Y-63979139D01*
X187350568Y-63792734D01*
X187377618Y-63734724D01*
X187423790Y-63682285D01*
X187490983Y-63663133D01*
X187557865Y-63683348D01*
X187602382Y-63734725D01*
X187629429Y-63792728D01*
X187629432Y-63792734D01*
X187759954Y-63979141D01*
X187920858Y-64140045D01*
X187920861Y-64140047D01*
X188107266Y-64270568D01*
X188313504Y-64366739D01*
X188533308Y-64425635D01*
X188695230Y-64439801D01*
X188759998Y-64445468D01*
X188760000Y-64445468D01*
X188760002Y-64445468D01*
X188816807Y-64440498D01*
X188986692Y-64425635D01*
X189206496Y-64366739D01*
X189412734Y-64270568D01*
X189599139Y-64140047D01*
X189760047Y-63979139D01*
X189890568Y-63792734D01*
X189917618Y-63734724D01*
X189963790Y-63682285D01*
X190030983Y-63663133D01*
X190097865Y-63683348D01*
X190142382Y-63734725D01*
X190169429Y-63792728D01*
X190169432Y-63792734D01*
X190299954Y-63979141D01*
X190460858Y-64140045D01*
X190460861Y-64140047D01*
X190647266Y-64270568D01*
X190853504Y-64366739D01*
X191073308Y-64425635D01*
X191235230Y-64439801D01*
X191299998Y-64445468D01*
X191300000Y-64445468D01*
X191300002Y-64445468D01*
X191356807Y-64440498D01*
X191526692Y-64425635D01*
X191746496Y-64366739D01*
X191952734Y-64270568D01*
X192139139Y-64140047D01*
X192300047Y-63979139D01*
X192430568Y-63792734D01*
X192457618Y-63734724D01*
X192503790Y-63682285D01*
X192570983Y-63663133D01*
X192637865Y-63683348D01*
X192682382Y-63734725D01*
X192709429Y-63792728D01*
X192709432Y-63792734D01*
X192839954Y-63979141D01*
X193000858Y-64140045D01*
X193000861Y-64140047D01*
X193187266Y-64270568D01*
X193393504Y-64366739D01*
X193613308Y-64425635D01*
X193775230Y-64439801D01*
X193839998Y-64445468D01*
X193840000Y-64445468D01*
X193840002Y-64445468D01*
X193896807Y-64440498D01*
X194066692Y-64425635D01*
X194286496Y-64366739D01*
X194492734Y-64270568D01*
X194679139Y-64140047D01*
X194840047Y-63979139D01*
X194970568Y-63792734D01*
X195066739Y-63586496D01*
X195125635Y-63366692D01*
X195145468Y-63140000D01*
X195143679Y-63119557D01*
X195125635Y-62913313D01*
X195125635Y-62913308D01*
X195066739Y-62693504D01*
X194970568Y-62487266D01*
X194941408Y-62445621D01*
X194919082Y-62379417D01*
X194936092Y-62311650D01*
X194987040Y-62263837D01*
X195042984Y-62250500D01*
X205284218Y-62250500D01*
X205351257Y-62270185D01*
X205371899Y-62286819D01*
X209511239Y-66426160D01*
X209544724Y-66487483D01*
X209539740Y-66557175D01*
X209497868Y-66613108D01*
X209479853Y-66624326D01*
X209292180Y-66719951D01*
X209120213Y-66844890D01*
X208969894Y-66995209D01*
X208969890Y-66995214D01*
X208850318Y-67159793D01*
X208794989Y-67202459D01*
X208725375Y-67208438D01*
X208663580Y-67175833D01*
X208649682Y-67159793D01*
X208530109Y-66995214D01*
X208530105Y-66995209D01*
X208379786Y-66844890D01*
X208207820Y-66719951D01*
X208018414Y-66623444D01*
X208018413Y-66623443D01*
X208018412Y-66623443D01*
X207816243Y-66557754D01*
X207816241Y-66557753D01*
X207816240Y-66557753D01*
X207654957Y-66532208D01*
X207606287Y-66524500D01*
X207393713Y-66524500D01*
X207345042Y-66532208D01*
X207183760Y-66557753D01*
X206981585Y-66623444D01*
X206792179Y-66719951D01*
X206620213Y-66844890D01*
X206469894Y-66995209D01*
X206469890Y-66995214D01*
X206350318Y-67159793D01*
X206294989Y-67202459D01*
X206225375Y-67208438D01*
X206163580Y-67175833D01*
X206149682Y-67159793D01*
X206030109Y-66995214D01*
X206030105Y-66995209D01*
X205879786Y-66844890D01*
X205707820Y-66719951D01*
X205518414Y-66623444D01*
X205518413Y-66623443D01*
X205518412Y-66623443D01*
X205316243Y-66557754D01*
X205316241Y-66557753D01*
X205316240Y-66557753D01*
X205154957Y-66532208D01*
X205106287Y-66524500D01*
X204893713Y-66524500D01*
X204845042Y-66532208D01*
X204683760Y-66557753D01*
X204481585Y-66623444D01*
X204292179Y-66719951D01*
X204120215Y-66844889D01*
X203981035Y-66984069D01*
X203919712Y-67017553D01*
X203850020Y-67012569D01*
X203794087Y-66970697D01*
X203787815Y-66961484D01*
X203692315Y-66806654D01*
X203568345Y-66682684D01*
X203419124Y-66590643D01*
X203419119Y-66590641D01*
X203252697Y-66535494D01*
X203252690Y-66535493D01*
X203149986Y-66525000D01*
X202750000Y-66525000D01*
X202750000Y-67595854D01*
X202683343Y-67557370D01*
X202562535Y-67525000D01*
X202437465Y-67525000D01*
X202316657Y-67557370D01*
X202250000Y-67595854D01*
X202250000Y-66525000D01*
X201850028Y-66525000D01*
X201850012Y-66525001D01*
X201747302Y-66535494D01*
X201580880Y-66590641D01*
X201580875Y-66590643D01*
X201431654Y-66682684D01*
X201307684Y-66806654D01*
X201215643Y-66955875D01*
X201215641Y-66955880D01*
X201160494Y-67122302D01*
X201160493Y-67122309D01*
X201150000Y-67225013D01*
X201150000Y-67750000D01*
X202095854Y-67750000D01*
X202057370Y-67816657D01*
X202025000Y-67937465D01*
X202025000Y-68062535D01*
X202057370Y-68183343D01*
X202095854Y-68250000D01*
X201150001Y-68250000D01*
X201150001Y-68774986D01*
X201160494Y-68877697D01*
X201215641Y-69044119D01*
X201215643Y-69044124D01*
X201307684Y-69193345D01*
X201431654Y-69317315D01*
X201580875Y-69409356D01*
X201580880Y-69409358D01*
X201747302Y-69464505D01*
X201747309Y-69464506D01*
X201850019Y-69474999D01*
X202376401Y-69474999D01*
X202443440Y-69494683D01*
X202489195Y-69547487D01*
X202499139Y-69616646D01*
X202470114Y-69680202D01*
X202464082Y-69686680D01*
X171236264Y-100914499D01*
X171174941Y-100947984D01*
X171105249Y-100943000D01*
X171049316Y-100901128D01*
X171027977Y-100847290D01*
X171026917Y-100847532D01*
X171025368Y-100840745D01*
X170965788Y-100670476D01*
X170883474Y-100539475D01*
X170869816Y-100517738D01*
X170742262Y-100390184D01*
X170589523Y-100294211D01*
X170419254Y-100234631D01*
X170419249Y-100234630D01*
X170240004Y-100214435D01*
X170239996Y-100214435D01*
X170060750Y-100234630D01*
X170060745Y-100234631D01*
X169890476Y-100294211D01*
X169737736Y-100390185D01*
X169734903Y-100392445D01*
X169732724Y-100393334D01*
X169731842Y-100393889D01*
X169731744Y-100393734D01*
X169670217Y-100418855D01*
X169657588Y-100419500D01*
X159606669Y-100419500D01*
X159606653Y-100419499D01*
X159599057Y-100419499D01*
X159440943Y-100419499D01*
X159333587Y-100448265D01*
X159288210Y-100460424D01*
X159288209Y-100460425D01*
X159253066Y-100480716D01*
X159253064Y-100480717D01*
X159151290Y-100539475D01*
X159151282Y-100539481D01*
X159039478Y-100651286D01*
X152721465Y-106969298D01*
X152660142Y-107002783D01*
X152647668Y-107004837D01*
X152560750Y-107014630D01*
X152390478Y-107074210D01*
X152237737Y-107170184D01*
X152110184Y-107297737D01*
X152014211Y-107450476D01*
X151954631Y-107620745D01*
X151954630Y-107620750D01*
X151934435Y-107799996D01*
X151934435Y-107800003D01*
X151954630Y-107979249D01*
X151954631Y-107979254D01*
X152014211Y-108149523D01*
X152078151Y-108251282D01*
X152110184Y-108302262D01*
X152237738Y-108429816D01*
X152390478Y-108525789D01*
X152560745Y-108585368D01*
X152560750Y-108585369D01*
X152739996Y-108605565D01*
X152740000Y-108605565D01*
X152740004Y-108605565D01*
X152919249Y-108585369D01*
X152919252Y-108585368D01*
X152919255Y-108585368D01*
X153089522Y-108525789D01*
X153242262Y-108429816D01*
X153369816Y-108302262D01*
X153465789Y-108149522D01*
X153525368Y-107979255D01*
X153535161Y-107892329D01*
X153562226Y-107827918D01*
X153570690Y-107818543D01*
X159732416Y-101656819D01*
X159793739Y-101623334D01*
X159820097Y-101620500D01*
X169657588Y-101620500D01*
X169724627Y-101640185D01*
X169734903Y-101647555D01*
X169737736Y-101649814D01*
X169737738Y-101649816D01*
X169890478Y-101745789D01*
X170060745Y-101805368D01*
X170067532Y-101806917D01*
X170067257Y-101808120D01*
X170125105Y-101832421D01*
X170164667Y-101890012D01*
X170166812Y-101959849D01*
X170134499Y-102016264D01*
X167784767Y-104365996D01*
X167723444Y-104399481D01*
X167653752Y-104394497D01*
X167597819Y-104352625D01*
X167573402Y-104287161D01*
X167580045Y-104237360D01*
X167635366Y-104079262D01*
X167635369Y-104079249D01*
X167655565Y-103900003D01*
X167655565Y-103899996D01*
X167635369Y-103720750D01*
X167635368Y-103720745D01*
X167575788Y-103550476D01*
X167479815Y-103397737D01*
X167352262Y-103270184D01*
X167199523Y-103174211D01*
X167029254Y-103114631D01*
X167029249Y-103114630D01*
X166850004Y-103094435D01*
X166849996Y-103094435D01*
X166670750Y-103114630D01*
X166670745Y-103114631D01*
X166500476Y-103174211D01*
X166347736Y-103270185D01*
X166344903Y-103272445D01*
X166342724Y-103273334D01*
X166341842Y-103273889D01*
X166341744Y-103273734D01*
X166280217Y-103298855D01*
X166267588Y-103299500D01*
X159266670Y-103299500D01*
X159266654Y-103299499D01*
X159259058Y-103299499D01*
X159100943Y-103299499D01*
X159024579Y-103319961D01*
X158948214Y-103340423D01*
X158948209Y-103340426D01*
X158811290Y-103419475D01*
X158811282Y-103419481D01*
X152122705Y-110108058D01*
X152061382Y-110141543D01*
X152002931Y-110140152D01*
X151906697Y-110114366D01*
X151906693Y-110114365D01*
X151906692Y-110114365D01*
X151906691Y-110114364D01*
X151906686Y-110114364D01*
X151680002Y-110094532D01*
X151679998Y-110094532D01*
X151453313Y-110114364D01*
X151453302Y-110114366D01*
X151233511Y-110173258D01*
X151233502Y-110173261D01*
X151027267Y-110269431D01*
X151027265Y-110269432D01*
X150840858Y-110399954D01*
X150679954Y-110560858D01*
X150549432Y-110747265D01*
X150549431Y-110747267D01*
X150522382Y-110805275D01*
X150476209Y-110857714D01*
X150409016Y-110876866D01*
X150342135Y-110856650D01*
X150297618Y-110805275D01*
X150270686Y-110747520D01*
X150270568Y-110747266D01*
X150140047Y-110560861D01*
X150140045Y-110560858D01*
X149979141Y-110399954D01*
X149792734Y-110269432D01*
X149792732Y-110269431D01*
X149586497Y-110173261D01*
X149586488Y-110173258D01*
X149366697Y-110114366D01*
X149366693Y-110114365D01*
X149366692Y-110114365D01*
X149366691Y-110114364D01*
X149366686Y-110114364D01*
X149140002Y-110094532D01*
X149139998Y-110094532D01*
X148913313Y-110114364D01*
X148913302Y-110114366D01*
X148693511Y-110173258D01*
X148693502Y-110173261D01*
X148487267Y-110269431D01*
X148487265Y-110269432D01*
X148300858Y-110399954D01*
X148139954Y-110560858D01*
X148009432Y-110747265D01*
X148009431Y-110747267D01*
X147913261Y-110953502D01*
X147913258Y-110953511D01*
X147854366Y-111173302D01*
X147854364Y-111173313D01*
X147834532Y-111399998D01*
X147834532Y-111400001D01*
X147854364Y-111626686D01*
X147854366Y-111626697D01*
X147913258Y-111846488D01*
X147913261Y-111846497D01*
X148009431Y-112052732D01*
X148009432Y-112052734D01*
X148139954Y-112239141D01*
X148300858Y-112400045D01*
X148300861Y-112400047D01*
X148487266Y-112530568D01*
X148693504Y-112626739D01*
X148913308Y-112685635D01*
X149075230Y-112699801D01*
X149139998Y-112705468D01*
X149140000Y-112705468D01*
X149140002Y-112705468D01*
X149196673Y-112700509D01*
X149366692Y-112685635D01*
X149586496Y-112626739D01*
X149792734Y-112530568D01*
X149979139Y-112400047D01*
X150140047Y-112239139D01*
X150270568Y-112052734D01*
X150297618Y-111994724D01*
X150343790Y-111942285D01*
X150410983Y-111923133D01*
X150477865Y-111943348D01*
X150522381Y-111994724D01*
X150525074Y-112000499D01*
X150549429Y-112052728D01*
X150549432Y-112052734D01*
X150679954Y-112239141D01*
X150840858Y-112400045D01*
X150840861Y-112400047D01*
X151027266Y-112530568D01*
X151233504Y-112626739D01*
X151453308Y-112685635D01*
X151615230Y-112699801D01*
X151679998Y-112705468D01*
X151680000Y-112705468D01*
X151680002Y-112705468D01*
X151736673Y-112700509D01*
X151906692Y-112685635D01*
X152126496Y-112626739D01*
X152332734Y-112530568D01*
X152519139Y-112400047D01*
X152680047Y-112239139D01*
X152810568Y-112052734D01*
X152837618Y-111994724D01*
X152883790Y-111942285D01*
X152950983Y-111923133D01*
X153017865Y-111943348D01*
X153062381Y-111994724D01*
X153065074Y-112000499D01*
X153089429Y-112052728D01*
X153089432Y-112052734D01*
X153219954Y-112239141D01*
X153380858Y-112400045D01*
X153380861Y-112400047D01*
X153567266Y-112530568D01*
X153773504Y-112626739D01*
X153993308Y-112685635D01*
X154155230Y-112699801D01*
X154219998Y-112705468D01*
X154220000Y-112705468D01*
X154220002Y-112705468D01*
X154276673Y-112700509D01*
X154446692Y-112685635D01*
X154666496Y-112626739D01*
X154872734Y-112530568D01*
X155059139Y-112400047D01*
X155220047Y-112239139D01*
X155350568Y-112052734D01*
X155377895Y-111994129D01*
X155424064Y-111941695D01*
X155491257Y-111922542D01*
X155558139Y-111942757D01*
X155602657Y-111994133D01*
X155629865Y-112052482D01*
X155760342Y-112238820D01*
X155921179Y-112399657D01*
X156107517Y-112530134D01*
X156313673Y-112626265D01*
X156313682Y-112626269D01*
X156509999Y-112678872D01*
X156510000Y-112678871D01*
X156510000Y-111833012D01*
X156567007Y-111865925D01*
X156694174Y-111900000D01*
X156825826Y-111900000D01*
X156952993Y-111865925D01*
X157010000Y-111833012D01*
X157010000Y-112678872D01*
X157206317Y-112626269D01*
X157206326Y-112626265D01*
X157412482Y-112530134D01*
X157598820Y-112399657D01*
X157759657Y-112238820D01*
X157890132Y-112052484D01*
X157917341Y-111994134D01*
X157963513Y-111941695D01*
X158030707Y-111922542D01*
X158097588Y-111942757D01*
X158142105Y-111994132D01*
X158145074Y-112000499D01*
X158169431Y-112052732D01*
X158169432Y-112052734D01*
X158299954Y-112239141D01*
X158460858Y-112400045D01*
X158460861Y-112400047D01*
X158647266Y-112530568D01*
X158853504Y-112626739D01*
X159073308Y-112685635D01*
X159235230Y-112699801D01*
X159299998Y-112705468D01*
X159300000Y-112705468D01*
X159300002Y-112705468D01*
X159356673Y-112700509D01*
X159526692Y-112685635D01*
X159746496Y-112626739D01*
X159952734Y-112530568D01*
X160139139Y-112400047D01*
X160300047Y-112239139D01*
X160430568Y-112052734D01*
X160457618Y-111994724D01*
X160503790Y-111942285D01*
X160570983Y-111923133D01*
X160637865Y-111943348D01*
X160682381Y-111994724D01*
X160685074Y-112000499D01*
X160709429Y-112052728D01*
X160709432Y-112052734D01*
X160839954Y-112239141D01*
X161000858Y-112400045D01*
X161000861Y-112400047D01*
X161187266Y-112530568D01*
X161393504Y-112626739D01*
X161613308Y-112685635D01*
X161775230Y-112699801D01*
X161839998Y-112705468D01*
X161840000Y-112705468D01*
X161840002Y-112705468D01*
X161896673Y-112700509D01*
X162066692Y-112685635D01*
X162286496Y-112626739D01*
X162492734Y-112530568D01*
X162679139Y-112400047D01*
X162840047Y-112239139D01*
X162970568Y-112052734D01*
X162997618Y-111994724D01*
X163043790Y-111942285D01*
X163110983Y-111923133D01*
X163177865Y-111943348D01*
X163222381Y-111994724D01*
X163225074Y-112000499D01*
X163249429Y-112052728D01*
X163249432Y-112052734D01*
X163379954Y-112239141D01*
X163540858Y-112400045D01*
X163540861Y-112400047D01*
X163727266Y-112530568D01*
X163933504Y-112626739D01*
X164153308Y-112685635D01*
X164315230Y-112699801D01*
X164379998Y-112705468D01*
X164380000Y-112705468D01*
X164380002Y-112705468D01*
X164436673Y-112700509D01*
X164606692Y-112685635D01*
X164826496Y-112626739D01*
X165032734Y-112530568D01*
X165219139Y-112400047D01*
X165380047Y-112239139D01*
X165510568Y-112052734D01*
X165537618Y-111994724D01*
X165583790Y-111942285D01*
X165650983Y-111923133D01*
X165717865Y-111943348D01*
X165762381Y-111994724D01*
X165765074Y-112000499D01*
X165789429Y-112052728D01*
X165789432Y-112052734D01*
X165919954Y-112239141D01*
X166080858Y-112400045D01*
X166080861Y-112400047D01*
X166267266Y-112530568D01*
X166473504Y-112626739D01*
X166693308Y-112685635D01*
X166855230Y-112699801D01*
X166919998Y-112705468D01*
X166920000Y-112705468D01*
X166920002Y-112705468D01*
X166976673Y-112700509D01*
X167146692Y-112685635D01*
X167366496Y-112626739D01*
X167572734Y-112530568D01*
X167759139Y-112400047D01*
X167920047Y-112239139D01*
X168050568Y-112052734D01*
X168077618Y-111994724D01*
X168123790Y-111942285D01*
X168190983Y-111923133D01*
X168257865Y-111943348D01*
X168302381Y-111994724D01*
X168305074Y-112000499D01*
X168329429Y-112052728D01*
X168329432Y-112052734D01*
X168459954Y-112239141D01*
X168620858Y-112400045D01*
X168620861Y-112400047D01*
X168806624Y-112530118D01*
X168850248Y-112584693D01*
X168859500Y-112631692D01*
X168859500Y-116695452D01*
X168839815Y-116762491D01*
X168823181Y-116783133D01*
X167479080Y-118127233D01*
X167417757Y-118160718D01*
X167359306Y-118159327D01*
X167230963Y-118124938D01*
X167230953Y-118124936D01*
X166995551Y-118104341D01*
X166995549Y-118104341D01*
X166760146Y-118124936D01*
X166760136Y-118124938D01*
X166531894Y-118186094D01*
X166531885Y-118186098D01*
X166317721Y-118285964D01*
X166317719Y-118285965D01*
X166124147Y-118421505D01*
X165957055Y-118588597D01*
X165827125Y-118774158D01*
X165772548Y-118817783D01*
X165703050Y-118824977D01*
X165640695Y-118793454D01*
X165623975Y-118774158D01*
X165494044Y-118588597D01*
X165326952Y-118421506D01*
X165326945Y-118421501D01*
X165133384Y-118285967D01*
X165133380Y-118285965D01*
X165133378Y-118285964D01*
X164919213Y-118186097D01*
X164919209Y-118186096D01*
X164919205Y-118186094D01*
X164690963Y-118124938D01*
X164690953Y-118124936D01*
X164455551Y-118104341D01*
X164455549Y-118104341D01*
X164220146Y-118124936D01*
X164220136Y-118124938D01*
X163991894Y-118186094D01*
X163991885Y-118186098D01*
X163777721Y-118285964D01*
X163777719Y-118285965D01*
X163584147Y-118421505D01*
X163417055Y-118588597D01*
X163281515Y-118782169D01*
X163281514Y-118782171D01*
X163181648Y-118996335D01*
X163181644Y-118996344D01*
X163120488Y-119224586D01*
X163120486Y-119224596D01*
X163099891Y-119459999D01*
X163099891Y-119460000D01*
X163120486Y-119695403D01*
X163120488Y-119695413D01*
X163181644Y-119923655D01*
X163181646Y-119923659D01*
X163181647Y-119923663D01*
X163222738Y-120011782D01*
X163281515Y-120137830D01*
X163281517Y-120137834D01*
X163352185Y-120238757D01*
X163417055Y-120331401D01*
X163584149Y-120498495D01*
X163584154Y-120498499D01*
X163585518Y-120499643D01*
X163585957Y-120500303D01*
X163587977Y-120502323D01*
X163587571Y-120502728D01*
X163624219Y-120557815D01*
X163625326Y-120627676D01*
X163588487Y-120687046D01*
X163544817Y-120712336D01*
X163536219Y-120715184D01*
X163536213Y-120715187D01*
X163386892Y-120807289D01*
X163262839Y-120931342D01*
X163170737Y-121080663D01*
X163170735Y-121080668D01*
X163154388Y-121130000D01*
X163115551Y-121247203D01*
X163115551Y-121247204D01*
X163115550Y-121247204D01*
X163105050Y-121349983D01*
X163105050Y-122650001D01*
X163105051Y-122650018D01*
X163115550Y-122752796D01*
X163115551Y-122752799D01*
X163167889Y-122910742D01*
X163170736Y-122919334D01*
X163262838Y-123068656D01*
X163386894Y-123192712D01*
X163536216Y-123284814D01*
X163702753Y-123339999D01*
X163805541Y-123350500D01*
X165105558Y-123350499D01*
X165208347Y-123339999D01*
X165374884Y-123284814D01*
X165524206Y-123192712D01*
X165648262Y-123068656D01*
X165740364Y-122919334D01*
X165743212Y-122910738D01*
X165782979Y-122853294D01*
X165847494Y-122826468D01*
X165916270Y-122838779D01*
X165953033Y-122867766D01*
X165953227Y-122867573D01*
X165954863Y-122869209D01*
X165955904Y-122870030D01*
X165957051Y-122871397D01*
X165957055Y-122871401D01*
X166124149Y-123038495D01*
X166167225Y-123068657D01*
X166317715Y-123174032D01*
X166317717Y-123174033D01*
X166317720Y-123174035D01*
X166531887Y-123273903D01*
X166760142Y-123335063D01*
X166843723Y-123342375D01*
X166908791Y-123367827D01*
X166949770Y-123424418D01*
X166953648Y-123494180D01*
X166920596Y-123553584D01*
X165961001Y-124513181D01*
X165899678Y-124546666D01*
X165873320Y-124549500D01*
X158752229Y-124549500D01*
X158685190Y-124529815D01*
X158664548Y-124513181D01*
X155156701Y-121005334D01*
X155123216Y-120944011D01*
X155121328Y-120916160D01*
X155120500Y-120916160D01*
X155120500Y-120448713D01*
X155116547Y-120423753D01*
X155087246Y-120238757D01*
X155021557Y-120036588D01*
X154925051Y-119847184D01*
X154925049Y-119847181D01*
X154925048Y-119847179D01*
X154800109Y-119675213D01*
X154649786Y-119524890D01*
X154477820Y-119399951D01*
X154288414Y-119303444D01*
X154288413Y-119303443D01*
X154288412Y-119303443D01*
X154086243Y-119237754D01*
X154086241Y-119237753D01*
X154086240Y-119237753D01*
X153924957Y-119212208D01*
X153876287Y-119204500D01*
X153663713Y-119204500D01*
X153615042Y-119212208D01*
X153453760Y-119237753D01*
X153251585Y-119303444D01*
X153062179Y-119399951D01*
X152890213Y-119524890D01*
X152739894Y-119675209D01*
X152739890Y-119675214D01*
X152620008Y-119840218D01*
X152564678Y-119882884D01*
X152495065Y-119888863D01*
X152433270Y-119856257D01*
X152419372Y-119840218D01*
X152299727Y-119675540D01*
X152299723Y-119675535D01*
X152149464Y-119525276D01*
X152149459Y-119525272D01*
X151977557Y-119400379D01*
X151788215Y-119303903D01*
X151586124Y-119238241D01*
X151520000Y-119227768D01*
X151520000Y-120275854D01*
X151453343Y-120237370D01*
X151332535Y-120205000D01*
X151207465Y-120205000D01*
X151086657Y-120237370D01*
X151020000Y-120275854D01*
X151020000Y-119227768D01*
X151019999Y-119227768D01*
X150953875Y-119238241D01*
X150751784Y-119303903D01*
X150562442Y-119400379D01*
X150390540Y-119525272D01*
X150390535Y-119525276D01*
X150240276Y-119675535D01*
X150240272Y-119675540D01*
X150120627Y-119840218D01*
X150065297Y-119882884D01*
X149995684Y-119888863D01*
X149933889Y-119856257D01*
X149919991Y-119840218D01*
X149797241Y-119671266D01*
X149798108Y-119670635D01*
X149771641Y-119611581D01*
X149770500Y-119594800D01*
X149770500Y-115704399D01*
X149732052Y-115511113D01*
X149732051Y-115511112D01*
X149732051Y-115511108D01*
X149732049Y-115511103D01*
X149656635Y-115329035D01*
X149656628Y-115329022D01*
X149547139Y-115165161D01*
X149547136Y-115165157D01*
X149404686Y-115022707D01*
X149404655Y-115022678D01*
X145816819Y-111434842D01*
X145783334Y-111373519D01*
X145780500Y-111347161D01*
X145780500Y-94885781D01*
X145800185Y-94818742D01*
X145816814Y-94798105D01*
X176148033Y-64466885D01*
X176209354Y-64433402D01*
X176224898Y-64431041D01*
X176286692Y-64425635D01*
X176506496Y-64366739D01*
X176712734Y-64270568D01*
X176899139Y-64140047D01*
X177060047Y-63979139D01*
X177190568Y-63792734D01*
X177286739Y-63586496D01*
X177345635Y-63366692D01*
X177351040Y-63304905D01*
X177376492Y-63239838D01*
X177386879Y-63228040D01*
X178328102Y-62286819D01*
X178389425Y-62253334D01*
X178415783Y-62250500D01*
X179937016Y-62250500D01*
X180004055Y-62270185D01*
G37*
%TD.AperFunction*%
%TA.AperFunction,Conductor*%
G36*
X170890405Y-120126546D02*
G01*
X170907125Y-120145842D01*
X171037050Y-120331395D01*
X171037055Y-120331401D01*
X171204149Y-120498495D01*
X171388726Y-120627737D01*
X171390144Y-120628730D01*
X171433768Y-120683307D01*
X171440961Y-120752806D01*
X171409439Y-120815160D01*
X171390143Y-120831880D01*
X171314176Y-120885072D01*
X171314175Y-120885072D01*
X171946140Y-121517037D01*
X171882557Y-121534075D01*
X171768543Y-121599901D01*
X171675451Y-121692993D01*
X171609625Y-121807007D01*
X171592587Y-121870590D01*
X170960623Y-121238626D01*
X170907431Y-121314594D01*
X170852854Y-121358219D01*
X170783356Y-121365413D01*
X170721001Y-121333891D01*
X170704280Y-121314594D01*
X170574044Y-121128597D01*
X170406952Y-120961506D01*
X170406946Y-120961501D01*
X170221392Y-120831575D01*
X170177767Y-120776998D01*
X170170573Y-120707500D01*
X170202096Y-120645145D01*
X170221392Y-120628425D01*
X170348715Y-120539272D01*
X170406951Y-120498495D01*
X170574045Y-120331401D01*
X170703975Y-120145842D01*
X170758552Y-120102217D01*
X170828050Y-120095023D01*
X170890405Y-120126546D01*
G37*
%TD.AperFunction*%
%TA.AperFunction,Conductor*%
G36*
X174149625Y-119652993D02*
G01*
X174215451Y-119767007D01*
X174308543Y-119860099D01*
X174422557Y-119925925D01*
X174486140Y-119942962D01*
X173854175Y-120574925D01*
X173930581Y-120628425D01*
X173974205Y-120683002D01*
X173981398Y-120752501D01*
X173949876Y-120814855D01*
X173930579Y-120831576D01*
X173854175Y-120885072D01*
X174486140Y-121517037D01*
X174422557Y-121534075D01*
X174308543Y-121599901D01*
X174215451Y-121692993D01*
X174149625Y-121807007D01*
X174132587Y-121870589D01*
X173500623Y-121238625D01*
X173500622Y-121238626D01*
X173447124Y-121315030D01*
X173392548Y-121358655D01*
X173323049Y-121365849D01*
X173260694Y-121334326D01*
X173243974Y-121315030D01*
X173190475Y-121238626D01*
X173190475Y-121238625D01*
X172558512Y-121870589D01*
X172541475Y-121807007D01*
X172475649Y-121692993D01*
X172382557Y-121599901D01*
X172268543Y-121534075D01*
X172204960Y-121517037D01*
X172836923Y-120885073D01*
X172836923Y-120885072D01*
X172760955Y-120831880D01*
X172717330Y-120777304D01*
X172710136Y-120707805D01*
X172741658Y-120645451D01*
X172760949Y-120628734D01*
X172946951Y-120498495D01*
X173114045Y-120331401D01*
X173244282Y-120145403D01*
X173298857Y-120101780D01*
X173368355Y-120094586D01*
X173430710Y-120126109D01*
X173447430Y-120145405D01*
X173500623Y-120221373D01*
X174132587Y-119589409D01*
X174149625Y-119652993D01*
G37*
%TD.AperFunction*%
%TA.AperFunction,Conductor*%
G36*
X166334627Y-104520185D02*
G01*
X166344903Y-104527555D01*
X166347736Y-104529814D01*
X166347738Y-104529816D01*
X166500478Y-104625789D01*
X166670739Y-104685366D01*
X166670745Y-104685368D01*
X166670750Y-104685369D01*
X166849996Y-104705565D01*
X166850000Y-104705565D01*
X166850004Y-104705565D01*
X167029249Y-104685369D01*
X167029251Y-104685368D01*
X167029255Y-104685368D01*
X167029258Y-104685366D01*
X167029262Y-104685366D01*
X167187360Y-104630045D01*
X167257139Y-104626483D01*
X167317766Y-104661211D01*
X167349994Y-104723205D01*
X167343589Y-104792780D01*
X167315996Y-104834767D01*
X164011286Y-108139478D01*
X163899481Y-108251282D01*
X163899479Y-108251285D01*
X163849361Y-108338094D01*
X163849359Y-108338096D01*
X163820425Y-108388209D01*
X163820424Y-108388210D01*
X163820423Y-108388215D01*
X163779499Y-108540943D01*
X163779499Y-108540945D01*
X163779499Y-108709046D01*
X163779500Y-108709059D01*
X163779500Y-110168306D01*
X163759815Y-110235345D01*
X163726623Y-110269881D01*
X163540859Y-110399953D01*
X163379954Y-110560858D01*
X163249432Y-110747265D01*
X163249431Y-110747267D01*
X163222382Y-110805275D01*
X163176209Y-110857714D01*
X163109016Y-110876866D01*
X163042135Y-110856650D01*
X162997618Y-110805275D01*
X162970686Y-110747520D01*
X162970568Y-110747266D01*
X162840047Y-110560861D01*
X162840045Y-110560858D01*
X162679141Y-110399954D01*
X162492734Y-110269432D01*
X162492732Y-110269431D01*
X162286497Y-110173261D01*
X162286488Y-110173258D01*
X162066697Y-110114366D01*
X162066693Y-110114365D01*
X162066692Y-110114365D01*
X162066691Y-110114364D01*
X162066686Y-110114364D01*
X161840002Y-110094532D01*
X161839998Y-110094532D01*
X161613313Y-110114364D01*
X161613302Y-110114366D01*
X161393511Y-110173258D01*
X161393502Y-110173261D01*
X161187267Y-110269431D01*
X161187265Y-110269432D01*
X161000858Y-110399954D01*
X160839954Y-110560858D01*
X160709432Y-110747265D01*
X160709431Y-110747267D01*
X160682382Y-110805275D01*
X160636209Y-110857714D01*
X160569016Y-110876866D01*
X160502135Y-110856650D01*
X160457618Y-110805275D01*
X160430686Y-110747520D01*
X160430568Y-110747266D01*
X160300047Y-110560861D01*
X160300045Y-110560858D01*
X160139141Y-110399954D01*
X159952734Y-110269432D01*
X159952732Y-110269431D01*
X159746497Y-110173261D01*
X159746488Y-110173258D01*
X159526697Y-110114366D01*
X159526693Y-110114365D01*
X159526692Y-110114365D01*
X159526691Y-110114364D01*
X159526686Y-110114364D01*
X159300002Y-110094532D01*
X159299998Y-110094532D01*
X159073313Y-110114364D01*
X159073302Y-110114366D01*
X158853511Y-110173258D01*
X158853502Y-110173261D01*
X158647267Y-110269431D01*
X158647265Y-110269432D01*
X158460858Y-110399954D01*
X158299954Y-110560858D01*
X158171617Y-110744145D01*
X158169432Y-110747266D01*
X158169315Y-110747518D01*
X158142106Y-110805867D01*
X158095933Y-110858306D01*
X158028739Y-110877457D01*
X157961858Y-110857241D01*
X157917342Y-110805865D01*
X157890135Y-110747520D01*
X157890134Y-110747518D01*
X157759657Y-110561179D01*
X157598820Y-110400342D01*
X157412482Y-110269865D01*
X157206328Y-110173734D01*
X157010000Y-110121127D01*
X157010000Y-110966988D01*
X156952993Y-110934075D01*
X156825826Y-110900000D01*
X156694174Y-110900000D01*
X156567007Y-110934075D01*
X156510000Y-110966988D01*
X156510000Y-110121127D01*
X156313671Y-110173734D01*
X156107517Y-110269865D01*
X155921179Y-110400342D01*
X155760342Y-110561179D01*
X155629867Y-110747515D01*
X155602657Y-110805867D01*
X155556484Y-110858306D01*
X155489290Y-110877457D01*
X155422409Y-110857241D01*
X155377893Y-110805865D01*
X155350685Y-110747518D01*
X155350568Y-110747266D01*
X155220047Y-110560861D01*
X155220045Y-110560858D01*
X155059141Y-110399954D01*
X154872734Y-110269432D01*
X154872732Y-110269431D01*
X154666497Y-110173261D01*
X154666488Y-110173258D01*
X154446697Y-110114366D01*
X154446693Y-110114365D01*
X154446692Y-110114365D01*
X154446691Y-110114364D01*
X154446686Y-110114364D01*
X154220002Y-110094532D01*
X154219998Y-110094532D01*
X154137150Y-110101780D01*
X154068650Y-110088013D01*
X154018467Y-110039398D01*
X154002534Y-109971369D01*
X154025910Y-109905526D01*
X154038655Y-109890578D01*
X159392417Y-104536819D01*
X159453740Y-104503334D01*
X159480098Y-104500500D01*
X166267588Y-104500500D01*
X166334627Y-104520185D01*
G37*
%TD.AperFunction*%
%TA.AperFunction,Conductor*%
G36*
X173054075Y-62947007D02*
G01*
X173020000Y-63074174D01*
X173020000Y-63205826D01*
X173054075Y-63332993D01*
X173086988Y-63390000D01*
X171413012Y-63390000D01*
X171445925Y-63332993D01*
X171480000Y-63205826D01*
X171480000Y-63074174D01*
X171445925Y-62947007D01*
X171413012Y-62890000D01*
X173086988Y-62890000D01*
X173054075Y-62947007D01*
G37*
%TD.AperFunction*%
%TA.AperFunction,Conductor*%
G36*
X215728089Y-58820185D02*
G01*
X215773844Y-58872989D01*
X215785050Y-58924500D01*
X215785050Y-126675500D01*
X215765365Y-126742539D01*
X215712561Y-126788294D01*
X215661050Y-126799500D01*
X123410050Y-126799500D01*
X123343011Y-126779815D01*
X123297256Y-126727011D01*
X123286050Y-126675500D01*
X123286050Y-123800000D01*
X124194626Y-123800000D01*
X124214100Y-124084708D01*
X124272163Y-124364127D01*
X124272164Y-124364130D01*
X124367729Y-124633022D01*
X124367728Y-124633022D01*
X124439377Y-124771297D01*
X124499024Y-124886411D01*
X124663597Y-125119557D01*
X124663601Y-125119561D01*
X124663601Y-125119562D01*
X124858386Y-125328125D01*
X124982202Y-125428856D01*
X125079755Y-125508222D01*
X125079757Y-125508223D01*
X125079758Y-125508224D01*
X125323590Y-125656502D01*
X125323595Y-125656504D01*
X125454465Y-125713348D01*
X125585342Y-125770196D01*
X125860139Y-125847190D01*
X126108694Y-125881354D01*
X126142859Y-125886050D01*
X126142860Y-125886050D01*
X126428241Y-125886050D01*
X126458721Y-125881860D01*
X126710961Y-125847190D01*
X126985758Y-125770196D01*
X127247511Y-125656501D01*
X127491345Y-125508222D01*
X127712717Y-125328122D01*
X127907503Y-125119557D01*
X128072076Y-124886411D01*
X128203369Y-124633026D01*
X128298937Y-124364125D01*
X128356999Y-124084714D01*
X128376474Y-123800000D01*
X128356999Y-123515286D01*
X128298937Y-123235875D01*
X128255951Y-123114926D01*
X128203370Y-122966977D01*
X128203371Y-122966977D01*
X128130565Y-122826468D01*
X128072076Y-122713589D01*
X127907503Y-122480443D01*
X127907498Y-122480437D01*
X127712713Y-122271874D01*
X127519660Y-122114814D01*
X127491345Y-122091778D01*
X127491343Y-122091777D01*
X127491341Y-122091775D01*
X127247509Y-121943497D01*
X127247504Y-121943495D01*
X126985763Y-121829806D01*
X126985761Y-121829805D01*
X126985758Y-121829804D01*
X126857169Y-121793775D01*
X126710967Y-121752811D01*
X126710962Y-121752810D01*
X126710961Y-121752810D01*
X126503802Y-121724336D01*
X126428241Y-121713950D01*
X126428240Y-121713950D01*
X126142860Y-121713950D01*
X126142859Y-121713950D01*
X125860139Y-121752810D01*
X125860132Y-121752811D01*
X125666706Y-121807007D01*
X125585342Y-121829804D01*
X125585339Y-121829804D01*
X125585336Y-121829806D01*
X125585335Y-121829806D01*
X125323595Y-121943495D01*
X125323590Y-121943497D01*
X125079758Y-122091775D01*
X124858386Y-122271874D01*
X124663601Y-122480437D01*
X124663601Y-122480438D01*
X124499024Y-122713588D01*
X124367729Y-122966977D01*
X124272164Y-123235869D01*
X124272163Y-123235872D01*
X124214100Y-123515291D01*
X124194626Y-123800000D01*
X123286050Y-123800000D01*
X123286050Y-119879983D01*
X131149500Y-119879983D01*
X131149500Y-121480001D01*
X131149501Y-121480018D01*
X131160000Y-121582796D01*
X131160001Y-121582799D01*
X131215185Y-121749331D01*
X131215187Y-121749336D01*
X131221651Y-121759815D01*
X131307288Y-121898656D01*
X131431344Y-122022712D01*
X131580666Y-122114814D01*
X131747203Y-122169999D01*
X131849991Y-122180500D01*
X132887769Y-122180499D01*
X132954808Y-122200183D01*
X132975450Y-122216818D01*
X136537049Y-125778416D01*
X136641584Y-125882951D01*
X136641587Y-125882953D01*
X136641588Y-125882954D01*
X136764503Y-125965083D01*
X136764506Y-125965085D01*
X136821079Y-125988518D01*
X136821080Y-125988518D01*
X136901088Y-126021659D01*
X137017241Y-126044763D01*
X137036468Y-126048587D01*
X137046081Y-126050500D01*
X137046082Y-126050500D01*
X166309470Y-126050500D01*
X166407012Y-126031096D01*
X166454463Y-126021658D01*
X166591045Y-125965084D01*
X166640279Y-125932186D01*
X166713966Y-125882952D01*
X169224049Y-123372867D01*
X169285370Y-123339384D01*
X169322534Y-123337022D01*
X169482785Y-123351042D01*
X169535549Y-123355659D01*
X169535550Y-123355659D01*
X169535551Y-123355659D01*
X169570834Y-123352571D01*
X169748563Y-123337022D01*
X169817062Y-123350788D01*
X169847051Y-123372869D01*
X172067136Y-125592954D01*
X172096608Y-125612645D01*
X172140820Y-125642186D01*
X172190055Y-125675084D01*
X172190056Y-125675084D01*
X172190057Y-125675085D01*
X172190059Y-125675086D01*
X172326632Y-125731656D01*
X172326637Y-125731658D01*
X172326641Y-125731658D01*
X172326642Y-125731659D01*
X172471629Y-125760500D01*
X172471632Y-125760500D01*
X187913920Y-125760500D01*
X188011462Y-125741096D01*
X188058913Y-125731658D01*
X188195495Y-125675084D01*
X188244729Y-125642186D01*
X188244734Y-125642183D01*
X188269071Y-125625921D01*
X188318416Y-125592952D01*
X190111367Y-123800000D01*
X210694626Y-123800000D01*
X210714100Y-124084708D01*
X210772163Y-124364127D01*
X210772164Y-124364130D01*
X210867729Y-124633022D01*
X210867728Y-124633022D01*
X210939377Y-124771297D01*
X210999024Y-124886411D01*
X211163597Y-125119557D01*
X211163601Y-125119561D01*
X211163601Y-125119562D01*
X211358386Y-125328125D01*
X211482202Y-125428856D01*
X211579755Y-125508222D01*
X211579757Y-125508223D01*
X211579758Y-125508224D01*
X211823590Y-125656502D01*
X211823595Y-125656504D01*
X211954465Y-125713348D01*
X212085342Y-125770196D01*
X212360139Y-125847190D01*
X212608694Y-125881354D01*
X212642859Y-125886050D01*
X212642860Y-125886050D01*
X212928241Y-125886050D01*
X212958721Y-125881860D01*
X213210961Y-125847190D01*
X213485758Y-125770196D01*
X213747511Y-125656501D01*
X213991345Y-125508222D01*
X214212717Y-125328122D01*
X214407503Y-125119557D01*
X214572076Y-124886411D01*
X214703369Y-124633026D01*
X214798937Y-124364125D01*
X214856999Y-124084714D01*
X214876474Y-123800000D01*
X214856999Y-123515286D01*
X214798937Y-123235875D01*
X214755951Y-123114926D01*
X214703370Y-122966977D01*
X214703371Y-122966977D01*
X214630565Y-122826468D01*
X214572076Y-122713589D01*
X214407503Y-122480443D01*
X214407498Y-122480437D01*
X214212713Y-122271874D01*
X214019660Y-122114814D01*
X213991345Y-122091778D01*
X213991343Y-122091777D01*
X213991341Y-122091775D01*
X213747509Y-121943497D01*
X213747504Y-121943495D01*
X213485763Y-121829806D01*
X213485761Y-121829805D01*
X213485758Y-121829804D01*
X213357169Y-121793775D01*
X213210967Y-121752811D01*
X213210962Y-121752810D01*
X213210961Y-121752810D01*
X213003802Y-121724336D01*
X212928241Y-121713950D01*
X212928240Y-121713950D01*
X212642860Y-121713950D01*
X212642859Y-121713950D01*
X212360139Y-121752810D01*
X212360132Y-121752811D01*
X212166706Y-121807007D01*
X212085342Y-121829804D01*
X212085339Y-121829804D01*
X212085336Y-121829806D01*
X212085335Y-121829806D01*
X211823595Y-121943495D01*
X211823590Y-121943497D01*
X211579758Y-122091775D01*
X211358386Y-122271874D01*
X211163601Y-122480437D01*
X211163601Y-122480438D01*
X210999024Y-122713588D01*
X210867729Y-122966977D01*
X210772164Y-123235869D01*
X210772163Y-123235872D01*
X210714100Y-123515291D01*
X210694626Y-123800000D01*
X190111367Y-123800000D01*
X192028059Y-121883306D01*
X192064132Y-121860657D01*
X192063244Y-121858813D01*
X192069515Y-121855792D01*
X192069516Y-121855790D01*
X192069522Y-121855789D01*
X192222262Y-121759816D01*
X192349816Y-121632262D01*
X192445789Y-121479522D01*
X192505368Y-121309255D01*
X192505369Y-121309249D01*
X192525565Y-121130003D01*
X192525565Y-121129996D01*
X192505369Y-120950750D01*
X192505368Y-120950745D01*
X192463669Y-120831576D01*
X192445789Y-120780478D01*
X192443602Y-120776998D01*
X192402973Y-120712337D01*
X192349816Y-120627738D01*
X192222262Y-120500184D01*
X192201291Y-120487007D01*
X192069523Y-120404211D01*
X191899254Y-120344631D01*
X191899249Y-120344630D01*
X191720004Y-120324435D01*
X191719996Y-120324435D01*
X191540750Y-120344630D01*
X191540745Y-120344631D01*
X191370476Y-120404211D01*
X191217737Y-120500184D01*
X191090184Y-120627737D01*
X190994208Y-120780483D01*
X190991186Y-120786758D01*
X190989361Y-120785878D01*
X190966692Y-120821939D01*
X187565451Y-124223181D01*
X187504128Y-124256666D01*
X187477770Y-124259500D01*
X172907780Y-124259500D01*
X172840741Y-124239815D01*
X172820099Y-124223181D01*
X172150041Y-123553123D01*
X172116556Y-123491800D01*
X172121540Y-123422108D01*
X172163412Y-123366175D01*
X172226915Y-123341914D01*
X172310865Y-123334569D01*
X172310876Y-123334567D01*
X172539033Y-123273433D01*
X172539042Y-123273429D01*
X172753128Y-123173600D01*
X172753132Y-123173598D01*
X172836923Y-123114926D01*
X172836923Y-123114925D01*
X172204959Y-122482962D01*
X172268543Y-122465925D01*
X172382557Y-122400099D01*
X172475649Y-122307007D01*
X172541475Y-122192993D01*
X172558512Y-122129410D01*
X173190475Y-122761373D01*
X173243975Y-122684968D01*
X173298552Y-122641344D01*
X173368051Y-122634151D01*
X173430405Y-122665673D01*
X173447126Y-122684969D01*
X173500623Y-122761372D01*
X174132587Y-122129409D01*
X174149625Y-122192993D01*
X174215451Y-122307007D01*
X174308543Y-122400099D01*
X174422557Y-122465925D01*
X174486140Y-122482962D01*
X173854175Y-123114925D01*
X173937971Y-123173599D01*
X174152057Y-123273429D01*
X174152066Y-123273433D01*
X174380223Y-123334567D01*
X174380234Y-123334569D01*
X174615548Y-123355157D01*
X174615552Y-123355157D01*
X174850865Y-123334569D01*
X174850876Y-123334567D01*
X175079033Y-123273433D01*
X175079042Y-123273429D01*
X175293128Y-123173600D01*
X175293132Y-123173598D01*
X175376923Y-123114926D01*
X175376923Y-123114925D01*
X174744959Y-122482962D01*
X174808543Y-122465925D01*
X174922557Y-122400099D01*
X175015649Y-122307007D01*
X175081475Y-122192993D01*
X175098512Y-122129410D01*
X175730475Y-122761373D01*
X175730476Y-122761373D01*
X175789148Y-122677582D01*
X175789150Y-122677578D01*
X175888979Y-122463492D01*
X175888983Y-122463483D01*
X175950117Y-122235326D01*
X175950119Y-122235315D01*
X175970707Y-122000001D01*
X175970707Y-121999998D01*
X175950119Y-121764684D01*
X175950117Y-121764673D01*
X175888983Y-121536516D01*
X175888979Y-121536507D01*
X175789150Y-121322423D01*
X175789149Y-121322421D01*
X175730475Y-121238626D01*
X175730475Y-121238625D01*
X175098512Y-121870589D01*
X175081475Y-121807007D01*
X175015649Y-121692993D01*
X174922557Y-121599901D01*
X174808543Y-121534075D01*
X174744960Y-121517037D01*
X175376923Y-120885073D01*
X175300519Y-120831576D01*
X175256894Y-120776999D01*
X175249700Y-120707501D01*
X175281222Y-120645146D01*
X175300518Y-120628425D01*
X175376923Y-120574925D01*
X174744959Y-119942962D01*
X174808543Y-119925925D01*
X174922557Y-119860099D01*
X175015649Y-119767007D01*
X175081475Y-119652993D01*
X175098512Y-119589410D01*
X175730475Y-120221373D01*
X175730476Y-120221373D01*
X175789148Y-120137582D01*
X175789150Y-120137578D01*
X175888979Y-119923492D01*
X175888983Y-119923483D01*
X175950117Y-119695326D01*
X175950119Y-119695315D01*
X175970707Y-119460001D01*
X175970707Y-119459998D01*
X175950119Y-119224684D01*
X175950117Y-119224673D01*
X175888983Y-118996516D01*
X175888979Y-118996507D01*
X175789150Y-118782423D01*
X175789149Y-118782421D01*
X175730475Y-118698626D01*
X175730475Y-118698625D01*
X175098512Y-119330589D01*
X175081475Y-119267007D01*
X175015649Y-119152993D01*
X174922557Y-119059901D01*
X174808543Y-118994075D01*
X174744960Y-118977037D01*
X175376923Y-118345073D01*
X175376923Y-118345072D01*
X175293133Y-118286402D01*
X175293129Y-118286400D01*
X175079042Y-118186570D01*
X175079033Y-118186566D01*
X174850876Y-118125432D01*
X174850865Y-118125430D01*
X174615552Y-118104843D01*
X174615548Y-118104843D01*
X174380234Y-118125430D01*
X174380223Y-118125432D01*
X174152066Y-118186566D01*
X174152057Y-118186570D01*
X173937969Y-118286401D01*
X173854175Y-118345072D01*
X174486140Y-118977037D01*
X174422557Y-118994075D01*
X174308543Y-119059901D01*
X174215451Y-119152993D01*
X174149625Y-119267007D01*
X174132587Y-119330589D01*
X173500623Y-118698626D01*
X173447431Y-118774594D01*
X173392854Y-118818219D01*
X173323356Y-118825413D01*
X173261001Y-118793891D01*
X173244280Y-118774594D01*
X173114044Y-118588597D01*
X172946952Y-118421506D01*
X172946945Y-118421501D01*
X172753384Y-118285967D01*
X172753380Y-118285965D01*
X172753378Y-118285964D01*
X172539213Y-118186097D01*
X172539209Y-118186096D01*
X172539205Y-118186094D01*
X172310963Y-118124938D01*
X172310953Y-118124936D01*
X172075551Y-118104341D01*
X172075549Y-118104341D01*
X171840146Y-118124936D01*
X171840136Y-118124938D01*
X171611894Y-118186094D01*
X171611885Y-118186098D01*
X171397721Y-118285964D01*
X171397719Y-118285965D01*
X171204147Y-118421505D01*
X171037055Y-118588597D01*
X170907125Y-118774158D01*
X170852548Y-118817783D01*
X170783050Y-118824977D01*
X170720695Y-118793454D01*
X170703975Y-118774158D01*
X170574044Y-118588597D01*
X170406952Y-118421506D01*
X170406945Y-118421501D01*
X170213384Y-118285967D01*
X170213380Y-118285965D01*
X170213378Y-118285964D01*
X169999213Y-118186097D01*
X169999209Y-118186096D01*
X169999205Y-118186094D01*
X169770963Y-118124938D01*
X169770953Y-118124936D01*
X169535551Y-118104341D01*
X169535549Y-118104341D01*
X169507706Y-118106777D01*
X169439206Y-118093010D01*
X169389022Y-118044395D01*
X169373089Y-117976367D01*
X169396464Y-117910523D01*
X169409217Y-117895568D01*
X169500119Y-117804666D01*
X169940520Y-117364266D01*
X170019577Y-117227334D01*
X170053698Y-117099994D01*
X199269443Y-117099994D01*
X199269443Y-117100005D01*
X199289634Y-117343683D01*
X199289636Y-117343695D01*
X199349663Y-117580734D01*
X199447888Y-117804666D01*
X199581632Y-118009378D01*
X199747242Y-118189277D01*
X199747252Y-118189286D01*
X199940208Y-118339470D01*
X199940212Y-118339473D01*
X200155267Y-118455855D01*
X200155270Y-118455856D01*
X200386541Y-118535251D01*
X200386543Y-118535251D01*
X200386545Y-118535252D01*
X200627737Y-118575500D01*
X200627738Y-118575500D01*
X200872262Y-118575500D01*
X200872263Y-118575500D01*
X201113455Y-118535252D01*
X201344733Y-118455855D01*
X201559788Y-118339473D01*
X201752754Y-118189281D01*
X201918368Y-118009377D01*
X202052111Y-117804667D01*
X202150336Y-117580736D01*
X202210364Y-117343692D01*
X202210365Y-117343683D01*
X202230557Y-117100005D01*
X202230557Y-117099994D01*
X202210365Y-116856316D01*
X202210363Y-116856304D01*
X202182636Y-116746814D01*
X202150336Y-116619264D01*
X202052111Y-116395333D01*
X201918368Y-116190623D01*
X201918367Y-116190621D01*
X201752757Y-116010722D01*
X201752747Y-116010713D01*
X201559791Y-115860529D01*
X201559787Y-115860526D01*
X201344734Y-115744145D01*
X201344729Y-115744143D01*
X201113458Y-115664748D01*
X200932561Y-115634562D01*
X200872263Y-115624500D01*
X200627737Y-115624500D01*
X200579498Y-115632549D01*
X200386541Y-115664748D01*
X200155270Y-115744143D01*
X200155265Y-115744145D01*
X199940212Y-115860526D01*
X199940208Y-115860529D01*
X199747252Y-116010713D01*
X199747242Y-116010722D01*
X199581632Y-116190621D01*
X199447888Y-116395333D01*
X199349663Y-116619265D01*
X199289636Y-116856304D01*
X199289634Y-116856316D01*
X199269443Y-117099994D01*
X170053698Y-117099994D01*
X170060501Y-117074607D01*
X170060501Y-116916492D01*
X170060501Y-116908897D01*
X170060500Y-116908879D01*
X170060500Y-116660557D01*
X170080185Y-116593518D01*
X170132989Y-116547763D01*
X170202147Y-116537819D01*
X170225446Y-116543513D01*
X170230745Y-116545368D01*
X170230752Y-116545368D01*
X170230753Y-116545369D01*
X170409996Y-116565565D01*
X170410000Y-116565565D01*
X170410004Y-116565565D01*
X170589249Y-116545369D01*
X170589252Y-116545368D01*
X170589255Y-116545368D01*
X170759522Y-116485789D01*
X170912262Y-116389816D01*
X171039816Y-116262262D01*
X171135789Y-116109522D01*
X171195368Y-115939255D01*
X171205161Y-115852329D01*
X171232226Y-115787918D01*
X171240690Y-115778543D01*
X172480520Y-114538716D01*
X172559577Y-114401784D01*
X172600501Y-114249057D01*
X172600501Y-114090942D01*
X172600501Y-114083347D01*
X172600500Y-114083329D01*
X172600500Y-112631692D01*
X172620185Y-112564653D01*
X172653374Y-112530119D01*
X172839139Y-112400047D01*
X173000047Y-112239139D01*
X173130568Y-112052734D01*
X173226739Y-111846496D01*
X173285635Y-111626692D01*
X173305468Y-111400000D01*
X173305468Y-111399998D01*
X174754532Y-111399998D01*
X174754532Y-111400001D01*
X174774364Y-111626686D01*
X174774366Y-111626697D01*
X174833258Y-111846488D01*
X174833261Y-111846497D01*
X174929431Y-112052732D01*
X174929432Y-112052734D01*
X175059954Y-112239141D01*
X175220858Y-112400045D01*
X175220861Y-112400047D01*
X175407266Y-112530568D01*
X175613504Y-112626739D01*
X175833308Y-112685635D01*
X175995230Y-112699801D01*
X176059998Y-112705468D01*
X176060000Y-112705468D01*
X176060002Y-112705468D01*
X176116673Y-112700509D01*
X176286692Y-112685635D01*
X176506496Y-112626739D01*
X176712734Y-112530568D01*
X176899139Y-112400047D01*
X177060047Y-112239139D01*
X177190568Y-112052734D01*
X177217618Y-111994724D01*
X177263790Y-111942285D01*
X177330983Y-111923133D01*
X177397865Y-111943348D01*
X177442381Y-111994724D01*
X177445074Y-112000499D01*
X177469429Y-112052728D01*
X177469432Y-112052734D01*
X177599954Y-112239141D01*
X177760858Y-112400045D01*
X177760861Y-112400047D01*
X177947266Y-112530568D01*
X178153504Y-112626739D01*
X178373308Y-112685635D01*
X178535230Y-112699801D01*
X178599998Y-112705468D01*
X178600000Y-112705468D01*
X178600002Y-112705468D01*
X178656673Y-112700509D01*
X178826692Y-112685635D01*
X179046496Y-112626739D01*
X179252734Y-112530568D01*
X179439139Y-112400047D01*
X179600047Y-112239139D01*
X179730568Y-112052734D01*
X179757618Y-111994724D01*
X179803790Y-111942285D01*
X179870983Y-111923133D01*
X179937865Y-111943348D01*
X179982381Y-111994724D01*
X179985074Y-112000499D01*
X180009429Y-112052728D01*
X180009432Y-112052734D01*
X180139954Y-112239141D01*
X180300858Y-112400045D01*
X180300861Y-112400047D01*
X180487266Y-112530568D01*
X180693504Y-112626739D01*
X180913308Y-112685635D01*
X181075230Y-112699801D01*
X181139998Y-112705468D01*
X181140000Y-112705468D01*
X181140002Y-112705468D01*
X181196673Y-112700509D01*
X181366692Y-112685635D01*
X181586496Y-112626739D01*
X181792734Y-112530568D01*
X181979139Y-112400047D01*
X182140047Y-112239139D01*
X182270568Y-112052734D01*
X182297618Y-111994724D01*
X182343790Y-111942285D01*
X182410983Y-111923133D01*
X182477865Y-111943348D01*
X182522381Y-111994724D01*
X182525074Y-112000499D01*
X182549429Y-112052728D01*
X182549432Y-112052734D01*
X182679954Y-112239141D01*
X182840858Y-112400045D01*
X182840861Y-112400047D01*
X183027266Y-112530568D01*
X183233504Y-112626739D01*
X183453308Y-112685635D01*
X183615230Y-112699801D01*
X183679998Y-112705468D01*
X183680000Y-112705468D01*
X183680002Y-112705468D01*
X183736673Y-112700509D01*
X183906692Y-112685635D01*
X184126496Y-112626739D01*
X184332734Y-112530568D01*
X184519139Y-112400047D01*
X184680047Y-112239139D01*
X184810568Y-112052734D01*
X184837618Y-111994724D01*
X184883790Y-111942285D01*
X184950983Y-111923133D01*
X185017865Y-111943348D01*
X185062381Y-111994724D01*
X185065074Y-112000499D01*
X185089429Y-112052728D01*
X185089432Y-112052734D01*
X185219954Y-112239141D01*
X185380858Y-112400045D01*
X185380861Y-112400047D01*
X185567266Y-112530568D01*
X185773504Y-112626739D01*
X185993308Y-112685635D01*
X186155230Y-112699801D01*
X186219998Y-112705468D01*
X186220000Y-112705468D01*
X186220002Y-112705468D01*
X186276673Y-112700509D01*
X186446692Y-112685635D01*
X186666496Y-112626739D01*
X186872734Y-112530568D01*
X187059139Y-112400047D01*
X187220047Y-112239139D01*
X187350568Y-112052734D01*
X187377618Y-111994724D01*
X187423790Y-111942285D01*
X187490983Y-111923133D01*
X187557865Y-111943348D01*
X187602381Y-111994724D01*
X187605074Y-112000499D01*
X187629429Y-112052728D01*
X187629432Y-112052734D01*
X187759954Y-112239141D01*
X187920858Y-112400045D01*
X187920861Y-112400047D01*
X188107266Y-112530568D01*
X188313504Y-112626739D01*
X188533308Y-112685635D01*
X188695230Y-112699801D01*
X188759998Y-112705468D01*
X188760000Y-112705468D01*
X188760002Y-112705468D01*
X188816673Y-112700509D01*
X188986692Y-112685635D01*
X189206496Y-112626739D01*
X189412734Y-112530568D01*
X189599139Y-112400047D01*
X189760047Y-112239139D01*
X189890568Y-112052734D01*
X189917618Y-111994724D01*
X189963790Y-111942285D01*
X190030983Y-111923133D01*
X190097865Y-111943348D01*
X190142381Y-111994724D01*
X190145074Y-112000499D01*
X190169429Y-112052728D01*
X190169432Y-112052734D01*
X190299954Y-112239141D01*
X190460858Y-112400045D01*
X190460861Y-112400047D01*
X190647266Y-112530568D01*
X190853504Y-112626739D01*
X191073308Y-112685635D01*
X191235230Y-112699801D01*
X191299998Y-112705468D01*
X191300000Y-112705468D01*
X191300002Y-112705468D01*
X191356673Y-112700509D01*
X191526692Y-112685635D01*
X191746496Y-112626739D01*
X191952734Y-112530568D01*
X192139139Y-112400047D01*
X192300047Y-112239139D01*
X192430568Y-112052734D01*
X192457618Y-111994724D01*
X192503790Y-111942285D01*
X192570983Y-111923133D01*
X192637865Y-111943348D01*
X192682381Y-111994724D01*
X192685074Y-112000499D01*
X192709429Y-112052728D01*
X192709432Y-112052734D01*
X192839954Y-112239141D01*
X193000858Y-112400045D01*
X193000861Y-112400047D01*
X193187266Y-112530568D01*
X193393504Y-112626739D01*
X193613308Y-112685635D01*
X193775230Y-112699801D01*
X193839998Y-112705468D01*
X193840000Y-112705468D01*
X193840002Y-112705468D01*
X193896673Y-112700509D01*
X194066692Y-112685635D01*
X194286496Y-112626739D01*
X194492734Y-112530568D01*
X194679139Y-112400047D01*
X194840047Y-112239139D01*
X194937477Y-112099993D01*
X199269443Y-112099993D01*
X199269443Y-112100005D01*
X199289634Y-112343683D01*
X199289636Y-112343695D01*
X199349663Y-112580734D01*
X199447888Y-112804666D01*
X199581632Y-113009378D01*
X199747242Y-113189277D01*
X199747246Y-113189281D01*
X199940212Y-113339473D01*
X200155267Y-113455855D01*
X200155270Y-113455856D01*
X200386541Y-113535251D01*
X200386543Y-113535251D01*
X200386545Y-113535252D01*
X200627737Y-113575500D01*
X200627738Y-113575500D01*
X200872262Y-113575500D01*
X200872263Y-113575500D01*
X201113455Y-113535252D01*
X201344733Y-113455855D01*
X201559788Y-113339473D01*
X201752754Y-113189281D01*
X201918368Y-113009377D01*
X202052111Y-112804667D01*
X202150336Y-112580736D01*
X202210364Y-112343692D01*
X202215074Y-112286850D01*
X202230557Y-112100005D01*
X202230557Y-112099993D01*
X202210365Y-111856316D01*
X202210363Y-111856304D01*
X202152217Y-111626692D01*
X202150336Y-111619264D01*
X202052111Y-111395333D01*
X201918368Y-111190623D01*
X201918367Y-111190621D01*
X201752757Y-111010722D01*
X201752747Y-111010713D01*
X201559791Y-110860529D01*
X201559787Y-110860526D01*
X201344734Y-110744145D01*
X201344729Y-110744143D01*
X201113458Y-110664748D01*
X200932561Y-110634562D01*
X200872263Y-110624500D01*
X200627737Y-110624500D01*
X200579498Y-110632549D01*
X200386541Y-110664748D01*
X200155270Y-110744143D01*
X200155265Y-110744145D01*
X199940212Y-110860526D01*
X199940208Y-110860529D01*
X199747252Y-111010713D01*
X199747242Y-111010722D01*
X199581632Y-111190621D01*
X199447888Y-111395333D01*
X199349663Y-111619265D01*
X199289636Y-111856304D01*
X199289634Y-111856316D01*
X199269443Y-112099993D01*
X194937477Y-112099993D01*
X194970568Y-112052734D01*
X195066739Y-111846496D01*
X195125635Y-111626692D01*
X195145468Y-111400000D01*
X195125635Y-111173308D01*
X195066739Y-110953504D01*
X194970568Y-110747266D01*
X194840047Y-110560861D01*
X194840045Y-110560858D01*
X194691368Y-110412181D01*
X194657883Y-110350858D01*
X194662867Y-110281166D01*
X194704739Y-110225233D01*
X194770203Y-110200816D01*
X194779049Y-110200500D01*
X205449903Y-110200500D01*
X205516942Y-110220185D01*
X205537584Y-110236819D01*
X211814061Y-116513297D01*
X211847546Y-116574620D01*
X211846586Y-116631418D01*
X211789636Y-116856304D01*
X211789634Y-116856316D01*
X211769443Y-117099994D01*
X211769443Y-117100005D01*
X211789634Y-117343683D01*
X211789636Y-117343695D01*
X211849663Y-117580734D01*
X211947888Y-117804666D01*
X212081632Y-118009378D01*
X212247242Y-118189277D01*
X212247252Y-118189286D01*
X212440208Y-118339470D01*
X212440212Y-118339473D01*
X212655267Y-118455855D01*
X212655270Y-118455856D01*
X212886541Y-118535251D01*
X212886543Y-118535251D01*
X212886545Y-118535252D01*
X213127737Y-118575500D01*
X213127738Y-118575500D01*
X213372262Y-118575500D01*
X213372263Y-118575500D01*
X213613455Y-118535252D01*
X213844733Y-118455855D01*
X214059788Y-118339473D01*
X214252754Y-118189281D01*
X214418368Y-118009377D01*
X214552111Y-117804667D01*
X214650336Y-117580736D01*
X214710364Y-117343692D01*
X214710365Y-117343683D01*
X214730557Y-117100005D01*
X214730557Y-117099994D01*
X214710365Y-116856316D01*
X214710363Y-116856304D01*
X214682636Y-116746814D01*
X214650336Y-116619264D01*
X214552111Y-116395333D01*
X214418368Y-116190623D01*
X214418367Y-116190621D01*
X214252757Y-116010722D01*
X214252747Y-116010713D01*
X214059791Y-115860529D01*
X214059787Y-115860526D01*
X213844734Y-115744145D01*
X213844729Y-115744143D01*
X213613458Y-115664748D01*
X213432561Y-115634562D01*
X213372263Y-115624500D01*
X213127737Y-115624500D01*
X213007141Y-115644624D01*
X212886544Y-115664748D01*
X212794070Y-115696493D01*
X212724271Y-115699642D01*
X212666128Y-115666892D01*
X209099228Y-112099993D01*
X211769443Y-112099993D01*
X211769443Y-112100005D01*
X211789634Y-112343683D01*
X211789636Y-112343695D01*
X211849663Y-112580734D01*
X211947888Y-112804666D01*
X212081632Y-113009378D01*
X212247242Y-113189277D01*
X212247246Y-113189281D01*
X212440212Y-113339473D01*
X212655267Y-113455855D01*
X212655270Y-113455856D01*
X212886541Y-113535251D01*
X212886543Y-113535251D01*
X212886545Y-113535252D01*
X213127737Y-113575500D01*
X213127738Y-113575500D01*
X213372262Y-113575500D01*
X213372263Y-113575500D01*
X213613455Y-113535252D01*
X213844733Y-113455855D01*
X214059788Y-113339473D01*
X214252754Y-113189281D01*
X214418368Y-113009377D01*
X214552111Y-112804667D01*
X214650336Y-112580736D01*
X214710364Y-112343692D01*
X214715074Y-112286850D01*
X214730557Y-112100005D01*
X214730557Y-112099993D01*
X214710365Y-111856316D01*
X214710363Y-111856304D01*
X214652217Y-111626692D01*
X214650336Y-111619264D01*
X214552111Y-111395333D01*
X214418368Y-111190623D01*
X214418367Y-111190621D01*
X214252757Y-111010722D01*
X214252747Y-111010713D01*
X214059791Y-110860529D01*
X214059787Y-110860526D01*
X213844734Y-110744145D01*
X213844729Y-110744143D01*
X213613458Y-110664748D01*
X213432561Y-110634562D01*
X213372263Y-110624500D01*
X213127737Y-110624500D01*
X213079498Y-110632549D01*
X212886541Y-110664748D01*
X212655270Y-110744143D01*
X212655265Y-110744145D01*
X212440212Y-110860526D01*
X212440208Y-110860529D01*
X212247252Y-111010713D01*
X212247242Y-111010722D01*
X212081632Y-111190621D01*
X211947888Y-111395333D01*
X211849663Y-111619265D01*
X211789636Y-111856304D01*
X211789634Y-111856316D01*
X211769443Y-112099993D01*
X209099228Y-112099993D01*
X206237590Y-109238355D01*
X206237588Y-109238352D01*
X206118717Y-109119481D01*
X206118716Y-109119480D01*
X206031904Y-109069360D01*
X206031904Y-109069359D01*
X206031900Y-109069358D01*
X205981785Y-109040423D01*
X205829057Y-108999499D01*
X205670943Y-108999499D01*
X205663347Y-108999499D01*
X205663331Y-108999500D01*
X190480940Y-108999500D01*
X190440019Y-109010464D01*
X190440019Y-109010465D01*
X190402751Y-109020451D01*
X190328214Y-109040423D01*
X190328209Y-109040426D01*
X190191290Y-109119475D01*
X190191282Y-109119481D01*
X190079478Y-109231286D01*
X189202705Y-110108058D01*
X189141382Y-110141543D01*
X189082931Y-110140152D01*
X188986697Y-110114366D01*
X188986693Y-110114365D01*
X188986692Y-110114365D01*
X188986691Y-110114364D01*
X188986686Y-110114364D01*
X188760002Y-110094532D01*
X188759998Y-110094532D01*
X188533313Y-110114364D01*
X188533302Y-110114366D01*
X188313511Y-110173258D01*
X188313502Y-110173261D01*
X188107267Y-110269431D01*
X188107265Y-110269432D01*
X187920858Y-110399954D01*
X187759954Y-110560858D01*
X187629432Y-110747265D01*
X187629431Y-110747267D01*
X187602382Y-110805275D01*
X187556209Y-110857714D01*
X187489016Y-110876866D01*
X187422135Y-110856650D01*
X187377618Y-110805275D01*
X187350686Y-110747520D01*
X187350568Y-110747266D01*
X187220047Y-110560861D01*
X187220045Y-110560858D01*
X187059141Y-110399954D01*
X186872734Y-110269432D01*
X186872732Y-110269431D01*
X186666497Y-110173261D01*
X186666488Y-110173258D01*
X186446697Y-110114366D01*
X186446693Y-110114365D01*
X186446692Y-110114365D01*
X186446691Y-110114364D01*
X186446686Y-110114364D01*
X186220002Y-110094532D01*
X186219998Y-110094532D01*
X185993313Y-110114364D01*
X185993302Y-110114366D01*
X185773511Y-110173258D01*
X185773502Y-110173261D01*
X185567267Y-110269431D01*
X185567265Y-110269432D01*
X185380858Y-110399954D01*
X185219954Y-110560858D01*
X185089432Y-110747265D01*
X185089431Y-110747267D01*
X185062382Y-110805275D01*
X185016209Y-110857714D01*
X184949016Y-110876866D01*
X184882135Y-110856650D01*
X184837618Y-110805275D01*
X184810686Y-110747520D01*
X184810568Y-110747266D01*
X184680047Y-110560861D01*
X184680045Y-110560858D01*
X184519141Y-110399954D01*
X184332734Y-110269432D01*
X184332732Y-110269431D01*
X184126497Y-110173261D01*
X184126488Y-110173258D01*
X183906697Y-110114366D01*
X183906693Y-110114365D01*
X183906692Y-110114365D01*
X183906691Y-110114364D01*
X183906686Y-110114364D01*
X183680002Y-110094532D01*
X183679998Y-110094532D01*
X183453313Y-110114364D01*
X183453302Y-110114366D01*
X183233511Y-110173258D01*
X183233502Y-110173261D01*
X183027267Y-110269431D01*
X183027265Y-110269432D01*
X182840858Y-110399954D01*
X182679954Y-110560858D01*
X182549432Y-110747265D01*
X182549431Y-110747267D01*
X182522382Y-110805275D01*
X182476209Y-110857714D01*
X182409016Y-110876866D01*
X182342135Y-110856650D01*
X182297618Y-110805275D01*
X182270686Y-110747520D01*
X182270568Y-110747266D01*
X182140047Y-110560861D01*
X182140045Y-110560858D01*
X181979141Y-110399954D01*
X181792734Y-110269432D01*
X181792732Y-110269431D01*
X181586497Y-110173261D01*
X181586488Y-110173258D01*
X181366697Y-110114366D01*
X181366693Y-110114365D01*
X181366692Y-110114365D01*
X181366691Y-110114364D01*
X181366686Y-110114364D01*
X181140002Y-110094532D01*
X181139998Y-110094532D01*
X180913313Y-110114364D01*
X180913302Y-110114366D01*
X180693511Y-110173258D01*
X180693502Y-110173261D01*
X180487267Y-110269431D01*
X180487265Y-110269432D01*
X180300858Y-110399954D01*
X180139954Y-110560858D01*
X180009432Y-110747265D01*
X180009431Y-110747267D01*
X179982382Y-110805275D01*
X179936209Y-110857714D01*
X179869016Y-110876866D01*
X179802135Y-110856650D01*
X179757618Y-110805275D01*
X179730686Y-110747520D01*
X179730568Y-110747266D01*
X179600047Y-110560861D01*
X179600045Y-110560858D01*
X179439141Y-110399954D01*
X179252734Y-110269432D01*
X179252732Y-110269431D01*
X179046497Y-110173261D01*
X179046488Y-110173258D01*
X178826697Y-110114366D01*
X178826693Y-110114365D01*
X178826692Y-110114365D01*
X178826691Y-110114364D01*
X178826686Y-110114364D01*
X178600002Y-110094532D01*
X178599998Y-110094532D01*
X178373313Y-110114364D01*
X178373302Y-110114366D01*
X178153511Y-110173258D01*
X178153502Y-110173261D01*
X177947267Y-110269431D01*
X177947265Y-110269432D01*
X177760858Y-110399954D01*
X177599954Y-110560858D01*
X177469432Y-110747265D01*
X177469431Y-110747267D01*
X177442382Y-110805275D01*
X177396209Y-110857714D01*
X177329016Y-110876866D01*
X177262135Y-110856650D01*
X177217618Y-110805275D01*
X177190686Y-110747520D01*
X177190568Y-110747266D01*
X177060047Y-110560861D01*
X177060045Y-110560858D01*
X176899141Y-110399954D01*
X176712734Y-110269432D01*
X176712732Y-110269431D01*
X176506497Y-110173261D01*
X176506488Y-110173258D01*
X176286697Y-110114366D01*
X176286693Y-110114365D01*
X176286692Y-110114365D01*
X176286691Y-110114364D01*
X176286686Y-110114364D01*
X176060002Y-110094532D01*
X176059998Y-110094532D01*
X175833313Y-110114364D01*
X175833302Y-110114366D01*
X175613511Y-110173258D01*
X175613502Y-110173261D01*
X175407267Y-110269431D01*
X175407265Y-110269432D01*
X175220858Y-110399954D01*
X175059954Y-110560858D01*
X174929432Y-110747265D01*
X174929431Y-110747267D01*
X174833261Y-110953502D01*
X174833258Y-110953511D01*
X174774366Y-111173302D01*
X174774364Y-111173313D01*
X174754532Y-111399998D01*
X173305468Y-111399998D01*
X173285635Y-111173308D01*
X173226739Y-110953504D01*
X173130568Y-110747266D01*
X173000047Y-110560861D01*
X173000045Y-110560858D01*
X172839141Y-110399954D01*
X172652734Y-110269432D01*
X172652732Y-110269431D01*
X172446497Y-110173261D01*
X172446488Y-110173258D01*
X172226697Y-110114366D01*
X172226693Y-110114365D01*
X172226692Y-110114365D01*
X172226691Y-110114364D01*
X172226686Y-110114364D01*
X172000002Y-110094532D01*
X171999998Y-110094532D01*
X171773313Y-110114364D01*
X171773302Y-110114366D01*
X171553511Y-110173258D01*
X171553502Y-110173261D01*
X171347267Y-110269431D01*
X171347265Y-110269432D01*
X171160858Y-110399954D01*
X170999954Y-110560858D01*
X170869432Y-110747265D01*
X170869431Y-110747267D01*
X170842382Y-110805275D01*
X170796209Y-110857714D01*
X170729016Y-110876866D01*
X170662135Y-110856650D01*
X170617618Y-110805275D01*
X170590686Y-110747520D01*
X170590568Y-110747266D01*
X170460047Y-110560861D01*
X170460045Y-110560858D01*
X170299141Y-110399954D01*
X170112734Y-110269432D01*
X170112732Y-110269431D01*
X169906497Y-110173261D01*
X169906488Y-110173258D01*
X169686697Y-110114366D01*
X169686693Y-110114365D01*
X169686692Y-110114365D01*
X169686691Y-110114364D01*
X169686686Y-110114364D01*
X169460002Y-110094532D01*
X169459998Y-110094532D01*
X169233313Y-110114364D01*
X169233302Y-110114366D01*
X169013511Y-110173258D01*
X169013502Y-110173261D01*
X168807267Y-110269431D01*
X168807265Y-110269432D01*
X168620858Y-110399954D01*
X168459954Y-110560858D01*
X168329432Y-110747265D01*
X168329431Y-110747267D01*
X168302382Y-110805275D01*
X168256209Y-110857714D01*
X168189016Y-110876866D01*
X168122135Y-110856650D01*
X168077618Y-110805275D01*
X168050686Y-110747520D01*
X168050568Y-110747266D01*
X167920047Y-110560861D01*
X167920045Y-110560858D01*
X167759141Y-110399954D01*
X167572734Y-110269432D01*
X167572732Y-110269431D01*
X167366497Y-110173261D01*
X167366488Y-110173258D01*
X167146697Y-110114366D01*
X167146693Y-110114365D01*
X167146692Y-110114365D01*
X167146691Y-110114364D01*
X167146686Y-110114364D01*
X166920002Y-110094532D01*
X166919998Y-110094532D01*
X166693313Y-110114364D01*
X166693302Y-110114366D01*
X166473511Y-110173258D01*
X166473502Y-110173261D01*
X166267267Y-110269431D01*
X166267265Y-110269432D01*
X166080858Y-110399954D01*
X165919954Y-110560858D01*
X165789432Y-110747265D01*
X165789431Y-110747267D01*
X165762382Y-110805275D01*
X165716209Y-110857714D01*
X165649016Y-110876866D01*
X165582135Y-110856650D01*
X165537618Y-110805275D01*
X165510686Y-110747520D01*
X165510568Y-110747266D01*
X165380047Y-110560861D01*
X165380045Y-110560858D01*
X165219140Y-110399953D01*
X165033377Y-110269881D01*
X164989752Y-110215304D01*
X164980500Y-110168306D01*
X164980500Y-108920096D01*
X165000185Y-108853057D01*
X165016814Y-108832420D01*
X184769237Y-89079996D01*
X198064435Y-89079996D01*
X198064435Y-89080003D01*
X198084630Y-89259249D01*
X198084631Y-89259254D01*
X198144211Y-89429523D01*
X198215931Y-89543664D01*
X198240184Y-89582262D01*
X198367738Y-89709816D01*
X198520478Y-89805789D01*
X198690745Y-89865368D01*
X198690750Y-89865369D01*
X198869996Y-89885565D01*
X198870000Y-89885565D01*
X198870004Y-89885565D01*
X199049249Y-89865369D01*
X199049252Y-89865368D01*
X199049255Y-89865368D01*
X199219522Y-89805789D01*
X199372262Y-89709816D01*
X199372267Y-89709810D01*
X199375097Y-89707555D01*
X199377275Y-89706665D01*
X199378158Y-89706111D01*
X199378255Y-89706265D01*
X199439783Y-89681145D01*
X199452412Y-89680500D01*
X210710909Y-89680500D01*
X210777948Y-89700185D01*
X210823292Y-89752097D01*
X210825965Y-89757830D01*
X210901264Y-89865368D01*
X210961501Y-89951395D01*
X210961506Y-89951402D01*
X211128597Y-90118493D01*
X211128603Y-90118498D01*
X211314158Y-90248425D01*
X211357783Y-90303002D01*
X211364977Y-90372500D01*
X211333454Y-90434855D01*
X211314158Y-90451575D01*
X211128597Y-90581505D01*
X210961506Y-90748596D01*
X210825965Y-90942170D01*
X210825962Y-90942175D01*
X210823289Y-90947909D01*
X210777115Y-91000346D01*
X210710909Y-91019500D01*
X208756670Y-91019500D01*
X208756654Y-91019499D01*
X208749058Y-91019499D01*
X208590943Y-91019499D01*
X208514579Y-91039961D01*
X208438214Y-91060423D01*
X208438209Y-91060426D01*
X208301290Y-91139475D01*
X208301282Y-91139481D01*
X201081465Y-98359298D01*
X201020142Y-98392783D01*
X201007668Y-98394837D01*
X200920750Y-98404630D01*
X200750478Y-98464210D01*
X200597737Y-98560184D01*
X200470184Y-98687737D01*
X200374211Y-98840476D01*
X200314631Y-99010745D01*
X200314630Y-99010750D01*
X200294435Y-99189996D01*
X200294435Y-99190003D01*
X200314630Y-99369249D01*
X200314631Y-99369254D01*
X200374211Y-99539523D01*
X200470184Y-99692262D01*
X200597738Y-99819816D01*
X200750478Y-99915789D01*
X200920745Y-99975368D01*
X200920750Y-99975369D01*
X201099996Y-99995565D01*
X201100000Y-99995565D01*
X201100004Y-99995565D01*
X201279249Y-99975369D01*
X201279252Y-99975368D01*
X201279255Y-99975368D01*
X201449522Y-99915789D01*
X201602262Y-99819816D01*
X201729816Y-99692262D01*
X201825789Y-99539522D01*
X201885368Y-99369255D01*
X201895161Y-99282329D01*
X201922226Y-99217918D01*
X201930690Y-99208543D01*
X208882417Y-92256819D01*
X208943740Y-92223334D01*
X208970098Y-92220500D01*
X210710909Y-92220500D01*
X210777948Y-92240185D01*
X210823292Y-92292097D01*
X210825965Y-92297830D01*
X210825966Y-92297831D01*
X210961501Y-92491395D01*
X210961506Y-92491402D01*
X211128597Y-92658493D01*
X211128603Y-92658498D01*
X211314158Y-92788425D01*
X211357783Y-92843002D01*
X211364977Y-92912500D01*
X211333454Y-92974855D01*
X211314158Y-92991575D01*
X211128597Y-93121505D01*
X210961505Y-93288597D01*
X210825965Y-93482169D01*
X210825964Y-93482171D01*
X210726098Y-93696335D01*
X210726094Y-93696344D01*
X210664938Y-93924586D01*
X210664936Y-93924596D01*
X210644341Y-94159999D01*
X210644341Y-94160000D01*
X210664936Y-94395403D01*
X210664938Y-94395413D01*
X210726094Y-94623655D01*
X210726096Y-94623659D01*
X210726097Y-94623663D01*
X210807439Y-94798100D01*
X210825965Y-94837830D01*
X210825967Y-94837834D01*
X210961501Y-95031395D01*
X210961506Y-95031402D01*
X211128597Y-95198493D01*
X211128603Y-95198498D01*
X211314158Y-95328425D01*
X211357783Y-95383002D01*
X211364977Y-95452500D01*
X211333454Y-95514855D01*
X211314158Y-95531575D01*
X211128597Y-95661505D01*
X210961505Y-95828597D01*
X210825965Y-96022169D01*
X210825964Y-96022171D01*
X210726098Y-96236335D01*
X210726094Y-96236344D01*
X210664938Y-96464586D01*
X210664936Y-96464596D01*
X210644341Y-96699999D01*
X210644341Y-96700000D01*
X210664936Y-96935403D01*
X210664938Y-96935413D01*
X210726094Y-97163655D01*
X210726096Y-97163659D01*
X210726097Y-97163663D01*
X210825965Y-97377830D01*
X210825967Y-97377834D01*
X210961501Y-97571395D01*
X210961506Y-97571402D01*
X211128597Y-97738493D01*
X211128603Y-97738498D01*
X211314158Y-97868425D01*
X211357783Y-97923002D01*
X211364977Y-97992500D01*
X211333454Y-98054855D01*
X211314158Y-98071575D01*
X211128597Y-98201505D01*
X210961505Y-98368597D01*
X210825965Y-98562169D01*
X210825964Y-98562171D01*
X210726098Y-98776335D01*
X210726094Y-98776344D01*
X210664938Y-99004586D01*
X210664936Y-99004596D01*
X210644341Y-99239999D01*
X210644341Y-99240000D01*
X210664936Y-99475403D01*
X210664938Y-99475413D01*
X210726094Y-99703655D01*
X210726096Y-99703659D01*
X210726097Y-99703663D01*
X210780260Y-99819815D01*
X210825965Y-99917830D01*
X210825967Y-99917834D01*
X210961501Y-100111395D01*
X210961506Y-100111402D01*
X211128597Y-100278493D01*
X211128603Y-100278498D01*
X211314158Y-100408425D01*
X211357783Y-100463002D01*
X211364977Y-100532500D01*
X211333454Y-100594855D01*
X211314158Y-100611575D01*
X211128597Y-100741505D01*
X210961505Y-100908597D01*
X210825965Y-101102169D01*
X210825964Y-101102171D01*
X210726098Y-101316335D01*
X210726094Y-101316344D01*
X210664938Y-101544586D01*
X210664936Y-101544596D01*
X210644341Y-101779999D01*
X210644341Y-101780000D01*
X210664936Y-102015403D01*
X210664938Y-102015413D01*
X210726094Y-102243655D01*
X210726096Y-102243659D01*
X210726097Y-102243663D01*
X210825965Y-102457830D01*
X210825967Y-102457834D01*
X210934281Y-102612521D01*
X210961505Y-102651401D01*
X211128599Y-102818495D01*
X211225384Y-102886265D01*
X211322165Y-102954032D01*
X211322167Y-102954033D01*
X211322170Y-102954035D01*
X211536337Y-103053903D01*
X211764592Y-103115063D01*
X211952918Y-103131539D01*
X211999999Y-103135659D01*
X212000000Y-103135659D01*
X212000001Y-103135659D01*
X212039234Y-103132226D01*
X212235408Y-103115063D01*
X212463663Y-103053903D01*
X212677830Y-102954035D01*
X212871401Y-102818495D01*
X213038495Y-102651401D01*
X213174035Y-102457830D01*
X213273903Y-102243663D01*
X213335063Y-102015408D01*
X213355659Y-101780000D01*
X213335063Y-101544592D01*
X213273903Y-101316337D01*
X213174035Y-101102171D01*
X213116499Y-101020000D01*
X213038494Y-100908597D01*
X212871402Y-100741506D01*
X212871396Y-100741501D01*
X212685842Y-100611575D01*
X212642217Y-100556998D01*
X212635023Y-100487500D01*
X212666546Y-100425145D01*
X212685842Y-100408425D01*
X212848956Y-100294211D01*
X212871401Y-100278495D01*
X213038495Y-100111401D01*
X213174035Y-99917830D01*
X213273903Y-99703663D01*
X213335063Y-99475408D01*
X213355659Y-99240000D01*
X213335063Y-99004592D01*
X213273903Y-98776337D01*
X213174035Y-98562171D01*
X213105443Y-98464210D01*
X213038494Y-98368597D01*
X212871402Y-98201506D01*
X212871396Y-98201501D01*
X212685842Y-98071575D01*
X212642217Y-98016998D01*
X212635023Y-97947500D01*
X212666546Y-97885145D01*
X212685842Y-97868425D01*
X212708026Y-97852891D01*
X212871401Y-97738495D01*
X213038495Y-97571401D01*
X213174035Y-97377830D01*
X213273903Y-97163663D01*
X213335063Y-96935408D01*
X213355659Y-96700000D01*
X213335063Y-96464592D01*
X213273903Y-96236337D01*
X213174035Y-96022171D01*
X213038495Y-95828599D01*
X213038494Y-95828597D01*
X212871402Y-95661506D01*
X212871396Y-95661501D01*
X212685842Y-95531575D01*
X212642217Y-95476998D01*
X212635023Y-95407500D01*
X212666546Y-95345145D01*
X212685842Y-95328425D01*
X212708026Y-95312891D01*
X212871401Y-95198495D01*
X213038495Y-95031401D01*
X213174035Y-94837830D01*
X213273903Y-94623663D01*
X213335063Y-94395408D01*
X213355659Y-94160000D01*
X213335063Y-93924592D01*
X213273903Y-93696337D01*
X213174035Y-93482171D01*
X213038495Y-93288599D01*
X213038494Y-93288597D01*
X212871402Y-93121506D01*
X212871396Y-93121501D01*
X212685842Y-92991575D01*
X212642217Y-92936998D01*
X212635023Y-92867500D01*
X212666546Y-92805145D01*
X212685842Y-92788425D01*
X212708026Y-92772891D01*
X212871401Y-92658495D01*
X213038495Y-92491401D01*
X213174035Y-92297830D01*
X213273903Y-92083663D01*
X213335063Y-91855408D01*
X213355659Y-91620000D01*
X213335063Y-91384592D01*
X213273903Y-91156337D01*
X213174035Y-90942171D01*
X213174034Y-90942169D01*
X213038494Y-90748597D01*
X212871402Y-90581506D01*
X212871396Y-90581501D01*
X212685842Y-90451575D01*
X212642217Y-90396998D01*
X212635023Y-90327500D01*
X212666546Y-90265145D01*
X212685842Y-90248425D01*
X212708026Y-90232891D01*
X212871401Y-90118495D01*
X213038495Y-89951401D01*
X213174035Y-89757830D01*
X213273903Y-89543663D01*
X213335063Y-89315408D01*
X213355659Y-89080000D01*
X213335063Y-88844592D01*
X213273903Y-88616337D01*
X213174035Y-88402171D01*
X213174034Y-88402169D01*
X213038494Y-88208597D01*
X212871402Y-88041506D01*
X212871401Y-88041505D01*
X212685405Y-87911269D01*
X212641781Y-87856692D01*
X212634588Y-87787193D01*
X212666110Y-87724839D01*
X212685405Y-87708119D01*
X212871082Y-87578105D01*
X213038105Y-87411082D01*
X213173600Y-87217578D01*
X213273429Y-87003492D01*
X213273432Y-87003486D01*
X213330636Y-86790000D01*
X212433012Y-86790000D01*
X212465925Y-86732993D01*
X212500000Y-86605826D01*
X212500000Y-86474174D01*
X212465925Y-86347007D01*
X212433012Y-86290000D01*
X213330636Y-86290000D01*
X213330635Y-86289999D01*
X213273432Y-86076513D01*
X213273429Y-86076507D01*
X213173600Y-85862422D01*
X213173599Y-85862420D01*
X213038113Y-85668926D01*
X213038108Y-85668920D01*
X212916053Y-85546865D01*
X212882568Y-85485542D01*
X212887552Y-85415850D01*
X212929424Y-85359917D01*
X212960400Y-85343002D01*
X213092331Y-85293796D01*
X213207546Y-85207546D01*
X213293796Y-85092331D01*
X213344091Y-84957483D01*
X213350500Y-84897873D01*
X213350499Y-83102128D01*
X213344091Y-83042517D01*
X213293796Y-82907669D01*
X213293795Y-82907668D01*
X213293793Y-82907664D01*
X213207547Y-82792455D01*
X213207544Y-82792452D01*
X213092335Y-82706206D01*
X213092328Y-82706202D01*
X212957482Y-82655908D01*
X212957483Y-82655908D01*
X212897883Y-82649501D01*
X212897881Y-82649500D01*
X212897873Y-82649500D01*
X212897864Y-82649500D01*
X211102129Y-82649500D01*
X211102123Y-82649501D01*
X211042516Y-82655908D01*
X210907671Y-82706202D01*
X210907664Y-82706206D01*
X210792455Y-82792452D01*
X210792452Y-82792455D01*
X210706206Y-82907664D01*
X210706202Y-82907671D01*
X210655908Y-83042517D01*
X210649501Y-83102116D01*
X210649501Y-83102123D01*
X210649500Y-83102135D01*
X210649500Y-84897870D01*
X210649501Y-84897876D01*
X210655908Y-84957483D01*
X210706202Y-85092328D01*
X210706206Y-85092335D01*
X210792452Y-85207544D01*
X210792455Y-85207547D01*
X210907664Y-85293793D01*
X210907671Y-85293797D01*
X210907674Y-85293798D01*
X211039598Y-85343002D01*
X211095531Y-85384873D01*
X211119949Y-85450337D01*
X211105098Y-85518610D01*
X211083947Y-85546865D01*
X210961886Y-85668926D01*
X210826400Y-85862420D01*
X210826399Y-85862422D01*
X210726570Y-86076507D01*
X210726567Y-86076513D01*
X210669364Y-86289999D01*
X210669364Y-86290000D01*
X211566988Y-86290000D01*
X211534075Y-86347007D01*
X211500000Y-86474174D01*
X211500000Y-86605826D01*
X211534075Y-86732993D01*
X211566988Y-86790000D01*
X210669364Y-86790000D01*
X210726567Y-87003486D01*
X210726570Y-87003492D01*
X210826399Y-87217578D01*
X210961894Y-87411082D01*
X211128917Y-87578105D01*
X211314595Y-87708119D01*
X211358219Y-87762696D01*
X211365412Y-87832195D01*
X211333890Y-87894549D01*
X211314595Y-87911269D01*
X211128594Y-88041508D01*
X210961506Y-88208596D01*
X210825965Y-88402170D01*
X210825962Y-88402175D01*
X210823289Y-88407909D01*
X210777115Y-88460346D01*
X210710909Y-88479500D01*
X199452412Y-88479500D01*
X199385373Y-88459815D01*
X199375097Y-88452445D01*
X199372263Y-88450185D01*
X199372262Y-88450184D01*
X199295847Y-88402169D01*
X199219523Y-88354211D01*
X199049254Y-88294631D01*
X199049249Y-88294630D01*
X198870004Y-88274435D01*
X198869996Y-88274435D01*
X198690750Y-88294630D01*
X198690745Y-88294631D01*
X198520476Y-88354211D01*
X198367737Y-88450184D01*
X198240184Y-88577737D01*
X198144211Y-88730476D01*
X198084631Y-88900745D01*
X198084630Y-88900750D01*
X198064435Y-89079996D01*
X184769237Y-89079996D01*
X198604250Y-75244983D01*
X201149500Y-75244983D01*
X201149500Y-76795001D01*
X201149501Y-76795018D01*
X201160000Y-76897796D01*
X201160001Y-76897799D01*
X201205894Y-77036294D01*
X201215186Y-77064334D01*
X201307288Y-77213656D01*
X201431344Y-77337712D01*
X201580666Y-77429814D01*
X201747203Y-77484999D01*
X201849991Y-77495500D01*
X203150008Y-77495499D01*
X203252797Y-77484999D01*
X203419334Y-77429814D01*
X203568656Y-77337712D01*
X203692712Y-77213656D01*
X203784814Y-77064334D01*
X203784814Y-77064331D01*
X203788178Y-77058879D01*
X203840126Y-77012154D01*
X203909088Y-77000931D01*
X203973170Y-77028774D01*
X203981398Y-77036294D01*
X204120213Y-77175109D01*
X204292179Y-77300048D01*
X204292181Y-77300049D01*
X204292184Y-77300051D01*
X204481588Y-77396557D01*
X204683757Y-77462246D01*
X204893713Y-77495500D01*
X204893714Y-77495500D01*
X205106286Y-77495500D01*
X205106287Y-77495500D01*
X205316243Y-77462246D01*
X205518412Y-77396557D01*
X205707816Y-77300051D01*
X205729789Y-77284086D01*
X205879786Y-77175109D01*
X205879788Y-77175106D01*
X205879792Y-77175104D01*
X206030104Y-77024792D01*
X206149683Y-76860204D01*
X206205011Y-76817540D01*
X206274624Y-76811561D01*
X206336420Y-76844166D01*
X206350313Y-76860199D01*
X206452560Y-77000931D01*
X206469896Y-77024792D01*
X206620213Y-77175109D01*
X206792179Y-77300048D01*
X206792181Y-77300049D01*
X206792184Y-77300051D01*
X206981588Y-77396557D01*
X207183757Y-77462246D01*
X207393713Y-77495500D01*
X207393714Y-77495500D01*
X207606286Y-77495500D01*
X207606287Y-77495500D01*
X207816243Y-77462246D01*
X208018412Y-77396557D01*
X208207816Y-77300051D01*
X208229789Y-77284086D01*
X208379786Y-77175109D01*
X208379788Y-77175106D01*
X208379792Y-77175104D01*
X208530104Y-77024792D01*
X208649683Y-76860204D01*
X208705011Y-76817540D01*
X208774624Y-76811561D01*
X208836420Y-76844166D01*
X208850313Y-76860199D01*
X208952560Y-77000931D01*
X208969896Y-77024792D01*
X209120213Y-77175109D01*
X209292179Y-77300048D01*
X209292181Y-77300049D01*
X209292184Y-77300051D01*
X209481588Y-77396557D01*
X209683757Y-77462246D01*
X209893713Y-77495500D01*
X209893714Y-77495500D01*
X210106286Y-77495500D01*
X210106287Y-77495500D01*
X210316243Y-77462246D01*
X210518412Y-77396557D01*
X210707816Y-77300051D01*
X210729789Y-77284086D01*
X210879786Y-77175109D01*
X210879788Y-77175106D01*
X210879792Y-77175104D01*
X211030104Y-77024792D01*
X211149683Y-76860204D01*
X211205011Y-76817540D01*
X211274624Y-76811561D01*
X211336420Y-76844166D01*
X211350313Y-76860199D01*
X211452560Y-77000931D01*
X211469896Y-77024792D01*
X211620213Y-77175109D01*
X211792179Y-77300048D01*
X211792181Y-77300049D01*
X211792184Y-77300051D01*
X211981588Y-77396557D01*
X212183757Y-77462246D01*
X212393713Y-77495500D01*
X212393714Y-77495500D01*
X212606286Y-77495500D01*
X212606287Y-77495500D01*
X212816243Y-77462246D01*
X213018412Y-77396557D01*
X213207816Y-77300051D01*
X213229789Y-77284086D01*
X213379786Y-77175109D01*
X213379788Y-77175106D01*
X213379792Y-77175104D01*
X213530104Y-77024792D01*
X213530106Y-77024788D01*
X213530109Y-77024786D01*
X213655048Y-76852820D01*
X213655047Y-76852820D01*
X213655051Y-76852816D01*
X213751557Y-76663412D01*
X213817246Y-76461243D01*
X213850500Y-76251287D01*
X213850500Y-75788713D01*
X213817246Y-75578757D01*
X213751557Y-75376588D01*
X213655051Y-75187184D01*
X213655049Y-75187181D01*
X213655048Y-75187179D01*
X213530109Y-75015213D01*
X213379786Y-74864890D01*
X213207820Y-74739951D01*
X213018414Y-74643444D01*
X213018413Y-74643443D01*
X213018412Y-74643443D01*
X212816243Y-74577754D01*
X212816241Y-74577753D01*
X212816240Y-74577753D01*
X212654957Y-74552208D01*
X212606287Y-74544500D01*
X212393713Y-74544500D01*
X212345042Y-74552208D01*
X212183760Y-74577753D01*
X211981585Y-74643444D01*
X211792179Y-74739951D01*
X211620213Y-74864890D01*
X211469894Y-75015209D01*
X211469890Y-75015214D01*
X211350318Y-75179793D01*
X211294989Y-75222459D01*
X211225375Y-75228438D01*
X211163580Y-75195833D01*
X211149682Y-75179793D01*
X211030109Y-75015214D01*
X211030105Y-75015209D01*
X210879786Y-74864890D01*
X210707820Y-74739951D01*
X210518414Y-74643444D01*
X210518413Y-74643443D01*
X210518412Y-74643443D01*
X210316243Y-74577754D01*
X210316241Y-74577753D01*
X210316240Y-74577753D01*
X210154957Y-74552208D01*
X210106287Y-74544500D01*
X209893713Y-74544500D01*
X209845042Y-74552208D01*
X209683760Y-74577753D01*
X209481585Y-74643444D01*
X209292179Y-74739951D01*
X209120213Y-74864890D01*
X208969894Y-75015209D01*
X208969890Y-75015214D01*
X208850318Y-75179793D01*
X208794989Y-75222459D01*
X208725375Y-75228438D01*
X208663580Y-75195833D01*
X208649682Y-75179793D01*
X208530109Y-75015214D01*
X208530105Y-75015209D01*
X208379786Y-74864890D01*
X208207820Y-74739951D01*
X208018414Y-74643444D01*
X208018413Y-74643443D01*
X208018412Y-74643443D01*
X207816243Y-74577754D01*
X207816241Y-74577753D01*
X207816240Y-74577753D01*
X207654957Y-74552208D01*
X207606287Y-74544500D01*
X207393713Y-74544500D01*
X207345042Y-74552208D01*
X207183760Y-74577753D01*
X206981585Y-74643444D01*
X206792179Y-74739951D01*
X206620213Y-74864890D01*
X206469894Y-75015209D01*
X206469890Y-75015214D01*
X206350318Y-75179793D01*
X206294989Y-75222459D01*
X206225375Y-75228438D01*
X206163580Y-75195833D01*
X206149682Y-75179793D01*
X206030109Y-75015214D01*
X206030105Y-75015209D01*
X205879786Y-74864890D01*
X205707820Y-74739951D01*
X205518414Y-74643444D01*
X205518413Y-74643443D01*
X205518412Y-74643443D01*
X205316243Y-74577754D01*
X205316241Y-74577753D01*
X205316240Y-74577753D01*
X205154957Y-74552208D01*
X205106287Y-74544500D01*
X204893713Y-74544500D01*
X204845042Y-74552208D01*
X204683760Y-74577753D01*
X204481585Y-74643444D01*
X204292179Y-74739951D01*
X204120215Y-74864889D01*
X203981398Y-75003706D01*
X203920075Y-75037190D01*
X203850383Y-75032206D01*
X203794450Y-74990334D01*
X203788178Y-74981120D01*
X203692712Y-74826344D01*
X203568657Y-74702289D01*
X203568656Y-74702288D01*
X203419334Y-74610186D01*
X203252797Y-74555001D01*
X203252795Y-74555000D01*
X203150010Y-74544500D01*
X201849998Y-74544500D01*
X201849981Y-74544501D01*
X201747203Y-74555000D01*
X201747200Y-74555001D01*
X201580668Y-74610185D01*
X201580663Y-74610187D01*
X201431342Y-74702289D01*
X201307289Y-74826342D01*
X201215187Y-74975663D01*
X201215185Y-74975668D01*
X201210325Y-74990334D01*
X201160001Y-75142203D01*
X201160001Y-75142204D01*
X201160000Y-75142204D01*
X201149500Y-75244983D01*
X198604250Y-75244983D01*
X204421133Y-69428100D01*
X204482454Y-69394617D01*
X204547126Y-69397851D01*
X204683757Y-69442246D01*
X204893713Y-69475500D01*
X204893714Y-69475500D01*
X205106286Y-69475500D01*
X205106287Y-69475500D01*
X205316243Y-69442246D01*
X205518412Y-69376557D01*
X205707816Y-69280051D01*
X205729789Y-69264086D01*
X205879786Y-69155109D01*
X205879788Y-69155106D01*
X205879792Y-69155104D01*
X206030104Y-69004792D01*
X206149683Y-68840204D01*
X206205011Y-68797540D01*
X206274624Y-68791561D01*
X206336420Y-68824166D01*
X206350313Y-68840199D01*
X206377557Y-68877697D01*
X206469896Y-69004792D01*
X206620213Y-69155109D01*
X206792179Y-69280048D01*
X206792181Y-69280049D01*
X206792184Y-69280051D01*
X206981588Y-69376557D01*
X207183757Y-69442246D01*
X207393713Y-69475500D01*
X207393714Y-69475500D01*
X207606286Y-69475500D01*
X207606287Y-69475500D01*
X207816243Y-69442246D01*
X208018412Y-69376557D01*
X208207816Y-69280051D01*
X208229789Y-69264086D01*
X208379786Y-69155109D01*
X208379788Y-69155106D01*
X208379792Y-69155104D01*
X208530104Y-69004792D01*
X208649683Y-68840204D01*
X208705011Y-68797540D01*
X208774624Y-68791561D01*
X208836420Y-68824166D01*
X208850313Y-68840199D01*
X208877557Y-68877697D01*
X208969896Y-69004792D01*
X209120213Y-69155109D01*
X209292179Y-69280048D01*
X209292181Y-69280049D01*
X209292184Y-69280051D01*
X209481588Y-69376557D01*
X209683757Y-69442246D01*
X209893713Y-69475500D01*
X209893714Y-69475500D01*
X210106286Y-69475500D01*
X210106287Y-69475500D01*
X210316243Y-69442246D01*
X210518412Y-69376557D01*
X210707816Y-69280051D01*
X210729789Y-69264086D01*
X210879786Y-69155109D01*
X210879788Y-69155106D01*
X210879792Y-69155104D01*
X211030104Y-69004792D01*
X211149683Y-68840204D01*
X211205011Y-68797540D01*
X211274624Y-68791561D01*
X211336420Y-68824166D01*
X211350313Y-68840199D01*
X211377557Y-68877697D01*
X211469896Y-69004792D01*
X211620213Y-69155109D01*
X211792179Y-69280048D01*
X211792181Y-69280049D01*
X211792184Y-69280051D01*
X211981588Y-69376557D01*
X212183757Y-69442246D01*
X212393713Y-69475500D01*
X212393714Y-69475500D01*
X212606286Y-69475500D01*
X212606287Y-69475500D01*
X212816243Y-69442246D01*
X213018412Y-69376557D01*
X213207816Y-69280051D01*
X213229789Y-69264086D01*
X213379786Y-69155109D01*
X213379788Y-69155106D01*
X213379792Y-69155104D01*
X213530104Y-69004792D01*
X213530106Y-69004788D01*
X213530109Y-69004786D01*
X213655048Y-68832820D01*
X213655047Y-68832820D01*
X213655051Y-68832816D01*
X213751557Y-68643412D01*
X213817246Y-68441243D01*
X213850500Y-68231287D01*
X213850500Y-67768713D01*
X213817246Y-67558757D01*
X213751557Y-67356588D01*
X213655051Y-67167184D01*
X213655049Y-67167181D01*
X213655048Y-67167179D01*
X213530109Y-66995213D01*
X213379786Y-66844890D01*
X213207820Y-66719951D01*
X213018414Y-66623444D01*
X213018413Y-66623443D01*
X213018412Y-66623443D01*
X212816243Y-66557754D01*
X212816241Y-66557753D01*
X212816240Y-66557753D01*
X212654957Y-66532208D01*
X212606287Y-66524500D01*
X212606286Y-66524500D01*
X212490783Y-66524500D01*
X212423744Y-66504815D01*
X212403102Y-66488181D01*
X207714920Y-61800000D01*
X210694626Y-61800000D01*
X210714100Y-62084708D01*
X210714100Y-62084712D01*
X210714101Y-62084714D01*
X210725580Y-62139953D01*
X210772163Y-62364127D01*
X210772164Y-62364130D01*
X210867729Y-62633022D01*
X210867728Y-62633022D01*
X210923746Y-62741131D01*
X210999024Y-62886411D01*
X211163597Y-63119557D01*
X211163601Y-63119561D01*
X211163601Y-63119562D01*
X211358386Y-63328125D01*
X211420667Y-63378794D01*
X211579755Y-63508222D01*
X211579757Y-63508223D01*
X211579758Y-63508224D01*
X211823590Y-63656502D01*
X211823595Y-63656504D01*
X211885397Y-63683348D01*
X212085342Y-63770196D01*
X212360139Y-63847190D01*
X212608694Y-63881354D01*
X212642859Y-63886050D01*
X212642860Y-63886050D01*
X212928241Y-63886050D01*
X212958721Y-63881860D01*
X213210961Y-63847190D01*
X213485758Y-63770196D01*
X213747511Y-63656501D01*
X213991345Y-63508222D01*
X214212717Y-63328122D01*
X214407503Y-63119557D01*
X214572076Y-62886411D01*
X214703369Y-62633026D01*
X214798937Y-62364125D01*
X214856999Y-62084714D01*
X214876474Y-61800000D01*
X214856999Y-61515286D01*
X214798937Y-61235875D01*
X214703370Y-60966977D01*
X214703371Y-60966977D01*
X214631723Y-60828703D01*
X214572076Y-60713589D01*
X214407503Y-60480443D01*
X214407498Y-60480437D01*
X214212713Y-60271874D01*
X213991341Y-60091775D01*
X213747509Y-59943497D01*
X213747504Y-59943495D01*
X213485763Y-59829806D01*
X213485761Y-59829805D01*
X213485758Y-59829804D01*
X213357169Y-59793775D01*
X213210967Y-59752811D01*
X213210962Y-59752810D01*
X213210961Y-59752810D01*
X213069600Y-59733380D01*
X212928241Y-59713950D01*
X212928240Y-59713950D01*
X212642860Y-59713950D01*
X212642859Y-59713950D01*
X212360139Y-59752810D01*
X212360132Y-59752811D01*
X212153786Y-59810626D01*
X212085342Y-59829804D01*
X212085339Y-59829804D01*
X212085336Y-59829806D01*
X212085335Y-59829806D01*
X211823595Y-59943495D01*
X211823590Y-59943497D01*
X211579758Y-60091775D01*
X211358386Y-60271874D01*
X211163601Y-60480437D01*
X211163601Y-60480438D01*
X210999024Y-60713588D01*
X210867729Y-60966977D01*
X210772164Y-61235869D01*
X210772163Y-61235872D01*
X210714100Y-61515291D01*
X210694626Y-61800000D01*
X207714920Y-61800000D01*
X206534209Y-60619289D01*
X206534206Y-60619285D01*
X206534206Y-60619286D01*
X206527139Y-60612219D01*
X206527139Y-60612218D01*
X206387782Y-60472861D01*
X206387781Y-60472860D01*
X206387780Y-60472859D01*
X206223920Y-60363371D01*
X206223911Y-60363366D01*
X206151315Y-60333296D01*
X206095165Y-60310038D01*
X206041836Y-60287949D01*
X206041832Y-60287948D01*
X206041828Y-60287946D01*
X205945188Y-60268724D01*
X205848544Y-60249500D01*
X205848541Y-60249500D01*
X177851459Y-60249500D01*
X177851454Y-60249500D01*
X177819391Y-60255876D01*
X177819392Y-60255877D01*
X177658170Y-60287946D01*
X177658164Y-60287948D01*
X177476088Y-60363366D01*
X177476079Y-60363371D01*
X177312219Y-60472859D01*
X177312215Y-60472862D01*
X175971966Y-61813111D01*
X175910643Y-61846596D01*
X175895095Y-61848958D01*
X175833307Y-61854365D01*
X175613511Y-61913258D01*
X175613502Y-61913261D01*
X175407267Y-62009431D01*
X175407265Y-62009432D01*
X175220858Y-62139954D01*
X175059954Y-62300858D01*
X174996034Y-62392147D01*
X174929432Y-62487266D01*
X174929315Y-62487518D01*
X174902106Y-62545867D01*
X174855933Y-62598306D01*
X174788739Y-62617457D01*
X174721858Y-62597241D01*
X174677342Y-62545865D01*
X174650135Y-62487520D01*
X174650134Y-62487518D01*
X174519657Y-62301179D01*
X174358820Y-62140342D01*
X174172482Y-62009865D01*
X173966328Y-61913734D01*
X173770000Y-61861127D01*
X173770000Y-62706988D01*
X173712993Y-62674075D01*
X173585826Y-62640000D01*
X173454174Y-62640000D01*
X173327007Y-62674075D01*
X173270000Y-62706988D01*
X173270000Y-61861127D01*
X173073671Y-61913734D01*
X172867517Y-62009865D01*
X172681179Y-62140342D01*
X172520342Y-62301179D01*
X172389865Y-62487517D01*
X172362382Y-62546457D01*
X172316210Y-62598896D01*
X172249016Y-62618048D01*
X172182135Y-62597832D01*
X172137618Y-62546457D01*
X172110134Y-62487517D01*
X171979657Y-62301179D01*
X171818820Y-62140342D01*
X171632482Y-62009865D01*
X171426328Y-61913734D01*
X171230000Y-61861127D01*
X171230000Y-62706988D01*
X171172993Y-62674075D01*
X171045826Y-62640000D01*
X170914174Y-62640000D01*
X170787007Y-62674075D01*
X170730000Y-62706988D01*
X170730000Y-61861127D01*
X170533671Y-61913734D01*
X170327517Y-62009865D01*
X170141179Y-62140342D01*
X169980342Y-62301179D01*
X169849867Y-62487515D01*
X169822657Y-62545867D01*
X169776484Y-62598306D01*
X169709290Y-62617457D01*
X169642409Y-62597241D01*
X169597893Y-62545865D01*
X169570685Y-62487518D01*
X169570568Y-62487266D01*
X169455541Y-62322989D01*
X169440045Y-62300858D01*
X169279141Y-62139954D01*
X169092734Y-62009432D01*
X169092732Y-62009431D01*
X168886497Y-61913261D01*
X168886488Y-61913258D01*
X168666697Y-61854366D01*
X168666693Y-61854365D01*
X168666692Y-61854365D01*
X168666691Y-61854364D01*
X168666686Y-61854364D01*
X168440002Y-61834532D01*
X168439998Y-61834532D01*
X168213313Y-61854364D01*
X168213302Y-61854366D01*
X167993511Y-61913258D01*
X167993502Y-61913261D01*
X167787267Y-62009431D01*
X167787265Y-62009432D01*
X167600858Y-62139954D01*
X167439954Y-62300858D01*
X167309432Y-62487265D01*
X167309431Y-62487267D01*
X167282382Y-62545275D01*
X167236209Y-62597714D01*
X167169016Y-62616866D01*
X167102135Y-62596650D01*
X167057618Y-62545275D01*
X167030686Y-62487520D01*
X167030568Y-62487266D01*
X166915541Y-62322989D01*
X166900045Y-62300858D01*
X166739141Y-62139954D01*
X166552734Y-62009432D01*
X166552732Y-62009431D01*
X166346497Y-61913261D01*
X166346488Y-61913258D01*
X166126697Y-61854366D01*
X166126693Y-61854365D01*
X166126692Y-61854365D01*
X166126691Y-61854364D01*
X166126686Y-61854364D01*
X165900002Y-61834532D01*
X165899998Y-61834532D01*
X165673313Y-61854364D01*
X165673302Y-61854366D01*
X165453511Y-61913258D01*
X165453502Y-61913261D01*
X165247267Y-62009431D01*
X165247265Y-62009432D01*
X165060858Y-62139954D01*
X164899954Y-62300858D01*
X164769432Y-62487265D01*
X164769431Y-62487267D01*
X164742382Y-62545275D01*
X164696209Y-62597714D01*
X164629016Y-62616866D01*
X164562135Y-62596650D01*
X164517618Y-62545275D01*
X164490686Y-62487520D01*
X164490568Y-62487266D01*
X164375541Y-62322989D01*
X164360045Y-62300858D01*
X164199141Y-62139954D01*
X164012734Y-62009432D01*
X164012732Y-62009431D01*
X163806497Y-61913261D01*
X163806488Y-61913258D01*
X163586697Y-61854366D01*
X163586693Y-61854365D01*
X163586692Y-61854365D01*
X163586691Y-61854364D01*
X163586686Y-61854364D01*
X163360002Y-61834532D01*
X163359998Y-61834532D01*
X163133313Y-61854364D01*
X163133302Y-61854366D01*
X162913511Y-61913258D01*
X162913502Y-61913261D01*
X162707267Y-62009431D01*
X162707265Y-62009432D01*
X162520858Y-62139954D01*
X162359954Y-62300858D01*
X162229432Y-62487265D01*
X162229431Y-62487267D01*
X162202382Y-62545275D01*
X162156209Y-62597714D01*
X162089016Y-62616866D01*
X162022135Y-62596650D01*
X161977618Y-62545275D01*
X161950686Y-62487520D01*
X161950568Y-62487266D01*
X161835541Y-62322989D01*
X161820045Y-62300858D01*
X161659141Y-62139954D01*
X161472734Y-62009432D01*
X161472732Y-62009431D01*
X161266497Y-61913261D01*
X161266488Y-61913258D01*
X161046697Y-61854366D01*
X161046693Y-61854365D01*
X161046692Y-61854365D01*
X161046691Y-61854364D01*
X161046686Y-61854364D01*
X160820002Y-61834532D01*
X160819998Y-61834532D01*
X160593313Y-61854364D01*
X160593302Y-61854366D01*
X160373511Y-61913258D01*
X160373502Y-61913261D01*
X160167267Y-62009431D01*
X160167265Y-62009432D01*
X159980858Y-62139954D01*
X159819954Y-62300858D01*
X159802725Y-62325464D01*
X159748147Y-62369088D01*
X159678648Y-62376280D01*
X159616294Y-62344757D01*
X159580882Y-62284526D01*
X159577861Y-62267591D01*
X159574091Y-62232516D01*
X159523797Y-62097671D01*
X159523793Y-62097664D01*
X159437547Y-61982455D01*
X159437544Y-61982452D01*
X159322335Y-61896206D01*
X159322328Y-61896202D01*
X159187482Y-61845908D01*
X159187483Y-61845908D01*
X159127883Y-61839501D01*
X159127881Y-61839500D01*
X159127873Y-61839500D01*
X159127864Y-61839500D01*
X157432129Y-61839500D01*
X157432123Y-61839501D01*
X157372516Y-61845908D01*
X157237671Y-61896202D01*
X157237664Y-61896206D01*
X157122455Y-61982452D01*
X157122452Y-61982455D01*
X157036206Y-62097664D01*
X157036202Y-62097671D01*
X156985908Y-62232517D01*
X156979501Y-62292116D01*
X156979500Y-62292135D01*
X156979500Y-63987870D01*
X156979501Y-63987876D01*
X156985908Y-64047483D01*
X157036202Y-64182328D01*
X157036206Y-64182335D01*
X157122452Y-64297544D01*
X157122455Y-64297547D01*
X157237664Y-64383793D01*
X157237671Y-64383797D01*
X157372517Y-64434091D01*
X157372516Y-64434091D01*
X157379444Y-64434835D01*
X157432127Y-64440500D01*
X159127872Y-64440499D01*
X159187483Y-64434091D01*
X159322331Y-64383796D01*
X159437546Y-64297546D01*
X159523796Y-64182331D01*
X159574091Y-64047483D01*
X159577862Y-64012401D01*
X159604599Y-63947855D01*
X159661990Y-63908006D01*
X159731816Y-63905511D01*
X159791905Y-63941163D01*
X159802726Y-63954536D01*
X159819956Y-63979143D01*
X159980858Y-64140045D01*
X159980861Y-64140047D01*
X160167266Y-64270568D01*
X160373504Y-64366739D01*
X160593308Y-64425635D01*
X160755230Y-64439801D01*
X160819998Y-64445468D01*
X160820000Y-64445468D01*
X160820002Y-64445468D01*
X160876807Y-64440498D01*
X161046692Y-64425635D01*
X161266496Y-64366739D01*
X161472734Y-64270568D01*
X161659139Y-64140047D01*
X161820047Y-63979139D01*
X161950568Y-63792734D01*
X161977618Y-63734724D01*
X162023790Y-63682285D01*
X162090983Y-63663133D01*
X162157865Y-63683348D01*
X162202382Y-63734725D01*
X162229429Y-63792728D01*
X162229432Y-63792734D01*
X162359954Y-63979141D01*
X162520858Y-64140045D01*
X162520861Y-64140047D01*
X162707266Y-64270568D01*
X162913504Y-64366739D01*
X163133308Y-64425635D01*
X163295230Y-64439801D01*
X163359998Y-64445468D01*
X163360000Y-64445468D01*
X163360002Y-64445468D01*
X163416807Y-64440498D01*
X163586692Y-64425635D01*
X163806496Y-64366739D01*
X164012734Y-64270568D01*
X164199139Y-64140047D01*
X164360047Y-63979139D01*
X164490568Y-63792734D01*
X164517618Y-63734724D01*
X164563790Y-63682285D01*
X164630983Y-63663133D01*
X164697865Y-63683348D01*
X164742382Y-63734725D01*
X164769429Y-63792728D01*
X164769432Y-63792734D01*
X164899954Y-63979141D01*
X165060858Y-64140045D01*
X165060861Y-64140047D01*
X165247266Y-64270568D01*
X165453504Y-64366739D01*
X165673308Y-64425635D01*
X165835230Y-64439801D01*
X165899998Y-64445468D01*
X165900000Y-64445468D01*
X165900002Y-64445468D01*
X165956807Y-64440498D01*
X166126692Y-64425635D01*
X166346496Y-64366739D01*
X166552734Y-64270568D01*
X166739139Y-64140047D01*
X166900047Y-63979139D01*
X167030568Y-63792734D01*
X167057618Y-63734724D01*
X167103790Y-63682285D01*
X167170983Y-63663133D01*
X167237865Y-63683348D01*
X167282382Y-63734725D01*
X167309429Y-63792728D01*
X167309432Y-63792734D01*
X167439954Y-63979141D01*
X167600858Y-64140045D01*
X167600861Y-64140047D01*
X167787266Y-64270568D01*
X167993504Y-64366739D01*
X168213308Y-64425635D01*
X168375230Y-64439801D01*
X168439998Y-64445468D01*
X168440000Y-64445468D01*
X168440002Y-64445468D01*
X168496807Y-64440498D01*
X168666692Y-64425635D01*
X168886496Y-64366739D01*
X169092734Y-64270568D01*
X169279139Y-64140047D01*
X169440047Y-63979139D01*
X169570568Y-63792734D01*
X169597895Y-63734129D01*
X169644064Y-63681695D01*
X169711257Y-63662542D01*
X169778139Y-63682757D01*
X169822657Y-63734133D01*
X169849865Y-63792482D01*
X169980342Y-63978820D01*
X170141179Y-64139657D01*
X170327517Y-64270134D01*
X170533673Y-64366265D01*
X170533682Y-64366269D01*
X170729999Y-64418872D01*
X170730000Y-64418871D01*
X170730000Y-63573012D01*
X170787007Y-63605925D01*
X170914174Y-63640000D01*
X171045826Y-63640000D01*
X171172993Y-63605925D01*
X171230000Y-63573012D01*
X171230000Y-64418872D01*
X171426317Y-64366269D01*
X171426326Y-64366265D01*
X171632482Y-64270134D01*
X171818820Y-64139657D01*
X171979657Y-63978820D01*
X172110134Y-63792481D01*
X172110135Y-63792479D01*
X172137618Y-63733543D01*
X172183790Y-63681103D01*
X172250983Y-63661951D01*
X172317864Y-63682166D01*
X172362382Y-63733543D01*
X172389864Y-63792479D01*
X172389865Y-63792481D01*
X172520342Y-63978820D01*
X172681179Y-64139657D01*
X172867517Y-64270134D01*
X173073673Y-64366265D01*
X173073682Y-64366269D01*
X173138418Y-64383615D01*
X173198079Y-64419980D01*
X173228608Y-64482827D01*
X173220313Y-64552202D01*
X173194006Y-64591071D01*
X151310905Y-86474174D01*
X144142221Y-93642858D01*
X144142218Y-93642861D01*
X144088744Y-93696335D01*
X144002859Y-93782219D01*
X143893371Y-93946079D01*
X143893366Y-93946088D01*
X143845579Y-94061459D01*
X143817950Y-94128159D01*
X143817947Y-94128171D01*
X143798724Y-94224812D01*
X143779500Y-94321455D01*
X143779500Y-94321459D01*
X143779500Y-111911484D01*
X143779500Y-111911486D01*
X143779499Y-111911486D01*
X143797206Y-112000497D01*
X143797206Y-112000499D01*
X143816996Y-112099993D01*
X143816997Y-112099993D01*
X143817949Y-112104778D01*
X143817951Y-112104785D01*
X143893364Y-112286850D01*
X143893371Y-112286863D01*
X144002860Y-112450724D01*
X144002863Y-112450728D01*
X144146537Y-112594402D01*
X144146559Y-112594422D01*
X147733181Y-116181044D01*
X147766666Y-116242367D01*
X147769500Y-116268725D01*
X147769500Y-119594800D01*
X147749815Y-119661839D01*
X147740506Y-119674365D01*
X147620318Y-119839793D01*
X147564989Y-119882459D01*
X147495375Y-119888438D01*
X147433580Y-119855833D01*
X147419682Y-119839793D01*
X147300109Y-119675214D01*
X147300105Y-119675209D01*
X147149786Y-119524890D01*
X146977820Y-119399951D01*
X146788414Y-119303444D01*
X146788413Y-119303443D01*
X146788412Y-119303443D01*
X146586243Y-119237754D01*
X146586241Y-119237753D01*
X146586240Y-119237753D01*
X146424957Y-119212208D01*
X146376287Y-119204500D01*
X146163713Y-119204500D01*
X146115042Y-119212208D01*
X145953760Y-119237753D01*
X145751585Y-119303444D01*
X145562179Y-119399951D01*
X145390215Y-119524889D01*
X145251398Y-119663706D01*
X145190075Y-119697190D01*
X145120383Y-119692206D01*
X145064450Y-119650334D01*
X145058178Y-119641120D01*
X144962712Y-119486344D01*
X144838657Y-119362289D01*
X144838656Y-119362288D01*
X144689334Y-119270186D01*
X144522797Y-119215001D01*
X144522795Y-119215000D01*
X144420010Y-119204500D01*
X143119998Y-119204500D01*
X143119981Y-119204501D01*
X143017203Y-119215000D01*
X143017200Y-119215001D01*
X142850668Y-119270185D01*
X142850663Y-119270187D01*
X142701342Y-119362289D01*
X142577289Y-119486342D01*
X142485187Y-119635663D01*
X142485185Y-119635668D01*
X142465391Y-119695403D01*
X142430001Y-119802203D01*
X142430001Y-119802204D01*
X142430000Y-119802204D01*
X142419500Y-119904983D01*
X142419500Y-121455001D01*
X142419501Y-121455018D01*
X142430000Y-121557796D01*
X142430001Y-121557799D01*
X142481745Y-121713950D01*
X142485186Y-121724334D01*
X142577288Y-121873656D01*
X142701344Y-121997712D01*
X142850666Y-122089814D01*
X143017203Y-122144999D01*
X143119991Y-122155500D01*
X144420008Y-122155499D01*
X144522797Y-122144999D01*
X144689334Y-122089814D01*
X144838656Y-121997712D01*
X144962712Y-121873656D01*
X145054814Y-121724334D01*
X145054814Y-121724331D01*
X145058178Y-121718879D01*
X145110126Y-121672154D01*
X145179088Y-121660931D01*
X145243170Y-121688774D01*
X145251398Y-121696294D01*
X145390213Y-121835109D01*
X145562179Y-121960048D01*
X145562181Y-121960049D01*
X145562184Y-121960051D01*
X145751588Y-122056557D01*
X145953757Y-122122246D01*
X146163713Y-122155500D01*
X146163714Y-122155500D01*
X146376286Y-122155500D01*
X146376287Y-122155500D01*
X146586243Y-122122246D01*
X146788412Y-122056557D01*
X146977816Y-121960051D01*
X147013433Y-121934174D01*
X147149786Y-121835109D01*
X147149788Y-121835106D01*
X147149792Y-121835104D01*
X147300104Y-121684792D01*
X147419683Y-121520204D01*
X147475011Y-121477540D01*
X147544624Y-121471561D01*
X147606420Y-121504166D01*
X147620313Y-121520199D01*
X147678220Y-121599901D01*
X147739896Y-121684792D01*
X147890213Y-121835109D01*
X148062179Y-121960048D01*
X148062181Y-121960049D01*
X148062184Y-121960051D01*
X148251588Y-122056557D01*
X148453757Y-122122246D01*
X148663713Y-122155500D01*
X148663714Y-122155500D01*
X148876286Y-122155500D01*
X148876287Y-122155500D01*
X149086243Y-122122246D01*
X149288412Y-122056557D01*
X149477816Y-121960051D01*
X149513433Y-121934174D01*
X149649786Y-121835109D01*
X149649788Y-121835106D01*
X149649792Y-121835104D01*
X149800104Y-121684792D01*
X149919991Y-121519779D01*
X149975320Y-121477115D01*
X150044933Y-121471136D01*
X150106729Y-121503741D01*
X150120627Y-121519781D01*
X150240272Y-121684459D01*
X150240276Y-121684464D01*
X150390535Y-121834723D01*
X150390540Y-121834727D01*
X150562442Y-121959620D01*
X150751782Y-122056095D01*
X150953871Y-122121757D01*
X151020000Y-122132231D01*
X151020000Y-121084145D01*
X151086657Y-121122630D01*
X151207465Y-121155000D01*
X151332535Y-121155000D01*
X151453343Y-121122630D01*
X151520000Y-121084145D01*
X151520000Y-122132230D01*
X151586126Y-122121757D01*
X151586129Y-122121757D01*
X151788217Y-122056095D01*
X151977557Y-121959620D01*
X152149459Y-121834727D01*
X152149464Y-121834723D01*
X152299721Y-121684466D01*
X152419371Y-121519781D01*
X152474701Y-121477115D01*
X152544314Y-121471136D01*
X152606110Y-121503741D01*
X152620008Y-121519781D01*
X152739890Y-121684785D01*
X152739894Y-121684790D01*
X152890213Y-121835109D01*
X153062179Y-121960048D01*
X153062181Y-121960049D01*
X153062184Y-121960051D01*
X153251588Y-122056557D01*
X153453757Y-122122246D01*
X153663713Y-122155500D01*
X153663714Y-122155500D01*
X153876286Y-122155500D01*
X153876287Y-122155500D01*
X154079638Y-122123292D01*
X154148931Y-122132247D01*
X154186717Y-122158084D01*
X156366452Y-124337819D01*
X156399937Y-124399142D01*
X156394953Y-124468834D01*
X156353081Y-124524767D01*
X156287617Y-124549184D01*
X156278771Y-124549500D01*
X137482229Y-124549500D01*
X137415190Y-124529815D01*
X137394548Y-124513181D01*
X135239587Y-122358219D01*
X135206102Y-122296896D01*
X135211086Y-122227204D01*
X135252958Y-122171271D01*
X135307877Y-122148064D01*
X135316129Y-122146757D01*
X135316130Y-122146757D01*
X135518217Y-122081095D01*
X135707557Y-121984620D01*
X135879459Y-121859727D01*
X135879464Y-121859723D01*
X136029723Y-121709464D01*
X136029727Y-121709459D01*
X136154620Y-121537557D01*
X136251095Y-121348217D01*
X136316757Y-121146130D01*
X136316757Y-121146127D01*
X136350000Y-120936246D01*
X136350000Y-120930000D01*
X135433012Y-120930000D01*
X135465925Y-120872993D01*
X135500000Y-120745826D01*
X135500000Y-120614174D01*
X135465925Y-120487007D01*
X135433012Y-120430000D01*
X136350000Y-120430000D01*
X136350000Y-120423753D01*
X136316757Y-120213872D01*
X136316757Y-120213869D01*
X136251095Y-120011782D01*
X136154620Y-119822442D01*
X136029727Y-119650540D01*
X136029723Y-119650535D01*
X135879464Y-119500276D01*
X135879459Y-119500272D01*
X135707557Y-119375379D01*
X135518215Y-119278903D01*
X135316124Y-119213241D01*
X135250000Y-119202768D01*
X135250000Y-120246988D01*
X135192993Y-120214075D01*
X135065826Y-120180000D01*
X134934174Y-120180000D01*
X134807007Y-120214075D01*
X134750000Y-120246988D01*
X134750000Y-119202768D01*
X134749999Y-119202768D01*
X134683875Y-119213241D01*
X134481784Y-119278903D01*
X134292442Y-119375379D01*
X134120541Y-119500271D01*
X133981668Y-119639144D01*
X133920345Y-119672628D01*
X133850653Y-119667644D01*
X133794720Y-119625772D01*
X133788448Y-119616558D01*
X133732484Y-119525826D01*
X133692712Y-119461344D01*
X133568656Y-119337288D01*
X133419334Y-119245186D01*
X133252797Y-119190001D01*
X133252795Y-119190000D01*
X133150010Y-119179500D01*
X131849998Y-119179500D01*
X131849981Y-119179501D01*
X131747203Y-119190000D01*
X131747200Y-119190001D01*
X131580668Y-119245185D01*
X131580663Y-119245187D01*
X131431342Y-119337289D01*
X131307289Y-119461342D01*
X131215187Y-119610663D01*
X131215185Y-119610668D01*
X131193689Y-119675540D01*
X131160001Y-119777203D01*
X131160001Y-119777204D01*
X131160000Y-119777204D01*
X131149500Y-119879983D01*
X123286050Y-119879983D01*
X123286050Y-61800000D01*
X124194626Y-61800000D01*
X124214100Y-62084708D01*
X124214100Y-62084712D01*
X124214101Y-62084714D01*
X124225580Y-62139953D01*
X124272163Y-62364127D01*
X124272164Y-62364130D01*
X124367729Y-62633022D01*
X124367728Y-62633022D01*
X124423746Y-62741131D01*
X124499024Y-62886411D01*
X124663597Y-63119557D01*
X124663601Y-63119561D01*
X124663601Y-63119562D01*
X124858386Y-63328125D01*
X124920667Y-63378794D01*
X125079755Y-63508222D01*
X125079757Y-63508223D01*
X125079758Y-63508224D01*
X125323590Y-63656502D01*
X125323595Y-63656504D01*
X125385397Y-63683348D01*
X125585342Y-63770196D01*
X125860139Y-63847190D01*
X126108694Y-63881354D01*
X126142859Y-63886050D01*
X126142860Y-63886050D01*
X126428241Y-63886050D01*
X126458721Y-63881860D01*
X126710961Y-63847190D01*
X126985758Y-63770196D01*
X127247511Y-63656501D01*
X127491345Y-63508222D01*
X127712717Y-63328122D01*
X127907503Y-63119557D01*
X128072076Y-62886411D01*
X128203369Y-62633026D01*
X128298937Y-62364125D01*
X128356999Y-62084714D01*
X128376474Y-61800000D01*
X128356999Y-61515286D01*
X128298937Y-61235875D01*
X128203370Y-60966977D01*
X128203371Y-60966977D01*
X128131723Y-60828703D01*
X128072076Y-60713589D01*
X127907503Y-60480443D01*
X127907498Y-60480437D01*
X127712713Y-60271874D01*
X127491341Y-60091775D01*
X127247509Y-59943497D01*
X127247504Y-59943495D01*
X126985763Y-59829806D01*
X126985761Y-59829805D01*
X126985758Y-59829804D01*
X126857169Y-59793775D01*
X126710967Y-59752811D01*
X126710962Y-59752810D01*
X126710961Y-59752810D01*
X126569600Y-59733380D01*
X126428241Y-59713950D01*
X126428240Y-59713950D01*
X126142860Y-59713950D01*
X126142859Y-59713950D01*
X125860139Y-59752810D01*
X125860132Y-59752811D01*
X125653786Y-59810626D01*
X125585342Y-59829804D01*
X125585339Y-59829804D01*
X125585336Y-59829806D01*
X125585335Y-59829806D01*
X125323595Y-59943495D01*
X125323590Y-59943497D01*
X125079758Y-60091775D01*
X124858386Y-60271874D01*
X124663601Y-60480437D01*
X124663601Y-60480438D01*
X124499024Y-60713588D01*
X124367729Y-60966977D01*
X124272164Y-61235869D01*
X124272163Y-61235872D01*
X124214100Y-61515291D01*
X124194626Y-61800000D01*
X123286050Y-61800000D01*
X123286050Y-58924500D01*
X123305735Y-58857461D01*
X123358539Y-58811706D01*
X123410050Y-58800500D01*
X215661050Y-58800500D01*
X215728089Y-58820185D01*
G37*
%TD.AperFunction*%
%TD*%
M02*
