%TF.GenerationSoftware,KiCad,Pcbnew,8.0.5*%
%TF.CreationDate,2025-10-03T19:24:38+09:00*%
%TF.ProjectId,mai__,6d6169fa-7f2e-46b6-9963-61645f706362,rev?*%
%TF.SameCoordinates,Original*%
%TF.FileFunction,Legend,Top*%
%TF.FilePolarity,Positive*%
%FSLAX46Y46*%
G04 Gerber Fmt 4.6, Leading zero omitted, Abs format (unit mm)*
G04 Created by KiCad (PCBNEW 8.0.5) date 2025-10-03 19:24:38*
%MOMM*%
%LPD*%
G01*
G04 APERTURE LIST*
%ADD10C,0.254000*%
%ADD11C,0.150000*%
%ADD12C,0.200000*%
%ADD13C,0.100000*%
%ADD14C,0.120000*%
%ADD15C,0.000000*%
G04 APERTURE END LIST*
D10*
X206032380Y-115113842D02*
X206213809Y-115174318D01*
X206213809Y-115174318D02*
X206516190Y-115174318D01*
X206516190Y-115174318D02*
X206637142Y-115113842D01*
X206637142Y-115113842D02*
X206697618Y-115053365D01*
X206697618Y-115053365D02*
X206758095Y-114932413D01*
X206758095Y-114932413D02*
X206758095Y-114811461D01*
X206758095Y-114811461D02*
X206697618Y-114690508D01*
X206697618Y-114690508D02*
X206637142Y-114630032D01*
X206637142Y-114630032D02*
X206516190Y-114569556D01*
X206516190Y-114569556D02*
X206274285Y-114509080D01*
X206274285Y-114509080D02*
X206153333Y-114448603D01*
X206153333Y-114448603D02*
X206092856Y-114388127D01*
X206092856Y-114388127D02*
X206032380Y-114267175D01*
X206032380Y-114267175D02*
X206032380Y-114146222D01*
X206032380Y-114146222D02*
X206092856Y-114025270D01*
X206092856Y-114025270D02*
X206153333Y-113964794D01*
X206153333Y-113964794D02*
X206274285Y-113904318D01*
X206274285Y-113904318D02*
X206576666Y-113904318D01*
X206576666Y-113904318D02*
X206758095Y-113964794D01*
X207967619Y-115174318D02*
X207241904Y-115174318D01*
X207604761Y-115174318D02*
X207604761Y-113904318D01*
X207604761Y-113904318D02*
X207483809Y-114085746D01*
X207483809Y-114085746D02*
X207362857Y-114206699D01*
X207362857Y-114206699D02*
X207241904Y-114267175D01*
D11*
X169202216Y-114454819D02*
X169202216Y-115169104D01*
X169202216Y-115169104D02*
X169154597Y-115311961D01*
X169154597Y-115311961D02*
X169059359Y-115407200D01*
X169059359Y-115407200D02*
X168916502Y-115454819D01*
X168916502Y-115454819D02*
X168821264Y-115454819D01*
X170202216Y-115454819D02*
X169630788Y-115454819D01*
X169916502Y-115454819D02*
X169916502Y-114454819D01*
X169916502Y-114454819D02*
X169821264Y-114597676D01*
X169821264Y-114597676D02*
X169726026Y-114692914D01*
X169726026Y-114692914D02*
X169630788Y-114740533D01*
X158835714Y-59499104D02*
X159311904Y-59499104D01*
X158740476Y-59784819D02*
X159073809Y-58784819D01*
X159073809Y-58784819D02*
X159407142Y-59784819D01*
X160264285Y-59784819D02*
X159692857Y-59784819D01*
X159978571Y-59784819D02*
X159978571Y-58784819D01*
X159978571Y-58784819D02*
X159883333Y-58927676D01*
X159883333Y-58927676D02*
X159788095Y-59022914D01*
X159788095Y-59022914D02*
X159692857Y-59070533D01*
X211666666Y-80684819D02*
X211666666Y-81399104D01*
X211666666Y-81399104D02*
X211619047Y-81541961D01*
X211619047Y-81541961D02*
X211523809Y-81637200D01*
X211523809Y-81637200D02*
X211380952Y-81684819D01*
X211380952Y-81684819D02*
X211285714Y-81684819D01*
X212190476Y-81684819D02*
X212380952Y-81684819D01*
X212380952Y-81684819D02*
X212476190Y-81637200D01*
X212476190Y-81637200D02*
X212523809Y-81589580D01*
X212523809Y-81589580D02*
X212619047Y-81446723D01*
X212619047Y-81446723D02*
X212666666Y-81256247D01*
X212666666Y-81256247D02*
X212666666Y-80875295D01*
X212666666Y-80875295D02*
X212619047Y-80780057D01*
X212619047Y-80780057D02*
X212571428Y-80732438D01*
X212571428Y-80732438D02*
X212476190Y-80684819D01*
X212476190Y-80684819D02*
X212285714Y-80684819D01*
X212285714Y-80684819D02*
X212190476Y-80732438D01*
X212190476Y-80732438D02*
X212142857Y-80780057D01*
X212142857Y-80780057D02*
X212095238Y-80875295D01*
X212095238Y-80875295D02*
X212095238Y-81113390D01*
X212095238Y-81113390D02*
X212142857Y-81208628D01*
X212142857Y-81208628D02*
X212190476Y-81256247D01*
X212190476Y-81256247D02*
X212285714Y-81303866D01*
X212285714Y-81303866D02*
X212476190Y-81303866D01*
X212476190Y-81303866D02*
X212571428Y-81256247D01*
X212571428Y-81256247D02*
X212619047Y-81208628D01*
X212619047Y-81208628D02*
X212666666Y-81113390D01*
X207166666Y-71924819D02*
X207166666Y-72639104D01*
X207166666Y-72639104D02*
X207119047Y-72781961D01*
X207119047Y-72781961D02*
X207023809Y-72877200D01*
X207023809Y-72877200D02*
X206880952Y-72924819D01*
X206880952Y-72924819D02*
X206785714Y-72924819D01*
X207547619Y-71924819D02*
X208166666Y-71924819D01*
X208166666Y-71924819D02*
X207833333Y-72305771D01*
X207833333Y-72305771D02*
X207976190Y-72305771D01*
X207976190Y-72305771D02*
X208071428Y-72353390D01*
X208071428Y-72353390D02*
X208119047Y-72401009D01*
X208119047Y-72401009D02*
X208166666Y-72496247D01*
X208166666Y-72496247D02*
X208166666Y-72734342D01*
X208166666Y-72734342D02*
X208119047Y-72829580D01*
X208119047Y-72829580D02*
X208071428Y-72877200D01*
X208071428Y-72877200D02*
X207976190Y-72924819D01*
X207976190Y-72924819D02*
X207690476Y-72924819D01*
X207690476Y-72924819D02*
X207595238Y-72877200D01*
X207595238Y-72877200D02*
X207547619Y-72829580D01*
X148436666Y-116584819D02*
X148436666Y-117299104D01*
X148436666Y-117299104D02*
X148389047Y-117441961D01*
X148389047Y-117441961D02*
X148293809Y-117537200D01*
X148293809Y-117537200D02*
X148150952Y-117584819D01*
X148150952Y-117584819D02*
X148055714Y-117584819D01*
X149341428Y-116918152D02*
X149341428Y-117584819D01*
X149103333Y-116537200D02*
X148865238Y-117251485D01*
X148865238Y-117251485D02*
X149484285Y-117251485D01*
X133416666Y-116584819D02*
X133416666Y-117299104D01*
X133416666Y-117299104D02*
X133369047Y-117441961D01*
X133369047Y-117441961D02*
X133273809Y-117537200D01*
X133273809Y-117537200D02*
X133130952Y-117584819D01*
X133130952Y-117584819D02*
X133035714Y-117584819D01*
X133845238Y-116680057D02*
X133892857Y-116632438D01*
X133892857Y-116632438D02*
X133988095Y-116584819D01*
X133988095Y-116584819D02*
X134226190Y-116584819D01*
X134226190Y-116584819D02*
X134321428Y-116632438D01*
X134321428Y-116632438D02*
X134369047Y-116680057D01*
X134369047Y-116680057D02*
X134416666Y-116775295D01*
X134416666Y-116775295D02*
X134416666Y-116870533D01*
X134416666Y-116870533D02*
X134369047Y-117013390D01*
X134369047Y-117013390D02*
X133797619Y-117584819D01*
X133797619Y-117584819D02*
X134416666Y-117584819D01*
X207166666Y-63904819D02*
X207166666Y-64619104D01*
X207166666Y-64619104D02*
X207119047Y-64761961D01*
X207119047Y-64761961D02*
X207023809Y-64857200D01*
X207023809Y-64857200D02*
X206880952Y-64904819D01*
X206880952Y-64904819D02*
X206785714Y-64904819D01*
X208119047Y-63904819D02*
X207642857Y-63904819D01*
X207642857Y-63904819D02*
X207595238Y-64381009D01*
X207595238Y-64381009D02*
X207642857Y-64333390D01*
X207642857Y-64333390D02*
X207738095Y-64285771D01*
X207738095Y-64285771D02*
X207976190Y-64285771D01*
X207976190Y-64285771D02*
X208071428Y-64333390D01*
X208071428Y-64333390D02*
X208119047Y-64381009D01*
X208119047Y-64381009D02*
X208166666Y-64476247D01*
X208166666Y-64476247D02*
X208166666Y-64714342D01*
X208166666Y-64714342D02*
X208119047Y-64809580D01*
X208119047Y-64809580D02*
X208071428Y-64857200D01*
X208071428Y-64857200D02*
X207976190Y-64904819D01*
X207976190Y-64904819D02*
X207738095Y-64904819D01*
X207738095Y-64904819D02*
X207642857Y-64857200D01*
X207642857Y-64857200D02*
X207595238Y-64809580D01*
D12*
%TO.C,S1*%
X199250000Y-112000000D02*
X199250000Y-112000000D01*
X199250000Y-112200000D02*
X199250000Y-112200000D01*
D13*
X201000000Y-108600000D02*
X213000000Y-108600000D01*
X201000000Y-110600000D02*
X201000000Y-108600000D01*
X201000000Y-118600000D02*
X201000000Y-120600000D01*
X201000000Y-120600000D02*
X213000000Y-120600000D01*
X213000000Y-108600000D02*
X213000000Y-110600000D01*
X213000000Y-120600000D02*
X213000000Y-118600000D01*
D12*
X199250000Y-112000000D02*
G75*
G02*
X199250000Y-112200000I0J-100000D01*
G01*
X199250000Y-112200000D02*
G75*
G02*
X199250000Y-112000000I0J100000D01*
G01*
D14*
%TO.C,J1*%
X159245550Y-116170000D02*
X179825550Y-116170000D01*
X159245550Y-125290000D02*
X159245550Y-116170000D01*
X160545550Y-117480000D02*
X178525550Y-117480000D01*
X160545550Y-123980000D02*
X160545550Y-117480000D01*
X163955550Y-126680000D02*
X164955550Y-126680000D01*
X164455550Y-125680000D02*
X163955550Y-126680000D01*
X164955550Y-126680000D02*
X164455550Y-125680000D01*
X167485550Y-123980000D02*
X160545550Y-123980000D01*
X167485550Y-125290000D02*
X167485550Y-123980000D01*
X171585550Y-123980000D02*
X171585550Y-123980000D01*
X171585550Y-123980000D02*
X171585550Y-125290000D01*
X178525550Y-117480000D02*
X178525550Y-123980000D01*
X178525550Y-123980000D02*
X171585550Y-123980000D01*
X179825550Y-116170000D02*
X179825550Y-125290000D01*
X179825550Y-125290000D02*
X159245550Y-125290000D01*
%TO.C,A1*%
X123860000Y-92860000D02*
X123860000Y-104540000D01*
X123860000Y-104540000D02*
X130210000Y-104540000D01*
X128310000Y-63650000D02*
X128310000Y-72790000D01*
X128310000Y-72790000D02*
X130210000Y-72790000D01*
X130210000Y-60470000D02*
X130210000Y-63650000D01*
X130210000Y-63650000D02*
X128310000Y-63650000D01*
X130210000Y-72790000D02*
X130210000Y-92860000D01*
X130210000Y-92860000D02*
X123860000Y-92860000D01*
X130210000Y-104540000D02*
X130210000Y-114070000D01*
X130210000Y-114070000D02*
X194860000Y-114070000D01*
X194860000Y-114070000D02*
X196510000Y-112420000D01*
X196510000Y-60470000D02*
X130210000Y-60470000D01*
X196510000Y-63140000D02*
X196510000Y-60470000D01*
X196510000Y-100990000D02*
X199050000Y-98450000D01*
X196510000Y-112420000D02*
X196510000Y-100990000D01*
X199050000Y-65680000D02*
X196510000Y-63140000D01*
X199050000Y-98450000D02*
X199050000Y-65680000D01*
D15*
%TO.C,G\u002A\u002A\u002A*%
G36*
X184324460Y-120072763D02*
G01*
X184318863Y-120078360D01*
X184313266Y-120072763D01*
X184318863Y-120067166D01*
X184324460Y-120072763D01*
G37*
G36*
X185083174Y-119118655D02*
G01*
X185079489Y-119127796D01*
X185065905Y-119133067D01*
X185061263Y-119131185D01*
X185045796Y-119131924D01*
X185042334Y-119135712D01*
X185027031Y-119146219D01*
X185001607Y-119154454D01*
X184985126Y-119157005D01*
X184985526Y-119153373D01*
X185004098Y-119142001D01*
X185018511Y-119134061D01*
X185053348Y-119117684D01*
X185075748Y-119112462D01*
X185083174Y-119118655D01*
G37*
G36*
X186256897Y-118830972D02*
G01*
X186415633Y-118853161D01*
X186557735Y-118891528D01*
X186607737Y-118909924D01*
X186656486Y-118929979D01*
X186699577Y-118949627D01*
X186732604Y-118966802D01*
X186751161Y-118979440D01*
X186753636Y-118983371D01*
X186762783Y-118991381D01*
X186771209Y-118992507D01*
X186795433Y-119000335D01*
X186831898Y-119022344D01*
X186877598Y-119056326D01*
X186929525Y-119100070D01*
X186975924Y-119142905D01*
X187016794Y-119184082D01*
X187055021Y-119226044D01*
X187087464Y-119264968D01*
X187110982Y-119297033D01*
X187122434Y-119318414D01*
X187123050Y-119321959D01*
X187112328Y-119323612D01*
X187082052Y-119325106D01*
X187035057Y-119326383D01*
X186974176Y-119327385D01*
X186902244Y-119328054D01*
X186822096Y-119328333D01*
X186810085Y-119328338D01*
X186497120Y-119328338D01*
X186465859Y-119287174D01*
X186386196Y-119198559D01*
X186294054Y-119126696D01*
X186188285Y-119070993D01*
X186067739Y-119030861D01*
X185931269Y-119005709D01*
X185914001Y-119003695D01*
X185809910Y-118996677D01*
X185702093Y-118998678D01*
X185586518Y-119010092D01*
X185459151Y-119031313D01*
X185320758Y-119061583D01*
X185267160Y-119074398D01*
X185221225Y-119085367D01*
X185187463Y-119093414D01*
X185170386Y-119097464D01*
X185169634Y-119097639D01*
X185150779Y-119103038D01*
X185133353Y-119108656D01*
X185106381Y-119114858D01*
X185096760Y-119111003D01*
X185103392Y-119099719D01*
X185125183Y-119083636D01*
X185149133Y-119070805D01*
X185183925Y-119055497D01*
X185210661Y-119046165D01*
X185222893Y-119044756D01*
X185236442Y-119041996D01*
X185248880Y-119032401D01*
X185272197Y-119018012D01*
X185287042Y-119014896D01*
X185306242Y-119010042D01*
X185311430Y-119004504D01*
X185323460Y-118996508D01*
X185353205Y-118983834D01*
X185396788Y-118967737D01*
X185450336Y-118949471D01*
X185509974Y-118930287D01*
X185571825Y-118911440D01*
X185632015Y-118894183D01*
X185686670Y-118879770D01*
X185723755Y-118871139D01*
X185909349Y-118839922D01*
X186087599Y-118826546D01*
X186256897Y-118830972D01*
G37*
G36*
X185015137Y-119448677D02*
G01*
X185009794Y-119484990D01*
X185004522Y-119516680D01*
X185004158Y-119518642D01*
X184981067Y-119640989D01*
X184961305Y-119743448D01*
X184944235Y-119828166D01*
X184929219Y-119897289D01*
X184915617Y-119952962D01*
X184902791Y-119997333D01*
X184890102Y-120032548D01*
X184876912Y-120060752D01*
X184862582Y-120084093D01*
X184846473Y-120104717D01*
X184827947Y-120124769D01*
X184822008Y-120130806D01*
X184787918Y-120163766D01*
X184763363Y-120182856D01*
X184743185Y-120191098D01*
X184722226Y-120191517D01*
X184719061Y-120191139D01*
X184706140Y-120195890D01*
X184705068Y-120199737D01*
X184694775Y-120209895D01*
X184667419Y-120218196D01*
X184628285Y-120224131D01*
X184582659Y-120227193D01*
X184535825Y-120226871D01*
X184493069Y-120222659D01*
X184483980Y-120221008D01*
X184455041Y-120212824D01*
X184438172Y-120203555D01*
X184436404Y-120200179D01*
X184429735Y-120193659D01*
X184426735Y-120194958D01*
X184415219Y-120190693D01*
X184393762Y-120175545D01*
X184368207Y-120154509D01*
X184344397Y-120132579D01*
X184328175Y-120114752D01*
X184324460Y-120107523D01*
X184334417Y-120076127D01*
X184361369Y-120043560D01*
X184395542Y-120018369D01*
X184434600Y-119997665D01*
X184461511Y-119990790D01*
X184481898Y-119997951D01*
X184501385Y-120019359D01*
X184503570Y-120022388D01*
X184521850Y-120043543D01*
X184542765Y-120053373D01*
X184575612Y-120055955D01*
X184580202Y-120055971D01*
X184614662Y-120053795D01*
X184642614Y-120045654D01*
X184665430Y-120029128D01*
X184684484Y-120001796D01*
X184701147Y-119961239D01*
X184716793Y-119905036D01*
X184732793Y-119830769D01*
X184745273Y-119764918D01*
X184750340Y-119738283D01*
X184758443Y-119696785D01*
X184768528Y-119645708D01*
X184779541Y-119590336D01*
X184790427Y-119535954D01*
X184800132Y-119487846D01*
X184807602Y-119451297D01*
X184811715Y-119431886D01*
X184815803Y-119419971D01*
X184824488Y-119412556D01*
X184842297Y-119408581D01*
X184873760Y-119406982D01*
X184919150Y-119406699D01*
X185020862Y-119406699D01*
X185015137Y-119448677D01*
G37*
G36*
X186350639Y-119434264D02*
G01*
X186346606Y-119455498D01*
X186338691Y-119462670D01*
X186331467Y-119471252D01*
X186332783Y-119482261D01*
X186333539Y-119502871D01*
X186329558Y-119537361D01*
X186322467Y-119574614D01*
X186312833Y-119620508D01*
X186304647Y-119664791D01*
X186300573Y-119691380D01*
X186294082Y-119721403D01*
X186284889Y-119740950D01*
X186282459Y-119743156D01*
X186275279Y-119758972D01*
X186277432Y-119774715D01*
X186278873Y-119794239D01*
X186271835Y-119798501D01*
X186263831Y-119806646D01*
X186265520Y-119816303D01*
X186267655Y-119838283D01*
X186265007Y-119845987D01*
X186258809Y-119864996D01*
X186254544Y-119892553D01*
X186248515Y-119943245D01*
X186241420Y-119974542D01*
X186236795Y-119983243D01*
X186234033Y-119997652D01*
X186236006Y-120017054D01*
X186241306Y-120044777D01*
X186393923Y-120044948D01*
X186451135Y-120045702D01*
X186500954Y-120047645D01*
X186538755Y-120050504D01*
X186559912Y-120054005D01*
X186562009Y-120054917D01*
X186569371Y-120062543D01*
X186572419Y-120076208D01*
X186570970Y-120100067D01*
X186564843Y-120138274D01*
X186556463Y-120181908D01*
X186550359Y-120212692D01*
X186271389Y-120212692D01*
X186185356Y-120212646D01*
X186119122Y-120212363D01*
X186070098Y-120211622D01*
X186035697Y-120210206D01*
X186013329Y-120207895D01*
X186000404Y-120204471D01*
X185994335Y-120199714D01*
X185992531Y-120193407D01*
X185992420Y-120189107D01*
X185995112Y-120162133D01*
X186002087Y-120125936D01*
X186011696Y-120086635D01*
X186022287Y-120050351D01*
X186032211Y-120023202D01*
X186039817Y-120011309D01*
X186040401Y-120011194D01*
X186044998Y-120004880D01*
X186040411Y-119997201D01*
X186037348Y-119978188D01*
X186041087Y-119938515D01*
X186051557Y-119878826D01*
X186055381Y-119860070D01*
X186068946Y-119793383D01*
X186084001Y-119716739D01*
X186098188Y-119642239D01*
X186104470Y-119608197D01*
X186114593Y-119553622D01*
X186124150Y-119504097D01*
X186131970Y-119465577D01*
X186136390Y-119445879D01*
X186144914Y-119412296D01*
X186247777Y-119409077D01*
X186350639Y-119405858D01*
X186350639Y-119434264D01*
G37*
G36*
X189512999Y-119317506D02*
G01*
X189567963Y-119319063D01*
X189606382Y-119322526D01*
X189631173Y-119328600D01*
X189645257Y-119337996D01*
X189651551Y-119351422D01*
X189652975Y-119369180D01*
X189650172Y-119389347D01*
X189642550Y-119426309D01*
X189631292Y-119475410D01*
X189617577Y-119531993D01*
X189602588Y-119591401D01*
X189587506Y-119648977D01*
X189573512Y-119700065D01*
X189561788Y-119740009D01*
X189553515Y-119764150D01*
X189551910Y-119767565D01*
X189542873Y-119794922D01*
X189541003Y-119812342D01*
X189538127Y-119833837D01*
X189530426Y-119870696D01*
X189519254Y-119916762D01*
X189512056Y-119944028D01*
X189495916Y-120004408D01*
X189479529Y-120067495D01*
X189463900Y-120129211D01*
X189450036Y-120185475D01*
X189438943Y-120232208D01*
X189431626Y-120265328D01*
X189429088Y-120280572D01*
X189439924Y-120283736D01*
X189471004Y-120286433D01*
X189520186Y-120288584D01*
X189585331Y-120290109D01*
X189664295Y-120290930D01*
X189712809Y-120291053D01*
X189800013Y-120291136D01*
X189867584Y-120291520D01*
X189918276Y-120292408D01*
X189954847Y-120294004D01*
X189980050Y-120296510D01*
X189996641Y-120300130D01*
X190007375Y-120305068D01*
X190015008Y-120311525D01*
X190016819Y-120313472D01*
X190028912Y-120330297D01*
X190031232Y-120348682D01*
X190024577Y-120377653D01*
X190022963Y-120383107D01*
X190012812Y-120419490D01*
X190005090Y-120451481D01*
X190003824Y-120457854D01*
X189997364Y-120483488D01*
X189992020Y-120496407D01*
X189986163Y-120515006D01*
X189982704Y-120539262D01*
X189981584Y-120554628D01*
X189979575Y-120567372D01*
X189974744Y-120577740D01*
X189965163Y-120585976D01*
X189948900Y-120592326D01*
X189924026Y-120597033D01*
X189888610Y-120600343D01*
X189840721Y-120602500D01*
X189778429Y-120603749D01*
X189699805Y-120604335D01*
X189602916Y-120604503D01*
X189485834Y-120604496D01*
X189468138Y-120604495D01*
X189350935Y-120604447D01*
X189254056Y-120604248D01*
X189175434Y-120603813D01*
X189113004Y-120603060D01*
X189064701Y-120601903D01*
X189028458Y-120600260D01*
X189002210Y-120598046D01*
X188983892Y-120595177D01*
X188971438Y-120591571D01*
X188962783Y-120587142D01*
X188958239Y-120583802D01*
X188932685Y-120563110D01*
X189025849Y-120194798D01*
X189048591Y-120105061D01*
X189070178Y-120020208D01*
X189089847Y-119943210D01*
X189106838Y-119877036D01*
X189120387Y-119824657D01*
X189129732Y-119789044D01*
X189133243Y-119776112D01*
X189141020Y-119747296D01*
X189152792Y-119702080D01*
X189167188Y-119645802D01*
X189182837Y-119583798D01*
X189189332Y-119557822D01*
X189204667Y-119496522D01*
X189218858Y-119440196D01*
X189230675Y-119393693D01*
X189238891Y-119361859D01*
X189241110Y-119353525D01*
X189251031Y-119317144D01*
X189438570Y-119317144D01*
X189512999Y-119317506D01*
G37*
G36*
X187234373Y-119391507D02*
G01*
X187249766Y-119394250D01*
X187316586Y-119413712D01*
X187376391Y-119442082D01*
X187422184Y-119475902D01*
X187428747Y-119482686D01*
X187438863Y-119495561D01*
X187439933Y-119506918D01*
X187429676Y-119521865D01*
X187405812Y-119545508D01*
X187396990Y-119553811D01*
X187360547Y-119587151D01*
X187335460Y-119606434D01*
X187317227Y-119613403D01*
X187301344Y-119609804D01*
X187283716Y-119597703D01*
X187229599Y-119567433D01*
X187172540Y-119556785D01*
X187114906Y-119563631D01*
X187059064Y-119585845D01*
X187007383Y-119621297D01*
X186962228Y-119667860D01*
X186925969Y-119723407D01*
X186900972Y-119785810D01*
X186889604Y-119852940D01*
X186894234Y-119922671D01*
X186899012Y-119943466D01*
X186922851Y-119997340D01*
X186961683Y-120034849D01*
X187011683Y-120056127D01*
X187070227Y-120061453D01*
X187132412Y-120049474D01*
X187189985Y-120021851D01*
X187193412Y-120019525D01*
X187219428Y-120006491D01*
X187240460Y-120004062D01*
X187241569Y-120004423D01*
X187252793Y-120004987D01*
X187251706Y-119999871D01*
X187252112Y-119989623D01*
X187255672Y-119988805D01*
X187267435Y-119997237D01*
X187287091Y-120019146D01*
X187306362Y-120044323D01*
X187328264Y-120075729D01*
X187336968Y-120095745D01*
X187331990Y-120111408D01*
X187312846Y-120129756D01*
X187299750Y-120140543D01*
X187268868Y-120160218D01*
X187224262Y-120181936D01*
X187173933Y-120202331D01*
X187125883Y-120218040D01*
X187101932Y-120223730D01*
X187065659Y-120230145D01*
X187038383Y-120232933D01*
X187011339Y-120232088D01*
X186975764Y-120227604D01*
X186949537Y-120223606D01*
X186904926Y-120214171D01*
X186863529Y-120201101D01*
X186830758Y-120186580D01*
X186812025Y-120172794D01*
X186809608Y-120167104D01*
X186803608Y-120159727D01*
X186800782Y-120160854D01*
X186786864Y-120157479D01*
X186765681Y-120139349D01*
X186741186Y-120111085D01*
X186729936Y-120095152D01*
X187324548Y-120095152D01*
X187330146Y-120100749D01*
X187335743Y-120095152D01*
X187330146Y-120089555D01*
X187324548Y-120095152D01*
X186729936Y-120095152D01*
X186717335Y-120077306D01*
X186698082Y-120042632D01*
X186696394Y-120038916D01*
X186680849Y-119982466D01*
X186676054Y-119913216D01*
X186681166Y-119837517D01*
X186689507Y-119792904D01*
X186865580Y-119792904D01*
X186871177Y-119798501D01*
X186876774Y-119792904D01*
X186871177Y-119787307D01*
X186865580Y-119792904D01*
X186689507Y-119792904D01*
X186695337Y-119761720D01*
X186717723Y-119692175D01*
X186747479Y-119635235D01*
X186750749Y-119630586D01*
X186786986Y-119586804D01*
X186804519Y-119569017D01*
X187022301Y-119569017D01*
X187027898Y-119574614D01*
X187033495Y-119569017D01*
X187027898Y-119563420D01*
X187022301Y-119569017D01*
X186804519Y-119569017D01*
X186832882Y-119540242D01*
X186882564Y-119496131D01*
X186930163Y-119459703D01*
X186967933Y-119437059D01*
X187058032Y-119403946D01*
X187148613Y-119388494D01*
X187234373Y-119391507D01*
G37*
G36*
X188715428Y-119317226D02*
G01*
X188783108Y-119317601D01*
X188833719Y-119318463D01*
X188869921Y-119320005D01*
X188894375Y-119322421D01*
X188909741Y-119325902D01*
X188918679Y-119330644D01*
X188923848Y-119336839D01*
X188924908Y-119338722D01*
X188932112Y-119362584D01*
X188931222Y-119375103D01*
X188925280Y-119397388D01*
X188921171Y-119417893D01*
X188913981Y-119453210D01*
X188903119Y-119499235D01*
X188890272Y-119549585D01*
X188877129Y-119597876D01*
X188865375Y-119637724D01*
X188856698Y-119662746D01*
X188856073Y-119664169D01*
X188845235Y-119696769D01*
X188841135Y-119720141D01*
X188837041Y-119746743D01*
X188829157Y-119781929D01*
X188819474Y-119818292D01*
X188809981Y-119848430D01*
X188802669Y-119864938D01*
X188802015Y-119865667D01*
X188796850Y-119879975D01*
X188794594Y-119899250D01*
X188790502Y-119930292D01*
X188781895Y-119971883D01*
X188771267Y-120013310D01*
X188761112Y-120043858D01*
X188760718Y-120044777D01*
X188752735Y-120071592D01*
X188751412Y-120079878D01*
X188745614Y-120111903D01*
X188735279Y-120151926D01*
X188722532Y-120193294D01*
X188709501Y-120229356D01*
X188698311Y-120253460D01*
X188694193Y-120258851D01*
X188681729Y-120279691D01*
X188679066Y-120295530D01*
X188669978Y-120328469D01*
X188642445Y-120372339D01*
X188631759Y-120386205D01*
X188619273Y-120402380D01*
X188600892Y-120426659D01*
X188599236Y-120428864D01*
X188579158Y-120448739D01*
X188561705Y-120454827D01*
X188560177Y-120454403D01*
X188547191Y-120457476D01*
X188544734Y-120468622D01*
X188535562Y-120487523D01*
X188513949Y-120504170D01*
X188485479Y-120520243D01*
X188465593Y-120533956D01*
X188446512Y-120544972D01*
X188415996Y-120558201D01*
X188380630Y-120571338D01*
X188347001Y-120582079D01*
X188321695Y-120588118D01*
X188311644Y-120587830D01*
X188299830Y-120589307D01*
X188289372Y-120596196D01*
X188271330Y-120601936D01*
X188235155Y-120606573D01*
X188185076Y-120610073D01*
X188125322Y-120612400D01*
X188060123Y-120613517D01*
X187993710Y-120613390D01*
X187930311Y-120611983D01*
X187874157Y-120609260D01*
X187829476Y-120605186D01*
X187802426Y-120600295D01*
X187769643Y-120590566D01*
X187747650Y-120580376D01*
X187735453Y-120565888D01*
X187732057Y-120543262D01*
X187736468Y-120508660D01*
X187747693Y-120458242D01*
X187756382Y-120422498D01*
X187789874Y-120285456D01*
X187836013Y-120282065D01*
X187877918Y-120284331D01*
X187919408Y-120294352D01*
X187923756Y-120296058D01*
X187963513Y-120306403D01*
X188016536Y-120312064D01*
X188074164Y-120312881D01*
X188127737Y-120308692D01*
X188165253Y-120300535D01*
X188197502Y-120287690D01*
X188225355Y-120271317D01*
X188249878Y-120249245D01*
X188272136Y-120219304D01*
X188293194Y-120179324D01*
X188314118Y-120127134D01*
X188335972Y-120060565D01*
X188359823Y-119977447D01*
X188386735Y-119875609D01*
X188400686Y-119820890D01*
X188414317Y-119766934D01*
X188423604Y-119729710D01*
X188429690Y-119704242D01*
X188433719Y-119685556D01*
X188436835Y-119668677D01*
X188439925Y-119650176D01*
X188446846Y-119608197D01*
X188367715Y-119608197D01*
X188327659Y-119606751D01*
X188297012Y-119602947D01*
X188282070Y-119597589D01*
X188281808Y-119597233D01*
X188280690Y-119579896D01*
X188286172Y-119547059D01*
X188297143Y-119504239D01*
X188306626Y-119473865D01*
X188311514Y-119451763D01*
X188316011Y-119420035D01*
X188316428Y-119416123D01*
X188322462Y-119379446D01*
X188331282Y-119347141D01*
X188331650Y-119346158D01*
X188342681Y-119317144D01*
X188628020Y-119317144D01*
X188715428Y-119317226D01*
G37*
G36*
X193972935Y-119300176D02*
G01*
X194047032Y-119302986D01*
X194111149Y-119308299D01*
X194158364Y-119315820D01*
X194199830Y-119326743D01*
X194247698Y-119341696D01*
X194296877Y-119358783D01*
X194342274Y-119376109D01*
X194378797Y-119391779D01*
X194401352Y-119403899D01*
X194405694Y-119407854D01*
X194404979Y-119421493D01*
X194399090Y-119451866D01*
X194389273Y-119494258D01*
X194376774Y-119543954D01*
X194362839Y-119596240D01*
X194348713Y-119646400D01*
X194335643Y-119689719D01*
X194324875Y-119721483D01*
X194319473Y-119734134D01*
X194298773Y-119752070D01*
X194266512Y-119752556D01*
X194224633Y-119735996D01*
X194177349Y-119704562D01*
X194112566Y-119658360D01*
X194055256Y-119625518D01*
X194013178Y-119609138D01*
X193992715Y-119606660D01*
X193955954Y-119604806D01*
X193908982Y-119603819D01*
X193878845Y-119603743D01*
X193824668Y-119604650D01*
X193785664Y-119607692D01*
X193754634Y-119614216D01*
X193724378Y-119625565D01*
X193699541Y-119637229D01*
X193620509Y-119688002D01*
X193555577Y-119755110D01*
X193505857Y-119836654D01*
X193472465Y-119930730D01*
X193456512Y-120035437D01*
X193455628Y-120053764D01*
X193458575Y-120137548D01*
X193474583Y-120203656D01*
X193504937Y-120253449D01*
X193550919Y-120288292D01*
X193613815Y-120309547D01*
X193694908Y-120318578D01*
X193705304Y-120318891D01*
X193750968Y-120318872D01*
X193789156Y-120316890D01*
X193813457Y-120313342D01*
X193817277Y-120311929D01*
X193837796Y-120303818D01*
X193872393Y-120292926D01*
X193913341Y-120281559D01*
X193946012Y-120273549D01*
X193960840Y-120266662D01*
X193988340Y-120251381D01*
X194022338Y-120231398D01*
X194056661Y-120210407D01*
X194085134Y-120192100D01*
X194100294Y-120181269D01*
X194123582Y-120172924D01*
X194155238Y-120172829D01*
X194184875Y-120179920D01*
X194201263Y-120191610D01*
X194204204Y-120208052D01*
X194200583Y-120239451D01*
X194190036Y-120287938D01*
X194175064Y-120345244D01*
X194160327Y-120396692D01*
X194146894Y-120439230D01*
X194136148Y-120468767D01*
X194129474Y-120481207D01*
X194129020Y-120481357D01*
X194124376Y-120489526D01*
X194126086Y-120496624D01*
X194121084Y-120508548D01*
X194096817Y-120523179D01*
X194055769Y-120539957D01*
X193982517Y-120565379D01*
X193909332Y-120588022D01*
X193844716Y-120605321D01*
X193822874Y-120610232D01*
X193777044Y-120616507D01*
X193716041Y-120620433D01*
X193646960Y-120621996D01*
X193576895Y-120621186D01*
X193512938Y-120617991D01*
X193462185Y-120612399D01*
X193453460Y-120610839D01*
X193367767Y-120590455D01*
X193297108Y-120565245D01*
X193234230Y-120532519D01*
X193222246Y-120525024D01*
X193173766Y-120488863D01*
X193130580Y-120447353D01*
X193095958Y-120404630D01*
X193073174Y-120364832D01*
X193065500Y-120332098D01*
X193065950Y-120327435D01*
X193061715Y-120314542D01*
X193057880Y-120313442D01*
X193046364Y-120302989D01*
X193037257Y-120274338D01*
X193030569Y-120231553D01*
X193026312Y-120178694D01*
X193024497Y-120119825D01*
X193025133Y-120059007D01*
X193028232Y-120000303D01*
X193033805Y-119947776D01*
X193041862Y-119905488D01*
X193052414Y-119877500D01*
X193056709Y-119871824D01*
X193065823Y-119852274D01*
X193067254Y-119840412D01*
X193073002Y-119814440D01*
X193088416Y-119777429D01*
X193110751Y-119733863D01*
X193137262Y-119688224D01*
X193165204Y-119644997D01*
X193191833Y-119608664D01*
X193214403Y-119583710D01*
X193229981Y-119574614D01*
X193244074Y-119565755D01*
X193256880Y-119547897D01*
X193272373Y-119528987D01*
X193300087Y-119503399D01*
X193334704Y-119475186D01*
X193370908Y-119448398D01*
X193403382Y-119427086D01*
X193426810Y-119415301D01*
X193432396Y-119414162D01*
X193446440Y-119409035D01*
X193447863Y-119405357D01*
X193457314Y-119395585D01*
X193480619Y-119382559D01*
X193510203Y-119369509D01*
X193538490Y-119359668D01*
X193557906Y-119356267D01*
X193561023Y-119357076D01*
X193570469Y-119355869D01*
X193571001Y-119352863D01*
X193580870Y-119344614D01*
X193606680Y-119333160D01*
X193640965Y-119321572D01*
X193684298Y-119312766D01*
X193744539Y-119306163D01*
X193816311Y-119301824D01*
X193894235Y-119299808D01*
X193972935Y-119300176D01*
G37*
G36*
X191225485Y-119295696D02*
G01*
X191260239Y-119297686D01*
X191278234Y-119300933D01*
X191279318Y-119301647D01*
X191294042Y-119306916D01*
X191321709Y-119311208D01*
X191328759Y-119311840D01*
X191361591Y-119317560D01*
X191408080Y-119329569D01*
X191461174Y-119345645D01*
X191513823Y-119363567D01*
X191558975Y-119381111D01*
X191581203Y-119391384D01*
X191603833Y-119407440D01*
X191610906Y-119427921D01*
X191603910Y-119459146D01*
X191599764Y-119470337D01*
X191589084Y-119501306D01*
X191582838Y-119524239D01*
X191578059Y-119544731D01*
X191569250Y-119580626D01*
X191557960Y-119625647D01*
X191552441Y-119647377D01*
X191526745Y-119748127D01*
X191487672Y-119751466D01*
X191464056Y-119750713D01*
X191439517Y-119742471D01*
X191408463Y-119724184D01*
X191373000Y-119699000D01*
X191311135Y-119656630D01*
X191256695Y-119628363D01*
X191202126Y-119611666D01*
X191139875Y-119604005D01*
X191085853Y-119602660D01*
X191031954Y-119603539D01*
X190992508Y-119607066D01*
X190959608Y-119614689D01*
X190925352Y-119627854D01*
X190909717Y-119634895D01*
X190831611Y-119682850D01*
X190766147Y-119747541D01*
X190714836Y-119826281D01*
X190679189Y-119916379D01*
X190660717Y-120015148D01*
X190658610Y-120081815D01*
X190667215Y-120158416D01*
X190687802Y-120221072D01*
X190713840Y-120260783D01*
X190754221Y-120290276D01*
X190810619Y-120309953D01*
X190878530Y-120318942D01*
X190953445Y-120316368D01*
X190980784Y-120312523D01*
X191021970Y-120305611D01*
X191055720Y-120300036D01*
X191074659Y-120297015D01*
X191093209Y-120291301D01*
X191124725Y-120278904D01*
X191157211Y-120264808D01*
X191192664Y-120249425D01*
X191220139Y-120238684D01*
X191232773Y-120235081D01*
X191242391Y-120226624D01*
X191242574Y-120224611D01*
X191252039Y-120214384D01*
X191275433Y-120202397D01*
X191281754Y-120199974D01*
X191307183Y-120188807D01*
X191320405Y-120179149D01*
X191320935Y-120177615D01*
X191330158Y-120168160D01*
X191344125Y-120162063D01*
X191370302Y-120163848D01*
X191395192Y-120179806D01*
X191409590Y-120203229D01*
X191410489Y-120210446D01*
X191407472Y-120230271D01*
X191399411Y-120265409D01*
X191387798Y-120310569D01*
X191374119Y-120360462D01*
X191359866Y-120409799D01*
X191346525Y-120453290D01*
X191335588Y-120485645D01*
X191328542Y-120501575D01*
X191328528Y-120501594D01*
X191308782Y-120516761D01*
X191275893Y-120533237D01*
X191238494Y-120547125D01*
X191214080Y-120553252D01*
X191182609Y-120562629D01*
X191164964Y-120570510D01*
X191142251Y-120577691D01*
X191129873Y-120576041D01*
X191113868Y-120576345D01*
X191085827Y-120585011D01*
X191067688Y-120592771D01*
X191035123Y-120605048D01*
X190994906Y-120613803D01*
X190941710Y-120619951D01*
X190889104Y-120623455D01*
X190835827Y-120625478D01*
X190794323Y-120625402D01*
X190768334Y-120623322D01*
X190761224Y-120620200D01*
X190751237Y-120615001D01*
X190725809Y-120613089D01*
X190708050Y-120613716D01*
X190642092Y-120609588D01*
X190568121Y-120590872D01*
X190492293Y-120560315D01*
X190420762Y-120520667D01*
X190359681Y-120474675D01*
X190330587Y-120445152D01*
X190300534Y-120404986D01*
X190275061Y-120361737D01*
X190256990Y-120321221D01*
X190249142Y-120289254D01*
X190249825Y-120278689D01*
X190248464Y-120259985D01*
X190242289Y-120254287D01*
X190233899Y-120240698D01*
X190228229Y-120209473D01*
X190225246Y-120165196D01*
X190224917Y-120112450D01*
X190227210Y-120055819D01*
X190232092Y-119999887D01*
X190239532Y-119949237D01*
X190244620Y-119925617D01*
X190259934Y-119871542D01*
X190278423Y-119817518D01*
X190298254Y-119767780D01*
X190317594Y-119726560D01*
X190334606Y-119698094D01*
X190347457Y-119686616D01*
X190348189Y-119686558D01*
X190356368Y-119682220D01*
X190354542Y-119679148D01*
X190356055Y-119666586D01*
X190368474Y-119643461D01*
X190376669Y-119631572D01*
X190456755Y-119540661D01*
X190553713Y-119460956D01*
X190663960Y-119394560D01*
X190753917Y-119356324D01*
X191432878Y-119356324D01*
X191438475Y-119361921D01*
X191444072Y-119356324D01*
X191438475Y-119350727D01*
X191432878Y-119356324D01*
X190753917Y-119356324D01*
X190783914Y-119343574D01*
X190909992Y-119310100D01*
X190930693Y-119306478D01*
X190966370Y-119302305D01*
X191013756Y-119298994D01*
X191068105Y-119296613D01*
X191124672Y-119295225D01*
X191178714Y-119294898D01*
X191225485Y-119295696D01*
G37*
G36*
X192423921Y-119319308D02*
G01*
X192504523Y-119320950D01*
X192565990Y-119323676D01*
X192606890Y-119327455D01*
X192613883Y-119328588D01*
X192709062Y-119351757D01*
X192786075Y-119382977D01*
X192848135Y-119423662D01*
X192865897Y-119439421D01*
X192905379Y-119479707D01*
X192932277Y-119515794D01*
X192948917Y-119553728D01*
X192957622Y-119599559D01*
X192960718Y-119659334D01*
X192960908Y-119686558D01*
X192960261Y-119742518D01*
X192957630Y-119782512D01*
X192951983Y-119812941D01*
X192942287Y-119840205D01*
X192932922Y-119860070D01*
X192915230Y-119895018D01*
X192901861Y-119918705D01*
X192887371Y-119939413D01*
X192866314Y-119965422D01*
X192853791Y-119980410D01*
X192829677Y-120005075D01*
X192808227Y-120020170D01*
X192800585Y-120022388D01*
X192780991Y-120030330D01*
X192759305Y-120049395D01*
X192732157Y-120071748D01*
X192688818Y-120097076D01*
X192634808Y-120122884D01*
X192575644Y-120146671D01*
X192516845Y-120165941D01*
X192482692Y-120174590D01*
X192439827Y-120181723D01*
X192381894Y-120188359D01*
X192316212Y-120193794D01*
X192250101Y-120197324D01*
X192244469Y-120197521D01*
X192172737Y-120200882D01*
X192119522Y-120205493D01*
X192086226Y-120211201D01*
X192075164Y-120216115D01*
X192067255Y-120232308D01*
X192056320Y-120264859D01*
X192044107Y-120308253D01*
X192037218Y-120335830D01*
X192025104Y-120384136D01*
X192013533Y-120425969D01*
X192004227Y-120455286D01*
X192000736Y-120463816D01*
X191992447Y-120489421D01*
X191986825Y-120523549D01*
X191986438Y-120528053D01*
X191983227Y-120555562D01*
X191976209Y-120575540D01*
X191962226Y-120589166D01*
X191938117Y-120597620D01*
X191900723Y-120602081D01*
X191846884Y-120603727D01*
X191783501Y-120603785D01*
X191722845Y-120602868D01*
X191668540Y-120600826D01*
X191625307Y-120597928D01*
X191597867Y-120594441D01*
X191592398Y-120592952D01*
X191571368Y-120574516D01*
X191567210Y-120553826D01*
X191569874Y-120532923D01*
X191577014Y-120496357D01*
X191587354Y-120449388D01*
X191599618Y-120397273D01*
X191612529Y-120345271D01*
X191624811Y-120298640D01*
X191635189Y-120262638D01*
X191642384Y-120242523D01*
X191643083Y-120241245D01*
X191649650Y-120221617D01*
X191652796Y-120201526D01*
X191656330Y-120182361D01*
X191664725Y-120145364D01*
X191666039Y-120139929D01*
X192529925Y-120139929D01*
X192535522Y-120145526D01*
X192541120Y-120139929D01*
X192535522Y-120134332D01*
X192529925Y-120139929D01*
X191666039Y-120139929D01*
X191677063Y-120094334D01*
X191692421Y-120033067D01*
X191709878Y-119965361D01*
X191712532Y-119955222D01*
X191728927Y-119892456D01*
X192149317Y-119892456D01*
X192159749Y-119895614D01*
X192188037Y-119897624D01*
X192229668Y-119898297D01*
X192272455Y-119897667D01*
X192321938Y-119895522D01*
X192361927Y-119892274D01*
X192387904Y-119888390D01*
X192395593Y-119884924D01*
X192402408Y-119880207D01*
X192405427Y-119881618D01*
X192418074Y-119877775D01*
X192441203Y-119861702D01*
X192466026Y-119840300D01*
X192506952Y-119792171D01*
X192525816Y-119744379D01*
X192522912Y-119696021D01*
X192517666Y-119680844D01*
X192508850Y-119654270D01*
X192506601Y-119636457D01*
X192506662Y-119636183D01*
X192504343Y-119630562D01*
X192501959Y-119632432D01*
X192487787Y-119633416D01*
X192462355Y-119626319D01*
X192456608Y-119624036D01*
X192423124Y-119615467D01*
X192374195Y-119609926D01*
X192322912Y-119608197D01*
X192276467Y-119608506D01*
X192247391Y-119610383D01*
X192230663Y-119615252D01*
X192221264Y-119624539D01*
X192214456Y-119638982D01*
X192203294Y-119672260D01*
X192197454Y-119697752D01*
X192192329Y-119722428D01*
X192183013Y-119760487D01*
X192171500Y-119803796D01*
X192171219Y-119804812D01*
X192160534Y-119844485D01*
X192152736Y-119875528D01*
X192149354Y-119891825D01*
X192149317Y-119892456D01*
X191728927Y-119892456D01*
X191730381Y-119886891D01*
X191746545Y-119824474D01*
X191760052Y-119771770D01*
X191769929Y-119732575D01*
X191775206Y-119710685D01*
X191775529Y-119709185D01*
X191783878Y-119685433D01*
X191792160Y-119674707D01*
X191798749Y-119659900D01*
X191797363Y-119652080D01*
X191798103Y-119636035D01*
X191804004Y-119602750D01*
X191814164Y-119556537D01*
X191827679Y-119501707D01*
X191833520Y-119479462D01*
X191875363Y-119322741D01*
X192211040Y-119319411D01*
X192325616Y-119318784D01*
X192423921Y-119319308D01*
G37*
G36*
X195152411Y-119322964D02*
G01*
X195241113Y-119323687D01*
X195311699Y-119324990D01*
X195366300Y-119326951D01*
X195407052Y-119329650D01*
X195436088Y-119333166D01*
X195455541Y-119337579D01*
X195457250Y-119338144D01*
X195496319Y-119352635D01*
X195537037Y-119369391D01*
X195573380Y-119385734D01*
X195599325Y-119398987D01*
X195608374Y-119405333D01*
X195621794Y-119415797D01*
X195636360Y-119424564D01*
X195673924Y-119456701D01*
X195703904Y-119505118D01*
X195723339Y-119564190D01*
X195728506Y-119599729D01*
X195725089Y-119683326D01*
X195701832Y-119759145D01*
X195660088Y-119824671D01*
X195601214Y-119877393D01*
X195568283Y-119896895D01*
X195527109Y-119918018D01*
X195568495Y-119943596D01*
X195619518Y-119987718D01*
X195656121Y-120045884D01*
X195676578Y-120113693D01*
X195679162Y-120186745D01*
X195675070Y-120215113D01*
X195665637Y-120251181D01*
X195651621Y-120291031D01*
X195635359Y-120329530D01*
X195619188Y-120361548D01*
X195605447Y-120381953D01*
X195597148Y-120386186D01*
X195587369Y-120391279D01*
X195577134Y-120407921D01*
X195561096Y-120429389D01*
X195533409Y-120455051D01*
X195514468Y-120469305D01*
X195482370Y-120489483D01*
X195446268Y-120509340D01*
X195411270Y-120526468D01*
X195382487Y-120538456D01*
X195365026Y-120542896D01*
X195362098Y-120541158D01*
X195355303Y-120541145D01*
X195348105Y-120546152D01*
X195331065Y-120553776D01*
X195298316Y-120563698D01*
X195256153Y-120574068D01*
X195244557Y-120576582D01*
X195212110Y-120582335D01*
X195172677Y-120587125D01*
X195123673Y-120591091D01*
X195062512Y-120594375D01*
X194986608Y-120597115D01*
X194893375Y-120599452D01*
X194785589Y-120601439D01*
X194684814Y-120603028D01*
X194604002Y-120604107D01*
X194540730Y-120604576D01*
X194492576Y-120604335D01*
X194457118Y-120603282D01*
X194431932Y-120601316D01*
X194414597Y-120598337D01*
X194402690Y-120594244D01*
X194393789Y-120588937D01*
X194388624Y-120584916D01*
X194361074Y-120562401D01*
X194381588Y-120474303D01*
X194392440Y-120431377D01*
X194402853Y-120396404D01*
X194410935Y-120375600D01*
X194412330Y-120373390D01*
X194420326Y-120355949D01*
X194420280Y-120351002D01*
X194420602Y-120332784D01*
X194425377Y-120305880D01*
X194429782Y-120289189D01*
X194852531Y-120289189D01*
X194861414Y-120299004D01*
X194885195Y-120302765D01*
X194927563Y-120304537D01*
X194927722Y-120304543D01*
X194994696Y-120305825D01*
X195053731Y-120304245D01*
X195099925Y-120300061D01*
X195127016Y-120294077D01*
X195150653Y-120286468D01*
X195157397Y-120284815D01*
X195184145Y-120272472D01*
X195213830Y-120249806D01*
X195237686Y-120224263D01*
X195245929Y-120209603D01*
X195252428Y-120179376D01*
X195254987Y-120151123D01*
X195252759Y-120129239D01*
X195241163Y-120114524D01*
X195214713Y-120100879D01*
X195206837Y-120097612D01*
X195165834Y-120086041D01*
X195107392Y-120076822D01*
X195037394Y-120070787D01*
X194984204Y-120067931D01*
X194948940Y-120067080D01*
X194927180Y-120068884D01*
X194914503Y-120073995D01*
X194906486Y-120083063D01*
X194902051Y-120090715D01*
X194891911Y-120115585D01*
X194890077Y-120131533D01*
X194886076Y-120144377D01*
X194881980Y-120145526D01*
X194874330Y-120155165D01*
X194871920Y-120176365D01*
X194869495Y-120211342D01*
X194864686Y-120235135D01*
X194854852Y-120269254D01*
X194852531Y-120289189D01*
X194429782Y-120289189D01*
X194432482Y-120278960D01*
X194439795Y-120260691D01*
X194443188Y-120257470D01*
X194448640Y-120247632D01*
X194451834Y-120223535D01*
X194451996Y-120219419D01*
X194455802Y-120189048D01*
X194464694Y-120146866D01*
X194475988Y-120104677D01*
X194483487Y-120078801D01*
X194492490Y-120046151D01*
X194503473Y-120004860D01*
X194516913Y-119953061D01*
X194533287Y-119888888D01*
X194553069Y-119810473D01*
X194562712Y-119771964D01*
X194984940Y-119771964D01*
X194990155Y-119784964D01*
X195006325Y-119790555D01*
X195030717Y-119794560D01*
X195053785Y-119796014D01*
X195082339Y-119794794D01*
X195123191Y-119790778D01*
X195147547Y-119788008D01*
X195214024Y-119774311D01*
X195260545Y-119750816D01*
X195287382Y-119717325D01*
X195294932Y-119679154D01*
X195289401Y-119649718D01*
X195271246Y-119629107D01*
X195238126Y-119616380D01*
X195187699Y-119610594D01*
X195124434Y-119610579D01*
X195021601Y-119613794D01*
X195008792Y-119658572D01*
X194998152Y-119699603D01*
X194989150Y-119740456D01*
X194988383Y-119744503D01*
X194984940Y-119771964D01*
X194562712Y-119771964D01*
X194576738Y-119715950D01*
X194604768Y-119603451D01*
X194635562Y-119479462D01*
X195653151Y-119479462D01*
X195658749Y-119485059D01*
X195664346Y-119479462D01*
X195658749Y-119473865D01*
X195653151Y-119479462D01*
X194635562Y-119479462D01*
X194637636Y-119471110D01*
X194638342Y-119468268D01*
X194674442Y-119322741D01*
X195043457Y-119322741D01*
X195152411Y-119322964D01*
G37*
G36*
X186836943Y-120280148D02*
G01*
X186909940Y-120280965D01*
X186972272Y-120282233D01*
X187021097Y-120283875D01*
X187053571Y-120285815D01*
X187066852Y-120287975D01*
X187067021Y-120288254D01*
X187062174Y-120301585D01*
X187050370Y-120323285D01*
X187035571Y-120347141D01*
X187021736Y-120366937D01*
X187012826Y-120376459D01*
X187011456Y-120375442D01*
X187006902Y-120377429D01*
X186995841Y-120395061D01*
X186990066Y-120405949D01*
X186970450Y-120437939D01*
X186942424Y-120475757D01*
X186910234Y-120514537D01*
X186878123Y-120549412D01*
X186850336Y-120575515D01*
X186831370Y-120587902D01*
X186813574Y-120599469D01*
X186809608Y-120608698D01*
X186801785Y-120622143D01*
X186780952Y-120645834D01*
X186751063Y-120675407D01*
X186739643Y-120685933D01*
X186703768Y-120717145D01*
X186664313Y-120749449D01*
X186624956Y-120780101D01*
X186589378Y-120806355D01*
X186561256Y-120825469D01*
X186544271Y-120834696D01*
X186540943Y-120834159D01*
X186534006Y-120835998D01*
X186517234Y-120849603D01*
X186516444Y-120850335D01*
X186492289Y-120866993D01*
X186472223Y-120873160D01*
X186450473Y-120881254D01*
X186443549Y-120889016D01*
X186431006Y-120899190D01*
X186403374Y-120916255D01*
X186365785Y-120937497D01*
X186323373Y-120960199D01*
X186281270Y-120981647D01*
X186244610Y-120999125D01*
X186218525Y-121009916D01*
X186211206Y-121011934D01*
X186190615Y-121019065D01*
X186188321Y-121020330D01*
X186166915Y-121029947D01*
X186136457Y-121040511D01*
X186105561Y-121049409D01*
X186082836Y-121054029D01*
X186077403Y-121053973D01*
X186062651Y-121058844D01*
X186060612Y-121061389D01*
X186046194Y-121070356D01*
X186016873Y-121081537D01*
X185979722Y-121092862D01*
X185941812Y-121102261D01*
X185910216Y-121107662D01*
X185900582Y-121108241D01*
X185875157Y-121112493D01*
X185862797Y-121119203D01*
X185843283Y-121128449D01*
X185805132Y-121138038D01*
X185752086Y-121147602D01*
X185687887Y-121156770D01*
X185616277Y-121165173D01*
X185540995Y-121172438D01*
X185465785Y-121178198D01*
X185394386Y-121182081D01*
X185330541Y-121183718D01*
X185277990Y-121182737D01*
X185247995Y-121180027D01*
X185104011Y-121155006D01*
X184970520Y-121123255D01*
X184849829Y-121085603D01*
X184744245Y-121042881D01*
X184656076Y-120995918D01*
X184587628Y-120945543D01*
X184582235Y-120940610D01*
X184558364Y-120920025D01*
X184540884Y-120908012D01*
X184537129Y-120906743D01*
X184525379Y-120898855D01*
X184505386Y-120878780D01*
X184493146Y-120864764D01*
X184469409Y-120836447D01*
X184449978Y-120813345D01*
X184444410Y-120806760D01*
X184427703Y-120784985D01*
X184406269Y-120754335D01*
X184383805Y-120720485D01*
X184364006Y-120689108D01*
X184350570Y-120665879D01*
X184346885Y-120657054D01*
X184342561Y-120642228D01*
X184331668Y-120615122D01*
X184325269Y-120600673D01*
X184315812Y-120574563D01*
X184304880Y-120536372D01*
X184293666Y-120491515D01*
X184283365Y-120445407D01*
X184275172Y-120403463D01*
X184270281Y-120371097D01*
X184269887Y-120353725D01*
X184270512Y-120352464D01*
X184276949Y-120359929D01*
X184290952Y-120383076D01*
X184309986Y-120417606D01*
X184318953Y-120434624D01*
X184340837Y-120474717D01*
X184360446Y-120507138D01*
X184374533Y-120526639D01*
X184377633Y-120529489D01*
X184390357Y-120543590D01*
X184391626Y-120548631D01*
X184399251Y-120560978D01*
X184419162Y-120583214D01*
X184444800Y-120608380D01*
X184477490Y-120637823D01*
X184513628Y-120668771D01*
X184549336Y-120698119D01*
X184580732Y-120722762D01*
X184603936Y-120739594D01*
X184615069Y-120745511D01*
X184615514Y-120744994D01*
X184624683Y-120746866D01*
X184648953Y-120756855D01*
X184683471Y-120772927D01*
X184691076Y-120776642D01*
X184737962Y-120796587D01*
X184796371Y-120816997D01*
X184855803Y-120834301D01*
X184872984Y-120838520D01*
X184914252Y-120846604D01*
X184965492Y-120854416D01*
X185022526Y-120861585D01*
X185081179Y-120867743D01*
X185137274Y-120872522D01*
X185186635Y-120875553D01*
X185225086Y-120876466D01*
X185248450Y-120874894D01*
X185253592Y-120872134D01*
X185263958Y-120868448D01*
X185291809Y-120864173D01*
X185332279Y-120859966D01*
X185359207Y-120857846D01*
X185438629Y-120849354D01*
X185526309Y-120835121D01*
X185615837Y-120816582D01*
X185700802Y-120795172D01*
X185774795Y-120772328D01*
X185820599Y-120754513D01*
X185846665Y-120743892D01*
X185863245Y-120738885D01*
X185864078Y-120738827D01*
X185878572Y-120733768D01*
X185907679Y-120720287D01*
X185946490Y-120700928D01*
X185990100Y-120678235D01*
X186033602Y-120654751D01*
X186072088Y-120633020D01*
X186095917Y-120618639D01*
X186174841Y-120562840D01*
X186252534Y-120497581D01*
X186321254Y-120429653D01*
X186352359Y-120393692D01*
X186382030Y-120356932D01*
X186407989Y-120324914D01*
X186425732Y-120303191D01*
X186428689Y-120299619D01*
X186435185Y-120293766D01*
X186445466Y-120289188D01*
X186462094Y-120285732D01*
X186487633Y-120283244D01*
X186524645Y-120281567D01*
X186575692Y-120280548D01*
X186643337Y-120280032D01*
X186730143Y-120279864D01*
X186756124Y-120279859D01*
X186836943Y-120280148D01*
G37*
G36*
X185595020Y-119501227D02*
G01*
X185678859Y-119507134D01*
X185745569Y-119520274D01*
X185799645Y-119542071D01*
X185845581Y-119573948D01*
X185856851Y-119584164D01*
X185897289Y-119625699D01*
X185922622Y-119661933D01*
X185936149Y-119700317D01*
X185941169Y-119748302D01*
X185941530Y-119775395D01*
X185940099Y-119823567D01*
X185934442Y-119859611D01*
X185922064Y-119893721D01*
X185903627Y-119930240D01*
X185878674Y-119970746D01*
X185849526Y-120009125D01*
X185819823Y-120041572D01*
X185793203Y-120064278D01*
X185773307Y-120073438D01*
X185767802Y-120072311D01*
X185759663Y-120074033D01*
X185759859Y-120079691D01*
X185751965Y-120091826D01*
X185727341Y-120106757D01*
X185691126Y-120122476D01*
X185648457Y-120136973D01*
X185604474Y-120148242D01*
X185570499Y-120153718D01*
X185533087Y-120156108D01*
X185509051Y-120152293D01*
X185489792Y-120140338D01*
X185482684Y-120133963D01*
X185455045Y-120107998D01*
X185406265Y-120132359D01*
X185349081Y-120151435D01*
X185292643Y-120153372D01*
X185241877Y-120139010D01*
X185201709Y-120109193D01*
X185191319Y-120095649D01*
X185186796Y-120083957D01*
X185320758Y-120083957D01*
X185326355Y-120089555D01*
X185331953Y-120083957D01*
X185326355Y-120078360D01*
X185320758Y-120083957D01*
X185186796Y-120083957D01*
X185175455Y-120054637D01*
X185170432Y-120001936D01*
X185170618Y-120000080D01*
X185298494Y-120000080D01*
X185302108Y-120036225D01*
X185311803Y-120053733D01*
X185339715Y-120067041D01*
X185377735Y-120066119D01*
X185419580Y-120051986D01*
X185452930Y-120030784D01*
X185489473Y-119993510D01*
X185519817Y-119948038D01*
X185542245Y-119899214D01*
X185555039Y-119851879D01*
X185556483Y-119810877D01*
X185544861Y-119781050D01*
X185542407Y-119778351D01*
X185514539Y-119765055D01*
X185476305Y-119765529D01*
X185433684Y-119778246D01*
X185392658Y-119801678D01*
X185369029Y-119822625D01*
X185341442Y-119860632D01*
X185319559Y-119906639D01*
X185304777Y-119955004D01*
X185298494Y-120000080D01*
X185170618Y-120000080D01*
X185176100Y-119945357D01*
X185192309Y-119892717D01*
X185195339Y-119886251D01*
X185234976Y-119824079D01*
X185287303Y-119768600D01*
X185347612Y-119723194D01*
X185411191Y-119691242D01*
X185473332Y-119676121D01*
X185489245Y-119675363D01*
X185511616Y-119676507D01*
X185532287Y-119681637D01*
X185558961Y-119693304D01*
X185587651Y-119707934D01*
X185609190Y-119715744D01*
X185623116Y-119708515D01*
X185627143Y-119703452D01*
X185641488Y-119692605D01*
X185667192Y-119688161D01*
X185704190Y-119688723D01*
X185767957Y-119692155D01*
X185722801Y-119792904D01*
X185700110Y-119843156D01*
X185677772Y-119891990D01*
X185659372Y-119931594D01*
X185653473Y-119944028D01*
X185633793Y-119985553D01*
X185622499Y-120011776D01*
X185618113Y-120027494D01*
X185619159Y-120037503D01*
X185622634Y-120044175D01*
X185640712Y-120054246D01*
X185670248Y-120047774D01*
X185708852Y-120025806D01*
X185754131Y-119989391D01*
X185760137Y-119983880D01*
X185790686Y-119953380D01*
X185813388Y-119926737D01*
X185824146Y-119908859D01*
X185824504Y-119906698D01*
X185829815Y-119887839D01*
X185833920Y-119883558D01*
X185840919Y-119868316D01*
X185844808Y-119837761D01*
X185845666Y-119798737D01*
X185843571Y-119758092D01*
X185838602Y-119722673D01*
X185831832Y-119701104D01*
X185794423Y-119652160D01*
X185740886Y-119615042D01*
X185675558Y-119592501D01*
X185655276Y-119589115D01*
X185587721Y-119584687D01*
X185515102Y-119587024D01*
X185445069Y-119595371D01*
X185385272Y-119608975D01*
X185359955Y-119618231D01*
X185331104Y-119630112D01*
X185312870Y-119635927D01*
X185309564Y-119635663D01*
X185302226Y-119637239D01*
X185282154Y-119652368D01*
X185252257Y-119678586D01*
X185215444Y-119713430D01*
X185201770Y-119726904D01*
X185145974Y-119793652D01*
X185106115Y-119865188D01*
X185082607Y-119938385D01*
X185075866Y-120010118D01*
X185086309Y-120077259D01*
X185114350Y-120136684D01*
X185142809Y-120170263D01*
X185198076Y-120208834D01*
X185268520Y-120236486D01*
X185349714Y-120253113D01*
X185437231Y-120258611D01*
X185526644Y-120252874D01*
X185613525Y-120235797D01*
X185693449Y-120207276D01*
X185736637Y-120184371D01*
X185780815Y-120160318D01*
X185818104Y-120148426D01*
X185853651Y-120145526D01*
X185907409Y-120145526D01*
X185864815Y-120189146D01*
X185799819Y-120242027D01*
X185717254Y-120286778D01*
X185641240Y-120315203D01*
X185586467Y-120327606D01*
X185517640Y-120336572D01*
X185442896Y-120341628D01*
X185370373Y-120342300D01*
X185308207Y-120338118D01*
X185291056Y-120335538D01*
X185192632Y-120309760D01*
X185112332Y-120271143D01*
X185057818Y-120227843D01*
X185025584Y-120192362D01*
X185008971Y-120164402D01*
X185005176Y-120138760D01*
X185005991Y-120131533D01*
X184998725Y-120123517D01*
X184995189Y-120123138D01*
X184987052Y-120115145D01*
X184987984Y-120109145D01*
X184988195Y-120088427D01*
X184983251Y-120069053D01*
X184978527Y-120034341D01*
X184982340Y-119985721D01*
X184993103Y-119929254D01*
X185009224Y-119871000D01*
X185029114Y-119817018D01*
X185051182Y-119773369D01*
X185066111Y-119753226D01*
X185082619Y-119732614D01*
X185088855Y-119718948D01*
X185088741Y-119718356D01*
X185094936Y-119704814D01*
X185116114Y-119682849D01*
X185148138Y-119655690D01*
X185186874Y-119626564D01*
X185228184Y-119598698D01*
X185267932Y-119575320D01*
X185279958Y-119569161D01*
X185357302Y-119535014D01*
X185427051Y-119513573D01*
X185498403Y-119502854D01*
X185580556Y-119500874D01*
X185595020Y-119501227D01*
G37*
D14*
%TO.C,J9*%
X210670000Y-85270000D02*
X210670000Y-103110000D01*
X210670000Y-85270000D02*
X213330000Y-85270000D01*
X210670000Y-103110000D02*
X213330000Y-103110000D01*
X212000000Y-82670000D02*
X213330000Y-82670000D01*
X213330000Y-82670000D02*
X213330000Y-84000000D01*
X213330000Y-85270000D02*
X213330000Y-103110000D01*
%TO.C,J3*%
X199650000Y-73270000D02*
X199650000Y-74520000D01*
X199940000Y-73560000D02*
X199940000Y-79530000D01*
X199940000Y-79530000D02*
X215060000Y-79530000D01*
X199950000Y-73570000D02*
X199950000Y-74320000D01*
X199950000Y-74320000D02*
X201750000Y-74320000D01*
X199950000Y-75820000D02*
X200700000Y-75820000D01*
X200700000Y-75820000D02*
X200700000Y-78770000D01*
X200700000Y-78770000D02*
X207500000Y-78770000D01*
X200900000Y-73270000D02*
X199650000Y-73270000D01*
X201750000Y-73570000D02*
X199950000Y-73570000D01*
X201750000Y-74320000D02*
X201750000Y-73570000D01*
X203250000Y-73570000D02*
X203250000Y-74320000D01*
X203250000Y-74320000D02*
X211750000Y-74320000D01*
X211750000Y-73570000D02*
X203250000Y-73570000D01*
X211750000Y-74320000D02*
X211750000Y-73570000D01*
X213250000Y-73570000D02*
X213250000Y-74320000D01*
X213250000Y-74320000D02*
X215050000Y-74320000D01*
X214300000Y-75820000D02*
X214300000Y-78770000D01*
X214300000Y-78770000D02*
X207500000Y-78770000D01*
X215050000Y-73570000D02*
X213250000Y-73570000D01*
X215050000Y-74320000D02*
X215050000Y-73570000D01*
X215050000Y-75820000D02*
X214300000Y-75820000D01*
X215060000Y-73560000D02*
X199940000Y-73560000D01*
X215060000Y-79530000D02*
X215060000Y-73560000D01*
%TO.C,J4*%
X140920000Y-117930000D02*
X140920000Y-119180000D01*
X141210000Y-118220000D02*
X141210000Y-124190000D01*
X141210000Y-124190000D02*
X156330000Y-124190000D01*
X141220000Y-118230000D02*
X141220000Y-118980000D01*
X141220000Y-118980000D02*
X143020000Y-118980000D01*
X141220000Y-120480000D02*
X141970000Y-120480000D01*
X141970000Y-120480000D02*
X141970000Y-123430000D01*
X141970000Y-123430000D02*
X148770000Y-123430000D01*
X142170000Y-117930000D02*
X140920000Y-117930000D01*
X143020000Y-118230000D02*
X141220000Y-118230000D01*
X143020000Y-118980000D02*
X143020000Y-118230000D01*
X144520000Y-118230000D02*
X144520000Y-118980000D01*
X144520000Y-118980000D02*
X153020000Y-118980000D01*
X153020000Y-118230000D02*
X144520000Y-118230000D01*
X153020000Y-118980000D02*
X153020000Y-118230000D01*
X154520000Y-118230000D02*
X154520000Y-118980000D01*
X154520000Y-118980000D02*
X156320000Y-118980000D01*
X155570000Y-120480000D02*
X155570000Y-123430000D01*
X155570000Y-123430000D02*
X148770000Y-123430000D01*
X156320000Y-118230000D02*
X154520000Y-118230000D01*
X156320000Y-118980000D02*
X156320000Y-118230000D01*
X156320000Y-120480000D02*
X155570000Y-120480000D01*
X156330000Y-118220000D02*
X141210000Y-118220000D01*
X156330000Y-124190000D02*
X156330000Y-118220000D01*
%TO.C,J2*%
X129650000Y-117930000D02*
X129650000Y-119180000D01*
X129940000Y-118220000D02*
X129940000Y-124190000D01*
X129940000Y-124190000D02*
X137560000Y-124190000D01*
X129950000Y-118230000D02*
X129950000Y-118980000D01*
X129950000Y-118980000D02*
X131750000Y-118980000D01*
X129950000Y-120480000D02*
X130700000Y-120480000D01*
X130700000Y-120480000D02*
X130700000Y-123430000D01*
X130700000Y-123430000D02*
X133750000Y-123430000D01*
X130900000Y-117930000D02*
X129650000Y-117930000D01*
X131750000Y-118230000D02*
X129950000Y-118230000D01*
X131750000Y-118980000D02*
X131750000Y-118230000D01*
X133250000Y-118230000D02*
X133250000Y-118980000D01*
X133250000Y-118980000D02*
X134250000Y-118980000D01*
X134250000Y-118230000D02*
X133250000Y-118230000D01*
X134250000Y-118980000D02*
X134250000Y-118230000D01*
X135750000Y-118230000D02*
X135750000Y-118980000D01*
X135750000Y-118980000D02*
X137550000Y-118980000D01*
X136800000Y-120480000D02*
X136800000Y-123430000D01*
X136800000Y-123430000D02*
X133750000Y-123430000D01*
X137550000Y-118230000D02*
X135750000Y-118230000D01*
X137550000Y-118980000D02*
X137550000Y-118230000D01*
X137550000Y-120480000D02*
X136800000Y-120480000D01*
X137560000Y-118220000D02*
X129940000Y-118220000D01*
X137560000Y-124190000D02*
X137560000Y-118220000D01*
%TO.C,J5*%
X199650000Y-65250000D02*
X199650000Y-66500000D01*
X199940000Y-65540000D02*
X199940000Y-71510000D01*
X199940000Y-71510000D02*
X215060000Y-71510000D01*
X199950000Y-65550000D02*
X199950000Y-66300000D01*
X199950000Y-66300000D02*
X201750000Y-66300000D01*
X199950000Y-67800000D02*
X200700000Y-67800000D01*
X200700000Y-67800000D02*
X200700000Y-70750000D01*
X200700000Y-70750000D02*
X207500000Y-70750000D01*
X200900000Y-65250000D02*
X199650000Y-65250000D01*
X201750000Y-65550000D02*
X199950000Y-65550000D01*
X201750000Y-66300000D02*
X201750000Y-65550000D01*
X203250000Y-65550000D02*
X203250000Y-66300000D01*
X203250000Y-66300000D02*
X211750000Y-66300000D01*
X211750000Y-65550000D02*
X203250000Y-65550000D01*
X211750000Y-66300000D02*
X211750000Y-65550000D01*
X213250000Y-65550000D02*
X213250000Y-66300000D01*
X213250000Y-66300000D02*
X215050000Y-66300000D01*
X214300000Y-67800000D02*
X214300000Y-70750000D01*
X214300000Y-70750000D02*
X207500000Y-70750000D01*
X215050000Y-65550000D02*
X213250000Y-65550000D01*
X215050000Y-66300000D02*
X215050000Y-65550000D01*
X215050000Y-67800000D02*
X214300000Y-67800000D01*
X215060000Y-65540000D02*
X199940000Y-65540000D01*
X215060000Y-71510000D02*
X215060000Y-65540000D01*
%TD*%
M02*
