M48
; DRILL file {KiCad 8.0.5} date 2025-10-03T19:24:40+0900
; FORMAT={-:-/ absolute / metric / decimal}
; #@! TF.CreationDate,2025-10-03T19:24:40+09:00
; #@! TF.GenerationSoftware,Kicad,Pcbnew,8.0.5
; #@! TF.FileFunction,Plated,1,2,PTH
FMAT,2
METRIC
; #@! TA.AperFunction,Plated,PTH,ViaDrill
T1C0.300
; #@! TA.AperFunction,Plated,PTH,ViaDrill
T2C0.500
; #@! TA.AperFunction,Plated,PTH,ComponentDrill
T3C0.950
; #@! TA.AperFunction,Plated,PTH,ComponentDrill
T4C1.000
; #@! TA.AperFunction,Plated,PTH,ComponentDrill
T5C1.300
%
G90
G05
T1
X152.74Y-107.8
X166.85Y-103.9
X170.24Y-101.02
X170.41Y-115.76
X191.72Y-121.13
X198.87Y-89.08
X201.1Y-99.19
T2
X124.2Y-106.35
X129.0Y-79.35
X129.1Y-89.65
X129.2Y-111.2
X130.65Y-124.95
X137.55Y-66.9
X139.475Y-122.075
X145.02Y-113.75
X145.07Y-117.05
X145.98Y-109.49
X149.05Y-79.8
X149.93Y-107.56
X151.95Y-94.7
X152.6Y-113.8
X153.125Y-123.225
X156.2Y-90.65
X157.9Y-115.15
X159.15Y-70.9
X160.15Y-85.35
X166.8Y-102.15
X167.25Y-59.8
X170.0Y-108.8
X170.3Y-74.15
X172.0Y-97.05
X175.05Y-108.6
X176.8Y-92.3
X177.75Y-79.35
X178.1Y-67.15
X180.25Y-108.7
X183.05Y-75.65
X183.35Y-101.9
X183.65Y-97.05
X184.35Y-84.75
X186.825Y-67.525
X188.95Y-92.25
X189.775Y-67.95
X190.14Y-108.64
X190.625Y-71.4
X190.75Y-66.475
X190.9Y-100.9
X192.3Y-70.4
X193.05Y-66.1
X195.15Y-70.7
X195.3Y-107.0
X195.525Y-68.525
X195.85Y-111.2
X200.8Y-103.65
X207.575Y-59.825
X214.35Y-64.45
X215.05Y-126.25
T3
X143.77Y-120.68
X146.27Y-120.68
X148.77Y-120.68
X151.27Y-120.68
X153.77Y-120.68
X202.5Y-68.0
X202.5Y-76.02
X205.0Y-68.0
X205.0Y-76.02
X207.5Y-68.0
X207.5Y-76.02
X210.0Y-68.0
X210.0Y-76.02
X212.5Y-68.0
X212.5Y-76.02
T4
X132.5Y-120.68
X135.0Y-120.68
X149.14Y-111.4
X151.68Y-111.4
X154.22Y-111.4
X156.76Y-111.4
X158.28Y-63.14
X159.3Y-111.4
X160.82Y-63.14
X161.84Y-111.4
X163.36Y-63.14
X164.38Y-111.4
X164.456Y-119.46
X164.456Y-122.0
X165.9Y-63.14
X166.92Y-111.4
X166.996Y-119.46
X166.996Y-122.0
X168.44Y-63.14
X169.46Y-111.4
X169.536Y-119.46
X169.536Y-122.0
X170.98Y-63.14
X172.0Y-111.4
X172.076Y-119.46
X172.076Y-122.0
X173.52Y-63.14
X174.616Y-119.46
X174.616Y-122.0
X176.06Y-63.14
X176.06Y-111.4
X178.6Y-111.4
X181.14Y-63.14
X181.14Y-111.4
X183.68Y-63.14
X183.68Y-111.4
X186.22Y-63.14
X186.22Y-111.4
X188.76Y-63.14
X188.76Y-111.4
X191.3Y-63.14
X191.3Y-111.4
X193.84Y-63.14
X193.84Y-111.4
X212.0Y-84.0
X212.0Y-86.54
X212.0Y-89.08
X212.0Y-91.62
X212.0Y-94.16
X212.0Y-96.7
X212.0Y-99.24
X212.0Y-101.78
T5
X200.75Y-112.1
X200.75Y-117.1
X213.25Y-112.1
X213.25Y-117.1
M30
