%TF.GenerationSoftware,KiCad,Pcbnew,8.0.5*%
%TF.CreationDate,2025-10-03T19:24:38+09:00*%
%TF.ProjectId,mai__,6d6169fa-7f2e-46b6-9963-61645f706362,rev?*%
%TF.SameCoordinates,Original*%
%TF.FileFunction,Copper,L1,Top*%
%TF.FilePolarity,Positive*%
%FSLAX46Y46*%
G04 Gerber Fmt 4.6, Leading zero omitted, Abs format (unit mm)*
G04 Created by KiCad (PCBNEW 8.0.5) date 2025-10-03 19:24:38*
%MOMM*%
%LPD*%
G01*
G04 APERTURE LIST*
G04 Aperture macros list*
%AMRoundRect*
0 Rectangle with rounded corners*
0 $1 Rounding radius*
0 $2 $3 $4 $5 $6 $7 $8 $9 X,Y pos of 4 corners*
0 Add a 4 corners polygon primitive as box body*
4,1,4,$2,$3,$4,$5,$6,$7,$8,$9,$2,$3,0*
0 Add four circle primitives for the rounded corners*
1,1,$1+$1,$2,$3*
1,1,$1+$1,$4,$5*
1,1,$1+$1,$6,$7*
1,1,$1+$1,$8,$9*
0 Add four rect primitives between the rounded corners*
20,1,$1+$1,$2,$3,$4,$5,0*
20,1,$1+$1,$4,$5,$6,$7,0*
20,1,$1+$1,$6,$7,$8,$9,0*
20,1,$1+$1,$8,$9,$2,$3,0*%
G04 Aperture macros list end*
%TA.AperFunction,ComponentPad*%
%ADD10C,1.950000*%
%TD*%
%TA.AperFunction,ComponentPad*%
%ADD11RoundRect,0.250000X0.600000X-0.600000X0.600000X0.600000X-0.600000X0.600000X-0.600000X-0.600000X0*%
%TD*%
%TA.AperFunction,ComponentPad*%
%ADD12C,1.700000*%
%TD*%
%TA.AperFunction,ComponentPad*%
%ADD13R,1.600000X1.600000*%
%TD*%
%TA.AperFunction,ComponentPad*%
%ADD14O,1.600000X1.600000*%
%TD*%
%TA.AperFunction,ComponentPad*%
%ADD15R,1.700000X1.700000*%
%TD*%
%TA.AperFunction,ComponentPad*%
%ADD16O,1.700000X1.700000*%
%TD*%
%TA.AperFunction,ComponentPad*%
%ADD17RoundRect,0.250000X-0.600000X-0.725000X0.600000X-0.725000X0.600000X0.725000X-0.600000X0.725000X0*%
%TD*%
%TA.AperFunction,ComponentPad*%
%ADD18O,1.700000X1.950000*%
%TD*%
%TA.AperFunction,ComponentPad*%
%ADD19RoundRect,0.250000X-0.600000X-0.750000X0.600000X-0.750000X0.600000X0.750000X-0.600000X0.750000X0*%
%TD*%
%TA.AperFunction,ComponentPad*%
%ADD20O,1.700000X2.000000*%
%TD*%
%TA.AperFunction,ViaPad*%
%ADD21C,1.000000*%
%TD*%
%TA.AperFunction,ViaPad*%
%ADD22C,0.600000*%
%TD*%
%TA.AperFunction,Conductor*%
%ADD23C,0.200000*%
%TD*%
%TA.AperFunction,Conductor*%
%ADD24C,0.500000*%
%TD*%
%TA.AperFunction,Conductor*%
%ADD25C,1.000000*%
%TD*%
G04 APERTURE END LIST*
D10*
%TO.P,S1,1,COM_1*%
%TO.N,+3.3V*%
X200750000Y-112100000D03*
%TO.P,S1,2,COM_2*%
%TO.N,unconnected-(S1-COM_2-Pad2)*%
X213250000Y-112100000D03*
%TO.P,S1,3,NO_1*%
%TO.N,unconnected-(S1-NO_1-Pad3)*%
X200750000Y-117100000D03*
%TO.P,S1,4,NO_2*%
%TO.N,D2*%
X213250000Y-117100000D03*
%TD*%
D11*
%TO.P,J1,1,Pin_1*%
%TO.N,PWM1*%
X164455550Y-122000000D03*
D12*
%TO.P,J1,2,Pin_2*%
%TO.N,PWM3*%
X164455550Y-119460000D03*
%TO.P,J1,3,Pin_3*%
%TO.N,PWM2*%
X166995550Y-122000000D03*
%TO.P,J1,4,Pin_4*%
%TO.N,PWM4*%
X166995550Y-119460000D03*
%TO.P,J1,5,Pin_5*%
%TO.N,+3.3V*%
X169535550Y-122000000D03*
%TO.P,J1,6,Pin_6*%
%TO.N,+5V*%
X169535550Y-119460000D03*
%TO.P,J1,7,Pin_7*%
%TO.N,GND*%
X172075550Y-122000000D03*
%TO.P,J1,8,Pin_8*%
%TO.N,+9V*%
X172075550Y-119460000D03*
%TO.P,J1,9,Pin_9*%
%TO.N,GND*%
X174615550Y-122000000D03*
%TO.P,J1,10,Pin_10*%
X174615550Y-119460000D03*
%TD*%
D13*
%TO.P,A1,1,NC*%
%TO.N,unconnected-(A1-NC-Pad1)*%
X158280000Y-63140000D03*
D14*
%TO.P,A1,2,IOREF*%
%TO.N,unconnected-(A1-IOREF-Pad2)*%
X160820000Y-63140000D03*
%TO.P,A1,3,~{RESET}*%
%TO.N,unconnected-(A1-~{RESET}-Pad3)*%
X163360000Y-63140000D03*
%TO.P,A1,4,3V3*%
%TO.N,unconnected-(A1-3V3-Pad4)*%
X165900000Y-63140000D03*
%TO.P,A1,5,+5V*%
%TO.N,unconnected-(A1-+5V-Pad5)*%
X168440000Y-63140000D03*
%TO.P,A1,6,GND*%
%TO.N,GND*%
X170980000Y-63140000D03*
%TO.P,A1,7,GND*%
X173520000Y-63140000D03*
%TO.P,A1,8,VIN*%
%TO.N,+9V*%
X176060000Y-63140000D03*
%TO.P,A1,9,A0*%
%TO.N,A0*%
X181140000Y-63140000D03*
%TO.P,A1,10,A1*%
%TO.N,A1*%
X183680000Y-63140000D03*
%TO.P,A1,11,A2*%
%TO.N,A2*%
X186220000Y-63140000D03*
%TO.P,A1,12,A3*%
%TO.N,A3*%
X188760000Y-63140000D03*
%TO.P,A1,13,SDA/A4*%
%TO.N,A4*%
X191300000Y-63140000D03*
%TO.P,A1,14,SCL/A5*%
%TO.N,IN1*%
X193840000Y-63140000D03*
%TO.P,A1,15,D0/RX*%
%TO.N,RX*%
X193840000Y-111400000D03*
%TO.P,A1,16,D1/TX*%
%TO.N,TX*%
X191300000Y-111400000D03*
%TO.P,A1,17,D2*%
%TO.N,D2*%
X188760000Y-111400000D03*
%TO.P,A1,18,D3*%
%TO.N,unconnected-(A1-D3-Pad18)*%
X186220000Y-111400000D03*
%TO.P,A1,19,D4*%
%TO.N,unconnected-(A1-D4-Pad19)*%
X183680000Y-111400000D03*
%TO.P,A1,20,D5*%
%TO.N,PWM1*%
X181140000Y-111400000D03*
%TO.P,A1,21,D6*%
%TO.N,PWM2*%
X178600000Y-111400000D03*
%TO.P,A1,22,D7*%
%TO.N,unconnected-(A1-D7-Pad22)*%
X176060000Y-111400000D03*
%TO.P,A1,23,D8*%
%TO.N,PWM3*%
X172000000Y-111400000D03*
%TO.P,A1,24,D9*%
%TO.N,PWM4*%
X169460000Y-111400000D03*
%TO.P,A1,25,D10*%
%TO.N,unconnected-(A1-D10-Pad25)*%
X166920000Y-111400000D03*
%TO.P,A1,26,D11*%
%TO.N,PWM5*%
X164380000Y-111400000D03*
%TO.P,A1,27,D12*%
%TO.N,unconnected-(A1-D12-Pad27)*%
X161840000Y-111400000D03*
%TO.P,A1,28,D13*%
%TO.N,unconnected-(A1-D13-Pad28)*%
X159300000Y-111400000D03*
%TO.P,A1,29,GND*%
%TO.N,GND*%
X156760000Y-111400000D03*
%TO.P,A1,30,AREF*%
%TO.N,unconnected-(A1-AREF-Pad30)*%
X154220000Y-111400000D03*
%TO.P,A1,31,SDA/A4*%
%TO.N,SDA*%
X151680000Y-111400000D03*
%TO.P,A1,32,SCL/A5*%
%TO.N,SCL*%
X149140000Y-111400000D03*
%TD*%
D15*
%TO.P,J9,1,Pin_1*%
%TO.N,+3.3V*%
X212000000Y-84000000D03*
D16*
%TO.P,J9,2,Pin_2*%
%TO.N,GND*%
X212000000Y-86540000D03*
%TO.P,J9,3,Pin_3*%
%TO.N,SCL*%
X212000000Y-89080000D03*
%TO.P,J9,4,Pin_4*%
%TO.N,SDA*%
X212000000Y-91620000D03*
%TO.P,J9,5,Pin_5*%
%TO.N,unconnected-(J9-Pin_5-Pad5)*%
X212000000Y-94160000D03*
%TO.P,J9,6,Pin_6*%
%TO.N,unconnected-(J9-Pin_6-Pad6)*%
X212000000Y-96700000D03*
%TO.P,J9,7,Pin_7*%
%TO.N,unconnected-(J9-Pin_7-Pad7)*%
X212000000Y-99240000D03*
%TO.P,J9,8,Pin_8*%
%TO.N,unconnected-(J9-Pin_8-Pad8)*%
X212000000Y-101780000D03*
%TD*%
D17*
%TO.P,J3,1,Pin_1*%
%TO.N,A0*%
X202500000Y-76020000D03*
D18*
%TO.P,J3,2,Pin_2*%
%TO.N,A1*%
X205000000Y-76020000D03*
%TO.P,J3,3,Pin_3*%
%TO.N,A2*%
X207500000Y-76020000D03*
%TO.P,J3,4,Pin_4*%
%TO.N,A3*%
X210000000Y-76020000D03*
%TO.P,J3,5,Pin_5*%
%TO.N,A4*%
X212500000Y-76020000D03*
%TD*%
D17*
%TO.P,J4,1,Pin_1*%
%TO.N,RX*%
X143770000Y-120680000D03*
D18*
%TO.P,J4,2,Pin_2*%
%TO.N,TX*%
X146270000Y-120680000D03*
%TO.P,J4,3,Pin_3*%
%TO.N,+9V*%
X148770000Y-120680000D03*
%TO.P,J4,4,Pin_4*%
%TO.N,GND*%
X151270000Y-120680000D03*
%TO.P,J4,5,Pin_5*%
%TO.N,+3.3V*%
X153770000Y-120680000D03*
%TD*%
D19*
%TO.P,J2,1,Pin_1*%
%TO.N,+3.3V*%
X132500000Y-120680000D03*
D20*
%TO.P,J2,2,Pin_2*%
%TO.N,GND*%
X135000000Y-120680000D03*
%TD*%
D17*
%TO.P,J5,1,Pin_1*%
%TO.N,GND*%
X202500000Y-68000000D03*
D18*
%TO.P,J5,2,Pin_2*%
%TO.N,PWM5*%
X205000000Y-68000000D03*
%TO.P,J5,3,Pin_3*%
%TO.N,IN1*%
X207500000Y-68000000D03*
%TO.P,J5,4,Pin_4*%
%TO.N,+5V*%
X210000000Y-68000000D03*
%TO.P,J5,5,Pin_5*%
%TO.N,+9V*%
X212500000Y-68000000D03*
%TD*%
D21*
%TO.N,GND*%
X195525000Y-68525000D03*
X193050000Y-66100000D03*
X190625000Y-71400000D03*
X186825000Y-67525000D03*
X192300000Y-70400000D03*
X189775000Y-67950000D03*
X195150000Y-70700000D03*
X190750000Y-66475000D03*
X139475000Y-122075000D03*
X153125000Y-123225000D03*
D22*
%TO.N,SDA*%
X166850000Y-103900000D03*
X201100000Y-99190000D03*
%TO.N,PWM3*%
X170410000Y-115760000D03*
%TO.N,SCL*%
X198870000Y-89080000D03*
X152740000Y-107800000D03*
X170240000Y-101020000D03*
D21*
%TO.N,GND*%
X184350000Y-84750000D03*
X190900000Y-100900000D03*
X160150000Y-85350000D03*
X195850000Y-111200000D03*
X214350000Y-64450000D03*
X145020000Y-113750000D03*
X172000000Y-97050000D03*
X157900000Y-115150000D03*
X159150000Y-70900000D03*
X178100000Y-67150000D03*
X170300000Y-74150000D03*
X166800000Y-102150000D03*
X156200000Y-90650000D03*
X190140000Y-108640000D03*
X151950000Y-94700000D03*
X137550000Y-66900000D03*
X183050000Y-75650000D03*
X170000000Y-108800000D03*
X183650000Y-97050000D03*
X129200000Y-111200000D03*
X149050000Y-79800000D03*
X200800000Y-103650000D03*
X180250000Y-108700000D03*
X145980000Y-109490000D03*
X207575000Y-59825000D03*
X129000000Y-79350000D03*
X145070000Y-117050000D03*
X124200000Y-106350000D03*
X215050000Y-126250000D03*
X149930000Y-107560000D03*
X130650000Y-124950000D03*
X177750000Y-79350000D03*
X188950000Y-92250000D03*
X183350000Y-101900000D03*
X176800000Y-92300000D03*
X152600000Y-113800000D03*
X195300000Y-107000000D03*
X167250000Y-59800000D03*
X175050000Y-108600000D03*
X129100000Y-89650000D03*
D22*
%TO.N,+3.3V*%
X191720000Y-121130000D03*
%TD*%
D23*
%TO.N,A4*%
X207310000Y-70830000D02*
X212500000Y-76020000D01*
X191300000Y-63140000D02*
X198990000Y-70830000D01*
X198990000Y-70830000D02*
X207310000Y-70830000D01*
D24*
%TO.N,+5V*%
X173045550Y-115950000D02*
X169535550Y-119460000D01*
X182590000Y-115950000D02*
X173045550Y-115950000D01*
X198660000Y-124180000D02*
X190820000Y-124180000D01*
X190820000Y-124180000D02*
X182590000Y-115950000D01*
X214850000Y-72850000D02*
X214850000Y-107990000D01*
X214850000Y-107990000D02*
X198660000Y-124180000D01*
X210000000Y-68000000D02*
X214850000Y-72850000D01*
D23*
%TO.N,SDA*%
X196390000Y-103900000D02*
X166850000Y-103900000D01*
X201100000Y-99190000D02*
X196390000Y-103900000D01*
%TO.N,RX*%
X143770000Y-109830000D02*
X147200000Y-106400000D01*
X143770000Y-120680000D02*
X143770000Y-109830000D01*
X193840000Y-110690000D02*
X193840000Y-111400000D01*
X147200000Y-106400000D02*
X189550000Y-106400000D01*
X189550000Y-106400000D02*
X193840000Y-110690000D01*
%TO.N,PWM3*%
X168155550Y-115760000D02*
X164455550Y-119460000D01*
X170410000Y-115760000D02*
X168155550Y-115760000D01*
%TO.N,SCL*%
X149140000Y-111400000D02*
X152740000Y-107800000D01*
X198870000Y-89080000D02*
X186930000Y-101020000D01*
X186930000Y-101020000D02*
X170240000Y-101020000D01*
%TO.N,GND*%
X156760000Y-111400000D02*
X156760000Y-114010000D01*
X156760000Y-114010000D02*
X157900000Y-115150000D01*
%TO.N,TX*%
X146270000Y-120680000D02*
X146270000Y-112714365D01*
X187100000Y-107200000D02*
X191300000Y-111400000D01*
X151784365Y-107200000D02*
X187100000Y-107200000D01*
X146270000Y-112714365D02*
X151784365Y-107200000D01*
%TO.N,PWM2*%
X162060000Y-121970000D02*
X163600000Y-123510000D01*
X162060000Y-116610000D02*
X162060000Y-121970000D01*
X176440000Y-113560000D02*
X165110000Y-113560000D01*
X165485550Y-123510000D02*
X166995550Y-122000000D01*
X178600000Y-111400000D02*
X176440000Y-113560000D01*
X165110000Y-113560000D02*
X162060000Y-116610000D01*
X163600000Y-123510000D02*
X165485550Y-123510000D01*
D24*
%TO.N,+3.3V*%
X204000000Y-108850000D02*
X204000000Y-86960000D01*
X206960000Y-84000000D02*
X212000000Y-84000000D01*
X200750000Y-112100000D02*
X191720000Y-121130000D01*
X200750000Y-112100000D02*
X204000000Y-108850000D01*
X204000000Y-86960000D02*
X206960000Y-84000000D01*
D23*
%TO.N,PWM1*%
X162550000Y-118540000D02*
X162550000Y-120094450D01*
X181140000Y-111400000D02*
X178580000Y-113960000D01*
X178580000Y-113960000D02*
X167130000Y-113960000D01*
X167130000Y-113960000D02*
X162550000Y-118540000D01*
X162550000Y-120094450D02*
X164455550Y-122000000D01*
%TO.N,IN1*%
X193840000Y-63140000D02*
X203870000Y-63140000D01*
X207500000Y-66770000D02*
X207500000Y-68000000D01*
X203870000Y-63140000D02*
X207500000Y-66770000D01*
%TO.N,A0*%
X184002183Y-66002182D02*
X194020001Y-76020000D01*
X194020001Y-76020000D02*
X202500000Y-76020000D01*
X181140000Y-63140000D02*
X184002183Y-66002182D01*
%TO.N,A2*%
X196110000Y-73030000D02*
X204510000Y-73030000D01*
X186220000Y-63140000D02*
X196110000Y-73030000D01*
X204510000Y-73030000D02*
X207500000Y-76020000D01*
%TO.N,A1*%
X183680000Y-63140000D02*
X194940000Y-74400000D01*
X203380000Y-74400000D02*
X205000000Y-76020000D01*
X194940000Y-74400000D02*
X203380000Y-74400000D01*
%TO.N,A3*%
X188760000Y-63140000D02*
X197660000Y-72040000D01*
X197660000Y-72040000D02*
X206020000Y-72040000D01*
X206020000Y-72040000D02*
X210000000Y-76020000D01*
D24*
%TO.N,unconnected-(A1-3V3-Pad4)*%
X165900000Y-63140000D02*
X165900000Y-63500000D01*
D25*
%TO.N,+9V*%
X152175000Y-125475000D02*
X148770000Y-122070000D01*
X172075550Y-119460000D02*
X174635550Y-116900000D01*
X148770000Y-122070000D02*
X148770000Y-120680000D01*
X175875000Y-125475000D02*
X152175000Y-125475000D01*
X174635550Y-116900000D02*
X176450000Y-116900000D01*
X176450000Y-116900000D02*
X178350000Y-118800000D01*
X178350000Y-123000000D02*
X175875000Y-125475000D01*
X178350000Y-118800000D02*
X178350000Y-123000000D01*
%TD*%
%TA.AperFunction,Conductor*%
%TO.N,GND*%
G36*
X173054075Y-62947007D02*
G01*
X173020000Y-63074174D01*
X173020000Y-63205826D01*
X173054075Y-63332993D01*
X173086988Y-63390000D01*
X171413012Y-63390000D01*
X171445925Y-63332993D01*
X171480000Y-63205826D01*
X171480000Y-63074174D01*
X171445925Y-62947007D01*
X171413012Y-62890000D01*
X173086988Y-62890000D01*
X173054075Y-62947007D01*
G37*
%TD.AperFunction*%
%TA.AperFunction,Conductor*%
G36*
X215728089Y-58820185D02*
G01*
X215773844Y-58872989D01*
X215785050Y-58924500D01*
X215785050Y-72522870D01*
X215765365Y-72589909D01*
X215712561Y-72635664D01*
X215643403Y-72645608D01*
X215579847Y-72616583D01*
X215546489Y-72570323D01*
X215515085Y-72494507D01*
X215515080Y-72494499D01*
X215471649Y-72429500D01*
X215432952Y-72371584D01*
X212718443Y-69657075D01*
X212684958Y-69595752D01*
X212689942Y-69526060D01*
X212731814Y-69470127D01*
X212786727Y-69446921D01*
X212816238Y-69442247D01*
X212816238Y-69442246D01*
X212816243Y-69442246D01*
X213018412Y-69376557D01*
X213207816Y-69280051D01*
X213229789Y-69264086D01*
X213379786Y-69155109D01*
X213379788Y-69155106D01*
X213379792Y-69155104D01*
X213530104Y-69004792D01*
X213530106Y-69004788D01*
X213530109Y-69004786D01*
X213655048Y-68832820D01*
X213655047Y-68832820D01*
X213655051Y-68832816D01*
X213751557Y-68643412D01*
X213817246Y-68441243D01*
X213850500Y-68231287D01*
X213850500Y-67768713D01*
X213817246Y-67558757D01*
X213751557Y-67356588D01*
X213655051Y-67167184D01*
X213655049Y-67167181D01*
X213655048Y-67167179D01*
X213530109Y-66995213D01*
X213379786Y-66844890D01*
X213207820Y-66719951D01*
X213018414Y-66623444D01*
X213018413Y-66623443D01*
X213018412Y-66623443D01*
X212816243Y-66557754D01*
X212816241Y-66557753D01*
X212816240Y-66557753D01*
X212654957Y-66532208D01*
X212606287Y-66524500D01*
X212393713Y-66524500D01*
X212345042Y-66532208D01*
X212183760Y-66557753D01*
X211981585Y-66623444D01*
X211792179Y-66719951D01*
X211620213Y-66844890D01*
X211469894Y-66995209D01*
X211469890Y-66995214D01*
X211350318Y-67159793D01*
X211294989Y-67202459D01*
X211225375Y-67208438D01*
X211163580Y-67175833D01*
X211149682Y-67159793D01*
X211030109Y-66995214D01*
X211030105Y-66995209D01*
X210879786Y-66844890D01*
X210707820Y-66719951D01*
X210518414Y-66623444D01*
X210518413Y-66623443D01*
X210518412Y-66623443D01*
X210316243Y-66557754D01*
X210316241Y-66557753D01*
X210316240Y-66557753D01*
X210154957Y-66532208D01*
X210106287Y-66524500D01*
X209893713Y-66524500D01*
X209845042Y-66532208D01*
X209683760Y-66557753D01*
X209481585Y-66623444D01*
X209292179Y-66719951D01*
X209120213Y-66844890D01*
X208969894Y-66995209D01*
X208969890Y-66995214D01*
X208850318Y-67159793D01*
X208794989Y-67202459D01*
X208725375Y-67208438D01*
X208663580Y-67175833D01*
X208649682Y-67159793D01*
X208530109Y-66995214D01*
X208530105Y-66995209D01*
X208379786Y-66844890D01*
X208207817Y-66719949D01*
X208141723Y-66686272D01*
X208090928Y-66638298D01*
X208078244Y-66607882D01*
X208073625Y-66590643D01*
X208059577Y-66538215D01*
X208027526Y-66482701D01*
X207980520Y-66401284D01*
X207868716Y-66289480D01*
X207868715Y-66289479D01*
X207864385Y-66285149D01*
X207864374Y-66285139D01*
X204357590Y-62778355D01*
X204357588Y-62778352D01*
X204238717Y-62659481D01*
X204238716Y-62659480D01*
X204151904Y-62609360D01*
X204151904Y-62609359D01*
X204151900Y-62609358D01*
X204101785Y-62580423D01*
X203949057Y-62539499D01*
X203790943Y-62539499D01*
X203783347Y-62539499D01*
X203783331Y-62539500D01*
X195071692Y-62539500D01*
X195004653Y-62519815D01*
X194970119Y-62486625D01*
X194840047Y-62300861D01*
X194840045Y-62300858D01*
X194679141Y-62139954D01*
X194492734Y-62009432D01*
X194492732Y-62009431D01*
X194286497Y-61913261D01*
X194286488Y-61913258D01*
X194066697Y-61854366D01*
X194066693Y-61854365D01*
X194066692Y-61854365D01*
X194066691Y-61854364D01*
X194066686Y-61854364D01*
X193840002Y-61834532D01*
X193839998Y-61834532D01*
X193613313Y-61854364D01*
X193613302Y-61854366D01*
X193393511Y-61913258D01*
X193393502Y-61913261D01*
X193187267Y-62009431D01*
X193187265Y-62009432D01*
X193000858Y-62139954D01*
X192839954Y-62300858D01*
X192709432Y-62487265D01*
X192709431Y-62487267D01*
X192682382Y-62545275D01*
X192636209Y-62597714D01*
X192569016Y-62616866D01*
X192502135Y-62596650D01*
X192457618Y-62545275D01*
X192430686Y-62487520D01*
X192430568Y-62487266D01*
X192300047Y-62300861D01*
X192300045Y-62300858D01*
X192139141Y-62139954D01*
X191952734Y-62009432D01*
X191952732Y-62009431D01*
X191746497Y-61913261D01*
X191746488Y-61913258D01*
X191526697Y-61854366D01*
X191526693Y-61854365D01*
X191526692Y-61854365D01*
X191526691Y-61854364D01*
X191526686Y-61854364D01*
X191300002Y-61834532D01*
X191299998Y-61834532D01*
X191073313Y-61854364D01*
X191073302Y-61854366D01*
X190853511Y-61913258D01*
X190853502Y-61913261D01*
X190647267Y-62009431D01*
X190647265Y-62009432D01*
X190460858Y-62139954D01*
X190299954Y-62300858D01*
X190169432Y-62487265D01*
X190169431Y-62487267D01*
X190142382Y-62545275D01*
X190096209Y-62597714D01*
X190029016Y-62616866D01*
X189962135Y-62596650D01*
X189917618Y-62545275D01*
X189890686Y-62487520D01*
X189890568Y-62487266D01*
X189760047Y-62300861D01*
X189760045Y-62300858D01*
X189599141Y-62139954D01*
X189412734Y-62009432D01*
X189412732Y-62009431D01*
X189206497Y-61913261D01*
X189206488Y-61913258D01*
X188986697Y-61854366D01*
X188986693Y-61854365D01*
X188986692Y-61854365D01*
X188986691Y-61854364D01*
X188986686Y-61854364D01*
X188760002Y-61834532D01*
X188759998Y-61834532D01*
X188533313Y-61854364D01*
X188533302Y-61854366D01*
X188313511Y-61913258D01*
X188313502Y-61913261D01*
X188107267Y-62009431D01*
X188107265Y-62009432D01*
X187920858Y-62139954D01*
X187759954Y-62300858D01*
X187629432Y-62487265D01*
X187629431Y-62487267D01*
X187602382Y-62545275D01*
X187556209Y-62597714D01*
X187489016Y-62616866D01*
X187422135Y-62596650D01*
X187377618Y-62545275D01*
X187350686Y-62487520D01*
X187350568Y-62487266D01*
X187220047Y-62300861D01*
X187220045Y-62300858D01*
X187059141Y-62139954D01*
X186872734Y-62009432D01*
X186872732Y-62009431D01*
X186666497Y-61913261D01*
X186666488Y-61913258D01*
X186446697Y-61854366D01*
X186446693Y-61854365D01*
X186446692Y-61854365D01*
X186446691Y-61854364D01*
X186446686Y-61854364D01*
X186220002Y-61834532D01*
X186219998Y-61834532D01*
X185993313Y-61854364D01*
X185993302Y-61854366D01*
X185773511Y-61913258D01*
X185773502Y-61913261D01*
X185567267Y-62009431D01*
X185567265Y-62009432D01*
X185380858Y-62139954D01*
X185219954Y-62300858D01*
X185089432Y-62487265D01*
X185089431Y-62487267D01*
X185062382Y-62545275D01*
X185016209Y-62597714D01*
X184949016Y-62616866D01*
X184882135Y-62596650D01*
X184837618Y-62545275D01*
X184810686Y-62487520D01*
X184810568Y-62487266D01*
X184680047Y-62300861D01*
X184680045Y-62300858D01*
X184519141Y-62139954D01*
X184332734Y-62009432D01*
X184332732Y-62009431D01*
X184126497Y-61913261D01*
X184126488Y-61913258D01*
X183906697Y-61854366D01*
X183906693Y-61854365D01*
X183906692Y-61854365D01*
X183906691Y-61854364D01*
X183906686Y-61854364D01*
X183680002Y-61834532D01*
X183679998Y-61834532D01*
X183453313Y-61854364D01*
X183453302Y-61854366D01*
X183233511Y-61913258D01*
X183233502Y-61913261D01*
X183027267Y-62009431D01*
X183027265Y-62009432D01*
X182840858Y-62139954D01*
X182679954Y-62300858D01*
X182549432Y-62487265D01*
X182549431Y-62487267D01*
X182522382Y-62545275D01*
X182476209Y-62597714D01*
X182409016Y-62616866D01*
X182342135Y-62596650D01*
X182297618Y-62545275D01*
X182270686Y-62487520D01*
X182270568Y-62487266D01*
X182140047Y-62300861D01*
X182140045Y-62300858D01*
X181979141Y-62139954D01*
X181792734Y-62009432D01*
X181792732Y-62009431D01*
X181586497Y-61913261D01*
X181586488Y-61913258D01*
X181366697Y-61854366D01*
X181366693Y-61854365D01*
X181366692Y-61854365D01*
X181366691Y-61854364D01*
X181366686Y-61854364D01*
X181140002Y-61834532D01*
X181139998Y-61834532D01*
X180913313Y-61854364D01*
X180913302Y-61854366D01*
X180693511Y-61913258D01*
X180693502Y-61913261D01*
X180487267Y-62009431D01*
X180487265Y-62009432D01*
X180300858Y-62139954D01*
X180139954Y-62300858D01*
X180009432Y-62487265D01*
X180009431Y-62487267D01*
X179913261Y-62693502D01*
X179913258Y-62693511D01*
X179854366Y-62913302D01*
X179854364Y-62913313D01*
X179834532Y-63139998D01*
X179834532Y-63140001D01*
X179854364Y-63366686D01*
X179854366Y-63366697D01*
X179913258Y-63586488D01*
X179913261Y-63586497D01*
X180009431Y-63792732D01*
X180009432Y-63792734D01*
X180139954Y-63979141D01*
X180300858Y-64140045D01*
X180300861Y-64140047D01*
X180487266Y-64270568D01*
X180693504Y-64366739D01*
X180913308Y-64425635D01*
X181055361Y-64438063D01*
X181139998Y-64445468D01*
X181140000Y-64445468D01*
X181140002Y-64445468D01*
X181196807Y-64440498D01*
X181366692Y-64425635D01*
X181462932Y-64399847D01*
X181532781Y-64401510D01*
X181582706Y-64431941D01*
X183521664Y-66370898D01*
X193535140Y-76384374D01*
X193535150Y-76384385D01*
X193539480Y-76388715D01*
X193539481Y-76388716D01*
X193651285Y-76500520D01*
X193738096Y-76550639D01*
X193738098Y-76550641D01*
X193776152Y-76572611D01*
X193788216Y-76579577D01*
X193940944Y-76620500D01*
X201025501Y-76620500D01*
X201092540Y-76640185D01*
X201138295Y-76692989D01*
X201149501Y-76744500D01*
X201149501Y-76795018D01*
X201160000Y-76897796D01*
X201160001Y-76897799D01*
X201205894Y-77036294D01*
X201215186Y-77064334D01*
X201307288Y-77213656D01*
X201431344Y-77337712D01*
X201580666Y-77429814D01*
X201747203Y-77484999D01*
X201849991Y-77495500D01*
X203150008Y-77495499D01*
X203252797Y-77484999D01*
X203419334Y-77429814D01*
X203568656Y-77337712D01*
X203692712Y-77213656D01*
X203784814Y-77064334D01*
X203784814Y-77064331D01*
X203788178Y-77058879D01*
X203840126Y-77012154D01*
X203909088Y-77000931D01*
X203973170Y-77028774D01*
X203981398Y-77036294D01*
X204120213Y-77175109D01*
X204292179Y-77300048D01*
X204292181Y-77300049D01*
X204292184Y-77300051D01*
X204481588Y-77396557D01*
X204683757Y-77462246D01*
X204893713Y-77495500D01*
X204893714Y-77495500D01*
X205106286Y-77495500D01*
X205106287Y-77495500D01*
X205316243Y-77462246D01*
X205518412Y-77396557D01*
X205707816Y-77300051D01*
X205729789Y-77284086D01*
X205879786Y-77175109D01*
X205879788Y-77175106D01*
X205879792Y-77175104D01*
X206030104Y-77024792D01*
X206149683Y-76860204D01*
X206205011Y-76817540D01*
X206274624Y-76811561D01*
X206336420Y-76844166D01*
X206350313Y-76860199D01*
X206452560Y-77000931D01*
X206469896Y-77024792D01*
X206620213Y-77175109D01*
X206792179Y-77300048D01*
X206792181Y-77300049D01*
X206792184Y-77300051D01*
X206981588Y-77396557D01*
X207183757Y-77462246D01*
X207393713Y-77495500D01*
X207393714Y-77495500D01*
X207606286Y-77495500D01*
X207606287Y-77495500D01*
X207816243Y-77462246D01*
X208018412Y-77396557D01*
X208207816Y-77300051D01*
X208229789Y-77284086D01*
X208379786Y-77175109D01*
X208379788Y-77175106D01*
X208379792Y-77175104D01*
X208530104Y-77024792D01*
X208649683Y-76860204D01*
X208705011Y-76817540D01*
X208774624Y-76811561D01*
X208836420Y-76844166D01*
X208850313Y-76860199D01*
X208952560Y-77000931D01*
X208969896Y-77024792D01*
X209120213Y-77175109D01*
X209292179Y-77300048D01*
X209292181Y-77300049D01*
X209292184Y-77300051D01*
X209481588Y-77396557D01*
X209683757Y-77462246D01*
X209893713Y-77495500D01*
X209893714Y-77495500D01*
X210106286Y-77495500D01*
X210106287Y-77495500D01*
X210316243Y-77462246D01*
X210518412Y-77396557D01*
X210707816Y-77300051D01*
X210729789Y-77284086D01*
X210879786Y-77175109D01*
X210879788Y-77175106D01*
X210879792Y-77175104D01*
X211030104Y-77024792D01*
X211149683Y-76860204D01*
X211205011Y-76817540D01*
X211274624Y-76811561D01*
X211336420Y-76844166D01*
X211350313Y-76860199D01*
X211452560Y-77000931D01*
X211469896Y-77024792D01*
X211620213Y-77175109D01*
X211792179Y-77300048D01*
X211792181Y-77300049D01*
X211792184Y-77300051D01*
X211981588Y-77396557D01*
X212183757Y-77462246D01*
X212393713Y-77495500D01*
X212393714Y-77495500D01*
X212606286Y-77495500D01*
X212606287Y-77495500D01*
X212816243Y-77462246D01*
X213018412Y-77396557D01*
X213207816Y-77300051D01*
X213229789Y-77284086D01*
X213379786Y-77175109D01*
X213379788Y-77175106D01*
X213379792Y-77175104D01*
X213530104Y-77024792D01*
X213530106Y-77024788D01*
X213530109Y-77024786D01*
X213655048Y-76852820D01*
X213655047Y-76852820D01*
X213655051Y-76852816D01*
X213751557Y-76663412D01*
X213817246Y-76461243D01*
X213850500Y-76251287D01*
X213850500Y-75788713D01*
X213817246Y-75578757D01*
X213751557Y-75376588D01*
X213655051Y-75187184D01*
X213655049Y-75187181D01*
X213655048Y-75187179D01*
X213530109Y-75015213D01*
X213379786Y-74864890D01*
X213207820Y-74739951D01*
X213018414Y-74643444D01*
X213018413Y-74643443D01*
X213018412Y-74643443D01*
X212816243Y-74577754D01*
X212816241Y-74577753D01*
X212816240Y-74577753D01*
X212654957Y-74552208D01*
X212606287Y-74544500D01*
X212393713Y-74544500D01*
X212345042Y-74552208D01*
X212183760Y-74577753D01*
X212183757Y-74577754D01*
X212047129Y-74622147D01*
X211977290Y-74624142D01*
X211921132Y-74591897D01*
X207797590Y-70468355D01*
X207797588Y-70468352D01*
X207678717Y-70349481D01*
X207678716Y-70349480D01*
X207591904Y-70299360D01*
X207591904Y-70299359D01*
X207591900Y-70299358D01*
X207541785Y-70270423D01*
X207389057Y-70229499D01*
X207230943Y-70229499D01*
X207223347Y-70229499D01*
X207223331Y-70229500D01*
X199290097Y-70229500D01*
X199223058Y-70209815D01*
X199202416Y-70193181D01*
X193658663Y-64649428D01*
X193625178Y-64588105D01*
X193630162Y-64518413D01*
X193672034Y-64462480D01*
X193737498Y-64438063D01*
X193757142Y-64438218D01*
X193840000Y-64445468D01*
X193840002Y-64445468D01*
X193896807Y-64440498D01*
X194066692Y-64425635D01*
X194286496Y-64366739D01*
X194492734Y-64270568D01*
X194679139Y-64140047D01*
X194840047Y-63979139D01*
X194970118Y-63793375D01*
X195024693Y-63749752D01*
X195071692Y-63740500D01*
X203569903Y-63740500D01*
X203636942Y-63760185D01*
X203657584Y-63776819D01*
X206585253Y-66704488D01*
X206618738Y-66765811D01*
X206613754Y-66835503D01*
X206585254Y-66879850D01*
X206469889Y-66995215D01*
X206350318Y-67159793D01*
X206294989Y-67202459D01*
X206225375Y-67208438D01*
X206163580Y-67175833D01*
X206149682Y-67159793D01*
X206030109Y-66995214D01*
X206030105Y-66995209D01*
X205879786Y-66844890D01*
X205707820Y-66719951D01*
X205518414Y-66623444D01*
X205518413Y-66623443D01*
X205518412Y-66623443D01*
X205316243Y-66557754D01*
X205316241Y-66557753D01*
X205316240Y-66557753D01*
X205154957Y-66532208D01*
X205106287Y-66524500D01*
X204893713Y-66524500D01*
X204845042Y-66532208D01*
X204683760Y-66557753D01*
X204481585Y-66623444D01*
X204292179Y-66719951D01*
X204120215Y-66844889D01*
X203981035Y-66984069D01*
X203919712Y-67017553D01*
X203850020Y-67012569D01*
X203794087Y-66970697D01*
X203787815Y-66961484D01*
X203692315Y-66806654D01*
X203568345Y-66682684D01*
X203419124Y-66590643D01*
X203419119Y-66590641D01*
X203252697Y-66535494D01*
X203252690Y-66535493D01*
X203149986Y-66525000D01*
X202750000Y-66525000D01*
X202750000Y-67595854D01*
X202683343Y-67557370D01*
X202562535Y-67525000D01*
X202437465Y-67525000D01*
X202316657Y-67557370D01*
X202250000Y-67595854D01*
X202250000Y-66525000D01*
X201850028Y-66525000D01*
X201850012Y-66525001D01*
X201747302Y-66535494D01*
X201580880Y-66590641D01*
X201580875Y-66590643D01*
X201431654Y-66682684D01*
X201307684Y-66806654D01*
X201215643Y-66955875D01*
X201215641Y-66955880D01*
X201160494Y-67122302D01*
X201160493Y-67122309D01*
X201150000Y-67225013D01*
X201150000Y-67750000D01*
X202095854Y-67750000D01*
X202057370Y-67816657D01*
X202025000Y-67937465D01*
X202025000Y-68062535D01*
X202057370Y-68183343D01*
X202095854Y-68250000D01*
X201150001Y-68250000D01*
X201150001Y-68774986D01*
X201160494Y-68877697D01*
X201215641Y-69044119D01*
X201215643Y-69044124D01*
X201307684Y-69193345D01*
X201431654Y-69317315D01*
X201580875Y-69409356D01*
X201580880Y-69409358D01*
X201747302Y-69464505D01*
X201747309Y-69464506D01*
X201850019Y-69474999D01*
X202249999Y-69474999D01*
X202250000Y-69474998D01*
X202250000Y-68404145D01*
X202316657Y-68442630D01*
X202437465Y-68475000D01*
X202562535Y-68475000D01*
X202683343Y-68442630D01*
X202750000Y-68404145D01*
X202750000Y-69474999D01*
X203149972Y-69474999D01*
X203149986Y-69474998D01*
X203252697Y-69464505D01*
X203419119Y-69409358D01*
X203419124Y-69409356D01*
X203568345Y-69317315D01*
X203692317Y-69193343D01*
X203787815Y-69038516D01*
X203839763Y-68991791D01*
X203908725Y-68980568D01*
X203972808Y-69008412D01*
X203981035Y-69015931D01*
X204120213Y-69155109D01*
X204292179Y-69280048D01*
X204292181Y-69280049D01*
X204292184Y-69280051D01*
X204481588Y-69376557D01*
X204683757Y-69442246D01*
X204893713Y-69475500D01*
X204893714Y-69475500D01*
X205106286Y-69475500D01*
X205106287Y-69475500D01*
X205316243Y-69442246D01*
X205518412Y-69376557D01*
X205707816Y-69280051D01*
X205729789Y-69264086D01*
X205879786Y-69155109D01*
X205879788Y-69155106D01*
X205879792Y-69155104D01*
X206030104Y-69004792D01*
X206149683Y-68840204D01*
X206205011Y-68797540D01*
X206274624Y-68791561D01*
X206336420Y-68824166D01*
X206350313Y-68840199D01*
X206377557Y-68877697D01*
X206469896Y-69004792D01*
X206620213Y-69155109D01*
X206792179Y-69280048D01*
X206792181Y-69280049D01*
X206792184Y-69280051D01*
X206981588Y-69376557D01*
X207183757Y-69442246D01*
X207393713Y-69475500D01*
X207393714Y-69475500D01*
X207606286Y-69475500D01*
X207606287Y-69475500D01*
X207816243Y-69442246D01*
X208018412Y-69376557D01*
X208207816Y-69280051D01*
X208229789Y-69264086D01*
X208379786Y-69155109D01*
X208379788Y-69155106D01*
X208379792Y-69155104D01*
X208530104Y-69004792D01*
X208649683Y-68840204D01*
X208705011Y-68797540D01*
X208774624Y-68791561D01*
X208836420Y-68824166D01*
X208850313Y-68840199D01*
X208877557Y-68877697D01*
X208969896Y-69004792D01*
X209120213Y-69155109D01*
X209292179Y-69280048D01*
X209292181Y-69280049D01*
X209292184Y-69280051D01*
X209481588Y-69376557D01*
X209683757Y-69442246D01*
X209893713Y-69475500D01*
X209893714Y-69475500D01*
X210106286Y-69475500D01*
X210106287Y-69475500D01*
X210309638Y-69443292D01*
X210378930Y-69452246D01*
X210416716Y-69478084D01*
X214063181Y-73124549D01*
X214096666Y-73185872D01*
X214099500Y-73212230D01*
X214099500Y-107627770D01*
X214079815Y-107694809D01*
X214063181Y-107715451D01*
X198385451Y-123393181D01*
X198324128Y-123426666D01*
X198297770Y-123429500D01*
X191182229Y-123429500D01*
X191115190Y-123409815D01*
X191094548Y-123393181D01*
X188831364Y-121129996D01*
X190914435Y-121129996D01*
X190914435Y-121130003D01*
X190934630Y-121309249D01*
X190934631Y-121309254D01*
X190994211Y-121479523D01*
X191059102Y-121582796D01*
X191090184Y-121632262D01*
X191217738Y-121759816D01*
X191292842Y-121807007D01*
X191336951Y-121834723D01*
X191370478Y-121855789D01*
X191492982Y-121898655D01*
X191540745Y-121915368D01*
X191540750Y-121915369D01*
X191719996Y-121935565D01*
X191720000Y-121935565D01*
X191720004Y-121935565D01*
X191899249Y-121915369D01*
X191899252Y-121915368D01*
X191899255Y-121915368D01*
X192069522Y-121855789D01*
X192222262Y-121759816D01*
X192349816Y-121632262D01*
X192445789Y-121479522D01*
X192445790Y-121479520D01*
X192448812Y-121473245D01*
X192450652Y-121474131D01*
X192473307Y-121438058D01*
X196811371Y-117099994D01*
X199269443Y-117099994D01*
X199269443Y-117100005D01*
X199289634Y-117343683D01*
X199289636Y-117343695D01*
X199349663Y-117580734D01*
X199447888Y-117804666D01*
X199581632Y-118009378D01*
X199747242Y-118189277D01*
X199747252Y-118189286D01*
X199940208Y-118339470D01*
X199940212Y-118339473D01*
X200153378Y-118454833D01*
X200155267Y-118455855D01*
X200155270Y-118455856D01*
X200386541Y-118535251D01*
X200386543Y-118535251D01*
X200386545Y-118535252D01*
X200627737Y-118575500D01*
X200627738Y-118575500D01*
X200872262Y-118575500D01*
X200872263Y-118575500D01*
X201113455Y-118535252D01*
X201344733Y-118455855D01*
X201559788Y-118339473D01*
X201752754Y-118189281D01*
X201918368Y-118009377D01*
X202052111Y-117804667D01*
X202150336Y-117580736D01*
X202210364Y-117343692D01*
X202230557Y-117100000D01*
X202210364Y-116856308D01*
X202150336Y-116619264D01*
X202052111Y-116395333D01*
X201989359Y-116299283D01*
X201918367Y-116190621D01*
X201752757Y-116010722D01*
X201752747Y-116010713D01*
X201559791Y-115860529D01*
X201559787Y-115860526D01*
X201344734Y-115744145D01*
X201344729Y-115744143D01*
X201113458Y-115664748D01*
X200932561Y-115634562D01*
X200872263Y-115624500D01*
X200627737Y-115624500D01*
X200579498Y-115632549D01*
X200386541Y-115664748D01*
X200155270Y-115744143D01*
X200155265Y-115744145D01*
X199940212Y-115860526D01*
X199940208Y-115860529D01*
X199747252Y-116010713D01*
X199747242Y-116010722D01*
X199581632Y-116190621D01*
X199447888Y-116395333D01*
X199349663Y-116619265D01*
X199289636Y-116856304D01*
X199289634Y-116856316D01*
X199269443Y-117099994D01*
X196811371Y-117099994D01*
X200332474Y-113578891D01*
X200393795Y-113545408D01*
X200440557Y-113544265D01*
X200627737Y-113575500D01*
X200627738Y-113575500D01*
X200872262Y-113575500D01*
X200872263Y-113575500D01*
X201113455Y-113535252D01*
X201344733Y-113455855D01*
X201559788Y-113339473D01*
X201752754Y-113189281D01*
X201918368Y-113009377D01*
X202052111Y-112804667D01*
X202150336Y-112580736D01*
X202210364Y-112343692D01*
X202210365Y-112343683D01*
X202230557Y-112100005D01*
X202230557Y-112099994D01*
X202210365Y-111856316D01*
X202210364Y-111856313D01*
X202210364Y-111856308D01*
X202196278Y-111800684D01*
X202198903Y-111730864D01*
X202228801Y-111682565D01*
X204582952Y-109328416D01*
X204649044Y-109229500D01*
X204665084Y-109205495D01*
X204721658Y-109068913D01*
X204750500Y-108923918D01*
X204750500Y-87322229D01*
X204770185Y-87255190D01*
X204786819Y-87234548D01*
X207234548Y-84786819D01*
X207295871Y-84753334D01*
X207322229Y-84750500D01*
X210525501Y-84750500D01*
X210592540Y-84770185D01*
X210638295Y-84822989D01*
X210649501Y-84874500D01*
X210649501Y-84897876D01*
X210655908Y-84957483D01*
X210706202Y-85092328D01*
X210706206Y-85092335D01*
X210792452Y-85207544D01*
X210792455Y-85207547D01*
X210907664Y-85293793D01*
X210907671Y-85293797D01*
X210907674Y-85293798D01*
X211039598Y-85343002D01*
X211095531Y-85384873D01*
X211119949Y-85450337D01*
X211105098Y-85518610D01*
X211083947Y-85546865D01*
X210961886Y-85668926D01*
X210826400Y-85862420D01*
X210826399Y-85862422D01*
X210726570Y-86076507D01*
X210726567Y-86076513D01*
X210669364Y-86289999D01*
X210669364Y-86290000D01*
X211566988Y-86290000D01*
X211534075Y-86347007D01*
X211500000Y-86474174D01*
X211500000Y-86605826D01*
X211534075Y-86732993D01*
X211566988Y-86790000D01*
X210669364Y-86790000D01*
X210726567Y-87003486D01*
X210726570Y-87003492D01*
X210826399Y-87217578D01*
X210961894Y-87411082D01*
X211128917Y-87578105D01*
X211314595Y-87708119D01*
X211358219Y-87762696D01*
X211365412Y-87832195D01*
X211333890Y-87894549D01*
X211314595Y-87911269D01*
X211128594Y-88041508D01*
X210961505Y-88208597D01*
X210825965Y-88402169D01*
X210825964Y-88402171D01*
X210726098Y-88616335D01*
X210726094Y-88616344D01*
X210664938Y-88844586D01*
X210664936Y-88844596D01*
X210644341Y-89079999D01*
X210644341Y-89080000D01*
X210664936Y-89315403D01*
X210664938Y-89315413D01*
X210726094Y-89543655D01*
X210726096Y-89543659D01*
X210726097Y-89543663D01*
X210744096Y-89582262D01*
X210825965Y-89757830D01*
X210825967Y-89757834D01*
X210961501Y-89951395D01*
X210961506Y-89951402D01*
X211128597Y-90118493D01*
X211128603Y-90118498D01*
X211314158Y-90248425D01*
X211357783Y-90303002D01*
X211364977Y-90372500D01*
X211333454Y-90434855D01*
X211314158Y-90451575D01*
X211128597Y-90581505D01*
X210961505Y-90748597D01*
X210825965Y-90942169D01*
X210825964Y-90942171D01*
X210726098Y-91156335D01*
X210726094Y-91156344D01*
X210664938Y-91384586D01*
X210664936Y-91384596D01*
X210644341Y-91619999D01*
X210644341Y-91620000D01*
X210664936Y-91855403D01*
X210664938Y-91855413D01*
X210726094Y-92083655D01*
X210726096Y-92083659D01*
X210726097Y-92083663D01*
X210825965Y-92297830D01*
X210825967Y-92297834D01*
X210961501Y-92491395D01*
X210961506Y-92491402D01*
X211128597Y-92658493D01*
X211128603Y-92658498D01*
X211314158Y-92788425D01*
X211357783Y-92843002D01*
X211364977Y-92912500D01*
X211333454Y-92974855D01*
X211314158Y-92991575D01*
X211128597Y-93121505D01*
X210961505Y-93288597D01*
X210825965Y-93482169D01*
X210825964Y-93482171D01*
X210726098Y-93696335D01*
X210726094Y-93696344D01*
X210664938Y-93924586D01*
X210664936Y-93924596D01*
X210644341Y-94159999D01*
X210644341Y-94160000D01*
X210664936Y-94395403D01*
X210664938Y-94395413D01*
X210726094Y-94623655D01*
X210726096Y-94623659D01*
X210726097Y-94623663D01*
X210825965Y-94837830D01*
X210825967Y-94837834D01*
X210961501Y-95031395D01*
X210961506Y-95031402D01*
X211128597Y-95198493D01*
X211128603Y-95198498D01*
X211314158Y-95328425D01*
X211357783Y-95383002D01*
X211364977Y-95452500D01*
X211333454Y-95514855D01*
X211314158Y-95531575D01*
X211128597Y-95661505D01*
X210961505Y-95828597D01*
X210825965Y-96022169D01*
X210825964Y-96022171D01*
X210726098Y-96236335D01*
X210726094Y-96236344D01*
X210664938Y-96464586D01*
X210664936Y-96464596D01*
X210644341Y-96699999D01*
X210644341Y-96700000D01*
X210664936Y-96935403D01*
X210664938Y-96935413D01*
X210726094Y-97163655D01*
X210726096Y-97163659D01*
X210726097Y-97163663D01*
X210825965Y-97377830D01*
X210825967Y-97377834D01*
X210961501Y-97571395D01*
X210961506Y-97571402D01*
X211128597Y-97738493D01*
X211128603Y-97738498D01*
X211314158Y-97868425D01*
X211357783Y-97923002D01*
X211364977Y-97992500D01*
X211333454Y-98054855D01*
X211314158Y-98071575D01*
X211128597Y-98201505D01*
X210961505Y-98368597D01*
X210825965Y-98562169D01*
X210825964Y-98562171D01*
X210726098Y-98776335D01*
X210726094Y-98776344D01*
X210664938Y-99004586D01*
X210664936Y-99004596D01*
X210644341Y-99239999D01*
X210644341Y-99240000D01*
X210664936Y-99475403D01*
X210664938Y-99475413D01*
X210726094Y-99703655D01*
X210726096Y-99703659D01*
X210726097Y-99703663D01*
X210780260Y-99819815D01*
X210825965Y-99917830D01*
X210825967Y-99917834D01*
X210961501Y-100111395D01*
X210961506Y-100111402D01*
X211128597Y-100278493D01*
X211128603Y-100278498D01*
X211314158Y-100408425D01*
X211357783Y-100463002D01*
X211364977Y-100532500D01*
X211333454Y-100594855D01*
X211314158Y-100611575D01*
X211128597Y-100741505D01*
X210961505Y-100908597D01*
X210825965Y-101102169D01*
X210825964Y-101102171D01*
X210726098Y-101316335D01*
X210726094Y-101316344D01*
X210664938Y-101544586D01*
X210664936Y-101544596D01*
X210644341Y-101779999D01*
X210644341Y-101780000D01*
X210664936Y-102015403D01*
X210664938Y-102015413D01*
X210726094Y-102243655D01*
X210726096Y-102243659D01*
X210726097Y-102243663D01*
X210825965Y-102457830D01*
X210825967Y-102457834D01*
X210934281Y-102612521D01*
X210961505Y-102651401D01*
X211128599Y-102818495D01*
X211225384Y-102886265D01*
X211322165Y-102954032D01*
X211322167Y-102954033D01*
X211322170Y-102954035D01*
X211536337Y-103053903D01*
X211764592Y-103115063D01*
X211952918Y-103131539D01*
X211999999Y-103135659D01*
X212000000Y-103135659D01*
X212000001Y-103135659D01*
X212039234Y-103132226D01*
X212235408Y-103115063D01*
X212463663Y-103053903D01*
X212677830Y-102954035D01*
X212871401Y-102818495D01*
X213038495Y-102651401D01*
X213174035Y-102457830D01*
X213273903Y-102243663D01*
X213335063Y-102015408D01*
X213355659Y-101780000D01*
X213335063Y-101544592D01*
X213273903Y-101316337D01*
X213174035Y-101102171D01*
X213116499Y-101020000D01*
X213038494Y-100908597D01*
X212871402Y-100741506D01*
X212871396Y-100741501D01*
X212685842Y-100611575D01*
X212642217Y-100556998D01*
X212635023Y-100487500D01*
X212666546Y-100425145D01*
X212685842Y-100408425D01*
X212848956Y-100294211D01*
X212871401Y-100278495D01*
X213038495Y-100111401D01*
X213174035Y-99917830D01*
X213273903Y-99703663D01*
X213335063Y-99475408D01*
X213355659Y-99240000D01*
X213335063Y-99004592D01*
X213273903Y-98776337D01*
X213174035Y-98562171D01*
X213063726Y-98404632D01*
X213038494Y-98368597D01*
X212871402Y-98201506D01*
X212871396Y-98201501D01*
X212685842Y-98071575D01*
X212642217Y-98016998D01*
X212635023Y-97947500D01*
X212666546Y-97885145D01*
X212685842Y-97868425D01*
X212708026Y-97852891D01*
X212871401Y-97738495D01*
X213038495Y-97571401D01*
X213174035Y-97377830D01*
X213273903Y-97163663D01*
X213335063Y-96935408D01*
X213355659Y-96700000D01*
X213335063Y-96464592D01*
X213273903Y-96236337D01*
X213174035Y-96022171D01*
X213038495Y-95828599D01*
X213038494Y-95828597D01*
X212871402Y-95661506D01*
X212871396Y-95661501D01*
X212685842Y-95531575D01*
X212642217Y-95476998D01*
X212635023Y-95407500D01*
X212666546Y-95345145D01*
X212685842Y-95328425D01*
X212708026Y-95312891D01*
X212871401Y-95198495D01*
X213038495Y-95031401D01*
X213174035Y-94837830D01*
X213273903Y-94623663D01*
X213335063Y-94395408D01*
X213355659Y-94160000D01*
X213335063Y-93924592D01*
X213273903Y-93696337D01*
X213174035Y-93482171D01*
X213038495Y-93288599D01*
X213038494Y-93288597D01*
X212871402Y-93121506D01*
X212871396Y-93121501D01*
X212685842Y-92991575D01*
X212642217Y-92936998D01*
X212635023Y-92867500D01*
X212666546Y-92805145D01*
X212685842Y-92788425D01*
X212708026Y-92772891D01*
X212871401Y-92658495D01*
X213038495Y-92491401D01*
X213174035Y-92297830D01*
X213273903Y-92083663D01*
X213335063Y-91855408D01*
X213355659Y-91620000D01*
X213335063Y-91384592D01*
X213273903Y-91156337D01*
X213174035Y-90942171D01*
X213038495Y-90748599D01*
X213038494Y-90748597D01*
X212871402Y-90581506D01*
X212871396Y-90581501D01*
X212685842Y-90451575D01*
X212642217Y-90396998D01*
X212635023Y-90327500D01*
X212666546Y-90265145D01*
X212685842Y-90248425D01*
X212708026Y-90232891D01*
X212871401Y-90118495D01*
X213038495Y-89951401D01*
X213174035Y-89757830D01*
X213273903Y-89543663D01*
X213335063Y-89315408D01*
X213355659Y-89080000D01*
X213335063Y-88844592D01*
X213273903Y-88616337D01*
X213174035Y-88402171D01*
X213140454Y-88354211D01*
X213038494Y-88208597D01*
X212871402Y-88041506D01*
X212871401Y-88041505D01*
X212685405Y-87911269D01*
X212641781Y-87856692D01*
X212634588Y-87787193D01*
X212666110Y-87724839D01*
X212685405Y-87708119D01*
X212871082Y-87578105D01*
X213038105Y-87411082D01*
X213173600Y-87217578D01*
X213273429Y-87003492D01*
X213273432Y-87003486D01*
X213330636Y-86790000D01*
X212433012Y-86790000D01*
X212465925Y-86732993D01*
X212500000Y-86605826D01*
X212500000Y-86474174D01*
X212465925Y-86347007D01*
X212433012Y-86290000D01*
X213330636Y-86290000D01*
X213330635Y-86289999D01*
X213273432Y-86076513D01*
X213273429Y-86076507D01*
X213173600Y-85862422D01*
X213173599Y-85862420D01*
X213038113Y-85668926D01*
X213038108Y-85668920D01*
X212916053Y-85546865D01*
X212882568Y-85485542D01*
X212887552Y-85415850D01*
X212929424Y-85359917D01*
X212960400Y-85343002D01*
X213092331Y-85293796D01*
X213207546Y-85207546D01*
X213293796Y-85092331D01*
X213344091Y-84957483D01*
X213350500Y-84897873D01*
X213350499Y-83102128D01*
X213344091Y-83042517D01*
X213293796Y-82907669D01*
X213293795Y-82907668D01*
X213293793Y-82907664D01*
X213207547Y-82792455D01*
X213207544Y-82792452D01*
X213092335Y-82706206D01*
X213092328Y-82706202D01*
X212957482Y-82655908D01*
X212957483Y-82655908D01*
X212897883Y-82649501D01*
X212897881Y-82649500D01*
X212897873Y-82649500D01*
X212897864Y-82649500D01*
X211102129Y-82649500D01*
X211102123Y-82649501D01*
X211042516Y-82655908D01*
X210907671Y-82706202D01*
X210907664Y-82706206D01*
X210792455Y-82792452D01*
X210792452Y-82792455D01*
X210706206Y-82907664D01*
X210706202Y-82907671D01*
X210655908Y-83042517D01*
X210649501Y-83102116D01*
X210649501Y-83102123D01*
X210649500Y-83102135D01*
X210649500Y-83125500D01*
X210629815Y-83192539D01*
X210577011Y-83238294D01*
X210525500Y-83249500D01*
X206886080Y-83249500D01*
X206741092Y-83278340D01*
X206741082Y-83278343D01*
X206604511Y-83334912D01*
X206604498Y-83334919D01*
X206481584Y-83417048D01*
X206481580Y-83417051D01*
X203417050Y-86481580D01*
X203417044Y-86481588D01*
X203367812Y-86555268D01*
X203367813Y-86555269D01*
X203334921Y-86604496D01*
X203334914Y-86604508D01*
X203278342Y-86741086D01*
X203278340Y-86741092D01*
X203249500Y-86886079D01*
X203249500Y-108487769D01*
X203229815Y-108554808D01*
X203213181Y-108575450D01*
X201167525Y-110621105D01*
X201106202Y-110654590D01*
X201059435Y-110655733D01*
X200872263Y-110624500D01*
X200627737Y-110624500D01*
X200579498Y-110632549D01*
X200386541Y-110664748D01*
X200155270Y-110744143D01*
X200155265Y-110744145D01*
X199940212Y-110860526D01*
X199940208Y-110860529D01*
X199747252Y-111010713D01*
X199747242Y-111010722D01*
X199581632Y-111190621D01*
X199447888Y-111395333D01*
X199349663Y-111619265D01*
X199289636Y-111856304D01*
X199289634Y-111856316D01*
X199269443Y-112099994D01*
X199269443Y-112100005D01*
X199289635Y-112343690D01*
X199303721Y-112399315D01*
X199301095Y-112469135D01*
X199271196Y-112517435D01*
X191411939Y-120376692D01*
X191375872Y-120399359D01*
X191376753Y-120401188D01*
X191370483Y-120404207D01*
X191217737Y-120500184D01*
X191090184Y-120627737D01*
X190994211Y-120780476D01*
X190934631Y-120950745D01*
X190934630Y-120950750D01*
X190914435Y-121129996D01*
X188831364Y-121129996D01*
X183068421Y-115367052D01*
X183068414Y-115367046D01*
X182994729Y-115317812D01*
X182994729Y-115317813D01*
X182945491Y-115284913D01*
X182808917Y-115228343D01*
X182808907Y-115228340D01*
X182663920Y-115199500D01*
X182663918Y-115199500D01*
X172971632Y-115199500D01*
X172971626Y-115199500D01*
X172942792Y-115205234D01*
X172942793Y-115205235D01*
X172826643Y-115228339D01*
X172826633Y-115228342D01*
X172746631Y-115261479D01*
X172746632Y-115261480D01*
X172703176Y-115279481D01*
X172690055Y-115284916D01*
X172629362Y-115325470D01*
X172567132Y-115367049D01*
X172567129Y-115367052D01*
X169847050Y-118087130D01*
X169785727Y-118120615D01*
X169748562Y-118122977D01*
X169535552Y-118104341D01*
X169535549Y-118104341D01*
X169300146Y-118124936D01*
X169300136Y-118124938D01*
X169071894Y-118186094D01*
X169071885Y-118186098D01*
X168857721Y-118285964D01*
X168857719Y-118285965D01*
X168664147Y-118421505D01*
X168497055Y-118588597D01*
X168367125Y-118774158D01*
X168312548Y-118817783D01*
X168243050Y-118824977D01*
X168180695Y-118793454D01*
X168163975Y-118774158D01*
X168034044Y-118588597D01*
X167866952Y-118421506D01*
X167866945Y-118421501D01*
X167673384Y-118285967D01*
X167673380Y-118285965D01*
X167673378Y-118285964D01*
X167459213Y-118186097D01*
X167459209Y-118186096D01*
X167459205Y-118186094D01*
X167230963Y-118124938D01*
X167230953Y-118124936D01*
X166995551Y-118104341D01*
X166995548Y-118104341D01*
X166967704Y-118106777D01*
X166899204Y-118093010D01*
X166849021Y-118044395D01*
X166833088Y-117976366D01*
X166856463Y-117910523D01*
X166869216Y-117895568D01*
X168367966Y-116396819D01*
X168429289Y-116363334D01*
X168455647Y-116360500D01*
X169827588Y-116360500D01*
X169894627Y-116380185D01*
X169904903Y-116387555D01*
X169907736Y-116389814D01*
X169907738Y-116389816D01*
X170060478Y-116485789D01*
X170230745Y-116545368D01*
X170230750Y-116545369D01*
X170409996Y-116565565D01*
X170410000Y-116565565D01*
X170410004Y-116565565D01*
X170589249Y-116545369D01*
X170589252Y-116545368D01*
X170589255Y-116545368D01*
X170759522Y-116485789D01*
X170912262Y-116389816D01*
X171039816Y-116262262D01*
X171135789Y-116109522D01*
X171195368Y-115939255D01*
X171195369Y-115939249D01*
X171215565Y-115760003D01*
X171215565Y-115759996D01*
X171195369Y-115580750D01*
X171195368Y-115580745D01*
X171135788Y-115410476D01*
X171042167Y-115261480D01*
X171039816Y-115257738D01*
X170912262Y-115130184D01*
X170759523Y-115034211D01*
X170589254Y-114974631D01*
X170589249Y-114974630D01*
X170410004Y-114954435D01*
X170409996Y-114954435D01*
X170230750Y-114974630D01*
X170230745Y-114974631D01*
X170060476Y-115034211D01*
X169907736Y-115130185D01*
X169904903Y-115132445D01*
X169902724Y-115133334D01*
X169901842Y-115133889D01*
X169901744Y-115133734D01*
X169840217Y-115158855D01*
X169827588Y-115159500D01*
X168234607Y-115159500D01*
X168076493Y-115159500D01*
X167923765Y-115200423D01*
X167923764Y-115200423D01*
X167923762Y-115200424D01*
X167923759Y-115200425D01*
X167888616Y-115220716D01*
X167888614Y-115220717D01*
X167786840Y-115279475D01*
X167786832Y-115279481D01*
X167675028Y-115391286D01*
X164939080Y-118127233D01*
X164877757Y-118160718D01*
X164819306Y-118159327D01*
X164690963Y-118124938D01*
X164690953Y-118124936D01*
X164455551Y-118104341D01*
X164455549Y-118104341D01*
X164220146Y-118124936D01*
X164220136Y-118124938D01*
X164112753Y-118153711D01*
X164042903Y-118152048D01*
X163985041Y-118112885D01*
X163957537Y-118048656D01*
X163969124Y-117979754D01*
X163992976Y-117946258D01*
X167342416Y-114596819D01*
X167403739Y-114563334D01*
X167430097Y-114560500D01*
X178493331Y-114560500D01*
X178493347Y-114560501D01*
X178500943Y-114560501D01*
X178659054Y-114560501D01*
X178659057Y-114560501D01*
X178811785Y-114519577D01*
X178861904Y-114490639D01*
X178948716Y-114440520D01*
X179060520Y-114328716D01*
X179060520Y-114328714D01*
X179070728Y-114318507D01*
X179070730Y-114318504D01*
X180697294Y-112691939D01*
X180758615Y-112658456D01*
X180817066Y-112659847D01*
X180836604Y-112665082D01*
X180913308Y-112685635D01*
X181057144Y-112698219D01*
X181139998Y-112705468D01*
X181140000Y-112705468D01*
X181140002Y-112705468D01*
X181196673Y-112700509D01*
X181366692Y-112685635D01*
X181586496Y-112626739D01*
X181792734Y-112530568D01*
X181979139Y-112400047D01*
X182140047Y-112239139D01*
X182270568Y-112052734D01*
X182297618Y-111994724D01*
X182343790Y-111942285D01*
X182410983Y-111923133D01*
X182477865Y-111943348D01*
X182522382Y-111994725D01*
X182549429Y-112052728D01*
X182549432Y-112052734D01*
X182679954Y-112239141D01*
X182840858Y-112400045D01*
X182840861Y-112400047D01*
X183027266Y-112530568D01*
X183233504Y-112626739D01*
X183233509Y-112626740D01*
X183233511Y-112626741D01*
X183286415Y-112640916D01*
X183453308Y-112685635D01*
X183597144Y-112698219D01*
X183679998Y-112705468D01*
X183680000Y-112705468D01*
X183680002Y-112705468D01*
X183736673Y-112700509D01*
X183906692Y-112685635D01*
X184126496Y-112626739D01*
X184332734Y-112530568D01*
X184519139Y-112400047D01*
X184680047Y-112239139D01*
X184810568Y-112052734D01*
X184837618Y-111994724D01*
X184883790Y-111942285D01*
X184950983Y-111923133D01*
X185017865Y-111943348D01*
X185062382Y-111994725D01*
X185089429Y-112052728D01*
X185089432Y-112052734D01*
X185219954Y-112239141D01*
X185380858Y-112400045D01*
X185380861Y-112400047D01*
X185567266Y-112530568D01*
X185773504Y-112626739D01*
X185773509Y-112626740D01*
X185773511Y-112626741D01*
X185826415Y-112640916D01*
X185993308Y-112685635D01*
X186137144Y-112698219D01*
X186219998Y-112705468D01*
X186220000Y-112705468D01*
X186220002Y-112705468D01*
X186276673Y-112700509D01*
X186446692Y-112685635D01*
X186666496Y-112626739D01*
X186872734Y-112530568D01*
X187059139Y-112400047D01*
X187220047Y-112239139D01*
X187350568Y-112052734D01*
X187377618Y-111994724D01*
X187423790Y-111942285D01*
X187490983Y-111923133D01*
X187557865Y-111943348D01*
X187602382Y-111994725D01*
X187629429Y-112052728D01*
X187629432Y-112052734D01*
X187759954Y-112239141D01*
X187920858Y-112400045D01*
X187920861Y-112400047D01*
X188107266Y-112530568D01*
X188313504Y-112626739D01*
X188313509Y-112626740D01*
X188313511Y-112626741D01*
X188366415Y-112640916D01*
X188533308Y-112685635D01*
X188677144Y-112698219D01*
X188759998Y-112705468D01*
X188760000Y-112705468D01*
X188760002Y-112705468D01*
X188816673Y-112700509D01*
X188986692Y-112685635D01*
X189206496Y-112626739D01*
X189412734Y-112530568D01*
X189599139Y-112400047D01*
X189760047Y-112239139D01*
X189890568Y-112052734D01*
X189917618Y-111994724D01*
X189963790Y-111942285D01*
X190030983Y-111923133D01*
X190097865Y-111943348D01*
X190142382Y-111994725D01*
X190169429Y-112052728D01*
X190169432Y-112052734D01*
X190299954Y-112239141D01*
X190460858Y-112400045D01*
X190460861Y-112400047D01*
X190647266Y-112530568D01*
X190853504Y-112626739D01*
X190853509Y-112626740D01*
X190853511Y-112626741D01*
X190906415Y-112640916D01*
X191073308Y-112685635D01*
X191217144Y-112698219D01*
X191299998Y-112705468D01*
X191300000Y-112705468D01*
X191300002Y-112705468D01*
X191356673Y-112700509D01*
X191526692Y-112685635D01*
X191746496Y-112626739D01*
X191952734Y-112530568D01*
X192139139Y-112400047D01*
X192300047Y-112239139D01*
X192430568Y-112052734D01*
X192457618Y-111994724D01*
X192503790Y-111942285D01*
X192570983Y-111923133D01*
X192637865Y-111943348D01*
X192682382Y-111994725D01*
X192709429Y-112052728D01*
X192709432Y-112052734D01*
X192839954Y-112239141D01*
X193000858Y-112400045D01*
X193000861Y-112400047D01*
X193187266Y-112530568D01*
X193393504Y-112626739D01*
X193393509Y-112626740D01*
X193393511Y-112626741D01*
X193446415Y-112640916D01*
X193613308Y-112685635D01*
X193757144Y-112698219D01*
X193839998Y-112705468D01*
X193840000Y-112705468D01*
X193840002Y-112705468D01*
X193896673Y-112700509D01*
X194066692Y-112685635D01*
X194286496Y-112626739D01*
X194492734Y-112530568D01*
X194679139Y-112400047D01*
X194840047Y-112239139D01*
X194970568Y-112052734D01*
X195066739Y-111846496D01*
X195125635Y-111626692D01*
X195145468Y-111400000D01*
X195125635Y-111173308D01*
X195066739Y-110953504D01*
X194970568Y-110747266D01*
X194840047Y-110560861D01*
X194840045Y-110560858D01*
X194679141Y-110399954D01*
X194492734Y-110269432D01*
X194492732Y-110269431D01*
X194286497Y-110173261D01*
X194286491Y-110173259D01*
X194162861Y-110140133D01*
X194107274Y-110108039D01*
X190037590Y-106038355D01*
X190037588Y-106038352D01*
X189918717Y-105919481D01*
X189918716Y-105919480D01*
X189831904Y-105869360D01*
X189831904Y-105869359D01*
X189831900Y-105869358D01*
X189781785Y-105840423D01*
X189629057Y-105799499D01*
X189470943Y-105799499D01*
X189463347Y-105799499D01*
X189463331Y-105799500D01*
X147286670Y-105799500D01*
X147286654Y-105799499D01*
X147279058Y-105799499D01*
X147120943Y-105799499D01*
X147044579Y-105819961D01*
X146968214Y-105840423D01*
X146968209Y-105840426D01*
X146831290Y-105919475D01*
X146831282Y-105919481D01*
X143289479Y-109461284D01*
X143267647Y-109499099D01*
X143258419Y-109515084D01*
X143210423Y-109598215D01*
X143169499Y-109750943D01*
X143169499Y-109750945D01*
X143169499Y-109919046D01*
X143169500Y-109919059D01*
X143169500Y-119087465D01*
X143149815Y-119154504D01*
X143097011Y-119200259D01*
X143058102Y-119210823D01*
X143017202Y-119215001D01*
X143017200Y-119215001D01*
X142850668Y-119270185D01*
X142850663Y-119270187D01*
X142701342Y-119362289D01*
X142577289Y-119486342D01*
X142485187Y-119635663D01*
X142485185Y-119635668D01*
X142465389Y-119695408D01*
X142430001Y-119802203D01*
X142430001Y-119802204D01*
X142430000Y-119802204D01*
X142419500Y-119904983D01*
X142419500Y-121455001D01*
X142419501Y-121455018D01*
X142430000Y-121557796D01*
X142430001Y-121557799D01*
X142485185Y-121724331D01*
X142485187Y-121724336D01*
X142500604Y-121749331D01*
X142577288Y-121873656D01*
X142701344Y-121997712D01*
X142850666Y-122089814D01*
X143017203Y-122144999D01*
X143119991Y-122155500D01*
X144420008Y-122155499D01*
X144522797Y-122144999D01*
X144689334Y-122089814D01*
X144838656Y-121997712D01*
X144962712Y-121873656D01*
X145054814Y-121724334D01*
X145054814Y-121724331D01*
X145058178Y-121718879D01*
X145110126Y-121672154D01*
X145179088Y-121660931D01*
X145243170Y-121688774D01*
X145251398Y-121696294D01*
X145390213Y-121835109D01*
X145562179Y-121960048D01*
X145562181Y-121960049D01*
X145562184Y-121960051D01*
X145751588Y-122056557D01*
X145953757Y-122122246D01*
X146163713Y-122155500D01*
X146163714Y-122155500D01*
X146376286Y-122155500D01*
X146376287Y-122155500D01*
X146586243Y-122122246D01*
X146788412Y-122056557D01*
X146977816Y-121960051D01*
X147039316Y-121915369D01*
X147149786Y-121835109D01*
X147149788Y-121835106D01*
X147149792Y-121835104D01*
X147300104Y-121684792D01*
X147419683Y-121520204D01*
X147475011Y-121477540D01*
X147544624Y-121471561D01*
X147606420Y-121504166D01*
X147620313Y-121520199D01*
X147678220Y-121599901D01*
X147742760Y-121688734D01*
X147741888Y-121689367D01*
X147768357Y-121748401D01*
X147769500Y-121765199D01*
X147769500Y-122168544D01*
X147807946Y-122361828D01*
X147807949Y-122361837D01*
X147810800Y-122368719D01*
X147883366Y-122543911D01*
X147883371Y-122543920D01*
X147992860Y-122707781D01*
X147992863Y-122707785D01*
X148136537Y-122851459D01*
X148136559Y-122851479D01*
X151394735Y-126109655D01*
X151394764Y-126109686D01*
X151537214Y-126252136D01*
X151537218Y-126252139D01*
X151701079Y-126361628D01*
X151701092Y-126361635D01*
X151829833Y-126414961D01*
X151872744Y-126432735D01*
X151883164Y-126437051D01*
X151979812Y-126456275D01*
X152028135Y-126465887D01*
X152076458Y-126475500D01*
X152076459Y-126475500D01*
X175973542Y-126475500D01*
X175992870Y-126471655D01*
X176070188Y-126456275D01*
X176166836Y-126437051D01*
X176220165Y-126414961D01*
X176348914Y-126361632D01*
X176512782Y-126252139D01*
X176652139Y-126112782D01*
X176652139Y-126112780D01*
X176662347Y-126102573D01*
X176662348Y-126102570D01*
X179127140Y-123637781D01*
X179236632Y-123473914D01*
X179312052Y-123291835D01*
X179350501Y-123098540D01*
X179350501Y-122901459D01*
X179350501Y-122896349D01*
X179350500Y-122896323D01*
X179350500Y-118701457D01*
X179331275Y-118604813D01*
X179331275Y-118604812D01*
X179312051Y-118508164D01*
X179307735Y-118497744D01*
X179289961Y-118454833D01*
X179236635Y-118326092D01*
X179236628Y-118326079D01*
X179145222Y-118189281D01*
X179127138Y-118162216D01*
X179127135Y-118162213D01*
X177877101Y-116912181D01*
X177843616Y-116850858D01*
X177848600Y-116781167D01*
X177890471Y-116725233D01*
X177955936Y-116700816D01*
X177964782Y-116700500D01*
X182227770Y-116700500D01*
X182294809Y-116720185D01*
X182315451Y-116736819D01*
X186331133Y-120752500D01*
X190341585Y-124762952D01*
X190368839Y-124781162D01*
X190382374Y-124790206D01*
X190464498Y-124845080D01*
X190464511Y-124845087D01*
X190521079Y-124868518D01*
X190521080Y-124868518D01*
X190601088Y-124901659D01*
X190717241Y-124924763D01*
X190736468Y-124928587D01*
X190746081Y-124930500D01*
X190746082Y-124930500D01*
X198733920Y-124930500D01*
X198831462Y-124911096D01*
X198878913Y-124901658D01*
X199015495Y-124845084D01*
X199064729Y-124812186D01*
X199138416Y-124762952D01*
X200101368Y-123800000D01*
X210694626Y-123800000D01*
X210714100Y-124084708D01*
X210714100Y-124084712D01*
X210714101Y-124084714D01*
X210719460Y-124110501D01*
X210772163Y-124364127D01*
X210772164Y-124364130D01*
X210867729Y-124633022D01*
X210867728Y-124633022D01*
X210977610Y-124845084D01*
X210999024Y-124886411D01*
X211163597Y-125119557D01*
X211163601Y-125119561D01*
X211163601Y-125119562D01*
X211358386Y-125328125D01*
X211482202Y-125428856D01*
X211579755Y-125508222D01*
X211579757Y-125508223D01*
X211579758Y-125508224D01*
X211823590Y-125656502D01*
X211823595Y-125656504D01*
X211954465Y-125713348D01*
X212085342Y-125770196D01*
X212360139Y-125847190D01*
X212608694Y-125881354D01*
X212642859Y-125886050D01*
X212642860Y-125886050D01*
X212928241Y-125886050D01*
X212958721Y-125881860D01*
X213210961Y-125847190D01*
X213485758Y-125770196D01*
X213747511Y-125656501D01*
X213991345Y-125508222D01*
X214212717Y-125328122D01*
X214407503Y-125119557D01*
X214572076Y-124886411D01*
X214703369Y-124633026D01*
X214798937Y-124364125D01*
X214856999Y-124084714D01*
X214876474Y-123800000D01*
X214856999Y-123515286D01*
X214798937Y-123235875D01*
X214755951Y-123114926D01*
X214703370Y-122966977D01*
X214703371Y-122966977D01*
X214631723Y-122828703D01*
X214572076Y-122713589D01*
X214407503Y-122480443D01*
X214407498Y-122480437D01*
X214212713Y-122271874D01*
X214019660Y-122114814D01*
X213991345Y-122091778D01*
X213991343Y-122091777D01*
X213991341Y-122091775D01*
X213747509Y-121943497D01*
X213747504Y-121943495D01*
X213485763Y-121829806D01*
X213485761Y-121829805D01*
X213485758Y-121829804D01*
X213357169Y-121793775D01*
X213210967Y-121752811D01*
X213210962Y-121752810D01*
X213210961Y-121752810D01*
X213003802Y-121724336D01*
X212928241Y-121713950D01*
X212928240Y-121713950D01*
X212642860Y-121713950D01*
X212642859Y-121713950D01*
X212360139Y-121752810D01*
X212360132Y-121752811D01*
X212166706Y-121807007D01*
X212085342Y-121829804D01*
X212085339Y-121829804D01*
X212085336Y-121829806D01*
X212085335Y-121829806D01*
X211823595Y-121943495D01*
X211823590Y-121943497D01*
X211579758Y-122091775D01*
X211358386Y-122271874D01*
X211163601Y-122480437D01*
X211163601Y-122480438D01*
X210999024Y-122713588D01*
X210867729Y-122966977D01*
X210772164Y-123235869D01*
X210772163Y-123235872D01*
X210714100Y-123515291D01*
X210694626Y-123800000D01*
X200101368Y-123800000D01*
X206801372Y-117099994D01*
X211769443Y-117099994D01*
X211769443Y-117100005D01*
X211789634Y-117343683D01*
X211789636Y-117343695D01*
X211849663Y-117580734D01*
X211947888Y-117804666D01*
X212081632Y-118009378D01*
X212247242Y-118189277D01*
X212247252Y-118189286D01*
X212440208Y-118339470D01*
X212440212Y-118339473D01*
X212653378Y-118454833D01*
X212655267Y-118455855D01*
X212655270Y-118455856D01*
X212886541Y-118535251D01*
X212886543Y-118535251D01*
X212886545Y-118535252D01*
X213127737Y-118575500D01*
X213127738Y-118575500D01*
X213372262Y-118575500D01*
X213372263Y-118575500D01*
X213613455Y-118535252D01*
X213844733Y-118455855D01*
X214059788Y-118339473D01*
X214252754Y-118189281D01*
X214418368Y-118009377D01*
X214552111Y-117804667D01*
X214650336Y-117580736D01*
X214710364Y-117343692D01*
X214730557Y-117100000D01*
X214710364Y-116856308D01*
X214650336Y-116619264D01*
X214552111Y-116395333D01*
X214489359Y-116299283D01*
X214418367Y-116190621D01*
X214252757Y-116010722D01*
X214252747Y-116010713D01*
X214059791Y-115860529D01*
X214059787Y-115860526D01*
X213844734Y-115744145D01*
X213844729Y-115744143D01*
X213613458Y-115664748D01*
X213432561Y-115634562D01*
X213372263Y-115624500D01*
X213127737Y-115624500D01*
X213079498Y-115632549D01*
X212886541Y-115664748D01*
X212655270Y-115744143D01*
X212655265Y-115744145D01*
X212440212Y-115860526D01*
X212440208Y-115860529D01*
X212247252Y-116010713D01*
X212247242Y-116010722D01*
X212081632Y-116190621D01*
X211947888Y-116395333D01*
X211849663Y-116619265D01*
X211789636Y-116856304D01*
X211789634Y-116856316D01*
X211769443Y-117099994D01*
X206801372Y-117099994D01*
X211588452Y-112312913D01*
X211649773Y-112279430D01*
X211719465Y-112284414D01*
X211775398Y-112326286D01*
X211796337Y-112370155D01*
X211849663Y-112580735D01*
X211947888Y-112804666D01*
X212081632Y-113009378D01*
X212247242Y-113189277D01*
X212247246Y-113189281D01*
X212440212Y-113339473D01*
X212655267Y-113455855D01*
X212655270Y-113455856D01*
X212886541Y-113535251D01*
X212886543Y-113535251D01*
X212886545Y-113535252D01*
X213127737Y-113575500D01*
X213127738Y-113575500D01*
X213372262Y-113575500D01*
X213372263Y-113575500D01*
X213613455Y-113535252D01*
X213844733Y-113455855D01*
X214059788Y-113339473D01*
X214252754Y-113189281D01*
X214418368Y-113009377D01*
X214552111Y-112804667D01*
X214650336Y-112580736D01*
X214710364Y-112343692D01*
X214710365Y-112343683D01*
X214730557Y-112100005D01*
X214730557Y-112099994D01*
X214710365Y-111856316D01*
X214710363Y-111856307D01*
X214650336Y-111619264D01*
X214552111Y-111395333D01*
X214418368Y-111190623D01*
X214418367Y-111190621D01*
X214252757Y-111010722D01*
X214252747Y-111010713D01*
X214059791Y-110860529D01*
X214059787Y-110860526D01*
X213844734Y-110744145D01*
X213844729Y-110744143D01*
X213613458Y-110664748D01*
X213544759Y-110653284D01*
X213528118Y-110650507D01*
X213465234Y-110620057D01*
X213428795Y-110560443D01*
X213430370Y-110490591D01*
X213460846Y-110440520D01*
X215432952Y-108468415D01*
X215470182Y-108412696D01*
X215515084Y-108345495D01*
X215546489Y-108269676D01*
X215590330Y-108215274D01*
X215656624Y-108193209D01*
X215724323Y-108210488D01*
X215771934Y-108261625D01*
X215785050Y-108317130D01*
X215785050Y-126675500D01*
X215765365Y-126742539D01*
X215712561Y-126788294D01*
X215661050Y-126799500D01*
X123410050Y-126799500D01*
X123343011Y-126779815D01*
X123297256Y-126727011D01*
X123286050Y-126675500D01*
X123286050Y-123800000D01*
X124194626Y-123800000D01*
X124214100Y-124084708D01*
X124214100Y-124084712D01*
X124214101Y-124084714D01*
X124219460Y-124110501D01*
X124272163Y-124364127D01*
X124272164Y-124364130D01*
X124367729Y-124633022D01*
X124367728Y-124633022D01*
X124477610Y-124845084D01*
X124499024Y-124886411D01*
X124663597Y-125119557D01*
X124663601Y-125119561D01*
X124663601Y-125119562D01*
X124858386Y-125328125D01*
X124982202Y-125428856D01*
X125079755Y-125508222D01*
X125079757Y-125508223D01*
X125079758Y-125508224D01*
X125323590Y-125656502D01*
X125323595Y-125656504D01*
X125454465Y-125713348D01*
X125585342Y-125770196D01*
X125860139Y-125847190D01*
X126108694Y-125881354D01*
X126142859Y-125886050D01*
X126142860Y-125886050D01*
X126428241Y-125886050D01*
X126458721Y-125881860D01*
X126710961Y-125847190D01*
X126985758Y-125770196D01*
X127247511Y-125656501D01*
X127491345Y-125508222D01*
X127712717Y-125328122D01*
X127907503Y-125119557D01*
X128072076Y-124886411D01*
X128203369Y-124633026D01*
X128298937Y-124364125D01*
X128356999Y-124084714D01*
X128376474Y-123800000D01*
X128356999Y-123515286D01*
X128298937Y-123235875D01*
X128255951Y-123114926D01*
X128203370Y-122966977D01*
X128203371Y-122966977D01*
X128131723Y-122828703D01*
X128072076Y-122713589D01*
X127907503Y-122480443D01*
X127907498Y-122480437D01*
X127712713Y-122271874D01*
X127519660Y-122114814D01*
X127491345Y-122091778D01*
X127491343Y-122091777D01*
X127491341Y-122091775D01*
X127247509Y-121943497D01*
X127247504Y-121943495D01*
X126985763Y-121829806D01*
X126985761Y-121829805D01*
X126985758Y-121829804D01*
X126857169Y-121793775D01*
X126710967Y-121752811D01*
X126710962Y-121752810D01*
X126710961Y-121752810D01*
X126503802Y-121724336D01*
X126428241Y-121713950D01*
X126428240Y-121713950D01*
X126142860Y-121713950D01*
X126142859Y-121713950D01*
X125860139Y-121752810D01*
X125860132Y-121752811D01*
X125666706Y-121807007D01*
X125585342Y-121829804D01*
X125585339Y-121829804D01*
X125585336Y-121829806D01*
X125585335Y-121829806D01*
X125323595Y-121943495D01*
X125323590Y-121943497D01*
X125079758Y-122091775D01*
X124858386Y-122271874D01*
X124663601Y-122480437D01*
X124663601Y-122480438D01*
X124499024Y-122713588D01*
X124367729Y-122966977D01*
X124272164Y-123235869D01*
X124272163Y-123235872D01*
X124214100Y-123515291D01*
X124194626Y-123800000D01*
X123286050Y-123800000D01*
X123286050Y-119879983D01*
X131149500Y-119879983D01*
X131149500Y-121480001D01*
X131149501Y-121480018D01*
X131160000Y-121582796D01*
X131160001Y-121582799D01*
X131215185Y-121749331D01*
X131215187Y-121749336D01*
X131250069Y-121805888D01*
X131307288Y-121898656D01*
X131431344Y-122022712D01*
X131580666Y-122114814D01*
X131747203Y-122169999D01*
X131849991Y-122180500D01*
X133150008Y-122180499D01*
X133252797Y-122169999D01*
X133419334Y-122114814D01*
X133568656Y-122022712D01*
X133692712Y-121898656D01*
X133784814Y-121749334D01*
X133784814Y-121749331D01*
X133788448Y-121743441D01*
X133840395Y-121696716D01*
X133909358Y-121685493D01*
X133973440Y-121713336D01*
X133981668Y-121720856D01*
X134120535Y-121859723D01*
X134120540Y-121859727D01*
X134292442Y-121984620D01*
X134481782Y-122081095D01*
X134683871Y-122146757D01*
X134750000Y-122157231D01*
X134750000Y-121113012D01*
X134807007Y-121145925D01*
X134934174Y-121180000D01*
X135065826Y-121180000D01*
X135192993Y-121145925D01*
X135250000Y-121113012D01*
X135250000Y-122157230D01*
X135316126Y-122146757D01*
X135316129Y-122146757D01*
X135518217Y-122081095D01*
X135707557Y-121984620D01*
X135879459Y-121859727D01*
X135879464Y-121859723D01*
X136029723Y-121709464D01*
X136029727Y-121709459D01*
X136154620Y-121537557D01*
X136251095Y-121348217D01*
X136316757Y-121146130D01*
X136316757Y-121146127D01*
X136350000Y-120936246D01*
X136350000Y-120930000D01*
X135433012Y-120930000D01*
X135465925Y-120872993D01*
X135500000Y-120745826D01*
X135500000Y-120614174D01*
X135465925Y-120487007D01*
X135433012Y-120430000D01*
X136350000Y-120430000D01*
X136350000Y-120423753D01*
X136316757Y-120213872D01*
X136316757Y-120213869D01*
X136251095Y-120011782D01*
X136154620Y-119822442D01*
X136029727Y-119650540D01*
X136029723Y-119650535D01*
X135879464Y-119500276D01*
X135879459Y-119500272D01*
X135707557Y-119375379D01*
X135518215Y-119278903D01*
X135316124Y-119213241D01*
X135250000Y-119202768D01*
X135250000Y-120246988D01*
X135192993Y-120214075D01*
X135065826Y-120180000D01*
X134934174Y-120180000D01*
X134807007Y-120214075D01*
X134750000Y-120246988D01*
X134750000Y-119202768D01*
X134749999Y-119202768D01*
X134683875Y-119213241D01*
X134481784Y-119278903D01*
X134292442Y-119375379D01*
X134120541Y-119500271D01*
X133981668Y-119639144D01*
X133920345Y-119672628D01*
X133850653Y-119667644D01*
X133794720Y-119625772D01*
X133788448Y-119616558D01*
X133732484Y-119525826D01*
X133692712Y-119461344D01*
X133568656Y-119337288D01*
X133459864Y-119270185D01*
X133419336Y-119245187D01*
X133419331Y-119245185D01*
X133398375Y-119238241D01*
X133252797Y-119190001D01*
X133252795Y-119190000D01*
X133150010Y-119179500D01*
X131849998Y-119179500D01*
X131849981Y-119179501D01*
X131747203Y-119190000D01*
X131747200Y-119190001D01*
X131580668Y-119245185D01*
X131580663Y-119245187D01*
X131431342Y-119337289D01*
X131307289Y-119461342D01*
X131215187Y-119610663D01*
X131215185Y-119610668D01*
X131193689Y-119675540D01*
X131160001Y-119777203D01*
X131160001Y-119777204D01*
X131160000Y-119777204D01*
X131149500Y-119879983D01*
X123286050Y-119879983D01*
X123286050Y-103899996D01*
X166044435Y-103899996D01*
X166044435Y-103900003D01*
X166064630Y-104079249D01*
X166064631Y-104079254D01*
X166124211Y-104249523D01*
X166220184Y-104402262D01*
X166347738Y-104529816D01*
X166500478Y-104625789D01*
X166670745Y-104685368D01*
X166670750Y-104685369D01*
X166849996Y-104705565D01*
X166850000Y-104705565D01*
X166850004Y-104705565D01*
X167029249Y-104685369D01*
X167029252Y-104685368D01*
X167029255Y-104685368D01*
X167199522Y-104625789D01*
X167352262Y-104529816D01*
X167352267Y-104529810D01*
X167355097Y-104527555D01*
X167357275Y-104526665D01*
X167358158Y-104526111D01*
X167358255Y-104526265D01*
X167419783Y-104501145D01*
X167432412Y-104500500D01*
X196303331Y-104500500D01*
X196303347Y-104500501D01*
X196310943Y-104500501D01*
X196469054Y-104500501D01*
X196469057Y-104500501D01*
X196621785Y-104459577D01*
X196671904Y-104430639D01*
X196758716Y-104380520D01*
X196870520Y-104268716D01*
X196870520Y-104268714D01*
X196880728Y-104258507D01*
X196880730Y-104258504D01*
X201118535Y-100020698D01*
X201179856Y-99987215D01*
X201192311Y-99985163D01*
X201279255Y-99975368D01*
X201449522Y-99915789D01*
X201602262Y-99819816D01*
X201729816Y-99692262D01*
X201825789Y-99539522D01*
X201885368Y-99369255D01*
X201885369Y-99369249D01*
X201905565Y-99190003D01*
X201905565Y-99189996D01*
X201885369Y-99010750D01*
X201885368Y-99010745D01*
X201825788Y-98840476D01*
X201729815Y-98687737D01*
X201602262Y-98560184D01*
X201449523Y-98464211D01*
X201279254Y-98404631D01*
X201279249Y-98404630D01*
X201100004Y-98384435D01*
X201099996Y-98384435D01*
X200920750Y-98404630D01*
X200920745Y-98404631D01*
X200750476Y-98464211D01*
X200597737Y-98560184D01*
X200470184Y-98687737D01*
X200374210Y-98840478D01*
X200314630Y-99010750D01*
X200304837Y-99097668D01*
X200277770Y-99162082D01*
X200269298Y-99171465D01*
X196177584Y-103263181D01*
X196116261Y-103296666D01*
X196089903Y-103299500D01*
X167432412Y-103299500D01*
X167365373Y-103279815D01*
X167355097Y-103272445D01*
X167352263Y-103270185D01*
X167352262Y-103270184D01*
X167295496Y-103234515D01*
X167199523Y-103174211D01*
X167029254Y-103114631D01*
X167029249Y-103114630D01*
X166850004Y-103094435D01*
X166849996Y-103094435D01*
X166670750Y-103114630D01*
X166670745Y-103114631D01*
X166500476Y-103174211D01*
X166347737Y-103270184D01*
X166220184Y-103397737D01*
X166124211Y-103550476D01*
X166064631Y-103720745D01*
X166064630Y-103720750D01*
X166044435Y-103899996D01*
X123286050Y-103899996D01*
X123286050Y-101019996D01*
X169434435Y-101019996D01*
X169434435Y-101020003D01*
X169454630Y-101199249D01*
X169454631Y-101199254D01*
X169514211Y-101369523D01*
X169596524Y-101500522D01*
X169610184Y-101522262D01*
X169737738Y-101649816D01*
X169890478Y-101745789D01*
X170060745Y-101805368D01*
X170060750Y-101805369D01*
X170239996Y-101825565D01*
X170240000Y-101825565D01*
X170240004Y-101825565D01*
X170419249Y-101805369D01*
X170419252Y-101805368D01*
X170419255Y-101805368D01*
X170589522Y-101745789D01*
X170742262Y-101649816D01*
X170742267Y-101649810D01*
X170745097Y-101647555D01*
X170747275Y-101646665D01*
X170748158Y-101646111D01*
X170748255Y-101646265D01*
X170809783Y-101621145D01*
X170822412Y-101620500D01*
X186843331Y-101620500D01*
X186843347Y-101620501D01*
X186850943Y-101620501D01*
X187009054Y-101620501D01*
X187009057Y-101620501D01*
X187161785Y-101579577D01*
X187222380Y-101544592D01*
X187298716Y-101500520D01*
X187410520Y-101388716D01*
X187410520Y-101388714D01*
X187420724Y-101378511D01*
X187420728Y-101378506D01*
X198888535Y-89910698D01*
X198949856Y-89877215D01*
X198962311Y-89875163D01*
X199049255Y-89865368D01*
X199219522Y-89805789D01*
X199372262Y-89709816D01*
X199499816Y-89582262D01*
X199595789Y-89429522D01*
X199655368Y-89259255D01*
X199675565Y-89080000D01*
X199672419Y-89052082D01*
X199655369Y-88900750D01*
X199655368Y-88900745D01*
X199595788Y-88730476D01*
X199499815Y-88577737D01*
X199372262Y-88450184D01*
X199219523Y-88354211D01*
X199049254Y-88294631D01*
X199049249Y-88294630D01*
X198870004Y-88274435D01*
X198869996Y-88274435D01*
X198690750Y-88294630D01*
X198690745Y-88294631D01*
X198520476Y-88354211D01*
X198367737Y-88450184D01*
X198240184Y-88577737D01*
X198144210Y-88730478D01*
X198084630Y-88900750D01*
X198074837Y-88987668D01*
X198047770Y-89052082D01*
X198039298Y-89061465D01*
X186717584Y-100383181D01*
X186656261Y-100416666D01*
X186629903Y-100419500D01*
X170822412Y-100419500D01*
X170755373Y-100399815D01*
X170745097Y-100392445D01*
X170742263Y-100390185D01*
X170742262Y-100390184D01*
X170685496Y-100354515D01*
X170589523Y-100294211D01*
X170419254Y-100234631D01*
X170419249Y-100234630D01*
X170240004Y-100214435D01*
X170239996Y-100214435D01*
X170060750Y-100234630D01*
X170060745Y-100234631D01*
X169890476Y-100294211D01*
X169737737Y-100390184D01*
X169610184Y-100517737D01*
X169514211Y-100670476D01*
X169454631Y-100840745D01*
X169454630Y-100840750D01*
X169434435Y-101019996D01*
X123286050Y-101019996D01*
X123286050Y-61800000D01*
X124194626Y-61800000D01*
X124214100Y-62084708D01*
X124214100Y-62084712D01*
X124214101Y-62084714D01*
X124225580Y-62139953D01*
X124272163Y-62364127D01*
X124272164Y-62364130D01*
X124367729Y-62633022D01*
X124367728Y-62633022D01*
X124443034Y-62778355D01*
X124499024Y-62886411D01*
X124663597Y-63119557D01*
X124663601Y-63119561D01*
X124663601Y-63119562D01*
X124858386Y-63328125D01*
X124934441Y-63390000D01*
X125079755Y-63508222D01*
X125079757Y-63508223D01*
X125079758Y-63508224D01*
X125323590Y-63656502D01*
X125323595Y-63656504D01*
X125385397Y-63683348D01*
X125585342Y-63770196D01*
X125860139Y-63847190D01*
X126108694Y-63881354D01*
X126142859Y-63886050D01*
X126142860Y-63886050D01*
X126428241Y-63886050D01*
X126458721Y-63881860D01*
X126710961Y-63847190D01*
X126985758Y-63770196D01*
X127247511Y-63656501D01*
X127491345Y-63508222D01*
X127712717Y-63328122D01*
X127907503Y-63119557D01*
X128072076Y-62886411D01*
X128203369Y-62633026D01*
X128298937Y-62364125D01*
X128313897Y-62292135D01*
X156979500Y-62292135D01*
X156979500Y-63987870D01*
X156979501Y-63987876D01*
X156985908Y-64047483D01*
X157036202Y-64182328D01*
X157036206Y-64182335D01*
X157122452Y-64297544D01*
X157122455Y-64297547D01*
X157237664Y-64383793D01*
X157237671Y-64383797D01*
X157372517Y-64434091D01*
X157372516Y-64434091D01*
X157379444Y-64434835D01*
X157432127Y-64440500D01*
X159127872Y-64440499D01*
X159187483Y-64434091D01*
X159322331Y-64383796D01*
X159437546Y-64297546D01*
X159523796Y-64182331D01*
X159574091Y-64047483D01*
X159577862Y-64012401D01*
X159604599Y-63947855D01*
X159661990Y-63908006D01*
X159731816Y-63905511D01*
X159791905Y-63941163D01*
X159802726Y-63954536D01*
X159819956Y-63979143D01*
X159980858Y-64140045D01*
X159980861Y-64140047D01*
X160167266Y-64270568D01*
X160373504Y-64366739D01*
X160593308Y-64425635D01*
X160735361Y-64438063D01*
X160819998Y-64445468D01*
X160820000Y-64445468D01*
X160820002Y-64445468D01*
X160876807Y-64440498D01*
X161046692Y-64425635D01*
X161266496Y-64366739D01*
X161472734Y-64270568D01*
X161659139Y-64140047D01*
X161820047Y-63979139D01*
X161950568Y-63792734D01*
X161977618Y-63734724D01*
X162023790Y-63682285D01*
X162090983Y-63663133D01*
X162157865Y-63683348D01*
X162202382Y-63734725D01*
X162229429Y-63792728D01*
X162229432Y-63792734D01*
X162359954Y-63979141D01*
X162520858Y-64140045D01*
X162520861Y-64140047D01*
X162707266Y-64270568D01*
X162913504Y-64366739D01*
X163133308Y-64425635D01*
X163275361Y-64438063D01*
X163359998Y-64445468D01*
X163360000Y-64445468D01*
X163360002Y-64445468D01*
X163416807Y-64440498D01*
X163586692Y-64425635D01*
X163806496Y-64366739D01*
X164012734Y-64270568D01*
X164199139Y-64140047D01*
X164360047Y-63979139D01*
X164490568Y-63792734D01*
X164517618Y-63734724D01*
X164563790Y-63682285D01*
X164630983Y-63663133D01*
X164697865Y-63683348D01*
X164742382Y-63734725D01*
X164769429Y-63792728D01*
X164769432Y-63792734D01*
X164899954Y-63979141D01*
X165060858Y-64140045D01*
X165060861Y-64140047D01*
X165247266Y-64270568D01*
X165453504Y-64366739D01*
X165673308Y-64425635D01*
X165815361Y-64438063D01*
X165899998Y-64445468D01*
X165900000Y-64445468D01*
X165900002Y-64445468D01*
X165956807Y-64440498D01*
X166126692Y-64425635D01*
X166346496Y-64366739D01*
X166552734Y-64270568D01*
X166739139Y-64140047D01*
X166900047Y-63979139D01*
X167030568Y-63792734D01*
X167057618Y-63734724D01*
X167103790Y-63682285D01*
X167170983Y-63663133D01*
X167237865Y-63683348D01*
X167282382Y-63734725D01*
X167309429Y-63792728D01*
X167309432Y-63792734D01*
X167439954Y-63979141D01*
X167600858Y-64140045D01*
X167600861Y-64140047D01*
X167787266Y-64270568D01*
X167993504Y-64366739D01*
X168213308Y-64425635D01*
X168355361Y-64438063D01*
X168439998Y-64445468D01*
X168440000Y-64445468D01*
X168440002Y-64445468D01*
X168496807Y-64440498D01*
X168666692Y-64425635D01*
X168886496Y-64366739D01*
X169092734Y-64270568D01*
X169279139Y-64140047D01*
X169440047Y-63979139D01*
X169570568Y-63792734D01*
X169597895Y-63734129D01*
X169644064Y-63681695D01*
X169711257Y-63662542D01*
X169778139Y-63682757D01*
X169822657Y-63734133D01*
X169849865Y-63792482D01*
X169980342Y-63978820D01*
X170141179Y-64139657D01*
X170327517Y-64270134D01*
X170533673Y-64366265D01*
X170533682Y-64366269D01*
X170729999Y-64418872D01*
X170730000Y-64418871D01*
X170730000Y-63573012D01*
X170787007Y-63605925D01*
X170914174Y-63640000D01*
X171045826Y-63640000D01*
X171172993Y-63605925D01*
X171230000Y-63573012D01*
X171230000Y-64418872D01*
X171426317Y-64366269D01*
X171426326Y-64366265D01*
X171632482Y-64270134D01*
X171818820Y-64139657D01*
X171979657Y-63978820D01*
X172110134Y-63792481D01*
X172110135Y-63792479D01*
X172137618Y-63733543D01*
X172183790Y-63681103D01*
X172250983Y-63661951D01*
X172317864Y-63682166D01*
X172362382Y-63733543D01*
X172389864Y-63792479D01*
X172389865Y-63792481D01*
X172520342Y-63978820D01*
X172681179Y-64139657D01*
X172867517Y-64270134D01*
X173073673Y-64366265D01*
X173073682Y-64366269D01*
X173269999Y-64418872D01*
X173270000Y-64418871D01*
X173270000Y-63573012D01*
X173327007Y-63605925D01*
X173454174Y-63640000D01*
X173585826Y-63640000D01*
X173712993Y-63605925D01*
X173770000Y-63573012D01*
X173770000Y-64418872D01*
X173966317Y-64366269D01*
X173966326Y-64366265D01*
X174172482Y-64270134D01*
X174358820Y-64139657D01*
X174519657Y-63978820D01*
X174650132Y-63792484D01*
X174677341Y-63734134D01*
X174723513Y-63681695D01*
X174790707Y-63662542D01*
X174857588Y-63682757D01*
X174902106Y-63734133D01*
X174929431Y-63792732D01*
X174929432Y-63792734D01*
X175059954Y-63979141D01*
X175220858Y-64140045D01*
X175220861Y-64140047D01*
X175407266Y-64270568D01*
X175613504Y-64366739D01*
X175833308Y-64425635D01*
X175975361Y-64438063D01*
X176059998Y-64445468D01*
X176060000Y-64445468D01*
X176060002Y-64445468D01*
X176116807Y-64440498D01*
X176286692Y-64425635D01*
X176506496Y-64366739D01*
X176712734Y-64270568D01*
X176899139Y-64140047D01*
X177060047Y-63979139D01*
X177190568Y-63792734D01*
X177286739Y-63586496D01*
X177345635Y-63366692D01*
X177365468Y-63140000D01*
X177363679Y-63119557D01*
X177345635Y-62913313D01*
X177345635Y-62913308D01*
X177286739Y-62693504D01*
X177190568Y-62487266D01*
X177060047Y-62300861D01*
X177060045Y-62300858D01*
X176899141Y-62139954D01*
X176712734Y-62009432D01*
X176712732Y-62009431D01*
X176506497Y-61913261D01*
X176506488Y-61913258D01*
X176286697Y-61854366D01*
X176286693Y-61854365D01*
X176286692Y-61854365D01*
X176286691Y-61854364D01*
X176286686Y-61854364D01*
X176060002Y-61834532D01*
X176059998Y-61834532D01*
X175833313Y-61854364D01*
X175833302Y-61854366D01*
X175613511Y-61913258D01*
X175613502Y-61913261D01*
X175407267Y-62009431D01*
X175407265Y-62009432D01*
X175220858Y-62139954D01*
X175059954Y-62300858D01*
X174929882Y-62486623D01*
X174929432Y-62487266D01*
X174929315Y-62487518D01*
X174902106Y-62545867D01*
X174855933Y-62598306D01*
X174788739Y-62617457D01*
X174721858Y-62597241D01*
X174677342Y-62545865D01*
X174650135Y-62487520D01*
X174650134Y-62487518D01*
X174519657Y-62301179D01*
X174358820Y-62140342D01*
X174172482Y-62009865D01*
X173966328Y-61913734D01*
X173770000Y-61861127D01*
X173770000Y-62706988D01*
X173712993Y-62674075D01*
X173585826Y-62640000D01*
X173454174Y-62640000D01*
X173327007Y-62674075D01*
X173270000Y-62706988D01*
X173270000Y-61861127D01*
X173073671Y-61913734D01*
X172867517Y-62009865D01*
X172681179Y-62140342D01*
X172520342Y-62301179D01*
X172389865Y-62487517D01*
X172362382Y-62546457D01*
X172316210Y-62598896D01*
X172249016Y-62618048D01*
X172182135Y-62597832D01*
X172137618Y-62546457D01*
X172110134Y-62487517D01*
X171979657Y-62301179D01*
X171818820Y-62140342D01*
X171632482Y-62009865D01*
X171426328Y-61913734D01*
X171230000Y-61861127D01*
X171230000Y-62706988D01*
X171172993Y-62674075D01*
X171045826Y-62640000D01*
X170914174Y-62640000D01*
X170787007Y-62674075D01*
X170730000Y-62706988D01*
X170730000Y-61861127D01*
X170533671Y-61913734D01*
X170327517Y-62009865D01*
X170141179Y-62140342D01*
X169980342Y-62301179D01*
X169849867Y-62487515D01*
X169822657Y-62545867D01*
X169776484Y-62598306D01*
X169709290Y-62617457D01*
X169642409Y-62597241D01*
X169597893Y-62545865D01*
X169594924Y-62539499D01*
X169570568Y-62487266D01*
X169440047Y-62300861D01*
X169440045Y-62300858D01*
X169279141Y-62139954D01*
X169092734Y-62009432D01*
X169092732Y-62009431D01*
X168886497Y-61913261D01*
X168886488Y-61913258D01*
X168666697Y-61854366D01*
X168666693Y-61854365D01*
X168666692Y-61854365D01*
X168666691Y-61854364D01*
X168666686Y-61854364D01*
X168440002Y-61834532D01*
X168439998Y-61834532D01*
X168213313Y-61854364D01*
X168213302Y-61854366D01*
X167993511Y-61913258D01*
X167993502Y-61913261D01*
X167787267Y-62009431D01*
X167787265Y-62009432D01*
X167600858Y-62139954D01*
X167439954Y-62300858D01*
X167309432Y-62487265D01*
X167309431Y-62487267D01*
X167282382Y-62545275D01*
X167236209Y-62597714D01*
X167169016Y-62616866D01*
X167102135Y-62596650D01*
X167057618Y-62545275D01*
X167030686Y-62487520D01*
X167030568Y-62487266D01*
X166900047Y-62300861D01*
X166900045Y-62300858D01*
X166739141Y-62139954D01*
X166552734Y-62009432D01*
X166552732Y-62009431D01*
X166346497Y-61913261D01*
X166346488Y-61913258D01*
X166126697Y-61854366D01*
X166126693Y-61854365D01*
X166126692Y-61854365D01*
X166126691Y-61854364D01*
X166126686Y-61854364D01*
X165900002Y-61834532D01*
X165899998Y-61834532D01*
X165673313Y-61854364D01*
X165673302Y-61854366D01*
X165453511Y-61913258D01*
X165453502Y-61913261D01*
X165247267Y-62009431D01*
X165247265Y-62009432D01*
X165060858Y-62139954D01*
X164899954Y-62300858D01*
X164769432Y-62487265D01*
X164769431Y-62487267D01*
X164742382Y-62545275D01*
X164696209Y-62597714D01*
X164629016Y-62616866D01*
X164562135Y-62596650D01*
X164517618Y-62545275D01*
X164490686Y-62487520D01*
X164490568Y-62487266D01*
X164360047Y-62300861D01*
X164360045Y-62300858D01*
X164199141Y-62139954D01*
X164012734Y-62009432D01*
X164012732Y-62009431D01*
X163806497Y-61913261D01*
X163806488Y-61913258D01*
X163586697Y-61854366D01*
X163586693Y-61854365D01*
X163586692Y-61854365D01*
X163586691Y-61854364D01*
X163586686Y-61854364D01*
X163360002Y-61834532D01*
X163359998Y-61834532D01*
X163133313Y-61854364D01*
X163133302Y-61854366D01*
X162913511Y-61913258D01*
X162913502Y-61913261D01*
X162707267Y-62009431D01*
X162707265Y-62009432D01*
X162520858Y-62139954D01*
X162359954Y-62300858D01*
X162229432Y-62487265D01*
X162229431Y-62487267D01*
X162202382Y-62545275D01*
X162156209Y-62597714D01*
X162089016Y-62616866D01*
X162022135Y-62596650D01*
X161977618Y-62545275D01*
X161950686Y-62487520D01*
X161950568Y-62487266D01*
X161820047Y-62300861D01*
X161820045Y-62300858D01*
X161659141Y-62139954D01*
X161472734Y-62009432D01*
X161472732Y-62009431D01*
X161266497Y-61913261D01*
X161266488Y-61913258D01*
X161046697Y-61854366D01*
X161046693Y-61854365D01*
X161046692Y-61854365D01*
X161046691Y-61854364D01*
X161046686Y-61854364D01*
X160820002Y-61834532D01*
X160819998Y-61834532D01*
X160593313Y-61854364D01*
X160593302Y-61854366D01*
X160373511Y-61913258D01*
X160373502Y-61913261D01*
X160167267Y-62009431D01*
X160167265Y-62009432D01*
X159980858Y-62139954D01*
X159819954Y-62300858D01*
X159802725Y-62325464D01*
X159748147Y-62369088D01*
X159678648Y-62376280D01*
X159616294Y-62344757D01*
X159580882Y-62284526D01*
X159577861Y-62267591D01*
X159574091Y-62232516D01*
X159523797Y-62097671D01*
X159523793Y-62097664D01*
X159437547Y-61982455D01*
X159437544Y-61982452D01*
X159322335Y-61896206D01*
X159322328Y-61896202D01*
X159187482Y-61845908D01*
X159187483Y-61845908D01*
X159127883Y-61839501D01*
X159127881Y-61839500D01*
X159127873Y-61839500D01*
X159127864Y-61839500D01*
X157432129Y-61839500D01*
X157432123Y-61839501D01*
X157372516Y-61845908D01*
X157237671Y-61896202D01*
X157237664Y-61896206D01*
X157122455Y-61982452D01*
X157122452Y-61982455D01*
X157036206Y-62097664D01*
X157036202Y-62097671D01*
X156985908Y-62232517D01*
X156979501Y-62292116D01*
X156979500Y-62292135D01*
X128313897Y-62292135D01*
X128356999Y-62084714D01*
X128376474Y-61800000D01*
X210694626Y-61800000D01*
X210714100Y-62084708D01*
X210714100Y-62084712D01*
X210714101Y-62084714D01*
X210725580Y-62139953D01*
X210772163Y-62364127D01*
X210772164Y-62364130D01*
X210867729Y-62633022D01*
X210867728Y-62633022D01*
X210943034Y-62778355D01*
X210999024Y-62886411D01*
X211163597Y-63119557D01*
X211163601Y-63119561D01*
X211163601Y-63119562D01*
X211358386Y-63328125D01*
X211434441Y-63390000D01*
X211579755Y-63508222D01*
X211579757Y-63508223D01*
X211579758Y-63508224D01*
X211823590Y-63656502D01*
X211823595Y-63656504D01*
X211885397Y-63683348D01*
X212085342Y-63770196D01*
X212360139Y-63847190D01*
X212608694Y-63881354D01*
X212642859Y-63886050D01*
X212642860Y-63886050D01*
X212928241Y-63886050D01*
X212958721Y-63881860D01*
X213210961Y-63847190D01*
X213485758Y-63770196D01*
X213747511Y-63656501D01*
X213991345Y-63508222D01*
X214212717Y-63328122D01*
X214407503Y-63119557D01*
X214572076Y-62886411D01*
X214703369Y-62633026D01*
X214798937Y-62364125D01*
X214856999Y-62084714D01*
X214876474Y-61800000D01*
X214856999Y-61515286D01*
X214798937Y-61235875D01*
X214703370Y-60966977D01*
X214703371Y-60966977D01*
X214631723Y-60828703D01*
X214572076Y-60713589D01*
X214407503Y-60480443D01*
X214407498Y-60480437D01*
X214212713Y-60271874D01*
X213991341Y-60091775D01*
X213747509Y-59943497D01*
X213747504Y-59943495D01*
X213485763Y-59829806D01*
X213485761Y-59829805D01*
X213485758Y-59829804D01*
X213357169Y-59793775D01*
X213210967Y-59752811D01*
X213210962Y-59752810D01*
X213210961Y-59752810D01*
X213069600Y-59733380D01*
X212928241Y-59713950D01*
X212928240Y-59713950D01*
X212642860Y-59713950D01*
X212642859Y-59713950D01*
X212360139Y-59752810D01*
X212360132Y-59752811D01*
X212153786Y-59810626D01*
X212085342Y-59829804D01*
X212085339Y-59829804D01*
X212085336Y-59829806D01*
X212085335Y-59829806D01*
X211823595Y-59943495D01*
X211823590Y-59943497D01*
X211579758Y-60091775D01*
X211358386Y-60271874D01*
X211163601Y-60480437D01*
X211163601Y-60480438D01*
X210999024Y-60713588D01*
X210867729Y-60966977D01*
X210772164Y-61235869D01*
X210772163Y-61235872D01*
X210714100Y-61515291D01*
X210694626Y-61800000D01*
X128376474Y-61800000D01*
X128356999Y-61515286D01*
X128298937Y-61235875D01*
X128203370Y-60966977D01*
X128203371Y-60966977D01*
X128131723Y-60828703D01*
X128072076Y-60713589D01*
X127907503Y-60480443D01*
X127907498Y-60480437D01*
X127712713Y-60271874D01*
X127491341Y-60091775D01*
X127247509Y-59943497D01*
X127247504Y-59943495D01*
X126985763Y-59829806D01*
X126985761Y-59829805D01*
X126985758Y-59829804D01*
X126857169Y-59793775D01*
X126710967Y-59752811D01*
X126710962Y-59752810D01*
X126710961Y-59752810D01*
X126569600Y-59733380D01*
X126428241Y-59713950D01*
X126428240Y-59713950D01*
X126142860Y-59713950D01*
X126142859Y-59713950D01*
X125860139Y-59752810D01*
X125860132Y-59752811D01*
X125653786Y-59810626D01*
X125585342Y-59829804D01*
X125585339Y-59829804D01*
X125585336Y-59829806D01*
X125585335Y-59829806D01*
X125323595Y-59943495D01*
X125323590Y-59943497D01*
X125079758Y-60091775D01*
X124858386Y-60271874D01*
X124663601Y-60480437D01*
X124663601Y-60480438D01*
X124499024Y-60713588D01*
X124367729Y-60966977D01*
X124272164Y-61235869D01*
X124272163Y-61235872D01*
X124214100Y-61515291D01*
X124194626Y-61800000D01*
X123286050Y-61800000D01*
X123286050Y-58924500D01*
X123305735Y-58857461D01*
X123358539Y-58811706D01*
X123410050Y-58800500D01*
X215661050Y-58800500D01*
X215728089Y-58820185D01*
G37*
%TD.AperFunction*%
%TA.AperFunction,Conductor*%
G36*
X186866942Y-107820185D02*
G01*
X186887584Y-107836819D01*
X188941336Y-109890571D01*
X188974821Y-109951894D01*
X188969837Y-110021586D01*
X188927965Y-110077519D01*
X188862501Y-110101936D01*
X188842848Y-110101780D01*
X188760002Y-110094532D01*
X188759998Y-110094532D01*
X188533313Y-110114364D01*
X188533302Y-110114366D01*
X188313511Y-110173258D01*
X188313502Y-110173261D01*
X188107267Y-110269431D01*
X188107265Y-110269432D01*
X187920858Y-110399954D01*
X187759954Y-110560858D01*
X187629432Y-110747265D01*
X187629431Y-110747267D01*
X187602382Y-110805275D01*
X187556209Y-110857714D01*
X187489016Y-110876866D01*
X187422135Y-110856650D01*
X187377618Y-110805275D01*
X187350686Y-110747520D01*
X187350568Y-110747266D01*
X187220047Y-110560861D01*
X187220045Y-110560858D01*
X187059141Y-110399954D01*
X186872734Y-110269432D01*
X186872732Y-110269431D01*
X186666497Y-110173261D01*
X186666488Y-110173258D01*
X186446697Y-110114366D01*
X186446693Y-110114365D01*
X186446692Y-110114365D01*
X186446691Y-110114364D01*
X186446686Y-110114364D01*
X186220002Y-110094532D01*
X186219998Y-110094532D01*
X185993313Y-110114364D01*
X185993302Y-110114366D01*
X185773511Y-110173258D01*
X185773502Y-110173261D01*
X185567267Y-110269431D01*
X185567265Y-110269432D01*
X185380858Y-110399954D01*
X185219954Y-110560858D01*
X185089432Y-110747265D01*
X185089431Y-110747267D01*
X185062382Y-110805275D01*
X185016209Y-110857714D01*
X184949016Y-110876866D01*
X184882135Y-110856650D01*
X184837618Y-110805275D01*
X184810686Y-110747520D01*
X184810568Y-110747266D01*
X184680047Y-110560861D01*
X184680045Y-110560858D01*
X184519141Y-110399954D01*
X184332734Y-110269432D01*
X184332732Y-110269431D01*
X184126497Y-110173261D01*
X184126488Y-110173258D01*
X183906697Y-110114366D01*
X183906693Y-110114365D01*
X183906692Y-110114365D01*
X183906691Y-110114364D01*
X183906686Y-110114364D01*
X183680002Y-110094532D01*
X183679998Y-110094532D01*
X183453313Y-110114364D01*
X183453302Y-110114366D01*
X183233511Y-110173258D01*
X183233502Y-110173261D01*
X183027267Y-110269431D01*
X183027265Y-110269432D01*
X182840858Y-110399954D01*
X182679954Y-110560858D01*
X182549432Y-110747265D01*
X182549431Y-110747267D01*
X182522382Y-110805275D01*
X182476209Y-110857714D01*
X182409016Y-110876866D01*
X182342135Y-110856650D01*
X182297618Y-110805275D01*
X182270686Y-110747520D01*
X182270568Y-110747266D01*
X182140047Y-110560861D01*
X182140045Y-110560858D01*
X181979141Y-110399954D01*
X181792734Y-110269432D01*
X181792732Y-110269431D01*
X181586497Y-110173261D01*
X181586488Y-110173258D01*
X181366697Y-110114366D01*
X181366693Y-110114365D01*
X181366692Y-110114365D01*
X181366691Y-110114364D01*
X181366686Y-110114364D01*
X181140002Y-110094532D01*
X181139998Y-110094532D01*
X180913313Y-110114364D01*
X180913302Y-110114366D01*
X180693511Y-110173258D01*
X180693502Y-110173261D01*
X180487267Y-110269431D01*
X180487265Y-110269432D01*
X180300858Y-110399954D01*
X180139954Y-110560858D01*
X180009432Y-110747265D01*
X180009431Y-110747267D01*
X179982382Y-110805275D01*
X179936209Y-110857714D01*
X179869016Y-110876866D01*
X179802135Y-110856650D01*
X179757618Y-110805275D01*
X179730686Y-110747520D01*
X179730568Y-110747266D01*
X179600047Y-110560861D01*
X179600045Y-110560858D01*
X179439141Y-110399954D01*
X179252734Y-110269432D01*
X179252732Y-110269431D01*
X179046497Y-110173261D01*
X179046488Y-110173258D01*
X178826697Y-110114366D01*
X178826693Y-110114365D01*
X178826692Y-110114365D01*
X178826691Y-110114364D01*
X178826686Y-110114364D01*
X178600002Y-110094532D01*
X178599998Y-110094532D01*
X178373313Y-110114364D01*
X178373302Y-110114366D01*
X178153511Y-110173258D01*
X178153502Y-110173261D01*
X177947267Y-110269431D01*
X177947265Y-110269432D01*
X177760858Y-110399954D01*
X177599954Y-110560858D01*
X177469432Y-110747265D01*
X177469431Y-110747267D01*
X177442382Y-110805275D01*
X177396209Y-110857714D01*
X177329016Y-110876866D01*
X177262135Y-110856650D01*
X177217618Y-110805275D01*
X177190686Y-110747520D01*
X177190568Y-110747266D01*
X177060047Y-110560861D01*
X177060045Y-110560858D01*
X176899141Y-110399954D01*
X176712734Y-110269432D01*
X176712732Y-110269431D01*
X176506497Y-110173261D01*
X176506488Y-110173258D01*
X176286697Y-110114366D01*
X176286693Y-110114365D01*
X176286692Y-110114365D01*
X176286691Y-110114364D01*
X176286686Y-110114364D01*
X176060002Y-110094532D01*
X176059998Y-110094532D01*
X175833313Y-110114364D01*
X175833302Y-110114366D01*
X175613511Y-110173258D01*
X175613502Y-110173261D01*
X175407267Y-110269431D01*
X175407265Y-110269432D01*
X175220858Y-110399954D01*
X175059954Y-110560858D01*
X174929432Y-110747265D01*
X174929431Y-110747267D01*
X174833261Y-110953502D01*
X174833258Y-110953511D01*
X174774366Y-111173302D01*
X174774364Y-111173313D01*
X174754532Y-111399998D01*
X174754532Y-111400001D01*
X174774364Y-111626686D01*
X174774366Y-111626697D01*
X174833258Y-111846488D01*
X174833261Y-111846497D01*
X174929431Y-112052732D01*
X174929432Y-112052734D01*
X175059954Y-112239141D01*
X175220858Y-112400045D01*
X175220861Y-112400047D01*
X175407266Y-112530568D01*
X175613504Y-112626739D01*
X175613509Y-112626740D01*
X175613511Y-112626741D01*
X175666415Y-112640916D01*
X175833308Y-112685635D01*
X175977144Y-112698219D01*
X176059998Y-112705468D01*
X176059999Y-112705468D01*
X176059999Y-112705467D01*
X176060000Y-112705468D01*
X176142849Y-112698219D01*
X176211347Y-112711985D01*
X176261530Y-112760600D01*
X176277464Y-112828628D01*
X176254089Y-112894472D01*
X176241339Y-112909425D01*
X176227587Y-112923178D01*
X176166266Y-112956665D01*
X176139903Y-112959500D01*
X165030940Y-112959500D01*
X164990019Y-112970464D01*
X164990019Y-112970465D01*
X164952751Y-112980451D01*
X164878214Y-113000423D01*
X164878209Y-113000426D01*
X164741290Y-113079475D01*
X164741282Y-113079481D01*
X161579481Y-116241282D01*
X161579479Y-116241285D01*
X161545996Y-116299281D01*
X161545995Y-116299283D01*
X161500423Y-116378214D01*
X161500423Y-116378215D01*
X161459499Y-116530943D01*
X161459499Y-116530945D01*
X161459499Y-116699046D01*
X161459500Y-116699059D01*
X161459500Y-121883330D01*
X161459499Y-121883348D01*
X161459499Y-122049054D01*
X161459498Y-122049054D01*
X161488021Y-122155500D01*
X161500423Y-122201785D01*
X161519788Y-122235326D01*
X161529358Y-122251900D01*
X161529359Y-122251904D01*
X161529360Y-122251904D01*
X161540889Y-122271874D01*
X161579479Y-122338714D01*
X161579481Y-122338717D01*
X161698349Y-122457585D01*
X161698355Y-122457590D01*
X163115139Y-123874374D01*
X163115149Y-123874385D01*
X163119479Y-123878715D01*
X163119480Y-123878716D01*
X163231284Y-123990520D01*
X163318095Y-124040639D01*
X163318097Y-124040641D01*
X163356151Y-124062611D01*
X163368215Y-124069577D01*
X163520943Y-124110501D01*
X163520946Y-124110501D01*
X163686653Y-124110501D01*
X163686669Y-124110500D01*
X165398881Y-124110500D01*
X165398897Y-124110501D01*
X165406493Y-124110501D01*
X165564604Y-124110501D01*
X165564607Y-124110501D01*
X165717335Y-124069577D01*
X165767454Y-124040639D01*
X165854266Y-123990520D01*
X165966070Y-123878716D01*
X165966070Y-123878714D01*
X165976278Y-123868507D01*
X165976280Y-123868504D01*
X166512020Y-123332763D01*
X166573341Y-123299280D01*
X166631788Y-123300670D01*
X166760142Y-123335063D01*
X166948468Y-123351539D01*
X166995549Y-123355659D01*
X166995550Y-123355659D01*
X166995551Y-123355659D01*
X167034784Y-123352226D01*
X167230958Y-123335063D01*
X167459213Y-123273903D01*
X167673380Y-123174035D01*
X167866951Y-123038495D01*
X168034045Y-122871401D01*
X168163975Y-122685842D01*
X168218552Y-122642217D01*
X168288050Y-122635023D01*
X168350405Y-122666546D01*
X168367125Y-122685842D01*
X168480066Y-122847139D01*
X168497055Y-122871401D01*
X168664149Y-123038495D01*
X168707725Y-123069007D01*
X168857715Y-123174032D01*
X168857717Y-123174033D01*
X168857720Y-123174035D01*
X169071887Y-123273903D01*
X169300142Y-123335063D01*
X169488468Y-123351539D01*
X169535549Y-123355659D01*
X169535550Y-123355659D01*
X169535551Y-123355659D01*
X169574784Y-123352226D01*
X169770958Y-123335063D01*
X169999213Y-123273903D01*
X170213380Y-123174035D01*
X170406951Y-123038495D01*
X170574045Y-122871401D01*
X170704282Y-122685403D01*
X170758857Y-122641780D01*
X170828355Y-122634586D01*
X170890710Y-122666109D01*
X170907430Y-122685405D01*
X170960623Y-122761373D01*
X171592587Y-122129409D01*
X171609625Y-122192993D01*
X171675451Y-122307007D01*
X171768543Y-122400099D01*
X171882557Y-122465925D01*
X171946140Y-122482962D01*
X171314175Y-123114925D01*
X171397971Y-123173599D01*
X171612057Y-123273429D01*
X171612066Y-123273433D01*
X171840223Y-123334567D01*
X171840234Y-123334569D01*
X172075548Y-123355157D01*
X172075552Y-123355157D01*
X172310865Y-123334569D01*
X172310876Y-123334567D01*
X172539033Y-123273433D01*
X172539042Y-123273429D01*
X172753128Y-123173600D01*
X172753132Y-123173598D01*
X172836923Y-123114926D01*
X172836923Y-123114925D01*
X172204959Y-122482962D01*
X172268543Y-122465925D01*
X172382557Y-122400099D01*
X172475649Y-122307007D01*
X172541475Y-122192993D01*
X172558512Y-122129410D01*
X173190475Y-122761373D01*
X173243975Y-122684968D01*
X173298552Y-122641344D01*
X173368051Y-122634151D01*
X173430405Y-122665673D01*
X173447126Y-122684969D01*
X173500623Y-122761372D01*
X174132587Y-122129409D01*
X174149625Y-122192993D01*
X174215451Y-122307007D01*
X174308543Y-122400099D01*
X174422557Y-122465925D01*
X174486140Y-122482962D01*
X173854175Y-123114925D01*
X173937971Y-123173599D01*
X174152057Y-123273429D01*
X174152066Y-123273433D01*
X174380223Y-123334567D01*
X174380234Y-123334569D01*
X174615548Y-123355157D01*
X174615552Y-123355157D01*
X174850865Y-123334569D01*
X174850876Y-123334567D01*
X175079033Y-123273433D01*
X175079042Y-123273429D01*
X175293128Y-123173600D01*
X175293132Y-123173598D01*
X175376923Y-123114926D01*
X175376923Y-123114925D01*
X174744959Y-122482962D01*
X174808543Y-122465925D01*
X174922557Y-122400099D01*
X175015649Y-122307007D01*
X175081475Y-122192993D01*
X175098512Y-122129410D01*
X175730475Y-122761373D01*
X175730476Y-122761373D01*
X175789148Y-122677582D01*
X175789150Y-122677578D01*
X175888979Y-122463492D01*
X175888983Y-122463483D01*
X175950117Y-122235326D01*
X175950119Y-122235315D01*
X175970707Y-122000001D01*
X175970707Y-121999998D01*
X175950119Y-121764684D01*
X175950117Y-121764673D01*
X175888983Y-121536516D01*
X175888979Y-121536507D01*
X175789150Y-121322423D01*
X175789149Y-121322421D01*
X175730475Y-121238626D01*
X175730475Y-121238625D01*
X175098512Y-121870589D01*
X175081475Y-121807007D01*
X175015649Y-121692993D01*
X174922557Y-121599901D01*
X174808543Y-121534075D01*
X174744960Y-121517037D01*
X175376923Y-120885073D01*
X175300519Y-120831576D01*
X175256894Y-120776999D01*
X175249700Y-120707501D01*
X175281222Y-120645146D01*
X175300518Y-120628425D01*
X175376923Y-120574925D01*
X174744959Y-119942962D01*
X174808543Y-119925925D01*
X174922557Y-119860099D01*
X175015649Y-119767007D01*
X175081475Y-119652993D01*
X175098512Y-119589410D01*
X175730475Y-120221373D01*
X175730476Y-120221373D01*
X175789148Y-120137582D01*
X175789150Y-120137578D01*
X175888979Y-119923492D01*
X175888983Y-119923483D01*
X175950117Y-119695326D01*
X175950119Y-119695315D01*
X175970707Y-119460001D01*
X175970707Y-119459998D01*
X175950119Y-119224684D01*
X175950117Y-119224673D01*
X175888983Y-118996516D01*
X175888979Y-118996507D01*
X175789150Y-118782423D01*
X175789149Y-118782421D01*
X175730475Y-118698626D01*
X175730475Y-118698625D01*
X175098512Y-119330589D01*
X175081475Y-119267007D01*
X175015649Y-119152993D01*
X174922557Y-119059901D01*
X174808543Y-118994075D01*
X174744958Y-118977037D01*
X175376923Y-118345073D01*
X175376923Y-118345072D01*
X175293133Y-118286402D01*
X175293129Y-118286400D01*
X175079042Y-118186570D01*
X175079027Y-118186564D01*
X175037953Y-118175558D01*
X174978293Y-118139193D01*
X174947765Y-118076345D01*
X174956060Y-118006970D01*
X174982367Y-117968102D01*
X175004216Y-117946255D01*
X175013656Y-117936816D01*
X175074980Y-117903333D01*
X175101334Y-117900500D01*
X175984218Y-117900500D01*
X176051257Y-117920185D01*
X176071899Y-117936819D01*
X177313181Y-119178101D01*
X177346666Y-119239424D01*
X177349500Y-119265782D01*
X177349500Y-122534217D01*
X177329815Y-122601256D01*
X177313181Y-122621898D01*
X175496899Y-124438181D01*
X175435576Y-124471666D01*
X175409218Y-124474500D01*
X152640782Y-124474500D01*
X152573743Y-124454815D01*
X152553101Y-124438181D01*
X149874825Y-121759905D01*
X149841340Y-121698582D01*
X149846324Y-121628890D01*
X149862183Y-121599346D01*
X149919991Y-121519779D01*
X149975322Y-121477115D01*
X150044935Y-121471136D01*
X150106730Y-121503742D01*
X150120627Y-121519781D01*
X150240272Y-121684459D01*
X150240276Y-121684464D01*
X150390535Y-121834723D01*
X150390540Y-121834727D01*
X150562442Y-121959620D01*
X150751782Y-122056095D01*
X150953871Y-122121757D01*
X151020000Y-122132231D01*
X151020000Y-121084145D01*
X151086657Y-121122630D01*
X151207465Y-121155000D01*
X151332535Y-121155000D01*
X151453343Y-121122630D01*
X151520000Y-121084145D01*
X151520000Y-122132230D01*
X151586126Y-122121757D01*
X151586129Y-122121757D01*
X151788217Y-122056095D01*
X151977557Y-121959620D01*
X152149459Y-121834727D01*
X152149464Y-121834723D01*
X152299721Y-121684466D01*
X152419371Y-121519781D01*
X152474701Y-121477115D01*
X152544314Y-121471136D01*
X152606110Y-121503741D01*
X152620008Y-121519781D01*
X152739890Y-121684785D01*
X152739894Y-121684790D01*
X152890213Y-121835109D01*
X153062179Y-121960048D01*
X153062181Y-121960049D01*
X153062184Y-121960051D01*
X153251588Y-122056557D01*
X153453757Y-122122246D01*
X153663713Y-122155500D01*
X153663714Y-122155500D01*
X153876286Y-122155500D01*
X153876287Y-122155500D01*
X154086243Y-122122246D01*
X154288412Y-122056557D01*
X154477816Y-121960051D01*
X154539316Y-121915369D01*
X154649786Y-121835109D01*
X154649788Y-121835106D01*
X154649792Y-121835104D01*
X154800104Y-121684792D01*
X154800106Y-121684788D01*
X154800109Y-121684786D01*
X154925048Y-121512820D01*
X154925047Y-121512820D01*
X154925051Y-121512816D01*
X155021557Y-121323412D01*
X155087246Y-121121243D01*
X155120500Y-120911287D01*
X155120500Y-120448713D01*
X155087246Y-120238757D01*
X155021557Y-120036588D01*
X154925051Y-119847184D01*
X154925049Y-119847181D01*
X154925048Y-119847179D01*
X154800109Y-119675213D01*
X154649786Y-119524890D01*
X154477820Y-119399951D01*
X154288414Y-119303444D01*
X154288413Y-119303443D01*
X154288412Y-119303443D01*
X154086243Y-119237754D01*
X154086241Y-119237753D01*
X154086240Y-119237753D01*
X153924957Y-119212208D01*
X153876287Y-119204500D01*
X153663713Y-119204500D01*
X153615042Y-119212208D01*
X153453760Y-119237753D01*
X153251585Y-119303444D01*
X153062179Y-119399951D01*
X152890213Y-119524890D01*
X152739894Y-119675209D01*
X152739890Y-119675214D01*
X152620008Y-119840218D01*
X152564678Y-119882884D01*
X152495065Y-119888863D01*
X152433270Y-119856257D01*
X152419372Y-119840218D01*
X152299727Y-119675540D01*
X152299723Y-119675535D01*
X152149464Y-119525276D01*
X152149459Y-119525272D01*
X151977557Y-119400379D01*
X151788215Y-119303903D01*
X151586124Y-119238241D01*
X151520000Y-119227768D01*
X151520000Y-120275854D01*
X151453343Y-120237370D01*
X151332535Y-120205000D01*
X151207465Y-120205000D01*
X151086657Y-120237370D01*
X151020000Y-120275854D01*
X151020000Y-119227768D01*
X151019999Y-119227768D01*
X150953875Y-119238241D01*
X150751784Y-119303903D01*
X150562442Y-119400379D01*
X150390540Y-119525272D01*
X150390535Y-119525276D01*
X150240276Y-119675535D01*
X150240272Y-119675540D01*
X150120627Y-119840218D01*
X150065297Y-119882884D01*
X149995684Y-119888863D01*
X149933889Y-119856257D01*
X149919991Y-119840218D01*
X149800109Y-119675214D01*
X149800105Y-119675209D01*
X149649786Y-119524890D01*
X149477820Y-119399951D01*
X149288414Y-119303444D01*
X149288413Y-119303443D01*
X149288412Y-119303443D01*
X149086243Y-119237754D01*
X149086241Y-119237753D01*
X149086240Y-119237753D01*
X148924957Y-119212208D01*
X148876287Y-119204500D01*
X148663713Y-119204500D01*
X148615042Y-119212208D01*
X148453760Y-119237753D01*
X148251585Y-119303444D01*
X148062179Y-119399951D01*
X147890213Y-119524890D01*
X147739894Y-119675209D01*
X147739890Y-119675214D01*
X147620318Y-119839793D01*
X147564989Y-119882459D01*
X147495375Y-119888438D01*
X147433580Y-119855833D01*
X147419682Y-119839793D01*
X147300109Y-119675214D01*
X147300105Y-119675209D01*
X147149786Y-119524890D01*
X146977815Y-119399948D01*
X146977814Y-119399947D01*
X146938205Y-119379765D01*
X146887409Y-119331791D01*
X146870500Y-119269281D01*
X146870500Y-113014461D01*
X146890185Y-112947422D01*
X146906814Y-112926784D01*
X147811524Y-112022074D01*
X147872845Y-111988591D01*
X147942536Y-111993575D01*
X147998470Y-112035447D01*
X148006207Y-112048341D01*
X148006724Y-112048043D01*
X148009432Y-112052734D01*
X148139954Y-112239141D01*
X148300858Y-112400045D01*
X148300861Y-112400047D01*
X148487266Y-112530568D01*
X148693504Y-112626739D01*
X148693509Y-112626740D01*
X148693511Y-112626741D01*
X148746415Y-112640916D01*
X148913308Y-112685635D01*
X149057144Y-112698219D01*
X149139998Y-112705468D01*
X149140000Y-112705468D01*
X149140002Y-112705468D01*
X149196673Y-112700509D01*
X149366692Y-112685635D01*
X149586496Y-112626739D01*
X149792734Y-112530568D01*
X149979139Y-112400047D01*
X150140047Y-112239139D01*
X150270568Y-112052734D01*
X150297618Y-111994724D01*
X150343790Y-111942285D01*
X150410983Y-111923133D01*
X150477865Y-111943348D01*
X150522382Y-111994725D01*
X150549429Y-112052728D01*
X150549432Y-112052734D01*
X150679954Y-112239141D01*
X150840858Y-112400045D01*
X150840861Y-112400047D01*
X151027266Y-112530568D01*
X151233504Y-112626739D01*
X151233509Y-112626740D01*
X151233511Y-112626741D01*
X151286415Y-112640916D01*
X151453308Y-112685635D01*
X151597144Y-112698219D01*
X151679998Y-112705468D01*
X151680000Y-112705468D01*
X151680002Y-112705468D01*
X151736673Y-112700509D01*
X151906692Y-112685635D01*
X152126496Y-112626739D01*
X152332734Y-112530568D01*
X152519139Y-112400047D01*
X152680047Y-112239139D01*
X152810568Y-112052734D01*
X152837618Y-111994724D01*
X152883790Y-111942285D01*
X152950983Y-111923133D01*
X153017865Y-111943348D01*
X153062382Y-111994725D01*
X153089429Y-112052728D01*
X153089432Y-112052734D01*
X153219954Y-112239141D01*
X153380858Y-112400045D01*
X153380861Y-112400047D01*
X153567266Y-112530568D01*
X153773504Y-112626739D01*
X153773509Y-112626740D01*
X153773511Y-112626741D01*
X153826415Y-112640916D01*
X153993308Y-112685635D01*
X154137144Y-112698219D01*
X154219998Y-112705468D01*
X154220000Y-112705468D01*
X154220002Y-112705468D01*
X154276673Y-112700509D01*
X154446692Y-112685635D01*
X154666496Y-112626739D01*
X154872734Y-112530568D01*
X155059139Y-112400047D01*
X155220047Y-112239139D01*
X155350568Y-112052734D01*
X155377895Y-111994129D01*
X155424064Y-111941695D01*
X155491257Y-111922542D01*
X155558139Y-111942757D01*
X155602657Y-111994133D01*
X155629865Y-112052482D01*
X155760342Y-112238820D01*
X155921179Y-112399657D01*
X156107517Y-112530134D01*
X156313673Y-112626265D01*
X156313682Y-112626269D01*
X156509999Y-112678872D01*
X156510000Y-112678871D01*
X156510000Y-111833012D01*
X156567007Y-111865925D01*
X156694174Y-111900000D01*
X156825826Y-111900000D01*
X156952993Y-111865925D01*
X157010000Y-111833012D01*
X157010000Y-112678872D01*
X157206317Y-112626269D01*
X157206326Y-112626265D01*
X157412482Y-112530134D01*
X157598820Y-112399657D01*
X157759657Y-112238820D01*
X157890132Y-112052484D01*
X157917341Y-111994134D01*
X157963513Y-111941695D01*
X158030707Y-111922542D01*
X158097588Y-111942757D01*
X158142106Y-111994133D01*
X158169431Y-112052732D01*
X158169432Y-112052734D01*
X158299954Y-112239141D01*
X158460858Y-112400045D01*
X158460861Y-112400047D01*
X158647266Y-112530568D01*
X158853504Y-112626739D01*
X158853509Y-112626740D01*
X158853511Y-112626741D01*
X158906415Y-112640916D01*
X159073308Y-112685635D01*
X159217144Y-112698219D01*
X159299998Y-112705468D01*
X159300000Y-112705468D01*
X159300002Y-112705468D01*
X159356673Y-112700509D01*
X159526692Y-112685635D01*
X159746496Y-112626739D01*
X159952734Y-112530568D01*
X160139139Y-112400047D01*
X160300047Y-112239139D01*
X160430568Y-112052734D01*
X160457618Y-111994724D01*
X160503790Y-111942285D01*
X160570983Y-111923133D01*
X160637865Y-111943348D01*
X160682382Y-111994725D01*
X160709429Y-112052728D01*
X160709432Y-112052734D01*
X160839954Y-112239141D01*
X161000858Y-112400045D01*
X161000861Y-112400047D01*
X161187266Y-112530568D01*
X161393504Y-112626739D01*
X161393509Y-112626740D01*
X161393511Y-112626741D01*
X161446415Y-112640916D01*
X161613308Y-112685635D01*
X161757144Y-112698219D01*
X161839998Y-112705468D01*
X161840000Y-112705468D01*
X161840002Y-112705468D01*
X161896673Y-112700509D01*
X162066692Y-112685635D01*
X162286496Y-112626739D01*
X162492734Y-112530568D01*
X162679139Y-112400047D01*
X162840047Y-112239139D01*
X162970568Y-112052734D01*
X162997618Y-111994724D01*
X163043790Y-111942285D01*
X163110983Y-111923133D01*
X163177865Y-111943348D01*
X163222382Y-111994725D01*
X163249429Y-112052728D01*
X163249432Y-112052734D01*
X163379954Y-112239141D01*
X163540858Y-112400045D01*
X163540861Y-112400047D01*
X163727266Y-112530568D01*
X163933504Y-112626739D01*
X163933509Y-112626740D01*
X163933511Y-112626741D01*
X163986415Y-112640916D01*
X164153308Y-112685635D01*
X164297144Y-112698219D01*
X164379998Y-112705468D01*
X164380000Y-112705468D01*
X164380002Y-112705468D01*
X164436673Y-112700509D01*
X164606692Y-112685635D01*
X164826496Y-112626739D01*
X165032734Y-112530568D01*
X165219139Y-112400047D01*
X165380047Y-112239139D01*
X165510568Y-112052734D01*
X165537618Y-111994724D01*
X165583790Y-111942285D01*
X165650983Y-111923133D01*
X165717865Y-111943348D01*
X165762382Y-111994725D01*
X165789429Y-112052728D01*
X165789432Y-112052734D01*
X165919954Y-112239141D01*
X166080858Y-112400045D01*
X166080861Y-112400047D01*
X166267266Y-112530568D01*
X166473504Y-112626739D01*
X166473509Y-112626740D01*
X166473511Y-112626741D01*
X166526415Y-112640916D01*
X166693308Y-112685635D01*
X166837144Y-112698219D01*
X166919998Y-112705468D01*
X166920000Y-112705468D01*
X166920002Y-112705468D01*
X166976673Y-112700509D01*
X167146692Y-112685635D01*
X167366496Y-112626739D01*
X167572734Y-112530568D01*
X167759139Y-112400047D01*
X167920047Y-112239139D01*
X168050568Y-112052734D01*
X168077618Y-111994724D01*
X168123790Y-111942285D01*
X168190983Y-111923133D01*
X168257865Y-111943348D01*
X168302382Y-111994725D01*
X168329429Y-112052728D01*
X168329432Y-112052734D01*
X168459954Y-112239141D01*
X168620858Y-112400045D01*
X168620861Y-112400047D01*
X168807266Y-112530568D01*
X169013504Y-112626739D01*
X169013509Y-112626740D01*
X169013511Y-112626741D01*
X169066415Y-112640916D01*
X169233308Y-112685635D01*
X169377144Y-112698219D01*
X169459998Y-112705468D01*
X169460000Y-112705468D01*
X169460002Y-112705468D01*
X169516673Y-112700509D01*
X169686692Y-112685635D01*
X169906496Y-112626739D01*
X170112734Y-112530568D01*
X170299139Y-112400047D01*
X170460047Y-112239139D01*
X170590568Y-112052734D01*
X170617618Y-111994724D01*
X170663790Y-111942285D01*
X170730983Y-111923133D01*
X170797865Y-111943348D01*
X170842382Y-111994725D01*
X170869429Y-112052728D01*
X170869432Y-112052734D01*
X170999954Y-112239141D01*
X171160858Y-112400045D01*
X171160861Y-112400047D01*
X171347266Y-112530568D01*
X171553504Y-112626739D01*
X171553509Y-112626740D01*
X171553511Y-112626741D01*
X171606415Y-112640916D01*
X171773308Y-112685635D01*
X171917144Y-112698219D01*
X171999998Y-112705468D01*
X172000000Y-112705468D01*
X172000002Y-112705468D01*
X172056673Y-112700509D01*
X172226692Y-112685635D01*
X172446496Y-112626739D01*
X172652734Y-112530568D01*
X172839139Y-112400047D01*
X173000047Y-112239139D01*
X173130568Y-112052734D01*
X173226739Y-111846496D01*
X173285635Y-111626692D01*
X173305468Y-111400000D01*
X173285635Y-111173308D01*
X173226739Y-110953504D01*
X173130568Y-110747266D01*
X173000047Y-110560861D01*
X173000045Y-110560858D01*
X172839141Y-110399954D01*
X172652734Y-110269432D01*
X172652732Y-110269431D01*
X172446497Y-110173261D01*
X172446488Y-110173258D01*
X172226697Y-110114366D01*
X172226693Y-110114365D01*
X172226692Y-110114365D01*
X172226691Y-110114364D01*
X172226686Y-110114364D01*
X172000002Y-110094532D01*
X171999998Y-110094532D01*
X171773313Y-110114364D01*
X171773302Y-110114366D01*
X171553511Y-110173258D01*
X171553502Y-110173261D01*
X171347267Y-110269431D01*
X171347265Y-110269432D01*
X171160858Y-110399954D01*
X170999954Y-110560858D01*
X170869432Y-110747265D01*
X170869431Y-110747267D01*
X170842382Y-110805275D01*
X170796209Y-110857714D01*
X170729016Y-110876866D01*
X170662135Y-110856650D01*
X170617618Y-110805275D01*
X170590686Y-110747520D01*
X170590568Y-110747266D01*
X170460047Y-110560861D01*
X170460045Y-110560858D01*
X170299141Y-110399954D01*
X170112734Y-110269432D01*
X170112732Y-110269431D01*
X169906497Y-110173261D01*
X169906488Y-110173258D01*
X169686697Y-110114366D01*
X169686693Y-110114365D01*
X169686692Y-110114365D01*
X169686691Y-110114364D01*
X169686686Y-110114364D01*
X169460002Y-110094532D01*
X169459998Y-110094532D01*
X169233313Y-110114364D01*
X169233302Y-110114366D01*
X169013511Y-110173258D01*
X169013502Y-110173261D01*
X168807267Y-110269431D01*
X168807265Y-110269432D01*
X168620858Y-110399954D01*
X168459954Y-110560858D01*
X168329432Y-110747265D01*
X168329431Y-110747267D01*
X168302382Y-110805275D01*
X168256209Y-110857714D01*
X168189016Y-110876866D01*
X168122135Y-110856650D01*
X168077618Y-110805275D01*
X168050686Y-110747520D01*
X168050568Y-110747266D01*
X167920047Y-110560861D01*
X167920045Y-110560858D01*
X167759141Y-110399954D01*
X167572734Y-110269432D01*
X167572732Y-110269431D01*
X167366497Y-110173261D01*
X167366488Y-110173258D01*
X167146697Y-110114366D01*
X167146693Y-110114365D01*
X167146692Y-110114365D01*
X167146691Y-110114364D01*
X167146686Y-110114364D01*
X166920002Y-110094532D01*
X166919998Y-110094532D01*
X166693313Y-110114364D01*
X166693302Y-110114366D01*
X166473511Y-110173258D01*
X166473502Y-110173261D01*
X166267267Y-110269431D01*
X166267265Y-110269432D01*
X166080858Y-110399954D01*
X165919954Y-110560858D01*
X165789432Y-110747265D01*
X165789431Y-110747267D01*
X165762382Y-110805275D01*
X165716209Y-110857714D01*
X165649016Y-110876866D01*
X165582135Y-110856650D01*
X165537618Y-110805275D01*
X165510686Y-110747520D01*
X165510568Y-110747266D01*
X165380047Y-110560861D01*
X165380045Y-110560858D01*
X165219141Y-110399954D01*
X165032734Y-110269432D01*
X165032732Y-110269431D01*
X164826497Y-110173261D01*
X164826488Y-110173258D01*
X164606697Y-110114366D01*
X164606693Y-110114365D01*
X164606692Y-110114365D01*
X164606691Y-110114364D01*
X164606686Y-110114364D01*
X164380002Y-110094532D01*
X164379998Y-110094532D01*
X164153313Y-110114364D01*
X164153302Y-110114366D01*
X163933511Y-110173258D01*
X163933502Y-110173261D01*
X163727267Y-110269431D01*
X163727265Y-110269432D01*
X163540858Y-110399954D01*
X163379954Y-110560858D01*
X163249432Y-110747265D01*
X163249431Y-110747267D01*
X163222382Y-110805275D01*
X163176209Y-110857714D01*
X163109016Y-110876866D01*
X163042135Y-110856650D01*
X162997618Y-110805275D01*
X162970686Y-110747520D01*
X162970568Y-110747266D01*
X162840047Y-110560861D01*
X162840045Y-110560858D01*
X162679141Y-110399954D01*
X162492734Y-110269432D01*
X162492732Y-110269431D01*
X162286497Y-110173261D01*
X162286488Y-110173258D01*
X162066697Y-110114366D01*
X162066693Y-110114365D01*
X162066692Y-110114365D01*
X162066691Y-110114364D01*
X162066686Y-110114364D01*
X161840002Y-110094532D01*
X161839998Y-110094532D01*
X161613313Y-110114364D01*
X161613302Y-110114366D01*
X161393511Y-110173258D01*
X161393502Y-110173261D01*
X161187267Y-110269431D01*
X161187265Y-110269432D01*
X161000858Y-110399954D01*
X160839954Y-110560858D01*
X160709432Y-110747265D01*
X160709431Y-110747267D01*
X160682382Y-110805275D01*
X160636209Y-110857714D01*
X160569016Y-110876866D01*
X160502135Y-110856650D01*
X160457618Y-110805275D01*
X160430686Y-110747520D01*
X160430568Y-110747266D01*
X160300047Y-110560861D01*
X160300045Y-110560858D01*
X160139141Y-110399954D01*
X159952734Y-110269432D01*
X159952732Y-110269431D01*
X159746497Y-110173261D01*
X159746488Y-110173258D01*
X159526697Y-110114366D01*
X159526693Y-110114365D01*
X159526692Y-110114365D01*
X159526691Y-110114364D01*
X159526686Y-110114364D01*
X159300002Y-110094532D01*
X159299998Y-110094532D01*
X159073313Y-110114364D01*
X159073302Y-110114366D01*
X158853511Y-110173258D01*
X158853502Y-110173261D01*
X158647267Y-110269431D01*
X158647265Y-110269432D01*
X158460858Y-110399954D01*
X158299954Y-110560858D01*
X158171617Y-110744145D01*
X158169432Y-110747266D01*
X158169315Y-110747518D01*
X158142106Y-110805867D01*
X158095933Y-110858306D01*
X158028739Y-110877457D01*
X157961858Y-110857241D01*
X157917342Y-110805865D01*
X157890135Y-110747520D01*
X157890134Y-110747518D01*
X157759657Y-110561179D01*
X157598820Y-110400342D01*
X157412482Y-110269865D01*
X157206328Y-110173734D01*
X157010000Y-110121127D01*
X157010000Y-110966988D01*
X156952993Y-110934075D01*
X156825826Y-110900000D01*
X156694174Y-110900000D01*
X156567007Y-110934075D01*
X156510000Y-110966988D01*
X156510000Y-110121127D01*
X156313671Y-110173734D01*
X156107517Y-110269865D01*
X155921179Y-110400342D01*
X155760342Y-110561179D01*
X155629867Y-110747515D01*
X155602657Y-110805867D01*
X155556484Y-110858306D01*
X155489290Y-110877457D01*
X155422409Y-110857241D01*
X155377893Y-110805865D01*
X155350685Y-110747518D01*
X155350568Y-110747266D01*
X155220047Y-110560861D01*
X155220045Y-110560858D01*
X155059141Y-110399954D01*
X154872734Y-110269432D01*
X154872732Y-110269431D01*
X154666497Y-110173261D01*
X154666488Y-110173258D01*
X154446697Y-110114366D01*
X154446693Y-110114365D01*
X154446692Y-110114365D01*
X154446691Y-110114364D01*
X154446686Y-110114364D01*
X154220002Y-110094532D01*
X154219998Y-110094532D01*
X153993313Y-110114364D01*
X153993302Y-110114366D01*
X153773511Y-110173258D01*
X153773502Y-110173261D01*
X153567267Y-110269431D01*
X153567265Y-110269432D01*
X153380858Y-110399954D01*
X153219954Y-110560858D01*
X153089432Y-110747265D01*
X153089431Y-110747267D01*
X153062382Y-110805275D01*
X153016209Y-110857714D01*
X152949016Y-110876866D01*
X152882135Y-110856650D01*
X152837618Y-110805275D01*
X152810686Y-110747520D01*
X152810568Y-110747266D01*
X152680047Y-110560861D01*
X152680045Y-110560858D01*
X152519141Y-110399954D01*
X152332734Y-110269432D01*
X152332732Y-110269431D01*
X152126497Y-110173261D01*
X152126488Y-110173258D01*
X151906697Y-110114366D01*
X151906693Y-110114365D01*
X151906692Y-110114365D01*
X151906691Y-110114364D01*
X151906686Y-110114364D01*
X151680002Y-110094532D01*
X151679998Y-110094532D01*
X151597150Y-110101780D01*
X151528650Y-110088013D01*
X151478467Y-110039398D01*
X151462534Y-109971369D01*
X151485910Y-109905526D01*
X151498656Y-109890577D01*
X152758535Y-108630698D01*
X152819856Y-108597215D01*
X152832311Y-108595163D01*
X152919255Y-108585368D01*
X153089522Y-108525789D01*
X153242262Y-108429816D01*
X153369816Y-108302262D01*
X153465789Y-108149522D01*
X153525368Y-107979255D01*
X153533102Y-107910617D01*
X153560168Y-107846203D01*
X153617763Y-107806648D01*
X153656322Y-107800500D01*
X186799903Y-107800500D01*
X186866942Y-107820185D01*
G37*
%TD.AperFunction*%
%TA.AperFunction,Conductor*%
G36*
X170890405Y-120126546D02*
G01*
X170907125Y-120145842D01*
X170971213Y-120237370D01*
X171037055Y-120331401D01*
X171204149Y-120498495D01*
X171360607Y-120608048D01*
X171390144Y-120628730D01*
X171433768Y-120683307D01*
X171440961Y-120752806D01*
X171409439Y-120815160D01*
X171390143Y-120831880D01*
X171314176Y-120885072D01*
X171314175Y-120885072D01*
X171946140Y-121517037D01*
X171882557Y-121534075D01*
X171768543Y-121599901D01*
X171675451Y-121692993D01*
X171609625Y-121807007D01*
X171592587Y-121870590D01*
X170960623Y-121238626D01*
X170907431Y-121314594D01*
X170852854Y-121358219D01*
X170783356Y-121365413D01*
X170721001Y-121333891D01*
X170704280Y-121314594D01*
X170574044Y-121128597D01*
X170406952Y-120961506D01*
X170406946Y-120961501D01*
X170221392Y-120831575D01*
X170177767Y-120776998D01*
X170170573Y-120707500D01*
X170202096Y-120645145D01*
X170221392Y-120628425D01*
X170348715Y-120539272D01*
X170406951Y-120498495D01*
X170574045Y-120331401D01*
X170703975Y-120145842D01*
X170758552Y-120102217D01*
X170828050Y-120095023D01*
X170890405Y-120126546D01*
G37*
%TD.AperFunction*%
%TA.AperFunction,Conductor*%
G36*
X174149625Y-119652993D02*
G01*
X174215451Y-119767007D01*
X174308543Y-119860099D01*
X174422557Y-119925925D01*
X174486140Y-119942962D01*
X173854175Y-120574925D01*
X173930581Y-120628425D01*
X173974205Y-120683002D01*
X173981398Y-120752501D01*
X173949876Y-120814855D01*
X173930579Y-120831576D01*
X173854175Y-120885072D01*
X174486140Y-121517037D01*
X174422557Y-121534075D01*
X174308543Y-121599901D01*
X174215451Y-121692993D01*
X174149625Y-121807007D01*
X174132587Y-121870589D01*
X173500623Y-121238625D01*
X173500622Y-121238626D01*
X173447124Y-121315030D01*
X173392548Y-121358655D01*
X173323049Y-121365849D01*
X173260694Y-121334326D01*
X173243974Y-121315030D01*
X173190475Y-121238626D01*
X173190475Y-121238625D01*
X172558512Y-121870589D01*
X172541475Y-121807007D01*
X172475649Y-121692993D01*
X172382557Y-121599901D01*
X172268543Y-121534075D01*
X172204960Y-121517037D01*
X172836923Y-120885073D01*
X172836923Y-120885072D01*
X172760955Y-120831880D01*
X172717330Y-120777304D01*
X172710136Y-120707805D01*
X172741658Y-120645451D01*
X172760949Y-120628734D01*
X172946951Y-120498495D01*
X173114045Y-120331401D01*
X173244282Y-120145403D01*
X173298857Y-120101780D01*
X173368355Y-120094586D01*
X173430710Y-120126109D01*
X173447430Y-120145405D01*
X173500623Y-120221373D01*
X174132587Y-119589408D01*
X174149625Y-119652993D01*
G37*
%TD.AperFunction*%
%TA.AperFunction,Conductor*%
G36*
X150902306Y-107020185D02*
G01*
X150948061Y-107072989D01*
X150958005Y-107142147D01*
X150928980Y-107205703D01*
X150922948Y-107212181D01*
X145789481Y-112345647D01*
X145789479Y-112345650D01*
X145758075Y-112400045D01*
X145758074Y-112400047D01*
X145710423Y-112482579D01*
X145710423Y-112482580D01*
X145669499Y-112635308D01*
X145669499Y-112635310D01*
X145669499Y-112803411D01*
X145669500Y-112803424D01*
X145669500Y-119269281D01*
X145649815Y-119336320D01*
X145601795Y-119379765D01*
X145562185Y-119399947D01*
X145562184Y-119399948D01*
X145390215Y-119524889D01*
X145251398Y-119663706D01*
X145190075Y-119697190D01*
X145120383Y-119692206D01*
X145064450Y-119650334D01*
X145058178Y-119641120D01*
X144962712Y-119486344D01*
X144838657Y-119362289D01*
X144838656Y-119362288D01*
X144689334Y-119270186D01*
X144522797Y-119215001D01*
X144522795Y-119215000D01*
X144481896Y-119210822D01*
X144417205Y-119184425D01*
X144377054Y-119127244D01*
X144370500Y-119087464D01*
X144370500Y-110130097D01*
X144390185Y-110063058D01*
X144406819Y-110042416D01*
X147412417Y-107036819D01*
X147473740Y-107003334D01*
X147500098Y-107000500D01*
X150835267Y-107000500D01*
X150902306Y-107020185D01*
G37*
%TD.AperFunction*%
%TA.AperFunction,Conductor*%
G36*
X189316942Y-107020185D02*
G01*
X189337584Y-107036819D01*
X192775305Y-110474540D01*
X192808790Y-110535863D01*
X192803806Y-110605555D01*
X192789200Y-110633343D01*
X192709431Y-110747267D01*
X192682382Y-110805275D01*
X192636209Y-110857714D01*
X192569016Y-110876866D01*
X192502135Y-110856650D01*
X192457618Y-110805275D01*
X192430686Y-110747520D01*
X192430568Y-110747266D01*
X192300047Y-110560861D01*
X192300045Y-110560858D01*
X192139141Y-110399954D01*
X191952734Y-110269432D01*
X191952732Y-110269431D01*
X191746497Y-110173261D01*
X191746488Y-110173258D01*
X191526697Y-110114366D01*
X191526693Y-110114365D01*
X191526692Y-110114365D01*
X191526691Y-110114364D01*
X191526686Y-110114364D01*
X191300002Y-110094532D01*
X191299998Y-110094532D01*
X191073313Y-110114364D01*
X191073302Y-110114366D01*
X190977067Y-110140152D01*
X190907217Y-110138489D01*
X190857293Y-110108058D01*
X187961416Y-107212181D01*
X187927931Y-107150858D01*
X187932915Y-107081166D01*
X187974787Y-107025233D01*
X188040251Y-107000816D01*
X188049097Y-107000500D01*
X189249903Y-107000500D01*
X189316942Y-107020185D01*
G37*
%TD.AperFunction*%
%TA.AperFunction,Conductor*%
G36*
X184072781Y-64401510D02*
G01*
X184122705Y-64431940D01*
X194571284Y-74880520D01*
X194571286Y-74880521D01*
X194571290Y-74880524D01*
X194708209Y-74959573D01*
X194708216Y-74959577D01*
X194860943Y-75000501D01*
X194860945Y-75000501D01*
X195026654Y-75000501D01*
X195026670Y-75000500D01*
X201037164Y-75000500D01*
X201104203Y-75020185D01*
X201149958Y-75072989D01*
X201160522Y-75137103D01*
X201149500Y-75244983D01*
X201149500Y-75295500D01*
X201129815Y-75362539D01*
X201077011Y-75408294D01*
X201025500Y-75419500D01*
X194320098Y-75419500D01*
X194253059Y-75399815D01*
X194232417Y-75383181D01*
X183498664Y-64649428D01*
X183465179Y-64588105D01*
X183470163Y-64518413D01*
X183512035Y-64462480D01*
X183577499Y-64438063D01*
X183597142Y-64438218D01*
X183680000Y-64445468D01*
X183680000Y-64445467D01*
X183680001Y-64445468D01*
X183680002Y-64445468D01*
X183736807Y-64440498D01*
X183906692Y-64425635D01*
X184002932Y-64399847D01*
X184072781Y-64401510D01*
G37*
%TD.AperFunction*%
%TA.AperFunction,Conductor*%
G36*
X186612781Y-64401510D02*
G01*
X186662706Y-64431941D01*
X195625139Y-73394374D01*
X195625149Y-73394385D01*
X195629479Y-73398715D01*
X195629480Y-73398716D01*
X195741284Y-73510520D01*
X195828095Y-73560639D01*
X195841040Y-73568113D01*
X195889255Y-73618678D01*
X195902479Y-73687285D01*
X195876512Y-73752150D01*
X195819598Y-73792680D01*
X195779040Y-73799500D01*
X195240098Y-73799500D01*
X195173059Y-73779815D01*
X195152417Y-73763181D01*
X190669284Y-69280048D01*
X186038662Y-64649427D01*
X186005178Y-64588105D01*
X186010162Y-64518413D01*
X186052034Y-64462480D01*
X186117498Y-64438063D01*
X186137142Y-64438218D01*
X186220000Y-64445468D01*
X186220002Y-64445468D01*
X186276807Y-64440498D01*
X186446692Y-64425635D01*
X186542932Y-64399847D01*
X186612781Y-64401510D01*
G37*
%TD.AperFunction*%
%TA.AperFunction,Conductor*%
G36*
X189152781Y-64401510D02*
G01*
X189202706Y-64431941D01*
X196988583Y-72217819D01*
X197022068Y-72279142D01*
X197017084Y-72348834D01*
X196975212Y-72404767D01*
X196909748Y-72429184D01*
X196900902Y-72429500D01*
X196410097Y-72429500D01*
X196343058Y-72409815D01*
X196322416Y-72393181D01*
X188578663Y-64649428D01*
X188545178Y-64588105D01*
X188550162Y-64518413D01*
X188592034Y-64462480D01*
X188657498Y-64438063D01*
X188677142Y-64438218D01*
X188760000Y-64445468D01*
X188760002Y-64445468D01*
X188816807Y-64440498D01*
X188986692Y-64425635D01*
X189082932Y-64399847D01*
X189152781Y-64401510D01*
G37*
%TD.AperFunction*%
%TA.AperFunction,Conductor*%
G36*
X191692781Y-64401510D02*
G01*
X191742706Y-64431941D01*
X198505139Y-71194374D01*
X198505160Y-71194397D01*
X198538582Y-71227819D01*
X198572067Y-71289142D01*
X198567083Y-71358834D01*
X198525211Y-71414767D01*
X198459747Y-71439184D01*
X198450901Y-71439500D01*
X197960098Y-71439500D01*
X197893059Y-71419815D01*
X197872417Y-71403181D01*
X194531771Y-68062535D01*
X191118662Y-64649427D01*
X191085178Y-64588105D01*
X191090162Y-64518413D01*
X191132034Y-64462480D01*
X191197498Y-64438063D01*
X191217142Y-64438218D01*
X191300000Y-64445468D01*
X191300002Y-64445468D01*
X191356807Y-64440498D01*
X191526692Y-64425635D01*
X191622932Y-64399847D01*
X191692781Y-64401510D01*
G37*
%TD.AperFunction*%
%TD*%
M02*
