M48
; DRILL file {KiCad 8.0.5} date 2025-03-24T16:45:48+0900
; FORMAT={-:-/ absolute / inch / decimal}
; #@! TF.CreationDate,2025-03-24T16:45:48+09:00
; #@! TF.GenerationSoftware,Kicad,Pcbnew,8.0.5
; #@! TF.FileFunction,Plated,1,2,PTH
FMAT,2
INCH
; #@! TA.AperFunction,Plated,PTH,ViaDrill
T1C0.0118
; #@! TA.AperFunction,Plated,PTH,ViaDrill
T2C0.0236
; #@! TA.AperFunction,Plated,PTH,ComponentDrill
T3C0.0300
; #@! TA.AperFunction,Plated,PTH,ComponentDrill
T4C0.0374
; #@! TA.AperFunction,Plated,PTH,ComponentDrill
T5C0.0394
; #@! TA.AperFunction,Plated,PTH,ComponentDrill
T6C0.0512
%
G90
G05
T1
X5.9449Y-4.5039
X5.9449Y-4.5748
X5.9528Y-2.1732
X5.9528Y-2.2598
X5.9528Y-2.3307
X5.9528Y-2.3858
X5.9528Y-2.4724
X5.9528Y-2.5591
X5.9528Y-2.6299
X5.9528Y-2.685
X5.9528Y-2.7717
X5.9528Y-2.8583
X5.9528Y-2.9449
X5.9528Y-3.0
X5.9528Y-3.0866
X5.9528Y-3.1732
X5.9528Y-4.3543
X5.9528Y-4.4488
X5.9528Y-4.6142
X5.9606Y-2.2205
X5.9606Y-2.2992
X5.9606Y-2.5197
X5.9606Y-2.5984
X5.9606Y-2.8189
X5.9606Y-2.9134
X5.9606Y-3.1339
X5.9606Y-3.252
X5.9606Y-3.3386
X5.9606Y-3.4094
X5.9606Y-3.4646
X5.9606Y-3.5512
X5.9606Y-3.6378
X5.9606Y-3.7087
X5.9606Y-3.7638
X5.9606Y-3.8504
X5.9606Y-3.937
X5.9606Y-4.0236
X5.9606Y-4.0787
X5.9606Y-4.1654
X5.9606Y-4.252
X5.9685Y-3.2992
X5.9685Y-3.378
X5.9685Y-3.5984
X5.9685Y-3.6772
X5.9685Y-3.8976
X5.9685Y-3.9921
X5.9685Y-4.2126
X5.9921Y-4.4173
X6.0Y-4.6457
X6.0157Y-2.2205
X6.0157Y-2.3071
X6.0157Y-2.378
X6.0157Y-2.4331
X6.0157Y-2.5197
X6.0157Y-2.6063
X6.0157Y-2.6772
X6.0157Y-2.7323
X6.0157Y-2.8189
X6.0157Y-2.9055
X6.0157Y-2.9921
X6.0157Y-3.0472
X6.0157Y-3.1339
X6.0157Y-3.2205
X6.0236Y-2.2677
X6.0236Y-2.3465
X6.0236Y-2.5669
X6.0236Y-2.6457
X6.0236Y-2.8661
X6.0236Y-2.9606
X6.0236Y-3.1811
X6.0236Y-3.2992
X6.0236Y-3.3858
X6.0236Y-3.4567
X6.0236Y-3.5118
X6.0236Y-3.5984
X6.0236Y-3.685
X6.0236Y-3.7559
X6.0236Y-3.811
X6.0236Y-3.8976
X6.0236Y-3.9843
X6.0236Y-4.0709
X6.0236Y-4.126
X6.0236Y-4.2126
X6.0236Y-4.2992
X6.0315Y-3.3465
X6.0315Y-3.4252
X6.0315Y-3.6457
X6.0315Y-3.7244
X6.0315Y-3.9449
X6.0315Y-4.0394
X6.0315Y-4.2598
X6.0472Y-4.3622
X6.063Y-4.4252
X6.0866Y-4.6378
X6.1417Y-4.4882
X6.1417Y-4.6378
X6.1811Y-4.5669
X6.2205Y-4.2598
X6.2283Y-4.1811
X6.2283Y-4.6378
X6.2441Y-4.4016
X6.2835Y-2.8268
X6.2835Y-2.9134
X6.2835Y-2.9843
X6.2835Y-3.0394
X6.2835Y-3.126
X6.2835Y-3.2126
X6.2835Y-3.2835
X6.2835Y-3.3386
X6.2835Y-3.4252
X6.2835Y-3.5118
X6.2835Y-3.5984
X6.2835Y-3.6535
X6.2835Y-3.7402
X6.2835Y-3.8268
X6.2913Y-2.874
X6.2913Y-2.9528
X6.2913Y-3.1732
X6.2913Y-3.252
X6.2913Y-3.4724
X6.2913Y-3.5669
X6.2913Y-3.7874
X6.2992Y-2.3386
X6.3465Y-2.2756
X6.3465Y-2.3307
X6.3465Y-2.874
X6.3465Y-2.9606
X6.3465Y-3.0315
X6.3465Y-3.0866
X6.3465Y-3.1732
X6.3465Y-3.2598
X6.3465Y-3.3307
X6.3465Y-3.3858
X6.3465Y-3.4724
X6.3465Y-3.5591
X6.3465Y-3.6457
X6.3465Y-3.7008
X6.3465Y-3.7874
X6.3465Y-3.874
X6.3543Y-2.9213
X6.3543Y-3.0
X6.3543Y-3.2205
X6.3543Y-3.2992
X6.3543Y-3.5197
X6.3543Y-3.6142
X6.3543Y-3.8346
X6.3858Y-2.3386
X6.3937Y-2.2677
X6.4252Y-2.3307
X6.4331Y-2.2756
X6.4331Y-2.9055
X6.4488Y-2.7874
X6.4567Y-2.3386
X6.4724Y-2.2677
X6.4803Y-3.4094
X6.4882Y-4.5512
X6.4961Y-3.2913
X6.5039Y-2.2756
X6.5118Y-2.3386
X6.5192Y-3.4465
X6.535Y-3.3284
X6.5433Y-4.4331
X6.5512Y-4.5197
X6.5591Y-2.2756
X6.5906Y-3.4094
X6.5906Y-4.3465
X6.5984Y-2.3386
X6.6142Y-4.4646
X6.6457Y-2.2756
X6.6457Y-2.3307
X6.6535Y-4.5433
X6.6614Y-4.4094
X6.6772Y-4.3307
X6.685Y-2.3386
X6.6929Y-2.2677
X6.7087Y-2.9213
X6.7105Y-2.8282
X6.7165Y-4.5354
X6.7244Y-2.3307
X6.7323Y-2.2756
X6.7402Y-4.4016
X6.7504Y-3.1724
X6.7559Y-2.3386
X6.7559Y-3.4252
X6.769Y-2.982
X6.7717Y-2.2677
X6.7847Y-2.8638
X6.7948Y-3.4622
X6.8031Y-2.7038
X6.8031Y-2.2756
X6.811Y-2.3386
X6.8293Y-2.6775
X6.845Y-3.2523
X6.8583Y-2.2756
X6.8653Y-2.697
X6.8661Y-3.1339
X6.8792Y-2.9741
X6.8811Y-3.2718
X6.8819Y-4.5669
X6.8898Y-4.3701
X6.8976Y-2.3386
X6.9134Y-3.0866
X6.9152Y-2.9936
X6.933Y-3.45
X6.9449Y-2.2756
X6.9449Y-2.3307
X6.9488Y-3.3319
X6.9606Y-3.5906
X6.9843Y-2.3386
X6.9921Y-2.2677
X6.9995Y-3.6276
X7.0236Y-4.4094
X7.0315Y-2.2756
X7.0315Y-2.811
X7.0394Y-2.3307
X7.0445Y-2.9977
X7.0472Y-4.3071
X7.0709Y-2.3386
X7.0787Y-2.7195
X7.0866Y-2.2677
X7.1024Y-4.2913
X7.1181Y-2.2756
X7.1181Y-4.3543
X7.126Y-2.3386
X7.1732Y-2.2756
X7.182Y-3.5096
X7.1855Y-3.0713
X7.1969Y-4.3071
X7.1977Y-3.3915
X7.1995Y-3.45
X7.2012Y-2.9531
X7.2126Y-2.3386
X7.2126Y-4.4961
X7.2153Y-3.3319
X7.2283Y-4.4173
X7.252Y-4.2835
X7.2598Y-2.2756
X7.2598Y-2.3307
X7.2756Y-4.5276
X7.2835Y-2.4213
X7.2913Y-3.1811
X7.2913Y-4.3465
X7.2992Y-2.3386
X7.3071Y-2.2677
X7.3258Y-2.938
X7.3415Y-2.8199
X7.3465Y-2.2756
X7.4097Y-2.7849
X7.4133Y-3.6311
X7.4292Y-2.7488
X7.4361Y-2.8111
X7.4518Y-2.5355
X7.4576Y-3.5253
X7.4606Y-2.2047
X7.4611Y-3.087
X7.4751Y-3.4657
X7.5326Y-3.1905
X7.5484Y-3.0724
X7.5605Y-2.9037
X7.5886Y-2.3327
X7.5961Y-2.8295
X7.6013Y-2.9537
X7.628Y-2.2047
X7.6484Y-3.1519
X7.6614Y-2.9921
X7.6623Y-3.6907
X7.6641Y-3.0338
X7.6658Y-3.2524
X7.6693Y-3.2126
X7.6772Y-2.874
X7.6798Y-3.6311
X7.6975Y-3.0116
X7.7064Y-2.735
X7.7132Y-2.8935
X7.7142Y-2.8452
X7.7259Y-2.6989
X7.73Y-2.5696
X7.805Y-3.5054
X7.8061Y-3.1191
X7.8082Y-3.2062
X7.8449Y-3.8496
X7.8543Y-2.2736
X7.8634Y-3.6591
X7.8661Y-2.748
X7.8792Y-3.541
X7.8976Y-3.3809
X7.9047Y-2.8638
X7.9134Y-2.2244
X7.9238Y-3.3546
X7.924Y-3.1677
X7.937Y-3.0079
X7.9395Y-3.9294
X7.9598Y-3.3741
X7.9606Y-3.811
X7.973Y-3.0274
X7.9737Y-3.6512
X7.9756Y-3.9489
X7.9845Y-2.7691
X8.004Y-2.7331
X8.0097Y-3.6708
X8.0118Y-2.2441
X8.013Y-3.3716
X8.0157Y-2.6063
X8.0315Y-2.4882
X8.0315Y-3.1811
X8.0472Y-3.063
X8.0657Y-2.9029
X8.0814Y-2.7848
X8.0918Y-2.8766
X8.1076Y-3.4514
X8.1279Y-2.8961
X8.1287Y-3.333
X8.139Y-3.6749
X8.1417Y-3.1732
X8.1436Y-3.4709
X8.1732Y-3.3967
X8.1778Y-3.1927
X8.1969Y-2.2126
X8.2126Y-2.1496
X8.2677Y-2.1811
X8.2677Y-2.2362
X8.2774Y-3.3873
X8.2913Y-2.622
X8.3071Y-3.1969
X8.3174Y-3.7315
X8.3307Y-2.2598
X8.3359Y-3.541
X8.3386Y-2.1417
X8.3412Y-2.9187
X8.3424Y-2.6606
X8.3516Y-3.4229
X8.3619Y-2.6246
X8.37Y-3.2628
X8.3858Y-2.1496
X8.3962Y-3.2365
X8.412Y-3.8113
X8.4323Y-3.256
X8.4331Y-3.6929
X8.4417Y-2.5299
X8.4461Y-3.5331
X8.448Y-3.8308
X8.4488Y-2.2598
X8.4724Y-2.1732
X8.4803Y-2.6457
X8.4822Y-3.5526
X8.4961Y-2.7874
X8.5118Y-3.3622
X8.546Y-3.084
X8.5591Y-2.6299
X8.5669Y-2.1811
X8.5748Y-2.252
X8.5906Y-3.1024
X8.6115Y-3.5568
X8.6165Y-2.8241
X8.6206Y-2.6948
X8.6322Y-2.5485
X8.6401Y-2.6587
X8.6456Y-3.2786
X8.6457Y-2.1732
X8.685Y-2.252
X8.7481Y-3.5954
X8.7503Y-2.5642
X8.7638Y-2.1654
X8.7638Y-2.7953
X8.7822Y-3.3173
X8.7859Y-2.49
X8.7953Y-3.2677
X8.811Y-2.2756
X8.8504Y-2.1654
X8.8946Y-2.8582
X8.9104Y-2.5826
X8.9115Y-3.3214
X8.9134Y-2.1575
X8.9134Y-2.252
X8.9172Y-2.6449
X8.9273Y-2.5212
X8.9367Y-2.6088
X8.9457Y-3.0432
X8.9476Y-3.3409
X8.9588Y-2.9937
X8.9606Y-3.1811
X8.9614Y-3.618
X8.9633Y-2.5407
X8.9817Y-3.0627
X8.9921Y-2.1732
X8.9948Y-3.0132
X8.9975Y-3.6375
X9.0236Y-2.9291
X9.0237Y-3.6112
X9.0394Y-2.811
X9.0421Y-3.4511
X9.0551Y-2.252
X9.0551Y-3.4016
X9.0578Y-3.333
X9.0709Y-3.2835
X9.0763Y-3.1425
X9.0945Y-2.2047
X9.1163Y-3.4867
X9.1496Y-2.2756
X9.2126Y-2.0079
X9.2677Y-2.063
X9.2835Y-2.0157
X9.315Y-2.1181
X9.3228Y-2.063
X9.3543Y-2.0157
X9.3701Y-2.189
X9.4331Y-2.2283
X9.4409Y-2.0079
X9.4961Y-2.0079
X9.5433Y-2.0394
X9.5433Y-2.0945
X9.5433Y-2.1811
X9.5433Y-2.2677
X9.5433Y-2.3465
X9.5433Y-2.4016
X9.5433Y-2.4882
X9.5433Y-2.5748
X9.5433Y-2.6457
X9.5433Y-2.7008
X9.5433Y-2.7874
X9.5433Y-2.874
X9.5433Y-2.9449
X9.5433Y-3.0
X9.5433Y-3.0866
X9.5433Y-3.1732
X9.5433Y-3.2598
X9.5433Y-3.315
X9.5433Y-3.4016
X9.5433Y-3.4882
X9.5433Y-3.5197
X9.5433Y-3.6063
X9.5433Y-3.6772
X9.5433Y-3.7323
X9.5433Y-3.8189
X9.5433Y-3.9055
X9.5433Y-3.9764
X9.5433Y-4.0315
X9.5433Y-4.2047
X9.5433Y-4.2913
X9.5433Y-4.3465
X9.5433Y-4.4331
X9.5433Y-4.5197
X9.5472Y-4.1142
X9.5512Y-2.0079
X9.5512Y-2.2283
X9.5512Y-2.315
X9.5512Y-2.5354
X9.5512Y-2.6142
X9.5512Y-2.8346
X9.5512Y-2.9134
X9.5512Y-3.1339
X9.5512Y-3.2283
X9.5512Y-3.4488
X9.5512Y-3.5669
X9.5512Y-3.6457
X9.5512Y-3.8661
X9.5512Y-3.9449
X9.5512Y-4.1654
X9.5512Y-4.2598
X9.5512Y-4.4803
T2
X8.9331Y-4.3583
T3
X9.4579Y-3.0358
X9.4579Y-3.1358
X9.4579Y-3.2358
X9.4579Y-3.3358
X9.4579Y-3.4358
X9.4579Y-3.5358
X9.4579Y-3.6358
X9.4579Y-3.7358
T4
X8.3701Y-4.4681
X8.4685Y-4.4681
X8.5669Y-4.4681
X8.6654Y-4.4681
X8.7638Y-4.4681
T5
X6.3165Y-2.1157
X6.3165Y-4.0157
X6.4165Y-2.1157
X6.4165Y-4.0157
X6.5165Y-2.1157
X6.5165Y-4.0157
X6.6165Y-2.1157
X6.6165Y-4.0157
X6.7165Y-2.1157
X6.7165Y-4.0157
X6.8165Y-2.1157
X6.8165Y-4.0157
X6.9165Y-2.1157
X7.0165Y-2.1157
X7.0165Y-4.0157
X7.1165Y-4.0157
X7.1764Y-2.1157
X7.2165Y-4.0157
X7.2764Y-2.1157
X7.3165Y-4.0157
X7.3764Y-2.1157
X7.4165Y-4.0157
X7.4764Y-2.1157
X7.5165Y-4.0157
X7.5461Y-4.3768
X7.5461Y-4.4768
X7.5764Y-2.1157
X7.6165Y-4.0157
X7.6461Y-4.3768
X7.6461Y-4.4768
X7.6764Y-2.1157
X7.7165Y-4.0157
X7.7461Y-4.3768
X7.7461Y-4.4768
X7.7764Y-2.1157
X7.8461Y-4.3768
X7.8461Y-4.4768
X7.8764Y-2.1157
X7.9461Y-4.3768
X7.9461Y-4.4768
X7.9764Y-2.1157
X8.0764Y-2.1157
T6
G00X6.3502Y-4.2717
M15
G01X6.3565Y-4.2717
M16
G05
G00X6.3502Y-4.4685
M15
G01X6.3565Y-4.4685
M16
G05
G00X6.8719Y-4.2717
M15
G01X6.8781Y-4.2717
M16
G05
G00X6.8719Y-4.4685
M15
G01X6.8781Y-4.4685
M16
G05
M30
