%TF.GenerationSoftware,KiCad,Pcbnew,8.0.5*%
%TF.CreationDate,2025-10-03T19:11:42+09:00*%
%TF.ProjectId,Sub1,53756231-2e6b-4696-9361-645f70636258,rev?*%
%TF.SameCoordinates,Original*%
%TF.FileFunction,Legend,Top*%
%TF.FilePolarity,Positive*%
%FSLAX46Y46*%
G04 Gerber Fmt 4.6, Leading zero omitted, Abs format (unit mm)*
G04 Created by KiCad (PCBNEW 8.0.5) date 2025-10-03 19:11:42*
%MOMM*%
%LPD*%
G01*
G04 APERTURE LIST*
%ADD10C,0.150000*%
%ADD11C,0.254000*%
%ADD12C,0.120000*%
%ADD13C,0.200000*%
%ADD14C,0.100000*%
%ADD15C,0.000000*%
G04 APERTURE END LIST*
D10*
X130176666Y-92764819D02*
X130176666Y-93479104D01*
X130176666Y-93479104D02*
X130129047Y-93621961D01*
X130129047Y-93621961D02*
X130033809Y-93717200D01*
X130033809Y-93717200D02*
X129890952Y-93764819D01*
X129890952Y-93764819D02*
X129795714Y-93764819D01*
X130795714Y-93193390D02*
X130700476Y-93145771D01*
X130700476Y-93145771D02*
X130652857Y-93098152D01*
X130652857Y-93098152D02*
X130605238Y-93002914D01*
X130605238Y-93002914D02*
X130605238Y-92955295D01*
X130605238Y-92955295D02*
X130652857Y-92860057D01*
X130652857Y-92860057D02*
X130700476Y-92812438D01*
X130700476Y-92812438D02*
X130795714Y-92764819D01*
X130795714Y-92764819D02*
X130986190Y-92764819D01*
X130986190Y-92764819D02*
X131081428Y-92812438D01*
X131081428Y-92812438D02*
X131129047Y-92860057D01*
X131129047Y-92860057D02*
X131176666Y-92955295D01*
X131176666Y-92955295D02*
X131176666Y-93002914D01*
X131176666Y-93002914D02*
X131129047Y-93098152D01*
X131129047Y-93098152D02*
X131081428Y-93145771D01*
X131081428Y-93145771D02*
X130986190Y-93193390D01*
X130986190Y-93193390D02*
X130795714Y-93193390D01*
X130795714Y-93193390D02*
X130700476Y-93241009D01*
X130700476Y-93241009D02*
X130652857Y-93288628D01*
X130652857Y-93288628D02*
X130605238Y-93383866D01*
X130605238Y-93383866D02*
X130605238Y-93574342D01*
X130605238Y-93574342D02*
X130652857Y-93669580D01*
X130652857Y-93669580D02*
X130700476Y-93717200D01*
X130700476Y-93717200D02*
X130795714Y-93764819D01*
X130795714Y-93764819D02*
X130986190Y-93764819D01*
X130986190Y-93764819D02*
X131081428Y-93717200D01*
X131081428Y-93717200D02*
X131129047Y-93669580D01*
X131129047Y-93669580D02*
X131176666Y-93574342D01*
X131176666Y-93574342D02*
X131176666Y-93383866D01*
X131176666Y-93383866D02*
X131129047Y-93288628D01*
X131129047Y-93288628D02*
X131081428Y-93241009D01*
X131081428Y-93241009D02*
X130986190Y-93193390D01*
X129833333Y-60859580D02*
X129785714Y-60907200D01*
X129785714Y-60907200D02*
X129642857Y-60954819D01*
X129642857Y-60954819D02*
X129547619Y-60954819D01*
X129547619Y-60954819D02*
X129404762Y-60907200D01*
X129404762Y-60907200D02*
X129309524Y-60811961D01*
X129309524Y-60811961D02*
X129261905Y-60716723D01*
X129261905Y-60716723D02*
X129214286Y-60526247D01*
X129214286Y-60526247D02*
X129214286Y-60383390D01*
X129214286Y-60383390D02*
X129261905Y-60192914D01*
X129261905Y-60192914D02*
X129309524Y-60097676D01*
X129309524Y-60097676D02*
X129404762Y-60002438D01*
X129404762Y-60002438D02*
X129547619Y-59954819D01*
X129547619Y-59954819D02*
X129642857Y-59954819D01*
X129642857Y-59954819D02*
X129785714Y-60002438D01*
X129785714Y-60002438D02*
X129833333Y-60050057D01*
X130309524Y-60954819D02*
X130500000Y-60954819D01*
X130500000Y-60954819D02*
X130595238Y-60907200D01*
X130595238Y-60907200D02*
X130642857Y-60859580D01*
X130642857Y-60859580D02*
X130738095Y-60716723D01*
X130738095Y-60716723D02*
X130785714Y-60526247D01*
X130785714Y-60526247D02*
X130785714Y-60145295D01*
X130785714Y-60145295D02*
X130738095Y-60050057D01*
X130738095Y-60050057D02*
X130690476Y-60002438D01*
X130690476Y-60002438D02*
X130595238Y-59954819D01*
X130595238Y-59954819D02*
X130404762Y-59954819D01*
X130404762Y-59954819D02*
X130309524Y-60002438D01*
X130309524Y-60002438D02*
X130261905Y-60050057D01*
X130261905Y-60050057D02*
X130214286Y-60145295D01*
X130214286Y-60145295D02*
X130214286Y-60383390D01*
X130214286Y-60383390D02*
X130261905Y-60478628D01*
X130261905Y-60478628D02*
X130309524Y-60526247D01*
X130309524Y-60526247D02*
X130404762Y-60573866D01*
X130404762Y-60573866D02*
X130595238Y-60573866D01*
X130595238Y-60573866D02*
X130690476Y-60526247D01*
X130690476Y-60526247D02*
X130738095Y-60478628D01*
X130738095Y-60478628D02*
X130785714Y-60383390D01*
X161516666Y-92764819D02*
X161516666Y-93479104D01*
X161516666Y-93479104D02*
X161469047Y-93621961D01*
X161469047Y-93621961D02*
X161373809Y-93717200D01*
X161373809Y-93717200D02*
X161230952Y-93764819D01*
X161230952Y-93764819D02*
X161135714Y-93764819D01*
X162040476Y-93764819D02*
X162230952Y-93764819D01*
X162230952Y-93764819D02*
X162326190Y-93717200D01*
X162326190Y-93717200D02*
X162373809Y-93669580D01*
X162373809Y-93669580D02*
X162469047Y-93526723D01*
X162469047Y-93526723D02*
X162516666Y-93336247D01*
X162516666Y-93336247D02*
X162516666Y-92955295D01*
X162516666Y-92955295D02*
X162469047Y-92860057D01*
X162469047Y-92860057D02*
X162421428Y-92812438D01*
X162421428Y-92812438D02*
X162326190Y-92764819D01*
X162326190Y-92764819D02*
X162135714Y-92764819D01*
X162135714Y-92764819D02*
X162040476Y-92812438D01*
X162040476Y-92812438D02*
X161992857Y-92860057D01*
X161992857Y-92860057D02*
X161945238Y-92955295D01*
X161945238Y-92955295D02*
X161945238Y-93193390D01*
X161945238Y-93193390D02*
X161992857Y-93288628D01*
X161992857Y-93288628D02*
X162040476Y-93336247D01*
X162040476Y-93336247D02*
X162135714Y-93383866D01*
X162135714Y-93383866D02*
X162326190Y-93383866D01*
X162326190Y-93383866D02*
X162421428Y-93336247D01*
X162421428Y-93336247D02*
X162469047Y-93288628D01*
X162469047Y-93288628D02*
X162516666Y-93193390D01*
X185916666Y-92764819D02*
X185916666Y-93479104D01*
X185916666Y-93479104D02*
X185869047Y-93621961D01*
X185869047Y-93621961D02*
X185773809Y-93717200D01*
X185773809Y-93717200D02*
X185630952Y-93764819D01*
X185630952Y-93764819D02*
X185535714Y-93764819D01*
X186297619Y-92764819D02*
X186964285Y-92764819D01*
X186964285Y-92764819D02*
X186535714Y-93764819D01*
X186103333Y-89199580D02*
X186055714Y-89247200D01*
X186055714Y-89247200D02*
X185912857Y-89294819D01*
X185912857Y-89294819D02*
X185817619Y-89294819D01*
X185817619Y-89294819D02*
X185674762Y-89247200D01*
X185674762Y-89247200D02*
X185579524Y-89151961D01*
X185579524Y-89151961D02*
X185531905Y-89056723D01*
X185531905Y-89056723D02*
X185484286Y-88866247D01*
X185484286Y-88866247D02*
X185484286Y-88723390D01*
X185484286Y-88723390D02*
X185531905Y-88532914D01*
X185531905Y-88532914D02*
X185579524Y-88437676D01*
X185579524Y-88437676D02*
X185674762Y-88342438D01*
X185674762Y-88342438D02*
X185817619Y-88294819D01*
X185817619Y-88294819D02*
X185912857Y-88294819D01*
X185912857Y-88294819D02*
X186055714Y-88342438D01*
X186055714Y-88342438D02*
X186103333Y-88390057D01*
X187055714Y-89294819D02*
X186484286Y-89294819D01*
X186770000Y-89294819D02*
X186770000Y-88294819D01*
X186770000Y-88294819D02*
X186674762Y-88437676D01*
X186674762Y-88437676D02*
X186579524Y-88532914D01*
X186579524Y-88532914D02*
X186484286Y-88580533D01*
X134357142Y-63559580D02*
X134309523Y-63607200D01*
X134309523Y-63607200D02*
X134166666Y-63654819D01*
X134166666Y-63654819D02*
X134071428Y-63654819D01*
X134071428Y-63654819D02*
X133928571Y-63607200D01*
X133928571Y-63607200D02*
X133833333Y-63511961D01*
X133833333Y-63511961D02*
X133785714Y-63416723D01*
X133785714Y-63416723D02*
X133738095Y-63226247D01*
X133738095Y-63226247D02*
X133738095Y-63083390D01*
X133738095Y-63083390D02*
X133785714Y-62892914D01*
X133785714Y-62892914D02*
X133833333Y-62797676D01*
X133833333Y-62797676D02*
X133928571Y-62702438D01*
X133928571Y-62702438D02*
X134071428Y-62654819D01*
X134071428Y-62654819D02*
X134166666Y-62654819D01*
X134166666Y-62654819D02*
X134309523Y-62702438D01*
X134309523Y-62702438D02*
X134357142Y-62750057D01*
X135309523Y-63654819D02*
X134738095Y-63654819D01*
X135023809Y-63654819D02*
X135023809Y-62654819D01*
X135023809Y-62654819D02*
X134928571Y-62797676D01*
X134928571Y-62797676D02*
X134833333Y-62892914D01*
X134833333Y-62892914D02*
X134738095Y-62940533D01*
X135928571Y-62654819D02*
X136023809Y-62654819D01*
X136023809Y-62654819D02*
X136119047Y-62702438D01*
X136119047Y-62702438D02*
X136166666Y-62750057D01*
X136166666Y-62750057D02*
X136214285Y-62845295D01*
X136214285Y-62845295D02*
X136261904Y-63035771D01*
X136261904Y-63035771D02*
X136261904Y-63273866D01*
X136261904Y-63273866D02*
X136214285Y-63464342D01*
X136214285Y-63464342D02*
X136166666Y-63559580D01*
X136166666Y-63559580D02*
X136119047Y-63607200D01*
X136119047Y-63607200D02*
X136023809Y-63654819D01*
X136023809Y-63654819D02*
X135928571Y-63654819D01*
X135928571Y-63654819D02*
X135833333Y-63607200D01*
X135833333Y-63607200D02*
X135785714Y-63559580D01*
X135785714Y-63559580D02*
X135738095Y-63464342D01*
X135738095Y-63464342D02*
X135690476Y-63273866D01*
X135690476Y-63273866D02*
X135690476Y-63035771D01*
X135690476Y-63035771D02*
X135738095Y-62845295D01*
X135738095Y-62845295D02*
X135785714Y-62750057D01*
X135785714Y-62750057D02*
X135833333Y-62702438D01*
X135833333Y-62702438D02*
X135928571Y-62654819D01*
X130363333Y-89199580D02*
X130315714Y-89247200D01*
X130315714Y-89247200D02*
X130172857Y-89294819D01*
X130172857Y-89294819D02*
X130077619Y-89294819D01*
X130077619Y-89294819D02*
X129934762Y-89247200D01*
X129934762Y-89247200D02*
X129839524Y-89151961D01*
X129839524Y-89151961D02*
X129791905Y-89056723D01*
X129791905Y-89056723D02*
X129744286Y-88866247D01*
X129744286Y-88866247D02*
X129744286Y-88723390D01*
X129744286Y-88723390D02*
X129791905Y-88532914D01*
X129791905Y-88532914D02*
X129839524Y-88437676D01*
X129839524Y-88437676D02*
X129934762Y-88342438D01*
X129934762Y-88342438D02*
X130077619Y-88294819D01*
X130077619Y-88294819D02*
X130172857Y-88294819D01*
X130172857Y-88294819D02*
X130315714Y-88342438D01*
X130315714Y-88342438D02*
X130363333Y-88390057D01*
X130744286Y-88390057D02*
X130791905Y-88342438D01*
X130791905Y-88342438D02*
X130887143Y-88294819D01*
X130887143Y-88294819D02*
X131125238Y-88294819D01*
X131125238Y-88294819D02*
X131220476Y-88342438D01*
X131220476Y-88342438D02*
X131268095Y-88390057D01*
X131268095Y-88390057D02*
X131315714Y-88485295D01*
X131315714Y-88485295D02*
X131315714Y-88580533D01*
X131315714Y-88580533D02*
X131268095Y-88723390D01*
X131268095Y-88723390D02*
X130696667Y-89294819D01*
X130696667Y-89294819D02*
X131315714Y-89294819D01*
D11*
X173306666Y-91013842D02*
X173488095Y-91074318D01*
X173488095Y-91074318D02*
X173790476Y-91074318D01*
X173790476Y-91074318D02*
X173911428Y-91013842D01*
X173911428Y-91013842D02*
X173971904Y-90953365D01*
X173971904Y-90953365D02*
X174032381Y-90832413D01*
X174032381Y-90832413D02*
X174032381Y-90711461D01*
X174032381Y-90711461D02*
X173971904Y-90590508D01*
X173971904Y-90590508D02*
X173911428Y-90530032D01*
X173911428Y-90530032D02*
X173790476Y-90469556D01*
X173790476Y-90469556D02*
X173548571Y-90409080D01*
X173548571Y-90409080D02*
X173427619Y-90348603D01*
X173427619Y-90348603D02*
X173367142Y-90288127D01*
X173367142Y-90288127D02*
X173306666Y-90167175D01*
X173306666Y-90167175D02*
X173306666Y-90046222D01*
X173306666Y-90046222D02*
X173367142Y-89925270D01*
X173367142Y-89925270D02*
X173427619Y-89864794D01*
X173427619Y-89864794D02*
X173548571Y-89804318D01*
X173548571Y-89804318D02*
X173850952Y-89804318D01*
X173850952Y-89804318D02*
X174032381Y-89864794D01*
X174455714Y-89804318D02*
X174758095Y-91074318D01*
X174758095Y-91074318D02*
X175000000Y-90167175D01*
X175000000Y-90167175D02*
X175241905Y-91074318D01*
X175241905Y-91074318D02*
X175544286Y-89804318D01*
X176693334Y-91074318D02*
X175967619Y-91074318D01*
X176330476Y-91074318D02*
X176330476Y-89804318D01*
X176330476Y-89804318D02*
X176209524Y-89985746D01*
X176209524Y-89985746D02*
X176088572Y-90106699D01*
X176088572Y-90106699D02*
X175967619Y-90167175D01*
D10*
X149676666Y-54184819D02*
X149676666Y-54899104D01*
X149676666Y-54899104D02*
X149629047Y-55041961D01*
X149629047Y-55041961D02*
X149533809Y-55137200D01*
X149533809Y-55137200D02*
X149390952Y-55184819D01*
X149390952Y-55184819D02*
X149295714Y-55184819D01*
X150581428Y-54184819D02*
X150390952Y-54184819D01*
X150390952Y-54184819D02*
X150295714Y-54232438D01*
X150295714Y-54232438D02*
X150248095Y-54280057D01*
X150248095Y-54280057D02*
X150152857Y-54422914D01*
X150152857Y-54422914D02*
X150105238Y-54613390D01*
X150105238Y-54613390D02*
X150105238Y-54994342D01*
X150105238Y-54994342D02*
X150152857Y-55089580D01*
X150152857Y-55089580D02*
X150200476Y-55137200D01*
X150200476Y-55137200D02*
X150295714Y-55184819D01*
X150295714Y-55184819D02*
X150486190Y-55184819D01*
X150486190Y-55184819D02*
X150581428Y-55137200D01*
X150581428Y-55137200D02*
X150629047Y-55089580D01*
X150629047Y-55089580D02*
X150676666Y-54994342D01*
X150676666Y-54994342D02*
X150676666Y-54756247D01*
X150676666Y-54756247D02*
X150629047Y-54661009D01*
X150629047Y-54661009D02*
X150581428Y-54613390D01*
X150581428Y-54613390D02*
X150486190Y-54565771D01*
X150486190Y-54565771D02*
X150295714Y-54565771D01*
X150295714Y-54565771D02*
X150200476Y-54613390D01*
X150200476Y-54613390D02*
X150152857Y-54661009D01*
X150152857Y-54661009D02*
X150105238Y-54756247D01*
X145390476Y-78354819D02*
X145390476Y-79069104D01*
X145390476Y-79069104D02*
X145342857Y-79211961D01*
X145342857Y-79211961D02*
X145247619Y-79307200D01*
X145247619Y-79307200D02*
X145104762Y-79354819D01*
X145104762Y-79354819D02*
X145009524Y-79354819D01*
X146390476Y-79354819D02*
X145819048Y-79354819D01*
X146104762Y-79354819D02*
X146104762Y-78354819D01*
X146104762Y-78354819D02*
X146009524Y-78497676D01*
X146009524Y-78497676D02*
X145914286Y-78592914D01*
X145914286Y-78592914D02*
X145819048Y-78640533D01*
X147009524Y-78354819D02*
X147104762Y-78354819D01*
X147104762Y-78354819D02*
X147200000Y-78402438D01*
X147200000Y-78402438D02*
X147247619Y-78450057D01*
X147247619Y-78450057D02*
X147295238Y-78545295D01*
X147295238Y-78545295D02*
X147342857Y-78735771D01*
X147342857Y-78735771D02*
X147342857Y-78973866D01*
X147342857Y-78973866D02*
X147295238Y-79164342D01*
X147295238Y-79164342D02*
X147247619Y-79259580D01*
X147247619Y-79259580D02*
X147200000Y-79307200D01*
X147200000Y-79307200D02*
X147104762Y-79354819D01*
X147104762Y-79354819D02*
X147009524Y-79354819D01*
X147009524Y-79354819D02*
X146914286Y-79307200D01*
X146914286Y-79307200D02*
X146866667Y-79259580D01*
X146866667Y-79259580D02*
X146819048Y-79164342D01*
X146819048Y-79164342D02*
X146771429Y-78973866D01*
X146771429Y-78973866D02*
X146771429Y-78735771D01*
X146771429Y-78735771D02*
X146819048Y-78545295D01*
X146819048Y-78545295D02*
X146866667Y-78450057D01*
X146866667Y-78450057D02*
X146914286Y-78402438D01*
X146914286Y-78402438D02*
X147009524Y-78354819D01*
X142056666Y-54184819D02*
X142056666Y-54899104D01*
X142056666Y-54899104D02*
X142009047Y-55041961D01*
X142009047Y-55041961D02*
X141913809Y-55137200D01*
X141913809Y-55137200D02*
X141770952Y-55184819D01*
X141770952Y-55184819D02*
X141675714Y-55184819D01*
X143009047Y-54184819D02*
X142532857Y-54184819D01*
X142532857Y-54184819D02*
X142485238Y-54661009D01*
X142485238Y-54661009D02*
X142532857Y-54613390D01*
X142532857Y-54613390D02*
X142628095Y-54565771D01*
X142628095Y-54565771D02*
X142866190Y-54565771D01*
X142866190Y-54565771D02*
X142961428Y-54613390D01*
X142961428Y-54613390D02*
X143009047Y-54661009D01*
X143009047Y-54661009D02*
X143056666Y-54756247D01*
X143056666Y-54756247D02*
X143056666Y-54994342D01*
X143056666Y-54994342D02*
X143009047Y-55089580D01*
X143009047Y-55089580D02*
X142961428Y-55137200D01*
X142961428Y-55137200D02*
X142866190Y-55184819D01*
X142866190Y-55184819D02*
X142628095Y-55184819D01*
X142628095Y-55184819D02*
X142532857Y-55137200D01*
X142532857Y-55137200D02*
X142485238Y-55089580D01*
D12*
%TO.C,J8*%
X126410000Y-94110000D02*
X126410000Y-95360000D01*
X126700000Y-94400000D02*
X126700000Y-100370000D01*
X126700000Y-100370000D02*
X134320000Y-100370000D01*
X126710000Y-94410000D02*
X126710000Y-95160000D01*
X126710000Y-95160000D02*
X128510000Y-95160000D01*
X126710000Y-96660000D02*
X127460000Y-96660000D01*
X127460000Y-96660000D02*
X127460000Y-99610000D01*
X127460000Y-99610000D02*
X130510000Y-99610000D01*
X127660000Y-94110000D02*
X126410000Y-94110000D01*
X128510000Y-94410000D02*
X126710000Y-94410000D01*
X128510000Y-95160000D02*
X128510000Y-94410000D01*
X130010000Y-94410000D02*
X130010000Y-95160000D01*
X130010000Y-95160000D02*
X131010000Y-95160000D01*
X131010000Y-94410000D02*
X130010000Y-94410000D01*
X131010000Y-95160000D02*
X131010000Y-94410000D01*
X132510000Y-94410000D02*
X132510000Y-95160000D01*
X132510000Y-95160000D02*
X134310000Y-95160000D01*
X133560000Y-96660000D02*
X133560000Y-99610000D01*
X133560000Y-99610000D02*
X130510000Y-99610000D01*
X134310000Y-94410000D02*
X132510000Y-94410000D01*
X134310000Y-95160000D02*
X134310000Y-94410000D01*
X134310000Y-96660000D02*
X133560000Y-96660000D01*
X134320000Y-94400000D02*
X126700000Y-94400000D01*
X134320000Y-100370000D02*
X134320000Y-94400000D01*
%TO.C,C9*%
X129640000Y-58857836D02*
X129640000Y-58642164D01*
X130360000Y-58857836D02*
X130360000Y-58642164D01*
D13*
%TO.C,IC2*%
X112930000Y-71200000D02*
X112930000Y-71985000D01*
X112930000Y-71985000D02*
X119470000Y-71985000D01*
D14*
X113800000Y-75800000D02*
X113800000Y-75800000D01*
X113800000Y-75900000D02*
X113800000Y-75900000D01*
D13*
X119470000Y-71985000D02*
X119470000Y-71200000D01*
D14*
X113800000Y-75800000D02*
G75*
G02*
X113800000Y-75900000I0J-50000D01*
G01*
X113800000Y-75900000D02*
G75*
G02*
X113800000Y-75800000I0J50000D01*
G01*
D12*
%TO.C,C4*%
X174272164Y-76640000D02*
X174487836Y-76640000D01*
X174272164Y-77360000D02*
X174487836Y-77360000D01*
%TO.C,C5*%
X174272164Y-78140000D02*
X174487836Y-78140000D01*
X174272164Y-78860000D02*
X174487836Y-78860000D01*
%TO.C,J9*%
X157750000Y-94110000D02*
X157750000Y-95360000D01*
X158040000Y-94400000D02*
X158040000Y-100370000D01*
X158040000Y-100370000D02*
X165660000Y-100370000D01*
X158050000Y-94410000D02*
X158050000Y-95160000D01*
X158050000Y-95160000D02*
X159850000Y-95160000D01*
X158050000Y-96660000D02*
X158800000Y-96660000D01*
X158800000Y-96660000D02*
X158800000Y-99610000D01*
X158800000Y-99610000D02*
X161850000Y-99610000D01*
X159000000Y-94110000D02*
X157750000Y-94110000D01*
X159850000Y-94410000D02*
X158050000Y-94410000D01*
X159850000Y-95160000D02*
X159850000Y-94410000D01*
X161350000Y-94410000D02*
X161350000Y-95160000D01*
X161350000Y-95160000D02*
X162350000Y-95160000D01*
X162350000Y-94410000D02*
X161350000Y-94410000D01*
X162350000Y-95160000D02*
X162350000Y-94410000D01*
X163850000Y-94410000D02*
X163850000Y-95160000D01*
X163850000Y-95160000D02*
X165650000Y-95160000D01*
X164900000Y-96660000D02*
X164900000Y-99610000D01*
X164900000Y-99610000D02*
X161850000Y-99610000D01*
X165650000Y-94410000D02*
X163850000Y-94410000D01*
X165650000Y-95160000D02*
X165650000Y-94410000D01*
X165650000Y-96660000D02*
X164900000Y-96660000D01*
X165660000Y-94400000D02*
X158040000Y-94400000D01*
X165660000Y-100370000D02*
X165660000Y-94400000D01*
%TO.C,J7*%
X182150000Y-94110000D02*
X182150000Y-95360000D01*
X182440000Y-94400000D02*
X182440000Y-100370000D01*
X182440000Y-100370000D02*
X190060000Y-100370000D01*
X182450000Y-94410000D02*
X182450000Y-95160000D01*
X182450000Y-95160000D02*
X184250000Y-95160000D01*
X182450000Y-96660000D02*
X183200000Y-96660000D01*
X183200000Y-96660000D02*
X183200000Y-99610000D01*
X183200000Y-99610000D02*
X186250000Y-99610000D01*
X183400000Y-94110000D02*
X182150000Y-94110000D01*
X184250000Y-94410000D02*
X182450000Y-94410000D01*
X184250000Y-95160000D02*
X184250000Y-94410000D01*
X185750000Y-94410000D02*
X185750000Y-95160000D01*
X185750000Y-95160000D02*
X186750000Y-95160000D01*
X186750000Y-94410000D02*
X185750000Y-94410000D01*
X186750000Y-95160000D02*
X186750000Y-94410000D01*
X188250000Y-94410000D02*
X188250000Y-95160000D01*
X188250000Y-95160000D02*
X190050000Y-95160000D01*
X189300000Y-96660000D02*
X189300000Y-99610000D01*
X189300000Y-99610000D02*
X186250000Y-99610000D01*
X190050000Y-94410000D02*
X188250000Y-94410000D01*
X190050000Y-95160000D02*
X190050000Y-94410000D01*
X190050000Y-96660000D02*
X189300000Y-96660000D01*
X190060000Y-94400000D02*
X182440000Y-94400000D01*
X190060000Y-100370000D02*
X190060000Y-94400000D01*
%TO.C,C1*%
X186162164Y-89640000D02*
X186377836Y-89640000D01*
X186162164Y-90360000D02*
X186377836Y-90360000D01*
%TO.C,C8*%
X117865580Y-76990000D02*
X117584420Y-76990000D01*
X117865580Y-78010000D02*
X117584420Y-78010000D01*
D15*
%TO.C,G\u002A\u002A\u002A*%
G36*
X94324460Y-100072763D02*
G01*
X94318863Y-100078360D01*
X94313266Y-100072763D01*
X94318863Y-100067166D01*
X94324460Y-100072763D01*
G37*
G36*
X95083174Y-99118655D02*
G01*
X95079489Y-99127796D01*
X95065905Y-99133067D01*
X95061263Y-99131185D01*
X95045796Y-99131924D01*
X95042334Y-99135712D01*
X95027031Y-99146219D01*
X95001607Y-99154454D01*
X94985126Y-99157005D01*
X94985526Y-99153373D01*
X95004098Y-99142001D01*
X95018511Y-99134061D01*
X95053348Y-99117684D01*
X95075748Y-99112462D01*
X95083174Y-99118655D01*
G37*
G36*
X96256897Y-98830972D02*
G01*
X96415633Y-98853161D01*
X96557735Y-98891528D01*
X96607737Y-98909924D01*
X96656486Y-98929979D01*
X96699577Y-98949627D01*
X96732604Y-98966802D01*
X96751161Y-98979440D01*
X96753636Y-98983371D01*
X96762783Y-98991381D01*
X96771209Y-98992507D01*
X96795433Y-99000335D01*
X96831898Y-99022344D01*
X96877598Y-99056326D01*
X96929525Y-99100070D01*
X96975924Y-99142905D01*
X97016794Y-99184082D01*
X97055021Y-99226044D01*
X97087464Y-99264968D01*
X97110982Y-99297033D01*
X97122434Y-99318414D01*
X97123050Y-99321959D01*
X97112328Y-99323612D01*
X97082052Y-99325106D01*
X97035057Y-99326383D01*
X96974176Y-99327385D01*
X96902244Y-99328054D01*
X96822096Y-99328333D01*
X96810085Y-99328338D01*
X96497120Y-99328338D01*
X96465859Y-99287174D01*
X96386196Y-99198559D01*
X96294054Y-99126696D01*
X96188285Y-99070993D01*
X96067739Y-99030861D01*
X95931269Y-99005709D01*
X95914001Y-99003695D01*
X95809910Y-98996677D01*
X95702093Y-98998678D01*
X95586518Y-99010092D01*
X95459151Y-99031313D01*
X95320758Y-99061583D01*
X95267160Y-99074398D01*
X95221225Y-99085367D01*
X95187463Y-99093414D01*
X95170386Y-99097464D01*
X95169634Y-99097639D01*
X95150779Y-99103038D01*
X95133353Y-99108656D01*
X95106381Y-99114858D01*
X95096760Y-99111003D01*
X95103392Y-99099719D01*
X95125183Y-99083636D01*
X95149133Y-99070805D01*
X95183925Y-99055497D01*
X95210661Y-99046165D01*
X95222893Y-99044756D01*
X95236442Y-99041996D01*
X95248880Y-99032401D01*
X95272197Y-99018012D01*
X95287042Y-99014896D01*
X95306242Y-99010042D01*
X95311430Y-99004504D01*
X95323460Y-98996508D01*
X95353205Y-98983834D01*
X95396788Y-98967737D01*
X95450336Y-98949471D01*
X95509974Y-98930287D01*
X95571825Y-98911440D01*
X95632015Y-98894183D01*
X95686670Y-98879770D01*
X95723755Y-98871139D01*
X95909349Y-98839922D01*
X96087599Y-98826546D01*
X96256897Y-98830972D01*
G37*
G36*
X95015137Y-99448677D02*
G01*
X95009794Y-99484990D01*
X95004522Y-99516680D01*
X95004158Y-99518642D01*
X94981067Y-99640989D01*
X94961305Y-99743448D01*
X94944235Y-99828166D01*
X94929219Y-99897289D01*
X94915617Y-99952962D01*
X94902791Y-99997333D01*
X94890102Y-100032548D01*
X94876912Y-100060752D01*
X94862582Y-100084093D01*
X94846473Y-100104717D01*
X94827947Y-100124769D01*
X94822008Y-100130806D01*
X94787918Y-100163766D01*
X94763363Y-100182856D01*
X94743185Y-100191098D01*
X94722226Y-100191517D01*
X94719061Y-100191139D01*
X94706140Y-100195890D01*
X94705068Y-100199737D01*
X94694775Y-100209895D01*
X94667419Y-100218196D01*
X94628285Y-100224131D01*
X94582659Y-100227193D01*
X94535825Y-100226871D01*
X94493069Y-100222659D01*
X94483980Y-100221008D01*
X94455041Y-100212824D01*
X94438172Y-100203555D01*
X94436404Y-100200179D01*
X94429735Y-100193659D01*
X94426735Y-100194958D01*
X94415219Y-100190693D01*
X94393762Y-100175545D01*
X94368207Y-100154509D01*
X94344397Y-100132579D01*
X94328175Y-100114752D01*
X94324460Y-100107523D01*
X94334417Y-100076127D01*
X94361369Y-100043560D01*
X94395542Y-100018369D01*
X94434600Y-99997665D01*
X94461511Y-99990790D01*
X94481898Y-99997951D01*
X94501385Y-100019359D01*
X94503570Y-100022388D01*
X94521850Y-100043543D01*
X94542765Y-100053373D01*
X94575612Y-100055955D01*
X94580202Y-100055971D01*
X94614662Y-100053795D01*
X94642614Y-100045654D01*
X94665430Y-100029128D01*
X94684484Y-100001796D01*
X94701147Y-99961239D01*
X94716793Y-99905036D01*
X94732793Y-99830769D01*
X94745273Y-99764918D01*
X94750340Y-99738283D01*
X94758443Y-99696785D01*
X94768528Y-99645708D01*
X94779541Y-99590336D01*
X94790427Y-99535954D01*
X94800132Y-99487846D01*
X94807602Y-99451297D01*
X94811715Y-99431886D01*
X94815803Y-99419971D01*
X94824488Y-99412556D01*
X94842297Y-99408581D01*
X94873760Y-99406982D01*
X94919150Y-99406699D01*
X95020862Y-99406699D01*
X95015137Y-99448677D01*
G37*
G36*
X96350639Y-99434264D02*
G01*
X96346606Y-99455498D01*
X96338691Y-99462670D01*
X96331467Y-99471252D01*
X96332783Y-99482261D01*
X96333539Y-99502871D01*
X96329558Y-99537361D01*
X96322467Y-99574614D01*
X96312833Y-99620508D01*
X96304647Y-99664791D01*
X96300573Y-99691380D01*
X96294082Y-99721403D01*
X96284889Y-99740950D01*
X96282459Y-99743156D01*
X96275279Y-99758972D01*
X96277432Y-99774715D01*
X96278873Y-99794239D01*
X96271835Y-99798501D01*
X96263831Y-99806646D01*
X96265520Y-99816303D01*
X96267655Y-99838283D01*
X96265007Y-99845987D01*
X96258809Y-99864996D01*
X96254544Y-99892553D01*
X96248515Y-99943245D01*
X96241420Y-99974542D01*
X96236795Y-99983243D01*
X96234033Y-99997652D01*
X96236006Y-100017054D01*
X96241306Y-100044777D01*
X96393923Y-100044948D01*
X96451135Y-100045702D01*
X96500954Y-100047645D01*
X96538755Y-100050504D01*
X96559912Y-100054005D01*
X96562009Y-100054917D01*
X96569371Y-100062543D01*
X96572419Y-100076208D01*
X96570970Y-100100067D01*
X96564843Y-100138274D01*
X96556463Y-100181908D01*
X96550359Y-100212692D01*
X96271389Y-100212692D01*
X96185356Y-100212646D01*
X96119122Y-100212363D01*
X96070098Y-100211622D01*
X96035697Y-100210206D01*
X96013329Y-100207895D01*
X96000404Y-100204471D01*
X95994335Y-100199714D01*
X95992531Y-100193407D01*
X95992420Y-100189107D01*
X95995112Y-100162133D01*
X96002087Y-100125936D01*
X96011696Y-100086635D01*
X96022287Y-100050351D01*
X96032211Y-100023202D01*
X96039817Y-100011309D01*
X96040401Y-100011194D01*
X96044998Y-100004880D01*
X96040411Y-99997201D01*
X96037348Y-99978188D01*
X96041087Y-99938515D01*
X96051557Y-99878826D01*
X96055381Y-99860070D01*
X96068946Y-99793383D01*
X96084001Y-99716739D01*
X96098188Y-99642239D01*
X96104470Y-99608197D01*
X96114593Y-99553622D01*
X96124150Y-99504097D01*
X96131970Y-99465577D01*
X96136390Y-99445879D01*
X96144914Y-99412296D01*
X96247777Y-99409077D01*
X96350639Y-99405858D01*
X96350639Y-99434264D01*
G37*
G36*
X99512999Y-99317506D02*
G01*
X99567963Y-99319063D01*
X99606382Y-99322526D01*
X99631173Y-99328600D01*
X99645257Y-99337996D01*
X99651551Y-99351422D01*
X99652975Y-99369180D01*
X99650172Y-99389347D01*
X99642550Y-99426309D01*
X99631292Y-99475410D01*
X99617577Y-99531993D01*
X99602588Y-99591401D01*
X99587506Y-99648977D01*
X99573512Y-99700065D01*
X99561788Y-99740009D01*
X99553515Y-99764150D01*
X99551910Y-99767565D01*
X99542873Y-99794922D01*
X99541003Y-99812342D01*
X99538127Y-99833837D01*
X99530426Y-99870696D01*
X99519254Y-99916762D01*
X99512056Y-99944028D01*
X99495916Y-100004408D01*
X99479529Y-100067495D01*
X99463900Y-100129211D01*
X99450036Y-100185475D01*
X99438943Y-100232208D01*
X99431626Y-100265328D01*
X99429088Y-100280572D01*
X99439924Y-100283736D01*
X99471004Y-100286433D01*
X99520186Y-100288584D01*
X99585331Y-100290109D01*
X99664295Y-100290930D01*
X99712809Y-100291053D01*
X99800013Y-100291136D01*
X99867584Y-100291520D01*
X99918276Y-100292408D01*
X99954847Y-100294004D01*
X99980050Y-100296510D01*
X99996641Y-100300130D01*
X100007375Y-100305068D01*
X100015008Y-100311525D01*
X100016819Y-100313472D01*
X100028912Y-100330297D01*
X100031232Y-100348682D01*
X100024577Y-100377653D01*
X100022963Y-100383107D01*
X100012812Y-100419490D01*
X100005090Y-100451481D01*
X100003824Y-100457854D01*
X99997364Y-100483488D01*
X99992020Y-100496407D01*
X99986163Y-100515006D01*
X99982704Y-100539262D01*
X99981584Y-100554628D01*
X99979575Y-100567372D01*
X99974744Y-100577740D01*
X99965163Y-100585976D01*
X99948900Y-100592326D01*
X99924026Y-100597033D01*
X99888610Y-100600343D01*
X99840721Y-100602500D01*
X99778429Y-100603749D01*
X99699805Y-100604335D01*
X99602916Y-100604503D01*
X99485834Y-100604496D01*
X99468138Y-100604495D01*
X99350935Y-100604447D01*
X99254056Y-100604248D01*
X99175434Y-100603813D01*
X99113004Y-100603060D01*
X99064701Y-100601903D01*
X99028458Y-100600260D01*
X99002210Y-100598046D01*
X98983892Y-100595177D01*
X98971438Y-100591571D01*
X98962783Y-100587142D01*
X98958239Y-100583802D01*
X98932685Y-100563110D01*
X99025849Y-100194798D01*
X99048591Y-100105061D01*
X99070178Y-100020208D01*
X99089847Y-99943210D01*
X99106838Y-99877036D01*
X99120387Y-99824657D01*
X99129732Y-99789044D01*
X99133243Y-99776112D01*
X99141020Y-99747296D01*
X99152792Y-99702080D01*
X99167188Y-99645802D01*
X99182837Y-99583798D01*
X99189332Y-99557822D01*
X99204667Y-99496522D01*
X99218858Y-99440196D01*
X99230675Y-99393693D01*
X99238891Y-99361859D01*
X99241110Y-99353525D01*
X99251031Y-99317144D01*
X99438570Y-99317144D01*
X99512999Y-99317506D01*
G37*
G36*
X97234373Y-99391507D02*
G01*
X97249766Y-99394250D01*
X97316586Y-99413712D01*
X97376391Y-99442082D01*
X97422184Y-99475902D01*
X97428747Y-99482686D01*
X97438863Y-99495561D01*
X97439933Y-99506918D01*
X97429676Y-99521865D01*
X97405812Y-99545508D01*
X97396990Y-99553811D01*
X97360547Y-99587151D01*
X97335460Y-99606434D01*
X97317227Y-99613403D01*
X97301344Y-99609804D01*
X97283716Y-99597703D01*
X97229599Y-99567433D01*
X97172540Y-99556785D01*
X97114906Y-99563631D01*
X97059064Y-99585845D01*
X97007383Y-99621297D01*
X96962228Y-99667860D01*
X96925969Y-99723407D01*
X96900972Y-99785810D01*
X96889604Y-99852940D01*
X96894234Y-99922671D01*
X96899012Y-99943466D01*
X96922851Y-99997340D01*
X96961683Y-100034849D01*
X97011683Y-100056127D01*
X97070227Y-100061453D01*
X97132412Y-100049474D01*
X97189985Y-100021851D01*
X97193412Y-100019525D01*
X97219428Y-100006491D01*
X97240460Y-100004062D01*
X97241569Y-100004423D01*
X97252793Y-100004987D01*
X97251706Y-99999871D01*
X97252112Y-99989623D01*
X97255672Y-99988805D01*
X97267435Y-99997237D01*
X97287091Y-100019146D01*
X97306362Y-100044323D01*
X97328264Y-100075729D01*
X97336968Y-100095745D01*
X97331990Y-100111408D01*
X97312846Y-100129756D01*
X97299750Y-100140543D01*
X97268868Y-100160218D01*
X97224262Y-100181936D01*
X97173933Y-100202331D01*
X97125883Y-100218040D01*
X97101932Y-100223730D01*
X97065659Y-100230145D01*
X97038383Y-100232933D01*
X97011339Y-100232088D01*
X96975764Y-100227604D01*
X96949537Y-100223606D01*
X96904926Y-100214171D01*
X96863529Y-100201101D01*
X96830758Y-100186580D01*
X96812025Y-100172794D01*
X96809608Y-100167104D01*
X96803608Y-100159727D01*
X96800782Y-100160854D01*
X96786864Y-100157479D01*
X96765681Y-100139349D01*
X96741186Y-100111085D01*
X96729936Y-100095152D01*
X97324548Y-100095152D01*
X97330146Y-100100749D01*
X97335743Y-100095152D01*
X97330146Y-100089555D01*
X97324548Y-100095152D01*
X96729936Y-100095152D01*
X96717335Y-100077306D01*
X96698082Y-100042632D01*
X96696394Y-100038916D01*
X96680849Y-99982466D01*
X96676054Y-99913216D01*
X96681166Y-99837517D01*
X96689507Y-99792904D01*
X96865580Y-99792904D01*
X96871177Y-99798501D01*
X96876774Y-99792904D01*
X96871177Y-99787307D01*
X96865580Y-99792904D01*
X96689507Y-99792904D01*
X96695337Y-99761720D01*
X96717723Y-99692175D01*
X96747479Y-99635235D01*
X96750749Y-99630586D01*
X96786986Y-99586804D01*
X96804519Y-99569017D01*
X97022301Y-99569017D01*
X97027898Y-99574614D01*
X97033495Y-99569017D01*
X97027898Y-99563420D01*
X97022301Y-99569017D01*
X96804519Y-99569017D01*
X96832882Y-99540242D01*
X96882564Y-99496131D01*
X96930163Y-99459703D01*
X96967933Y-99437059D01*
X97058032Y-99403946D01*
X97148613Y-99388494D01*
X97234373Y-99391507D01*
G37*
G36*
X98715428Y-99317226D02*
G01*
X98783108Y-99317601D01*
X98833719Y-99318463D01*
X98869921Y-99320005D01*
X98894375Y-99322421D01*
X98909741Y-99325902D01*
X98918679Y-99330644D01*
X98923848Y-99336839D01*
X98924908Y-99338722D01*
X98932112Y-99362584D01*
X98931222Y-99375103D01*
X98925280Y-99397388D01*
X98921171Y-99417893D01*
X98913981Y-99453210D01*
X98903119Y-99499235D01*
X98890272Y-99549585D01*
X98877129Y-99597876D01*
X98865375Y-99637724D01*
X98856698Y-99662746D01*
X98856073Y-99664169D01*
X98845235Y-99696769D01*
X98841135Y-99720141D01*
X98837041Y-99746743D01*
X98829157Y-99781929D01*
X98819474Y-99818292D01*
X98809981Y-99848430D01*
X98802669Y-99864938D01*
X98802015Y-99865667D01*
X98796850Y-99879975D01*
X98794594Y-99899250D01*
X98790502Y-99930292D01*
X98781895Y-99971883D01*
X98771267Y-100013310D01*
X98761112Y-100043858D01*
X98760718Y-100044777D01*
X98752735Y-100071592D01*
X98751412Y-100079878D01*
X98745614Y-100111903D01*
X98735279Y-100151926D01*
X98722532Y-100193294D01*
X98709501Y-100229356D01*
X98698311Y-100253460D01*
X98694193Y-100258851D01*
X98681729Y-100279691D01*
X98679066Y-100295530D01*
X98669978Y-100328469D01*
X98642445Y-100372339D01*
X98631759Y-100386205D01*
X98619273Y-100402380D01*
X98600892Y-100426659D01*
X98599236Y-100428864D01*
X98579158Y-100448739D01*
X98561705Y-100454827D01*
X98560177Y-100454403D01*
X98547191Y-100457476D01*
X98544734Y-100468622D01*
X98535562Y-100487523D01*
X98513949Y-100504170D01*
X98485479Y-100520243D01*
X98465593Y-100533956D01*
X98446512Y-100544972D01*
X98415996Y-100558201D01*
X98380630Y-100571338D01*
X98347001Y-100582079D01*
X98321695Y-100588118D01*
X98311644Y-100587830D01*
X98299830Y-100589307D01*
X98289372Y-100596196D01*
X98271330Y-100601936D01*
X98235155Y-100606573D01*
X98185076Y-100610073D01*
X98125322Y-100612400D01*
X98060123Y-100613517D01*
X97993710Y-100613390D01*
X97930311Y-100611983D01*
X97874157Y-100609260D01*
X97829476Y-100605186D01*
X97802426Y-100600295D01*
X97769643Y-100590566D01*
X97747650Y-100580376D01*
X97735453Y-100565888D01*
X97732057Y-100543262D01*
X97736468Y-100508660D01*
X97747693Y-100458242D01*
X97756382Y-100422498D01*
X97789874Y-100285456D01*
X97836013Y-100282065D01*
X97877918Y-100284331D01*
X97919408Y-100294352D01*
X97923756Y-100296058D01*
X97963513Y-100306403D01*
X98016536Y-100312064D01*
X98074164Y-100312881D01*
X98127737Y-100308692D01*
X98165253Y-100300535D01*
X98197502Y-100287690D01*
X98225355Y-100271317D01*
X98249878Y-100249245D01*
X98272136Y-100219304D01*
X98293194Y-100179324D01*
X98314118Y-100127134D01*
X98335972Y-100060565D01*
X98359823Y-99977447D01*
X98386735Y-99875609D01*
X98400686Y-99820890D01*
X98414317Y-99766934D01*
X98423604Y-99729710D01*
X98429690Y-99704242D01*
X98433719Y-99685556D01*
X98436835Y-99668677D01*
X98439925Y-99650176D01*
X98446846Y-99608197D01*
X98367715Y-99608197D01*
X98327659Y-99606751D01*
X98297012Y-99602947D01*
X98282070Y-99597589D01*
X98281808Y-99597233D01*
X98280690Y-99579896D01*
X98286172Y-99547059D01*
X98297143Y-99504239D01*
X98306626Y-99473865D01*
X98311514Y-99451763D01*
X98316011Y-99420035D01*
X98316428Y-99416123D01*
X98322462Y-99379446D01*
X98331282Y-99347141D01*
X98331650Y-99346158D01*
X98342681Y-99317144D01*
X98628020Y-99317144D01*
X98715428Y-99317226D01*
G37*
G36*
X103972935Y-99300176D02*
G01*
X104047032Y-99302986D01*
X104111149Y-99308299D01*
X104158364Y-99315820D01*
X104199830Y-99326743D01*
X104247698Y-99341696D01*
X104296877Y-99358783D01*
X104342274Y-99376109D01*
X104378797Y-99391779D01*
X104401352Y-99403899D01*
X104405694Y-99407854D01*
X104404979Y-99421493D01*
X104399090Y-99451866D01*
X104389273Y-99494258D01*
X104376774Y-99543954D01*
X104362839Y-99596240D01*
X104348713Y-99646400D01*
X104335643Y-99689719D01*
X104324875Y-99721483D01*
X104319473Y-99734134D01*
X104298773Y-99752070D01*
X104266512Y-99752556D01*
X104224633Y-99735996D01*
X104177349Y-99704562D01*
X104112566Y-99658360D01*
X104055256Y-99625518D01*
X104013178Y-99609138D01*
X103992715Y-99606660D01*
X103955954Y-99604806D01*
X103908982Y-99603819D01*
X103878845Y-99603743D01*
X103824668Y-99604650D01*
X103785664Y-99607692D01*
X103754634Y-99614216D01*
X103724378Y-99625565D01*
X103699541Y-99637229D01*
X103620509Y-99688002D01*
X103555577Y-99755110D01*
X103505857Y-99836654D01*
X103472465Y-99930730D01*
X103456512Y-100035437D01*
X103455628Y-100053764D01*
X103458575Y-100137548D01*
X103474583Y-100203656D01*
X103504937Y-100253449D01*
X103550919Y-100288292D01*
X103613815Y-100309547D01*
X103694908Y-100318578D01*
X103705304Y-100318891D01*
X103750968Y-100318872D01*
X103789156Y-100316890D01*
X103813457Y-100313342D01*
X103817277Y-100311929D01*
X103837796Y-100303818D01*
X103872393Y-100292926D01*
X103913341Y-100281559D01*
X103946012Y-100273549D01*
X103960840Y-100266662D01*
X103988340Y-100251381D01*
X104022338Y-100231398D01*
X104056661Y-100210407D01*
X104085134Y-100192100D01*
X104100294Y-100181269D01*
X104123582Y-100172924D01*
X104155238Y-100172829D01*
X104184875Y-100179920D01*
X104201263Y-100191610D01*
X104204204Y-100208052D01*
X104200583Y-100239451D01*
X104190036Y-100287938D01*
X104175064Y-100345244D01*
X104160327Y-100396692D01*
X104146894Y-100439230D01*
X104136148Y-100468767D01*
X104129474Y-100481207D01*
X104129020Y-100481357D01*
X104124376Y-100489526D01*
X104126086Y-100496624D01*
X104121084Y-100508548D01*
X104096817Y-100523179D01*
X104055769Y-100539957D01*
X103982517Y-100565379D01*
X103909332Y-100588022D01*
X103844716Y-100605321D01*
X103822874Y-100610232D01*
X103777044Y-100616507D01*
X103716041Y-100620433D01*
X103646960Y-100621996D01*
X103576895Y-100621186D01*
X103512938Y-100617991D01*
X103462185Y-100612399D01*
X103453460Y-100610839D01*
X103367767Y-100590455D01*
X103297108Y-100565245D01*
X103234230Y-100532519D01*
X103222246Y-100525024D01*
X103173766Y-100488863D01*
X103130580Y-100447353D01*
X103095958Y-100404630D01*
X103073174Y-100364832D01*
X103065500Y-100332098D01*
X103065950Y-100327435D01*
X103061715Y-100314542D01*
X103057880Y-100313442D01*
X103046364Y-100302989D01*
X103037257Y-100274338D01*
X103030569Y-100231553D01*
X103026312Y-100178694D01*
X103024497Y-100119825D01*
X103025133Y-100059007D01*
X103028232Y-100000303D01*
X103033805Y-99947776D01*
X103041862Y-99905488D01*
X103052414Y-99877500D01*
X103056709Y-99871824D01*
X103065823Y-99852274D01*
X103067254Y-99840412D01*
X103073002Y-99814440D01*
X103088416Y-99777429D01*
X103110751Y-99733863D01*
X103137262Y-99688224D01*
X103165204Y-99644997D01*
X103191833Y-99608664D01*
X103214403Y-99583710D01*
X103229981Y-99574614D01*
X103244074Y-99565755D01*
X103256880Y-99547897D01*
X103272373Y-99528987D01*
X103300087Y-99503399D01*
X103334704Y-99475186D01*
X103370908Y-99448398D01*
X103403382Y-99427086D01*
X103426810Y-99415301D01*
X103432396Y-99414162D01*
X103446440Y-99409035D01*
X103447863Y-99405357D01*
X103457314Y-99395585D01*
X103480619Y-99382559D01*
X103510203Y-99369509D01*
X103538490Y-99359668D01*
X103557906Y-99356267D01*
X103561023Y-99357076D01*
X103570469Y-99355869D01*
X103571001Y-99352863D01*
X103580870Y-99344614D01*
X103606680Y-99333160D01*
X103640965Y-99321572D01*
X103684298Y-99312766D01*
X103744539Y-99306163D01*
X103816311Y-99301824D01*
X103894235Y-99299808D01*
X103972935Y-99300176D01*
G37*
G36*
X101225485Y-99295696D02*
G01*
X101260239Y-99297686D01*
X101278234Y-99300933D01*
X101279318Y-99301647D01*
X101294042Y-99306916D01*
X101321709Y-99311208D01*
X101328759Y-99311840D01*
X101361591Y-99317560D01*
X101408080Y-99329569D01*
X101461174Y-99345645D01*
X101513823Y-99363567D01*
X101558975Y-99381111D01*
X101581203Y-99391384D01*
X101603833Y-99407440D01*
X101610906Y-99427921D01*
X101603910Y-99459146D01*
X101599764Y-99470337D01*
X101589084Y-99501306D01*
X101582838Y-99524239D01*
X101578059Y-99544731D01*
X101569250Y-99580626D01*
X101557960Y-99625647D01*
X101552441Y-99647377D01*
X101526745Y-99748127D01*
X101487672Y-99751466D01*
X101464056Y-99750713D01*
X101439517Y-99742471D01*
X101408463Y-99724184D01*
X101373000Y-99699000D01*
X101311135Y-99656630D01*
X101256695Y-99628363D01*
X101202126Y-99611666D01*
X101139875Y-99604005D01*
X101085853Y-99602660D01*
X101031954Y-99603539D01*
X100992508Y-99607066D01*
X100959608Y-99614689D01*
X100925352Y-99627854D01*
X100909717Y-99634895D01*
X100831611Y-99682850D01*
X100766147Y-99747541D01*
X100714836Y-99826281D01*
X100679189Y-99916379D01*
X100660717Y-100015148D01*
X100658610Y-100081815D01*
X100667215Y-100158416D01*
X100687802Y-100221072D01*
X100713840Y-100260783D01*
X100754221Y-100290276D01*
X100810619Y-100309953D01*
X100878530Y-100318942D01*
X100953445Y-100316368D01*
X100980784Y-100312523D01*
X101021970Y-100305611D01*
X101055720Y-100300036D01*
X101074659Y-100297015D01*
X101093209Y-100291301D01*
X101124725Y-100278904D01*
X101157211Y-100264808D01*
X101192664Y-100249425D01*
X101220139Y-100238684D01*
X101232773Y-100235081D01*
X101242391Y-100226624D01*
X101242574Y-100224611D01*
X101252039Y-100214384D01*
X101275433Y-100202397D01*
X101281754Y-100199974D01*
X101307183Y-100188807D01*
X101320405Y-100179149D01*
X101320935Y-100177615D01*
X101330158Y-100168160D01*
X101344125Y-100162063D01*
X101370302Y-100163848D01*
X101395192Y-100179806D01*
X101409590Y-100203229D01*
X101410489Y-100210446D01*
X101407472Y-100230271D01*
X101399411Y-100265409D01*
X101387798Y-100310569D01*
X101374119Y-100360462D01*
X101359866Y-100409799D01*
X101346525Y-100453290D01*
X101335588Y-100485645D01*
X101328542Y-100501575D01*
X101328528Y-100501594D01*
X101308782Y-100516761D01*
X101275893Y-100533237D01*
X101238494Y-100547125D01*
X101214080Y-100553252D01*
X101182609Y-100562629D01*
X101164964Y-100570510D01*
X101142251Y-100577691D01*
X101129873Y-100576041D01*
X101113868Y-100576345D01*
X101085827Y-100585011D01*
X101067688Y-100592771D01*
X101035123Y-100605048D01*
X100994906Y-100613803D01*
X100941710Y-100619951D01*
X100889104Y-100623455D01*
X100835827Y-100625478D01*
X100794323Y-100625402D01*
X100768334Y-100623322D01*
X100761224Y-100620200D01*
X100751237Y-100615001D01*
X100725809Y-100613089D01*
X100708050Y-100613716D01*
X100642092Y-100609588D01*
X100568121Y-100590872D01*
X100492293Y-100560315D01*
X100420762Y-100520667D01*
X100359681Y-100474675D01*
X100330587Y-100445152D01*
X100300534Y-100404986D01*
X100275061Y-100361737D01*
X100256990Y-100321221D01*
X100249142Y-100289254D01*
X100249825Y-100278689D01*
X100248464Y-100259985D01*
X100242289Y-100254287D01*
X100233899Y-100240698D01*
X100228229Y-100209473D01*
X100225246Y-100165196D01*
X100224917Y-100112450D01*
X100227210Y-100055819D01*
X100232092Y-99999887D01*
X100239532Y-99949237D01*
X100244620Y-99925617D01*
X100259934Y-99871542D01*
X100278423Y-99817518D01*
X100298254Y-99767780D01*
X100317594Y-99726560D01*
X100334606Y-99698094D01*
X100347457Y-99686616D01*
X100348189Y-99686558D01*
X100356368Y-99682220D01*
X100354542Y-99679148D01*
X100356055Y-99666586D01*
X100368474Y-99643461D01*
X100376669Y-99631572D01*
X100456755Y-99540661D01*
X100553713Y-99460956D01*
X100663960Y-99394560D01*
X100753917Y-99356324D01*
X101432878Y-99356324D01*
X101438475Y-99361921D01*
X101444072Y-99356324D01*
X101438475Y-99350727D01*
X101432878Y-99356324D01*
X100753917Y-99356324D01*
X100783914Y-99343574D01*
X100909992Y-99310100D01*
X100930693Y-99306478D01*
X100966370Y-99302305D01*
X101013756Y-99298994D01*
X101068105Y-99296613D01*
X101124672Y-99295225D01*
X101178714Y-99294898D01*
X101225485Y-99295696D01*
G37*
G36*
X102423921Y-99319308D02*
G01*
X102504523Y-99320950D01*
X102565990Y-99323676D01*
X102606890Y-99327455D01*
X102613883Y-99328588D01*
X102709062Y-99351757D01*
X102786075Y-99382977D01*
X102848135Y-99423662D01*
X102865897Y-99439421D01*
X102905379Y-99479707D01*
X102932277Y-99515794D01*
X102948917Y-99553728D01*
X102957622Y-99599559D01*
X102960718Y-99659334D01*
X102960908Y-99686558D01*
X102960261Y-99742518D01*
X102957630Y-99782512D01*
X102951983Y-99812941D01*
X102942287Y-99840205D01*
X102932922Y-99860070D01*
X102915230Y-99895018D01*
X102901861Y-99918705D01*
X102887371Y-99939413D01*
X102866314Y-99965422D01*
X102853791Y-99980410D01*
X102829677Y-100005075D01*
X102808227Y-100020170D01*
X102800585Y-100022388D01*
X102780991Y-100030330D01*
X102759305Y-100049395D01*
X102732157Y-100071748D01*
X102688818Y-100097076D01*
X102634808Y-100122884D01*
X102575644Y-100146671D01*
X102516845Y-100165941D01*
X102482692Y-100174590D01*
X102439827Y-100181723D01*
X102381894Y-100188359D01*
X102316212Y-100193794D01*
X102250101Y-100197324D01*
X102244469Y-100197521D01*
X102172737Y-100200882D01*
X102119522Y-100205493D01*
X102086226Y-100211201D01*
X102075164Y-100216115D01*
X102067255Y-100232308D01*
X102056320Y-100264859D01*
X102044107Y-100308253D01*
X102037218Y-100335830D01*
X102025104Y-100384136D01*
X102013533Y-100425969D01*
X102004227Y-100455286D01*
X102000736Y-100463816D01*
X101992447Y-100489421D01*
X101986825Y-100523549D01*
X101986438Y-100528053D01*
X101983227Y-100555562D01*
X101976209Y-100575540D01*
X101962226Y-100589166D01*
X101938117Y-100597620D01*
X101900723Y-100602081D01*
X101846884Y-100603727D01*
X101783501Y-100603785D01*
X101722845Y-100602868D01*
X101668540Y-100600826D01*
X101625307Y-100597928D01*
X101597867Y-100594441D01*
X101592398Y-100592952D01*
X101571368Y-100574516D01*
X101567210Y-100553826D01*
X101569874Y-100532923D01*
X101577014Y-100496357D01*
X101587354Y-100449388D01*
X101599618Y-100397273D01*
X101612529Y-100345271D01*
X101624811Y-100298640D01*
X101635189Y-100262638D01*
X101642384Y-100242523D01*
X101643083Y-100241245D01*
X101649650Y-100221617D01*
X101652796Y-100201526D01*
X101656330Y-100182361D01*
X101664725Y-100145364D01*
X101666039Y-100139929D01*
X102529925Y-100139929D01*
X102535522Y-100145526D01*
X102541120Y-100139929D01*
X102535522Y-100134332D01*
X102529925Y-100139929D01*
X101666039Y-100139929D01*
X101677063Y-100094334D01*
X101692421Y-100033067D01*
X101709878Y-99965361D01*
X101712532Y-99955222D01*
X101728927Y-99892456D01*
X102149317Y-99892456D01*
X102159749Y-99895614D01*
X102188037Y-99897624D01*
X102229668Y-99898297D01*
X102272455Y-99897667D01*
X102321938Y-99895522D01*
X102361927Y-99892274D01*
X102387904Y-99888390D01*
X102395593Y-99884924D01*
X102402408Y-99880207D01*
X102405427Y-99881618D01*
X102418074Y-99877775D01*
X102441203Y-99861702D01*
X102466026Y-99840300D01*
X102506952Y-99792171D01*
X102525816Y-99744379D01*
X102522912Y-99696021D01*
X102517666Y-99680844D01*
X102508850Y-99654270D01*
X102506601Y-99636457D01*
X102506662Y-99636183D01*
X102504343Y-99630562D01*
X102501959Y-99632432D01*
X102487787Y-99633416D01*
X102462355Y-99626319D01*
X102456608Y-99624036D01*
X102423124Y-99615467D01*
X102374195Y-99609926D01*
X102322912Y-99608197D01*
X102276467Y-99608506D01*
X102247391Y-99610383D01*
X102230663Y-99615252D01*
X102221264Y-99624539D01*
X102214456Y-99638982D01*
X102203294Y-99672260D01*
X102197454Y-99697752D01*
X102192329Y-99722428D01*
X102183013Y-99760487D01*
X102171500Y-99803796D01*
X102171219Y-99804812D01*
X102160534Y-99844485D01*
X102152736Y-99875528D01*
X102149354Y-99891825D01*
X102149317Y-99892456D01*
X101728927Y-99892456D01*
X101730381Y-99886891D01*
X101746545Y-99824474D01*
X101760052Y-99771770D01*
X101769929Y-99732575D01*
X101775206Y-99710685D01*
X101775529Y-99709185D01*
X101783878Y-99685433D01*
X101792160Y-99674707D01*
X101798749Y-99659900D01*
X101797363Y-99652080D01*
X101798103Y-99636035D01*
X101804004Y-99602750D01*
X101814164Y-99556537D01*
X101827679Y-99501707D01*
X101833520Y-99479462D01*
X101875363Y-99322741D01*
X102211040Y-99319411D01*
X102325616Y-99318784D01*
X102423921Y-99319308D01*
G37*
G36*
X105152411Y-99322964D02*
G01*
X105241113Y-99323687D01*
X105311699Y-99324990D01*
X105366300Y-99326951D01*
X105407052Y-99329650D01*
X105436088Y-99333166D01*
X105455541Y-99337579D01*
X105457250Y-99338144D01*
X105496319Y-99352635D01*
X105537037Y-99369391D01*
X105573380Y-99385734D01*
X105599325Y-99398987D01*
X105608374Y-99405333D01*
X105621794Y-99415797D01*
X105636360Y-99424564D01*
X105673924Y-99456701D01*
X105703904Y-99505118D01*
X105723339Y-99564190D01*
X105728506Y-99599729D01*
X105725089Y-99683326D01*
X105701832Y-99759145D01*
X105660088Y-99824671D01*
X105601214Y-99877393D01*
X105568283Y-99896895D01*
X105527109Y-99918018D01*
X105568495Y-99943596D01*
X105619518Y-99987718D01*
X105656121Y-100045884D01*
X105676578Y-100113693D01*
X105679162Y-100186745D01*
X105675070Y-100215113D01*
X105665637Y-100251181D01*
X105651621Y-100291031D01*
X105635359Y-100329530D01*
X105619188Y-100361548D01*
X105605447Y-100381953D01*
X105597148Y-100386186D01*
X105587369Y-100391279D01*
X105577134Y-100407921D01*
X105561096Y-100429389D01*
X105533409Y-100455051D01*
X105514468Y-100469305D01*
X105482370Y-100489483D01*
X105446268Y-100509340D01*
X105411270Y-100526468D01*
X105382487Y-100538456D01*
X105365026Y-100542896D01*
X105362098Y-100541158D01*
X105355303Y-100541145D01*
X105348105Y-100546152D01*
X105331065Y-100553776D01*
X105298316Y-100563698D01*
X105256153Y-100574068D01*
X105244557Y-100576582D01*
X105212110Y-100582335D01*
X105172677Y-100587125D01*
X105123673Y-100591091D01*
X105062512Y-100594375D01*
X104986608Y-100597115D01*
X104893375Y-100599452D01*
X104785589Y-100601439D01*
X104684814Y-100603028D01*
X104604002Y-100604107D01*
X104540730Y-100604576D01*
X104492576Y-100604335D01*
X104457118Y-100603282D01*
X104431932Y-100601316D01*
X104414597Y-100598337D01*
X104402690Y-100594244D01*
X104393789Y-100588937D01*
X104388624Y-100584916D01*
X104361074Y-100562401D01*
X104381588Y-100474303D01*
X104392440Y-100431377D01*
X104402853Y-100396404D01*
X104410935Y-100375600D01*
X104412330Y-100373390D01*
X104420326Y-100355949D01*
X104420280Y-100351002D01*
X104420602Y-100332784D01*
X104425377Y-100305880D01*
X104429782Y-100289189D01*
X104852531Y-100289189D01*
X104861414Y-100299004D01*
X104885195Y-100302765D01*
X104927563Y-100304537D01*
X104927722Y-100304543D01*
X104994696Y-100305825D01*
X105053731Y-100304245D01*
X105099925Y-100300061D01*
X105127016Y-100294077D01*
X105150653Y-100286468D01*
X105157397Y-100284815D01*
X105184145Y-100272472D01*
X105213830Y-100249806D01*
X105237686Y-100224263D01*
X105245929Y-100209603D01*
X105252428Y-100179376D01*
X105254987Y-100151123D01*
X105252759Y-100129239D01*
X105241163Y-100114524D01*
X105214713Y-100100879D01*
X105206837Y-100097612D01*
X105165834Y-100086041D01*
X105107392Y-100076822D01*
X105037394Y-100070787D01*
X104984204Y-100067931D01*
X104948940Y-100067080D01*
X104927180Y-100068884D01*
X104914503Y-100073995D01*
X104906486Y-100083063D01*
X104902051Y-100090715D01*
X104891911Y-100115585D01*
X104890077Y-100131533D01*
X104886076Y-100144377D01*
X104881980Y-100145526D01*
X104874330Y-100155165D01*
X104871920Y-100176365D01*
X104869495Y-100211342D01*
X104864686Y-100235135D01*
X104854852Y-100269254D01*
X104852531Y-100289189D01*
X104429782Y-100289189D01*
X104432482Y-100278960D01*
X104439795Y-100260691D01*
X104443188Y-100257470D01*
X104448640Y-100247632D01*
X104451834Y-100223535D01*
X104451996Y-100219419D01*
X104455802Y-100189048D01*
X104464694Y-100146866D01*
X104475988Y-100104677D01*
X104483487Y-100078801D01*
X104492490Y-100046151D01*
X104503473Y-100004860D01*
X104516913Y-99953061D01*
X104533287Y-99888888D01*
X104553069Y-99810473D01*
X104562712Y-99771964D01*
X104984940Y-99771964D01*
X104990155Y-99784964D01*
X105006325Y-99790555D01*
X105030717Y-99794560D01*
X105053785Y-99796014D01*
X105082339Y-99794794D01*
X105123191Y-99790778D01*
X105147547Y-99788008D01*
X105214024Y-99774311D01*
X105260545Y-99750816D01*
X105287382Y-99717325D01*
X105294932Y-99679154D01*
X105289401Y-99649718D01*
X105271246Y-99629107D01*
X105238126Y-99616380D01*
X105187699Y-99610594D01*
X105124434Y-99610579D01*
X105021601Y-99613794D01*
X105008792Y-99658572D01*
X104998152Y-99699603D01*
X104989150Y-99740456D01*
X104988383Y-99744503D01*
X104984940Y-99771964D01*
X104562712Y-99771964D01*
X104576738Y-99715950D01*
X104604768Y-99603451D01*
X104635562Y-99479462D01*
X105653151Y-99479462D01*
X105658749Y-99485059D01*
X105664346Y-99479462D01*
X105658749Y-99473865D01*
X105653151Y-99479462D01*
X104635562Y-99479462D01*
X104637636Y-99471110D01*
X104638342Y-99468268D01*
X104674442Y-99322741D01*
X105043457Y-99322741D01*
X105152411Y-99322964D01*
G37*
G36*
X96836943Y-100280148D02*
G01*
X96909940Y-100280965D01*
X96972272Y-100282233D01*
X97021097Y-100283875D01*
X97053571Y-100285815D01*
X97066852Y-100287975D01*
X97067021Y-100288254D01*
X97062174Y-100301585D01*
X97050370Y-100323285D01*
X97035571Y-100347141D01*
X97021736Y-100366937D01*
X97012826Y-100376459D01*
X97011456Y-100375442D01*
X97006902Y-100377429D01*
X96995841Y-100395061D01*
X96990066Y-100405949D01*
X96970450Y-100437939D01*
X96942424Y-100475757D01*
X96910234Y-100514537D01*
X96878123Y-100549412D01*
X96850336Y-100575515D01*
X96831370Y-100587902D01*
X96813574Y-100599469D01*
X96809608Y-100608698D01*
X96801785Y-100622143D01*
X96780952Y-100645834D01*
X96751063Y-100675407D01*
X96739643Y-100685933D01*
X96703768Y-100717145D01*
X96664313Y-100749449D01*
X96624956Y-100780101D01*
X96589378Y-100806355D01*
X96561256Y-100825469D01*
X96544271Y-100834696D01*
X96540943Y-100834159D01*
X96534006Y-100835998D01*
X96517234Y-100849603D01*
X96516444Y-100850335D01*
X96492289Y-100866993D01*
X96472223Y-100873160D01*
X96450473Y-100881254D01*
X96443549Y-100889016D01*
X96431006Y-100899190D01*
X96403374Y-100916255D01*
X96365785Y-100937497D01*
X96323373Y-100960199D01*
X96281270Y-100981647D01*
X96244610Y-100999125D01*
X96218525Y-101009916D01*
X96211206Y-101011934D01*
X96190615Y-101019065D01*
X96188321Y-101020330D01*
X96166915Y-101029947D01*
X96136457Y-101040511D01*
X96105561Y-101049409D01*
X96082836Y-101054029D01*
X96077403Y-101053973D01*
X96062651Y-101058844D01*
X96060612Y-101061389D01*
X96046194Y-101070356D01*
X96016873Y-101081537D01*
X95979722Y-101092862D01*
X95941812Y-101102261D01*
X95910216Y-101107662D01*
X95900582Y-101108241D01*
X95875157Y-101112493D01*
X95862797Y-101119203D01*
X95843283Y-101128449D01*
X95805132Y-101138038D01*
X95752086Y-101147602D01*
X95687887Y-101156770D01*
X95616277Y-101165173D01*
X95540995Y-101172438D01*
X95465785Y-101178198D01*
X95394386Y-101182081D01*
X95330541Y-101183718D01*
X95277990Y-101182737D01*
X95247995Y-101180027D01*
X95104011Y-101155006D01*
X94970520Y-101123255D01*
X94849829Y-101085603D01*
X94744245Y-101042881D01*
X94656076Y-100995918D01*
X94587628Y-100945543D01*
X94582235Y-100940610D01*
X94558364Y-100920025D01*
X94540884Y-100908012D01*
X94537129Y-100906743D01*
X94525379Y-100898855D01*
X94505386Y-100878780D01*
X94493146Y-100864764D01*
X94469409Y-100836447D01*
X94449978Y-100813345D01*
X94444410Y-100806760D01*
X94427703Y-100784985D01*
X94406269Y-100754335D01*
X94383805Y-100720485D01*
X94364006Y-100689108D01*
X94350570Y-100665879D01*
X94346885Y-100657054D01*
X94342561Y-100642228D01*
X94331668Y-100615122D01*
X94325269Y-100600673D01*
X94315812Y-100574563D01*
X94304880Y-100536372D01*
X94293666Y-100491515D01*
X94283365Y-100445407D01*
X94275172Y-100403463D01*
X94270281Y-100371097D01*
X94269887Y-100353725D01*
X94270512Y-100352464D01*
X94276949Y-100359929D01*
X94290952Y-100383076D01*
X94309986Y-100417606D01*
X94318953Y-100434624D01*
X94340837Y-100474717D01*
X94360446Y-100507138D01*
X94374533Y-100526639D01*
X94377633Y-100529489D01*
X94390357Y-100543590D01*
X94391626Y-100548631D01*
X94399251Y-100560978D01*
X94419162Y-100583214D01*
X94444800Y-100608380D01*
X94477490Y-100637823D01*
X94513628Y-100668771D01*
X94549336Y-100698119D01*
X94580732Y-100722762D01*
X94603936Y-100739594D01*
X94615069Y-100745511D01*
X94615514Y-100744994D01*
X94624683Y-100746866D01*
X94648953Y-100756855D01*
X94683471Y-100772927D01*
X94691076Y-100776642D01*
X94737962Y-100796587D01*
X94796371Y-100816997D01*
X94855803Y-100834301D01*
X94872984Y-100838520D01*
X94914252Y-100846604D01*
X94965492Y-100854416D01*
X95022526Y-100861585D01*
X95081179Y-100867743D01*
X95137274Y-100872522D01*
X95186635Y-100875553D01*
X95225086Y-100876466D01*
X95248450Y-100874894D01*
X95253592Y-100872134D01*
X95263958Y-100868448D01*
X95291809Y-100864173D01*
X95332279Y-100859966D01*
X95359207Y-100857846D01*
X95438629Y-100849354D01*
X95526309Y-100835121D01*
X95615837Y-100816582D01*
X95700802Y-100795172D01*
X95774795Y-100772328D01*
X95820599Y-100754513D01*
X95846665Y-100743892D01*
X95863245Y-100738885D01*
X95864078Y-100738827D01*
X95878572Y-100733768D01*
X95907679Y-100720287D01*
X95946490Y-100700928D01*
X95990100Y-100678235D01*
X96033602Y-100654751D01*
X96072088Y-100633020D01*
X96095917Y-100618639D01*
X96174841Y-100562840D01*
X96252534Y-100497581D01*
X96321254Y-100429653D01*
X96352359Y-100393692D01*
X96382030Y-100356932D01*
X96407989Y-100324914D01*
X96425732Y-100303191D01*
X96428689Y-100299619D01*
X96435185Y-100293766D01*
X96445466Y-100289188D01*
X96462094Y-100285732D01*
X96487633Y-100283244D01*
X96524645Y-100281567D01*
X96575692Y-100280548D01*
X96643337Y-100280032D01*
X96730143Y-100279864D01*
X96756124Y-100279859D01*
X96836943Y-100280148D01*
G37*
G36*
X95595020Y-99501227D02*
G01*
X95678859Y-99507134D01*
X95745569Y-99520274D01*
X95799645Y-99542071D01*
X95845581Y-99573948D01*
X95856851Y-99584164D01*
X95897289Y-99625699D01*
X95922622Y-99661933D01*
X95936149Y-99700317D01*
X95941169Y-99748302D01*
X95941530Y-99775395D01*
X95940099Y-99823567D01*
X95934442Y-99859611D01*
X95922064Y-99893721D01*
X95903627Y-99930240D01*
X95878674Y-99970746D01*
X95849526Y-100009125D01*
X95819823Y-100041572D01*
X95793203Y-100064278D01*
X95773307Y-100073438D01*
X95767802Y-100072311D01*
X95759663Y-100074033D01*
X95759859Y-100079691D01*
X95751965Y-100091826D01*
X95727341Y-100106757D01*
X95691126Y-100122476D01*
X95648457Y-100136973D01*
X95604474Y-100148242D01*
X95570499Y-100153718D01*
X95533087Y-100156108D01*
X95509051Y-100152293D01*
X95489792Y-100140338D01*
X95482684Y-100133963D01*
X95455045Y-100107998D01*
X95406265Y-100132359D01*
X95349081Y-100151435D01*
X95292643Y-100153372D01*
X95241877Y-100139010D01*
X95201709Y-100109193D01*
X95191319Y-100095649D01*
X95186796Y-100083957D01*
X95320758Y-100083957D01*
X95326355Y-100089555D01*
X95331953Y-100083957D01*
X95326355Y-100078360D01*
X95320758Y-100083957D01*
X95186796Y-100083957D01*
X95175455Y-100054637D01*
X95170432Y-100001936D01*
X95170618Y-100000080D01*
X95298494Y-100000080D01*
X95302108Y-100036225D01*
X95311803Y-100053733D01*
X95339715Y-100067041D01*
X95377735Y-100066119D01*
X95419580Y-100051986D01*
X95452930Y-100030784D01*
X95489473Y-99993510D01*
X95519817Y-99948038D01*
X95542245Y-99899214D01*
X95555039Y-99851879D01*
X95556483Y-99810877D01*
X95544861Y-99781050D01*
X95542407Y-99778351D01*
X95514539Y-99765055D01*
X95476305Y-99765529D01*
X95433684Y-99778246D01*
X95392658Y-99801678D01*
X95369029Y-99822625D01*
X95341442Y-99860632D01*
X95319559Y-99906639D01*
X95304777Y-99955004D01*
X95298494Y-100000080D01*
X95170618Y-100000080D01*
X95176100Y-99945357D01*
X95192309Y-99892717D01*
X95195339Y-99886251D01*
X95234976Y-99824079D01*
X95287303Y-99768600D01*
X95347612Y-99723194D01*
X95411191Y-99691242D01*
X95473332Y-99676121D01*
X95489245Y-99675363D01*
X95511616Y-99676507D01*
X95532287Y-99681637D01*
X95558961Y-99693304D01*
X95587651Y-99707934D01*
X95609190Y-99715744D01*
X95623116Y-99708515D01*
X95627143Y-99703452D01*
X95641488Y-99692605D01*
X95667192Y-99688161D01*
X95704190Y-99688723D01*
X95767957Y-99692155D01*
X95722801Y-99792904D01*
X95700110Y-99843156D01*
X95677772Y-99891990D01*
X95659372Y-99931594D01*
X95653473Y-99944028D01*
X95633793Y-99985553D01*
X95622499Y-100011776D01*
X95618113Y-100027494D01*
X95619159Y-100037503D01*
X95622634Y-100044175D01*
X95640712Y-100054246D01*
X95670248Y-100047774D01*
X95708852Y-100025806D01*
X95754131Y-99989391D01*
X95760137Y-99983880D01*
X95790686Y-99953380D01*
X95813388Y-99926737D01*
X95824146Y-99908859D01*
X95824504Y-99906698D01*
X95829815Y-99887839D01*
X95833920Y-99883558D01*
X95840919Y-99868316D01*
X95844808Y-99837761D01*
X95845666Y-99798737D01*
X95843571Y-99758092D01*
X95838602Y-99722673D01*
X95831832Y-99701104D01*
X95794423Y-99652160D01*
X95740886Y-99615042D01*
X95675558Y-99592501D01*
X95655276Y-99589115D01*
X95587721Y-99584687D01*
X95515102Y-99587024D01*
X95445069Y-99595371D01*
X95385272Y-99608975D01*
X95359955Y-99618231D01*
X95331104Y-99630112D01*
X95312870Y-99635927D01*
X95309564Y-99635663D01*
X95302226Y-99637239D01*
X95282154Y-99652368D01*
X95252257Y-99678586D01*
X95215444Y-99713430D01*
X95201770Y-99726904D01*
X95145974Y-99793652D01*
X95106115Y-99865188D01*
X95082607Y-99938385D01*
X95075866Y-100010118D01*
X95086309Y-100077259D01*
X95114350Y-100136684D01*
X95142809Y-100170263D01*
X95198076Y-100208834D01*
X95268520Y-100236486D01*
X95349714Y-100253113D01*
X95437231Y-100258611D01*
X95526644Y-100252874D01*
X95613525Y-100235797D01*
X95693449Y-100207276D01*
X95736637Y-100184371D01*
X95780815Y-100160318D01*
X95818104Y-100148426D01*
X95853651Y-100145526D01*
X95907409Y-100145526D01*
X95864815Y-100189146D01*
X95799819Y-100242027D01*
X95717254Y-100286778D01*
X95641240Y-100315203D01*
X95586467Y-100327606D01*
X95517640Y-100336572D01*
X95442896Y-100341628D01*
X95370373Y-100342300D01*
X95308207Y-100338118D01*
X95291056Y-100335538D01*
X95192632Y-100309760D01*
X95112332Y-100271143D01*
X95057818Y-100227843D01*
X95025584Y-100192362D01*
X95008971Y-100164402D01*
X95005176Y-100138760D01*
X95005991Y-100131533D01*
X94998725Y-100123517D01*
X94995189Y-100123138D01*
X94987052Y-100115145D01*
X94987984Y-100109145D01*
X94988195Y-100088427D01*
X94983251Y-100069053D01*
X94978527Y-100034341D01*
X94982340Y-99985721D01*
X94993103Y-99929254D01*
X95009224Y-99871000D01*
X95029114Y-99817018D01*
X95051182Y-99773369D01*
X95066111Y-99753226D01*
X95082619Y-99732614D01*
X95088855Y-99718948D01*
X95088741Y-99718356D01*
X95094936Y-99704814D01*
X95116114Y-99682849D01*
X95148138Y-99655690D01*
X95186874Y-99626564D01*
X95228184Y-99598698D01*
X95267932Y-99575320D01*
X95279958Y-99569161D01*
X95357302Y-99535014D01*
X95427051Y-99513573D01*
X95498403Y-99502854D01*
X95580556Y-99500874D01*
X95595020Y-99501227D01*
G37*
D12*
%TO.C,C10*%
X138270000Y-58750000D02*
G75*
G02*
X131730000Y-58750000I-3270000J0D01*
G01*
X131730000Y-58750000D02*
G75*
G02*
X138270000Y-58750000I3270000J0D01*
G01*
%TO.C,C3*%
X174272164Y-79640000D02*
X174487836Y-79640000D01*
X174272164Y-80360000D02*
X174487836Y-80360000D01*
%TO.C,C12*%
X154140000Y-59452164D02*
X154140000Y-59667836D01*
X154860000Y-59452164D02*
X154860000Y-59667836D01*
%TO.C,C11*%
X157140000Y-59452164D02*
X157140000Y-59667836D01*
X157860000Y-59452164D02*
X157860000Y-59667836D01*
%TO.C,C2*%
X130422164Y-89640000D02*
X130637836Y-89640000D01*
X130422164Y-90360000D02*
X130637836Y-90360000D01*
D14*
%TO.C,SW1*%
X172460000Y-91975000D02*
X177540000Y-91975000D01*
X172460000Y-100105000D02*
X172460000Y-91975000D01*
X175300000Y-91300000D02*
X175300000Y-91300000D01*
X175400000Y-91300000D02*
X175400000Y-91300000D01*
X177540000Y-91975000D02*
X177540000Y-100105000D01*
X177540000Y-100105000D02*
X172460000Y-100105000D01*
X175300000Y-91300000D02*
G75*
G02*
X175400000Y-91300000I50000J0D01*
G01*
X175400000Y-91300000D02*
G75*
G02*
X175300000Y-91300000I-50000J0D01*
G01*
D12*
%TO.C,J6*%
X148680000Y-58770000D02*
X148680000Y-71530000D01*
X148680000Y-58770000D02*
X151340000Y-58770000D01*
X148680000Y-71530000D02*
X151340000Y-71530000D01*
X150010000Y-56170000D02*
X151340000Y-56170000D01*
X151340000Y-56170000D02*
X151340000Y-57500000D01*
X151340000Y-58770000D02*
X151340000Y-71530000D01*
%TO.C,J10*%
X140250000Y-84500000D02*
X140250000Y-85500000D01*
X140250000Y-85500000D02*
X141250000Y-85000000D01*
X141250000Y-85000000D02*
X140250000Y-84500000D01*
X141640000Y-79790000D02*
X150760000Y-79790000D01*
X141640000Y-88030000D02*
X142950000Y-88030000D01*
X141640000Y-100370000D02*
X141640000Y-79790000D01*
X142950000Y-81090000D02*
X149450000Y-81090000D01*
X142950000Y-88030000D02*
X142950000Y-81090000D01*
X142950000Y-92130000D02*
X141640000Y-92130000D01*
X142950000Y-92130000D02*
X142950000Y-92130000D01*
X142950000Y-99070000D02*
X142950000Y-92130000D01*
X149450000Y-81090000D02*
X149450000Y-99070000D01*
X149450000Y-99070000D02*
X142950000Y-99070000D01*
X150760000Y-79790000D02*
X150760000Y-100370000D01*
X150760000Y-100370000D02*
X141640000Y-100370000D01*
%TO.C,C6*%
X178127836Y-76640000D02*
X177912164Y-76640000D01*
X178127836Y-77360000D02*
X177912164Y-77360000D01*
%TO.C,J5*%
X141060000Y-58770000D02*
X141060000Y-71530000D01*
X141060000Y-58770000D02*
X143720000Y-58770000D01*
X141060000Y-71530000D02*
X143720000Y-71530000D01*
X142390000Y-56170000D02*
X143720000Y-56170000D01*
X143720000Y-56170000D02*
X143720000Y-57500000D01*
X143720000Y-58770000D02*
X143720000Y-71530000D01*
%TO.C,C7*%
X114272164Y-77140000D02*
X114487836Y-77140000D01*
X114272164Y-77860000D02*
X114487836Y-77860000D01*
D13*
%TO.C,IC1*%
X172930000Y-71200000D02*
X172930000Y-71985000D01*
X172930000Y-71985000D02*
X179470000Y-71985000D01*
D14*
X173900000Y-75600000D02*
X173900000Y-75600000D01*
X173900000Y-75700000D02*
X173900000Y-75700000D01*
D13*
X179470000Y-71985000D02*
X179470000Y-71200000D01*
D14*
X173900000Y-75600000D02*
G75*
G02*
X173900000Y-75700000I0J-50000D01*
G01*
X173900000Y-75700000D02*
G75*
G02*
X173900000Y-75600000I0J50000D01*
G01*
%TD*%
M02*
