M48
; DRILL file {KiCad 8.0.5} date 2025-10-03T19:11:47+0900
; FORMAT={-:-/ absolute / metric / decimal}
; #@! TF.CreationDate,2025-10-03T19:11:47+09:00
; #@! TF.GenerationSoftware,Kicad,Pcbnew,8.0.5
; #@! TF.FileFunction,Plated,1,2,PTH
FMAT,2
METRIC
; #@! TA.AperFunction,Plated,PTH,ViaDrill
T1C0.300
; #@! TA.AperFunction,Plated,PTH,ViaDrill
T2C0.400
; #@! TA.AperFunction,Plated,PTH,ComponentDrill
T3C0.800
; #@! TA.AperFunction,Plated,PTH,ComponentDrill
T4C1.000
; #@! TA.AperFunction,Plated,PTH,ComponentDrill
T5C1.090
%
G90
G05
T1
X122.83Y-83.86
X122.935Y-86.9
X133.49Y-86.9
X142.9Y-73.62
X175.5Y-85.72
X178.5Y-78.81
X181.86Y-87.56
T2
X95.11Y-84.81
X95.54Y-73.24
X98.11Y-97.24
X102.59Y-70.69
X103.11Y-78.53
X106.4Y-90.96
X106.97Y-64.69
X108.25Y-96.81
X113.73Y-88.31
X120.39Y-93.45
X122.58Y-61.55
X123.25Y-68.31
X123.25Y-75.36
X126.11Y-78.59
X126.3Y-71.26
X128.58Y-64.78
X131.13Y-68.32
X133.73Y-54.88
X134.77Y-91.64
X135.63Y-76.97
X138.11Y-97.92
X138.58Y-78.97
X138.96Y-73.74
X139.15Y-53.55
X153.19Y-72.46
X153.82Y-96.5
X154.1Y-63.55
X154.3Y-68.4
X154.91Y-77.03
X156.05Y-82.7
X157.41Y-86.85
X160.25Y-71.24
X160.37Y-79.78
X163.15Y-62.02
X163.25Y-66.59
X163.36Y-74.04
X163.72Y-54.69
X164.01Y-99.35
X164.22Y-85.32
X166.39Y-77.26
X168.1Y-94.78
X168.29Y-66.59
X168.65Y-79.35
X168.75Y-86.46
X169.44Y-72.88
X171.41Y-81.98
X171.44Y-60.12
X171.63Y-99.73
X177.09Y-87.99
X178.96Y-99.64
X179.15Y-94.21
X181.24Y-67.89
X181.72Y-75.23
X187.63Y-65.45
X188.29Y-74.88
X188.29Y-81.45
X191.91Y-90.88
X195.43Y-76.21
X196.1Y-96.97
X196.29Y-70.5
X196.39Y-84.78
X201.24Y-83.35
X201.34Y-92.69
T3
X135.0Y-57.5
X135.0Y-60.0
T4
X129.26Y-96.86
X131.76Y-96.86
X142.39Y-57.5
X142.39Y-60.04
X142.39Y-62.58
X142.39Y-65.12
X142.39Y-67.66
X142.39Y-70.2
X144.93Y-85.0
X144.93Y-87.54
X144.93Y-90.08
X144.93Y-92.62
X144.93Y-95.16
X147.47Y-85.0
X147.47Y-87.54
X147.47Y-90.08
X147.47Y-92.62
X147.47Y-95.16
X150.01Y-57.5
X150.01Y-60.04
X150.01Y-62.58
X150.01Y-65.12
X150.01Y-67.66
X150.01Y-70.2
X160.6Y-96.86
X163.1Y-96.86
X185.0Y-96.86
X187.5Y-96.86
T5
X175.0Y-93.5
X175.0Y-96.04
X175.0Y-98.58
M30
