%TF.GenerationSoftware,KiCad,Pcbnew,8.0.5*%
%TF.CreationDate,2025-10-03T19:11:42+09:00*%
%TF.ProjectId,Sub1,53756231-2e6b-4696-9361-645f70636258,rev?*%
%TF.SameCoordinates,Original*%
%TF.FileFunction,Copper,L1,Top*%
%TF.FilePolarity,Positive*%
%FSLAX46Y46*%
G04 Gerber Fmt 4.6, Leading zero omitted, Abs format (unit mm)*
G04 Created by KiCad (PCBNEW 8.0.5) date 2025-10-03 19:11:42*
%MOMM*%
%LPD*%
G01*
G04 APERTURE LIST*
G04 Aperture macros list*
%AMRoundRect*
0 Rectangle with rounded corners*
0 $1 Rounding radius*
0 $2 $3 $4 $5 $6 $7 $8 $9 X,Y pos of 4 corners*
0 Add a 4 corners polygon primitive as box body*
4,1,4,$2,$3,$4,$5,$6,$7,$8,$9,$2,$3,0*
0 Add four circle primitives for the rounded corners*
1,1,$1+$1,$2,$3*
1,1,$1+$1,$4,$5*
1,1,$1+$1,$6,$7*
1,1,$1+$1,$8,$9*
0 Add four rect primitives between the rounded corners*
20,1,$1+$1,$2,$3,$4,$5,0*
20,1,$1+$1,$4,$5,$6,$7,0*
20,1,$1+$1,$6,$7,$8,$9,0*
20,1,$1+$1,$8,$9,$2,$3,0*%
G04 Aperture macros list end*
%TA.AperFunction,ComponentPad*%
%ADD10RoundRect,0.250000X-0.600000X-0.750000X0.600000X-0.750000X0.600000X0.750000X-0.600000X0.750000X0*%
%TD*%
%TA.AperFunction,ComponentPad*%
%ADD11O,1.700000X2.000000*%
%TD*%
%TA.AperFunction,SMDPad,CuDef*%
%ADD12RoundRect,0.140000X0.170000X-0.140000X0.170000X0.140000X-0.170000X0.140000X-0.170000X-0.140000X0*%
%TD*%
%TA.AperFunction,SMDPad,CuDef*%
%ADD13R,2.000000X2.500000*%
%TD*%
%TA.AperFunction,SMDPad,CuDef*%
%ADD14R,6.000000X6.000000*%
%TD*%
%TA.AperFunction,SMDPad,CuDef*%
%ADD15RoundRect,0.140000X-0.140000X-0.170000X0.140000X-0.170000X0.140000X0.170000X-0.140000X0.170000X0*%
%TD*%
%TA.AperFunction,SMDPad,CuDef*%
%ADD16RoundRect,0.225000X0.225000X0.250000X-0.225000X0.250000X-0.225000X-0.250000X0.225000X-0.250000X0*%
%TD*%
%TA.AperFunction,ComponentPad*%
%ADD17C,1.600000*%
%TD*%
%TA.AperFunction,SMDPad,CuDef*%
%ADD18RoundRect,0.140000X-0.170000X0.140000X-0.170000X-0.140000X0.170000X-0.140000X0.170000X0.140000X0*%
%TD*%
%TA.AperFunction,ComponentPad*%
%ADD19C,1.635000*%
%TD*%
%TA.AperFunction,ComponentPad*%
%ADD20R,1.700000X1.700000*%
%TD*%
%TA.AperFunction,ComponentPad*%
%ADD21O,1.700000X1.700000*%
%TD*%
%TA.AperFunction,ComponentPad*%
%ADD22RoundRect,0.250000X-0.600000X-0.600000X0.600000X-0.600000X0.600000X0.600000X-0.600000X0.600000X0*%
%TD*%
%TA.AperFunction,ComponentPad*%
%ADD23C,1.700000*%
%TD*%
%TA.AperFunction,SMDPad,CuDef*%
%ADD24RoundRect,0.140000X0.140000X0.170000X-0.140000X0.170000X-0.140000X-0.170000X0.140000X-0.170000X0*%
%TD*%
%TA.AperFunction,ViaPad*%
%ADD25C,0.600000*%
%TD*%
%TA.AperFunction,ViaPad*%
%ADD26C,0.800000*%
%TD*%
%TA.AperFunction,Conductor*%
%ADD27C,0.750000*%
%TD*%
%TA.AperFunction,Conductor*%
%ADD28C,0.500000*%
%TD*%
%TA.AperFunction,Conductor*%
%ADD29C,1.000000*%
%TD*%
G04 APERTURE END LIST*
D10*
%TO.P,J8,1,Pin_1*%
%TO.N,OUT3*%
X129260000Y-96860000D03*
D11*
%TO.P,J8,2,Pin_2*%
%TO.N,OUT4*%
X131760000Y-96860000D03*
%TD*%
D12*
%TO.P,C9,1*%
%TO.N,GND*%
X130000000Y-59230000D03*
%TO.P,C9,2*%
%TO.N,+9V*%
X130000000Y-58270000D03*
%TD*%
D13*
%TO.P,IC2,1,VIN*%
%TO.N,+9V*%
X113900000Y-74055000D03*
D14*
%TO.P,IC2,2,GND*%
%TO.N,GND*%
X116200000Y-67805000D03*
D13*
%TO.P,IC2,3,VOUT*%
%TO.N,+3.3V*%
X118500000Y-74055000D03*
%TD*%
D15*
%TO.P,C4,1*%
%TO.N,+9V*%
X173900000Y-77000000D03*
%TO.P,C4,2*%
%TO.N,GND*%
X174860000Y-77000000D03*
%TD*%
%TO.P,C5,1*%
%TO.N,+9V*%
X173900000Y-78500000D03*
%TO.P,C5,2*%
%TO.N,GND*%
X174860000Y-78500000D03*
%TD*%
D10*
%TO.P,J9,1,Pin_1*%
%TO.N,GND*%
X160600000Y-96860000D03*
D11*
%TO.P,J9,2,Pin_2*%
%TO.N,Net-(J9-Pin_2)*%
X163100000Y-96860000D03*
%TD*%
D10*
%TO.P,J7,1,Pin_1*%
%TO.N,OUT1*%
X185000000Y-96860000D03*
D11*
%TO.P,J7,2,Pin_2*%
%TO.N,OUT2*%
X187500000Y-96860000D03*
%TD*%
D15*
%TO.P,C1,1*%
%TO.N,OUT1*%
X185790000Y-90000000D03*
%TO.P,C1,2*%
%TO.N,OUT2*%
X186750000Y-90000000D03*
%TD*%
D16*
%TO.P,C8,1*%
%TO.N,+3.3V*%
X118500000Y-77500000D03*
%TO.P,C8,2*%
%TO.N,GND*%
X116950000Y-77500000D03*
%TD*%
D17*
%TO.P,C10,1*%
%TO.N,+9V*%
X135000000Y-57500000D03*
%TO.P,C10,2*%
%TO.N,GND*%
X135000000Y-60000000D03*
%TD*%
D15*
%TO.P,C3,1*%
%TO.N,+9V*%
X173900000Y-80000000D03*
%TO.P,C3,2*%
%TO.N,GND*%
X174860000Y-80000000D03*
%TD*%
D18*
%TO.P,C12,1*%
%TO.N,+5V*%
X154500000Y-59080000D03*
%TO.P,C12,2*%
%TO.N,Net-(J6-Pin_2)*%
X154500000Y-60040000D03*
%TD*%
%TO.P,C11,1*%
%TO.N,+5V*%
X157500000Y-59080000D03*
%TO.P,C11,2*%
%TO.N,Net-(J6-Pin_2)*%
X157500000Y-60040000D03*
%TD*%
D15*
%TO.P,C2,1*%
%TO.N,OUT3*%
X130050000Y-90000000D03*
%TO.P,C2,2*%
%TO.N,OUT4*%
X131010000Y-90000000D03*
%TD*%
D19*
%TO.P,SW1,1,A*%
%TO.N,+9V*%
X175000000Y-93500000D03*
%TO.P,SW1,2,B*%
%TO.N,Net-(J9-Pin_2)*%
X175000000Y-96040000D03*
%TO.P,SW1,3,C*%
%TO.N,unconnected-(SW1-C-Pad3)*%
X175000000Y-98580000D03*
%TD*%
D20*
%TO.P,J6,1,Pin_1*%
%TO.N,+5V*%
X150010000Y-57500000D03*
D21*
%TO.P,J6,2,Pin_2*%
%TO.N,Net-(J6-Pin_2)*%
X150010000Y-60040000D03*
%TO.P,J6,3,Pin_3*%
%TO.N,PWM1*%
X150010000Y-62580000D03*
%TO.P,J6,4,Pin_4*%
%TO.N,PWM2*%
X150010000Y-65120000D03*
%TO.P,J6,5,Pin_5*%
%TO.N,PWM3*%
X150010000Y-67660000D03*
%TO.P,J6,6,Pin_6*%
%TO.N,PWM4*%
X150010000Y-70200000D03*
%TD*%
D22*
%TO.P,J10,1,Pin_1*%
%TO.N,PWM1*%
X144930000Y-85000000D03*
D23*
%TO.P,J10,2,Pin_2*%
%TO.N,PWM3*%
X147470000Y-85000000D03*
%TO.P,J10,3,Pin_3*%
%TO.N,PWM2*%
X144930000Y-87540000D03*
%TO.P,J10,4,Pin_4*%
%TO.N,PWM4*%
X147470000Y-87540000D03*
%TO.P,J10,5,Pin_5*%
%TO.N,+3.3V*%
X144930000Y-90080000D03*
%TO.P,J10,6,Pin_6*%
%TO.N,+5V*%
X147470000Y-90080000D03*
%TO.P,J10,7,Pin_7*%
%TO.N,GND*%
X144930000Y-92620000D03*
%TO.P,J10,8,Pin_8*%
%TO.N,+9V*%
X147470000Y-92620000D03*
%TO.P,J10,9,Pin_9*%
%TO.N,GND*%
X144930000Y-95160000D03*
%TO.P,J10,10,Pin_10*%
X147470000Y-95160000D03*
%TD*%
D24*
%TO.P,C6,1*%
%TO.N,+5V*%
X178500000Y-77000000D03*
%TO.P,C6,2*%
%TO.N,GND*%
X177540000Y-77000000D03*
%TD*%
D20*
%TO.P,J5,1,Pin_1*%
%TO.N,+9V*%
X142390000Y-57500000D03*
D21*
%TO.P,J5,2,Pin_2*%
%TO.N,OUT1*%
X142390000Y-60040000D03*
%TO.P,J5,3,Pin_3*%
%TO.N,OUT2*%
X142390000Y-62580000D03*
%TO.P,J5,4,Pin_4*%
%TO.N,OUT3*%
X142390000Y-65120000D03*
%TO.P,J5,5,Pin_5*%
%TO.N,OUT4*%
X142390000Y-67660000D03*
%TO.P,J5,6,Pin_6*%
%TO.N,GND*%
X142390000Y-70200000D03*
%TD*%
D15*
%TO.P,C7,1*%
%TO.N,+9V*%
X113900000Y-77500000D03*
%TO.P,C7,2*%
%TO.N,GND*%
X114860000Y-77500000D03*
%TD*%
D13*
%TO.P,IC1,1,VIN*%
%TO.N,+9V*%
X173900000Y-74055000D03*
D14*
%TO.P,IC1,2,GND*%
%TO.N,GND*%
X176200000Y-67805000D03*
D13*
%TO.P,IC1,3,VOUT*%
%TO.N,+5V*%
X178500000Y-74055000D03*
%TD*%
D25*
%TO.N,+5V*%
X178500000Y-78810000D03*
D26*
%TO.N,GND*%
X113730000Y-88310000D03*
X154910000Y-77030000D03*
X201340000Y-92690000D03*
X120390000Y-93450000D03*
X106970000Y-64690000D03*
X188290000Y-81450000D03*
X166390000Y-77260000D03*
X191910000Y-90880000D03*
X123250000Y-68310000D03*
X196100000Y-96970000D03*
X106400000Y-90960000D03*
X201240000Y-83350000D03*
X133730000Y-54880000D03*
X154100000Y-63550000D03*
X163720000Y-54690000D03*
X95540000Y-73240000D03*
X163360000Y-74040000D03*
X196290000Y-70500000D03*
X95110000Y-84810000D03*
X181240000Y-67890000D03*
X128580000Y-64780000D03*
X163250000Y-66590000D03*
X108250000Y-96810000D03*
X138110000Y-97920000D03*
X153820000Y-96500000D03*
X168650000Y-79350000D03*
X179150000Y-94210000D03*
X164220000Y-85320000D03*
X160370000Y-79780000D03*
X103110000Y-78530000D03*
X177090000Y-87990000D03*
X163150000Y-62020000D03*
X171630000Y-99730000D03*
X153190000Y-72460000D03*
X157410000Y-86850000D03*
X122580000Y-61550000D03*
X187630000Y-65450000D03*
X160250000Y-71240000D03*
X102590000Y-70690000D03*
X171410000Y-81980000D03*
X138960000Y-73740000D03*
X195430000Y-76210000D03*
X168290000Y-66590000D03*
X123250000Y-75360000D03*
X188290000Y-74880000D03*
X138580000Y-78970000D03*
X131130000Y-68320000D03*
X126110000Y-78590000D03*
X178960000Y-99640000D03*
X154300000Y-68400000D03*
X98110000Y-97240000D03*
X169440000Y-72880000D03*
X134770000Y-91640000D03*
X135630000Y-76970000D03*
X196390000Y-84780000D03*
X139150000Y-53550000D03*
X181720000Y-75230000D03*
X168750000Y-86460000D03*
X171440000Y-60120000D03*
X164010000Y-99350000D03*
X156050000Y-82700000D03*
X126300000Y-71260000D03*
X168100000Y-94780000D03*
D25*
%TO.N,PWM2*%
X142900000Y-73620000D03*
%TO.N,OUT2*%
X175500000Y-85720000D03*
%TO.N,+9V*%
X122934958Y-86900000D03*
X133490000Y-86900000D03*
%TO.N,OUT1*%
X181860000Y-87560000D03*
%TO.N,+3.3V*%
X122830000Y-83860000D03*
%TD*%
D27*
%TO.N,+5V*%
X184110000Y-78080000D02*
X184110000Y-64910000D01*
X176700000Y-57500000D02*
X160570000Y-57500000D01*
X178500000Y-77000000D02*
X178500000Y-78810000D01*
X184110000Y-64910000D02*
X176700000Y-57500000D01*
X157500000Y-59080000D02*
X158990000Y-59080000D01*
X182090000Y-80100000D02*
X184110000Y-78080000D01*
X179790000Y-80100000D02*
X182090000Y-80100000D01*
X160570000Y-57500000D02*
X150010000Y-57500000D01*
X158990000Y-59080000D02*
X160570000Y-57500000D01*
X154500000Y-59080000D02*
X157500000Y-59080000D01*
X178500000Y-78810000D02*
X179790000Y-80100000D01*
X178500000Y-77000000D02*
X178500000Y-74055000D01*
D28*
%TO.N,PWM2*%
X144930000Y-87540000D02*
X142900000Y-85510000D01*
X142900000Y-85510000D02*
X142900000Y-73620000D01*
%TO.N,PWM1*%
X144930000Y-85000000D02*
X144930000Y-67660000D01*
X144930000Y-67660000D02*
X150010000Y-62580000D01*
%TO.N,PWM4*%
X150010000Y-85000000D02*
X147470000Y-87540000D01*
X150010000Y-70200000D02*
X150010000Y-85000000D01*
%TO.N,PWM3*%
X147470000Y-85000000D02*
X147470000Y-70200000D01*
X147470000Y-70200000D02*
X150010000Y-67660000D01*
%TO.N,OUT2*%
X175500000Y-85720000D02*
X184340000Y-85720000D01*
X184340000Y-85720000D02*
X186750000Y-88130000D01*
X187500000Y-90750000D02*
X187500000Y-96860000D01*
X186750000Y-88130000D02*
X186750000Y-90000000D01*
X186750000Y-90000000D02*
X187500000Y-90750000D01*
D27*
%TO.N,+9V*%
X141610000Y-95020000D02*
X133490000Y-86900000D01*
X153420000Y-92620000D02*
X148220000Y-97820000D01*
X173900000Y-90360000D02*
X175000000Y-91460000D01*
X173900000Y-77000000D02*
X173900000Y-74055000D01*
X141610000Y-95020000D02*
X141610000Y-96600000D01*
X135000000Y-57500000D02*
X142390000Y-57500000D01*
X110980000Y-71135000D02*
X113900000Y-74055000D01*
X110980000Y-64820000D02*
X110980000Y-71135000D01*
D29*
X174120000Y-92620000D02*
X153420000Y-92620000D01*
D27*
X113900000Y-77865042D02*
X113900000Y-77500000D01*
X122934958Y-86900000D02*
X113900000Y-77865042D01*
X130000000Y-58270000D02*
X117530000Y-58270000D01*
X141610000Y-96600000D02*
X142850000Y-97840000D01*
X173900000Y-80000000D02*
X173900000Y-90360000D01*
X173900000Y-80000000D02*
X173900000Y-78500000D01*
X175000000Y-91460000D02*
X175000000Y-93500000D01*
X130770000Y-57500000D02*
X130000000Y-58270000D01*
X117530000Y-58270000D02*
X110980000Y-64820000D01*
X173900000Y-78500000D02*
X173900000Y-77000000D01*
X142850000Y-97840000D02*
X142870000Y-97820000D01*
D29*
X153420000Y-92620000D02*
X147470000Y-92620000D01*
D27*
X142870000Y-97820000D02*
X148220000Y-97820000D01*
D29*
X175000000Y-93500000D02*
X174120000Y-92620000D01*
D27*
X113900000Y-77500000D02*
X113900000Y-74055000D01*
X135000000Y-57500000D02*
X130770000Y-57500000D01*
D28*
%TO.N,OUT1*%
X181860000Y-87560000D02*
X184280000Y-87560000D01*
X185790000Y-89070000D02*
X185790000Y-90000000D01*
X184280000Y-87560000D02*
X185790000Y-89070000D01*
X185000000Y-90790000D02*
X185000000Y-96860000D01*
X185790000Y-90000000D02*
X185000000Y-90790000D01*
%TO.N,OUT4*%
X142390000Y-67660000D02*
X138810000Y-67660000D01*
X131760000Y-90750000D02*
X131760000Y-96860000D01*
X131010000Y-75460000D02*
X131010000Y-90000000D01*
X131010000Y-90000000D02*
X131760000Y-90750000D01*
X138810000Y-67660000D02*
X131010000Y-75460000D01*
%TO.N,OUT3*%
X130050000Y-90000000D02*
X130050000Y-74890000D01*
X139820000Y-65120000D02*
X142390000Y-65120000D01*
X130050000Y-74890000D02*
X139820000Y-65120000D01*
X129260000Y-90790000D02*
X129260000Y-96860000D01*
X130050000Y-90000000D02*
X129260000Y-90790000D01*
D29*
%TO.N,Net-(J9-Pin_2)*%
X163100000Y-96860000D02*
X174180000Y-96860000D01*
X174180000Y-96860000D02*
X175000000Y-96040000D01*
D27*
%TO.N,+3.3V*%
X118500000Y-79530000D02*
X122830000Y-83860000D01*
X118500000Y-77500000D02*
X118500000Y-79530000D01*
X118500000Y-77500000D02*
X118500000Y-74055000D01*
%TO.N,Net-(J6-Pin_2)*%
X157500000Y-60040000D02*
X150010000Y-60040000D01*
%TD*%
%TA.AperFunction,Conductor*%
%TO.N,GND*%
G36*
X148145445Y-52008442D02*
G01*
X148147734Y-52008489D01*
X150091149Y-52066703D01*
X150093473Y-52066795D01*
X152035418Y-52163797D01*
X152037828Y-52163943D01*
X153977307Y-52299682D01*
X153979629Y-52299867D01*
X155916121Y-52474305D01*
X155918511Y-52474545D01*
X157851032Y-52687595D01*
X157853457Y-52687887D01*
X159781359Y-52939475D01*
X159783629Y-52939793D01*
X161706260Y-53229837D01*
X161708585Y-53230212D01*
X163624866Y-53558548D01*
X163627300Y-53558989D01*
X165536741Y-53925532D01*
X165538992Y-53925988D01*
X167440809Y-54330590D01*
X167443072Y-54331096D01*
X169336287Y-54773549D01*
X169338648Y-54774125D01*
X171222730Y-55254303D01*
X171224955Y-55254894D01*
X173099073Y-55772586D01*
X173101389Y-55773250D01*
X174964709Y-56328225D01*
X174967074Y-56328955D01*
X175134207Y-56382389D01*
X175192068Y-56421554D01*
X175219570Y-56485784D01*
X175207980Y-56554686D01*
X175160980Y-56606384D01*
X175096446Y-56624500D01*
X151470764Y-56624500D01*
X151403725Y-56604815D01*
X151357970Y-56552011D01*
X151354582Y-56543833D01*
X151303797Y-56407671D01*
X151303793Y-56407664D01*
X151217547Y-56292455D01*
X151217544Y-56292452D01*
X151102335Y-56206206D01*
X151102328Y-56206202D01*
X150967482Y-56155908D01*
X150967483Y-56155908D01*
X150907883Y-56149501D01*
X150907881Y-56149500D01*
X150907873Y-56149500D01*
X150907864Y-56149500D01*
X149112129Y-56149500D01*
X149112123Y-56149501D01*
X149052516Y-56155908D01*
X148917671Y-56206202D01*
X148917664Y-56206206D01*
X148802455Y-56292452D01*
X148802452Y-56292455D01*
X148716206Y-56407664D01*
X148716202Y-56407671D01*
X148665908Y-56542517D01*
X148660999Y-56588181D01*
X148659501Y-56602123D01*
X148659500Y-56602135D01*
X148659500Y-58397870D01*
X148659501Y-58397876D01*
X148665908Y-58457483D01*
X148716202Y-58592328D01*
X148716206Y-58592335D01*
X148802452Y-58707544D01*
X148802455Y-58707547D01*
X148917664Y-58793793D01*
X148917671Y-58793797D01*
X149049081Y-58842810D01*
X149105015Y-58884681D01*
X149129432Y-58950145D01*
X149114580Y-59018418D01*
X149093430Y-59046673D01*
X148971503Y-59168600D01*
X148835965Y-59362169D01*
X148835964Y-59362171D01*
X148736098Y-59576335D01*
X148736094Y-59576344D01*
X148674938Y-59804586D01*
X148674936Y-59804596D01*
X148654341Y-60039999D01*
X148654341Y-60040000D01*
X148674936Y-60275403D01*
X148674938Y-60275413D01*
X148736094Y-60503655D01*
X148736096Y-60503659D01*
X148736097Y-60503663D01*
X148780135Y-60598102D01*
X148835965Y-60717830D01*
X148835967Y-60717834D01*
X148971501Y-60911395D01*
X148971506Y-60911402D01*
X149138597Y-61078493D01*
X149138603Y-61078498D01*
X149324158Y-61208425D01*
X149367783Y-61263002D01*
X149374977Y-61332500D01*
X149343454Y-61394855D01*
X149324158Y-61411575D01*
X149138597Y-61541505D01*
X148971505Y-61708597D01*
X148835965Y-61902169D01*
X148835964Y-61902171D01*
X148736098Y-62116335D01*
X148736094Y-62116344D01*
X148674938Y-62344586D01*
X148674936Y-62344596D01*
X148654341Y-62579999D01*
X148654341Y-62580001D01*
X148672977Y-62793012D01*
X148659210Y-62861512D01*
X148637130Y-62891500D01*
X144347046Y-67181585D01*
X144337193Y-67196334D01*
X144337189Y-67196339D01*
X144264916Y-67304502D01*
X144264914Y-67304506D01*
X144208343Y-67441082D01*
X144208340Y-67441092D01*
X144179500Y-67586079D01*
X144179500Y-83569699D01*
X144159815Y-83636738D01*
X144107011Y-83682493D01*
X144094507Y-83687403D01*
X144061962Y-83698188D01*
X144010668Y-83715185D01*
X144010663Y-83715187D01*
X143861341Y-83807290D01*
X143855681Y-83811766D01*
X143854705Y-83810532D01*
X143800858Y-83839936D01*
X143731166Y-83834952D01*
X143675233Y-83793080D01*
X143650816Y-83727616D01*
X143650500Y-83718770D01*
X143650500Y-73919972D01*
X143657458Y-73879017D01*
X143685368Y-73799254D01*
X143685369Y-73799249D01*
X143705565Y-73620003D01*
X143705565Y-73619996D01*
X143685369Y-73440750D01*
X143685368Y-73440745D01*
X143625789Y-73270478D01*
X143529816Y-73117738D01*
X143402262Y-72990184D01*
X143307053Y-72930360D01*
X143249523Y-72894211D01*
X143079254Y-72834631D01*
X143079249Y-72834630D01*
X142900004Y-72814435D01*
X142899996Y-72814435D01*
X142720750Y-72834630D01*
X142720745Y-72834631D01*
X142550476Y-72894211D01*
X142397737Y-72990184D01*
X142270184Y-73117737D01*
X142174211Y-73270476D01*
X142114631Y-73440745D01*
X142114630Y-73440750D01*
X142094435Y-73619996D01*
X142094435Y-73620003D01*
X142114630Y-73799249D01*
X142114631Y-73799254D01*
X142142542Y-73879017D01*
X142149500Y-73919972D01*
X142149500Y-85583918D01*
X142149500Y-85583920D01*
X142149499Y-85583920D01*
X142178340Y-85728907D01*
X142178343Y-85728917D01*
X142234913Y-85865490D01*
X142234914Y-85865491D01*
X142234916Y-85865495D01*
X142257473Y-85899253D01*
X142257474Y-85899255D01*
X142317051Y-85988420D01*
X142317052Y-85988421D01*
X143557130Y-87228497D01*
X143590615Y-87289820D01*
X143592977Y-87326985D01*
X143574341Y-87539997D01*
X143574341Y-87540000D01*
X143594936Y-87775403D01*
X143594938Y-87775413D01*
X143656094Y-88003655D01*
X143656096Y-88003659D01*
X143656097Y-88003663D01*
X143736004Y-88175023D01*
X143755965Y-88217830D01*
X143755967Y-88217834D01*
X143803550Y-88285789D01*
X143891501Y-88411396D01*
X143891506Y-88411402D01*
X144058597Y-88578493D01*
X144058603Y-88578498D01*
X144244158Y-88708425D01*
X144287783Y-88763002D01*
X144294977Y-88832500D01*
X144263454Y-88894855D01*
X144244158Y-88911575D01*
X144058597Y-89041505D01*
X143891505Y-89208597D01*
X143755965Y-89402169D01*
X143755964Y-89402171D01*
X143656098Y-89616335D01*
X143656094Y-89616344D01*
X143594938Y-89844586D01*
X143594936Y-89844596D01*
X143574341Y-90079999D01*
X143574341Y-90080000D01*
X143594936Y-90315403D01*
X143594938Y-90315413D01*
X143656094Y-90543655D01*
X143656096Y-90543659D01*
X143656097Y-90543663D01*
X143717844Y-90676079D01*
X143755965Y-90757830D01*
X143755967Y-90757834D01*
X143856845Y-90901901D01*
X143891505Y-90951401D01*
X144058599Y-91118495D01*
X144181600Y-91204621D01*
X144244594Y-91248730D01*
X144288218Y-91303307D01*
X144295411Y-91372806D01*
X144263889Y-91435160D01*
X144244593Y-91451880D01*
X144168626Y-91505072D01*
X144168625Y-91505072D01*
X144800590Y-92137037D01*
X144737007Y-92154075D01*
X144622993Y-92219901D01*
X144529901Y-92312993D01*
X144464075Y-92427007D01*
X144447037Y-92490590D01*
X143815072Y-91858625D01*
X143756401Y-91942419D01*
X143656570Y-92156507D01*
X143656566Y-92156516D01*
X143595432Y-92384673D01*
X143595430Y-92384684D01*
X143574843Y-92619998D01*
X143574843Y-92620001D01*
X143595430Y-92855315D01*
X143595432Y-92855326D01*
X143656566Y-93083483D01*
X143656570Y-93083492D01*
X143756400Y-93297579D01*
X143756402Y-93297583D01*
X143815072Y-93381373D01*
X143815073Y-93381373D01*
X144447037Y-92749409D01*
X144464075Y-92812993D01*
X144529901Y-92927007D01*
X144622993Y-93020099D01*
X144737007Y-93085925D01*
X144800590Y-93102962D01*
X144168625Y-93734925D01*
X144245031Y-93788425D01*
X144288655Y-93843002D01*
X144295848Y-93912501D01*
X144264326Y-93974855D01*
X144245029Y-93991576D01*
X144168625Y-94045072D01*
X144800590Y-94677037D01*
X144737007Y-94694075D01*
X144622993Y-94759901D01*
X144529901Y-94852993D01*
X144464075Y-94967007D01*
X144447037Y-95030590D01*
X143815072Y-94398625D01*
X143756401Y-94482419D01*
X143656570Y-94696507D01*
X143656566Y-94696516D01*
X143595432Y-94924673D01*
X143595430Y-94924684D01*
X143574843Y-95159998D01*
X143574843Y-95160001D01*
X143595430Y-95395315D01*
X143595432Y-95395326D01*
X143656566Y-95623483D01*
X143656570Y-95623492D01*
X143756400Y-95837579D01*
X143756402Y-95837583D01*
X143815072Y-95921373D01*
X143815073Y-95921373D01*
X144447037Y-95289409D01*
X144464075Y-95352993D01*
X144529901Y-95467007D01*
X144622993Y-95560099D01*
X144737007Y-95625925D01*
X144800590Y-95642962D01*
X144168625Y-96274925D01*
X144252421Y-96333599D01*
X144466507Y-96433429D01*
X144466516Y-96433433D01*
X144694673Y-96494567D01*
X144694684Y-96494569D01*
X144929998Y-96515157D01*
X144930002Y-96515157D01*
X145165315Y-96494569D01*
X145165326Y-96494567D01*
X145393483Y-96433433D01*
X145393492Y-96433429D01*
X145607578Y-96333600D01*
X145607582Y-96333598D01*
X145691373Y-96274926D01*
X145691373Y-96274925D01*
X145059409Y-95642962D01*
X145122993Y-95625925D01*
X145237007Y-95560099D01*
X145330099Y-95467007D01*
X145395925Y-95352993D01*
X145412962Y-95289409D01*
X146044925Y-95921373D01*
X146098425Y-95844968D01*
X146153002Y-95801344D01*
X146222501Y-95794151D01*
X146284855Y-95825673D01*
X146301576Y-95844969D01*
X146355073Y-95921372D01*
X146987037Y-95289409D01*
X147004075Y-95352993D01*
X147069901Y-95467007D01*
X147162993Y-95560099D01*
X147277007Y-95625925D01*
X147340590Y-95642962D01*
X146708625Y-96274925D01*
X146792421Y-96333599D01*
X147006507Y-96433429D01*
X147006516Y-96433433D01*
X147234673Y-96494567D01*
X147234684Y-96494569D01*
X147469998Y-96515157D01*
X147470002Y-96515157D01*
X147705315Y-96494569D01*
X147705326Y-96494567D01*
X147933483Y-96433433D01*
X147933492Y-96433430D01*
X148111094Y-96350612D01*
X148180171Y-96340120D01*
X148243955Y-96368639D01*
X148282195Y-96427116D01*
X148282750Y-96496983D01*
X148251180Y-96550675D01*
X147893675Y-96908181D01*
X147832352Y-96941666D01*
X147805994Y-96944500D01*
X143244006Y-96944500D01*
X143176967Y-96924815D01*
X143156325Y-96908181D01*
X142521819Y-96273675D01*
X142488334Y-96212352D01*
X142485500Y-96185994D01*
X142485500Y-94933768D01*
X142485499Y-94933766D01*
X142466094Y-94836211D01*
X142451855Y-94764626D01*
X142407531Y-94657618D01*
X142385861Y-94605301D01*
X142385854Y-94605288D01*
X142290046Y-94461902D01*
X142290045Y-94461901D01*
X142168099Y-94339955D01*
X138139725Y-90311581D01*
X134048102Y-86219957D01*
X134048098Y-86219954D01*
X133904711Y-86124145D01*
X133904698Y-86124138D01*
X133745378Y-86058146D01*
X133745366Y-86058143D01*
X133576232Y-86024500D01*
X133576229Y-86024500D01*
X133403771Y-86024500D01*
X133403768Y-86024500D01*
X133234633Y-86058143D01*
X133234621Y-86058146D01*
X133075301Y-86124138D01*
X133075288Y-86124145D01*
X132931901Y-86219954D01*
X132931897Y-86219957D01*
X132809957Y-86341897D01*
X132809954Y-86341901D01*
X132714145Y-86485288D01*
X132714138Y-86485301D01*
X132648146Y-86644621D01*
X132648143Y-86644633D01*
X132614500Y-86813766D01*
X132614500Y-86986233D01*
X132648143Y-87155366D01*
X132648146Y-87155378D01*
X132714138Y-87314698D01*
X132714145Y-87314711D01*
X132809954Y-87458098D01*
X132809957Y-87458102D01*
X140698181Y-95346325D01*
X140731666Y-95407648D01*
X140734500Y-95434006D01*
X140734500Y-96686233D01*
X140768143Y-96855366D01*
X140768146Y-96855378D01*
X140834138Y-97014698D01*
X140834145Y-97014711D01*
X140929954Y-97158098D01*
X140929957Y-97158102D01*
X142169955Y-98398099D01*
X142271898Y-98500042D01*
X142291902Y-98520046D01*
X142435288Y-98615854D01*
X142435301Y-98615861D01*
X142546344Y-98661856D01*
X142594626Y-98681855D01*
X142759106Y-98714572D01*
X142763766Y-98715499D01*
X142763769Y-98715500D01*
X142763771Y-98715500D01*
X142936230Y-98715500D01*
X142936230Y-98715499D01*
X143024796Y-98697882D01*
X143048987Y-98695500D01*
X148306231Y-98695500D01*
X148306232Y-98695499D01*
X148475374Y-98661855D01*
X148634705Y-98595858D01*
X148778099Y-98500045D01*
X153621325Y-93656819D01*
X153682648Y-93623334D01*
X153709006Y-93620500D01*
X173573883Y-93620500D01*
X173640922Y-93640185D01*
X173686677Y-93692989D01*
X173695012Y-93724610D01*
X173696126Y-93724414D01*
X173697066Y-93729748D01*
X173756751Y-93952497D01*
X173756753Y-93952501D01*
X173756754Y-93952505D01*
X173767551Y-93975659D01*
X173854218Y-94161518D01*
X173854220Y-94161522D01*
X173986496Y-94350432D01*
X174149567Y-94513503D01*
X174338477Y-94645779D01*
X174338479Y-94645780D01*
X174338482Y-94645782D01*
X174363865Y-94657618D01*
X174416304Y-94703790D01*
X174435456Y-94770984D01*
X174415240Y-94837865D01*
X174363866Y-94882381D01*
X174338489Y-94894214D01*
X174338482Y-94894218D01*
X174149566Y-95026497D01*
X173986497Y-95189566D01*
X173854218Y-95378482D01*
X173854217Y-95378484D01*
X173756755Y-95587493D01*
X173756751Y-95587502D01*
X173708497Y-95767593D01*
X173672132Y-95827254D01*
X173609285Y-95857783D01*
X173588722Y-95859500D01*
X164210758Y-95859500D01*
X164143719Y-95839815D01*
X164123077Y-95823181D01*
X163979786Y-95679890D01*
X163807820Y-95554951D01*
X163618414Y-95458444D01*
X163618413Y-95458443D01*
X163618412Y-95458443D01*
X163416243Y-95392754D01*
X163416241Y-95392753D01*
X163416240Y-95392753D01*
X163254957Y-95367208D01*
X163206287Y-95359500D01*
X162993713Y-95359500D01*
X162945042Y-95367208D01*
X162783760Y-95392753D01*
X162581585Y-95458444D01*
X162392179Y-95554951D01*
X162220215Y-95679889D01*
X162081035Y-95819069D01*
X162019712Y-95852553D01*
X161950020Y-95847569D01*
X161894087Y-95805697D01*
X161887815Y-95796484D01*
X161792315Y-95641654D01*
X161668345Y-95517684D01*
X161519124Y-95425643D01*
X161519119Y-95425641D01*
X161352697Y-95370494D01*
X161352690Y-95370493D01*
X161249986Y-95360000D01*
X160850000Y-95360000D01*
X160850000Y-96426988D01*
X160792993Y-96394075D01*
X160665826Y-96360000D01*
X160534174Y-96360000D01*
X160407007Y-96394075D01*
X160350000Y-96426988D01*
X160350000Y-95360000D01*
X159950028Y-95360000D01*
X159950012Y-95360001D01*
X159847302Y-95370494D01*
X159680880Y-95425641D01*
X159680875Y-95425643D01*
X159531654Y-95517684D01*
X159407684Y-95641654D01*
X159315643Y-95790875D01*
X159315641Y-95790880D01*
X159260494Y-95957302D01*
X159260493Y-95957309D01*
X159250000Y-96060013D01*
X159250000Y-96610000D01*
X160166988Y-96610000D01*
X160134075Y-96667007D01*
X160100000Y-96794174D01*
X160100000Y-96925826D01*
X160134075Y-97052993D01*
X160166988Y-97110000D01*
X159250001Y-97110000D01*
X159250001Y-97659986D01*
X159260494Y-97762697D01*
X159315641Y-97929119D01*
X159315643Y-97929124D01*
X159407684Y-98078345D01*
X159531654Y-98202315D01*
X159680875Y-98294356D01*
X159680880Y-98294358D01*
X159847302Y-98349505D01*
X159847309Y-98349506D01*
X159950019Y-98359999D01*
X160349999Y-98359999D01*
X160350000Y-98359998D01*
X160350000Y-97293012D01*
X160407007Y-97325925D01*
X160534174Y-97360000D01*
X160665826Y-97360000D01*
X160792993Y-97325925D01*
X160850000Y-97293012D01*
X160850000Y-98359999D01*
X161249972Y-98359999D01*
X161249986Y-98359998D01*
X161352697Y-98349505D01*
X161519119Y-98294358D01*
X161519124Y-98294356D01*
X161668345Y-98202315D01*
X161792317Y-98078343D01*
X161887815Y-97923516D01*
X161939763Y-97876791D01*
X162008725Y-97865568D01*
X162072808Y-97893412D01*
X162081035Y-97900931D01*
X162220213Y-98040109D01*
X162392179Y-98165048D01*
X162392181Y-98165049D01*
X162392184Y-98165051D01*
X162581588Y-98261557D01*
X162783757Y-98327246D01*
X162993713Y-98360500D01*
X162993714Y-98360500D01*
X163206286Y-98360500D01*
X163206287Y-98360500D01*
X163416243Y-98327246D01*
X163618412Y-98261557D01*
X163807816Y-98165051D01*
X163859511Y-98127493D01*
X163979786Y-98040109D01*
X163979788Y-98040106D01*
X163979792Y-98040104D01*
X164123077Y-97896819D01*
X164184400Y-97863334D01*
X164210758Y-97860500D01*
X173686615Y-97860500D01*
X173753654Y-97880185D01*
X173799409Y-97932989D01*
X173809353Y-98002147D01*
X173798997Y-98036904D01*
X173779528Y-98078656D01*
X173756755Y-98127493D01*
X173756751Y-98127502D01*
X173697066Y-98350251D01*
X173697064Y-98350262D01*
X173676965Y-98579998D01*
X173676965Y-98580001D01*
X173697064Y-98809737D01*
X173697066Y-98809748D01*
X173756751Y-99032497D01*
X173756753Y-99032501D01*
X173756754Y-99032505D01*
X173832523Y-99194993D01*
X173854218Y-99241518D01*
X173854220Y-99241522D01*
X173986496Y-99430432D01*
X174149567Y-99593503D01*
X174338477Y-99725779D01*
X174338479Y-99725780D01*
X174338482Y-99725782D01*
X174547495Y-99823246D01*
X174770257Y-99882935D01*
X174934359Y-99897292D01*
X174999998Y-99903035D01*
X175000000Y-99903035D01*
X175000002Y-99903035D01*
X175057435Y-99898010D01*
X175229743Y-99882935D01*
X175452505Y-99823246D01*
X175661518Y-99725782D01*
X175850431Y-99593504D01*
X176013504Y-99430431D01*
X176145782Y-99241518D01*
X176243246Y-99032505D01*
X176251956Y-98999998D01*
X201194390Y-98999998D01*
X201194390Y-99000001D01*
X201214804Y-99285433D01*
X201275628Y-99565037D01*
X201275630Y-99565043D01*
X201275631Y-99565046D01*
X201335582Y-99725781D01*
X201375635Y-99833166D01*
X201512770Y-100084309D01*
X201512775Y-100084317D01*
X201684254Y-100313387D01*
X201684270Y-100313405D01*
X201886594Y-100515729D01*
X201886612Y-100515745D01*
X202115682Y-100687224D01*
X202115690Y-100687229D01*
X202366833Y-100824364D01*
X202366832Y-100824364D01*
X202366836Y-100824365D01*
X202366839Y-100824367D01*
X202634954Y-100924369D01*
X202634960Y-100924370D01*
X202634962Y-100924371D01*
X202914566Y-100985195D01*
X202914568Y-100985195D01*
X202914572Y-100985196D01*
X203168220Y-101003337D01*
X203199999Y-101005610D01*
X203200000Y-101005610D01*
X203200001Y-101005610D01*
X203228595Y-101003564D01*
X203485428Y-100985196D01*
X203765046Y-100924369D01*
X204033161Y-100824367D01*
X204284315Y-100687226D01*
X204513395Y-100515739D01*
X204715739Y-100313395D01*
X204887226Y-100084315D01*
X205024367Y-99833161D01*
X205124369Y-99565046D01*
X205185196Y-99285428D01*
X205205610Y-99000000D01*
X205185196Y-98714572D01*
X205178078Y-98681853D01*
X205124371Y-98434962D01*
X205124370Y-98434960D01*
X205124369Y-98434954D01*
X205024367Y-98166839D01*
X205002887Y-98127502D01*
X204887229Y-97915690D01*
X204887224Y-97915682D01*
X204715745Y-97686612D01*
X204715729Y-97686594D01*
X204513405Y-97484270D01*
X204513387Y-97484254D01*
X204284317Y-97312775D01*
X204284309Y-97312770D01*
X204033166Y-97175635D01*
X204033167Y-97175635D01*
X203925915Y-97135632D01*
X203765046Y-97075631D01*
X203765043Y-97075630D01*
X203765037Y-97075628D01*
X203485433Y-97014804D01*
X203200001Y-96994390D01*
X203199999Y-96994390D01*
X202914566Y-97014804D01*
X202634962Y-97075628D01*
X202366833Y-97175635D01*
X202115690Y-97312770D01*
X202115682Y-97312775D01*
X201886612Y-97484254D01*
X201886594Y-97484270D01*
X201684270Y-97686594D01*
X201684254Y-97686612D01*
X201512775Y-97915682D01*
X201512770Y-97915690D01*
X201375635Y-98166833D01*
X201275628Y-98434962D01*
X201214804Y-98714566D01*
X201194390Y-98999998D01*
X176251956Y-98999998D01*
X176302935Y-98809743D01*
X176323035Y-98580000D01*
X176302935Y-98350257D01*
X176243246Y-98127495D01*
X176145782Y-97918483D01*
X176013504Y-97729569D01*
X176013502Y-97729566D01*
X175850432Y-97566496D01*
X175661522Y-97434220D01*
X175661519Y-97434219D01*
X175661520Y-97434219D01*
X175661518Y-97434218D01*
X175636134Y-97422381D01*
X175583696Y-97376211D01*
X175564543Y-97309018D01*
X175584758Y-97242136D01*
X175636134Y-97197618D01*
X175661518Y-97185782D01*
X175850431Y-97053504D01*
X176013504Y-96890431D01*
X176145782Y-96701518D01*
X176243246Y-96492505D01*
X176302935Y-96269743D01*
X176323035Y-96040000D01*
X176302935Y-95810257D01*
X176252786Y-95623097D01*
X176243248Y-95587502D01*
X176243247Y-95587501D01*
X176243246Y-95587495D01*
X176145782Y-95378483D01*
X176013504Y-95189569D01*
X176013502Y-95189566D01*
X175850432Y-95026496D01*
X175661522Y-94894220D01*
X175661519Y-94894219D01*
X175661520Y-94894219D01*
X175661518Y-94894218D01*
X175636134Y-94882381D01*
X175583696Y-94836211D01*
X175564543Y-94769018D01*
X175584758Y-94702136D01*
X175636134Y-94657618D01*
X175661518Y-94645782D01*
X175850431Y-94513504D01*
X176013504Y-94350431D01*
X176145782Y-94161518D01*
X176243246Y-93952505D01*
X176302935Y-93729743D01*
X176323035Y-93500000D01*
X176302935Y-93270257D01*
X176243246Y-93047495D01*
X176145782Y-92838483D01*
X176013504Y-92649569D01*
X176013502Y-92649566D01*
X175911819Y-92547883D01*
X175878334Y-92486560D01*
X175875500Y-92460202D01*
X175875500Y-91373768D01*
X175875499Y-91373766D01*
X175841856Y-91204633D01*
X175841855Y-91204626D01*
X175841853Y-91204621D01*
X175775861Y-91045301D01*
X175775854Y-91045288D01*
X175680046Y-90901902D01*
X175680045Y-90901901D01*
X175558099Y-90779955D01*
X174811819Y-90033675D01*
X174778334Y-89972352D01*
X174775500Y-89945994D01*
X174775500Y-86426940D01*
X174795185Y-86359901D01*
X174847989Y-86314146D01*
X174917147Y-86304202D01*
X174980703Y-86333227D01*
X174987181Y-86339259D01*
X174997738Y-86349816D01*
X175150478Y-86445789D01*
X175297605Y-86497271D01*
X175320745Y-86505368D01*
X175320750Y-86505369D01*
X175499996Y-86525565D01*
X175500000Y-86525565D01*
X175500004Y-86525565D01*
X175679249Y-86505369D01*
X175679252Y-86505368D01*
X175679255Y-86505368D01*
X175759017Y-86477457D01*
X175799972Y-86470500D01*
X183977770Y-86470500D01*
X184044809Y-86490185D01*
X184065451Y-86506819D01*
X184156451Y-86597819D01*
X184189936Y-86659142D01*
X184184952Y-86728834D01*
X184143080Y-86784767D01*
X184077616Y-86809184D01*
X184068770Y-86809500D01*
X182159972Y-86809500D01*
X182119017Y-86802542D01*
X182039254Y-86774631D01*
X182039249Y-86774630D01*
X181860004Y-86754435D01*
X181859996Y-86754435D01*
X181680750Y-86774630D01*
X181680745Y-86774631D01*
X181510476Y-86834211D01*
X181357737Y-86930184D01*
X181230184Y-87057737D01*
X181134211Y-87210476D01*
X181074631Y-87380745D01*
X181074630Y-87380750D01*
X181054435Y-87559996D01*
X181054435Y-87560003D01*
X181074630Y-87739249D01*
X181074631Y-87739254D01*
X181134211Y-87909523D01*
X181193359Y-88003655D01*
X181230184Y-88062262D01*
X181357738Y-88189816D01*
X181510478Y-88285789D01*
X181680745Y-88345368D01*
X181680750Y-88345369D01*
X181859996Y-88365565D01*
X181860000Y-88365565D01*
X181860004Y-88365565D01*
X182039249Y-88345369D01*
X182039252Y-88345368D01*
X182039255Y-88345368D01*
X182119017Y-88317457D01*
X182159972Y-88310500D01*
X183917770Y-88310500D01*
X183984809Y-88330185D01*
X184005451Y-88346819D01*
X185003181Y-89344548D01*
X185036666Y-89405871D01*
X185039500Y-89432229D01*
X185039500Y-89617932D01*
X185034575Y-89652530D01*
X185026451Y-89680490D01*
X184995057Y-89733573D01*
X184417049Y-90311581D01*
X184367812Y-90385271D01*
X184334921Y-90434496D01*
X184334914Y-90434508D01*
X184278342Y-90571086D01*
X184278340Y-90571092D01*
X184249500Y-90716079D01*
X184249500Y-95279699D01*
X184229815Y-95346738D01*
X184177011Y-95392493D01*
X184164507Y-95397403D01*
X184133592Y-95407648D01*
X184080668Y-95425185D01*
X184080663Y-95425187D01*
X183931342Y-95517289D01*
X183807289Y-95641342D01*
X183715187Y-95790663D01*
X183715185Y-95790668D01*
X183697192Y-95844968D01*
X183660001Y-95957203D01*
X183660001Y-95957204D01*
X183660000Y-95957204D01*
X183649500Y-96059983D01*
X183649500Y-97660001D01*
X183649501Y-97660018D01*
X183660000Y-97762796D01*
X183660001Y-97762799D01*
X183705774Y-97900931D01*
X183715186Y-97929334D01*
X183807288Y-98078656D01*
X183931344Y-98202712D01*
X184080666Y-98294814D01*
X184247203Y-98349999D01*
X184349991Y-98360500D01*
X185650008Y-98360499D01*
X185752797Y-98349999D01*
X185919334Y-98294814D01*
X186068656Y-98202712D01*
X186192712Y-98078656D01*
X186284814Y-97929334D01*
X186284814Y-97929331D01*
X186288178Y-97923879D01*
X186340126Y-97877154D01*
X186409088Y-97865931D01*
X186473170Y-97893774D01*
X186481398Y-97901294D01*
X186620213Y-98040109D01*
X186792179Y-98165048D01*
X186792181Y-98165049D01*
X186792184Y-98165051D01*
X186981588Y-98261557D01*
X187183757Y-98327246D01*
X187393713Y-98360500D01*
X187393714Y-98360500D01*
X187606286Y-98360500D01*
X187606287Y-98360500D01*
X187816243Y-98327246D01*
X188018412Y-98261557D01*
X188207816Y-98165051D01*
X188259511Y-98127493D01*
X188379786Y-98040109D01*
X188379788Y-98040106D01*
X188379792Y-98040104D01*
X188530104Y-97889792D01*
X188530106Y-97889788D01*
X188530109Y-97889786D01*
X188655048Y-97717820D01*
X188655047Y-97717820D01*
X188655051Y-97717816D01*
X188751557Y-97528412D01*
X188817246Y-97326243D01*
X188850500Y-97116287D01*
X188850500Y-96603713D01*
X188817246Y-96393757D01*
X188751557Y-96191588D01*
X188655051Y-96002184D01*
X188655049Y-96002181D01*
X188655048Y-96002179D01*
X188530109Y-95830213D01*
X188379794Y-95679898D01*
X188379788Y-95679893D01*
X188301615Y-95623097D01*
X188258949Y-95567767D01*
X188250500Y-95522779D01*
X188250500Y-90676079D01*
X188221659Y-90531092D01*
X188221658Y-90531091D01*
X188221658Y-90531087D01*
X188221656Y-90531082D01*
X188165087Y-90394511D01*
X188165080Y-90394498D01*
X188082952Y-90271585D01*
X188082951Y-90271584D01*
X187978416Y-90167049D01*
X187783719Y-89972352D01*
X187544941Y-89733573D01*
X187513546Y-89680487D01*
X187505422Y-89652525D01*
X187500500Y-89617934D01*
X187500500Y-88056082D01*
X187488256Y-87994530D01*
X187471659Y-87911088D01*
X187438518Y-87831080D01*
X187438518Y-87831079D01*
X187415085Y-87774506D01*
X187415083Y-87774503D01*
X187332954Y-87651588D01*
X187332953Y-87651587D01*
X187332951Y-87651584D01*
X187228416Y-87547049D01*
X186667596Y-86986229D01*
X184818421Y-85137052D01*
X184818414Y-85137046D01*
X184744729Y-85087812D01*
X184744729Y-85087813D01*
X184695491Y-85054913D01*
X184558917Y-84998343D01*
X184558907Y-84998340D01*
X184413920Y-84969500D01*
X184413918Y-84969500D01*
X175799972Y-84969500D01*
X175759017Y-84962542D01*
X175679254Y-84934631D01*
X175679249Y-84934630D01*
X175500004Y-84914435D01*
X175499996Y-84914435D01*
X175320750Y-84934630D01*
X175320745Y-84934631D01*
X175150476Y-84994211D01*
X174997737Y-85090184D01*
X174987181Y-85100741D01*
X174925858Y-85134226D01*
X174856166Y-85129242D01*
X174800233Y-85087370D01*
X174775816Y-85021906D01*
X174775500Y-85013060D01*
X174775500Y-80804503D01*
X175110000Y-80804503D01*
X175256195Y-80762031D01*
X175395374Y-80679721D01*
X175395383Y-80679714D01*
X175509714Y-80565383D01*
X175509721Y-80565374D01*
X175592031Y-80426195D01*
X175592033Y-80426190D01*
X175637144Y-80270918D01*
X175637145Y-80270912D01*
X175638790Y-80250000D01*
X175110000Y-80250000D01*
X175110000Y-80804503D01*
X174775500Y-80804503D01*
X174775500Y-79750000D01*
X175110000Y-79750000D01*
X175638790Y-79750000D01*
X175637145Y-79729089D01*
X175592031Y-79573804D01*
X175509721Y-79434625D01*
X175509714Y-79434616D01*
X175412779Y-79337681D01*
X175379294Y-79276358D01*
X175384278Y-79206666D01*
X175412779Y-79162319D01*
X175509714Y-79065383D01*
X175509721Y-79065374D01*
X175592031Y-78926195D01*
X175592033Y-78926190D01*
X175637144Y-78770918D01*
X175637145Y-78770912D01*
X175638790Y-78750000D01*
X175110000Y-78750000D01*
X175110000Y-79750000D01*
X174775500Y-79750000D01*
X174775500Y-78250000D01*
X175110000Y-78250000D01*
X175638790Y-78250000D01*
X175637145Y-78229089D01*
X175592031Y-78073804D01*
X175509721Y-77934625D01*
X175509714Y-77934616D01*
X175412779Y-77837681D01*
X175379294Y-77776358D01*
X175384278Y-77706666D01*
X175412779Y-77662319D01*
X175509714Y-77565383D01*
X175509721Y-77565374D01*
X175592031Y-77426195D01*
X175592033Y-77426190D01*
X175637144Y-77270918D01*
X175637145Y-77270912D01*
X175638790Y-77250000D01*
X176761210Y-77250000D01*
X176762854Y-77270910D01*
X176807968Y-77426195D01*
X176890278Y-77565374D01*
X176890285Y-77565383D01*
X177004616Y-77679714D01*
X177004625Y-77679721D01*
X177143804Y-77762031D01*
X177290000Y-77804504D01*
X177290000Y-77250000D01*
X176761210Y-77250000D01*
X175638790Y-77250000D01*
X175110000Y-77250000D01*
X175110000Y-78250000D01*
X174775500Y-78250000D01*
X174775500Y-76195494D01*
X175110000Y-76195494D01*
X175110000Y-76750000D01*
X175638790Y-76750000D01*
X175638790Y-76749999D01*
X176761209Y-76749999D01*
X176761210Y-76750000D01*
X177290000Y-76750000D01*
X177290000Y-76195494D01*
X177289998Y-76195493D01*
X177143809Y-76237965D01*
X177143806Y-76237967D01*
X177004625Y-76320278D01*
X177004616Y-76320285D01*
X176890285Y-76434616D01*
X176890278Y-76434625D01*
X176807968Y-76573804D01*
X176807966Y-76573809D01*
X176762855Y-76729081D01*
X176762854Y-76729087D01*
X176761209Y-76749999D01*
X175638790Y-76749999D01*
X175637145Y-76729089D01*
X175592031Y-76573804D01*
X175509721Y-76434625D01*
X175509714Y-76434616D01*
X175395383Y-76320285D01*
X175395374Y-76320278D01*
X175256193Y-76237967D01*
X175256190Y-76237965D01*
X175110001Y-76195493D01*
X175110000Y-76195494D01*
X174775500Y-76195494D01*
X174775500Y-75929499D01*
X174795185Y-75862460D01*
X174847989Y-75816705D01*
X174899500Y-75805499D01*
X174947871Y-75805499D01*
X174947872Y-75805499D01*
X175007483Y-75799091D01*
X175142331Y-75748796D01*
X175257546Y-75662546D01*
X175343796Y-75547331D01*
X175394091Y-75412483D01*
X175400500Y-75352873D01*
X175400499Y-72757128D01*
X175394091Y-72697517D01*
X175378083Y-72654598D01*
X175343797Y-72562671D01*
X175343793Y-72562664D01*
X175257547Y-72447455D01*
X175257544Y-72447452D01*
X175142335Y-72361206D01*
X175142328Y-72361202D01*
X175007482Y-72310908D01*
X175007483Y-72310908D01*
X174947883Y-72304501D01*
X174947881Y-72304500D01*
X174947873Y-72304500D01*
X174947864Y-72304500D01*
X172852129Y-72304500D01*
X172852123Y-72304501D01*
X172792516Y-72310908D01*
X172657671Y-72361202D01*
X172657664Y-72361206D01*
X172542455Y-72447452D01*
X172542452Y-72447455D01*
X172456206Y-72562664D01*
X172456202Y-72562671D01*
X172405908Y-72697517D01*
X172399501Y-72757116D01*
X172399501Y-72757123D01*
X172399500Y-72757135D01*
X172399500Y-75352870D01*
X172399501Y-75352876D01*
X172405908Y-75412483D01*
X172456202Y-75547328D01*
X172456206Y-75547335D01*
X172542452Y-75662544D01*
X172542455Y-75662547D01*
X172657664Y-75748793D01*
X172657671Y-75748797D01*
X172702618Y-75765561D01*
X172792517Y-75799091D01*
X172852127Y-75805500D01*
X172900500Y-75805499D01*
X172967537Y-75825182D01*
X173013293Y-75877985D01*
X173024500Y-75929499D01*
X173024500Y-90446233D01*
X173058143Y-90615366D01*
X173058146Y-90615378D01*
X173124138Y-90774698D01*
X173124145Y-90774711D01*
X173219954Y-90918098D01*
X173219957Y-90918102D01*
X173709675Y-91407819D01*
X173743160Y-91469142D01*
X173738176Y-91538833D01*
X173696305Y-91594767D01*
X173630840Y-91619184D01*
X173621994Y-91619500D01*
X148430758Y-91619500D01*
X148363719Y-91599815D01*
X148343077Y-91583181D01*
X148341402Y-91581506D01*
X148341396Y-91581501D01*
X148155842Y-91451575D01*
X148112217Y-91396998D01*
X148105023Y-91327500D01*
X148136546Y-91265145D01*
X148155842Y-91248425D01*
X148218400Y-91204621D01*
X148341401Y-91118495D01*
X148508495Y-90951401D01*
X148644035Y-90757830D01*
X148743903Y-90543663D01*
X148805063Y-90315408D01*
X148825659Y-90080000D01*
X148805063Y-89844592D01*
X148743903Y-89616337D01*
X148644035Y-89402171D01*
X148638425Y-89394158D01*
X148508494Y-89208597D01*
X148341402Y-89041506D01*
X148341396Y-89041501D01*
X148155842Y-88911575D01*
X148112217Y-88856998D01*
X148105023Y-88787500D01*
X148136546Y-88725145D01*
X148155842Y-88708425D01*
X148178026Y-88692891D01*
X148341401Y-88578495D01*
X148508495Y-88411401D01*
X148644035Y-88217830D01*
X148743903Y-88003663D01*
X148805063Y-87775408D01*
X148825659Y-87540000D01*
X148807022Y-87326985D01*
X148820788Y-87258486D01*
X148842866Y-87228500D01*
X150592951Y-85478416D01*
X150675084Y-85355495D01*
X150731658Y-85218913D01*
X150731658Y-85218910D01*
X150731660Y-85218906D01*
X150739256Y-85180718D01*
X150739256Y-85180717D01*
X150760500Y-85073920D01*
X150760500Y-71387700D01*
X150780185Y-71320661D01*
X150813375Y-71286126D01*
X150881401Y-71238495D01*
X151048495Y-71071401D01*
X151184035Y-70877830D01*
X151195686Y-70852844D01*
X172700000Y-70852844D01*
X172706401Y-70912372D01*
X172706403Y-70912379D01*
X172756645Y-71047086D01*
X172756649Y-71047093D01*
X172842809Y-71162187D01*
X172842812Y-71162190D01*
X172957906Y-71248350D01*
X172957913Y-71248354D01*
X173092620Y-71298596D01*
X173092627Y-71298598D01*
X173152155Y-71304999D01*
X173152172Y-71305000D01*
X175950000Y-71305000D01*
X176450000Y-71305000D01*
X179247828Y-71305000D01*
X179247844Y-71304999D01*
X179307372Y-71298598D01*
X179307379Y-71298596D01*
X179442086Y-71248354D01*
X179442093Y-71248350D01*
X179557187Y-71162190D01*
X179557190Y-71162187D01*
X179643350Y-71047093D01*
X179643354Y-71047086D01*
X179693596Y-70912379D01*
X179693598Y-70912372D01*
X179699999Y-70852844D01*
X179700000Y-70852827D01*
X179700000Y-68055000D01*
X176450000Y-68055000D01*
X176450000Y-71305000D01*
X175950000Y-71305000D01*
X175950000Y-68055000D01*
X172700000Y-68055000D01*
X172700000Y-70852844D01*
X151195686Y-70852844D01*
X151283903Y-70663663D01*
X151345063Y-70435408D01*
X151365659Y-70200000D01*
X151345063Y-69964592D01*
X151283903Y-69736337D01*
X151184035Y-69522171D01*
X151048495Y-69328599D01*
X151048494Y-69328597D01*
X150881402Y-69161506D01*
X150881396Y-69161501D01*
X150695842Y-69031575D01*
X150652217Y-68976998D01*
X150645023Y-68907500D01*
X150676546Y-68845145D01*
X150695842Y-68828425D01*
X150718026Y-68812891D01*
X150881401Y-68698495D01*
X151048495Y-68531401D01*
X151184035Y-68337830D01*
X151283903Y-68123663D01*
X151345063Y-67895408D01*
X151365659Y-67660000D01*
X151345063Y-67424592D01*
X151283903Y-67196337D01*
X151184035Y-66982171D01*
X151133151Y-66909500D01*
X151048494Y-66788597D01*
X150881402Y-66621506D01*
X150881396Y-66621501D01*
X150695842Y-66491575D01*
X150652217Y-66436998D01*
X150645023Y-66367500D01*
X150676546Y-66305145D01*
X150695842Y-66288425D01*
X150718026Y-66272891D01*
X150881401Y-66158495D01*
X151048495Y-65991401D01*
X151184035Y-65797830D01*
X151283903Y-65583663D01*
X151345063Y-65355408D01*
X151365659Y-65120000D01*
X151345063Y-64884592D01*
X151310917Y-64757155D01*
X172700000Y-64757155D01*
X172700000Y-67555000D01*
X175950000Y-67555000D01*
X176450000Y-67555000D01*
X179700000Y-67555000D01*
X179700000Y-64757172D01*
X179699999Y-64757155D01*
X179693598Y-64697627D01*
X179693596Y-64697620D01*
X179643354Y-64562913D01*
X179643350Y-64562906D01*
X179557190Y-64447812D01*
X179557187Y-64447809D01*
X179442093Y-64361649D01*
X179442086Y-64361645D01*
X179307379Y-64311403D01*
X179307372Y-64311401D01*
X179247844Y-64305000D01*
X176450000Y-64305000D01*
X176450000Y-67555000D01*
X175950000Y-67555000D01*
X175950000Y-64305000D01*
X173152155Y-64305000D01*
X173092627Y-64311401D01*
X173092620Y-64311403D01*
X172957913Y-64361645D01*
X172957906Y-64361649D01*
X172842812Y-64447809D01*
X172842809Y-64447812D01*
X172756649Y-64562906D01*
X172756645Y-64562913D01*
X172706403Y-64697620D01*
X172706401Y-64697627D01*
X172700000Y-64757155D01*
X151310917Y-64757155D01*
X151298626Y-64711285D01*
X151283905Y-64656344D01*
X151283904Y-64656343D01*
X151283903Y-64656337D01*
X151184035Y-64442171D01*
X151176550Y-64431480D01*
X151048494Y-64248597D01*
X150881402Y-64081506D01*
X150881396Y-64081501D01*
X150695842Y-63951575D01*
X150652217Y-63896998D01*
X150645023Y-63827500D01*
X150676546Y-63765145D01*
X150695842Y-63748425D01*
X150718026Y-63732891D01*
X150881401Y-63618495D01*
X151048495Y-63451401D01*
X151184035Y-63257830D01*
X151283903Y-63043663D01*
X151345063Y-62815408D01*
X151365659Y-62580000D01*
X151345063Y-62344592D01*
X151283903Y-62116337D01*
X151184035Y-61902171D01*
X151048495Y-61708599D01*
X151048494Y-61708597D01*
X150881402Y-61541506D01*
X150881396Y-61541501D01*
X150695842Y-61411575D01*
X150652217Y-61356998D01*
X150645023Y-61287500D01*
X150676546Y-61225145D01*
X150695842Y-61208425D01*
X150807650Y-61130136D01*
X150881401Y-61078495D01*
X151008077Y-60951819D01*
X151069400Y-60918334D01*
X151095758Y-60915500D01*
X157586231Y-60915500D01*
X157586232Y-60915499D01*
X157755374Y-60881855D01*
X157914705Y-60815858D01*
X158058099Y-60720045D01*
X158180045Y-60598099D01*
X158275858Y-60454705D01*
X158284376Y-60434142D01*
X158290811Y-60418604D01*
X158341855Y-60295374D01*
X158375500Y-60126229D01*
X158375500Y-60079500D01*
X158395185Y-60012461D01*
X158447989Y-59966706D01*
X158499500Y-59955500D01*
X159076231Y-59955500D01*
X159076232Y-59955499D01*
X159245374Y-59921855D01*
X159404705Y-59855858D01*
X159548099Y-59760045D01*
X160896325Y-58411819D01*
X160957648Y-58378334D01*
X160984006Y-58375500D01*
X176285994Y-58375500D01*
X176353033Y-58395185D01*
X176373675Y-58411819D01*
X183198181Y-65236325D01*
X183231666Y-65297648D01*
X183234500Y-65324006D01*
X183234500Y-77665994D01*
X183214815Y-77733033D01*
X183198181Y-77753675D01*
X181763675Y-79188181D01*
X181702352Y-79221666D01*
X181675994Y-79224500D01*
X180204006Y-79224500D01*
X180136967Y-79204815D01*
X180116325Y-79188181D01*
X179411819Y-78483675D01*
X179378334Y-78422352D01*
X179375500Y-78395994D01*
X179375500Y-75929499D01*
X179395185Y-75862460D01*
X179447989Y-75816705D01*
X179499500Y-75805499D01*
X179547871Y-75805499D01*
X179547872Y-75805499D01*
X179607483Y-75799091D01*
X179742331Y-75748796D01*
X179857546Y-75662546D01*
X179943796Y-75547331D01*
X179994091Y-75412483D01*
X180000500Y-75352873D01*
X180000499Y-72757128D01*
X179994091Y-72697517D01*
X179978083Y-72654598D01*
X179943797Y-72562671D01*
X179943793Y-72562664D01*
X179857547Y-72447455D01*
X179857544Y-72447452D01*
X179742335Y-72361206D01*
X179742328Y-72361202D01*
X179607482Y-72310908D01*
X179607483Y-72310908D01*
X179547883Y-72304501D01*
X179547881Y-72304500D01*
X179547873Y-72304500D01*
X179547864Y-72304500D01*
X177452129Y-72304500D01*
X177452123Y-72304501D01*
X177392516Y-72310908D01*
X177257671Y-72361202D01*
X177257664Y-72361206D01*
X177142455Y-72447452D01*
X177142452Y-72447455D01*
X177056206Y-72562664D01*
X177056202Y-72562671D01*
X177005908Y-72697517D01*
X176999501Y-72757116D01*
X176999501Y-72757123D01*
X176999500Y-72757135D01*
X176999500Y-75352870D01*
X176999501Y-75352876D01*
X177005908Y-75412483D01*
X177056202Y-75547328D01*
X177056206Y-75547335D01*
X177142452Y-75662544D01*
X177142455Y-75662547D01*
X177257664Y-75748793D01*
X177257671Y-75748797D01*
X177302618Y-75765561D01*
X177392517Y-75799091D01*
X177452127Y-75805500D01*
X177500500Y-75805499D01*
X177567537Y-75825182D01*
X177613293Y-75877985D01*
X177624500Y-75929499D01*
X177624500Y-78896233D01*
X177658143Y-79065366D01*
X177658146Y-79065378D01*
X177724138Y-79224698D01*
X177724145Y-79224711D01*
X177819954Y-79368098D01*
X177819957Y-79368102D01*
X179231897Y-80780042D01*
X179231901Y-80780045D01*
X179375288Y-80875854D01*
X179375301Y-80875861D01*
X179534621Y-80941853D01*
X179534626Y-80941855D01*
X179703766Y-80975499D01*
X179703769Y-80975500D01*
X179703771Y-80975500D01*
X182176231Y-80975500D01*
X182176232Y-80975499D01*
X182345374Y-80941855D01*
X182504705Y-80875858D01*
X182648099Y-80780045D01*
X184790045Y-78638099D01*
X184885858Y-78494705D01*
X184894021Y-78474999D01*
X184905471Y-78447356D01*
X184951855Y-78335374D01*
X184985500Y-78166229D01*
X184985500Y-77993771D01*
X184985500Y-73485650D01*
X201194390Y-73485650D01*
X201194390Y-73485653D01*
X201214804Y-73771085D01*
X201275628Y-74050689D01*
X201375635Y-74318818D01*
X201512770Y-74569961D01*
X201512775Y-74569969D01*
X201684254Y-74799039D01*
X201684270Y-74799057D01*
X201886594Y-75001381D01*
X201886612Y-75001397D01*
X202115682Y-75172876D01*
X202115690Y-75172881D01*
X202366833Y-75310016D01*
X202366832Y-75310016D01*
X202366836Y-75310017D01*
X202366839Y-75310019D01*
X202634954Y-75410021D01*
X202634960Y-75410022D01*
X202634962Y-75410023D01*
X202914566Y-75470847D01*
X202914568Y-75470847D01*
X202914572Y-75470848D01*
X203168220Y-75488989D01*
X203199999Y-75491262D01*
X203200000Y-75491262D01*
X203200001Y-75491262D01*
X203228595Y-75489216D01*
X203485428Y-75470848D01*
X203753729Y-75412483D01*
X203765037Y-75410023D01*
X203765037Y-75410022D01*
X203765046Y-75410021D01*
X204033161Y-75310019D01*
X204284315Y-75172878D01*
X204513395Y-75001391D01*
X204715739Y-74799047D01*
X204887226Y-74569967D01*
X205024367Y-74318813D01*
X205124369Y-74050698D01*
X205185196Y-73771080D01*
X205205610Y-73485652D01*
X205185196Y-73200224D01*
X205167252Y-73117738D01*
X205124371Y-72920614D01*
X205124370Y-72920612D01*
X205124369Y-72920606D01*
X205024367Y-72652491D01*
X204975321Y-72562671D01*
X204887229Y-72401342D01*
X204887224Y-72401334D01*
X204715745Y-72172264D01*
X204715729Y-72172246D01*
X204513405Y-71969922D01*
X204513387Y-71969906D01*
X204284317Y-71798427D01*
X204284309Y-71798422D01*
X204033166Y-71661287D01*
X204033167Y-71661287D01*
X203925915Y-71621284D01*
X203765046Y-71561283D01*
X203765043Y-71561282D01*
X203765037Y-71561280D01*
X203485433Y-71500456D01*
X203200001Y-71480042D01*
X203199999Y-71480042D01*
X202914566Y-71500456D01*
X202634962Y-71561280D01*
X202366833Y-71661287D01*
X202115690Y-71798422D01*
X202115682Y-71798427D01*
X201886612Y-71969906D01*
X201886594Y-71969922D01*
X201684270Y-72172246D01*
X201684254Y-72172264D01*
X201512775Y-72401334D01*
X201512770Y-72401342D01*
X201375635Y-72652485D01*
X201275628Y-72920614D01*
X201214804Y-73200218D01*
X201194390Y-73485650D01*
X184985500Y-73485650D01*
X184985500Y-64823771D01*
X184985500Y-64823768D01*
X184985499Y-64823766D01*
X184951855Y-64654626D01*
X184914574Y-64564621D01*
X184885861Y-64495301D01*
X184885854Y-64495288D01*
X184790046Y-64351902D01*
X184739486Y-64301342D01*
X184668099Y-64229955D01*
X178017605Y-57579461D01*
X177984120Y-57518138D01*
X177989104Y-57448446D01*
X178030976Y-57392513D01*
X178096440Y-57368096D01*
X178145395Y-57374446D01*
X178660995Y-57550708D01*
X178663175Y-57551478D01*
X180490051Y-58217029D01*
X180492237Y-58217850D01*
X182106731Y-58842810D01*
X182305430Y-58919725D01*
X182307729Y-58920642D01*
X183348300Y-59347516D01*
X184106399Y-59658511D01*
X184108674Y-59659470D01*
X185892403Y-60433162D01*
X185894537Y-60434113D01*
X187662450Y-61243252D01*
X187664627Y-61244275D01*
X189415970Y-62088512D01*
X189418189Y-62089609D01*
X191152300Y-62968625D01*
X191154497Y-62969766D01*
X192870778Y-63883256D01*
X192872906Y-63884416D01*
X194570579Y-64831969D01*
X194572672Y-64833165D01*
X196251166Y-65814462D01*
X196253222Y-65815692D01*
X197911698Y-66830245D01*
X197913745Y-66831524D01*
X199551747Y-67879050D01*
X199553761Y-67880367D01*
X199917972Y-68123664D01*
X201170415Y-68960310D01*
X201172459Y-68961705D01*
X202767225Y-70073699D01*
X202769241Y-70075134D01*
X204341558Y-71218791D01*
X204343477Y-71220216D01*
X205650427Y-72211344D01*
X205691949Y-72267537D01*
X205699500Y-72310146D01*
X205699500Y-101375500D01*
X205679815Y-101442539D01*
X205627011Y-101488294D01*
X205575500Y-101499500D01*
X86824500Y-101499500D01*
X86757461Y-101479815D01*
X86711706Y-101427011D01*
X86700500Y-101375500D01*
X86700500Y-98999998D01*
X87194390Y-98999998D01*
X87194390Y-99000001D01*
X87214804Y-99285433D01*
X87275628Y-99565037D01*
X87275630Y-99565043D01*
X87275631Y-99565046D01*
X87335582Y-99725781D01*
X87375635Y-99833166D01*
X87512770Y-100084309D01*
X87512775Y-100084317D01*
X87684254Y-100313387D01*
X87684270Y-100313405D01*
X87886594Y-100515729D01*
X87886612Y-100515745D01*
X88115682Y-100687224D01*
X88115690Y-100687229D01*
X88366833Y-100824364D01*
X88366832Y-100824364D01*
X88366836Y-100824365D01*
X88366839Y-100824367D01*
X88634954Y-100924369D01*
X88634960Y-100924370D01*
X88634962Y-100924371D01*
X88914566Y-100985195D01*
X88914568Y-100985195D01*
X88914572Y-100985196D01*
X89168220Y-101003337D01*
X89199999Y-101005610D01*
X89200000Y-101005610D01*
X89200001Y-101005610D01*
X89228595Y-101003564D01*
X89485428Y-100985196D01*
X89765046Y-100924369D01*
X90033161Y-100824367D01*
X90284315Y-100687226D01*
X90513395Y-100515739D01*
X90715739Y-100313395D01*
X90887226Y-100084315D01*
X91024367Y-99833161D01*
X91124369Y-99565046D01*
X91185196Y-99285428D01*
X91205610Y-99000000D01*
X91185196Y-98714572D01*
X91178078Y-98681853D01*
X91124371Y-98434962D01*
X91124370Y-98434960D01*
X91124369Y-98434954D01*
X91024367Y-98166839D01*
X91002887Y-98127502D01*
X90887229Y-97915690D01*
X90887224Y-97915682D01*
X90715745Y-97686612D01*
X90715729Y-97686594D01*
X90513405Y-97484270D01*
X90513387Y-97484254D01*
X90284317Y-97312775D01*
X90284309Y-97312770D01*
X90033166Y-97175635D01*
X90033167Y-97175635D01*
X89925915Y-97135632D01*
X89765046Y-97075631D01*
X89765043Y-97075630D01*
X89765037Y-97075628D01*
X89485433Y-97014804D01*
X89200001Y-96994390D01*
X89199999Y-96994390D01*
X88914566Y-97014804D01*
X88634962Y-97075628D01*
X88366833Y-97175635D01*
X88115690Y-97312770D01*
X88115682Y-97312775D01*
X87886612Y-97484254D01*
X87886594Y-97484270D01*
X87684270Y-97686594D01*
X87684254Y-97686612D01*
X87512775Y-97915682D01*
X87512770Y-97915690D01*
X87375635Y-98166833D01*
X87275628Y-98434962D01*
X87214804Y-98714566D01*
X87194390Y-98999998D01*
X86700500Y-98999998D01*
X86700500Y-73485650D01*
X87194390Y-73485650D01*
X87194390Y-73485653D01*
X87214804Y-73771085D01*
X87275628Y-74050689D01*
X87375635Y-74318818D01*
X87512770Y-74569961D01*
X87512775Y-74569969D01*
X87684254Y-74799039D01*
X87684270Y-74799057D01*
X87886594Y-75001381D01*
X87886612Y-75001397D01*
X88115682Y-75172876D01*
X88115690Y-75172881D01*
X88366833Y-75310016D01*
X88366832Y-75310016D01*
X88366836Y-75310017D01*
X88366839Y-75310019D01*
X88634954Y-75410021D01*
X88634960Y-75410022D01*
X88634962Y-75410023D01*
X88914566Y-75470847D01*
X88914568Y-75470847D01*
X88914572Y-75470848D01*
X89168220Y-75488989D01*
X89199999Y-75491262D01*
X89200000Y-75491262D01*
X89200001Y-75491262D01*
X89228595Y-75489216D01*
X89485428Y-75470848D01*
X89753729Y-75412483D01*
X89765037Y-75410023D01*
X89765037Y-75410022D01*
X89765046Y-75410021D01*
X90033161Y-75310019D01*
X90284315Y-75172878D01*
X90513395Y-75001391D01*
X90715739Y-74799047D01*
X90887226Y-74569967D01*
X91024367Y-74318813D01*
X91124369Y-74050698D01*
X91185196Y-73771080D01*
X91205610Y-73485652D01*
X91185196Y-73200224D01*
X91167252Y-73117738D01*
X91124371Y-72920614D01*
X91124370Y-72920612D01*
X91124369Y-72920606D01*
X91024367Y-72652491D01*
X90975321Y-72562671D01*
X90887229Y-72401342D01*
X90887224Y-72401334D01*
X90715745Y-72172264D01*
X90715729Y-72172246D01*
X90513405Y-71969922D01*
X90513387Y-71969906D01*
X90284317Y-71798427D01*
X90284309Y-71798422D01*
X90033166Y-71661287D01*
X90033167Y-71661287D01*
X89925915Y-71621284D01*
X89765046Y-71561283D01*
X89765043Y-71561282D01*
X89765037Y-71561280D01*
X89485433Y-71500456D01*
X89200001Y-71480042D01*
X89199999Y-71480042D01*
X88914566Y-71500456D01*
X88634962Y-71561280D01*
X88366833Y-71661287D01*
X88115690Y-71798422D01*
X88115682Y-71798427D01*
X87886612Y-71969906D01*
X87886594Y-71969922D01*
X87684270Y-72172246D01*
X87684254Y-72172264D01*
X87512775Y-72401334D01*
X87512770Y-72401342D01*
X87375635Y-72652485D01*
X87275628Y-72920614D01*
X87214804Y-73200218D01*
X87194390Y-73485650D01*
X86700500Y-73485650D01*
X86700500Y-72310145D01*
X86720185Y-72243106D01*
X86749571Y-72211343D01*
X88056571Y-71220180D01*
X88058394Y-71218826D01*
X89630804Y-70075101D01*
X89632725Y-70073733D01*
X90940444Y-69161891D01*
X91227541Y-68961705D01*
X91229585Y-68960310D01*
X91636318Y-68688608D01*
X92846285Y-67880336D01*
X92848207Y-67879079D01*
X94486299Y-66831494D01*
X94488184Y-66830315D01*
X96146821Y-65815666D01*
X96148868Y-65814443D01*
X96148870Y-65814442D01*
X97827370Y-64833140D01*
X97829377Y-64831994D01*
X98005366Y-64733766D01*
X110104500Y-64733766D01*
X110104500Y-71221233D01*
X110138143Y-71390366D01*
X110138146Y-71390378D01*
X110204138Y-71549698D01*
X110204145Y-71549711D01*
X110299954Y-71693098D01*
X110299957Y-71693102D01*
X112363181Y-73756325D01*
X112396666Y-73817648D01*
X112399500Y-73844006D01*
X112399500Y-75352870D01*
X112399501Y-75352876D01*
X112405908Y-75412483D01*
X112456202Y-75547328D01*
X112456206Y-75547335D01*
X112542452Y-75662544D01*
X112542455Y-75662547D01*
X112657664Y-75748793D01*
X112657671Y-75748797D01*
X112702618Y-75765561D01*
X112792517Y-75799091D01*
X112852127Y-75805500D01*
X112900500Y-75805499D01*
X112967537Y-75825182D01*
X113013293Y-75877985D01*
X113024500Y-75929499D01*
X113024500Y-77951275D01*
X113058143Y-78120408D01*
X113058146Y-78120420D01*
X113124138Y-78279740D01*
X113124145Y-78279753D01*
X113219954Y-78423140D01*
X113219957Y-78423144D01*
X122376855Y-87580042D01*
X122376859Y-87580045D01*
X122520246Y-87675854D01*
X122520259Y-87675861D01*
X122673307Y-87739255D01*
X122679584Y-87741855D01*
X122848292Y-87775413D01*
X122848724Y-87775499D01*
X122848727Y-87775500D01*
X122848729Y-87775500D01*
X123021189Y-87775500D01*
X123021190Y-87775499D01*
X123190332Y-87741855D01*
X123349663Y-87675858D01*
X123493057Y-87580045D01*
X123615003Y-87458099D01*
X123710816Y-87314705D01*
X123776813Y-87155374D01*
X123810458Y-86986229D01*
X123810458Y-86813771D01*
X123810458Y-86813768D01*
X123810457Y-86813766D01*
X123802673Y-86774632D01*
X123776813Y-86644626D01*
X123757425Y-86597819D01*
X123710819Y-86485301D01*
X123710812Y-86485288D01*
X123615003Y-86341901D01*
X123615000Y-86341897D01*
X115511780Y-78238678D01*
X115478295Y-78177355D01*
X115483279Y-78107663D01*
X115505979Y-78072346D01*
X115504939Y-78071539D01*
X115509722Y-78065372D01*
X115592031Y-77926195D01*
X115592033Y-77926190D01*
X115629182Y-77798322D01*
X116000001Y-77798322D01*
X116010144Y-77897607D01*
X116063452Y-78058481D01*
X116063457Y-78058492D01*
X116152424Y-78202728D01*
X116152427Y-78202732D01*
X116272267Y-78322572D01*
X116272271Y-78322575D01*
X116416507Y-78411542D01*
X116416518Y-78411547D01*
X116577393Y-78464855D01*
X116676683Y-78474999D01*
X116700000Y-78474998D01*
X116700000Y-77750000D01*
X116000001Y-77750000D01*
X116000001Y-77798322D01*
X115629182Y-77798322D01*
X115637144Y-77770918D01*
X115637145Y-77770912D01*
X115638790Y-77750000D01*
X115074464Y-77750000D01*
X115007425Y-77730315D01*
X114986783Y-77713681D01*
X114811819Y-77538717D01*
X114778334Y-77477394D01*
X114775500Y-77451036D01*
X114775500Y-76695494D01*
X115110000Y-76695494D01*
X115110000Y-77250000D01*
X115638790Y-77250000D01*
X115637145Y-77229089D01*
X115629181Y-77201677D01*
X116000000Y-77201677D01*
X116000000Y-77250000D01*
X116700000Y-77250000D01*
X116700000Y-76524999D01*
X116676693Y-76525000D01*
X116676674Y-76525001D01*
X116577392Y-76535144D01*
X116416518Y-76588452D01*
X116416507Y-76588457D01*
X116272271Y-76677424D01*
X116272267Y-76677427D01*
X116152427Y-76797267D01*
X116152424Y-76797271D01*
X116063457Y-76941507D01*
X116063452Y-76941518D01*
X116010144Y-77102393D01*
X116000000Y-77201677D01*
X115629181Y-77201677D01*
X115592031Y-77073804D01*
X115509721Y-76934625D01*
X115509714Y-76934616D01*
X115395383Y-76820285D01*
X115395374Y-76820278D01*
X115256193Y-76737967D01*
X115256190Y-76737965D01*
X115110001Y-76695493D01*
X115110000Y-76695494D01*
X114775500Y-76695494D01*
X114775500Y-75929499D01*
X114795185Y-75862460D01*
X114847989Y-75816705D01*
X114899500Y-75805499D01*
X114947871Y-75805499D01*
X114947872Y-75805499D01*
X115007483Y-75799091D01*
X115142331Y-75748796D01*
X115257546Y-75662546D01*
X115343796Y-75547331D01*
X115394091Y-75412483D01*
X115400500Y-75352873D01*
X115400499Y-72757135D01*
X116999500Y-72757135D01*
X116999500Y-75352870D01*
X116999501Y-75352876D01*
X117005908Y-75412483D01*
X117056202Y-75547328D01*
X117056206Y-75547335D01*
X117142452Y-75662544D01*
X117142455Y-75662547D01*
X117257664Y-75748793D01*
X117257671Y-75748797D01*
X117302618Y-75765561D01*
X117392517Y-75799091D01*
X117452127Y-75805500D01*
X117500500Y-75805499D01*
X117567537Y-75825182D01*
X117613293Y-75877985D01*
X117624500Y-75929499D01*
X117624500Y-76463461D01*
X117604815Y-76530500D01*
X117552011Y-76576255D01*
X117482853Y-76586199D01*
X117461496Y-76581167D01*
X117322607Y-76535144D01*
X117223322Y-76525000D01*
X117200000Y-76525000D01*
X117200000Y-78474999D01*
X117223308Y-78474999D01*
X117223322Y-78474998D01*
X117322607Y-78464855D01*
X117461496Y-78418832D01*
X117531324Y-78416430D01*
X117591366Y-78452162D01*
X117622559Y-78514682D01*
X117624500Y-78536538D01*
X117624500Y-79616233D01*
X117658143Y-79785366D01*
X117658146Y-79785378D01*
X117724138Y-79944698D01*
X117724145Y-79944711D01*
X117819954Y-80088098D01*
X117819957Y-80088102D01*
X122271897Y-84540042D01*
X122271905Y-84540048D01*
X122415293Y-84635857D01*
X122461961Y-84655187D01*
X122574626Y-84701855D01*
X122743766Y-84735499D01*
X122743769Y-84735500D01*
X122743771Y-84735500D01*
X122916231Y-84735500D01*
X122916232Y-84735499D01*
X123085374Y-84701855D01*
X123244705Y-84635858D01*
X123388099Y-84540045D01*
X123510045Y-84418099D01*
X123605858Y-84274705D01*
X123671855Y-84115374D01*
X123705500Y-83946229D01*
X123705500Y-83773771D01*
X123705500Y-83773768D01*
X123705499Y-83773766D01*
X123693847Y-83715186D01*
X123671855Y-83604626D01*
X123605858Y-83445296D01*
X123605857Y-83445294D01*
X123605857Y-83445293D01*
X123510048Y-83301905D01*
X123510042Y-83301897D01*
X119411819Y-79203674D01*
X119378334Y-79142351D01*
X119375500Y-79115993D01*
X119375500Y-78110855D01*
X119385487Y-78065802D01*
X119384731Y-78065552D01*
X119387001Y-78058698D01*
X119387003Y-78058697D01*
X119440349Y-77897708D01*
X119450500Y-77798345D01*
X119450499Y-77201656D01*
X119440349Y-77102292D01*
X119430909Y-77073804D01*
X119384732Y-76934447D01*
X119385487Y-76934196D01*
X119375500Y-76889143D01*
X119375500Y-75929499D01*
X119395185Y-75862460D01*
X119447989Y-75816705D01*
X119499500Y-75805499D01*
X119547871Y-75805499D01*
X119547872Y-75805499D01*
X119607483Y-75799091D01*
X119742331Y-75748796D01*
X119857546Y-75662546D01*
X119943796Y-75547331D01*
X119994091Y-75412483D01*
X120000500Y-75352873D01*
X120000499Y-72757128D01*
X119994091Y-72697517D01*
X119978083Y-72654598D01*
X119943797Y-72562671D01*
X119943793Y-72562664D01*
X119857547Y-72447455D01*
X119857544Y-72447452D01*
X119742335Y-72361206D01*
X119742328Y-72361202D01*
X119607482Y-72310908D01*
X119607483Y-72310908D01*
X119547883Y-72304501D01*
X119547881Y-72304500D01*
X119547873Y-72304500D01*
X119547864Y-72304500D01*
X117452129Y-72304500D01*
X117452123Y-72304501D01*
X117392516Y-72310908D01*
X117257671Y-72361202D01*
X117257664Y-72361206D01*
X117142455Y-72447452D01*
X117142452Y-72447455D01*
X117056206Y-72562664D01*
X117056202Y-72562671D01*
X117005908Y-72697517D01*
X116999501Y-72757116D01*
X116999501Y-72757123D01*
X116999500Y-72757135D01*
X115400499Y-72757135D01*
X115400499Y-72757128D01*
X115394091Y-72697517D01*
X115378083Y-72654598D01*
X115343797Y-72562671D01*
X115343793Y-72562664D01*
X115257547Y-72447455D01*
X115257544Y-72447452D01*
X115142335Y-72361206D01*
X115142328Y-72361202D01*
X115007482Y-72310908D01*
X115007483Y-72310908D01*
X114947883Y-72304501D01*
X114947881Y-72304500D01*
X114947873Y-72304500D01*
X114947865Y-72304500D01*
X113439006Y-72304500D01*
X113371967Y-72284815D01*
X113351325Y-72268181D01*
X111935988Y-70852844D01*
X112700000Y-70852844D01*
X112706401Y-70912372D01*
X112706403Y-70912379D01*
X112756645Y-71047086D01*
X112756649Y-71047093D01*
X112842809Y-71162187D01*
X112842812Y-71162190D01*
X112957906Y-71248350D01*
X112957913Y-71248354D01*
X113092620Y-71298596D01*
X113092627Y-71298598D01*
X113152155Y-71304999D01*
X113152172Y-71305000D01*
X115950000Y-71305000D01*
X116450000Y-71305000D01*
X119247828Y-71305000D01*
X119247844Y-71304999D01*
X119307372Y-71298598D01*
X119307379Y-71298596D01*
X119442086Y-71248354D01*
X119442093Y-71248350D01*
X119557187Y-71162190D01*
X119557190Y-71162187D01*
X119643350Y-71047093D01*
X119643354Y-71047086D01*
X119693596Y-70912379D01*
X119693598Y-70912372D01*
X119699999Y-70852844D01*
X119700000Y-70852827D01*
X119700000Y-68055000D01*
X116450000Y-68055000D01*
X116450000Y-71305000D01*
X115950000Y-71305000D01*
X115950000Y-68055000D01*
X112700000Y-68055000D01*
X112700000Y-70852844D01*
X111935988Y-70852844D01*
X111891819Y-70808675D01*
X111858334Y-70747352D01*
X111855500Y-70720994D01*
X111855500Y-65234006D01*
X111875185Y-65166967D01*
X111891819Y-65146325D01*
X112206191Y-64831953D01*
X112520983Y-64517160D01*
X112582304Y-64483677D01*
X112651995Y-64488661D01*
X112707929Y-64530532D01*
X112732346Y-64595997D01*
X112724844Y-64648175D01*
X112706404Y-64697616D01*
X112706401Y-64697627D01*
X112700000Y-64757155D01*
X112700000Y-67555000D01*
X115950000Y-67555000D01*
X116450000Y-67555000D01*
X119700000Y-67555000D01*
X119700000Y-64757172D01*
X119699999Y-64757155D01*
X119693598Y-64697627D01*
X119693596Y-64697620D01*
X119643354Y-64562913D01*
X119643350Y-64562906D01*
X119557190Y-64447812D01*
X119557187Y-64447809D01*
X119442093Y-64361649D01*
X119442086Y-64361645D01*
X119307379Y-64311403D01*
X119307372Y-64311401D01*
X119247844Y-64305000D01*
X116450000Y-64305000D01*
X116450000Y-67555000D01*
X115950000Y-67555000D01*
X115950000Y-64305000D01*
X113152155Y-64305000D01*
X113092627Y-64311401D01*
X113092616Y-64311404D01*
X113043175Y-64329844D01*
X112973483Y-64334828D01*
X112912160Y-64301342D01*
X112878676Y-64240018D01*
X112883662Y-64170327D01*
X112912160Y-64125983D01*
X117558144Y-59480000D01*
X129195496Y-59480000D01*
X129237968Y-59626195D01*
X129320278Y-59765374D01*
X129320285Y-59765383D01*
X129434616Y-59879714D01*
X129434625Y-59879721D01*
X129573804Y-59962031D01*
X129729089Y-60007145D01*
X129750000Y-60008789D01*
X130250000Y-60008789D01*
X130270910Y-60007145D01*
X130426195Y-59962031D01*
X130565374Y-59879721D01*
X130565383Y-59879714D01*
X130679714Y-59765383D01*
X130679721Y-59765374D01*
X130762031Y-59626195D01*
X130804504Y-59480000D01*
X130250000Y-59480000D01*
X130250000Y-60008789D01*
X129750000Y-60008789D01*
X129750000Y-59480000D01*
X129195496Y-59480000D01*
X117558144Y-59480000D01*
X117856325Y-59181819D01*
X117917648Y-59148334D01*
X117944006Y-59145500D01*
X130086231Y-59145500D01*
X130086232Y-59145499D01*
X130255374Y-59111855D01*
X130412735Y-59046674D01*
X130414698Y-59045861D01*
X130414698Y-59045860D01*
X130414705Y-59045858D01*
X130481993Y-59000897D01*
X130548669Y-58980020D01*
X130550883Y-58980000D01*
X130804504Y-58980000D01*
X130762748Y-58836274D01*
X130762948Y-58766404D01*
X130794139Y-58714004D01*
X131096327Y-58411816D01*
X131157648Y-58378334D01*
X131184006Y-58375500D01*
X133984952Y-58375500D01*
X134051991Y-58395185D01*
X134072628Y-58411814D01*
X134116981Y-58456167D01*
X134160862Y-58500048D01*
X134192072Y-58521901D01*
X134347266Y-58630568D01*
X134362975Y-58637893D01*
X134415414Y-58684064D01*
X134434567Y-58751257D01*
X134414352Y-58818138D01*
X134362979Y-58862656D01*
X134347514Y-58869867D01*
X134347512Y-58869868D01*
X134274526Y-58920973D01*
X134274526Y-58920974D01*
X134953553Y-59600000D01*
X134947339Y-59600000D01*
X134845606Y-59627259D01*
X134754394Y-59679920D01*
X134679920Y-59754394D01*
X134627259Y-59845606D01*
X134600000Y-59947339D01*
X134600000Y-59953552D01*
X133920974Y-59274526D01*
X133920973Y-59274526D01*
X133869868Y-59347512D01*
X133869866Y-59347516D01*
X133773734Y-59553673D01*
X133773730Y-59553682D01*
X133714860Y-59773389D01*
X133714858Y-59773400D01*
X133695034Y-59999997D01*
X133695034Y-60000002D01*
X133714858Y-60226599D01*
X133714860Y-60226610D01*
X133773730Y-60446317D01*
X133773735Y-60446331D01*
X133869863Y-60652478D01*
X133920974Y-60725472D01*
X134600000Y-60046446D01*
X134600000Y-60052661D01*
X134627259Y-60154394D01*
X134679920Y-60245606D01*
X134754394Y-60320080D01*
X134845606Y-60372741D01*
X134947339Y-60400000D01*
X134953553Y-60400000D01*
X134274526Y-61079025D01*
X134347513Y-61130132D01*
X134347521Y-61130136D01*
X134553668Y-61226264D01*
X134553682Y-61226269D01*
X134773389Y-61285139D01*
X134773400Y-61285141D01*
X134999998Y-61304966D01*
X135000002Y-61304966D01*
X135226599Y-61285141D01*
X135226610Y-61285139D01*
X135446317Y-61226269D01*
X135446331Y-61226264D01*
X135652478Y-61130136D01*
X135725471Y-61079024D01*
X135046447Y-60400000D01*
X135052661Y-60400000D01*
X135154394Y-60372741D01*
X135245606Y-60320080D01*
X135320080Y-60245606D01*
X135372741Y-60154394D01*
X135400000Y-60052661D01*
X135400000Y-60046447D01*
X136079024Y-60725471D01*
X136130136Y-60652478D01*
X136226264Y-60446331D01*
X136226269Y-60446317D01*
X136285139Y-60226610D01*
X136285141Y-60226599D01*
X136304966Y-60000002D01*
X136304966Y-59999997D01*
X136285141Y-59773400D01*
X136285139Y-59773389D01*
X136226269Y-59553682D01*
X136226264Y-59553668D01*
X136130136Y-59347521D01*
X136130132Y-59347513D01*
X136079025Y-59274526D01*
X135400000Y-59953551D01*
X135400000Y-59947339D01*
X135372741Y-59845606D01*
X135320080Y-59754394D01*
X135245606Y-59679920D01*
X135154394Y-59627259D01*
X135052661Y-59600000D01*
X135046448Y-59600000D01*
X135725472Y-58920974D01*
X135652480Y-58869864D01*
X135637024Y-58862657D01*
X135584585Y-58816484D01*
X135565433Y-58749290D01*
X135585649Y-58682409D01*
X135637023Y-58637893D01*
X135652734Y-58630568D01*
X135839139Y-58500047D01*
X135927368Y-58411817D01*
X135988689Y-58378334D01*
X136015048Y-58375500D01*
X140929236Y-58375500D01*
X140996275Y-58395185D01*
X141042030Y-58447989D01*
X141045418Y-58456167D01*
X141096202Y-58592328D01*
X141096206Y-58592335D01*
X141182452Y-58707544D01*
X141182455Y-58707547D01*
X141297664Y-58793793D01*
X141297671Y-58793797D01*
X141429081Y-58842810D01*
X141485015Y-58884681D01*
X141509432Y-58950145D01*
X141494580Y-59018418D01*
X141473430Y-59046673D01*
X141351503Y-59168600D01*
X141215965Y-59362169D01*
X141215964Y-59362171D01*
X141116098Y-59576335D01*
X141116094Y-59576344D01*
X141054938Y-59804586D01*
X141054936Y-59804596D01*
X141034341Y-60039999D01*
X141034341Y-60040000D01*
X141054936Y-60275403D01*
X141054938Y-60275413D01*
X141116094Y-60503655D01*
X141116096Y-60503659D01*
X141116097Y-60503663D01*
X141160135Y-60598102D01*
X141215965Y-60717830D01*
X141215967Y-60717834D01*
X141351501Y-60911395D01*
X141351506Y-60911402D01*
X141518597Y-61078493D01*
X141518603Y-61078498D01*
X141704158Y-61208425D01*
X141747783Y-61263002D01*
X141754977Y-61332500D01*
X141723454Y-61394855D01*
X141704158Y-61411575D01*
X141518597Y-61541505D01*
X141351505Y-61708597D01*
X141215965Y-61902169D01*
X141215964Y-61902171D01*
X141116098Y-62116335D01*
X141116094Y-62116344D01*
X141054938Y-62344586D01*
X141054936Y-62344596D01*
X141034341Y-62579999D01*
X141034341Y-62580000D01*
X141054936Y-62815403D01*
X141054938Y-62815413D01*
X141116094Y-63043655D01*
X141116096Y-63043659D01*
X141116097Y-63043663D01*
X141215965Y-63257830D01*
X141215967Y-63257834D01*
X141351501Y-63451395D01*
X141351506Y-63451402D01*
X141518597Y-63618493D01*
X141518603Y-63618498D01*
X141704158Y-63748425D01*
X141747783Y-63803002D01*
X141754977Y-63872500D01*
X141723454Y-63934855D01*
X141704158Y-63951575D01*
X141518597Y-64081505D01*
X141351506Y-64248596D01*
X141303874Y-64316623D01*
X141249297Y-64360248D01*
X141202299Y-64369500D01*
X139746076Y-64369500D01*
X139717242Y-64375234D01*
X139717243Y-64375235D01*
X139601093Y-64398339D01*
X139601083Y-64398342D01*
X139521081Y-64431479D01*
X139521082Y-64431480D01*
X139464505Y-64454915D01*
X139382372Y-64509795D01*
X139341585Y-64537047D01*
X139341581Y-64537050D01*
X129467045Y-74411586D01*
X129430727Y-74465944D01*
X129430725Y-74465947D01*
X129384919Y-74534499D01*
X129384912Y-74534511D01*
X129328343Y-74671082D01*
X129328340Y-74671092D01*
X129299500Y-74816079D01*
X129299500Y-89617932D01*
X129294575Y-89652530D01*
X129286451Y-89680490D01*
X129255057Y-89733573D01*
X128677049Y-90311581D01*
X128627812Y-90385271D01*
X128594921Y-90434496D01*
X128594914Y-90434508D01*
X128538342Y-90571086D01*
X128538340Y-90571092D01*
X128509500Y-90716079D01*
X128509500Y-95279699D01*
X128489815Y-95346738D01*
X128437011Y-95392493D01*
X128424507Y-95397403D01*
X128393592Y-95407648D01*
X128340668Y-95425185D01*
X128340663Y-95425187D01*
X128191342Y-95517289D01*
X128067289Y-95641342D01*
X127975187Y-95790663D01*
X127975185Y-95790668D01*
X127957192Y-95844968D01*
X127920001Y-95957203D01*
X127920001Y-95957204D01*
X127920000Y-95957204D01*
X127909500Y-96059983D01*
X127909500Y-97660001D01*
X127909501Y-97660018D01*
X127920000Y-97762796D01*
X127920001Y-97762799D01*
X127965774Y-97900931D01*
X127975186Y-97929334D01*
X128067288Y-98078656D01*
X128191344Y-98202712D01*
X128340666Y-98294814D01*
X128507203Y-98349999D01*
X128609991Y-98360500D01*
X129910008Y-98360499D01*
X130012797Y-98349999D01*
X130179334Y-98294814D01*
X130328656Y-98202712D01*
X130452712Y-98078656D01*
X130544814Y-97929334D01*
X130544814Y-97929331D01*
X130548178Y-97923879D01*
X130600126Y-97877154D01*
X130669088Y-97865931D01*
X130733170Y-97893774D01*
X130741398Y-97901294D01*
X130880213Y-98040109D01*
X131052179Y-98165048D01*
X131052181Y-98165049D01*
X131052184Y-98165051D01*
X131241588Y-98261557D01*
X131443757Y-98327246D01*
X131653713Y-98360500D01*
X131653714Y-98360500D01*
X131866286Y-98360500D01*
X131866287Y-98360500D01*
X132076243Y-98327246D01*
X132278412Y-98261557D01*
X132467816Y-98165051D01*
X132519511Y-98127493D01*
X132639786Y-98040109D01*
X132639788Y-98040106D01*
X132639792Y-98040104D01*
X132790104Y-97889792D01*
X132790106Y-97889788D01*
X132790109Y-97889786D01*
X132915048Y-97717820D01*
X132915047Y-97717820D01*
X132915051Y-97717816D01*
X133011557Y-97528412D01*
X133077246Y-97326243D01*
X133110500Y-97116287D01*
X133110500Y-96603713D01*
X133077246Y-96393757D01*
X133011557Y-96191588D01*
X132915051Y-96002184D01*
X132915049Y-96002181D01*
X132915048Y-96002179D01*
X132790109Y-95830213D01*
X132639794Y-95679898D01*
X132639788Y-95679893D01*
X132561615Y-95623097D01*
X132518949Y-95567767D01*
X132510500Y-95522779D01*
X132510500Y-90676079D01*
X132481659Y-90531092D01*
X132481658Y-90531091D01*
X132481658Y-90531087D01*
X132481656Y-90531082D01*
X132425087Y-90394511D01*
X132425080Y-90394498D01*
X132342952Y-90271585D01*
X132342951Y-90271584D01*
X132238416Y-90167049D01*
X132043719Y-89972352D01*
X131804941Y-89733573D01*
X131773546Y-89680487D01*
X131765422Y-89652525D01*
X131760500Y-89617934D01*
X131760500Y-75822230D01*
X131780185Y-75755191D01*
X131796819Y-75734549D01*
X139084549Y-68446819D01*
X139145872Y-68413334D01*
X139172230Y-68410500D01*
X141202299Y-68410500D01*
X141269338Y-68430185D01*
X141303873Y-68463376D01*
X141351505Y-68531401D01*
X141518597Y-68698493D01*
X141518603Y-68698498D01*
X141704594Y-68828730D01*
X141748219Y-68883307D01*
X141755413Y-68952805D01*
X141723890Y-69015160D01*
X141704595Y-69031880D01*
X141518922Y-69161890D01*
X141518920Y-69161891D01*
X141351891Y-69328920D01*
X141351886Y-69328926D01*
X141216400Y-69522420D01*
X141216399Y-69522422D01*
X141116570Y-69736507D01*
X141116567Y-69736513D01*
X141059364Y-69949999D01*
X141059364Y-69950000D01*
X141956988Y-69950000D01*
X141924075Y-70007007D01*
X141890000Y-70134174D01*
X141890000Y-70265826D01*
X141924075Y-70392993D01*
X141956988Y-70450000D01*
X141059364Y-70450000D01*
X141116567Y-70663486D01*
X141116570Y-70663492D01*
X141216399Y-70877578D01*
X141351894Y-71071082D01*
X141518917Y-71238105D01*
X141712421Y-71373600D01*
X141926507Y-71473429D01*
X141926516Y-71473433D01*
X142140000Y-71530634D01*
X142140000Y-70633012D01*
X142197007Y-70665925D01*
X142324174Y-70700000D01*
X142455826Y-70700000D01*
X142582993Y-70665925D01*
X142640000Y-70633012D01*
X142640000Y-71530633D01*
X142853483Y-71473433D01*
X142853492Y-71473429D01*
X143067578Y-71373600D01*
X143261082Y-71238105D01*
X143428105Y-71071082D01*
X143563600Y-70877578D01*
X143663429Y-70663492D01*
X143663432Y-70663486D01*
X143720636Y-70450000D01*
X142823012Y-70450000D01*
X142855925Y-70392993D01*
X142890000Y-70265826D01*
X142890000Y-70134174D01*
X142855925Y-70007007D01*
X142823012Y-69950000D01*
X143720636Y-69950000D01*
X143720635Y-69949999D01*
X143663432Y-69736513D01*
X143663429Y-69736507D01*
X143563600Y-69522422D01*
X143563599Y-69522420D01*
X143428113Y-69328926D01*
X143428108Y-69328920D01*
X143261078Y-69161890D01*
X143075405Y-69031879D01*
X143031780Y-68977302D01*
X143024588Y-68907804D01*
X143056110Y-68845449D01*
X143075406Y-68828730D01*
X143075842Y-68828425D01*
X143261401Y-68698495D01*
X143428495Y-68531401D01*
X143564035Y-68337830D01*
X143663903Y-68123663D01*
X143725063Y-67895408D01*
X143745659Y-67660000D01*
X143725063Y-67424592D01*
X143663903Y-67196337D01*
X143564035Y-66982171D01*
X143513151Y-66909500D01*
X143428494Y-66788597D01*
X143261402Y-66621506D01*
X143261396Y-66621501D01*
X143075842Y-66491575D01*
X143032217Y-66436998D01*
X143025023Y-66367500D01*
X143056546Y-66305145D01*
X143075842Y-66288425D01*
X143098026Y-66272891D01*
X143261401Y-66158495D01*
X143428495Y-65991401D01*
X143564035Y-65797830D01*
X143663903Y-65583663D01*
X143725063Y-65355408D01*
X143745659Y-65120000D01*
X143725063Y-64884592D01*
X143678626Y-64711285D01*
X143663905Y-64656344D01*
X143663904Y-64656343D01*
X143663903Y-64656337D01*
X143564035Y-64442171D01*
X143556550Y-64431480D01*
X143428494Y-64248597D01*
X143261402Y-64081506D01*
X143261396Y-64081501D01*
X143075842Y-63951575D01*
X143032217Y-63896998D01*
X143025023Y-63827500D01*
X143056546Y-63765145D01*
X143075842Y-63748425D01*
X143098026Y-63732891D01*
X143261401Y-63618495D01*
X143428495Y-63451401D01*
X143564035Y-63257830D01*
X143663903Y-63043663D01*
X143725063Y-62815408D01*
X143745659Y-62580000D01*
X143725063Y-62344592D01*
X143663903Y-62116337D01*
X143564035Y-61902171D01*
X143428495Y-61708599D01*
X143428494Y-61708597D01*
X143261402Y-61541506D01*
X143261396Y-61541501D01*
X143075842Y-61411575D01*
X143032217Y-61356998D01*
X143025023Y-61287500D01*
X143056546Y-61225145D01*
X143075842Y-61208425D01*
X143187650Y-61130136D01*
X143261401Y-61078495D01*
X143428495Y-60911401D01*
X143564035Y-60717830D01*
X143663903Y-60503663D01*
X143725063Y-60275408D01*
X143745659Y-60040000D01*
X143742784Y-60007145D01*
X143737552Y-59947339D01*
X143725063Y-59804592D01*
X143663903Y-59576337D01*
X143564035Y-59362171D01*
X143553771Y-59347513D01*
X143428496Y-59168600D01*
X143371749Y-59111853D01*
X143306567Y-59046671D01*
X143273084Y-58985351D01*
X143278068Y-58915659D01*
X143319939Y-58859725D01*
X143350915Y-58842810D01*
X143482331Y-58793796D01*
X143597546Y-58707546D01*
X143683796Y-58592331D01*
X143734091Y-58457483D01*
X143740500Y-58397873D01*
X143740499Y-56602128D01*
X143735112Y-56552011D01*
X143734091Y-56542516D01*
X143683797Y-56407671D01*
X143683793Y-56407664D01*
X143597547Y-56292455D01*
X143597544Y-56292452D01*
X143482335Y-56206206D01*
X143482328Y-56206202D01*
X143347482Y-56155908D01*
X143347483Y-56155908D01*
X143287883Y-56149501D01*
X143287881Y-56149500D01*
X143287873Y-56149500D01*
X143287864Y-56149500D01*
X141492129Y-56149500D01*
X141492123Y-56149501D01*
X141432516Y-56155908D01*
X141297671Y-56206202D01*
X141297664Y-56206206D01*
X141182455Y-56292452D01*
X141182452Y-56292455D01*
X141096206Y-56407664D01*
X141096202Y-56407671D01*
X141045418Y-56543833D01*
X141003547Y-56599767D01*
X140938083Y-56624184D01*
X140929236Y-56624500D01*
X136015048Y-56624500D01*
X135948009Y-56604815D01*
X135927371Y-56588185D01*
X135839139Y-56499953D01*
X135839138Y-56499952D01*
X135839137Y-56499951D01*
X135652734Y-56369432D01*
X135652732Y-56369431D01*
X135446497Y-56273261D01*
X135446488Y-56273258D01*
X135226697Y-56214366D01*
X135226693Y-56214365D01*
X135226692Y-56214365D01*
X135226691Y-56214364D01*
X135226686Y-56214364D01*
X135000002Y-56194532D01*
X134999998Y-56194532D01*
X134773313Y-56214364D01*
X134773302Y-56214366D01*
X134553511Y-56273258D01*
X134553502Y-56273261D01*
X134347267Y-56369431D01*
X134347265Y-56369432D01*
X134160862Y-56499951D01*
X134118298Y-56542516D01*
X134072631Y-56588182D01*
X134011311Y-56621666D01*
X133984952Y-56624500D01*
X130683768Y-56624500D01*
X130514633Y-56658143D01*
X130514621Y-56658146D01*
X130355301Y-56724138D01*
X130355288Y-56724145D01*
X130211901Y-56819954D01*
X130211897Y-56819957D01*
X129673675Y-57358181D01*
X129612352Y-57391666D01*
X129585994Y-57394500D01*
X117443768Y-57394500D01*
X117274633Y-57428143D01*
X117274621Y-57428146D01*
X117115301Y-57494138D01*
X117115288Y-57494145D01*
X116971901Y-57589954D01*
X116971897Y-57589957D01*
X112027598Y-62534258D01*
X110421901Y-64139955D01*
X110360927Y-64200929D01*
X110299953Y-64261902D01*
X110204145Y-64405288D01*
X110204138Y-64405301D01*
X110138146Y-64564621D01*
X110138143Y-64564633D01*
X110104500Y-64733766D01*
X98005366Y-64733766D01*
X99527137Y-63884392D01*
X99529180Y-63883278D01*
X101245526Y-62969754D01*
X101247676Y-62968637D01*
X102981856Y-62089585D01*
X102983981Y-62088535D01*
X104735411Y-61244256D01*
X104737511Y-61243269D01*
X106505501Y-60434096D01*
X106507560Y-60433178D01*
X108291361Y-59659455D01*
X108293558Y-59658529D01*
X110092303Y-58920628D01*
X110094538Y-58919737D01*
X111907795Y-58217837D01*
X111909916Y-58217041D01*
X113736855Y-57551467D01*
X113738972Y-57550719D01*
X115578776Y-56921768D01*
X115580957Y-56921046D01*
X117432959Y-56328943D01*
X117435255Y-56328234D01*
X119298638Y-55773243D01*
X119300900Y-55772593D01*
X121175069Y-55254887D01*
X121177244Y-55254309D01*
X123061374Y-54774120D01*
X123063688Y-54773555D01*
X124956950Y-54331091D01*
X124959170Y-54330595D01*
X126861027Y-53925984D01*
X126863238Y-53925536D01*
X128772716Y-53558986D01*
X128775113Y-53558551D01*
X130691430Y-53230209D01*
X130693724Y-53229839D01*
X132616383Y-52939791D01*
X132618626Y-52939476D01*
X134546555Y-52687885D01*
X134548956Y-52687596D01*
X136481498Y-52474544D01*
X136483868Y-52474306D01*
X138420378Y-52299866D01*
X138422684Y-52299682D01*
X140362177Y-52163942D01*
X140364575Y-52163798D01*
X142306531Y-52066794D01*
X142308847Y-52066703D01*
X144252268Y-52008489D01*
X144254553Y-52008442D01*
X146198798Y-51989035D01*
X146201202Y-51989035D01*
X148145445Y-52008442D01*
G37*
%TD.AperFunction*%
%TA.AperFunction,Conductor*%
G36*
X150949033Y-93640185D02*
G01*
X150994788Y-93692989D01*
X151004732Y-93762147D01*
X150975707Y-93825703D01*
X150969675Y-93832181D01*
X148860675Y-95941180D01*
X148799352Y-95974665D01*
X148729660Y-95969681D01*
X148673727Y-95927809D01*
X148649310Y-95862345D01*
X148660612Y-95801094D01*
X148743430Y-95623492D01*
X148743433Y-95623483D01*
X148804567Y-95395326D01*
X148804569Y-95395315D01*
X148825157Y-95160001D01*
X148825157Y-95159998D01*
X148804569Y-94924684D01*
X148804567Y-94924673D01*
X148743433Y-94696516D01*
X148743429Y-94696507D01*
X148643600Y-94482423D01*
X148643599Y-94482421D01*
X148584925Y-94398626D01*
X148584925Y-94398625D01*
X147952962Y-95030589D01*
X147935925Y-94967007D01*
X147870099Y-94852993D01*
X147777007Y-94759901D01*
X147662993Y-94694075D01*
X147599410Y-94677037D01*
X148231373Y-94045073D01*
X148231373Y-94045072D01*
X148155405Y-93991880D01*
X148111780Y-93937304D01*
X148104586Y-93867805D01*
X148136108Y-93805451D01*
X148155399Y-93788734D01*
X148341401Y-93658495D01*
X148343077Y-93656819D01*
X148343995Y-93656317D01*
X148345544Y-93655018D01*
X148345805Y-93655329D01*
X148404400Y-93623334D01*
X148430758Y-93620500D01*
X150881994Y-93620500D01*
X150949033Y-93640185D01*
G37*
%TD.AperFunction*%
%TA.AperFunction,Conductor*%
G36*
X146044925Y-93381373D02*
G01*
X146098119Y-93305405D01*
X146152696Y-93261781D01*
X146222195Y-93254588D01*
X146284549Y-93286110D01*
X146301269Y-93305405D01*
X146431505Y-93491401D01*
X146598599Y-93658495D01*
X146784158Y-93788425D01*
X146784594Y-93788730D01*
X146828218Y-93843307D01*
X146835411Y-93912806D01*
X146803889Y-93975160D01*
X146784593Y-93991880D01*
X146708626Y-94045072D01*
X146708625Y-94045072D01*
X147340590Y-94677037D01*
X147277007Y-94694075D01*
X147162993Y-94759901D01*
X147069901Y-94852993D01*
X147004075Y-94967007D01*
X146987037Y-95030589D01*
X146355073Y-94398625D01*
X146355072Y-94398626D01*
X146301574Y-94475030D01*
X146246998Y-94518655D01*
X146177499Y-94525849D01*
X146115144Y-94494326D01*
X146098424Y-94475030D01*
X146044925Y-94398626D01*
X146044925Y-94398625D01*
X145412962Y-95030589D01*
X145395925Y-94967007D01*
X145330099Y-94852993D01*
X145237007Y-94759901D01*
X145122993Y-94694075D01*
X145059410Y-94677037D01*
X145691373Y-94045073D01*
X145614969Y-93991576D01*
X145571344Y-93936999D01*
X145564150Y-93867501D01*
X145595672Y-93805146D01*
X145614968Y-93788425D01*
X145691373Y-93734925D01*
X145059409Y-93102962D01*
X145122993Y-93085925D01*
X145237007Y-93020099D01*
X145330099Y-92927007D01*
X145395925Y-92812993D01*
X145412962Y-92749409D01*
X146044925Y-93381373D01*
G37*
%TD.AperFunction*%
%TA.AperFunction,Conductor*%
G36*
X146284855Y-90746546D02*
G01*
X146301575Y-90765842D01*
X146431501Y-90951396D01*
X146431506Y-90951402D01*
X146598597Y-91118493D01*
X146598603Y-91118498D01*
X146784158Y-91248425D01*
X146827783Y-91303002D01*
X146834977Y-91372500D01*
X146803454Y-91434855D01*
X146784158Y-91451575D01*
X146598597Y-91581505D01*
X146431505Y-91748597D01*
X146301269Y-91934595D01*
X146246692Y-91978220D01*
X146177194Y-91985414D01*
X146114839Y-91953891D01*
X146098119Y-91934595D01*
X146044925Y-91858626D01*
X146044925Y-91858625D01*
X145412962Y-92490589D01*
X145395925Y-92427007D01*
X145330099Y-92312993D01*
X145237007Y-92219901D01*
X145122993Y-92154075D01*
X145059410Y-92137037D01*
X145691373Y-91505073D01*
X145691373Y-91505072D01*
X145615405Y-91451880D01*
X145571780Y-91397304D01*
X145564586Y-91327805D01*
X145596108Y-91265451D01*
X145615399Y-91248734D01*
X145801401Y-91118495D01*
X145968495Y-90951401D01*
X146098425Y-90765842D01*
X146153002Y-90722217D01*
X146222500Y-90715023D01*
X146284855Y-90746546D01*
G37*
%TD.AperFunction*%
%TD*%
M02*
