M48
; DRILL file {KiCad (5.1.9)-1} date 03/15/22 21:24:28
; FORMAT={-:-/ absolute / metric / decimal}
; #@! TF.CreationDate,2022-03-15T21:24:28+09:00
; #@! TF.GenerationSoftware,Kicad,Pcbnew,(5.1.9)-1
FMAT,2
METRIC
T1C0.900
T2C0.950
T3C1.000
T4C3.000
%
G90
G05
T1
X96.1Y-108.26
X96.1Y-110.8
X96.1Y-113.34
X98.493Y-96.232
X98.493Y-125.368
X99.465Y-93.885
X99.465Y-127.715
X100.437Y-91.539
X100.437Y-130.061
X107.25Y-81.342
X107.25Y-140.258
X109.046Y-79.546
X109.046Y-142.054
X110.842Y-77.75
X110.842Y-143.85
X121.039Y-70.937
X121.039Y-150.663
X123.385Y-69.965
X123.385Y-151.635
X125.732Y-68.993
X125.732Y-152.607
X137.76Y-66.6
X137.76Y-155.0
X140.3Y-66.6
X140.3Y-155.0
X142.84Y-66.6
X142.84Y-155.0
X154.868Y-68.993
X154.868Y-152.607
X157.215Y-69.965
X157.215Y-151.635
X159.561Y-70.937
X159.561Y-150.663
X169.928Y-77.549
X169.928Y-143.649
X171.724Y-79.345
X171.724Y-141.853
X173.52Y-81.141
X173.52Y-140.057
X180.334Y-91.338
X180.334Y-129.861
X181.306Y-93.685
X181.306Y-127.514
X182.278Y-96.031
X182.278Y-125.167
X184.67Y-108.059
X184.67Y-110.599
X184.67Y-113.139
T2
X135.5Y-139.7
X138.0Y-139.7
X140.5Y-139.7
X143.0Y-139.7
X145.5Y-139.7
T3
X132.7Y-91.7
X132.7Y-94.24
X132.7Y-96.78
X132.7Y-99.32
X132.7Y-101.86
X132.7Y-104.4
X132.7Y-106.94
X132.7Y-109.48
X132.7Y-112.02
X132.7Y-114.56
X132.7Y-117.1
X132.7Y-119.64
X132.7Y-122.18
X132.7Y-124.72
X132.7Y-127.26
X147.94Y-91.7
X147.94Y-94.24
X147.94Y-96.78
X147.94Y-99.32
X147.94Y-101.86
X147.94Y-104.4
X147.94Y-106.94
X147.94Y-109.48
X147.94Y-112.02
X147.94Y-114.56
X147.94Y-117.1
X147.94Y-119.64
X147.94Y-122.18
X147.94Y-124.72
X147.94Y-127.26
T4
X105.2Y-110.7
X116.7Y-83.6
X116.7Y-137.6
X161.676Y-83.617
X161.676Y-137.617
X176.4Y-110.9
T0
M30
