%TF.GenerationSoftware,KiCad,Pcbnew,(5.1.9)-1*%
%TF.CreationDate,2022-03-15T21:24:12+09:00*%
%TF.ProjectId,IRboard5.0,4952626f-6172-4643-952e-302e6b696361,rev?*%
%TF.SameCoordinates,Original*%
%TF.FileFunction,Copper,L2,Bot*%
%TF.FilePolarity,Positive*%
%FSLAX46Y46*%
G04 Gerber Fmt 4.6, Leading zero omitted, Abs format (unit mm)*
G04 Created by KiCad (PCBNEW (5.1.9)-1) date 2022-03-15 21:24:12*
%MOMM*%
%LPD*%
G01*
G04 APERTURE LIST*
%TA.AperFunction,ComponentPad*%
%ADD10C,1.800000*%
%TD*%
%TA.AperFunction,ComponentPad*%
%ADD11O,1.700000X1.950000*%
%TD*%
%TA.AperFunction,ComponentPad*%
%ADD12O,1.600000X1.600000*%
%TD*%
%TA.AperFunction,ComponentPad*%
%ADD13R,1.600000X1.600000*%
%TD*%
%TA.AperFunction,Conductor*%
%ADD14C,0.254000*%
%TD*%
%TA.AperFunction,Conductor*%
%ADD15C,0.100000*%
%TD*%
G04 APERTURE END LIST*
D10*
%TO.P,U9,3*%
%TO.N,3.3V*%
X159561261Y-150663459D03*
%TO.P,U9,2*%
%TO.N,GND*%
X157214607Y-151635475D03*
%TO.P,U9,1*%
%TO.N,data_D12*%
%TA.AperFunction,ComponentPad*%
G36*
G01*
X154285129Y-153552243D02*
X153787793Y-152351569D01*
G75*
G02*
X153923201Y-152024667I231155J95747D01*
G01*
X155123875Y-151527331D01*
G75*
G02*
X155450777Y-151662739I95747J-231155D01*
G01*
X155948113Y-152863413D01*
G75*
G02*
X155812705Y-153190315I-231155J-95747D01*
G01*
X154612031Y-153687651D01*
G75*
G02*
X154285129Y-153552243I-95747J231155D01*
G01*
G37*
%TD.AperFunction*%
%TD*%
%TO.P,U8,3*%
%TO.N,3.3V*%
X100436541Y-130061261D03*
%TO.P,U8,2*%
%TO.N,GND*%
X99464525Y-127714607D03*
%TO.P,U8,1*%
%TO.N,data_D8*%
%TA.AperFunction,ComponentPad*%
G36*
G01*
X97547757Y-124785129D02*
X98748431Y-124287793D01*
G75*
G02*
X99075333Y-124423201I95747J-231155D01*
G01*
X99572669Y-125623875D01*
G75*
G02*
X99437261Y-125950777I-231155J-95747D01*
G01*
X98236587Y-126448113D01*
G75*
G02*
X97909685Y-126312705I-95747J231155D01*
G01*
X97412349Y-125112031D01*
G75*
G02*
X97547757Y-124785129I231155J95747D01*
G01*
G37*
%TD.AperFunction*%
%TD*%
%TO.P,U16,3*%
%TO.N,3.3V*%
X184670233Y-108059260D03*
%TO.P,U16,2*%
%TO.N,GND*%
X184670233Y-110599260D03*
%TO.P,U16,1*%
%TO.N,data_A2*%
%TA.AperFunction,ComponentPad*%
G36*
G01*
X185320033Y-114039260D02*
X184020433Y-114039260D01*
G75*
G02*
X183770233Y-113789060I0J250200D01*
G01*
X183770233Y-112489460D01*
G75*
G02*
X184020433Y-112239260I250200J0D01*
G01*
X185320033Y-112239260D01*
G75*
G02*
X185570233Y-112489460I0J-250200D01*
G01*
X185570233Y-113789060D01*
G75*
G02*
X185320033Y-114039260I-250200J0D01*
G01*
G37*
%TD.AperFunction*%
%TD*%
%TO.P,U15,3*%
%TO.N,3.3V*%
X182277725Y-125167214D03*
%TO.P,U15,2*%
%TO.N,GND*%
X181305709Y-127513868D03*
%TO.P,U15,1*%
%TO.N,data_A1*%
%TA.AperFunction,ComponentPad*%
G36*
G01*
X180589615Y-130940682D02*
X179388941Y-130443346D01*
G75*
G02*
X179253533Y-130116444I95747J231155D01*
G01*
X179750869Y-128915770D01*
G75*
G02*
X180077771Y-128780362I231155J-95747D01*
G01*
X181278445Y-129277698D01*
G75*
G02*
X181413853Y-129604600I-95747J-231155D01*
G01*
X180916517Y-130805274D01*
G75*
G02*
X180589615Y-130940682I-231155J95747D01*
G01*
G37*
%TD.AperFunction*%
%TD*%
%TO.P,U14,1*%
%TO.N,data_A0*%
%TA.AperFunction,ComponentPad*%
G36*
G01*
X169751385Y-144745305D02*
X168832429Y-143826349D01*
G75*
G02*
X168832429Y-143472513I176918J176918D01*
G01*
X169751385Y-142553557D01*
G75*
G02*
X170105221Y-142553557I176918J-176918D01*
G01*
X171024177Y-143472513D01*
G75*
G02*
X171024177Y-143826349I-176918J-176918D01*
G01*
X170105221Y-144745305D01*
G75*
G02*
X169751385Y-144745305I-176918J176918D01*
G01*
G37*
%TD.AperFunction*%
%TO.P,U14,2*%
%TO.N,GND*%
X171724354Y-141853380D03*
%TO.P,U14,3*%
%TO.N,3.3V*%
X173520405Y-140057329D03*
%TD*%
%TO.P,U13,3*%
%TO.N,3.3V*%
X154867953Y-68992509D03*
%TO.P,U13,2*%
%TO.N,GND*%
X157214607Y-69964525D03*
%TO.P,U13,1*%
%TO.N,data_A5*%
%TA.AperFunction,ComponentPad*%
G36*
G01*
X160641421Y-70680619D02*
X160144085Y-71881293D01*
G75*
G02*
X159817183Y-72016701I-231155J95747D01*
G01*
X158616509Y-71519365D01*
G75*
G02*
X158481101Y-71192463I95747J231155D01*
G01*
X158978437Y-69991789D01*
G75*
G02*
X159305339Y-69856381I231155J-95747D01*
G01*
X160506013Y-70353717D01*
G75*
G02*
X160641421Y-70680619I-95747J-231155D01*
G01*
G37*
%TD.AperFunction*%
%TD*%
%TO.P,U12,1*%
%TO.N,data_D11*%
%TA.AperFunction,ComponentPad*%
G36*
G01*
X136860000Y-155649800D02*
X136860000Y-154350200D01*
G75*
G02*
X137110200Y-154100000I250200J0D01*
G01*
X138409800Y-154100000D01*
G75*
G02*
X138660000Y-154350200I0J-250200D01*
G01*
X138660000Y-155649800D01*
G75*
G02*
X138409800Y-155900000I-250200J0D01*
G01*
X137110200Y-155900000D01*
G75*
G02*
X136860000Y-155649800I0J250200D01*
G01*
G37*
%TD.AperFunction*%
%TO.P,U12,2*%
%TO.N,GND*%
X140300000Y-155000000D03*
%TO.P,U12,3*%
%TO.N,3.3V*%
X142840000Y-155000000D03*
%TD*%
%TO.P,U11,1*%
%TO.N,data_D10*%
%TA.AperFunction,ComponentPad*%
G36*
G01*
X119958579Y-150919381D02*
X120455915Y-149718707D01*
G75*
G02*
X120782817Y-149583299I231155J-95747D01*
G01*
X121983491Y-150080635D01*
G75*
G02*
X122118899Y-150407537I-95747J-231155D01*
G01*
X121621563Y-151608211D01*
G75*
G02*
X121294661Y-151743619I-231155J95747D01*
G01*
X120093987Y-151246283D01*
G75*
G02*
X119958579Y-150919381I95747J231155D01*
G01*
G37*
%TD.AperFunction*%
%TO.P,U11,2*%
%TO.N,GND*%
X123385393Y-151635475D03*
%TO.P,U11,3*%
%TO.N,3.3V*%
X125732047Y-152607491D03*
%TD*%
%TO.P,U10,3*%
%TO.N,3.3V*%
X110841932Y-143850170D03*
%TO.P,U10,2*%
%TO.N,GND*%
X109045881Y-142054119D03*
%TO.P,U10,1*%
%TO.N,data_D9*%
%TA.AperFunction,ComponentPad*%
G36*
G01*
X106153956Y-140081150D02*
X107072912Y-139162194D01*
G75*
G02*
X107426748Y-139162194I176918J-176918D01*
G01*
X108345704Y-140081150D01*
G75*
G02*
X108345704Y-140434986I-176918J-176918D01*
G01*
X107426748Y-141353942D01*
G75*
G02*
X107072912Y-141353942I-176918J176918D01*
G01*
X106153956Y-140434986D01*
G75*
G02*
X106153956Y-140081150I176918J176918D01*
G01*
G37*
%TD.AperFunction*%
%TD*%
%TO.P,U7,3*%
%TO.N,3.3V*%
X96100000Y-113340000D03*
%TO.P,U7,2*%
%TO.N,GND*%
X96100000Y-110800000D03*
%TO.P,U7,1*%
%TO.N,data_D7*%
%TA.AperFunction,ComponentPad*%
G36*
G01*
X95450200Y-107360000D02*
X96749800Y-107360000D01*
G75*
G02*
X97000000Y-107610200I0J-250200D01*
G01*
X97000000Y-108909800D01*
G75*
G02*
X96749800Y-109160000I-250200J0D01*
G01*
X95450200Y-109160000D01*
G75*
G02*
X95200000Y-108909800I0J250200D01*
G01*
X95200000Y-107610200D01*
G75*
G02*
X95450200Y-107360000I250200J0D01*
G01*
G37*
%TD.AperFunction*%
%TD*%
%TO.P,U6,3*%
%TO.N,3.3V*%
X98492509Y-96232047D03*
%TO.P,U6,2*%
%TO.N,GND*%
X99464525Y-93885393D03*
%TO.P,U6,1*%
%TO.N,data_D6*%
%TA.AperFunction,ComponentPad*%
G36*
G01*
X100180619Y-90458579D02*
X101381293Y-90955915D01*
G75*
G02*
X101516701Y-91282817I-95747J-231155D01*
G01*
X101019365Y-92483491D01*
G75*
G02*
X100692463Y-92618899I-231155J95747D01*
G01*
X99491789Y-92121563D01*
G75*
G02*
X99356381Y-91794661I95747J231155D01*
G01*
X99853717Y-90593987D01*
G75*
G02*
X100180619Y-90458579I231155J-95747D01*
G01*
G37*
%TD.AperFunction*%
%TD*%
%TO.P,U5,3*%
%TO.N,3.3V*%
X107249830Y-81341932D03*
%TO.P,U5,2*%
%TO.N,GND*%
X109045881Y-79545881D03*
%TO.P,U5,1*%
%TO.N,data_D5*%
%TA.AperFunction,ComponentPad*%
G36*
G01*
X111018850Y-76653956D02*
X111937806Y-77572912D01*
G75*
G02*
X111937806Y-77926748I-176918J-176918D01*
G01*
X111018850Y-78845704D01*
G75*
G02*
X110665014Y-78845704I-176918J176918D01*
G01*
X109746058Y-77926748D01*
G75*
G02*
X109746058Y-77572912I176918J176918D01*
G01*
X110665014Y-76653956D01*
G75*
G02*
X111018850Y-76653956I176918J-176918D01*
G01*
G37*
%TD.AperFunction*%
%TD*%
%TO.P,U4,3*%
%TO.N,3.3V*%
X180333693Y-91337998D03*
%TO.P,U4,2*%
%TO.N,GND*%
X181305709Y-93684652D03*
%TO.P,U4,1*%
%TO.N,data_A3*%
%TA.AperFunction,ComponentPad*%
G36*
G01*
X183222477Y-96614130D02*
X182021803Y-97111466D01*
G75*
G02*
X181694901Y-96976058I-95747J231155D01*
G01*
X181197565Y-95775384D01*
G75*
G02*
X181332973Y-95448482I231155J95747D01*
G01*
X182533647Y-94951146D01*
G75*
G02*
X182860549Y-95086554I95747J-231155D01*
G01*
X183357885Y-96287228D01*
G75*
G02*
X183222477Y-96614130I-231155J-95747D01*
G01*
G37*
%TD.AperFunction*%
%TD*%
%TO.P,U3,3*%
%TO.N,3.3V*%
X121038739Y-70936541D03*
%TO.P,U3,2*%
%TO.N,GND*%
X123385393Y-69964525D03*
%TO.P,U3,1*%
%TO.N,data_D4*%
%TA.AperFunction,ComponentPad*%
G36*
G01*
X126314871Y-68047757D02*
X126812207Y-69248431D01*
G75*
G02*
X126676799Y-69575333I-231155J-95747D01*
G01*
X125476125Y-70072669D01*
G75*
G02*
X125149223Y-69937261I-95747J231155D01*
G01*
X124651887Y-68736587D01*
G75*
G02*
X124787295Y-68409685I231155J95747D01*
G01*
X125987969Y-67912349D01*
G75*
G02*
X126314871Y-68047757I95747J-231155D01*
G01*
G37*
%TD.AperFunction*%
%TD*%
%TO.P,U2,3*%
%TO.N,3.3V*%
X137760000Y-66600000D03*
%TO.P,U2,2*%
%TO.N,GND*%
X140300000Y-66600000D03*
%TO.P,U2,1*%
%TO.N,data_D3*%
%TA.AperFunction,ComponentPad*%
G36*
G01*
X143740000Y-65950200D02*
X143740000Y-67249800D01*
G75*
G02*
X143489800Y-67500000I-250200J0D01*
G01*
X142190200Y-67500000D01*
G75*
G02*
X141940000Y-67249800I0J250200D01*
G01*
X141940000Y-65950200D01*
G75*
G02*
X142190200Y-65700000I250200J0D01*
G01*
X143489800Y-65700000D01*
G75*
G02*
X143740000Y-65950200I0J-250200D01*
G01*
G37*
%TD.AperFunction*%
%TD*%
%TO.P,U1,3*%
%TO.N,3.3V*%
X169928303Y-77549089D03*
%TO.P,U1,2*%
%TO.N,GND*%
X171724354Y-79345140D03*
%TO.P,U1,1*%
%TO.N,data_A4*%
%TA.AperFunction,ComponentPad*%
G36*
G01*
X174616279Y-81318109D02*
X173697323Y-82237065D01*
G75*
G02*
X173343487Y-82237065I-176918J176918D01*
G01*
X172424531Y-81318109D01*
G75*
G02*
X172424531Y-80964273I176918J176918D01*
G01*
X173343487Y-80045317D01*
G75*
G02*
X173697323Y-80045317I176918J-176918D01*
G01*
X174616279Y-80964273D01*
G75*
G02*
X174616279Y-81318109I-176918J-176918D01*
G01*
G37*
%TD.AperFunction*%
%TD*%
D11*
%TO.P,J1,5*%
%TO.N,3.3V*%
X145500000Y-139700000D03*
%TO.P,J1,4*%
%TO.N,GND*%
X143000000Y-139700000D03*
%TO.P,J1,3*%
%TO.N,5V*%
X140500000Y-139700000D03*
%TO.P,J1,2*%
%TO.N,RX*%
X138000000Y-139700000D03*
%TO.P,J1,1*%
%TO.N,TX*%
%TA.AperFunction,ComponentPad*%
G36*
G01*
X134650000Y-140425000D02*
X134650000Y-138975000D01*
G75*
G02*
X134900000Y-138725000I250000J0D01*
G01*
X136100000Y-138725000D01*
G75*
G02*
X136350000Y-138975000I0J-250000D01*
G01*
X136350000Y-140425000D01*
G75*
G02*
X136100000Y-140675000I-250000J0D01*
G01*
X134900000Y-140675000D01*
G75*
G02*
X134650000Y-140425000I0J250000D01*
G01*
G37*
%TD.AperFunction*%
%TD*%
D12*
%TO.P,A1,16*%
%TO.N,Net-(A1-Pad16)*%
X147940000Y-127260000D03*
%TO.P,A1,15*%
%TO.N,data_D12*%
X132700000Y-127260000D03*
%TO.P,A1,30*%
%TO.N,Net-(A1-Pad30)*%
X147940000Y-91700000D03*
%TO.P,A1,14*%
%TO.N,data_D11*%
X132700000Y-124720000D03*
%TO.P,A1,29*%
%TO.N,GND*%
X147940000Y-94240000D03*
%TO.P,A1,13*%
%TO.N,data_D10*%
X132700000Y-122180000D03*
%TO.P,A1,28*%
%TO.N,Net-(A1-Pad28)*%
X147940000Y-96780000D03*
%TO.P,A1,12*%
%TO.N,data_D9*%
X132700000Y-119640000D03*
%TO.P,A1,27*%
%TO.N,5V*%
X147940000Y-99320000D03*
%TO.P,A1,11*%
%TO.N,data_D8*%
X132700000Y-117100000D03*
%TO.P,A1,26*%
%TO.N,Net-(A1-Pad26)*%
X147940000Y-101860000D03*
%TO.P,A1,10*%
%TO.N,data_D7*%
X132700000Y-114560000D03*
%TO.P,A1,25*%
%TO.N,Net-(A1-Pad25)*%
X147940000Y-104400000D03*
%TO.P,A1,9*%
%TO.N,data_D6*%
X132700000Y-112020000D03*
%TO.P,A1,24*%
%TO.N,data_A5*%
X147940000Y-106940000D03*
%TO.P,A1,8*%
%TO.N,data_D5*%
X132700000Y-109480000D03*
%TO.P,A1,23*%
%TO.N,data_A4*%
X147940000Y-109480000D03*
%TO.P,A1,7*%
%TO.N,data_D4*%
X132700000Y-106940000D03*
%TO.P,A1,22*%
%TO.N,data_A3*%
X147940000Y-112020000D03*
%TO.P,A1,6*%
%TO.N,data_D3*%
X132700000Y-104400000D03*
%TO.P,A1,21*%
%TO.N,data_A2*%
X147940000Y-114560000D03*
%TO.P,A1,5*%
%TO.N,Net-(A1-Pad5)*%
X132700000Y-101860000D03*
%TO.P,A1,20*%
%TO.N,data_A1*%
X147940000Y-117100000D03*
%TO.P,A1,4*%
%TO.N,Net-(A1-Pad4)*%
X132700000Y-99320000D03*
%TO.P,A1,19*%
%TO.N,data_A0*%
X147940000Y-119640000D03*
%TO.P,A1,3*%
%TO.N,Net-(A1-Pad3)*%
X132700000Y-96780000D03*
%TO.P,A1,18*%
%TO.N,Net-(A1-Pad18)*%
X147940000Y-122180000D03*
%TO.P,A1,2*%
%TO.N,RX*%
X132700000Y-94240000D03*
%TO.P,A1,17*%
%TO.N,3.3V*%
X147940000Y-124720000D03*
D13*
%TO.P,A1,1*%
%TO.N,TX*%
X132700000Y-91700000D03*
%TD*%
D14*
%TO.N,GND*%
X143753293Y-62076223D02*
X146504312Y-62349631D01*
X149235457Y-62778241D01*
X151937979Y-63360679D01*
X154603221Y-64095080D01*
X157222645Y-64979090D01*
X159787862Y-66009879D01*
X162290652Y-67184144D01*
X164723000Y-68498123D01*
X167077114Y-69947608D01*
X169345452Y-71527956D01*
X171520749Y-73234104D01*
X173596037Y-75060587D01*
X175564667Y-77001554D01*
X177420334Y-79050788D01*
X179157094Y-81201723D01*
X180769382Y-83447472D01*
X182252035Y-85780838D01*
X183600303Y-88194349D01*
X184809867Y-90680272D01*
X185876852Y-93230644D01*
X186797841Y-95837297D01*
X187569884Y-98491880D01*
X188190506Y-101185889D01*
X188657721Y-103910695D01*
X188970032Y-106657570D01*
X189126438Y-109417714D01*
X189126438Y-112182286D01*
X188970032Y-114942430D01*
X188657721Y-117689305D01*
X188190506Y-120414111D01*
X187569884Y-123108120D01*
X186797841Y-125762703D01*
X185876852Y-128369356D01*
X184809867Y-130919728D01*
X183600303Y-133405651D01*
X182252035Y-135819162D01*
X180769382Y-138152528D01*
X179157094Y-140398277D01*
X177420334Y-142549212D01*
X175564667Y-144598446D01*
X173596037Y-146539413D01*
X171520749Y-148365896D01*
X169345452Y-150072044D01*
X167077114Y-151652392D01*
X164723000Y-153101877D01*
X162290652Y-154415856D01*
X159787862Y-155590121D01*
X157222645Y-156620910D01*
X154603221Y-157504920D01*
X151937979Y-158239321D01*
X149235457Y-158821759D01*
X146504312Y-159250369D01*
X143753293Y-159523777D01*
X140991212Y-159641109D01*
X138226917Y-159601988D01*
X135469262Y-159406540D01*
X132727082Y-159055390D01*
X130009160Y-158549663D01*
X127324203Y-157890980D01*
X124680811Y-157081451D01*
X122087452Y-156123667D01*
X119552434Y-155020699D01*
X118222579Y-154350200D01*
X136221928Y-154350200D01*
X136221928Y-155649800D01*
X136238996Y-155823093D01*
X136289544Y-155989727D01*
X136371629Y-156143297D01*
X136482097Y-156277903D01*
X136616703Y-156388371D01*
X136770273Y-156470456D01*
X136936907Y-156521004D01*
X137110200Y-156538072D01*
X138409800Y-156538072D01*
X138583093Y-156521004D01*
X138749727Y-156470456D01*
X138903297Y-156388371D01*
X139037903Y-156277903D01*
X139148371Y-156143297D01*
X139190713Y-156064080D01*
X139415525Y-156064080D01*
X139499208Y-156318261D01*
X139771775Y-156449158D01*
X140064642Y-156524365D01*
X140366553Y-156540991D01*
X140665907Y-156498397D01*
X140951199Y-156398222D01*
X141100792Y-156318261D01*
X141184475Y-156064080D01*
X140300000Y-155179605D01*
X139415525Y-156064080D01*
X139190713Y-156064080D01*
X139230456Y-155989727D01*
X139273907Y-155846488D01*
X140120395Y-155000000D01*
X140479605Y-155000000D01*
X141364080Y-155884475D01*
X141545049Y-155824895D01*
X141647688Y-155978505D01*
X141861495Y-156192312D01*
X142112905Y-156360299D01*
X142392257Y-156476011D01*
X142688816Y-156535000D01*
X142991184Y-156535000D01*
X143287743Y-156476011D01*
X143567095Y-156360299D01*
X143818505Y-156192312D01*
X144032312Y-155978505D01*
X144200299Y-155727095D01*
X144316011Y-155447743D01*
X144375000Y-155151184D01*
X144375000Y-154848816D01*
X144316011Y-154552257D01*
X144200299Y-154272905D01*
X144032312Y-154021495D01*
X143818505Y-153807688D01*
X143567095Y-153639701D01*
X143287743Y-153523989D01*
X142991184Y-153465000D01*
X142688816Y-153465000D01*
X142392257Y-153523989D01*
X142112905Y-153639701D01*
X141861495Y-153807688D01*
X141647688Y-154021495D01*
X141545049Y-154175105D01*
X141364080Y-154115525D01*
X140479605Y-155000000D01*
X140120395Y-155000000D01*
X139273907Y-154153512D01*
X139230456Y-154010273D01*
X139190714Y-153935920D01*
X139415525Y-153935920D01*
X140300000Y-154820395D01*
X141184475Y-153935920D01*
X141100792Y-153681739D01*
X140828225Y-153550842D01*
X140535358Y-153475635D01*
X140233447Y-153459009D01*
X139934093Y-153501603D01*
X139648801Y-153601778D01*
X139499208Y-153681739D01*
X139415525Y-153935920D01*
X139190714Y-153935920D01*
X139148371Y-153856703D01*
X139037903Y-153722097D01*
X138903297Y-153611629D01*
X138749727Y-153529544D01*
X138583093Y-153478996D01*
X138409800Y-153461928D01*
X137110200Y-153461928D01*
X136936907Y-153478996D01*
X136770273Y-153529544D01*
X136616703Y-153611629D01*
X136482097Y-153722097D01*
X136371629Y-153856703D01*
X136289544Y-154010273D01*
X136238996Y-154176907D01*
X136221928Y-154350200D01*
X118222579Y-154350200D01*
X117083876Y-153776078D01*
X114954947Y-152546940D01*
X122141081Y-152546940D01*
X122342808Y-152772180D01*
X122584601Y-152953736D01*
X122857168Y-153084633D01*
X123150035Y-153159840D01*
X123451946Y-153176466D01*
X123620752Y-153159839D01*
X123795335Y-152957030D01*
X123328183Y-151829224D01*
X123399534Y-151829224D01*
X123747060Y-152176750D01*
X124030001Y-152859829D01*
X124219994Y-152874038D01*
X124256036Y-153055234D01*
X124371748Y-153334586D01*
X124539735Y-153585996D01*
X124753542Y-153799803D01*
X125004952Y-153967790D01*
X125284304Y-154083502D01*
X125580863Y-154142491D01*
X125883231Y-154142491D01*
X126179790Y-154083502D01*
X126459142Y-153967790D01*
X126710552Y-153799803D01*
X126924359Y-153585996D01*
X127092346Y-153334586D01*
X127208058Y-153055234D01*
X127267047Y-152758675D01*
X127267047Y-152456307D01*
X127227169Y-152255822D01*
X153130676Y-152255822D01*
X153147744Y-152429116D01*
X153198292Y-152595749D01*
X153695628Y-153796423D01*
X153777713Y-153949994D01*
X153888181Y-154084599D01*
X154022787Y-154195067D01*
X154176357Y-154277152D01*
X154342991Y-154327700D01*
X154516284Y-154344768D01*
X154689578Y-154327700D01*
X154856211Y-154277152D01*
X156056885Y-153779816D01*
X156210456Y-153697731D01*
X156345061Y-153587263D01*
X156455529Y-153452657D01*
X156537614Y-153299087D01*
X156588162Y-153132453D01*
X156605230Y-152959160D01*
X156605021Y-152957030D01*
X156804665Y-152957030D01*
X156979248Y-153159839D01*
X157281159Y-153176465D01*
X157580513Y-153133872D01*
X157865805Y-153033696D01*
X158126072Y-152879787D01*
X158351312Y-152678060D01*
X158458919Y-152546940D01*
X158438961Y-152280083D01*
X157283339Y-151801408D01*
X156804665Y-152957030D01*
X156605021Y-152957030D01*
X156590558Y-152810195D01*
X156852940Y-152176750D01*
X157200466Y-151829224D01*
X157020858Y-151649616D01*
X156990403Y-151680071D01*
X155942685Y-151246092D01*
X155847725Y-151130383D01*
X155713119Y-151019915D01*
X155559549Y-150937830D01*
X155392915Y-150887282D01*
X155219622Y-150870214D01*
X155046328Y-150887282D01*
X154879695Y-150937830D01*
X153679021Y-151435166D01*
X153525450Y-151517251D01*
X153390845Y-151627719D01*
X153280377Y-151762325D01*
X153198292Y-151915895D01*
X153147744Y-152082529D01*
X153130676Y-152255822D01*
X127227169Y-152255822D01*
X127208058Y-152159748D01*
X127092346Y-151880396D01*
X126924359Y-151628986D01*
X126710552Y-151415179D01*
X126459142Y-151247192D01*
X126179790Y-151131480D01*
X125883231Y-151072491D01*
X125580863Y-151072491D01*
X125284304Y-151131480D01*
X125004952Y-151247192D01*
X124851342Y-151349831D01*
X124706948Y-151225533D01*
X123609597Y-151680071D01*
X123579142Y-151649616D01*
X123399534Y-151829224D01*
X123328183Y-151829224D01*
X123316661Y-151801408D01*
X122161039Y-152280083D01*
X122141081Y-152546940D01*
X114954947Y-152546940D01*
X114689686Y-152393792D01*
X112586333Y-151015128D01*
X119301462Y-151015128D01*
X119318530Y-151188421D01*
X119369078Y-151355055D01*
X119451163Y-151508625D01*
X119561631Y-151643231D01*
X119696236Y-151753699D01*
X119849807Y-151835784D01*
X121050481Y-152333120D01*
X121217114Y-152383668D01*
X121390408Y-152400736D01*
X121563701Y-152383668D01*
X121730335Y-152333120D01*
X121883905Y-152251035D01*
X122018511Y-152140567D01*
X122113471Y-152024858D01*
X123161189Y-151590879D01*
X123191644Y-151621334D01*
X123371252Y-151441726D01*
X123023726Y-151094200D01*
X122761344Y-150460755D01*
X122775806Y-150313920D01*
X122975451Y-150313920D01*
X123454125Y-151469542D01*
X124609747Y-150990867D01*
X124629705Y-150724010D01*
X155970295Y-150724010D01*
X155990253Y-150990867D01*
X157145875Y-151469542D01*
X157157396Y-151441726D01*
X157228748Y-151441726D01*
X157408356Y-151621334D01*
X157438811Y-151590879D01*
X158536162Y-152045417D01*
X158680556Y-151921119D01*
X158834166Y-152023758D01*
X159113518Y-152139470D01*
X159410077Y-152198459D01*
X159712445Y-152198459D01*
X160009004Y-152139470D01*
X160288356Y-152023758D01*
X160539766Y-151855771D01*
X160753573Y-151641964D01*
X160921560Y-151390554D01*
X161037272Y-151111202D01*
X161096261Y-150814643D01*
X161096261Y-150512275D01*
X161037272Y-150215716D01*
X160921560Y-149936364D01*
X160753573Y-149684954D01*
X160539766Y-149471147D01*
X160288356Y-149303160D01*
X160009004Y-149187448D01*
X159712445Y-149128459D01*
X159410077Y-149128459D01*
X159113518Y-149187448D01*
X158834166Y-149303160D01*
X158582756Y-149471147D01*
X158368949Y-149684954D01*
X158200962Y-149936364D01*
X158085250Y-150215716D01*
X158049208Y-150396912D01*
X157859215Y-150411121D01*
X157576274Y-151094200D01*
X157228748Y-151441726D01*
X157157396Y-151441726D01*
X157624549Y-150313920D01*
X157449966Y-150111111D01*
X157148055Y-150094485D01*
X156848701Y-150137078D01*
X156563409Y-150237254D01*
X156303142Y-150391163D01*
X156077902Y-150592890D01*
X155970295Y-150724010D01*
X124629705Y-150724010D01*
X124427978Y-150498770D01*
X124186185Y-150317214D01*
X123913618Y-150186317D01*
X123620751Y-150111110D01*
X123318840Y-150094484D01*
X123150034Y-150111111D01*
X122975451Y-150313920D01*
X122775806Y-150313920D01*
X122776016Y-150311790D01*
X122758948Y-150138497D01*
X122708400Y-149971863D01*
X122626315Y-149818293D01*
X122515847Y-149683687D01*
X122381242Y-149573219D01*
X122227671Y-149491134D01*
X121026997Y-148993798D01*
X120860364Y-148943250D01*
X120687070Y-148926182D01*
X120513777Y-148943250D01*
X120347143Y-148993798D01*
X120193573Y-149075883D01*
X120058967Y-149186351D01*
X119948499Y-149320956D01*
X119866414Y-149474527D01*
X119369078Y-150675201D01*
X119318530Y-150841834D01*
X119301462Y-151015128D01*
X112586333Y-151015128D01*
X112377534Y-150878269D01*
X110154826Y-149234363D01*
X108028682Y-147467339D01*
X106005913Y-145582860D01*
X104092998Y-143586960D01*
X103094913Y-142420025D01*
X107547484Y-142420025D01*
X107647660Y-142705317D01*
X107801569Y-142965584D01*
X108003296Y-143190824D01*
X108245089Y-143372381D01*
X108517656Y-143503278D01*
X108679975Y-143552516D01*
X108918881Y-143431955D01*
X108918881Y-142247868D01*
X109060022Y-142247868D01*
X109172881Y-142360727D01*
X109172881Y-143431955D01*
X109342974Y-143517790D01*
X109306932Y-143698986D01*
X109306932Y-144001354D01*
X109365921Y-144297913D01*
X109481633Y-144577265D01*
X109649620Y-144828675D01*
X109863427Y-145042482D01*
X110114837Y-145210469D01*
X110394189Y-145326181D01*
X110690748Y-145385170D01*
X110993116Y-145385170D01*
X111289675Y-145326181D01*
X111569027Y-145210469D01*
X111820437Y-145042482D01*
X112034244Y-144828675D01*
X112202231Y-144577265D01*
X112317943Y-144297913D01*
X112376932Y-144001354D01*
X112376932Y-143698986D01*
X112367075Y-143649431D01*
X168121075Y-143649431D01*
X168138143Y-143822724D01*
X168188691Y-143989358D01*
X168270776Y-144142928D01*
X168381244Y-144277534D01*
X169300200Y-145196490D01*
X169434806Y-145306958D01*
X169588376Y-145389043D01*
X169755010Y-145439591D01*
X169928303Y-145456659D01*
X170101596Y-145439591D01*
X170268230Y-145389043D01*
X170421800Y-145306958D01*
X170556406Y-145196490D01*
X171475362Y-144277534D01*
X171585830Y-144142928D01*
X171667915Y-143989358D01*
X171718463Y-143822724D01*
X171735531Y-143649431D01*
X171718463Y-143476138D01*
X171667915Y-143309504D01*
X171597354Y-143177494D01*
X171597354Y-142159988D01*
X171710213Y-142047129D01*
X171643464Y-141980380D01*
X171851354Y-141980380D01*
X171851354Y-143231216D01*
X172090260Y-143351777D01*
X172375552Y-143251601D01*
X172635819Y-143097692D01*
X172861059Y-142895965D01*
X173042616Y-142654172D01*
X173173513Y-142381605D01*
X173222751Y-142219286D01*
X173102190Y-141980380D01*
X171851354Y-141980380D01*
X171643464Y-141980380D01*
X171530605Y-141867521D01*
X171417746Y-141980380D01*
X170400240Y-141980380D01*
X170268230Y-141909819D01*
X170101596Y-141859271D01*
X169928303Y-141842203D01*
X169755010Y-141859271D01*
X169588376Y-141909819D01*
X169434806Y-141991904D01*
X169300200Y-142102372D01*
X168381244Y-143021328D01*
X168270776Y-143155934D01*
X168188691Y-143309504D01*
X168138143Y-143476138D01*
X168121075Y-143649431D01*
X112367075Y-143649431D01*
X112317943Y-143402427D01*
X112202231Y-143123075D01*
X112034244Y-142871665D01*
X111820437Y-142657858D01*
X111569027Y-142489871D01*
X111289675Y-142374159D01*
X110993116Y-142315170D01*
X110690748Y-142315170D01*
X110509552Y-142351212D01*
X110423717Y-142181119D01*
X109352489Y-142181119D01*
X109239630Y-142068260D01*
X109060022Y-142247868D01*
X108918881Y-142247868D01*
X108918881Y-142181119D01*
X107668045Y-142181119D01*
X107547484Y-142420025D01*
X103094913Y-142420025D01*
X102296066Y-141486034D01*
X101360699Y-140258068D01*
X105442602Y-140258068D01*
X105459670Y-140431361D01*
X105510218Y-140597995D01*
X105592303Y-140751565D01*
X105702771Y-140886171D01*
X106621727Y-141805127D01*
X106756333Y-141915595D01*
X106909903Y-141997680D01*
X107076537Y-142048228D01*
X107249830Y-142065296D01*
X107423123Y-142048228D01*
X107589757Y-141997680D01*
X107721767Y-141927119D01*
X108739273Y-141927119D01*
X108852132Y-142039978D01*
X109031740Y-141860370D01*
X108918881Y-141747511D01*
X108918881Y-140730005D01*
X108947596Y-140676283D01*
X109172881Y-140676283D01*
X109172881Y-141927119D01*
X110423717Y-141927119D01*
X110544278Y-141688213D01*
X110473792Y-141487474D01*
X170225957Y-141487474D01*
X170346518Y-141726380D01*
X171597354Y-141726380D01*
X171597354Y-141659631D01*
X171738495Y-141659631D01*
X171918103Y-141839239D01*
X172030962Y-141726380D01*
X173102190Y-141726380D01*
X173188025Y-141556287D01*
X173369221Y-141592329D01*
X173671589Y-141592329D01*
X173968148Y-141533340D01*
X174247500Y-141417628D01*
X174498910Y-141249641D01*
X174712717Y-141035834D01*
X174880704Y-140784424D01*
X174996416Y-140505072D01*
X175055405Y-140208513D01*
X175055405Y-139906145D01*
X174996416Y-139609586D01*
X174880704Y-139330234D01*
X174712717Y-139078824D01*
X174498910Y-138865017D01*
X174247500Y-138697030D01*
X173968148Y-138581318D01*
X173671589Y-138522329D01*
X173369221Y-138522329D01*
X173072662Y-138581318D01*
X172793310Y-138697030D01*
X172541900Y-138865017D01*
X172328093Y-139078824D01*
X172160106Y-139330234D01*
X172044394Y-139609586D01*
X171985405Y-139906145D01*
X171985405Y-140208513D01*
X172021447Y-140389709D01*
X171851354Y-140475544D01*
X171851354Y-141546772D01*
X171738495Y-141659631D01*
X171597354Y-141659631D01*
X171597354Y-140475544D01*
X171358448Y-140354983D01*
X171073156Y-140455159D01*
X170812889Y-140609068D01*
X170587649Y-140810795D01*
X170406092Y-141052588D01*
X170275195Y-141325155D01*
X170225957Y-141487474D01*
X110473792Y-141487474D01*
X110444102Y-141402921D01*
X110290193Y-141142654D01*
X110088466Y-140917414D01*
X109846673Y-140735857D01*
X109574106Y-140604960D01*
X109411787Y-140555722D01*
X109172881Y-140676283D01*
X108947596Y-140676283D01*
X108989442Y-140597995D01*
X109039990Y-140431361D01*
X109057058Y-140258068D01*
X109039990Y-140084775D01*
X108989442Y-139918141D01*
X108907357Y-139764571D01*
X108796889Y-139629965D01*
X107877933Y-138711009D01*
X107743327Y-138600541D01*
X107589757Y-138518456D01*
X107423123Y-138467908D01*
X107249830Y-138450840D01*
X107076537Y-138467908D01*
X106909903Y-138518456D01*
X106756333Y-138600541D01*
X106621727Y-138711009D01*
X105702771Y-139629965D01*
X105592303Y-139764571D01*
X105510218Y-139918141D01*
X105459670Y-140084775D01*
X105442602Y-140258068D01*
X101360699Y-140258068D01*
X100620871Y-139286811D01*
X99338662Y-137389721D01*
X114565000Y-137389721D01*
X114565000Y-137810279D01*
X114647047Y-138222756D01*
X114807988Y-138611302D01*
X115041637Y-138960983D01*
X115339017Y-139258363D01*
X115688698Y-139492012D01*
X116077244Y-139652953D01*
X116489721Y-139735000D01*
X116910279Y-139735000D01*
X117322756Y-139652953D01*
X117711302Y-139492012D01*
X118060983Y-139258363D01*
X118344346Y-138975000D01*
X134011928Y-138975000D01*
X134011928Y-140425000D01*
X134028992Y-140598254D01*
X134079528Y-140764850D01*
X134161595Y-140918386D01*
X134272038Y-141052962D01*
X134406614Y-141163405D01*
X134560150Y-141245472D01*
X134726746Y-141296008D01*
X134900000Y-141313072D01*
X136100000Y-141313072D01*
X136273254Y-141296008D01*
X136439850Y-141245472D01*
X136593386Y-141163405D01*
X136727962Y-141052962D01*
X136838405Y-140918386D01*
X136892777Y-140816663D01*
X136944866Y-140880134D01*
X137170987Y-141065706D01*
X137428967Y-141203599D01*
X137708890Y-141288513D01*
X138000000Y-141317185D01*
X138291111Y-141288513D01*
X138571034Y-141203599D01*
X138829014Y-141065706D01*
X139055134Y-140880134D01*
X139240706Y-140654014D01*
X139250000Y-140636626D01*
X139259294Y-140654014D01*
X139444866Y-140880134D01*
X139670987Y-141065706D01*
X139928967Y-141203599D01*
X140208890Y-141288513D01*
X140500000Y-141317185D01*
X140791111Y-141288513D01*
X141071034Y-141203599D01*
X141329014Y-141065706D01*
X141555134Y-140880134D01*
X141740706Y-140654014D01*
X141754462Y-140628278D01*
X141910951Y-140834429D01*
X142128807Y-141027496D01*
X142380142Y-141174352D01*
X142643110Y-141266476D01*
X142873000Y-141145155D01*
X142873000Y-139827000D01*
X142853000Y-139827000D01*
X142853000Y-139573000D01*
X142873000Y-139573000D01*
X142873000Y-138254845D01*
X143127000Y-138254845D01*
X143127000Y-139573000D01*
X143147000Y-139573000D01*
X143147000Y-139827000D01*
X143127000Y-139827000D01*
X143127000Y-141145155D01*
X143356890Y-141266476D01*
X143619858Y-141174352D01*
X143871193Y-141027496D01*
X144089049Y-140834429D01*
X144245538Y-140628278D01*
X144259294Y-140654014D01*
X144444866Y-140880134D01*
X144670987Y-141065706D01*
X144928967Y-141203599D01*
X145208890Y-141288513D01*
X145500000Y-141317185D01*
X145791111Y-141288513D01*
X146071034Y-141203599D01*
X146329014Y-141065706D01*
X146555134Y-140880134D01*
X146740706Y-140654014D01*
X146878599Y-140396033D01*
X146963513Y-140116110D01*
X146985000Y-139897949D01*
X146985000Y-139502050D01*
X146963513Y-139283889D01*
X146878599Y-139003966D01*
X146740706Y-138745986D01*
X146555134Y-138519866D01*
X146329013Y-138334294D01*
X146071033Y-138196401D01*
X145791110Y-138111487D01*
X145500000Y-138082815D01*
X145208889Y-138111487D01*
X144928966Y-138196401D01*
X144670986Y-138334294D01*
X144444866Y-138519866D01*
X144259294Y-138745987D01*
X144245538Y-138771722D01*
X144089049Y-138565571D01*
X143871193Y-138372504D01*
X143619858Y-138225648D01*
X143356890Y-138133524D01*
X143127000Y-138254845D01*
X142873000Y-138254845D01*
X142643110Y-138133524D01*
X142380142Y-138225648D01*
X142128807Y-138372504D01*
X141910951Y-138565571D01*
X141754462Y-138771722D01*
X141740706Y-138745986D01*
X141555134Y-138519866D01*
X141329013Y-138334294D01*
X141071033Y-138196401D01*
X140791110Y-138111487D01*
X140500000Y-138082815D01*
X140208889Y-138111487D01*
X139928966Y-138196401D01*
X139670986Y-138334294D01*
X139444866Y-138519866D01*
X139259294Y-138745987D01*
X139250000Y-138763374D01*
X139240706Y-138745986D01*
X139055134Y-138519866D01*
X138829013Y-138334294D01*
X138571033Y-138196401D01*
X138291110Y-138111487D01*
X138000000Y-138082815D01*
X137708889Y-138111487D01*
X137428966Y-138196401D01*
X137170986Y-138334294D01*
X136944866Y-138519866D01*
X136892777Y-138583337D01*
X136838405Y-138481614D01*
X136727962Y-138347038D01*
X136593386Y-138236595D01*
X136439850Y-138154528D01*
X136273254Y-138103992D01*
X136100000Y-138086928D01*
X134900000Y-138086928D01*
X134726746Y-138103992D01*
X134560150Y-138154528D01*
X134406614Y-138236595D01*
X134272038Y-138347038D01*
X134161595Y-138481614D01*
X134079528Y-138635150D01*
X134028992Y-138801746D01*
X134011928Y-138975000D01*
X118344346Y-138975000D01*
X118358363Y-138960983D01*
X118592012Y-138611302D01*
X118752953Y-138222756D01*
X118835000Y-137810279D01*
X118835000Y-137406721D01*
X159541000Y-137406721D01*
X159541000Y-137827279D01*
X159623047Y-138239756D01*
X159783988Y-138628302D01*
X160017637Y-138977983D01*
X160315017Y-139275363D01*
X160664698Y-139509012D01*
X161053244Y-139669953D01*
X161465721Y-139752000D01*
X161886279Y-139752000D01*
X162298756Y-139669953D01*
X162687302Y-139509012D01*
X163036983Y-139275363D01*
X163334363Y-138977983D01*
X163568012Y-138628302D01*
X163728953Y-138239756D01*
X163811000Y-137827279D01*
X163811000Y-137406721D01*
X163728953Y-136994244D01*
X163568012Y-136605698D01*
X163334363Y-136256017D01*
X163036983Y-135958637D01*
X162687302Y-135724988D01*
X162298756Y-135564047D01*
X161886279Y-135482000D01*
X161465721Y-135482000D01*
X161053244Y-135564047D01*
X160664698Y-135724988D01*
X160315017Y-135958637D01*
X160017637Y-136256017D01*
X159783988Y-136605698D01*
X159623047Y-136994244D01*
X159541000Y-137406721D01*
X118835000Y-137406721D01*
X118835000Y-137389721D01*
X118752953Y-136977244D01*
X118592012Y-136588698D01*
X118358363Y-136239017D01*
X118060983Y-135941637D01*
X117711302Y-135707988D01*
X117322756Y-135547047D01*
X116910279Y-135465000D01*
X116489721Y-135465000D01*
X116077244Y-135547047D01*
X115688698Y-135707988D01*
X115339017Y-135941637D01*
X115041637Y-136239017D01*
X114807988Y-136588698D01*
X114647047Y-136977244D01*
X114565000Y-137389721D01*
X99338662Y-137389721D01*
X99072780Y-136996337D01*
X97656753Y-134621947D01*
X96377324Y-132171249D01*
X95355211Y-129910077D01*
X98901541Y-129910077D01*
X98901541Y-130212445D01*
X98960530Y-130509004D01*
X99076242Y-130788356D01*
X99244229Y-131039766D01*
X99458036Y-131253573D01*
X99709446Y-131421560D01*
X99988798Y-131537272D01*
X100285357Y-131596261D01*
X100587725Y-131596261D01*
X100884284Y-131537272D01*
X101163636Y-131421560D01*
X101415046Y-131253573D01*
X101628853Y-131039766D01*
X101796840Y-130788356D01*
X101860923Y-130633646D01*
X110015000Y-130633646D01*
X110017887Y-130662954D01*
X110017844Y-130669066D01*
X110018777Y-130678585D01*
X110039178Y-130872682D01*
X110051661Y-130933496D01*
X110063295Y-130994481D01*
X110066059Y-131003637D01*
X110123771Y-131190075D01*
X110147818Y-131247279D01*
X110171087Y-131304873D01*
X110175577Y-131313317D01*
X110268402Y-131484994D01*
X110303122Y-131536468D01*
X110337117Y-131588418D01*
X110343161Y-131595829D01*
X110467565Y-131746207D01*
X110511638Y-131789973D01*
X110555057Y-131834311D01*
X110562426Y-131840408D01*
X110713668Y-131963758D01*
X110765397Y-131998126D01*
X110816608Y-132033191D01*
X110825016Y-132037737D01*
X110825020Y-132037740D01*
X110825024Y-132037742D01*
X110997343Y-132129366D01*
X111054739Y-132153022D01*
X111111807Y-132177482D01*
X111120944Y-132180310D01*
X111307780Y-132236719D01*
X111368690Y-132248780D01*
X111429409Y-132261686D01*
X111438921Y-132262686D01*
X111633155Y-132281731D01*
X111633163Y-132281731D01*
X111666353Y-132285000D01*
X121033647Y-132285000D01*
X121062955Y-132282113D01*
X121069066Y-132282156D01*
X121078585Y-132281223D01*
X121272682Y-132260822D01*
X121333496Y-132248339D01*
X121394481Y-132236705D01*
X121403637Y-132233941D01*
X121590075Y-132176229D01*
X121647279Y-132152182D01*
X121704873Y-132128913D01*
X121713317Y-132124423D01*
X121884994Y-132031598D01*
X121936468Y-131996878D01*
X121988418Y-131962883D01*
X121995829Y-131956839D01*
X122146207Y-131832435D01*
X122189973Y-131788362D01*
X122234311Y-131744943D01*
X122240408Y-131737574D01*
X122363758Y-131586332D01*
X122398126Y-131534603D01*
X122433191Y-131483392D01*
X122437739Y-131474981D01*
X122437740Y-131474980D01*
X122437742Y-131474976D01*
X122529366Y-131302657D01*
X122553022Y-131245261D01*
X122577482Y-131188193D01*
X122580310Y-131179056D01*
X122636719Y-130992220D01*
X122648780Y-130931310D01*
X122661686Y-130870591D01*
X122662686Y-130861079D01*
X122681731Y-130666845D01*
X122681731Y-130666837D01*
X122685000Y-130633647D01*
X122685000Y-130533646D01*
X159815000Y-130533646D01*
X159817887Y-130562954D01*
X159817844Y-130569066D01*
X159818777Y-130578585D01*
X159839178Y-130772682D01*
X159851661Y-130833496D01*
X159863295Y-130894481D01*
X159866059Y-130903637D01*
X159923771Y-131090075D01*
X159947818Y-131147279D01*
X159971087Y-131204873D01*
X159975577Y-131213317D01*
X160068402Y-131384994D01*
X160103122Y-131436468D01*
X160137117Y-131488418D01*
X160143161Y-131495829D01*
X160267565Y-131646207D01*
X160311638Y-131689973D01*
X160355057Y-131734311D01*
X160362426Y-131740408D01*
X160513668Y-131863758D01*
X160565397Y-131898126D01*
X160616608Y-131933191D01*
X160625016Y-131937737D01*
X160625020Y-131937740D01*
X160625024Y-131937742D01*
X160797343Y-132029366D01*
X160854739Y-132053022D01*
X160911807Y-132077482D01*
X160920944Y-132080310D01*
X161107780Y-132136719D01*
X161168690Y-132148780D01*
X161229409Y-132161686D01*
X161238921Y-132162686D01*
X161433155Y-132181731D01*
X161433163Y-132181731D01*
X161466353Y-132185000D01*
X171533647Y-132185000D01*
X171562955Y-132182113D01*
X171569066Y-132182156D01*
X171578585Y-132181223D01*
X171772682Y-132160822D01*
X171833496Y-132148339D01*
X171894481Y-132136705D01*
X171903637Y-132133941D01*
X172090075Y-132076229D01*
X172147279Y-132052182D01*
X172204873Y-132028913D01*
X172213317Y-132024423D01*
X172384994Y-131931598D01*
X172436468Y-131896878D01*
X172488418Y-131862883D01*
X172495829Y-131856839D01*
X172646207Y-131732435D01*
X172689973Y-131688362D01*
X172734311Y-131644943D01*
X172740408Y-131637574D01*
X172863758Y-131486332D01*
X172898126Y-131434603D01*
X172933191Y-131383392D01*
X172937739Y-131374981D01*
X172937740Y-131374980D01*
X172937742Y-131374976D01*
X173029366Y-131202657D01*
X173053022Y-131145261D01*
X173077482Y-131088193D01*
X173080310Y-131079056D01*
X173136719Y-130892220D01*
X173148780Y-130831310D01*
X173161686Y-130770591D01*
X173162686Y-130761079D01*
X173181731Y-130566845D01*
X173181731Y-130566837D01*
X173185000Y-130533647D01*
X173185000Y-130212191D01*
X178596416Y-130212191D01*
X178613484Y-130385484D01*
X178664032Y-130552118D01*
X178746117Y-130705688D01*
X178856585Y-130840294D01*
X178991190Y-130950762D01*
X179144761Y-131032847D01*
X180345435Y-131530183D01*
X180512068Y-131580731D01*
X180685362Y-131597799D01*
X180858655Y-131580731D01*
X181025289Y-131530183D01*
X181178859Y-131448098D01*
X181313465Y-131337630D01*
X181423933Y-131203025D01*
X181506018Y-131049454D01*
X182003354Y-129848780D01*
X182053902Y-129682147D01*
X182070970Y-129508853D01*
X182053902Y-129335560D01*
X182003354Y-129168926D01*
X181921269Y-129015356D01*
X181810801Y-128880750D01*
X181695092Y-128785790D01*
X181261113Y-127738072D01*
X181291568Y-127707617D01*
X181166551Y-127582600D01*
X181471642Y-127582600D01*
X181950317Y-128738222D01*
X182217174Y-128758180D01*
X182442414Y-128556453D01*
X182623970Y-128314660D01*
X182754867Y-128042093D01*
X182830074Y-127749226D01*
X182846700Y-127447315D01*
X182830073Y-127278509D01*
X182627264Y-127103926D01*
X181471642Y-127582600D01*
X181166551Y-127582600D01*
X181111960Y-127528009D01*
X180764434Y-127875535D01*
X180130989Y-128137917D01*
X179982024Y-128123245D01*
X179808731Y-128140313D01*
X179642097Y-128190861D01*
X179488527Y-128272946D01*
X179353921Y-128383414D01*
X179243453Y-128518019D01*
X179161368Y-128671590D01*
X178664032Y-129872264D01*
X178613484Y-130038897D01*
X178596416Y-130212191D01*
X173185000Y-130212191D01*
X173185000Y-127580421D01*
X179764718Y-127580421D01*
X179781345Y-127749227D01*
X179984154Y-127923810D01*
X181139776Y-127445136D01*
X180661101Y-126289514D01*
X180394244Y-126269556D01*
X180169004Y-126471283D01*
X179987448Y-126713076D01*
X179856551Y-126985643D01*
X179781344Y-127278510D01*
X179764718Y-127580421D01*
X173185000Y-127580421D01*
X173185000Y-125016030D01*
X180742725Y-125016030D01*
X180742725Y-125318398D01*
X180801714Y-125614957D01*
X180917426Y-125894309D01*
X181020065Y-126047919D01*
X180895767Y-126192313D01*
X181350305Y-127289664D01*
X181319850Y-127320119D01*
X181499458Y-127499727D01*
X181846984Y-127152201D01*
X182530063Y-126869260D01*
X182544272Y-126679267D01*
X182725468Y-126643225D01*
X183004820Y-126527513D01*
X183256230Y-126359526D01*
X183470037Y-126145719D01*
X183638024Y-125894309D01*
X183753736Y-125614957D01*
X183812725Y-125318398D01*
X183812725Y-125016030D01*
X183753736Y-124719471D01*
X183638024Y-124440119D01*
X183470037Y-124188709D01*
X183256230Y-123974902D01*
X183004820Y-123806915D01*
X182725468Y-123691203D01*
X182428909Y-123632214D01*
X182126541Y-123632214D01*
X181829982Y-123691203D01*
X181550630Y-123806915D01*
X181299220Y-123974902D01*
X181085413Y-124188709D01*
X180917426Y-124440119D01*
X180801714Y-124719471D01*
X180742725Y-125016030D01*
X173185000Y-125016030D01*
X173185000Y-110689721D01*
X174265000Y-110689721D01*
X174265000Y-111110279D01*
X174347047Y-111522756D01*
X174507988Y-111911302D01*
X174741637Y-112260983D01*
X175039017Y-112558363D01*
X175388698Y-112792012D01*
X175777244Y-112952953D01*
X176189721Y-113035000D01*
X176610279Y-113035000D01*
X177022756Y-112952953D01*
X177411302Y-112792012D01*
X177760983Y-112558363D01*
X177829886Y-112489460D01*
X183132161Y-112489460D01*
X183132161Y-113789060D01*
X183149229Y-113962353D01*
X183199777Y-114128987D01*
X183281862Y-114282557D01*
X183392330Y-114417163D01*
X183526936Y-114527631D01*
X183680506Y-114609716D01*
X183847140Y-114660264D01*
X184020433Y-114677332D01*
X185320033Y-114677332D01*
X185493326Y-114660264D01*
X185659960Y-114609716D01*
X185813530Y-114527631D01*
X185948136Y-114417163D01*
X186058604Y-114282557D01*
X186140689Y-114128987D01*
X186191237Y-113962353D01*
X186208305Y-113789060D01*
X186208305Y-112489460D01*
X186191237Y-112316167D01*
X186140689Y-112149533D01*
X186058604Y-111995963D01*
X185948136Y-111861357D01*
X185813530Y-111750889D01*
X185659960Y-111668804D01*
X185516721Y-111625353D01*
X184670233Y-110778865D01*
X183823745Y-111625353D01*
X183680506Y-111668804D01*
X183526936Y-111750889D01*
X183392330Y-111861357D01*
X183281862Y-111995963D01*
X183199777Y-112149533D01*
X183149229Y-112316167D01*
X183132161Y-112489460D01*
X177829886Y-112489460D01*
X178058363Y-112260983D01*
X178292012Y-111911302D01*
X178452953Y-111522756D01*
X178535000Y-111110279D01*
X178535000Y-110689721D01*
X178530245Y-110665813D01*
X183129242Y-110665813D01*
X183171836Y-110965167D01*
X183272011Y-111250459D01*
X183351972Y-111400052D01*
X183606153Y-111483735D01*
X184490628Y-110599260D01*
X184849838Y-110599260D01*
X185734313Y-111483735D01*
X185988494Y-111400052D01*
X186119391Y-111127485D01*
X186194598Y-110834618D01*
X186211224Y-110532707D01*
X186168630Y-110233353D01*
X186068455Y-109948061D01*
X185988494Y-109798468D01*
X185734313Y-109714785D01*
X184849838Y-110599260D01*
X184490628Y-110599260D01*
X183606153Y-109714785D01*
X183351972Y-109798468D01*
X183221075Y-110071035D01*
X183145868Y-110363902D01*
X183129242Y-110665813D01*
X178530245Y-110665813D01*
X178452953Y-110277244D01*
X178292012Y-109888698D01*
X178058363Y-109539017D01*
X177760983Y-109241637D01*
X177411302Y-109007988D01*
X177022756Y-108847047D01*
X176610279Y-108765000D01*
X176189721Y-108765000D01*
X175777244Y-108847047D01*
X175388698Y-109007988D01*
X175039017Y-109241637D01*
X174741637Y-109539017D01*
X174507988Y-109888698D01*
X174347047Y-110277244D01*
X174265000Y-110689721D01*
X173185000Y-110689721D01*
X173185000Y-107908076D01*
X183135233Y-107908076D01*
X183135233Y-108210444D01*
X183194222Y-108507003D01*
X183309934Y-108786355D01*
X183477921Y-109037765D01*
X183691728Y-109251572D01*
X183845338Y-109354211D01*
X183785758Y-109535180D01*
X184670233Y-110419655D01*
X185554708Y-109535180D01*
X185495128Y-109354211D01*
X185648738Y-109251572D01*
X185862545Y-109037765D01*
X186030532Y-108786355D01*
X186146244Y-108507003D01*
X186205233Y-108210444D01*
X186205233Y-107908076D01*
X186146244Y-107611517D01*
X186030532Y-107332165D01*
X185862545Y-107080755D01*
X185648738Y-106866948D01*
X185397328Y-106698961D01*
X185117976Y-106583249D01*
X184821417Y-106524260D01*
X184519049Y-106524260D01*
X184222490Y-106583249D01*
X183943138Y-106698961D01*
X183691728Y-106866948D01*
X183477921Y-107080755D01*
X183309934Y-107332165D01*
X183194222Y-107611517D01*
X183135233Y-107908076D01*
X173185000Y-107908076D01*
X173185000Y-95679637D01*
X180540448Y-95679637D01*
X180557516Y-95852931D01*
X180608064Y-96019564D01*
X181105400Y-97220238D01*
X181187485Y-97373809D01*
X181297953Y-97508414D01*
X181432559Y-97618882D01*
X181586129Y-97700967D01*
X181752763Y-97751515D01*
X181926056Y-97768583D01*
X182099350Y-97751515D01*
X182265983Y-97700967D01*
X183466657Y-97203631D01*
X183620228Y-97121546D01*
X183754833Y-97011078D01*
X183865301Y-96876472D01*
X183947386Y-96722902D01*
X183997934Y-96556268D01*
X184015002Y-96382975D01*
X183997934Y-96209681D01*
X183947386Y-96043048D01*
X183450050Y-94842374D01*
X183367965Y-94688803D01*
X183257497Y-94554198D01*
X183122891Y-94443730D01*
X182969321Y-94361645D01*
X182802687Y-94311097D01*
X182629394Y-94294029D01*
X182480429Y-94308701D01*
X181846984Y-94046319D01*
X181499458Y-93698793D01*
X181319850Y-93878401D01*
X181350305Y-93908856D01*
X180916326Y-94956574D01*
X180800617Y-95051534D01*
X180690149Y-95186140D01*
X180608064Y-95339710D01*
X180557516Y-95506344D01*
X180540448Y-95679637D01*
X173185000Y-95679637D01*
X173185000Y-93751204D01*
X179764719Y-93751204D01*
X179807312Y-94050558D01*
X179907488Y-94335850D01*
X180061397Y-94596117D01*
X180263124Y-94821357D01*
X180394244Y-94928964D01*
X180661101Y-94909006D01*
X181139776Y-93753384D01*
X179984154Y-93274710D01*
X179781345Y-93449293D01*
X179764719Y-93751204D01*
X173185000Y-93751204D01*
X173185000Y-91466353D01*
X173182113Y-91437045D01*
X173182156Y-91430933D01*
X173181223Y-91421415D01*
X173160822Y-91227318D01*
X173152508Y-91186814D01*
X178798693Y-91186814D01*
X178798693Y-91489182D01*
X178857682Y-91785741D01*
X178973394Y-92065093D01*
X179141381Y-92316503D01*
X179355188Y-92530310D01*
X179606598Y-92698297D01*
X179885950Y-92814009D01*
X180067146Y-92850051D01*
X180081355Y-93040044D01*
X180764434Y-93322985D01*
X181111960Y-93670511D01*
X181166551Y-93615920D01*
X181471642Y-93615920D01*
X182627264Y-94094594D01*
X182830073Y-93920011D01*
X182846699Y-93618100D01*
X182804106Y-93318746D01*
X182703930Y-93033454D01*
X182550021Y-92773187D01*
X182348294Y-92547947D01*
X182217174Y-92440340D01*
X181950317Y-92460298D01*
X181471642Y-93615920D01*
X181166551Y-93615920D01*
X181291568Y-93490903D01*
X181261113Y-93460448D01*
X181715651Y-92363097D01*
X181591353Y-92218703D01*
X181693992Y-92065093D01*
X181809704Y-91785741D01*
X181868693Y-91489182D01*
X181868693Y-91186814D01*
X181809704Y-90890255D01*
X181693992Y-90610903D01*
X181526005Y-90359493D01*
X181312198Y-90145686D01*
X181060788Y-89977699D01*
X180781436Y-89861987D01*
X180484877Y-89802998D01*
X180182509Y-89802998D01*
X179885950Y-89861987D01*
X179606598Y-89977699D01*
X179355188Y-90145686D01*
X179141381Y-90359493D01*
X178973394Y-90610903D01*
X178857682Y-90890255D01*
X178798693Y-91186814D01*
X173152508Y-91186814D01*
X173148339Y-91166504D01*
X173136705Y-91105519D01*
X173133941Y-91096363D01*
X173076229Y-90909925D01*
X173052170Y-90852692D01*
X173028913Y-90795127D01*
X173024423Y-90786682D01*
X172931598Y-90615006D01*
X172896878Y-90563532D01*
X172862883Y-90511582D01*
X172856838Y-90504170D01*
X172732435Y-90353793D01*
X172688362Y-90310027D01*
X172644943Y-90265689D01*
X172637574Y-90259592D01*
X172486332Y-90136242D01*
X172434614Y-90101881D01*
X172383393Y-90066809D01*
X172374980Y-90062260D01*
X172202657Y-89970635D01*
X172145261Y-89946978D01*
X172088193Y-89922519D01*
X172079057Y-89919690D01*
X171892220Y-89863281D01*
X171831302Y-89851219D01*
X171770590Y-89838314D01*
X171761078Y-89837314D01*
X171566845Y-89818269D01*
X171566837Y-89818269D01*
X171533647Y-89815000D01*
X161466353Y-89815000D01*
X161437045Y-89817887D01*
X161430933Y-89817844D01*
X161421415Y-89818777D01*
X161227318Y-89839178D01*
X161166504Y-89851661D01*
X161105519Y-89863295D01*
X161096363Y-89866059D01*
X160909925Y-89923771D01*
X160852692Y-89947830D01*
X160795127Y-89971087D01*
X160786682Y-89975577D01*
X160615006Y-90068402D01*
X160563532Y-90103122D01*
X160511582Y-90137117D01*
X160504170Y-90143162D01*
X160353793Y-90267565D01*
X160310027Y-90311638D01*
X160265689Y-90355057D01*
X160259592Y-90362426D01*
X160136242Y-90513668D01*
X160101881Y-90565386D01*
X160066809Y-90616607D01*
X160062260Y-90625020D01*
X159970635Y-90797343D01*
X159946978Y-90854739D01*
X159922519Y-90911807D01*
X159919690Y-90920943D01*
X159863281Y-91107780D01*
X159851219Y-91168698D01*
X159838314Y-91229410D01*
X159837314Y-91238922D01*
X159818269Y-91433155D01*
X159818269Y-91433173D01*
X159815001Y-91466353D01*
X159815000Y-130533646D01*
X122685000Y-130533646D01*
X122685000Y-91566353D01*
X122682113Y-91537045D01*
X122682156Y-91530933D01*
X122681223Y-91521415D01*
X122660822Y-91327318D01*
X122648339Y-91266504D01*
X122636705Y-91205519D01*
X122633941Y-91196363D01*
X122576229Y-91009925D01*
X122552170Y-90952692D01*
X122530882Y-90900000D01*
X131261928Y-90900000D01*
X131261928Y-92500000D01*
X131274188Y-92624482D01*
X131310498Y-92744180D01*
X131369463Y-92854494D01*
X131448815Y-92951185D01*
X131545506Y-93030537D01*
X131655820Y-93089502D01*
X131775518Y-93125812D01*
X131783961Y-93126643D01*
X131585363Y-93325241D01*
X131428320Y-93560273D01*
X131320147Y-93821426D01*
X131265000Y-94098665D01*
X131265000Y-94381335D01*
X131320147Y-94658574D01*
X131428320Y-94919727D01*
X131585363Y-95154759D01*
X131785241Y-95354637D01*
X132017759Y-95510000D01*
X131785241Y-95665363D01*
X131585363Y-95865241D01*
X131428320Y-96100273D01*
X131320147Y-96361426D01*
X131265000Y-96638665D01*
X131265000Y-96921335D01*
X131320147Y-97198574D01*
X131428320Y-97459727D01*
X131585363Y-97694759D01*
X131785241Y-97894637D01*
X132017759Y-98050000D01*
X131785241Y-98205363D01*
X131585363Y-98405241D01*
X131428320Y-98640273D01*
X131320147Y-98901426D01*
X131265000Y-99178665D01*
X131265000Y-99461335D01*
X131320147Y-99738574D01*
X131428320Y-99999727D01*
X131585363Y-100234759D01*
X131785241Y-100434637D01*
X132017759Y-100590000D01*
X131785241Y-100745363D01*
X131585363Y-100945241D01*
X131428320Y-101180273D01*
X131320147Y-101441426D01*
X131265000Y-101718665D01*
X131265000Y-102001335D01*
X131320147Y-102278574D01*
X131428320Y-102539727D01*
X131585363Y-102774759D01*
X131785241Y-102974637D01*
X132017759Y-103130000D01*
X131785241Y-103285363D01*
X131585363Y-103485241D01*
X131428320Y-103720273D01*
X131320147Y-103981426D01*
X131265000Y-104258665D01*
X131265000Y-104541335D01*
X131320147Y-104818574D01*
X131428320Y-105079727D01*
X131585363Y-105314759D01*
X131785241Y-105514637D01*
X132017759Y-105670000D01*
X131785241Y-105825363D01*
X131585363Y-106025241D01*
X131428320Y-106260273D01*
X131320147Y-106521426D01*
X131265000Y-106798665D01*
X131265000Y-107081335D01*
X131320147Y-107358574D01*
X131428320Y-107619727D01*
X131585363Y-107854759D01*
X131785241Y-108054637D01*
X132017759Y-108210000D01*
X131785241Y-108365363D01*
X131585363Y-108565241D01*
X131428320Y-108800273D01*
X131320147Y-109061426D01*
X131265000Y-109338665D01*
X131265000Y-109621335D01*
X131320147Y-109898574D01*
X131428320Y-110159727D01*
X131585363Y-110394759D01*
X131785241Y-110594637D01*
X132017759Y-110750000D01*
X131785241Y-110905363D01*
X131585363Y-111105241D01*
X131428320Y-111340273D01*
X131320147Y-111601426D01*
X131265000Y-111878665D01*
X131265000Y-112161335D01*
X131320147Y-112438574D01*
X131428320Y-112699727D01*
X131585363Y-112934759D01*
X131785241Y-113134637D01*
X132017759Y-113290000D01*
X131785241Y-113445363D01*
X131585363Y-113645241D01*
X131428320Y-113880273D01*
X131320147Y-114141426D01*
X131265000Y-114418665D01*
X131265000Y-114701335D01*
X131320147Y-114978574D01*
X131428320Y-115239727D01*
X131585363Y-115474759D01*
X131785241Y-115674637D01*
X132017759Y-115830000D01*
X131785241Y-115985363D01*
X131585363Y-116185241D01*
X131428320Y-116420273D01*
X131320147Y-116681426D01*
X131265000Y-116958665D01*
X131265000Y-117241335D01*
X131320147Y-117518574D01*
X131428320Y-117779727D01*
X131585363Y-118014759D01*
X131785241Y-118214637D01*
X132017759Y-118370000D01*
X131785241Y-118525363D01*
X131585363Y-118725241D01*
X131428320Y-118960273D01*
X131320147Y-119221426D01*
X131265000Y-119498665D01*
X131265000Y-119781335D01*
X131320147Y-120058574D01*
X131428320Y-120319727D01*
X131585363Y-120554759D01*
X131785241Y-120754637D01*
X132017759Y-120910000D01*
X131785241Y-121065363D01*
X131585363Y-121265241D01*
X131428320Y-121500273D01*
X131320147Y-121761426D01*
X131265000Y-122038665D01*
X131265000Y-122321335D01*
X131320147Y-122598574D01*
X131428320Y-122859727D01*
X131585363Y-123094759D01*
X131785241Y-123294637D01*
X132017759Y-123450000D01*
X131785241Y-123605363D01*
X131585363Y-123805241D01*
X131428320Y-124040273D01*
X131320147Y-124301426D01*
X131265000Y-124578665D01*
X131265000Y-124861335D01*
X131320147Y-125138574D01*
X131428320Y-125399727D01*
X131585363Y-125634759D01*
X131785241Y-125834637D01*
X132017759Y-125990000D01*
X131785241Y-126145363D01*
X131585363Y-126345241D01*
X131428320Y-126580273D01*
X131320147Y-126841426D01*
X131265000Y-127118665D01*
X131265000Y-127401335D01*
X131320147Y-127678574D01*
X131428320Y-127939727D01*
X131585363Y-128174759D01*
X131785241Y-128374637D01*
X132020273Y-128531680D01*
X132281426Y-128639853D01*
X132558665Y-128695000D01*
X132841335Y-128695000D01*
X133118574Y-128639853D01*
X133379727Y-128531680D01*
X133614759Y-128374637D01*
X133814637Y-128174759D01*
X133971680Y-127939727D01*
X134079853Y-127678574D01*
X134135000Y-127401335D01*
X134135000Y-127118665D01*
X134079853Y-126841426D01*
X133971680Y-126580273D01*
X133814637Y-126345241D01*
X133614759Y-126145363D01*
X133382241Y-125990000D01*
X133614759Y-125834637D01*
X133814637Y-125634759D01*
X133971680Y-125399727D01*
X134079853Y-125138574D01*
X134135000Y-124861335D01*
X134135000Y-124578665D01*
X134079853Y-124301426D01*
X133971680Y-124040273D01*
X133814637Y-123805241D01*
X133614759Y-123605363D01*
X133382241Y-123450000D01*
X133614759Y-123294637D01*
X133814637Y-123094759D01*
X133971680Y-122859727D01*
X134079853Y-122598574D01*
X134135000Y-122321335D01*
X134135000Y-122038665D01*
X134079853Y-121761426D01*
X133971680Y-121500273D01*
X133814637Y-121265241D01*
X133614759Y-121065363D01*
X133382241Y-120910000D01*
X133614759Y-120754637D01*
X133814637Y-120554759D01*
X133971680Y-120319727D01*
X134079853Y-120058574D01*
X134135000Y-119781335D01*
X134135000Y-119498665D01*
X134079853Y-119221426D01*
X133971680Y-118960273D01*
X133814637Y-118725241D01*
X133614759Y-118525363D01*
X133382241Y-118370000D01*
X133614759Y-118214637D01*
X133814637Y-118014759D01*
X133971680Y-117779727D01*
X134079853Y-117518574D01*
X134135000Y-117241335D01*
X134135000Y-116958665D01*
X134079853Y-116681426D01*
X133971680Y-116420273D01*
X133814637Y-116185241D01*
X133614759Y-115985363D01*
X133382241Y-115830000D01*
X133614759Y-115674637D01*
X133814637Y-115474759D01*
X133971680Y-115239727D01*
X134079853Y-114978574D01*
X134135000Y-114701335D01*
X134135000Y-114418665D01*
X134079853Y-114141426D01*
X133971680Y-113880273D01*
X133814637Y-113645241D01*
X133614759Y-113445363D01*
X133382241Y-113290000D01*
X133614759Y-113134637D01*
X133814637Y-112934759D01*
X133971680Y-112699727D01*
X134079853Y-112438574D01*
X134135000Y-112161335D01*
X134135000Y-111878665D01*
X134079853Y-111601426D01*
X133971680Y-111340273D01*
X133814637Y-111105241D01*
X133614759Y-110905363D01*
X133382241Y-110750000D01*
X133614759Y-110594637D01*
X133814637Y-110394759D01*
X133971680Y-110159727D01*
X134079853Y-109898574D01*
X134135000Y-109621335D01*
X134135000Y-109338665D01*
X134079853Y-109061426D01*
X133971680Y-108800273D01*
X133814637Y-108565241D01*
X133614759Y-108365363D01*
X133382241Y-108210000D01*
X133614759Y-108054637D01*
X133814637Y-107854759D01*
X133971680Y-107619727D01*
X134079853Y-107358574D01*
X134135000Y-107081335D01*
X134135000Y-106798665D01*
X134079853Y-106521426D01*
X133971680Y-106260273D01*
X133814637Y-106025241D01*
X133614759Y-105825363D01*
X133382241Y-105670000D01*
X133614759Y-105514637D01*
X133814637Y-105314759D01*
X133971680Y-105079727D01*
X134079853Y-104818574D01*
X134135000Y-104541335D01*
X134135000Y-104258665D01*
X134079853Y-103981426D01*
X133971680Y-103720273D01*
X133814637Y-103485241D01*
X133614759Y-103285363D01*
X133382241Y-103130000D01*
X133614759Y-102974637D01*
X133814637Y-102774759D01*
X133971680Y-102539727D01*
X134079853Y-102278574D01*
X134135000Y-102001335D01*
X134135000Y-101718665D01*
X134079853Y-101441426D01*
X133971680Y-101180273D01*
X133814637Y-100945241D01*
X133614759Y-100745363D01*
X133382241Y-100590000D01*
X133614759Y-100434637D01*
X133814637Y-100234759D01*
X133971680Y-99999727D01*
X134079853Y-99738574D01*
X134135000Y-99461335D01*
X134135000Y-99178665D01*
X134079853Y-98901426D01*
X133971680Y-98640273D01*
X133814637Y-98405241D01*
X133614759Y-98205363D01*
X133382241Y-98050000D01*
X133614759Y-97894637D01*
X133814637Y-97694759D01*
X133971680Y-97459727D01*
X134079853Y-97198574D01*
X134135000Y-96921335D01*
X134135000Y-96638665D01*
X146505000Y-96638665D01*
X146505000Y-96921335D01*
X146560147Y-97198574D01*
X146668320Y-97459727D01*
X146825363Y-97694759D01*
X147025241Y-97894637D01*
X147257759Y-98050000D01*
X147025241Y-98205363D01*
X146825363Y-98405241D01*
X146668320Y-98640273D01*
X146560147Y-98901426D01*
X146505000Y-99178665D01*
X146505000Y-99461335D01*
X146560147Y-99738574D01*
X146668320Y-99999727D01*
X146825363Y-100234759D01*
X147025241Y-100434637D01*
X147257759Y-100590000D01*
X147025241Y-100745363D01*
X146825363Y-100945241D01*
X146668320Y-101180273D01*
X146560147Y-101441426D01*
X146505000Y-101718665D01*
X146505000Y-102001335D01*
X146560147Y-102278574D01*
X146668320Y-102539727D01*
X146825363Y-102774759D01*
X147025241Y-102974637D01*
X147257759Y-103130000D01*
X147025241Y-103285363D01*
X146825363Y-103485241D01*
X146668320Y-103720273D01*
X146560147Y-103981426D01*
X146505000Y-104258665D01*
X146505000Y-104541335D01*
X146560147Y-104818574D01*
X146668320Y-105079727D01*
X146825363Y-105314759D01*
X147025241Y-105514637D01*
X147257759Y-105670000D01*
X147025241Y-105825363D01*
X146825363Y-106025241D01*
X146668320Y-106260273D01*
X146560147Y-106521426D01*
X146505000Y-106798665D01*
X146505000Y-107081335D01*
X146560147Y-107358574D01*
X146668320Y-107619727D01*
X146825363Y-107854759D01*
X147025241Y-108054637D01*
X147257759Y-108210000D01*
X147025241Y-108365363D01*
X146825363Y-108565241D01*
X146668320Y-108800273D01*
X146560147Y-109061426D01*
X146505000Y-109338665D01*
X146505000Y-109621335D01*
X146560147Y-109898574D01*
X146668320Y-110159727D01*
X146825363Y-110394759D01*
X147025241Y-110594637D01*
X147257759Y-110750000D01*
X147025241Y-110905363D01*
X146825363Y-111105241D01*
X146668320Y-111340273D01*
X146560147Y-111601426D01*
X146505000Y-111878665D01*
X146505000Y-112161335D01*
X146560147Y-112438574D01*
X146668320Y-112699727D01*
X146825363Y-112934759D01*
X147025241Y-113134637D01*
X147257759Y-113290000D01*
X147025241Y-113445363D01*
X146825363Y-113645241D01*
X146668320Y-113880273D01*
X146560147Y-114141426D01*
X146505000Y-114418665D01*
X146505000Y-114701335D01*
X146560147Y-114978574D01*
X146668320Y-115239727D01*
X146825363Y-115474759D01*
X147025241Y-115674637D01*
X147257759Y-115830000D01*
X147025241Y-115985363D01*
X146825363Y-116185241D01*
X146668320Y-116420273D01*
X146560147Y-116681426D01*
X146505000Y-116958665D01*
X146505000Y-117241335D01*
X146560147Y-117518574D01*
X146668320Y-117779727D01*
X146825363Y-118014759D01*
X147025241Y-118214637D01*
X147257759Y-118370000D01*
X147025241Y-118525363D01*
X146825363Y-118725241D01*
X146668320Y-118960273D01*
X146560147Y-119221426D01*
X146505000Y-119498665D01*
X146505000Y-119781335D01*
X146560147Y-120058574D01*
X146668320Y-120319727D01*
X146825363Y-120554759D01*
X147025241Y-120754637D01*
X147257759Y-120910000D01*
X147025241Y-121065363D01*
X146825363Y-121265241D01*
X146668320Y-121500273D01*
X146560147Y-121761426D01*
X146505000Y-122038665D01*
X146505000Y-122321335D01*
X146560147Y-122598574D01*
X146668320Y-122859727D01*
X146825363Y-123094759D01*
X147025241Y-123294637D01*
X147257759Y-123450000D01*
X147025241Y-123605363D01*
X146825363Y-123805241D01*
X146668320Y-124040273D01*
X146560147Y-124301426D01*
X146505000Y-124578665D01*
X146505000Y-124861335D01*
X146560147Y-125138574D01*
X146668320Y-125399727D01*
X146825363Y-125634759D01*
X147025241Y-125834637D01*
X147257759Y-125990000D01*
X147025241Y-126145363D01*
X146825363Y-126345241D01*
X146668320Y-126580273D01*
X146560147Y-126841426D01*
X146505000Y-127118665D01*
X146505000Y-127401335D01*
X146560147Y-127678574D01*
X146668320Y-127939727D01*
X146825363Y-128174759D01*
X147025241Y-128374637D01*
X147260273Y-128531680D01*
X147521426Y-128639853D01*
X147798665Y-128695000D01*
X148081335Y-128695000D01*
X148358574Y-128639853D01*
X148619727Y-128531680D01*
X148854759Y-128374637D01*
X149054637Y-128174759D01*
X149211680Y-127939727D01*
X149319853Y-127678574D01*
X149375000Y-127401335D01*
X149375000Y-127118665D01*
X149319853Y-126841426D01*
X149211680Y-126580273D01*
X149054637Y-126345241D01*
X148854759Y-126145363D01*
X148622241Y-125990000D01*
X148854759Y-125834637D01*
X149054637Y-125634759D01*
X149211680Y-125399727D01*
X149319853Y-125138574D01*
X149375000Y-124861335D01*
X149375000Y-124578665D01*
X149319853Y-124301426D01*
X149211680Y-124040273D01*
X149054637Y-123805241D01*
X148854759Y-123605363D01*
X148622241Y-123450000D01*
X148854759Y-123294637D01*
X149054637Y-123094759D01*
X149211680Y-122859727D01*
X149319853Y-122598574D01*
X149375000Y-122321335D01*
X149375000Y-122038665D01*
X149319853Y-121761426D01*
X149211680Y-121500273D01*
X149054637Y-121265241D01*
X148854759Y-121065363D01*
X148622241Y-120910000D01*
X148854759Y-120754637D01*
X149054637Y-120554759D01*
X149211680Y-120319727D01*
X149319853Y-120058574D01*
X149375000Y-119781335D01*
X149375000Y-119498665D01*
X149319853Y-119221426D01*
X149211680Y-118960273D01*
X149054637Y-118725241D01*
X148854759Y-118525363D01*
X148622241Y-118370000D01*
X148854759Y-118214637D01*
X149054637Y-118014759D01*
X149211680Y-117779727D01*
X149319853Y-117518574D01*
X149375000Y-117241335D01*
X149375000Y-116958665D01*
X149319853Y-116681426D01*
X149211680Y-116420273D01*
X149054637Y-116185241D01*
X148854759Y-115985363D01*
X148622241Y-115830000D01*
X148854759Y-115674637D01*
X149054637Y-115474759D01*
X149211680Y-115239727D01*
X149319853Y-114978574D01*
X149375000Y-114701335D01*
X149375000Y-114418665D01*
X149319853Y-114141426D01*
X149211680Y-113880273D01*
X149054637Y-113645241D01*
X148854759Y-113445363D01*
X148622241Y-113290000D01*
X148854759Y-113134637D01*
X149054637Y-112934759D01*
X149211680Y-112699727D01*
X149319853Y-112438574D01*
X149375000Y-112161335D01*
X149375000Y-111878665D01*
X149319853Y-111601426D01*
X149211680Y-111340273D01*
X149054637Y-111105241D01*
X148854759Y-110905363D01*
X148622241Y-110750000D01*
X148854759Y-110594637D01*
X149054637Y-110394759D01*
X149211680Y-110159727D01*
X149319853Y-109898574D01*
X149375000Y-109621335D01*
X149375000Y-109338665D01*
X149319853Y-109061426D01*
X149211680Y-108800273D01*
X149054637Y-108565241D01*
X148854759Y-108365363D01*
X148622241Y-108210000D01*
X148854759Y-108054637D01*
X149054637Y-107854759D01*
X149211680Y-107619727D01*
X149319853Y-107358574D01*
X149375000Y-107081335D01*
X149375000Y-106798665D01*
X149319853Y-106521426D01*
X149211680Y-106260273D01*
X149054637Y-106025241D01*
X148854759Y-105825363D01*
X148622241Y-105670000D01*
X148854759Y-105514637D01*
X149054637Y-105314759D01*
X149211680Y-105079727D01*
X149319853Y-104818574D01*
X149375000Y-104541335D01*
X149375000Y-104258665D01*
X149319853Y-103981426D01*
X149211680Y-103720273D01*
X149054637Y-103485241D01*
X148854759Y-103285363D01*
X148622241Y-103130000D01*
X148854759Y-102974637D01*
X149054637Y-102774759D01*
X149211680Y-102539727D01*
X149319853Y-102278574D01*
X149375000Y-102001335D01*
X149375000Y-101718665D01*
X149319853Y-101441426D01*
X149211680Y-101180273D01*
X149054637Y-100945241D01*
X148854759Y-100745363D01*
X148622241Y-100590000D01*
X148854759Y-100434637D01*
X149054637Y-100234759D01*
X149211680Y-99999727D01*
X149319853Y-99738574D01*
X149375000Y-99461335D01*
X149375000Y-99178665D01*
X149319853Y-98901426D01*
X149211680Y-98640273D01*
X149054637Y-98405241D01*
X148854759Y-98205363D01*
X148622241Y-98050000D01*
X148854759Y-97894637D01*
X149054637Y-97694759D01*
X149211680Y-97459727D01*
X149319853Y-97198574D01*
X149375000Y-96921335D01*
X149375000Y-96638665D01*
X149319853Y-96361426D01*
X149211680Y-96100273D01*
X149054637Y-95865241D01*
X148854759Y-95665363D01*
X148619727Y-95508320D01*
X148609135Y-95503933D01*
X148795131Y-95392385D01*
X149003519Y-95203414D01*
X149171037Y-94977420D01*
X149291246Y-94723087D01*
X149331904Y-94589039D01*
X149209915Y-94367000D01*
X148067000Y-94367000D01*
X148067000Y-94387000D01*
X147813000Y-94387000D01*
X147813000Y-94367000D01*
X146670085Y-94367000D01*
X146548096Y-94589039D01*
X146588754Y-94723087D01*
X146708963Y-94977420D01*
X146876481Y-95203414D01*
X147084869Y-95392385D01*
X147270865Y-95503933D01*
X147260273Y-95508320D01*
X147025241Y-95665363D01*
X146825363Y-95865241D01*
X146668320Y-96100273D01*
X146560147Y-96361426D01*
X146505000Y-96638665D01*
X134135000Y-96638665D01*
X134079853Y-96361426D01*
X133971680Y-96100273D01*
X133814637Y-95865241D01*
X133614759Y-95665363D01*
X133382241Y-95510000D01*
X133614759Y-95354637D01*
X133814637Y-95154759D01*
X133971680Y-94919727D01*
X134079853Y-94658574D01*
X134135000Y-94381335D01*
X134135000Y-94098665D01*
X134079853Y-93821426D01*
X133971680Y-93560273D01*
X133814637Y-93325241D01*
X133616039Y-93126643D01*
X133624482Y-93125812D01*
X133744180Y-93089502D01*
X133854494Y-93030537D01*
X133951185Y-92951185D01*
X134030537Y-92854494D01*
X134089502Y-92744180D01*
X134125812Y-92624482D01*
X134138072Y-92500000D01*
X134138072Y-91558665D01*
X146505000Y-91558665D01*
X146505000Y-91841335D01*
X146560147Y-92118574D01*
X146668320Y-92379727D01*
X146825363Y-92614759D01*
X147025241Y-92814637D01*
X147260273Y-92971680D01*
X147270865Y-92976067D01*
X147084869Y-93087615D01*
X146876481Y-93276586D01*
X146708963Y-93502580D01*
X146588754Y-93756913D01*
X146548096Y-93890961D01*
X146670085Y-94113000D01*
X147813000Y-94113000D01*
X147813000Y-94093000D01*
X148067000Y-94093000D01*
X148067000Y-94113000D01*
X149209915Y-94113000D01*
X149331904Y-93890961D01*
X149291246Y-93756913D01*
X149171037Y-93502580D01*
X149003519Y-93276586D01*
X148795131Y-93087615D01*
X148609135Y-92976067D01*
X148619727Y-92971680D01*
X148854759Y-92814637D01*
X149054637Y-92614759D01*
X149211680Y-92379727D01*
X149319853Y-92118574D01*
X149375000Y-91841335D01*
X149375000Y-91558665D01*
X149319853Y-91281426D01*
X149211680Y-91020273D01*
X149054637Y-90785241D01*
X148854759Y-90585363D01*
X148619727Y-90428320D01*
X148358574Y-90320147D01*
X148081335Y-90265000D01*
X147798665Y-90265000D01*
X147521426Y-90320147D01*
X147260273Y-90428320D01*
X147025241Y-90585363D01*
X146825363Y-90785241D01*
X146668320Y-91020273D01*
X146560147Y-91281426D01*
X146505000Y-91558665D01*
X134138072Y-91558665D01*
X134138072Y-90900000D01*
X134125812Y-90775518D01*
X134089502Y-90655820D01*
X134030537Y-90545506D01*
X133951185Y-90448815D01*
X133854494Y-90369463D01*
X133744180Y-90310498D01*
X133624482Y-90274188D01*
X133500000Y-90261928D01*
X131900000Y-90261928D01*
X131775518Y-90274188D01*
X131655820Y-90310498D01*
X131545506Y-90369463D01*
X131448815Y-90448815D01*
X131369463Y-90545506D01*
X131310498Y-90655820D01*
X131274188Y-90775518D01*
X131261928Y-90900000D01*
X122530882Y-90900000D01*
X122528913Y-90895127D01*
X122524423Y-90886682D01*
X122431598Y-90715006D01*
X122396878Y-90663532D01*
X122362883Y-90611582D01*
X122356838Y-90604170D01*
X122232435Y-90453793D01*
X122188362Y-90410027D01*
X122144943Y-90365689D01*
X122137574Y-90359592D01*
X121986332Y-90236242D01*
X121934614Y-90201881D01*
X121883393Y-90166809D01*
X121874980Y-90162260D01*
X121702657Y-90070635D01*
X121645261Y-90046978D01*
X121588193Y-90022519D01*
X121579057Y-90019690D01*
X121392220Y-89963281D01*
X121331302Y-89951219D01*
X121270590Y-89938314D01*
X121261078Y-89937314D01*
X121066845Y-89918269D01*
X121066837Y-89918269D01*
X121033647Y-89915000D01*
X111666353Y-89915000D01*
X111637045Y-89917887D01*
X111630933Y-89917844D01*
X111621415Y-89918777D01*
X111427318Y-89939178D01*
X111366504Y-89951661D01*
X111305519Y-89963295D01*
X111296363Y-89966059D01*
X111109925Y-90023771D01*
X111052692Y-90047830D01*
X110995127Y-90071087D01*
X110986682Y-90075577D01*
X110815006Y-90168402D01*
X110763532Y-90203122D01*
X110711582Y-90237117D01*
X110704170Y-90243162D01*
X110553793Y-90367565D01*
X110510027Y-90411638D01*
X110465689Y-90455057D01*
X110459592Y-90462426D01*
X110336242Y-90613668D01*
X110301881Y-90665386D01*
X110266809Y-90716607D01*
X110262260Y-90725020D01*
X110170635Y-90897343D01*
X110146978Y-90954739D01*
X110122519Y-91011807D01*
X110119690Y-91020943D01*
X110063281Y-91207780D01*
X110051219Y-91268698D01*
X110038314Y-91329410D01*
X110037314Y-91338922D01*
X110018269Y-91533155D01*
X110018269Y-91533173D01*
X110015001Y-91566353D01*
X110015000Y-130633646D01*
X101860923Y-130633646D01*
X101912552Y-130509004D01*
X101971541Y-130212445D01*
X101971541Y-129910077D01*
X101912552Y-129613518D01*
X101796840Y-129334166D01*
X101628853Y-129082756D01*
X101415046Y-128868949D01*
X101163636Y-128700962D01*
X100884284Y-128585250D01*
X100703088Y-128549208D01*
X100688879Y-128359215D01*
X100005800Y-128076274D01*
X99658274Y-127728748D01*
X99478666Y-127908356D01*
X99509121Y-127938811D01*
X99054583Y-129036162D01*
X99178881Y-129180556D01*
X99076242Y-129334166D01*
X98960530Y-129613518D01*
X98901541Y-129910077D01*
X95355211Y-129910077D01*
X95238594Y-129652092D01*
X94517371Y-127781159D01*
X97923535Y-127781159D01*
X97966128Y-128080513D01*
X98066304Y-128365805D01*
X98220213Y-128626072D01*
X98421940Y-128851312D01*
X98553060Y-128958919D01*
X98819917Y-128938961D01*
X99298592Y-127783339D01*
X98142970Y-127304665D01*
X97940161Y-127479248D01*
X97923535Y-127781159D01*
X94517371Y-127781159D01*
X94244208Y-127072546D01*
X93582516Y-125016284D01*
X96755232Y-125016284D01*
X96772300Y-125189578D01*
X96822848Y-125356211D01*
X97320184Y-126556885D01*
X97402269Y-126710456D01*
X97512737Y-126845061D01*
X97647343Y-126955529D01*
X97800913Y-127037614D01*
X97967547Y-127088162D01*
X98140840Y-127105230D01*
X98289805Y-127090558D01*
X98923250Y-127352940D01*
X99270776Y-127700466D01*
X99325367Y-127645875D01*
X99630458Y-127645875D01*
X100786080Y-128124549D01*
X100988889Y-127949966D01*
X101005515Y-127648055D01*
X100962922Y-127348701D01*
X100862746Y-127063409D01*
X100708837Y-126803142D01*
X100507110Y-126577902D01*
X100375990Y-126470295D01*
X100109133Y-126490253D01*
X99630458Y-127645875D01*
X99325367Y-127645875D01*
X99450384Y-127520858D01*
X99419929Y-127490403D01*
X99853908Y-126442685D01*
X99969617Y-126347725D01*
X100080085Y-126213119D01*
X100162170Y-126059549D01*
X100212718Y-125892915D01*
X100229786Y-125719622D01*
X100212718Y-125546328D01*
X100162170Y-125379695D01*
X99664834Y-124179021D01*
X99582749Y-124025450D01*
X99472281Y-123890845D01*
X99337675Y-123780377D01*
X99184105Y-123698292D01*
X99017471Y-123647744D01*
X98844178Y-123630676D01*
X98670884Y-123647744D01*
X98504251Y-123698292D01*
X97303577Y-124195628D01*
X97150006Y-124277713D01*
X97015401Y-124388181D01*
X96904933Y-124522787D01*
X96822848Y-124676357D01*
X96772300Y-124842991D01*
X96755232Y-125016284D01*
X93582516Y-125016284D01*
X93397353Y-124440875D01*
X92700742Y-121765507D01*
X92156605Y-119055014D01*
X91766686Y-116318077D01*
X91532234Y-113563465D01*
X91521628Y-113188816D01*
X94565000Y-113188816D01*
X94565000Y-113491184D01*
X94623989Y-113787743D01*
X94739701Y-114067095D01*
X94907688Y-114318505D01*
X95121495Y-114532312D01*
X95372905Y-114700299D01*
X95652257Y-114816011D01*
X95948816Y-114875000D01*
X96251184Y-114875000D01*
X96547743Y-114816011D01*
X96827095Y-114700299D01*
X97078505Y-114532312D01*
X97292312Y-114318505D01*
X97460299Y-114067095D01*
X97576011Y-113787743D01*
X97635000Y-113491184D01*
X97635000Y-113188816D01*
X97576011Y-112892257D01*
X97460299Y-112612905D01*
X97292312Y-112361495D01*
X97078505Y-112147688D01*
X96924895Y-112045049D01*
X96984475Y-111864080D01*
X96100000Y-110979605D01*
X95215525Y-111864080D01*
X95275105Y-112045049D01*
X95121495Y-112147688D01*
X94907688Y-112361495D01*
X94739701Y-112612905D01*
X94623989Y-112892257D01*
X94565000Y-113188816D01*
X91521628Y-113188816D01*
X91455885Y-110866553D01*
X94559009Y-110866553D01*
X94601603Y-111165907D01*
X94701778Y-111451199D01*
X94781739Y-111600792D01*
X95035920Y-111684475D01*
X95920395Y-110800000D01*
X96279605Y-110800000D01*
X97164080Y-111684475D01*
X97418261Y-111600792D01*
X97549158Y-111328225D01*
X97624365Y-111035358D01*
X97640991Y-110733447D01*
X97606313Y-110489721D01*
X103065000Y-110489721D01*
X103065000Y-110910279D01*
X103147047Y-111322756D01*
X103307988Y-111711302D01*
X103541637Y-112060983D01*
X103839017Y-112358363D01*
X104188698Y-112592012D01*
X104577244Y-112752953D01*
X104989721Y-112835000D01*
X105410279Y-112835000D01*
X105822756Y-112752953D01*
X106211302Y-112592012D01*
X106560983Y-112358363D01*
X106858363Y-112060983D01*
X107092012Y-111711302D01*
X107252953Y-111322756D01*
X107335000Y-110910279D01*
X107335000Y-110489721D01*
X107252953Y-110077244D01*
X107092012Y-109688698D01*
X106858363Y-109339017D01*
X106560983Y-109041637D01*
X106211302Y-108807988D01*
X105822756Y-108647047D01*
X105410279Y-108565000D01*
X104989721Y-108565000D01*
X104577244Y-108647047D01*
X104188698Y-108807988D01*
X103839017Y-109041637D01*
X103541637Y-109339017D01*
X103307988Y-109688698D01*
X103147047Y-110077244D01*
X103065000Y-110489721D01*
X97606313Y-110489721D01*
X97598397Y-110434093D01*
X97498222Y-110148801D01*
X97418261Y-109999208D01*
X97164080Y-109915525D01*
X96279605Y-110800000D01*
X95920395Y-110800000D01*
X95035920Y-109915525D01*
X94781739Y-109999208D01*
X94650842Y-110271775D01*
X94575635Y-110564642D01*
X94559009Y-110866553D01*
X91455885Y-110866553D01*
X91454000Y-110800000D01*
X91532234Y-108036535D01*
X91568520Y-107610200D01*
X94561928Y-107610200D01*
X94561928Y-108909800D01*
X94578996Y-109083093D01*
X94629544Y-109249727D01*
X94711629Y-109403297D01*
X94822097Y-109537903D01*
X94956703Y-109648371D01*
X95110273Y-109730456D01*
X95253512Y-109773907D01*
X96100000Y-110620395D01*
X96946488Y-109773907D01*
X97089727Y-109730456D01*
X97243297Y-109648371D01*
X97377903Y-109537903D01*
X97488371Y-109403297D01*
X97570456Y-109249727D01*
X97621004Y-109083093D01*
X97638072Y-108909800D01*
X97638072Y-107610200D01*
X97621004Y-107436907D01*
X97570456Y-107270273D01*
X97488371Y-107116703D01*
X97377903Y-106982097D01*
X97243297Y-106871629D01*
X97089727Y-106789544D01*
X96923093Y-106738996D01*
X96749800Y-106721928D01*
X95450200Y-106721928D01*
X95276907Y-106738996D01*
X95110273Y-106789544D01*
X94956703Y-106871629D01*
X94822097Y-106982097D01*
X94711629Y-107116703D01*
X94629544Y-107270273D01*
X94578996Y-107436907D01*
X94561928Y-107610200D01*
X91568520Y-107610200D01*
X91766686Y-105281923D01*
X92156605Y-102544986D01*
X92700742Y-99834493D01*
X93397353Y-97159125D01*
X93744330Y-96080863D01*
X96957509Y-96080863D01*
X96957509Y-96383231D01*
X97016498Y-96679790D01*
X97132210Y-96959142D01*
X97300197Y-97210552D01*
X97514004Y-97424359D01*
X97765414Y-97592346D01*
X98044766Y-97708058D01*
X98341325Y-97767047D01*
X98643693Y-97767047D01*
X98940252Y-97708058D01*
X99219604Y-97592346D01*
X99471014Y-97424359D01*
X99684821Y-97210552D01*
X99852808Y-96959142D01*
X99968520Y-96679790D01*
X100027509Y-96383231D01*
X100027509Y-96080863D01*
X99968520Y-95784304D01*
X99852808Y-95504952D01*
X99750169Y-95351342D01*
X99874467Y-95206948D01*
X99419929Y-94109597D01*
X99450384Y-94079142D01*
X99325367Y-93954125D01*
X99630458Y-93954125D01*
X100109133Y-95109747D01*
X100375990Y-95129705D01*
X100601230Y-94927978D01*
X100782786Y-94686185D01*
X100913683Y-94413618D01*
X100988890Y-94120751D01*
X101005516Y-93818840D01*
X100988889Y-93650034D01*
X100786080Y-93475451D01*
X99630458Y-93954125D01*
X99325367Y-93954125D01*
X99270776Y-93899534D01*
X98923250Y-94247060D01*
X98240171Y-94530001D01*
X98225962Y-94719994D01*
X98044766Y-94756036D01*
X97765414Y-94871748D01*
X97514004Y-95039735D01*
X97300197Y-95253542D01*
X97132210Y-95504952D01*
X97016498Y-95784304D01*
X96957509Y-96080863D01*
X93744330Y-96080863D01*
X94244208Y-94527454D01*
X94466059Y-93951946D01*
X97923534Y-93951946D01*
X97940161Y-94120752D01*
X98142970Y-94295335D01*
X99298592Y-93816661D01*
X98819917Y-92661039D01*
X98553060Y-92641081D01*
X98327820Y-92842808D01*
X98146264Y-93084601D01*
X98015367Y-93357168D01*
X97940160Y-93650035D01*
X97923534Y-93951946D01*
X94466059Y-93951946D01*
X95238594Y-91947908D01*
X95264585Y-91890408D01*
X98699264Y-91890408D01*
X98716332Y-92063701D01*
X98766880Y-92230335D01*
X98848965Y-92383905D01*
X98959433Y-92518511D01*
X99075142Y-92613471D01*
X99509121Y-93661189D01*
X99478666Y-93691644D01*
X99658274Y-93871252D01*
X100005800Y-93523726D01*
X100639245Y-93261344D01*
X100788210Y-93276016D01*
X100961503Y-93258948D01*
X101128137Y-93208400D01*
X101281707Y-93126315D01*
X101416313Y-93015847D01*
X101526781Y-92881242D01*
X101608866Y-92727671D01*
X102106202Y-91526997D01*
X102156750Y-91360364D01*
X102173818Y-91187070D01*
X102156750Y-91013777D01*
X102106202Y-90847143D01*
X102024117Y-90693573D01*
X101913649Y-90558967D01*
X101779044Y-90448499D01*
X101625473Y-90366414D01*
X100424799Y-89869078D01*
X100258166Y-89818530D01*
X100084872Y-89801462D01*
X99911579Y-89818530D01*
X99744945Y-89869078D01*
X99591375Y-89951163D01*
X99456769Y-90061631D01*
X99346301Y-90196236D01*
X99264216Y-90349807D01*
X98766880Y-91550481D01*
X98716332Y-91717114D01*
X98699264Y-91890408D01*
X95264585Y-91890408D01*
X96377324Y-89428751D01*
X97656753Y-86978053D01*
X99072780Y-84603663D01*
X99893261Y-83389721D01*
X114565000Y-83389721D01*
X114565000Y-83810279D01*
X114647047Y-84222756D01*
X114807988Y-84611302D01*
X115041637Y-84960983D01*
X115339017Y-85258363D01*
X115688698Y-85492012D01*
X116077244Y-85652953D01*
X116489721Y-85735000D01*
X116910279Y-85735000D01*
X117322756Y-85652953D01*
X117711302Y-85492012D01*
X118060983Y-85258363D01*
X118358363Y-84960983D01*
X118592012Y-84611302D01*
X118752953Y-84222756D01*
X118835000Y-83810279D01*
X118835000Y-83389721D01*
X118752953Y-82977244D01*
X118592012Y-82588698D01*
X118358363Y-82239017D01*
X118060983Y-81941637D01*
X117711302Y-81707988D01*
X117322756Y-81547047D01*
X116910279Y-81465000D01*
X116489721Y-81465000D01*
X116077244Y-81547047D01*
X115688698Y-81707988D01*
X115339017Y-81941637D01*
X115041637Y-82239017D01*
X114807988Y-82588698D01*
X114647047Y-82977244D01*
X114565000Y-83389721D01*
X99893261Y-83389721D01*
X100620871Y-82313189D01*
X101475858Y-81190748D01*
X105714830Y-81190748D01*
X105714830Y-81493116D01*
X105773819Y-81789675D01*
X105889531Y-82069027D01*
X106057518Y-82320437D01*
X106271325Y-82534244D01*
X106522735Y-82702231D01*
X106802087Y-82817943D01*
X107098646Y-82876932D01*
X107401014Y-82876932D01*
X107697573Y-82817943D01*
X107976925Y-82702231D01*
X108228335Y-82534244D01*
X108442142Y-82320437D01*
X108610129Y-82069027D01*
X108725841Y-81789675D01*
X108784830Y-81493116D01*
X108784830Y-81190748D01*
X108748788Y-81009552D01*
X108918881Y-80923717D01*
X108918881Y-79852489D01*
X109031740Y-79739630D01*
X108964991Y-79672881D01*
X109172881Y-79672881D01*
X109172881Y-80923717D01*
X109411787Y-81044278D01*
X109697079Y-80944102D01*
X109957346Y-80790193D01*
X110182586Y-80588466D01*
X110364143Y-80346673D01*
X110495040Y-80074106D01*
X110544278Y-79911787D01*
X110423717Y-79672881D01*
X109172881Y-79672881D01*
X108964991Y-79672881D01*
X108852132Y-79560022D01*
X108739273Y-79672881D01*
X107668045Y-79672881D01*
X107582210Y-79842974D01*
X107401014Y-79806932D01*
X107098646Y-79806932D01*
X106802087Y-79865921D01*
X106522735Y-79981633D01*
X106271325Y-80149620D01*
X106057518Y-80363427D01*
X105889531Y-80614837D01*
X105773819Y-80894189D01*
X105714830Y-81190748D01*
X101475858Y-81190748D01*
X102296066Y-80113966D01*
X103094912Y-79179975D01*
X107547484Y-79179975D01*
X107668045Y-79418881D01*
X108918881Y-79418881D01*
X108918881Y-78168045D01*
X108679975Y-78047484D01*
X108394683Y-78147660D01*
X108134416Y-78301569D01*
X107909176Y-78503296D01*
X107727619Y-78745089D01*
X107596722Y-79017656D01*
X107547484Y-79179975D01*
X103094912Y-79179975D01*
X104092998Y-78013040D01*
X104345264Y-77749830D01*
X109034704Y-77749830D01*
X109051772Y-77923123D01*
X109102320Y-78089757D01*
X109172881Y-78221767D01*
X109172881Y-79239273D01*
X109060022Y-79352132D01*
X109239630Y-79531740D01*
X109352489Y-79418881D01*
X110369995Y-79418881D01*
X110502005Y-79489442D01*
X110668639Y-79539990D01*
X110841932Y-79557058D01*
X111015225Y-79539990D01*
X111181859Y-79489442D01*
X111335429Y-79407357D01*
X111470035Y-79296889D01*
X112388991Y-78377933D01*
X112499459Y-78243327D01*
X112581544Y-78089757D01*
X112632092Y-77923123D01*
X112649160Y-77749830D01*
X112632092Y-77576537D01*
X112581544Y-77409903D01*
X112499459Y-77256333D01*
X112388991Y-77121727D01*
X111470035Y-76202771D01*
X111335429Y-76092303D01*
X111181859Y-76010218D01*
X111015225Y-75959670D01*
X110841932Y-75942602D01*
X110668639Y-75959670D01*
X110502005Y-76010218D01*
X110348435Y-76092303D01*
X110213829Y-76202771D01*
X109294873Y-77121727D01*
X109184405Y-77256333D01*
X109102320Y-77409903D01*
X109051772Y-77576537D01*
X109034704Y-77749830D01*
X104345264Y-77749830D01*
X106005913Y-76017140D01*
X106597117Y-75466354D01*
X126515000Y-75466354D01*
X126515001Y-84533647D01*
X126517887Y-84562945D01*
X126517844Y-84569066D01*
X126518777Y-84578585D01*
X126539178Y-84772682D01*
X126551661Y-84833496D01*
X126563295Y-84894481D01*
X126566059Y-84903637D01*
X126623771Y-85090075D01*
X126647818Y-85147279D01*
X126671087Y-85204873D01*
X126675577Y-85213317D01*
X126768402Y-85384994D01*
X126803122Y-85436468D01*
X126837117Y-85488418D01*
X126843161Y-85495829D01*
X126967565Y-85646207D01*
X127011638Y-85689973D01*
X127055057Y-85734311D01*
X127062426Y-85740408D01*
X127213668Y-85863758D01*
X127265397Y-85898126D01*
X127316608Y-85933191D01*
X127325016Y-85937737D01*
X127325020Y-85937740D01*
X127325024Y-85937742D01*
X127497343Y-86029366D01*
X127554739Y-86053022D01*
X127611807Y-86077482D01*
X127620944Y-86080310D01*
X127807780Y-86136719D01*
X127868690Y-86148780D01*
X127929409Y-86161686D01*
X127938921Y-86162686D01*
X128133155Y-86181731D01*
X128133163Y-86181731D01*
X128166353Y-86185000D01*
X151933647Y-86185000D01*
X151963020Y-86182107D01*
X151969761Y-86182154D01*
X151979279Y-86181221D01*
X152192786Y-86158781D01*
X152253620Y-86146294D01*
X152314592Y-86134662D01*
X152323748Y-86131898D01*
X152528829Y-86068414D01*
X152586096Y-86044341D01*
X152643624Y-86021098D01*
X152652067Y-86016609D01*
X152652072Y-86016607D01*
X152652077Y-86016604D01*
X152840914Y-85914501D01*
X152892369Y-85879794D01*
X152944334Y-85845789D01*
X152951746Y-85839744D01*
X153117161Y-85702901D01*
X153160911Y-85658845D01*
X153205269Y-85615406D01*
X153211366Y-85608037D01*
X153347051Y-85441670D01*
X153381422Y-85389936D01*
X153416482Y-85338733D01*
X153421032Y-85330320D01*
X153521819Y-85140766D01*
X153545462Y-85083405D01*
X153569936Y-85026301D01*
X153572765Y-85017164D01*
X153634815Y-84811645D01*
X153646877Y-84750729D01*
X153659782Y-84690013D01*
X153660782Y-84680501D01*
X153681731Y-84466843D01*
X153681731Y-84466837D01*
X153685000Y-84433647D01*
X153685000Y-83406721D01*
X159541000Y-83406721D01*
X159541000Y-83827279D01*
X159623047Y-84239756D01*
X159783988Y-84628302D01*
X160017637Y-84977983D01*
X160315017Y-85275363D01*
X160664698Y-85509012D01*
X161053244Y-85669953D01*
X161465721Y-85752000D01*
X161886279Y-85752000D01*
X162298756Y-85669953D01*
X162687302Y-85509012D01*
X163036983Y-85275363D01*
X163334363Y-84977983D01*
X163568012Y-84628302D01*
X163728953Y-84239756D01*
X163811000Y-83827279D01*
X163811000Y-83406721D01*
X163728953Y-82994244D01*
X163568012Y-82605698D01*
X163334363Y-82256017D01*
X163036983Y-81958637D01*
X162687302Y-81724988D01*
X162298756Y-81564047D01*
X161886279Y-81482000D01*
X161465721Y-81482000D01*
X161053244Y-81564047D01*
X160664698Y-81724988D01*
X160315017Y-81958637D01*
X160017637Y-82256017D01*
X159783988Y-82605698D01*
X159623047Y-82994244D01*
X159541000Y-83406721D01*
X153685000Y-83406721D01*
X153685000Y-81141191D01*
X171713177Y-81141191D01*
X171730245Y-81314484D01*
X171780793Y-81481118D01*
X171862878Y-81634688D01*
X171973346Y-81769294D01*
X172892302Y-82688250D01*
X173026908Y-82798718D01*
X173180478Y-82880803D01*
X173347112Y-82931351D01*
X173520405Y-82948419D01*
X173693698Y-82931351D01*
X173860332Y-82880803D01*
X174013902Y-82798718D01*
X174148508Y-82688250D01*
X175067464Y-81769294D01*
X175177932Y-81634688D01*
X175260017Y-81481118D01*
X175310565Y-81314484D01*
X175327633Y-81141191D01*
X175310565Y-80967898D01*
X175260017Y-80801264D01*
X175177932Y-80647694D01*
X175067464Y-80513088D01*
X174148508Y-79594132D01*
X174013902Y-79483664D01*
X173860332Y-79401579D01*
X173693698Y-79351031D01*
X173520405Y-79333963D01*
X173347112Y-79351031D01*
X173180478Y-79401579D01*
X173048468Y-79472140D01*
X172030962Y-79472140D01*
X171918103Y-79359281D01*
X171738495Y-79538889D01*
X171851354Y-79651748D01*
X171851354Y-80669254D01*
X171780793Y-80801264D01*
X171730245Y-80967898D01*
X171713177Y-81141191D01*
X153685000Y-81141191D01*
X153685000Y-79711046D01*
X170225957Y-79711046D01*
X170326133Y-79996338D01*
X170480042Y-80256605D01*
X170681769Y-80481845D01*
X170923562Y-80663402D01*
X171196129Y-80794299D01*
X171358448Y-80843537D01*
X171597354Y-80722976D01*
X171597354Y-79472140D01*
X170346518Y-79472140D01*
X170225957Y-79711046D01*
X153685000Y-79711046D01*
X153685000Y-77397905D01*
X168393303Y-77397905D01*
X168393303Y-77700273D01*
X168452292Y-77996832D01*
X168568004Y-78276184D01*
X168735991Y-78527594D01*
X168949798Y-78741401D01*
X169201208Y-78909388D01*
X169480560Y-79025100D01*
X169777119Y-79084089D01*
X170079487Y-79084089D01*
X170260683Y-79048047D01*
X170346518Y-79218140D01*
X171417746Y-79218140D01*
X171530605Y-79330999D01*
X171710213Y-79151391D01*
X171597354Y-79038532D01*
X171597354Y-77967304D01*
X171851354Y-77967304D01*
X171851354Y-79218140D01*
X173102190Y-79218140D01*
X173222751Y-78979234D01*
X173122575Y-78693942D01*
X172968666Y-78433675D01*
X172766939Y-78208435D01*
X172525146Y-78026878D01*
X172252579Y-77895981D01*
X172090260Y-77846743D01*
X171851354Y-77967304D01*
X171597354Y-77967304D01*
X171427261Y-77881469D01*
X171463303Y-77700273D01*
X171463303Y-77397905D01*
X171404314Y-77101346D01*
X171288602Y-76821994D01*
X171120615Y-76570584D01*
X170906808Y-76356777D01*
X170655398Y-76188790D01*
X170376046Y-76073078D01*
X170079487Y-76014089D01*
X169777119Y-76014089D01*
X169480560Y-76073078D01*
X169201208Y-76188790D01*
X168949798Y-76356777D01*
X168735991Y-76570584D01*
X168568004Y-76821994D01*
X168452292Y-77101346D01*
X168393303Y-77397905D01*
X153685000Y-77397905D01*
X153685000Y-75466353D01*
X153682113Y-75437045D01*
X153682156Y-75430933D01*
X153681223Y-75421415D01*
X153660822Y-75227318D01*
X153648339Y-75166504D01*
X153636705Y-75105519D01*
X153633941Y-75096363D01*
X153576229Y-74909925D01*
X153552170Y-74852692D01*
X153528913Y-74795127D01*
X153524423Y-74786682D01*
X153431598Y-74615006D01*
X153396878Y-74563532D01*
X153362883Y-74511582D01*
X153356838Y-74504170D01*
X153232435Y-74353793D01*
X153188362Y-74310027D01*
X153144943Y-74265689D01*
X153137574Y-74259592D01*
X152986332Y-74136242D01*
X152934614Y-74101881D01*
X152883393Y-74066809D01*
X152874980Y-74062260D01*
X152702657Y-73970635D01*
X152645261Y-73946978D01*
X152588193Y-73922519D01*
X152579057Y-73919690D01*
X152392220Y-73863281D01*
X152331302Y-73851219D01*
X152270590Y-73838314D01*
X152261078Y-73837314D01*
X152066845Y-73818269D01*
X152066837Y-73818269D01*
X152033647Y-73815000D01*
X128166353Y-73815000D01*
X128137045Y-73817887D01*
X128130933Y-73817844D01*
X128121415Y-73818777D01*
X127927318Y-73839178D01*
X127866504Y-73851661D01*
X127805519Y-73863295D01*
X127796363Y-73866059D01*
X127609925Y-73923771D01*
X127552692Y-73947830D01*
X127495127Y-73971087D01*
X127486682Y-73975577D01*
X127315006Y-74068402D01*
X127263532Y-74103122D01*
X127211582Y-74137117D01*
X127204170Y-74143162D01*
X127053793Y-74267565D01*
X127010027Y-74311638D01*
X126965689Y-74355057D01*
X126959592Y-74362426D01*
X126836242Y-74513668D01*
X126801881Y-74565386D01*
X126766809Y-74616607D01*
X126762260Y-74625020D01*
X126670635Y-74797343D01*
X126646978Y-74854739D01*
X126622519Y-74911807D01*
X126619690Y-74920943D01*
X126563281Y-75107780D01*
X126551219Y-75168698D01*
X126538314Y-75229410D01*
X126537314Y-75238922D01*
X126518269Y-75433155D01*
X126518269Y-75433164D01*
X126515000Y-75466354D01*
X106597117Y-75466354D01*
X108028682Y-74132661D01*
X110154826Y-72365637D01*
X112291505Y-70785357D01*
X119503739Y-70785357D01*
X119503739Y-71087725D01*
X119562728Y-71384284D01*
X119678440Y-71663636D01*
X119846427Y-71915046D01*
X120060234Y-72128853D01*
X120311644Y-72296840D01*
X120590996Y-72412552D01*
X120887555Y-72471541D01*
X121189923Y-72471541D01*
X121486482Y-72412552D01*
X121765834Y-72296840D01*
X122017244Y-72128853D01*
X122231051Y-71915046D01*
X122399038Y-71663636D01*
X122514750Y-71384284D01*
X122534283Y-71286080D01*
X122975451Y-71286080D01*
X123150034Y-71488889D01*
X123451945Y-71505515D01*
X123751299Y-71462922D01*
X124036591Y-71362746D01*
X124296858Y-71208837D01*
X124522098Y-71007110D01*
X124629705Y-70875990D01*
X155970295Y-70875990D01*
X156172022Y-71101230D01*
X156413815Y-71282786D01*
X156686382Y-71413683D01*
X156979249Y-71488890D01*
X157281160Y-71505516D01*
X157449966Y-71488889D01*
X157624549Y-71286080D01*
X157157397Y-70158274D01*
X157228748Y-70158274D01*
X157576274Y-70505800D01*
X157838656Y-71139245D01*
X157823984Y-71288210D01*
X157841052Y-71461503D01*
X157891600Y-71628137D01*
X157973685Y-71781707D01*
X158084153Y-71916313D01*
X158218758Y-72026781D01*
X158372329Y-72108866D01*
X159573003Y-72606202D01*
X159739636Y-72656750D01*
X159912930Y-72673818D01*
X160086223Y-72656750D01*
X160252857Y-72606202D01*
X160406427Y-72524117D01*
X160541033Y-72413649D01*
X160651501Y-72279044D01*
X160733586Y-72125473D01*
X161230922Y-70924799D01*
X161281470Y-70758166D01*
X161298538Y-70584872D01*
X161281470Y-70411579D01*
X161230922Y-70244945D01*
X161148837Y-70091375D01*
X161038369Y-69956769D01*
X160903764Y-69846301D01*
X160750193Y-69764216D01*
X159549519Y-69266880D01*
X159382886Y-69216332D01*
X159209592Y-69199264D01*
X159036299Y-69216332D01*
X158869665Y-69266880D01*
X158716095Y-69348965D01*
X158581489Y-69459433D01*
X158486529Y-69575142D01*
X157438811Y-70009121D01*
X157408356Y-69978666D01*
X157228748Y-70158274D01*
X157157397Y-70158274D01*
X157145875Y-70130458D01*
X155990253Y-70609133D01*
X155970295Y-70875990D01*
X124629705Y-70875990D01*
X124609747Y-70609133D01*
X123454125Y-70130458D01*
X122975451Y-71286080D01*
X122534283Y-71286080D01*
X122550792Y-71203088D01*
X122740785Y-71188879D01*
X123023726Y-70505800D01*
X123371252Y-70158274D01*
X123191644Y-69978666D01*
X123161189Y-70009121D01*
X122063838Y-69554583D01*
X121919444Y-69678881D01*
X121765834Y-69576242D01*
X121486482Y-69460530D01*
X121189923Y-69401541D01*
X120887555Y-69401541D01*
X120590996Y-69460530D01*
X120311644Y-69576242D01*
X120060234Y-69744229D01*
X119846427Y-69958036D01*
X119678440Y-70209446D01*
X119562728Y-70488798D01*
X119503739Y-70785357D01*
X112291505Y-70785357D01*
X112377534Y-70721731D01*
X114689686Y-69206208D01*
X114954946Y-69053060D01*
X122141081Y-69053060D01*
X122161039Y-69319917D01*
X123316661Y-69798592D01*
X123328182Y-69770776D01*
X123399534Y-69770776D01*
X123579142Y-69950384D01*
X123609597Y-69919929D01*
X124657315Y-70353908D01*
X124752275Y-70469617D01*
X124886881Y-70580085D01*
X125040451Y-70662170D01*
X125207085Y-70712718D01*
X125380378Y-70729786D01*
X125553672Y-70712718D01*
X125720305Y-70662170D01*
X126920979Y-70164834D01*
X127074550Y-70082749D01*
X127209155Y-69972281D01*
X127319623Y-69837675D01*
X127401708Y-69684105D01*
X127452256Y-69517471D01*
X127469324Y-69344178D01*
X127452256Y-69170884D01*
X127401708Y-69004251D01*
X127334222Y-68841325D01*
X153332953Y-68841325D01*
X153332953Y-69143693D01*
X153391942Y-69440252D01*
X153507654Y-69719604D01*
X153675641Y-69971014D01*
X153889448Y-70184821D01*
X154140858Y-70352808D01*
X154420210Y-70468520D01*
X154716769Y-70527509D01*
X155019137Y-70527509D01*
X155315696Y-70468520D01*
X155595048Y-70352808D01*
X155748658Y-70250169D01*
X155893052Y-70374467D01*
X156990403Y-69919929D01*
X157020858Y-69950384D01*
X157200466Y-69770776D01*
X156852940Y-69423250D01*
X156569999Y-68740171D01*
X156380006Y-68725962D01*
X156363498Y-68642970D01*
X156804665Y-68642970D01*
X157283339Y-69798592D01*
X158438961Y-69319917D01*
X158458919Y-69053060D01*
X158257192Y-68827820D01*
X158015399Y-68646264D01*
X157742832Y-68515367D01*
X157449965Y-68440160D01*
X157148054Y-68423534D01*
X156979248Y-68440161D01*
X156804665Y-68642970D01*
X156363498Y-68642970D01*
X156343964Y-68544766D01*
X156228252Y-68265414D01*
X156060265Y-68014004D01*
X155846458Y-67800197D01*
X155595048Y-67632210D01*
X155315696Y-67516498D01*
X155019137Y-67457509D01*
X154716769Y-67457509D01*
X154420210Y-67516498D01*
X154140858Y-67632210D01*
X153889448Y-67800197D01*
X153675641Y-68014004D01*
X153507654Y-68265414D01*
X153391942Y-68544766D01*
X153332953Y-68841325D01*
X127334222Y-68841325D01*
X126904372Y-67803577D01*
X126822287Y-67650006D01*
X126711819Y-67515401D01*
X126577213Y-67404933D01*
X126423643Y-67322848D01*
X126257009Y-67272300D01*
X126083716Y-67255232D01*
X125910422Y-67272300D01*
X125743789Y-67322848D01*
X124543115Y-67820184D01*
X124389544Y-67902269D01*
X124254939Y-68012737D01*
X124144471Y-68147343D01*
X124062386Y-68300913D01*
X124011838Y-68467547D01*
X123994770Y-68640840D01*
X124009442Y-68789805D01*
X123747060Y-69423250D01*
X123399534Y-69770776D01*
X123328182Y-69770776D01*
X123795335Y-68642970D01*
X123620752Y-68440161D01*
X123318841Y-68423535D01*
X123019487Y-68466128D01*
X122734195Y-68566304D01*
X122473928Y-68720213D01*
X122248688Y-68921940D01*
X122141081Y-69053060D01*
X114954946Y-69053060D01*
X117083876Y-67823922D01*
X119552434Y-66579301D01*
X119852335Y-66448816D01*
X136225000Y-66448816D01*
X136225000Y-66751184D01*
X136283989Y-67047743D01*
X136399701Y-67327095D01*
X136567688Y-67578505D01*
X136781495Y-67792312D01*
X137032905Y-67960299D01*
X137312257Y-68076011D01*
X137608816Y-68135000D01*
X137911184Y-68135000D01*
X138207743Y-68076011D01*
X138487095Y-67960299D01*
X138738505Y-67792312D01*
X138866737Y-67664080D01*
X139415525Y-67664080D01*
X139499208Y-67918261D01*
X139771775Y-68049158D01*
X140064642Y-68124365D01*
X140366553Y-68140991D01*
X140665907Y-68098397D01*
X140951199Y-67998222D01*
X141100792Y-67918261D01*
X141184475Y-67664080D01*
X140300000Y-66779605D01*
X139415525Y-67664080D01*
X138866737Y-67664080D01*
X138952312Y-67578505D01*
X139054951Y-67424895D01*
X139235920Y-67484475D01*
X140120395Y-66600000D01*
X140479605Y-66600000D01*
X141326093Y-67446488D01*
X141369544Y-67589727D01*
X141451629Y-67743297D01*
X141562097Y-67877903D01*
X141696703Y-67988371D01*
X141850273Y-68070456D01*
X142016907Y-68121004D01*
X142190200Y-68138072D01*
X143489800Y-68138072D01*
X143663093Y-68121004D01*
X143829727Y-68070456D01*
X143983297Y-67988371D01*
X144117903Y-67877903D01*
X144228371Y-67743297D01*
X144310456Y-67589727D01*
X144361004Y-67423093D01*
X144378072Y-67249800D01*
X144378072Y-65950200D01*
X144361004Y-65776907D01*
X144310456Y-65610273D01*
X144228371Y-65456703D01*
X144117903Y-65322097D01*
X143983297Y-65211629D01*
X143829727Y-65129544D01*
X143663093Y-65078996D01*
X143489800Y-65061928D01*
X142190200Y-65061928D01*
X142016907Y-65078996D01*
X141850273Y-65129544D01*
X141696703Y-65211629D01*
X141562097Y-65322097D01*
X141451629Y-65456703D01*
X141369544Y-65610273D01*
X141326093Y-65753512D01*
X140479605Y-66600000D01*
X140120395Y-66600000D01*
X139235920Y-65715525D01*
X139054951Y-65775105D01*
X138952312Y-65621495D01*
X138866737Y-65535920D01*
X139415525Y-65535920D01*
X140300000Y-66420395D01*
X141184475Y-65535920D01*
X141100792Y-65281739D01*
X140828225Y-65150842D01*
X140535358Y-65075635D01*
X140233447Y-65059009D01*
X139934093Y-65101603D01*
X139648801Y-65201778D01*
X139499208Y-65281739D01*
X139415525Y-65535920D01*
X138866737Y-65535920D01*
X138738505Y-65407688D01*
X138487095Y-65239701D01*
X138207743Y-65123989D01*
X137911184Y-65065000D01*
X137608816Y-65065000D01*
X137312257Y-65123989D01*
X137032905Y-65239701D01*
X136781495Y-65407688D01*
X136567688Y-65621495D01*
X136399701Y-65872905D01*
X136283989Y-66152257D01*
X136225000Y-66448816D01*
X119852335Y-66448816D01*
X122087452Y-65476333D01*
X124680811Y-64518549D01*
X127324203Y-63709020D01*
X130009160Y-63050337D01*
X132727082Y-62544610D01*
X135469262Y-62193460D01*
X138226917Y-61998012D01*
X140991212Y-61958891D01*
X143753293Y-62076223D01*
%TA.AperFunction,Conductor*%
D15*
G36*
X143753293Y-62076223D02*
G01*
X146504312Y-62349631D01*
X149235457Y-62778241D01*
X151937979Y-63360679D01*
X154603221Y-64095080D01*
X157222645Y-64979090D01*
X159787862Y-66009879D01*
X162290652Y-67184144D01*
X164723000Y-68498123D01*
X167077114Y-69947608D01*
X169345452Y-71527956D01*
X171520749Y-73234104D01*
X173596037Y-75060587D01*
X175564667Y-77001554D01*
X177420334Y-79050788D01*
X179157094Y-81201723D01*
X180769382Y-83447472D01*
X182252035Y-85780838D01*
X183600303Y-88194349D01*
X184809867Y-90680272D01*
X185876852Y-93230644D01*
X186797841Y-95837297D01*
X187569884Y-98491880D01*
X188190506Y-101185889D01*
X188657721Y-103910695D01*
X188970032Y-106657570D01*
X189126438Y-109417714D01*
X189126438Y-112182286D01*
X188970032Y-114942430D01*
X188657721Y-117689305D01*
X188190506Y-120414111D01*
X187569884Y-123108120D01*
X186797841Y-125762703D01*
X185876852Y-128369356D01*
X184809867Y-130919728D01*
X183600303Y-133405651D01*
X182252035Y-135819162D01*
X180769382Y-138152528D01*
X179157094Y-140398277D01*
X177420334Y-142549212D01*
X175564667Y-144598446D01*
X173596037Y-146539413D01*
X171520749Y-148365896D01*
X169345452Y-150072044D01*
X167077114Y-151652392D01*
X164723000Y-153101877D01*
X162290652Y-154415856D01*
X159787862Y-155590121D01*
X157222645Y-156620910D01*
X154603221Y-157504920D01*
X151937979Y-158239321D01*
X149235457Y-158821759D01*
X146504312Y-159250369D01*
X143753293Y-159523777D01*
X140991212Y-159641109D01*
X138226917Y-159601988D01*
X135469262Y-159406540D01*
X132727082Y-159055390D01*
X130009160Y-158549663D01*
X127324203Y-157890980D01*
X124680811Y-157081451D01*
X122087452Y-156123667D01*
X119552434Y-155020699D01*
X118222579Y-154350200D01*
X136221928Y-154350200D01*
X136221928Y-155649800D01*
X136238996Y-155823093D01*
X136289544Y-155989727D01*
X136371629Y-156143297D01*
X136482097Y-156277903D01*
X136616703Y-156388371D01*
X136770273Y-156470456D01*
X136936907Y-156521004D01*
X137110200Y-156538072D01*
X138409800Y-156538072D01*
X138583093Y-156521004D01*
X138749727Y-156470456D01*
X138903297Y-156388371D01*
X139037903Y-156277903D01*
X139148371Y-156143297D01*
X139190713Y-156064080D01*
X139415525Y-156064080D01*
X139499208Y-156318261D01*
X139771775Y-156449158D01*
X140064642Y-156524365D01*
X140366553Y-156540991D01*
X140665907Y-156498397D01*
X140951199Y-156398222D01*
X141100792Y-156318261D01*
X141184475Y-156064080D01*
X140300000Y-155179605D01*
X139415525Y-156064080D01*
X139190713Y-156064080D01*
X139230456Y-155989727D01*
X139273907Y-155846488D01*
X140120395Y-155000000D01*
X140479605Y-155000000D01*
X141364080Y-155884475D01*
X141545049Y-155824895D01*
X141647688Y-155978505D01*
X141861495Y-156192312D01*
X142112905Y-156360299D01*
X142392257Y-156476011D01*
X142688816Y-156535000D01*
X142991184Y-156535000D01*
X143287743Y-156476011D01*
X143567095Y-156360299D01*
X143818505Y-156192312D01*
X144032312Y-155978505D01*
X144200299Y-155727095D01*
X144316011Y-155447743D01*
X144375000Y-155151184D01*
X144375000Y-154848816D01*
X144316011Y-154552257D01*
X144200299Y-154272905D01*
X144032312Y-154021495D01*
X143818505Y-153807688D01*
X143567095Y-153639701D01*
X143287743Y-153523989D01*
X142991184Y-153465000D01*
X142688816Y-153465000D01*
X142392257Y-153523989D01*
X142112905Y-153639701D01*
X141861495Y-153807688D01*
X141647688Y-154021495D01*
X141545049Y-154175105D01*
X141364080Y-154115525D01*
X140479605Y-155000000D01*
X140120395Y-155000000D01*
X139273907Y-154153512D01*
X139230456Y-154010273D01*
X139190714Y-153935920D01*
X139415525Y-153935920D01*
X140300000Y-154820395D01*
X141184475Y-153935920D01*
X141100792Y-153681739D01*
X140828225Y-153550842D01*
X140535358Y-153475635D01*
X140233447Y-153459009D01*
X139934093Y-153501603D01*
X139648801Y-153601778D01*
X139499208Y-153681739D01*
X139415525Y-153935920D01*
X139190714Y-153935920D01*
X139148371Y-153856703D01*
X139037903Y-153722097D01*
X138903297Y-153611629D01*
X138749727Y-153529544D01*
X138583093Y-153478996D01*
X138409800Y-153461928D01*
X137110200Y-153461928D01*
X136936907Y-153478996D01*
X136770273Y-153529544D01*
X136616703Y-153611629D01*
X136482097Y-153722097D01*
X136371629Y-153856703D01*
X136289544Y-154010273D01*
X136238996Y-154176907D01*
X136221928Y-154350200D01*
X118222579Y-154350200D01*
X117083876Y-153776078D01*
X114954947Y-152546940D01*
X122141081Y-152546940D01*
X122342808Y-152772180D01*
X122584601Y-152953736D01*
X122857168Y-153084633D01*
X123150035Y-153159840D01*
X123451946Y-153176466D01*
X123620752Y-153159839D01*
X123795335Y-152957030D01*
X123328183Y-151829224D01*
X123399534Y-151829224D01*
X123747060Y-152176750D01*
X124030001Y-152859829D01*
X124219994Y-152874038D01*
X124256036Y-153055234D01*
X124371748Y-153334586D01*
X124539735Y-153585996D01*
X124753542Y-153799803D01*
X125004952Y-153967790D01*
X125284304Y-154083502D01*
X125580863Y-154142491D01*
X125883231Y-154142491D01*
X126179790Y-154083502D01*
X126459142Y-153967790D01*
X126710552Y-153799803D01*
X126924359Y-153585996D01*
X127092346Y-153334586D01*
X127208058Y-153055234D01*
X127267047Y-152758675D01*
X127267047Y-152456307D01*
X127227169Y-152255822D01*
X153130676Y-152255822D01*
X153147744Y-152429116D01*
X153198292Y-152595749D01*
X153695628Y-153796423D01*
X153777713Y-153949994D01*
X153888181Y-154084599D01*
X154022787Y-154195067D01*
X154176357Y-154277152D01*
X154342991Y-154327700D01*
X154516284Y-154344768D01*
X154689578Y-154327700D01*
X154856211Y-154277152D01*
X156056885Y-153779816D01*
X156210456Y-153697731D01*
X156345061Y-153587263D01*
X156455529Y-153452657D01*
X156537614Y-153299087D01*
X156588162Y-153132453D01*
X156605230Y-152959160D01*
X156605021Y-152957030D01*
X156804665Y-152957030D01*
X156979248Y-153159839D01*
X157281159Y-153176465D01*
X157580513Y-153133872D01*
X157865805Y-153033696D01*
X158126072Y-152879787D01*
X158351312Y-152678060D01*
X158458919Y-152546940D01*
X158438961Y-152280083D01*
X157283339Y-151801408D01*
X156804665Y-152957030D01*
X156605021Y-152957030D01*
X156590558Y-152810195D01*
X156852940Y-152176750D01*
X157200466Y-151829224D01*
X157020858Y-151649616D01*
X156990403Y-151680071D01*
X155942685Y-151246092D01*
X155847725Y-151130383D01*
X155713119Y-151019915D01*
X155559549Y-150937830D01*
X155392915Y-150887282D01*
X155219622Y-150870214D01*
X155046328Y-150887282D01*
X154879695Y-150937830D01*
X153679021Y-151435166D01*
X153525450Y-151517251D01*
X153390845Y-151627719D01*
X153280377Y-151762325D01*
X153198292Y-151915895D01*
X153147744Y-152082529D01*
X153130676Y-152255822D01*
X127227169Y-152255822D01*
X127208058Y-152159748D01*
X127092346Y-151880396D01*
X126924359Y-151628986D01*
X126710552Y-151415179D01*
X126459142Y-151247192D01*
X126179790Y-151131480D01*
X125883231Y-151072491D01*
X125580863Y-151072491D01*
X125284304Y-151131480D01*
X125004952Y-151247192D01*
X124851342Y-151349831D01*
X124706948Y-151225533D01*
X123609597Y-151680071D01*
X123579142Y-151649616D01*
X123399534Y-151829224D01*
X123328183Y-151829224D01*
X123316661Y-151801408D01*
X122161039Y-152280083D01*
X122141081Y-152546940D01*
X114954947Y-152546940D01*
X114689686Y-152393792D01*
X112586333Y-151015128D01*
X119301462Y-151015128D01*
X119318530Y-151188421D01*
X119369078Y-151355055D01*
X119451163Y-151508625D01*
X119561631Y-151643231D01*
X119696236Y-151753699D01*
X119849807Y-151835784D01*
X121050481Y-152333120D01*
X121217114Y-152383668D01*
X121390408Y-152400736D01*
X121563701Y-152383668D01*
X121730335Y-152333120D01*
X121883905Y-152251035D01*
X122018511Y-152140567D01*
X122113471Y-152024858D01*
X123161189Y-151590879D01*
X123191644Y-151621334D01*
X123371252Y-151441726D01*
X123023726Y-151094200D01*
X122761344Y-150460755D01*
X122775806Y-150313920D01*
X122975451Y-150313920D01*
X123454125Y-151469542D01*
X124609747Y-150990867D01*
X124629705Y-150724010D01*
X155970295Y-150724010D01*
X155990253Y-150990867D01*
X157145875Y-151469542D01*
X157157396Y-151441726D01*
X157228748Y-151441726D01*
X157408356Y-151621334D01*
X157438811Y-151590879D01*
X158536162Y-152045417D01*
X158680556Y-151921119D01*
X158834166Y-152023758D01*
X159113518Y-152139470D01*
X159410077Y-152198459D01*
X159712445Y-152198459D01*
X160009004Y-152139470D01*
X160288356Y-152023758D01*
X160539766Y-151855771D01*
X160753573Y-151641964D01*
X160921560Y-151390554D01*
X161037272Y-151111202D01*
X161096261Y-150814643D01*
X161096261Y-150512275D01*
X161037272Y-150215716D01*
X160921560Y-149936364D01*
X160753573Y-149684954D01*
X160539766Y-149471147D01*
X160288356Y-149303160D01*
X160009004Y-149187448D01*
X159712445Y-149128459D01*
X159410077Y-149128459D01*
X159113518Y-149187448D01*
X158834166Y-149303160D01*
X158582756Y-149471147D01*
X158368949Y-149684954D01*
X158200962Y-149936364D01*
X158085250Y-150215716D01*
X158049208Y-150396912D01*
X157859215Y-150411121D01*
X157576274Y-151094200D01*
X157228748Y-151441726D01*
X157157396Y-151441726D01*
X157624549Y-150313920D01*
X157449966Y-150111111D01*
X157148055Y-150094485D01*
X156848701Y-150137078D01*
X156563409Y-150237254D01*
X156303142Y-150391163D01*
X156077902Y-150592890D01*
X155970295Y-150724010D01*
X124629705Y-150724010D01*
X124427978Y-150498770D01*
X124186185Y-150317214D01*
X123913618Y-150186317D01*
X123620751Y-150111110D01*
X123318840Y-150094484D01*
X123150034Y-150111111D01*
X122975451Y-150313920D01*
X122775806Y-150313920D01*
X122776016Y-150311790D01*
X122758948Y-150138497D01*
X122708400Y-149971863D01*
X122626315Y-149818293D01*
X122515847Y-149683687D01*
X122381242Y-149573219D01*
X122227671Y-149491134D01*
X121026997Y-148993798D01*
X120860364Y-148943250D01*
X120687070Y-148926182D01*
X120513777Y-148943250D01*
X120347143Y-148993798D01*
X120193573Y-149075883D01*
X120058967Y-149186351D01*
X119948499Y-149320956D01*
X119866414Y-149474527D01*
X119369078Y-150675201D01*
X119318530Y-150841834D01*
X119301462Y-151015128D01*
X112586333Y-151015128D01*
X112377534Y-150878269D01*
X110154826Y-149234363D01*
X108028682Y-147467339D01*
X106005913Y-145582860D01*
X104092998Y-143586960D01*
X103094913Y-142420025D01*
X107547484Y-142420025D01*
X107647660Y-142705317D01*
X107801569Y-142965584D01*
X108003296Y-143190824D01*
X108245089Y-143372381D01*
X108517656Y-143503278D01*
X108679975Y-143552516D01*
X108918881Y-143431955D01*
X108918881Y-142247868D01*
X109060022Y-142247868D01*
X109172881Y-142360727D01*
X109172881Y-143431955D01*
X109342974Y-143517790D01*
X109306932Y-143698986D01*
X109306932Y-144001354D01*
X109365921Y-144297913D01*
X109481633Y-144577265D01*
X109649620Y-144828675D01*
X109863427Y-145042482D01*
X110114837Y-145210469D01*
X110394189Y-145326181D01*
X110690748Y-145385170D01*
X110993116Y-145385170D01*
X111289675Y-145326181D01*
X111569027Y-145210469D01*
X111820437Y-145042482D01*
X112034244Y-144828675D01*
X112202231Y-144577265D01*
X112317943Y-144297913D01*
X112376932Y-144001354D01*
X112376932Y-143698986D01*
X112367075Y-143649431D01*
X168121075Y-143649431D01*
X168138143Y-143822724D01*
X168188691Y-143989358D01*
X168270776Y-144142928D01*
X168381244Y-144277534D01*
X169300200Y-145196490D01*
X169434806Y-145306958D01*
X169588376Y-145389043D01*
X169755010Y-145439591D01*
X169928303Y-145456659D01*
X170101596Y-145439591D01*
X170268230Y-145389043D01*
X170421800Y-145306958D01*
X170556406Y-145196490D01*
X171475362Y-144277534D01*
X171585830Y-144142928D01*
X171667915Y-143989358D01*
X171718463Y-143822724D01*
X171735531Y-143649431D01*
X171718463Y-143476138D01*
X171667915Y-143309504D01*
X171597354Y-143177494D01*
X171597354Y-142159988D01*
X171710213Y-142047129D01*
X171643464Y-141980380D01*
X171851354Y-141980380D01*
X171851354Y-143231216D01*
X172090260Y-143351777D01*
X172375552Y-143251601D01*
X172635819Y-143097692D01*
X172861059Y-142895965D01*
X173042616Y-142654172D01*
X173173513Y-142381605D01*
X173222751Y-142219286D01*
X173102190Y-141980380D01*
X171851354Y-141980380D01*
X171643464Y-141980380D01*
X171530605Y-141867521D01*
X171417746Y-141980380D01*
X170400240Y-141980380D01*
X170268230Y-141909819D01*
X170101596Y-141859271D01*
X169928303Y-141842203D01*
X169755010Y-141859271D01*
X169588376Y-141909819D01*
X169434806Y-141991904D01*
X169300200Y-142102372D01*
X168381244Y-143021328D01*
X168270776Y-143155934D01*
X168188691Y-143309504D01*
X168138143Y-143476138D01*
X168121075Y-143649431D01*
X112367075Y-143649431D01*
X112317943Y-143402427D01*
X112202231Y-143123075D01*
X112034244Y-142871665D01*
X111820437Y-142657858D01*
X111569027Y-142489871D01*
X111289675Y-142374159D01*
X110993116Y-142315170D01*
X110690748Y-142315170D01*
X110509552Y-142351212D01*
X110423717Y-142181119D01*
X109352489Y-142181119D01*
X109239630Y-142068260D01*
X109060022Y-142247868D01*
X108918881Y-142247868D01*
X108918881Y-142181119D01*
X107668045Y-142181119D01*
X107547484Y-142420025D01*
X103094913Y-142420025D01*
X102296066Y-141486034D01*
X101360699Y-140258068D01*
X105442602Y-140258068D01*
X105459670Y-140431361D01*
X105510218Y-140597995D01*
X105592303Y-140751565D01*
X105702771Y-140886171D01*
X106621727Y-141805127D01*
X106756333Y-141915595D01*
X106909903Y-141997680D01*
X107076537Y-142048228D01*
X107249830Y-142065296D01*
X107423123Y-142048228D01*
X107589757Y-141997680D01*
X107721767Y-141927119D01*
X108739273Y-141927119D01*
X108852132Y-142039978D01*
X109031740Y-141860370D01*
X108918881Y-141747511D01*
X108918881Y-140730005D01*
X108947596Y-140676283D01*
X109172881Y-140676283D01*
X109172881Y-141927119D01*
X110423717Y-141927119D01*
X110544278Y-141688213D01*
X110473792Y-141487474D01*
X170225957Y-141487474D01*
X170346518Y-141726380D01*
X171597354Y-141726380D01*
X171597354Y-141659631D01*
X171738495Y-141659631D01*
X171918103Y-141839239D01*
X172030962Y-141726380D01*
X173102190Y-141726380D01*
X173188025Y-141556287D01*
X173369221Y-141592329D01*
X173671589Y-141592329D01*
X173968148Y-141533340D01*
X174247500Y-141417628D01*
X174498910Y-141249641D01*
X174712717Y-141035834D01*
X174880704Y-140784424D01*
X174996416Y-140505072D01*
X175055405Y-140208513D01*
X175055405Y-139906145D01*
X174996416Y-139609586D01*
X174880704Y-139330234D01*
X174712717Y-139078824D01*
X174498910Y-138865017D01*
X174247500Y-138697030D01*
X173968148Y-138581318D01*
X173671589Y-138522329D01*
X173369221Y-138522329D01*
X173072662Y-138581318D01*
X172793310Y-138697030D01*
X172541900Y-138865017D01*
X172328093Y-139078824D01*
X172160106Y-139330234D01*
X172044394Y-139609586D01*
X171985405Y-139906145D01*
X171985405Y-140208513D01*
X172021447Y-140389709D01*
X171851354Y-140475544D01*
X171851354Y-141546772D01*
X171738495Y-141659631D01*
X171597354Y-141659631D01*
X171597354Y-140475544D01*
X171358448Y-140354983D01*
X171073156Y-140455159D01*
X170812889Y-140609068D01*
X170587649Y-140810795D01*
X170406092Y-141052588D01*
X170275195Y-141325155D01*
X170225957Y-141487474D01*
X110473792Y-141487474D01*
X110444102Y-141402921D01*
X110290193Y-141142654D01*
X110088466Y-140917414D01*
X109846673Y-140735857D01*
X109574106Y-140604960D01*
X109411787Y-140555722D01*
X109172881Y-140676283D01*
X108947596Y-140676283D01*
X108989442Y-140597995D01*
X109039990Y-140431361D01*
X109057058Y-140258068D01*
X109039990Y-140084775D01*
X108989442Y-139918141D01*
X108907357Y-139764571D01*
X108796889Y-139629965D01*
X107877933Y-138711009D01*
X107743327Y-138600541D01*
X107589757Y-138518456D01*
X107423123Y-138467908D01*
X107249830Y-138450840D01*
X107076537Y-138467908D01*
X106909903Y-138518456D01*
X106756333Y-138600541D01*
X106621727Y-138711009D01*
X105702771Y-139629965D01*
X105592303Y-139764571D01*
X105510218Y-139918141D01*
X105459670Y-140084775D01*
X105442602Y-140258068D01*
X101360699Y-140258068D01*
X100620871Y-139286811D01*
X99338662Y-137389721D01*
X114565000Y-137389721D01*
X114565000Y-137810279D01*
X114647047Y-138222756D01*
X114807988Y-138611302D01*
X115041637Y-138960983D01*
X115339017Y-139258363D01*
X115688698Y-139492012D01*
X116077244Y-139652953D01*
X116489721Y-139735000D01*
X116910279Y-139735000D01*
X117322756Y-139652953D01*
X117711302Y-139492012D01*
X118060983Y-139258363D01*
X118344346Y-138975000D01*
X134011928Y-138975000D01*
X134011928Y-140425000D01*
X134028992Y-140598254D01*
X134079528Y-140764850D01*
X134161595Y-140918386D01*
X134272038Y-141052962D01*
X134406614Y-141163405D01*
X134560150Y-141245472D01*
X134726746Y-141296008D01*
X134900000Y-141313072D01*
X136100000Y-141313072D01*
X136273254Y-141296008D01*
X136439850Y-141245472D01*
X136593386Y-141163405D01*
X136727962Y-141052962D01*
X136838405Y-140918386D01*
X136892777Y-140816663D01*
X136944866Y-140880134D01*
X137170987Y-141065706D01*
X137428967Y-141203599D01*
X137708890Y-141288513D01*
X138000000Y-141317185D01*
X138291111Y-141288513D01*
X138571034Y-141203599D01*
X138829014Y-141065706D01*
X139055134Y-140880134D01*
X139240706Y-140654014D01*
X139250000Y-140636626D01*
X139259294Y-140654014D01*
X139444866Y-140880134D01*
X139670987Y-141065706D01*
X139928967Y-141203599D01*
X140208890Y-141288513D01*
X140500000Y-141317185D01*
X140791111Y-141288513D01*
X141071034Y-141203599D01*
X141329014Y-141065706D01*
X141555134Y-140880134D01*
X141740706Y-140654014D01*
X141754462Y-140628278D01*
X141910951Y-140834429D01*
X142128807Y-141027496D01*
X142380142Y-141174352D01*
X142643110Y-141266476D01*
X142873000Y-141145155D01*
X142873000Y-139827000D01*
X142853000Y-139827000D01*
X142853000Y-139573000D01*
X142873000Y-139573000D01*
X142873000Y-138254845D01*
X143127000Y-138254845D01*
X143127000Y-139573000D01*
X143147000Y-139573000D01*
X143147000Y-139827000D01*
X143127000Y-139827000D01*
X143127000Y-141145155D01*
X143356890Y-141266476D01*
X143619858Y-141174352D01*
X143871193Y-141027496D01*
X144089049Y-140834429D01*
X144245538Y-140628278D01*
X144259294Y-140654014D01*
X144444866Y-140880134D01*
X144670987Y-141065706D01*
X144928967Y-141203599D01*
X145208890Y-141288513D01*
X145500000Y-141317185D01*
X145791111Y-141288513D01*
X146071034Y-141203599D01*
X146329014Y-141065706D01*
X146555134Y-140880134D01*
X146740706Y-140654014D01*
X146878599Y-140396033D01*
X146963513Y-140116110D01*
X146985000Y-139897949D01*
X146985000Y-139502050D01*
X146963513Y-139283889D01*
X146878599Y-139003966D01*
X146740706Y-138745986D01*
X146555134Y-138519866D01*
X146329013Y-138334294D01*
X146071033Y-138196401D01*
X145791110Y-138111487D01*
X145500000Y-138082815D01*
X145208889Y-138111487D01*
X144928966Y-138196401D01*
X144670986Y-138334294D01*
X144444866Y-138519866D01*
X144259294Y-138745987D01*
X144245538Y-138771722D01*
X144089049Y-138565571D01*
X143871193Y-138372504D01*
X143619858Y-138225648D01*
X143356890Y-138133524D01*
X143127000Y-138254845D01*
X142873000Y-138254845D01*
X142643110Y-138133524D01*
X142380142Y-138225648D01*
X142128807Y-138372504D01*
X141910951Y-138565571D01*
X141754462Y-138771722D01*
X141740706Y-138745986D01*
X141555134Y-138519866D01*
X141329013Y-138334294D01*
X141071033Y-138196401D01*
X140791110Y-138111487D01*
X140500000Y-138082815D01*
X140208889Y-138111487D01*
X139928966Y-138196401D01*
X139670986Y-138334294D01*
X139444866Y-138519866D01*
X139259294Y-138745987D01*
X139250000Y-138763374D01*
X139240706Y-138745986D01*
X139055134Y-138519866D01*
X138829013Y-138334294D01*
X138571033Y-138196401D01*
X138291110Y-138111487D01*
X138000000Y-138082815D01*
X137708889Y-138111487D01*
X137428966Y-138196401D01*
X137170986Y-138334294D01*
X136944866Y-138519866D01*
X136892777Y-138583337D01*
X136838405Y-138481614D01*
X136727962Y-138347038D01*
X136593386Y-138236595D01*
X136439850Y-138154528D01*
X136273254Y-138103992D01*
X136100000Y-138086928D01*
X134900000Y-138086928D01*
X134726746Y-138103992D01*
X134560150Y-138154528D01*
X134406614Y-138236595D01*
X134272038Y-138347038D01*
X134161595Y-138481614D01*
X134079528Y-138635150D01*
X134028992Y-138801746D01*
X134011928Y-138975000D01*
X118344346Y-138975000D01*
X118358363Y-138960983D01*
X118592012Y-138611302D01*
X118752953Y-138222756D01*
X118835000Y-137810279D01*
X118835000Y-137406721D01*
X159541000Y-137406721D01*
X159541000Y-137827279D01*
X159623047Y-138239756D01*
X159783988Y-138628302D01*
X160017637Y-138977983D01*
X160315017Y-139275363D01*
X160664698Y-139509012D01*
X161053244Y-139669953D01*
X161465721Y-139752000D01*
X161886279Y-139752000D01*
X162298756Y-139669953D01*
X162687302Y-139509012D01*
X163036983Y-139275363D01*
X163334363Y-138977983D01*
X163568012Y-138628302D01*
X163728953Y-138239756D01*
X163811000Y-137827279D01*
X163811000Y-137406721D01*
X163728953Y-136994244D01*
X163568012Y-136605698D01*
X163334363Y-136256017D01*
X163036983Y-135958637D01*
X162687302Y-135724988D01*
X162298756Y-135564047D01*
X161886279Y-135482000D01*
X161465721Y-135482000D01*
X161053244Y-135564047D01*
X160664698Y-135724988D01*
X160315017Y-135958637D01*
X160017637Y-136256017D01*
X159783988Y-136605698D01*
X159623047Y-136994244D01*
X159541000Y-137406721D01*
X118835000Y-137406721D01*
X118835000Y-137389721D01*
X118752953Y-136977244D01*
X118592012Y-136588698D01*
X118358363Y-136239017D01*
X118060983Y-135941637D01*
X117711302Y-135707988D01*
X117322756Y-135547047D01*
X116910279Y-135465000D01*
X116489721Y-135465000D01*
X116077244Y-135547047D01*
X115688698Y-135707988D01*
X115339017Y-135941637D01*
X115041637Y-136239017D01*
X114807988Y-136588698D01*
X114647047Y-136977244D01*
X114565000Y-137389721D01*
X99338662Y-137389721D01*
X99072780Y-136996337D01*
X97656753Y-134621947D01*
X96377324Y-132171249D01*
X95355211Y-129910077D01*
X98901541Y-129910077D01*
X98901541Y-130212445D01*
X98960530Y-130509004D01*
X99076242Y-130788356D01*
X99244229Y-131039766D01*
X99458036Y-131253573D01*
X99709446Y-131421560D01*
X99988798Y-131537272D01*
X100285357Y-131596261D01*
X100587725Y-131596261D01*
X100884284Y-131537272D01*
X101163636Y-131421560D01*
X101415046Y-131253573D01*
X101628853Y-131039766D01*
X101796840Y-130788356D01*
X101860923Y-130633646D01*
X110015000Y-130633646D01*
X110017887Y-130662954D01*
X110017844Y-130669066D01*
X110018777Y-130678585D01*
X110039178Y-130872682D01*
X110051661Y-130933496D01*
X110063295Y-130994481D01*
X110066059Y-131003637D01*
X110123771Y-131190075D01*
X110147818Y-131247279D01*
X110171087Y-131304873D01*
X110175577Y-131313317D01*
X110268402Y-131484994D01*
X110303122Y-131536468D01*
X110337117Y-131588418D01*
X110343161Y-131595829D01*
X110467565Y-131746207D01*
X110511638Y-131789973D01*
X110555057Y-131834311D01*
X110562426Y-131840408D01*
X110713668Y-131963758D01*
X110765397Y-131998126D01*
X110816608Y-132033191D01*
X110825016Y-132037737D01*
X110825020Y-132037740D01*
X110825024Y-132037742D01*
X110997343Y-132129366D01*
X111054739Y-132153022D01*
X111111807Y-132177482D01*
X111120944Y-132180310D01*
X111307780Y-132236719D01*
X111368690Y-132248780D01*
X111429409Y-132261686D01*
X111438921Y-132262686D01*
X111633155Y-132281731D01*
X111633163Y-132281731D01*
X111666353Y-132285000D01*
X121033647Y-132285000D01*
X121062955Y-132282113D01*
X121069066Y-132282156D01*
X121078585Y-132281223D01*
X121272682Y-132260822D01*
X121333496Y-132248339D01*
X121394481Y-132236705D01*
X121403637Y-132233941D01*
X121590075Y-132176229D01*
X121647279Y-132152182D01*
X121704873Y-132128913D01*
X121713317Y-132124423D01*
X121884994Y-132031598D01*
X121936468Y-131996878D01*
X121988418Y-131962883D01*
X121995829Y-131956839D01*
X122146207Y-131832435D01*
X122189973Y-131788362D01*
X122234311Y-131744943D01*
X122240408Y-131737574D01*
X122363758Y-131586332D01*
X122398126Y-131534603D01*
X122433191Y-131483392D01*
X122437739Y-131474981D01*
X122437740Y-131474980D01*
X122437742Y-131474976D01*
X122529366Y-131302657D01*
X122553022Y-131245261D01*
X122577482Y-131188193D01*
X122580310Y-131179056D01*
X122636719Y-130992220D01*
X122648780Y-130931310D01*
X122661686Y-130870591D01*
X122662686Y-130861079D01*
X122681731Y-130666845D01*
X122681731Y-130666837D01*
X122685000Y-130633647D01*
X122685000Y-130533646D01*
X159815000Y-130533646D01*
X159817887Y-130562954D01*
X159817844Y-130569066D01*
X159818777Y-130578585D01*
X159839178Y-130772682D01*
X159851661Y-130833496D01*
X159863295Y-130894481D01*
X159866059Y-130903637D01*
X159923771Y-131090075D01*
X159947818Y-131147279D01*
X159971087Y-131204873D01*
X159975577Y-131213317D01*
X160068402Y-131384994D01*
X160103122Y-131436468D01*
X160137117Y-131488418D01*
X160143161Y-131495829D01*
X160267565Y-131646207D01*
X160311638Y-131689973D01*
X160355057Y-131734311D01*
X160362426Y-131740408D01*
X160513668Y-131863758D01*
X160565397Y-131898126D01*
X160616608Y-131933191D01*
X160625016Y-131937737D01*
X160625020Y-131937740D01*
X160625024Y-131937742D01*
X160797343Y-132029366D01*
X160854739Y-132053022D01*
X160911807Y-132077482D01*
X160920944Y-132080310D01*
X161107780Y-132136719D01*
X161168690Y-132148780D01*
X161229409Y-132161686D01*
X161238921Y-132162686D01*
X161433155Y-132181731D01*
X161433163Y-132181731D01*
X161466353Y-132185000D01*
X171533647Y-132185000D01*
X171562955Y-132182113D01*
X171569066Y-132182156D01*
X171578585Y-132181223D01*
X171772682Y-132160822D01*
X171833496Y-132148339D01*
X171894481Y-132136705D01*
X171903637Y-132133941D01*
X172090075Y-132076229D01*
X172147279Y-132052182D01*
X172204873Y-132028913D01*
X172213317Y-132024423D01*
X172384994Y-131931598D01*
X172436468Y-131896878D01*
X172488418Y-131862883D01*
X172495829Y-131856839D01*
X172646207Y-131732435D01*
X172689973Y-131688362D01*
X172734311Y-131644943D01*
X172740408Y-131637574D01*
X172863758Y-131486332D01*
X172898126Y-131434603D01*
X172933191Y-131383392D01*
X172937739Y-131374981D01*
X172937740Y-131374980D01*
X172937742Y-131374976D01*
X173029366Y-131202657D01*
X173053022Y-131145261D01*
X173077482Y-131088193D01*
X173080310Y-131079056D01*
X173136719Y-130892220D01*
X173148780Y-130831310D01*
X173161686Y-130770591D01*
X173162686Y-130761079D01*
X173181731Y-130566845D01*
X173181731Y-130566837D01*
X173185000Y-130533647D01*
X173185000Y-130212191D01*
X178596416Y-130212191D01*
X178613484Y-130385484D01*
X178664032Y-130552118D01*
X178746117Y-130705688D01*
X178856585Y-130840294D01*
X178991190Y-130950762D01*
X179144761Y-131032847D01*
X180345435Y-131530183D01*
X180512068Y-131580731D01*
X180685362Y-131597799D01*
X180858655Y-131580731D01*
X181025289Y-131530183D01*
X181178859Y-131448098D01*
X181313465Y-131337630D01*
X181423933Y-131203025D01*
X181506018Y-131049454D01*
X182003354Y-129848780D01*
X182053902Y-129682147D01*
X182070970Y-129508853D01*
X182053902Y-129335560D01*
X182003354Y-129168926D01*
X181921269Y-129015356D01*
X181810801Y-128880750D01*
X181695092Y-128785790D01*
X181261113Y-127738072D01*
X181291568Y-127707617D01*
X181166551Y-127582600D01*
X181471642Y-127582600D01*
X181950317Y-128738222D01*
X182217174Y-128758180D01*
X182442414Y-128556453D01*
X182623970Y-128314660D01*
X182754867Y-128042093D01*
X182830074Y-127749226D01*
X182846700Y-127447315D01*
X182830073Y-127278509D01*
X182627264Y-127103926D01*
X181471642Y-127582600D01*
X181166551Y-127582600D01*
X181111960Y-127528009D01*
X180764434Y-127875535D01*
X180130989Y-128137917D01*
X179982024Y-128123245D01*
X179808731Y-128140313D01*
X179642097Y-128190861D01*
X179488527Y-128272946D01*
X179353921Y-128383414D01*
X179243453Y-128518019D01*
X179161368Y-128671590D01*
X178664032Y-129872264D01*
X178613484Y-130038897D01*
X178596416Y-130212191D01*
X173185000Y-130212191D01*
X173185000Y-127580421D01*
X179764718Y-127580421D01*
X179781345Y-127749227D01*
X179984154Y-127923810D01*
X181139776Y-127445136D01*
X180661101Y-126289514D01*
X180394244Y-126269556D01*
X180169004Y-126471283D01*
X179987448Y-126713076D01*
X179856551Y-126985643D01*
X179781344Y-127278510D01*
X179764718Y-127580421D01*
X173185000Y-127580421D01*
X173185000Y-125016030D01*
X180742725Y-125016030D01*
X180742725Y-125318398D01*
X180801714Y-125614957D01*
X180917426Y-125894309D01*
X181020065Y-126047919D01*
X180895767Y-126192313D01*
X181350305Y-127289664D01*
X181319850Y-127320119D01*
X181499458Y-127499727D01*
X181846984Y-127152201D01*
X182530063Y-126869260D01*
X182544272Y-126679267D01*
X182725468Y-126643225D01*
X183004820Y-126527513D01*
X183256230Y-126359526D01*
X183470037Y-126145719D01*
X183638024Y-125894309D01*
X183753736Y-125614957D01*
X183812725Y-125318398D01*
X183812725Y-125016030D01*
X183753736Y-124719471D01*
X183638024Y-124440119D01*
X183470037Y-124188709D01*
X183256230Y-123974902D01*
X183004820Y-123806915D01*
X182725468Y-123691203D01*
X182428909Y-123632214D01*
X182126541Y-123632214D01*
X181829982Y-123691203D01*
X181550630Y-123806915D01*
X181299220Y-123974902D01*
X181085413Y-124188709D01*
X180917426Y-124440119D01*
X180801714Y-124719471D01*
X180742725Y-125016030D01*
X173185000Y-125016030D01*
X173185000Y-110689721D01*
X174265000Y-110689721D01*
X174265000Y-111110279D01*
X174347047Y-111522756D01*
X174507988Y-111911302D01*
X174741637Y-112260983D01*
X175039017Y-112558363D01*
X175388698Y-112792012D01*
X175777244Y-112952953D01*
X176189721Y-113035000D01*
X176610279Y-113035000D01*
X177022756Y-112952953D01*
X177411302Y-112792012D01*
X177760983Y-112558363D01*
X177829886Y-112489460D01*
X183132161Y-112489460D01*
X183132161Y-113789060D01*
X183149229Y-113962353D01*
X183199777Y-114128987D01*
X183281862Y-114282557D01*
X183392330Y-114417163D01*
X183526936Y-114527631D01*
X183680506Y-114609716D01*
X183847140Y-114660264D01*
X184020433Y-114677332D01*
X185320033Y-114677332D01*
X185493326Y-114660264D01*
X185659960Y-114609716D01*
X185813530Y-114527631D01*
X185948136Y-114417163D01*
X186058604Y-114282557D01*
X186140689Y-114128987D01*
X186191237Y-113962353D01*
X186208305Y-113789060D01*
X186208305Y-112489460D01*
X186191237Y-112316167D01*
X186140689Y-112149533D01*
X186058604Y-111995963D01*
X185948136Y-111861357D01*
X185813530Y-111750889D01*
X185659960Y-111668804D01*
X185516721Y-111625353D01*
X184670233Y-110778865D01*
X183823745Y-111625353D01*
X183680506Y-111668804D01*
X183526936Y-111750889D01*
X183392330Y-111861357D01*
X183281862Y-111995963D01*
X183199777Y-112149533D01*
X183149229Y-112316167D01*
X183132161Y-112489460D01*
X177829886Y-112489460D01*
X178058363Y-112260983D01*
X178292012Y-111911302D01*
X178452953Y-111522756D01*
X178535000Y-111110279D01*
X178535000Y-110689721D01*
X178530245Y-110665813D01*
X183129242Y-110665813D01*
X183171836Y-110965167D01*
X183272011Y-111250459D01*
X183351972Y-111400052D01*
X183606153Y-111483735D01*
X184490628Y-110599260D01*
X184849838Y-110599260D01*
X185734313Y-111483735D01*
X185988494Y-111400052D01*
X186119391Y-111127485D01*
X186194598Y-110834618D01*
X186211224Y-110532707D01*
X186168630Y-110233353D01*
X186068455Y-109948061D01*
X185988494Y-109798468D01*
X185734313Y-109714785D01*
X184849838Y-110599260D01*
X184490628Y-110599260D01*
X183606153Y-109714785D01*
X183351972Y-109798468D01*
X183221075Y-110071035D01*
X183145868Y-110363902D01*
X183129242Y-110665813D01*
X178530245Y-110665813D01*
X178452953Y-110277244D01*
X178292012Y-109888698D01*
X178058363Y-109539017D01*
X177760983Y-109241637D01*
X177411302Y-109007988D01*
X177022756Y-108847047D01*
X176610279Y-108765000D01*
X176189721Y-108765000D01*
X175777244Y-108847047D01*
X175388698Y-109007988D01*
X175039017Y-109241637D01*
X174741637Y-109539017D01*
X174507988Y-109888698D01*
X174347047Y-110277244D01*
X174265000Y-110689721D01*
X173185000Y-110689721D01*
X173185000Y-107908076D01*
X183135233Y-107908076D01*
X183135233Y-108210444D01*
X183194222Y-108507003D01*
X183309934Y-108786355D01*
X183477921Y-109037765D01*
X183691728Y-109251572D01*
X183845338Y-109354211D01*
X183785758Y-109535180D01*
X184670233Y-110419655D01*
X185554708Y-109535180D01*
X185495128Y-109354211D01*
X185648738Y-109251572D01*
X185862545Y-109037765D01*
X186030532Y-108786355D01*
X186146244Y-108507003D01*
X186205233Y-108210444D01*
X186205233Y-107908076D01*
X186146244Y-107611517D01*
X186030532Y-107332165D01*
X185862545Y-107080755D01*
X185648738Y-106866948D01*
X185397328Y-106698961D01*
X185117976Y-106583249D01*
X184821417Y-106524260D01*
X184519049Y-106524260D01*
X184222490Y-106583249D01*
X183943138Y-106698961D01*
X183691728Y-106866948D01*
X183477921Y-107080755D01*
X183309934Y-107332165D01*
X183194222Y-107611517D01*
X183135233Y-107908076D01*
X173185000Y-107908076D01*
X173185000Y-95679637D01*
X180540448Y-95679637D01*
X180557516Y-95852931D01*
X180608064Y-96019564D01*
X181105400Y-97220238D01*
X181187485Y-97373809D01*
X181297953Y-97508414D01*
X181432559Y-97618882D01*
X181586129Y-97700967D01*
X181752763Y-97751515D01*
X181926056Y-97768583D01*
X182099350Y-97751515D01*
X182265983Y-97700967D01*
X183466657Y-97203631D01*
X183620228Y-97121546D01*
X183754833Y-97011078D01*
X183865301Y-96876472D01*
X183947386Y-96722902D01*
X183997934Y-96556268D01*
X184015002Y-96382975D01*
X183997934Y-96209681D01*
X183947386Y-96043048D01*
X183450050Y-94842374D01*
X183367965Y-94688803D01*
X183257497Y-94554198D01*
X183122891Y-94443730D01*
X182969321Y-94361645D01*
X182802687Y-94311097D01*
X182629394Y-94294029D01*
X182480429Y-94308701D01*
X181846984Y-94046319D01*
X181499458Y-93698793D01*
X181319850Y-93878401D01*
X181350305Y-93908856D01*
X180916326Y-94956574D01*
X180800617Y-95051534D01*
X180690149Y-95186140D01*
X180608064Y-95339710D01*
X180557516Y-95506344D01*
X180540448Y-95679637D01*
X173185000Y-95679637D01*
X173185000Y-93751204D01*
X179764719Y-93751204D01*
X179807312Y-94050558D01*
X179907488Y-94335850D01*
X180061397Y-94596117D01*
X180263124Y-94821357D01*
X180394244Y-94928964D01*
X180661101Y-94909006D01*
X181139776Y-93753384D01*
X179984154Y-93274710D01*
X179781345Y-93449293D01*
X179764719Y-93751204D01*
X173185000Y-93751204D01*
X173185000Y-91466353D01*
X173182113Y-91437045D01*
X173182156Y-91430933D01*
X173181223Y-91421415D01*
X173160822Y-91227318D01*
X173152508Y-91186814D01*
X178798693Y-91186814D01*
X178798693Y-91489182D01*
X178857682Y-91785741D01*
X178973394Y-92065093D01*
X179141381Y-92316503D01*
X179355188Y-92530310D01*
X179606598Y-92698297D01*
X179885950Y-92814009D01*
X180067146Y-92850051D01*
X180081355Y-93040044D01*
X180764434Y-93322985D01*
X181111960Y-93670511D01*
X181166551Y-93615920D01*
X181471642Y-93615920D01*
X182627264Y-94094594D01*
X182830073Y-93920011D01*
X182846699Y-93618100D01*
X182804106Y-93318746D01*
X182703930Y-93033454D01*
X182550021Y-92773187D01*
X182348294Y-92547947D01*
X182217174Y-92440340D01*
X181950317Y-92460298D01*
X181471642Y-93615920D01*
X181166551Y-93615920D01*
X181291568Y-93490903D01*
X181261113Y-93460448D01*
X181715651Y-92363097D01*
X181591353Y-92218703D01*
X181693992Y-92065093D01*
X181809704Y-91785741D01*
X181868693Y-91489182D01*
X181868693Y-91186814D01*
X181809704Y-90890255D01*
X181693992Y-90610903D01*
X181526005Y-90359493D01*
X181312198Y-90145686D01*
X181060788Y-89977699D01*
X180781436Y-89861987D01*
X180484877Y-89802998D01*
X180182509Y-89802998D01*
X179885950Y-89861987D01*
X179606598Y-89977699D01*
X179355188Y-90145686D01*
X179141381Y-90359493D01*
X178973394Y-90610903D01*
X178857682Y-90890255D01*
X178798693Y-91186814D01*
X173152508Y-91186814D01*
X173148339Y-91166504D01*
X173136705Y-91105519D01*
X173133941Y-91096363D01*
X173076229Y-90909925D01*
X173052170Y-90852692D01*
X173028913Y-90795127D01*
X173024423Y-90786682D01*
X172931598Y-90615006D01*
X172896878Y-90563532D01*
X172862883Y-90511582D01*
X172856838Y-90504170D01*
X172732435Y-90353793D01*
X172688362Y-90310027D01*
X172644943Y-90265689D01*
X172637574Y-90259592D01*
X172486332Y-90136242D01*
X172434614Y-90101881D01*
X172383393Y-90066809D01*
X172374980Y-90062260D01*
X172202657Y-89970635D01*
X172145261Y-89946978D01*
X172088193Y-89922519D01*
X172079057Y-89919690D01*
X171892220Y-89863281D01*
X171831302Y-89851219D01*
X171770590Y-89838314D01*
X171761078Y-89837314D01*
X171566845Y-89818269D01*
X171566837Y-89818269D01*
X171533647Y-89815000D01*
X161466353Y-89815000D01*
X161437045Y-89817887D01*
X161430933Y-89817844D01*
X161421415Y-89818777D01*
X161227318Y-89839178D01*
X161166504Y-89851661D01*
X161105519Y-89863295D01*
X161096363Y-89866059D01*
X160909925Y-89923771D01*
X160852692Y-89947830D01*
X160795127Y-89971087D01*
X160786682Y-89975577D01*
X160615006Y-90068402D01*
X160563532Y-90103122D01*
X160511582Y-90137117D01*
X160504170Y-90143162D01*
X160353793Y-90267565D01*
X160310027Y-90311638D01*
X160265689Y-90355057D01*
X160259592Y-90362426D01*
X160136242Y-90513668D01*
X160101881Y-90565386D01*
X160066809Y-90616607D01*
X160062260Y-90625020D01*
X159970635Y-90797343D01*
X159946978Y-90854739D01*
X159922519Y-90911807D01*
X159919690Y-90920943D01*
X159863281Y-91107780D01*
X159851219Y-91168698D01*
X159838314Y-91229410D01*
X159837314Y-91238922D01*
X159818269Y-91433155D01*
X159818269Y-91433173D01*
X159815001Y-91466353D01*
X159815000Y-130533646D01*
X122685000Y-130533646D01*
X122685000Y-91566353D01*
X122682113Y-91537045D01*
X122682156Y-91530933D01*
X122681223Y-91521415D01*
X122660822Y-91327318D01*
X122648339Y-91266504D01*
X122636705Y-91205519D01*
X122633941Y-91196363D01*
X122576229Y-91009925D01*
X122552170Y-90952692D01*
X122530882Y-90900000D01*
X131261928Y-90900000D01*
X131261928Y-92500000D01*
X131274188Y-92624482D01*
X131310498Y-92744180D01*
X131369463Y-92854494D01*
X131448815Y-92951185D01*
X131545506Y-93030537D01*
X131655820Y-93089502D01*
X131775518Y-93125812D01*
X131783961Y-93126643D01*
X131585363Y-93325241D01*
X131428320Y-93560273D01*
X131320147Y-93821426D01*
X131265000Y-94098665D01*
X131265000Y-94381335D01*
X131320147Y-94658574D01*
X131428320Y-94919727D01*
X131585363Y-95154759D01*
X131785241Y-95354637D01*
X132017759Y-95510000D01*
X131785241Y-95665363D01*
X131585363Y-95865241D01*
X131428320Y-96100273D01*
X131320147Y-96361426D01*
X131265000Y-96638665D01*
X131265000Y-96921335D01*
X131320147Y-97198574D01*
X131428320Y-97459727D01*
X131585363Y-97694759D01*
X131785241Y-97894637D01*
X132017759Y-98050000D01*
X131785241Y-98205363D01*
X131585363Y-98405241D01*
X131428320Y-98640273D01*
X131320147Y-98901426D01*
X131265000Y-99178665D01*
X131265000Y-99461335D01*
X131320147Y-99738574D01*
X131428320Y-99999727D01*
X131585363Y-100234759D01*
X131785241Y-100434637D01*
X132017759Y-100590000D01*
X131785241Y-100745363D01*
X131585363Y-100945241D01*
X131428320Y-101180273D01*
X131320147Y-101441426D01*
X131265000Y-101718665D01*
X131265000Y-102001335D01*
X131320147Y-102278574D01*
X131428320Y-102539727D01*
X131585363Y-102774759D01*
X131785241Y-102974637D01*
X132017759Y-103130000D01*
X131785241Y-103285363D01*
X131585363Y-103485241D01*
X131428320Y-103720273D01*
X131320147Y-103981426D01*
X131265000Y-104258665D01*
X131265000Y-104541335D01*
X131320147Y-104818574D01*
X131428320Y-105079727D01*
X131585363Y-105314759D01*
X131785241Y-105514637D01*
X132017759Y-105670000D01*
X131785241Y-105825363D01*
X131585363Y-106025241D01*
X131428320Y-106260273D01*
X131320147Y-106521426D01*
X131265000Y-106798665D01*
X131265000Y-107081335D01*
X131320147Y-107358574D01*
X131428320Y-107619727D01*
X131585363Y-107854759D01*
X131785241Y-108054637D01*
X132017759Y-108210000D01*
X131785241Y-108365363D01*
X131585363Y-108565241D01*
X131428320Y-108800273D01*
X131320147Y-109061426D01*
X131265000Y-109338665D01*
X131265000Y-109621335D01*
X131320147Y-109898574D01*
X131428320Y-110159727D01*
X131585363Y-110394759D01*
X131785241Y-110594637D01*
X132017759Y-110750000D01*
X131785241Y-110905363D01*
X131585363Y-111105241D01*
X131428320Y-111340273D01*
X131320147Y-111601426D01*
X131265000Y-111878665D01*
X131265000Y-112161335D01*
X131320147Y-112438574D01*
X131428320Y-112699727D01*
X131585363Y-112934759D01*
X131785241Y-113134637D01*
X132017759Y-113290000D01*
X131785241Y-113445363D01*
X131585363Y-113645241D01*
X131428320Y-113880273D01*
X131320147Y-114141426D01*
X131265000Y-114418665D01*
X131265000Y-114701335D01*
X131320147Y-114978574D01*
X131428320Y-115239727D01*
X131585363Y-115474759D01*
X131785241Y-115674637D01*
X132017759Y-115830000D01*
X131785241Y-115985363D01*
X131585363Y-116185241D01*
X131428320Y-116420273D01*
X131320147Y-116681426D01*
X131265000Y-116958665D01*
X131265000Y-117241335D01*
X131320147Y-117518574D01*
X131428320Y-117779727D01*
X131585363Y-118014759D01*
X131785241Y-118214637D01*
X132017759Y-118370000D01*
X131785241Y-118525363D01*
X131585363Y-118725241D01*
X131428320Y-118960273D01*
X131320147Y-119221426D01*
X131265000Y-119498665D01*
X131265000Y-119781335D01*
X131320147Y-120058574D01*
X131428320Y-120319727D01*
X131585363Y-120554759D01*
X131785241Y-120754637D01*
X132017759Y-120910000D01*
X131785241Y-121065363D01*
X131585363Y-121265241D01*
X131428320Y-121500273D01*
X131320147Y-121761426D01*
X131265000Y-122038665D01*
X131265000Y-122321335D01*
X131320147Y-122598574D01*
X131428320Y-122859727D01*
X131585363Y-123094759D01*
X131785241Y-123294637D01*
X132017759Y-123450000D01*
X131785241Y-123605363D01*
X131585363Y-123805241D01*
X131428320Y-124040273D01*
X131320147Y-124301426D01*
X131265000Y-124578665D01*
X131265000Y-124861335D01*
X131320147Y-125138574D01*
X131428320Y-125399727D01*
X131585363Y-125634759D01*
X131785241Y-125834637D01*
X132017759Y-125990000D01*
X131785241Y-126145363D01*
X131585363Y-126345241D01*
X131428320Y-126580273D01*
X131320147Y-126841426D01*
X131265000Y-127118665D01*
X131265000Y-127401335D01*
X131320147Y-127678574D01*
X131428320Y-127939727D01*
X131585363Y-128174759D01*
X131785241Y-128374637D01*
X132020273Y-128531680D01*
X132281426Y-128639853D01*
X132558665Y-128695000D01*
X132841335Y-128695000D01*
X133118574Y-128639853D01*
X133379727Y-128531680D01*
X133614759Y-128374637D01*
X133814637Y-128174759D01*
X133971680Y-127939727D01*
X134079853Y-127678574D01*
X134135000Y-127401335D01*
X134135000Y-127118665D01*
X134079853Y-126841426D01*
X133971680Y-126580273D01*
X133814637Y-126345241D01*
X133614759Y-126145363D01*
X133382241Y-125990000D01*
X133614759Y-125834637D01*
X133814637Y-125634759D01*
X133971680Y-125399727D01*
X134079853Y-125138574D01*
X134135000Y-124861335D01*
X134135000Y-124578665D01*
X134079853Y-124301426D01*
X133971680Y-124040273D01*
X133814637Y-123805241D01*
X133614759Y-123605363D01*
X133382241Y-123450000D01*
X133614759Y-123294637D01*
X133814637Y-123094759D01*
X133971680Y-122859727D01*
X134079853Y-122598574D01*
X134135000Y-122321335D01*
X134135000Y-122038665D01*
X134079853Y-121761426D01*
X133971680Y-121500273D01*
X133814637Y-121265241D01*
X133614759Y-121065363D01*
X133382241Y-120910000D01*
X133614759Y-120754637D01*
X133814637Y-120554759D01*
X133971680Y-120319727D01*
X134079853Y-120058574D01*
X134135000Y-119781335D01*
X134135000Y-119498665D01*
X134079853Y-119221426D01*
X133971680Y-118960273D01*
X133814637Y-118725241D01*
X133614759Y-118525363D01*
X133382241Y-118370000D01*
X133614759Y-118214637D01*
X133814637Y-118014759D01*
X133971680Y-117779727D01*
X134079853Y-117518574D01*
X134135000Y-117241335D01*
X134135000Y-116958665D01*
X134079853Y-116681426D01*
X133971680Y-116420273D01*
X133814637Y-116185241D01*
X133614759Y-115985363D01*
X133382241Y-115830000D01*
X133614759Y-115674637D01*
X133814637Y-115474759D01*
X133971680Y-115239727D01*
X134079853Y-114978574D01*
X134135000Y-114701335D01*
X134135000Y-114418665D01*
X134079853Y-114141426D01*
X133971680Y-113880273D01*
X133814637Y-113645241D01*
X133614759Y-113445363D01*
X133382241Y-113290000D01*
X133614759Y-113134637D01*
X133814637Y-112934759D01*
X133971680Y-112699727D01*
X134079853Y-112438574D01*
X134135000Y-112161335D01*
X134135000Y-111878665D01*
X134079853Y-111601426D01*
X133971680Y-111340273D01*
X133814637Y-111105241D01*
X133614759Y-110905363D01*
X133382241Y-110750000D01*
X133614759Y-110594637D01*
X133814637Y-110394759D01*
X133971680Y-110159727D01*
X134079853Y-109898574D01*
X134135000Y-109621335D01*
X134135000Y-109338665D01*
X134079853Y-109061426D01*
X133971680Y-108800273D01*
X133814637Y-108565241D01*
X133614759Y-108365363D01*
X133382241Y-108210000D01*
X133614759Y-108054637D01*
X133814637Y-107854759D01*
X133971680Y-107619727D01*
X134079853Y-107358574D01*
X134135000Y-107081335D01*
X134135000Y-106798665D01*
X134079853Y-106521426D01*
X133971680Y-106260273D01*
X133814637Y-106025241D01*
X133614759Y-105825363D01*
X133382241Y-105670000D01*
X133614759Y-105514637D01*
X133814637Y-105314759D01*
X133971680Y-105079727D01*
X134079853Y-104818574D01*
X134135000Y-104541335D01*
X134135000Y-104258665D01*
X134079853Y-103981426D01*
X133971680Y-103720273D01*
X133814637Y-103485241D01*
X133614759Y-103285363D01*
X133382241Y-103130000D01*
X133614759Y-102974637D01*
X133814637Y-102774759D01*
X133971680Y-102539727D01*
X134079853Y-102278574D01*
X134135000Y-102001335D01*
X134135000Y-101718665D01*
X134079853Y-101441426D01*
X133971680Y-101180273D01*
X133814637Y-100945241D01*
X133614759Y-100745363D01*
X133382241Y-100590000D01*
X133614759Y-100434637D01*
X133814637Y-100234759D01*
X133971680Y-99999727D01*
X134079853Y-99738574D01*
X134135000Y-99461335D01*
X134135000Y-99178665D01*
X134079853Y-98901426D01*
X133971680Y-98640273D01*
X133814637Y-98405241D01*
X133614759Y-98205363D01*
X133382241Y-98050000D01*
X133614759Y-97894637D01*
X133814637Y-97694759D01*
X133971680Y-97459727D01*
X134079853Y-97198574D01*
X134135000Y-96921335D01*
X134135000Y-96638665D01*
X146505000Y-96638665D01*
X146505000Y-96921335D01*
X146560147Y-97198574D01*
X146668320Y-97459727D01*
X146825363Y-97694759D01*
X147025241Y-97894637D01*
X147257759Y-98050000D01*
X147025241Y-98205363D01*
X146825363Y-98405241D01*
X146668320Y-98640273D01*
X146560147Y-98901426D01*
X146505000Y-99178665D01*
X146505000Y-99461335D01*
X146560147Y-99738574D01*
X146668320Y-99999727D01*
X146825363Y-100234759D01*
X147025241Y-100434637D01*
X147257759Y-100590000D01*
X147025241Y-100745363D01*
X146825363Y-100945241D01*
X146668320Y-101180273D01*
X146560147Y-101441426D01*
X146505000Y-101718665D01*
X146505000Y-102001335D01*
X146560147Y-102278574D01*
X146668320Y-102539727D01*
X146825363Y-102774759D01*
X147025241Y-102974637D01*
X147257759Y-103130000D01*
X147025241Y-103285363D01*
X146825363Y-103485241D01*
X146668320Y-103720273D01*
X146560147Y-103981426D01*
X146505000Y-104258665D01*
X146505000Y-104541335D01*
X146560147Y-104818574D01*
X146668320Y-105079727D01*
X146825363Y-105314759D01*
X147025241Y-105514637D01*
X147257759Y-105670000D01*
X147025241Y-105825363D01*
X146825363Y-106025241D01*
X146668320Y-106260273D01*
X146560147Y-106521426D01*
X146505000Y-106798665D01*
X146505000Y-107081335D01*
X146560147Y-107358574D01*
X146668320Y-107619727D01*
X146825363Y-107854759D01*
X147025241Y-108054637D01*
X147257759Y-108210000D01*
X147025241Y-108365363D01*
X146825363Y-108565241D01*
X146668320Y-108800273D01*
X146560147Y-109061426D01*
X146505000Y-109338665D01*
X146505000Y-109621335D01*
X146560147Y-109898574D01*
X146668320Y-110159727D01*
X146825363Y-110394759D01*
X147025241Y-110594637D01*
X147257759Y-110750000D01*
X147025241Y-110905363D01*
X146825363Y-111105241D01*
X146668320Y-111340273D01*
X146560147Y-111601426D01*
X146505000Y-111878665D01*
X146505000Y-112161335D01*
X146560147Y-112438574D01*
X146668320Y-112699727D01*
X146825363Y-112934759D01*
X147025241Y-113134637D01*
X147257759Y-113290000D01*
X147025241Y-113445363D01*
X146825363Y-113645241D01*
X146668320Y-113880273D01*
X146560147Y-114141426D01*
X146505000Y-114418665D01*
X146505000Y-114701335D01*
X146560147Y-114978574D01*
X146668320Y-115239727D01*
X146825363Y-115474759D01*
X147025241Y-115674637D01*
X147257759Y-115830000D01*
X147025241Y-115985363D01*
X146825363Y-116185241D01*
X146668320Y-116420273D01*
X146560147Y-116681426D01*
X146505000Y-116958665D01*
X146505000Y-117241335D01*
X146560147Y-117518574D01*
X146668320Y-117779727D01*
X146825363Y-118014759D01*
X147025241Y-118214637D01*
X147257759Y-118370000D01*
X147025241Y-118525363D01*
X146825363Y-118725241D01*
X146668320Y-118960273D01*
X146560147Y-119221426D01*
X146505000Y-119498665D01*
X146505000Y-119781335D01*
X146560147Y-120058574D01*
X146668320Y-120319727D01*
X146825363Y-120554759D01*
X147025241Y-120754637D01*
X147257759Y-120910000D01*
X147025241Y-121065363D01*
X146825363Y-121265241D01*
X146668320Y-121500273D01*
X146560147Y-121761426D01*
X146505000Y-122038665D01*
X146505000Y-122321335D01*
X146560147Y-122598574D01*
X146668320Y-122859727D01*
X146825363Y-123094759D01*
X147025241Y-123294637D01*
X147257759Y-123450000D01*
X147025241Y-123605363D01*
X146825363Y-123805241D01*
X146668320Y-124040273D01*
X146560147Y-124301426D01*
X146505000Y-124578665D01*
X146505000Y-124861335D01*
X146560147Y-125138574D01*
X146668320Y-125399727D01*
X146825363Y-125634759D01*
X147025241Y-125834637D01*
X147257759Y-125990000D01*
X147025241Y-126145363D01*
X146825363Y-126345241D01*
X146668320Y-126580273D01*
X146560147Y-126841426D01*
X146505000Y-127118665D01*
X146505000Y-127401335D01*
X146560147Y-127678574D01*
X146668320Y-127939727D01*
X146825363Y-128174759D01*
X147025241Y-128374637D01*
X147260273Y-128531680D01*
X147521426Y-128639853D01*
X147798665Y-128695000D01*
X148081335Y-128695000D01*
X148358574Y-128639853D01*
X148619727Y-128531680D01*
X148854759Y-128374637D01*
X149054637Y-128174759D01*
X149211680Y-127939727D01*
X149319853Y-127678574D01*
X149375000Y-127401335D01*
X149375000Y-127118665D01*
X149319853Y-126841426D01*
X149211680Y-126580273D01*
X149054637Y-126345241D01*
X148854759Y-126145363D01*
X148622241Y-125990000D01*
X148854759Y-125834637D01*
X149054637Y-125634759D01*
X149211680Y-125399727D01*
X149319853Y-125138574D01*
X149375000Y-124861335D01*
X149375000Y-124578665D01*
X149319853Y-124301426D01*
X149211680Y-124040273D01*
X149054637Y-123805241D01*
X148854759Y-123605363D01*
X148622241Y-123450000D01*
X148854759Y-123294637D01*
X149054637Y-123094759D01*
X149211680Y-122859727D01*
X149319853Y-122598574D01*
X149375000Y-122321335D01*
X149375000Y-122038665D01*
X149319853Y-121761426D01*
X149211680Y-121500273D01*
X149054637Y-121265241D01*
X148854759Y-121065363D01*
X148622241Y-120910000D01*
X148854759Y-120754637D01*
X149054637Y-120554759D01*
X149211680Y-120319727D01*
X149319853Y-120058574D01*
X149375000Y-119781335D01*
X149375000Y-119498665D01*
X149319853Y-119221426D01*
X149211680Y-118960273D01*
X149054637Y-118725241D01*
X148854759Y-118525363D01*
X148622241Y-118370000D01*
X148854759Y-118214637D01*
X149054637Y-118014759D01*
X149211680Y-117779727D01*
X149319853Y-117518574D01*
X149375000Y-117241335D01*
X149375000Y-116958665D01*
X149319853Y-116681426D01*
X149211680Y-116420273D01*
X149054637Y-116185241D01*
X148854759Y-115985363D01*
X148622241Y-115830000D01*
X148854759Y-115674637D01*
X149054637Y-115474759D01*
X149211680Y-115239727D01*
X149319853Y-114978574D01*
X149375000Y-114701335D01*
X149375000Y-114418665D01*
X149319853Y-114141426D01*
X149211680Y-113880273D01*
X149054637Y-113645241D01*
X148854759Y-113445363D01*
X148622241Y-113290000D01*
X148854759Y-113134637D01*
X149054637Y-112934759D01*
X149211680Y-112699727D01*
X149319853Y-112438574D01*
X149375000Y-112161335D01*
X149375000Y-111878665D01*
X149319853Y-111601426D01*
X149211680Y-111340273D01*
X149054637Y-111105241D01*
X148854759Y-110905363D01*
X148622241Y-110750000D01*
X148854759Y-110594637D01*
X149054637Y-110394759D01*
X149211680Y-110159727D01*
X149319853Y-109898574D01*
X149375000Y-109621335D01*
X149375000Y-109338665D01*
X149319853Y-109061426D01*
X149211680Y-108800273D01*
X149054637Y-108565241D01*
X148854759Y-108365363D01*
X148622241Y-108210000D01*
X148854759Y-108054637D01*
X149054637Y-107854759D01*
X149211680Y-107619727D01*
X149319853Y-107358574D01*
X149375000Y-107081335D01*
X149375000Y-106798665D01*
X149319853Y-106521426D01*
X149211680Y-106260273D01*
X149054637Y-106025241D01*
X148854759Y-105825363D01*
X148622241Y-105670000D01*
X148854759Y-105514637D01*
X149054637Y-105314759D01*
X149211680Y-105079727D01*
X149319853Y-104818574D01*
X149375000Y-104541335D01*
X149375000Y-104258665D01*
X149319853Y-103981426D01*
X149211680Y-103720273D01*
X149054637Y-103485241D01*
X148854759Y-103285363D01*
X148622241Y-103130000D01*
X148854759Y-102974637D01*
X149054637Y-102774759D01*
X149211680Y-102539727D01*
X149319853Y-102278574D01*
X149375000Y-102001335D01*
X149375000Y-101718665D01*
X149319853Y-101441426D01*
X149211680Y-101180273D01*
X149054637Y-100945241D01*
X148854759Y-100745363D01*
X148622241Y-100590000D01*
X148854759Y-100434637D01*
X149054637Y-100234759D01*
X149211680Y-99999727D01*
X149319853Y-99738574D01*
X149375000Y-99461335D01*
X149375000Y-99178665D01*
X149319853Y-98901426D01*
X149211680Y-98640273D01*
X149054637Y-98405241D01*
X148854759Y-98205363D01*
X148622241Y-98050000D01*
X148854759Y-97894637D01*
X149054637Y-97694759D01*
X149211680Y-97459727D01*
X149319853Y-97198574D01*
X149375000Y-96921335D01*
X149375000Y-96638665D01*
X149319853Y-96361426D01*
X149211680Y-96100273D01*
X149054637Y-95865241D01*
X148854759Y-95665363D01*
X148619727Y-95508320D01*
X148609135Y-95503933D01*
X148795131Y-95392385D01*
X149003519Y-95203414D01*
X149171037Y-94977420D01*
X149291246Y-94723087D01*
X149331904Y-94589039D01*
X149209915Y-94367000D01*
X148067000Y-94367000D01*
X148067000Y-94387000D01*
X147813000Y-94387000D01*
X147813000Y-94367000D01*
X146670085Y-94367000D01*
X146548096Y-94589039D01*
X146588754Y-94723087D01*
X146708963Y-94977420D01*
X146876481Y-95203414D01*
X147084869Y-95392385D01*
X147270865Y-95503933D01*
X147260273Y-95508320D01*
X147025241Y-95665363D01*
X146825363Y-95865241D01*
X146668320Y-96100273D01*
X146560147Y-96361426D01*
X146505000Y-96638665D01*
X134135000Y-96638665D01*
X134079853Y-96361426D01*
X133971680Y-96100273D01*
X133814637Y-95865241D01*
X133614759Y-95665363D01*
X133382241Y-95510000D01*
X133614759Y-95354637D01*
X133814637Y-95154759D01*
X133971680Y-94919727D01*
X134079853Y-94658574D01*
X134135000Y-94381335D01*
X134135000Y-94098665D01*
X134079853Y-93821426D01*
X133971680Y-93560273D01*
X133814637Y-93325241D01*
X133616039Y-93126643D01*
X133624482Y-93125812D01*
X133744180Y-93089502D01*
X133854494Y-93030537D01*
X133951185Y-92951185D01*
X134030537Y-92854494D01*
X134089502Y-92744180D01*
X134125812Y-92624482D01*
X134138072Y-92500000D01*
X134138072Y-91558665D01*
X146505000Y-91558665D01*
X146505000Y-91841335D01*
X146560147Y-92118574D01*
X146668320Y-92379727D01*
X146825363Y-92614759D01*
X147025241Y-92814637D01*
X147260273Y-92971680D01*
X147270865Y-92976067D01*
X147084869Y-93087615D01*
X146876481Y-93276586D01*
X146708963Y-93502580D01*
X146588754Y-93756913D01*
X146548096Y-93890961D01*
X146670085Y-94113000D01*
X147813000Y-94113000D01*
X147813000Y-94093000D01*
X148067000Y-94093000D01*
X148067000Y-94113000D01*
X149209915Y-94113000D01*
X149331904Y-93890961D01*
X149291246Y-93756913D01*
X149171037Y-93502580D01*
X149003519Y-93276586D01*
X148795131Y-93087615D01*
X148609135Y-92976067D01*
X148619727Y-92971680D01*
X148854759Y-92814637D01*
X149054637Y-92614759D01*
X149211680Y-92379727D01*
X149319853Y-92118574D01*
X149375000Y-91841335D01*
X149375000Y-91558665D01*
X149319853Y-91281426D01*
X149211680Y-91020273D01*
X149054637Y-90785241D01*
X148854759Y-90585363D01*
X148619727Y-90428320D01*
X148358574Y-90320147D01*
X148081335Y-90265000D01*
X147798665Y-90265000D01*
X147521426Y-90320147D01*
X147260273Y-90428320D01*
X147025241Y-90585363D01*
X146825363Y-90785241D01*
X146668320Y-91020273D01*
X146560147Y-91281426D01*
X146505000Y-91558665D01*
X134138072Y-91558665D01*
X134138072Y-90900000D01*
X134125812Y-90775518D01*
X134089502Y-90655820D01*
X134030537Y-90545506D01*
X133951185Y-90448815D01*
X133854494Y-90369463D01*
X133744180Y-90310498D01*
X133624482Y-90274188D01*
X133500000Y-90261928D01*
X131900000Y-90261928D01*
X131775518Y-90274188D01*
X131655820Y-90310498D01*
X131545506Y-90369463D01*
X131448815Y-90448815D01*
X131369463Y-90545506D01*
X131310498Y-90655820D01*
X131274188Y-90775518D01*
X131261928Y-90900000D01*
X122530882Y-90900000D01*
X122528913Y-90895127D01*
X122524423Y-90886682D01*
X122431598Y-90715006D01*
X122396878Y-90663532D01*
X122362883Y-90611582D01*
X122356838Y-90604170D01*
X122232435Y-90453793D01*
X122188362Y-90410027D01*
X122144943Y-90365689D01*
X122137574Y-90359592D01*
X121986332Y-90236242D01*
X121934614Y-90201881D01*
X121883393Y-90166809D01*
X121874980Y-90162260D01*
X121702657Y-90070635D01*
X121645261Y-90046978D01*
X121588193Y-90022519D01*
X121579057Y-90019690D01*
X121392220Y-89963281D01*
X121331302Y-89951219D01*
X121270590Y-89938314D01*
X121261078Y-89937314D01*
X121066845Y-89918269D01*
X121066837Y-89918269D01*
X121033647Y-89915000D01*
X111666353Y-89915000D01*
X111637045Y-89917887D01*
X111630933Y-89917844D01*
X111621415Y-89918777D01*
X111427318Y-89939178D01*
X111366504Y-89951661D01*
X111305519Y-89963295D01*
X111296363Y-89966059D01*
X111109925Y-90023771D01*
X111052692Y-90047830D01*
X110995127Y-90071087D01*
X110986682Y-90075577D01*
X110815006Y-90168402D01*
X110763532Y-90203122D01*
X110711582Y-90237117D01*
X110704170Y-90243162D01*
X110553793Y-90367565D01*
X110510027Y-90411638D01*
X110465689Y-90455057D01*
X110459592Y-90462426D01*
X110336242Y-90613668D01*
X110301881Y-90665386D01*
X110266809Y-90716607D01*
X110262260Y-90725020D01*
X110170635Y-90897343D01*
X110146978Y-90954739D01*
X110122519Y-91011807D01*
X110119690Y-91020943D01*
X110063281Y-91207780D01*
X110051219Y-91268698D01*
X110038314Y-91329410D01*
X110037314Y-91338922D01*
X110018269Y-91533155D01*
X110018269Y-91533173D01*
X110015001Y-91566353D01*
X110015000Y-130633646D01*
X101860923Y-130633646D01*
X101912552Y-130509004D01*
X101971541Y-130212445D01*
X101971541Y-129910077D01*
X101912552Y-129613518D01*
X101796840Y-129334166D01*
X101628853Y-129082756D01*
X101415046Y-128868949D01*
X101163636Y-128700962D01*
X100884284Y-128585250D01*
X100703088Y-128549208D01*
X100688879Y-128359215D01*
X100005800Y-128076274D01*
X99658274Y-127728748D01*
X99478666Y-127908356D01*
X99509121Y-127938811D01*
X99054583Y-129036162D01*
X99178881Y-129180556D01*
X99076242Y-129334166D01*
X98960530Y-129613518D01*
X98901541Y-129910077D01*
X95355211Y-129910077D01*
X95238594Y-129652092D01*
X94517371Y-127781159D01*
X97923535Y-127781159D01*
X97966128Y-128080513D01*
X98066304Y-128365805D01*
X98220213Y-128626072D01*
X98421940Y-128851312D01*
X98553060Y-128958919D01*
X98819917Y-128938961D01*
X99298592Y-127783339D01*
X98142970Y-127304665D01*
X97940161Y-127479248D01*
X97923535Y-127781159D01*
X94517371Y-127781159D01*
X94244208Y-127072546D01*
X93582516Y-125016284D01*
X96755232Y-125016284D01*
X96772300Y-125189578D01*
X96822848Y-125356211D01*
X97320184Y-126556885D01*
X97402269Y-126710456D01*
X97512737Y-126845061D01*
X97647343Y-126955529D01*
X97800913Y-127037614D01*
X97967547Y-127088162D01*
X98140840Y-127105230D01*
X98289805Y-127090558D01*
X98923250Y-127352940D01*
X99270776Y-127700466D01*
X99325367Y-127645875D01*
X99630458Y-127645875D01*
X100786080Y-128124549D01*
X100988889Y-127949966D01*
X101005515Y-127648055D01*
X100962922Y-127348701D01*
X100862746Y-127063409D01*
X100708837Y-126803142D01*
X100507110Y-126577902D01*
X100375990Y-126470295D01*
X100109133Y-126490253D01*
X99630458Y-127645875D01*
X99325367Y-127645875D01*
X99450384Y-127520858D01*
X99419929Y-127490403D01*
X99853908Y-126442685D01*
X99969617Y-126347725D01*
X100080085Y-126213119D01*
X100162170Y-126059549D01*
X100212718Y-125892915D01*
X100229786Y-125719622D01*
X100212718Y-125546328D01*
X100162170Y-125379695D01*
X99664834Y-124179021D01*
X99582749Y-124025450D01*
X99472281Y-123890845D01*
X99337675Y-123780377D01*
X99184105Y-123698292D01*
X99017471Y-123647744D01*
X98844178Y-123630676D01*
X98670884Y-123647744D01*
X98504251Y-123698292D01*
X97303577Y-124195628D01*
X97150006Y-124277713D01*
X97015401Y-124388181D01*
X96904933Y-124522787D01*
X96822848Y-124676357D01*
X96772300Y-124842991D01*
X96755232Y-125016284D01*
X93582516Y-125016284D01*
X93397353Y-124440875D01*
X92700742Y-121765507D01*
X92156605Y-119055014D01*
X91766686Y-116318077D01*
X91532234Y-113563465D01*
X91521628Y-113188816D01*
X94565000Y-113188816D01*
X94565000Y-113491184D01*
X94623989Y-113787743D01*
X94739701Y-114067095D01*
X94907688Y-114318505D01*
X95121495Y-114532312D01*
X95372905Y-114700299D01*
X95652257Y-114816011D01*
X95948816Y-114875000D01*
X96251184Y-114875000D01*
X96547743Y-114816011D01*
X96827095Y-114700299D01*
X97078505Y-114532312D01*
X97292312Y-114318505D01*
X97460299Y-114067095D01*
X97576011Y-113787743D01*
X97635000Y-113491184D01*
X97635000Y-113188816D01*
X97576011Y-112892257D01*
X97460299Y-112612905D01*
X97292312Y-112361495D01*
X97078505Y-112147688D01*
X96924895Y-112045049D01*
X96984475Y-111864080D01*
X96100000Y-110979605D01*
X95215525Y-111864080D01*
X95275105Y-112045049D01*
X95121495Y-112147688D01*
X94907688Y-112361495D01*
X94739701Y-112612905D01*
X94623989Y-112892257D01*
X94565000Y-113188816D01*
X91521628Y-113188816D01*
X91455885Y-110866553D01*
X94559009Y-110866553D01*
X94601603Y-111165907D01*
X94701778Y-111451199D01*
X94781739Y-111600792D01*
X95035920Y-111684475D01*
X95920395Y-110800000D01*
X96279605Y-110800000D01*
X97164080Y-111684475D01*
X97418261Y-111600792D01*
X97549158Y-111328225D01*
X97624365Y-111035358D01*
X97640991Y-110733447D01*
X97606313Y-110489721D01*
X103065000Y-110489721D01*
X103065000Y-110910279D01*
X103147047Y-111322756D01*
X103307988Y-111711302D01*
X103541637Y-112060983D01*
X103839017Y-112358363D01*
X104188698Y-112592012D01*
X104577244Y-112752953D01*
X104989721Y-112835000D01*
X105410279Y-112835000D01*
X105822756Y-112752953D01*
X106211302Y-112592012D01*
X106560983Y-112358363D01*
X106858363Y-112060983D01*
X107092012Y-111711302D01*
X107252953Y-111322756D01*
X107335000Y-110910279D01*
X107335000Y-110489721D01*
X107252953Y-110077244D01*
X107092012Y-109688698D01*
X106858363Y-109339017D01*
X106560983Y-109041637D01*
X106211302Y-108807988D01*
X105822756Y-108647047D01*
X105410279Y-108565000D01*
X104989721Y-108565000D01*
X104577244Y-108647047D01*
X104188698Y-108807988D01*
X103839017Y-109041637D01*
X103541637Y-109339017D01*
X103307988Y-109688698D01*
X103147047Y-110077244D01*
X103065000Y-110489721D01*
X97606313Y-110489721D01*
X97598397Y-110434093D01*
X97498222Y-110148801D01*
X97418261Y-109999208D01*
X97164080Y-109915525D01*
X96279605Y-110800000D01*
X95920395Y-110800000D01*
X95035920Y-109915525D01*
X94781739Y-109999208D01*
X94650842Y-110271775D01*
X94575635Y-110564642D01*
X94559009Y-110866553D01*
X91455885Y-110866553D01*
X91454000Y-110800000D01*
X91532234Y-108036535D01*
X91568520Y-107610200D01*
X94561928Y-107610200D01*
X94561928Y-108909800D01*
X94578996Y-109083093D01*
X94629544Y-109249727D01*
X94711629Y-109403297D01*
X94822097Y-109537903D01*
X94956703Y-109648371D01*
X95110273Y-109730456D01*
X95253512Y-109773907D01*
X96100000Y-110620395D01*
X96946488Y-109773907D01*
X97089727Y-109730456D01*
X97243297Y-109648371D01*
X97377903Y-109537903D01*
X97488371Y-109403297D01*
X97570456Y-109249727D01*
X97621004Y-109083093D01*
X97638072Y-108909800D01*
X97638072Y-107610200D01*
X97621004Y-107436907D01*
X97570456Y-107270273D01*
X97488371Y-107116703D01*
X97377903Y-106982097D01*
X97243297Y-106871629D01*
X97089727Y-106789544D01*
X96923093Y-106738996D01*
X96749800Y-106721928D01*
X95450200Y-106721928D01*
X95276907Y-106738996D01*
X95110273Y-106789544D01*
X94956703Y-106871629D01*
X94822097Y-106982097D01*
X94711629Y-107116703D01*
X94629544Y-107270273D01*
X94578996Y-107436907D01*
X94561928Y-107610200D01*
X91568520Y-107610200D01*
X91766686Y-105281923D01*
X92156605Y-102544986D01*
X92700742Y-99834493D01*
X93397353Y-97159125D01*
X93744330Y-96080863D01*
X96957509Y-96080863D01*
X96957509Y-96383231D01*
X97016498Y-96679790D01*
X97132210Y-96959142D01*
X97300197Y-97210552D01*
X97514004Y-97424359D01*
X97765414Y-97592346D01*
X98044766Y-97708058D01*
X98341325Y-97767047D01*
X98643693Y-97767047D01*
X98940252Y-97708058D01*
X99219604Y-97592346D01*
X99471014Y-97424359D01*
X99684821Y-97210552D01*
X99852808Y-96959142D01*
X99968520Y-96679790D01*
X100027509Y-96383231D01*
X100027509Y-96080863D01*
X99968520Y-95784304D01*
X99852808Y-95504952D01*
X99750169Y-95351342D01*
X99874467Y-95206948D01*
X99419929Y-94109597D01*
X99450384Y-94079142D01*
X99325367Y-93954125D01*
X99630458Y-93954125D01*
X100109133Y-95109747D01*
X100375990Y-95129705D01*
X100601230Y-94927978D01*
X100782786Y-94686185D01*
X100913683Y-94413618D01*
X100988890Y-94120751D01*
X101005516Y-93818840D01*
X100988889Y-93650034D01*
X100786080Y-93475451D01*
X99630458Y-93954125D01*
X99325367Y-93954125D01*
X99270776Y-93899534D01*
X98923250Y-94247060D01*
X98240171Y-94530001D01*
X98225962Y-94719994D01*
X98044766Y-94756036D01*
X97765414Y-94871748D01*
X97514004Y-95039735D01*
X97300197Y-95253542D01*
X97132210Y-95504952D01*
X97016498Y-95784304D01*
X96957509Y-96080863D01*
X93744330Y-96080863D01*
X94244208Y-94527454D01*
X94466059Y-93951946D01*
X97923534Y-93951946D01*
X97940161Y-94120752D01*
X98142970Y-94295335D01*
X99298592Y-93816661D01*
X98819917Y-92661039D01*
X98553060Y-92641081D01*
X98327820Y-92842808D01*
X98146264Y-93084601D01*
X98015367Y-93357168D01*
X97940160Y-93650035D01*
X97923534Y-93951946D01*
X94466059Y-93951946D01*
X95238594Y-91947908D01*
X95264585Y-91890408D01*
X98699264Y-91890408D01*
X98716332Y-92063701D01*
X98766880Y-92230335D01*
X98848965Y-92383905D01*
X98959433Y-92518511D01*
X99075142Y-92613471D01*
X99509121Y-93661189D01*
X99478666Y-93691644D01*
X99658274Y-93871252D01*
X100005800Y-93523726D01*
X100639245Y-93261344D01*
X100788210Y-93276016D01*
X100961503Y-93258948D01*
X101128137Y-93208400D01*
X101281707Y-93126315D01*
X101416313Y-93015847D01*
X101526781Y-92881242D01*
X101608866Y-92727671D01*
X102106202Y-91526997D01*
X102156750Y-91360364D01*
X102173818Y-91187070D01*
X102156750Y-91013777D01*
X102106202Y-90847143D01*
X102024117Y-90693573D01*
X101913649Y-90558967D01*
X101779044Y-90448499D01*
X101625473Y-90366414D01*
X100424799Y-89869078D01*
X100258166Y-89818530D01*
X100084872Y-89801462D01*
X99911579Y-89818530D01*
X99744945Y-89869078D01*
X99591375Y-89951163D01*
X99456769Y-90061631D01*
X99346301Y-90196236D01*
X99264216Y-90349807D01*
X98766880Y-91550481D01*
X98716332Y-91717114D01*
X98699264Y-91890408D01*
X95264585Y-91890408D01*
X96377324Y-89428751D01*
X97656753Y-86978053D01*
X99072780Y-84603663D01*
X99893261Y-83389721D01*
X114565000Y-83389721D01*
X114565000Y-83810279D01*
X114647047Y-84222756D01*
X114807988Y-84611302D01*
X115041637Y-84960983D01*
X115339017Y-85258363D01*
X115688698Y-85492012D01*
X116077244Y-85652953D01*
X116489721Y-85735000D01*
X116910279Y-85735000D01*
X117322756Y-85652953D01*
X117711302Y-85492012D01*
X118060983Y-85258363D01*
X118358363Y-84960983D01*
X118592012Y-84611302D01*
X118752953Y-84222756D01*
X118835000Y-83810279D01*
X118835000Y-83389721D01*
X118752953Y-82977244D01*
X118592012Y-82588698D01*
X118358363Y-82239017D01*
X118060983Y-81941637D01*
X117711302Y-81707988D01*
X117322756Y-81547047D01*
X116910279Y-81465000D01*
X116489721Y-81465000D01*
X116077244Y-81547047D01*
X115688698Y-81707988D01*
X115339017Y-81941637D01*
X115041637Y-82239017D01*
X114807988Y-82588698D01*
X114647047Y-82977244D01*
X114565000Y-83389721D01*
X99893261Y-83389721D01*
X100620871Y-82313189D01*
X101475858Y-81190748D01*
X105714830Y-81190748D01*
X105714830Y-81493116D01*
X105773819Y-81789675D01*
X105889531Y-82069027D01*
X106057518Y-82320437D01*
X106271325Y-82534244D01*
X106522735Y-82702231D01*
X106802087Y-82817943D01*
X107098646Y-82876932D01*
X107401014Y-82876932D01*
X107697573Y-82817943D01*
X107976925Y-82702231D01*
X108228335Y-82534244D01*
X108442142Y-82320437D01*
X108610129Y-82069027D01*
X108725841Y-81789675D01*
X108784830Y-81493116D01*
X108784830Y-81190748D01*
X108748788Y-81009552D01*
X108918881Y-80923717D01*
X108918881Y-79852489D01*
X109031740Y-79739630D01*
X108964991Y-79672881D01*
X109172881Y-79672881D01*
X109172881Y-80923717D01*
X109411787Y-81044278D01*
X109697079Y-80944102D01*
X109957346Y-80790193D01*
X110182586Y-80588466D01*
X110364143Y-80346673D01*
X110495040Y-80074106D01*
X110544278Y-79911787D01*
X110423717Y-79672881D01*
X109172881Y-79672881D01*
X108964991Y-79672881D01*
X108852132Y-79560022D01*
X108739273Y-79672881D01*
X107668045Y-79672881D01*
X107582210Y-79842974D01*
X107401014Y-79806932D01*
X107098646Y-79806932D01*
X106802087Y-79865921D01*
X106522735Y-79981633D01*
X106271325Y-80149620D01*
X106057518Y-80363427D01*
X105889531Y-80614837D01*
X105773819Y-80894189D01*
X105714830Y-81190748D01*
X101475858Y-81190748D01*
X102296066Y-80113966D01*
X103094912Y-79179975D01*
X107547484Y-79179975D01*
X107668045Y-79418881D01*
X108918881Y-79418881D01*
X108918881Y-78168045D01*
X108679975Y-78047484D01*
X108394683Y-78147660D01*
X108134416Y-78301569D01*
X107909176Y-78503296D01*
X107727619Y-78745089D01*
X107596722Y-79017656D01*
X107547484Y-79179975D01*
X103094912Y-79179975D01*
X104092998Y-78013040D01*
X104345264Y-77749830D01*
X109034704Y-77749830D01*
X109051772Y-77923123D01*
X109102320Y-78089757D01*
X109172881Y-78221767D01*
X109172881Y-79239273D01*
X109060022Y-79352132D01*
X109239630Y-79531740D01*
X109352489Y-79418881D01*
X110369995Y-79418881D01*
X110502005Y-79489442D01*
X110668639Y-79539990D01*
X110841932Y-79557058D01*
X111015225Y-79539990D01*
X111181859Y-79489442D01*
X111335429Y-79407357D01*
X111470035Y-79296889D01*
X112388991Y-78377933D01*
X112499459Y-78243327D01*
X112581544Y-78089757D01*
X112632092Y-77923123D01*
X112649160Y-77749830D01*
X112632092Y-77576537D01*
X112581544Y-77409903D01*
X112499459Y-77256333D01*
X112388991Y-77121727D01*
X111470035Y-76202771D01*
X111335429Y-76092303D01*
X111181859Y-76010218D01*
X111015225Y-75959670D01*
X110841932Y-75942602D01*
X110668639Y-75959670D01*
X110502005Y-76010218D01*
X110348435Y-76092303D01*
X110213829Y-76202771D01*
X109294873Y-77121727D01*
X109184405Y-77256333D01*
X109102320Y-77409903D01*
X109051772Y-77576537D01*
X109034704Y-77749830D01*
X104345264Y-77749830D01*
X106005913Y-76017140D01*
X106597117Y-75466354D01*
X126515000Y-75466354D01*
X126515001Y-84533647D01*
X126517887Y-84562945D01*
X126517844Y-84569066D01*
X126518777Y-84578585D01*
X126539178Y-84772682D01*
X126551661Y-84833496D01*
X126563295Y-84894481D01*
X126566059Y-84903637D01*
X126623771Y-85090075D01*
X126647818Y-85147279D01*
X126671087Y-85204873D01*
X126675577Y-85213317D01*
X126768402Y-85384994D01*
X126803122Y-85436468D01*
X126837117Y-85488418D01*
X126843161Y-85495829D01*
X126967565Y-85646207D01*
X127011638Y-85689973D01*
X127055057Y-85734311D01*
X127062426Y-85740408D01*
X127213668Y-85863758D01*
X127265397Y-85898126D01*
X127316608Y-85933191D01*
X127325016Y-85937737D01*
X127325020Y-85937740D01*
X127325024Y-85937742D01*
X127497343Y-86029366D01*
X127554739Y-86053022D01*
X127611807Y-86077482D01*
X127620944Y-86080310D01*
X127807780Y-86136719D01*
X127868690Y-86148780D01*
X127929409Y-86161686D01*
X127938921Y-86162686D01*
X128133155Y-86181731D01*
X128133163Y-86181731D01*
X128166353Y-86185000D01*
X151933647Y-86185000D01*
X151963020Y-86182107D01*
X151969761Y-86182154D01*
X151979279Y-86181221D01*
X152192786Y-86158781D01*
X152253620Y-86146294D01*
X152314592Y-86134662D01*
X152323748Y-86131898D01*
X152528829Y-86068414D01*
X152586096Y-86044341D01*
X152643624Y-86021098D01*
X152652067Y-86016609D01*
X152652072Y-86016607D01*
X152652077Y-86016604D01*
X152840914Y-85914501D01*
X152892369Y-85879794D01*
X152944334Y-85845789D01*
X152951746Y-85839744D01*
X153117161Y-85702901D01*
X153160911Y-85658845D01*
X153205269Y-85615406D01*
X153211366Y-85608037D01*
X153347051Y-85441670D01*
X153381422Y-85389936D01*
X153416482Y-85338733D01*
X153421032Y-85330320D01*
X153521819Y-85140766D01*
X153545462Y-85083405D01*
X153569936Y-85026301D01*
X153572765Y-85017164D01*
X153634815Y-84811645D01*
X153646877Y-84750729D01*
X153659782Y-84690013D01*
X153660782Y-84680501D01*
X153681731Y-84466843D01*
X153681731Y-84466837D01*
X153685000Y-84433647D01*
X153685000Y-83406721D01*
X159541000Y-83406721D01*
X159541000Y-83827279D01*
X159623047Y-84239756D01*
X159783988Y-84628302D01*
X160017637Y-84977983D01*
X160315017Y-85275363D01*
X160664698Y-85509012D01*
X161053244Y-85669953D01*
X161465721Y-85752000D01*
X161886279Y-85752000D01*
X162298756Y-85669953D01*
X162687302Y-85509012D01*
X163036983Y-85275363D01*
X163334363Y-84977983D01*
X163568012Y-84628302D01*
X163728953Y-84239756D01*
X163811000Y-83827279D01*
X163811000Y-83406721D01*
X163728953Y-82994244D01*
X163568012Y-82605698D01*
X163334363Y-82256017D01*
X163036983Y-81958637D01*
X162687302Y-81724988D01*
X162298756Y-81564047D01*
X161886279Y-81482000D01*
X161465721Y-81482000D01*
X161053244Y-81564047D01*
X160664698Y-81724988D01*
X160315017Y-81958637D01*
X160017637Y-82256017D01*
X159783988Y-82605698D01*
X159623047Y-82994244D01*
X159541000Y-83406721D01*
X153685000Y-83406721D01*
X153685000Y-81141191D01*
X171713177Y-81141191D01*
X171730245Y-81314484D01*
X171780793Y-81481118D01*
X171862878Y-81634688D01*
X171973346Y-81769294D01*
X172892302Y-82688250D01*
X173026908Y-82798718D01*
X173180478Y-82880803D01*
X173347112Y-82931351D01*
X173520405Y-82948419D01*
X173693698Y-82931351D01*
X173860332Y-82880803D01*
X174013902Y-82798718D01*
X174148508Y-82688250D01*
X175067464Y-81769294D01*
X175177932Y-81634688D01*
X175260017Y-81481118D01*
X175310565Y-81314484D01*
X175327633Y-81141191D01*
X175310565Y-80967898D01*
X175260017Y-80801264D01*
X175177932Y-80647694D01*
X175067464Y-80513088D01*
X174148508Y-79594132D01*
X174013902Y-79483664D01*
X173860332Y-79401579D01*
X173693698Y-79351031D01*
X173520405Y-79333963D01*
X173347112Y-79351031D01*
X173180478Y-79401579D01*
X173048468Y-79472140D01*
X172030962Y-79472140D01*
X171918103Y-79359281D01*
X171738495Y-79538889D01*
X171851354Y-79651748D01*
X171851354Y-80669254D01*
X171780793Y-80801264D01*
X171730245Y-80967898D01*
X171713177Y-81141191D01*
X153685000Y-81141191D01*
X153685000Y-79711046D01*
X170225957Y-79711046D01*
X170326133Y-79996338D01*
X170480042Y-80256605D01*
X170681769Y-80481845D01*
X170923562Y-80663402D01*
X171196129Y-80794299D01*
X171358448Y-80843537D01*
X171597354Y-80722976D01*
X171597354Y-79472140D01*
X170346518Y-79472140D01*
X170225957Y-79711046D01*
X153685000Y-79711046D01*
X153685000Y-77397905D01*
X168393303Y-77397905D01*
X168393303Y-77700273D01*
X168452292Y-77996832D01*
X168568004Y-78276184D01*
X168735991Y-78527594D01*
X168949798Y-78741401D01*
X169201208Y-78909388D01*
X169480560Y-79025100D01*
X169777119Y-79084089D01*
X170079487Y-79084089D01*
X170260683Y-79048047D01*
X170346518Y-79218140D01*
X171417746Y-79218140D01*
X171530605Y-79330999D01*
X171710213Y-79151391D01*
X171597354Y-79038532D01*
X171597354Y-77967304D01*
X171851354Y-77967304D01*
X171851354Y-79218140D01*
X173102190Y-79218140D01*
X173222751Y-78979234D01*
X173122575Y-78693942D01*
X172968666Y-78433675D01*
X172766939Y-78208435D01*
X172525146Y-78026878D01*
X172252579Y-77895981D01*
X172090260Y-77846743D01*
X171851354Y-77967304D01*
X171597354Y-77967304D01*
X171427261Y-77881469D01*
X171463303Y-77700273D01*
X171463303Y-77397905D01*
X171404314Y-77101346D01*
X171288602Y-76821994D01*
X171120615Y-76570584D01*
X170906808Y-76356777D01*
X170655398Y-76188790D01*
X170376046Y-76073078D01*
X170079487Y-76014089D01*
X169777119Y-76014089D01*
X169480560Y-76073078D01*
X169201208Y-76188790D01*
X168949798Y-76356777D01*
X168735991Y-76570584D01*
X168568004Y-76821994D01*
X168452292Y-77101346D01*
X168393303Y-77397905D01*
X153685000Y-77397905D01*
X153685000Y-75466353D01*
X153682113Y-75437045D01*
X153682156Y-75430933D01*
X153681223Y-75421415D01*
X153660822Y-75227318D01*
X153648339Y-75166504D01*
X153636705Y-75105519D01*
X153633941Y-75096363D01*
X153576229Y-74909925D01*
X153552170Y-74852692D01*
X153528913Y-74795127D01*
X153524423Y-74786682D01*
X153431598Y-74615006D01*
X153396878Y-74563532D01*
X153362883Y-74511582D01*
X153356838Y-74504170D01*
X153232435Y-74353793D01*
X153188362Y-74310027D01*
X153144943Y-74265689D01*
X153137574Y-74259592D01*
X152986332Y-74136242D01*
X152934614Y-74101881D01*
X152883393Y-74066809D01*
X152874980Y-74062260D01*
X152702657Y-73970635D01*
X152645261Y-73946978D01*
X152588193Y-73922519D01*
X152579057Y-73919690D01*
X152392220Y-73863281D01*
X152331302Y-73851219D01*
X152270590Y-73838314D01*
X152261078Y-73837314D01*
X152066845Y-73818269D01*
X152066837Y-73818269D01*
X152033647Y-73815000D01*
X128166353Y-73815000D01*
X128137045Y-73817887D01*
X128130933Y-73817844D01*
X128121415Y-73818777D01*
X127927318Y-73839178D01*
X127866504Y-73851661D01*
X127805519Y-73863295D01*
X127796363Y-73866059D01*
X127609925Y-73923771D01*
X127552692Y-73947830D01*
X127495127Y-73971087D01*
X127486682Y-73975577D01*
X127315006Y-74068402D01*
X127263532Y-74103122D01*
X127211582Y-74137117D01*
X127204170Y-74143162D01*
X127053793Y-74267565D01*
X127010027Y-74311638D01*
X126965689Y-74355057D01*
X126959592Y-74362426D01*
X126836242Y-74513668D01*
X126801881Y-74565386D01*
X126766809Y-74616607D01*
X126762260Y-74625020D01*
X126670635Y-74797343D01*
X126646978Y-74854739D01*
X126622519Y-74911807D01*
X126619690Y-74920943D01*
X126563281Y-75107780D01*
X126551219Y-75168698D01*
X126538314Y-75229410D01*
X126537314Y-75238922D01*
X126518269Y-75433155D01*
X126518269Y-75433164D01*
X126515000Y-75466354D01*
X106597117Y-75466354D01*
X108028682Y-74132661D01*
X110154826Y-72365637D01*
X112291505Y-70785357D01*
X119503739Y-70785357D01*
X119503739Y-71087725D01*
X119562728Y-71384284D01*
X119678440Y-71663636D01*
X119846427Y-71915046D01*
X120060234Y-72128853D01*
X120311644Y-72296840D01*
X120590996Y-72412552D01*
X120887555Y-72471541D01*
X121189923Y-72471541D01*
X121486482Y-72412552D01*
X121765834Y-72296840D01*
X122017244Y-72128853D01*
X122231051Y-71915046D01*
X122399038Y-71663636D01*
X122514750Y-71384284D01*
X122534283Y-71286080D01*
X122975451Y-71286080D01*
X123150034Y-71488889D01*
X123451945Y-71505515D01*
X123751299Y-71462922D01*
X124036591Y-71362746D01*
X124296858Y-71208837D01*
X124522098Y-71007110D01*
X124629705Y-70875990D01*
X155970295Y-70875990D01*
X156172022Y-71101230D01*
X156413815Y-71282786D01*
X156686382Y-71413683D01*
X156979249Y-71488890D01*
X157281160Y-71505516D01*
X157449966Y-71488889D01*
X157624549Y-71286080D01*
X157157397Y-70158274D01*
X157228748Y-70158274D01*
X157576274Y-70505800D01*
X157838656Y-71139245D01*
X157823984Y-71288210D01*
X157841052Y-71461503D01*
X157891600Y-71628137D01*
X157973685Y-71781707D01*
X158084153Y-71916313D01*
X158218758Y-72026781D01*
X158372329Y-72108866D01*
X159573003Y-72606202D01*
X159739636Y-72656750D01*
X159912930Y-72673818D01*
X160086223Y-72656750D01*
X160252857Y-72606202D01*
X160406427Y-72524117D01*
X160541033Y-72413649D01*
X160651501Y-72279044D01*
X160733586Y-72125473D01*
X161230922Y-70924799D01*
X161281470Y-70758166D01*
X161298538Y-70584872D01*
X161281470Y-70411579D01*
X161230922Y-70244945D01*
X161148837Y-70091375D01*
X161038369Y-69956769D01*
X160903764Y-69846301D01*
X160750193Y-69764216D01*
X159549519Y-69266880D01*
X159382886Y-69216332D01*
X159209592Y-69199264D01*
X159036299Y-69216332D01*
X158869665Y-69266880D01*
X158716095Y-69348965D01*
X158581489Y-69459433D01*
X158486529Y-69575142D01*
X157438811Y-70009121D01*
X157408356Y-69978666D01*
X157228748Y-70158274D01*
X157157397Y-70158274D01*
X157145875Y-70130458D01*
X155990253Y-70609133D01*
X155970295Y-70875990D01*
X124629705Y-70875990D01*
X124609747Y-70609133D01*
X123454125Y-70130458D01*
X122975451Y-71286080D01*
X122534283Y-71286080D01*
X122550792Y-71203088D01*
X122740785Y-71188879D01*
X123023726Y-70505800D01*
X123371252Y-70158274D01*
X123191644Y-69978666D01*
X123161189Y-70009121D01*
X122063838Y-69554583D01*
X121919444Y-69678881D01*
X121765834Y-69576242D01*
X121486482Y-69460530D01*
X121189923Y-69401541D01*
X120887555Y-69401541D01*
X120590996Y-69460530D01*
X120311644Y-69576242D01*
X120060234Y-69744229D01*
X119846427Y-69958036D01*
X119678440Y-70209446D01*
X119562728Y-70488798D01*
X119503739Y-70785357D01*
X112291505Y-70785357D01*
X112377534Y-70721731D01*
X114689686Y-69206208D01*
X114954946Y-69053060D01*
X122141081Y-69053060D01*
X122161039Y-69319917D01*
X123316661Y-69798592D01*
X123328182Y-69770776D01*
X123399534Y-69770776D01*
X123579142Y-69950384D01*
X123609597Y-69919929D01*
X124657315Y-70353908D01*
X124752275Y-70469617D01*
X124886881Y-70580085D01*
X125040451Y-70662170D01*
X125207085Y-70712718D01*
X125380378Y-70729786D01*
X125553672Y-70712718D01*
X125720305Y-70662170D01*
X126920979Y-70164834D01*
X127074550Y-70082749D01*
X127209155Y-69972281D01*
X127319623Y-69837675D01*
X127401708Y-69684105D01*
X127452256Y-69517471D01*
X127469324Y-69344178D01*
X127452256Y-69170884D01*
X127401708Y-69004251D01*
X127334222Y-68841325D01*
X153332953Y-68841325D01*
X153332953Y-69143693D01*
X153391942Y-69440252D01*
X153507654Y-69719604D01*
X153675641Y-69971014D01*
X153889448Y-70184821D01*
X154140858Y-70352808D01*
X154420210Y-70468520D01*
X154716769Y-70527509D01*
X155019137Y-70527509D01*
X155315696Y-70468520D01*
X155595048Y-70352808D01*
X155748658Y-70250169D01*
X155893052Y-70374467D01*
X156990403Y-69919929D01*
X157020858Y-69950384D01*
X157200466Y-69770776D01*
X156852940Y-69423250D01*
X156569999Y-68740171D01*
X156380006Y-68725962D01*
X156363498Y-68642970D01*
X156804665Y-68642970D01*
X157283339Y-69798592D01*
X158438961Y-69319917D01*
X158458919Y-69053060D01*
X158257192Y-68827820D01*
X158015399Y-68646264D01*
X157742832Y-68515367D01*
X157449965Y-68440160D01*
X157148054Y-68423534D01*
X156979248Y-68440161D01*
X156804665Y-68642970D01*
X156363498Y-68642970D01*
X156343964Y-68544766D01*
X156228252Y-68265414D01*
X156060265Y-68014004D01*
X155846458Y-67800197D01*
X155595048Y-67632210D01*
X155315696Y-67516498D01*
X155019137Y-67457509D01*
X154716769Y-67457509D01*
X154420210Y-67516498D01*
X154140858Y-67632210D01*
X153889448Y-67800197D01*
X153675641Y-68014004D01*
X153507654Y-68265414D01*
X153391942Y-68544766D01*
X153332953Y-68841325D01*
X127334222Y-68841325D01*
X126904372Y-67803577D01*
X126822287Y-67650006D01*
X126711819Y-67515401D01*
X126577213Y-67404933D01*
X126423643Y-67322848D01*
X126257009Y-67272300D01*
X126083716Y-67255232D01*
X125910422Y-67272300D01*
X125743789Y-67322848D01*
X124543115Y-67820184D01*
X124389544Y-67902269D01*
X124254939Y-68012737D01*
X124144471Y-68147343D01*
X124062386Y-68300913D01*
X124011838Y-68467547D01*
X123994770Y-68640840D01*
X124009442Y-68789805D01*
X123747060Y-69423250D01*
X123399534Y-69770776D01*
X123328182Y-69770776D01*
X123795335Y-68642970D01*
X123620752Y-68440161D01*
X123318841Y-68423535D01*
X123019487Y-68466128D01*
X122734195Y-68566304D01*
X122473928Y-68720213D01*
X122248688Y-68921940D01*
X122141081Y-69053060D01*
X114954946Y-69053060D01*
X117083876Y-67823922D01*
X119552434Y-66579301D01*
X119852335Y-66448816D01*
X136225000Y-66448816D01*
X136225000Y-66751184D01*
X136283989Y-67047743D01*
X136399701Y-67327095D01*
X136567688Y-67578505D01*
X136781495Y-67792312D01*
X137032905Y-67960299D01*
X137312257Y-68076011D01*
X137608816Y-68135000D01*
X137911184Y-68135000D01*
X138207743Y-68076011D01*
X138487095Y-67960299D01*
X138738505Y-67792312D01*
X138866737Y-67664080D01*
X139415525Y-67664080D01*
X139499208Y-67918261D01*
X139771775Y-68049158D01*
X140064642Y-68124365D01*
X140366553Y-68140991D01*
X140665907Y-68098397D01*
X140951199Y-67998222D01*
X141100792Y-67918261D01*
X141184475Y-67664080D01*
X140300000Y-66779605D01*
X139415525Y-67664080D01*
X138866737Y-67664080D01*
X138952312Y-67578505D01*
X139054951Y-67424895D01*
X139235920Y-67484475D01*
X140120395Y-66600000D01*
X140479605Y-66600000D01*
X141326093Y-67446488D01*
X141369544Y-67589727D01*
X141451629Y-67743297D01*
X141562097Y-67877903D01*
X141696703Y-67988371D01*
X141850273Y-68070456D01*
X142016907Y-68121004D01*
X142190200Y-68138072D01*
X143489800Y-68138072D01*
X143663093Y-68121004D01*
X143829727Y-68070456D01*
X143983297Y-67988371D01*
X144117903Y-67877903D01*
X144228371Y-67743297D01*
X144310456Y-67589727D01*
X144361004Y-67423093D01*
X144378072Y-67249800D01*
X144378072Y-65950200D01*
X144361004Y-65776907D01*
X144310456Y-65610273D01*
X144228371Y-65456703D01*
X144117903Y-65322097D01*
X143983297Y-65211629D01*
X143829727Y-65129544D01*
X143663093Y-65078996D01*
X143489800Y-65061928D01*
X142190200Y-65061928D01*
X142016907Y-65078996D01*
X141850273Y-65129544D01*
X141696703Y-65211629D01*
X141562097Y-65322097D01*
X141451629Y-65456703D01*
X141369544Y-65610273D01*
X141326093Y-65753512D01*
X140479605Y-66600000D01*
X140120395Y-66600000D01*
X139235920Y-65715525D01*
X139054951Y-65775105D01*
X138952312Y-65621495D01*
X138866737Y-65535920D01*
X139415525Y-65535920D01*
X140300000Y-66420395D01*
X141184475Y-65535920D01*
X141100792Y-65281739D01*
X140828225Y-65150842D01*
X140535358Y-65075635D01*
X140233447Y-65059009D01*
X139934093Y-65101603D01*
X139648801Y-65201778D01*
X139499208Y-65281739D01*
X139415525Y-65535920D01*
X138866737Y-65535920D01*
X138738505Y-65407688D01*
X138487095Y-65239701D01*
X138207743Y-65123989D01*
X137911184Y-65065000D01*
X137608816Y-65065000D01*
X137312257Y-65123989D01*
X137032905Y-65239701D01*
X136781495Y-65407688D01*
X136567688Y-65621495D01*
X136399701Y-65872905D01*
X136283989Y-66152257D01*
X136225000Y-66448816D01*
X119852335Y-66448816D01*
X122087452Y-65476333D01*
X124680811Y-64518549D01*
X127324203Y-63709020D01*
X130009160Y-63050337D01*
X132727082Y-62544610D01*
X135469262Y-62193460D01*
X138226917Y-61998012D01*
X140991212Y-61958891D01*
X143753293Y-62076223D01*
G37*
%TD.AperFunction*%
%TD*%
M02*
