%FSLAX45Y45*%
G04 Gerber Fmt 4.5, Leading zero omitted, Abs format (unit mm)*
G04 Created by KiCad (PCBNEW (5.1.9)-1) date 2022-03-15 13:39:52*
%MOMM*%
%LPD*%
G01*
G04 APERTURE LIST*
%TA.AperFunction,Profile*%
%ADD10C,0.100000*%
%TD*%
%ADD11C,0.200000*%
%ADD12C,0.300000*%
G04 APERTURE END LIST*
D10*
X15200000Y-7450000D02*
X12820000Y-7450000D01*
X15200000Y-7450000D02*
G75*
G02*
X15300000Y-7550000I0J-100000D01*
G01*
X12820000Y-8550000D02*
X15190000Y-8550000D01*
X11170000Y-13160000D02*
X12100000Y-13160000D01*
X11170000Y-9060000D02*
X12100000Y-9060000D01*
X16150000Y-13150000D02*
X17150000Y-13150000D01*
X16150000Y-9050000D02*
X17150000Y-9050000D01*
X11070000Y-13060000D02*
X11070000Y-9160000D01*
X12200000Y-9160000D02*
X12200000Y-13060000D01*
X12100000Y-9060000D02*
G75*
G02*
X12200000Y-9160000I0J-100000D01*
G01*
X11170000Y-13160000D02*
G75*
G02*
X11070000Y-13060000I0J100000D01*
G01*
X12200000Y-13060000D02*
G75*
G02*
X12100000Y-13160000I-100000J0D01*
G01*
X11070000Y-9160000D02*
G75*
G02*
X11170000Y-9060000I100000J0D01*
G01*
X16050000Y-13050000D02*
X16050000Y-9150000D01*
X17250000Y-9150000D02*
X17250000Y-13050000D01*
X17150000Y-9050000D02*
G75*
G02*
X17250000Y-9150000I0J-100000D01*
G01*
X16050000Y-9150000D02*
G75*
G02*
X16150000Y-9050000I100000J0D01*
G01*
X16150000Y-13150000D02*
G75*
G02*
X16050000Y-13050000I0J100000D01*
G01*
X17250000Y-13050000D02*
G75*
G02*
X17150000Y-13150000I-100000J0D01*
G01*
X12720000Y-7550000D02*
X12720000Y-8450000D01*
X15300000Y-8440000D02*
X15300000Y-7550000D01*
X15300000Y-8440000D02*
G75*
G02*
X15190000Y-8550000I-110000J0D01*
G01*
X12820000Y-8550000D02*
G75*
G02*
X12720000Y-8450000I0J100000D01*
G01*
X12720000Y-7550000D02*
G75*
G02*
X12820000Y-7450000I100000J0D01*
G01*
X18983100Y-11080000D02*
G75*
G03*
X18983100Y-11080000I-4953100J0D01*
G01*
D11*
X9565000Y-10781000D02*
X9655000Y-10871000D01*
X9655000Y-10781000D02*
X9565000Y-10871000D01*
X9565000Y-11035000D02*
X9655000Y-11125000D01*
X9655000Y-11035000D02*
X9565000Y-11125000D01*
X9565000Y-11289000D02*
X9655000Y-11379000D01*
X9655000Y-11289000D02*
X9565000Y-11379000D01*
X9804251Y-9578205D02*
X9894251Y-9668205D01*
X9894251Y-9578205D02*
X9804251Y-9668205D01*
X9804251Y-12491795D02*
X9894251Y-12581795D01*
X9894251Y-12491795D02*
X9804251Y-12581795D01*
X9901453Y-9343539D02*
X9991453Y-9433539D01*
X9991453Y-9343539D02*
X9901453Y-9433539D01*
X9901453Y-12726461D02*
X9991453Y-12816461D01*
X9991453Y-12726461D02*
X9901453Y-12816461D01*
X9998654Y-9108874D02*
X10088654Y-9198874D01*
X10088654Y-9108874D02*
X9998654Y-9198874D01*
X9998654Y-12961126D02*
X10088654Y-13051126D01*
X10088654Y-12961126D02*
X9998654Y-13051126D01*
X10679983Y-8089193D02*
X10769983Y-8179193D01*
X10769983Y-8089193D02*
X10679983Y-8179193D01*
X10679983Y-13980807D02*
X10769983Y-14070807D01*
X10769983Y-13980807D02*
X10679983Y-14070807D01*
X10859588Y-7909588D02*
X10949588Y-7999588D01*
X10949588Y-7909588D02*
X10859588Y-7999588D01*
X10859588Y-14160412D02*
X10949588Y-14250412D01*
X10949588Y-14160412D02*
X10859588Y-14250412D01*
X11039193Y-7729983D02*
X11129193Y-7819983D01*
X11129193Y-7729983D02*
X11039193Y-7819983D01*
X11039193Y-14340017D02*
X11129193Y-14430017D01*
X11129193Y-14340017D02*
X11039193Y-14430017D01*
X12058874Y-7048654D02*
X12148874Y-7138654D01*
X12148874Y-7048654D02*
X12058874Y-7138654D01*
X12058874Y-15021346D02*
X12148874Y-15111346D01*
X12148874Y-15021346D02*
X12058874Y-15111346D01*
X12293539Y-6951452D02*
X12383539Y-7041452D01*
X12383539Y-6951452D02*
X12293539Y-7041452D01*
X12293539Y-15118547D02*
X12383539Y-15208547D01*
X12383539Y-15118547D02*
X12293539Y-15208547D01*
X12528205Y-6854251D02*
X12618205Y-6944251D01*
X12618205Y-6854251D02*
X12528205Y-6944251D01*
X12528205Y-15215749D02*
X12618205Y-15305749D01*
X12618205Y-15215749D02*
X12528205Y-15305749D01*
X13731000Y-6615000D02*
X13821000Y-6705000D01*
X13821000Y-6615000D02*
X13731000Y-6705000D01*
X13731000Y-15455000D02*
X13821000Y-15545000D01*
X13821000Y-15455000D02*
X13731000Y-15545000D01*
X13985000Y-6615000D02*
X14075000Y-6705000D01*
X14075000Y-6615000D02*
X13985000Y-6705000D01*
X13985000Y-15455000D02*
X14075000Y-15545000D01*
X14075000Y-15455000D02*
X13985000Y-15545000D01*
X14239000Y-6615000D02*
X14329000Y-6705000D01*
X14329000Y-6615000D02*
X14239000Y-6705000D01*
X14239000Y-15455000D02*
X14329000Y-15545000D01*
X14329000Y-15455000D02*
X14239000Y-15545000D01*
X15441795Y-6854251D02*
X15531795Y-6944251D01*
X15531795Y-6854251D02*
X15441795Y-6944251D01*
X15441795Y-15215749D02*
X15531795Y-15305749D01*
X15531795Y-15215749D02*
X15441795Y-15305749D01*
X15676461Y-6951452D02*
X15766461Y-7041452D01*
X15766461Y-6951452D02*
X15676461Y-7041452D01*
X15676461Y-15118547D02*
X15766461Y-15208547D01*
X15766461Y-15118547D02*
X15676461Y-15208547D01*
X15911126Y-7048654D02*
X16001126Y-7138654D01*
X16001126Y-7048654D02*
X15911126Y-7138654D01*
X15911126Y-15021346D02*
X16001126Y-15111346D01*
X16001126Y-15021346D02*
X15911126Y-15111346D01*
X16947830Y-7709909D02*
X17037830Y-7799909D01*
X17037830Y-7709909D02*
X16947830Y-7799909D01*
X16947830Y-14319943D02*
X17037830Y-14409943D01*
X17037830Y-14319943D02*
X16947830Y-14409943D01*
X17127435Y-7889514D02*
X17217435Y-7979514D01*
X17217435Y-7889514D02*
X17127435Y-7979514D01*
X17127435Y-14140338D02*
X17217435Y-14230338D01*
X17217435Y-14140338D02*
X17127435Y-14230338D01*
X17307041Y-8069119D02*
X17397041Y-8159119D01*
X17397041Y-8069119D02*
X17307041Y-8159119D01*
X17307041Y-13960733D02*
X17397041Y-14050733D01*
X17397041Y-13960733D02*
X17307041Y-14050733D01*
X17988369Y-9088800D02*
X18078369Y-9178800D01*
X18078369Y-9088800D02*
X17988369Y-9178800D01*
X17988369Y-12941052D02*
X18078369Y-13031052D01*
X18078369Y-12941052D02*
X17988369Y-13031052D01*
X18085571Y-9323465D02*
X18175571Y-9413465D01*
X18175571Y-9323465D02*
X18085571Y-9413465D01*
X18085571Y-12706387D02*
X18175571Y-12796387D01*
X18175571Y-12706387D02*
X18085571Y-12796387D01*
X18182773Y-9558131D02*
X18272773Y-9648131D01*
X18272773Y-9558131D02*
X18182773Y-9648131D01*
X18182773Y-12471721D02*
X18272773Y-12561721D01*
X18272773Y-12471721D02*
X18182773Y-12561721D01*
X18422023Y-10760926D02*
X18512023Y-10850926D01*
X18512023Y-10760926D02*
X18422023Y-10850926D01*
X18422023Y-11014926D02*
X18512023Y-11104926D01*
X18512023Y-11014926D02*
X18422023Y-11104926D01*
X18422023Y-11268926D02*
X18512023Y-11358926D01*
X18512023Y-11268926D02*
X18422023Y-11358926D01*
X13597500Y-13970000D02*
G75*
G03*
X13597500Y-13970000I-47500J0D01*
G01*
X13847500Y-13970000D02*
G75*
G03*
X13847500Y-13970000I-47500J0D01*
G01*
X14097500Y-13970000D02*
G75*
G03*
X14097500Y-13970000I-47500J0D01*
G01*
X14347500Y-13970000D02*
G75*
G03*
X14347500Y-13970000I-47500J0D01*
G01*
X14597500Y-13970000D02*
G75*
G03*
X14597500Y-13970000I-47500J0D01*
G01*
X13270000Y-9120000D02*
X13270000Y-9220000D01*
X13220000Y-9170000D02*
X13320000Y-9170000D01*
X13270000Y-9374000D02*
X13270000Y-9474000D01*
X13220000Y-9424000D02*
X13320000Y-9424000D01*
X13270000Y-9628000D02*
X13270000Y-9728000D01*
X13220000Y-9678000D02*
X13320000Y-9678000D01*
X13270000Y-9882000D02*
X13270000Y-9982000D01*
X13220000Y-9932000D02*
X13320000Y-9932000D01*
X13270000Y-10136000D02*
X13270000Y-10236000D01*
X13220000Y-10186000D02*
X13320000Y-10186000D01*
X13270000Y-10390000D02*
X13270000Y-10490000D01*
X13220000Y-10440000D02*
X13320000Y-10440000D01*
X13270000Y-10644000D02*
X13270000Y-10744000D01*
X13220000Y-10694000D02*
X13320000Y-10694000D01*
X13270000Y-10898000D02*
X13270000Y-10998000D01*
X13220000Y-10948000D02*
X13320000Y-10948000D01*
X13270000Y-11152000D02*
X13270000Y-11252000D01*
X13220000Y-11202000D02*
X13320000Y-11202000D01*
X13270000Y-11406000D02*
X13270000Y-11506000D01*
X13220000Y-11456000D02*
X13320000Y-11456000D01*
X13270000Y-11660000D02*
X13270000Y-11760000D01*
X13220000Y-11710000D02*
X13320000Y-11710000D01*
X13270000Y-11914000D02*
X13270000Y-12014000D01*
X13220000Y-11964000D02*
X13320000Y-11964000D01*
X13270000Y-12168000D02*
X13270000Y-12268000D01*
X13220000Y-12218000D02*
X13320000Y-12218000D01*
X13270000Y-12422000D02*
X13270000Y-12522000D01*
X13220000Y-12472000D02*
X13320000Y-12472000D01*
X13270000Y-12676000D02*
X13270000Y-12776000D01*
X13220000Y-12726000D02*
X13320000Y-12726000D01*
X14794000Y-9120000D02*
X14794000Y-9220000D01*
X14744000Y-9170000D02*
X14844000Y-9170000D01*
X14794000Y-9374000D02*
X14794000Y-9474000D01*
X14744000Y-9424000D02*
X14844000Y-9424000D01*
X14794000Y-9628000D02*
X14794000Y-9728000D01*
X14744000Y-9678000D02*
X14844000Y-9678000D01*
X14794000Y-9882000D02*
X14794000Y-9982000D01*
X14744000Y-9932000D02*
X14844000Y-9932000D01*
X14794000Y-10136000D02*
X14794000Y-10236000D01*
X14744000Y-10186000D02*
X14844000Y-10186000D01*
X14794000Y-10390000D02*
X14794000Y-10490000D01*
X14744000Y-10440000D02*
X14844000Y-10440000D01*
X14794000Y-10644000D02*
X14794000Y-10744000D01*
X14744000Y-10694000D02*
X14844000Y-10694000D01*
X14794000Y-10898000D02*
X14794000Y-10998000D01*
X14744000Y-10948000D02*
X14844000Y-10948000D01*
X14794000Y-11152000D02*
X14794000Y-11252000D01*
X14744000Y-11202000D02*
X14844000Y-11202000D01*
X14794000Y-11406000D02*
X14794000Y-11506000D01*
X14744000Y-11456000D02*
X14844000Y-11456000D01*
X14794000Y-11660000D02*
X14794000Y-11760000D01*
X14744000Y-11710000D02*
X14844000Y-11710000D01*
X14794000Y-11914000D02*
X14794000Y-12014000D01*
X14744000Y-11964000D02*
X14844000Y-11964000D01*
X14794000Y-12168000D02*
X14794000Y-12268000D01*
X14744000Y-12218000D02*
X14844000Y-12218000D01*
X14794000Y-12422000D02*
X14794000Y-12522000D01*
X14744000Y-12472000D02*
X14844000Y-12472000D01*
X14794000Y-12676000D02*
X14794000Y-12776000D01*
X14744000Y-12726000D02*
X14844000Y-12726000D01*
X10626067Y-11176067D02*
X10626067Y-10963933D01*
X10413933Y-10963933D01*
X10413933Y-11176067D01*
X10626067Y-11176067D01*
X11673667Y-13867767D02*
X11673667Y-13655633D01*
X11461533Y-13655633D01*
X11461533Y-13867767D01*
X11673667Y-13867767D01*
X11873667Y-8467767D02*
X11873667Y-8255633D01*
X11661533Y-8255633D01*
X11661533Y-8467767D01*
X11873667Y-8467767D01*
X16173667Y-8467767D02*
X16173667Y-8255633D01*
X15961533Y-8255633D01*
X15961533Y-8467767D01*
X16173667Y-8467767D01*
X16173667Y-13867767D02*
X16173667Y-13655633D01*
X15961533Y-13655633D01*
X15961533Y-13867767D01*
X16173667Y-13867767D01*
X17746067Y-11196067D02*
X17746067Y-10983933D01*
X17533933Y-10983933D01*
X17533933Y-11196067D01*
X17746067Y-11196067D01*
D12*
X9358328Y-16503814D02*
X9358328Y-16203814D01*
X9429757Y-16203814D01*
X9472614Y-16218100D01*
X9501186Y-16246671D01*
X9515471Y-16275243D01*
X9529757Y-16332386D01*
X9529757Y-16375243D01*
X9515471Y-16432386D01*
X9501186Y-16460957D01*
X9472614Y-16489529D01*
X9429757Y-16503814D01*
X9358328Y-16503814D01*
X9658328Y-16503814D02*
X9658328Y-16303814D01*
X9658328Y-16360957D02*
X9672614Y-16332386D01*
X9686900Y-16318100D01*
X9715471Y-16303814D01*
X9744043Y-16303814D01*
X9844043Y-16503814D02*
X9844043Y-16303814D01*
X9844043Y-16203814D02*
X9829757Y-16218100D01*
X9844043Y-16232386D01*
X9858328Y-16218100D01*
X9844043Y-16203814D01*
X9844043Y-16232386D01*
X10029757Y-16503814D02*
X10001186Y-16489529D01*
X9986900Y-16460957D01*
X9986900Y-16203814D01*
X10186900Y-16503814D02*
X10158328Y-16489529D01*
X10144043Y-16460957D01*
X10144043Y-16203814D01*
X10529757Y-16503814D02*
X10529757Y-16203814D01*
X10629757Y-16418100D01*
X10729757Y-16203814D01*
X10729757Y-16503814D01*
X11001186Y-16503814D02*
X11001186Y-16346671D01*
X10986900Y-16318100D01*
X10958328Y-16303814D01*
X10901186Y-16303814D01*
X10872614Y-16318100D01*
X11001186Y-16489529D02*
X10972614Y-16503814D01*
X10901186Y-16503814D01*
X10872614Y-16489529D01*
X10858328Y-16460957D01*
X10858328Y-16432386D01*
X10872614Y-16403814D01*
X10901186Y-16389529D01*
X10972614Y-16389529D01*
X11001186Y-16375243D01*
X11144043Y-16303814D02*
X11144043Y-16603814D01*
X11144043Y-16318100D02*
X11172614Y-16303814D01*
X11229757Y-16303814D01*
X11258328Y-16318100D01*
X11272614Y-16332386D01*
X11286900Y-16360957D01*
X11286900Y-16446671D01*
X11272614Y-16475243D01*
X11258328Y-16489529D01*
X11229757Y-16503814D01*
X11172614Y-16503814D01*
X11144043Y-16489529D01*
X11415471Y-16475243D02*
X11429757Y-16489529D01*
X11415471Y-16503814D01*
X11401186Y-16489529D01*
X11415471Y-16475243D01*
X11415471Y-16503814D01*
X11415471Y-16318100D02*
X11429757Y-16332386D01*
X11415471Y-16346671D01*
X11401186Y-16332386D01*
X11415471Y-16318100D01*
X11415471Y-16346671D01*
X8981900Y-16953100D02*
X9071900Y-17043100D01*
X9071900Y-16953100D02*
X8981900Y-17043100D01*
X9415471Y-16833814D02*
X9444043Y-16833814D01*
X9472614Y-16848100D01*
X9486900Y-16862386D01*
X9501186Y-16890957D01*
X9515471Y-16948100D01*
X9515471Y-17019529D01*
X9501186Y-17076672D01*
X9486900Y-17105243D01*
X9472614Y-17119529D01*
X9444043Y-17133814D01*
X9415471Y-17133814D01*
X9386900Y-17119529D01*
X9372614Y-17105243D01*
X9358328Y-17076672D01*
X9344043Y-17019529D01*
X9344043Y-16948100D01*
X9358328Y-16890957D01*
X9372614Y-16862386D01*
X9386900Y-16848100D01*
X9415471Y-16833814D01*
X9644043Y-17105243D02*
X9658328Y-17119529D01*
X9644043Y-17133814D01*
X9629757Y-17119529D01*
X9644043Y-17105243D01*
X9644043Y-17133814D01*
X9801186Y-17133814D02*
X9858328Y-17133814D01*
X9886900Y-17119529D01*
X9901186Y-17105243D01*
X9929757Y-17062386D01*
X9944043Y-17005243D01*
X9944043Y-16890957D01*
X9929757Y-16862386D01*
X9915471Y-16848100D01*
X9886900Y-16833814D01*
X9829757Y-16833814D01*
X9801186Y-16848100D01*
X9786900Y-16862386D01*
X9772614Y-16890957D01*
X9772614Y-16962386D01*
X9786900Y-16990957D01*
X9801186Y-17005243D01*
X9829757Y-17019529D01*
X9886900Y-17019529D01*
X9915471Y-17005243D01*
X9929757Y-16990957D01*
X9944043Y-16962386D01*
X10129757Y-16833814D02*
X10158328Y-16833814D01*
X10186900Y-16848100D01*
X10201186Y-16862386D01*
X10215471Y-16890957D01*
X10229757Y-16948100D01*
X10229757Y-17019529D01*
X10215471Y-17076672D01*
X10201186Y-17105243D01*
X10186900Y-17119529D01*
X10158328Y-17133814D01*
X10129757Y-17133814D01*
X10101186Y-17119529D01*
X10086900Y-17105243D01*
X10072614Y-17076672D01*
X10058328Y-17019529D01*
X10058328Y-16948100D01*
X10072614Y-16890957D01*
X10086900Y-16862386D01*
X10101186Y-16848100D01*
X10129757Y-16833814D01*
X10358328Y-17133814D02*
X10358328Y-16933814D01*
X10358328Y-16962386D02*
X10372614Y-16948100D01*
X10401186Y-16933814D01*
X10444043Y-16933814D01*
X10472614Y-16948100D01*
X10486900Y-16976672D01*
X10486900Y-17133814D01*
X10486900Y-16976672D02*
X10501186Y-16948100D01*
X10529757Y-16933814D01*
X10572614Y-16933814D01*
X10601186Y-16948100D01*
X10615471Y-16976672D01*
X10615471Y-17133814D01*
X10758328Y-17133814D02*
X10758328Y-16933814D01*
X10758328Y-16962386D02*
X10772614Y-16948100D01*
X10801186Y-16933814D01*
X10844043Y-16933814D01*
X10872614Y-16948100D01*
X10886900Y-16976672D01*
X10886900Y-17133814D01*
X10886900Y-16976672D02*
X10901186Y-16948100D01*
X10929757Y-16933814D01*
X10972614Y-16933814D01*
X11001186Y-16948100D01*
X11015471Y-16976672D01*
X11015471Y-17133814D01*
X11601186Y-16819529D02*
X11344043Y-17205243D01*
X11986900Y-16833814D02*
X12015471Y-16833814D01*
X12044043Y-16848100D01*
X12058328Y-16862386D01*
X12072614Y-16890957D01*
X12086900Y-16948100D01*
X12086900Y-17019529D01*
X12072614Y-17076672D01*
X12058328Y-17105243D01*
X12044043Y-17119529D01*
X12015471Y-17133814D01*
X11986900Y-17133814D01*
X11958328Y-17119529D01*
X11944043Y-17105243D01*
X11929757Y-17076672D01*
X11915471Y-17019529D01*
X11915471Y-16948100D01*
X11929757Y-16890957D01*
X11944043Y-16862386D01*
X11958328Y-16848100D01*
X11986900Y-16833814D01*
X12215471Y-17105243D02*
X12229757Y-17119529D01*
X12215471Y-17133814D01*
X12201186Y-17119529D01*
X12215471Y-17105243D01*
X12215471Y-17133814D01*
X12415471Y-16833814D02*
X12444043Y-16833814D01*
X12472614Y-16848100D01*
X12486900Y-16862386D01*
X12501186Y-16890957D01*
X12515471Y-16948100D01*
X12515471Y-17019529D01*
X12501186Y-17076672D01*
X12486900Y-17105243D01*
X12472614Y-17119529D01*
X12444043Y-17133814D01*
X12415471Y-17133814D01*
X12386900Y-17119529D01*
X12372614Y-17105243D01*
X12358328Y-17076672D01*
X12344043Y-17019529D01*
X12344043Y-16948100D01*
X12358328Y-16890957D01*
X12372614Y-16862386D01*
X12386900Y-16848100D01*
X12415471Y-16833814D01*
X12615471Y-16833814D02*
X12801186Y-16833814D01*
X12701186Y-16948100D01*
X12744043Y-16948100D01*
X12772614Y-16962386D01*
X12786900Y-16976672D01*
X12801186Y-17005243D01*
X12801186Y-17076672D01*
X12786900Y-17105243D01*
X12772614Y-17119529D01*
X12744043Y-17133814D01*
X12658328Y-17133814D01*
X12629757Y-17119529D01*
X12615471Y-17105243D01*
X13072614Y-16833814D02*
X12929757Y-16833814D01*
X12915471Y-16976672D01*
X12929757Y-16962386D01*
X12958328Y-16948100D01*
X13029757Y-16948100D01*
X13058328Y-16962386D01*
X13072614Y-16976672D01*
X13086900Y-17005243D01*
X13086900Y-17076672D01*
X13072614Y-17105243D01*
X13058328Y-17119529D01*
X13029757Y-17133814D01*
X12958328Y-17133814D01*
X12929757Y-17119529D01*
X12915471Y-17105243D01*
X13201186Y-16833814D02*
X13201186Y-16890957D01*
X13315471Y-16833814D02*
X13315471Y-16890957D01*
X13758328Y-17248100D02*
X13744043Y-17233814D01*
X13715471Y-17190957D01*
X13701186Y-17162386D01*
X13686900Y-17119529D01*
X13672614Y-17048100D01*
X13672614Y-16990957D01*
X13686900Y-16919529D01*
X13701186Y-16876672D01*
X13715471Y-16848100D01*
X13744043Y-16805243D01*
X13758328Y-16790957D01*
X14001186Y-16933814D02*
X14001186Y-17133814D01*
X13929757Y-16819529D02*
X13858328Y-17033814D01*
X14044043Y-17033814D01*
X14201186Y-16962386D02*
X14172614Y-16948100D01*
X14158328Y-16933814D01*
X14144043Y-16905243D01*
X14144043Y-16890957D01*
X14158328Y-16862386D01*
X14172614Y-16848100D01*
X14201186Y-16833814D01*
X14258328Y-16833814D01*
X14286900Y-16848100D01*
X14301186Y-16862386D01*
X14315471Y-16890957D01*
X14315471Y-16905243D01*
X14301186Y-16933814D01*
X14286900Y-16948100D01*
X14258328Y-16962386D01*
X14201186Y-16962386D01*
X14172614Y-16976672D01*
X14158328Y-16990957D01*
X14144043Y-17019529D01*
X14144043Y-17076672D01*
X14158328Y-17105243D01*
X14172614Y-17119529D01*
X14201186Y-17133814D01*
X14258328Y-17133814D01*
X14286900Y-17119529D01*
X14301186Y-17105243D01*
X14315471Y-17076672D01*
X14315471Y-17019529D01*
X14301186Y-16990957D01*
X14286900Y-16976672D01*
X14258328Y-16962386D01*
X14672614Y-17133814D02*
X14672614Y-16833814D01*
X14801186Y-17133814D02*
X14801186Y-16976672D01*
X14786900Y-16948100D01*
X14758328Y-16933814D01*
X14715471Y-16933814D01*
X14686900Y-16948100D01*
X14672614Y-16962386D01*
X14986900Y-17133814D02*
X14958328Y-17119529D01*
X14944043Y-17105243D01*
X14929757Y-17076672D01*
X14929757Y-16990957D01*
X14944043Y-16962386D01*
X14958328Y-16948100D01*
X14986900Y-16933814D01*
X15029757Y-16933814D01*
X15058328Y-16948100D01*
X15072614Y-16962386D01*
X15086900Y-16990957D01*
X15086900Y-17076672D01*
X15072614Y-17105243D01*
X15058328Y-17119529D01*
X15029757Y-17133814D01*
X14986900Y-17133814D01*
X15258328Y-17133814D02*
X15229757Y-17119529D01*
X15215471Y-17090957D01*
X15215471Y-16833814D01*
X15486900Y-17119529D02*
X15458328Y-17133814D01*
X15401186Y-17133814D01*
X15372614Y-17119529D01*
X15358328Y-17090957D01*
X15358328Y-16976672D01*
X15372614Y-16948100D01*
X15401186Y-16933814D01*
X15458328Y-16933814D01*
X15486900Y-16948100D01*
X15501186Y-16976672D01*
X15501186Y-17005243D01*
X15358328Y-17033814D01*
X15615471Y-17119529D02*
X15644043Y-17133814D01*
X15701186Y-17133814D01*
X15729757Y-17119529D01*
X15744043Y-17090957D01*
X15744043Y-17076672D01*
X15729757Y-17048100D01*
X15701186Y-17033814D01*
X15658328Y-17033814D01*
X15629757Y-17019529D01*
X15615471Y-16990957D01*
X15615471Y-16976672D01*
X15629757Y-16948100D01*
X15658328Y-16933814D01*
X15701186Y-16933814D01*
X15729757Y-16948100D01*
X15844043Y-17248100D02*
X15858328Y-17233814D01*
X15886900Y-17190957D01*
X15901186Y-17162386D01*
X15915471Y-17119529D01*
X15929757Y-17048100D01*
X15929757Y-16990957D01*
X15915471Y-16919529D01*
X15901186Y-16876672D01*
X15886900Y-16848100D01*
X15858328Y-16805243D01*
X15844043Y-16790957D01*
X9071900Y-17394100D02*
G75*
G03*
X9071900Y-17394100I-47500J0D01*
G01*
X9415471Y-17229814D02*
X9444043Y-17229814D01*
X9472614Y-17244100D01*
X9486900Y-17258386D01*
X9501186Y-17286957D01*
X9515471Y-17344100D01*
X9515471Y-17415529D01*
X9501186Y-17472672D01*
X9486900Y-17501243D01*
X9472614Y-17515529D01*
X9444043Y-17529814D01*
X9415471Y-17529814D01*
X9386900Y-17515529D01*
X9372614Y-17501243D01*
X9358328Y-17472672D01*
X9344043Y-17415529D01*
X9344043Y-17344100D01*
X9358328Y-17286957D01*
X9372614Y-17258386D01*
X9386900Y-17244100D01*
X9415471Y-17229814D01*
X9644043Y-17501243D02*
X9658328Y-17515529D01*
X9644043Y-17529814D01*
X9629757Y-17515529D01*
X9644043Y-17501243D01*
X9644043Y-17529814D01*
X9801186Y-17529814D02*
X9858328Y-17529814D01*
X9886900Y-17515529D01*
X9901186Y-17501243D01*
X9929757Y-17458386D01*
X9944043Y-17401243D01*
X9944043Y-17286957D01*
X9929757Y-17258386D01*
X9915471Y-17244100D01*
X9886900Y-17229814D01*
X9829757Y-17229814D01*
X9801186Y-17244100D01*
X9786900Y-17258386D01*
X9772614Y-17286957D01*
X9772614Y-17358386D01*
X9786900Y-17386957D01*
X9801186Y-17401243D01*
X9829757Y-17415529D01*
X9886900Y-17415529D01*
X9915471Y-17401243D01*
X9929757Y-17386957D01*
X9944043Y-17358386D01*
X10215471Y-17229814D02*
X10072614Y-17229814D01*
X10058328Y-17372672D01*
X10072614Y-17358386D01*
X10101186Y-17344100D01*
X10172614Y-17344100D01*
X10201186Y-17358386D01*
X10215471Y-17372672D01*
X10229757Y-17401243D01*
X10229757Y-17472672D01*
X10215471Y-17501243D01*
X10201186Y-17515529D01*
X10172614Y-17529814D01*
X10101186Y-17529814D01*
X10072614Y-17515529D01*
X10058328Y-17501243D01*
X10358328Y-17529814D02*
X10358328Y-17329814D01*
X10358328Y-17358386D02*
X10372614Y-17344100D01*
X10401186Y-17329814D01*
X10444043Y-17329814D01*
X10472614Y-17344100D01*
X10486900Y-17372672D01*
X10486900Y-17529814D01*
X10486900Y-17372672D02*
X10501186Y-17344100D01*
X10529757Y-17329814D01*
X10572614Y-17329814D01*
X10601186Y-17344100D01*
X10615471Y-17372672D01*
X10615471Y-17529814D01*
X10758328Y-17529814D02*
X10758328Y-17329814D01*
X10758328Y-17358386D02*
X10772614Y-17344100D01*
X10801186Y-17329814D01*
X10844043Y-17329814D01*
X10872614Y-17344100D01*
X10886900Y-17372672D01*
X10886900Y-17529814D01*
X10886900Y-17372672D02*
X10901186Y-17344100D01*
X10929757Y-17329814D01*
X10972614Y-17329814D01*
X11001186Y-17344100D01*
X11015471Y-17372672D01*
X11015471Y-17529814D01*
X11601186Y-17215529D02*
X11344043Y-17601243D01*
X11986900Y-17229814D02*
X12015471Y-17229814D01*
X12044043Y-17244100D01*
X12058328Y-17258386D01*
X12072614Y-17286957D01*
X12086900Y-17344100D01*
X12086900Y-17415529D01*
X12072614Y-17472672D01*
X12058328Y-17501243D01*
X12044043Y-17515529D01*
X12015471Y-17529814D01*
X11986900Y-17529814D01*
X11958328Y-17515529D01*
X11944043Y-17501243D01*
X11929757Y-17472672D01*
X11915471Y-17415529D01*
X11915471Y-17344100D01*
X11929757Y-17286957D01*
X11944043Y-17258386D01*
X11958328Y-17244100D01*
X11986900Y-17229814D01*
X12215471Y-17501243D02*
X12229757Y-17515529D01*
X12215471Y-17529814D01*
X12201186Y-17515529D01*
X12215471Y-17501243D01*
X12215471Y-17529814D01*
X12415471Y-17229814D02*
X12444043Y-17229814D01*
X12472614Y-17244100D01*
X12486900Y-17258386D01*
X12501186Y-17286957D01*
X12515471Y-17344100D01*
X12515471Y-17415529D01*
X12501186Y-17472672D01*
X12486900Y-17501243D01*
X12472614Y-17515529D01*
X12444043Y-17529814D01*
X12415471Y-17529814D01*
X12386900Y-17515529D01*
X12372614Y-17501243D01*
X12358328Y-17472672D01*
X12344043Y-17415529D01*
X12344043Y-17344100D01*
X12358328Y-17286957D01*
X12372614Y-17258386D01*
X12386900Y-17244100D01*
X12415471Y-17229814D01*
X12615471Y-17229814D02*
X12801186Y-17229814D01*
X12701186Y-17344100D01*
X12744043Y-17344100D01*
X12772614Y-17358386D01*
X12786900Y-17372672D01*
X12801186Y-17401243D01*
X12801186Y-17472672D01*
X12786900Y-17501243D01*
X12772614Y-17515529D01*
X12744043Y-17529814D01*
X12658328Y-17529814D01*
X12629757Y-17515529D01*
X12615471Y-17501243D01*
X12901186Y-17229814D02*
X13101186Y-17229814D01*
X12972614Y-17529814D01*
X13201186Y-17229814D02*
X13201186Y-17286957D01*
X13315471Y-17229814D02*
X13315471Y-17286957D01*
X13758328Y-17644100D02*
X13744043Y-17629814D01*
X13715471Y-17586957D01*
X13701186Y-17558386D01*
X13686900Y-17515529D01*
X13672614Y-17444100D01*
X13672614Y-17386957D01*
X13686900Y-17315529D01*
X13701186Y-17272672D01*
X13715471Y-17244100D01*
X13744043Y-17201243D01*
X13758328Y-17186957D01*
X14015471Y-17229814D02*
X13872614Y-17229814D01*
X13858328Y-17372672D01*
X13872614Y-17358386D01*
X13901186Y-17344100D01*
X13972614Y-17344100D01*
X14001186Y-17358386D01*
X14015471Y-17372672D01*
X14029757Y-17401243D01*
X14029757Y-17472672D01*
X14015471Y-17501243D01*
X14001186Y-17515529D01*
X13972614Y-17529814D01*
X13901186Y-17529814D01*
X13872614Y-17515529D01*
X13858328Y-17501243D01*
X14386900Y-17529814D02*
X14386900Y-17229814D01*
X14515471Y-17529814D02*
X14515471Y-17372672D01*
X14501186Y-17344100D01*
X14472614Y-17329814D01*
X14429757Y-17329814D01*
X14401186Y-17344100D01*
X14386900Y-17358386D01*
X14701186Y-17529814D02*
X14672614Y-17515529D01*
X14658328Y-17501243D01*
X14644043Y-17472672D01*
X14644043Y-17386957D01*
X14658328Y-17358386D01*
X14672614Y-17344100D01*
X14701186Y-17329814D01*
X14744043Y-17329814D01*
X14772614Y-17344100D01*
X14786900Y-17358386D01*
X14801186Y-17386957D01*
X14801186Y-17472672D01*
X14786900Y-17501243D01*
X14772614Y-17515529D01*
X14744043Y-17529814D01*
X14701186Y-17529814D01*
X14972614Y-17529814D02*
X14944043Y-17515529D01*
X14929757Y-17486957D01*
X14929757Y-17229814D01*
X15201186Y-17515529D02*
X15172614Y-17529814D01*
X15115471Y-17529814D01*
X15086900Y-17515529D01*
X15072614Y-17486957D01*
X15072614Y-17372672D01*
X15086900Y-17344100D01*
X15115471Y-17329814D01*
X15172614Y-17329814D01*
X15201186Y-17344100D01*
X15215471Y-17372672D01*
X15215471Y-17401243D01*
X15072614Y-17429814D01*
X15329757Y-17515529D02*
X15358328Y-17529814D01*
X15415471Y-17529814D01*
X15444043Y-17515529D01*
X15458328Y-17486957D01*
X15458328Y-17472672D01*
X15444043Y-17444100D01*
X15415471Y-17429814D01*
X15372614Y-17429814D01*
X15344043Y-17415529D01*
X15329757Y-17386957D01*
X15329757Y-17372672D01*
X15344043Y-17344100D01*
X15372614Y-17329814D01*
X15415471Y-17329814D01*
X15444043Y-17344100D01*
X15558328Y-17644100D02*
X15572614Y-17629814D01*
X15601186Y-17586957D01*
X15615471Y-17558386D01*
X15629757Y-17515529D01*
X15644043Y-17444100D01*
X15644043Y-17386957D01*
X15629757Y-17315529D01*
X15615471Y-17272672D01*
X15601186Y-17244100D01*
X15572614Y-17201243D01*
X15558328Y-17186957D01*
X9021900Y-17740100D02*
X9021900Y-17840100D01*
X8971900Y-17790100D02*
X9071900Y-17790100D01*
X9515471Y-17925814D02*
X9344043Y-17925814D01*
X9429757Y-17925814D02*
X9429757Y-17625814D01*
X9401186Y-17668672D01*
X9372614Y-17697243D01*
X9344043Y-17711529D01*
X9644043Y-17897243D02*
X9658328Y-17911529D01*
X9644043Y-17925814D01*
X9629757Y-17911529D01*
X9644043Y-17897243D01*
X9644043Y-17925814D01*
X9844043Y-17625814D02*
X9872614Y-17625814D01*
X9901186Y-17640100D01*
X9915471Y-17654386D01*
X9929757Y-17682957D01*
X9944043Y-17740100D01*
X9944043Y-17811529D01*
X9929757Y-17868672D01*
X9915471Y-17897243D01*
X9901186Y-17911529D01*
X9872614Y-17925814D01*
X9844043Y-17925814D01*
X9815471Y-17911529D01*
X9801186Y-17897243D01*
X9786900Y-17868672D01*
X9772614Y-17811529D01*
X9772614Y-17740100D01*
X9786900Y-17682957D01*
X9801186Y-17654386D01*
X9815471Y-17640100D01*
X9844043Y-17625814D01*
X10129757Y-17625814D02*
X10158328Y-17625814D01*
X10186900Y-17640100D01*
X10201186Y-17654386D01*
X10215471Y-17682957D01*
X10229757Y-17740100D01*
X10229757Y-17811529D01*
X10215471Y-17868672D01*
X10201186Y-17897243D01*
X10186900Y-17911529D01*
X10158328Y-17925814D01*
X10129757Y-17925814D01*
X10101186Y-17911529D01*
X10086900Y-17897243D01*
X10072614Y-17868672D01*
X10058328Y-17811529D01*
X10058328Y-17740100D01*
X10072614Y-17682957D01*
X10086900Y-17654386D01*
X10101186Y-17640100D01*
X10129757Y-17625814D01*
X10358328Y-17925814D02*
X10358328Y-17725814D01*
X10358328Y-17754386D02*
X10372614Y-17740100D01*
X10401186Y-17725814D01*
X10444043Y-17725814D01*
X10472614Y-17740100D01*
X10486900Y-17768672D01*
X10486900Y-17925814D01*
X10486900Y-17768672D02*
X10501186Y-17740100D01*
X10529757Y-17725814D01*
X10572614Y-17725814D01*
X10601186Y-17740100D01*
X10615471Y-17768672D01*
X10615471Y-17925814D01*
X10758328Y-17925814D02*
X10758328Y-17725814D01*
X10758328Y-17754386D02*
X10772614Y-17740100D01*
X10801186Y-17725814D01*
X10844043Y-17725814D01*
X10872614Y-17740100D01*
X10886900Y-17768672D01*
X10886900Y-17925814D01*
X10886900Y-17768672D02*
X10901186Y-17740100D01*
X10929757Y-17725814D01*
X10972614Y-17725814D01*
X11001186Y-17740100D01*
X11015471Y-17768672D01*
X11015471Y-17925814D01*
X11601186Y-17611529D02*
X11344043Y-17997243D01*
X11986900Y-17625814D02*
X12015471Y-17625814D01*
X12044043Y-17640100D01*
X12058328Y-17654386D01*
X12072614Y-17682957D01*
X12086900Y-17740100D01*
X12086900Y-17811529D01*
X12072614Y-17868672D01*
X12058328Y-17897243D01*
X12044043Y-17911529D01*
X12015471Y-17925814D01*
X11986900Y-17925814D01*
X11958328Y-17911529D01*
X11944043Y-17897243D01*
X11929757Y-17868672D01*
X11915471Y-17811529D01*
X11915471Y-17740100D01*
X11929757Y-17682957D01*
X11944043Y-17654386D01*
X11958328Y-17640100D01*
X11986900Y-17625814D01*
X12215471Y-17897243D02*
X12229757Y-17911529D01*
X12215471Y-17925814D01*
X12201186Y-17911529D01*
X12215471Y-17897243D01*
X12215471Y-17925814D01*
X12415471Y-17625814D02*
X12444043Y-17625814D01*
X12472614Y-17640100D01*
X12486900Y-17654386D01*
X12501186Y-17682957D01*
X12515471Y-17740100D01*
X12515471Y-17811529D01*
X12501186Y-17868672D01*
X12486900Y-17897243D01*
X12472614Y-17911529D01*
X12444043Y-17925814D01*
X12415471Y-17925814D01*
X12386900Y-17911529D01*
X12372614Y-17897243D01*
X12358328Y-17868672D01*
X12344043Y-17811529D01*
X12344043Y-17740100D01*
X12358328Y-17682957D01*
X12372614Y-17654386D01*
X12386900Y-17640100D01*
X12415471Y-17625814D01*
X12615471Y-17625814D02*
X12801186Y-17625814D01*
X12701186Y-17740100D01*
X12744043Y-17740100D01*
X12772614Y-17754386D01*
X12786900Y-17768672D01*
X12801186Y-17797243D01*
X12801186Y-17868672D01*
X12786900Y-17897243D01*
X12772614Y-17911529D01*
X12744043Y-17925814D01*
X12658328Y-17925814D01*
X12629757Y-17911529D01*
X12615471Y-17897243D01*
X12944043Y-17925814D02*
X13001186Y-17925814D01*
X13029757Y-17911529D01*
X13044043Y-17897243D01*
X13072614Y-17854386D01*
X13086900Y-17797243D01*
X13086900Y-17682957D01*
X13072614Y-17654386D01*
X13058328Y-17640100D01*
X13029757Y-17625814D01*
X12972614Y-17625814D01*
X12944043Y-17640100D01*
X12929757Y-17654386D01*
X12915471Y-17682957D01*
X12915471Y-17754386D01*
X12929757Y-17782957D01*
X12944043Y-17797243D01*
X12972614Y-17811529D01*
X13029757Y-17811529D01*
X13058328Y-17797243D01*
X13072614Y-17782957D01*
X13086900Y-17754386D01*
X13201186Y-17625814D02*
X13201186Y-17682957D01*
X13315471Y-17625814D02*
X13315471Y-17682957D01*
X13758328Y-18040100D02*
X13744043Y-18025814D01*
X13715471Y-17982957D01*
X13701186Y-17954386D01*
X13686900Y-17911529D01*
X13672614Y-17840100D01*
X13672614Y-17782957D01*
X13686900Y-17711529D01*
X13701186Y-17668672D01*
X13715471Y-17640100D01*
X13744043Y-17597243D01*
X13758328Y-17582957D01*
X13844043Y-17625814D02*
X14029757Y-17625814D01*
X13929757Y-17740100D01*
X13972614Y-17740100D01*
X14001186Y-17754386D01*
X14015471Y-17768672D01*
X14029757Y-17797243D01*
X14029757Y-17868672D01*
X14015471Y-17897243D01*
X14001186Y-17911529D01*
X13972614Y-17925814D01*
X13886900Y-17925814D01*
X13858328Y-17911529D01*
X13844043Y-17897243D01*
X14215471Y-17625814D02*
X14244043Y-17625814D01*
X14272614Y-17640100D01*
X14286900Y-17654386D01*
X14301186Y-17682957D01*
X14315471Y-17740100D01*
X14315471Y-17811529D01*
X14301186Y-17868672D01*
X14286900Y-17897243D01*
X14272614Y-17911529D01*
X14244043Y-17925814D01*
X14215471Y-17925814D01*
X14186900Y-17911529D01*
X14172614Y-17897243D01*
X14158328Y-17868672D01*
X14144043Y-17811529D01*
X14144043Y-17740100D01*
X14158328Y-17682957D01*
X14172614Y-17654386D01*
X14186900Y-17640100D01*
X14215471Y-17625814D01*
X14672614Y-17925814D02*
X14672614Y-17625814D01*
X14801186Y-17925814D02*
X14801186Y-17768672D01*
X14786900Y-17740100D01*
X14758328Y-17725814D01*
X14715471Y-17725814D01*
X14686900Y-17740100D01*
X14672614Y-17754386D01*
X14986900Y-17925814D02*
X14958328Y-17911529D01*
X14944043Y-17897243D01*
X14929757Y-17868672D01*
X14929757Y-17782957D01*
X14944043Y-17754386D01*
X14958328Y-17740100D01*
X14986900Y-17725814D01*
X15029757Y-17725814D01*
X15058328Y-17740100D01*
X15072614Y-17754386D01*
X15086900Y-17782957D01*
X15086900Y-17868672D01*
X15072614Y-17897243D01*
X15058328Y-17911529D01*
X15029757Y-17925814D01*
X14986900Y-17925814D01*
X15258328Y-17925814D02*
X15229757Y-17911529D01*
X15215471Y-17882957D01*
X15215471Y-17625814D01*
X15486900Y-17911529D02*
X15458328Y-17925814D01*
X15401186Y-17925814D01*
X15372614Y-17911529D01*
X15358328Y-17882957D01*
X15358328Y-17768672D01*
X15372614Y-17740100D01*
X15401186Y-17725814D01*
X15458328Y-17725814D01*
X15486900Y-17740100D01*
X15501186Y-17768672D01*
X15501186Y-17797243D01*
X15358328Y-17825814D01*
X15615471Y-17911529D02*
X15644043Y-17925814D01*
X15701186Y-17925814D01*
X15729757Y-17911529D01*
X15744043Y-17882957D01*
X15744043Y-17868672D01*
X15729757Y-17840100D01*
X15701186Y-17825814D01*
X15658328Y-17825814D01*
X15629757Y-17811529D01*
X15615471Y-17782957D01*
X15615471Y-17768672D01*
X15629757Y-17740100D01*
X15658328Y-17725814D01*
X15701186Y-17725814D01*
X15729757Y-17740100D01*
X15844043Y-18040100D02*
X15858328Y-18025814D01*
X15886900Y-17982957D01*
X15901186Y-17954386D01*
X15915471Y-17911529D01*
X15929757Y-17840100D01*
X15929757Y-17782957D01*
X15915471Y-17711529D01*
X15901186Y-17668672D01*
X15886900Y-17640100D01*
X15858328Y-17597243D01*
X15844043Y-17582957D01*
X9027967Y-18292167D02*
X9027967Y-18080033D01*
X8815833Y-18080033D01*
X8815833Y-18292167D01*
X9027967Y-18292167D01*
X9329757Y-18021814D02*
X9515471Y-18021814D01*
X9415471Y-18136100D01*
X9458328Y-18136100D01*
X9486900Y-18150386D01*
X9501186Y-18164672D01*
X9515471Y-18193243D01*
X9515471Y-18264672D01*
X9501186Y-18293243D01*
X9486900Y-18307529D01*
X9458328Y-18321814D01*
X9372614Y-18321814D01*
X9344043Y-18307529D01*
X9329757Y-18293243D01*
X9644043Y-18293243D02*
X9658328Y-18307529D01*
X9644043Y-18321814D01*
X9629757Y-18307529D01*
X9644043Y-18293243D01*
X9644043Y-18321814D01*
X9844043Y-18021814D02*
X9872614Y-18021814D01*
X9901186Y-18036100D01*
X9915471Y-18050386D01*
X9929757Y-18078957D01*
X9944043Y-18136100D01*
X9944043Y-18207529D01*
X9929757Y-18264672D01*
X9915471Y-18293243D01*
X9901186Y-18307529D01*
X9872614Y-18321814D01*
X9844043Y-18321814D01*
X9815471Y-18307529D01*
X9801186Y-18293243D01*
X9786900Y-18264672D01*
X9772614Y-18207529D01*
X9772614Y-18136100D01*
X9786900Y-18078957D01*
X9801186Y-18050386D01*
X9815471Y-18036100D01*
X9844043Y-18021814D01*
X10129757Y-18021814D02*
X10158328Y-18021814D01*
X10186900Y-18036100D01*
X10201186Y-18050386D01*
X10215471Y-18078957D01*
X10229757Y-18136100D01*
X10229757Y-18207529D01*
X10215471Y-18264672D01*
X10201186Y-18293243D01*
X10186900Y-18307529D01*
X10158328Y-18321814D01*
X10129757Y-18321814D01*
X10101186Y-18307529D01*
X10086900Y-18293243D01*
X10072614Y-18264672D01*
X10058328Y-18207529D01*
X10058328Y-18136100D01*
X10072614Y-18078957D01*
X10086900Y-18050386D01*
X10101186Y-18036100D01*
X10129757Y-18021814D01*
X10358328Y-18321814D02*
X10358328Y-18121814D01*
X10358328Y-18150386D02*
X10372614Y-18136100D01*
X10401186Y-18121814D01*
X10444043Y-18121814D01*
X10472614Y-18136100D01*
X10486900Y-18164672D01*
X10486900Y-18321814D01*
X10486900Y-18164672D02*
X10501186Y-18136100D01*
X10529757Y-18121814D01*
X10572614Y-18121814D01*
X10601186Y-18136100D01*
X10615471Y-18164672D01*
X10615471Y-18321814D01*
X10758328Y-18321814D02*
X10758328Y-18121814D01*
X10758328Y-18150386D02*
X10772614Y-18136100D01*
X10801186Y-18121814D01*
X10844043Y-18121814D01*
X10872614Y-18136100D01*
X10886900Y-18164672D01*
X10886900Y-18321814D01*
X10886900Y-18164672D02*
X10901186Y-18136100D01*
X10929757Y-18121814D01*
X10972614Y-18121814D01*
X11001186Y-18136100D01*
X11015471Y-18164672D01*
X11015471Y-18321814D01*
X11601186Y-18007529D02*
X11344043Y-18393243D01*
X11986900Y-18021814D02*
X12015471Y-18021814D01*
X12044043Y-18036100D01*
X12058328Y-18050386D01*
X12072614Y-18078957D01*
X12086900Y-18136100D01*
X12086900Y-18207529D01*
X12072614Y-18264672D01*
X12058328Y-18293243D01*
X12044043Y-18307529D01*
X12015471Y-18321814D01*
X11986900Y-18321814D01*
X11958328Y-18307529D01*
X11944043Y-18293243D01*
X11929757Y-18264672D01*
X11915471Y-18207529D01*
X11915471Y-18136100D01*
X11929757Y-18078957D01*
X11944043Y-18050386D01*
X11958328Y-18036100D01*
X11986900Y-18021814D01*
X12215471Y-18293243D02*
X12229757Y-18307529D01*
X12215471Y-18321814D01*
X12201186Y-18307529D01*
X12215471Y-18293243D01*
X12215471Y-18321814D01*
X12515471Y-18321814D02*
X12344043Y-18321814D01*
X12429757Y-18321814D02*
X12429757Y-18021814D01*
X12401186Y-18064672D01*
X12372614Y-18093243D01*
X12344043Y-18107529D01*
X12801186Y-18321814D02*
X12629757Y-18321814D01*
X12715471Y-18321814D02*
X12715471Y-18021814D01*
X12686900Y-18064672D01*
X12658328Y-18093243D01*
X12629757Y-18107529D01*
X12972614Y-18150386D02*
X12944043Y-18136100D01*
X12929757Y-18121814D01*
X12915471Y-18093243D01*
X12915471Y-18078957D01*
X12929757Y-18050386D01*
X12944043Y-18036100D01*
X12972614Y-18021814D01*
X13029757Y-18021814D01*
X13058328Y-18036100D01*
X13072614Y-18050386D01*
X13086900Y-18078957D01*
X13086900Y-18093243D01*
X13072614Y-18121814D01*
X13058328Y-18136100D01*
X13029757Y-18150386D01*
X12972614Y-18150386D01*
X12944043Y-18164672D01*
X12929757Y-18178957D01*
X12915471Y-18207529D01*
X12915471Y-18264672D01*
X12929757Y-18293243D01*
X12944043Y-18307529D01*
X12972614Y-18321814D01*
X13029757Y-18321814D01*
X13058328Y-18307529D01*
X13072614Y-18293243D01*
X13086900Y-18264672D01*
X13086900Y-18207529D01*
X13072614Y-18178957D01*
X13058328Y-18164672D01*
X13029757Y-18150386D01*
X13201186Y-18021814D02*
X13201186Y-18078957D01*
X13315471Y-18021814D02*
X13315471Y-18078957D01*
X13758328Y-18436100D02*
X13744043Y-18421814D01*
X13715471Y-18378957D01*
X13701186Y-18350386D01*
X13686900Y-18307529D01*
X13672614Y-18236100D01*
X13672614Y-18178957D01*
X13686900Y-18107529D01*
X13701186Y-18064672D01*
X13715471Y-18036100D01*
X13744043Y-17993243D01*
X13758328Y-17978957D01*
X14001186Y-18021814D02*
X13944043Y-18021814D01*
X13915471Y-18036100D01*
X13901186Y-18050386D01*
X13872614Y-18093243D01*
X13858328Y-18150386D01*
X13858328Y-18264672D01*
X13872614Y-18293243D01*
X13886900Y-18307529D01*
X13915471Y-18321814D01*
X13972614Y-18321814D01*
X14001186Y-18307529D01*
X14015471Y-18293243D01*
X14029757Y-18264672D01*
X14029757Y-18193243D01*
X14015471Y-18164672D01*
X14001186Y-18150386D01*
X13972614Y-18136100D01*
X13915471Y-18136100D01*
X13886900Y-18150386D01*
X13872614Y-18164672D01*
X13858328Y-18193243D01*
X14386900Y-18321814D02*
X14386900Y-18021814D01*
X14515471Y-18321814D02*
X14515471Y-18164672D01*
X14501186Y-18136100D01*
X14472614Y-18121814D01*
X14429757Y-18121814D01*
X14401186Y-18136100D01*
X14386900Y-18150386D01*
X14701186Y-18321814D02*
X14672614Y-18307529D01*
X14658328Y-18293243D01*
X14644043Y-18264672D01*
X14644043Y-18178957D01*
X14658328Y-18150386D01*
X14672614Y-18136100D01*
X14701186Y-18121814D01*
X14744043Y-18121814D01*
X14772614Y-18136100D01*
X14786900Y-18150386D01*
X14801186Y-18178957D01*
X14801186Y-18264672D01*
X14786900Y-18293243D01*
X14772614Y-18307529D01*
X14744043Y-18321814D01*
X14701186Y-18321814D01*
X14972614Y-18321814D02*
X14944043Y-18307529D01*
X14929757Y-18278957D01*
X14929757Y-18021814D01*
X15201186Y-18307529D02*
X15172614Y-18321814D01*
X15115471Y-18321814D01*
X15086900Y-18307529D01*
X15072614Y-18278957D01*
X15072614Y-18164672D01*
X15086900Y-18136100D01*
X15115471Y-18121814D01*
X15172614Y-18121814D01*
X15201186Y-18136100D01*
X15215471Y-18164672D01*
X15215471Y-18193243D01*
X15072614Y-18221814D01*
X15329757Y-18307529D02*
X15358328Y-18321814D01*
X15415471Y-18321814D01*
X15444043Y-18307529D01*
X15458328Y-18278957D01*
X15458328Y-18264672D01*
X15444043Y-18236100D01*
X15415471Y-18221814D01*
X15372614Y-18221814D01*
X15344043Y-18207529D01*
X15329757Y-18178957D01*
X15329757Y-18164672D01*
X15344043Y-18136100D01*
X15372614Y-18121814D01*
X15415471Y-18121814D01*
X15444043Y-18136100D01*
X15558328Y-18436100D02*
X15572614Y-18421814D01*
X15601186Y-18378957D01*
X15615471Y-18350386D01*
X15629757Y-18307529D01*
X15644043Y-18236100D01*
X15644043Y-18178957D01*
X15629757Y-18107529D01*
X15615471Y-18064672D01*
X15601186Y-18036100D01*
X15572614Y-17993243D01*
X15558328Y-17978957D01*
X16101186Y-18436100D02*
X16086900Y-18421814D01*
X16058328Y-18378957D01*
X16044043Y-18350386D01*
X16029757Y-18307529D01*
X16015471Y-18236100D01*
X16015471Y-18178957D01*
X16029757Y-18107529D01*
X16044043Y-18064672D01*
X16058328Y-18036100D01*
X16086900Y-17993243D01*
X16101186Y-17978957D01*
X16215471Y-18121814D02*
X16215471Y-18321814D01*
X16215471Y-18150386D02*
X16229757Y-18136100D01*
X16258328Y-18121814D01*
X16301186Y-18121814D01*
X16329757Y-18136100D01*
X16344043Y-18164672D01*
X16344043Y-18321814D01*
X16529757Y-18321814D02*
X16501186Y-18307529D01*
X16486900Y-18293243D01*
X16472614Y-18264672D01*
X16472614Y-18178957D01*
X16486900Y-18150386D01*
X16501186Y-18136100D01*
X16529757Y-18121814D01*
X16572614Y-18121814D01*
X16601186Y-18136100D01*
X16615471Y-18150386D01*
X16629757Y-18178957D01*
X16629757Y-18264672D01*
X16615471Y-18293243D01*
X16601186Y-18307529D01*
X16572614Y-18321814D01*
X16529757Y-18321814D01*
X16715471Y-18121814D02*
X16829757Y-18121814D01*
X16758328Y-18021814D02*
X16758328Y-18278957D01*
X16772614Y-18307529D01*
X16801186Y-18321814D01*
X16829757Y-18321814D01*
X17158328Y-18121814D02*
X17158328Y-18421814D01*
X17158328Y-18136100D02*
X17186900Y-18121814D01*
X17244043Y-18121814D01*
X17272614Y-18136100D01*
X17286900Y-18150386D01*
X17301186Y-18178957D01*
X17301186Y-18264672D01*
X17286900Y-18293243D01*
X17272614Y-18307529D01*
X17244043Y-18321814D01*
X17186900Y-18321814D01*
X17158328Y-18307529D01*
X17472614Y-18321814D02*
X17444043Y-18307529D01*
X17429757Y-18278957D01*
X17429757Y-18021814D01*
X17715471Y-18321814D02*
X17715471Y-18164672D01*
X17701186Y-18136100D01*
X17672614Y-18121814D01*
X17615471Y-18121814D01*
X17586900Y-18136100D01*
X17715471Y-18307529D02*
X17686900Y-18321814D01*
X17615471Y-18321814D01*
X17586900Y-18307529D01*
X17572614Y-18278957D01*
X17572614Y-18250386D01*
X17586900Y-18221814D01*
X17615471Y-18207529D01*
X17686900Y-18207529D01*
X17715471Y-18193243D01*
X17815471Y-18121814D02*
X17929757Y-18121814D01*
X17858328Y-18021814D02*
X17858328Y-18278957D01*
X17872614Y-18307529D01*
X17901186Y-18321814D01*
X17929757Y-18321814D01*
X18144043Y-18307529D02*
X18115471Y-18321814D01*
X18058328Y-18321814D01*
X18029757Y-18307529D01*
X18015471Y-18278957D01*
X18015471Y-18164672D01*
X18029757Y-18136100D01*
X18058328Y-18121814D01*
X18115471Y-18121814D01*
X18144043Y-18136100D01*
X18158328Y-18164672D01*
X18158328Y-18193243D01*
X18015471Y-18221814D01*
X18415471Y-18321814D02*
X18415471Y-18021814D01*
X18415471Y-18307529D02*
X18386900Y-18321814D01*
X18329757Y-18321814D01*
X18301186Y-18307529D01*
X18286900Y-18293243D01*
X18272614Y-18264672D01*
X18272614Y-18178957D01*
X18286900Y-18150386D01*
X18301186Y-18136100D01*
X18329757Y-18121814D01*
X18386900Y-18121814D01*
X18415471Y-18136100D01*
X18529757Y-18436100D02*
X18544043Y-18421814D01*
X18572614Y-18378957D01*
X18586900Y-18350386D01*
X18601186Y-18307529D01*
X18615471Y-18236100D01*
X18615471Y-18178957D01*
X18601186Y-18107529D01*
X18586900Y-18064672D01*
X18572614Y-18036100D01*
X18544043Y-17993243D01*
X18529757Y-17978957D01*
M02*
