%TF.GenerationSoftware,KiCad,Pcbnew,(5.1.9)-1*%
%TF.CreationDate,2022-03-15T21:24:12+09:00*%
%TF.ProjectId,IRboard5.0,4952626f-6172-4643-952e-302e6b696361,rev?*%
%TF.SameCoordinates,Original*%
%TF.FileFunction,Soldermask,Top*%
%TF.FilePolarity,Negative*%
%FSLAX46Y46*%
G04 Gerber Fmt 4.6, Leading zero omitted, Abs format (unit mm)*
G04 Created by KiCad (PCBNEW (5.1.9)-1) date 2022-03-15 21:24:12*
%MOMM*%
%LPD*%
G01*
G04 APERTURE LIST*
%ADD10C,3.000000*%
%ADD11C,1.800000*%
%ADD12O,1.700000X1.950000*%
%ADD13O,1.600000X1.600000*%
%ADD14R,1.600000X1.600000*%
G04 APERTURE END LIST*
D10*
%TO.C,REF\u002A\u002A*%
X116700000Y-83600000D03*
%TD*%
%TO.C,REF\u002A\u002A*%
X161676000Y-83617000D03*
%TD*%
%TO.C,REF\u002A\u002A*%
X116700000Y-137600000D03*
%TD*%
%TO.C,REF\u002A\u002A*%
X161676000Y-137617000D03*
%TD*%
D11*
%TO.C,U9*%
X159561261Y-150663459D03*
X157214607Y-151635475D03*
G36*
G01*
X154285129Y-153552243D02*
X153787793Y-152351569D01*
G75*
G02*
X153923201Y-152024667I231155J95747D01*
G01*
X155123875Y-151527331D01*
G75*
G02*
X155450777Y-151662739I95747J-231155D01*
G01*
X155948113Y-152863413D01*
G75*
G02*
X155812705Y-153190315I-231155J-95747D01*
G01*
X154612031Y-153687651D01*
G75*
G02*
X154285129Y-153552243I-95747J231155D01*
G01*
G37*
%TD*%
D10*
%TO.C,REF\u002A\u002A*%
X176400000Y-110900000D03*
%TD*%
%TO.C,REF\u002A\u002A*%
X105200000Y-110700000D03*
%TD*%
D11*
%TO.C,U8*%
X100436541Y-130061261D03*
X99464525Y-127714607D03*
G36*
G01*
X97547757Y-124785129D02*
X98748431Y-124287793D01*
G75*
G02*
X99075333Y-124423201I95747J-231155D01*
G01*
X99572669Y-125623875D01*
G75*
G02*
X99437261Y-125950777I-231155J-95747D01*
G01*
X98236587Y-126448113D01*
G75*
G02*
X97909685Y-126312705I-95747J231155D01*
G01*
X97412349Y-125112031D01*
G75*
G02*
X97547757Y-124785129I231155J95747D01*
G01*
G37*
%TD*%
%TO.C,U16*%
X184670233Y-108059260D03*
X184670233Y-110599260D03*
G36*
G01*
X185320033Y-114039260D02*
X184020433Y-114039260D01*
G75*
G02*
X183770233Y-113789060I0J250200D01*
G01*
X183770233Y-112489460D01*
G75*
G02*
X184020433Y-112239260I250200J0D01*
G01*
X185320033Y-112239260D01*
G75*
G02*
X185570233Y-112489460I0J-250200D01*
G01*
X185570233Y-113789060D01*
G75*
G02*
X185320033Y-114039260I-250200J0D01*
G01*
G37*
%TD*%
%TO.C,U15*%
X182277725Y-125167214D03*
X181305709Y-127513868D03*
G36*
G01*
X180589615Y-130940682D02*
X179388941Y-130443346D01*
G75*
G02*
X179253533Y-130116444I95747J231155D01*
G01*
X179750869Y-128915770D01*
G75*
G02*
X180077771Y-128780362I231155J-95747D01*
G01*
X181278445Y-129277698D01*
G75*
G02*
X181413853Y-129604600I-95747J-231155D01*
G01*
X180916517Y-130805274D01*
G75*
G02*
X180589615Y-130940682I-231155J95747D01*
G01*
G37*
%TD*%
%TO.C,U14*%
G36*
G01*
X169751385Y-144745305D02*
X168832429Y-143826349D01*
G75*
G02*
X168832429Y-143472513I176918J176918D01*
G01*
X169751385Y-142553557D01*
G75*
G02*
X170105221Y-142553557I176918J-176918D01*
G01*
X171024177Y-143472513D01*
G75*
G02*
X171024177Y-143826349I-176918J-176918D01*
G01*
X170105221Y-144745305D01*
G75*
G02*
X169751385Y-144745305I-176918J176918D01*
G01*
G37*
X171724354Y-141853380D03*
X173520405Y-140057329D03*
%TD*%
%TO.C,U13*%
X154867953Y-68992509D03*
X157214607Y-69964525D03*
G36*
G01*
X160641421Y-70680619D02*
X160144085Y-71881293D01*
G75*
G02*
X159817183Y-72016701I-231155J95747D01*
G01*
X158616509Y-71519365D01*
G75*
G02*
X158481101Y-71192463I95747J231155D01*
G01*
X158978437Y-69991789D01*
G75*
G02*
X159305339Y-69856381I231155J-95747D01*
G01*
X160506013Y-70353717D01*
G75*
G02*
X160641421Y-70680619I-95747J-231155D01*
G01*
G37*
%TD*%
%TO.C,U12*%
G36*
G01*
X136860000Y-155649800D02*
X136860000Y-154350200D01*
G75*
G02*
X137110200Y-154100000I250200J0D01*
G01*
X138409800Y-154100000D01*
G75*
G02*
X138660000Y-154350200I0J-250200D01*
G01*
X138660000Y-155649800D01*
G75*
G02*
X138409800Y-155900000I-250200J0D01*
G01*
X137110200Y-155900000D01*
G75*
G02*
X136860000Y-155649800I0J250200D01*
G01*
G37*
X140300000Y-155000000D03*
X142840000Y-155000000D03*
%TD*%
%TO.C,U11*%
G36*
G01*
X119958579Y-150919381D02*
X120455915Y-149718707D01*
G75*
G02*
X120782817Y-149583299I231155J-95747D01*
G01*
X121983491Y-150080635D01*
G75*
G02*
X122118899Y-150407537I-95747J-231155D01*
G01*
X121621563Y-151608211D01*
G75*
G02*
X121294661Y-151743619I-231155J95747D01*
G01*
X120093987Y-151246283D01*
G75*
G02*
X119958579Y-150919381I95747J231155D01*
G01*
G37*
X123385393Y-151635475D03*
X125732047Y-152607491D03*
%TD*%
%TO.C,U10*%
X110841932Y-143850170D03*
X109045881Y-142054119D03*
G36*
G01*
X106153956Y-140081150D02*
X107072912Y-139162194D01*
G75*
G02*
X107426748Y-139162194I176918J-176918D01*
G01*
X108345704Y-140081150D01*
G75*
G02*
X108345704Y-140434986I-176918J-176918D01*
G01*
X107426748Y-141353942D01*
G75*
G02*
X107072912Y-141353942I-176918J176918D01*
G01*
X106153956Y-140434986D01*
G75*
G02*
X106153956Y-140081150I176918J176918D01*
G01*
G37*
%TD*%
%TO.C,U7*%
X96100000Y-113340000D03*
X96100000Y-110800000D03*
G36*
G01*
X95450200Y-107360000D02*
X96749800Y-107360000D01*
G75*
G02*
X97000000Y-107610200I0J-250200D01*
G01*
X97000000Y-108909800D01*
G75*
G02*
X96749800Y-109160000I-250200J0D01*
G01*
X95450200Y-109160000D01*
G75*
G02*
X95200000Y-108909800I0J250200D01*
G01*
X95200000Y-107610200D01*
G75*
G02*
X95450200Y-107360000I250200J0D01*
G01*
G37*
%TD*%
%TO.C,U6*%
X98492509Y-96232047D03*
X99464525Y-93885393D03*
G36*
G01*
X100180619Y-90458579D02*
X101381293Y-90955915D01*
G75*
G02*
X101516701Y-91282817I-95747J-231155D01*
G01*
X101019365Y-92483491D01*
G75*
G02*
X100692463Y-92618899I-231155J95747D01*
G01*
X99491789Y-92121563D01*
G75*
G02*
X99356381Y-91794661I95747J231155D01*
G01*
X99853717Y-90593987D01*
G75*
G02*
X100180619Y-90458579I231155J-95747D01*
G01*
G37*
%TD*%
%TO.C,U5*%
X107249830Y-81341932D03*
X109045881Y-79545881D03*
G36*
G01*
X111018850Y-76653956D02*
X111937806Y-77572912D01*
G75*
G02*
X111937806Y-77926748I-176918J-176918D01*
G01*
X111018850Y-78845704D01*
G75*
G02*
X110665014Y-78845704I-176918J176918D01*
G01*
X109746058Y-77926748D01*
G75*
G02*
X109746058Y-77572912I176918J176918D01*
G01*
X110665014Y-76653956D01*
G75*
G02*
X111018850Y-76653956I176918J-176918D01*
G01*
G37*
%TD*%
%TO.C,U4*%
X180333693Y-91337998D03*
X181305709Y-93684652D03*
G36*
G01*
X183222477Y-96614130D02*
X182021803Y-97111466D01*
G75*
G02*
X181694901Y-96976058I-95747J231155D01*
G01*
X181197565Y-95775384D01*
G75*
G02*
X181332973Y-95448482I231155J95747D01*
G01*
X182533647Y-94951146D01*
G75*
G02*
X182860549Y-95086554I95747J-231155D01*
G01*
X183357885Y-96287228D01*
G75*
G02*
X183222477Y-96614130I-231155J-95747D01*
G01*
G37*
%TD*%
%TO.C,U3*%
X121038739Y-70936541D03*
X123385393Y-69964525D03*
G36*
G01*
X126314871Y-68047757D02*
X126812207Y-69248431D01*
G75*
G02*
X126676799Y-69575333I-231155J-95747D01*
G01*
X125476125Y-70072669D01*
G75*
G02*
X125149223Y-69937261I-95747J231155D01*
G01*
X124651887Y-68736587D01*
G75*
G02*
X124787295Y-68409685I231155J95747D01*
G01*
X125987969Y-67912349D01*
G75*
G02*
X126314871Y-68047757I95747J-231155D01*
G01*
G37*
%TD*%
%TO.C,U2*%
X137760000Y-66600000D03*
X140300000Y-66600000D03*
G36*
G01*
X143740000Y-65950200D02*
X143740000Y-67249800D01*
G75*
G02*
X143489800Y-67500000I-250200J0D01*
G01*
X142190200Y-67500000D01*
G75*
G02*
X141940000Y-67249800I0J250200D01*
G01*
X141940000Y-65950200D01*
G75*
G02*
X142190200Y-65700000I250200J0D01*
G01*
X143489800Y-65700000D01*
G75*
G02*
X143740000Y-65950200I0J-250200D01*
G01*
G37*
%TD*%
%TO.C,U1*%
X169928303Y-77549089D03*
X171724354Y-79345140D03*
G36*
G01*
X174616279Y-81318109D02*
X173697323Y-82237065D01*
G75*
G02*
X173343487Y-82237065I-176918J176918D01*
G01*
X172424531Y-81318109D01*
G75*
G02*
X172424531Y-80964273I176918J176918D01*
G01*
X173343487Y-80045317D01*
G75*
G02*
X173697323Y-80045317I176918J-176918D01*
G01*
X174616279Y-80964273D01*
G75*
G02*
X174616279Y-81318109I-176918J-176918D01*
G01*
G37*
%TD*%
D12*
%TO.C,J1*%
X145500000Y-139700000D03*
X143000000Y-139700000D03*
X140500000Y-139700000D03*
X138000000Y-139700000D03*
G36*
G01*
X134650000Y-140425000D02*
X134650000Y-138975000D01*
G75*
G02*
X134900000Y-138725000I250000J0D01*
G01*
X136100000Y-138725000D01*
G75*
G02*
X136350000Y-138975000I0J-250000D01*
G01*
X136350000Y-140425000D01*
G75*
G02*
X136100000Y-140675000I-250000J0D01*
G01*
X134900000Y-140675000D01*
G75*
G02*
X134650000Y-140425000I0J250000D01*
G01*
G37*
%TD*%
D13*
%TO.C,A1*%
X147940000Y-127260000D03*
X132700000Y-127260000D03*
X147940000Y-91700000D03*
X132700000Y-124720000D03*
X147940000Y-94240000D03*
X132700000Y-122180000D03*
X147940000Y-96780000D03*
X132700000Y-119640000D03*
X147940000Y-99320000D03*
X132700000Y-117100000D03*
X147940000Y-101860000D03*
X132700000Y-114560000D03*
X147940000Y-104400000D03*
X132700000Y-112020000D03*
X147940000Y-106940000D03*
X132700000Y-109480000D03*
X147940000Y-109480000D03*
X132700000Y-106940000D03*
X147940000Y-112020000D03*
X132700000Y-104400000D03*
X147940000Y-114560000D03*
X132700000Y-101860000D03*
X147940000Y-117100000D03*
X132700000Y-99320000D03*
X147940000Y-119640000D03*
X132700000Y-96780000D03*
X147940000Y-122180000D03*
X132700000Y-94240000D03*
X147940000Y-124720000D03*
D14*
X132700000Y-91700000D03*
%TD*%
M02*
