%TF.GenerationSoftware,KiCad,Pcbnew,(5.1.9)-1*%
%TF.CreationDate,2022-03-15T21:24:12+09:00*%
%TF.ProjectId,IRboard5.0,4952626f-6172-4643-952e-302e6b696361,rev?*%
%TF.SameCoordinates,Original*%
%TF.FileFunction,Copper,L1,Top*%
%TF.FilePolarity,Positive*%
%FSLAX46Y46*%
G04 Gerber Fmt 4.6, Leading zero omitted, Abs format (unit mm)*
G04 Created by KiCad (PCBNEW (5.1.9)-1) date 2022-03-15 21:24:12*
%MOMM*%
%LPD*%
G01*
G04 APERTURE LIST*
%TA.AperFunction,ComponentPad*%
%ADD10C,1.800000*%
%TD*%
%TA.AperFunction,ComponentPad*%
%ADD11O,1.700000X1.950000*%
%TD*%
%TA.AperFunction,ComponentPad*%
%ADD12O,1.600000X1.600000*%
%TD*%
%TA.AperFunction,ComponentPad*%
%ADD13R,1.600000X1.600000*%
%TD*%
%TA.AperFunction,Conductor*%
%ADD14C,0.250000*%
%TD*%
%TA.AperFunction,Conductor*%
%ADD15C,0.750000*%
%TD*%
%TA.AperFunction,Conductor*%
%ADD16C,0.500000*%
%TD*%
G04 APERTURE END LIST*
D10*
%TO.P,U9,3*%
%TO.N,3.3V*%
X159561261Y-150663459D03*
%TO.P,U9,2*%
%TO.N,GND*%
X157214607Y-151635475D03*
%TO.P,U9,1*%
%TO.N,data_D12*%
%TA.AperFunction,ComponentPad*%
G36*
G01*
X154285129Y-153552243D02*
X153787793Y-152351569D01*
G75*
G02*
X153923201Y-152024667I231155J95747D01*
G01*
X155123875Y-151527331D01*
G75*
G02*
X155450777Y-151662739I95747J-231155D01*
G01*
X155948113Y-152863413D01*
G75*
G02*
X155812705Y-153190315I-231155J-95747D01*
G01*
X154612031Y-153687651D01*
G75*
G02*
X154285129Y-153552243I-95747J231155D01*
G01*
G37*
%TD.AperFunction*%
%TD*%
%TO.P,U8,3*%
%TO.N,3.3V*%
X100436541Y-130061261D03*
%TO.P,U8,2*%
%TO.N,GND*%
X99464525Y-127714607D03*
%TO.P,U8,1*%
%TO.N,data_D8*%
%TA.AperFunction,ComponentPad*%
G36*
G01*
X97547757Y-124785129D02*
X98748431Y-124287793D01*
G75*
G02*
X99075333Y-124423201I95747J-231155D01*
G01*
X99572669Y-125623875D01*
G75*
G02*
X99437261Y-125950777I-231155J-95747D01*
G01*
X98236587Y-126448113D01*
G75*
G02*
X97909685Y-126312705I-95747J231155D01*
G01*
X97412349Y-125112031D01*
G75*
G02*
X97547757Y-124785129I231155J95747D01*
G01*
G37*
%TD.AperFunction*%
%TD*%
%TO.P,U16,3*%
%TO.N,3.3V*%
X184670233Y-108059260D03*
%TO.P,U16,2*%
%TO.N,GND*%
X184670233Y-110599260D03*
%TO.P,U16,1*%
%TO.N,data_A2*%
%TA.AperFunction,ComponentPad*%
G36*
G01*
X185320033Y-114039260D02*
X184020433Y-114039260D01*
G75*
G02*
X183770233Y-113789060I0J250200D01*
G01*
X183770233Y-112489460D01*
G75*
G02*
X184020433Y-112239260I250200J0D01*
G01*
X185320033Y-112239260D01*
G75*
G02*
X185570233Y-112489460I0J-250200D01*
G01*
X185570233Y-113789060D01*
G75*
G02*
X185320033Y-114039260I-250200J0D01*
G01*
G37*
%TD.AperFunction*%
%TD*%
%TO.P,U15,3*%
%TO.N,3.3V*%
X182277725Y-125167214D03*
%TO.P,U15,2*%
%TO.N,GND*%
X181305709Y-127513868D03*
%TO.P,U15,1*%
%TO.N,data_A1*%
%TA.AperFunction,ComponentPad*%
G36*
G01*
X180589615Y-130940682D02*
X179388941Y-130443346D01*
G75*
G02*
X179253533Y-130116444I95747J231155D01*
G01*
X179750869Y-128915770D01*
G75*
G02*
X180077771Y-128780362I231155J-95747D01*
G01*
X181278445Y-129277698D01*
G75*
G02*
X181413853Y-129604600I-95747J-231155D01*
G01*
X180916517Y-130805274D01*
G75*
G02*
X180589615Y-130940682I-231155J95747D01*
G01*
G37*
%TD.AperFunction*%
%TD*%
%TO.P,U14,1*%
%TO.N,data_A0*%
%TA.AperFunction,ComponentPad*%
G36*
G01*
X169751385Y-144745305D02*
X168832429Y-143826349D01*
G75*
G02*
X168832429Y-143472513I176918J176918D01*
G01*
X169751385Y-142553557D01*
G75*
G02*
X170105221Y-142553557I176918J-176918D01*
G01*
X171024177Y-143472513D01*
G75*
G02*
X171024177Y-143826349I-176918J-176918D01*
G01*
X170105221Y-144745305D01*
G75*
G02*
X169751385Y-144745305I-176918J176918D01*
G01*
G37*
%TD.AperFunction*%
%TO.P,U14,2*%
%TO.N,GND*%
X171724354Y-141853380D03*
%TO.P,U14,3*%
%TO.N,3.3V*%
X173520405Y-140057329D03*
%TD*%
%TO.P,U13,3*%
%TO.N,3.3V*%
X154867953Y-68992509D03*
%TO.P,U13,2*%
%TO.N,GND*%
X157214607Y-69964525D03*
%TO.P,U13,1*%
%TO.N,data_A5*%
%TA.AperFunction,ComponentPad*%
G36*
G01*
X160641421Y-70680619D02*
X160144085Y-71881293D01*
G75*
G02*
X159817183Y-72016701I-231155J95747D01*
G01*
X158616509Y-71519365D01*
G75*
G02*
X158481101Y-71192463I95747J231155D01*
G01*
X158978437Y-69991789D01*
G75*
G02*
X159305339Y-69856381I231155J-95747D01*
G01*
X160506013Y-70353717D01*
G75*
G02*
X160641421Y-70680619I-95747J-231155D01*
G01*
G37*
%TD.AperFunction*%
%TD*%
%TO.P,U12,1*%
%TO.N,data_D11*%
%TA.AperFunction,ComponentPad*%
G36*
G01*
X136860000Y-155649800D02*
X136860000Y-154350200D01*
G75*
G02*
X137110200Y-154100000I250200J0D01*
G01*
X138409800Y-154100000D01*
G75*
G02*
X138660000Y-154350200I0J-250200D01*
G01*
X138660000Y-155649800D01*
G75*
G02*
X138409800Y-155900000I-250200J0D01*
G01*
X137110200Y-155900000D01*
G75*
G02*
X136860000Y-155649800I0J250200D01*
G01*
G37*
%TD.AperFunction*%
%TO.P,U12,2*%
%TO.N,GND*%
X140300000Y-155000000D03*
%TO.P,U12,3*%
%TO.N,3.3V*%
X142840000Y-155000000D03*
%TD*%
%TO.P,U11,1*%
%TO.N,data_D10*%
%TA.AperFunction,ComponentPad*%
G36*
G01*
X119958579Y-150919381D02*
X120455915Y-149718707D01*
G75*
G02*
X120782817Y-149583299I231155J-95747D01*
G01*
X121983491Y-150080635D01*
G75*
G02*
X122118899Y-150407537I-95747J-231155D01*
G01*
X121621563Y-151608211D01*
G75*
G02*
X121294661Y-151743619I-231155J95747D01*
G01*
X120093987Y-151246283D01*
G75*
G02*
X119958579Y-150919381I95747J231155D01*
G01*
G37*
%TD.AperFunction*%
%TO.P,U11,2*%
%TO.N,GND*%
X123385393Y-151635475D03*
%TO.P,U11,3*%
%TO.N,3.3V*%
X125732047Y-152607491D03*
%TD*%
%TO.P,U10,3*%
%TO.N,3.3V*%
X110841932Y-143850170D03*
%TO.P,U10,2*%
%TO.N,GND*%
X109045881Y-142054119D03*
%TO.P,U10,1*%
%TO.N,data_D9*%
%TA.AperFunction,ComponentPad*%
G36*
G01*
X106153956Y-140081150D02*
X107072912Y-139162194D01*
G75*
G02*
X107426748Y-139162194I176918J-176918D01*
G01*
X108345704Y-140081150D01*
G75*
G02*
X108345704Y-140434986I-176918J-176918D01*
G01*
X107426748Y-141353942D01*
G75*
G02*
X107072912Y-141353942I-176918J176918D01*
G01*
X106153956Y-140434986D01*
G75*
G02*
X106153956Y-140081150I176918J176918D01*
G01*
G37*
%TD.AperFunction*%
%TD*%
%TO.P,U7,3*%
%TO.N,3.3V*%
X96100000Y-113340000D03*
%TO.P,U7,2*%
%TO.N,GND*%
X96100000Y-110800000D03*
%TO.P,U7,1*%
%TO.N,data_D7*%
%TA.AperFunction,ComponentPad*%
G36*
G01*
X95450200Y-107360000D02*
X96749800Y-107360000D01*
G75*
G02*
X97000000Y-107610200I0J-250200D01*
G01*
X97000000Y-108909800D01*
G75*
G02*
X96749800Y-109160000I-250200J0D01*
G01*
X95450200Y-109160000D01*
G75*
G02*
X95200000Y-108909800I0J250200D01*
G01*
X95200000Y-107610200D01*
G75*
G02*
X95450200Y-107360000I250200J0D01*
G01*
G37*
%TD.AperFunction*%
%TD*%
%TO.P,U6,3*%
%TO.N,3.3V*%
X98492509Y-96232047D03*
%TO.P,U6,2*%
%TO.N,GND*%
X99464525Y-93885393D03*
%TO.P,U6,1*%
%TO.N,data_D6*%
%TA.AperFunction,ComponentPad*%
G36*
G01*
X100180619Y-90458579D02*
X101381293Y-90955915D01*
G75*
G02*
X101516701Y-91282817I-95747J-231155D01*
G01*
X101019365Y-92483491D01*
G75*
G02*
X100692463Y-92618899I-231155J95747D01*
G01*
X99491789Y-92121563D01*
G75*
G02*
X99356381Y-91794661I95747J231155D01*
G01*
X99853717Y-90593987D01*
G75*
G02*
X100180619Y-90458579I231155J-95747D01*
G01*
G37*
%TD.AperFunction*%
%TD*%
%TO.P,U5,3*%
%TO.N,3.3V*%
X107249830Y-81341932D03*
%TO.P,U5,2*%
%TO.N,GND*%
X109045881Y-79545881D03*
%TO.P,U5,1*%
%TO.N,data_D5*%
%TA.AperFunction,ComponentPad*%
G36*
G01*
X111018850Y-76653956D02*
X111937806Y-77572912D01*
G75*
G02*
X111937806Y-77926748I-176918J-176918D01*
G01*
X111018850Y-78845704D01*
G75*
G02*
X110665014Y-78845704I-176918J176918D01*
G01*
X109746058Y-77926748D01*
G75*
G02*
X109746058Y-77572912I176918J176918D01*
G01*
X110665014Y-76653956D01*
G75*
G02*
X111018850Y-76653956I176918J-176918D01*
G01*
G37*
%TD.AperFunction*%
%TD*%
%TO.P,U4,3*%
%TO.N,3.3V*%
X180333693Y-91337998D03*
%TO.P,U4,2*%
%TO.N,GND*%
X181305709Y-93684652D03*
%TO.P,U4,1*%
%TO.N,data_A3*%
%TA.AperFunction,ComponentPad*%
G36*
G01*
X183222477Y-96614130D02*
X182021803Y-97111466D01*
G75*
G02*
X181694901Y-96976058I-95747J231155D01*
G01*
X181197565Y-95775384D01*
G75*
G02*
X181332973Y-95448482I231155J95747D01*
G01*
X182533647Y-94951146D01*
G75*
G02*
X182860549Y-95086554I95747J-231155D01*
G01*
X183357885Y-96287228D01*
G75*
G02*
X183222477Y-96614130I-231155J-95747D01*
G01*
G37*
%TD.AperFunction*%
%TD*%
%TO.P,U3,3*%
%TO.N,3.3V*%
X121038739Y-70936541D03*
%TO.P,U3,2*%
%TO.N,GND*%
X123385393Y-69964525D03*
%TO.P,U3,1*%
%TO.N,data_D4*%
%TA.AperFunction,ComponentPad*%
G36*
G01*
X126314871Y-68047757D02*
X126812207Y-69248431D01*
G75*
G02*
X126676799Y-69575333I-231155J-95747D01*
G01*
X125476125Y-70072669D01*
G75*
G02*
X125149223Y-69937261I-95747J231155D01*
G01*
X124651887Y-68736587D01*
G75*
G02*
X124787295Y-68409685I231155J95747D01*
G01*
X125987969Y-67912349D01*
G75*
G02*
X126314871Y-68047757I95747J-231155D01*
G01*
G37*
%TD.AperFunction*%
%TD*%
%TO.P,U2,3*%
%TO.N,3.3V*%
X137760000Y-66600000D03*
%TO.P,U2,2*%
%TO.N,GND*%
X140300000Y-66600000D03*
%TO.P,U2,1*%
%TO.N,data_D3*%
%TA.AperFunction,ComponentPad*%
G36*
G01*
X143740000Y-65950200D02*
X143740000Y-67249800D01*
G75*
G02*
X143489800Y-67500000I-250200J0D01*
G01*
X142190200Y-67500000D01*
G75*
G02*
X141940000Y-67249800I0J250200D01*
G01*
X141940000Y-65950200D01*
G75*
G02*
X142190200Y-65700000I250200J0D01*
G01*
X143489800Y-65700000D01*
G75*
G02*
X143740000Y-65950200I0J-250200D01*
G01*
G37*
%TD.AperFunction*%
%TD*%
%TO.P,U1,3*%
%TO.N,3.3V*%
X169928303Y-77549089D03*
%TO.P,U1,2*%
%TO.N,GND*%
X171724354Y-79345140D03*
%TO.P,U1,1*%
%TO.N,data_A4*%
%TA.AperFunction,ComponentPad*%
G36*
G01*
X174616279Y-81318109D02*
X173697323Y-82237065D01*
G75*
G02*
X173343487Y-82237065I-176918J176918D01*
G01*
X172424531Y-81318109D01*
G75*
G02*
X172424531Y-80964273I176918J176918D01*
G01*
X173343487Y-80045317D01*
G75*
G02*
X173697323Y-80045317I176918J-176918D01*
G01*
X174616279Y-80964273D01*
G75*
G02*
X174616279Y-81318109I-176918J-176918D01*
G01*
G37*
%TD.AperFunction*%
%TD*%
D11*
%TO.P,J1,5*%
%TO.N,3.3V*%
X145500000Y-139700000D03*
%TO.P,J1,4*%
%TO.N,GND*%
X143000000Y-139700000D03*
%TO.P,J1,3*%
%TO.N,5V*%
X140500000Y-139700000D03*
%TO.P,J1,2*%
%TO.N,RX*%
X138000000Y-139700000D03*
%TO.P,J1,1*%
%TO.N,TX*%
%TA.AperFunction,ComponentPad*%
G36*
G01*
X134650000Y-140425000D02*
X134650000Y-138975000D01*
G75*
G02*
X134900000Y-138725000I250000J0D01*
G01*
X136100000Y-138725000D01*
G75*
G02*
X136350000Y-138975000I0J-250000D01*
G01*
X136350000Y-140425000D01*
G75*
G02*
X136100000Y-140675000I-250000J0D01*
G01*
X134900000Y-140675000D01*
G75*
G02*
X134650000Y-140425000I0J250000D01*
G01*
G37*
%TD.AperFunction*%
%TD*%
D12*
%TO.P,A1,16*%
%TO.N,Net-(A1-Pad16)*%
X147940000Y-127260000D03*
%TO.P,A1,15*%
%TO.N,data_D12*%
X132700000Y-127260000D03*
%TO.P,A1,30*%
%TO.N,Net-(A1-Pad30)*%
X147940000Y-91700000D03*
%TO.P,A1,14*%
%TO.N,data_D11*%
X132700000Y-124720000D03*
%TO.P,A1,29*%
%TO.N,GND*%
X147940000Y-94240000D03*
%TO.P,A1,13*%
%TO.N,data_D10*%
X132700000Y-122180000D03*
%TO.P,A1,28*%
%TO.N,Net-(A1-Pad28)*%
X147940000Y-96780000D03*
%TO.P,A1,12*%
%TO.N,data_D9*%
X132700000Y-119640000D03*
%TO.P,A1,27*%
%TO.N,5V*%
X147940000Y-99320000D03*
%TO.P,A1,11*%
%TO.N,data_D8*%
X132700000Y-117100000D03*
%TO.P,A1,26*%
%TO.N,Net-(A1-Pad26)*%
X147940000Y-101860000D03*
%TO.P,A1,10*%
%TO.N,data_D7*%
X132700000Y-114560000D03*
%TO.P,A1,25*%
%TO.N,Net-(A1-Pad25)*%
X147940000Y-104400000D03*
%TO.P,A1,9*%
%TO.N,data_D6*%
X132700000Y-112020000D03*
%TO.P,A1,24*%
%TO.N,data_A5*%
X147940000Y-106940000D03*
%TO.P,A1,8*%
%TO.N,data_D5*%
X132700000Y-109480000D03*
%TO.P,A1,23*%
%TO.N,data_A4*%
X147940000Y-109480000D03*
%TO.P,A1,7*%
%TO.N,data_D4*%
X132700000Y-106940000D03*
%TO.P,A1,22*%
%TO.N,data_A3*%
X147940000Y-112020000D03*
%TO.P,A1,6*%
%TO.N,data_D3*%
X132700000Y-104400000D03*
%TO.P,A1,21*%
%TO.N,data_A2*%
X147940000Y-114560000D03*
%TO.P,A1,5*%
%TO.N,Net-(A1-Pad5)*%
X132700000Y-101860000D03*
%TO.P,A1,20*%
%TO.N,data_A1*%
X147940000Y-117100000D03*
%TO.P,A1,4*%
%TO.N,Net-(A1-Pad4)*%
X132700000Y-99320000D03*
%TO.P,A1,19*%
%TO.N,data_A0*%
X147940000Y-119640000D03*
%TO.P,A1,3*%
%TO.N,Net-(A1-Pad3)*%
X132700000Y-96780000D03*
%TO.P,A1,18*%
%TO.N,Net-(A1-Pad18)*%
X147940000Y-122180000D03*
%TO.P,A1,2*%
%TO.N,RX*%
X132700000Y-94240000D03*
%TO.P,A1,17*%
%TO.N,3.3V*%
X147940000Y-124720000D03*
D13*
%TO.P,A1,1*%
%TO.N,TX*%
X132700000Y-91700000D03*
%TD*%
D14*
%TO.N,data_D9*%
X119841932Y-140258068D02*
X107249830Y-140258068D01*
X124600000Y-135500000D02*
X119841932Y-140258068D01*
X124600000Y-127740000D02*
X124600000Y-135500000D01*
X132700000Y-119640000D02*
X124600000Y-127740000D01*
D15*
%TO.N,5V*%
X140500000Y-106760000D02*
X140500000Y-139700000D01*
X147940000Y-99320000D02*
X140500000Y-106760000D01*
D14*
%TO.N,data_D8*%
X123500000Y-131200000D02*
X123500000Y-126300000D01*
X123500000Y-126300000D02*
X132700000Y-117100000D01*
X110400000Y-133500000D02*
X121200000Y-133500000D01*
X102267953Y-125367953D02*
X110400000Y-133500000D01*
X121200000Y-133500000D02*
X123500000Y-131200000D01*
X98492509Y-125367953D02*
X102267953Y-125367953D01*
%TO.N,data_D7*%
X122800000Y-104660000D02*
X132700000Y-114560000D01*
X122800000Y-90900000D02*
X122800000Y-104660000D01*
X111126542Y-90224990D02*
X122124990Y-90224990D01*
X122124990Y-90224990D02*
X122800000Y-90900000D01*
X96100000Y-105251532D02*
X111126542Y-90224990D01*
X96100000Y-108260000D02*
X96100000Y-105251532D01*
%TO.N,data_D6*%
X121200000Y-87400000D02*
X104575280Y-87400000D01*
X123800000Y-90000000D02*
X121200000Y-87400000D01*
X104575280Y-87400000D02*
X100436541Y-91538739D01*
X123800000Y-103120000D02*
X123800000Y-90000000D01*
X132700000Y-112020000D02*
X123800000Y-103120000D01*
%TO.N,data_D5*%
X124700000Y-101480000D02*
X132700000Y-109480000D01*
X124700000Y-84600000D02*
X124700000Y-101480000D01*
X117849830Y-77749830D02*
X124700000Y-84600000D01*
X110841932Y-77749830D02*
X117849830Y-77749830D01*
%TO.N,data_D4*%
X125732047Y-99972047D02*
X132700000Y-106940000D01*
X125732047Y-68992509D02*
X125732047Y-99972047D01*
%TO.N,data_A3*%
X158300000Y-101660000D02*
X147940000Y-112020000D01*
X158300000Y-92751532D02*
X158300000Y-101660000D01*
X162751532Y-88300000D02*
X158300000Y-92751532D01*
X172400000Y-88300000D02*
X162751532Y-88300000D01*
X180131306Y-96031306D02*
X172400000Y-88300000D01*
X182277725Y-96031306D02*
X180131306Y-96031306D01*
%TO.N,data_D3*%
X126817849Y-98517849D02*
X132700000Y-104400000D01*
X126817849Y-74933683D02*
X126817849Y-98517849D01*
X133926531Y-67825001D02*
X126817849Y-74933683D01*
X141614999Y-67825001D02*
X133926531Y-67825001D01*
X142840000Y-66600000D02*
X141614999Y-67825001D01*
%TO.N,data_A2*%
X184670233Y-113139260D02*
X175300000Y-122509493D01*
X175300000Y-122509493D02*
X175300000Y-130600000D01*
X175300000Y-130600000D02*
X173300000Y-132600000D01*
X173300000Y-132600000D02*
X159300000Y-132600000D01*
X159300000Y-132600000D02*
X153100000Y-126400000D01*
X153100000Y-119720000D02*
X147940000Y-114560000D01*
X153100000Y-126400000D02*
X153100000Y-119720000D01*
%TO.N,data_A1*%
X147940000Y-117100000D02*
X151800000Y-120960000D01*
X151800000Y-120960000D02*
X151800000Y-127100000D01*
X151800000Y-127100000D02*
X158700000Y-134000000D01*
X176194215Y-134000000D02*
X180333693Y-129860522D01*
X158700000Y-134000000D02*
X176194215Y-134000000D01*
%TO.N,data_A0*%
X169928303Y-143649431D02*
X162249431Y-143649431D01*
X162249431Y-143649431D02*
X150200000Y-131600000D01*
X150200000Y-121900000D02*
X147940000Y-119640000D01*
X150200000Y-131600000D02*
X150200000Y-121900000D01*
%TO.N,RX*%
X138000000Y-99540000D02*
X138000000Y-139700000D01*
X132700000Y-94240000D02*
X138000000Y-99540000D01*
D16*
%TO.N,3.3V*%
X121038739Y-70313177D02*
X121038739Y-70936541D01*
X124751916Y-66600000D02*
X121038739Y-70313177D01*
X137760000Y-66600000D02*
X124751916Y-66600000D01*
X107249830Y-79343930D02*
X107249830Y-81341932D01*
X115657219Y-70936541D02*
X107249830Y-79343930D01*
X121038739Y-70936541D02*
X115657219Y-70936541D01*
X107249830Y-81341932D02*
X97200000Y-91391762D01*
X97200000Y-94939538D02*
X98492509Y-96232047D01*
X97200000Y-91391762D02*
X97200000Y-94939538D01*
X98492509Y-96232047D02*
X93800000Y-100924556D01*
X93800000Y-111040000D02*
X96100000Y-113340000D01*
X93800000Y-100924556D02*
X93800000Y-111040000D01*
X96100000Y-126997512D02*
X96100000Y-113340000D01*
X99163749Y-130061261D02*
X96100000Y-126997512D01*
X100436541Y-130061261D02*
X99163749Y-130061261D01*
X100436541Y-135353983D02*
X100436541Y-130061261D01*
X108932728Y-143850170D02*
X100436541Y-135353983D01*
X110841932Y-143850170D02*
X108932728Y-143850170D01*
X120499252Y-153507490D02*
X110841932Y-143850170D01*
X124832048Y-153507490D02*
X120499252Y-153507490D01*
X125732047Y-152607491D02*
X124832048Y-153507490D01*
X125732047Y-152607491D02*
X130024556Y-156900000D01*
X130024556Y-156900000D02*
X141500000Y-156900000D01*
X142840000Y-155560000D02*
X142840000Y-155000000D01*
X141500000Y-156900000D02*
X142840000Y-155560000D01*
X159561261Y-151286823D02*
X159561261Y-150663459D01*
X155848084Y-155000000D02*
X159561261Y-151286823D01*
X142840000Y-155000000D02*
X155848084Y-155000000D01*
X173520405Y-142055331D02*
X173520405Y-140057329D01*
X164912277Y-150663459D02*
X173520405Y-142055331D01*
X159561261Y-150663459D02*
X164912277Y-150663459D01*
X173520405Y-140057329D02*
X183700000Y-129877734D01*
X183700000Y-126589489D02*
X182277725Y-125167214D01*
X183700000Y-129877734D02*
X183700000Y-126589489D01*
X182277725Y-125167214D02*
X186700000Y-120744939D01*
X186700000Y-110089027D02*
X184670233Y-108059260D01*
X186700000Y-120744939D02*
X186700000Y-110089027D01*
X181606485Y-91337998D02*
X180333693Y-91337998D01*
X184670233Y-94401746D02*
X181606485Y-91337998D01*
X184670233Y-108059260D02*
X184670233Y-94401746D01*
X171926305Y-77549089D02*
X169928303Y-77549089D01*
X180333693Y-85956477D02*
X171926305Y-77549089D01*
X180333693Y-91337998D02*
X180333693Y-85956477D01*
X169928303Y-77549089D02*
X159779214Y-67400000D01*
X156460462Y-67400000D02*
X154867953Y-68992509D01*
X159779214Y-67400000D02*
X156460462Y-67400000D01*
X154867953Y-68992509D02*
X150775444Y-64900000D01*
X139460000Y-64900000D02*
X137760000Y-66600000D01*
X150775444Y-64900000D02*
X139460000Y-64900000D01*
X145500000Y-127160000D02*
X147940000Y-124720000D01*
X145500000Y-139700000D02*
X145500000Y-127160000D01*
X148597802Y-139700000D02*
X159561261Y-150663459D01*
X145500000Y-139700000D02*
X148597802Y-139700000D01*
D14*
%TO.N,TX*%
X131574999Y-92825001D02*
X132700000Y-91700000D01*
X131574999Y-97320001D02*
X131574999Y-92825001D01*
X132159999Y-97905001D02*
X131574999Y-97320001D01*
X132950003Y-97905001D02*
X132159999Y-97905001D01*
X135500000Y-100454998D02*
X132950003Y-97905001D01*
X135500000Y-139700000D02*
X135500000Y-100454998D01*
%TO.N,data_D12*%
X139407491Y-152607491D02*
X154867953Y-152607491D01*
X128800000Y-131160000D02*
X128800000Y-142000000D01*
X128800000Y-142000000D02*
X139407491Y-152607491D01*
X132700000Y-127260000D02*
X128800000Y-131160000D01*
%TO.N,data_D11*%
X126200000Y-143440000D02*
X137760000Y-155000000D01*
X126200000Y-131220000D02*
X126200000Y-143440000D01*
X132700000Y-124720000D02*
X126200000Y-131220000D01*
%TO.N,data_D10*%
X125400000Y-146302198D02*
X121038739Y-150663459D01*
X125400000Y-129480000D02*
X125400000Y-146302198D01*
X132700000Y-122180000D02*
X125400000Y-129480000D01*
%TO.N,data_A5*%
X153900000Y-100980000D02*
X147940000Y-106940000D01*
X153900000Y-76597802D02*
X153900000Y-100980000D01*
X159561261Y-70936541D02*
X153900000Y-76597802D01*
%TO.N,data_A4*%
X156400000Y-101020000D02*
X147940000Y-109480000D01*
X156400000Y-85200000D02*
X156400000Y-101020000D01*
X172979214Y-80600000D02*
X161000000Y-80600000D01*
X161000000Y-80600000D02*
X156400000Y-85200000D01*
X173520405Y-81141191D02*
X172979214Y-80600000D01*
%TD*%
M02*
