%TF.GenerationSoftware,KiCad,Pcbnew,(5.1.9)-1*%
%TF.CreationDate,2022-03-15T21:24:12+09:00*%
%TF.ProjectId,IRboard5.0,4952626f-6172-4643-952e-302e6b696361,rev?*%
%TF.SameCoordinates,Original*%
%TF.FileFunction,Legend,Bot*%
%TF.FilePolarity,Positive*%
%FSLAX46Y46*%
G04 Gerber Fmt 4.6, Leading zero omitted, Abs format (unit mm)*
G04 Created by KiCad (PCBNEW (5.1.9)-1) date 2022-03-15 21:24:12*
%MOMM*%
%LPD*%
G01*
G04 APERTURE LIST*
%ADD10C,0.150000*%
%ADD11C,0.120000*%
G04 APERTURE END LIST*
D10*
X147247619Y-142852380D02*
X146628571Y-142852380D01*
X146961904Y-143233333D01*
X146819047Y-143233333D01*
X146723809Y-143280952D01*
X146676190Y-143328571D01*
X146628571Y-143423809D01*
X146628571Y-143661904D01*
X146676190Y-143757142D01*
X146723809Y-143804761D01*
X146819047Y-143852380D01*
X147104761Y-143852380D01*
X147200000Y-143804761D01*
X147247619Y-143757142D01*
X146200000Y-143757142D02*
X146152380Y-143804761D01*
X146200000Y-143852380D01*
X146247619Y-143804761D01*
X146200000Y-143757142D01*
X146200000Y-143852380D01*
X145819047Y-142852380D02*
X145200000Y-142852380D01*
X145533333Y-143233333D01*
X145390476Y-143233333D01*
X145295238Y-143280952D01*
X145247619Y-143328571D01*
X145200000Y-143423809D01*
X145200000Y-143661904D01*
X145247619Y-143757142D01*
X145295238Y-143804761D01*
X145390476Y-143852380D01*
X145676190Y-143852380D01*
X145771428Y-143804761D01*
X145819047Y-143757142D01*
X144161904Y-142900000D02*
X144257142Y-142852380D01*
X144400000Y-142852380D01*
X144542857Y-142900000D01*
X144638095Y-142995238D01*
X144685714Y-143090476D01*
X144733333Y-143280952D01*
X144733333Y-143423809D01*
X144685714Y-143614285D01*
X144638095Y-143709523D01*
X144542857Y-143804761D01*
X144400000Y-143852380D01*
X144304761Y-143852380D01*
X144161904Y-143804761D01*
X144114285Y-143757142D01*
X144114285Y-143423809D01*
X144304761Y-143423809D01*
X143685714Y-143852380D02*
X143685714Y-142852380D01*
X143114285Y-143852380D01*
X143114285Y-142852380D01*
X142638095Y-143852380D02*
X142638095Y-142852380D01*
X142400000Y-142852380D01*
X142257142Y-142900000D01*
X142161904Y-142995238D01*
X142114285Y-143090476D01*
X142066666Y-143280952D01*
X142066666Y-143423809D01*
X142114285Y-143614285D01*
X142161904Y-143709523D01*
X142257142Y-143804761D01*
X142400000Y-143852380D01*
X142638095Y-143852380D01*
X140790476Y-144452380D02*
X141266666Y-144452380D01*
X141314285Y-144928571D01*
X141266666Y-144880952D01*
X141171428Y-144833333D01*
X140933333Y-144833333D01*
X140838095Y-144880952D01*
X140790476Y-144928571D01*
X140742857Y-145023809D01*
X140742857Y-145261904D01*
X140790476Y-145357142D01*
X140838095Y-145404761D01*
X140933333Y-145452380D01*
X141171428Y-145452380D01*
X141266666Y-145404761D01*
X141314285Y-145357142D01*
X140457142Y-144452380D02*
X140123809Y-145452380D01*
X139790476Y-144452380D01*
X138066666Y-143852380D02*
X138400000Y-143376190D01*
X138638095Y-143852380D02*
X138638095Y-142852380D01*
X138257142Y-142852380D01*
X138161904Y-142900000D01*
X138114285Y-142947619D01*
X138066666Y-143042857D01*
X138066666Y-143185714D01*
X138114285Y-143280952D01*
X138161904Y-143328571D01*
X138257142Y-143376190D01*
X138638095Y-143376190D01*
X137733333Y-142852380D02*
X137066666Y-143852380D01*
X137066666Y-142852380D02*
X137733333Y-143852380D01*
X136261904Y-142952380D02*
X135690476Y-142952380D01*
X135976190Y-143952380D02*
X135976190Y-142952380D01*
X135452380Y-142952380D02*
X134785714Y-143952380D01*
X134785714Y-142952380D02*
X135452380Y-143952380D01*
D11*
%TO.C,J1*%
X132650000Y-142450000D02*
X132650000Y-141200000D01*
X133900000Y-142450000D02*
X132650000Y-142450000D01*
X147300000Y-136950000D02*
X140500000Y-136950000D01*
X147300000Y-139900000D02*
X147300000Y-136950000D01*
X148050000Y-139900000D02*
X147300000Y-139900000D01*
X133700000Y-136950000D02*
X140500000Y-136950000D01*
X133700000Y-139900000D02*
X133700000Y-136950000D01*
X132950000Y-139900000D02*
X133700000Y-139900000D01*
X148050000Y-142150000D02*
X146250000Y-142150000D01*
X148050000Y-141400000D02*
X148050000Y-142150000D01*
X146250000Y-141400000D02*
X148050000Y-141400000D01*
X146250000Y-142150000D02*
X146250000Y-141400000D01*
X134750000Y-142150000D02*
X132950000Y-142150000D01*
X134750000Y-141400000D02*
X134750000Y-142150000D01*
X132950000Y-141400000D02*
X134750000Y-141400000D01*
X132950000Y-142150000D02*
X132950000Y-141400000D01*
X144750000Y-142150000D02*
X136250000Y-142150000D01*
X144750000Y-141400000D02*
X144750000Y-142150000D01*
X136250000Y-141400000D02*
X144750000Y-141400000D01*
X136250000Y-142150000D02*
X136250000Y-141400000D01*
X148060000Y-142160000D02*
X132940000Y-142160000D01*
X148060000Y-136190000D02*
X148060000Y-142160000D01*
X132940000Y-136190000D02*
X148060000Y-136190000D01*
X132940000Y-142160000D02*
X132940000Y-136190000D01*
D10*
X140833333Y-142702380D02*
X140833333Y-143416666D01*
X140880952Y-143559523D01*
X140976190Y-143654761D01*
X141119047Y-143702380D01*
X141214285Y-143702380D01*
X139833333Y-143702380D02*
X140404761Y-143702380D01*
X140119047Y-143702380D02*
X140119047Y-142702380D01*
X140214285Y-142845238D01*
X140309523Y-142940476D01*
X140404761Y-142988095D01*
%TD*%
M02*
