M48
; DRILL file {KiCad 9.0.7} date 2026-02-18T21:18:33+0900
; FORMAT={-:-/ absolute / metric / decimal}
; #@! TF.CreationDate,2026-02-18T21:18:33+09:00
; #@! TF.GenerationSoftware,Kicad,Pcbnew,9.0.7
; #@! TF.FileFunction,Plated,1,2,PTH
FMAT,2
METRIC
; #@! TA.AperFunction,Plated,PTH,ComponentDrill
T1C0.200
; #@! TA.AperFunction,Plated,PTH,ViaDrill
T2C0.300
; #@! TA.AperFunction,Plated,PTH,ViaDrill
T3C0.500
; #@! TA.AperFunction,Plated,PTH,ComponentDrill
T4C0.800
; #@! TA.AperFunction,Plated,PTH,ComponentDrill
T5C1.000
%
G90
G05
T1
X170.65Y-78.25
X170.65Y-79.375
X170.65Y-80.5
X170.65Y-81.625
X170.65Y-82.75
X170.65Y-83.875
X170.65Y-85.0
X170.65Y-86.125
X170.65Y-87.25
X170.65Y-88.375
X170.65Y-89.5
X170.65Y-90.625
X170.65Y-91.75
X170.65Y-108.25
X170.65Y-109.375
X170.65Y-110.5
X170.65Y-111.625
X170.65Y-112.75
X170.65Y-113.875
X170.65Y-115.0
X170.65Y-116.125
X170.65Y-117.25
X170.65Y-118.375
X170.65Y-119.5
X170.65Y-120.625
X170.65Y-121.75
X171.825Y-78.25
X171.825Y-79.375
X171.825Y-80.5
X171.825Y-81.625
X171.825Y-82.75
X171.825Y-83.875
X171.825Y-85.0
X171.825Y-86.125
X171.825Y-87.25
X171.825Y-88.375
X171.825Y-89.5
X171.825Y-90.625
X171.825Y-91.75
X171.825Y-108.25
X171.825Y-109.375
X171.825Y-110.5
X171.825Y-111.625
X171.825Y-112.75
X171.825Y-113.875
X171.825Y-115.0
X171.825Y-116.125
X171.825Y-117.25
X171.825Y-118.375
X171.825Y-119.5
X171.825Y-120.625
X171.825Y-121.75
X173.0Y-78.25
X173.0Y-79.375
X173.0Y-80.5
X173.0Y-81.625
X173.0Y-82.75
X173.0Y-83.875
X173.0Y-85.0
X173.0Y-86.125
X173.0Y-87.25
X173.0Y-88.375
X173.0Y-89.5
X173.0Y-90.625
X173.0Y-91.75
X173.0Y-108.25
X173.0Y-109.375
X173.0Y-110.5
X173.0Y-111.625
X173.0Y-112.75
X173.0Y-113.875
X173.0Y-115.0
X173.0Y-116.125
X173.0Y-117.25
X173.0Y-118.375
X173.0Y-119.5
X173.0Y-120.625
X173.0Y-121.75
X174.175Y-78.25
X174.175Y-79.375
X174.175Y-80.5
X174.175Y-81.625
X174.175Y-82.75
X174.175Y-83.875
X174.175Y-85.0
X174.175Y-86.125
X174.175Y-87.25
X174.175Y-88.375
X174.175Y-89.5
X174.175Y-90.625
X174.175Y-91.75
X174.175Y-108.25
X174.175Y-109.375
X174.175Y-110.5
X174.175Y-111.625
X174.175Y-112.75
X174.175Y-113.875
X174.175Y-115.0
X174.175Y-116.125
X174.175Y-117.25
X174.175Y-118.375
X174.175Y-119.5
X174.175Y-120.625
X174.175Y-121.75
X175.35Y-78.25
X175.35Y-79.375
X175.35Y-80.5
X175.35Y-81.625
X175.35Y-82.75
X175.35Y-83.875
X175.35Y-85.0
X175.35Y-86.125
X175.35Y-87.25
X175.35Y-88.375
X175.35Y-89.5
X175.35Y-90.625
X175.35Y-91.75
X175.35Y-108.25
X175.35Y-109.375
X175.35Y-110.5
X175.35Y-111.625
X175.35Y-112.75
X175.35Y-113.875
X175.35Y-115.0
X175.35Y-116.125
X175.35Y-117.25
X175.35Y-118.375
X175.35Y-119.5
X175.35Y-120.625
X175.35Y-121.75
T2
X153.16Y-94.28
X153.49Y-106.03
X153.84Y-88.92
X154.51Y-110.61
X154.52Y-83.44
X154.8Y-116.63
X155.3Y-121.72
X155.33Y-76.87
X156.67Y-72.03
X157.1Y-69.53
X157.71Y-128.95
X159.75Y-69.54
X160.82Y-104.39
X160.88Y-87.59
X161.16Y-118.24
X161.25Y-83.02
X161.26Y-111.44
X161.35Y-109.73
X161.39Y-130.46
X161.97Y-115.52
X162.0Y-98.36
X162.23Y-114.48
X162.29Y-69.66
X162.29Y-119.9
X162.37Y-87.04
X162.922Y-84.975
X163.08Y-108.99
X163.47Y-92.34
X163.62Y-81.86
X164.139Y-88.492
X164.21Y-117.85
X164.23Y-112.16
X165.0Y-100.49
X165.62Y-77.58
X166.275Y-82.82
X166.36Y-106.0
X166.397Y-114.697
X166.5Y-84.35
X166.51Y-97.19
X166.51Y-120.54
X166.64Y-81.33
X166.74Y-116.69
X166.85Y-111.06
X166.86Y-113.39
X166.93Y-88.96
X167.03Y-118.477
X167.04Y-86.98
X167.07Y-112.16
X167.278Y-85.066
X167.427Y-115.302
X167.66Y-80.52
X167.71Y-102.64
X167.76Y-117.25
X167.79Y-87.87
X167.89Y-92.64
X168.07Y-76.68
X170.81Y-98.98
X172.02Y-106.45
X172.8Y-93.41
X172.96Y-95.0
X173.78Y-69.98
X176.23Y-77.17
X177.2Y-101.36
X177.66Y-99.38
X178.11Y-84.89
X178.17Y-82.71
X178.275Y-114.874
X178.31Y-80.83
X178.31Y-85.938
X178.456Y-112.5
X178.46Y-117.63
X178.47Y-87.843
X179.18Y-115.925
X179.865Y-110.575
X179.98Y-89.94
X180.06Y-109.58
X180.382Y-119.127
X180.63Y-93.37
X180.81Y-120.44
X180.857Y-89.127
X180.9Y-130.37
X181.31Y-102.57
X181.39Y-72.4
X181.72Y-70.41
X182.12Y-107.4
X182.25Y-112.88
X184.26Y-115.92
X184.5Y-99.71
X184.58Y-129.14
X184.69Y-102.84
X185.86Y-93.28
X185.88Y-70.63
X186.72Y-108.1
X186.89Y-81.01
X187.44Y-130.65
X188.11Y-109.56
X188.28Y-98.16
X189.16Y-88.52
X189.32Y-91.67
X189.53Y-70.3
X190.55Y-118.54
X190.65Y-115.05
X191.1Y-117.03
X191.35Y-85.16
X191.61Y-76.77
X192.13Y-128.17
X193.11Y-123.56
X193.37Y-70.05
X193.58Y-116.56
X194.81Y-114.72
X195.64Y-121.44
X195.68Y-129.32
X196.09Y-81.03
X198.54Y-76.97
X199.09Y-122.03
X199.17Y-79.22
T3
X156.95Y-95.04
X158.5Y-113.3
X159.255Y-115.335
X159.935Y-91.325
X163.88Y-107.25
X166.5Y-123.25
X172.33Y-76.57
X173.14Y-123.49
X180.69Y-79.41
X180.83Y-123.46
X182.3Y-83.1
X182.94Y-77.48
X185.73Y-85.81
X186.675Y-123.485
T4
X183.25Y-91.25
X183.25Y-93.75
X183.25Y-121.0
X183.25Y-123.5
T5
X158.25Y-73.75
X158.25Y-126.25
X163.25Y-73.75
X163.25Y-126.25
X190.0Y-73.75
X190.5Y-126.5
X192.46Y-88.57
X192.46Y-91.11
X192.46Y-93.65
X192.46Y-96.19
X192.46Y-98.73
X192.46Y-101.27
X192.46Y-103.81
X192.46Y-106.35
X192.46Y-108.89
X192.46Y-111.43
X195.0Y-73.75
X195.0Y-88.57
X195.0Y-91.11
X195.0Y-93.65
X195.0Y-96.19
X195.0Y-98.73
X195.0Y-101.27
X195.0Y-103.81
X195.0Y-106.35
X195.0Y-108.89
X195.0Y-111.43
X195.5Y-126.5
M30
