%TF.GenerationSoftware,KiCad,Pcbnew,9.0.7*%
%TF.CreationDate,2026-02-18T21:18:40+09:00*%
%TF.ProjectId,Motor driver board_1.0,4d6f746f-7220-4647-9269-76657220626f,rev?*%
%TF.SameCoordinates,Original*%
%TF.FileFunction,Paste,Top*%
%TF.FilePolarity,Positive*%
%FSLAX46Y46*%
G04 Gerber Fmt 4.6, Leading zero omitted, Abs format (unit mm)*
G04 Created by KiCad (PCBNEW 9.0.7) date 2026-02-18 21:18:40*
%MOMM*%
%LPD*%
G01*
G04 APERTURE LIST*
G04 Aperture macros list*
%AMRoundRect*
0 Rectangle with rounded corners*
0 $1 Rounding radius*
0 $2 $3 $4 $5 $6 $7 $8 $9 X,Y pos of 4 corners*
0 Add a 4 corners polygon primitive as box body*
4,1,4,$2,$3,$4,$5,$6,$7,$8,$9,$2,$3,0*
0 Add four circle primitives for the rounded corners*
1,1,$1+$1,$2,$3*
1,1,$1+$1,$4,$5*
1,1,$1+$1,$6,$7*
1,1,$1+$1,$8,$9*
0 Add four rect primitives between the rounded corners*
20,1,$1+$1,$2,$3,$4,$5,0*
20,1,$1+$1,$4,$5,$6,$7,0*
20,1,$1+$1,$6,$7,$8,$9,0*
20,1,$1+$1,$8,$9,$2,$3,0*%
G04 Aperture macros list end*
%ADD10RoundRect,0.225000X0.225000X0.250000X-0.225000X0.250000X-0.225000X-0.250000X0.225000X-0.250000X0*%
%ADD11RoundRect,0.225000X-0.225000X-0.250000X0.225000X-0.250000X0.225000X0.250000X-0.225000X0.250000X0*%
%ADD12RoundRect,0.200000X0.200000X0.275000X-0.200000X0.275000X-0.200000X-0.275000X0.200000X-0.275000X0*%
%ADD13RoundRect,0.225000X0.250000X-0.225000X0.250000X0.225000X-0.250000X0.225000X-0.250000X-0.225000X0*%
%ADD14RoundRect,0.250000X0.620000X0.860000X-0.620000X0.860000X-0.620000X-0.860000X0.620000X-0.860000X0*%
%ADD15RoundRect,0.100000X0.687500X0.100000X-0.687500X0.100000X-0.687500X-0.100000X0.687500X-0.100000X0*%
%ADD16RoundRect,0.200000X-0.200000X-0.275000X0.200000X-0.275000X0.200000X0.275000X-0.200000X0.275000X0*%
%ADD17RoundRect,0.225000X-0.250000X0.225000X-0.250000X-0.225000X0.250000X-0.225000X0.250000X0.225000X0*%
G04 APERTURE END LIST*
D10*
%TO.C,C27*%
X165275000Y-110237500D03*
X163725000Y-110237500D03*
%TD*%
D11*
%TO.C,C13*%
X163725000Y-85950000D03*
X165275000Y-85950000D03*
%TD*%
D10*
%TO.C,C11*%
X165275000Y-84000000D03*
X163725000Y-84000000D03*
%TD*%
D11*
%TO.C,C33*%
X160225000Y-116750000D03*
X161775000Y-116750000D03*
%TD*%
D12*
%TO.C,R7*%
X180825000Y-81750000D03*
X179175000Y-81750000D03*
%TD*%
D10*
%TO.C,C35*%
X167275000Y-130500000D03*
X165725000Y-130500000D03*
%TD*%
%TO.C,C9*%
X167275000Y-69500000D03*
X165725000Y-69500000D03*
%TD*%
%TO.C,C29*%
X165275000Y-115952500D03*
X163725000Y-115952500D03*
%TD*%
D13*
%TO.C,C24*%
X178750000Y-109775000D03*
X178750000Y-108225000D03*
%TD*%
D11*
%TO.C,C10*%
X163725000Y-80250000D03*
X165275000Y-80250000D03*
%TD*%
D12*
%TO.C,R10*%
X180825000Y-111750000D03*
X179175000Y-111750000D03*
%TD*%
D10*
%TO.C,C22*%
X170775000Y-106500000D03*
X169225000Y-106500000D03*
%TD*%
D14*
%TO.C,U2*%
X174075000Y-87750000D03*
X174075000Y-85000000D03*
X174075000Y-82250000D03*
X171925000Y-87750000D03*
X171925000Y-85000000D03*
X171925000Y-82250000D03*
D15*
X176712500Y-91667500D03*
X176712500Y-91032500D03*
X176712500Y-90397500D03*
X176712500Y-89762500D03*
X176712500Y-89127500D03*
X176712500Y-88492500D03*
X176712500Y-87857500D03*
X176712500Y-87222500D03*
X176712500Y-86587500D03*
X176712500Y-85952500D03*
X176712500Y-85317500D03*
X176712500Y-84682500D03*
X176712500Y-84047500D03*
X176712500Y-83412500D03*
X176712500Y-82777500D03*
X176712500Y-82142500D03*
X176712500Y-81507500D03*
X176712500Y-80872500D03*
X176712500Y-80237500D03*
X176712500Y-79602500D03*
X176712500Y-78967500D03*
X176712500Y-78332500D03*
X169287500Y-78332500D03*
X169287500Y-78967500D03*
X169287500Y-79602500D03*
X169287500Y-80237500D03*
X169287500Y-80872500D03*
X169287500Y-81507500D03*
X169287500Y-82142500D03*
X169287500Y-82777500D03*
X169287500Y-83412500D03*
X169287500Y-84047500D03*
X169287500Y-84682500D03*
X169287500Y-85317500D03*
X169287500Y-85952500D03*
X169287500Y-86587500D03*
X169287500Y-87222500D03*
X169287500Y-87857500D03*
X169287500Y-88492500D03*
X169287500Y-89127500D03*
X169287500Y-89762500D03*
X169287500Y-90397500D03*
X169287500Y-91032500D03*
X169287500Y-91667500D03*
%TD*%
D11*
%TO.C,C15*%
X164975000Y-78750000D03*
X166525000Y-78750000D03*
%TD*%
D16*
%TO.C,R8*%
X179925000Y-87750000D03*
X181575000Y-87750000D03*
%TD*%
D11*
%TO.C,C16*%
X160225000Y-84500000D03*
X161775000Y-84500000D03*
%TD*%
%TO.C,C5*%
X175225000Y-93500000D03*
X176775000Y-93500000D03*
%TD*%
D10*
%TO.C,C6*%
X170775000Y-93500000D03*
X169225000Y-93500000D03*
%TD*%
D12*
%TO.C,R1*%
X170825000Y-69500000D03*
X169175000Y-69500000D03*
%TD*%
D14*
%TO.C,U1*%
X174075000Y-117750000D03*
X174075000Y-115000000D03*
X174075000Y-112250000D03*
X171925000Y-117750000D03*
X171925000Y-115000000D03*
X171925000Y-112250000D03*
D15*
X176712500Y-121667500D03*
X176712500Y-121032500D03*
X176712500Y-120397500D03*
X176712500Y-119762500D03*
X176712500Y-119127500D03*
X176712500Y-118492500D03*
X176712500Y-117857500D03*
X176712500Y-117222500D03*
X176712500Y-116587500D03*
X176712500Y-115952500D03*
X176712500Y-115317500D03*
X176712500Y-114682500D03*
X176712500Y-114047500D03*
X176712500Y-113412500D03*
X176712500Y-112777500D03*
X176712500Y-112142500D03*
X176712500Y-111507500D03*
X176712500Y-110872500D03*
X176712500Y-110237500D03*
X176712500Y-109602500D03*
X176712500Y-108967500D03*
X176712500Y-108332500D03*
X169287500Y-108332500D03*
X169287500Y-108967500D03*
X169287500Y-109602500D03*
X169287500Y-110237500D03*
X169287500Y-110872500D03*
X169287500Y-111507500D03*
X169287500Y-112142500D03*
X169287500Y-112777500D03*
X169287500Y-113412500D03*
X169287500Y-114047500D03*
X169287500Y-114682500D03*
X169287500Y-115317500D03*
X169287500Y-115952500D03*
X169287500Y-116587500D03*
X169287500Y-117222500D03*
X169287500Y-117857500D03*
X169287500Y-118492500D03*
X169287500Y-119127500D03*
X169287500Y-119762500D03*
X169287500Y-120397500D03*
X169287500Y-121032500D03*
X169287500Y-121667500D03*
%TD*%
D13*
%TO.C,C3*%
X178750000Y-79775000D03*
X178750000Y-78225000D03*
%TD*%
D11*
%TO.C,C31*%
X164975000Y-108500000D03*
X166525000Y-108500000D03*
%TD*%
%TO.C,C32*%
X160225000Y-113250000D03*
X161775000Y-113250000D03*
%TD*%
D17*
%TO.C,C1*%
X178750000Y-89975000D03*
X178750000Y-91525000D03*
%TD*%
D16*
%TO.C,R5*%
X179175000Y-114750000D03*
X180825000Y-114750000D03*
%TD*%
D12*
%TO.C,R6*%
X170825000Y-130500000D03*
X169175000Y-130500000D03*
%TD*%
D11*
%TO.C,C18*%
X164975000Y-93000000D03*
X166525000Y-93000000D03*
%TD*%
%TO.C,C34*%
X165725000Y-122000000D03*
X167275000Y-122000000D03*
%TD*%
%TO.C,C25*%
X175225000Y-123500000D03*
X176775000Y-123500000D03*
%TD*%
D10*
%TO.C,C26*%
X171025000Y-123500000D03*
X169475000Y-123500000D03*
%TD*%
D16*
%TO.C,R9*%
X179925000Y-117750000D03*
X181575000Y-117750000D03*
%TD*%
D12*
%TO.C,R2*%
X180825000Y-83500000D03*
X179175000Y-83500000D03*
%TD*%
D17*
%TO.C,C20*%
X178750000Y-119975000D03*
X178750000Y-121525000D03*
%TD*%
D16*
%TO.C,R3*%
X179175000Y-85000000D03*
X180825000Y-85000000D03*
%TD*%
D11*
%TO.C,C30*%
X163725000Y-119127500D03*
X165275000Y-119127500D03*
%TD*%
D10*
%TO.C,C4*%
X170775000Y-76500000D03*
X169225000Y-76500000D03*
%TD*%
%TO.C,C12*%
X165275000Y-89750000D03*
X163725000Y-89750000D03*
%TD*%
D11*
%TO.C,C28*%
X163725000Y-114047500D03*
X165275000Y-114047500D03*
%TD*%
D10*
%TO.C,C14*%
X184275000Y-85000000D03*
X182725000Y-85000000D03*
%TD*%
%TO.C,C23*%
X184275000Y-114750000D03*
X182725000Y-114750000D03*
%TD*%
D11*
%TO.C,C17*%
X160225000Y-86250000D03*
X161775000Y-86250000D03*
%TD*%
D12*
%TO.C,R4*%
X180825000Y-113250000D03*
X179175000Y-113250000D03*
%TD*%
M02*
