%TF.GenerationSoftware,KiCad,Pcbnew,9.0.7*%
%TF.CreationDate,2026-02-07T16:49:49+09:00*%
%TF.ProjectId,Motor driver board_1.0,4d6f746f-7220-4647-9269-76657220626f,rev?*%
%TF.SameCoordinates,Original*%
%TF.FileFunction,Legend,Top*%
%TF.FilePolarity,Positive*%
%FSLAX46Y46*%
G04 Gerber Fmt 4.6, Leading zero omitted, Abs format (unit mm)*
G04 Created by KiCad (PCBNEW 9.0.7) date 2026-02-07 16:49:49*
%MOMM*%
%LPD*%
G01*
G04 APERTURE LIST*
G04 Aperture macros list*
%AMRoundRect*
0 Rectangle with rounded corners*
0 $1 Rounding radius*
0 $2 $3 $4 $5 $6 $7 $8 $9 X,Y pos of 4 corners*
0 Add a 4 corners polygon primitive as box body*
4,1,4,$2,$3,$4,$5,$6,$7,$8,$9,$2,$3,0*
0 Add four circle primitives for the rounded corners*
1,1,$1+$1,$2,$3*
1,1,$1+$1,$4,$5*
1,1,$1+$1,$6,$7*
1,1,$1+$1,$8,$9*
0 Add four rect primitives between the rounded corners*
20,1,$1+$1,$2,$3,$4,$5,0*
20,1,$1+$1,$4,$5,$6,$7,0*
20,1,$1+$1,$6,$7,$8,$9,0*
20,1,$1+$1,$8,$9,$2,$3,0*%
G04 Aperture macros list end*
%ADD10C,0.150000*%
%ADD11C,0.120000*%
%ADD12RoundRect,0.225000X0.225000X0.250000X-0.225000X0.250000X-0.225000X-0.250000X0.225000X-0.250000X0*%
%ADD13RoundRect,0.225000X-0.225000X-0.250000X0.225000X-0.250000X0.225000X0.250000X-0.225000X0.250000X0*%
%ADD14RoundRect,0.200000X0.200000X0.275000X-0.200000X0.275000X-0.200000X-0.275000X0.200000X-0.275000X0*%
%ADD15R,1.600000X1.600000*%
%ADD16C,1.600000*%
%ADD17RoundRect,0.225000X0.250000X-0.225000X0.250000X0.225000X-0.250000X0.225000X-0.250000X-0.225000X0*%
%ADD18R,2.000000X2.000000*%
%ADD19C,2.000000*%
%ADD20R,4.310000X8.260000*%
%ADD21RoundRect,0.100000X0.687500X0.100000X-0.687500X0.100000X-0.687500X-0.100000X0.687500X-0.100000X0*%
%ADD22RoundRect,0.200000X-0.200000X-0.275000X0.200000X-0.275000X0.200000X0.275000X-0.200000X0.275000X0*%
%ADD23RoundRect,0.225000X-0.250000X0.225000X-0.250000X-0.225000X0.250000X-0.225000X0.250000X0.225000X0*%
%ADD24R,1.700000X1.700000*%
%ADD25O,1.700000X1.700000*%
G04 APERTURE END LIST*
D10*
X182607142Y-126859580D02*
X182559523Y-126907200D01*
X182559523Y-126907200D02*
X182416666Y-126954819D01*
X182416666Y-126954819D02*
X182321428Y-126954819D01*
X182321428Y-126954819D02*
X182178571Y-126907200D01*
X182178571Y-126907200D02*
X182083333Y-126811961D01*
X182083333Y-126811961D02*
X182035714Y-126716723D01*
X182035714Y-126716723D02*
X181988095Y-126526247D01*
X181988095Y-126526247D02*
X181988095Y-126383390D01*
X181988095Y-126383390D02*
X182035714Y-126192914D01*
X182035714Y-126192914D02*
X182083333Y-126097676D01*
X182083333Y-126097676D02*
X182178571Y-126002438D01*
X182178571Y-126002438D02*
X182321428Y-125954819D01*
X182321428Y-125954819D02*
X182416666Y-125954819D01*
X182416666Y-125954819D02*
X182559523Y-126002438D01*
X182559523Y-126002438D02*
X182607142Y-126050057D01*
X183559523Y-126954819D02*
X182988095Y-126954819D01*
X183273809Y-126954819D02*
X183273809Y-125954819D01*
X183273809Y-125954819D02*
X183178571Y-126097676D01*
X183178571Y-126097676D02*
X183083333Y-126192914D01*
X183083333Y-126192914D02*
X182988095Y-126240533D01*
X184035714Y-126954819D02*
X184226190Y-126954819D01*
X184226190Y-126954819D02*
X184321428Y-126907200D01*
X184321428Y-126907200D02*
X184369047Y-126859580D01*
X184369047Y-126859580D02*
X184464285Y-126716723D01*
X184464285Y-126716723D02*
X184511904Y-126526247D01*
X184511904Y-126526247D02*
X184511904Y-126145295D01*
X184511904Y-126145295D02*
X184464285Y-126050057D01*
X184464285Y-126050057D02*
X184416666Y-126002438D01*
X184416666Y-126002438D02*
X184321428Y-125954819D01*
X184321428Y-125954819D02*
X184130952Y-125954819D01*
X184130952Y-125954819D02*
X184035714Y-126002438D01*
X184035714Y-126002438D02*
X183988095Y-126050057D01*
X183988095Y-126050057D02*
X183940476Y-126145295D01*
X183940476Y-126145295D02*
X183940476Y-126383390D01*
X183940476Y-126383390D02*
X183988095Y-126478628D01*
X183988095Y-126478628D02*
X184035714Y-126526247D01*
X184035714Y-126526247D02*
X184130952Y-126573866D01*
X184130952Y-126573866D02*
X184321428Y-126573866D01*
X184321428Y-126573866D02*
X184416666Y-126526247D01*
X184416666Y-126526247D02*
X184464285Y-126478628D01*
X184464285Y-126478628D02*
X184511904Y-126383390D01*
X160583333Y-80359580D02*
X160535714Y-80407200D01*
X160535714Y-80407200D02*
X160392857Y-80454819D01*
X160392857Y-80454819D02*
X160297619Y-80454819D01*
X160297619Y-80454819D02*
X160154762Y-80407200D01*
X160154762Y-80407200D02*
X160059524Y-80311961D01*
X160059524Y-80311961D02*
X160011905Y-80216723D01*
X160011905Y-80216723D02*
X159964286Y-80026247D01*
X159964286Y-80026247D02*
X159964286Y-79883390D01*
X159964286Y-79883390D02*
X160011905Y-79692914D01*
X160011905Y-79692914D02*
X160059524Y-79597676D01*
X160059524Y-79597676D02*
X160154762Y-79502438D01*
X160154762Y-79502438D02*
X160297619Y-79454819D01*
X160297619Y-79454819D02*
X160392857Y-79454819D01*
X160392857Y-79454819D02*
X160535714Y-79502438D01*
X160535714Y-79502438D02*
X160583333Y-79550057D01*
X161154762Y-79883390D02*
X161059524Y-79835771D01*
X161059524Y-79835771D02*
X161011905Y-79788152D01*
X161011905Y-79788152D02*
X160964286Y-79692914D01*
X160964286Y-79692914D02*
X160964286Y-79645295D01*
X160964286Y-79645295D02*
X161011905Y-79550057D01*
X161011905Y-79550057D02*
X161059524Y-79502438D01*
X161059524Y-79502438D02*
X161154762Y-79454819D01*
X161154762Y-79454819D02*
X161345238Y-79454819D01*
X161345238Y-79454819D02*
X161440476Y-79502438D01*
X161440476Y-79502438D02*
X161488095Y-79550057D01*
X161488095Y-79550057D02*
X161535714Y-79645295D01*
X161535714Y-79645295D02*
X161535714Y-79692914D01*
X161535714Y-79692914D02*
X161488095Y-79788152D01*
X161488095Y-79788152D02*
X161440476Y-79835771D01*
X161440476Y-79835771D02*
X161345238Y-79883390D01*
X161345238Y-79883390D02*
X161154762Y-79883390D01*
X161154762Y-79883390D02*
X161059524Y-79931009D01*
X161059524Y-79931009D02*
X161011905Y-79978628D01*
X161011905Y-79978628D02*
X160964286Y-80073866D01*
X160964286Y-80073866D02*
X160964286Y-80264342D01*
X160964286Y-80264342D02*
X161011905Y-80359580D01*
X161011905Y-80359580D02*
X161059524Y-80407200D01*
X161059524Y-80407200D02*
X161154762Y-80454819D01*
X161154762Y-80454819D02*
X161345238Y-80454819D01*
X161345238Y-80454819D02*
X161440476Y-80407200D01*
X161440476Y-80407200D02*
X161488095Y-80359580D01*
X161488095Y-80359580D02*
X161535714Y-80264342D01*
X161535714Y-80264342D02*
X161535714Y-80073866D01*
X161535714Y-80073866D02*
X161488095Y-79978628D01*
X161488095Y-79978628D02*
X161440476Y-79931009D01*
X161440476Y-79931009D02*
X161345238Y-79883390D01*
X172238095Y-92404819D02*
X172238095Y-93214342D01*
X172238095Y-93214342D02*
X172285714Y-93309580D01*
X172285714Y-93309580D02*
X172333333Y-93357200D01*
X172333333Y-93357200D02*
X172428571Y-93404819D01*
X172428571Y-93404819D02*
X172619047Y-93404819D01*
X172619047Y-93404819D02*
X172714285Y-93357200D01*
X172714285Y-93357200D02*
X172761904Y-93309580D01*
X172761904Y-93309580D02*
X172809523Y-93214342D01*
X172809523Y-93214342D02*
X172809523Y-92404819D01*
X173238095Y-92500057D02*
X173285714Y-92452438D01*
X173285714Y-92452438D02*
X173380952Y-92404819D01*
X173380952Y-92404819D02*
X173619047Y-92404819D01*
X173619047Y-92404819D02*
X173714285Y-92452438D01*
X173714285Y-92452438D02*
X173761904Y-92500057D01*
X173761904Y-92500057D02*
X173809523Y-92595295D01*
X173809523Y-92595295D02*
X173809523Y-92690533D01*
X173809523Y-92690533D02*
X173761904Y-92833390D01*
X173761904Y-92833390D02*
X173190476Y-93404819D01*
X173190476Y-93404819D02*
X173809523Y-93404819D01*
X194283333Y-80359580D02*
X194235714Y-80407200D01*
X194235714Y-80407200D02*
X194092857Y-80454819D01*
X194092857Y-80454819D02*
X193997619Y-80454819D01*
X193997619Y-80454819D02*
X193854762Y-80407200D01*
X193854762Y-80407200D02*
X193759524Y-80311961D01*
X193759524Y-80311961D02*
X193711905Y-80216723D01*
X193711905Y-80216723D02*
X193664286Y-80026247D01*
X193664286Y-80026247D02*
X193664286Y-79883390D01*
X193664286Y-79883390D02*
X193711905Y-79692914D01*
X193711905Y-79692914D02*
X193759524Y-79597676D01*
X193759524Y-79597676D02*
X193854762Y-79502438D01*
X193854762Y-79502438D02*
X193997619Y-79454819D01*
X193997619Y-79454819D02*
X194092857Y-79454819D01*
X194092857Y-79454819D02*
X194235714Y-79502438D01*
X194235714Y-79502438D02*
X194283333Y-79550057D01*
X194616667Y-79454819D02*
X195283333Y-79454819D01*
X195283333Y-79454819D02*
X194854762Y-80454819D01*
X183083333Y-88609580D02*
X183035714Y-88657200D01*
X183035714Y-88657200D02*
X182892857Y-88704819D01*
X182892857Y-88704819D02*
X182797619Y-88704819D01*
X182797619Y-88704819D02*
X182654762Y-88657200D01*
X182654762Y-88657200D02*
X182559524Y-88561961D01*
X182559524Y-88561961D02*
X182511905Y-88466723D01*
X182511905Y-88466723D02*
X182464286Y-88276247D01*
X182464286Y-88276247D02*
X182464286Y-88133390D01*
X182464286Y-88133390D02*
X182511905Y-87942914D01*
X182511905Y-87942914D02*
X182559524Y-87847676D01*
X182559524Y-87847676D02*
X182654762Y-87752438D01*
X182654762Y-87752438D02*
X182797619Y-87704819D01*
X182797619Y-87704819D02*
X182892857Y-87704819D01*
X182892857Y-87704819D02*
X183035714Y-87752438D01*
X183035714Y-87752438D02*
X183083333Y-87800057D01*
X183464286Y-87800057D02*
X183511905Y-87752438D01*
X183511905Y-87752438D02*
X183607143Y-87704819D01*
X183607143Y-87704819D02*
X183845238Y-87704819D01*
X183845238Y-87704819D02*
X183940476Y-87752438D01*
X183940476Y-87752438D02*
X183988095Y-87800057D01*
X183988095Y-87800057D02*
X184035714Y-87895295D01*
X184035714Y-87895295D02*
X184035714Y-87990533D01*
X184035714Y-87990533D02*
X183988095Y-88133390D01*
X183988095Y-88133390D02*
X183416667Y-88704819D01*
X183416667Y-88704819D02*
X184035714Y-88704819D01*
X172238095Y-122404819D02*
X172238095Y-123214342D01*
X172238095Y-123214342D02*
X172285714Y-123309580D01*
X172285714Y-123309580D02*
X172333333Y-123357200D01*
X172333333Y-123357200D02*
X172428571Y-123404819D01*
X172428571Y-123404819D02*
X172619047Y-123404819D01*
X172619047Y-123404819D02*
X172714285Y-123357200D01*
X172714285Y-123357200D02*
X172761904Y-123309580D01*
X172761904Y-123309580D02*
X172809523Y-123214342D01*
X172809523Y-123214342D02*
X172809523Y-122404819D01*
X173809523Y-123404819D02*
X173238095Y-123404819D01*
X173523809Y-123404819D02*
X173523809Y-122404819D01*
X173523809Y-122404819D02*
X173428571Y-122547676D01*
X173428571Y-122547676D02*
X173333333Y-122642914D01*
X173333333Y-122642914D02*
X173238095Y-122690533D01*
X160107142Y-120359580D02*
X160059523Y-120407200D01*
X160059523Y-120407200D02*
X159916666Y-120454819D01*
X159916666Y-120454819D02*
X159821428Y-120454819D01*
X159821428Y-120454819D02*
X159678571Y-120407200D01*
X159678571Y-120407200D02*
X159583333Y-120311961D01*
X159583333Y-120311961D02*
X159535714Y-120216723D01*
X159535714Y-120216723D02*
X159488095Y-120026247D01*
X159488095Y-120026247D02*
X159488095Y-119883390D01*
X159488095Y-119883390D02*
X159535714Y-119692914D01*
X159535714Y-119692914D02*
X159583333Y-119597676D01*
X159583333Y-119597676D02*
X159678571Y-119502438D01*
X159678571Y-119502438D02*
X159821428Y-119454819D01*
X159821428Y-119454819D02*
X159916666Y-119454819D01*
X159916666Y-119454819D02*
X160059523Y-119502438D01*
X160059523Y-119502438D02*
X160107142Y-119550057D01*
X160440476Y-119454819D02*
X161059523Y-119454819D01*
X161059523Y-119454819D02*
X160726190Y-119835771D01*
X160726190Y-119835771D02*
X160869047Y-119835771D01*
X160869047Y-119835771D02*
X160964285Y-119883390D01*
X160964285Y-119883390D02*
X161011904Y-119931009D01*
X161011904Y-119931009D02*
X161059523Y-120026247D01*
X161059523Y-120026247D02*
X161059523Y-120264342D01*
X161059523Y-120264342D02*
X161011904Y-120359580D01*
X161011904Y-120359580D02*
X160964285Y-120407200D01*
X160964285Y-120407200D02*
X160869047Y-120454819D01*
X160869047Y-120454819D02*
X160583333Y-120454819D01*
X160583333Y-120454819D02*
X160488095Y-120407200D01*
X160488095Y-120407200D02*
X160440476Y-120359580D01*
X161916666Y-119454819D02*
X161726190Y-119454819D01*
X161726190Y-119454819D02*
X161630952Y-119502438D01*
X161630952Y-119502438D02*
X161583333Y-119550057D01*
X161583333Y-119550057D02*
X161488095Y-119692914D01*
X161488095Y-119692914D02*
X161440476Y-119883390D01*
X161440476Y-119883390D02*
X161440476Y-120264342D01*
X161440476Y-120264342D02*
X161488095Y-120359580D01*
X161488095Y-120359580D02*
X161535714Y-120407200D01*
X161535714Y-120407200D02*
X161630952Y-120454819D01*
X161630952Y-120454819D02*
X161821428Y-120454819D01*
X161821428Y-120454819D02*
X161916666Y-120407200D01*
X161916666Y-120407200D02*
X161964285Y-120359580D01*
X161964285Y-120359580D02*
X162011904Y-120264342D01*
X162011904Y-120264342D02*
X162011904Y-120026247D01*
X162011904Y-120026247D02*
X161964285Y-119931009D01*
X161964285Y-119931009D02*
X161916666Y-119883390D01*
X161916666Y-119883390D02*
X161821428Y-119835771D01*
X161821428Y-119835771D02*
X161630952Y-119835771D01*
X161630952Y-119835771D02*
X161535714Y-119883390D01*
X161535714Y-119883390D02*
X161488095Y-119931009D01*
X161488095Y-119931009D02*
X161440476Y-120026247D01*
X193807142Y-120359580D02*
X193759523Y-120407200D01*
X193759523Y-120407200D02*
X193616666Y-120454819D01*
X193616666Y-120454819D02*
X193521428Y-120454819D01*
X193521428Y-120454819D02*
X193378571Y-120407200D01*
X193378571Y-120407200D02*
X193283333Y-120311961D01*
X193283333Y-120311961D02*
X193235714Y-120216723D01*
X193235714Y-120216723D02*
X193188095Y-120026247D01*
X193188095Y-120026247D02*
X193188095Y-119883390D01*
X193188095Y-119883390D02*
X193235714Y-119692914D01*
X193235714Y-119692914D02*
X193283333Y-119597676D01*
X193283333Y-119597676D02*
X193378571Y-119502438D01*
X193378571Y-119502438D02*
X193521428Y-119454819D01*
X193521428Y-119454819D02*
X193616666Y-119454819D01*
X193616666Y-119454819D02*
X193759523Y-119502438D01*
X193759523Y-119502438D02*
X193807142Y-119550057D01*
X194188095Y-119550057D02*
X194235714Y-119502438D01*
X194235714Y-119502438D02*
X194330952Y-119454819D01*
X194330952Y-119454819D02*
X194569047Y-119454819D01*
X194569047Y-119454819D02*
X194664285Y-119502438D01*
X194664285Y-119502438D02*
X194711904Y-119550057D01*
X194711904Y-119550057D02*
X194759523Y-119645295D01*
X194759523Y-119645295D02*
X194759523Y-119740533D01*
X194759523Y-119740533D02*
X194711904Y-119883390D01*
X194711904Y-119883390D02*
X194140476Y-120454819D01*
X194140476Y-120454819D02*
X194759523Y-120454819D01*
X195711904Y-120454819D02*
X195140476Y-120454819D01*
X195426190Y-120454819D02*
X195426190Y-119454819D01*
X195426190Y-119454819D02*
X195330952Y-119597676D01*
X195330952Y-119597676D02*
X195235714Y-119692914D01*
X195235714Y-119692914D02*
X195140476Y-119740533D01*
X193396666Y-85254819D02*
X193396666Y-85969104D01*
X193396666Y-85969104D02*
X193349047Y-86111961D01*
X193349047Y-86111961D02*
X193253809Y-86207200D01*
X193253809Y-86207200D02*
X193110952Y-86254819D01*
X193110952Y-86254819D02*
X193015714Y-86254819D01*
X194396666Y-86254819D02*
X193825238Y-86254819D01*
X194110952Y-86254819D02*
X194110952Y-85254819D01*
X194110952Y-85254819D02*
X194015714Y-85397676D01*
X194015714Y-85397676D02*
X193920476Y-85492914D01*
X193920476Y-85492914D02*
X193825238Y-85540533D01*
D11*
%TO.C,C27*%
X164640580Y-109727500D02*
X164359420Y-109727500D01*
X164640580Y-110747500D02*
X164359420Y-110747500D01*
%TO.C,C13*%
X164359420Y-85440000D02*
X164640580Y-85440000D01*
X164359420Y-86460000D02*
X164640580Y-86460000D01*
%TO.C,C11*%
X164640580Y-83490000D02*
X164359420Y-83490000D01*
X164640580Y-84510000D02*
X164359420Y-84510000D01*
%TO.C,C33*%
X160859420Y-116240000D02*
X161140580Y-116240000D01*
X160859420Y-117260000D02*
X161140580Y-117260000D01*
%TO.C,R7*%
X180237258Y-81227500D02*
X179762742Y-81227500D01*
X180237258Y-82272500D02*
X179762742Y-82272500D01*
%TO.C,C35*%
X166640580Y-129990000D02*
X166359420Y-129990000D01*
X166640580Y-131010000D02*
X166359420Y-131010000D01*
%TO.C,C9*%
X166640580Y-68990000D02*
X166359420Y-68990000D01*
X166640580Y-70010000D02*
X166359420Y-70010000D01*
%TO.C,C29*%
X164640580Y-115442500D02*
X164359420Y-115442500D01*
X164640580Y-116462500D02*
X164359420Y-116462500D01*
%TO.C,C19*%
X182210000Y-122490000D02*
X180028000Y-122490000D01*
X182210000Y-122530000D02*
X180032000Y-122530000D01*
X182210000Y-122570000D02*
X180035000Y-122570000D01*
X182210000Y-122610000D02*
X180039000Y-122610000D01*
X182210000Y-122650000D02*
X180044000Y-122650000D01*
X182210000Y-122690000D02*
X180049000Y-122690000D01*
X182210000Y-122730000D02*
X180055000Y-122730000D01*
X182210000Y-122770000D02*
X180061000Y-122770000D01*
X182210000Y-122810000D02*
X180068000Y-122810000D01*
X182210000Y-122850000D02*
X180075000Y-122850000D01*
X182210000Y-122890000D02*
X180083000Y-122890000D01*
X182210000Y-122930000D02*
X180091000Y-122930000D01*
X182210000Y-122971000D02*
X180100000Y-122971000D01*
X182210000Y-123011000D02*
X180109000Y-123011000D01*
X182210000Y-123051000D02*
X180119000Y-123051000D01*
X182210000Y-123091000D02*
X180129000Y-123091000D01*
X182210000Y-123131000D02*
X180140000Y-123131000D01*
X182210000Y-123171000D02*
X180152000Y-123171000D01*
X182210000Y-123211000D02*
X180164000Y-123211000D01*
X182210000Y-123251000D02*
X180176000Y-123251000D01*
X182210000Y-123291000D02*
X180189000Y-123291000D01*
X182210000Y-123331000D02*
X180203000Y-123331000D01*
X182210000Y-123371000D02*
X180217000Y-123371000D01*
X182210000Y-123411000D02*
X180232000Y-123411000D01*
X182210000Y-123451000D02*
X180248000Y-123451000D01*
X182210000Y-123491000D02*
X180264000Y-123491000D01*
X182210000Y-123531000D02*
X180280000Y-123531000D01*
X182210000Y-123571000D02*
X180298000Y-123571000D01*
X182210000Y-123611000D02*
X180316000Y-123611000D01*
X182210000Y-123651000D02*
X180334000Y-123651000D01*
X182210000Y-123691000D02*
X180354000Y-123691000D01*
X182210000Y-123731000D02*
X180374000Y-123731000D01*
X182210000Y-123771000D02*
X180394000Y-123771000D01*
X182210000Y-123811000D02*
X180416000Y-123811000D01*
X182210000Y-123851000D02*
X180438000Y-123851000D01*
X182210000Y-123891000D02*
X180460000Y-123891000D01*
X182210000Y-123931000D02*
X180484000Y-123931000D01*
X182210000Y-123971000D02*
X180508000Y-123971000D01*
X182210000Y-124011000D02*
X180534000Y-124011000D01*
X182210000Y-124051000D02*
X180560000Y-124051000D01*
X182210000Y-124091000D02*
X180586000Y-124091000D01*
X182210000Y-124131000D02*
X180614000Y-124131000D01*
X182210000Y-124171000D02*
X180643000Y-124171000D01*
X182210000Y-124211000D02*
X180672000Y-124211000D01*
X182210000Y-124251000D02*
X180702000Y-124251000D01*
X182210000Y-124291000D02*
X180734000Y-124291000D01*
X182210000Y-124331000D02*
X180766000Y-124331000D01*
X182210000Y-124371000D02*
X180800000Y-124371000D01*
X182210000Y-124411000D02*
X180834000Y-124411000D01*
X182210000Y-124451000D02*
X180870000Y-124451000D01*
X182210000Y-124491000D02*
X180907000Y-124491000D01*
X182210000Y-124531000D02*
X180945000Y-124531000D01*
X183652000Y-125491000D02*
X182848000Y-125491000D01*
X183883000Y-125451000D02*
X182617000Y-125451000D01*
X184052000Y-125411000D02*
X182448000Y-125411000D01*
X184190000Y-125371000D02*
X182310000Y-125371000D01*
X184309000Y-125331000D02*
X182191000Y-125331000D01*
X184415000Y-125291000D02*
X182085000Y-125291000D01*
X184512000Y-125251000D02*
X181988000Y-125251000D01*
X184600000Y-125211000D02*
X181900000Y-125211000D01*
X184682000Y-125171000D02*
X181818000Y-125171000D01*
X184759000Y-125131000D02*
X181741000Y-125131000D01*
X184831000Y-125091000D02*
X181669000Y-125091000D01*
X184900000Y-125051000D02*
X181600000Y-125051000D01*
X184964000Y-125011000D02*
X181536000Y-125011000D01*
X185026000Y-124971000D02*
X181474000Y-124971000D01*
X185084000Y-124931000D02*
X181416000Y-124931000D01*
X185089000Y-118749759D02*
X185089000Y-119379759D01*
X185140000Y-124891000D02*
X181360000Y-124891000D01*
X185194000Y-124851000D02*
X181306000Y-124851000D01*
X185245000Y-124811000D02*
X181255000Y-124811000D01*
X185294000Y-124771000D02*
X181206000Y-124771000D01*
X185342000Y-124731000D02*
X181158000Y-124731000D01*
X185387000Y-124691000D02*
X181113000Y-124691000D01*
X185404000Y-119064759D02*
X184774000Y-119064759D01*
X185432000Y-124651000D02*
X181068000Y-124651000D01*
X185474000Y-124611000D02*
X181026000Y-124611000D01*
X185515000Y-124571000D02*
X180985000Y-124571000D01*
X185555000Y-124531000D02*
X184290000Y-124531000D01*
X185593000Y-124491000D02*
X184290000Y-124491000D01*
X185630000Y-124451000D02*
X184290000Y-124451000D01*
X185666000Y-124411000D02*
X184290000Y-124411000D01*
X185700000Y-124371000D02*
X184290000Y-124371000D01*
X185734000Y-124331000D02*
X184290000Y-124331000D01*
X185766000Y-124291000D02*
X184290000Y-124291000D01*
X185798000Y-124251000D02*
X184290000Y-124251000D01*
X185828000Y-124211000D02*
X184290000Y-124211000D01*
X185857000Y-124171000D02*
X184290000Y-124171000D01*
X185886000Y-124131000D02*
X184290000Y-124131000D01*
X185914000Y-124091000D02*
X184290000Y-124091000D01*
X185940000Y-124051000D02*
X184290000Y-124051000D01*
X185966000Y-124011000D02*
X184290000Y-124011000D01*
X185992000Y-123971000D02*
X184290000Y-123971000D01*
X186016000Y-123931000D02*
X184290000Y-123931000D01*
X186040000Y-123891000D02*
X184290000Y-123891000D01*
X186062000Y-123851000D02*
X184290000Y-123851000D01*
X186084000Y-123811000D02*
X184290000Y-123811000D01*
X186106000Y-123771000D02*
X184290000Y-123771000D01*
X186126000Y-123731000D02*
X184290000Y-123731000D01*
X186146000Y-123691000D02*
X184290000Y-123691000D01*
X186166000Y-123651000D02*
X184290000Y-123651000D01*
X186184000Y-123611000D02*
X184290000Y-123611000D01*
X186202000Y-123571000D02*
X184290000Y-123571000D01*
X186220000Y-123531000D02*
X184290000Y-123531000D01*
X186236000Y-123491000D02*
X184290000Y-123491000D01*
X186252000Y-123451000D02*
X184290000Y-123451000D01*
X186268000Y-123411000D02*
X184290000Y-123411000D01*
X186283000Y-123371000D02*
X184290000Y-123371000D01*
X186297000Y-123331000D02*
X184290000Y-123331000D01*
X186311000Y-123291000D02*
X184290000Y-123291000D01*
X186324000Y-123251000D02*
X184290000Y-123251000D01*
X186336000Y-123211000D02*
X184290000Y-123211000D01*
X186348000Y-123171000D02*
X184290000Y-123171000D01*
X186360000Y-123131000D02*
X184290000Y-123131000D01*
X186371000Y-123091000D02*
X184290000Y-123091000D01*
X186381000Y-123051000D02*
X184290000Y-123051000D01*
X186391000Y-123011000D02*
X184290000Y-123011000D01*
X186400000Y-122971000D02*
X184290000Y-122971000D01*
X186409000Y-122930000D02*
X184290000Y-122930000D01*
X186417000Y-122890000D02*
X184290000Y-122890000D01*
X186425000Y-122850000D02*
X184290000Y-122850000D01*
X186432000Y-122810000D02*
X184290000Y-122810000D01*
X186439000Y-122770000D02*
X184290000Y-122770000D01*
X186445000Y-122730000D02*
X184290000Y-122730000D01*
X186451000Y-122690000D02*
X184290000Y-122690000D01*
X186456000Y-122650000D02*
X184290000Y-122650000D01*
X186461000Y-122610000D02*
X184290000Y-122610000D01*
X186465000Y-122570000D02*
X184290000Y-122570000D01*
X186468000Y-122530000D02*
X184290000Y-122530000D01*
X186472000Y-122490000D02*
X184290000Y-122490000D01*
X186474000Y-122450000D02*
X180026000Y-122450000D01*
X186477000Y-122410000D02*
X180023000Y-122410000D01*
X186478000Y-122370000D02*
X180022000Y-122370000D01*
X186480000Y-122250000D02*
X180020000Y-122250000D01*
X186480000Y-122290000D02*
X180020000Y-122290000D01*
X186480000Y-122330000D02*
X180020000Y-122330000D01*
X186520000Y-122250000D02*
G75*
G02*
X179980000Y-122250000I-3270000J0D01*
G01*
X179980000Y-122250000D02*
G75*
G02*
X186520000Y-122250000I3270000J0D01*
G01*
%TO.C,C24*%
X178240000Y-109140580D02*
X178240000Y-108859420D01*
X179260000Y-109140580D02*
X179260000Y-108859420D01*
%TO.C,C10*%
X164359420Y-79740000D02*
X164640580Y-79740000D01*
X164359420Y-80760000D02*
X164640580Y-80760000D01*
%TO.C,R10*%
X180237258Y-111227500D02*
X179762742Y-111227500D01*
X180237258Y-112272500D02*
X179762742Y-112272500D01*
%TO.C,C8*%
X155669000Y-74349000D02*
X155669000Y-73151000D01*
X155709000Y-74612000D02*
X155709000Y-72888000D01*
X155749000Y-74812000D02*
X155749000Y-72688000D01*
X155789000Y-74980000D02*
X155789000Y-72520000D01*
X155829000Y-75128000D02*
X155829000Y-72372000D01*
X155869000Y-75260000D02*
X155869000Y-72240000D01*
X155909000Y-75380000D02*
X155909000Y-72120000D01*
X155949000Y-75492000D02*
X155949000Y-72008000D01*
X155989000Y-75596000D02*
X155989000Y-71904000D01*
X156029000Y-75694000D02*
X156029000Y-71806000D01*
X156069000Y-75787000D02*
X156069000Y-71713000D01*
X156109000Y-75875000D02*
X156109000Y-71625000D01*
X156149000Y-75959000D02*
X156149000Y-71541000D01*
X156189000Y-76039000D02*
X156189000Y-71461000D01*
X156229000Y-76115000D02*
X156229000Y-71385000D01*
X156269000Y-76189000D02*
X156269000Y-71311000D01*
X156309000Y-76260000D02*
X156309000Y-71240000D01*
X156349000Y-76329000D02*
X156349000Y-71171000D01*
X156389000Y-76395000D02*
X156389000Y-71105000D01*
X156429000Y-76459000D02*
X156429000Y-71041000D01*
X156469000Y-76520000D02*
X156469000Y-70980000D01*
X156509000Y-76580000D02*
X156509000Y-70920000D01*
X156549000Y-76639000D02*
X156549000Y-70861000D01*
X156589000Y-76695000D02*
X156589000Y-70805000D01*
X156629000Y-76750000D02*
X156629000Y-70750000D01*
X156669000Y-76804000D02*
X156669000Y-70696000D01*
X156709000Y-76856000D02*
X156709000Y-70644000D01*
X156749000Y-76906000D02*
X156749000Y-70594000D01*
X156789000Y-76956000D02*
X156789000Y-70544000D01*
X156829000Y-77004000D02*
X156829000Y-70496000D01*
X156869000Y-77051000D02*
X156869000Y-70449000D01*
X156909000Y-77097000D02*
X156909000Y-70403000D01*
X156949000Y-77142000D02*
X156949000Y-70358000D01*
X156989000Y-77186000D02*
X156989000Y-70314000D01*
X157029000Y-72509000D02*
X157029000Y-70272000D01*
X157029000Y-77228000D02*
X157029000Y-74991000D01*
X157069000Y-72509000D02*
X157069000Y-70230000D01*
X157069000Y-77270000D02*
X157069000Y-74991000D01*
X157109000Y-72509000D02*
X157109000Y-70189000D01*
X157109000Y-77311000D02*
X157109000Y-74991000D01*
X157149000Y-72509000D02*
X157149000Y-70149000D01*
X157149000Y-77351000D02*
X157149000Y-74991000D01*
X157189000Y-72509000D02*
X157189000Y-70110000D01*
X157189000Y-77390000D02*
X157189000Y-74991000D01*
X157229000Y-72509000D02*
X157229000Y-70071000D01*
X157229000Y-77429000D02*
X157229000Y-74991000D01*
X157269000Y-72509000D02*
X157269000Y-70034000D01*
X157269000Y-77466000D02*
X157269000Y-74991000D01*
X157309000Y-72509000D02*
X157309000Y-69997000D01*
X157309000Y-77503000D02*
X157309000Y-74991000D01*
X157349000Y-72509000D02*
X157349000Y-69961000D01*
X157349000Y-77539000D02*
X157349000Y-74991000D01*
X157389000Y-72509000D02*
X157389000Y-69926000D01*
X157389000Y-77574000D02*
X157389000Y-74991000D01*
X157429000Y-72509000D02*
X157429000Y-69892000D01*
X157429000Y-77608000D02*
X157429000Y-74991000D01*
X157469000Y-72509000D02*
X157469000Y-69858000D01*
X157469000Y-77642000D02*
X157469000Y-74991000D01*
X157509000Y-72509000D02*
X157509000Y-69825000D01*
X157509000Y-77675000D02*
X157509000Y-74991000D01*
X157549000Y-72509000D02*
X157549000Y-69793000D01*
X157549000Y-77707000D02*
X157549000Y-74991000D01*
X157589000Y-72509000D02*
X157589000Y-69761000D01*
X157589000Y-77739000D02*
X157589000Y-74991000D01*
X157629000Y-72509000D02*
X157629000Y-69730000D01*
X157629000Y-77770000D02*
X157629000Y-74991000D01*
X157669000Y-72509000D02*
X157669000Y-69700000D01*
X157669000Y-77800000D02*
X157669000Y-74991000D01*
X157709000Y-72509000D02*
X157709000Y-69670000D01*
X157709000Y-77830000D02*
X157709000Y-74991000D01*
X157749000Y-72509000D02*
X157749000Y-69640000D01*
X157749000Y-77860000D02*
X157749000Y-74991000D01*
X157789000Y-72509000D02*
X157789000Y-69612000D01*
X157789000Y-77888000D02*
X157789000Y-74991000D01*
X157829000Y-72509000D02*
X157829000Y-69584000D01*
X157829000Y-77916000D02*
X157829000Y-74991000D01*
X157869000Y-72509000D02*
X157869000Y-69556000D01*
X157869000Y-77944000D02*
X157869000Y-74991000D01*
X157909000Y-72509000D02*
X157909000Y-69529000D01*
X157909000Y-77971000D02*
X157909000Y-74991000D01*
X157949000Y-72509000D02*
X157949000Y-69503000D01*
X157949000Y-77997000D02*
X157949000Y-74991000D01*
X157989000Y-72509000D02*
X157989000Y-69477000D01*
X157989000Y-78023000D02*
X157989000Y-74991000D01*
X158029000Y-72509000D02*
X158029000Y-69452000D01*
X158029000Y-78048000D02*
X158029000Y-74991000D01*
X158069000Y-72509000D02*
X158069000Y-69427000D01*
X158069000Y-78073000D02*
X158069000Y-74991000D01*
X158109000Y-72509000D02*
X158109000Y-69403000D01*
X158109000Y-78097000D02*
X158109000Y-74991000D01*
X158149000Y-72509000D02*
X158149000Y-69379000D01*
X158149000Y-78121000D02*
X158149000Y-74991000D01*
X158189000Y-72509000D02*
X158189000Y-69355000D01*
X158189000Y-78145000D02*
X158189000Y-74991000D01*
X158229000Y-72509000D02*
X158229000Y-69333000D01*
X158229000Y-78167000D02*
X158229000Y-74991000D01*
X158269000Y-72509000D02*
X158269000Y-69310000D01*
X158269000Y-78190000D02*
X158269000Y-74991000D01*
X158309000Y-72509000D02*
X158309000Y-69288000D01*
X158309000Y-78212000D02*
X158309000Y-74991000D01*
X158349000Y-72509000D02*
X158349000Y-69267000D01*
X158349000Y-78233000D02*
X158349000Y-74991000D01*
X158389000Y-72509000D02*
X158389000Y-69246000D01*
X158389000Y-78254000D02*
X158389000Y-74991000D01*
X158429000Y-72509000D02*
X158429000Y-69225000D01*
X158429000Y-78275000D02*
X158429000Y-74991000D01*
X158469000Y-72509000D02*
X158469000Y-69205000D01*
X158469000Y-78295000D02*
X158469000Y-74991000D01*
X158509000Y-72509000D02*
X158509000Y-69186000D01*
X158509000Y-78314000D02*
X158509000Y-74991000D01*
X158549000Y-72509000D02*
X158549000Y-69166000D01*
X158549000Y-78334000D02*
X158549000Y-74991000D01*
X158589000Y-72509000D02*
X158589000Y-69147000D01*
X158589000Y-78353000D02*
X158589000Y-74991000D01*
X158629000Y-72509000D02*
X158629000Y-69129000D01*
X158629000Y-78371000D02*
X158629000Y-74991000D01*
X158669000Y-72509000D02*
X158669000Y-69111000D01*
X158669000Y-78389000D02*
X158669000Y-74991000D01*
X158709000Y-72509000D02*
X158709000Y-69093000D01*
X158709000Y-78407000D02*
X158709000Y-74991000D01*
X158749000Y-72509000D02*
X158749000Y-69076000D01*
X158749000Y-78424000D02*
X158749000Y-74991000D01*
X158789000Y-72509000D02*
X158789000Y-69060000D01*
X158789000Y-78440000D02*
X158789000Y-74991000D01*
X158829000Y-72509000D02*
X158829000Y-69043000D01*
X158829000Y-78457000D02*
X158829000Y-74991000D01*
X158869000Y-72509000D02*
X158869000Y-69027000D01*
X158869000Y-78473000D02*
X158869000Y-74991000D01*
X158909000Y-72509000D02*
X158909000Y-69012000D01*
X158909000Y-78488000D02*
X158909000Y-74991000D01*
X158949000Y-72509000D02*
X158949000Y-68996000D01*
X158949000Y-78504000D02*
X158949000Y-74991000D01*
X158989000Y-72509000D02*
X158989000Y-68982000D01*
X158989000Y-78518000D02*
X158989000Y-74991000D01*
X159029000Y-72509000D02*
X159029000Y-68967000D01*
X159029000Y-78533000D02*
X159029000Y-74991000D01*
X159069000Y-72509000D02*
X159069000Y-68953000D01*
X159069000Y-78547000D02*
X159069000Y-74991000D01*
X159109000Y-72509000D02*
X159109000Y-68939000D01*
X159109000Y-78561000D02*
X159109000Y-74991000D01*
X159149000Y-72509000D02*
X159149000Y-68926000D01*
X159149000Y-78574000D02*
X159149000Y-74991000D01*
X159189000Y-72509000D02*
X159189000Y-68913000D01*
X159189000Y-78587000D02*
X159189000Y-74991000D01*
X159229000Y-72509000D02*
X159229000Y-68900000D01*
X159229000Y-78600000D02*
X159229000Y-74991000D01*
X159269000Y-72509000D02*
X159269000Y-68888000D01*
X159269000Y-78612000D02*
X159269000Y-74991000D01*
X159309000Y-72509000D02*
X159309000Y-68876000D01*
X159309000Y-78624000D02*
X159309000Y-74991000D01*
X159349000Y-72509000D02*
X159349000Y-68865000D01*
X159349000Y-78635000D02*
X159349000Y-74991000D01*
X159389000Y-72509000D02*
X159389000Y-68853000D01*
X159389000Y-78647000D02*
X159389000Y-74991000D01*
X159429000Y-72509000D02*
X159429000Y-68843000D01*
X159429000Y-78657000D02*
X159429000Y-74991000D01*
X159469000Y-72509000D02*
X159469000Y-68832000D01*
X159469000Y-78668000D02*
X159469000Y-74991000D01*
X159509000Y-78678000D02*
X159509000Y-68822000D01*
X159549000Y-78688000D02*
X159549000Y-68812000D01*
X159589000Y-78697000D02*
X159589000Y-68803000D01*
X159629000Y-78706000D02*
X159629000Y-68794000D01*
X159669000Y-78715000D02*
X159669000Y-68785000D01*
X159709000Y-78724000D02*
X159709000Y-68776000D01*
X159749000Y-78732000D02*
X159749000Y-68768000D01*
X159789000Y-78740000D02*
X159789000Y-68760000D01*
X159829000Y-78747000D02*
X159829000Y-68753000D01*
X159869000Y-78754000D02*
X159869000Y-68746000D01*
X159909000Y-78761000D02*
X159909000Y-68739000D01*
X159949000Y-78768000D02*
X159949000Y-68732000D01*
X159989000Y-78774000D02*
X159989000Y-68726000D01*
X160029000Y-78780000D02*
X160029000Y-68720000D01*
X160070000Y-78785000D02*
X160070000Y-68715000D01*
X160110000Y-78790000D02*
X160110000Y-68710000D01*
X160150000Y-78795000D02*
X160150000Y-68705000D01*
X160190000Y-78800000D02*
X160190000Y-68700000D01*
X160230000Y-78804000D02*
X160230000Y-68696000D01*
X160270000Y-78808000D02*
X160270000Y-68692000D01*
X160310000Y-78812000D02*
X160310000Y-68688000D01*
X160350000Y-78815000D02*
X160350000Y-68685000D01*
X160390000Y-78818000D02*
X160390000Y-68682000D01*
X160430000Y-78820000D02*
X160430000Y-68680000D01*
X160470000Y-78823000D02*
X160470000Y-68677000D01*
X160510000Y-78825000D02*
X160510000Y-68675000D01*
X160550000Y-78827000D02*
X160550000Y-68673000D01*
X160590000Y-78828000D02*
X160590000Y-68672000D01*
X160630000Y-78829000D02*
X160630000Y-68671000D01*
X160670000Y-78830000D02*
X160670000Y-68670000D01*
X160710000Y-78830000D02*
X160710000Y-68670000D01*
X160750000Y-78830000D02*
X160750000Y-68670000D01*
X165729646Y-77125000D02*
X165729646Y-76125000D01*
X166229646Y-76625000D02*
X165229646Y-76625000D01*
X165870000Y-73750000D02*
G75*
G02*
X155630000Y-73750000I-5120000J0D01*
G01*
X155630000Y-73750000D02*
G75*
G02*
X165870000Y-73750000I5120000J0D01*
G01*
%TO.C,C22*%
X170140580Y-105990000D02*
X169859420Y-105990000D01*
X170140580Y-107010000D02*
X169859420Y-107010000D01*
%TO.C,U2*%
X173000000Y-77740000D02*
X169950000Y-77740000D01*
X173000000Y-77740000D02*
X176050000Y-77740000D01*
X173000000Y-92260000D02*
X169950000Y-92260000D01*
X173000000Y-92260000D02*
X176050000Y-92260000D01*
X176955000Y-92379500D02*
X176595000Y-92379500D01*
X176775000Y-92127500D01*
X176955000Y-92379500D01*
G36*
X176955000Y-92379500D02*
G01*
X176595000Y-92379500D01*
X176775000Y-92127500D01*
X176955000Y-92379500D01*
G37*
%TO.C,C15*%
X165609420Y-78240000D02*
X165890580Y-78240000D01*
X165609420Y-79260000D02*
X165890580Y-79260000D01*
%TO.C,R8*%
X180512742Y-87227500D02*
X180987258Y-87227500D01*
X180512742Y-88272500D02*
X180987258Y-88272500D01*
%TO.C,C7*%
X188970354Y-70875000D02*
X189970354Y-70875000D01*
X189470354Y-70375000D02*
X189470354Y-71375000D01*
X194450000Y-68670000D02*
X194450000Y-78830000D01*
X194490000Y-68670000D02*
X194490000Y-78830000D01*
X194530000Y-68670000D02*
X194530000Y-78830000D01*
X194570000Y-68671000D02*
X194570000Y-78829000D01*
X194610000Y-68672000D02*
X194610000Y-78828000D01*
X194650000Y-68673000D02*
X194650000Y-78827000D01*
X194690000Y-68675000D02*
X194690000Y-78825000D01*
X194730000Y-68677000D02*
X194730000Y-78823000D01*
X194770000Y-68680000D02*
X194770000Y-78820000D01*
X194810000Y-68682000D02*
X194810000Y-78818000D01*
X194850000Y-68685000D02*
X194850000Y-78815000D01*
X194890000Y-68688000D02*
X194890000Y-78812000D01*
X194930000Y-68692000D02*
X194930000Y-78808000D01*
X194970000Y-68696000D02*
X194970000Y-78804000D01*
X195010000Y-68700000D02*
X195010000Y-78800000D01*
X195050000Y-68705000D02*
X195050000Y-78795000D01*
X195090000Y-68710000D02*
X195090000Y-78790000D01*
X195130000Y-68715000D02*
X195130000Y-78785000D01*
X195171000Y-68720000D02*
X195171000Y-78780000D01*
X195211000Y-68726000D02*
X195211000Y-78774000D01*
X195251000Y-68732000D02*
X195251000Y-78768000D01*
X195291000Y-68739000D02*
X195291000Y-78761000D01*
X195331000Y-68746000D02*
X195331000Y-78754000D01*
X195371000Y-68753000D02*
X195371000Y-78747000D01*
X195411000Y-68760000D02*
X195411000Y-78740000D01*
X195451000Y-68768000D02*
X195451000Y-78732000D01*
X195491000Y-68776000D02*
X195491000Y-78724000D01*
X195531000Y-68785000D02*
X195531000Y-78715000D01*
X195571000Y-68794000D02*
X195571000Y-78706000D01*
X195611000Y-68803000D02*
X195611000Y-78697000D01*
X195651000Y-68812000D02*
X195651000Y-78688000D01*
X195691000Y-68822000D02*
X195691000Y-78678000D01*
X195731000Y-68832000D02*
X195731000Y-72509000D01*
X195731000Y-74991000D02*
X195731000Y-78668000D01*
X195771000Y-68843000D02*
X195771000Y-72509000D01*
X195771000Y-74991000D02*
X195771000Y-78657000D01*
X195811000Y-68853000D02*
X195811000Y-72509000D01*
X195811000Y-74991000D02*
X195811000Y-78647000D01*
X195851000Y-68865000D02*
X195851000Y-72509000D01*
X195851000Y-74991000D02*
X195851000Y-78635000D01*
X195891000Y-68876000D02*
X195891000Y-72509000D01*
X195891000Y-74991000D02*
X195891000Y-78624000D01*
X195931000Y-68888000D02*
X195931000Y-72509000D01*
X195931000Y-74991000D02*
X195931000Y-78612000D01*
X195971000Y-68900000D02*
X195971000Y-72509000D01*
X195971000Y-74991000D02*
X195971000Y-78600000D01*
X196011000Y-68913000D02*
X196011000Y-72509000D01*
X196011000Y-74991000D02*
X196011000Y-78587000D01*
X196051000Y-68926000D02*
X196051000Y-72509000D01*
X196051000Y-74991000D02*
X196051000Y-78574000D01*
X196091000Y-68939000D02*
X196091000Y-72509000D01*
X196091000Y-74991000D02*
X196091000Y-78561000D01*
X196131000Y-68953000D02*
X196131000Y-72509000D01*
X196131000Y-74991000D02*
X196131000Y-78547000D01*
X196171000Y-68967000D02*
X196171000Y-72509000D01*
X196171000Y-74991000D02*
X196171000Y-78533000D01*
X196211000Y-68982000D02*
X196211000Y-72509000D01*
X196211000Y-74991000D02*
X196211000Y-78518000D01*
X196251000Y-68996000D02*
X196251000Y-72509000D01*
X196251000Y-74991000D02*
X196251000Y-78504000D01*
X196291000Y-69012000D02*
X196291000Y-72509000D01*
X196291000Y-74991000D02*
X196291000Y-78488000D01*
X196331000Y-69027000D02*
X196331000Y-72509000D01*
X196331000Y-74991000D02*
X196331000Y-78473000D01*
X196371000Y-69043000D02*
X196371000Y-72509000D01*
X196371000Y-74991000D02*
X196371000Y-78457000D01*
X196411000Y-69060000D02*
X196411000Y-72509000D01*
X196411000Y-74991000D02*
X196411000Y-78440000D01*
X196451000Y-69076000D02*
X196451000Y-72509000D01*
X196451000Y-74991000D02*
X196451000Y-78424000D01*
X196491000Y-69093000D02*
X196491000Y-72509000D01*
X196491000Y-74991000D02*
X196491000Y-78407000D01*
X196531000Y-69111000D02*
X196531000Y-72509000D01*
X196531000Y-74991000D02*
X196531000Y-78389000D01*
X196571000Y-69129000D02*
X196571000Y-72509000D01*
X196571000Y-74991000D02*
X196571000Y-78371000D01*
X196611000Y-69147000D02*
X196611000Y-72509000D01*
X196611000Y-74991000D02*
X196611000Y-78353000D01*
X196651000Y-69166000D02*
X196651000Y-72509000D01*
X196651000Y-74991000D02*
X196651000Y-78334000D01*
X196691000Y-69186000D02*
X196691000Y-72509000D01*
X196691000Y-74991000D02*
X196691000Y-78314000D01*
X196731000Y-69205000D02*
X196731000Y-72509000D01*
X196731000Y-74991000D02*
X196731000Y-78295000D01*
X196771000Y-69225000D02*
X196771000Y-72509000D01*
X196771000Y-74991000D02*
X196771000Y-78275000D01*
X196811000Y-69246000D02*
X196811000Y-72509000D01*
X196811000Y-74991000D02*
X196811000Y-78254000D01*
X196851000Y-69267000D02*
X196851000Y-72509000D01*
X196851000Y-74991000D02*
X196851000Y-78233000D01*
X196891000Y-69288000D02*
X196891000Y-72509000D01*
X196891000Y-74991000D02*
X196891000Y-78212000D01*
X196931000Y-69310000D02*
X196931000Y-72509000D01*
X196931000Y-74991000D02*
X196931000Y-78190000D01*
X196971000Y-69333000D02*
X196971000Y-72509000D01*
X196971000Y-74991000D02*
X196971000Y-78167000D01*
X197011000Y-69355000D02*
X197011000Y-72509000D01*
X197011000Y-74991000D02*
X197011000Y-78145000D01*
X197051000Y-69379000D02*
X197051000Y-72509000D01*
X197051000Y-74991000D02*
X197051000Y-78121000D01*
X197091000Y-69403000D02*
X197091000Y-72509000D01*
X197091000Y-74991000D02*
X197091000Y-78097000D01*
X197131000Y-69427000D02*
X197131000Y-72509000D01*
X197131000Y-74991000D02*
X197131000Y-78073000D01*
X197171000Y-69452000D02*
X197171000Y-72509000D01*
X197171000Y-74991000D02*
X197171000Y-78048000D01*
X197211000Y-69477000D02*
X197211000Y-72509000D01*
X197211000Y-74991000D02*
X197211000Y-78023000D01*
X197251000Y-69503000D02*
X197251000Y-72509000D01*
X197251000Y-74991000D02*
X197251000Y-77997000D01*
X197291000Y-69529000D02*
X197291000Y-72509000D01*
X197291000Y-74991000D02*
X197291000Y-77971000D01*
X197331000Y-69556000D02*
X197331000Y-72509000D01*
X197331000Y-74991000D02*
X197331000Y-77944000D01*
X197371000Y-69584000D02*
X197371000Y-72509000D01*
X197371000Y-74991000D02*
X197371000Y-77916000D01*
X197411000Y-69612000D02*
X197411000Y-72509000D01*
X197411000Y-74991000D02*
X197411000Y-77888000D01*
X197451000Y-69640000D02*
X197451000Y-72509000D01*
X197451000Y-74991000D02*
X197451000Y-77860000D01*
X197491000Y-69670000D02*
X197491000Y-72509000D01*
X197491000Y-74991000D02*
X197491000Y-77830000D01*
X197531000Y-69700000D02*
X197531000Y-72509000D01*
X197531000Y-74991000D02*
X197531000Y-77800000D01*
X197571000Y-69730000D02*
X197571000Y-72509000D01*
X197571000Y-74991000D02*
X197571000Y-77770000D01*
X197611000Y-69761000D02*
X197611000Y-72509000D01*
X197611000Y-74991000D02*
X197611000Y-77739000D01*
X197651000Y-69793000D02*
X197651000Y-72509000D01*
X197651000Y-74991000D02*
X197651000Y-77707000D01*
X197691000Y-69825000D02*
X197691000Y-72509000D01*
X197691000Y-74991000D02*
X197691000Y-77675000D01*
X197731000Y-69858000D02*
X197731000Y-72509000D01*
X197731000Y-74991000D02*
X197731000Y-77642000D01*
X197771000Y-69892000D02*
X197771000Y-72509000D01*
X197771000Y-74991000D02*
X197771000Y-77608000D01*
X197811000Y-69926000D02*
X197811000Y-72509000D01*
X197811000Y-74991000D02*
X197811000Y-77574000D01*
X197851000Y-69961000D02*
X197851000Y-72509000D01*
X197851000Y-74991000D02*
X197851000Y-77539000D01*
X197891000Y-69997000D02*
X197891000Y-72509000D01*
X197891000Y-74991000D02*
X197891000Y-77503000D01*
X197931000Y-70034000D02*
X197931000Y-72509000D01*
X197931000Y-74991000D02*
X197931000Y-77466000D01*
X197971000Y-70071000D02*
X197971000Y-72509000D01*
X197971000Y-74991000D02*
X197971000Y-77429000D01*
X198011000Y-70110000D02*
X198011000Y-72509000D01*
X198011000Y-74991000D02*
X198011000Y-77390000D01*
X198051000Y-70149000D02*
X198051000Y-72509000D01*
X198051000Y-74991000D02*
X198051000Y-77351000D01*
X198091000Y-70189000D02*
X198091000Y-72509000D01*
X198091000Y-74991000D02*
X198091000Y-77311000D01*
X198131000Y-70230000D02*
X198131000Y-72509000D01*
X198131000Y-74991000D02*
X198131000Y-77270000D01*
X198171000Y-70272000D02*
X198171000Y-72509000D01*
X198171000Y-74991000D02*
X198171000Y-77228000D01*
X198211000Y-70314000D02*
X198211000Y-77186000D01*
X198251000Y-70358000D02*
X198251000Y-77142000D01*
X198291000Y-70403000D02*
X198291000Y-77097000D01*
X198331000Y-70449000D02*
X198331000Y-77051000D01*
X198371000Y-70496000D02*
X198371000Y-77004000D01*
X198411000Y-70544000D02*
X198411000Y-76956000D01*
X198451000Y-70594000D02*
X198451000Y-76906000D01*
X198491000Y-70644000D02*
X198491000Y-76856000D01*
X198531000Y-70696000D02*
X198531000Y-76804000D01*
X198571000Y-70750000D02*
X198571000Y-76750000D01*
X198611000Y-70805000D02*
X198611000Y-76695000D01*
X198651000Y-70861000D02*
X198651000Y-76639000D01*
X198691000Y-70920000D02*
X198691000Y-76580000D01*
X198731000Y-70980000D02*
X198731000Y-76520000D01*
X198771000Y-71041000D02*
X198771000Y-76459000D01*
X198811000Y-71105000D02*
X198811000Y-76395000D01*
X198851000Y-71171000D02*
X198851000Y-76329000D01*
X198891000Y-71240000D02*
X198891000Y-76260000D01*
X198931000Y-71311000D02*
X198931000Y-76189000D01*
X198971000Y-71385000D02*
X198971000Y-76115000D01*
X199011000Y-71461000D02*
X199011000Y-76039000D01*
X199051000Y-71541000D02*
X199051000Y-75959000D01*
X199091000Y-71625000D02*
X199091000Y-75875000D01*
X199131000Y-71713000D02*
X199131000Y-75787000D01*
X199171000Y-71806000D02*
X199171000Y-75694000D01*
X199211000Y-71904000D02*
X199211000Y-75596000D01*
X199251000Y-72008000D02*
X199251000Y-75492000D01*
X199291000Y-72120000D02*
X199291000Y-75380000D01*
X199331000Y-72240000D02*
X199331000Y-75260000D01*
X199371000Y-72372000D02*
X199371000Y-75128000D01*
X199411000Y-72520000D02*
X199411000Y-74980000D01*
X199451000Y-72688000D02*
X199451000Y-74812000D01*
X199491000Y-72888000D02*
X199491000Y-74612000D01*
X199531000Y-73151000D02*
X199531000Y-74349000D01*
X199570000Y-73750000D02*
G75*
G02*
X189330000Y-73750000I-5120000J0D01*
G01*
X189330000Y-73750000D02*
G75*
G02*
X199570000Y-73750000I5120000J0D01*
G01*
%TO.C,C16*%
X160859420Y-83990000D02*
X161140580Y-83990000D01*
X160859420Y-85010000D02*
X161140580Y-85010000D01*
%TO.C,C5*%
X175859420Y-92990000D02*
X176140580Y-92990000D01*
X175859420Y-94010000D02*
X176140580Y-94010000D01*
%TO.C,C6*%
X170140580Y-92990000D02*
X169859420Y-92990000D01*
X170140580Y-94010000D02*
X169859420Y-94010000D01*
%TO.C,R1*%
X170237258Y-68977500D02*
X169762742Y-68977500D01*
X170237258Y-70022500D02*
X169762742Y-70022500D01*
%TO.C,C2*%
X182210000Y-92740000D02*
X180028000Y-92740000D01*
X182210000Y-92780000D02*
X180032000Y-92780000D01*
X182210000Y-92820000D02*
X180035000Y-92820000D01*
X182210000Y-92860000D02*
X180039000Y-92860000D01*
X182210000Y-92900000D02*
X180044000Y-92900000D01*
X182210000Y-92940000D02*
X180049000Y-92940000D01*
X182210000Y-92980000D02*
X180055000Y-92980000D01*
X182210000Y-93020000D02*
X180061000Y-93020000D01*
X182210000Y-93060000D02*
X180068000Y-93060000D01*
X182210000Y-93100000D02*
X180075000Y-93100000D01*
X182210000Y-93140000D02*
X180083000Y-93140000D01*
X182210000Y-93180000D02*
X180091000Y-93180000D01*
X182210000Y-93221000D02*
X180100000Y-93221000D01*
X182210000Y-93261000D02*
X180109000Y-93261000D01*
X182210000Y-93301000D02*
X180119000Y-93301000D01*
X182210000Y-93341000D02*
X180129000Y-93341000D01*
X182210000Y-93381000D02*
X180140000Y-93381000D01*
X182210000Y-93421000D02*
X180152000Y-93421000D01*
X182210000Y-93461000D02*
X180164000Y-93461000D01*
X182210000Y-93501000D02*
X180176000Y-93501000D01*
X182210000Y-93541000D02*
X180189000Y-93541000D01*
X182210000Y-93581000D02*
X180203000Y-93581000D01*
X182210000Y-93621000D02*
X180217000Y-93621000D01*
X182210000Y-93661000D02*
X180232000Y-93661000D01*
X182210000Y-93701000D02*
X180248000Y-93701000D01*
X182210000Y-93741000D02*
X180264000Y-93741000D01*
X182210000Y-93781000D02*
X180280000Y-93781000D01*
X182210000Y-93821000D02*
X180298000Y-93821000D01*
X182210000Y-93861000D02*
X180316000Y-93861000D01*
X182210000Y-93901000D02*
X180334000Y-93901000D01*
X182210000Y-93941000D02*
X180354000Y-93941000D01*
X182210000Y-93981000D02*
X180374000Y-93981000D01*
X182210000Y-94021000D02*
X180394000Y-94021000D01*
X182210000Y-94061000D02*
X180416000Y-94061000D01*
X182210000Y-94101000D02*
X180438000Y-94101000D01*
X182210000Y-94141000D02*
X180460000Y-94141000D01*
X182210000Y-94181000D02*
X180484000Y-94181000D01*
X182210000Y-94221000D02*
X180508000Y-94221000D01*
X182210000Y-94261000D02*
X180534000Y-94261000D01*
X182210000Y-94301000D02*
X180560000Y-94301000D01*
X182210000Y-94341000D02*
X180586000Y-94341000D01*
X182210000Y-94381000D02*
X180614000Y-94381000D01*
X182210000Y-94421000D02*
X180643000Y-94421000D01*
X182210000Y-94461000D02*
X180672000Y-94461000D01*
X182210000Y-94501000D02*
X180702000Y-94501000D01*
X182210000Y-94541000D02*
X180734000Y-94541000D01*
X182210000Y-94581000D02*
X180766000Y-94581000D01*
X182210000Y-94621000D02*
X180800000Y-94621000D01*
X182210000Y-94661000D02*
X180834000Y-94661000D01*
X182210000Y-94701000D02*
X180870000Y-94701000D01*
X182210000Y-94741000D02*
X180907000Y-94741000D01*
X182210000Y-94781000D02*
X180945000Y-94781000D01*
X183652000Y-95741000D02*
X182848000Y-95741000D01*
X183883000Y-95701000D02*
X182617000Y-95701000D01*
X184052000Y-95661000D02*
X182448000Y-95661000D01*
X184190000Y-95621000D02*
X182310000Y-95621000D01*
X184309000Y-95581000D02*
X182191000Y-95581000D01*
X184415000Y-95541000D02*
X182085000Y-95541000D01*
X184512000Y-95501000D02*
X181988000Y-95501000D01*
X184600000Y-95461000D02*
X181900000Y-95461000D01*
X184682000Y-95421000D02*
X181818000Y-95421000D01*
X184759000Y-95381000D02*
X181741000Y-95381000D01*
X184831000Y-95341000D02*
X181669000Y-95341000D01*
X184900000Y-95301000D02*
X181600000Y-95301000D01*
X184964000Y-95261000D02*
X181536000Y-95261000D01*
X185026000Y-95221000D02*
X181474000Y-95221000D01*
X185084000Y-95181000D02*
X181416000Y-95181000D01*
X185089000Y-88999759D02*
X185089000Y-89629759D01*
X185140000Y-95141000D02*
X181360000Y-95141000D01*
X185194000Y-95101000D02*
X181306000Y-95101000D01*
X185245000Y-95061000D02*
X181255000Y-95061000D01*
X185294000Y-95021000D02*
X181206000Y-95021000D01*
X185342000Y-94981000D02*
X181158000Y-94981000D01*
X185387000Y-94941000D02*
X181113000Y-94941000D01*
X185404000Y-89314759D02*
X184774000Y-89314759D01*
X185432000Y-94901000D02*
X181068000Y-94901000D01*
X185474000Y-94861000D02*
X181026000Y-94861000D01*
X185515000Y-94821000D02*
X180985000Y-94821000D01*
X185555000Y-94781000D02*
X184290000Y-94781000D01*
X185593000Y-94741000D02*
X184290000Y-94741000D01*
X185630000Y-94701000D02*
X184290000Y-94701000D01*
X185666000Y-94661000D02*
X184290000Y-94661000D01*
X185700000Y-94621000D02*
X184290000Y-94621000D01*
X185734000Y-94581000D02*
X184290000Y-94581000D01*
X185766000Y-94541000D02*
X184290000Y-94541000D01*
X185798000Y-94501000D02*
X184290000Y-94501000D01*
X185828000Y-94461000D02*
X184290000Y-94461000D01*
X185857000Y-94421000D02*
X184290000Y-94421000D01*
X185886000Y-94381000D02*
X184290000Y-94381000D01*
X185914000Y-94341000D02*
X184290000Y-94341000D01*
X185940000Y-94301000D02*
X184290000Y-94301000D01*
X185966000Y-94261000D02*
X184290000Y-94261000D01*
X185992000Y-94221000D02*
X184290000Y-94221000D01*
X186016000Y-94181000D02*
X184290000Y-94181000D01*
X186040000Y-94141000D02*
X184290000Y-94141000D01*
X186062000Y-94101000D02*
X184290000Y-94101000D01*
X186084000Y-94061000D02*
X184290000Y-94061000D01*
X186106000Y-94021000D02*
X184290000Y-94021000D01*
X186126000Y-93981000D02*
X184290000Y-93981000D01*
X186146000Y-93941000D02*
X184290000Y-93941000D01*
X186166000Y-93901000D02*
X184290000Y-93901000D01*
X186184000Y-93861000D02*
X184290000Y-93861000D01*
X186202000Y-93821000D02*
X184290000Y-93821000D01*
X186220000Y-93781000D02*
X184290000Y-93781000D01*
X186236000Y-93741000D02*
X184290000Y-93741000D01*
X186252000Y-93701000D02*
X184290000Y-93701000D01*
X186268000Y-93661000D02*
X184290000Y-93661000D01*
X186283000Y-93621000D02*
X184290000Y-93621000D01*
X186297000Y-93581000D02*
X184290000Y-93581000D01*
X186311000Y-93541000D02*
X184290000Y-93541000D01*
X186324000Y-93501000D02*
X184290000Y-93501000D01*
X186336000Y-93461000D02*
X184290000Y-93461000D01*
X186348000Y-93421000D02*
X184290000Y-93421000D01*
X186360000Y-93381000D02*
X184290000Y-93381000D01*
X186371000Y-93341000D02*
X184290000Y-93341000D01*
X186381000Y-93301000D02*
X184290000Y-93301000D01*
X186391000Y-93261000D02*
X184290000Y-93261000D01*
X186400000Y-93221000D02*
X184290000Y-93221000D01*
X186409000Y-93180000D02*
X184290000Y-93180000D01*
X186417000Y-93140000D02*
X184290000Y-93140000D01*
X186425000Y-93100000D02*
X184290000Y-93100000D01*
X186432000Y-93060000D02*
X184290000Y-93060000D01*
X186439000Y-93020000D02*
X184290000Y-93020000D01*
X186445000Y-92980000D02*
X184290000Y-92980000D01*
X186451000Y-92940000D02*
X184290000Y-92940000D01*
X186456000Y-92900000D02*
X184290000Y-92900000D01*
X186461000Y-92860000D02*
X184290000Y-92860000D01*
X186465000Y-92820000D02*
X184290000Y-92820000D01*
X186468000Y-92780000D02*
X184290000Y-92780000D01*
X186472000Y-92740000D02*
X184290000Y-92740000D01*
X186474000Y-92700000D02*
X180026000Y-92700000D01*
X186477000Y-92660000D02*
X180023000Y-92660000D01*
X186478000Y-92620000D02*
X180022000Y-92620000D01*
X186480000Y-92500000D02*
X180020000Y-92500000D01*
X186480000Y-92540000D02*
X180020000Y-92540000D01*
X186480000Y-92580000D02*
X180020000Y-92580000D01*
X186520000Y-92500000D02*
G75*
G02*
X179980000Y-92500000I-3270000J0D01*
G01*
X179980000Y-92500000D02*
G75*
G02*
X186520000Y-92500000I3270000J0D01*
G01*
%TO.C,U1*%
X173000000Y-107740000D02*
X169950000Y-107740000D01*
X173000000Y-107740000D02*
X176050000Y-107740000D01*
X173000000Y-122260000D02*
X169950000Y-122260000D01*
X173000000Y-122260000D02*
X176050000Y-122260000D01*
X176955000Y-122379500D02*
X176595000Y-122379500D01*
X176775000Y-122127500D01*
X176955000Y-122379500D01*
G36*
X176955000Y-122379500D02*
G01*
X176595000Y-122379500D01*
X176775000Y-122127500D01*
X176955000Y-122379500D01*
G37*
%TO.C,C3*%
X178240000Y-79140580D02*
X178240000Y-78859420D01*
X179260000Y-79140580D02*
X179260000Y-78859420D01*
%TO.C,C31*%
X165609420Y-107990000D02*
X165890580Y-107990000D01*
X165609420Y-109010000D02*
X165890580Y-109010000D01*
%TO.C,C32*%
X160859420Y-112740000D02*
X161140580Y-112740000D01*
X160859420Y-113760000D02*
X161140580Y-113760000D01*
%TO.C,C1*%
X178240000Y-90609420D02*
X178240000Y-90890580D01*
X179260000Y-90609420D02*
X179260000Y-90890580D01*
%TO.C,R5*%
X179762742Y-114227500D02*
X180237258Y-114227500D01*
X179762742Y-115272500D02*
X180237258Y-115272500D01*
%TO.C,R6*%
X170237258Y-129977500D02*
X169762742Y-129977500D01*
X170237258Y-131022500D02*
X169762742Y-131022500D01*
%TO.C,C18*%
X165609420Y-92490000D02*
X165890580Y-92490000D01*
X165609420Y-93510000D02*
X165890580Y-93510000D01*
%TO.C,C34*%
X166359420Y-121490000D02*
X166640580Y-121490000D01*
X166359420Y-122510000D02*
X166640580Y-122510000D01*
%TO.C,C25*%
X175859420Y-122990000D02*
X176140580Y-122990000D01*
X175859420Y-124010000D02*
X176140580Y-124010000D01*
%TO.C,C26*%
X170390580Y-122990000D02*
X170109420Y-122990000D01*
X170390580Y-124010000D02*
X170109420Y-124010000D01*
%TO.C,C36*%
X155669000Y-126849000D02*
X155669000Y-125651000D01*
X155709000Y-127112000D02*
X155709000Y-125388000D01*
X155749000Y-127312000D02*
X155749000Y-125188000D01*
X155789000Y-127480000D02*
X155789000Y-125020000D01*
X155829000Y-127628000D02*
X155829000Y-124872000D01*
X155869000Y-127760000D02*
X155869000Y-124740000D01*
X155909000Y-127880000D02*
X155909000Y-124620000D01*
X155949000Y-127992000D02*
X155949000Y-124508000D01*
X155989000Y-128096000D02*
X155989000Y-124404000D01*
X156029000Y-128194000D02*
X156029000Y-124306000D01*
X156069000Y-128287000D02*
X156069000Y-124213000D01*
X156109000Y-128375000D02*
X156109000Y-124125000D01*
X156149000Y-128459000D02*
X156149000Y-124041000D01*
X156189000Y-128539000D02*
X156189000Y-123961000D01*
X156229000Y-128615000D02*
X156229000Y-123885000D01*
X156269000Y-128689000D02*
X156269000Y-123811000D01*
X156309000Y-128760000D02*
X156309000Y-123740000D01*
X156349000Y-128829000D02*
X156349000Y-123671000D01*
X156389000Y-128895000D02*
X156389000Y-123605000D01*
X156429000Y-128959000D02*
X156429000Y-123541000D01*
X156469000Y-129020000D02*
X156469000Y-123480000D01*
X156509000Y-129080000D02*
X156509000Y-123420000D01*
X156549000Y-129139000D02*
X156549000Y-123361000D01*
X156589000Y-129195000D02*
X156589000Y-123305000D01*
X156629000Y-129250000D02*
X156629000Y-123250000D01*
X156669000Y-129304000D02*
X156669000Y-123196000D01*
X156709000Y-129356000D02*
X156709000Y-123144000D01*
X156749000Y-129406000D02*
X156749000Y-123094000D01*
X156789000Y-129456000D02*
X156789000Y-123044000D01*
X156829000Y-129504000D02*
X156829000Y-122996000D01*
X156869000Y-129551000D02*
X156869000Y-122949000D01*
X156909000Y-129597000D02*
X156909000Y-122903000D01*
X156949000Y-129642000D02*
X156949000Y-122858000D01*
X156989000Y-129686000D02*
X156989000Y-122814000D01*
X157029000Y-125009000D02*
X157029000Y-122772000D01*
X157029000Y-129728000D02*
X157029000Y-127491000D01*
X157069000Y-125009000D02*
X157069000Y-122730000D01*
X157069000Y-129770000D02*
X157069000Y-127491000D01*
X157109000Y-125009000D02*
X157109000Y-122689000D01*
X157109000Y-129811000D02*
X157109000Y-127491000D01*
X157149000Y-125009000D02*
X157149000Y-122649000D01*
X157149000Y-129851000D02*
X157149000Y-127491000D01*
X157189000Y-125009000D02*
X157189000Y-122610000D01*
X157189000Y-129890000D02*
X157189000Y-127491000D01*
X157229000Y-125009000D02*
X157229000Y-122571000D01*
X157229000Y-129929000D02*
X157229000Y-127491000D01*
X157269000Y-125009000D02*
X157269000Y-122534000D01*
X157269000Y-129966000D02*
X157269000Y-127491000D01*
X157309000Y-125009000D02*
X157309000Y-122497000D01*
X157309000Y-130003000D02*
X157309000Y-127491000D01*
X157349000Y-125009000D02*
X157349000Y-122461000D01*
X157349000Y-130039000D02*
X157349000Y-127491000D01*
X157389000Y-125009000D02*
X157389000Y-122426000D01*
X157389000Y-130074000D02*
X157389000Y-127491000D01*
X157429000Y-125009000D02*
X157429000Y-122392000D01*
X157429000Y-130108000D02*
X157429000Y-127491000D01*
X157469000Y-125009000D02*
X157469000Y-122358000D01*
X157469000Y-130142000D02*
X157469000Y-127491000D01*
X157509000Y-125009000D02*
X157509000Y-122325000D01*
X157509000Y-130175000D02*
X157509000Y-127491000D01*
X157549000Y-125009000D02*
X157549000Y-122293000D01*
X157549000Y-130207000D02*
X157549000Y-127491000D01*
X157589000Y-125009000D02*
X157589000Y-122261000D01*
X157589000Y-130239000D02*
X157589000Y-127491000D01*
X157629000Y-125009000D02*
X157629000Y-122230000D01*
X157629000Y-130270000D02*
X157629000Y-127491000D01*
X157669000Y-125009000D02*
X157669000Y-122200000D01*
X157669000Y-130300000D02*
X157669000Y-127491000D01*
X157709000Y-125009000D02*
X157709000Y-122170000D01*
X157709000Y-130330000D02*
X157709000Y-127491000D01*
X157749000Y-125009000D02*
X157749000Y-122140000D01*
X157749000Y-130360000D02*
X157749000Y-127491000D01*
X157789000Y-125009000D02*
X157789000Y-122112000D01*
X157789000Y-130388000D02*
X157789000Y-127491000D01*
X157829000Y-125009000D02*
X157829000Y-122084000D01*
X157829000Y-130416000D02*
X157829000Y-127491000D01*
X157869000Y-125009000D02*
X157869000Y-122056000D01*
X157869000Y-130444000D02*
X157869000Y-127491000D01*
X157909000Y-125009000D02*
X157909000Y-122029000D01*
X157909000Y-130471000D02*
X157909000Y-127491000D01*
X157949000Y-125009000D02*
X157949000Y-122003000D01*
X157949000Y-130497000D02*
X157949000Y-127491000D01*
X157989000Y-125009000D02*
X157989000Y-121977000D01*
X157989000Y-130523000D02*
X157989000Y-127491000D01*
X158029000Y-125009000D02*
X158029000Y-121952000D01*
X158029000Y-130548000D02*
X158029000Y-127491000D01*
X158069000Y-125009000D02*
X158069000Y-121927000D01*
X158069000Y-130573000D02*
X158069000Y-127491000D01*
X158109000Y-125009000D02*
X158109000Y-121903000D01*
X158109000Y-130597000D02*
X158109000Y-127491000D01*
X158149000Y-125009000D02*
X158149000Y-121879000D01*
X158149000Y-130621000D02*
X158149000Y-127491000D01*
X158189000Y-125009000D02*
X158189000Y-121855000D01*
X158189000Y-130645000D02*
X158189000Y-127491000D01*
X158229000Y-125009000D02*
X158229000Y-121833000D01*
X158229000Y-130667000D02*
X158229000Y-127491000D01*
X158269000Y-125009000D02*
X158269000Y-121810000D01*
X158269000Y-130690000D02*
X158269000Y-127491000D01*
X158309000Y-125009000D02*
X158309000Y-121788000D01*
X158309000Y-130712000D02*
X158309000Y-127491000D01*
X158349000Y-125009000D02*
X158349000Y-121767000D01*
X158349000Y-130733000D02*
X158349000Y-127491000D01*
X158389000Y-125009000D02*
X158389000Y-121746000D01*
X158389000Y-130754000D02*
X158389000Y-127491000D01*
X158429000Y-125009000D02*
X158429000Y-121725000D01*
X158429000Y-130775000D02*
X158429000Y-127491000D01*
X158469000Y-125009000D02*
X158469000Y-121705000D01*
X158469000Y-130795000D02*
X158469000Y-127491000D01*
X158509000Y-125009000D02*
X158509000Y-121686000D01*
X158509000Y-130814000D02*
X158509000Y-127491000D01*
X158549000Y-125009000D02*
X158549000Y-121666000D01*
X158549000Y-130834000D02*
X158549000Y-127491000D01*
X158589000Y-125009000D02*
X158589000Y-121647000D01*
X158589000Y-130853000D02*
X158589000Y-127491000D01*
X158629000Y-125009000D02*
X158629000Y-121629000D01*
X158629000Y-130871000D02*
X158629000Y-127491000D01*
X158669000Y-125009000D02*
X158669000Y-121611000D01*
X158669000Y-130889000D02*
X158669000Y-127491000D01*
X158709000Y-125009000D02*
X158709000Y-121593000D01*
X158709000Y-130907000D02*
X158709000Y-127491000D01*
X158749000Y-125009000D02*
X158749000Y-121576000D01*
X158749000Y-130924000D02*
X158749000Y-127491000D01*
X158789000Y-125009000D02*
X158789000Y-121560000D01*
X158789000Y-130940000D02*
X158789000Y-127491000D01*
X158829000Y-125009000D02*
X158829000Y-121543000D01*
X158829000Y-130957000D02*
X158829000Y-127491000D01*
X158869000Y-125009000D02*
X158869000Y-121527000D01*
X158869000Y-130973000D02*
X158869000Y-127491000D01*
X158909000Y-125009000D02*
X158909000Y-121512000D01*
X158909000Y-130988000D02*
X158909000Y-127491000D01*
X158949000Y-125009000D02*
X158949000Y-121496000D01*
X158949000Y-131004000D02*
X158949000Y-127491000D01*
X158989000Y-125009000D02*
X158989000Y-121482000D01*
X158989000Y-131018000D02*
X158989000Y-127491000D01*
X159029000Y-125009000D02*
X159029000Y-121467000D01*
X159029000Y-131033000D02*
X159029000Y-127491000D01*
X159069000Y-125009000D02*
X159069000Y-121453000D01*
X159069000Y-131047000D02*
X159069000Y-127491000D01*
X159109000Y-125009000D02*
X159109000Y-121439000D01*
X159109000Y-131061000D02*
X159109000Y-127491000D01*
X159149000Y-125009000D02*
X159149000Y-121426000D01*
X159149000Y-131074000D02*
X159149000Y-127491000D01*
X159189000Y-125009000D02*
X159189000Y-121413000D01*
X159189000Y-131087000D02*
X159189000Y-127491000D01*
X159229000Y-125009000D02*
X159229000Y-121400000D01*
X159229000Y-131100000D02*
X159229000Y-127491000D01*
X159269000Y-125009000D02*
X159269000Y-121388000D01*
X159269000Y-131112000D02*
X159269000Y-127491000D01*
X159309000Y-125009000D02*
X159309000Y-121376000D01*
X159309000Y-131124000D02*
X159309000Y-127491000D01*
X159349000Y-125009000D02*
X159349000Y-121365000D01*
X159349000Y-131135000D02*
X159349000Y-127491000D01*
X159389000Y-125009000D02*
X159389000Y-121353000D01*
X159389000Y-131147000D02*
X159389000Y-127491000D01*
X159429000Y-125009000D02*
X159429000Y-121343000D01*
X159429000Y-131157000D02*
X159429000Y-127491000D01*
X159469000Y-125009000D02*
X159469000Y-121332000D01*
X159469000Y-131168000D02*
X159469000Y-127491000D01*
X159509000Y-131178000D02*
X159509000Y-121322000D01*
X159549000Y-131188000D02*
X159549000Y-121312000D01*
X159589000Y-131197000D02*
X159589000Y-121303000D01*
X159629000Y-131206000D02*
X159629000Y-121294000D01*
X159669000Y-131215000D02*
X159669000Y-121285000D01*
X159709000Y-131224000D02*
X159709000Y-121276000D01*
X159749000Y-131232000D02*
X159749000Y-121268000D01*
X159789000Y-131240000D02*
X159789000Y-121260000D01*
X159829000Y-131247000D02*
X159829000Y-121253000D01*
X159869000Y-131254000D02*
X159869000Y-121246000D01*
X159909000Y-131261000D02*
X159909000Y-121239000D01*
X159949000Y-131268000D02*
X159949000Y-121232000D01*
X159989000Y-131274000D02*
X159989000Y-121226000D01*
X160029000Y-131280000D02*
X160029000Y-121220000D01*
X160070000Y-131285000D02*
X160070000Y-121215000D01*
X160110000Y-131290000D02*
X160110000Y-121210000D01*
X160150000Y-131295000D02*
X160150000Y-121205000D01*
X160190000Y-131300000D02*
X160190000Y-121200000D01*
X160230000Y-131304000D02*
X160230000Y-121196000D01*
X160270000Y-131308000D02*
X160270000Y-121192000D01*
X160310000Y-131312000D02*
X160310000Y-121188000D01*
X160350000Y-131315000D02*
X160350000Y-121185000D01*
X160390000Y-131318000D02*
X160390000Y-121182000D01*
X160430000Y-131320000D02*
X160430000Y-121180000D01*
X160470000Y-131323000D02*
X160470000Y-121177000D01*
X160510000Y-131325000D02*
X160510000Y-121175000D01*
X160550000Y-131327000D02*
X160550000Y-121173000D01*
X160590000Y-131328000D02*
X160590000Y-121172000D01*
X160630000Y-131329000D02*
X160630000Y-121171000D01*
X160670000Y-131330000D02*
X160670000Y-121170000D01*
X160710000Y-131330000D02*
X160710000Y-121170000D01*
X160750000Y-131330000D02*
X160750000Y-121170000D01*
X165729646Y-129625000D02*
X165729646Y-128625000D01*
X166229646Y-129125000D02*
X165229646Y-129125000D01*
X165870000Y-126250000D02*
G75*
G02*
X155630000Y-126250000I-5120000J0D01*
G01*
X155630000Y-126250000D02*
G75*
G02*
X165870000Y-126250000I5120000J0D01*
G01*
%TO.C,R9*%
X180512742Y-117227500D02*
X180987258Y-117227500D01*
X180512742Y-118272500D02*
X180987258Y-118272500D01*
%TO.C,R2*%
X180237258Y-82977500D02*
X179762742Y-82977500D01*
X180237258Y-84022500D02*
X179762742Y-84022500D01*
%TO.C,C20*%
X178240000Y-120609420D02*
X178240000Y-120890580D01*
X179260000Y-120609420D02*
X179260000Y-120890580D01*
%TO.C,R3*%
X179762742Y-84477500D02*
X180237258Y-84477500D01*
X179762742Y-85522500D02*
X180237258Y-85522500D01*
%TO.C,C30*%
X164359420Y-118617500D02*
X164640580Y-118617500D01*
X164359420Y-119637500D02*
X164640580Y-119637500D01*
%TO.C,C4*%
X170140580Y-75990000D02*
X169859420Y-75990000D01*
X170140580Y-77010000D02*
X169859420Y-77010000D01*
%TO.C,C12*%
X164640580Y-89240000D02*
X164359420Y-89240000D01*
X164640580Y-90260000D02*
X164359420Y-90260000D01*
%TO.C,C21*%
X188970354Y-123375000D02*
X189970354Y-123375000D01*
X189470354Y-122875000D02*
X189470354Y-123875000D01*
X194450000Y-121170000D02*
X194450000Y-131330000D01*
X194490000Y-121170000D02*
X194490000Y-131330000D01*
X194530000Y-121170000D02*
X194530000Y-131330000D01*
X194570000Y-121171000D02*
X194570000Y-131329000D01*
X194610000Y-121172000D02*
X194610000Y-131328000D01*
X194650000Y-121173000D02*
X194650000Y-131327000D01*
X194690000Y-121175000D02*
X194690000Y-131325000D01*
X194730000Y-121177000D02*
X194730000Y-131323000D01*
X194770000Y-121180000D02*
X194770000Y-131320000D01*
X194810000Y-121182000D02*
X194810000Y-131318000D01*
X194850000Y-121185000D02*
X194850000Y-131315000D01*
X194890000Y-121188000D02*
X194890000Y-131312000D01*
X194930000Y-121192000D02*
X194930000Y-131308000D01*
X194970000Y-121196000D02*
X194970000Y-131304000D01*
X195010000Y-121200000D02*
X195010000Y-131300000D01*
X195050000Y-121205000D02*
X195050000Y-131295000D01*
X195090000Y-121210000D02*
X195090000Y-131290000D01*
X195130000Y-121215000D02*
X195130000Y-131285000D01*
X195171000Y-121220000D02*
X195171000Y-131280000D01*
X195211000Y-121226000D02*
X195211000Y-131274000D01*
X195251000Y-121232000D02*
X195251000Y-131268000D01*
X195291000Y-121239000D02*
X195291000Y-131261000D01*
X195331000Y-121246000D02*
X195331000Y-131254000D01*
X195371000Y-121253000D02*
X195371000Y-131247000D01*
X195411000Y-121260000D02*
X195411000Y-131240000D01*
X195451000Y-121268000D02*
X195451000Y-131232000D01*
X195491000Y-121276000D02*
X195491000Y-131224000D01*
X195531000Y-121285000D02*
X195531000Y-131215000D01*
X195571000Y-121294000D02*
X195571000Y-131206000D01*
X195611000Y-121303000D02*
X195611000Y-131197000D01*
X195651000Y-121312000D02*
X195651000Y-131188000D01*
X195691000Y-121322000D02*
X195691000Y-131178000D01*
X195731000Y-121332000D02*
X195731000Y-125009000D01*
X195731000Y-127491000D02*
X195731000Y-131168000D01*
X195771000Y-121343000D02*
X195771000Y-125009000D01*
X195771000Y-127491000D02*
X195771000Y-131157000D01*
X195811000Y-121353000D02*
X195811000Y-125009000D01*
X195811000Y-127491000D02*
X195811000Y-131147000D01*
X195851000Y-121365000D02*
X195851000Y-125009000D01*
X195851000Y-127491000D02*
X195851000Y-131135000D01*
X195891000Y-121376000D02*
X195891000Y-125009000D01*
X195891000Y-127491000D02*
X195891000Y-131124000D01*
X195931000Y-121388000D02*
X195931000Y-125009000D01*
X195931000Y-127491000D02*
X195931000Y-131112000D01*
X195971000Y-121400000D02*
X195971000Y-125009000D01*
X195971000Y-127491000D02*
X195971000Y-131100000D01*
X196011000Y-121413000D02*
X196011000Y-125009000D01*
X196011000Y-127491000D02*
X196011000Y-131087000D01*
X196051000Y-121426000D02*
X196051000Y-125009000D01*
X196051000Y-127491000D02*
X196051000Y-131074000D01*
X196091000Y-121439000D02*
X196091000Y-125009000D01*
X196091000Y-127491000D02*
X196091000Y-131061000D01*
X196131000Y-121453000D02*
X196131000Y-125009000D01*
X196131000Y-127491000D02*
X196131000Y-131047000D01*
X196171000Y-121467000D02*
X196171000Y-125009000D01*
X196171000Y-127491000D02*
X196171000Y-131033000D01*
X196211000Y-121482000D02*
X196211000Y-125009000D01*
X196211000Y-127491000D02*
X196211000Y-131018000D01*
X196251000Y-121496000D02*
X196251000Y-125009000D01*
X196251000Y-127491000D02*
X196251000Y-131004000D01*
X196291000Y-121512000D02*
X196291000Y-125009000D01*
X196291000Y-127491000D02*
X196291000Y-130988000D01*
X196331000Y-121527000D02*
X196331000Y-125009000D01*
X196331000Y-127491000D02*
X196331000Y-130973000D01*
X196371000Y-121543000D02*
X196371000Y-125009000D01*
X196371000Y-127491000D02*
X196371000Y-130957000D01*
X196411000Y-121560000D02*
X196411000Y-125009000D01*
X196411000Y-127491000D02*
X196411000Y-130940000D01*
X196451000Y-121576000D02*
X196451000Y-125009000D01*
X196451000Y-127491000D02*
X196451000Y-130924000D01*
X196491000Y-121593000D02*
X196491000Y-125009000D01*
X196491000Y-127491000D02*
X196491000Y-130907000D01*
X196531000Y-121611000D02*
X196531000Y-125009000D01*
X196531000Y-127491000D02*
X196531000Y-130889000D01*
X196571000Y-121629000D02*
X196571000Y-125009000D01*
X196571000Y-127491000D02*
X196571000Y-130871000D01*
X196611000Y-121647000D02*
X196611000Y-125009000D01*
X196611000Y-127491000D02*
X196611000Y-130853000D01*
X196651000Y-121666000D02*
X196651000Y-125009000D01*
X196651000Y-127491000D02*
X196651000Y-130834000D01*
X196691000Y-121686000D02*
X196691000Y-125009000D01*
X196691000Y-127491000D02*
X196691000Y-130814000D01*
X196731000Y-121705000D02*
X196731000Y-125009000D01*
X196731000Y-127491000D02*
X196731000Y-130795000D01*
X196771000Y-121725000D02*
X196771000Y-125009000D01*
X196771000Y-127491000D02*
X196771000Y-130775000D01*
X196811000Y-121746000D02*
X196811000Y-125009000D01*
X196811000Y-127491000D02*
X196811000Y-130754000D01*
X196851000Y-121767000D02*
X196851000Y-125009000D01*
X196851000Y-127491000D02*
X196851000Y-130733000D01*
X196891000Y-121788000D02*
X196891000Y-125009000D01*
X196891000Y-127491000D02*
X196891000Y-130712000D01*
X196931000Y-121810000D02*
X196931000Y-125009000D01*
X196931000Y-127491000D02*
X196931000Y-130690000D01*
X196971000Y-121833000D02*
X196971000Y-125009000D01*
X196971000Y-127491000D02*
X196971000Y-130667000D01*
X197011000Y-121855000D02*
X197011000Y-125009000D01*
X197011000Y-127491000D02*
X197011000Y-130645000D01*
X197051000Y-121879000D02*
X197051000Y-125009000D01*
X197051000Y-127491000D02*
X197051000Y-130621000D01*
X197091000Y-121903000D02*
X197091000Y-125009000D01*
X197091000Y-127491000D02*
X197091000Y-130597000D01*
X197131000Y-121927000D02*
X197131000Y-125009000D01*
X197131000Y-127491000D02*
X197131000Y-130573000D01*
X197171000Y-121952000D02*
X197171000Y-125009000D01*
X197171000Y-127491000D02*
X197171000Y-130548000D01*
X197211000Y-121977000D02*
X197211000Y-125009000D01*
X197211000Y-127491000D02*
X197211000Y-130523000D01*
X197251000Y-122003000D02*
X197251000Y-125009000D01*
X197251000Y-127491000D02*
X197251000Y-130497000D01*
X197291000Y-122029000D02*
X197291000Y-125009000D01*
X197291000Y-127491000D02*
X197291000Y-130471000D01*
X197331000Y-122056000D02*
X197331000Y-125009000D01*
X197331000Y-127491000D02*
X197331000Y-130444000D01*
X197371000Y-122084000D02*
X197371000Y-125009000D01*
X197371000Y-127491000D02*
X197371000Y-130416000D01*
X197411000Y-122112000D02*
X197411000Y-125009000D01*
X197411000Y-127491000D02*
X197411000Y-130388000D01*
X197451000Y-122140000D02*
X197451000Y-125009000D01*
X197451000Y-127491000D02*
X197451000Y-130360000D01*
X197491000Y-122170000D02*
X197491000Y-125009000D01*
X197491000Y-127491000D02*
X197491000Y-130330000D01*
X197531000Y-122200000D02*
X197531000Y-125009000D01*
X197531000Y-127491000D02*
X197531000Y-130300000D01*
X197571000Y-122230000D02*
X197571000Y-125009000D01*
X197571000Y-127491000D02*
X197571000Y-130270000D01*
X197611000Y-122261000D02*
X197611000Y-125009000D01*
X197611000Y-127491000D02*
X197611000Y-130239000D01*
X197651000Y-122293000D02*
X197651000Y-125009000D01*
X197651000Y-127491000D02*
X197651000Y-130207000D01*
X197691000Y-122325000D02*
X197691000Y-125009000D01*
X197691000Y-127491000D02*
X197691000Y-130175000D01*
X197731000Y-122358000D02*
X197731000Y-125009000D01*
X197731000Y-127491000D02*
X197731000Y-130142000D01*
X197771000Y-122392000D02*
X197771000Y-125009000D01*
X197771000Y-127491000D02*
X197771000Y-130108000D01*
X197811000Y-122426000D02*
X197811000Y-125009000D01*
X197811000Y-127491000D02*
X197811000Y-130074000D01*
X197851000Y-122461000D02*
X197851000Y-125009000D01*
X197851000Y-127491000D02*
X197851000Y-130039000D01*
X197891000Y-122497000D02*
X197891000Y-125009000D01*
X197891000Y-127491000D02*
X197891000Y-130003000D01*
X197931000Y-122534000D02*
X197931000Y-125009000D01*
X197931000Y-127491000D02*
X197931000Y-129966000D01*
X197971000Y-122571000D02*
X197971000Y-125009000D01*
X197971000Y-127491000D02*
X197971000Y-129929000D01*
X198011000Y-122610000D02*
X198011000Y-125009000D01*
X198011000Y-127491000D02*
X198011000Y-129890000D01*
X198051000Y-122649000D02*
X198051000Y-125009000D01*
X198051000Y-127491000D02*
X198051000Y-129851000D01*
X198091000Y-122689000D02*
X198091000Y-125009000D01*
X198091000Y-127491000D02*
X198091000Y-129811000D01*
X198131000Y-122730000D02*
X198131000Y-125009000D01*
X198131000Y-127491000D02*
X198131000Y-129770000D01*
X198171000Y-122772000D02*
X198171000Y-125009000D01*
X198171000Y-127491000D02*
X198171000Y-129728000D01*
X198211000Y-122814000D02*
X198211000Y-129686000D01*
X198251000Y-122858000D02*
X198251000Y-129642000D01*
X198291000Y-122903000D02*
X198291000Y-129597000D01*
X198331000Y-122949000D02*
X198331000Y-129551000D01*
X198371000Y-122996000D02*
X198371000Y-129504000D01*
X198411000Y-123044000D02*
X198411000Y-129456000D01*
X198451000Y-123094000D02*
X198451000Y-129406000D01*
X198491000Y-123144000D02*
X198491000Y-129356000D01*
X198531000Y-123196000D02*
X198531000Y-129304000D01*
X198571000Y-123250000D02*
X198571000Y-129250000D01*
X198611000Y-123305000D02*
X198611000Y-129195000D01*
X198651000Y-123361000D02*
X198651000Y-129139000D01*
X198691000Y-123420000D02*
X198691000Y-129080000D01*
X198731000Y-123480000D02*
X198731000Y-129020000D01*
X198771000Y-123541000D02*
X198771000Y-128959000D01*
X198811000Y-123605000D02*
X198811000Y-128895000D01*
X198851000Y-123671000D02*
X198851000Y-128829000D01*
X198891000Y-123740000D02*
X198891000Y-128760000D01*
X198931000Y-123811000D02*
X198931000Y-128689000D01*
X198971000Y-123885000D02*
X198971000Y-128615000D01*
X199011000Y-123961000D02*
X199011000Y-128539000D01*
X199051000Y-124041000D02*
X199051000Y-128459000D01*
X199091000Y-124125000D02*
X199091000Y-128375000D01*
X199131000Y-124213000D02*
X199131000Y-128287000D01*
X199171000Y-124306000D02*
X199171000Y-128194000D01*
X199211000Y-124404000D02*
X199211000Y-128096000D01*
X199251000Y-124508000D02*
X199251000Y-127992000D01*
X199291000Y-124620000D02*
X199291000Y-127880000D01*
X199331000Y-124740000D02*
X199331000Y-127760000D01*
X199371000Y-124872000D02*
X199371000Y-127628000D01*
X199411000Y-125020000D02*
X199411000Y-127480000D01*
X199451000Y-125188000D02*
X199451000Y-127312000D01*
X199491000Y-125388000D02*
X199491000Y-127112000D01*
X199531000Y-125651000D02*
X199531000Y-126849000D01*
X199570000Y-126250000D02*
G75*
G02*
X189330000Y-126250000I-5120000J0D01*
G01*
X189330000Y-126250000D02*
G75*
G02*
X199570000Y-126250000I5120000J0D01*
G01*
%TO.C,C28*%
X164359420Y-113537500D02*
X164640580Y-113537500D01*
X164359420Y-114557500D02*
X164640580Y-114557500D01*
%TO.C,J1*%
X191130000Y-87240000D02*
X191130000Y-112760000D01*
X191130000Y-87240000D02*
X193730000Y-87240000D01*
X191130000Y-112760000D02*
X196330000Y-112760000D01*
X193730000Y-87240000D02*
X193730000Y-89840000D01*
X193730000Y-89840000D02*
X196330000Y-89840000D01*
X195000000Y-87240000D02*
X196330000Y-87240000D01*
X196330000Y-87240000D02*
X196330000Y-88570000D01*
X196330000Y-89840000D02*
X196330000Y-112760000D01*
%TO.C,C14*%
X183640580Y-84490000D02*
X183359420Y-84490000D01*
X183640580Y-85510000D02*
X183359420Y-85510000D01*
%TO.C,C23*%
X183640580Y-114240000D02*
X183359420Y-114240000D01*
X183640580Y-115260000D02*
X183359420Y-115260000D01*
%TO.C,C17*%
X160859420Y-85740000D02*
X161140580Y-85740000D01*
X160859420Y-86760000D02*
X161140580Y-86760000D01*
%TO.C,R4*%
X180237258Y-112727500D02*
X179762742Y-112727500D01*
X180237258Y-113772500D02*
X179762742Y-113772500D01*
%TD*%
%LPC*%
D12*
%TO.C,C27*%
X165275000Y-110237500D03*
X163725000Y-110237500D03*
%TD*%
D13*
%TO.C,C13*%
X163725000Y-85950000D03*
X165275000Y-85950000D03*
%TD*%
D12*
%TO.C,C11*%
X165275000Y-84000000D03*
X163725000Y-84000000D03*
%TD*%
D13*
%TO.C,C33*%
X160225000Y-116750000D03*
X161775000Y-116750000D03*
%TD*%
D14*
%TO.C,R7*%
X180825000Y-81750000D03*
X179175000Y-81750000D03*
%TD*%
D12*
%TO.C,C35*%
X167275000Y-130500000D03*
X165725000Y-130500000D03*
%TD*%
%TO.C,C9*%
X167275000Y-69500000D03*
X165725000Y-69500000D03*
%TD*%
%TO.C,C29*%
X165275000Y-115952500D03*
X163725000Y-115952500D03*
%TD*%
D15*
%TO.C,C19*%
X183250000Y-121000000D03*
D16*
X183250000Y-123500000D03*
%TD*%
D17*
%TO.C,C24*%
X178750000Y-109775000D03*
X178750000Y-108225000D03*
%TD*%
D13*
%TO.C,C10*%
X163725000Y-80250000D03*
X165275000Y-80250000D03*
%TD*%
D14*
%TO.C,R10*%
X180825000Y-111750000D03*
X179175000Y-111750000D03*
%TD*%
D18*
%TO.C,C8*%
X163250000Y-73750000D03*
D19*
X158250000Y-73750000D03*
%TD*%
D12*
%TO.C,C22*%
X170775000Y-106500000D03*
X169225000Y-106500000D03*
%TD*%
D20*
%TO.C,U2*%
X173000000Y-85000000D03*
D21*
X176712500Y-91667500D03*
X176712500Y-91032500D03*
X176712500Y-90397500D03*
X176712500Y-89762500D03*
X176712500Y-89127500D03*
X176712500Y-88492500D03*
X176712500Y-87857500D03*
X176712500Y-87222500D03*
X176712500Y-86587500D03*
X176712500Y-85952500D03*
X176712500Y-85317500D03*
X176712500Y-84682500D03*
X176712500Y-84047500D03*
X176712500Y-83412500D03*
X176712500Y-82777500D03*
X176712500Y-82142500D03*
X176712500Y-81507500D03*
X176712500Y-80872500D03*
X176712500Y-80237500D03*
X176712500Y-79602500D03*
X176712500Y-78967500D03*
X176712500Y-78332500D03*
X169287500Y-78332500D03*
X169287500Y-78967500D03*
X169287500Y-79602500D03*
X169287500Y-80237500D03*
X169287500Y-80872500D03*
X169287500Y-81507500D03*
X169287500Y-82142500D03*
X169287500Y-82777500D03*
X169287500Y-83412500D03*
X169287500Y-84047500D03*
X169287500Y-84682500D03*
X169287500Y-85317500D03*
X169287500Y-85952500D03*
X169287500Y-86587500D03*
X169287500Y-87222500D03*
X169287500Y-87857500D03*
X169287500Y-88492500D03*
X169287500Y-89127500D03*
X169287500Y-89762500D03*
X169287500Y-90397500D03*
X169287500Y-91032500D03*
X169287500Y-91667500D03*
%TD*%
D13*
%TO.C,C15*%
X164975000Y-78750000D03*
X166525000Y-78750000D03*
%TD*%
D22*
%TO.C,R8*%
X179925000Y-87750000D03*
X181575000Y-87750000D03*
%TD*%
D18*
%TO.C,C7*%
X191950000Y-73750000D03*
D19*
X196950000Y-73750000D03*
%TD*%
D13*
%TO.C,C16*%
X160225000Y-84500000D03*
X161775000Y-84500000D03*
%TD*%
%TO.C,C5*%
X175225000Y-93500000D03*
X176775000Y-93500000D03*
%TD*%
D12*
%TO.C,C6*%
X170775000Y-93500000D03*
X169225000Y-93500000D03*
%TD*%
D14*
%TO.C,R1*%
X170825000Y-69500000D03*
X169175000Y-69500000D03*
%TD*%
D15*
%TO.C,C2*%
X183250000Y-91250000D03*
D16*
X183250000Y-93750000D03*
%TD*%
D20*
%TO.C,U1*%
X173000000Y-115000000D03*
D21*
X176712500Y-121667500D03*
X176712500Y-121032500D03*
X176712500Y-120397500D03*
X176712500Y-119762500D03*
X176712500Y-119127500D03*
X176712500Y-118492500D03*
X176712500Y-117857500D03*
X176712500Y-117222500D03*
X176712500Y-116587500D03*
X176712500Y-115952500D03*
X176712500Y-115317500D03*
X176712500Y-114682500D03*
X176712500Y-114047500D03*
X176712500Y-113412500D03*
X176712500Y-112777500D03*
X176712500Y-112142500D03*
X176712500Y-111507500D03*
X176712500Y-110872500D03*
X176712500Y-110237500D03*
X176712500Y-109602500D03*
X176712500Y-108967500D03*
X176712500Y-108332500D03*
X169287500Y-108332500D03*
X169287500Y-108967500D03*
X169287500Y-109602500D03*
X169287500Y-110237500D03*
X169287500Y-110872500D03*
X169287500Y-111507500D03*
X169287500Y-112142500D03*
X169287500Y-112777500D03*
X169287500Y-113412500D03*
X169287500Y-114047500D03*
X169287500Y-114682500D03*
X169287500Y-115317500D03*
X169287500Y-115952500D03*
X169287500Y-116587500D03*
X169287500Y-117222500D03*
X169287500Y-117857500D03*
X169287500Y-118492500D03*
X169287500Y-119127500D03*
X169287500Y-119762500D03*
X169287500Y-120397500D03*
X169287500Y-121032500D03*
X169287500Y-121667500D03*
%TD*%
D17*
%TO.C,C3*%
X178750000Y-79775000D03*
X178750000Y-78225000D03*
%TD*%
D13*
%TO.C,C31*%
X164975000Y-108500000D03*
X166525000Y-108500000D03*
%TD*%
%TO.C,C32*%
X160225000Y-113250000D03*
X161775000Y-113250000D03*
%TD*%
D23*
%TO.C,C1*%
X178750000Y-89975000D03*
X178750000Y-91525000D03*
%TD*%
D22*
%TO.C,R5*%
X179175000Y-114750000D03*
X180825000Y-114750000D03*
%TD*%
D14*
%TO.C,R6*%
X170825000Y-130500000D03*
X169175000Y-130500000D03*
%TD*%
D13*
%TO.C,C18*%
X164975000Y-93000000D03*
X166525000Y-93000000D03*
%TD*%
%TO.C,C34*%
X165725000Y-122000000D03*
X167275000Y-122000000D03*
%TD*%
%TO.C,C25*%
X175225000Y-123500000D03*
X176775000Y-123500000D03*
%TD*%
D12*
%TO.C,C26*%
X171025000Y-123500000D03*
X169475000Y-123500000D03*
%TD*%
D18*
%TO.C,C36*%
X163250000Y-126250000D03*
D19*
X158250000Y-126250000D03*
%TD*%
D22*
%TO.C,R9*%
X179925000Y-117750000D03*
X181575000Y-117750000D03*
%TD*%
D14*
%TO.C,R2*%
X180825000Y-83500000D03*
X179175000Y-83500000D03*
%TD*%
D23*
%TO.C,C20*%
X178750000Y-119975000D03*
X178750000Y-121525000D03*
%TD*%
D22*
%TO.C,R3*%
X179175000Y-85000000D03*
X180825000Y-85000000D03*
%TD*%
D13*
%TO.C,C30*%
X163725000Y-119127500D03*
X165275000Y-119127500D03*
%TD*%
D12*
%TO.C,C4*%
X170775000Y-76500000D03*
X169225000Y-76500000D03*
%TD*%
%TO.C,C12*%
X165275000Y-89750000D03*
X163725000Y-89750000D03*
%TD*%
D18*
%TO.C,C21*%
X191950000Y-126250000D03*
D19*
X196950000Y-126250000D03*
%TD*%
D13*
%TO.C,C28*%
X163725000Y-114047500D03*
X165275000Y-114047500D03*
%TD*%
D24*
%TO.C,J1*%
X195000000Y-88570000D03*
D25*
X192460000Y-88570000D03*
X195000000Y-91110000D03*
X192460000Y-91110000D03*
X195000000Y-93650000D03*
X192460000Y-93650000D03*
X195000000Y-96190000D03*
X192460000Y-96190000D03*
X195000000Y-98730000D03*
X192460000Y-98730000D03*
X195000000Y-101270000D03*
X192460000Y-101270000D03*
X195000000Y-103810000D03*
X192460000Y-103810000D03*
X195000000Y-106350000D03*
X192460000Y-106350000D03*
X195000000Y-108890000D03*
X192460000Y-108890000D03*
X195000000Y-111430000D03*
X192460000Y-111430000D03*
%TD*%
D12*
%TO.C,C14*%
X184275000Y-85000000D03*
X182725000Y-85000000D03*
%TD*%
%TO.C,C23*%
X184275000Y-114750000D03*
X182725000Y-114750000D03*
%TD*%
D13*
%TO.C,C17*%
X160225000Y-86250000D03*
X161775000Y-86250000D03*
%TD*%
D14*
%TO.C,R4*%
X180825000Y-113250000D03*
X179175000Y-113250000D03*
%TD*%
%LPD*%
M02*
