M48
; DRILL file {KiCad 9.0.7} date 2026-02-18T21:40:18+0900
; FORMAT={-:-/ absolute / inch / decimal}
; #@! TF.CreationDate,2026-02-18T21:40:18+09:00
; #@! TF.GenerationSoftware,Kicad,Pcbnew,9.0.7
; #@! TF.FileFunction,Plated,1,2,PTH
FMAT,2
INCH
; #@! TA.AperFunction,Plated,PTH,ComponentDrill
T1C0.0079
; #@! TA.AperFunction,Plated,PTH,ViaDrill
T2C0.0118
; #@! TA.AperFunction,Plated,PTH,ViaDrill
T3C0.0197
; #@! TA.AperFunction,Plated,PTH,ComponentDrill
T4C0.0315
; #@! TA.AperFunction,Plated,PTH,ComponentDrill
T5C0.0394
%
G90
G05
T1
X6.7185Y-3.0807
X6.7185Y-3.125
X6.7185Y-3.1693
X6.7185Y-3.2136
X6.7185Y-3.2579
X6.7185Y-3.3022
X6.7185Y-3.3465
X6.7185Y-3.3907
X6.7185Y-3.435
X6.7185Y-3.4793
X6.7185Y-3.5236
X6.7185Y-3.5679
X6.7185Y-3.6122
X6.7185Y-4.2618
X6.7185Y-4.3061
X6.7185Y-4.3504
X6.7185Y-4.3947
X6.7185Y-4.439
X6.7185Y-4.4833
X6.7185Y-4.5276
X6.7185Y-4.5719
X6.7185Y-4.6161
X6.7185Y-4.6604
X6.7185Y-4.7047
X6.7185Y-4.749
X6.7185Y-4.7933
X6.7648Y-3.0807
X6.7648Y-3.125
X6.7648Y-3.1693
X6.7648Y-3.2136
X6.7648Y-3.2579
X6.7648Y-3.3022
X6.7648Y-3.3465
X6.7648Y-3.3907
X6.7648Y-3.435
X6.7648Y-3.4793
X6.7648Y-3.5236
X6.7648Y-3.5679
X6.7648Y-3.6122
X6.7648Y-4.2618
X6.7648Y-4.3061
X6.7648Y-4.3504
X6.7648Y-4.3947
X6.7648Y-4.439
X6.7648Y-4.4833
X6.7648Y-4.5276
X6.7648Y-4.5719
X6.7648Y-4.6161
X6.7648Y-4.6604
X6.7648Y-4.7047
X6.7648Y-4.749
X6.7648Y-4.7933
X6.811Y-3.0807
X6.811Y-3.125
X6.811Y-3.1693
X6.811Y-3.2136
X6.811Y-3.2579
X6.811Y-3.3022
X6.811Y-3.3465
X6.811Y-3.3907
X6.811Y-3.435
X6.811Y-3.4793
X6.811Y-3.5236
X6.811Y-3.5679
X6.811Y-3.6122
X6.811Y-4.2618
X6.811Y-4.3061
X6.811Y-4.3504
X6.811Y-4.3947
X6.811Y-4.439
X6.811Y-4.4833
X6.811Y-4.5276
X6.811Y-4.5719
X6.811Y-4.6161
X6.811Y-4.6604
X6.811Y-4.7047
X6.811Y-4.749
X6.811Y-4.7933
X6.8573Y-3.0807
X6.8573Y-3.125
X6.8573Y-3.1693
X6.8573Y-3.2136
X6.8573Y-3.2579
X6.8573Y-3.3022
X6.8573Y-3.3465
X6.8573Y-3.3907
X6.8573Y-3.435
X6.8573Y-3.4793
X6.8573Y-3.5236
X6.8573Y-3.5679
X6.8573Y-3.6122
X6.8573Y-4.2618
X6.8573Y-4.3061
X6.8573Y-4.3504
X6.8573Y-4.3947
X6.8573Y-4.439
X6.8573Y-4.4833
X6.8573Y-4.5276
X6.8573Y-4.5719
X6.8573Y-4.6161
X6.8573Y-4.6604
X6.8573Y-4.7047
X6.8573Y-4.749
X6.8573Y-4.7933
X6.9035Y-3.0807
X6.9035Y-3.125
X6.9035Y-3.1693
X6.9035Y-3.2136
X6.9035Y-3.2579
X6.9035Y-3.3022
X6.9035Y-3.3465
X6.9035Y-3.3907
X6.9035Y-3.435
X6.9035Y-3.4793
X6.9035Y-3.5236
X6.9035Y-3.5679
X6.9035Y-3.6122
X6.9035Y-4.2618
X6.9035Y-4.3061
X6.9035Y-4.3504
X6.9035Y-4.3947
X6.9035Y-4.439
X6.9035Y-4.4833
X6.9035Y-4.5276
X6.9035Y-4.5719
X6.9035Y-4.6161
X6.9035Y-4.6604
X6.9035Y-4.7047
X6.9035Y-4.749
X6.9035Y-4.7933
T2
X6.0299Y-3.7118
X6.0429Y-4.1744
X6.0567Y-3.5008
X6.0831Y-4.3547
X6.0835Y-3.285
X6.0945Y-4.5917
X6.1142Y-4.7921
X6.1154Y-3.0264
X6.1681Y-2.8358
X6.185Y-2.7374
X6.2091Y-5.0768
X6.2894Y-2.7378
X6.3315Y-4.1098
X6.3339Y-3.4484
X6.3449Y-4.6551
X6.3484Y-3.2685
X6.3488Y-4.3874
X6.3524Y-4.3201
X6.3539Y-5.1362
X6.3768Y-4.548
X6.378Y-3.8724
X6.387Y-4.5071
X6.3894Y-2.7425
X6.3894Y-4.7205
X6.3925Y-3.4268
X6.4142Y-3.3455
X6.4205Y-4.2909
X6.4358Y-3.6354
X6.4417Y-3.2228
X6.4622Y-3.4839
X6.465Y-4.6398
X6.4657Y-4.4157
X6.4961Y-3.9563
X6.5205Y-3.0543
X6.5463Y-3.2606
X6.5496Y-4.1732
X6.5511Y-4.5156
X6.5551Y-3.3209
X6.5555Y-3.8264
X6.5555Y-4.7457
X6.5606Y-3.202
X6.5646Y-4.5941
X6.5689Y-4.3724
X6.5693Y-4.4642
X6.572Y-3.5024
X6.576Y-4.6645
X6.5764Y-3.4244
X6.5776Y-4.4157
X6.5857Y-3.3491
X6.5916Y-4.5395
X6.6008Y-3.1701
X6.6028Y-4.0409
X6.6047Y-4.6161
X6.6059Y-3.4594
X6.6098Y-3.6472
X6.6169Y-3.0189
X6.7248Y-3.8969
X6.7724Y-4.1909
X6.8031Y-3.6776
X6.8094Y-3.7402
X6.8417Y-2.7551
X6.9382Y-3.0382
X6.9764Y-3.9906
X6.9945Y-3.9126
X7.0122Y-3.3421
X7.0146Y-3.2563
X7.0187Y-4.5226
X7.0201Y-3.1823
X7.0201Y-3.3834
X7.0258Y-4.4291
X7.026Y-4.6311
X7.0264Y-3.4584
X7.0543Y-4.564
X7.0813Y-4.3533
X7.0858Y-3.5409
X7.089Y-4.3142
X7.1017Y-4.6901
X7.1114Y-3.676
X7.1185Y-4.7417
X7.1204Y-3.509
X7.122Y-5.1327
X7.1382Y-4.0382
X7.1413Y-2.8504
X7.1543Y-2.772
X7.1701Y-4.2283
X7.1752Y-4.4441
X7.2543Y-4.5638
X7.2638Y-3.9256
X7.2669Y-5.0843
X7.2713Y-4.0488
X7.3173Y-3.6724
X7.3181Y-2.7807
X7.3512Y-4.2559
X7.3579Y-3.1894
X7.3795Y-5.1437
X7.4059Y-4.3134
X7.4126Y-3.8646
X7.4472Y-3.485
X7.4535Y-3.6091
X7.4618Y-2.7677
X7.502Y-4.6669
X7.5059Y-4.5295
X7.5236Y-4.6075
X7.5335Y-3.3528
X7.5437Y-3.0224
X7.5642Y-5.0461
X7.6028Y-4.8646
X7.613Y-2.7579
X7.6213Y-4.589
X7.6697Y-4.5165
X7.7024Y-4.7811
X7.7039Y-5.0913
X7.7201Y-3.1902
X7.8165Y-3.0303
X7.8382Y-4.8043
X7.8413Y-3.1189
T3
X6.1791Y-3.7417
X6.2402Y-4.4606
X6.2699Y-4.5407
X6.2967Y-3.5955
X6.452Y-4.2224
X6.5551Y-4.8524
X6.7846Y-3.0146
X6.8165Y-4.8618
X7.1138Y-3.1264
X7.1193Y-4.8606
X7.1772Y-3.2717
X7.2024Y-3.0504
X7.3122Y-3.3783
X7.3494Y-4.8616
T4
X7.2146Y-3.5925
X7.2146Y-3.6909
X7.2146Y-4.7638
X7.2146Y-4.8622
T5
X6.2303Y-2.9035
X6.2303Y-4.9705
X6.4272Y-2.9035
X6.4272Y-4.9705
X7.4803Y-2.9035
X7.5Y-4.9803
X7.5772Y-3.487
X7.5772Y-3.587
X7.5772Y-3.687
X7.5772Y-3.787
X7.5772Y-3.887
X7.5772Y-3.987
X7.5772Y-4.087
X7.5772Y-4.187
X7.5772Y-4.287
X7.5772Y-4.387
X7.6772Y-2.9035
X7.6772Y-3.487
X7.6772Y-3.587
X7.6772Y-3.687
X7.6772Y-3.787
X7.6772Y-3.887
X7.6772Y-3.987
X7.6772Y-4.087
X7.6772Y-4.187
X7.6772Y-4.287
X7.6772Y-4.387
X7.6969Y-4.9803
M30
