%TF.GenerationSoftware,KiCad,Pcbnew,8.0.5*%
%TF.CreationDate,2025-12-09T16:42:46+09:00*%
%TF.ProjectId,Line_board_V1.0,4c696e65-5f62-46f6-9172-645f56312e30,rev?*%
%TF.SameCoordinates,Original*%
%TF.FileFunction,Legend,Bot*%
%TF.FilePolarity,Positive*%
%FSLAX46Y46*%
G04 Gerber Fmt 4.6, Leading zero omitted, Abs format (unit mm)*
G04 Created by KiCad (PCBNEW 8.0.5) date 2025-12-09 16:42:46*
%MOMM*%
%LPD*%
G01*
G04 APERTURE LIST*
%ADD10C,0.120000*%
G04 APERTURE END LIST*
D10*
%TO.C,R13*%
X154762742Y-112477500D02*
X155237258Y-112477500D01*
X154762742Y-113522500D02*
X155237258Y-113522500D01*
%TO.C,D9*%
X175600000Y-104735000D02*
X177885000Y-104735000D01*
X177885000Y-103265000D02*
X175600000Y-103265000D01*
X177885000Y-104735000D02*
X177885000Y-103265000D01*
%TO.C,D5*%
X151100000Y-104735000D02*
X153385000Y-104735000D01*
X153385000Y-103265000D02*
X151100000Y-103265000D01*
X153385000Y-104735000D02*
X153385000Y-103265000D01*
%TO.C,D8*%
X169500000Y-104735000D02*
X171785000Y-104735000D01*
X171785000Y-103265000D02*
X169500000Y-103265000D01*
X171785000Y-104735000D02*
X171785000Y-103265000D01*
%TO.C,D4*%
X145000000Y-104735000D02*
X147285000Y-104735000D01*
X147285000Y-103265000D02*
X145000000Y-103265000D01*
X147285000Y-104735000D02*
X147285000Y-103265000D01*
%TO.C,D10*%
X181700000Y-104735000D02*
X183985000Y-104735000D01*
X183985000Y-103265000D02*
X181700000Y-103265000D01*
X183985000Y-104735000D02*
X183985000Y-103265000D01*
%TO.C,R2*%
X133362742Y-106477500D02*
X133837258Y-106477500D01*
X133362742Y-107522500D02*
X133837258Y-107522500D01*
%TO.C,R7*%
X163962742Y-106477500D02*
X164437258Y-106477500D01*
X163962742Y-107522500D02*
X164437258Y-107522500D01*
%TO.C,D3*%
X138900000Y-104735000D02*
X141185000Y-104735000D01*
X141185000Y-103265000D02*
X138900000Y-103265000D01*
X141185000Y-104735000D02*
X141185000Y-103265000D01*
%TO.C,D6*%
X157300000Y-104735000D02*
X159585000Y-104735000D01*
X159585000Y-103265000D02*
X157300000Y-103265000D01*
X159585000Y-104735000D02*
X159585000Y-103265000D01*
%TO.C,R3*%
X139462742Y-106477500D02*
X139937258Y-106477500D01*
X139462742Y-107522500D02*
X139937258Y-107522500D01*
%TO.C,R15*%
X179212742Y-112477500D02*
X179687258Y-112477500D01*
X179212742Y-113522500D02*
X179687258Y-113522500D01*
%TO.C,R12*%
X142512742Y-112477500D02*
X142987258Y-112477500D01*
X142512742Y-113522500D02*
X142987258Y-113522500D01*
%TO.C,D7*%
X163400000Y-104735000D02*
X165685000Y-104735000D01*
X165685000Y-103265000D02*
X163400000Y-103265000D01*
X165685000Y-104735000D02*
X165685000Y-103265000D01*
%TO.C,D2*%
X132800000Y-104735000D02*
X135085000Y-104735000D01*
X135085000Y-103265000D02*
X132800000Y-103265000D01*
X135085000Y-104735000D02*
X135085000Y-103265000D01*
%TO.C,R1*%
X127262742Y-106477500D02*
X127737258Y-106477500D01*
X127262742Y-107522500D02*
X127737258Y-107522500D01*
%TO.C,R11*%
X130312742Y-112477500D02*
X130787258Y-112477500D01*
X130312742Y-113522500D02*
X130787258Y-113522500D01*
%TO.C,R9*%
X176162742Y-106477500D02*
X176637258Y-106477500D01*
X176162742Y-107522500D02*
X176637258Y-107522500D01*
%TO.C,D1*%
X126700000Y-104735000D02*
X128985000Y-104735000D01*
X128985000Y-103265000D02*
X126700000Y-103265000D01*
X128985000Y-104735000D02*
X128985000Y-103265000D01*
%TO.C,R5*%
X151662742Y-106477500D02*
X152137258Y-106477500D01*
X151662742Y-107522500D02*
X152137258Y-107522500D01*
%TO.C,R10*%
X182262742Y-106477500D02*
X182737258Y-106477500D01*
X182262742Y-107522500D02*
X182737258Y-107522500D01*
%TO.C,R8*%
X170062742Y-106477500D02*
X170537258Y-106477500D01*
X170062742Y-107522500D02*
X170537258Y-107522500D01*
%TO.C,R4*%
X145562742Y-106477500D02*
X146037258Y-106477500D01*
X145562742Y-107522500D02*
X146037258Y-107522500D01*
%TO.C,R6*%
X157862742Y-106477500D02*
X158337258Y-106477500D01*
X157862742Y-107522500D02*
X158337258Y-107522500D01*
%TO.C,R14*%
X167012742Y-112477500D02*
X167487258Y-112477500D01*
X167012742Y-113522500D02*
X167487258Y-113522500D01*
%TD*%
M02*
