%TF.GenerationSoftware,KiCad,Pcbnew,8.0.5*%
%TF.CreationDate,2025-12-09T16:42:46+09:00*%
%TF.ProjectId,Line_board_V1.0,4c696e65-5f62-46f6-9172-645f56312e30,rev?*%
%TF.SameCoordinates,Original*%
%TF.FileFunction,Copper,L1,Top*%
%TF.FilePolarity,Positive*%
%FSLAX46Y46*%
G04 Gerber Fmt 4.6, Leading zero omitted, Abs format (unit mm)*
G04 Created by KiCad (PCBNEW 8.0.5) date 2025-12-09 16:42:46*
%MOMM*%
%LPD*%
G01*
G04 APERTURE LIST*
G04 Aperture macros list*
%AMRoundRect*
0 Rectangle with rounded corners*
0 $1 Rounding radius*
0 $2 $3 $4 $5 $6 $7 $8 $9 X,Y pos of 4 corners*
0 Add a 4 corners polygon primitive as box body*
4,1,4,$2,$3,$4,$5,$6,$7,$8,$9,$2,$3,0*
0 Add four circle primitives for the rounded corners*
1,1,$1+$1,$2,$3*
1,1,$1+$1,$4,$5*
1,1,$1+$1,$6,$7*
1,1,$1+$1,$8,$9*
0 Add four rect primitives between the rounded corners*
20,1,$1+$1,$2,$3,$4,$5,0*
20,1,$1+$1,$4,$5,$6,$7,0*
20,1,$1+$1,$6,$7,$8,$9,0*
20,1,$1+$1,$8,$9,$2,$3,0*%
G04 Aperture macros list end*
%TA.AperFunction,ComponentPad*%
%ADD10O,1.950000X1.700000*%
%TD*%
%TA.AperFunction,ComponentPad*%
%ADD11RoundRect,0.250000X0.725000X-0.600000X0.725000X0.600000X-0.725000X0.600000X-0.725000X-0.600000X0*%
%TD*%
%TA.AperFunction,ViaPad*%
%ADD12C,0.600000*%
%TD*%
G04 APERTURE END LIST*
D10*
%TO.P,J1,7,Pin_7*%
%TO.N,A4*%
X120000000Y-102500000D03*
%TO.P,J1,6,Pin_6*%
%TO.N,A3*%
X120000000Y-105000000D03*
%TO.P,J1,5,Pin_5*%
%TO.N,A2*%
X120000000Y-107500000D03*
%TO.P,J1,4,Pin_4*%
%TO.N,A1*%
X120000000Y-110000000D03*
%TO.P,J1,3,Pin_3*%
%TO.N,A0*%
X120000000Y-112500000D03*
%TO.P,J1,2,Pin_2*%
%TO.N,GND*%
X120000000Y-115000000D03*
D11*
%TO.P,J1,1,Pin_1*%
%TO.N,+3.3V*%
X120000000Y-117500000D03*
%TD*%
D12*
%TO.N,GND*%
X130775000Y-116050000D03*
X136700000Y-115875000D03*
X142975000Y-115725000D03*
X149075000Y-115875000D03*
X155600000Y-115525000D03*
X160925000Y-115525000D03*
X173400000Y-115325000D03*
X167725000Y-115800000D03*
X179900000Y-115600000D03*
X183675000Y-112400000D03*
X181325000Y-110450000D03*
X188150000Y-106325000D03*
X179725000Y-105800000D03*
X173400000Y-105850000D03*
X167075000Y-105675000D03*
X161050000Y-105850000D03*
X155000000Y-105800000D03*
X149650000Y-105775000D03*
X142200000Y-105425000D03*
X136275000Y-105775000D03*
X130075000Y-105625000D03*
X124825000Y-105000000D03*
X123350000Y-107025000D03*
X122400000Y-108525000D03*
X123700000Y-111525000D03*
X175825000Y-113800000D03*
X169975000Y-110900000D03*
X162700000Y-113850000D03*
X158225000Y-111150000D03*
X150350000Y-113625000D03*
X146500000Y-111600000D03*
X137575000Y-113900000D03*
X134150000Y-112050000D03*
X121700000Y-101125000D03*
X127875000Y-100875000D03*
X133650000Y-100875000D03*
X139775000Y-101050000D03*
X146650000Y-101050000D03*
X151500000Y-101450000D03*
X159175000Y-100925000D03*
X164650000Y-100975000D03*
X171275000Y-100800000D03*
X176125000Y-101225000D03*
X184525000Y-101325000D03*
X194075000Y-101625000D03*
X193250000Y-114650000D03*
X188500000Y-111725000D03*
X192300000Y-107500000D03*
X188375000Y-102275000D03*
X198875000Y-105550000D03*
X198550000Y-101550000D03*
X198975000Y-116025000D03*
X198925000Y-112925000D03*
X188025000Y-118850000D03*
X193575000Y-118750000D03*
X199000000Y-118850000D03*
X182250000Y-119025000D03*
X176350000Y-118875000D03*
X170475000Y-118925000D03*
X163925000Y-119025000D03*
X158700000Y-118950000D03*
X152625000Y-119025000D03*
X146550000Y-119000000D03*
X140225000Y-119150000D03*
X135050000Y-119100000D03*
X131200000Y-118950000D03*
X126575000Y-119025000D03*
X122625000Y-119025000D03*
X125575000Y-115825000D03*
X127150000Y-113175000D03*
X122550000Y-114725000D03*
X116025000Y-112375000D03*
X116000000Y-104750000D03*
X115600000Y-118975000D03*
X111125000Y-118300000D03*
X111150000Y-112950000D03*
X111250000Y-105175000D03*
X115325000Y-101025000D03*
X111775000Y-101150000D03*
%TD*%
%TA.AperFunction,Conductor*%
%TO.N,GND*%
G36*
X199442539Y-100520185D02*
G01*
X199488294Y-100572989D01*
X199499500Y-100624500D01*
X199499500Y-119375500D01*
X199479815Y-119442539D01*
X199427011Y-119488294D01*
X199375500Y-119499500D01*
X110624500Y-119499500D01*
X110557461Y-119479815D01*
X110511706Y-119427011D01*
X110500500Y-119375500D01*
X110500500Y-109999998D01*
X110994390Y-109999998D01*
X110994390Y-110000001D01*
X111014804Y-110285433D01*
X111075628Y-110565037D01*
X111175635Y-110833166D01*
X111312770Y-111084309D01*
X111312775Y-111084317D01*
X111484254Y-111313387D01*
X111484270Y-111313405D01*
X111686594Y-111515729D01*
X111686612Y-111515745D01*
X111915682Y-111687224D01*
X111915690Y-111687229D01*
X112166833Y-111824364D01*
X112166832Y-111824364D01*
X112166836Y-111824365D01*
X112166839Y-111824367D01*
X112434954Y-111924369D01*
X112434960Y-111924370D01*
X112434962Y-111924371D01*
X112714566Y-111985195D01*
X112714568Y-111985195D01*
X112714572Y-111985196D01*
X112968220Y-112003337D01*
X112999999Y-112005610D01*
X113000000Y-112005610D01*
X113000001Y-112005610D01*
X113028595Y-112003564D01*
X113285428Y-111985196D01*
X113565046Y-111924369D01*
X113833161Y-111824367D01*
X114084315Y-111687226D01*
X114313395Y-111515739D01*
X114515739Y-111313395D01*
X114687226Y-111084315D01*
X114824367Y-110833161D01*
X114924369Y-110565046D01*
X114978493Y-110316243D01*
X114985195Y-110285433D01*
X114985195Y-110285432D01*
X114985196Y-110285428D01*
X115005610Y-110000000D01*
X114985196Y-109714572D01*
X114978493Y-109683760D01*
X114924371Y-109434962D01*
X114924370Y-109434960D01*
X114924369Y-109434954D01*
X114824367Y-109166839D01*
X114798904Y-109120208D01*
X114687229Y-108915690D01*
X114687224Y-108915682D01*
X114515745Y-108686612D01*
X114515729Y-108686594D01*
X114313405Y-108484270D01*
X114313387Y-108484254D01*
X114084317Y-108312775D01*
X114084309Y-108312770D01*
X113833166Y-108175635D01*
X113833167Y-108175635D01*
X113725915Y-108135632D01*
X113565046Y-108075631D01*
X113565043Y-108075630D01*
X113565037Y-108075628D01*
X113285433Y-108014804D01*
X113000001Y-107994390D01*
X112999999Y-107994390D01*
X112714566Y-108014804D01*
X112434962Y-108075628D01*
X112166833Y-108175635D01*
X111915690Y-108312770D01*
X111915682Y-108312775D01*
X111686612Y-108484254D01*
X111686594Y-108484270D01*
X111484270Y-108686594D01*
X111484254Y-108686612D01*
X111312775Y-108915682D01*
X111312770Y-108915690D01*
X111175635Y-109166833D01*
X111075628Y-109434962D01*
X111014804Y-109714566D01*
X110994390Y-109999998D01*
X110500500Y-109999998D01*
X110500500Y-102393713D01*
X118524500Y-102393713D01*
X118524500Y-102606286D01*
X118557753Y-102816239D01*
X118623444Y-103018414D01*
X118719951Y-103207820D01*
X118844890Y-103379786D01*
X118995209Y-103530105D01*
X118995214Y-103530109D01*
X119159793Y-103649682D01*
X119202459Y-103705011D01*
X119208438Y-103774625D01*
X119175833Y-103836420D01*
X119159793Y-103850318D01*
X118995214Y-103969890D01*
X118995209Y-103969894D01*
X118844890Y-104120213D01*
X118719951Y-104292179D01*
X118623444Y-104481585D01*
X118557753Y-104683760D01*
X118524500Y-104893713D01*
X118524500Y-105106286D01*
X118557753Y-105316239D01*
X118623444Y-105518414D01*
X118719951Y-105707820D01*
X118844890Y-105879786D01*
X118995209Y-106030105D01*
X118995214Y-106030109D01*
X119159793Y-106149682D01*
X119202459Y-106205011D01*
X119208438Y-106274625D01*
X119175833Y-106336420D01*
X119159793Y-106350318D01*
X118995214Y-106469890D01*
X118995209Y-106469894D01*
X118844890Y-106620213D01*
X118719951Y-106792179D01*
X118623444Y-106981585D01*
X118557753Y-107183760D01*
X118524500Y-107393713D01*
X118524500Y-107606286D01*
X118557753Y-107816239D01*
X118623444Y-108018414D01*
X118719951Y-108207820D01*
X118844890Y-108379786D01*
X118995209Y-108530105D01*
X118995214Y-108530109D01*
X119159793Y-108649682D01*
X119202459Y-108705011D01*
X119208438Y-108774625D01*
X119175833Y-108836420D01*
X119159793Y-108850318D01*
X118995214Y-108969890D01*
X118995209Y-108969894D01*
X118844890Y-109120213D01*
X118719951Y-109292179D01*
X118623444Y-109481585D01*
X118557753Y-109683760D01*
X118524500Y-109893713D01*
X118524500Y-110106286D01*
X118557753Y-110316239D01*
X118623444Y-110518414D01*
X118719951Y-110707820D01*
X118844890Y-110879786D01*
X118995209Y-111030105D01*
X118995214Y-111030109D01*
X119159793Y-111149682D01*
X119202459Y-111205011D01*
X119208438Y-111274625D01*
X119175833Y-111336420D01*
X119159793Y-111350318D01*
X118995214Y-111469890D01*
X118995209Y-111469894D01*
X118844890Y-111620213D01*
X118719951Y-111792179D01*
X118623444Y-111981585D01*
X118557753Y-112183760D01*
X118524500Y-112393713D01*
X118524500Y-112606286D01*
X118557753Y-112816239D01*
X118623444Y-113018414D01*
X118719951Y-113207820D01*
X118844890Y-113379786D01*
X118995209Y-113530105D01*
X118995214Y-113530109D01*
X119160218Y-113649991D01*
X119202884Y-113705320D01*
X119208863Y-113774934D01*
X119176258Y-113836729D01*
X119160218Y-113850627D01*
X118995540Y-113970272D01*
X118995535Y-113970276D01*
X118845276Y-114120535D01*
X118845272Y-114120540D01*
X118720379Y-114292442D01*
X118623904Y-114481782D01*
X118558242Y-114683870D01*
X118558242Y-114683873D01*
X118547769Y-114750000D01*
X119595854Y-114750000D01*
X119557370Y-114816657D01*
X119525000Y-114937465D01*
X119525000Y-115062535D01*
X119557370Y-115183343D01*
X119595854Y-115250000D01*
X118547769Y-115250000D01*
X118558242Y-115316126D01*
X118558242Y-115316129D01*
X118623904Y-115518217D01*
X118720379Y-115707557D01*
X118845272Y-115879459D01*
X118845276Y-115879464D01*
X118984143Y-116018331D01*
X119017628Y-116079654D01*
X119012644Y-116149346D01*
X118970772Y-116205279D01*
X118961559Y-116211551D01*
X118806342Y-116307289D01*
X118682289Y-116431342D01*
X118590187Y-116580663D01*
X118590186Y-116580666D01*
X118535001Y-116747203D01*
X118535001Y-116747204D01*
X118535000Y-116747204D01*
X118524500Y-116849983D01*
X118524500Y-118150001D01*
X118524501Y-118150018D01*
X118535000Y-118252796D01*
X118535001Y-118252799D01*
X118590185Y-118419331D01*
X118590186Y-118419334D01*
X118682288Y-118568656D01*
X118806344Y-118692712D01*
X118955666Y-118784814D01*
X119122203Y-118839999D01*
X119224991Y-118850500D01*
X120775008Y-118850499D01*
X120877797Y-118839999D01*
X121044334Y-118784814D01*
X121193656Y-118692712D01*
X121317712Y-118568656D01*
X121409814Y-118419334D01*
X121464999Y-118252797D01*
X121475500Y-118150009D01*
X121475499Y-116849992D01*
X121464999Y-116747203D01*
X121409814Y-116580666D01*
X121317712Y-116431344D01*
X121193656Y-116307288D01*
X121044334Y-116215186D01*
X121044332Y-116215185D01*
X121038440Y-116211551D01*
X120991716Y-116159603D01*
X120980493Y-116090641D01*
X121008337Y-116026558D01*
X121015856Y-116018330D01*
X121154728Y-115879458D01*
X121279620Y-115707557D01*
X121376095Y-115518217D01*
X121441757Y-115316129D01*
X121441757Y-115316126D01*
X121452231Y-115250000D01*
X120404146Y-115250000D01*
X120442630Y-115183343D01*
X120475000Y-115062535D01*
X120475000Y-114937465D01*
X120442630Y-114816657D01*
X120404146Y-114750000D01*
X121452231Y-114750000D01*
X121441757Y-114683873D01*
X121441757Y-114683870D01*
X121376095Y-114481782D01*
X121279620Y-114292442D01*
X121154727Y-114120540D01*
X121154723Y-114120535D01*
X121004464Y-113970276D01*
X121004459Y-113970272D01*
X120839781Y-113850627D01*
X120797115Y-113795297D01*
X120791136Y-113725684D01*
X120823741Y-113663889D01*
X120839776Y-113649994D01*
X121004792Y-113530104D01*
X121155104Y-113379792D01*
X121155106Y-113379788D01*
X121155109Y-113379786D01*
X121280048Y-113207820D01*
X121280047Y-113207820D01*
X121280051Y-113207816D01*
X121376557Y-113018412D01*
X121442246Y-112816243D01*
X121475500Y-112606287D01*
X121475500Y-112393713D01*
X121442246Y-112183757D01*
X121376557Y-111981588D01*
X121280051Y-111792184D01*
X121280049Y-111792181D01*
X121280048Y-111792179D01*
X121155109Y-111620213D01*
X121004792Y-111469896D01*
X121004784Y-111469890D01*
X120840204Y-111350316D01*
X120797540Y-111294989D01*
X120791561Y-111225376D01*
X120824166Y-111163580D01*
X120840199Y-111149686D01*
X121004792Y-111030104D01*
X121155104Y-110879792D01*
X121155106Y-110879788D01*
X121155109Y-110879786D01*
X121280048Y-110707820D01*
X121280047Y-110707820D01*
X121280051Y-110707816D01*
X121376557Y-110518412D01*
X121442246Y-110316243D01*
X121475500Y-110106287D01*
X121475500Y-109999998D01*
X194994390Y-109999998D01*
X194994390Y-110000001D01*
X195014804Y-110285433D01*
X195075628Y-110565037D01*
X195175635Y-110833166D01*
X195312770Y-111084309D01*
X195312775Y-111084317D01*
X195484254Y-111313387D01*
X195484270Y-111313405D01*
X195686594Y-111515729D01*
X195686612Y-111515745D01*
X195915682Y-111687224D01*
X195915690Y-111687229D01*
X196166833Y-111824364D01*
X196166832Y-111824364D01*
X196166836Y-111824365D01*
X196166839Y-111824367D01*
X196434954Y-111924369D01*
X196434960Y-111924370D01*
X196434962Y-111924371D01*
X196714566Y-111985195D01*
X196714568Y-111985195D01*
X196714572Y-111985196D01*
X196968220Y-112003337D01*
X196999999Y-112005610D01*
X197000000Y-112005610D01*
X197000001Y-112005610D01*
X197028595Y-112003564D01*
X197285428Y-111985196D01*
X197565046Y-111924369D01*
X197833161Y-111824367D01*
X198084315Y-111687226D01*
X198313395Y-111515739D01*
X198515739Y-111313395D01*
X198687226Y-111084315D01*
X198824367Y-110833161D01*
X198924369Y-110565046D01*
X198978493Y-110316243D01*
X198985195Y-110285433D01*
X198985195Y-110285432D01*
X198985196Y-110285428D01*
X199005610Y-110000000D01*
X198985196Y-109714572D01*
X198978493Y-109683760D01*
X198924371Y-109434962D01*
X198924370Y-109434960D01*
X198924369Y-109434954D01*
X198824367Y-109166839D01*
X198798904Y-109120208D01*
X198687229Y-108915690D01*
X198687224Y-108915682D01*
X198515745Y-108686612D01*
X198515729Y-108686594D01*
X198313405Y-108484270D01*
X198313387Y-108484254D01*
X198084317Y-108312775D01*
X198084309Y-108312770D01*
X197833166Y-108175635D01*
X197833167Y-108175635D01*
X197725915Y-108135632D01*
X197565046Y-108075631D01*
X197565043Y-108075630D01*
X197565037Y-108075628D01*
X197285433Y-108014804D01*
X197000001Y-107994390D01*
X196999999Y-107994390D01*
X196714566Y-108014804D01*
X196434962Y-108075628D01*
X196166833Y-108175635D01*
X195915690Y-108312770D01*
X195915682Y-108312775D01*
X195686612Y-108484254D01*
X195686594Y-108484270D01*
X195484270Y-108686594D01*
X195484254Y-108686612D01*
X195312775Y-108915682D01*
X195312770Y-108915690D01*
X195175635Y-109166833D01*
X195075628Y-109434962D01*
X195014804Y-109714566D01*
X194994390Y-109999998D01*
X121475500Y-109999998D01*
X121475500Y-109893713D01*
X121442246Y-109683757D01*
X121376557Y-109481588D01*
X121280051Y-109292184D01*
X121280049Y-109292181D01*
X121280048Y-109292179D01*
X121155109Y-109120213D01*
X121004792Y-108969896D01*
X120930172Y-108915682D01*
X120840204Y-108850316D01*
X120797540Y-108794989D01*
X120791561Y-108725376D01*
X120824166Y-108663580D01*
X120840199Y-108649686D01*
X121004792Y-108530104D01*
X121155104Y-108379792D01*
X121155106Y-108379788D01*
X121155109Y-108379786D01*
X121280048Y-108207820D01*
X121280047Y-108207820D01*
X121280051Y-108207816D01*
X121376557Y-108018412D01*
X121442246Y-107816243D01*
X121475500Y-107606287D01*
X121475500Y-107393713D01*
X121442246Y-107183757D01*
X121376557Y-106981588D01*
X121280051Y-106792184D01*
X121280049Y-106792181D01*
X121280048Y-106792179D01*
X121155109Y-106620213D01*
X121004792Y-106469896D01*
X121004784Y-106469890D01*
X120840204Y-106350316D01*
X120797540Y-106294989D01*
X120791561Y-106225376D01*
X120824166Y-106163580D01*
X120840199Y-106149686D01*
X121004792Y-106030104D01*
X121155104Y-105879792D01*
X121155106Y-105879788D01*
X121155109Y-105879786D01*
X121280048Y-105707820D01*
X121280047Y-105707820D01*
X121280051Y-105707816D01*
X121376557Y-105518412D01*
X121442246Y-105316243D01*
X121475500Y-105106287D01*
X121475500Y-104893713D01*
X121442246Y-104683757D01*
X121376557Y-104481588D01*
X121280051Y-104292184D01*
X121280049Y-104292181D01*
X121280048Y-104292179D01*
X121155109Y-104120213D01*
X121004792Y-103969896D01*
X121004784Y-103969890D01*
X120840204Y-103850316D01*
X120797540Y-103794989D01*
X120791561Y-103725376D01*
X120824166Y-103663580D01*
X120840199Y-103649686D01*
X121004792Y-103530104D01*
X121155104Y-103379792D01*
X121155106Y-103379788D01*
X121155109Y-103379786D01*
X121280048Y-103207820D01*
X121280047Y-103207820D01*
X121280051Y-103207816D01*
X121376557Y-103018412D01*
X121442246Y-102816243D01*
X121475500Y-102606287D01*
X121475500Y-102393713D01*
X121442246Y-102183757D01*
X121376557Y-101981588D01*
X121280051Y-101792184D01*
X121280049Y-101792181D01*
X121280048Y-101792179D01*
X121155109Y-101620213D01*
X121004786Y-101469890D01*
X120832820Y-101344951D01*
X120643414Y-101248444D01*
X120643413Y-101248443D01*
X120643412Y-101248443D01*
X120441243Y-101182754D01*
X120441241Y-101182753D01*
X120441240Y-101182753D01*
X120279957Y-101157208D01*
X120231287Y-101149500D01*
X119768713Y-101149500D01*
X119720042Y-101157208D01*
X119558760Y-101182753D01*
X119356585Y-101248444D01*
X119167179Y-101344951D01*
X118995213Y-101469890D01*
X118844890Y-101620213D01*
X118719951Y-101792179D01*
X118623444Y-101981585D01*
X118557753Y-102183760D01*
X118524500Y-102393713D01*
X110500500Y-102393713D01*
X110500500Y-100624500D01*
X110520185Y-100557461D01*
X110572989Y-100511706D01*
X110624500Y-100500500D01*
X199375500Y-100500500D01*
X199442539Y-100520185D01*
G37*
%TD.AperFunction*%
%TD*%
M02*
