%TF.GenerationSoftware,KiCad,Pcbnew,8.0.5*%
%TF.CreationDate,2025-12-09T16:42:46+09:00*%
%TF.ProjectId,Line_board_V1.0,4c696e65-5f62-46f6-9172-645f56312e30,rev?*%
%TF.SameCoordinates,Original*%
%TF.FileFunction,Soldermask,Bot*%
%TF.FilePolarity,Negative*%
%FSLAX46Y46*%
G04 Gerber Fmt 4.6, Leading zero omitted, Abs format (unit mm)*
G04 Created by KiCad (PCBNEW 8.0.5) date 2025-12-09 16:42:46*
%MOMM*%
%LPD*%
G01*
G04 APERTURE LIST*
G04 Aperture macros list*
%AMRoundRect*
0 Rectangle with rounded corners*
0 $1 Rounding radius*
0 $2 $3 $4 $5 $6 $7 $8 $9 X,Y pos of 4 corners*
0 Add a 4 corners polygon primitive as box body*
4,1,4,$2,$3,$4,$5,$6,$7,$8,$9,$2,$3,0*
0 Add four circle primitives for the rounded corners*
1,1,$1+$1,$2,$3*
1,1,$1+$1,$4,$5*
1,1,$1+$1,$6,$7*
1,1,$1+$1,$8,$9*
0 Add four rect primitives between the rounded corners*
20,1,$1+$1,$2,$3,$4,$5,0*
20,1,$1+$1,$4,$5,$6,$7,0*
20,1,$1+$1,$6,$7,$8,$9,0*
20,1,$1+$1,$8,$9,$2,$3,0*%
G04 Aperture macros list end*
%ADD10O,1.950000X1.700000*%
%ADD11RoundRect,0.250000X0.725000X-0.600000X0.725000X0.600000X-0.725000X0.600000X-0.725000X-0.600000X0*%
%ADD12RoundRect,0.200000X0.200000X0.275000X-0.200000X0.275000X-0.200000X-0.275000X0.200000X-0.275000X0*%
%ADD13RoundRect,0.218750X0.218750X0.256250X-0.218750X0.256250X-0.218750X-0.256250X0.218750X-0.256250X0*%
%ADD14R,1.150000X0.600000*%
%ADD15R,1.150000X0.650000*%
G04 APERTURE END LIST*
D10*
%TO.C,J1*%
X120000000Y-102500000D03*
X120000000Y-105000000D03*
X120000000Y-107500000D03*
X120000000Y-110000000D03*
X120000000Y-112500000D03*
X120000000Y-115000000D03*
D11*
X120000000Y-117500000D03*
%TD*%
D12*
%TO.C,R13*%
X155825000Y-113000000D03*
X154175000Y-113000000D03*
%TD*%
D13*
%TO.C,D9*%
X177187500Y-104000000D03*
X175612500Y-104000000D03*
%TD*%
%TO.C,D5*%
X152687500Y-104000000D03*
X151112500Y-104000000D03*
%TD*%
%TO.C,D8*%
X171087500Y-104000000D03*
X169512500Y-104000000D03*
%TD*%
D14*
%TO.C,IC3*%
X139700000Y-116463000D03*
D15*
X139700000Y-115538000D03*
%TD*%
D14*
%TO.C,IC6*%
X158100000Y-116463000D03*
D15*
X158100000Y-115538000D03*
%TD*%
D13*
%TO.C,D4*%
X146587500Y-104000000D03*
X145012500Y-104000000D03*
%TD*%
%TO.C,D10*%
X183287500Y-104000000D03*
X181712500Y-104000000D03*
%TD*%
D12*
%TO.C,R2*%
X134425000Y-107000000D03*
X132775000Y-107000000D03*
%TD*%
D14*
%TO.C,IC5*%
X151900000Y-116463000D03*
D15*
X151900000Y-115538000D03*
%TD*%
D14*
%TO.C,IC4*%
X145800000Y-116463000D03*
D15*
X145800000Y-115538000D03*
%TD*%
D12*
%TO.C,R7*%
X165025000Y-107000000D03*
X163375000Y-107000000D03*
%TD*%
D14*
%TO.C,IC2*%
X133600000Y-116463000D03*
D15*
X133600000Y-115538000D03*
%TD*%
D13*
%TO.C,D3*%
X140487500Y-104000000D03*
X138912500Y-104000000D03*
%TD*%
D14*
%TO.C,IC9*%
X176400000Y-116463000D03*
D15*
X176400000Y-115538000D03*
%TD*%
D14*
%TO.C,IC7*%
X164200000Y-116463000D03*
D15*
X164200000Y-115538000D03*
%TD*%
D14*
%TO.C,IC10*%
X182500000Y-116463000D03*
D15*
X182500000Y-115538000D03*
%TD*%
D14*
%TO.C,IC8*%
X170300000Y-116463000D03*
D15*
X170300000Y-115538000D03*
%TD*%
D13*
%TO.C,D6*%
X158887500Y-104000000D03*
X157312500Y-104000000D03*
%TD*%
D12*
%TO.C,R3*%
X140525000Y-107000000D03*
X138875000Y-107000000D03*
%TD*%
%TO.C,R15*%
X180275000Y-113000000D03*
X178625000Y-113000000D03*
%TD*%
%TO.C,R12*%
X143575000Y-113000000D03*
X141925000Y-113000000D03*
%TD*%
D13*
%TO.C,D7*%
X164987500Y-104000000D03*
X163412500Y-104000000D03*
%TD*%
%TO.C,D2*%
X134387500Y-104000000D03*
X132812500Y-104000000D03*
%TD*%
D12*
%TO.C,R1*%
X128325000Y-107000000D03*
X126675000Y-107000000D03*
%TD*%
%TO.C,R11*%
X131375000Y-113000000D03*
X129725000Y-113000000D03*
%TD*%
%TO.C,R9*%
X177225000Y-107000000D03*
X175575000Y-107000000D03*
%TD*%
D13*
%TO.C,D1*%
X128287500Y-104000000D03*
X126712500Y-104000000D03*
%TD*%
D12*
%TO.C,R5*%
X152725000Y-107000000D03*
X151075000Y-107000000D03*
%TD*%
%TO.C,R10*%
X183325000Y-107000000D03*
X181675000Y-107000000D03*
%TD*%
%TO.C,R8*%
X171125000Y-107000000D03*
X169475000Y-107000000D03*
%TD*%
%TO.C,R4*%
X146625000Y-107000000D03*
X144975000Y-107000000D03*
%TD*%
%TO.C,R6*%
X158925000Y-107000000D03*
X157275000Y-107000000D03*
%TD*%
%TO.C,R14*%
X168075000Y-113000000D03*
X166425000Y-113000000D03*
%TD*%
D14*
%TO.C,IC1*%
X127500000Y-116463000D03*
D15*
X127500000Y-115538000D03*
%TD*%
M02*
