M48
; DRILL file {KiCad 8.0.5} date 2025-12-09T16:42:53+0900
; FORMAT={-:-/ absolute / metric / decimal}
; #@! TF.CreationDate,2025-12-09T16:42:53+09:00
; #@! TF.GenerationSoftware,Kicad,Pcbnew,8.0.5
; #@! TF.FileFunction,Plated,1,2,PTH
FMAT,2
METRIC
; #@! TA.AperFunction,Plated,PTH,ViaDrill
T1C0.300
; #@! TA.AperFunction,Plated,PTH,ComponentDrill
T2C0.950
%
G90
G05
T1
X111.125Y-118.3
X111.15Y-112.95
X111.25Y-105.175
X111.775Y-101.15
X115.325Y-101.025
X115.6Y-118.975
X116.0Y-104.75
X116.025Y-112.375
X121.7Y-101.125
X122.4Y-108.525
X122.55Y-114.725
X122.625Y-119.025
X123.35Y-107.025
X123.7Y-111.525
X124.825Y-105.0
X125.575Y-115.825
X126.575Y-119.025
X127.15Y-113.175
X127.875Y-100.875
X130.075Y-105.625
X130.775Y-116.05
X131.2Y-118.95
X133.65Y-100.875
X134.15Y-112.05
X135.05Y-119.1
X136.275Y-105.775
X136.7Y-115.875
X137.575Y-113.9
X139.775Y-101.05
X140.225Y-119.15
X142.2Y-105.425
X142.975Y-115.725
X146.5Y-111.6
X146.55Y-119.0
X146.65Y-101.05
X149.075Y-115.875
X149.65Y-105.775
X150.35Y-113.625
X151.5Y-101.45
X152.625Y-119.025
X155.0Y-105.8
X155.6Y-115.525
X158.225Y-111.15
X158.7Y-118.95
X159.175Y-100.925
X160.925Y-115.525
X161.05Y-105.85
X162.7Y-113.85
X163.925Y-119.025
X164.65Y-100.975
X167.075Y-105.675
X167.725Y-115.8
X169.975Y-110.9
X170.475Y-118.925
X171.275Y-100.8
X173.4Y-105.85
X173.4Y-115.325
X175.825Y-113.8
X176.125Y-101.225
X176.35Y-118.875
X179.725Y-105.8
X179.9Y-115.6
X181.325Y-110.45
X182.25Y-119.025
X183.675Y-112.4
X184.525Y-101.325
X188.025Y-118.85
X188.15Y-106.325
X188.375Y-102.275
X188.5Y-111.725
X192.3Y-107.5
X193.25Y-114.65
X193.575Y-118.75
X194.075Y-101.625
X198.55Y-101.55
X198.875Y-105.55
X198.925Y-112.925
X198.975Y-116.025
X199.0Y-118.85
T2
X120.0Y-102.5
X120.0Y-105.0
X120.0Y-107.5
X120.0Y-110.0
X120.0Y-112.5
X120.0Y-115.0
X120.0Y-117.5
M30
