%TF.GenerationSoftware,KiCad,Pcbnew,8.0.5*%
%TF.CreationDate,2025-12-09T16:42:46+09:00*%
%TF.ProjectId,Line_board_V1.0,4c696e65-5f62-46f6-9172-645f56312e30,rev?*%
%TF.SameCoordinates,Original*%
%TF.FileFunction,Copper,L2,Bot*%
%TF.FilePolarity,Positive*%
%FSLAX46Y46*%
G04 Gerber Fmt 4.6, Leading zero omitted, Abs format (unit mm)*
G04 Created by KiCad (PCBNEW 8.0.5) date 2025-12-09 16:42:46*
%MOMM*%
%LPD*%
G01*
G04 APERTURE LIST*
G04 Aperture macros list*
%AMRoundRect*
0 Rectangle with rounded corners*
0 $1 Rounding radius*
0 $2 $3 $4 $5 $6 $7 $8 $9 X,Y pos of 4 corners*
0 Add a 4 corners polygon primitive as box body*
4,1,4,$2,$3,$4,$5,$6,$7,$8,$9,$2,$3,0*
0 Add four circle primitives for the rounded corners*
1,1,$1+$1,$2,$3*
1,1,$1+$1,$4,$5*
1,1,$1+$1,$6,$7*
1,1,$1+$1,$8,$9*
0 Add four rect primitives between the rounded corners*
20,1,$1+$1,$2,$3,$4,$5,0*
20,1,$1+$1,$4,$5,$6,$7,0*
20,1,$1+$1,$6,$7,$8,$9,0*
20,1,$1+$1,$8,$9,$2,$3,0*%
G04 Aperture macros list end*
%TA.AperFunction,ComponentPad*%
%ADD10O,1.950000X1.700000*%
%TD*%
%TA.AperFunction,ComponentPad*%
%ADD11RoundRect,0.250000X0.725000X-0.600000X0.725000X0.600000X-0.725000X0.600000X-0.725000X-0.600000X0*%
%TD*%
%TA.AperFunction,SMDPad,CuDef*%
%ADD12RoundRect,0.200000X0.200000X0.275000X-0.200000X0.275000X-0.200000X-0.275000X0.200000X-0.275000X0*%
%TD*%
%TA.AperFunction,SMDPad,CuDef*%
%ADD13RoundRect,0.218750X0.218750X0.256250X-0.218750X0.256250X-0.218750X-0.256250X0.218750X-0.256250X0*%
%TD*%
%TA.AperFunction,SMDPad,CuDef*%
%ADD14R,1.150000X0.600000*%
%TD*%
%TA.AperFunction,SMDPad,CuDef*%
%ADD15R,1.150000X0.650000*%
%TD*%
%TA.AperFunction,ViaPad*%
%ADD16C,0.600000*%
%TD*%
%TA.AperFunction,Conductor*%
%ADD17C,0.500000*%
%TD*%
%TA.AperFunction,Conductor*%
%ADD18C,0.200000*%
%TD*%
G04 APERTURE END LIST*
D10*
%TO.P,J1,7,Pin_7*%
%TO.N,A4*%
X120000000Y-102500000D03*
%TO.P,J1,6,Pin_6*%
%TO.N,A3*%
X120000000Y-105000000D03*
%TO.P,J1,5,Pin_5*%
%TO.N,A2*%
X120000000Y-107500000D03*
%TO.P,J1,4,Pin_4*%
%TO.N,A1*%
X120000000Y-110000000D03*
%TO.P,J1,3,Pin_3*%
%TO.N,A0*%
X120000000Y-112500000D03*
%TO.P,J1,2,Pin_2*%
%TO.N,GND*%
X120000000Y-115000000D03*
D11*
%TO.P,J1,1,Pin_1*%
%TO.N,+3.3V*%
X120000000Y-117500000D03*
%TD*%
D12*
%TO.P,R13,1*%
%TO.N,A2*%
X155825000Y-113000000D03*
%TO.P,R13,2*%
%TO.N,GND*%
X154175000Y-113000000D03*
%TD*%
D13*
%TO.P,D9,1,K*%
%TO.N,GND*%
X177187500Y-104000000D03*
%TO.P,D9,2,A*%
%TO.N,Net-(D9-A)*%
X175612500Y-104000000D03*
%TD*%
%TO.P,D5,1,K*%
%TO.N,GND*%
X152687500Y-104000000D03*
%TO.P,D5,2,A*%
%TO.N,Net-(D5-A)*%
X151112500Y-104000000D03*
%TD*%
%TO.P,D8,1,K*%
%TO.N,GND*%
X171087500Y-104000000D03*
%TO.P,D8,2,A*%
%TO.N,Net-(D8-A)*%
X169512500Y-104000000D03*
%TD*%
D14*
%TO.P,IC3,1,C*%
%TO.N,+3.3V*%
X139700000Y-116463000D03*
D15*
%TO.P,IC3,2,E*%
%TO.N,A1*%
X139700000Y-115538000D03*
%TD*%
D14*
%TO.P,IC6,1,C*%
%TO.N,+3.3V*%
X158100000Y-116463000D03*
D15*
%TO.P,IC6,2,E*%
%TO.N,A2*%
X158100000Y-115538000D03*
%TD*%
D13*
%TO.P,D4,1,K*%
%TO.N,GND*%
X146587500Y-104000000D03*
%TO.P,D4,2,A*%
%TO.N,Net-(D4-A)*%
X145012500Y-104000000D03*
%TD*%
%TO.P,D10,1,K*%
%TO.N,GND*%
X183287500Y-104000000D03*
%TO.P,D10,2,A*%
%TO.N,Net-(D10-A)*%
X181712500Y-104000000D03*
%TD*%
D12*
%TO.P,R2,1*%
%TO.N,+3.3V*%
X134425000Y-107000000D03*
%TO.P,R2,2*%
%TO.N,Net-(D2-A)*%
X132775000Y-107000000D03*
%TD*%
D14*
%TO.P,IC5,1,C*%
%TO.N,+3.3V*%
X151900000Y-116463000D03*
D15*
%TO.P,IC5,2,E*%
%TO.N,A2*%
X151900000Y-115538000D03*
%TD*%
D14*
%TO.P,IC4,1,C*%
%TO.N,+3.3V*%
X145800000Y-116463000D03*
D15*
%TO.P,IC4,2,E*%
%TO.N,A1*%
X145800000Y-115538000D03*
%TD*%
D12*
%TO.P,R7,1*%
%TO.N,+3.3V*%
X165025000Y-107000000D03*
%TO.P,R7,2*%
%TO.N,Net-(D7-A)*%
X163375000Y-107000000D03*
%TD*%
D14*
%TO.P,IC2,1,C*%
%TO.N,+3.3V*%
X133600000Y-116463000D03*
D15*
%TO.P,IC2,2,E*%
%TO.N,A0*%
X133600000Y-115538000D03*
%TD*%
D13*
%TO.P,D3,1,K*%
%TO.N,GND*%
X140487500Y-104000000D03*
%TO.P,D3,2,A*%
%TO.N,Net-(D3-A)*%
X138912500Y-104000000D03*
%TD*%
D14*
%TO.P,IC9,1,C*%
%TO.N,+3.3V*%
X176400000Y-116463000D03*
D15*
%TO.P,IC9,2,E*%
%TO.N,A4*%
X176400000Y-115538000D03*
%TD*%
D14*
%TO.P,IC7,1,C*%
%TO.N,+3.3V*%
X164200000Y-116463000D03*
D15*
%TO.P,IC7,2,E*%
%TO.N,A3*%
X164200000Y-115538000D03*
%TD*%
D14*
%TO.P,IC10,1,C*%
%TO.N,+3.3V*%
X182500000Y-116463000D03*
D15*
%TO.P,IC10,2,E*%
%TO.N,A4*%
X182500000Y-115538000D03*
%TD*%
D14*
%TO.P,IC8,1,C*%
%TO.N,+3.3V*%
X170300000Y-116463000D03*
D15*
%TO.P,IC8,2,E*%
%TO.N,A3*%
X170300000Y-115538000D03*
%TD*%
D13*
%TO.P,D6,1,K*%
%TO.N,GND*%
X158887500Y-104000000D03*
%TO.P,D6,2,A*%
%TO.N,Net-(D6-A)*%
X157312500Y-104000000D03*
%TD*%
D12*
%TO.P,R3,1*%
%TO.N,+3.3V*%
X140525000Y-107000000D03*
%TO.P,R3,2*%
%TO.N,Net-(D3-A)*%
X138875000Y-107000000D03*
%TD*%
%TO.P,R15,1*%
%TO.N,A4*%
X180275000Y-113000000D03*
%TO.P,R15,2*%
%TO.N,GND*%
X178625000Y-113000000D03*
%TD*%
%TO.P,R12,1*%
%TO.N,A1*%
X143575000Y-113000000D03*
%TO.P,R12,2*%
%TO.N,GND*%
X141925000Y-113000000D03*
%TD*%
D13*
%TO.P,D7,1,K*%
%TO.N,GND*%
X164987500Y-104000000D03*
%TO.P,D7,2,A*%
%TO.N,Net-(D7-A)*%
X163412500Y-104000000D03*
%TD*%
%TO.P,D2,1,K*%
%TO.N,GND*%
X134387500Y-104000000D03*
%TO.P,D2,2,A*%
%TO.N,Net-(D2-A)*%
X132812500Y-104000000D03*
%TD*%
D12*
%TO.P,R1,1*%
%TO.N,+3.3V*%
X128325000Y-107000000D03*
%TO.P,R1,2*%
%TO.N,Net-(D1-A)*%
X126675000Y-107000000D03*
%TD*%
%TO.P,R11,1*%
%TO.N,A0*%
X131375000Y-113000000D03*
%TO.P,R11,2*%
%TO.N,GND*%
X129725000Y-113000000D03*
%TD*%
%TO.P,R9,1*%
%TO.N,+3.3V*%
X177225000Y-107000000D03*
%TO.P,R9,2*%
%TO.N,Net-(D9-A)*%
X175575000Y-107000000D03*
%TD*%
D13*
%TO.P,D1,1,K*%
%TO.N,GND*%
X128287500Y-104000000D03*
%TO.P,D1,2,A*%
%TO.N,Net-(D1-A)*%
X126712500Y-104000000D03*
%TD*%
D12*
%TO.P,R5,1*%
%TO.N,+3.3V*%
X152725000Y-107000000D03*
%TO.P,R5,2*%
%TO.N,Net-(D5-A)*%
X151075000Y-107000000D03*
%TD*%
%TO.P,R10,1*%
%TO.N,+3.3V*%
X183325000Y-107000000D03*
%TO.P,R10,2*%
%TO.N,Net-(D10-A)*%
X181675000Y-107000000D03*
%TD*%
%TO.P,R8,1*%
%TO.N,+3.3V*%
X171125000Y-107000000D03*
%TO.P,R8,2*%
%TO.N,Net-(D8-A)*%
X169475000Y-107000000D03*
%TD*%
%TO.P,R4,1*%
%TO.N,+3.3V*%
X146625000Y-107000000D03*
%TO.P,R4,2*%
%TO.N,Net-(D4-A)*%
X144975000Y-107000000D03*
%TD*%
%TO.P,R6,1*%
%TO.N,+3.3V*%
X158925000Y-107000000D03*
%TO.P,R6,2*%
%TO.N,Net-(D6-A)*%
X157275000Y-107000000D03*
%TD*%
%TO.P,R14,1*%
%TO.N,A3*%
X168075000Y-113000000D03*
%TO.P,R14,2*%
%TO.N,GND*%
X166425000Y-113000000D03*
%TD*%
D14*
%TO.P,IC1,1,C*%
%TO.N,+3.3V*%
X127500000Y-116463000D03*
D15*
%TO.P,IC1,2,E*%
%TO.N,A0*%
X127500000Y-115538000D03*
%TD*%
D16*
%TO.N,GND*%
X130775000Y-116050000D03*
X136700000Y-115875000D03*
X142975000Y-115725000D03*
X149075000Y-115875000D03*
X155600000Y-115525000D03*
X160925000Y-115525000D03*
X173400000Y-115325000D03*
X167725000Y-115800000D03*
X179900000Y-115600000D03*
X183675000Y-112400000D03*
X181325000Y-110450000D03*
X188150000Y-106325000D03*
X179725000Y-105800000D03*
X173400000Y-105850000D03*
X167075000Y-105675000D03*
X161050000Y-105850000D03*
X155000000Y-105800000D03*
X149650000Y-105775000D03*
X142200000Y-105425000D03*
X136275000Y-105775000D03*
X130075000Y-105625000D03*
X124825000Y-105000000D03*
X123350000Y-107025000D03*
X122400000Y-108525000D03*
X123700000Y-111525000D03*
X175825000Y-113800000D03*
X169975000Y-110900000D03*
X162700000Y-113850000D03*
X158225000Y-111150000D03*
X150350000Y-113625000D03*
X146500000Y-111600000D03*
X137575000Y-113900000D03*
X134150000Y-112050000D03*
X121700000Y-101125000D03*
X127875000Y-100875000D03*
X133650000Y-100875000D03*
X139775000Y-101050000D03*
X146650000Y-101050000D03*
X151500000Y-101450000D03*
X159175000Y-100925000D03*
X164650000Y-100975000D03*
X171275000Y-100800000D03*
X176125000Y-101225000D03*
X184525000Y-101325000D03*
X194075000Y-101625000D03*
X193250000Y-114650000D03*
X188500000Y-111725000D03*
X192300000Y-107500000D03*
X188375000Y-102275000D03*
X198875000Y-105550000D03*
X198550000Y-101550000D03*
X198975000Y-116025000D03*
X198925000Y-112925000D03*
X188025000Y-118850000D03*
X193575000Y-118750000D03*
X199000000Y-118850000D03*
X182250000Y-119025000D03*
X176350000Y-118875000D03*
X170475000Y-118925000D03*
X163925000Y-119025000D03*
X158700000Y-118950000D03*
X152625000Y-119025000D03*
X146550000Y-119000000D03*
X140225000Y-119150000D03*
X135050000Y-119100000D03*
X131200000Y-118950000D03*
X126575000Y-119025000D03*
X122625000Y-119025000D03*
X125575000Y-115825000D03*
X127150000Y-113175000D03*
X122550000Y-114725000D03*
X116025000Y-112375000D03*
X116000000Y-104750000D03*
X115600000Y-118975000D03*
X111125000Y-118300000D03*
X111150000Y-112950000D03*
X111250000Y-105175000D03*
X115325000Y-101025000D03*
X111775000Y-101150000D03*
%TD*%
D17*
%TO.N,Net-(D2-A)*%
X132812500Y-106962500D02*
X132775000Y-107000000D01*
X132812500Y-104000000D02*
X132812500Y-106962500D01*
%TO.N,+3.3V*%
X171125000Y-107000000D02*
X172475000Y-108350000D01*
X172875000Y-108350000D02*
X166750000Y-108350000D01*
X178750000Y-108350000D02*
X172875000Y-108350000D01*
X165025000Y-107000000D02*
X166375000Y-108350000D01*
X166750000Y-108350000D02*
X160350000Y-108350000D01*
X158925000Y-107000000D02*
X160275000Y-108350000D01*
X160350000Y-108350000D02*
X129675000Y-108350000D01*
X177225000Y-107000000D02*
X178575000Y-108350000D01*
X184675000Y-108350000D02*
X178750000Y-108350000D01*
X129675000Y-108350000D02*
X128325000Y-107000000D01*
X185950000Y-109625000D02*
X184675000Y-108350000D01*
X185950000Y-115825000D02*
X185950000Y-109625000D01*
X184275000Y-117500000D02*
X185950000Y-115825000D01*
X181463000Y-117500000D02*
X184275000Y-117500000D01*
X183325000Y-107000000D02*
X184675000Y-108350000D01*
X152725000Y-107000000D02*
X154075000Y-108350000D01*
X146625000Y-107000000D02*
X147975000Y-108350000D01*
X140525000Y-107000000D02*
X141875000Y-108350000D01*
X134425000Y-107000000D02*
X135775000Y-108350000D01*
%TO.N,Net-(D3-A)*%
X138912500Y-106962500D02*
X138875000Y-107000000D01*
X138912500Y-104000000D02*
X138912500Y-106962500D01*
%TO.N,Net-(D10-A)*%
X181675000Y-104037500D02*
X181712500Y-104000000D01*
X181675000Y-107000000D02*
X181675000Y-104037500D01*
%TO.N,Net-(D9-A)*%
X175575000Y-107000000D02*
X175575000Y-104037500D01*
X175575000Y-104037500D02*
X175612500Y-104000000D01*
%TO.N,Net-(D8-A)*%
X169475000Y-104037500D02*
X169512500Y-104000000D01*
X169475000Y-107000000D02*
X169475000Y-104037500D01*
%TO.N,Net-(D7-A)*%
X163375000Y-104037500D02*
X163412500Y-104000000D01*
X163375000Y-107000000D02*
X163375000Y-104037500D01*
%TO.N,Net-(D6-A)*%
X157312500Y-106962500D02*
X157275000Y-107000000D01*
X157312500Y-104000000D02*
X157312500Y-106962500D01*
%TO.N,Net-(D5-A)*%
X151112500Y-106962500D02*
X151075000Y-107000000D01*
X151112500Y-104000000D02*
X151112500Y-106962500D01*
%TO.N,Net-(D4-A)*%
X144975000Y-104037500D02*
X145012500Y-104000000D01*
X144975000Y-107000000D02*
X144975000Y-104037500D01*
%TO.N,Net-(D1-A)*%
X126712500Y-106962500D02*
X126712500Y-104000000D01*
X126675000Y-107000000D02*
X126712500Y-106962500D01*
D18*
%TO.N,A4*%
X126875000Y-109375000D02*
X120000000Y-102500000D01*
X180275000Y-112275000D02*
X177375000Y-109375000D01*
X177375000Y-109375000D02*
X126875000Y-109375000D01*
X180275000Y-113000000D02*
X180275000Y-112275000D01*
%TO.N,A3*%
X124775000Y-109775000D02*
X120000000Y-105000000D01*
X168075000Y-111750000D02*
X166100000Y-109775000D01*
X168075000Y-113000000D02*
X168075000Y-111750000D01*
X166100000Y-109775000D02*
X124775000Y-109775000D01*
%TO.N,A2*%
X122675000Y-110175000D02*
X120000000Y-107500000D01*
X153800000Y-110175000D02*
X122675000Y-110175000D01*
X155825000Y-112200000D02*
X153800000Y-110175000D01*
X155825000Y-113000000D02*
X155825000Y-112200000D01*
%TO.N,A1*%
X141800000Y-110575000D02*
X120575000Y-110575000D01*
X143575000Y-112350000D02*
X141800000Y-110575000D01*
X143575000Y-113000000D02*
X143575000Y-112350000D01*
X120575000Y-110575000D02*
X120000000Y-110000000D01*
%TO.N,A0*%
X131375000Y-112275000D02*
X131375000Y-113000000D01*
X130075000Y-110975000D02*
X131375000Y-112275000D01*
X127075000Y-110975000D02*
X130075000Y-110975000D01*
X125550000Y-112500000D02*
X127075000Y-110975000D01*
X120000000Y-112500000D02*
X125550000Y-112500000D01*
%TO.N,A4*%
X177737000Y-115538000D02*
X180275000Y-113000000D01*
X176400000Y-115538000D02*
X177737000Y-115538000D01*
X182500000Y-115225000D02*
X180275000Y-113000000D01*
X182500000Y-115538000D02*
X182500000Y-115225000D01*
%TO.N,A3*%
X170300000Y-115225000D02*
X168075000Y-113000000D01*
X170300000Y-115538000D02*
X170300000Y-115225000D01*
X165537000Y-115538000D02*
X168075000Y-113000000D01*
X164200000Y-115538000D02*
X165537000Y-115538000D01*
%TO.N,A2*%
X158100000Y-115275000D02*
X155825000Y-113000000D01*
X158100000Y-115538000D02*
X158100000Y-115275000D01*
X153287000Y-115538000D02*
X155825000Y-113000000D01*
X151900000Y-115538000D02*
X153287000Y-115538000D01*
%TO.N,A0*%
X133600000Y-115225000D02*
X131375000Y-113000000D01*
X133600000Y-115538000D02*
X133600000Y-115225000D01*
%TO.N,A1*%
X145800000Y-115225000D02*
X143575000Y-113000000D01*
X145800000Y-115538000D02*
X145800000Y-115225000D01*
%TO.N,A0*%
X128837000Y-115538000D02*
X131375000Y-113000000D01*
X127500000Y-115538000D02*
X128837000Y-115538000D01*
%TO.N,A1*%
X141037000Y-115538000D02*
X143575000Y-113000000D01*
X139700000Y-115538000D02*
X141037000Y-115538000D01*
D17*
%TO.N,+3.3V*%
X120000000Y-117500000D02*
X150863000Y-117500000D01*
X181463000Y-117500000D02*
X182500000Y-116463000D01*
X175363000Y-117500000D02*
X181463000Y-117500000D01*
X175363000Y-117500000D02*
X169263000Y-117500000D01*
X176400000Y-116463000D02*
X175363000Y-117500000D01*
X170300000Y-116463000D02*
X169263000Y-117500000D01*
X163163000Y-117500000D02*
X169263000Y-117500000D01*
X163163000Y-117500000D02*
X164200000Y-116463000D01*
X163163000Y-117500000D02*
X157063000Y-117500000D01*
X158100000Y-116463000D02*
X157063000Y-117500000D01*
X157063000Y-117500000D02*
X150863000Y-117500000D01*
X150863000Y-117500000D02*
X151900000Y-116463000D01*
X145800000Y-116463000D02*
X144763000Y-117500000D01*
X139700000Y-116463000D02*
X138663000Y-117500000D01*
X133600000Y-116463000D02*
X132563000Y-117500000D01*
X126463000Y-117500000D02*
X127500000Y-116463000D01*
%TD*%
%TA.AperFunction,Conductor*%
%TO.N,GND*%
G36*
X129841942Y-111595185D02*
G01*
X129862584Y-111611819D01*
X130064084Y-111813319D01*
X130097569Y-111874642D01*
X130092585Y-111944334D01*
X130050713Y-112000267D01*
X129985249Y-112024684D01*
X129976403Y-112025000D01*
X129975000Y-112025000D01*
X129975000Y-113126000D01*
X129955315Y-113193039D01*
X129902511Y-113238794D01*
X129851000Y-113250000D01*
X128825001Y-113250000D01*
X128825001Y-113331582D01*
X128831408Y-113402102D01*
X128831409Y-113402107D01*
X128881981Y-113564396D01*
X128969927Y-113709877D01*
X129090122Y-113830072D01*
X129235604Y-113918019D01*
X129235603Y-113918019D01*
X129323498Y-113945408D01*
X129381646Y-113984145D01*
X129409620Y-114048170D01*
X129398538Y-114117156D01*
X129374289Y-114151474D01*
X128635525Y-114890239D01*
X128574202Y-114923724D01*
X128504511Y-114918740D01*
X128448577Y-114876868D01*
X128432550Y-114855458D01*
X128432547Y-114855455D01*
X128432546Y-114855454D01*
X128432542Y-114855451D01*
X128317335Y-114769206D01*
X128317328Y-114769202D01*
X128182482Y-114718908D01*
X128182483Y-114718908D01*
X128122883Y-114712501D01*
X128122881Y-114712500D01*
X128122873Y-114712500D01*
X128122864Y-114712500D01*
X126877129Y-114712500D01*
X126877123Y-114712501D01*
X126817516Y-114718908D01*
X126682671Y-114769202D01*
X126682664Y-114769206D01*
X126567455Y-114855452D01*
X126567452Y-114855455D01*
X126481206Y-114970664D01*
X126481202Y-114970671D01*
X126433725Y-115097966D01*
X126430909Y-115105517D01*
X126424500Y-115165127D01*
X126424500Y-115165134D01*
X126424500Y-115165135D01*
X126424500Y-115910870D01*
X126424501Y-115910876D01*
X126430908Y-115970479D01*
X126432692Y-115978026D01*
X126431229Y-115978371D01*
X126435585Y-116039371D01*
X126431173Y-116054396D01*
X126430908Y-116055517D01*
X126424501Y-116115116D01*
X126424501Y-116115123D01*
X126424500Y-116115135D01*
X126424500Y-116425769D01*
X126404815Y-116492808D01*
X126388181Y-116513450D01*
X126188451Y-116713181D01*
X126127128Y-116746666D01*
X126100770Y-116749500D01*
X121555301Y-116749500D01*
X121488262Y-116729815D01*
X121442507Y-116677011D01*
X121437595Y-116664504D01*
X121409814Y-116580666D01*
X121317712Y-116431344D01*
X121193656Y-116307288D01*
X121044334Y-116215186D01*
X121044332Y-116215185D01*
X121038440Y-116211551D01*
X120991716Y-116159603D01*
X120980493Y-116090641D01*
X121008337Y-116026558D01*
X121015856Y-116018330D01*
X121154728Y-115879458D01*
X121279620Y-115707557D01*
X121376095Y-115518217D01*
X121441757Y-115316129D01*
X121441757Y-115316126D01*
X121452231Y-115250000D01*
X120404146Y-115250000D01*
X120442630Y-115183343D01*
X120475000Y-115062535D01*
X120475000Y-114937465D01*
X120442630Y-114816657D01*
X120404146Y-114750000D01*
X121452231Y-114750000D01*
X121441757Y-114683873D01*
X121441757Y-114683870D01*
X121376095Y-114481782D01*
X121279620Y-114292442D01*
X121154727Y-114120540D01*
X121154723Y-114120535D01*
X121004464Y-113970276D01*
X121004459Y-113970272D01*
X120839781Y-113850627D01*
X120797115Y-113795297D01*
X120791136Y-113725684D01*
X120823741Y-113663889D01*
X120839776Y-113649994D01*
X121004792Y-113530104D01*
X121155104Y-113379792D01*
X121155106Y-113379788D01*
X121155109Y-113379786D01*
X121213661Y-113299193D01*
X121280051Y-113207816D01*
X121280349Y-113207230D01*
X121300235Y-113168205D01*
X121348209Y-113117409D01*
X121410719Y-113100500D01*
X125463331Y-113100500D01*
X125463347Y-113100501D01*
X125470943Y-113100501D01*
X125629054Y-113100501D01*
X125629057Y-113100501D01*
X125781785Y-113059577D01*
X125831904Y-113030639D01*
X125918716Y-112980520D01*
X126030520Y-112868716D01*
X126030520Y-112868714D01*
X126040728Y-112858507D01*
X126040729Y-112858504D01*
X126230806Y-112668427D01*
X128825000Y-112668427D01*
X128825000Y-112750000D01*
X129475000Y-112750000D01*
X129475000Y-112025000D01*
X129474999Y-112024999D01*
X129468436Y-112025000D01*
X129468417Y-112025001D01*
X129397897Y-112031408D01*
X129397892Y-112031409D01*
X129235603Y-112081981D01*
X129090122Y-112169927D01*
X128969927Y-112290122D01*
X128881980Y-112435604D01*
X128831409Y-112597893D01*
X128825000Y-112668427D01*
X126230806Y-112668427D01*
X127287417Y-111611819D01*
X127348740Y-111578334D01*
X127375098Y-111575500D01*
X129774903Y-111575500D01*
X129841942Y-111595185D01*
G37*
%TD.AperFunction*%
%TA.AperFunction,Conductor*%
G36*
X131516942Y-113995185D02*
G01*
X131537584Y-114011819D01*
X132501826Y-114976061D01*
X132535311Y-115037384D01*
X132531011Y-115097568D01*
X132532693Y-115097966D01*
X132530908Y-115105517D01*
X132524501Y-115165117D01*
X132524501Y-115165123D01*
X132524500Y-115165136D01*
X132524500Y-115910870D01*
X132524501Y-115910876D01*
X132530908Y-115970479D01*
X132532692Y-115978026D01*
X132531229Y-115978371D01*
X132535585Y-116039371D01*
X132531173Y-116054396D01*
X132530908Y-116055517D01*
X132524501Y-116115116D01*
X132524501Y-116115123D01*
X132524500Y-116115135D01*
X132524500Y-116425769D01*
X132504815Y-116492808D01*
X132488181Y-116513450D01*
X132288451Y-116713181D01*
X132227128Y-116746666D01*
X132200770Y-116749500D01*
X128699500Y-116749500D01*
X128632461Y-116729815D01*
X128586706Y-116677011D01*
X128575500Y-116625500D01*
X128575499Y-116262500D01*
X128595183Y-116195461D01*
X128647987Y-116149706D01*
X128699499Y-116138500D01*
X128750331Y-116138500D01*
X128750347Y-116138501D01*
X128757943Y-116138501D01*
X128916054Y-116138501D01*
X128916057Y-116138501D01*
X129068785Y-116097577D01*
X129118904Y-116068639D01*
X129205716Y-116018520D01*
X129317520Y-115906716D01*
X129317520Y-115906714D01*
X129327728Y-115896507D01*
X129327729Y-115896504D01*
X131212416Y-114011819D01*
X131273739Y-113978334D01*
X131300097Y-113975500D01*
X131449903Y-113975500D01*
X131516942Y-113995185D01*
G37*
%TD.AperFunction*%
%TA.AperFunction,Conductor*%
G36*
X141566942Y-111195185D02*
G01*
X141587584Y-111211819D01*
X142200201Y-111824436D01*
X142233686Y-111885759D01*
X142228702Y-111955451D01*
X142200202Y-111999798D01*
X142175000Y-112025000D01*
X142175000Y-113126000D01*
X142155315Y-113193039D01*
X142102511Y-113238794D01*
X142051000Y-113250000D01*
X141025001Y-113250000D01*
X141025001Y-113331582D01*
X141031408Y-113402102D01*
X141031409Y-113402107D01*
X141081981Y-113564396D01*
X141169927Y-113709877D01*
X141290122Y-113830072D01*
X141435604Y-113918019D01*
X141435603Y-113918019D01*
X141523498Y-113945408D01*
X141581646Y-113984145D01*
X141609620Y-114048170D01*
X141598538Y-114117156D01*
X141574289Y-114151474D01*
X140835525Y-114890239D01*
X140774202Y-114923724D01*
X140704511Y-114918740D01*
X140648577Y-114876868D01*
X140632550Y-114855458D01*
X140632547Y-114855455D01*
X140632546Y-114855454D01*
X140632542Y-114855451D01*
X140517335Y-114769206D01*
X140517328Y-114769202D01*
X140382482Y-114718908D01*
X140382483Y-114718908D01*
X140322883Y-114712501D01*
X140322881Y-114712500D01*
X140322873Y-114712500D01*
X140322864Y-114712500D01*
X139077129Y-114712500D01*
X139077123Y-114712501D01*
X139017516Y-114718908D01*
X138882671Y-114769202D01*
X138882664Y-114769206D01*
X138767455Y-114855452D01*
X138767452Y-114855455D01*
X138681206Y-114970664D01*
X138681202Y-114970671D01*
X138633725Y-115097966D01*
X138630909Y-115105517D01*
X138624500Y-115165127D01*
X138624500Y-115165134D01*
X138624500Y-115165135D01*
X138624500Y-115910870D01*
X138624501Y-115910876D01*
X138630908Y-115970479D01*
X138632692Y-115978026D01*
X138631229Y-115978371D01*
X138635585Y-116039371D01*
X138631173Y-116054396D01*
X138630908Y-116055517D01*
X138624501Y-116115116D01*
X138624501Y-116115123D01*
X138624500Y-116115135D01*
X138624500Y-116425769D01*
X138604815Y-116492808D01*
X138588181Y-116513450D01*
X138388451Y-116713181D01*
X138327128Y-116746666D01*
X138300770Y-116749500D01*
X134799500Y-116749500D01*
X134732461Y-116729815D01*
X134686706Y-116677011D01*
X134675500Y-116625500D01*
X134675499Y-116115129D01*
X134675498Y-116115123D01*
X134675498Y-116115116D01*
X134669091Y-116055517D01*
X134669090Y-116055515D01*
X134669090Y-116055512D01*
X134667308Y-116047969D01*
X134668773Y-116047622D01*
X134664409Y-115986651D01*
X134668819Y-115971633D01*
X134669089Y-115970488D01*
X134669088Y-115970488D01*
X134669091Y-115970483D01*
X134675500Y-115910873D01*
X134675499Y-115165128D01*
X134669091Y-115105517D01*
X134666126Y-115097568D01*
X134618797Y-114970671D01*
X134618793Y-114970664D01*
X134532547Y-114855455D01*
X134532544Y-114855452D01*
X134417335Y-114769206D01*
X134417328Y-114769202D01*
X134282482Y-114718908D01*
X134282483Y-114718908D01*
X134222883Y-114712501D01*
X134222881Y-114712500D01*
X134222873Y-114712500D01*
X134222865Y-114712500D01*
X133988097Y-114712500D01*
X133921058Y-114692815D01*
X133900416Y-114676181D01*
X132311819Y-113087584D01*
X132278334Y-113026261D01*
X132275500Y-112999903D01*
X132275500Y-112668427D01*
X141025000Y-112668427D01*
X141025000Y-112750000D01*
X141675000Y-112750000D01*
X141675000Y-112025000D01*
X141674999Y-112024999D01*
X141668436Y-112025000D01*
X141668417Y-112025001D01*
X141597897Y-112031408D01*
X141597892Y-112031409D01*
X141435603Y-112081981D01*
X141290122Y-112169927D01*
X141169927Y-112290122D01*
X141081980Y-112435604D01*
X141031409Y-112597893D01*
X141025000Y-112668427D01*
X132275500Y-112668427D01*
X132275500Y-112668386D01*
X132269086Y-112597807D01*
X132269086Y-112597804D01*
X132218478Y-112435394D01*
X132130472Y-112289815D01*
X132130470Y-112289813D01*
X132130469Y-112289811D01*
X132010188Y-112169530D01*
X132010183Y-112169526D01*
X132003055Y-112165217D01*
X131955869Y-112113688D01*
X131947433Y-112091196D01*
X131947433Y-112091195D01*
X131934577Y-112043216D01*
X131927760Y-112031408D01*
X131855524Y-111906290D01*
X131855518Y-111906282D01*
X131620179Y-111670943D01*
X131336415Y-111387180D01*
X131302931Y-111325858D01*
X131307915Y-111256167D01*
X131349786Y-111200233D01*
X131415251Y-111175816D01*
X131424097Y-111175500D01*
X141499903Y-111175500D01*
X141566942Y-111195185D01*
G37*
%TD.AperFunction*%
%TA.AperFunction,Conductor*%
G36*
X143716942Y-113995185D02*
G01*
X143737584Y-114011819D01*
X144701826Y-114976061D01*
X144735311Y-115037384D01*
X144731011Y-115097568D01*
X144732693Y-115097966D01*
X144730908Y-115105517D01*
X144724501Y-115165117D01*
X144724501Y-115165123D01*
X144724500Y-115165136D01*
X144724500Y-115910870D01*
X144724501Y-115910876D01*
X144730908Y-115970479D01*
X144732692Y-115978026D01*
X144731229Y-115978371D01*
X144735585Y-116039371D01*
X144731173Y-116054396D01*
X144730908Y-116055517D01*
X144724501Y-116115116D01*
X144724501Y-116115123D01*
X144724500Y-116115135D01*
X144724500Y-116425769D01*
X144704815Y-116492808D01*
X144688181Y-116513450D01*
X144488451Y-116713181D01*
X144427128Y-116746666D01*
X144400770Y-116749500D01*
X140899500Y-116749500D01*
X140832461Y-116729815D01*
X140786706Y-116677011D01*
X140775500Y-116625500D01*
X140775499Y-116262500D01*
X140795183Y-116195461D01*
X140847987Y-116149706D01*
X140899499Y-116138500D01*
X140950331Y-116138500D01*
X140950347Y-116138501D01*
X140957943Y-116138501D01*
X141116054Y-116138501D01*
X141116057Y-116138501D01*
X141268785Y-116097577D01*
X141318904Y-116068639D01*
X141405716Y-116018520D01*
X141517520Y-115906716D01*
X141517520Y-115906714D01*
X141527728Y-115896507D01*
X141527729Y-115896504D01*
X143412416Y-114011819D01*
X143473739Y-113978334D01*
X143500097Y-113975500D01*
X143649903Y-113975500D01*
X143716942Y-113995185D01*
G37*
%TD.AperFunction*%
%TA.AperFunction,Conductor*%
G36*
X153566942Y-110795185D02*
G01*
X153587584Y-110811819D01*
X154595501Y-111819736D01*
X154628986Y-111881059D01*
X154624002Y-111950751D01*
X154582130Y-112006684D01*
X154516666Y-112031101D01*
X154496600Y-112030908D01*
X154431574Y-112025000D01*
X154425000Y-112025000D01*
X154425000Y-113126000D01*
X154405315Y-113193039D01*
X154352511Y-113238794D01*
X154301000Y-113250000D01*
X153275001Y-113250000D01*
X153275001Y-113331582D01*
X153281408Y-113402102D01*
X153281409Y-113402107D01*
X153331981Y-113564396D01*
X153419927Y-113709877D01*
X153540122Y-113830072D01*
X153685604Y-113918019D01*
X153685603Y-113918019D01*
X153773498Y-113945408D01*
X153831646Y-113984145D01*
X153859620Y-114048170D01*
X153848538Y-114117156D01*
X153824289Y-114151474D01*
X153074584Y-114901181D01*
X153013261Y-114934666D01*
X152986903Y-114937500D01*
X152956035Y-114937500D01*
X152888996Y-114917815D01*
X152856768Y-114887810D01*
X152832550Y-114855458D01*
X152832547Y-114855455D01*
X152832546Y-114855454D01*
X152832542Y-114855451D01*
X152717335Y-114769206D01*
X152717328Y-114769202D01*
X152582482Y-114718908D01*
X152582483Y-114718908D01*
X152522883Y-114712501D01*
X152522881Y-114712500D01*
X152522873Y-114712500D01*
X152522864Y-114712500D01*
X151277129Y-114712500D01*
X151277123Y-114712501D01*
X151217516Y-114718908D01*
X151082671Y-114769202D01*
X151082664Y-114769206D01*
X150967455Y-114855452D01*
X150967452Y-114855455D01*
X150881206Y-114970664D01*
X150881202Y-114970671D01*
X150833725Y-115097966D01*
X150830909Y-115105517D01*
X150824500Y-115165127D01*
X150824500Y-115165134D01*
X150824500Y-115165135D01*
X150824500Y-115910870D01*
X150824501Y-115910876D01*
X150830908Y-115970479D01*
X150832692Y-115978026D01*
X150831229Y-115978371D01*
X150835585Y-116039371D01*
X150831173Y-116054396D01*
X150830908Y-116055517D01*
X150824501Y-116115116D01*
X150824501Y-116115123D01*
X150824500Y-116115135D01*
X150824500Y-116425769D01*
X150804815Y-116492808D01*
X150788181Y-116513450D01*
X150588451Y-116713181D01*
X150527128Y-116746666D01*
X150500770Y-116749500D01*
X146999500Y-116749500D01*
X146932461Y-116729815D01*
X146886706Y-116677011D01*
X146875500Y-116625500D01*
X146875499Y-116115129D01*
X146875498Y-116115123D01*
X146875498Y-116115116D01*
X146869091Y-116055517D01*
X146869090Y-116055515D01*
X146869090Y-116055512D01*
X146867308Y-116047969D01*
X146868773Y-116047622D01*
X146864409Y-115986651D01*
X146868819Y-115971633D01*
X146869089Y-115970488D01*
X146869088Y-115970488D01*
X146869091Y-115970483D01*
X146875500Y-115910873D01*
X146875499Y-115165128D01*
X146869091Y-115105517D01*
X146866126Y-115097568D01*
X146818797Y-114970671D01*
X146818793Y-114970664D01*
X146732547Y-114855455D01*
X146732544Y-114855452D01*
X146617335Y-114769206D01*
X146617328Y-114769202D01*
X146482482Y-114718908D01*
X146482483Y-114718908D01*
X146422883Y-114712501D01*
X146422881Y-114712500D01*
X146422873Y-114712500D01*
X146422865Y-114712500D01*
X146188097Y-114712500D01*
X146121058Y-114692815D01*
X146100416Y-114676181D01*
X144511819Y-113087584D01*
X144478334Y-113026261D01*
X144475500Y-112999903D01*
X144475500Y-112668427D01*
X153275000Y-112668427D01*
X153275000Y-112750000D01*
X153925000Y-112750000D01*
X153925000Y-112025000D01*
X153924999Y-112024999D01*
X153918436Y-112025000D01*
X153918417Y-112025001D01*
X153847897Y-112031408D01*
X153847892Y-112031409D01*
X153685603Y-112081981D01*
X153540122Y-112169927D01*
X153419927Y-112290122D01*
X153331980Y-112435604D01*
X153281409Y-112597893D01*
X153275000Y-112668427D01*
X144475500Y-112668427D01*
X144475500Y-112668386D01*
X144469086Y-112597807D01*
X144469086Y-112597804D01*
X144418478Y-112435394D01*
X144330472Y-112289815D01*
X144330470Y-112289813D01*
X144330469Y-112289811D01*
X144210188Y-112169530D01*
X144210181Y-112169526D01*
X144166839Y-112143324D01*
X144123605Y-112099209D01*
X144091277Y-112043217D01*
X144091276Y-112043216D01*
X144055520Y-111981284D01*
X143943716Y-111869480D01*
X143943715Y-111869479D01*
X143939385Y-111865149D01*
X143939374Y-111865139D01*
X143061416Y-110987181D01*
X143027931Y-110925858D01*
X143032915Y-110856166D01*
X143074787Y-110800233D01*
X143140251Y-110775816D01*
X143149097Y-110775500D01*
X153499903Y-110775500D01*
X153566942Y-110795185D01*
G37*
%TD.AperFunction*%
%TA.AperFunction,Conductor*%
G36*
X155966942Y-113995185D02*
G01*
X155987584Y-114011819D01*
X156993849Y-115018084D01*
X157027334Y-115079407D01*
X157029457Y-115119015D01*
X157024500Y-115165127D01*
X157024500Y-115165134D01*
X157024500Y-115165135D01*
X157024500Y-115910870D01*
X157024501Y-115910876D01*
X157030908Y-115970479D01*
X157032692Y-115978026D01*
X157031229Y-115978371D01*
X157035585Y-116039371D01*
X157031173Y-116054396D01*
X157030908Y-116055517D01*
X157024501Y-116115116D01*
X157024501Y-116115123D01*
X157024500Y-116115135D01*
X157024500Y-116425769D01*
X157004815Y-116492808D01*
X156988181Y-116513450D01*
X156788451Y-116713181D01*
X156727128Y-116746666D01*
X156700770Y-116749500D01*
X153099500Y-116749500D01*
X153032461Y-116729815D01*
X152986706Y-116677011D01*
X152975500Y-116625500D01*
X152975499Y-116262500D01*
X152995183Y-116195461D01*
X153047987Y-116149706D01*
X153099499Y-116138500D01*
X153200331Y-116138500D01*
X153200347Y-116138501D01*
X153207943Y-116138501D01*
X153366054Y-116138501D01*
X153366057Y-116138501D01*
X153518785Y-116097577D01*
X153568904Y-116068639D01*
X153655716Y-116018520D01*
X153767520Y-115906716D01*
X153767520Y-115906714D01*
X153777728Y-115896507D01*
X153777729Y-115896504D01*
X155662416Y-114011819D01*
X155723739Y-113978334D01*
X155750097Y-113975500D01*
X155899903Y-113975500D01*
X155966942Y-113995185D01*
G37*
%TD.AperFunction*%
%TA.AperFunction,Conductor*%
G36*
X165866942Y-110395185D02*
G01*
X165887584Y-110411819D01*
X167438181Y-111962416D01*
X167471666Y-112023739D01*
X167474500Y-112050097D01*
X167474500Y-112083480D01*
X167454815Y-112150519D01*
X167438181Y-112171161D01*
X167337327Y-112272015D01*
X167276004Y-112305500D01*
X167206312Y-112300516D01*
X167161965Y-112272015D01*
X167059877Y-112169927D01*
X166914395Y-112081980D01*
X166914396Y-112081980D01*
X166752105Y-112031409D01*
X166752106Y-112031409D01*
X166681572Y-112025000D01*
X166675000Y-112025000D01*
X166675000Y-113126000D01*
X166655315Y-113193039D01*
X166602511Y-113238794D01*
X166551000Y-113250000D01*
X165525001Y-113250000D01*
X165525001Y-113331582D01*
X165531408Y-113402102D01*
X165531409Y-113402107D01*
X165581981Y-113564396D01*
X165669927Y-113709877D01*
X165790122Y-113830072D01*
X165935604Y-113918019D01*
X165935603Y-113918019D01*
X166023498Y-113945408D01*
X166081646Y-113984145D01*
X166109620Y-114048170D01*
X166098538Y-114117156D01*
X166074289Y-114151474D01*
X165335525Y-114890239D01*
X165274202Y-114923724D01*
X165204511Y-114918740D01*
X165148577Y-114876868D01*
X165132550Y-114855458D01*
X165132547Y-114855455D01*
X165132546Y-114855454D01*
X165132542Y-114855451D01*
X165017335Y-114769206D01*
X165017328Y-114769202D01*
X164882482Y-114718908D01*
X164882483Y-114718908D01*
X164822883Y-114712501D01*
X164822881Y-114712500D01*
X164822873Y-114712500D01*
X164822864Y-114712500D01*
X163577129Y-114712500D01*
X163577123Y-114712501D01*
X163517516Y-114718908D01*
X163382671Y-114769202D01*
X163382664Y-114769206D01*
X163267455Y-114855452D01*
X163267452Y-114855455D01*
X163181206Y-114970664D01*
X163181202Y-114970671D01*
X163133725Y-115097966D01*
X163130909Y-115105517D01*
X163124500Y-115165127D01*
X163124500Y-115165134D01*
X163124500Y-115165135D01*
X163124500Y-115910870D01*
X163124501Y-115910876D01*
X163130908Y-115970479D01*
X163132692Y-115978026D01*
X163131229Y-115978371D01*
X163135585Y-116039371D01*
X163131173Y-116054396D01*
X163130908Y-116055517D01*
X163124501Y-116115116D01*
X163124501Y-116115123D01*
X163124500Y-116115135D01*
X163124500Y-116425769D01*
X163104815Y-116492808D01*
X163088181Y-116513450D01*
X162888451Y-116713181D01*
X162827128Y-116746666D01*
X162800770Y-116749500D01*
X159299500Y-116749500D01*
X159232461Y-116729815D01*
X159186706Y-116677011D01*
X159175500Y-116625500D01*
X159175499Y-116115129D01*
X159175498Y-116115123D01*
X159175498Y-116115116D01*
X159169091Y-116055517D01*
X159169090Y-116055515D01*
X159169090Y-116055512D01*
X159167308Y-116047969D01*
X159168773Y-116047622D01*
X159164409Y-115986651D01*
X159168819Y-115971633D01*
X159169089Y-115970488D01*
X159169088Y-115970488D01*
X159169091Y-115970483D01*
X159175500Y-115910873D01*
X159175499Y-115165128D01*
X159169091Y-115105517D01*
X159166126Y-115097568D01*
X159118797Y-114970671D01*
X159118793Y-114970664D01*
X159032547Y-114855455D01*
X159032544Y-114855452D01*
X158917335Y-114769206D01*
X158917328Y-114769202D01*
X158782482Y-114718908D01*
X158782483Y-114718908D01*
X158722883Y-114712501D01*
X158722881Y-114712500D01*
X158722873Y-114712500D01*
X158722865Y-114712500D01*
X158438097Y-114712500D01*
X158371058Y-114692815D01*
X158350416Y-114676181D01*
X156761819Y-113087584D01*
X156728334Y-113026261D01*
X156725500Y-112999903D01*
X156725500Y-112668427D01*
X165525000Y-112668427D01*
X165525000Y-112750000D01*
X166175000Y-112750000D01*
X166175000Y-112025000D01*
X166174999Y-112024999D01*
X166168436Y-112025000D01*
X166168417Y-112025001D01*
X166097897Y-112031408D01*
X166097892Y-112031409D01*
X165935603Y-112081981D01*
X165790122Y-112169927D01*
X165669927Y-112290122D01*
X165581980Y-112435604D01*
X165531409Y-112597893D01*
X165525000Y-112668427D01*
X156725500Y-112668427D01*
X156725500Y-112668386D01*
X156719086Y-112597807D01*
X156719086Y-112597804D01*
X156668478Y-112435394D01*
X156580472Y-112289815D01*
X156580470Y-112289813D01*
X156580469Y-112289811D01*
X156454882Y-112164224D01*
X156457091Y-112162014D01*
X156424726Y-112116764D01*
X156422046Y-112108055D01*
X156417528Y-112091195D01*
X156398313Y-112019480D01*
X156384577Y-111968216D01*
X156370789Y-111944334D01*
X156305524Y-111831290D01*
X156305521Y-111831286D01*
X156305520Y-111831284D01*
X156193716Y-111719480D01*
X156193715Y-111719479D01*
X156189385Y-111715149D01*
X156189374Y-111715139D01*
X155061416Y-110587181D01*
X155027931Y-110525858D01*
X155032915Y-110456166D01*
X155074787Y-110400233D01*
X155140251Y-110375816D01*
X155149097Y-110375500D01*
X165799903Y-110375500D01*
X165866942Y-110395185D01*
G37*
%TD.AperFunction*%
%TA.AperFunction,Conductor*%
G36*
X168216942Y-113995185D02*
G01*
X168237584Y-114011819D01*
X169201826Y-114976061D01*
X169235311Y-115037384D01*
X169231011Y-115097568D01*
X169232693Y-115097966D01*
X169230908Y-115105517D01*
X169224501Y-115165117D01*
X169224501Y-115165123D01*
X169224500Y-115165136D01*
X169224500Y-115910870D01*
X169224501Y-115910876D01*
X169230908Y-115970479D01*
X169232692Y-115978026D01*
X169231229Y-115978371D01*
X169235585Y-116039371D01*
X169231173Y-116054396D01*
X169230908Y-116055517D01*
X169224501Y-116115116D01*
X169224501Y-116115123D01*
X169224500Y-116115135D01*
X169224500Y-116425769D01*
X169204815Y-116492808D01*
X169188181Y-116513450D01*
X168988451Y-116713181D01*
X168927128Y-116746666D01*
X168900770Y-116749500D01*
X165399500Y-116749500D01*
X165332461Y-116729815D01*
X165286706Y-116677011D01*
X165275500Y-116625500D01*
X165275499Y-116262500D01*
X165295183Y-116195461D01*
X165347987Y-116149706D01*
X165399499Y-116138500D01*
X165450331Y-116138500D01*
X165450347Y-116138501D01*
X165457943Y-116138501D01*
X165616054Y-116138501D01*
X165616057Y-116138501D01*
X165768785Y-116097577D01*
X165818904Y-116068639D01*
X165905716Y-116018520D01*
X166017520Y-115906716D01*
X166017520Y-115906714D01*
X166027728Y-115896507D01*
X166027729Y-115896504D01*
X167912416Y-114011819D01*
X167973739Y-113978334D01*
X168000097Y-113975500D01*
X168149903Y-113975500D01*
X168216942Y-113995185D01*
G37*
%TD.AperFunction*%
%TA.AperFunction,Conductor*%
G36*
X177141942Y-109995185D02*
G01*
X177162584Y-110011819D01*
X178964084Y-111813319D01*
X178997569Y-111874642D01*
X178992585Y-111944334D01*
X178950713Y-112000267D01*
X178885249Y-112024684D01*
X178876403Y-112025000D01*
X178875000Y-112025000D01*
X178875000Y-113126000D01*
X178855315Y-113193039D01*
X178802511Y-113238794D01*
X178751000Y-113250000D01*
X177725001Y-113250000D01*
X177725001Y-113331582D01*
X177731408Y-113402102D01*
X177731409Y-113402107D01*
X177781981Y-113564396D01*
X177869927Y-113709877D01*
X177990122Y-113830072D01*
X178135604Y-113918019D01*
X178135603Y-113918019D01*
X178223498Y-113945408D01*
X178281646Y-113984145D01*
X178309620Y-114048170D01*
X178298538Y-114117156D01*
X178274289Y-114151474D01*
X177535525Y-114890239D01*
X177474202Y-114923724D01*
X177404511Y-114918740D01*
X177348577Y-114876868D01*
X177332550Y-114855458D01*
X177332547Y-114855455D01*
X177332546Y-114855454D01*
X177332542Y-114855451D01*
X177217335Y-114769206D01*
X177217328Y-114769202D01*
X177082482Y-114718908D01*
X177082483Y-114718908D01*
X177022883Y-114712501D01*
X177022881Y-114712500D01*
X177022873Y-114712500D01*
X177022864Y-114712500D01*
X175777129Y-114712500D01*
X175777123Y-114712501D01*
X175717516Y-114718908D01*
X175582671Y-114769202D01*
X175582664Y-114769206D01*
X175467455Y-114855452D01*
X175467452Y-114855455D01*
X175381206Y-114970664D01*
X175381202Y-114970671D01*
X175333725Y-115097966D01*
X175330909Y-115105517D01*
X175324500Y-115165127D01*
X175324500Y-115165134D01*
X175324500Y-115165135D01*
X175324500Y-115910870D01*
X175324501Y-115910876D01*
X175330908Y-115970479D01*
X175332692Y-115978026D01*
X175331229Y-115978371D01*
X175335585Y-116039371D01*
X175331173Y-116054396D01*
X175330908Y-116055517D01*
X175324501Y-116115116D01*
X175324501Y-116115123D01*
X175324500Y-116115135D01*
X175324500Y-116425769D01*
X175304815Y-116492808D01*
X175288181Y-116513450D01*
X175088451Y-116713181D01*
X175027128Y-116746666D01*
X175000770Y-116749500D01*
X171499500Y-116749500D01*
X171432461Y-116729815D01*
X171386706Y-116677011D01*
X171375500Y-116625500D01*
X171375499Y-116115129D01*
X171375498Y-116115123D01*
X171375498Y-116115116D01*
X171369091Y-116055517D01*
X171369090Y-116055515D01*
X171369090Y-116055512D01*
X171367308Y-116047969D01*
X171368773Y-116047622D01*
X171364409Y-115986651D01*
X171368819Y-115971633D01*
X171369089Y-115970488D01*
X171369088Y-115970488D01*
X171369091Y-115970483D01*
X171375500Y-115910873D01*
X171375499Y-115165128D01*
X171369091Y-115105517D01*
X171366126Y-115097568D01*
X171318797Y-114970671D01*
X171318793Y-114970664D01*
X171232547Y-114855455D01*
X171232544Y-114855452D01*
X171117335Y-114769206D01*
X171117328Y-114769202D01*
X170982482Y-114718908D01*
X170982483Y-114718908D01*
X170922883Y-114712501D01*
X170922881Y-114712500D01*
X170922873Y-114712500D01*
X170922865Y-114712500D01*
X170688097Y-114712500D01*
X170621058Y-114692815D01*
X170600416Y-114676181D01*
X169011819Y-113087584D01*
X168978334Y-113026261D01*
X168975500Y-112999903D01*
X168975500Y-112668427D01*
X177725000Y-112668427D01*
X177725000Y-112750000D01*
X178375000Y-112750000D01*
X178375000Y-112025000D01*
X178374999Y-112024999D01*
X178368436Y-112025000D01*
X178368417Y-112025001D01*
X178297897Y-112031408D01*
X178297892Y-112031409D01*
X178135603Y-112081981D01*
X177990122Y-112169927D01*
X177869927Y-112290122D01*
X177781980Y-112435604D01*
X177731409Y-112597893D01*
X177725000Y-112668427D01*
X168975500Y-112668427D01*
X168975500Y-112668386D01*
X168969086Y-112597807D01*
X168969086Y-112597804D01*
X168918478Y-112435394D01*
X168830472Y-112289815D01*
X168830470Y-112289813D01*
X168830469Y-112289811D01*
X168711819Y-112171161D01*
X168678334Y-112109838D01*
X168675500Y-112083480D01*
X168675500Y-111839060D01*
X168675501Y-111839047D01*
X168675501Y-111670945D01*
X168675501Y-111670943D01*
X168634577Y-111518215D01*
X168555520Y-111381284D01*
X167361415Y-110187180D01*
X167327931Y-110125858D01*
X167332915Y-110056166D01*
X167374787Y-110000233D01*
X167440251Y-109975816D01*
X167449097Y-109975500D01*
X177074903Y-109975500D01*
X177141942Y-109995185D01*
G37*
%TD.AperFunction*%
%TA.AperFunction,Conductor*%
G36*
X180416942Y-113995185D02*
G01*
X180437584Y-114011819D01*
X181401826Y-114976061D01*
X181435311Y-115037384D01*
X181431011Y-115097568D01*
X181432693Y-115097966D01*
X181430908Y-115105517D01*
X181424501Y-115165117D01*
X181424501Y-115165123D01*
X181424500Y-115165136D01*
X181424500Y-115910870D01*
X181424501Y-115910876D01*
X181430908Y-115970479D01*
X181432692Y-115978026D01*
X181431229Y-115978371D01*
X181435585Y-116039371D01*
X181431173Y-116054396D01*
X181430908Y-116055517D01*
X181424501Y-116115116D01*
X181424501Y-116115123D01*
X181424500Y-116115135D01*
X181424500Y-116425769D01*
X181404815Y-116492808D01*
X181388181Y-116513450D01*
X181188451Y-116713181D01*
X181127128Y-116746666D01*
X181100770Y-116749500D01*
X177599500Y-116749500D01*
X177532461Y-116729815D01*
X177486706Y-116677011D01*
X177475500Y-116625500D01*
X177475499Y-116262500D01*
X177495183Y-116195461D01*
X177547987Y-116149706D01*
X177599499Y-116138500D01*
X177650331Y-116138500D01*
X177650347Y-116138501D01*
X177657943Y-116138501D01*
X177816054Y-116138501D01*
X177816057Y-116138501D01*
X177968785Y-116097577D01*
X178018904Y-116068639D01*
X178105716Y-116018520D01*
X178217520Y-115906716D01*
X178217520Y-115906714D01*
X178227728Y-115896507D01*
X178227729Y-115896504D01*
X180112416Y-114011819D01*
X180173739Y-113978334D01*
X180200097Y-113975500D01*
X180349903Y-113975500D01*
X180416942Y-113995185D01*
G37*
%TD.AperFunction*%
%TA.AperFunction,Conductor*%
G36*
X184379809Y-109120185D02*
G01*
X184400451Y-109136819D01*
X185163181Y-109899548D01*
X185196666Y-109960871D01*
X185199500Y-109987229D01*
X185199500Y-115462770D01*
X185179815Y-115529809D01*
X185163181Y-115550451D01*
X184000451Y-116713181D01*
X183939128Y-116746666D01*
X183912770Y-116749500D01*
X183699500Y-116749500D01*
X183632461Y-116729815D01*
X183586706Y-116677011D01*
X183575500Y-116625500D01*
X183575499Y-116115129D01*
X183575498Y-116115123D01*
X183575498Y-116115116D01*
X183569091Y-116055517D01*
X183569090Y-116055515D01*
X183569090Y-116055512D01*
X183567308Y-116047969D01*
X183568773Y-116047622D01*
X183564409Y-115986651D01*
X183568819Y-115971633D01*
X183569089Y-115970488D01*
X183569088Y-115970488D01*
X183569091Y-115970483D01*
X183575500Y-115910873D01*
X183575499Y-115165128D01*
X183569091Y-115105517D01*
X183566126Y-115097568D01*
X183518797Y-114970671D01*
X183518793Y-114970664D01*
X183432547Y-114855455D01*
X183432544Y-114855452D01*
X183317335Y-114769206D01*
X183317328Y-114769202D01*
X183182482Y-114718908D01*
X183182483Y-114718908D01*
X183122883Y-114712501D01*
X183122881Y-114712500D01*
X183122873Y-114712500D01*
X183122865Y-114712500D01*
X182888097Y-114712500D01*
X182821058Y-114692815D01*
X182800416Y-114676181D01*
X181211819Y-113087584D01*
X181178334Y-113026261D01*
X181175500Y-112999903D01*
X181175500Y-112668386D01*
X181169086Y-112597807D01*
X181169086Y-112597804D01*
X181118478Y-112435394D01*
X181030472Y-112289815D01*
X181030470Y-112289813D01*
X181030469Y-112289811D01*
X180910189Y-112169531D01*
X180910185Y-112169528D01*
X180903057Y-112165219D01*
X180855870Y-112113691D01*
X180847433Y-112091195D01*
X180834578Y-112043217D01*
X180834576Y-112043213D01*
X180755524Y-111906290D01*
X180755521Y-111906286D01*
X180755520Y-111906284D01*
X180643716Y-111794480D01*
X180643715Y-111794479D01*
X180639385Y-111790149D01*
X180639374Y-111790139D01*
X178161416Y-109312181D01*
X178127931Y-109250858D01*
X178132915Y-109181166D01*
X178174787Y-109125233D01*
X178240251Y-109100816D01*
X178249097Y-109100500D01*
X178501082Y-109100500D01*
X178648917Y-109100500D01*
X178676082Y-109100500D01*
X184312770Y-109100500D01*
X184379809Y-109120185D01*
G37*
%TD.AperFunction*%
%TA.AperFunction,Conductor*%
G36*
X125792941Y-111195185D02*
G01*
X125838696Y-111247989D01*
X125848640Y-111317147D01*
X125819615Y-111380703D01*
X125813583Y-111387181D01*
X125337584Y-111863181D01*
X125276261Y-111896666D01*
X125249903Y-111899500D01*
X121410719Y-111899500D01*
X121343680Y-111879815D01*
X121300235Y-111831795D01*
X121280052Y-111792185D01*
X121280051Y-111792184D01*
X121155109Y-111620213D01*
X121004792Y-111469896D01*
X121004784Y-111469890D01*
X120908337Y-111399817D01*
X120865672Y-111344489D01*
X120859693Y-111274876D01*
X120892298Y-111213080D01*
X120953137Y-111178723D01*
X120981223Y-111175500D01*
X125725902Y-111175500D01*
X125792941Y-111195185D01*
G37*
%TD.AperFunction*%
%TA.AperFunction,Conductor*%
G36*
X121635028Y-107504530D02*
G01*
X121686079Y-107535315D01*
X123513583Y-109362819D01*
X123547068Y-109424142D01*
X123542084Y-109493834D01*
X123500212Y-109549767D01*
X123434748Y-109574184D01*
X123425902Y-109574500D01*
X122975097Y-109574500D01*
X122908058Y-109554815D01*
X122887416Y-109538181D01*
X121428102Y-108078867D01*
X121394617Y-108017544D01*
X121397851Y-107952874D01*
X121442246Y-107816243D01*
X121475500Y-107606287D01*
X121475500Y-107606282D01*
X121475925Y-107603599D01*
X121505854Y-107540464D01*
X121565165Y-107503532D01*
X121635028Y-107504530D01*
G37*
%TD.AperFunction*%
%TA.AperFunction,Conductor*%
G36*
X121635028Y-105004529D02*
G01*
X121686079Y-105035314D01*
X125613584Y-108962819D01*
X125647069Y-109024142D01*
X125642085Y-109093834D01*
X125600213Y-109149767D01*
X125534749Y-109174184D01*
X125525903Y-109174500D01*
X125075098Y-109174500D01*
X125008059Y-109154815D01*
X124987417Y-109138181D01*
X121428102Y-105578867D01*
X121394617Y-105517544D01*
X121397851Y-105452874D01*
X121442246Y-105316243D01*
X121475500Y-105106287D01*
X121475500Y-105106281D01*
X121475925Y-105103598D01*
X121505854Y-105040463D01*
X121565165Y-105003531D01*
X121635028Y-105004529D01*
G37*
%TD.AperFunction*%
%TA.AperFunction,Conductor*%
G36*
X199442539Y-100520185D02*
G01*
X199488294Y-100572989D01*
X199499500Y-100624500D01*
X199499500Y-119375500D01*
X199479815Y-119442539D01*
X199427011Y-119488294D01*
X199375500Y-119499500D01*
X110624500Y-119499500D01*
X110557461Y-119479815D01*
X110511706Y-119427011D01*
X110500500Y-119375500D01*
X110500500Y-109999998D01*
X110994390Y-109999998D01*
X110994390Y-110000001D01*
X111014804Y-110285433D01*
X111075628Y-110565037D01*
X111075630Y-110565043D01*
X111075631Y-110565046D01*
X111167673Y-110811819D01*
X111175635Y-110833166D01*
X111312770Y-111084309D01*
X111312775Y-111084317D01*
X111484254Y-111313387D01*
X111484270Y-111313405D01*
X111686594Y-111515729D01*
X111686612Y-111515745D01*
X111915682Y-111687224D01*
X111915690Y-111687229D01*
X112166833Y-111824364D01*
X112166832Y-111824364D01*
X112166836Y-111824365D01*
X112166839Y-111824367D01*
X112434954Y-111924369D01*
X112434960Y-111924370D01*
X112434962Y-111924371D01*
X112714566Y-111985195D01*
X112714568Y-111985195D01*
X112714572Y-111985196D01*
X112968220Y-112003337D01*
X112999999Y-112005610D01*
X113000000Y-112005610D01*
X113000001Y-112005610D01*
X113028595Y-112003564D01*
X113285428Y-111985196D01*
X113303398Y-111981287D01*
X113565037Y-111924371D01*
X113565037Y-111924370D01*
X113565046Y-111924369D01*
X113833161Y-111824367D01*
X114084315Y-111687226D01*
X114313395Y-111515739D01*
X114515739Y-111313395D01*
X114687226Y-111084315D01*
X114824367Y-110833161D01*
X114924369Y-110565046D01*
X114978493Y-110316243D01*
X114985195Y-110285433D01*
X114985195Y-110285432D01*
X114985196Y-110285428D01*
X115005610Y-110000000D01*
X115002811Y-109960871D01*
X115001023Y-109935867D01*
X114985196Y-109714572D01*
X114978493Y-109683760D01*
X114924371Y-109434962D01*
X114924370Y-109434960D01*
X114924369Y-109434954D01*
X114824367Y-109166839D01*
X114817801Y-109154815D01*
X114687229Y-108915690D01*
X114687224Y-108915682D01*
X114515745Y-108686612D01*
X114515729Y-108686594D01*
X114313405Y-108484270D01*
X114313387Y-108484254D01*
X114084317Y-108312775D01*
X114084309Y-108312770D01*
X113833166Y-108175635D01*
X113833167Y-108175635D01*
X113699709Y-108125858D01*
X113565046Y-108075631D01*
X113565043Y-108075630D01*
X113565037Y-108075628D01*
X113285433Y-108014804D01*
X113000001Y-107994390D01*
X112999999Y-107994390D01*
X112714566Y-108014804D01*
X112434962Y-108075628D01*
X112166833Y-108175635D01*
X111915690Y-108312770D01*
X111915682Y-108312775D01*
X111686612Y-108484254D01*
X111686594Y-108484270D01*
X111484270Y-108686594D01*
X111484254Y-108686612D01*
X111312775Y-108915682D01*
X111312770Y-108915690D01*
X111175635Y-109166833D01*
X111075628Y-109434962D01*
X111014804Y-109714566D01*
X110994390Y-109999998D01*
X110500500Y-109999998D01*
X110500500Y-102393713D01*
X118524500Y-102393713D01*
X118524500Y-102606286D01*
X118557753Y-102816239D01*
X118623444Y-103018414D01*
X118719951Y-103207820D01*
X118844890Y-103379786D01*
X118995209Y-103530105D01*
X118995214Y-103530109D01*
X119159793Y-103649682D01*
X119202459Y-103705011D01*
X119208438Y-103774625D01*
X119175833Y-103836420D01*
X119159793Y-103850318D01*
X118995214Y-103969890D01*
X118995209Y-103969894D01*
X118844890Y-104120213D01*
X118719951Y-104292179D01*
X118623444Y-104481585D01*
X118557753Y-104683760D01*
X118524500Y-104893713D01*
X118524500Y-105106286D01*
X118557753Y-105316239D01*
X118623444Y-105518414D01*
X118719951Y-105707820D01*
X118844890Y-105879786D01*
X118995209Y-106030105D01*
X118995214Y-106030109D01*
X119159793Y-106149682D01*
X119202459Y-106205011D01*
X119208438Y-106274625D01*
X119175833Y-106336420D01*
X119159793Y-106350318D01*
X118995214Y-106469890D01*
X118995209Y-106469894D01*
X118844890Y-106620213D01*
X118719951Y-106792179D01*
X118623444Y-106981585D01*
X118557753Y-107183760D01*
X118524500Y-107393713D01*
X118524500Y-107606286D01*
X118549274Y-107762707D01*
X118557754Y-107816243D01*
X118617536Y-108000233D01*
X118623444Y-108018414D01*
X118719951Y-108207820D01*
X118844890Y-108379786D01*
X118995209Y-108530105D01*
X118995214Y-108530109D01*
X119159793Y-108649682D01*
X119202459Y-108705011D01*
X119208438Y-108774625D01*
X119175833Y-108836420D01*
X119159793Y-108850318D01*
X118995214Y-108969890D01*
X118995209Y-108969894D01*
X118844890Y-109120213D01*
X118719951Y-109292179D01*
X118623444Y-109481585D01*
X118557753Y-109683760D01*
X118524500Y-109893713D01*
X118524500Y-110106286D01*
X118557753Y-110316239D01*
X118623444Y-110518414D01*
X118719951Y-110707820D01*
X118844890Y-110879786D01*
X118995209Y-111030105D01*
X118995214Y-111030109D01*
X119159793Y-111149682D01*
X119202459Y-111205011D01*
X119208438Y-111274625D01*
X119175833Y-111336420D01*
X119159793Y-111350318D01*
X118995214Y-111469890D01*
X118995209Y-111469894D01*
X118844890Y-111620213D01*
X118719951Y-111792179D01*
X118623444Y-111981585D01*
X118557753Y-112183760D01*
X118533163Y-112339018D01*
X118524500Y-112393713D01*
X118524500Y-112606287D01*
X118557754Y-112816243D01*
X118571486Y-112858507D01*
X118623444Y-113018414D01*
X118719951Y-113207820D01*
X118844890Y-113379786D01*
X118995209Y-113530105D01*
X118995214Y-113530109D01*
X119160218Y-113649991D01*
X119202884Y-113705320D01*
X119208863Y-113774934D01*
X119176258Y-113836729D01*
X119160218Y-113850627D01*
X118995540Y-113970272D01*
X118995535Y-113970276D01*
X118845276Y-114120535D01*
X118845272Y-114120540D01*
X118720379Y-114292442D01*
X118623904Y-114481782D01*
X118558242Y-114683870D01*
X118558242Y-114683873D01*
X118547769Y-114750000D01*
X119595854Y-114750000D01*
X119557370Y-114816657D01*
X119525000Y-114937465D01*
X119525000Y-115062535D01*
X119557370Y-115183343D01*
X119595854Y-115250000D01*
X118547769Y-115250000D01*
X118558242Y-115316126D01*
X118558242Y-115316129D01*
X118623904Y-115518217D01*
X118720379Y-115707557D01*
X118845272Y-115879459D01*
X118845276Y-115879464D01*
X118984143Y-116018331D01*
X119017628Y-116079654D01*
X119012644Y-116149346D01*
X118970772Y-116205279D01*
X118961559Y-116211551D01*
X118806342Y-116307289D01*
X118682289Y-116431342D01*
X118590187Y-116580663D01*
X118590186Y-116580666D01*
X118535001Y-116747203D01*
X118535001Y-116747204D01*
X118535000Y-116747204D01*
X118524500Y-116849983D01*
X118524500Y-118150001D01*
X118524501Y-118150018D01*
X118535000Y-118252796D01*
X118535001Y-118252799D01*
X118590185Y-118419331D01*
X118590186Y-118419334D01*
X118682288Y-118568656D01*
X118806344Y-118692712D01*
X118955666Y-118784814D01*
X119122203Y-118839999D01*
X119224991Y-118850500D01*
X120775008Y-118850499D01*
X120877797Y-118839999D01*
X121044334Y-118784814D01*
X121193656Y-118692712D01*
X121317712Y-118568656D01*
X121409814Y-118419334D01*
X121437595Y-118335495D01*
X121477368Y-118278051D01*
X121541884Y-118251228D01*
X121555301Y-118250500D01*
X184348920Y-118250500D01*
X184446462Y-118231096D01*
X184493913Y-118221658D01*
X184630495Y-118165084D01*
X184695207Y-118121845D01*
X184753416Y-118082952D01*
X186532952Y-116303416D01*
X186591904Y-116215186D01*
X186615084Y-116180495D01*
X186649430Y-116097577D01*
X186671659Y-116043912D01*
X186700500Y-115898917D01*
X186700500Y-115751082D01*
X186700500Y-109999998D01*
X194994390Y-109999998D01*
X194994390Y-110000001D01*
X195014804Y-110285433D01*
X195075628Y-110565037D01*
X195075630Y-110565043D01*
X195075631Y-110565046D01*
X195167673Y-110811819D01*
X195175635Y-110833166D01*
X195312770Y-111084309D01*
X195312775Y-111084317D01*
X195484254Y-111313387D01*
X195484270Y-111313405D01*
X195686594Y-111515729D01*
X195686612Y-111515745D01*
X195915682Y-111687224D01*
X195915690Y-111687229D01*
X196166833Y-111824364D01*
X196166832Y-111824364D01*
X196166836Y-111824365D01*
X196166839Y-111824367D01*
X196434954Y-111924369D01*
X196434960Y-111924370D01*
X196434962Y-111924371D01*
X196714566Y-111985195D01*
X196714568Y-111985195D01*
X196714572Y-111985196D01*
X196968220Y-112003337D01*
X196999999Y-112005610D01*
X197000000Y-112005610D01*
X197000001Y-112005610D01*
X197028595Y-112003564D01*
X197285428Y-111985196D01*
X197303398Y-111981287D01*
X197565037Y-111924371D01*
X197565037Y-111924370D01*
X197565046Y-111924369D01*
X197833161Y-111824367D01*
X198084315Y-111687226D01*
X198313395Y-111515739D01*
X198515739Y-111313395D01*
X198687226Y-111084315D01*
X198824367Y-110833161D01*
X198924369Y-110565046D01*
X198978493Y-110316243D01*
X198985195Y-110285433D01*
X198985195Y-110285432D01*
X198985196Y-110285428D01*
X199005610Y-110000000D01*
X199002811Y-109960871D01*
X199001023Y-109935867D01*
X198985196Y-109714572D01*
X198978493Y-109683760D01*
X198924371Y-109434962D01*
X198924370Y-109434960D01*
X198924369Y-109434954D01*
X198824367Y-109166839D01*
X198817801Y-109154815D01*
X198687229Y-108915690D01*
X198687224Y-108915682D01*
X198515745Y-108686612D01*
X198515729Y-108686594D01*
X198313405Y-108484270D01*
X198313387Y-108484254D01*
X198084317Y-108312775D01*
X198084309Y-108312770D01*
X197833166Y-108175635D01*
X197833167Y-108175635D01*
X197699709Y-108125858D01*
X197565046Y-108075631D01*
X197565043Y-108075630D01*
X197565037Y-108075628D01*
X197285433Y-108014804D01*
X197000001Y-107994390D01*
X196999999Y-107994390D01*
X196714566Y-108014804D01*
X196434962Y-108075628D01*
X196166833Y-108175635D01*
X195915690Y-108312770D01*
X195915682Y-108312775D01*
X195686612Y-108484254D01*
X195686594Y-108484270D01*
X195484270Y-108686594D01*
X195484254Y-108686612D01*
X195312775Y-108915682D01*
X195312770Y-108915690D01*
X195175635Y-109166833D01*
X195075628Y-109434962D01*
X195014804Y-109714566D01*
X194994390Y-109999998D01*
X186700500Y-109999998D01*
X186700500Y-109551082D01*
X186700500Y-109551079D01*
X186671659Y-109406092D01*
X186671658Y-109406091D01*
X186671658Y-109406087D01*
X186632761Y-109312181D01*
X186615087Y-109269511D01*
X186615080Y-109269498D01*
X186532952Y-109146585D01*
X186486867Y-109100500D01*
X186428416Y-109042049D01*
X186124548Y-108738181D01*
X185149097Y-107762728D01*
X185149074Y-107762707D01*
X184261819Y-106875451D01*
X184228334Y-106814128D01*
X184225500Y-106787770D01*
X184225500Y-106668386D01*
X184219086Y-106597807D01*
X184219086Y-106597804D01*
X184168478Y-106435394D01*
X184080472Y-106289815D01*
X184080470Y-106289813D01*
X184080469Y-106289811D01*
X183960188Y-106169530D01*
X183854809Y-106105826D01*
X183814606Y-106081522D01*
X183652196Y-106030914D01*
X183652194Y-106030913D01*
X183652192Y-106030913D01*
X183602778Y-106026423D01*
X183581616Y-106024500D01*
X183068384Y-106024500D01*
X183049145Y-106026248D01*
X182997807Y-106030913D01*
X182835393Y-106081522D01*
X182689811Y-106169530D01*
X182689810Y-106169531D01*
X182637181Y-106222161D01*
X182575858Y-106255646D01*
X182506166Y-106250662D01*
X182450233Y-106208790D01*
X182425816Y-106143326D01*
X182425500Y-106134480D01*
X182425500Y-104926141D01*
X182445185Y-104859102D01*
X182497989Y-104813347D01*
X182567147Y-104803403D01*
X182614597Y-104820603D01*
X182762916Y-104912088D01*
X182762927Y-104912093D01*
X182922416Y-104964942D01*
X183020856Y-104974999D01*
X183537500Y-104974999D01*
X183554136Y-104974999D01*
X183554152Y-104974998D01*
X183652583Y-104964943D01*
X183812072Y-104912093D01*
X183812077Y-104912091D01*
X183955080Y-104823885D01*
X184073885Y-104705080D01*
X184162091Y-104562077D01*
X184162093Y-104562072D01*
X184214942Y-104402583D01*
X184224999Y-104304150D01*
X184225000Y-104304137D01*
X184225000Y-104250000D01*
X183537500Y-104250000D01*
X183537500Y-104974999D01*
X183020856Y-104974999D01*
X183037500Y-104974998D01*
X183037500Y-103750000D01*
X183537500Y-103750000D01*
X184224999Y-103750000D01*
X184224999Y-103695864D01*
X184224998Y-103695847D01*
X184214943Y-103597416D01*
X184162093Y-103437927D01*
X184162091Y-103437922D01*
X184073885Y-103294919D01*
X183955080Y-103176114D01*
X183812077Y-103087908D01*
X183812072Y-103087906D01*
X183652583Y-103035057D01*
X183554150Y-103025000D01*
X183537500Y-103025000D01*
X183537500Y-103750000D01*
X183037500Y-103750000D01*
X183037500Y-103024999D01*
X183020856Y-103025000D01*
X182922415Y-103035057D01*
X182762927Y-103087906D01*
X182762922Y-103087908D01*
X182619919Y-103176114D01*
X182588033Y-103208000D01*
X182526709Y-103241485D01*
X182457018Y-103236499D01*
X182412673Y-103208000D01*
X182380392Y-103175719D01*
X182380387Y-103175716D01*
X182237295Y-103087455D01*
X182237289Y-103087452D01*
X182237287Y-103087451D01*
X182077685Y-103034564D01*
X182077683Y-103034563D01*
X181979181Y-103024500D01*
X181979174Y-103024500D01*
X181445826Y-103024500D01*
X181445818Y-103024500D01*
X181347316Y-103034563D01*
X181347315Y-103034564D01*
X181268219Y-103060773D01*
X181187715Y-103087450D01*
X181187704Y-103087455D01*
X181044612Y-103175716D01*
X181044608Y-103175719D01*
X180925719Y-103294608D01*
X180925716Y-103294612D01*
X180837455Y-103437704D01*
X180837450Y-103437715D01*
X180837380Y-103437927D01*
X180784564Y-103597315D01*
X180784564Y-103597316D01*
X180784563Y-103597316D01*
X180774500Y-103695818D01*
X180774500Y-104304181D01*
X180784563Y-104402683D01*
X180784564Y-104402684D01*
X180837450Y-104562285D01*
X180837453Y-104562292D01*
X180906038Y-104673482D01*
X180924500Y-104738580D01*
X180924500Y-106247023D01*
X180906617Y-106311171D01*
X180875673Y-106362358D01*
X180831522Y-106435393D01*
X180780913Y-106597807D01*
X180774500Y-106668386D01*
X180774500Y-107331613D01*
X180780914Y-107402197D01*
X180792261Y-107438610D01*
X180793413Y-107508470D01*
X180756612Y-107567862D01*
X180693543Y-107597930D01*
X180673876Y-107599500D01*
X178937229Y-107599500D01*
X178870190Y-107579815D01*
X178849548Y-107563181D01*
X178161819Y-106875451D01*
X178128334Y-106814128D01*
X178125500Y-106787770D01*
X178125500Y-106668386D01*
X178119086Y-106597807D01*
X178119086Y-106597804D01*
X178068478Y-106435394D01*
X177980472Y-106289815D01*
X177980470Y-106289813D01*
X177980469Y-106289811D01*
X177860188Y-106169530D01*
X177754809Y-106105826D01*
X177714606Y-106081522D01*
X177552196Y-106030914D01*
X177552194Y-106030913D01*
X177552192Y-106030913D01*
X177502778Y-106026423D01*
X177481616Y-106024500D01*
X176968384Y-106024500D01*
X176949145Y-106026248D01*
X176897807Y-106030913D01*
X176735393Y-106081522D01*
X176589811Y-106169530D01*
X176589810Y-106169531D01*
X176537181Y-106222161D01*
X176475858Y-106255646D01*
X176406166Y-106250662D01*
X176350233Y-106208790D01*
X176325816Y-106143326D01*
X176325500Y-106134480D01*
X176325500Y-104926141D01*
X176345185Y-104859102D01*
X176397989Y-104813347D01*
X176467147Y-104803403D01*
X176514597Y-104820603D01*
X176662916Y-104912088D01*
X176662927Y-104912093D01*
X176822416Y-104964942D01*
X176920856Y-104974999D01*
X177437500Y-104974999D01*
X177454136Y-104974999D01*
X177454152Y-104974998D01*
X177552583Y-104964943D01*
X177712072Y-104912093D01*
X177712077Y-104912091D01*
X177855080Y-104823885D01*
X177973885Y-104705080D01*
X178062091Y-104562077D01*
X178062093Y-104562072D01*
X178114942Y-104402583D01*
X178124999Y-104304150D01*
X178125000Y-104304137D01*
X178125000Y-104250000D01*
X177437500Y-104250000D01*
X177437500Y-104974999D01*
X176920856Y-104974999D01*
X176937500Y-104974998D01*
X176937500Y-103750000D01*
X177437500Y-103750000D01*
X178124999Y-103750000D01*
X178124999Y-103695864D01*
X178124998Y-103695847D01*
X178114943Y-103597416D01*
X178062093Y-103437927D01*
X178062091Y-103437922D01*
X177973885Y-103294919D01*
X177855080Y-103176114D01*
X177712077Y-103087908D01*
X177712072Y-103087906D01*
X177552583Y-103035057D01*
X177454150Y-103025000D01*
X177437500Y-103025000D01*
X177437500Y-103750000D01*
X176937500Y-103750000D01*
X176937500Y-103024999D01*
X176920856Y-103025000D01*
X176822415Y-103035057D01*
X176662927Y-103087906D01*
X176662922Y-103087908D01*
X176519919Y-103176114D01*
X176488033Y-103208000D01*
X176426709Y-103241485D01*
X176357018Y-103236499D01*
X176312673Y-103208000D01*
X176280392Y-103175719D01*
X176280387Y-103175716D01*
X176137295Y-103087455D01*
X176137289Y-103087452D01*
X176137287Y-103087451D01*
X175977685Y-103034564D01*
X175977683Y-103034563D01*
X175879181Y-103024500D01*
X175879174Y-103024500D01*
X175345826Y-103024500D01*
X175345818Y-103024500D01*
X175247316Y-103034563D01*
X175247315Y-103034564D01*
X175168219Y-103060773D01*
X175087715Y-103087450D01*
X175087704Y-103087455D01*
X174944612Y-103175716D01*
X174944608Y-103175719D01*
X174825719Y-103294608D01*
X174825716Y-103294612D01*
X174737455Y-103437704D01*
X174737450Y-103437715D01*
X174737380Y-103437927D01*
X174684564Y-103597315D01*
X174684564Y-103597316D01*
X174684563Y-103597316D01*
X174674500Y-103695818D01*
X174674500Y-104304181D01*
X174684563Y-104402683D01*
X174684564Y-104402684D01*
X174737450Y-104562285D01*
X174737453Y-104562292D01*
X174806038Y-104673482D01*
X174824500Y-104738580D01*
X174824500Y-106247023D01*
X174806617Y-106311171D01*
X174775673Y-106362358D01*
X174731522Y-106435393D01*
X174680913Y-106597807D01*
X174674500Y-106668386D01*
X174674500Y-107331613D01*
X174680914Y-107402197D01*
X174692261Y-107438610D01*
X174693413Y-107508470D01*
X174656612Y-107567862D01*
X174593543Y-107597930D01*
X174573876Y-107599500D01*
X172837229Y-107599500D01*
X172770190Y-107579815D01*
X172749548Y-107563181D01*
X172061819Y-106875451D01*
X172028334Y-106814128D01*
X172025500Y-106787770D01*
X172025500Y-106668386D01*
X172019086Y-106597807D01*
X172019086Y-106597804D01*
X171968478Y-106435394D01*
X171880472Y-106289815D01*
X171880470Y-106289813D01*
X171880469Y-106289811D01*
X171760188Y-106169530D01*
X171654809Y-106105826D01*
X171614606Y-106081522D01*
X171452196Y-106030914D01*
X171452194Y-106030913D01*
X171452192Y-106030913D01*
X171402778Y-106026423D01*
X171381616Y-106024500D01*
X170868384Y-106024500D01*
X170849145Y-106026248D01*
X170797807Y-106030913D01*
X170635393Y-106081522D01*
X170489811Y-106169530D01*
X170489810Y-106169531D01*
X170437181Y-106222161D01*
X170375858Y-106255646D01*
X170306166Y-106250662D01*
X170250233Y-106208790D01*
X170225816Y-106143326D01*
X170225500Y-106134480D01*
X170225500Y-104926141D01*
X170245185Y-104859102D01*
X170297989Y-104813347D01*
X170367147Y-104803403D01*
X170414597Y-104820603D01*
X170562916Y-104912088D01*
X170562927Y-104912093D01*
X170722416Y-104964942D01*
X170820856Y-104974999D01*
X171337500Y-104974999D01*
X171354136Y-104974999D01*
X171354152Y-104974998D01*
X171452583Y-104964943D01*
X171612072Y-104912093D01*
X171612077Y-104912091D01*
X171755080Y-104823885D01*
X171873885Y-104705080D01*
X171962091Y-104562077D01*
X171962093Y-104562072D01*
X172014942Y-104402583D01*
X172024999Y-104304150D01*
X172025000Y-104304137D01*
X172025000Y-104250000D01*
X171337500Y-104250000D01*
X171337500Y-104974999D01*
X170820856Y-104974999D01*
X170837500Y-104974998D01*
X170837500Y-103750000D01*
X171337500Y-103750000D01*
X172024999Y-103750000D01*
X172024999Y-103695864D01*
X172024998Y-103695847D01*
X172014943Y-103597416D01*
X171962093Y-103437927D01*
X171962091Y-103437922D01*
X171873885Y-103294919D01*
X171755080Y-103176114D01*
X171612077Y-103087908D01*
X171612072Y-103087906D01*
X171452583Y-103035057D01*
X171354150Y-103025000D01*
X171337500Y-103025000D01*
X171337500Y-103750000D01*
X170837500Y-103750000D01*
X170837500Y-103024999D01*
X170820856Y-103025000D01*
X170722415Y-103035057D01*
X170562927Y-103087906D01*
X170562922Y-103087908D01*
X170419919Y-103176114D01*
X170388033Y-103208000D01*
X170326709Y-103241485D01*
X170257018Y-103236499D01*
X170212673Y-103208000D01*
X170180392Y-103175719D01*
X170180387Y-103175716D01*
X170037295Y-103087455D01*
X170037289Y-103087452D01*
X170037287Y-103087451D01*
X169877685Y-103034564D01*
X169877683Y-103034563D01*
X169779181Y-103024500D01*
X169779174Y-103024500D01*
X169245826Y-103024500D01*
X169245818Y-103024500D01*
X169147316Y-103034563D01*
X169147315Y-103034564D01*
X169068219Y-103060773D01*
X168987715Y-103087450D01*
X168987704Y-103087455D01*
X168844612Y-103175716D01*
X168844608Y-103175719D01*
X168725719Y-103294608D01*
X168725716Y-103294612D01*
X168637455Y-103437704D01*
X168637450Y-103437715D01*
X168637380Y-103437927D01*
X168584564Y-103597315D01*
X168584564Y-103597316D01*
X168584563Y-103597316D01*
X168574500Y-103695818D01*
X168574500Y-104304181D01*
X168584563Y-104402683D01*
X168584564Y-104402684D01*
X168637450Y-104562285D01*
X168637453Y-104562292D01*
X168706038Y-104673482D01*
X168724500Y-104738580D01*
X168724500Y-106247023D01*
X168706617Y-106311171D01*
X168675673Y-106362358D01*
X168631522Y-106435393D01*
X168580913Y-106597807D01*
X168574500Y-106668386D01*
X168574500Y-107331613D01*
X168580914Y-107402197D01*
X168592261Y-107438610D01*
X168593413Y-107508470D01*
X168556612Y-107567862D01*
X168493543Y-107597930D01*
X168473876Y-107599500D01*
X166737229Y-107599500D01*
X166670190Y-107579815D01*
X166649548Y-107563181D01*
X165961819Y-106875451D01*
X165928334Y-106814128D01*
X165925500Y-106787770D01*
X165925500Y-106668386D01*
X165919086Y-106597807D01*
X165919086Y-106597804D01*
X165868478Y-106435394D01*
X165780472Y-106289815D01*
X165780470Y-106289813D01*
X165780469Y-106289811D01*
X165660188Y-106169530D01*
X165554809Y-106105826D01*
X165514606Y-106081522D01*
X165352196Y-106030914D01*
X165352194Y-106030913D01*
X165352192Y-106030913D01*
X165302778Y-106026423D01*
X165281616Y-106024500D01*
X164768384Y-106024500D01*
X164749145Y-106026248D01*
X164697807Y-106030913D01*
X164535393Y-106081522D01*
X164389811Y-106169530D01*
X164389810Y-106169531D01*
X164337181Y-106222161D01*
X164275858Y-106255646D01*
X164206166Y-106250662D01*
X164150233Y-106208790D01*
X164125816Y-106143326D01*
X164125500Y-106134480D01*
X164125500Y-104926141D01*
X164145185Y-104859102D01*
X164197989Y-104813347D01*
X164267147Y-104803403D01*
X164314597Y-104820603D01*
X164462916Y-104912088D01*
X164462927Y-104912093D01*
X164622416Y-104964942D01*
X164720856Y-104974999D01*
X165237500Y-104974999D01*
X165254136Y-104974999D01*
X165254152Y-104974998D01*
X165352583Y-104964943D01*
X165512072Y-104912093D01*
X165512077Y-104912091D01*
X165655080Y-104823885D01*
X165773885Y-104705080D01*
X165862091Y-104562077D01*
X165862093Y-104562072D01*
X165914942Y-104402583D01*
X165924999Y-104304150D01*
X165925000Y-104304137D01*
X165925000Y-104250000D01*
X165237500Y-104250000D01*
X165237500Y-104974999D01*
X164720856Y-104974999D01*
X164737500Y-104974998D01*
X164737500Y-103750000D01*
X165237500Y-103750000D01*
X165924999Y-103750000D01*
X165924999Y-103695864D01*
X165924998Y-103695847D01*
X165914943Y-103597416D01*
X165862093Y-103437927D01*
X165862091Y-103437922D01*
X165773885Y-103294919D01*
X165655080Y-103176114D01*
X165512077Y-103087908D01*
X165512072Y-103087906D01*
X165352583Y-103035057D01*
X165254150Y-103025000D01*
X165237500Y-103025000D01*
X165237500Y-103750000D01*
X164737500Y-103750000D01*
X164737500Y-103024999D01*
X164720856Y-103025000D01*
X164622415Y-103035057D01*
X164462927Y-103087906D01*
X164462922Y-103087908D01*
X164319919Y-103176114D01*
X164288033Y-103208000D01*
X164226709Y-103241485D01*
X164157018Y-103236499D01*
X164112673Y-103208000D01*
X164080392Y-103175719D01*
X164080387Y-103175716D01*
X163937295Y-103087455D01*
X163937289Y-103087452D01*
X163937287Y-103087451D01*
X163777685Y-103034564D01*
X163777683Y-103034563D01*
X163679181Y-103024500D01*
X163679174Y-103024500D01*
X163145826Y-103024500D01*
X163145818Y-103024500D01*
X163047316Y-103034563D01*
X163047315Y-103034564D01*
X162968219Y-103060773D01*
X162887715Y-103087450D01*
X162887704Y-103087455D01*
X162744612Y-103175716D01*
X162744608Y-103175719D01*
X162625719Y-103294608D01*
X162625716Y-103294612D01*
X162537455Y-103437704D01*
X162537450Y-103437715D01*
X162537380Y-103437927D01*
X162484564Y-103597315D01*
X162484564Y-103597316D01*
X162484563Y-103597316D01*
X162474500Y-103695818D01*
X162474500Y-104304181D01*
X162484563Y-104402683D01*
X162484564Y-104402684D01*
X162537450Y-104562285D01*
X162537453Y-104562292D01*
X162606038Y-104673482D01*
X162624500Y-104738580D01*
X162624500Y-106247023D01*
X162606617Y-106311171D01*
X162575673Y-106362358D01*
X162531522Y-106435393D01*
X162480913Y-106597807D01*
X162474500Y-106668386D01*
X162474500Y-107331613D01*
X162480914Y-107402197D01*
X162492261Y-107438610D01*
X162493413Y-107508470D01*
X162456612Y-107567862D01*
X162393543Y-107597930D01*
X162373876Y-107599500D01*
X160637229Y-107599500D01*
X160570190Y-107579815D01*
X160549548Y-107563181D01*
X159861819Y-106875451D01*
X159828334Y-106814128D01*
X159825500Y-106787770D01*
X159825500Y-106668386D01*
X159819086Y-106597807D01*
X159819086Y-106597804D01*
X159768478Y-106435394D01*
X159680472Y-106289815D01*
X159680470Y-106289813D01*
X159680469Y-106289811D01*
X159560188Y-106169530D01*
X159454809Y-106105826D01*
X159414606Y-106081522D01*
X159252196Y-106030914D01*
X159252194Y-106030913D01*
X159252192Y-106030913D01*
X159202778Y-106026423D01*
X159181616Y-106024500D01*
X158668384Y-106024500D01*
X158649145Y-106026248D01*
X158597807Y-106030913D01*
X158435393Y-106081522D01*
X158289811Y-106169530D01*
X158289810Y-106169531D01*
X158274681Y-106184661D01*
X158213358Y-106218146D01*
X158143666Y-106213162D01*
X158087733Y-106171290D01*
X158063316Y-106105826D01*
X158063000Y-106096980D01*
X158063000Y-104949271D01*
X158082685Y-104882232D01*
X158135489Y-104836477D01*
X158204647Y-104826533D01*
X158252098Y-104843733D01*
X158362920Y-104912090D01*
X158362927Y-104912093D01*
X158522416Y-104964942D01*
X158620856Y-104974999D01*
X159137500Y-104974999D01*
X159154136Y-104974999D01*
X159154152Y-104974998D01*
X159252583Y-104964943D01*
X159412072Y-104912093D01*
X159412077Y-104912091D01*
X159555080Y-104823885D01*
X159673885Y-104705080D01*
X159762091Y-104562077D01*
X159762093Y-104562072D01*
X159814942Y-104402583D01*
X159824999Y-104304150D01*
X159825000Y-104304137D01*
X159825000Y-104250000D01*
X159137500Y-104250000D01*
X159137500Y-104974999D01*
X158620856Y-104974999D01*
X158637500Y-104974998D01*
X158637500Y-103750000D01*
X159137500Y-103750000D01*
X159824999Y-103750000D01*
X159824999Y-103695864D01*
X159824998Y-103695847D01*
X159814943Y-103597416D01*
X159762093Y-103437927D01*
X159762091Y-103437922D01*
X159673885Y-103294919D01*
X159555080Y-103176114D01*
X159412077Y-103087908D01*
X159412072Y-103087906D01*
X159252583Y-103035057D01*
X159154150Y-103025000D01*
X159137500Y-103025000D01*
X159137500Y-103750000D01*
X158637500Y-103750000D01*
X158637500Y-103024999D01*
X158620856Y-103025000D01*
X158522415Y-103035057D01*
X158362927Y-103087906D01*
X158362922Y-103087908D01*
X158219919Y-103176114D01*
X158188033Y-103208000D01*
X158126709Y-103241485D01*
X158057018Y-103236499D01*
X158012673Y-103208000D01*
X157980392Y-103175719D01*
X157980387Y-103175716D01*
X157837295Y-103087455D01*
X157837289Y-103087452D01*
X157837287Y-103087451D01*
X157677685Y-103034564D01*
X157677683Y-103034563D01*
X157579181Y-103024500D01*
X157579174Y-103024500D01*
X157045826Y-103024500D01*
X157045818Y-103024500D01*
X156947316Y-103034563D01*
X156947315Y-103034564D01*
X156868219Y-103060773D01*
X156787715Y-103087450D01*
X156787704Y-103087455D01*
X156644612Y-103175716D01*
X156644608Y-103175719D01*
X156525719Y-103294608D01*
X156525716Y-103294612D01*
X156437455Y-103437704D01*
X156437450Y-103437715D01*
X156437380Y-103437927D01*
X156384564Y-103597315D01*
X156384564Y-103597316D01*
X156384563Y-103597316D01*
X156374500Y-103695818D01*
X156374500Y-104304181D01*
X156384563Y-104402683D01*
X156437450Y-104562284D01*
X156437455Y-104562295D01*
X156525716Y-104705387D01*
X156530197Y-104711054D01*
X156529217Y-104711828D01*
X156559166Y-104766676D01*
X156562000Y-104793034D01*
X156562000Y-106195980D01*
X156542315Y-106263019D01*
X156525681Y-106283661D01*
X156519531Y-106289810D01*
X156519530Y-106289811D01*
X156431522Y-106435393D01*
X156380913Y-106597807D01*
X156374500Y-106668386D01*
X156374500Y-107331613D01*
X156380914Y-107402197D01*
X156392261Y-107438610D01*
X156393413Y-107508470D01*
X156356612Y-107567862D01*
X156293543Y-107597930D01*
X156273876Y-107599500D01*
X154437229Y-107599500D01*
X154370190Y-107579815D01*
X154349548Y-107563181D01*
X153661819Y-106875451D01*
X153628334Y-106814128D01*
X153625500Y-106787770D01*
X153625500Y-106668386D01*
X153619086Y-106597807D01*
X153619086Y-106597804D01*
X153568478Y-106435394D01*
X153480472Y-106289815D01*
X153480470Y-106289813D01*
X153480469Y-106289811D01*
X153360188Y-106169530D01*
X153254809Y-106105826D01*
X153214606Y-106081522D01*
X153052196Y-106030914D01*
X153052194Y-106030913D01*
X153052192Y-106030913D01*
X153002778Y-106026423D01*
X152981616Y-106024500D01*
X152468384Y-106024500D01*
X152449145Y-106026248D01*
X152397807Y-106030913D01*
X152235393Y-106081522D01*
X152089811Y-106169530D01*
X152089810Y-106169531D01*
X152074681Y-106184661D01*
X152013358Y-106218146D01*
X151943666Y-106213162D01*
X151887733Y-106171290D01*
X151863316Y-106105826D01*
X151863000Y-106096980D01*
X151863000Y-104949271D01*
X151882685Y-104882232D01*
X151935489Y-104836477D01*
X152004647Y-104826533D01*
X152052098Y-104843733D01*
X152162920Y-104912090D01*
X152162927Y-104912093D01*
X152322416Y-104964942D01*
X152420856Y-104974999D01*
X152937500Y-104974999D01*
X152954136Y-104974999D01*
X152954152Y-104974998D01*
X153052583Y-104964943D01*
X153212072Y-104912093D01*
X153212077Y-104912091D01*
X153355080Y-104823885D01*
X153473885Y-104705080D01*
X153562091Y-104562077D01*
X153562093Y-104562072D01*
X153614942Y-104402583D01*
X153624999Y-104304150D01*
X153625000Y-104304137D01*
X153625000Y-104250000D01*
X152937500Y-104250000D01*
X152937500Y-104974999D01*
X152420856Y-104974999D01*
X152437500Y-104974998D01*
X152437500Y-103750000D01*
X152937500Y-103750000D01*
X153624999Y-103750000D01*
X153624999Y-103695864D01*
X153624998Y-103695847D01*
X153614943Y-103597416D01*
X153562093Y-103437927D01*
X153562091Y-103437922D01*
X153473885Y-103294919D01*
X153355080Y-103176114D01*
X153212077Y-103087908D01*
X153212072Y-103087906D01*
X153052583Y-103035057D01*
X152954150Y-103025000D01*
X152937500Y-103025000D01*
X152937500Y-103750000D01*
X152437500Y-103750000D01*
X152437500Y-103024999D01*
X152420856Y-103025000D01*
X152322415Y-103035057D01*
X152162927Y-103087906D01*
X152162922Y-103087908D01*
X152019919Y-103176114D01*
X151988033Y-103208000D01*
X151926709Y-103241485D01*
X151857018Y-103236499D01*
X151812673Y-103208000D01*
X151780392Y-103175719D01*
X151780387Y-103175716D01*
X151637295Y-103087455D01*
X151637289Y-103087452D01*
X151637287Y-103087451D01*
X151477685Y-103034564D01*
X151477683Y-103034563D01*
X151379181Y-103024500D01*
X151379174Y-103024500D01*
X150845826Y-103024500D01*
X150845818Y-103024500D01*
X150747316Y-103034563D01*
X150747315Y-103034564D01*
X150668219Y-103060773D01*
X150587715Y-103087450D01*
X150587704Y-103087455D01*
X150444612Y-103175716D01*
X150444608Y-103175719D01*
X150325719Y-103294608D01*
X150325716Y-103294612D01*
X150237455Y-103437704D01*
X150237450Y-103437715D01*
X150237380Y-103437927D01*
X150184564Y-103597315D01*
X150184564Y-103597316D01*
X150184563Y-103597316D01*
X150174500Y-103695818D01*
X150174500Y-104304181D01*
X150184563Y-104402683D01*
X150237450Y-104562284D01*
X150237455Y-104562295D01*
X150325716Y-104705387D01*
X150330197Y-104711054D01*
X150329217Y-104711828D01*
X150359166Y-104766676D01*
X150362000Y-104793034D01*
X150362000Y-106195980D01*
X150342315Y-106263019D01*
X150325681Y-106283661D01*
X150319531Y-106289810D01*
X150319530Y-106289811D01*
X150231522Y-106435393D01*
X150180913Y-106597807D01*
X150174500Y-106668386D01*
X150174500Y-107331613D01*
X150180914Y-107402197D01*
X150192261Y-107438610D01*
X150193413Y-107508470D01*
X150156612Y-107567862D01*
X150093543Y-107597930D01*
X150073876Y-107599500D01*
X148337229Y-107599500D01*
X148270190Y-107579815D01*
X148249548Y-107563181D01*
X147561819Y-106875451D01*
X147528334Y-106814128D01*
X147525500Y-106787770D01*
X147525500Y-106668386D01*
X147519086Y-106597807D01*
X147519086Y-106597804D01*
X147468478Y-106435394D01*
X147380472Y-106289815D01*
X147380470Y-106289813D01*
X147380469Y-106289811D01*
X147260188Y-106169530D01*
X147154809Y-106105826D01*
X147114606Y-106081522D01*
X146952196Y-106030914D01*
X146952194Y-106030913D01*
X146952192Y-106030913D01*
X146902778Y-106026423D01*
X146881616Y-106024500D01*
X146368384Y-106024500D01*
X146349145Y-106026248D01*
X146297807Y-106030913D01*
X146135393Y-106081522D01*
X145989811Y-106169530D01*
X145989810Y-106169531D01*
X145937181Y-106222161D01*
X145875858Y-106255646D01*
X145806166Y-106250662D01*
X145750233Y-106208790D01*
X145725816Y-106143326D01*
X145725500Y-106134480D01*
X145725500Y-104926141D01*
X145745185Y-104859102D01*
X145797989Y-104813347D01*
X145867147Y-104803403D01*
X145914597Y-104820603D01*
X146062916Y-104912088D01*
X146062927Y-104912093D01*
X146222416Y-104964942D01*
X146320856Y-104974999D01*
X146837500Y-104974999D01*
X146854136Y-104974999D01*
X146854152Y-104974998D01*
X146952583Y-104964943D01*
X147112072Y-104912093D01*
X147112077Y-104912091D01*
X147255080Y-104823885D01*
X147373885Y-104705080D01*
X147462091Y-104562077D01*
X147462093Y-104562072D01*
X147514942Y-104402583D01*
X147524999Y-104304150D01*
X147525000Y-104304137D01*
X147525000Y-104250000D01*
X146837500Y-104250000D01*
X146837500Y-104974999D01*
X146320856Y-104974999D01*
X146337500Y-104974998D01*
X146337500Y-103750000D01*
X146837500Y-103750000D01*
X147524999Y-103750000D01*
X147524999Y-103695864D01*
X147524998Y-103695847D01*
X147514943Y-103597416D01*
X147462093Y-103437927D01*
X147462091Y-103437922D01*
X147373885Y-103294919D01*
X147255080Y-103176114D01*
X147112077Y-103087908D01*
X147112072Y-103087906D01*
X146952583Y-103035057D01*
X146854150Y-103025000D01*
X146837500Y-103025000D01*
X146837500Y-103750000D01*
X146337500Y-103750000D01*
X146337500Y-103024999D01*
X146320856Y-103025000D01*
X146222415Y-103035057D01*
X146062927Y-103087906D01*
X146062922Y-103087908D01*
X145919919Y-103176114D01*
X145888033Y-103208000D01*
X145826709Y-103241485D01*
X145757018Y-103236499D01*
X145712673Y-103208000D01*
X145680392Y-103175719D01*
X145680387Y-103175716D01*
X145537295Y-103087455D01*
X145537289Y-103087452D01*
X145537287Y-103087451D01*
X145377685Y-103034564D01*
X145377683Y-103034563D01*
X145279181Y-103024500D01*
X145279174Y-103024500D01*
X144745826Y-103024500D01*
X144745818Y-103024500D01*
X144647316Y-103034563D01*
X144647315Y-103034564D01*
X144568219Y-103060773D01*
X144487715Y-103087450D01*
X144487704Y-103087455D01*
X144344612Y-103175716D01*
X144344608Y-103175719D01*
X144225719Y-103294608D01*
X144225716Y-103294612D01*
X144137455Y-103437704D01*
X144137450Y-103437715D01*
X144137380Y-103437927D01*
X144084564Y-103597315D01*
X144084564Y-103597316D01*
X144084563Y-103597316D01*
X144074500Y-103695818D01*
X144074500Y-104304181D01*
X144084563Y-104402683D01*
X144084564Y-104402684D01*
X144137450Y-104562285D01*
X144137453Y-104562292D01*
X144206038Y-104673482D01*
X144224500Y-104738580D01*
X144224500Y-106247023D01*
X144206617Y-106311171D01*
X144175673Y-106362358D01*
X144131522Y-106435393D01*
X144080913Y-106597807D01*
X144074500Y-106668386D01*
X144074500Y-107331613D01*
X144080914Y-107402197D01*
X144092261Y-107438610D01*
X144093413Y-107508470D01*
X144056612Y-107567862D01*
X143993543Y-107597930D01*
X143973876Y-107599500D01*
X142237229Y-107599500D01*
X142170190Y-107579815D01*
X142149548Y-107563181D01*
X141461819Y-106875451D01*
X141428334Y-106814128D01*
X141425500Y-106787770D01*
X141425500Y-106668386D01*
X141419086Y-106597807D01*
X141419086Y-106597804D01*
X141368478Y-106435394D01*
X141280472Y-106289815D01*
X141280470Y-106289813D01*
X141280469Y-106289811D01*
X141160188Y-106169530D01*
X141054809Y-106105826D01*
X141014606Y-106081522D01*
X140852196Y-106030914D01*
X140852194Y-106030913D01*
X140852192Y-106030913D01*
X140802778Y-106026423D01*
X140781616Y-106024500D01*
X140268384Y-106024500D01*
X140249145Y-106026248D01*
X140197807Y-106030913D01*
X140035393Y-106081522D01*
X139889811Y-106169530D01*
X139889810Y-106169531D01*
X139874681Y-106184661D01*
X139813358Y-106218146D01*
X139743666Y-106213162D01*
X139687733Y-106171290D01*
X139663316Y-106105826D01*
X139663000Y-106096980D01*
X139663000Y-104949271D01*
X139682685Y-104882232D01*
X139735489Y-104836477D01*
X139804647Y-104826533D01*
X139852098Y-104843733D01*
X139962920Y-104912090D01*
X139962927Y-104912093D01*
X140122416Y-104964942D01*
X140220856Y-104974999D01*
X140737500Y-104974999D01*
X140754136Y-104974999D01*
X140754152Y-104974998D01*
X140852583Y-104964943D01*
X141012072Y-104912093D01*
X141012077Y-104912091D01*
X141155080Y-104823885D01*
X141273885Y-104705080D01*
X141362091Y-104562077D01*
X141362093Y-104562072D01*
X141414942Y-104402583D01*
X141424999Y-104304150D01*
X141425000Y-104304137D01*
X141425000Y-104250000D01*
X140737500Y-104250000D01*
X140737500Y-104974999D01*
X140220856Y-104974999D01*
X140237500Y-104974998D01*
X140237500Y-103750000D01*
X140737500Y-103750000D01*
X141424999Y-103750000D01*
X141424999Y-103695864D01*
X141424998Y-103695847D01*
X141414943Y-103597416D01*
X141362093Y-103437927D01*
X141362091Y-103437922D01*
X141273885Y-103294919D01*
X141155080Y-103176114D01*
X141012077Y-103087908D01*
X141012072Y-103087906D01*
X140852583Y-103035057D01*
X140754150Y-103025000D01*
X140737500Y-103025000D01*
X140737500Y-103750000D01*
X140237500Y-103750000D01*
X140237500Y-103024999D01*
X140220856Y-103025000D01*
X140122415Y-103035057D01*
X139962927Y-103087906D01*
X139962922Y-103087908D01*
X139819919Y-103176114D01*
X139788033Y-103208000D01*
X139726709Y-103241485D01*
X139657018Y-103236499D01*
X139612673Y-103208000D01*
X139580392Y-103175719D01*
X139580387Y-103175716D01*
X139437295Y-103087455D01*
X139437289Y-103087452D01*
X139437287Y-103087451D01*
X139277685Y-103034564D01*
X139277683Y-103034563D01*
X139179181Y-103024500D01*
X139179174Y-103024500D01*
X138645826Y-103024500D01*
X138645818Y-103024500D01*
X138547316Y-103034563D01*
X138547315Y-103034564D01*
X138468219Y-103060773D01*
X138387715Y-103087450D01*
X138387704Y-103087455D01*
X138244612Y-103175716D01*
X138244608Y-103175719D01*
X138125719Y-103294608D01*
X138125716Y-103294612D01*
X138037455Y-103437704D01*
X138037450Y-103437715D01*
X138037380Y-103437927D01*
X137984564Y-103597315D01*
X137984564Y-103597316D01*
X137984563Y-103597316D01*
X137974500Y-103695818D01*
X137974500Y-104304181D01*
X137984563Y-104402683D01*
X138037450Y-104562284D01*
X138037455Y-104562295D01*
X138125716Y-104705387D01*
X138130197Y-104711054D01*
X138129217Y-104711828D01*
X138159166Y-104766676D01*
X138162000Y-104793034D01*
X138162000Y-106195980D01*
X138142315Y-106263019D01*
X138125681Y-106283661D01*
X138119531Y-106289810D01*
X138119530Y-106289811D01*
X138031522Y-106435393D01*
X137980913Y-106597807D01*
X137974500Y-106668386D01*
X137974500Y-107331613D01*
X137980914Y-107402197D01*
X137992261Y-107438610D01*
X137993413Y-107508470D01*
X137956612Y-107567862D01*
X137893543Y-107597930D01*
X137873876Y-107599500D01*
X136137229Y-107599500D01*
X136070190Y-107579815D01*
X136049548Y-107563181D01*
X135361819Y-106875451D01*
X135328334Y-106814128D01*
X135325500Y-106787770D01*
X135325500Y-106668386D01*
X135319086Y-106597807D01*
X135319086Y-106597804D01*
X135268478Y-106435394D01*
X135180472Y-106289815D01*
X135180470Y-106289813D01*
X135180469Y-106289811D01*
X135060188Y-106169530D01*
X134954809Y-106105826D01*
X134914606Y-106081522D01*
X134752196Y-106030914D01*
X134752194Y-106030913D01*
X134752192Y-106030913D01*
X134702778Y-106026423D01*
X134681616Y-106024500D01*
X134168384Y-106024500D01*
X134149145Y-106026248D01*
X134097807Y-106030913D01*
X133935393Y-106081522D01*
X133789811Y-106169530D01*
X133789810Y-106169531D01*
X133774681Y-106184661D01*
X133713358Y-106218146D01*
X133643666Y-106213162D01*
X133587733Y-106171290D01*
X133563316Y-106105826D01*
X133563000Y-106096980D01*
X133563000Y-104949271D01*
X133582685Y-104882232D01*
X133635489Y-104836477D01*
X133704647Y-104826533D01*
X133752098Y-104843733D01*
X133862920Y-104912090D01*
X133862927Y-104912093D01*
X134022416Y-104964942D01*
X134120856Y-104974999D01*
X134637500Y-104974999D01*
X134654136Y-104974999D01*
X134654152Y-104974998D01*
X134752583Y-104964943D01*
X134912072Y-104912093D01*
X134912077Y-104912091D01*
X135055080Y-104823885D01*
X135173885Y-104705080D01*
X135262091Y-104562077D01*
X135262093Y-104562072D01*
X135314942Y-104402583D01*
X135324999Y-104304150D01*
X135325000Y-104304137D01*
X135325000Y-104250000D01*
X134637500Y-104250000D01*
X134637500Y-104974999D01*
X134120856Y-104974999D01*
X134137500Y-104974998D01*
X134137500Y-103750000D01*
X134637500Y-103750000D01*
X135324999Y-103750000D01*
X135324999Y-103695864D01*
X135324998Y-103695847D01*
X135314943Y-103597416D01*
X135262093Y-103437927D01*
X135262091Y-103437922D01*
X135173885Y-103294919D01*
X135055080Y-103176114D01*
X134912077Y-103087908D01*
X134912072Y-103087906D01*
X134752583Y-103035057D01*
X134654150Y-103025000D01*
X134637500Y-103025000D01*
X134637500Y-103750000D01*
X134137500Y-103750000D01*
X134137500Y-103024999D01*
X134120856Y-103025000D01*
X134022415Y-103035057D01*
X133862927Y-103087906D01*
X133862922Y-103087908D01*
X133719919Y-103176114D01*
X133688033Y-103208000D01*
X133626709Y-103241485D01*
X133557018Y-103236499D01*
X133512673Y-103208000D01*
X133480392Y-103175719D01*
X133480387Y-103175716D01*
X133337295Y-103087455D01*
X133337289Y-103087452D01*
X133337287Y-103087451D01*
X133177685Y-103034564D01*
X133177683Y-103034563D01*
X133079181Y-103024500D01*
X133079174Y-103024500D01*
X132545826Y-103024500D01*
X132545818Y-103024500D01*
X132447316Y-103034563D01*
X132447315Y-103034564D01*
X132368219Y-103060773D01*
X132287715Y-103087450D01*
X132287704Y-103087455D01*
X132144612Y-103175716D01*
X132144608Y-103175719D01*
X132025719Y-103294608D01*
X132025716Y-103294612D01*
X131937455Y-103437704D01*
X131937450Y-103437715D01*
X131937380Y-103437927D01*
X131884564Y-103597315D01*
X131884564Y-103597316D01*
X131884563Y-103597316D01*
X131874500Y-103695818D01*
X131874500Y-104304181D01*
X131884563Y-104402683D01*
X131937450Y-104562284D01*
X131937455Y-104562295D01*
X132025716Y-104705387D01*
X132030197Y-104711054D01*
X132029217Y-104711828D01*
X132059166Y-104766676D01*
X132062000Y-104793034D01*
X132062000Y-106195980D01*
X132042315Y-106263019D01*
X132025681Y-106283661D01*
X132019531Y-106289810D01*
X132019530Y-106289811D01*
X131931522Y-106435393D01*
X131880913Y-106597807D01*
X131874500Y-106668386D01*
X131874500Y-107331613D01*
X131880914Y-107402197D01*
X131892261Y-107438610D01*
X131893413Y-107508470D01*
X131856612Y-107567862D01*
X131793543Y-107597930D01*
X131773876Y-107599500D01*
X130037229Y-107599500D01*
X129970190Y-107579815D01*
X129949548Y-107563181D01*
X129261819Y-106875451D01*
X129228334Y-106814128D01*
X129225500Y-106787770D01*
X129225500Y-106668386D01*
X129219086Y-106597807D01*
X129219086Y-106597804D01*
X129168478Y-106435394D01*
X129080472Y-106289815D01*
X129080470Y-106289813D01*
X129080469Y-106289811D01*
X128960188Y-106169530D01*
X128854809Y-106105826D01*
X128814606Y-106081522D01*
X128652196Y-106030914D01*
X128652194Y-106030913D01*
X128652192Y-106030913D01*
X128602778Y-106026423D01*
X128581616Y-106024500D01*
X128068384Y-106024500D01*
X128049145Y-106026248D01*
X127997807Y-106030913D01*
X127835393Y-106081522D01*
X127689811Y-106169530D01*
X127689810Y-106169531D01*
X127674681Y-106184661D01*
X127613358Y-106218146D01*
X127543666Y-106213162D01*
X127487733Y-106171290D01*
X127463316Y-106105826D01*
X127463000Y-106096980D01*
X127463000Y-104949271D01*
X127482685Y-104882232D01*
X127535489Y-104836477D01*
X127604647Y-104826533D01*
X127652098Y-104843733D01*
X127762920Y-104912090D01*
X127762927Y-104912093D01*
X127922416Y-104964942D01*
X128020856Y-104974999D01*
X128537500Y-104974999D01*
X128554136Y-104974999D01*
X128554152Y-104974998D01*
X128652583Y-104964943D01*
X128812072Y-104912093D01*
X128812077Y-104912091D01*
X128955080Y-104823885D01*
X129073885Y-104705080D01*
X129162091Y-104562077D01*
X129162093Y-104562072D01*
X129214942Y-104402583D01*
X129224999Y-104304150D01*
X129225000Y-104304137D01*
X129225000Y-104250000D01*
X128537500Y-104250000D01*
X128537500Y-104974999D01*
X128020856Y-104974999D01*
X128037500Y-104974998D01*
X128037500Y-103750000D01*
X128537500Y-103750000D01*
X129224999Y-103750000D01*
X129224999Y-103695864D01*
X129224998Y-103695847D01*
X129214943Y-103597416D01*
X129162093Y-103437927D01*
X129162091Y-103437922D01*
X129073885Y-103294919D01*
X128955080Y-103176114D01*
X128812077Y-103087908D01*
X128812072Y-103087906D01*
X128652583Y-103035057D01*
X128554150Y-103025000D01*
X128537500Y-103025000D01*
X128537500Y-103750000D01*
X128037500Y-103750000D01*
X128037500Y-103024999D01*
X128020856Y-103025000D01*
X127922415Y-103035057D01*
X127762927Y-103087906D01*
X127762922Y-103087908D01*
X127619919Y-103176114D01*
X127588033Y-103208000D01*
X127526709Y-103241485D01*
X127457018Y-103236499D01*
X127412673Y-103208000D01*
X127380392Y-103175719D01*
X127380387Y-103175716D01*
X127237295Y-103087455D01*
X127237289Y-103087452D01*
X127237287Y-103087451D01*
X127077685Y-103034564D01*
X127077683Y-103034563D01*
X126979181Y-103024500D01*
X126979174Y-103024500D01*
X126445826Y-103024500D01*
X126445818Y-103024500D01*
X126347316Y-103034563D01*
X126347315Y-103034564D01*
X126268219Y-103060773D01*
X126187715Y-103087450D01*
X126187704Y-103087455D01*
X126044612Y-103175716D01*
X126044608Y-103175719D01*
X125925719Y-103294608D01*
X125925716Y-103294612D01*
X125837455Y-103437704D01*
X125837450Y-103437715D01*
X125837380Y-103437927D01*
X125784564Y-103597315D01*
X125784564Y-103597316D01*
X125784563Y-103597316D01*
X125774500Y-103695818D01*
X125774500Y-104304181D01*
X125784563Y-104402683D01*
X125837450Y-104562284D01*
X125837455Y-104562295D01*
X125925716Y-104705387D01*
X125930197Y-104711054D01*
X125929217Y-104711828D01*
X125959166Y-104766676D01*
X125962000Y-104793034D01*
X125962000Y-106195980D01*
X125942315Y-106263019D01*
X125925681Y-106283661D01*
X125919531Y-106289810D01*
X125919530Y-106289811D01*
X125831522Y-106435393D01*
X125780913Y-106597807D01*
X125774500Y-106668386D01*
X125774500Y-107125903D01*
X125754815Y-107192942D01*
X125702011Y-107238697D01*
X125632853Y-107248641D01*
X125569297Y-107219616D01*
X125562819Y-107213584D01*
X121428102Y-103078867D01*
X121394617Y-103017544D01*
X121397851Y-102952874D01*
X121442246Y-102816243D01*
X121475500Y-102606287D01*
X121475500Y-102393713D01*
X121442246Y-102183757D01*
X121376557Y-101981588D01*
X121280051Y-101792184D01*
X121280049Y-101792181D01*
X121280048Y-101792179D01*
X121155109Y-101620213D01*
X121004786Y-101469890D01*
X120832820Y-101344951D01*
X120643414Y-101248444D01*
X120643413Y-101248443D01*
X120643412Y-101248443D01*
X120441243Y-101182754D01*
X120441241Y-101182753D01*
X120441240Y-101182753D01*
X120279957Y-101157208D01*
X120231287Y-101149500D01*
X119768713Y-101149500D01*
X119720042Y-101157208D01*
X119558760Y-101182753D01*
X119356585Y-101248444D01*
X119167179Y-101344951D01*
X118995213Y-101469890D01*
X118844890Y-101620213D01*
X118719951Y-101792179D01*
X118623444Y-101981585D01*
X118557753Y-102183760D01*
X118524500Y-102393713D01*
X110500500Y-102393713D01*
X110500500Y-100624500D01*
X110520185Y-100557461D01*
X110572989Y-100511706D01*
X110624500Y-100500500D01*
X199375500Y-100500500D01*
X199442539Y-100520185D01*
G37*
%TD.AperFunction*%
%TD*%
M02*
