%TF.GenerationSoftware,KiCad,Pcbnew,8.0.5*%
%TF.CreationDate,2025-12-09T16:42:46+09:00*%
%TF.ProjectId,Line_board_V1.0,4c696e65-5f62-46f6-9172-645f56312e30,rev?*%
%TF.SameCoordinates,Original*%
%TF.FileFunction,Legend,Top*%
%TF.FilePolarity,Positive*%
%FSLAX46Y46*%
G04 Gerber Fmt 4.6, Leading zero omitted, Abs format (unit mm)*
G04 Created by KiCad (PCBNEW 8.0.5) date 2025-12-09 16:42:46*
%MOMM*%
%LPD*%
G01*
G04 APERTURE LIST*
%ADD10C,0.150000*%
%ADD11C,0.000000*%
%ADD12C,0.120000*%
G04 APERTURE END LIST*
D10*
X115904819Y-117833333D02*
X116619104Y-117833333D01*
X116619104Y-117833333D02*
X116761961Y-117880952D01*
X116761961Y-117880952D02*
X116857200Y-117976190D01*
X116857200Y-117976190D02*
X116904819Y-118119047D01*
X116904819Y-118119047D02*
X116904819Y-118214285D01*
X116904819Y-116833333D02*
X116904819Y-117404761D01*
X116904819Y-117119047D02*
X115904819Y-117119047D01*
X115904819Y-117119047D02*
X116047676Y-117214285D01*
X116047676Y-117214285D02*
X116142914Y-117309523D01*
X116142914Y-117309523D02*
X116190533Y-117404761D01*
D11*
%TO.C,G\u002A\u002A\u002A*%
G36*
X186824460Y-117572763D02*
G01*
X186818863Y-117578360D01*
X186813266Y-117572763D01*
X186818863Y-117567166D01*
X186824460Y-117572763D01*
G37*
G36*
X187583174Y-116618655D02*
G01*
X187579489Y-116627796D01*
X187565905Y-116633067D01*
X187561263Y-116631185D01*
X187545796Y-116631924D01*
X187542334Y-116635712D01*
X187527031Y-116646219D01*
X187501607Y-116654454D01*
X187485126Y-116657005D01*
X187485526Y-116653373D01*
X187504098Y-116642001D01*
X187518511Y-116634061D01*
X187553348Y-116617684D01*
X187575748Y-116612462D01*
X187583174Y-116618655D01*
G37*
G36*
X188756897Y-116330972D02*
G01*
X188915633Y-116353161D01*
X189057735Y-116391528D01*
X189107737Y-116409924D01*
X189156486Y-116429979D01*
X189199577Y-116449627D01*
X189232604Y-116466802D01*
X189251161Y-116479440D01*
X189253636Y-116483371D01*
X189262783Y-116491381D01*
X189271209Y-116492507D01*
X189295433Y-116500335D01*
X189331898Y-116522344D01*
X189377598Y-116556326D01*
X189429525Y-116600070D01*
X189475924Y-116642905D01*
X189516794Y-116684082D01*
X189555021Y-116726044D01*
X189587464Y-116764968D01*
X189610982Y-116797033D01*
X189622434Y-116818414D01*
X189623050Y-116821959D01*
X189612328Y-116823612D01*
X189582052Y-116825106D01*
X189535057Y-116826383D01*
X189474176Y-116827385D01*
X189402244Y-116828054D01*
X189322096Y-116828333D01*
X189310085Y-116828338D01*
X188997120Y-116828338D01*
X188965859Y-116787174D01*
X188886196Y-116698559D01*
X188794054Y-116626696D01*
X188688285Y-116570993D01*
X188567739Y-116530861D01*
X188431269Y-116505709D01*
X188414001Y-116503695D01*
X188309910Y-116496677D01*
X188202093Y-116498678D01*
X188086518Y-116510092D01*
X187959151Y-116531313D01*
X187820758Y-116561583D01*
X187767160Y-116574398D01*
X187721225Y-116585367D01*
X187687463Y-116593414D01*
X187670386Y-116597464D01*
X187669634Y-116597639D01*
X187650779Y-116603038D01*
X187633353Y-116608656D01*
X187606381Y-116614858D01*
X187596760Y-116611003D01*
X187603392Y-116599719D01*
X187625183Y-116583636D01*
X187649133Y-116570805D01*
X187683925Y-116555497D01*
X187710661Y-116546165D01*
X187722893Y-116544756D01*
X187736442Y-116541996D01*
X187748880Y-116532401D01*
X187772197Y-116518012D01*
X187787042Y-116514896D01*
X187806242Y-116510042D01*
X187811430Y-116504504D01*
X187823460Y-116496508D01*
X187853205Y-116483834D01*
X187896788Y-116467737D01*
X187950336Y-116449471D01*
X188009974Y-116430287D01*
X188071825Y-116411440D01*
X188132015Y-116394183D01*
X188186670Y-116379770D01*
X188223755Y-116371139D01*
X188409349Y-116339922D01*
X188587599Y-116326546D01*
X188756897Y-116330972D01*
G37*
G36*
X187515137Y-116948677D02*
G01*
X187509794Y-116984990D01*
X187504522Y-117016680D01*
X187504158Y-117018642D01*
X187481067Y-117140989D01*
X187461305Y-117243448D01*
X187444235Y-117328166D01*
X187429219Y-117397289D01*
X187415617Y-117452962D01*
X187402791Y-117497333D01*
X187390102Y-117532548D01*
X187376912Y-117560752D01*
X187362582Y-117584093D01*
X187346473Y-117604717D01*
X187327947Y-117624769D01*
X187322008Y-117630806D01*
X187287918Y-117663766D01*
X187263363Y-117682856D01*
X187243185Y-117691098D01*
X187222226Y-117691517D01*
X187219061Y-117691139D01*
X187206140Y-117695890D01*
X187205068Y-117699737D01*
X187194775Y-117709895D01*
X187167419Y-117718196D01*
X187128285Y-117724131D01*
X187082659Y-117727193D01*
X187035825Y-117726871D01*
X186993069Y-117722659D01*
X186983980Y-117721008D01*
X186955041Y-117712824D01*
X186938172Y-117703555D01*
X186936404Y-117700179D01*
X186929735Y-117693659D01*
X186926735Y-117694958D01*
X186915219Y-117690693D01*
X186893762Y-117675545D01*
X186868207Y-117654509D01*
X186844397Y-117632579D01*
X186828175Y-117614752D01*
X186824460Y-117607523D01*
X186834417Y-117576127D01*
X186861369Y-117543560D01*
X186895542Y-117518369D01*
X186934600Y-117497665D01*
X186961511Y-117490790D01*
X186981898Y-117497951D01*
X187001385Y-117519359D01*
X187003570Y-117522388D01*
X187021850Y-117543543D01*
X187042765Y-117553373D01*
X187075612Y-117555955D01*
X187080202Y-117555971D01*
X187114662Y-117553795D01*
X187142614Y-117545654D01*
X187165430Y-117529128D01*
X187184484Y-117501796D01*
X187201147Y-117461239D01*
X187216793Y-117405036D01*
X187232793Y-117330769D01*
X187245273Y-117264918D01*
X187250340Y-117238283D01*
X187258443Y-117196785D01*
X187268528Y-117145708D01*
X187279541Y-117090336D01*
X187290427Y-117035954D01*
X187300132Y-116987846D01*
X187307602Y-116951297D01*
X187311715Y-116931886D01*
X187315803Y-116919971D01*
X187324488Y-116912556D01*
X187342297Y-116908581D01*
X187373760Y-116906982D01*
X187419150Y-116906699D01*
X187520862Y-116906699D01*
X187515137Y-116948677D01*
G37*
G36*
X188850639Y-116934264D02*
G01*
X188846606Y-116955498D01*
X188838691Y-116962670D01*
X188831467Y-116971252D01*
X188832783Y-116982261D01*
X188833539Y-117002871D01*
X188829558Y-117037361D01*
X188822467Y-117074614D01*
X188812833Y-117120508D01*
X188804647Y-117164791D01*
X188800573Y-117191380D01*
X188794082Y-117221403D01*
X188784889Y-117240950D01*
X188782459Y-117243156D01*
X188775279Y-117258972D01*
X188777432Y-117274715D01*
X188778873Y-117294239D01*
X188771835Y-117298501D01*
X188763831Y-117306646D01*
X188765520Y-117316303D01*
X188767655Y-117338283D01*
X188765007Y-117345987D01*
X188758809Y-117364996D01*
X188754544Y-117392553D01*
X188748515Y-117443245D01*
X188741420Y-117474542D01*
X188736795Y-117483243D01*
X188734033Y-117497652D01*
X188736006Y-117517054D01*
X188741306Y-117544777D01*
X188893923Y-117544948D01*
X188951135Y-117545702D01*
X189000954Y-117547645D01*
X189038755Y-117550504D01*
X189059912Y-117554005D01*
X189062009Y-117554917D01*
X189069371Y-117562543D01*
X189072419Y-117576208D01*
X189070970Y-117600067D01*
X189064843Y-117638274D01*
X189056463Y-117681908D01*
X189050359Y-117712692D01*
X188771389Y-117712692D01*
X188685356Y-117712646D01*
X188619122Y-117712363D01*
X188570098Y-117711622D01*
X188535697Y-117710206D01*
X188513329Y-117707895D01*
X188500404Y-117704471D01*
X188494335Y-117699714D01*
X188492531Y-117693407D01*
X188492420Y-117689107D01*
X188495112Y-117662133D01*
X188502087Y-117625936D01*
X188511696Y-117586635D01*
X188522287Y-117550351D01*
X188532211Y-117523202D01*
X188539817Y-117511309D01*
X188540401Y-117511194D01*
X188544998Y-117504880D01*
X188540411Y-117497201D01*
X188537348Y-117478188D01*
X188541087Y-117438515D01*
X188551557Y-117378826D01*
X188555381Y-117360070D01*
X188568946Y-117293383D01*
X188584001Y-117216739D01*
X188598188Y-117142239D01*
X188604470Y-117108197D01*
X188614593Y-117053622D01*
X188624150Y-117004097D01*
X188631970Y-116965577D01*
X188636390Y-116945879D01*
X188644914Y-116912296D01*
X188747777Y-116909077D01*
X188850639Y-116905858D01*
X188850639Y-116934264D01*
G37*
G36*
X192012999Y-116817506D02*
G01*
X192067963Y-116819063D01*
X192106382Y-116822526D01*
X192131173Y-116828600D01*
X192145257Y-116837996D01*
X192151551Y-116851422D01*
X192152975Y-116869180D01*
X192150172Y-116889347D01*
X192142550Y-116926309D01*
X192131292Y-116975410D01*
X192117577Y-117031993D01*
X192102588Y-117091401D01*
X192087506Y-117148977D01*
X192073512Y-117200065D01*
X192061788Y-117240009D01*
X192053515Y-117264150D01*
X192051910Y-117267565D01*
X192042873Y-117294922D01*
X192041003Y-117312342D01*
X192038127Y-117333837D01*
X192030426Y-117370696D01*
X192019254Y-117416762D01*
X192012056Y-117444028D01*
X191995916Y-117504408D01*
X191979529Y-117567495D01*
X191963900Y-117629211D01*
X191950036Y-117685475D01*
X191938943Y-117732208D01*
X191931626Y-117765328D01*
X191929088Y-117780572D01*
X191939924Y-117783736D01*
X191971004Y-117786433D01*
X192020186Y-117788584D01*
X192085331Y-117790109D01*
X192164295Y-117790930D01*
X192212809Y-117791053D01*
X192300013Y-117791136D01*
X192367584Y-117791520D01*
X192418276Y-117792408D01*
X192454847Y-117794004D01*
X192480050Y-117796510D01*
X192496641Y-117800130D01*
X192507375Y-117805068D01*
X192515008Y-117811525D01*
X192516819Y-117813472D01*
X192528912Y-117830297D01*
X192531232Y-117848682D01*
X192524577Y-117877653D01*
X192522963Y-117883107D01*
X192512812Y-117919490D01*
X192505090Y-117951481D01*
X192503824Y-117957854D01*
X192497364Y-117983488D01*
X192492020Y-117996407D01*
X192486163Y-118015006D01*
X192482704Y-118039262D01*
X192481584Y-118054628D01*
X192479575Y-118067372D01*
X192474744Y-118077740D01*
X192465163Y-118085976D01*
X192448900Y-118092326D01*
X192424026Y-118097033D01*
X192388610Y-118100343D01*
X192340721Y-118102500D01*
X192278429Y-118103749D01*
X192199805Y-118104335D01*
X192102916Y-118104503D01*
X191985834Y-118104496D01*
X191968138Y-118104495D01*
X191850935Y-118104447D01*
X191754056Y-118104248D01*
X191675434Y-118103813D01*
X191613004Y-118103060D01*
X191564701Y-118101903D01*
X191528458Y-118100260D01*
X191502210Y-118098046D01*
X191483892Y-118095177D01*
X191471438Y-118091571D01*
X191462783Y-118087142D01*
X191458239Y-118083802D01*
X191432685Y-118063110D01*
X191525849Y-117694798D01*
X191548591Y-117605061D01*
X191570178Y-117520208D01*
X191589847Y-117443210D01*
X191606838Y-117377036D01*
X191620387Y-117324657D01*
X191629732Y-117289044D01*
X191633243Y-117276112D01*
X191641020Y-117247296D01*
X191652792Y-117202080D01*
X191667188Y-117145802D01*
X191682837Y-117083798D01*
X191689332Y-117057822D01*
X191704667Y-116996522D01*
X191718858Y-116940196D01*
X191730675Y-116893693D01*
X191738891Y-116861859D01*
X191741110Y-116853525D01*
X191751031Y-116817144D01*
X191938570Y-116817144D01*
X192012999Y-116817506D01*
G37*
G36*
X189734373Y-116891507D02*
G01*
X189749766Y-116894250D01*
X189816586Y-116913712D01*
X189876391Y-116942082D01*
X189922184Y-116975902D01*
X189928747Y-116982686D01*
X189938863Y-116995561D01*
X189939933Y-117006918D01*
X189929676Y-117021865D01*
X189905812Y-117045508D01*
X189896990Y-117053811D01*
X189860547Y-117087151D01*
X189835460Y-117106434D01*
X189817227Y-117113403D01*
X189801344Y-117109804D01*
X189783716Y-117097703D01*
X189729599Y-117067433D01*
X189672540Y-117056785D01*
X189614906Y-117063631D01*
X189559064Y-117085845D01*
X189507383Y-117121297D01*
X189462228Y-117167860D01*
X189425969Y-117223407D01*
X189400972Y-117285810D01*
X189389604Y-117352940D01*
X189394234Y-117422671D01*
X189399012Y-117443466D01*
X189422851Y-117497340D01*
X189461683Y-117534849D01*
X189511683Y-117556127D01*
X189570227Y-117561453D01*
X189632412Y-117549474D01*
X189689985Y-117521851D01*
X189693412Y-117519525D01*
X189719428Y-117506491D01*
X189740460Y-117504062D01*
X189741569Y-117504423D01*
X189752793Y-117504987D01*
X189751706Y-117499871D01*
X189752112Y-117489623D01*
X189755672Y-117488805D01*
X189767435Y-117497237D01*
X189787091Y-117519146D01*
X189806362Y-117544323D01*
X189828264Y-117575729D01*
X189836968Y-117595745D01*
X189831990Y-117611408D01*
X189812846Y-117629756D01*
X189799750Y-117640543D01*
X189768868Y-117660218D01*
X189724262Y-117681936D01*
X189673933Y-117702331D01*
X189625883Y-117718040D01*
X189601932Y-117723730D01*
X189565659Y-117730145D01*
X189538383Y-117732933D01*
X189511339Y-117732088D01*
X189475764Y-117727604D01*
X189449537Y-117723606D01*
X189404926Y-117714171D01*
X189363529Y-117701101D01*
X189330758Y-117686580D01*
X189312025Y-117672794D01*
X189309608Y-117667104D01*
X189303608Y-117659727D01*
X189300782Y-117660854D01*
X189286864Y-117657479D01*
X189265681Y-117639349D01*
X189241186Y-117611085D01*
X189229936Y-117595152D01*
X189824548Y-117595152D01*
X189830146Y-117600749D01*
X189835743Y-117595152D01*
X189830146Y-117589555D01*
X189824548Y-117595152D01*
X189229936Y-117595152D01*
X189217335Y-117577306D01*
X189198082Y-117542632D01*
X189196394Y-117538916D01*
X189180849Y-117482466D01*
X189176054Y-117413216D01*
X189181166Y-117337517D01*
X189189507Y-117292904D01*
X189365580Y-117292904D01*
X189371177Y-117298501D01*
X189376774Y-117292904D01*
X189371177Y-117287307D01*
X189365580Y-117292904D01*
X189189507Y-117292904D01*
X189195337Y-117261720D01*
X189217723Y-117192175D01*
X189247479Y-117135235D01*
X189250749Y-117130586D01*
X189286986Y-117086804D01*
X189304519Y-117069017D01*
X189522301Y-117069017D01*
X189527898Y-117074614D01*
X189533495Y-117069017D01*
X189527898Y-117063420D01*
X189522301Y-117069017D01*
X189304519Y-117069017D01*
X189332882Y-117040242D01*
X189382564Y-116996131D01*
X189430163Y-116959703D01*
X189467933Y-116937059D01*
X189558032Y-116903946D01*
X189648613Y-116888494D01*
X189734373Y-116891507D01*
G37*
G36*
X191215428Y-116817226D02*
G01*
X191283108Y-116817601D01*
X191333719Y-116818463D01*
X191369921Y-116820005D01*
X191394375Y-116822421D01*
X191409741Y-116825902D01*
X191418679Y-116830644D01*
X191423848Y-116836839D01*
X191424908Y-116838722D01*
X191432112Y-116862584D01*
X191431222Y-116875103D01*
X191425280Y-116897388D01*
X191421171Y-116917893D01*
X191413981Y-116953210D01*
X191403119Y-116999235D01*
X191390272Y-117049585D01*
X191377129Y-117097876D01*
X191365375Y-117137724D01*
X191356698Y-117162746D01*
X191356073Y-117164169D01*
X191345235Y-117196769D01*
X191341135Y-117220141D01*
X191337041Y-117246743D01*
X191329157Y-117281929D01*
X191319474Y-117318292D01*
X191309981Y-117348430D01*
X191302669Y-117364938D01*
X191302015Y-117365667D01*
X191296850Y-117379975D01*
X191294594Y-117399250D01*
X191290502Y-117430292D01*
X191281895Y-117471883D01*
X191271267Y-117513310D01*
X191261112Y-117543858D01*
X191260718Y-117544777D01*
X191252735Y-117571592D01*
X191251412Y-117579878D01*
X191245614Y-117611903D01*
X191235279Y-117651926D01*
X191222532Y-117693294D01*
X191209501Y-117729356D01*
X191198311Y-117753460D01*
X191194193Y-117758851D01*
X191181729Y-117779691D01*
X191179066Y-117795530D01*
X191169978Y-117828469D01*
X191142445Y-117872339D01*
X191131759Y-117886205D01*
X191119273Y-117902380D01*
X191100892Y-117926659D01*
X191099236Y-117928864D01*
X191079158Y-117948739D01*
X191061705Y-117954827D01*
X191060177Y-117954403D01*
X191047191Y-117957476D01*
X191044734Y-117968622D01*
X191035562Y-117987523D01*
X191013949Y-118004170D01*
X190985479Y-118020243D01*
X190965593Y-118033956D01*
X190946512Y-118044972D01*
X190915996Y-118058201D01*
X190880630Y-118071338D01*
X190847001Y-118082079D01*
X190821695Y-118088118D01*
X190811644Y-118087830D01*
X190799830Y-118089307D01*
X190789372Y-118096196D01*
X190771330Y-118101936D01*
X190735155Y-118106573D01*
X190685076Y-118110073D01*
X190625322Y-118112400D01*
X190560123Y-118113517D01*
X190493710Y-118113390D01*
X190430311Y-118111983D01*
X190374157Y-118109260D01*
X190329476Y-118105186D01*
X190302426Y-118100295D01*
X190269643Y-118090566D01*
X190247650Y-118080376D01*
X190235453Y-118065888D01*
X190232057Y-118043262D01*
X190236468Y-118008660D01*
X190247693Y-117958242D01*
X190256382Y-117922498D01*
X190289874Y-117785456D01*
X190336013Y-117782065D01*
X190377918Y-117784331D01*
X190419408Y-117794352D01*
X190423756Y-117796058D01*
X190463513Y-117806403D01*
X190516536Y-117812064D01*
X190574164Y-117812881D01*
X190627737Y-117808692D01*
X190665253Y-117800535D01*
X190697502Y-117787690D01*
X190725355Y-117771317D01*
X190749878Y-117749245D01*
X190772136Y-117719304D01*
X190793194Y-117679324D01*
X190814118Y-117627134D01*
X190835972Y-117560565D01*
X190859823Y-117477447D01*
X190886735Y-117375609D01*
X190900686Y-117320890D01*
X190914317Y-117266934D01*
X190923604Y-117229710D01*
X190929690Y-117204242D01*
X190933719Y-117185556D01*
X190936835Y-117168677D01*
X190939925Y-117150176D01*
X190946846Y-117108197D01*
X190867715Y-117108197D01*
X190827659Y-117106751D01*
X190797012Y-117102947D01*
X190782070Y-117097589D01*
X190781808Y-117097233D01*
X190780690Y-117079896D01*
X190786172Y-117047059D01*
X190797143Y-117004239D01*
X190806626Y-116973865D01*
X190811514Y-116951763D01*
X190816011Y-116920035D01*
X190816428Y-116916123D01*
X190822462Y-116879446D01*
X190831282Y-116847141D01*
X190831650Y-116846158D01*
X190842681Y-116817144D01*
X191128020Y-116817144D01*
X191215428Y-116817226D01*
G37*
G36*
X196472935Y-116800176D02*
G01*
X196547032Y-116802986D01*
X196611149Y-116808299D01*
X196658364Y-116815820D01*
X196699830Y-116826743D01*
X196747698Y-116841696D01*
X196796877Y-116858783D01*
X196842274Y-116876109D01*
X196878797Y-116891779D01*
X196901352Y-116903899D01*
X196905694Y-116907854D01*
X196904979Y-116921493D01*
X196899090Y-116951866D01*
X196889273Y-116994258D01*
X196876774Y-117043954D01*
X196862839Y-117096240D01*
X196848713Y-117146400D01*
X196835643Y-117189719D01*
X196824875Y-117221483D01*
X196819473Y-117234134D01*
X196798773Y-117252070D01*
X196766512Y-117252556D01*
X196724633Y-117235996D01*
X196677349Y-117204562D01*
X196612566Y-117158360D01*
X196555256Y-117125518D01*
X196513178Y-117109138D01*
X196492715Y-117106660D01*
X196455954Y-117104806D01*
X196408982Y-117103819D01*
X196378845Y-117103743D01*
X196324668Y-117104650D01*
X196285664Y-117107692D01*
X196254634Y-117114216D01*
X196224378Y-117125565D01*
X196199541Y-117137229D01*
X196120509Y-117188002D01*
X196055577Y-117255110D01*
X196005857Y-117336654D01*
X195972465Y-117430730D01*
X195956512Y-117535437D01*
X195955628Y-117553764D01*
X195958575Y-117637548D01*
X195974583Y-117703656D01*
X196004937Y-117753449D01*
X196050919Y-117788292D01*
X196113815Y-117809547D01*
X196194908Y-117818578D01*
X196205304Y-117818891D01*
X196250968Y-117818872D01*
X196289156Y-117816890D01*
X196313457Y-117813342D01*
X196317277Y-117811929D01*
X196337796Y-117803818D01*
X196372393Y-117792926D01*
X196413341Y-117781559D01*
X196446012Y-117773549D01*
X196460840Y-117766662D01*
X196488340Y-117751381D01*
X196522338Y-117731398D01*
X196556661Y-117710407D01*
X196585134Y-117692100D01*
X196600294Y-117681269D01*
X196623582Y-117672924D01*
X196655238Y-117672829D01*
X196684875Y-117679920D01*
X196701263Y-117691610D01*
X196704204Y-117708052D01*
X196700583Y-117739451D01*
X196690036Y-117787938D01*
X196675064Y-117845244D01*
X196660327Y-117896692D01*
X196646894Y-117939230D01*
X196636148Y-117968767D01*
X196629474Y-117981207D01*
X196629020Y-117981357D01*
X196624376Y-117989526D01*
X196626086Y-117996624D01*
X196621084Y-118008548D01*
X196596817Y-118023179D01*
X196555769Y-118039957D01*
X196482517Y-118065379D01*
X196409332Y-118088022D01*
X196344716Y-118105321D01*
X196322874Y-118110232D01*
X196277044Y-118116507D01*
X196216041Y-118120433D01*
X196146960Y-118121996D01*
X196076895Y-118121186D01*
X196012938Y-118117991D01*
X195962185Y-118112399D01*
X195953460Y-118110839D01*
X195867767Y-118090455D01*
X195797108Y-118065245D01*
X195734230Y-118032519D01*
X195722246Y-118025024D01*
X195673766Y-117988863D01*
X195630580Y-117947353D01*
X195595958Y-117904630D01*
X195573174Y-117864832D01*
X195565500Y-117832098D01*
X195565950Y-117827435D01*
X195561715Y-117814542D01*
X195557880Y-117813442D01*
X195546364Y-117802989D01*
X195537257Y-117774338D01*
X195530569Y-117731553D01*
X195526312Y-117678694D01*
X195524497Y-117619825D01*
X195525133Y-117559007D01*
X195528232Y-117500303D01*
X195533805Y-117447776D01*
X195541862Y-117405488D01*
X195552414Y-117377500D01*
X195556709Y-117371824D01*
X195565823Y-117352274D01*
X195567254Y-117340412D01*
X195573002Y-117314440D01*
X195588416Y-117277429D01*
X195610751Y-117233863D01*
X195637262Y-117188224D01*
X195665204Y-117144997D01*
X195691833Y-117108664D01*
X195714403Y-117083710D01*
X195729981Y-117074614D01*
X195744074Y-117065755D01*
X195756880Y-117047897D01*
X195772373Y-117028987D01*
X195800087Y-117003399D01*
X195834704Y-116975186D01*
X195870908Y-116948398D01*
X195903382Y-116927086D01*
X195926810Y-116915301D01*
X195932396Y-116914162D01*
X195946440Y-116909035D01*
X195947863Y-116905357D01*
X195957314Y-116895585D01*
X195980619Y-116882559D01*
X196010203Y-116869509D01*
X196038490Y-116859668D01*
X196057906Y-116856267D01*
X196061023Y-116857076D01*
X196070469Y-116855869D01*
X196071001Y-116852863D01*
X196080870Y-116844614D01*
X196106680Y-116833160D01*
X196140965Y-116821572D01*
X196184298Y-116812766D01*
X196244539Y-116806163D01*
X196316311Y-116801824D01*
X196394235Y-116799808D01*
X196472935Y-116800176D01*
G37*
G36*
X193725485Y-116795696D02*
G01*
X193760239Y-116797686D01*
X193778234Y-116800933D01*
X193779318Y-116801647D01*
X193794042Y-116806916D01*
X193821709Y-116811208D01*
X193828759Y-116811840D01*
X193861591Y-116817560D01*
X193908080Y-116829569D01*
X193961174Y-116845645D01*
X194013823Y-116863567D01*
X194058975Y-116881111D01*
X194081203Y-116891384D01*
X194103833Y-116907440D01*
X194110906Y-116927921D01*
X194103910Y-116959146D01*
X194099764Y-116970337D01*
X194089084Y-117001306D01*
X194082838Y-117024239D01*
X194078059Y-117044731D01*
X194069250Y-117080626D01*
X194057960Y-117125647D01*
X194052441Y-117147377D01*
X194026745Y-117248127D01*
X193987672Y-117251466D01*
X193964056Y-117250713D01*
X193939517Y-117242471D01*
X193908463Y-117224184D01*
X193873000Y-117199000D01*
X193811135Y-117156630D01*
X193756695Y-117128363D01*
X193702126Y-117111666D01*
X193639875Y-117104005D01*
X193585853Y-117102660D01*
X193531954Y-117103539D01*
X193492508Y-117107066D01*
X193459608Y-117114689D01*
X193425352Y-117127854D01*
X193409717Y-117134895D01*
X193331611Y-117182850D01*
X193266147Y-117247541D01*
X193214836Y-117326281D01*
X193179189Y-117416379D01*
X193160717Y-117515148D01*
X193158610Y-117581815D01*
X193167215Y-117658416D01*
X193187802Y-117721072D01*
X193213840Y-117760783D01*
X193254221Y-117790276D01*
X193310619Y-117809953D01*
X193378530Y-117818942D01*
X193453445Y-117816368D01*
X193480784Y-117812523D01*
X193521970Y-117805611D01*
X193555720Y-117800036D01*
X193574659Y-117797015D01*
X193593209Y-117791301D01*
X193624725Y-117778904D01*
X193657211Y-117764808D01*
X193692664Y-117749425D01*
X193720139Y-117738684D01*
X193732773Y-117735081D01*
X193742391Y-117726624D01*
X193742574Y-117724611D01*
X193752039Y-117714384D01*
X193775433Y-117702397D01*
X193781754Y-117699974D01*
X193807183Y-117688807D01*
X193820405Y-117679149D01*
X193820935Y-117677615D01*
X193830158Y-117668160D01*
X193844125Y-117662063D01*
X193870302Y-117663848D01*
X193895192Y-117679806D01*
X193909590Y-117703229D01*
X193910489Y-117710446D01*
X193907472Y-117730271D01*
X193899411Y-117765409D01*
X193887798Y-117810569D01*
X193874119Y-117860462D01*
X193859866Y-117909799D01*
X193846525Y-117953290D01*
X193835588Y-117985645D01*
X193828542Y-118001575D01*
X193828528Y-118001594D01*
X193808782Y-118016761D01*
X193775893Y-118033237D01*
X193738494Y-118047125D01*
X193714080Y-118053252D01*
X193682609Y-118062629D01*
X193664964Y-118070510D01*
X193642251Y-118077691D01*
X193629873Y-118076041D01*
X193613868Y-118076345D01*
X193585827Y-118085011D01*
X193567688Y-118092771D01*
X193535123Y-118105048D01*
X193494906Y-118113803D01*
X193441710Y-118119951D01*
X193389104Y-118123455D01*
X193335827Y-118125478D01*
X193294323Y-118125402D01*
X193268334Y-118123322D01*
X193261224Y-118120200D01*
X193251237Y-118115001D01*
X193225809Y-118113089D01*
X193208050Y-118113716D01*
X193142092Y-118109588D01*
X193068121Y-118090872D01*
X192992293Y-118060315D01*
X192920762Y-118020667D01*
X192859681Y-117974675D01*
X192830587Y-117945152D01*
X192800534Y-117904986D01*
X192775061Y-117861737D01*
X192756990Y-117821221D01*
X192749142Y-117789254D01*
X192749825Y-117778689D01*
X192748464Y-117759985D01*
X192742289Y-117754287D01*
X192733899Y-117740698D01*
X192728229Y-117709473D01*
X192725246Y-117665196D01*
X192724917Y-117612450D01*
X192727210Y-117555819D01*
X192732092Y-117499887D01*
X192739532Y-117449237D01*
X192744620Y-117425617D01*
X192759934Y-117371542D01*
X192778423Y-117317518D01*
X192798254Y-117267780D01*
X192817594Y-117226560D01*
X192834606Y-117198094D01*
X192847457Y-117186616D01*
X192848189Y-117186558D01*
X192856368Y-117182220D01*
X192854542Y-117179148D01*
X192856055Y-117166586D01*
X192868474Y-117143461D01*
X192876669Y-117131572D01*
X192956755Y-117040661D01*
X193053713Y-116960956D01*
X193163960Y-116894560D01*
X193253917Y-116856324D01*
X193932878Y-116856324D01*
X193938475Y-116861921D01*
X193944072Y-116856324D01*
X193938475Y-116850727D01*
X193932878Y-116856324D01*
X193253917Y-116856324D01*
X193283914Y-116843574D01*
X193409992Y-116810100D01*
X193430693Y-116806478D01*
X193466370Y-116802305D01*
X193513756Y-116798994D01*
X193568105Y-116796613D01*
X193624672Y-116795225D01*
X193678714Y-116794898D01*
X193725485Y-116795696D01*
G37*
G36*
X194923921Y-116819308D02*
G01*
X195004523Y-116820950D01*
X195065990Y-116823676D01*
X195106890Y-116827455D01*
X195113883Y-116828588D01*
X195209062Y-116851757D01*
X195286075Y-116882977D01*
X195348135Y-116923662D01*
X195365897Y-116939421D01*
X195405379Y-116979707D01*
X195432277Y-117015794D01*
X195448917Y-117053728D01*
X195457622Y-117099559D01*
X195460718Y-117159334D01*
X195460908Y-117186558D01*
X195460261Y-117242518D01*
X195457630Y-117282512D01*
X195451983Y-117312941D01*
X195442287Y-117340205D01*
X195432922Y-117360070D01*
X195415230Y-117395018D01*
X195401861Y-117418705D01*
X195387371Y-117439413D01*
X195366314Y-117465422D01*
X195353791Y-117480410D01*
X195329677Y-117505075D01*
X195308227Y-117520170D01*
X195300585Y-117522388D01*
X195280991Y-117530330D01*
X195259305Y-117549395D01*
X195232157Y-117571748D01*
X195188818Y-117597076D01*
X195134808Y-117622884D01*
X195075644Y-117646671D01*
X195016845Y-117665941D01*
X194982692Y-117674590D01*
X194939827Y-117681723D01*
X194881894Y-117688359D01*
X194816212Y-117693794D01*
X194750101Y-117697324D01*
X194744469Y-117697521D01*
X194672737Y-117700882D01*
X194619522Y-117705493D01*
X194586226Y-117711201D01*
X194575164Y-117716115D01*
X194567255Y-117732308D01*
X194556320Y-117764859D01*
X194544107Y-117808253D01*
X194537218Y-117835830D01*
X194525104Y-117884136D01*
X194513533Y-117925969D01*
X194504227Y-117955286D01*
X194500736Y-117963816D01*
X194492447Y-117989421D01*
X194486825Y-118023549D01*
X194486438Y-118028053D01*
X194483227Y-118055562D01*
X194476209Y-118075540D01*
X194462226Y-118089166D01*
X194438117Y-118097620D01*
X194400723Y-118102081D01*
X194346884Y-118103727D01*
X194283501Y-118103785D01*
X194222845Y-118102868D01*
X194168540Y-118100826D01*
X194125307Y-118097928D01*
X194097867Y-118094441D01*
X194092398Y-118092952D01*
X194071368Y-118074516D01*
X194067210Y-118053826D01*
X194069874Y-118032923D01*
X194077014Y-117996357D01*
X194087354Y-117949388D01*
X194099618Y-117897273D01*
X194112529Y-117845271D01*
X194124811Y-117798640D01*
X194135189Y-117762638D01*
X194142384Y-117742523D01*
X194143083Y-117741245D01*
X194149650Y-117721617D01*
X194152796Y-117701526D01*
X194156330Y-117682361D01*
X194164725Y-117645364D01*
X194166039Y-117639929D01*
X195029925Y-117639929D01*
X195035522Y-117645526D01*
X195041120Y-117639929D01*
X195035522Y-117634332D01*
X195029925Y-117639929D01*
X194166039Y-117639929D01*
X194177063Y-117594334D01*
X194192421Y-117533067D01*
X194209878Y-117465361D01*
X194212532Y-117455222D01*
X194228927Y-117392456D01*
X194649317Y-117392456D01*
X194659749Y-117395614D01*
X194688037Y-117397624D01*
X194729668Y-117398297D01*
X194772455Y-117397667D01*
X194821938Y-117395522D01*
X194861927Y-117392274D01*
X194887904Y-117388390D01*
X194895593Y-117384924D01*
X194902408Y-117380207D01*
X194905427Y-117381618D01*
X194918074Y-117377775D01*
X194941203Y-117361702D01*
X194966026Y-117340300D01*
X195006952Y-117292171D01*
X195025816Y-117244379D01*
X195022912Y-117196021D01*
X195017666Y-117180844D01*
X195008850Y-117154270D01*
X195006601Y-117136457D01*
X195006662Y-117136183D01*
X195004343Y-117130562D01*
X195001959Y-117132432D01*
X194987787Y-117133416D01*
X194962355Y-117126319D01*
X194956608Y-117124036D01*
X194923124Y-117115467D01*
X194874195Y-117109926D01*
X194822912Y-117108197D01*
X194776467Y-117108506D01*
X194747391Y-117110383D01*
X194730663Y-117115252D01*
X194721264Y-117124539D01*
X194714456Y-117138982D01*
X194703294Y-117172260D01*
X194697454Y-117197752D01*
X194692329Y-117222428D01*
X194683013Y-117260487D01*
X194671500Y-117303796D01*
X194671219Y-117304812D01*
X194660534Y-117344485D01*
X194652736Y-117375528D01*
X194649354Y-117391825D01*
X194649317Y-117392456D01*
X194228927Y-117392456D01*
X194230381Y-117386891D01*
X194246545Y-117324474D01*
X194260052Y-117271770D01*
X194269929Y-117232575D01*
X194275206Y-117210685D01*
X194275529Y-117209185D01*
X194283878Y-117185433D01*
X194292160Y-117174707D01*
X194298749Y-117159900D01*
X194297363Y-117152080D01*
X194298103Y-117136035D01*
X194304004Y-117102750D01*
X194314164Y-117056537D01*
X194327679Y-117001707D01*
X194333520Y-116979462D01*
X194375363Y-116822741D01*
X194711040Y-116819411D01*
X194825616Y-116818784D01*
X194923921Y-116819308D01*
G37*
G36*
X197652411Y-116822964D02*
G01*
X197741113Y-116823687D01*
X197811699Y-116824990D01*
X197866300Y-116826951D01*
X197907052Y-116829650D01*
X197936088Y-116833166D01*
X197955541Y-116837579D01*
X197957250Y-116838144D01*
X197996319Y-116852635D01*
X198037037Y-116869391D01*
X198073380Y-116885734D01*
X198099325Y-116898987D01*
X198108374Y-116905333D01*
X198121794Y-116915797D01*
X198136360Y-116924564D01*
X198173924Y-116956701D01*
X198203904Y-117005118D01*
X198223339Y-117064190D01*
X198228506Y-117099729D01*
X198225089Y-117183326D01*
X198201832Y-117259145D01*
X198160088Y-117324671D01*
X198101214Y-117377393D01*
X198068283Y-117396895D01*
X198027109Y-117418018D01*
X198068495Y-117443596D01*
X198119518Y-117487718D01*
X198156121Y-117545884D01*
X198176578Y-117613693D01*
X198179162Y-117686745D01*
X198175070Y-117715113D01*
X198165637Y-117751181D01*
X198151621Y-117791031D01*
X198135359Y-117829530D01*
X198119188Y-117861548D01*
X198105447Y-117881953D01*
X198097148Y-117886186D01*
X198087369Y-117891279D01*
X198077134Y-117907921D01*
X198061096Y-117929389D01*
X198033409Y-117955051D01*
X198014468Y-117969305D01*
X197982370Y-117989483D01*
X197946268Y-118009340D01*
X197911270Y-118026468D01*
X197882487Y-118038456D01*
X197865026Y-118042896D01*
X197862098Y-118041158D01*
X197855303Y-118041145D01*
X197848105Y-118046152D01*
X197831065Y-118053776D01*
X197798316Y-118063698D01*
X197756153Y-118074068D01*
X197744557Y-118076582D01*
X197712110Y-118082335D01*
X197672677Y-118087125D01*
X197623673Y-118091091D01*
X197562512Y-118094375D01*
X197486608Y-118097115D01*
X197393375Y-118099452D01*
X197285589Y-118101439D01*
X197184814Y-118103028D01*
X197104002Y-118104107D01*
X197040730Y-118104576D01*
X196992576Y-118104335D01*
X196957118Y-118103282D01*
X196931932Y-118101316D01*
X196914597Y-118098337D01*
X196902690Y-118094244D01*
X196893789Y-118088937D01*
X196888624Y-118084916D01*
X196861074Y-118062401D01*
X196881588Y-117974303D01*
X196892440Y-117931377D01*
X196902853Y-117896404D01*
X196910935Y-117875600D01*
X196912330Y-117873390D01*
X196920326Y-117855949D01*
X196920280Y-117851002D01*
X196920602Y-117832784D01*
X196925377Y-117805880D01*
X196929782Y-117789189D01*
X197352531Y-117789189D01*
X197361414Y-117799004D01*
X197385195Y-117802765D01*
X197427563Y-117804537D01*
X197427722Y-117804543D01*
X197494696Y-117805825D01*
X197553731Y-117804245D01*
X197599925Y-117800061D01*
X197627016Y-117794077D01*
X197650653Y-117786468D01*
X197657397Y-117784815D01*
X197684145Y-117772472D01*
X197713830Y-117749806D01*
X197737686Y-117724263D01*
X197745929Y-117709603D01*
X197752428Y-117679376D01*
X197754987Y-117651123D01*
X197752759Y-117629239D01*
X197741163Y-117614524D01*
X197714713Y-117600879D01*
X197706837Y-117597612D01*
X197665834Y-117586041D01*
X197607392Y-117576822D01*
X197537394Y-117570787D01*
X197484204Y-117567931D01*
X197448940Y-117567080D01*
X197427180Y-117568884D01*
X197414503Y-117573995D01*
X197406486Y-117583063D01*
X197402051Y-117590715D01*
X197391911Y-117615585D01*
X197390077Y-117631533D01*
X197386076Y-117644377D01*
X197381980Y-117645526D01*
X197374330Y-117655165D01*
X197371920Y-117676365D01*
X197369495Y-117711342D01*
X197364686Y-117735135D01*
X197354852Y-117769254D01*
X197352531Y-117789189D01*
X196929782Y-117789189D01*
X196932482Y-117778960D01*
X196939795Y-117760691D01*
X196943188Y-117757470D01*
X196948640Y-117747632D01*
X196951834Y-117723535D01*
X196951996Y-117719419D01*
X196955802Y-117689048D01*
X196964694Y-117646866D01*
X196975988Y-117604677D01*
X196983487Y-117578801D01*
X196992490Y-117546151D01*
X197003473Y-117504860D01*
X197016913Y-117453061D01*
X197033287Y-117388888D01*
X197053069Y-117310473D01*
X197062712Y-117271964D01*
X197484940Y-117271964D01*
X197490155Y-117284964D01*
X197506325Y-117290555D01*
X197530717Y-117294560D01*
X197553785Y-117296014D01*
X197582339Y-117294794D01*
X197623191Y-117290778D01*
X197647547Y-117288008D01*
X197714024Y-117274311D01*
X197760545Y-117250816D01*
X197787382Y-117217325D01*
X197794932Y-117179154D01*
X197789401Y-117149718D01*
X197771246Y-117129107D01*
X197738126Y-117116380D01*
X197687699Y-117110594D01*
X197624434Y-117110579D01*
X197521601Y-117113794D01*
X197508792Y-117158572D01*
X197498152Y-117199603D01*
X197489150Y-117240456D01*
X197488383Y-117244503D01*
X197484940Y-117271964D01*
X197062712Y-117271964D01*
X197076738Y-117215950D01*
X197104768Y-117103451D01*
X197135562Y-116979462D01*
X198153151Y-116979462D01*
X198158749Y-116985059D01*
X198164346Y-116979462D01*
X198158749Y-116973865D01*
X198153151Y-116979462D01*
X197135562Y-116979462D01*
X197137636Y-116971110D01*
X197138342Y-116968268D01*
X197174442Y-116822741D01*
X197543457Y-116822741D01*
X197652411Y-116822964D01*
G37*
G36*
X189336943Y-117780148D02*
G01*
X189409940Y-117780965D01*
X189472272Y-117782233D01*
X189521097Y-117783875D01*
X189553571Y-117785815D01*
X189566852Y-117787975D01*
X189567021Y-117788254D01*
X189562174Y-117801585D01*
X189550370Y-117823285D01*
X189535571Y-117847141D01*
X189521736Y-117866937D01*
X189512826Y-117876459D01*
X189511456Y-117875442D01*
X189506902Y-117877429D01*
X189495841Y-117895061D01*
X189490066Y-117905949D01*
X189470450Y-117937939D01*
X189442424Y-117975757D01*
X189410234Y-118014537D01*
X189378123Y-118049412D01*
X189350336Y-118075515D01*
X189331370Y-118087902D01*
X189313574Y-118099469D01*
X189309608Y-118108698D01*
X189301785Y-118122143D01*
X189280952Y-118145834D01*
X189251063Y-118175407D01*
X189239643Y-118185933D01*
X189203768Y-118217145D01*
X189164313Y-118249449D01*
X189124956Y-118280101D01*
X189089378Y-118306355D01*
X189061256Y-118325469D01*
X189044271Y-118334696D01*
X189040943Y-118334159D01*
X189034006Y-118335998D01*
X189017234Y-118349603D01*
X189016444Y-118350335D01*
X188992289Y-118366993D01*
X188972223Y-118373160D01*
X188950473Y-118381254D01*
X188943549Y-118389016D01*
X188931006Y-118399190D01*
X188903374Y-118416255D01*
X188865785Y-118437497D01*
X188823373Y-118460199D01*
X188781270Y-118481647D01*
X188744610Y-118499125D01*
X188718525Y-118509916D01*
X188711206Y-118511934D01*
X188690615Y-118519065D01*
X188688321Y-118520330D01*
X188666915Y-118529947D01*
X188636457Y-118540511D01*
X188605561Y-118549409D01*
X188582836Y-118554029D01*
X188577403Y-118553973D01*
X188562651Y-118558844D01*
X188560612Y-118561389D01*
X188546194Y-118570356D01*
X188516873Y-118581537D01*
X188479722Y-118592862D01*
X188441812Y-118602261D01*
X188410216Y-118607662D01*
X188400582Y-118608241D01*
X188375157Y-118612493D01*
X188362797Y-118619203D01*
X188343283Y-118628449D01*
X188305132Y-118638038D01*
X188252086Y-118647602D01*
X188187887Y-118656770D01*
X188116277Y-118665173D01*
X188040995Y-118672438D01*
X187965785Y-118678198D01*
X187894386Y-118682081D01*
X187830541Y-118683718D01*
X187777990Y-118682737D01*
X187747995Y-118680027D01*
X187604011Y-118655006D01*
X187470520Y-118623255D01*
X187349829Y-118585603D01*
X187244245Y-118542881D01*
X187156076Y-118495918D01*
X187087628Y-118445543D01*
X187082235Y-118440610D01*
X187058364Y-118420025D01*
X187040884Y-118408012D01*
X187037129Y-118406743D01*
X187025379Y-118398855D01*
X187005386Y-118378780D01*
X186993146Y-118364764D01*
X186969409Y-118336447D01*
X186949978Y-118313345D01*
X186944410Y-118306760D01*
X186927703Y-118284985D01*
X186906269Y-118254335D01*
X186883805Y-118220485D01*
X186864006Y-118189108D01*
X186850570Y-118165879D01*
X186846885Y-118157054D01*
X186842561Y-118142228D01*
X186831668Y-118115122D01*
X186825269Y-118100673D01*
X186815812Y-118074563D01*
X186804880Y-118036372D01*
X186793666Y-117991515D01*
X186783365Y-117945407D01*
X186775172Y-117903463D01*
X186770281Y-117871097D01*
X186769887Y-117853725D01*
X186770512Y-117852464D01*
X186776949Y-117859929D01*
X186790952Y-117883076D01*
X186809986Y-117917606D01*
X186818953Y-117934624D01*
X186840837Y-117974717D01*
X186860446Y-118007138D01*
X186874533Y-118026639D01*
X186877633Y-118029489D01*
X186890357Y-118043590D01*
X186891626Y-118048631D01*
X186899251Y-118060978D01*
X186919162Y-118083214D01*
X186944800Y-118108380D01*
X186977490Y-118137823D01*
X187013628Y-118168771D01*
X187049336Y-118198119D01*
X187080732Y-118222762D01*
X187103936Y-118239594D01*
X187115069Y-118245511D01*
X187115514Y-118244994D01*
X187124683Y-118246866D01*
X187148953Y-118256855D01*
X187183471Y-118272927D01*
X187191076Y-118276642D01*
X187237962Y-118296587D01*
X187296371Y-118316997D01*
X187355803Y-118334301D01*
X187372984Y-118338520D01*
X187414252Y-118346604D01*
X187465492Y-118354416D01*
X187522526Y-118361585D01*
X187581179Y-118367743D01*
X187637274Y-118372522D01*
X187686635Y-118375553D01*
X187725086Y-118376466D01*
X187748450Y-118374894D01*
X187753592Y-118372134D01*
X187763958Y-118368448D01*
X187791809Y-118364173D01*
X187832279Y-118359966D01*
X187859207Y-118357846D01*
X187938629Y-118349354D01*
X188026309Y-118335121D01*
X188115837Y-118316582D01*
X188200802Y-118295172D01*
X188274795Y-118272328D01*
X188320599Y-118254513D01*
X188346665Y-118243892D01*
X188363245Y-118238885D01*
X188364078Y-118238827D01*
X188378572Y-118233768D01*
X188407679Y-118220287D01*
X188446490Y-118200928D01*
X188490100Y-118178235D01*
X188533602Y-118154751D01*
X188572088Y-118133020D01*
X188595917Y-118118639D01*
X188674841Y-118062840D01*
X188752534Y-117997581D01*
X188821254Y-117929653D01*
X188852359Y-117893692D01*
X188882030Y-117856932D01*
X188907989Y-117824914D01*
X188925732Y-117803191D01*
X188928689Y-117799619D01*
X188935185Y-117793766D01*
X188945466Y-117789188D01*
X188962094Y-117785732D01*
X188987633Y-117783244D01*
X189024645Y-117781567D01*
X189075692Y-117780548D01*
X189143337Y-117780032D01*
X189230143Y-117779864D01*
X189256124Y-117779859D01*
X189336943Y-117780148D01*
G37*
G36*
X188095020Y-117001227D02*
G01*
X188178859Y-117007134D01*
X188245569Y-117020274D01*
X188299645Y-117042071D01*
X188345581Y-117073948D01*
X188356851Y-117084164D01*
X188397289Y-117125699D01*
X188422622Y-117161933D01*
X188436149Y-117200317D01*
X188441169Y-117248302D01*
X188441530Y-117275395D01*
X188440099Y-117323567D01*
X188434442Y-117359611D01*
X188422064Y-117393721D01*
X188403627Y-117430240D01*
X188378674Y-117470746D01*
X188349526Y-117509125D01*
X188319823Y-117541572D01*
X188293203Y-117564278D01*
X188273307Y-117573438D01*
X188267802Y-117572311D01*
X188259663Y-117574033D01*
X188259859Y-117579691D01*
X188251965Y-117591826D01*
X188227341Y-117606757D01*
X188191126Y-117622476D01*
X188148457Y-117636973D01*
X188104474Y-117648242D01*
X188070499Y-117653718D01*
X188033087Y-117656108D01*
X188009051Y-117652293D01*
X187989792Y-117640338D01*
X187982684Y-117633963D01*
X187955045Y-117607998D01*
X187906265Y-117632359D01*
X187849081Y-117651435D01*
X187792643Y-117653372D01*
X187741877Y-117639010D01*
X187701709Y-117609193D01*
X187691319Y-117595649D01*
X187686796Y-117583957D01*
X187820758Y-117583957D01*
X187826355Y-117589555D01*
X187831953Y-117583957D01*
X187826355Y-117578360D01*
X187820758Y-117583957D01*
X187686796Y-117583957D01*
X187675455Y-117554637D01*
X187670432Y-117501936D01*
X187670618Y-117500080D01*
X187798494Y-117500080D01*
X187802108Y-117536225D01*
X187811803Y-117553733D01*
X187839715Y-117567041D01*
X187877735Y-117566119D01*
X187919580Y-117551986D01*
X187952930Y-117530784D01*
X187989473Y-117493510D01*
X188019817Y-117448038D01*
X188042245Y-117399214D01*
X188055039Y-117351879D01*
X188056483Y-117310877D01*
X188044861Y-117281050D01*
X188042407Y-117278351D01*
X188014539Y-117265055D01*
X187976305Y-117265529D01*
X187933684Y-117278246D01*
X187892658Y-117301678D01*
X187869029Y-117322625D01*
X187841442Y-117360632D01*
X187819559Y-117406639D01*
X187804777Y-117455004D01*
X187798494Y-117500080D01*
X187670618Y-117500080D01*
X187676100Y-117445357D01*
X187692309Y-117392717D01*
X187695339Y-117386251D01*
X187734976Y-117324079D01*
X187787303Y-117268600D01*
X187847612Y-117223194D01*
X187911191Y-117191242D01*
X187973332Y-117176121D01*
X187989245Y-117175363D01*
X188011616Y-117176507D01*
X188032287Y-117181637D01*
X188058961Y-117193304D01*
X188087651Y-117207934D01*
X188109190Y-117215744D01*
X188123116Y-117208515D01*
X188127143Y-117203452D01*
X188141488Y-117192605D01*
X188167192Y-117188161D01*
X188204190Y-117188723D01*
X188267957Y-117192155D01*
X188222801Y-117292904D01*
X188200110Y-117343156D01*
X188177772Y-117391990D01*
X188159372Y-117431594D01*
X188153473Y-117444028D01*
X188133793Y-117485553D01*
X188122499Y-117511776D01*
X188118113Y-117527494D01*
X188119159Y-117537503D01*
X188122634Y-117544175D01*
X188140712Y-117554246D01*
X188170248Y-117547774D01*
X188208852Y-117525806D01*
X188254131Y-117489391D01*
X188260137Y-117483880D01*
X188290686Y-117453380D01*
X188313388Y-117426737D01*
X188324146Y-117408859D01*
X188324504Y-117406698D01*
X188329815Y-117387839D01*
X188333920Y-117383558D01*
X188340919Y-117368316D01*
X188344808Y-117337761D01*
X188345666Y-117298737D01*
X188343571Y-117258092D01*
X188338602Y-117222673D01*
X188331832Y-117201104D01*
X188294423Y-117152160D01*
X188240886Y-117115042D01*
X188175558Y-117092501D01*
X188155276Y-117089115D01*
X188087721Y-117084687D01*
X188015102Y-117087024D01*
X187945069Y-117095371D01*
X187885272Y-117108975D01*
X187859955Y-117118231D01*
X187831104Y-117130112D01*
X187812870Y-117135927D01*
X187809564Y-117135663D01*
X187802226Y-117137239D01*
X187782154Y-117152368D01*
X187752257Y-117178586D01*
X187715444Y-117213430D01*
X187701770Y-117226904D01*
X187645974Y-117293652D01*
X187606115Y-117365188D01*
X187582607Y-117438385D01*
X187575866Y-117510118D01*
X187586309Y-117577259D01*
X187614350Y-117636684D01*
X187642809Y-117670263D01*
X187698076Y-117708834D01*
X187768520Y-117736486D01*
X187849714Y-117753113D01*
X187937231Y-117758611D01*
X188026644Y-117752874D01*
X188113525Y-117735797D01*
X188193449Y-117707276D01*
X188236637Y-117684371D01*
X188280815Y-117660318D01*
X188318104Y-117648426D01*
X188353651Y-117645526D01*
X188407409Y-117645526D01*
X188364815Y-117689146D01*
X188299819Y-117742027D01*
X188217254Y-117786778D01*
X188141240Y-117815203D01*
X188086467Y-117827606D01*
X188017640Y-117836572D01*
X187942896Y-117841628D01*
X187870373Y-117842300D01*
X187808207Y-117838118D01*
X187791056Y-117835538D01*
X187692632Y-117809760D01*
X187612332Y-117771143D01*
X187557818Y-117727843D01*
X187525584Y-117692362D01*
X187508971Y-117664402D01*
X187505176Y-117638760D01*
X187505991Y-117631533D01*
X187498725Y-117623517D01*
X187495189Y-117623138D01*
X187487052Y-117615145D01*
X187487984Y-117609145D01*
X187488195Y-117588427D01*
X187483251Y-117569053D01*
X187478527Y-117534341D01*
X187482340Y-117485721D01*
X187493103Y-117429254D01*
X187509224Y-117371000D01*
X187529114Y-117317018D01*
X187551182Y-117273369D01*
X187566111Y-117253226D01*
X187582619Y-117232614D01*
X187588855Y-117218948D01*
X187588741Y-117218356D01*
X187594936Y-117204814D01*
X187616114Y-117182849D01*
X187648138Y-117155690D01*
X187686874Y-117126564D01*
X187728184Y-117098698D01*
X187767932Y-117075320D01*
X187779958Y-117069161D01*
X187857302Y-117035014D01*
X187927051Y-117013573D01*
X187998403Y-117002854D01*
X188080556Y-117000874D01*
X188095020Y-117001227D01*
G37*
D12*
%TO.C,J1*%
X123510000Y-120060000D02*
X123510000Y-99940000D01*
X123510000Y-99940000D02*
X117540000Y-99940000D01*
X122750000Y-119300000D02*
X122750000Y-110000000D01*
X122750000Y-100700000D02*
X122750000Y-110000000D01*
X119800000Y-120050000D02*
X119800000Y-119300000D01*
X119800000Y-119300000D02*
X122750000Y-119300000D01*
X119800000Y-100700000D02*
X122750000Y-100700000D01*
X119800000Y-99950000D02*
X119800000Y-100700000D01*
X118300000Y-120050000D02*
X118300000Y-118250000D01*
X118300000Y-118250000D02*
X117550000Y-118250000D01*
X118300000Y-116750000D02*
X118300000Y-103250000D01*
X118300000Y-103250000D02*
X117550000Y-103250000D01*
X118300000Y-101750000D02*
X118300000Y-99950000D01*
X118300000Y-99950000D02*
X117550000Y-99950000D01*
X117550000Y-120050000D02*
X118300000Y-120050000D01*
X117550000Y-118250000D02*
X117550000Y-120050000D01*
X117550000Y-116750000D02*
X118300000Y-116750000D01*
X117550000Y-103250000D02*
X117550000Y-116750000D01*
X117550000Y-101750000D02*
X118300000Y-101750000D01*
X117550000Y-99950000D02*
X117550000Y-101750000D01*
X117540000Y-120060000D02*
X123510000Y-120060000D01*
X117540000Y-99940000D02*
X117540000Y-120060000D01*
X117250000Y-120350000D02*
X118500000Y-120350000D01*
X117250000Y-119100000D02*
X117250000Y-120350000D01*
%TD*%
M02*
