M48
; DRILL file {KiCad 8.0.5} date 2025-10-19T11:11:57+0900
; FORMAT={-:-/ absolute / inch / decimal}
; #@! TF.CreationDate,2025-10-19T11:11:57+09:00
; #@! TF.GenerationSoftware,Kicad,Pcbnew,8.0.5
; #@! TF.FileFunction,Plated,1,2,PTH
FMAT,2
INCH
; #@! TA.AperFunction,Plated,PTH,ViaDrill
T1C0.0197
; #@! TA.AperFunction,Plated,PTH,ComponentDrill
T2C0.0236
; #@! TA.AperFunction,Plated,PTH,ComponentDrill
T3C0.0354
; #@! TA.AperFunction,Plated,PTH,ComponentDrill
T4C0.0358
; #@! TA.AperFunction,Plated,PTH,ComponentDrill
T5C0.0374
; #@! TA.AperFunction,Plated,PTH,ComponentDrill
T6C0.1063
%
G90
G05
T1
X3.2953Y-4.2717
X3.4961Y-4.4075
X3.6398Y-3.7894
X3.6634Y-4.1713
X3.811Y-3.437
X3.8661Y-3.8602
X4.0531Y-2.998
X4.1161Y-3.122
X4.1919Y-3.7057
X4.3543Y-2.8898
X4.376Y-3.4429
X4.4823Y-2.6575
X4.5768Y-3.5945
X4.6909Y-3.0669
X4.7451Y-3.3661
X5.0344Y-2.6506
X5.0807Y-3.6457
X5.125Y-2.815
X5.2953Y-3.0236
X5.3789Y-2.8701
X5.438Y-2.6644
X5.5335Y-2.8268
X5.8346Y-3.2756
X5.9307Y-3.6685
X6.0561Y-3.1545
X6.126Y-3.4783
X6.2697Y-3.0423
X6.4744Y-3.7303
X6.5Y-2.878
X6.5098Y-3.2795
X6.8209Y-3.3406
X6.8661Y-3.5669
X6.9035Y-3.8839
X6.9685Y-4.1614
X7.002Y-3.9843
X7.1732Y-4.4547
X7.2717Y-4.0256
X7.4016Y-4.3366
T3
X7.1772Y-4.1744
X7.1772Y-4.2744
T4
X3.4882Y-4.1744
X3.4882Y-4.2744
T5
X4.5413Y-2.8031
X4.6398Y-2.8031
X4.7382Y-2.8031
X4.8366Y-2.8031
X4.935Y-2.8031
X5.9055Y-2.813
X6.0039Y-2.813
X6.1024Y-2.813
T6
X5.2776Y-3.2283
X5.561Y-3.2283
T2
G00X5.1535Y-2.9705
M15
G01X5.1535Y-3.0138
M16
G05
G00X5.685Y-2.9705
M15
G01X5.685Y-3.0138
M16
G05
M30
