%TF.GenerationSoftware,KiCad,Pcbnew,8.0.5*%
%TF.CreationDate,2025-10-19T11:11:41+09:00*%
%TF.ProjectId,_____,c9ead6e9-fc2e-46b6-9963-61645f706362,rev?*%
%TF.SameCoordinates,Original*%
%TF.FileFunction,Copper,L1,Top*%
%TF.FilePolarity,Positive*%
%FSLAX46Y46*%
G04 Gerber Fmt 4.6, Leading zero omitted, Abs format (unit mm)*
G04 Created by KiCad (PCBNEW 8.0.5) date 2025-10-19 11:11:41*
%MOMM*%
%LPD*%
G01*
G04 APERTURE LIST*
G04 Aperture macros list*
%AMRoundRect*
0 Rectangle with rounded corners*
0 $1 Rounding radius*
0 $2 $3 $4 $5 $6 $7 $8 $9 X,Y pos of 4 corners*
0 Add a 4 corners polygon primitive as box body*
4,1,4,$2,$3,$4,$5,$6,$7,$8,$9,$2,$3,0*
0 Add four circle primitives for the rounded corners*
1,1,$1+$1,$2,$3*
1,1,$1+$1,$4,$5*
1,1,$1+$1,$6,$7*
1,1,$1+$1,$8,$9*
0 Add four rect primitives between the rounded corners*
20,1,$1+$1,$2,$3,$4,$5,0*
20,1,$1+$1,$4,$5,$6,$7,0*
20,1,$1+$1,$6,$7,$8,$9,0*
20,1,$1+$1,$8,$9,$2,$3,0*%
G04 Aperture macros list end*
%TA.AperFunction,ComponentPad*%
%ADD10RoundRect,0.250000X-0.600000X-0.725000X0.600000X-0.725000X0.600000X0.725000X-0.600000X0.725000X0*%
%TD*%
%TA.AperFunction,ComponentPad*%
%ADD11O,1.700000X1.950000*%
%TD*%
%TA.AperFunction,SMDPad,CuDef*%
%ADD12RoundRect,0.200000X0.275000X-0.200000X0.275000X0.200000X-0.275000X0.200000X-0.275000X-0.200000X0*%
%TD*%
%TA.AperFunction,ComponentPad*%
%ADD13R,1.800000X1.800000*%
%TD*%
%TA.AperFunction,ComponentPad*%
%ADD14C,1.800000*%
%TD*%
%TA.AperFunction,SMDPad,CuDef*%
%ADD15RoundRect,0.200000X-0.200000X-0.275000X0.200000X-0.275000X0.200000X0.275000X-0.200000X0.275000X0*%
%TD*%
%TA.AperFunction,ComponentPad*%
%ADD16R,1.416000X1.416000*%
%TD*%
%TA.AperFunction,ComponentPad*%
%ADD17C,1.416000*%
%TD*%
%TA.AperFunction,ComponentPad*%
%ADD18R,0.900000X2.000000*%
%TD*%
%TA.AperFunction,ComponentPad*%
%ADD19RoundRect,1.025000X-1.025000X-1.025000X1.025000X-1.025000X1.025000X1.025000X-1.025000X1.025000X0*%
%TD*%
%TA.AperFunction,ComponentPad*%
%ADD20C,4.100000*%
%TD*%
%TA.AperFunction,ViaPad*%
%ADD21C,1.000000*%
%TD*%
%TA.AperFunction,Conductor*%
%ADD22C,0.200000*%
%TD*%
%TA.AperFunction,Conductor*%
%ADD23C,1.000000*%
%TD*%
G04 APERTURE END LIST*
D10*
%TO.P,J2,1,Pin_1*%
%TO.N,GND*%
X115350000Y-71200000D03*
D11*
%TO.P,J2,2,Pin_2*%
%TO.N,PWM5*%
X117850000Y-71200000D03*
%TO.P,J2,3,Pin_3*%
%TO.N,IN1*%
X120350000Y-71200000D03*
%TO.P,J2,4,Pin_4*%
%TO.N,+5V*%
X122850000Y-71200000D03*
%TO.P,J2,5,Pin_5*%
%TO.N,+9V*%
X125350000Y-71200000D03*
%TD*%
D12*
%TO.P,R1,1*%
%TO.N,IN1*%
X88600000Y-101825000D03*
%TO.P,R1,2*%
%TO.N,GND*%
X88600000Y-100175000D03*
%TD*%
D10*
%TO.P,J1,1,Pin_1*%
%TO.N,GND*%
X150000000Y-71450000D03*
D11*
%TO.P,J1,2,Pin_2*%
%TO.N,unconnected-(J1-Pin_2-Pad2)*%
X152500000Y-71450000D03*
%TO.P,J1,3,Pin_3*%
%TO.N,PWM5*%
X155000000Y-71450000D03*
%TD*%
D13*
%TO.P,D1,1,K*%
%TO.N,Net-(D1-K)*%
X182300000Y-106030000D03*
D14*
%TO.P,D1,2,A*%
%TO.N,+5V*%
X182300000Y-108570000D03*
%TD*%
D15*
%TO.P,R2,1*%
%TO.N,Net-(D1-K)*%
X179500000Y-100050000D03*
%TO.P,R2,2*%
%TO.N,GND*%
X181150000Y-100050000D03*
%TD*%
D16*
%TO.P,Q1,1,C*%
%TO.N,+5V*%
X88600000Y-108570000D03*
D17*
%TO.P,Q1,2,E*%
%TO.N,IN1*%
X88600000Y-106030000D03*
%TD*%
D18*
%TO.P,J3,*%
%TO.N,*%
X130900000Y-76000000D03*
X144400000Y-76000000D03*
D19*
%TO.P,J3,1,Pin_1*%
%TO.N,GND*%
X141250000Y-82000000D03*
D20*
%TO.P,J3,2,Pin_2*%
%TO.N,+9V*%
X134050000Y-82000000D03*
%TD*%
D21*
%TO.N,GND*%
X130175000Y-71500000D03*
X138125000Y-67675000D03*
X127875000Y-67325000D03*
X106475000Y-94125000D03*
X120525000Y-85500000D03*
X159250000Y-77275000D03*
X148200000Y-83200000D03*
X153825000Y-80125000D03*
X134500000Y-76800000D03*
X140550000Y-71800000D03*
X136625000Y-72900000D03*
X104550000Y-79300000D03*
X177000000Y-105700000D03*
X83700000Y-108500000D03*
X111150000Y-87450000D03*
X173250000Y-84850000D03*
X119150000Y-77900000D03*
X188000000Y-110150000D03*
X96800000Y-87300000D03*
X164450000Y-94750000D03*
X93050000Y-105950000D03*
X110600000Y-73400000D03*
X174400000Y-90600000D03*
X165100000Y-73100000D03*
X129050000Y-92600000D03*
X177850000Y-101200000D03*
X116250000Y-91300000D03*
X98200000Y-98050000D03*
X184700000Y-102250000D03*
X165350000Y-83300000D03*
X113850000Y-67500000D03*
X150640000Y-93180000D03*
X182200000Y-113150000D03*
X88800000Y-111950000D03*
X102950000Y-76150000D03*
X92450000Y-96250000D03*
X175350000Y-98650000D03*
X155600000Y-88350000D03*
%TD*%
D22*
%TO.N,+5V*%
X128750000Y-87500000D02*
X161230000Y-87500000D01*
X161230000Y-87500000D02*
X182300000Y-108570000D01*
X122850000Y-81600000D02*
X128750000Y-87500000D01*
X122850000Y-71200000D02*
X122850000Y-81600000D01*
%TO.N,Net-(D1-K)*%
X179500000Y-100050000D02*
X179500000Y-103230000D01*
X179500000Y-103230000D02*
X182300000Y-106030000D01*
D23*
%TO.N,+9V*%
X125350000Y-76375000D02*
X130975000Y-82000000D01*
X125350000Y-71200000D02*
X125350000Y-76375000D01*
X130975000Y-82000000D02*
X134050000Y-82000000D01*
D22*
%TO.N,IN1*%
X120350000Y-71200000D02*
X120350000Y-71325000D01*
X88600000Y-106030000D02*
X88600000Y-101825000D01*
X88600000Y-102950000D02*
X120350000Y-71200000D01*
%TO.N,PWM5*%
X119775000Y-69275000D02*
X117850000Y-71200000D01*
X152825000Y-69275000D02*
X119775000Y-69275000D01*
X155000000Y-71450000D02*
X152825000Y-69275000D01*
%TD*%
%TA.AperFunction,Conductor*%
%TO.N,GND*%
G36*
X159688022Y-65958034D02*
G01*
X160267093Y-65975876D01*
X160274700Y-65976345D01*
X160781752Y-66023330D01*
X160849688Y-66029626D01*
X160857268Y-66030565D01*
X160994886Y-66051927D01*
X161427866Y-66119139D01*
X161435359Y-66120539D01*
X161999466Y-66244080D01*
X162006825Y-66245932D01*
X162526537Y-66393803D01*
X162562231Y-66403959D01*
X162569509Y-66406274D01*
X163114151Y-66598199D01*
X163121230Y-66600942D01*
X163651994Y-66825594D01*
X163653004Y-66826022D01*
X163659943Y-66829214D01*
X164176849Y-67086604D01*
X164183576Y-67090216D01*
X164683665Y-67378943D01*
X164690120Y-67382939D01*
X165171505Y-67701917D01*
X165177717Y-67706314D01*
X165407121Y-67879552D01*
X165638531Y-68054305D01*
X165644481Y-68059093D01*
X165819829Y-68209321D01*
X166083001Y-68434794D01*
X166088616Y-68439912D01*
X166454275Y-68794479D01*
X166503185Y-68841905D01*
X166508501Y-68847388D01*
X166897506Y-69274107D01*
X166902475Y-69279906D01*
X167264487Y-69729779D01*
X167269090Y-69735874D01*
X167602720Y-70207181D01*
X167606938Y-70213547D01*
X167719164Y-70394798D01*
X167819338Y-70556585D01*
X167912094Y-70706390D01*
X167914042Y-70709648D01*
X188427879Y-106240660D01*
X188478066Y-106327585D01*
X188509722Y-106382415D01*
X188512191Y-106386902D01*
X188716262Y-106776699D01*
X188720632Y-106785959D01*
X188890844Y-107188894D01*
X188894435Y-107198479D01*
X188950034Y-107367908D01*
X189030820Y-107614092D01*
X189033608Y-107623946D01*
X189135230Y-108049375D01*
X189137196Y-108059425D01*
X189203369Y-108491797D01*
X189204499Y-108501974D01*
X189234771Y-108938337D01*
X189235057Y-108948574D01*
X189229220Y-109385934D01*
X189228661Y-109396159D01*
X189186753Y-109831569D01*
X189185351Y-109841713D01*
X189107662Y-110272172D01*
X189105433Y-110282145D01*
X188992490Y-110704721D01*
X188989440Y-110714496D01*
X188842013Y-111126319D01*
X188838166Y-111135809D01*
X188657271Y-111534042D01*
X188652654Y-111543183D01*
X188439506Y-111925147D01*
X188434152Y-111933876D01*
X188190211Y-112296958D01*
X188184153Y-112305215D01*
X187911101Y-112646907D01*
X187904384Y-112654636D01*
X187604055Y-112972650D01*
X187596723Y-112979798D01*
X187271179Y-113271945D01*
X187263281Y-113278464D01*
X186914749Y-113542747D01*
X186906341Y-113548592D01*
X186537190Y-113783215D01*
X186528328Y-113788347D01*
X186141061Y-113991719D01*
X186131806Y-113996101D01*
X185729096Y-114166817D01*
X185719511Y-114170421D01*
X185304085Y-114307328D01*
X185294235Y-114310129D01*
X184868930Y-114412290D01*
X184858883Y-114414269D01*
X184426591Y-114480991D01*
X184416414Y-114482134D01*
X183980091Y-114512958D01*
X183969855Y-114513257D01*
X183532486Y-114507973D01*
X183522261Y-114507427D01*
X183086801Y-114466072D01*
X183076655Y-114464683D01*
X182646122Y-114387543D01*
X182636125Y-114385322D01*
X182213398Y-114272912D01*
X182203619Y-114269875D01*
X181791618Y-114122972D01*
X181782123Y-114119137D01*
X181383648Y-113938740D01*
X181374501Y-113934135D01*
X181339043Y-113914407D01*
X180992266Y-113721471D01*
X180983552Y-113716140D01*
X180620158Y-113472656D01*
X180611900Y-113466614D01*
X180269845Y-113193983D01*
X180262107Y-113187275D01*
X179943709Y-112887344D01*
X179936552Y-112880020D01*
X179853606Y-112787827D01*
X179643994Y-112554846D01*
X179637485Y-112546981D01*
X179372749Y-112198767D01*
X179366893Y-112190366D01*
X179234403Y-111982492D01*
X179130514Y-111819492D01*
X179127704Y-111814862D01*
X179063155Y-111703060D01*
X179017951Y-111624764D01*
X183271564Y-111624764D01*
X183271564Y-111624767D01*
X183291978Y-111910199D01*
X183352802Y-112189803D01*
X183352804Y-112189809D01*
X183352805Y-112189812D01*
X183429254Y-112394779D01*
X183452809Y-112457932D01*
X183589944Y-112709075D01*
X183589949Y-112709083D01*
X183761428Y-112938153D01*
X183761444Y-112938171D01*
X183963768Y-113140495D01*
X183963786Y-113140511D01*
X184192856Y-113311990D01*
X184192864Y-113311995D01*
X184444007Y-113449130D01*
X184444006Y-113449130D01*
X184444010Y-113449131D01*
X184444013Y-113449133D01*
X184712128Y-113549135D01*
X184712134Y-113549136D01*
X184712136Y-113549137D01*
X184991740Y-113609961D01*
X184991742Y-113609961D01*
X184991746Y-113609962D01*
X185245394Y-113628103D01*
X185277173Y-113630376D01*
X185277174Y-113630376D01*
X185277175Y-113630376D01*
X185305769Y-113628330D01*
X185562602Y-113609962D01*
X185676455Y-113585195D01*
X185842211Y-113549137D01*
X185842211Y-113549136D01*
X185842220Y-113549135D01*
X186110335Y-113449133D01*
X186361489Y-113311992D01*
X186590569Y-113140505D01*
X186792913Y-112938161D01*
X186964400Y-112709081D01*
X187101541Y-112457927D01*
X187201543Y-112189812D01*
X187203665Y-112180058D01*
X187262369Y-111910199D01*
X187262369Y-111910198D01*
X187262370Y-111910194D01*
X187282784Y-111624766D01*
X187262370Y-111339338D01*
X187201543Y-111059720D01*
X187101541Y-110791605D01*
X187088014Y-110766833D01*
X186964403Y-110540456D01*
X186964398Y-110540448D01*
X186792919Y-110311378D01*
X186792903Y-110311360D01*
X186590579Y-110109036D01*
X186590561Y-110109020D01*
X186361491Y-109937541D01*
X186361483Y-109937536D01*
X186110340Y-109800401D01*
X186110341Y-109800401D01*
X185899595Y-109721797D01*
X185842220Y-109700397D01*
X185842217Y-109700396D01*
X185842211Y-109700394D01*
X185562607Y-109639570D01*
X185277175Y-109619156D01*
X185277173Y-109619156D01*
X184991740Y-109639570D01*
X184712136Y-109700394D01*
X184444007Y-109800401D01*
X184192864Y-109937536D01*
X184192856Y-109937541D01*
X183963786Y-110109020D01*
X183963768Y-110109036D01*
X183761444Y-110311360D01*
X183761428Y-110311378D01*
X183589949Y-110540448D01*
X183589944Y-110540456D01*
X183452809Y-110791599D01*
X183352802Y-111059728D01*
X183291978Y-111339332D01*
X183271564Y-111624764D01*
X179017951Y-111624764D01*
X176496727Y-107257877D01*
X176467483Y-107207224D01*
X176434537Y-107150160D01*
X176434535Y-107150158D01*
X176430481Y-107143136D01*
X176430462Y-107143107D01*
X176394367Y-107080589D01*
X176285506Y-106892034D01*
X176229884Y-106795693D01*
X175723153Y-105991709D01*
X175333403Y-105423441D01*
X175185607Y-105207949D01*
X175105765Y-105100702D01*
X174618084Y-104445631D01*
X174021430Y-103705898D01*
X174021428Y-103705895D01*
X173578831Y-103198735D01*
X173396530Y-102989841D01*
X172744353Y-102298573D01*
X172065849Y-101633102D01*
X171362076Y-100994462D01*
X171362069Y-100994456D01*
X171362059Y-100994447D01*
X170634031Y-100383559D01*
X169882863Y-99801360D01*
X169882854Y-99801354D01*
X169882843Y-99801345D01*
X169109681Y-99248723D01*
X168315678Y-98726498D01*
X168315668Y-98726492D01*
X168315659Y-98726486D01*
X167501981Y-98235429D01*
X167501968Y-98235421D01*
X166669867Y-97776288D01*
X165820603Y-97349771D01*
X164955407Y-96956491D01*
X164952629Y-96955356D01*
X164075621Y-96597059D01*
X163623820Y-96432617D01*
X163182567Y-96272014D01*
X162277566Y-95981837D01*
X161362021Y-95726977D01*
X160842734Y-95603904D01*
X160437254Y-95507804D01*
X159504695Y-95324655D01*
X158723536Y-95202484D01*
X158565743Y-95177806D01*
X158565740Y-95177805D01*
X158565736Y-95177805D01*
X158015082Y-95113442D01*
X157621773Y-95067471D01*
X156943657Y-95014765D01*
X156674273Y-94993827D01*
X155724615Y-94956976D01*
X155315320Y-94956976D01*
X115603933Y-94956976D01*
X115597185Y-94956976D01*
X115597111Y-94956979D01*
X115194780Y-94956978D01*
X115194779Y-94956978D01*
X115194775Y-94956978D01*
X114957428Y-94966185D01*
X114245375Y-94993808D01*
X113298153Y-95067411D01*
X112354480Y-95177678D01*
X111415759Y-95324448D01*
X110483459Y-95507490D01*
X109558989Y-95726529D01*
X108643638Y-95981257D01*
X107738893Y-96271263D01*
X106846060Y-96596125D01*
X105966485Y-96955356D01*
X105101507Y-97348408D01*
X104252407Y-97774700D01*
X103420478Y-98233581D01*
X102606953Y-98724371D01*
X101813058Y-99246334D01*
X101040019Y-99798659D01*
X100288965Y-100380541D01*
X99560989Y-100991136D01*
X98857294Y-101629433D01*
X98178822Y-102294574D01*
X97526681Y-102985479D01*
X96901782Y-103701178D01*
X96305099Y-104440559D01*
X95737552Y-105202479D01*
X95199943Y-105985864D01*
X94693116Y-106789481D01*
X94473563Y-107169500D01*
X94473562Y-107169499D01*
X94455740Y-107200349D01*
X94455724Y-107200377D01*
X94455490Y-107200780D01*
X94455466Y-107200823D01*
X94422502Y-107257877D01*
X94422501Y-107257879D01*
X94421441Y-107259713D01*
X94421309Y-107259941D01*
X94421302Y-107259953D01*
X91900726Y-111622679D01*
X91893450Y-111633843D01*
X91889702Y-111638967D01*
X91861569Y-111690387D01*
X91860153Y-111692904D01*
X91854850Y-111702082D01*
X91853695Y-111704040D01*
X91627839Y-112078896D01*
X91622147Y-112087509D01*
X91363947Y-112444967D01*
X91357560Y-112453077D01*
X91070516Y-112787827D01*
X91063475Y-112795377D01*
X90749597Y-113105074D01*
X90741953Y-113112013D01*
X90403387Y-113394539D01*
X90395193Y-113400817D01*
X90034309Y-113654197D01*
X90025620Y-113659773D01*
X89644900Y-113882259D01*
X89635778Y-113887092D01*
X89237869Y-114077141D01*
X89228376Y-114081198D01*
X88816054Y-114237482D01*
X88806257Y-114240736D01*
X88382355Y-114362184D01*
X88372321Y-114364612D01*
X87939786Y-114450378D01*
X87929585Y-114451963D01*
X87491403Y-114501454D01*
X87481105Y-114502184D01*
X87040349Y-114515054D01*
X87030026Y-114514926D01*
X86589704Y-114491087D01*
X86579428Y-114490100D01*
X86142628Y-114429719D01*
X86132470Y-114427881D01*
X85702201Y-114331375D01*
X85692230Y-114328698D01*
X85271481Y-114196735D01*
X85261768Y-114193238D01*
X84853465Y-114026739D01*
X84844076Y-114022447D01*
X84451018Y-113822551D01*
X84442020Y-113817492D01*
X84066960Y-113585600D01*
X84058412Y-113579810D01*
X83703944Y-113317525D01*
X83695914Y-113311050D01*
X83668771Y-113287229D01*
X83364475Y-113020173D01*
X83357022Y-113013062D01*
X83050928Y-112695624D01*
X83044089Y-112687914D01*
X82765464Y-112346120D01*
X82759280Y-112337853D01*
X82652733Y-112182332D01*
X82510061Y-111974079D01*
X82504588Y-111965331D01*
X82486688Y-111933876D01*
X82296684Y-111599998D01*
X83594390Y-111599998D01*
X83594390Y-111600001D01*
X83614804Y-111885433D01*
X83675628Y-112165037D01*
X83675630Y-112165043D01*
X83675631Y-112165046D01*
X83754257Y-112375849D01*
X83775635Y-112433166D01*
X83912770Y-112684309D01*
X83912775Y-112684317D01*
X84084254Y-112913387D01*
X84084270Y-112913405D01*
X84286594Y-113115729D01*
X84286612Y-113115745D01*
X84515682Y-113287224D01*
X84515690Y-113287229D01*
X84766833Y-113424364D01*
X84766832Y-113424364D01*
X84766836Y-113424365D01*
X84766839Y-113424367D01*
X85034954Y-113524369D01*
X85034960Y-113524370D01*
X85034962Y-113524371D01*
X85314566Y-113585195D01*
X85314568Y-113585195D01*
X85314572Y-113585196D01*
X85568220Y-113603337D01*
X85599999Y-113605610D01*
X85600000Y-113605610D01*
X85600001Y-113605610D01*
X85628595Y-113603564D01*
X85885428Y-113585196D01*
X86053695Y-113548592D01*
X86165037Y-113524371D01*
X86165037Y-113524370D01*
X86165046Y-113524369D01*
X86433161Y-113424367D01*
X86684315Y-113287226D01*
X86913395Y-113115739D01*
X87115739Y-112913395D01*
X87287226Y-112684315D01*
X87424367Y-112433161D01*
X87524369Y-112165046D01*
X87585196Y-111885428D01*
X87605610Y-111600000D01*
X87585196Y-111314572D01*
X87545292Y-111131138D01*
X87524371Y-111034962D01*
X87524370Y-111034960D01*
X87524369Y-111034954D01*
X87424367Y-110766839D01*
X87414747Y-110749222D01*
X87287229Y-110515690D01*
X87287224Y-110515682D01*
X87115745Y-110286612D01*
X87115729Y-110286594D01*
X86913405Y-110084270D01*
X86913387Y-110084254D01*
X86684317Y-109912775D01*
X86684309Y-109912770D01*
X86433166Y-109775635D01*
X86433167Y-109775635D01*
X86288811Y-109721793D01*
X86165046Y-109675631D01*
X86165043Y-109675630D01*
X86165037Y-109675628D01*
X85885433Y-109614804D01*
X85600001Y-109594390D01*
X85599999Y-109594390D01*
X85314566Y-109614804D01*
X85034962Y-109675628D01*
X84766833Y-109775635D01*
X84515690Y-109912770D01*
X84515682Y-109912775D01*
X84286612Y-110084254D01*
X84286594Y-110084270D01*
X84084270Y-110286594D01*
X84084254Y-110286612D01*
X83912775Y-110515682D01*
X83912770Y-110515690D01*
X83775635Y-110766833D01*
X83675628Y-111034962D01*
X83614804Y-111314566D01*
X83594390Y-111599998D01*
X82296684Y-111599998D01*
X82286488Y-111582082D01*
X82281765Y-111572915D01*
X82267982Y-111543183D01*
X82096292Y-111172836D01*
X82092353Y-111163319D01*
X81940808Y-110749210D01*
X81937673Y-110739400D01*
X81821090Y-110314088D01*
X81818787Y-110304064D01*
X81737987Y-109870539D01*
X81736523Y-109860345D01*
X81692068Y-109421620D01*
X81691456Y-109411347D01*
X81683648Y-108970423D01*
X81683894Y-108960125D01*
X81712790Y-108520079D01*
X81713890Y-108509855D01*
X81779289Y-108073743D01*
X81781239Y-108063628D01*
X81882686Y-107634475D01*
X81885468Y-107624568D01*
X82022265Y-107205327D01*
X82025858Y-107195693D01*
X82197052Y-106789289D01*
X82201440Y-106779976D01*
X82407059Y-106386902D01*
X82409491Y-106382479D01*
X82612996Y-106029998D01*
X87386884Y-106029998D01*
X87386884Y-106030001D01*
X87405313Y-106240649D01*
X87405315Y-106240660D01*
X87460041Y-106444902D01*
X87460043Y-106444906D01*
X87460044Y-106444910D01*
X87504714Y-106540704D01*
X87549410Y-106636556D01*
X87549411Y-106636558D01*
X87670700Y-106809778D01*
X87820221Y-106959299D01*
X87820224Y-106959301D01*
X87993442Y-107080589D01*
X88088937Y-107125119D01*
X88141376Y-107171290D01*
X88160528Y-107238483D01*
X88140313Y-107305364D01*
X88087148Y-107350699D01*
X88036533Y-107361500D01*
X87844130Y-107361500D01*
X87844123Y-107361501D01*
X87784516Y-107367908D01*
X87649671Y-107418202D01*
X87649664Y-107418206D01*
X87534455Y-107504452D01*
X87534452Y-107504455D01*
X87448206Y-107619664D01*
X87448202Y-107619671D01*
X87397908Y-107754517D01*
X87391501Y-107814116D01*
X87391501Y-107814123D01*
X87391500Y-107814135D01*
X87391500Y-109325870D01*
X87391501Y-109325876D01*
X87397908Y-109385483D01*
X87448202Y-109520328D01*
X87448206Y-109520335D01*
X87534452Y-109635544D01*
X87534455Y-109635547D01*
X87649664Y-109721793D01*
X87649671Y-109721797D01*
X87784517Y-109772091D01*
X87784516Y-109772091D01*
X87791444Y-109772835D01*
X87844127Y-109778500D01*
X89355872Y-109778499D01*
X89415483Y-109772091D01*
X89550331Y-109721796D01*
X89665546Y-109635546D01*
X89751796Y-109520331D01*
X89802091Y-109385483D01*
X89808500Y-109325873D01*
X89808499Y-107814128D01*
X89802091Y-107754517D01*
X89784638Y-107707724D01*
X89751797Y-107619671D01*
X89751793Y-107619664D01*
X89665547Y-107504455D01*
X89665544Y-107504452D01*
X89550335Y-107418206D01*
X89550328Y-107418202D01*
X89415482Y-107367908D01*
X89415483Y-107367908D01*
X89355883Y-107361501D01*
X89355881Y-107361500D01*
X89355873Y-107361500D01*
X89355865Y-107361500D01*
X89163469Y-107361500D01*
X89096430Y-107341815D01*
X89050675Y-107289011D01*
X89040731Y-107219853D01*
X89069756Y-107156297D01*
X89111065Y-107125118D01*
X89206558Y-107080589D01*
X89379776Y-106959301D01*
X89529301Y-106809776D01*
X89650589Y-106636558D01*
X89739956Y-106444910D01*
X89794686Y-106240655D01*
X89813116Y-106030000D01*
X89794686Y-105819345D01*
X89739956Y-105615090D01*
X89650589Y-105423442D01*
X89529301Y-105250224D01*
X89529299Y-105250221D01*
X89379780Y-105100702D01*
X89353246Y-105082123D01*
X89253376Y-105012193D01*
X89209752Y-104957616D01*
X89200500Y-104910618D01*
X89200500Y-103250097D01*
X89220185Y-103183058D01*
X89236819Y-103162416D01*
X104418715Y-87980520D01*
X119771134Y-72628100D01*
X119832455Y-72594617D01*
X119897126Y-72597851D01*
X120033757Y-72642246D01*
X120243713Y-72675500D01*
X120243714Y-72675500D01*
X120456286Y-72675500D01*
X120456287Y-72675500D01*
X120666243Y-72642246D01*
X120868412Y-72576557D01*
X121057816Y-72480051D01*
X121125924Y-72430568D01*
X121229786Y-72355109D01*
X121229788Y-72355106D01*
X121229792Y-72355104D01*
X121380104Y-72204792D01*
X121499683Y-72040204D01*
X121555011Y-71997540D01*
X121624624Y-71991561D01*
X121686420Y-72024166D01*
X121700313Y-72040199D01*
X121738976Y-72093414D01*
X121819896Y-72204792D01*
X121970213Y-72355109D01*
X122142184Y-72480051D01*
X122142184Y-72480052D01*
X122181793Y-72500233D01*
X122232590Y-72548206D01*
X122249500Y-72610718D01*
X122249500Y-81513330D01*
X122249499Y-81513348D01*
X122249499Y-81679054D01*
X122249498Y-81679054D01*
X122290423Y-81831785D01*
X122317515Y-81878708D01*
X122317516Y-81878712D01*
X122317517Y-81878712D01*
X122369479Y-81968714D01*
X122369481Y-81968717D01*
X122488349Y-82087585D01*
X122488355Y-82087590D01*
X128265139Y-87864374D01*
X128265149Y-87864385D01*
X128269479Y-87868715D01*
X128269480Y-87868716D01*
X128381284Y-87980520D01*
X128468095Y-88030639D01*
X128468097Y-88030641D01*
X128506151Y-88052611D01*
X128518215Y-88059577D01*
X128670943Y-88100501D01*
X128670946Y-88100501D01*
X128836653Y-88100501D01*
X128836669Y-88100500D01*
X160929903Y-88100500D01*
X160996942Y-88120185D01*
X161017584Y-88136819D01*
X180925794Y-108045030D01*
X180959279Y-108106353D01*
X180958319Y-108163151D01*
X180913866Y-108338690D01*
X180913864Y-108338702D01*
X180894700Y-108569993D01*
X180894700Y-108570006D01*
X180913864Y-108801297D01*
X180913866Y-108801308D01*
X180970842Y-109026300D01*
X181064075Y-109238848D01*
X181191016Y-109433147D01*
X181191019Y-109433151D01*
X181191021Y-109433153D01*
X181348216Y-109603913D01*
X181348219Y-109603915D01*
X181348222Y-109603918D01*
X181531365Y-109746464D01*
X181531371Y-109746468D01*
X181531374Y-109746470D01*
X181735497Y-109856936D01*
X181849487Y-109896068D01*
X181955015Y-109932297D01*
X181955017Y-109932297D01*
X181955019Y-109932298D01*
X182183951Y-109970500D01*
X182183952Y-109970500D01*
X182416048Y-109970500D01*
X182416049Y-109970500D01*
X182644981Y-109932298D01*
X182864503Y-109856936D01*
X183068626Y-109746470D01*
X183251784Y-109603913D01*
X183408979Y-109433153D01*
X183535924Y-109238849D01*
X183629157Y-109026300D01*
X183686134Y-108801305D01*
X183705300Y-108570000D01*
X183705300Y-108569993D01*
X183686135Y-108338702D01*
X183686133Y-108338691D01*
X183629157Y-108113699D01*
X183535924Y-107901151D01*
X183408983Y-107706852D01*
X183408980Y-107706849D01*
X183408979Y-107706847D01*
X183314195Y-107603884D01*
X183283275Y-107541232D01*
X183291135Y-107471806D01*
X183335283Y-107417651D01*
X183362095Y-107403722D01*
X183442326Y-107373798D01*
X183442326Y-107373797D01*
X183442331Y-107373796D01*
X183557546Y-107287546D01*
X183643796Y-107172331D01*
X183694091Y-107037483D01*
X183700500Y-106977873D01*
X183700499Y-105082128D01*
X183694091Y-105022517D01*
X183690240Y-105012193D01*
X183643797Y-104887671D01*
X183643793Y-104887664D01*
X183557547Y-104772455D01*
X183557544Y-104772452D01*
X183442335Y-104686206D01*
X183442328Y-104686202D01*
X183307482Y-104635908D01*
X183307483Y-104635908D01*
X183247883Y-104629501D01*
X183247881Y-104629500D01*
X183247873Y-104629500D01*
X183247865Y-104629500D01*
X181800097Y-104629500D01*
X181733058Y-104609815D01*
X181712416Y-104593181D01*
X180136819Y-103017584D01*
X180103334Y-102956261D01*
X180100500Y-102929903D01*
X180100500Y-100966519D01*
X180120185Y-100899480D01*
X180136813Y-100878843D01*
X180237675Y-100777981D01*
X180298994Y-100744499D01*
X180368686Y-100749483D01*
X180413034Y-100777984D01*
X180515122Y-100880072D01*
X180660604Y-100968019D01*
X180660603Y-100968019D01*
X180822894Y-101018590D01*
X180822893Y-101018590D01*
X180893408Y-101024998D01*
X180893426Y-101024999D01*
X181400000Y-101024999D01*
X181406581Y-101024999D01*
X181477102Y-101018591D01*
X181477107Y-101018590D01*
X181639396Y-100968018D01*
X181784877Y-100880072D01*
X181905072Y-100759877D01*
X181993019Y-100614395D01*
X182043590Y-100452106D01*
X182050000Y-100381572D01*
X182050000Y-100300000D01*
X181400000Y-100300000D01*
X181400000Y-101024999D01*
X180893426Y-101024999D01*
X180899999Y-101024998D01*
X180900000Y-101024998D01*
X180900000Y-99800000D01*
X181400000Y-99800000D01*
X182049999Y-99800000D01*
X182049999Y-99718417D01*
X182043591Y-99647897D01*
X182043590Y-99647892D01*
X181993018Y-99485603D01*
X181905072Y-99340122D01*
X181784877Y-99219927D01*
X181639395Y-99131980D01*
X181639396Y-99131980D01*
X181477105Y-99081409D01*
X181477106Y-99081409D01*
X181406572Y-99075000D01*
X181400000Y-99075000D01*
X181400000Y-99800000D01*
X180900000Y-99800000D01*
X180900000Y-99075000D01*
X180899999Y-99074999D01*
X180893436Y-99075000D01*
X180893417Y-99075001D01*
X180822897Y-99081408D01*
X180822892Y-99081409D01*
X180660603Y-99131981D01*
X180515122Y-99219927D01*
X180515121Y-99219928D01*
X180413035Y-99322015D01*
X180351712Y-99355500D01*
X180282020Y-99350516D01*
X180237673Y-99322015D01*
X180135188Y-99219530D01*
X179989606Y-99131522D01*
X179903022Y-99104542D01*
X179827196Y-99080914D01*
X179827194Y-99080913D01*
X179827192Y-99080913D01*
X179777778Y-99076423D01*
X179756616Y-99074500D01*
X179243384Y-99074500D01*
X179224145Y-99076248D01*
X179172807Y-99080913D01*
X179010393Y-99131522D01*
X178864811Y-99219530D01*
X178744530Y-99339811D01*
X178656522Y-99485393D01*
X178605913Y-99647807D01*
X178599500Y-99718386D01*
X178599500Y-100381613D01*
X178605913Y-100452192D01*
X178605913Y-100452194D01*
X178605914Y-100452196D01*
X178656522Y-100614606D01*
X178744528Y-100760185D01*
X178863182Y-100878839D01*
X178896666Y-100940160D01*
X178899500Y-100966519D01*
X178899500Y-103143330D01*
X178899499Y-103143348D01*
X178899499Y-103309054D01*
X178899498Y-103309054D01*
X178940424Y-103461789D01*
X178940425Y-103461790D01*
X178968015Y-103509576D01*
X178968017Y-103509578D01*
X179019479Y-103598714D01*
X179019481Y-103598717D01*
X179138349Y-103717585D01*
X179138355Y-103717590D01*
X180863181Y-105442416D01*
X180896666Y-105503739D01*
X180899500Y-105530097D01*
X180899500Y-106020902D01*
X180879815Y-106087941D01*
X180827011Y-106133696D01*
X180757853Y-106143640D01*
X180694297Y-106114615D01*
X180687819Y-106108583D01*
X161717590Y-87138355D01*
X161717588Y-87138352D01*
X161598717Y-87019481D01*
X161598716Y-87019480D01*
X161511904Y-86969360D01*
X161511904Y-86969359D01*
X161511900Y-86969358D01*
X161461785Y-86940423D01*
X161309057Y-86899499D01*
X161150943Y-86899499D01*
X161143347Y-86899499D01*
X161143331Y-86899500D01*
X129050097Y-86899500D01*
X128983058Y-86879815D01*
X128962416Y-86863181D01*
X123486819Y-81387584D01*
X123453334Y-81326261D01*
X123450500Y-81299903D01*
X123450500Y-72610718D01*
X123470185Y-72543679D01*
X123518207Y-72500233D01*
X123557815Y-72480052D01*
X123557815Y-72480051D01*
X123557816Y-72480051D01*
X123649193Y-72413661D01*
X123729786Y-72355109D01*
X123729788Y-72355106D01*
X123729792Y-72355104D01*
X123880104Y-72204792D01*
X123999683Y-72040204D01*
X124055011Y-71997540D01*
X124124624Y-71991561D01*
X124186420Y-72024166D01*
X124200313Y-72040199D01*
X124238976Y-72093414D01*
X124322760Y-72208734D01*
X124321888Y-72209367D01*
X124348357Y-72268401D01*
X124349500Y-72285199D01*
X124349500Y-76473541D01*
X124349500Y-76473543D01*
X124349499Y-76473543D01*
X124387947Y-76666829D01*
X124387950Y-76666839D01*
X124463364Y-76848907D01*
X124463371Y-76848920D01*
X124572859Y-77012780D01*
X124572860Y-77012781D01*
X124572861Y-77012782D01*
X124712218Y-77152139D01*
X124712219Y-77152139D01*
X124719286Y-77159206D01*
X124719285Y-77159206D01*
X124719288Y-77159208D01*
X130197860Y-82637781D01*
X130197861Y-82637782D01*
X130267633Y-82707554D01*
X130337219Y-82777140D01*
X130501079Y-82886628D01*
X130501092Y-82886635D01*
X130629833Y-82939961D01*
X130672744Y-82957735D01*
X130683164Y-82962051D01*
X130779812Y-82981275D01*
X130828135Y-82990887D01*
X130876458Y-83000500D01*
X130876459Y-83000500D01*
X130876460Y-83000500D01*
X131073540Y-83000500D01*
X131623336Y-83000500D01*
X131690375Y-83020185D01*
X131735534Y-83071703D01*
X131810559Y-83231138D01*
X131810562Y-83231144D01*
X131982520Y-83502108D01*
X131982522Y-83502111D01*
X132153332Y-83708585D01*
X132187089Y-83749390D01*
X132368025Y-83919299D01*
X132421034Y-83969078D01*
X132421044Y-83969086D01*
X132680660Y-84157708D01*
X132680666Y-84157711D01*
X132680672Y-84157716D01*
X132961903Y-84312324D01*
X133260294Y-84430466D01*
X133260293Y-84430466D01*
X133571135Y-84510276D01*
X133571139Y-84510277D01*
X133637935Y-84518715D01*
X133889524Y-84550499D01*
X133889533Y-84550499D01*
X133889536Y-84550500D01*
X133889538Y-84550500D01*
X134210462Y-84550500D01*
X134210464Y-84550500D01*
X134210467Y-84550499D01*
X134210475Y-84550499D01*
X134400463Y-84526497D01*
X134528861Y-84510277D01*
X134839706Y-84430466D01*
X135138097Y-84312324D01*
X135419328Y-84157716D01*
X135678964Y-83969080D01*
X135912911Y-83749390D01*
X136117478Y-83502110D01*
X136289439Y-83231142D01*
X136426084Y-82940758D01*
X136525256Y-82635538D01*
X136585392Y-82320294D01*
X136585393Y-82320283D01*
X136605543Y-82000005D01*
X136605543Y-81999994D01*
X136585393Y-81679716D01*
X136585392Y-81679709D01*
X136585392Y-81679706D01*
X136525256Y-81364462D01*
X136426084Y-81059242D01*
X136426081Y-81059235D01*
X136353377Y-80904731D01*
X138700000Y-80904731D01*
X138700000Y-81750000D01*
X139922769Y-81750000D01*
X139900000Y-81893753D01*
X139900000Y-82106247D01*
X139922769Y-82250000D01*
X138700000Y-82250000D01*
X138700000Y-83095268D01*
X138710215Y-83239958D01*
X138710217Y-83239968D01*
X138764313Y-83480165D01*
X138764315Y-83480172D01*
X138856244Y-83708585D01*
X138983620Y-83919289D01*
X138983627Y-83919299D01*
X139143153Y-84106846D01*
X139330700Y-84266372D01*
X139330710Y-84266379D01*
X139541414Y-84393755D01*
X139769827Y-84485684D01*
X139769834Y-84485686D01*
X140010031Y-84539782D01*
X140010041Y-84539784D01*
X140154731Y-84549999D01*
X140154734Y-84550000D01*
X141000000Y-84550000D01*
X141000000Y-83327231D01*
X141143753Y-83350000D01*
X141356247Y-83350000D01*
X141500000Y-83327231D01*
X141500000Y-84550000D01*
X142345266Y-84550000D01*
X142345268Y-84549999D01*
X142489958Y-84539784D01*
X142489968Y-84539782D01*
X142730165Y-84485686D01*
X142730172Y-84485684D01*
X142958585Y-84393755D01*
X143169289Y-84266379D01*
X143169299Y-84266372D01*
X143356846Y-84106846D01*
X143516372Y-83919299D01*
X143516379Y-83919289D01*
X143643755Y-83708585D01*
X143735684Y-83480172D01*
X143735686Y-83480165D01*
X143789782Y-83239968D01*
X143789784Y-83239958D01*
X143799999Y-83095268D01*
X143800000Y-83095266D01*
X143800000Y-82250000D01*
X142577231Y-82250000D01*
X142600000Y-82106247D01*
X142600000Y-81893753D01*
X142577231Y-81750000D01*
X143800000Y-81750000D01*
X143800000Y-80904734D01*
X143799999Y-80904731D01*
X143789784Y-80760041D01*
X143789782Y-80760031D01*
X143735686Y-80519834D01*
X143735684Y-80519827D01*
X143643755Y-80291414D01*
X143516379Y-80080710D01*
X143516372Y-80080700D01*
X143356846Y-79893153D01*
X143169299Y-79733627D01*
X143169289Y-79733620D01*
X142958585Y-79606244D01*
X142730172Y-79514315D01*
X142730165Y-79514313D01*
X142489968Y-79460217D01*
X142489958Y-79460215D01*
X142345268Y-79450000D01*
X141500000Y-79450000D01*
X141500000Y-80672768D01*
X141356247Y-80650000D01*
X141143753Y-80650000D01*
X141000000Y-80672768D01*
X141000000Y-79450000D01*
X140154731Y-79450000D01*
X140010041Y-79460215D01*
X140010031Y-79460217D01*
X139769834Y-79514313D01*
X139769827Y-79514315D01*
X139541414Y-79606244D01*
X139330710Y-79733620D01*
X139330700Y-79733627D01*
X139143153Y-79893153D01*
X138983627Y-80080700D01*
X138983620Y-80080710D01*
X138856244Y-80291414D01*
X138764315Y-80519827D01*
X138764313Y-80519834D01*
X138710217Y-80760031D01*
X138710215Y-80760041D01*
X138700000Y-80904731D01*
X136353377Y-80904731D01*
X136289441Y-80768861D01*
X136289437Y-80768855D01*
X136283843Y-80760041D01*
X136117478Y-80497890D01*
X136117477Y-80497888D01*
X135912912Y-80250611D01*
X135731975Y-80080700D01*
X135678964Y-80030920D01*
X135678961Y-80030918D01*
X135678955Y-80030913D01*
X135419339Y-79842291D01*
X135419321Y-79842280D01*
X135138096Y-79687675D01*
X135138093Y-79687674D01*
X134839703Y-79569533D01*
X134839706Y-79569533D01*
X134528864Y-79489723D01*
X134528851Y-79489721D01*
X134210475Y-79449500D01*
X134210464Y-79449500D01*
X133889536Y-79449500D01*
X133889524Y-79449500D01*
X133571148Y-79489721D01*
X133571135Y-79489723D01*
X133260294Y-79569533D01*
X132961906Y-79687674D01*
X132961903Y-79687675D01*
X132680678Y-79842280D01*
X132680660Y-79842291D01*
X132421044Y-80030913D01*
X132421034Y-80030921D01*
X132187087Y-80250611D01*
X131982522Y-80497888D01*
X131982520Y-80497891D01*
X131810562Y-80768855D01*
X131810559Y-80768861D01*
X131735534Y-80928297D01*
X131689179Y-80980575D01*
X131623336Y-80999500D01*
X131440783Y-80999500D01*
X131373744Y-80979815D01*
X131353102Y-80963181D01*
X126386819Y-75996898D01*
X126353334Y-75935575D01*
X126350500Y-75909217D01*
X126350500Y-74952135D01*
X129949500Y-74952135D01*
X129949500Y-77047870D01*
X129949501Y-77047876D01*
X129955908Y-77107483D01*
X130006202Y-77242328D01*
X130006206Y-77242335D01*
X130092452Y-77357544D01*
X130092455Y-77357547D01*
X130207664Y-77443793D01*
X130207671Y-77443797D01*
X130342517Y-77494091D01*
X130342516Y-77494091D01*
X130349444Y-77494835D01*
X130402127Y-77500500D01*
X131397872Y-77500499D01*
X131457483Y-77494091D01*
X131592331Y-77443796D01*
X131707546Y-77357546D01*
X131793796Y-77242331D01*
X131844091Y-77107483D01*
X131850500Y-77047873D01*
X131850499Y-74952135D01*
X143449500Y-74952135D01*
X143449500Y-77047870D01*
X143449501Y-77047876D01*
X143455908Y-77107483D01*
X143506202Y-77242328D01*
X143506206Y-77242335D01*
X143592452Y-77357544D01*
X143592455Y-77357547D01*
X143707664Y-77443793D01*
X143707671Y-77443797D01*
X143842517Y-77494091D01*
X143842516Y-77494091D01*
X143849444Y-77494835D01*
X143902127Y-77500500D01*
X144897872Y-77500499D01*
X144957483Y-77494091D01*
X145092331Y-77443796D01*
X145207546Y-77357546D01*
X145293796Y-77242331D01*
X145344091Y-77107483D01*
X145350500Y-77047873D01*
X145350499Y-74952128D01*
X145344091Y-74892517D01*
X145293796Y-74757669D01*
X145293795Y-74757668D01*
X145293793Y-74757664D01*
X145207547Y-74642455D01*
X145207544Y-74642452D01*
X145092335Y-74556206D01*
X145092328Y-74556202D01*
X144957482Y-74505908D01*
X144957483Y-74505908D01*
X144897883Y-74499501D01*
X144897881Y-74499500D01*
X144897873Y-74499500D01*
X144897864Y-74499500D01*
X143902129Y-74499500D01*
X143902123Y-74499501D01*
X143842516Y-74505908D01*
X143707671Y-74556202D01*
X143707664Y-74556206D01*
X143592455Y-74642452D01*
X143592452Y-74642455D01*
X143506206Y-74757664D01*
X143506202Y-74757671D01*
X143455908Y-74892517D01*
X143449501Y-74952116D01*
X143449501Y-74952123D01*
X143449500Y-74952135D01*
X131850499Y-74952135D01*
X131850499Y-74952128D01*
X131844091Y-74892517D01*
X131793796Y-74757669D01*
X131793795Y-74757668D01*
X131793793Y-74757664D01*
X131707547Y-74642455D01*
X131707544Y-74642452D01*
X131592335Y-74556206D01*
X131592328Y-74556202D01*
X131457482Y-74505908D01*
X131457483Y-74505908D01*
X131397883Y-74499501D01*
X131397881Y-74499500D01*
X131397873Y-74499500D01*
X131397864Y-74499500D01*
X130402129Y-74499500D01*
X130402123Y-74499501D01*
X130342516Y-74505908D01*
X130207671Y-74556202D01*
X130207664Y-74556206D01*
X130092455Y-74642452D01*
X130092452Y-74642455D01*
X130006206Y-74757664D01*
X130006202Y-74757671D01*
X129955908Y-74892517D01*
X129949501Y-74952116D01*
X129949501Y-74952123D01*
X129949500Y-74952135D01*
X126350500Y-74952135D01*
X126350500Y-72285199D01*
X126370185Y-72218160D01*
X126379471Y-72205664D01*
X126505048Y-72032820D01*
X126505047Y-72032820D01*
X126505051Y-72032816D01*
X126601557Y-71843412D01*
X126667246Y-71641243D01*
X126700500Y-71431287D01*
X126700500Y-70968713D01*
X126667246Y-70758757D01*
X126601557Y-70556588D01*
X126505051Y-70367184D01*
X126505049Y-70367181D01*
X126505048Y-70367179D01*
X126380109Y-70195213D01*
X126272077Y-70087181D01*
X126238592Y-70025858D01*
X126243576Y-69956166D01*
X126285448Y-69900233D01*
X126350912Y-69875816D01*
X126359758Y-69875500D01*
X148911378Y-69875500D01*
X148978417Y-69895185D01*
X149024172Y-69947989D01*
X149034116Y-70017147D01*
X149005091Y-70080703D01*
X148976475Y-70105039D01*
X148931654Y-70132684D01*
X148807684Y-70256654D01*
X148715643Y-70405875D01*
X148715641Y-70405880D01*
X148660494Y-70572302D01*
X148660493Y-70572309D01*
X148650000Y-70675013D01*
X148650000Y-71200000D01*
X149595854Y-71200000D01*
X149557370Y-71266657D01*
X149525000Y-71387465D01*
X149525000Y-71512535D01*
X149557370Y-71633343D01*
X149595854Y-71700000D01*
X148650001Y-71700000D01*
X148650001Y-72224986D01*
X148660494Y-72327697D01*
X148715641Y-72494119D01*
X148715643Y-72494124D01*
X148807684Y-72643345D01*
X148931654Y-72767315D01*
X149080875Y-72859356D01*
X149080880Y-72859358D01*
X149247302Y-72914505D01*
X149247309Y-72914506D01*
X149350019Y-72924999D01*
X149749999Y-72924999D01*
X149750000Y-72924998D01*
X149750000Y-71854145D01*
X149816657Y-71892630D01*
X149937465Y-71925000D01*
X150062535Y-71925000D01*
X150183343Y-71892630D01*
X150250000Y-71854145D01*
X150250000Y-72924999D01*
X150649972Y-72924999D01*
X150649986Y-72924998D01*
X150752697Y-72914505D01*
X150919119Y-72859358D01*
X150919124Y-72859356D01*
X151068345Y-72767315D01*
X151192317Y-72643343D01*
X151287815Y-72488516D01*
X151339763Y-72441791D01*
X151408725Y-72430568D01*
X151472808Y-72458412D01*
X151481035Y-72465931D01*
X151620213Y-72605109D01*
X151792179Y-72730048D01*
X151792181Y-72730049D01*
X151792184Y-72730051D01*
X151981588Y-72826557D01*
X152183757Y-72892246D01*
X152393713Y-72925500D01*
X152393714Y-72925500D01*
X152606286Y-72925500D01*
X152606287Y-72925500D01*
X152816243Y-72892246D01*
X153018412Y-72826557D01*
X153207816Y-72730051D01*
X153283589Y-72674999D01*
X153379786Y-72605109D01*
X153379788Y-72605106D01*
X153379792Y-72605104D01*
X153530104Y-72454792D01*
X153649683Y-72290204D01*
X153705011Y-72247540D01*
X153774624Y-72241561D01*
X153836420Y-72274166D01*
X153850313Y-72290199D01*
X153952296Y-72430568D01*
X153969896Y-72454792D01*
X154120213Y-72605109D01*
X154292179Y-72730048D01*
X154292181Y-72730049D01*
X154292184Y-72730051D01*
X154481588Y-72826557D01*
X154683757Y-72892246D01*
X154893713Y-72925500D01*
X154893714Y-72925500D01*
X155106286Y-72925500D01*
X155106287Y-72925500D01*
X155316243Y-72892246D01*
X155518412Y-72826557D01*
X155707816Y-72730051D01*
X155783589Y-72674999D01*
X155879786Y-72605109D01*
X155879788Y-72605106D01*
X155879792Y-72605104D01*
X156030104Y-72454792D01*
X156030106Y-72454788D01*
X156030109Y-72454786D01*
X156155048Y-72282820D01*
X156155047Y-72282820D01*
X156155051Y-72282816D01*
X156251557Y-72093412D01*
X156317246Y-71891243D01*
X156350500Y-71681287D01*
X156350500Y-71218713D01*
X156317246Y-71008757D01*
X156251557Y-70806588D01*
X156155051Y-70617184D01*
X156155049Y-70617181D01*
X156155048Y-70617179D01*
X156030109Y-70445213D01*
X155879786Y-70294890D01*
X155707820Y-70169951D01*
X155518414Y-70073444D01*
X155518413Y-70073443D01*
X155518412Y-70073443D01*
X155316243Y-70007754D01*
X155316241Y-70007753D01*
X155316240Y-70007753D01*
X155154957Y-69982208D01*
X155106287Y-69974500D01*
X154893713Y-69974500D01*
X154845042Y-69982208D01*
X154683760Y-70007753D01*
X154683757Y-70007754D01*
X154547129Y-70052147D01*
X154477290Y-70054142D01*
X154421132Y-70021897D01*
X153794531Y-69395296D01*
X161180513Y-69395296D01*
X161180513Y-69395299D01*
X161200927Y-69680731D01*
X161261751Y-69960335D01*
X161261753Y-69960341D01*
X161261754Y-69960344D01*
X161360970Y-70226352D01*
X161361758Y-70228464D01*
X161498893Y-70479607D01*
X161498898Y-70479615D01*
X161670377Y-70708685D01*
X161670393Y-70708703D01*
X161872717Y-70911027D01*
X161872735Y-70911043D01*
X162101805Y-71082522D01*
X162101813Y-71082527D01*
X162352956Y-71219662D01*
X162352955Y-71219662D01*
X162352959Y-71219663D01*
X162352962Y-71219665D01*
X162621077Y-71319667D01*
X162621083Y-71319668D01*
X162621085Y-71319669D01*
X162900689Y-71380493D01*
X162900691Y-71380493D01*
X162900695Y-71380494D01*
X163154343Y-71398635D01*
X163186122Y-71400908D01*
X163186123Y-71400908D01*
X163186124Y-71400908D01*
X163214718Y-71398862D01*
X163471551Y-71380494D01*
X163731251Y-71324000D01*
X163751160Y-71319669D01*
X163751160Y-71319668D01*
X163751169Y-71319667D01*
X164019284Y-71219665D01*
X164270438Y-71082524D01*
X164499518Y-70911037D01*
X164701862Y-70708693D01*
X164873349Y-70479613D01*
X165010490Y-70228459D01*
X165110492Y-69960344D01*
X165113180Y-69947989D01*
X165171318Y-69680731D01*
X165171318Y-69680730D01*
X165171319Y-69680726D01*
X165191733Y-69395298D01*
X165171319Y-69109870D01*
X165134788Y-68941941D01*
X165110494Y-68830260D01*
X165110493Y-68830258D01*
X165110492Y-68830252D01*
X165010490Y-68562137D01*
X164962275Y-68473839D01*
X164873352Y-68310988D01*
X164873347Y-68310980D01*
X164701868Y-68081910D01*
X164701852Y-68081892D01*
X164499528Y-67879568D01*
X164499510Y-67879552D01*
X164270440Y-67708073D01*
X164270432Y-67708068D01*
X164019289Y-67570933D01*
X164019290Y-67570933D01*
X163912038Y-67530930D01*
X163751169Y-67470929D01*
X163751166Y-67470928D01*
X163751160Y-67470926D01*
X163471556Y-67410102D01*
X163186124Y-67389688D01*
X163186122Y-67389688D01*
X162900689Y-67410102D01*
X162621085Y-67470926D01*
X162352956Y-67570933D01*
X162101813Y-67708068D01*
X162101805Y-67708073D01*
X161872735Y-67879552D01*
X161872717Y-67879568D01*
X161670393Y-68081892D01*
X161670377Y-68081910D01*
X161498898Y-68310980D01*
X161498893Y-68310988D01*
X161361758Y-68562131D01*
X161261751Y-68830260D01*
X161200927Y-69109864D01*
X161180513Y-69395296D01*
X153794531Y-69395296D01*
X153312590Y-68913355D01*
X153312588Y-68913352D01*
X153193717Y-68794481D01*
X153193716Y-68794480D01*
X153106904Y-68744360D01*
X153106904Y-68744359D01*
X153106900Y-68744358D01*
X153056785Y-68715423D01*
X152904057Y-68674499D01*
X152745943Y-68674499D01*
X152738347Y-68674499D01*
X152738331Y-68674500D01*
X119854057Y-68674500D01*
X119695943Y-68674500D01*
X119543215Y-68715423D01*
X119543214Y-68715423D01*
X119543212Y-68715424D01*
X119543209Y-68715425D01*
X119493096Y-68744359D01*
X119493095Y-68744360D01*
X119449689Y-68769420D01*
X119406285Y-68794479D01*
X119406282Y-68794481D01*
X119294478Y-68906286D01*
X118428867Y-69771896D01*
X118367544Y-69805381D01*
X118302868Y-69802146D01*
X118166240Y-69757753D01*
X117989617Y-69729779D01*
X117956287Y-69724500D01*
X117743713Y-69724500D01*
X117710383Y-69729779D01*
X117533760Y-69757753D01*
X117331585Y-69823444D01*
X117142179Y-69919951D01*
X116970215Y-70044889D01*
X116831035Y-70184069D01*
X116769712Y-70217553D01*
X116700020Y-70212569D01*
X116644087Y-70170697D01*
X116637815Y-70161484D01*
X116542315Y-70006654D01*
X116418345Y-69882684D01*
X116269124Y-69790643D01*
X116269119Y-69790641D01*
X116102697Y-69735494D01*
X116102690Y-69735493D01*
X115999986Y-69725000D01*
X115600000Y-69725000D01*
X115600000Y-70795854D01*
X115533343Y-70757370D01*
X115412535Y-70725000D01*
X115287465Y-70725000D01*
X115166657Y-70757370D01*
X115100000Y-70795854D01*
X115100000Y-69725000D01*
X114700028Y-69725000D01*
X114700012Y-69725001D01*
X114597302Y-69735494D01*
X114430880Y-69790641D01*
X114430875Y-69790643D01*
X114281654Y-69882684D01*
X114157684Y-70006654D01*
X114065643Y-70155875D01*
X114065641Y-70155880D01*
X114010494Y-70322302D01*
X114010493Y-70322309D01*
X114000000Y-70425013D01*
X114000000Y-70950000D01*
X114945854Y-70950000D01*
X114907370Y-71016657D01*
X114875000Y-71137465D01*
X114875000Y-71262535D01*
X114907370Y-71383343D01*
X114945854Y-71450000D01*
X114000001Y-71450000D01*
X114000001Y-71974986D01*
X114010494Y-72077697D01*
X114065641Y-72244119D01*
X114065643Y-72244124D01*
X114157684Y-72393345D01*
X114281654Y-72517315D01*
X114430875Y-72609356D01*
X114430880Y-72609358D01*
X114597302Y-72664505D01*
X114597309Y-72664506D01*
X114700019Y-72674999D01*
X115099999Y-72674999D01*
X115100000Y-72674998D01*
X115100000Y-71604145D01*
X115166657Y-71642630D01*
X115287465Y-71675000D01*
X115412535Y-71675000D01*
X115533343Y-71642630D01*
X115600000Y-71604145D01*
X115600000Y-72674999D01*
X115999972Y-72674999D01*
X115999986Y-72674998D01*
X116102697Y-72664505D01*
X116269119Y-72609358D01*
X116269124Y-72609356D01*
X116418345Y-72517315D01*
X116542317Y-72393343D01*
X116637815Y-72238516D01*
X116689763Y-72191791D01*
X116758725Y-72180568D01*
X116822808Y-72208412D01*
X116831035Y-72215931D01*
X116970213Y-72355109D01*
X117142179Y-72480048D01*
X117142181Y-72480049D01*
X117142184Y-72480051D01*
X117331588Y-72576557D01*
X117533757Y-72642246D01*
X117743713Y-72675500D01*
X117743718Y-72675500D01*
X117746401Y-72675925D01*
X117809535Y-72705854D01*
X117846467Y-72765165D01*
X117845469Y-72835028D01*
X117814684Y-72886079D01*
X89558392Y-101142372D01*
X89497069Y-101175857D01*
X89427377Y-101170873D01*
X89383030Y-101142372D01*
X89327984Y-101087326D01*
X89294499Y-101026003D01*
X89299483Y-100956311D01*
X89327985Y-100911963D01*
X89430071Y-100809878D01*
X89430072Y-100809877D01*
X89518019Y-100664395D01*
X89568590Y-100502106D01*
X89575000Y-100431572D01*
X89575000Y-100425000D01*
X87625001Y-100425000D01*
X87625001Y-100431582D01*
X87631408Y-100502102D01*
X87631409Y-100502107D01*
X87681981Y-100664396D01*
X87769927Y-100809877D01*
X87872015Y-100911965D01*
X87905500Y-100973288D01*
X87900516Y-101042980D01*
X87872015Y-101087327D01*
X87769531Y-101189810D01*
X87769530Y-101189811D01*
X87681522Y-101335393D01*
X87630913Y-101497807D01*
X87624500Y-101568386D01*
X87624500Y-102081613D01*
X87630913Y-102152192D01*
X87681522Y-102314606D01*
X87769530Y-102460188D01*
X87889811Y-102580469D01*
X87889813Y-102580470D01*
X87889815Y-102580472D01*
X87939650Y-102610598D01*
X87986838Y-102662126D01*
X87999500Y-102716715D01*
X87999500Y-102863330D01*
X87999499Y-102863348D01*
X87999499Y-103039046D01*
X87999500Y-103039059D01*
X87999500Y-104910618D01*
X87979815Y-104977657D01*
X87946624Y-105012193D01*
X87820219Y-105100702D01*
X87670700Y-105250221D01*
X87549411Y-105423441D01*
X87549410Y-105423443D01*
X87460045Y-105615088D01*
X87460041Y-105615097D01*
X87405315Y-105819339D01*
X87405313Y-105819350D01*
X87386884Y-106029998D01*
X82612996Y-106029998D01*
X86141513Y-99918427D01*
X87625000Y-99918427D01*
X87625000Y-99925000D01*
X88350000Y-99925000D01*
X88850000Y-99925000D01*
X89574999Y-99925000D01*
X89574999Y-99918417D01*
X89568591Y-99847897D01*
X89568590Y-99847892D01*
X89518018Y-99685603D01*
X89430072Y-99540122D01*
X89309877Y-99419927D01*
X89164395Y-99331980D01*
X89164396Y-99331980D01*
X89002105Y-99281409D01*
X89002106Y-99281409D01*
X88931572Y-99275000D01*
X88850000Y-99275000D01*
X88850000Y-99925000D01*
X88350000Y-99925000D01*
X88350000Y-99275000D01*
X88349999Y-99274999D01*
X88268417Y-99275000D01*
X88197897Y-99281408D01*
X88197892Y-99281409D01*
X88035603Y-99331981D01*
X87890122Y-99419927D01*
X87769927Y-99540122D01*
X87681980Y-99685604D01*
X87631409Y-99847893D01*
X87625000Y-99918427D01*
X86141513Y-99918427D01*
X102967093Y-70775668D01*
X102967102Y-70775656D01*
X102973373Y-70764792D01*
X102973375Y-70764792D01*
X103005358Y-70709395D01*
X103007275Y-70706188D01*
X103312331Y-70213509D01*
X103316525Y-70207181D01*
X103650171Y-69735856D01*
X103654737Y-69729809D01*
X103923920Y-69395296D01*
X105727519Y-69395296D01*
X105727519Y-69395299D01*
X105747933Y-69680731D01*
X105808757Y-69960335D01*
X105808759Y-69960341D01*
X105808760Y-69960344D01*
X105907976Y-70226352D01*
X105908764Y-70228464D01*
X106045899Y-70479607D01*
X106045904Y-70479615D01*
X106217383Y-70708685D01*
X106217399Y-70708703D01*
X106419723Y-70911027D01*
X106419741Y-70911043D01*
X106648811Y-71082522D01*
X106648819Y-71082527D01*
X106899962Y-71219662D01*
X106899961Y-71219662D01*
X106899965Y-71219663D01*
X106899968Y-71219665D01*
X107168083Y-71319667D01*
X107168089Y-71319668D01*
X107168091Y-71319669D01*
X107447695Y-71380493D01*
X107447697Y-71380493D01*
X107447701Y-71380494D01*
X107701349Y-71398635D01*
X107733128Y-71400908D01*
X107733129Y-71400908D01*
X107733130Y-71400908D01*
X107761724Y-71398862D01*
X108018557Y-71380494D01*
X108278257Y-71324000D01*
X108298166Y-71319669D01*
X108298166Y-71319668D01*
X108298175Y-71319667D01*
X108566290Y-71219665D01*
X108817444Y-71082524D01*
X109046524Y-70911037D01*
X109248868Y-70708693D01*
X109420355Y-70479613D01*
X109557496Y-70228459D01*
X109657498Y-69960344D01*
X109660186Y-69947989D01*
X109718324Y-69680731D01*
X109718324Y-69680730D01*
X109718325Y-69680726D01*
X109738739Y-69395298D01*
X109718325Y-69109870D01*
X109681794Y-68941941D01*
X109657500Y-68830260D01*
X109657499Y-68830258D01*
X109657498Y-68830252D01*
X109557496Y-68562137D01*
X109509281Y-68473839D01*
X109420358Y-68310988D01*
X109420353Y-68310980D01*
X109248874Y-68081910D01*
X109248858Y-68081892D01*
X109046534Y-67879568D01*
X109046516Y-67879552D01*
X108817446Y-67708073D01*
X108817438Y-67708068D01*
X108566295Y-67570933D01*
X108566296Y-67570933D01*
X108459044Y-67530930D01*
X108298175Y-67470929D01*
X108298172Y-67470928D01*
X108298166Y-67470926D01*
X108018562Y-67410102D01*
X107733130Y-67389688D01*
X107733128Y-67389688D01*
X107447695Y-67410102D01*
X107168091Y-67470926D01*
X106899962Y-67570933D01*
X106648819Y-67708068D01*
X106648811Y-67708073D01*
X106419741Y-67879552D01*
X106419723Y-67879568D01*
X106217399Y-68081892D01*
X106217383Y-68081910D01*
X106045904Y-68310980D01*
X106045899Y-68310988D01*
X105908764Y-68562131D01*
X105808757Y-68830260D01*
X105747933Y-69109864D01*
X105727519Y-69395296D01*
X103923920Y-69395296D01*
X104016778Y-69279902D01*
X104021728Y-69274125D01*
X104410773Y-68847366D01*
X104416073Y-68841901D01*
X104830637Y-68439915D01*
X104836228Y-68434818D01*
X105274808Y-68059069D01*
X105280699Y-68054329D01*
X105741526Y-67706331D01*
X105747736Y-67701934D01*
X106229120Y-67382960D01*
X106235593Y-67378952D01*
X106735705Y-67090214D01*
X106742353Y-67086644D01*
X107259336Y-66829219D01*
X107266226Y-66826050D01*
X107798000Y-66600972D01*
X107805117Y-66598215D01*
X107805185Y-66598191D01*
X108349750Y-66406295D01*
X108356996Y-66403990D01*
X108912432Y-66245956D01*
X108919769Y-66244111D01*
X109483888Y-66120569D01*
X109491337Y-66119176D01*
X110062013Y-66030593D01*
X110069535Y-66029662D01*
X110644539Y-65976382D01*
X110652143Y-65975913D01*
X110959970Y-65966430D01*
X111232487Y-65958035D01*
X111236305Y-65957976D01*
X111299021Y-65957976D01*
X159620215Y-65957976D01*
X159684204Y-65957976D01*
X159688022Y-65958034D01*
G37*
%TD.AperFunction*%
%TD*%
M02*
