M48
; DRILL file {KiCad 8.0.5} date 2025-05-26T21:05:51+0900
; FORMAT={-:-/ absolute / metric / decimal}
; #@! TF.CreationDate,2025-05-26T21:05:51+09:00
; #@! TF.GenerationSoftware,Kicad,Pcbnew,8.0.5
; #@! TF.FileFunction,Plated,1,2,PTH
FMAT,2
METRIC
; #@! TA.AperFunction,Plated,PTH,ViaDrill
T1C0.300
; #@! TA.AperFunction,Plated,PTH,ViaDrill
T2C0.400
; #@! TA.AperFunction,Plated,PTH,ComponentDrill
T3C0.900
; #@! TA.AperFunction,Plated,PTH,ComponentDrill
T4C0.950
; #@! TA.AperFunction,Plated,PTH,ComponentDrill
T5C1.000
%
G90
G05
T1
X194.15Y-91.75
X205.35Y-84.8
X238.3Y-99.0
X238.65Y-101.2
X248.2Y-96.0
X248.2Y-100.4
X248.6Y-98.0
X248.8Y-94.2
T2
X151.4Y-99.9
X151.6Y-96.75
X151.9Y-104.1
X151.95Y-102.05
X152.2Y-106.85
X152.65Y-93.2
X152.85Y-90.3
X153.7Y-113.1
X154.65Y-84.4
X154.7Y-105.5
X154.7Y-115.95
X154.75Y-109.7
X155.85Y-118.5
X156.2Y-111.55
X156.75Y-78.95
X157.0Y-122.45
X158.55Y-94.5
X158.7Y-107.25
X158.75Y-97.6
X158.8Y-73.8
X158.8Y-101.8
X159.0Y-92.35
X159.35Y-125.0
X159.8Y-89.9
X161.05Y-127.05
X161.25Y-99.3
X161.4Y-113.95
X161.7Y-115.85
X162.2Y-117.45
X162.35Y-69.95
X162.6Y-81.8
X162.8Y-129.95
X163.3Y-123.25
X163.55Y-119.45
X164.4Y-120.6
X164.85Y-132.4
X164.9Y-124.75
X166.45Y-66.05
X166.95Y-75.05
X167.3Y-135.2
X168.45Y-128.4
X168.55Y-101.55
X169.1Y-72.0
X169.55Y-137.7
X169.65Y-99.1
X170.6Y-61.85
X171.4Y-131.45
X171.55Y-138.55
X172.7Y-100.7
X172.7Y-139.75
X174.2Y-64.2
X174.3Y-58.8
X174.95Y-132.6
X175.1Y-141.45
X175.65Y-99.6
X178.1Y-135.4
X178.5Y-143.5
X178.6Y-56.95
X178.85Y-101.6
X180.1Y-136.4
X181.8Y-98.8
X181.9Y-144.4
X184.25Y-54.55
X185.75Y-101.8
X185.9Y-146.3
X186.8Y-129.35
X186.85Y-88.2
X187.2Y-83.1
X187.2Y-91.35
X187.2Y-133.55
X187.3Y-96.75
X187.35Y-68.9
X187.5Y-74.55
X187.55Y-116.4
X187.65Y-136.25
X187.75Y-86.05
X187.75Y-146.25
X187.8Y-107.75
X187.95Y-112.7
X188.0Y-71.1
X188.0Y-89.84
X188.1Y-120.55
X188.2Y-102.7
X188.25Y-78.95
X188.6Y-105.2
X188.6Y-144.55
X188.75Y-63.3
X188.85Y-125.8
X188.95Y-52.85
X189.15Y-60.55
X190.0Y-146.8
X190.1Y-131.3
X190.1Y-140.95
X191.3Y-64.5
X191.8Y-146.6
X192.1Y-144.5
X193.5Y-76.5
X193.75Y-147.25
X194.8Y-145.15
X195.1Y-52.05
X195.35Y-64.35
X195.35Y-137.9
X195.55Y-147.8
X195.8Y-78.4
X195.9Y-82.0
X195.95Y-59.8
X195.95Y-74.45
X196.2Y-141.15
X197.0Y-89.84
X197.2Y-138.0
X198.05Y-72.35
X198.45Y-120.95
X198.7Y-60.45
X198.8Y-109.25
X198.9Y-127.85
X198.95Y-147.9
X199.0Y-80.0
X199.05Y-77.85
X199.05Y-82.65
X199.5Y-86.2
X199.65Y-97.35
X199.8Y-113.2
X199.85Y-70.8
X200.05Y-52.1
X200.15Y-105.05
X200.7Y-68.6
X201.05Y-90.95
X201.15Y-73.75
X201.4Y-67.1
X201.5Y-126.4
X201.7Y-148.05
X201.85Y-79.15
X202.0Y-82.5
X202.2Y-116.2
X202.35Y-121.85
X203.15Y-94.8
X203.5Y-100.25
X203.75Y-88.9
X204.0Y-131.0
X204.65Y-109.2
X205.6Y-51.8
X205.7Y-146.85
X206.7Y-54.6
X207.3Y-69.05
X207.35Y-61.15
X207.4Y-64.1
X208.45Y-76.35
X208.95Y-72.45
X209.4Y-61.6
X209.4Y-146.0
X209.7Y-54.85
X209.75Y-147.6
X210.0Y-52.5
X210.0Y-65.35
X210.55Y-104.85
X210.9Y-119.6
X211.2Y-92.0
X211.3Y-87.1
X211.35Y-114.8
X211.45Y-98.0
X212.15Y-55.35
X212.15Y-74.2
X212.45Y-69.65
X212.55Y-62.8
X212.6Y-77.35
X212.6Y-81.25
X212.75Y-53.45
X213.0Y-65.1
X213.25Y-145.45
X216.35Y-99.3
X216.55Y-145.15
X216.9Y-54.9
X216.9Y-62.3
X218.1Y-144.25
X218.5Y-63.15
X218.85Y-98.8
X219.6Y-56.0
X219.65Y-101.2
X219.75Y-63.75
X219.9Y-144.0
X221.8Y-99.4
X222.35Y-142.45
X222.55Y-57.4
X223.85Y-101.65
X224.85Y-141.1
X226.4Y-140.25
X226.9Y-60.55
X228.05Y-69.6
X228.35Y-138.45
X228.65Y-98.65
X229.0Y-63.95
X229.4Y-70.95
X230.1Y-137.15
X230.35Y-72.25
X230.35Y-101.4
X230.75Y-63.05
X231.9Y-135.95
X232.9Y-65.15
X232.9Y-134.9
X233.45Y-73.8
X235.35Y-133.05
X235.6Y-75.2
X235.8Y-68.25
X236.45Y-80.5
X236.45Y-131.75
X236.8Y-75.9
X237.35Y-129.9
X237.4Y-70.15
X238.15Y-83.6
X238.7Y-85.6
X239.3Y-126.6
X239.45Y-72.0
X239.55Y-88.25
X240.1Y-68.65
X240.1Y-91.35
X240.55Y-74.2
X241.4Y-76.45
X241.7Y-123.7
X241.85Y-77.9
X242.15Y-72.05
X242.3Y-96.7
X242.8Y-89.0
X242.85Y-94.35
X243.05Y-121.15
X243.45Y-105.65
X243.55Y-110.55
X243.9Y-79.55
X244.7Y-117.9
X244.75Y-82.15
X245.2Y-94.65
X245.35Y-115.8
X245.4Y-91.35
X245.65Y-84.55
X245.9Y-67.3
X246.25Y-113.45
X246.7Y-111.6
X246.75Y-86.5
X247.0Y-108.0
T3
X154.621Y-97.46
X154.621Y-100.0
X154.621Y-102.54
X157.103Y-84.981
X157.103Y-115.019
X158.075Y-82.634
X158.075Y-117.365
X159.047Y-80.287
X159.047Y-119.712
X166.116Y-69.708
X166.116Y-130.292
X167.912Y-67.912
X167.912Y-132.088
X169.708Y-66.116
X169.708Y-133.884
X180.287Y-140.953
X180.288Y-59.047
X182.634Y-141.925
X182.635Y-58.075
X184.981Y-142.897
X184.981Y-57.103
X197.46Y-54.621
X197.46Y-145.379
X200.0Y-54.621
X200.0Y-145.379
X202.54Y-54.621
X202.54Y-145.379
X215.019Y-142.897
X215.019Y-57.103
X217.365Y-141.925
X217.366Y-58.075
X219.712Y-140.953
X219.713Y-59.047
X230.292Y-66.116
X230.292Y-133.884
X232.088Y-67.912
X232.088Y-132.088
X233.884Y-69.708
X233.884Y-130.292
X240.953Y-80.288
X240.953Y-119.713
X241.925Y-82.635
X241.925Y-117.366
X242.897Y-84.981
X242.897Y-115.019
X245.379Y-97.46
X245.379Y-100.0
X245.379Y-102.54
T4
X194.92Y-133.89
X197.42Y-133.89
X199.92Y-133.89
X202.42Y-133.89
X204.92Y-133.89
T5
X192.38Y-82.22
X192.38Y-84.76
X192.38Y-87.3
X192.38Y-89.84
X192.38Y-92.38
X192.38Y-94.92
X192.38Y-97.46
X192.38Y-100.0
X192.38Y-102.54
X192.38Y-105.08
X192.38Y-107.62
X192.38Y-110.16
X192.38Y-112.7
X192.38Y-115.24
X192.38Y-117.78
X207.62Y-82.22
X207.62Y-84.76
X207.62Y-87.3
X207.62Y-89.84
X207.62Y-92.38
X207.62Y-94.92
X207.62Y-97.46
X207.62Y-100.0
X207.62Y-102.54
X207.62Y-105.08
X207.62Y-107.62
X207.62Y-110.16
X207.62Y-112.7
X207.62Y-115.24
X207.62Y-117.78
M30
