%TF.GenerationSoftware,KiCad,Pcbnew,8.0.5*%
%TF.CreationDate,2025-05-26T21:05:54+09:00*%
%TF.ProjectId,IR board,49522062-6f61-4726-942e-6b696361645f,rev?*%
%TF.SameCoordinates,Original*%
%TF.FileFunction,Profile,NP*%
%FSLAX46Y46*%
G04 Gerber Fmt 4.6, Leading zero omitted, Abs format (unit mm)*
G04 Created by KiCad (PCBNEW 8.0.5) date 2025-05-26 21:05:54*
%MOMM*%
%LPD*%
G01*
G04 APERTURE LIST*
%TA.AperFunction,Profile*%
%ADD10C,0.200000*%
%TD*%
G04 APERTURE END LIST*
D10*
X242611388Y-73841453D02*
X246343214Y-71169729D01*
X215000000Y-97000000D02*
X239887340Y-97000000D01*
X246343214Y-128830271D02*
X242611387Y-126158546D01*
X157388613Y-126158546D02*
X153656786Y-128830271D01*
X161504843Y-68091963D02*
G75*
G02*
X238495157Y-68091964I38495157J-31908037D01*
G01*
X153656786Y-128830271D02*
X152840156Y-133763132D01*
X239887340Y-103000000D02*
X215000000Y-103000000D01*
X157388613Y-126158546D02*
G75*
G02*
X157388613Y-73841454I42611367J26158546D01*
G01*
X157773017Y-65420238D02*
X152840156Y-66236868D01*
X157773017Y-134579762D02*
X161504845Y-131908035D01*
X236585550Y-100000000D02*
G75*
G02*
X233414450Y-100000000I-1585550J0D01*
G01*
X233414450Y-100000000D02*
G75*
G02*
X236585550Y-100000000I1585550J0D01*
G01*
X247159844Y-66236868D02*
X242226983Y-65420238D01*
X247159844Y-133763132D02*
X246343214Y-128830271D01*
X158328590Y-130968942D02*
G75*
G02*
X155157490Y-130968942I-1585550J0D01*
G01*
X155157490Y-130968942D02*
G75*
G02*
X158328590Y-130968942I1585550J0D01*
G01*
X244842510Y-130968942D02*
G75*
G02*
X241671410Y-130968942I-1585550J0D01*
G01*
X241671410Y-130968942D02*
G75*
G02*
X244842510Y-130968942I1585550J0D01*
G01*
X244842510Y-69031058D02*
G75*
G02*
X241671410Y-69031058I-1585550J0D01*
G01*
X241671410Y-69031058D02*
G75*
G02*
X244842510Y-69031058I1585550J0D01*
G01*
X215000000Y-62919009D02*
G75*
G02*
X239887340Y-97000000I-15000000J-37080991D01*
G01*
X185000000Y-137080990D02*
G75*
G02*
X160112661Y-103000000I15000000J37080990D01*
G01*
X238495156Y-131908036D02*
G75*
G02*
X161504844Y-131908036I-38495156J31908036D01*
G01*
X242226983Y-65420238D02*
X238495157Y-68091964D01*
X185000000Y-103000000D02*
X160112661Y-103000000D01*
X185000000Y-137080990D02*
X185000000Y-103000000D01*
X152840156Y-66236868D02*
X153656786Y-71169729D01*
X185000000Y-97000000D02*
X160112659Y-97000000D01*
X160112659Y-97000000D02*
G75*
G02*
X185000000Y-62919008I39887341J-3000000D01*
G01*
X161504843Y-68091963D02*
X157773017Y-65420238D01*
X158328590Y-69031058D02*
G75*
G02*
X155157490Y-69031058I-1585550J0D01*
G01*
X155157490Y-69031058D02*
G75*
G02*
X158328590Y-69031058I1585550J0D01*
G01*
X152840156Y-133763132D02*
X157773017Y-134579762D01*
X242611388Y-73841453D02*
G75*
G02*
X242611388Y-126158547I-42611388J-26158547D01*
G01*
X246343214Y-71169729D02*
X247159844Y-66236868D01*
X239887340Y-103000000D02*
G75*
G02*
X215000000Y-137080991I-39887340J3000000D01*
G01*
X238495156Y-131908036D02*
X242226983Y-134579762D01*
X166585550Y-100000000D02*
G75*
G02*
X163414450Y-100000000I-1585550J0D01*
G01*
X163414450Y-100000000D02*
G75*
G02*
X166585550Y-100000000I1585550J0D01*
G01*
X215000000Y-62919009D02*
X215000000Y-97000000D01*
X153656786Y-71169729D02*
X157388613Y-73841454D01*
X242226983Y-134579762D02*
X247159844Y-133763132D01*
X185000000Y-62919008D02*
X185000000Y-97000000D01*
X215000000Y-103000000D02*
X215000000Y-137080991D01*
M02*
