%TF.GenerationSoftware,KiCad,Pcbnew,8.0.5*%
%TF.CreationDate,2025-12-09T16:47:05+09:00*%
%TF.ProjectId,Hold LED board,486f6c64-204c-4454-9420-626f6172642e,rev?*%
%TF.SameCoordinates,Original*%
%TF.FileFunction,Legend,Top*%
%TF.FilePolarity,Positive*%
%FSLAX46Y46*%
G04 Gerber Fmt 4.6, Leading zero omitted, Abs format (unit mm)*
G04 Created by KiCad (PCBNEW 8.0.5) date 2025-12-09 16:47:05*
%MOMM*%
%LPD*%
G01*
G04 APERTURE LIST*
%ADD10C,0.150000*%
%ADD11C,0.000000*%
%ADD12C,0.120000*%
G04 APERTURE END LIST*
D10*
X205916666Y-87184819D02*
X205916666Y-87899104D01*
X205916666Y-87899104D02*
X205869047Y-88041961D01*
X205869047Y-88041961D02*
X205773809Y-88137200D01*
X205773809Y-88137200D02*
X205630952Y-88184819D01*
X205630952Y-88184819D02*
X205535714Y-88184819D01*
X206916666Y-88184819D02*
X206345238Y-88184819D01*
X206630952Y-88184819D02*
X206630952Y-87184819D01*
X206630952Y-87184819D02*
X206535714Y-87327676D01*
X206535714Y-87327676D02*
X206440476Y-87422914D01*
X206440476Y-87422914D02*
X206345238Y-87470533D01*
D11*
%TO.C,G\u002A\u002A\u002A*%
G36*
X200774460Y-90672763D02*
G01*
X200768863Y-90678360D01*
X200763266Y-90672763D01*
X200768863Y-90667166D01*
X200774460Y-90672763D01*
G37*
G36*
X201533174Y-89718655D02*
G01*
X201529489Y-89727796D01*
X201515905Y-89733067D01*
X201511263Y-89731185D01*
X201495796Y-89731924D01*
X201492334Y-89735712D01*
X201477031Y-89746219D01*
X201451607Y-89754454D01*
X201435126Y-89757005D01*
X201435526Y-89753373D01*
X201454098Y-89742001D01*
X201468511Y-89734061D01*
X201503348Y-89717684D01*
X201525748Y-89712462D01*
X201533174Y-89718655D01*
G37*
G36*
X202706897Y-89430972D02*
G01*
X202865633Y-89453161D01*
X203007735Y-89491528D01*
X203057737Y-89509924D01*
X203106486Y-89529979D01*
X203149577Y-89549627D01*
X203182604Y-89566802D01*
X203201161Y-89579440D01*
X203203636Y-89583371D01*
X203212783Y-89591381D01*
X203221209Y-89592507D01*
X203245433Y-89600335D01*
X203281898Y-89622344D01*
X203327598Y-89656326D01*
X203379525Y-89700070D01*
X203425924Y-89742905D01*
X203466794Y-89784082D01*
X203505021Y-89826044D01*
X203537464Y-89864968D01*
X203560982Y-89897033D01*
X203572434Y-89918414D01*
X203573050Y-89921959D01*
X203562328Y-89923612D01*
X203532052Y-89925106D01*
X203485057Y-89926383D01*
X203424176Y-89927385D01*
X203352244Y-89928054D01*
X203272096Y-89928333D01*
X203260085Y-89928338D01*
X202947120Y-89928338D01*
X202915859Y-89887174D01*
X202836196Y-89798559D01*
X202744054Y-89726696D01*
X202638285Y-89670993D01*
X202517739Y-89630861D01*
X202381269Y-89605709D01*
X202364001Y-89603695D01*
X202259910Y-89596677D01*
X202152093Y-89598678D01*
X202036518Y-89610092D01*
X201909151Y-89631313D01*
X201770758Y-89661583D01*
X201717160Y-89674398D01*
X201671225Y-89685367D01*
X201637463Y-89693414D01*
X201620386Y-89697464D01*
X201619634Y-89697639D01*
X201600779Y-89703038D01*
X201583353Y-89708656D01*
X201556381Y-89714858D01*
X201546760Y-89711003D01*
X201553392Y-89699719D01*
X201575183Y-89683636D01*
X201599133Y-89670805D01*
X201633925Y-89655497D01*
X201660661Y-89646165D01*
X201672893Y-89644756D01*
X201686442Y-89641996D01*
X201698880Y-89632401D01*
X201722197Y-89618012D01*
X201737042Y-89614896D01*
X201756242Y-89610042D01*
X201761430Y-89604504D01*
X201773460Y-89596508D01*
X201803205Y-89583834D01*
X201846788Y-89567737D01*
X201900336Y-89549471D01*
X201959974Y-89530287D01*
X202021825Y-89511440D01*
X202082015Y-89494183D01*
X202136670Y-89479770D01*
X202173755Y-89471139D01*
X202359349Y-89439922D01*
X202537599Y-89426546D01*
X202706897Y-89430972D01*
G37*
G36*
X201465137Y-90048677D02*
G01*
X201459794Y-90084990D01*
X201454522Y-90116680D01*
X201454158Y-90118642D01*
X201431067Y-90240989D01*
X201411305Y-90343448D01*
X201394235Y-90428166D01*
X201379219Y-90497289D01*
X201365617Y-90552962D01*
X201352791Y-90597333D01*
X201340102Y-90632548D01*
X201326912Y-90660752D01*
X201312582Y-90684093D01*
X201296473Y-90704717D01*
X201277947Y-90724769D01*
X201272008Y-90730806D01*
X201237918Y-90763766D01*
X201213363Y-90782856D01*
X201193185Y-90791098D01*
X201172226Y-90791517D01*
X201169061Y-90791139D01*
X201156140Y-90795890D01*
X201155068Y-90799737D01*
X201144775Y-90809895D01*
X201117419Y-90818196D01*
X201078285Y-90824131D01*
X201032659Y-90827193D01*
X200985825Y-90826871D01*
X200943069Y-90822659D01*
X200933980Y-90821008D01*
X200905041Y-90812824D01*
X200888172Y-90803555D01*
X200886404Y-90800179D01*
X200879735Y-90793659D01*
X200876735Y-90794958D01*
X200865219Y-90790693D01*
X200843762Y-90775545D01*
X200818207Y-90754509D01*
X200794397Y-90732579D01*
X200778175Y-90714752D01*
X200774460Y-90707523D01*
X200784417Y-90676127D01*
X200811369Y-90643560D01*
X200845542Y-90618369D01*
X200884600Y-90597665D01*
X200911511Y-90590790D01*
X200931898Y-90597951D01*
X200951385Y-90619359D01*
X200953570Y-90622388D01*
X200971850Y-90643543D01*
X200992765Y-90653373D01*
X201025612Y-90655955D01*
X201030202Y-90655971D01*
X201064662Y-90653795D01*
X201092614Y-90645654D01*
X201115430Y-90629128D01*
X201134484Y-90601796D01*
X201151147Y-90561239D01*
X201166793Y-90505036D01*
X201182793Y-90430769D01*
X201195273Y-90364918D01*
X201200340Y-90338283D01*
X201208443Y-90296785D01*
X201218528Y-90245708D01*
X201229541Y-90190336D01*
X201240427Y-90135954D01*
X201250132Y-90087846D01*
X201257602Y-90051297D01*
X201261715Y-90031886D01*
X201265803Y-90019971D01*
X201274488Y-90012556D01*
X201292297Y-90008581D01*
X201323760Y-90006982D01*
X201369150Y-90006699D01*
X201470862Y-90006699D01*
X201465137Y-90048677D01*
G37*
G36*
X202800639Y-90034264D02*
G01*
X202796606Y-90055498D01*
X202788691Y-90062670D01*
X202781467Y-90071252D01*
X202782783Y-90082261D01*
X202783539Y-90102871D01*
X202779558Y-90137361D01*
X202772467Y-90174614D01*
X202762833Y-90220508D01*
X202754647Y-90264791D01*
X202750573Y-90291380D01*
X202744082Y-90321403D01*
X202734889Y-90340950D01*
X202732459Y-90343156D01*
X202725279Y-90358972D01*
X202727432Y-90374715D01*
X202728873Y-90394239D01*
X202721835Y-90398501D01*
X202713831Y-90406646D01*
X202715520Y-90416303D01*
X202717655Y-90438283D01*
X202715007Y-90445987D01*
X202708809Y-90464996D01*
X202704544Y-90492553D01*
X202698515Y-90543245D01*
X202691420Y-90574542D01*
X202686795Y-90583243D01*
X202684033Y-90597652D01*
X202686006Y-90617054D01*
X202691306Y-90644777D01*
X202843923Y-90644948D01*
X202901135Y-90645702D01*
X202950954Y-90647645D01*
X202988755Y-90650504D01*
X203009912Y-90654005D01*
X203012009Y-90654917D01*
X203019371Y-90662543D01*
X203022419Y-90676208D01*
X203020970Y-90700067D01*
X203014843Y-90738274D01*
X203006463Y-90781908D01*
X203000359Y-90812692D01*
X202721389Y-90812692D01*
X202635356Y-90812646D01*
X202569122Y-90812363D01*
X202520098Y-90811622D01*
X202485697Y-90810206D01*
X202463329Y-90807895D01*
X202450404Y-90804471D01*
X202444335Y-90799714D01*
X202442531Y-90793407D01*
X202442420Y-90789107D01*
X202445112Y-90762133D01*
X202452087Y-90725936D01*
X202461696Y-90686635D01*
X202472287Y-90650351D01*
X202482211Y-90623202D01*
X202489817Y-90611309D01*
X202490401Y-90611194D01*
X202494998Y-90604880D01*
X202490411Y-90597201D01*
X202487348Y-90578188D01*
X202491087Y-90538515D01*
X202501557Y-90478826D01*
X202505381Y-90460070D01*
X202518946Y-90393383D01*
X202534001Y-90316739D01*
X202548188Y-90242239D01*
X202554470Y-90208197D01*
X202564593Y-90153622D01*
X202574150Y-90104097D01*
X202581970Y-90065577D01*
X202586390Y-90045879D01*
X202594914Y-90012296D01*
X202697777Y-90009077D01*
X202800639Y-90005858D01*
X202800639Y-90034264D01*
G37*
G36*
X205962999Y-89917506D02*
G01*
X206017963Y-89919063D01*
X206056382Y-89922526D01*
X206081173Y-89928600D01*
X206095257Y-89937996D01*
X206101551Y-89951422D01*
X206102975Y-89969180D01*
X206100172Y-89989347D01*
X206092550Y-90026309D01*
X206081292Y-90075410D01*
X206067577Y-90131993D01*
X206052588Y-90191401D01*
X206037506Y-90248977D01*
X206023512Y-90300065D01*
X206011788Y-90340009D01*
X206003515Y-90364150D01*
X206001910Y-90367565D01*
X205992873Y-90394922D01*
X205991003Y-90412342D01*
X205988127Y-90433837D01*
X205980426Y-90470696D01*
X205969254Y-90516762D01*
X205962056Y-90544028D01*
X205945916Y-90604408D01*
X205929529Y-90667495D01*
X205913900Y-90729211D01*
X205900036Y-90785475D01*
X205888943Y-90832208D01*
X205881626Y-90865328D01*
X205879088Y-90880572D01*
X205889924Y-90883736D01*
X205921004Y-90886433D01*
X205970186Y-90888584D01*
X206035331Y-90890109D01*
X206114295Y-90890930D01*
X206162809Y-90891053D01*
X206250013Y-90891136D01*
X206317584Y-90891520D01*
X206368276Y-90892408D01*
X206404847Y-90894004D01*
X206430050Y-90896510D01*
X206446641Y-90900130D01*
X206457375Y-90905068D01*
X206465008Y-90911525D01*
X206466819Y-90913472D01*
X206478912Y-90930297D01*
X206481232Y-90948682D01*
X206474577Y-90977653D01*
X206472963Y-90983107D01*
X206462812Y-91019490D01*
X206455090Y-91051481D01*
X206453824Y-91057854D01*
X206447364Y-91083488D01*
X206442020Y-91096407D01*
X206436163Y-91115006D01*
X206432704Y-91139262D01*
X206431584Y-91154628D01*
X206429575Y-91167372D01*
X206424744Y-91177740D01*
X206415163Y-91185976D01*
X206398900Y-91192326D01*
X206374026Y-91197033D01*
X206338610Y-91200343D01*
X206290721Y-91202500D01*
X206228429Y-91203749D01*
X206149805Y-91204335D01*
X206052916Y-91204503D01*
X205935834Y-91204496D01*
X205918138Y-91204495D01*
X205800935Y-91204447D01*
X205704056Y-91204248D01*
X205625434Y-91203813D01*
X205563004Y-91203060D01*
X205514701Y-91201903D01*
X205478458Y-91200260D01*
X205452210Y-91198046D01*
X205433892Y-91195177D01*
X205421438Y-91191571D01*
X205412783Y-91187142D01*
X205408239Y-91183802D01*
X205382685Y-91163110D01*
X205475849Y-90794798D01*
X205498591Y-90705061D01*
X205520178Y-90620208D01*
X205539847Y-90543210D01*
X205556838Y-90477036D01*
X205570387Y-90424657D01*
X205579732Y-90389044D01*
X205583243Y-90376112D01*
X205591020Y-90347296D01*
X205602792Y-90302080D01*
X205617188Y-90245802D01*
X205632837Y-90183798D01*
X205639332Y-90157822D01*
X205654667Y-90096522D01*
X205668858Y-90040196D01*
X205680675Y-89993693D01*
X205688891Y-89961859D01*
X205691110Y-89953525D01*
X205701031Y-89917144D01*
X205888570Y-89917144D01*
X205962999Y-89917506D01*
G37*
G36*
X203684373Y-89991507D02*
G01*
X203699766Y-89994250D01*
X203766586Y-90013712D01*
X203826391Y-90042082D01*
X203872184Y-90075902D01*
X203878747Y-90082686D01*
X203888863Y-90095561D01*
X203889933Y-90106918D01*
X203879676Y-90121865D01*
X203855812Y-90145508D01*
X203846990Y-90153811D01*
X203810547Y-90187151D01*
X203785460Y-90206434D01*
X203767227Y-90213403D01*
X203751344Y-90209804D01*
X203733716Y-90197703D01*
X203679599Y-90167433D01*
X203622540Y-90156785D01*
X203564906Y-90163631D01*
X203509064Y-90185845D01*
X203457383Y-90221297D01*
X203412228Y-90267860D01*
X203375969Y-90323407D01*
X203350972Y-90385810D01*
X203339604Y-90452940D01*
X203344234Y-90522671D01*
X203349012Y-90543466D01*
X203372851Y-90597340D01*
X203411683Y-90634849D01*
X203461683Y-90656127D01*
X203520227Y-90661453D01*
X203582412Y-90649474D01*
X203639985Y-90621851D01*
X203643412Y-90619525D01*
X203669428Y-90606491D01*
X203690460Y-90604062D01*
X203691569Y-90604423D01*
X203702793Y-90604987D01*
X203701706Y-90599871D01*
X203702112Y-90589623D01*
X203705672Y-90588805D01*
X203717435Y-90597237D01*
X203737091Y-90619146D01*
X203756362Y-90644323D01*
X203778264Y-90675729D01*
X203786968Y-90695745D01*
X203781990Y-90711408D01*
X203762846Y-90729756D01*
X203749750Y-90740543D01*
X203718868Y-90760218D01*
X203674262Y-90781936D01*
X203623933Y-90802331D01*
X203575883Y-90818040D01*
X203551932Y-90823730D01*
X203515659Y-90830145D01*
X203488383Y-90832933D01*
X203461339Y-90832088D01*
X203425764Y-90827604D01*
X203399537Y-90823606D01*
X203354926Y-90814171D01*
X203313529Y-90801101D01*
X203280758Y-90786580D01*
X203262025Y-90772794D01*
X203259608Y-90767104D01*
X203253608Y-90759727D01*
X203250782Y-90760854D01*
X203236864Y-90757479D01*
X203215681Y-90739349D01*
X203191186Y-90711085D01*
X203179936Y-90695152D01*
X203774548Y-90695152D01*
X203780146Y-90700749D01*
X203785743Y-90695152D01*
X203780146Y-90689555D01*
X203774548Y-90695152D01*
X203179936Y-90695152D01*
X203167335Y-90677306D01*
X203148082Y-90642632D01*
X203146394Y-90638916D01*
X203130849Y-90582466D01*
X203126054Y-90513216D01*
X203131166Y-90437517D01*
X203139507Y-90392904D01*
X203315580Y-90392904D01*
X203321177Y-90398501D01*
X203326774Y-90392904D01*
X203321177Y-90387307D01*
X203315580Y-90392904D01*
X203139507Y-90392904D01*
X203145337Y-90361720D01*
X203167723Y-90292175D01*
X203197479Y-90235235D01*
X203200749Y-90230586D01*
X203236986Y-90186804D01*
X203254519Y-90169017D01*
X203472301Y-90169017D01*
X203477898Y-90174614D01*
X203483495Y-90169017D01*
X203477898Y-90163420D01*
X203472301Y-90169017D01*
X203254519Y-90169017D01*
X203282882Y-90140242D01*
X203332564Y-90096131D01*
X203380163Y-90059703D01*
X203417933Y-90037059D01*
X203508032Y-90003946D01*
X203598613Y-89988494D01*
X203684373Y-89991507D01*
G37*
G36*
X205165428Y-89917226D02*
G01*
X205233108Y-89917601D01*
X205283719Y-89918463D01*
X205319921Y-89920005D01*
X205344375Y-89922421D01*
X205359741Y-89925902D01*
X205368679Y-89930644D01*
X205373848Y-89936839D01*
X205374908Y-89938722D01*
X205382112Y-89962584D01*
X205381222Y-89975103D01*
X205375280Y-89997388D01*
X205371171Y-90017893D01*
X205363981Y-90053210D01*
X205353119Y-90099235D01*
X205340272Y-90149585D01*
X205327129Y-90197876D01*
X205315375Y-90237724D01*
X205306698Y-90262746D01*
X205306073Y-90264169D01*
X205295235Y-90296769D01*
X205291135Y-90320141D01*
X205287041Y-90346743D01*
X205279157Y-90381929D01*
X205269474Y-90418292D01*
X205259981Y-90448430D01*
X205252669Y-90464938D01*
X205252015Y-90465667D01*
X205246850Y-90479975D01*
X205244594Y-90499250D01*
X205240502Y-90530292D01*
X205231895Y-90571883D01*
X205221267Y-90613310D01*
X205211112Y-90643858D01*
X205210718Y-90644777D01*
X205202735Y-90671592D01*
X205201412Y-90679878D01*
X205195614Y-90711903D01*
X205185279Y-90751926D01*
X205172532Y-90793294D01*
X205159501Y-90829356D01*
X205148311Y-90853460D01*
X205144193Y-90858851D01*
X205131729Y-90879691D01*
X205129066Y-90895530D01*
X205119978Y-90928469D01*
X205092445Y-90972339D01*
X205081759Y-90986205D01*
X205069273Y-91002380D01*
X205050892Y-91026659D01*
X205049236Y-91028864D01*
X205029158Y-91048739D01*
X205011705Y-91054827D01*
X205010177Y-91054403D01*
X204997191Y-91057476D01*
X204994734Y-91068622D01*
X204985562Y-91087523D01*
X204963949Y-91104170D01*
X204935479Y-91120243D01*
X204915593Y-91133956D01*
X204896512Y-91144972D01*
X204865996Y-91158201D01*
X204830630Y-91171338D01*
X204797001Y-91182079D01*
X204771695Y-91188118D01*
X204761644Y-91187830D01*
X204749830Y-91189307D01*
X204739372Y-91196196D01*
X204721330Y-91201936D01*
X204685155Y-91206573D01*
X204635076Y-91210073D01*
X204575322Y-91212400D01*
X204510123Y-91213517D01*
X204443710Y-91213390D01*
X204380311Y-91211983D01*
X204324157Y-91209260D01*
X204279476Y-91205186D01*
X204252426Y-91200295D01*
X204219643Y-91190566D01*
X204197650Y-91180376D01*
X204185453Y-91165888D01*
X204182057Y-91143262D01*
X204186468Y-91108660D01*
X204197693Y-91058242D01*
X204206382Y-91022498D01*
X204239874Y-90885456D01*
X204286013Y-90882065D01*
X204327918Y-90884331D01*
X204369408Y-90894352D01*
X204373756Y-90896058D01*
X204413513Y-90906403D01*
X204466536Y-90912064D01*
X204524164Y-90912881D01*
X204577737Y-90908692D01*
X204615253Y-90900535D01*
X204647502Y-90887690D01*
X204675355Y-90871317D01*
X204699878Y-90849245D01*
X204722136Y-90819304D01*
X204743194Y-90779324D01*
X204764118Y-90727134D01*
X204785972Y-90660565D01*
X204809823Y-90577447D01*
X204836735Y-90475609D01*
X204850686Y-90420890D01*
X204864317Y-90366934D01*
X204873604Y-90329710D01*
X204879690Y-90304242D01*
X204883719Y-90285556D01*
X204886835Y-90268677D01*
X204889925Y-90250176D01*
X204896846Y-90208197D01*
X204817715Y-90208197D01*
X204777659Y-90206751D01*
X204747012Y-90202947D01*
X204732070Y-90197589D01*
X204731808Y-90197233D01*
X204730690Y-90179896D01*
X204736172Y-90147059D01*
X204747143Y-90104239D01*
X204756626Y-90073865D01*
X204761514Y-90051763D01*
X204766011Y-90020035D01*
X204766428Y-90016123D01*
X204772462Y-89979446D01*
X204781282Y-89947141D01*
X204781650Y-89946158D01*
X204792681Y-89917144D01*
X205078020Y-89917144D01*
X205165428Y-89917226D01*
G37*
G36*
X210422935Y-89900176D02*
G01*
X210497032Y-89902986D01*
X210561149Y-89908299D01*
X210608364Y-89915820D01*
X210649830Y-89926743D01*
X210697698Y-89941696D01*
X210746877Y-89958783D01*
X210792274Y-89976109D01*
X210828797Y-89991779D01*
X210851352Y-90003899D01*
X210855694Y-90007854D01*
X210854979Y-90021493D01*
X210849090Y-90051866D01*
X210839273Y-90094258D01*
X210826774Y-90143954D01*
X210812839Y-90196240D01*
X210798713Y-90246400D01*
X210785643Y-90289719D01*
X210774875Y-90321483D01*
X210769473Y-90334134D01*
X210748773Y-90352070D01*
X210716512Y-90352556D01*
X210674633Y-90335996D01*
X210627349Y-90304562D01*
X210562566Y-90258360D01*
X210505256Y-90225518D01*
X210463178Y-90209138D01*
X210442715Y-90206660D01*
X210405954Y-90204806D01*
X210358982Y-90203819D01*
X210328845Y-90203743D01*
X210274668Y-90204650D01*
X210235664Y-90207692D01*
X210204634Y-90214216D01*
X210174378Y-90225565D01*
X210149541Y-90237229D01*
X210070509Y-90288002D01*
X210005577Y-90355110D01*
X209955857Y-90436654D01*
X209922465Y-90530730D01*
X209906512Y-90635437D01*
X209905628Y-90653764D01*
X209908575Y-90737548D01*
X209924583Y-90803656D01*
X209954937Y-90853449D01*
X210000919Y-90888292D01*
X210063815Y-90909547D01*
X210144908Y-90918578D01*
X210155304Y-90918891D01*
X210200968Y-90918872D01*
X210239156Y-90916890D01*
X210263457Y-90913342D01*
X210267277Y-90911929D01*
X210287796Y-90903818D01*
X210322393Y-90892926D01*
X210363341Y-90881559D01*
X210396012Y-90873549D01*
X210410840Y-90866662D01*
X210438340Y-90851381D01*
X210472338Y-90831398D01*
X210506661Y-90810407D01*
X210535134Y-90792100D01*
X210550294Y-90781269D01*
X210573582Y-90772924D01*
X210605238Y-90772829D01*
X210634875Y-90779920D01*
X210651263Y-90791610D01*
X210654204Y-90808052D01*
X210650583Y-90839451D01*
X210640036Y-90887938D01*
X210625064Y-90945244D01*
X210610327Y-90996692D01*
X210596894Y-91039230D01*
X210586148Y-91068767D01*
X210579474Y-91081207D01*
X210579020Y-91081357D01*
X210574376Y-91089526D01*
X210576086Y-91096624D01*
X210571084Y-91108548D01*
X210546817Y-91123179D01*
X210505769Y-91139957D01*
X210432517Y-91165379D01*
X210359332Y-91188022D01*
X210294716Y-91205321D01*
X210272874Y-91210232D01*
X210227044Y-91216507D01*
X210166041Y-91220433D01*
X210096960Y-91221996D01*
X210026895Y-91221186D01*
X209962938Y-91217991D01*
X209912185Y-91212399D01*
X209903460Y-91210839D01*
X209817767Y-91190455D01*
X209747108Y-91165245D01*
X209684230Y-91132519D01*
X209672246Y-91125024D01*
X209623766Y-91088863D01*
X209580580Y-91047353D01*
X209545958Y-91004630D01*
X209523174Y-90964832D01*
X209515500Y-90932098D01*
X209515950Y-90927435D01*
X209511715Y-90914542D01*
X209507880Y-90913442D01*
X209496364Y-90902989D01*
X209487257Y-90874338D01*
X209480569Y-90831553D01*
X209476312Y-90778694D01*
X209474497Y-90719825D01*
X209475133Y-90659007D01*
X209478232Y-90600303D01*
X209483805Y-90547776D01*
X209491862Y-90505488D01*
X209502414Y-90477500D01*
X209506709Y-90471824D01*
X209515823Y-90452274D01*
X209517254Y-90440412D01*
X209523002Y-90414440D01*
X209538416Y-90377429D01*
X209560751Y-90333863D01*
X209587262Y-90288224D01*
X209615204Y-90244997D01*
X209641833Y-90208664D01*
X209664403Y-90183710D01*
X209679981Y-90174614D01*
X209694074Y-90165755D01*
X209706880Y-90147897D01*
X209722373Y-90128987D01*
X209750087Y-90103399D01*
X209784704Y-90075186D01*
X209820908Y-90048398D01*
X209853382Y-90027086D01*
X209876810Y-90015301D01*
X209882396Y-90014162D01*
X209896440Y-90009035D01*
X209897863Y-90005357D01*
X209907314Y-89995585D01*
X209930619Y-89982559D01*
X209960203Y-89969509D01*
X209988490Y-89959668D01*
X210007906Y-89956267D01*
X210011023Y-89957076D01*
X210020469Y-89955869D01*
X210021001Y-89952863D01*
X210030870Y-89944614D01*
X210056680Y-89933160D01*
X210090965Y-89921572D01*
X210134298Y-89912766D01*
X210194539Y-89906163D01*
X210266311Y-89901824D01*
X210344235Y-89899808D01*
X210422935Y-89900176D01*
G37*
G36*
X207675485Y-89895696D02*
G01*
X207710239Y-89897686D01*
X207728234Y-89900933D01*
X207729318Y-89901647D01*
X207744042Y-89906916D01*
X207771709Y-89911208D01*
X207778759Y-89911840D01*
X207811591Y-89917560D01*
X207858080Y-89929569D01*
X207911174Y-89945645D01*
X207963823Y-89963567D01*
X208008975Y-89981111D01*
X208031203Y-89991384D01*
X208053833Y-90007440D01*
X208060906Y-90027921D01*
X208053910Y-90059146D01*
X208049764Y-90070337D01*
X208039084Y-90101306D01*
X208032838Y-90124239D01*
X208028059Y-90144731D01*
X208019250Y-90180626D01*
X208007960Y-90225647D01*
X208002441Y-90247377D01*
X207976745Y-90348127D01*
X207937672Y-90351466D01*
X207914056Y-90350713D01*
X207889517Y-90342471D01*
X207858463Y-90324184D01*
X207823000Y-90299000D01*
X207761135Y-90256630D01*
X207706695Y-90228363D01*
X207652126Y-90211666D01*
X207589875Y-90204005D01*
X207535853Y-90202660D01*
X207481954Y-90203539D01*
X207442508Y-90207066D01*
X207409608Y-90214689D01*
X207375352Y-90227854D01*
X207359717Y-90234895D01*
X207281611Y-90282850D01*
X207216147Y-90347541D01*
X207164836Y-90426281D01*
X207129189Y-90516379D01*
X207110717Y-90615148D01*
X207108610Y-90681815D01*
X207117215Y-90758416D01*
X207137802Y-90821072D01*
X207163840Y-90860783D01*
X207204221Y-90890276D01*
X207260619Y-90909953D01*
X207328530Y-90918942D01*
X207403445Y-90916368D01*
X207430784Y-90912523D01*
X207471970Y-90905611D01*
X207505720Y-90900036D01*
X207524659Y-90897015D01*
X207543209Y-90891301D01*
X207574725Y-90878904D01*
X207607211Y-90864808D01*
X207642664Y-90849425D01*
X207670139Y-90838684D01*
X207682773Y-90835081D01*
X207692391Y-90826624D01*
X207692574Y-90824611D01*
X207702039Y-90814384D01*
X207725433Y-90802397D01*
X207731754Y-90799974D01*
X207757183Y-90788807D01*
X207770405Y-90779149D01*
X207770935Y-90777615D01*
X207780158Y-90768160D01*
X207794125Y-90762063D01*
X207820302Y-90763848D01*
X207845192Y-90779806D01*
X207859590Y-90803229D01*
X207860489Y-90810446D01*
X207857472Y-90830271D01*
X207849411Y-90865409D01*
X207837798Y-90910569D01*
X207824119Y-90960462D01*
X207809866Y-91009799D01*
X207796525Y-91053290D01*
X207785588Y-91085645D01*
X207778542Y-91101575D01*
X207778528Y-91101594D01*
X207758782Y-91116761D01*
X207725893Y-91133237D01*
X207688494Y-91147125D01*
X207664080Y-91153252D01*
X207632609Y-91162629D01*
X207614964Y-91170510D01*
X207592251Y-91177691D01*
X207579873Y-91176041D01*
X207563868Y-91176345D01*
X207535827Y-91185011D01*
X207517688Y-91192771D01*
X207485123Y-91205048D01*
X207444906Y-91213803D01*
X207391710Y-91219951D01*
X207339104Y-91223455D01*
X207285827Y-91225478D01*
X207244323Y-91225402D01*
X207218334Y-91223322D01*
X207211224Y-91220200D01*
X207201237Y-91215001D01*
X207175809Y-91213089D01*
X207158050Y-91213716D01*
X207092092Y-91209588D01*
X207018121Y-91190872D01*
X206942293Y-91160315D01*
X206870762Y-91120667D01*
X206809681Y-91074675D01*
X206780587Y-91045152D01*
X206750534Y-91004986D01*
X206725061Y-90961737D01*
X206706990Y-90921221D01*
X206699142Y-90889254D01*
X206699825Y-90878689D01*
X206698464Y-90859985D01*
X206692289Y-90854287D01*
X206683899Y-90840698D01*
X206678229Y-90809473D01*
X206675246Y-90765196D01*
X206674917Y-90712450D01*
X206677210Y-90655819D01*
X206682092Y-90599887D01*
X206689532Y-90549237D01*
X206694620Y-90525617D01*
X206709934Y-90471542D01*
X206728423Y-90417518D01*
X206748254Y-90367780D01*
X206767594Y-90326560D01*
X206784606Y-90298094D01*
X206797457Y-90286616D01*
X206798189Y-90286558D01*
X206806368Y-90282220D01*
X206804542Y-90279148D01*
X206806055Y-90266586D01*
X206818474Y-90243461D01*
X206826669Y-90231572D01*
X206906755Y-90140661D01*
X207003713Y-90060956D01*
X207113960Y-89994560D01*
X207203917Y-89956324D01*
X207882878Y-89956324D01*
X207888475Y-89961921D01*
X207894072Y-89956324D01*
X207888475Y-89950727D01*
X207882878Y-89956324D01*
X207203917Y-89956324D01*
X207233914Y-89943574D01*
X207359992Y-89910100D01*
X207380693Y-89906478D01*
X207416370Y-89902305D01*
X207463756Y-89898994D01*
X207518105Y-89896613D01*
X207574672Y-89895225D01*
X207628714Y-89894898D01*
X207675485Y-89895696D01*
G37*
G36*
X208873921Y-89919308D02*
G01*
X208954523Y-89920950D01*
X209015990Y-89923676D01*
X209056890Y-89927455D01*
X209063883Y-89928588D01*
X209159062Y-89951757D01*
X209236075Y-89982977D01*
X209298135Y-90023662D01*
X209315897Y-90039421D01*
X209355379Y-90079707D01*
X209382277Y-90115794D01*
X209398917Y-90153728D01*
X209407622Y-90199559D01*
X209410718Y-90259334D01*
X209410908Y-90286558D01*
X209410261Y-90342518D01*
X209407630Y-90382512D01*
X209401983Y-90412941D01*
X209392287Y-90440205D01*
X209382922Y-90460070D01*
X209365230Y-90495018D01*
X209351861Y-90518705D01*
X209337371Y-90539413D01*
X209316314Y-90565422D01*
X209303791Y-90580410D01*
X209279677Y-90605075D01*
X209258227Y-90620170D01*
X209250585Y-90622388D01*
X209230991Y-90630330D01*
X209209305Y-90649395D01*
X209182157Y-90671748D01*
X209138818Y-90697076D01*
X209084808Y-90722884D01*
X209025644Y-90746671D01*
X208966845Y-90765941D01*
X208932692Y-90774590D01*
X208889827Y-90781723D01*
X208831894Y-90788359D01*
X208766212Y-90793794D01*
X208700101Y-90797324D01*
X208694469Y-90797521D01*
X208622737Y-90800882D01*
X208569522Y-90805493D01*
X208536226Y-90811201D01*
X208525164Y-90816115D01*
X208517255Y-90832308D01*
X208506320Y-90864859D01*
X208494107Y-90908253D01*
X208487218Y-90935830D01*
X208475104Y-90984136D01*
X208463533Y-91025969D01*
X208454227Y-91055286D01*
X208450736Y-91063816D01*
X208442447Y-91089421D01*
X208436825Y-91123549D01*
X208436438Y-91128053D01*
X208433227Y-91155562D01*
X208426209Y-91175540D01*
X208412226Y-91189166D01*
X208388117Y-91197620D01*
X208350723Y-91202081D01*
X208296884Y-91203727D01*
X208233501Y-91203785D01*
X208172845Y-91202868D01*
X208118540Y-91200826D01*
X208075307Y-91197928D01*
X208047867Y-91194441D01*
X208042398Y-91192952D01*
X208021368Y-91174516D01*
X208017210Y-91153826D01*
X208019874Y-91132923D01*
X208027014Y-91096357D01*
X208037354Y-91049388D01*
X208049618Y-90997273D01*
X208062529Y-90945271D01*
X208074811Y-90898640D01*
X208085189Y-90862638D01*
X208092384Y-90842523D01*
X208093083Y-90841245D01*
X208099650Y-90821617D01*
X208102796Y-90801526D01*
X208106330Y-90782361D01*
X208114725Y-90745364D01*
X208116039Y-90739929D01*
X208979925Y-90739929D01*
X208985522Y-90745526D01*
X208991120Y-90739929D01*
X208985522Y-90734332D01*
X208979925Y-90739929D01*
X208116039Y-90739929D01*
X208127063Y-90694334D01*
X208142421Y-90633067D01*
X208159878Y-90565361D01*
X208162532Y-90555222D01*
X208178927Y-90492456D01*
X208599317Y-90492456D01*
X208609749Y-90495614D01*
X208638037Y-90497624D01*
X208679668Y-90498297D01*
X208722455Y-90497667D01*
X208771938Y-90495522D01*
X208811927Y-90492274D01*
X208837904Y-90488390D01*
X208845593Y-90484924D01*
X208852408Y-90480207D01*
X208855427Y-90481618D01*
X208868074Y-90477775D01*
X208891203Y-90461702D01*
X208916026Y-90440300D01*
X208956952Y-90392171D01*
X208975816Y-90344379D01*
X208972912Y-90296021D01*
X208967666Y-90280844D01*
X208958850Y-90254270D01*
X208956601Y-90236457D01*
X208956662Y-90236183D01*
X208954343Y-90230562D01*
X208951959Y-90232432D01*
X208937787Y-90233416D01*
X208912355Y-90226319D01*
X208906608Y-90224036D01*
X208873124Y-90215467D01*
X208824195Y-90209926D01*
X208772912Y-90208197D01*
X208726467Y-90208506D01*
X208697391Y-90210383D01*
X208680663Y-90215252D01*
X208671264Y-90224539D01*
X208664456Y-90238982D01*
X208653294Y-90272260D01*
X208647454Y-90297752D01*
X208642329Y-90322428D01*
X208633013Y-90360487D01*
X208621500Y-90403796D01*
X208621219Y-90404812D01*
X208610534Y-90444485D01*
X208602736Y-90475528D01*
X208599354Y-90491825D01*
X208599317Y-90492456D01*
X208178927Y-90492456D01*
X208180381Y-90486891D01*
X208196545Y-90424474D01*
X208210052Y-90371770D01*
X208219929Y-90332575D01*
X208225206Y-90310685D01*
X208225529Y-90309185D01*
X208233878Y-90285433D01*
X208242160Y-90274707D01*
X208248749Y-90259900D01*
X208247363Y-90252080D01*
X208248103Y-90236035D01*
X208254004Y-90202750D01*
X208264164Y-90156537D01*
X208277679Y-90101707D01*
X208283520Y-90079462D01*
X208325363Y-89922741D01*
X208661040Y-89919411D01*
X208775616Y-89918784D01*
X208873921Y-89919308D01*
G37*
G36*
X211602411Y-89922964D02*
G01*
X211691113Y-89923687D01*
X211761699Y-89924990D01*
X211816300Y-89926951D01*
X211857052Y-89929650D01*
X211886088Y-89933166D01*
X211905541Y-89937579D01*
X211907250Y-89938144D01*
X211946319Y-89952635D01*
X211987037Y-89969391D01*
X212023380Y-89985734D01*
X212049325Y-89998987D01*
X212058374Y-90005333D01*
X212071794Y-90015797D01*
X212086360Y-90024564D01*
X212123924Y-90056701D01*
X212153904Y-90105118D01*
X212173339Y-90164190D01*
X212178506Y-90199729D01*
X212175089Y-90283326D01*
X212151832Y-90359145D01*
X212110088Y-90424671D01*
X212051214Y-90477393D01*
X212018283Y-90496895D01*
X211977109Y-90518018D01*
X212018495Y-90543596D01*
X212069518Y-90587718D01*
X212106121Y-90645884D01*
X212126578Y-90713693D01*
X212129162Y-90786745D01*
X212125070Y-90815113D01*
X212115637Y-90851181D01*
X212101621Y-90891031D01*
X212085359Y-90929530D01*
X212069188Y-90961548D01*
X212055447Y-90981953D01*
X212047148Y-90986186D01*
X212037369Y-90991279D01*
X212027134Y-91007921D01*
X212011096Y-91029389D01*
X211983409Y-91055051D01*
X211964468Y-91069305D01*
X211932370Y-91089483D01*
X211896268Y-91109340D01*
X211861270Y-91126468D01*
X211832487Y-91138456D01*
X211815026Y-91142896D01*
X211812098Y-91141158D01*
X211805303Y-91141145D01*
X211798105Y-91146152D01*
X211781065Y-91153776D01*
X211748316Y-91163698D01*
X211706153Y-91174068D01*
X211694557Y-91176582D01*
X211662110Y-91182335D01*
X211622677Y-91187125D01*
X211573673Y-91191091D01*
X211512512Y-91194375D01*
X211436608Y-91197115D01*
X211343375Y-91199452D01*
X211235589Y-91201439D01*
X211134814Y-91203028D01*
X211054002Y-91204107D01*
X210990730Y-91204576D01*
X210942576Y-91204335D01*
X210907118Y-91203282D01*
X210881932Y-91201316D01*
X210864597Y-91198337D01*
X210852690Y-91194244D01*
X210843789Y-91188937D01*
X210838624Y-91184916D01*
X210811074Y-91162401D01*
X210831588Y-91074303D01*
X210842440Y-91031377D01*
X210852853Y-90996404D01*
X210860935Y-90975600D01*
X210862330Y-90973390D01*
X210870326Y-90955949D01*
X210870280Y-90951002D01*
X210870602Y-90932784D01*
X210875377Y-90905880D01*
X210879782Y-90889189D01*
X211302531Y-90889189D01*
X211311414Y-90899004D01*
X211335195Y-90902765D01*
X211377563Y-90904537D01*
X211377722Y-90904543D01*
X211444696Y-90905825D01*
X211503731Y-90904245D01*
X211549925Y-90900061D01*
X211577016Y-90894077D01*
X211600653Y-90886468D01*
X211607397Y-90884815D01*
X211634145Y-90872472D01*
X211663830Y-90849806D01*
X211687686Y-90824263D01*
X211695929Y-90809603D01*
X211702428Y-90779376D01*
X211704987Y-90751123D01*
X211702759Y-90729239D01*
X211691163Y-90714524D01*
X211664713Y-90700879D01*
X211656837Y-90697612D01*
X211615834Y-90686041D01*
X211557392Y-90676822D01*
X211487394Y-90670787D01*
X211434204Y-90667931D01*
X211398940Y-90667080D01*
X211377180Y-90668884D01*
X211364503Y-90673995D01*
X211356486Y-90683063D01*
X211352051Y-90690715D01*
X211341911Y-90715585D01*
X211340077Y-90731533D01*
X211336076Y-90744377D01*
X211331980Y-90745526D01*
X211324330Y-90755165D01*
X211321920Y-90776365D01*
X211319495Y-90811342D01*
X211314686Y-90835135D01*
X211304852Y-90869254D01*
X211302531Y-90889189D01*
X210879782Y-90889189D01*
X210882482Y-90878960D01*
X210889795Y-90860691D01*
X210893188Y-90857470D01*
X210898640Y-90847632D01*
X210901834Y-90823535D01*
X210901996Y-90819419D01*
X210905802Y-90789048D01*
X210914694Y-90746866D01*
X210925988Y-90704677D01*
X210933487Y-90678801D01*
X210942490Y-90646151D01*
X210953473Y-90604860D01*
X210966913Y-90553061D01*
X210983287Y-90488888D01*
X211003069Y-90410473D01*
X211012712Y-90371964D01*
X211434940Y-90371964D01*
X211440155Y-90384964D01*
X211456325Y-90390555D01*
X211480717Y-90394560D01*
X211503785Y-90396014D01*
X211532339Y-90394794D01*
X211573191Y-90390778D01*
X211597547Y-90388008D01*
X211664024Y-90374311D01*
X211710545Y-90350816D01*
X211737382Y-90317325D01*
X211744932Y-90279154D01*
X211739401Y-90249718D01*
X211721246Y-90229107D01*
X211688126Y-90216380D01*
X211637699Y-90210594D01*
X211574434Y-90210579D01*
X211471601Y-90213794D01*
X211458792Y-90258572D01*
X211448152Y-90299603D01*
X211439150Y-90340456D01*
X211438383Y-90344503D01*
X211434940Y-90371964D01*
X211012712Y-90371964D01*
X211026738Y-90315950D01*
X211054768Y-90203451D01*
X211085562Y-90079462D01*
X212103151Y-90079462D01*
X212108749Y-90085059D01*
X212114346Y-90079462D01*
X212108749Y-90073865D01*
X212103151Y-90079462D01*
X211085562Y-90079462D01*
X211087636Y-90071110D01*
X211088342Y-90068268D01*
X211124442Y-89922741D01*
X211493457Y-89922741D01*
X211602411Y-89922964D01*
G37*
G36*
X203286943Y-90880148D02*
G01*
X203359940Y-90880965D01*
X203422272Y-90882233D01*
X203471097Y-90883875D01*
X203503571Y-90885815D01*
X203516852Y-90887975D01*
X203517021Y-90888254D01*
X203512174Y-90901585D01*
X203500370Y-90923285D01*
X203485571Y-90947141D01*
X203471736Y-90966937D01*
X203462826Y-90976459D01*
X203461456Y-90975442D01*
X203456902Y-90977429D01*
X203445841Y-90995061D01*
X203440066Y-91005949D01*
X203420450Y-91037939D01*
X203392424Y-91075757D01*
X203360234Y-91114537D01*
X203328123Y-91149412D01*
X203300336Y-91175515D01*
X203281370Y-91187902D01*
X203263574Y-91199469D01*
X203259608Y-91208698D01*
X203251785Y-91222143D01*
X203230952Y-91245834D01*
X203201063Y-91275407D01*
X203189643Y-91285933D01*
X203153768Y-91317145D01*
X203114313Y-91349449D01*
X203074956Y-91380101D01*
X203039378Y-91406355D01*
X203011256Y-91425469D01*
X202994271Y-91434696D01*
X202990943Y-91434159D01*
X202984006Y-91435998D01*
X202967234Y-91449603D01*
X202966444Y-91450335D01*
X202942289Y-91466993D01*
X202922223Y-91473160D01*
X202900473Y-91481254D01*
X202893549Y-91489016D01*
X202881006Y-91499190D01*
X202853374Y-91516255D01*
X202815785Y-91537497D01*
X202773373Y-91560199D01*
X202731270Y-91581647D01*
X202694610Y-91599125D01*
X202668525Y-91609916D01*
X202661206Y-91611934D01*
X202640615Y-91619065D01*
X202638321Y-91620330D01*
X202616915Y-91629947D01*
X202586457Y-91640511D01*
X202555561Y-91649409D01*
X202532836Y-91654029D01*
X202527403Y-91653973D01*
X202512651Y-91658844D01*
X202510612Y-91661389D01*
X202496194Y-91670356D01*
X202466873Y-91681537D01*
X202429722Y-91692862D01*
X202391812Y-91702261D01*
X202360216Y-91707662D01*
X202350582Y-91708241D01*
X202325157Y-91712493D01*
X202312797Y-91719203D01*
X202293283Y-91728449D01*
X202255132Y-91738038D01*
X202202086Y-91747602D01*
X202137887Y-91756770D01*
X202066277Y-91765173D01*
X201990995Y-91772438D01*
X201915785Y-91778198D01*
X201844386Y-91782081D01*
X201780541Y-91783718D01*
X201727990Y-91782737D01*
X201697995Y-91780027D01*
X201554011Y-91755006D01*
X201420520Y-91723255D01*
X201299829Y-91685603D01*
X201194245Y-91642881D01*
X201106076Y-91595918D01*
X201037628Y-91545543D01*
X201032235Y-91540610D01*
X201008364Y-91520025D01*
X200990884Y-91508012D01*
X200987129Y-91506743D01*
X200975379Y-91498855D01*
X200955386Y-91478780D01*
X200943146Y-91464764D01*
X200919409Y-91436447D01*
X200899978Y-91413345D01*
X200894410Y-91406760D01*
X200877703Y-91384985D01*
X200856269Y-91354335D01*
X200833805Y-91320485D01*
X200814006Y-91289108D01*
X200800570Y-91265879D01*
X200796885Y-91257054D01*
X200792561Y-91242228D01*
X200781668Y-91215122D01*
X200775269Y-91200673D01*
X200765812Y-91174563D01*
X200754880Y-91136372D01*
X200743666Y-91091515D01*
X200733365Y-91045407D01*
X200725172Y-91003463D01*
X200720281Y-90971097D01*
X200719887Y-90953725D01*
X200720512Y-90952464D01*
X200726949Y-90959929D01*
X200740952Y-90983076D01*
X200759986Y-91017606D01*
X200768953Y-91034624D01*
X200790837Y-91074717D01*
X200810446Y-91107138D01*
X200824533Y-91126639D01*
X200827633Y-91129489D01*
X200840357Y-91143590D01*
X200841626Y-91148631D01*
X200849251Y-91160978D01*
X200869162Y-91183214D01*
X200894800Y-91208380D01*
X200927490Y-91237823D01*
X200963628Y-91268771D01*
X200999336Y-91298119D01*
X201030732Y-91322762D01*
X201053936Y-91339594D01*
X201065069Y-91345511D01*
X201065514Y-91344994D01*
X201074683Y-91346866D01*
X201098953Y-91356855D01*
X201133471Y-91372927D01*
X201141076Y-91376642D01*
X201187962Y-91396587D01*
X201246371Y-91416997D01*
X201305803Y-91434301D01*
X201322984Y-91438520D01*
X201364252Y-91446604D01*
X201415492Y-91454416D01*
X201472526Y-91461585D01*
X201531179Y-91467743D01*
X201587274Y-91472522D01*
X201636635Y-91475553D01*
X201675086Y-91476466D01*
X201698450Y-91474894D01*
X201703592Y-91472134D01*
X201713958Y-91468448D01*
X201741809Y-91464173D01*
X201782279Y-91459966D01*
X201809207Y-91457846D01*
X201888629Y-91449354D01*
X201976309Y-91435121D01*
X202065837Y-91416582D01*
X202150802Y-91395172D01*
X202224795Y-91372328D01*
X202270599Y-91354513D01*
X202296665Y-91343892D01*
X202313245Y-91338885D01*
X202314078Y-91338827D01*
X202328572Y-91333768D01*
X202357679Y-91320287D01*
X202396490Y-91300928D01*
X202440100Y-91278235D01*
X202483602Y-91254751D01*
X202522088Y-91233020D01*
X202545917Y-91218639D01*
X202624841Y-91162840D01*
X202702534Y-91097581D01*
X202771254Y-91029653D01*
X202802359Y-90993692D01*
X202832030Y-90956932D01*
X202857989Y-90924914D01*
X202875732Y-90903191D01*
X202878689Y-90899619D01*
X202885185Y-90893766D01*
X202895466Y-90889188D01*
X202912094Y-90885732D01*
X202937633Y-90883244D01*
X202974645Y-90881567D01*
X203025692Y-90880548D01*
X203093337Y-90880032D01*
X203180143Y-90879864D01*
X203206124Y-90879859D01*
X203286943Y-90880148D01*
G37*
G36*
X202045020Y-90101227D02*
G01*
X202128859Y-90107134D01*
X202195569Y-90120274D01*
X202249645Y-90142071D01*
X202295581Y-90173948D01*
X202306851Y-90184164D01*
X202347289Y-90225699D01*
X202372622Y-90261933D01*
X202386149Y-90300317D01*
X202391169Y-90348302D01*
X202391530Y-90375395D01*
X202390099Y-90423567D01*
X202384442Y-90459611D01*
X202372064Y-90493721D01*
X202353627Y-90530240D01*
X202328674Y-90570746D01*
X202299526Y-90609125D01*
X202269823Y-90641572D01*
X202243203Y-90664278D01*
X202223307Y-90673438D01*
X202217802Y-90672311D01*
X202209663Y-90674033D01*
X202209859Y-90679691D01*
X202201965Y-90691826D01*
X202177341Y-90706757D01*
X202141126Y-90722476D01*
X202098457Y-90736973D01*
X202054474Y-90748242D01*
X202020499Y-90753718D01*
X201983087Y-90756108D01*
X201959051Y-90752293D01*
X201939792Y-90740338D01*
X201932684Y-90733963D01*
X201905045Y-90707998D01*
X201856265Y-90732359D01*
X201799081Y-90751435D01*
X201742643Y-90753372D01*
X201691877Y-90739010D01*
X201651709Y-90709193D01*
X201641319Y-90695649D01*
X201636796Y-90683957D01*
X201770758Y-90683957D01*
X201776355Y-90689555D01*
X201781953Y-90683957D01*
X201776355Y-90678360D01*
X201770758Y-90683957D01*
X201636796Y-90683957D01*
X201625455Y-90654637D01*
X201620432Y-90601936D01*
X201620618Y-90600080D01*
X201748494Y-90600080D01*
X201752108Y-90636225D01*
X201761803Y-90653733D01*
X201789715Y-90667041D01*
X201827735Y-90666119D01*
X201869580Y-90651986D01*
X201902930Y-90630784D01*
X201939473Y-90593510D01*
X201969817Y-90548038D01*
X201992245Y-90499214D01*
X202005039Y-90451879D01*
X202006483Y-90410877D01*
X201994861Y-90381050D01*
X201992407Y-90378351D01*
X201964539Y-90365055D01*
X201926305Y-90365529D01*
X201883684Y-90378246D01*
X201842658Y-90401678D01*
X201819029Y-90422625D01*
X201791442Y-90460632D01*
X201769559Y-90506639D01*
X201754777Y-90555004D01*
X201748494Y-90600080D01*
X201620618Y-90600080D01*
X201626100Y-90545357D01*
X201642309Y-90492717D01*
X201645339Y-90486251D01*
X201684976Y-90424079D01*
X201737303Y-90368600D01*
X201797612Y-90323194D01*
X201861191Y-90291242D01*
X201923332Y-90276121D01*
X201939245Y-90275363D01*
X201961616Y-90276507D01*
X201982287Y-90281637D01*
X202008961Y-90293304D01*
X202037651Y-90307934D01*
X202059190Y-90315744D01*
X202073116Y-90308515D01*
X202077143Y-90303452D01*
X202091488Y-90292605D01*
X202117192Y-90288161D01*
X202154190Y-90288723D01*
X202217957Y-90292155D01*
X202172801Y-90392904D01*
X202150110Y-90443156D01*
X202127772Y-90491990D01*
X202109372Y-90531594D01*
X202103473Y-90544028D01*
X202083793Y-90585553D01*
X202072499Y-90611776D01*
X202068113Y-90627494D01*
X202069159Y-90637503D01*
X202072634Y-90644175D01*
X202090712Y-90654246D01*
X202120248Y-90647774D01*
X202158852Y-90625806D01*
X202204131Y-90589391D01*
X202210137Y-90583880D01*
X202240686Y-90553380D01*
X202263388Y-90526737D01*
X202274146Y-90508859D01*
X202274504Y-90506698D01*
X202279815Y-90487839D01*
X202283920Y-90483558D01*
X202290919Y-90468316D01*
X202294808Y-90437761D01*
X202295666Y-90398737D01*
X202293571Y-90358092D01*
X202288602Y-90322673D01*
X202281832Y-90301104D01*
X202244423Y-90252160D01*
X202190886Y-90215042D01*
X202125558Y-90192501D01*
X202105276Y-90189115D01*
X202037721Y-90184687D01*
X201965102Y-90187024D01*
X201895069Y-90195371D01*
X201835272Y-90208975D01*
X201809955Y-90218231D01*
X201781104Y-90230112D01*
X201762870Y-90235927D01*
X201759564Y-90235663D01*
X201752226Y-90237239D01*
X201732154Y-90252368D01*
X201702257Y-90278586D01*
X201665444Y-90313430D01*
X201651770Y-90326904D01*
X201595974Y-90393652D01*
X201556115Y-90465188D01*
X201532607Y-90538385D01*
X201525866Y-90610118D01*
X201536309Y-90677259D01*
X201564350Y-90736684D01*
X201592809Y-90770263D01*
X201648076Y-90808834D01*
X201718520Y-90836486D01*
X201799714Y-90853113D01*
X201887231Y-90858611D01*
X201976644Y-90852874D01*
X202063525Y-90835797D01*
X202143449Y-90807276D01*
X202186637Y-90784371D01*
X202230815Y-90760318D01*
X202268104Y-90748426D01*
X202303651Y-90745526D01*
X202357409Y-90745526D01*
X202314815Y-90789146D01*
X202249819Y-90842027D01*
X202167254Y-90886778D01*
X202091240Y-90915203D01*
X202036467Y-90927606D01*
X201967640Y-90936572D01*
X201892896Y-90941628D01*
X201820373Y-90942300D01*
X201758207Y-90938118D01*
X201741056Y-90935538D01*
X201642632Y-90909760D01*
X201562332Y-90871143D01*
X201507818Y-90827843D01*
X201475584Y-90792362D01*
X201458971Y-90764402D01*
X201455176Y-90738760D01*
X201455991Y-90731533D01*
X201448725Y-90723517D01*
X201445189Y-90723138D01*
X201437052Y-90715145D01*
X201437984Y-90709145D01*
X201438195Y-90688427D01*
X201433251Y-90669053D01*
X201428527Y-90634341D01*
X201432340Y-90585721D01*
X201443103Y-90529254D01*
X201459224Y-90471000D01*
X201479114Y-90417018D01*
X201501182Y-90373369D01*
X201516111Y-90353226D01*
X201532619Y-90332614D01*
X201538855Y-90318948D01*
X201538741Y-90318356D01*
X201544936Y-90304814D01*
X201566114Y-90282849D01*
X201598138Y-90255690D01*
X201636874Y-90226564D01*
X201678184Y-90198698D01*
X201717932Y-90175320D01*
X201729958Y-90169161D01*
X201807302Y-90135014D01*
X201877051Y-90113573D01*
X201948403Y-90102854D01*
X202030556Y-90100874D01*
X202045020Y-90101227D01*
G37*
D12*
%TO.C,J1*%
X200190000Y-79170000D02*
X211910000Y-79170000D01*
X200190000Y-82980000D02*
X200190000Y-79170000D01*
X200190000Y-82980000D02*
X200190000Y-86790000D01*
X200190000Y-86790000D02*
X211910000Y-86790000D01*
X200800000Y-81480000D02*
X200800000Y-81980000D01*
X200800000Y-81980000D02*
X206300000Y-81980000D01*
X200800000Y-83980000D02*
X200800000Y-84480000D01*
X200800000Y-84480000D02*
X206300000Y-84480000D01*
X206300000Y-81480000D02*
X200800000Y-81480000D01*
X206300000Y-81980000D02*
X206300000Y-81480000D01*
X206300000Y-83980000D02*
X200800000Y-83980000D01*
X206300000Y-84480000D02*
X206300000Y-83980000D01*
X207410000Y-80590000D02*
X207410000Y-82980000D01*
X207410000Y-85370000D02*
X207410000Y-82980000D01*
X211000000Y-81730000D02*
X211600000Y-81430000D01*
X211600000Y-81430000D02*
X211600000Y-82030000D01*
X211600000Y-82030000D02*
X211000000Y-81730000D01*
X211910000Y-79170000D02*
X211910000Y-80590000D01*
X211910000Y-80590000D02*
X207410000Y-80590000D01*
X211910000Y-85370000D02*
X207410000Y-85370000D01*
X211910000Y-86790000D02*
X211910000Y-85370000D01*
%TD*%
M02*
