M48
; DRILL file {KiCad 8.0.5} date 2025-12-09T16:47:08+0900
; FORMAT={-:-/ absolute / metric / decimal}
; #@! TF.CreationDate,2025-12-09T16:47:08+09:00
; #@! TF.GenerationSoftware,Kicad,Pcbnew,8.0.5
; #@! TF.FileFunction,Plated,1,2,PTH
FMAT,2
METRIC
; #@! TA.AperFunction,Plated,PTH,ViaDrill
T1C0.300
; #@! TA.AperFunction,Plated,PTH,ComponentDrill
T2C0.900
; #@! TA.AperFunction,Plated,PTH,ComponentDrill
T3C1.000
%
G90
G05
T1
X200.95Y-73.775
X200.95Y-79.8
X200.95Y-89.4
X200.95Y-99.075
X200.975Y-66.925
X201.025Y-94.05
X201.1Y-84.925
X204.1Y-74.45
X204.175Y-78.1
X204.475Y-89.8
X204.6Y-81.75
X204.875Y-85.625
X204.9Y-99.175
X206.375Y-66.9
X206.5Y-69.7
X207.05Y-95.5
X207.575Y-88.1
X208.25Y-99.125
X208.875Y-91.35
X209.65Y-66.9
X210.1Y-70.875
X211.875Y-84.275
X211.975Y-79.975
X212.0Y-96.05
X212.025Y-70.825
X212.025Y-88.875
X212.075Y-66.9
X212.075Y-99.025
X212.1Y-74.925
T2
X207.23Y-73.5
X209.77Y-73.5
T3
X209.5Y-81.73
X209.5Y-84.23
M30
