%TF.GenerationSoftware,KiCad,Pcbnew,8.0.5*%
%TF.CreationDate,2025-12-09T16:47:05+09:00*%
%TF.ProjectId,Hold LED board,486f6c64-204c-4454-9420-626f6172642e,rev?*%
%TF.SameCoordinates,Original*%
%TF.FileFunction,Legend,Bot*%
%TF.FilePolarity,Positive*%
%FSLAX46Y46*%
G04 Gerber Fmt 4.6, Leading zero omitted, Abs format (unit mm)*
G04 Created by KiCad (PCBNEW 8.0.5) date 2025-12-09 16:47:05*
%MOMM*%
%LPD*%
G01*
G04 APERTURE LIST*
%ADD10C,0.150000*%
%ADD11C,0.120000*%
G04 APERTURE END LIST*
D10*
X209238094Y-77914819D02*
X209238094Y-76914819D01*
X209238094Y-76914819D02*
X208999999Y-76914819D01*
X208999999Y-76914819D02*
X208857142Y-76962438D01*
X208857142Y-76962438D02*
X208761904Y-77057676D01*
X208761904Y-77057676D02*
X208714285Y-77152914D01*
X208714285Y-77152914D02*
X208666666Y-77343390D01*
X208666666Y-77343390D02*
X208666666Y-77486247D01*
X208666666Y-77486247D02*
X208714285Y-77676723D01*
X208714285Y-77676723D02*
X208761904Y-77771961D01*
X208761904Y-77771961D02*
X208857142Y-77867200D01*
X208857142Y-77867200D02*
X208999999Y-77914819D01*
X208999999Y-77914819D02*
X209238094Y-77914819D01*
X207714285Y-77914819D02*
X208285713Y-77914819D01*
X207999999Y-77914819D02*
X207999999Y-76914819D01*
X207999999Y-76914819D02*
X208095237Y-77057676D01*
X208095237Y-77057676D02*
X208190475Y-77152914D01*
X208190475Y-77152914D02*
X208285713Y-77200533D01*
D11*
%TO.C,D1*%
X205940000Y-71955000D02*
X205940000Y-75045000D01*
X205940000Y-71955170D02*
G75*
G02*
X211490000Y-73500462I2560000J-1544830D01*
G01*
X211490000Y-73499538D02*
G75*
G02*
X205940000Y-75044830I-2990000J-462D01*
G01*
X211000000Y-73500000D02*
G75*
G02*
X206000000Y-73500000I-2500000J0D01*
G01*
X206000000Y-73500000D02*
G75*
G02*
X211000000Y-73500000I2500000J0D01*
G01*
%TD*%
M02*
