M48
; DRILL file {KiCad 8.0.5} date 2025-12-22T19:15:13+0900
; FORMAT={-:-/ absolute / inch / decimal}
; #@! TF.CreationDate,2025-12-22T19:15:13+09:00
; #@! TF.GenerationSoftware,Kicad,Pcbnew,8.0.5
; #@! TF.FileFunction,Plated,1,2,PTH
FMAT,2
INCH
; #@! TA.AperFunction,Plated,PTH,ViaDrill
T1C0.0118
; #@! TA.AperFunction,Plated,PTH,ViaDrill
T2C0.0157
; #@! TA.AperFunction,Plated,PTH,ComponentDrill
T3C0.0236
; #@! TA.AperFunction,Plated,PTH,ComponentDrill
T4C0.0315
; #@! TA.AperFunction,Plated,PTH,ComponentDrill
T5C0.0374
; #@! TA.AperFunction,Plated,PTH,ComponentDrill
T6C0.0394
; #@! TA.AperFunction,Plated,PTH,ComponentDrill
T7C0.0500
; #@! TA.AperFunction,Plated,PTH,ComponentDrill
T8C0.0630
; #@! TA.AperFunction,Plated,PTH,ComponentDrill
T9C0.0748
; #@! TA.AperFunction,Plated,PTH,ComponentDrill
T10C0.1063
%
G90
G05
T1
X5.4488Y-4.128
X5.4567Y-4.7195
X5.4646Y-4.5285
X5.4852Y-4.3415
X5.6486Y-4.9892
X5.7648Y-4.7185
X5.8553Y-5.1624
X5.9882Y-4.938
X6.0689Y-5.2717
X6.2805Y-5.0531
X6.314Y-3.9813
X6.3268Y-5.3996
X6.4173Y-4.1594
X6.4321Y-4.3219
X6.4478Y-4.9508
X6.5098Y-5.498
X6.5827Y-3.9783
X6.6476Y-4.5217
X6.6604Y-4.437
X6.6939Y-5.2549
X6.8169Y-5.6112
X6.9685Y-4.5669
X6.9882Y-4.9183
X6.9921Y-4.1191
X6.9951Y-3.9961
X7.0049Y-5.6594
X7.0217Y-5.3858
X7.0276Y-5.2215
X7.187Y-4.2756
X7.311Y-5.7146
X7.3258Y-4.8957
X7.3287Y-5.2559
X7.3533Y-3.9951
X7.377Y-4.1919
X7.4774Y-4.565
X7.4941Y-5.0758
X7.686Y-4.3642
X7.75Y-3.9961
X7.7756Y-5.7687
X7.7795Y-4.5453
X7.8691Y-4.7933
X7.874Y-4.6112
X8.0039Y-4.2657
X8.1535Y-4.8435
X8.1545Y-4.5157
X8.1663Y-4.3189
X8.2274Y-5.2392
X8.2884Y-5.7411
X8.3081Y-5.0846
X8.3622Y-4.5413
X8.3799Y-4.0404
X8.5748Y-4.7352
X8.5896Y-4.315
X8.6398Y-5.69
X8.6781Y-4.8986
X8.7264Y-5.1526
X8.7352Y-5.4252
X8.7726Y-4.0463
X8.7815Y-4.3563
X9.0187Y-5.2618
X9.0276Y-4.0433
X9.0433Y-5.5807
X9.1319Y-4.2756
X9.1388Y-5.1555
X9.1407Y-4.6191
X9.1644Y-4.4764
X9.2313Y-3.9803
X9.2362Y-5.1073
X9.2667Y-5.5118
X9.3051Y-4.4439
X9.4075Y-4.3445
X9.502Y-3.9843
X9.5276Y-5.3799
X9.623Y-5.0246
X9.6831Y-4.7608
X9.7205Y-3.9852
X9.7943Y-5.2175
X9.939Y-3.9813
X9.9459Y-4.7894
X9.9547Y-4.2766
X10.0089Y-5.0935
X10.0463Y-4.5118
X10.1093Y-3.9823
X10.2018Y-4.9577
X10.3081Y-4.1742
X10.311Y-4.3976
X10.3169Y-4.5856
X10.3189Y-3.9774
X10.3219Y-4.8701
T2
X6.6585Y-4.751
X6.6722Y-4.6447
X6.7087Y-4.8081
X6.7648Y-5.3179
X6.8967Y-4.6959
X7.0591Y-4.7825
X7.5295Y-4.6447
X7.6722Y-5.3415
X7.689Y-4.6959
X7.8504Y-5.4646
X8.1998Y-4.6703
X9.0856Y-4.9301
X9.1575Y-5.0276
X9.2234Y-4.7923
X9.2933Y-4.8917
T4
X7.5295Y-5.4134
X7.5295Y-5.5118
X9.1929Y-5.315
X9.1929Y-5.4134
T5
X9.1732Y-4.0945
X9.2717Y-4.0945
X9.3701Y-4.0945
T6
X5.7677Y-4.0935
X5.8661Y-4.0935
X6.885Y-4.9134
X6.885Y-5.0134
X6.885Y-5.1134
X6.885Y-5.2134
X6.885Y-5.3134
X6.885Y-5.4134
X6.9272Y-4.0935
X7.185Y-4.9134
X7.185Y-5.0134
X7.185Y-5.1134
X7.185Y-5.2134
X7.185Y-5.3134
X7.185Y-5.4134
X7.3602Y-4.0935
X7.674Y-4.0831
X7.674Y-4.1831
X7.774Y-4.0831
X7.774Y-4.1831
X7.874Y-4.0831
X7.874Y-4.1831
X7.974Y-4.0831
X7.974Y-4.1831
X8.074Y-4.0831
X8.074Y-4.1831
X8.563Y-4.9134
X8.563Y-5.0134
X8.563Y-5.1134
X8.563Y-5.2134
X8.563Y-5.3134
X8.563Y-5.4134
X8.863Y-4.9134
X8.863Y-5.0134
X8.863Y-5.1134
X8.863Y-5.2134
X8.863Y-5.3134
X8.863Y-5.4134
X9.6457Y-4.0945
X9.7441Y-4.0945
T7
X6.2961Y-4.4882
X6.3961Y-4.4882
X6.4961Y-4.4882
T8
X6.1565Y-4.0591
X6.1565Y-4.1929
X6.6868Y-4.0591
X6.6868Y-4.1929
T9
X7.0453Y-4.4872
X7.2421Y-4.4872
T10
X8.5551Y-4.5669
X8.8386Y-4.5669
T3
G00X8.4311Y-4.3091
M15
G01X8.4311Y-4.3524
M16
G05
G00X8.9626Y-4.3091
M15
G01X8.9626Y-4.3524
M16
G05
M30
