%TF.GenerationSoftware,KiCad,Pcbnew,8.0.5*%
%TF.CreationDate,2025-12-22T19:15:13+09:00*%
%TF.ProjectId,Sub_board_V1.0,5375625f-626f-4617-9264-5f56312e302e,rev?*%
%TF.SameCoordinates,Original*%
%TF.FileFunction,Legend,Bot*%
%TF.FilePolarity,Positive*%
%FSLAX46Y46*%
G04 Gerber Fmt 4.6, Leading zero omitted, Abs format (unit mm)*
G04 Created by KiCad (PCBNEW 8.0.5) date 2025-12-22 19:15:13*
%MOMM*%
%LPD*%
G01*
G04 APERTURE LIST*
G04 Aperture macros list*
%AMRoundRect*
0 Rectangle with rounded corners*
0 $1 Rounding radius*
0 $2 $3 $4 $5 $6 $7 $8 $9 X,Y pos of 4 corners*
0 Add a 4 corners polygon primitive as box body*
4,1,4,$2,$3,$4,$5,$6,$7,$8,$9,$2,$3,0*
0 Add four circle primitives for the rounded corners*
1,1,$1+$1,$2,$3*
1,1,$1+$1,$4,$5*
1,1,$1+$1,$6,$7*
1,1,$1+$1,$8,$9*
0 Add four rect primitives between the rounded corners*
20,1,$1+$1,$2,$3,$4,$5,0*
20,1,$1+$1,$4,$5,$6,$7,0*
20,1,$1+$1,$6,$7,$8,$9,0*
20,1,$1+$1,$8,$9,$2,$3,0*%
G04 Aperture macros list end*
%ADD10RoundRect,0.250000X0.600000X0.750000X-0.600000X0.750000X-0.600000X-0.750000X0.600000X-0.750000X0*%
%ADD11O,1.700000X2.000000*%
%ADD12R,1.700000X1.700000*%
%ADD13O,1.700000X1.700000*%
%ADD14RoundRect,0.250000X0.600000X-0.600000X0.600000X0.600000X-0.600000X0.600000X-0.600000X-0.600000X0*%
%ADD15C,1.700000*%
%ADD16C,1.905000*%
%ADD17C,1.600000*%
%ADD18RoundRect,0.250000X0.600000X0.725000X-0.600000X0.725000X-0.600000X-0.725000X0.600000X-0.725000X0*%
%ADD19O,1.700000X1.950000*%
%ADD20C,2.400000*%
%ADD21R,2.400000X2.400000*%
%ADD22C,1.400000*%
%ADD23R,3.500000X3.500000*%
%ADD24C,3.500000*%
%ADD25R,0.900000X2.000000*%
%ADD26RoundRect,1.025000X-1.025000X-1.025000X1.025000X-1.025000X1.025000X1.025000X-1.025000X1.025000X0*%
%ADD27C,4.100000*%
G04 APERTURE END LIST*
%LPC*%
D10*
%TO.C,J6*%
X149000000Y-103975000D03*
D11*
X146500000Y-103975000D03*
%TD*%
D12*
%TO.C,J4*%
X182500000Y-137500000D03*
D13*
X182500000Y-134960000D03*
X182500000Y-132420000D03*
X182500000Y-129880000D03*
X182500000Y-127340000D03*
X182500000Y-124800000D03*
%TD*%
D14*
%TO.C,J1*%
X194920000Y-106250000D03*
D15*
X194920000Y-103710000D03*
X197460000Y-106250000D03*
X197460000Y-103710000D03*
X200000000Y-106250000D03*
X200000000Y-103710000D03*
X202540000Y-106250000D03*
X202540000Y-103710000D03*
X205080000Y-106250000D03*
X205080000Y-103710000D03*
%TD*%
D12*
%TO.C,J9*%
X225120000Y-137500000D03*
D13*
X225120000Y-134960000D03*
X225120000Y-132420000D03*
X225120000Y-129880000D03*
X225120000Y-127340000D03*
X225120000Y-124800000D03*
%TD*%
D16*
%TO.C,SW1*%
X165000000Y-114000000D03*
X162460000Y-114000000D03*
X159920000Y-114000000D03*
%TD*%
D17*
%TO.C,C8*%
X233500000Y-137500000D03*
X233500000Y-135000000D03*
%TD*%
%TO.C,C2*%
X191250000Y-137500000D03*
X191250000Y-140000000D03*
%TD*%
D18*
%TO.C,J3*%
X238000000Y-104000000D03*
D19*
X235500000Y-104000000D03*
X233000000Y-104000000D03*
%TD*%
D20*
%TO.C,F1*%
X156375000Y-103100000D03*
D21*
X156375000Y-106500000D03*
D20*
X169845000Y-103100000D03*
X169845000Y-106500000D03*
%TD*%
D22*
%TO.C,J8*%
X175950000Y-103975000D03*
X186950000Y-103975000D03*
D23*
X183950000Y-113975000D03*
D24*
X178950000Y-113975000D03*
%TD*%
D25*
%TO.C,J2*%
X214150000Y-110000000D03*
X227650000Y-110000000D03*
D26*
X224500000Y-116000000D03*
D27*
X217300000Y-116000000D03*
%TD*%
D12*
%TO.C,J5*%
X174880000Y-137500000D03*
D13*
X174880000Y-134960000D03*
X174880000Y-132420000D03*
X174880000Y-129880000D03*
X174880000Y-127340000D03*
X174880000Y-124800000D03*
%TD*%
D12*
%TO.C,J10*%
X217500000Y-137500000D03*
D13*
X217500000Y-134960000D03*
X217500000Y-132420000D03*
X217500000Y-129880000D03*
X217500000Y-127340000D03*
X217500000Y-124800000D03*
%TD*%
D10*
%TO.C,J7*%
X247500000Y-104000000D03*
D11*
X245000000Y-104000000D03*
%TD*%
%LPD*%
M02*
