%TF.GenerationSoftware,KiCad,Pcbnew,8.0.5*%
%TF.CreationDate,2025-12-22T19:15:13+09:00*%
%TF.ProjectId,Sub_board_V1.0,5375625f-626f-4617-9264-5f56312e302e,rev?*%
%TF.SameCoordinates,Original*%
%TF.FileFunction,Legend,Top*%
%TF.FilePolarity,Positive*%
%FSLAX46Y46*%
G04 Gerber Fmt 4.6, Leading zero omitted, Abs format (unit mm)*
G04 Created by KiCad (PCBNEW 8.0.5) date 2025-12-22 19:15:13*
%MOMM*%
%LPD*%
G01*
G04 APERTURE LIST*
G04 Aperture macros list*
%AMRoundRect*
0 Rectangle with rounded corners*
0 $1 Rounding radius*
0 $2 $3 $4 $5 $6 $7 $8 $9 X,Y pos of 4 corners*
0 Add a 4 corners polygon primitive as box body*
4,1,4,$2,$3,$4,$5,$6,$7,$8,$9,$2,$3,0*
0 Add four circle primitives for the rounded corners*
1,1,$1+$1,$2,$3*
1,1,$1+$1,$4,$5*
1,1,$1+$1,$6,$7*
1,1,$1+$1,$8,$9*
0 Add four rect primitives between the rounded corners*
20,1,$1+$1,$2,$3,$4,$5,0*
20,1,$1+$1,$4,$5,$6,$7,0*
20,1,$1+$1,$6,$7,$8,$9,0*
20,1,$1+$1,$8,$9,$2,$3,0*%
G04 Aperture macros list end*
%ADD10C,0.100000*%
%ADD11C,0.150000*%
%ADD12C,0.254000*%
%ADD13C,0.200000*%
%ADD14C,0.120000*%
%ADD15C,0.000000*%
%ADD16R,2.000000X2.500000*%
%ADD17R,6.000000X6.000000*%
%ADD18RoundRect,0.225000X-0.225000X-0.250000X0.225000X-0.250000X0.225000X0.250000X-0.225000X0.250000X0*%
%ADD19RoundRect,0.250000X0.600000X0.750000X-0.600000X0.750000X-0.600000X-0.750000X0.600000X-0.750000X0*%
%ADD20O,1.700000X2.000000*%
%ADD21RoundRect,0.225000X0.250000X-0.225000X0.250000X0.225000X-0.250000X0.225000X-0.250000X-0.225000X0*%
%ADD22RoundRect,0.225000X0.225000X0.250000X-0.225000X0.250000X-0.225000X-0.250000X0.225000X-0.250000X0*%
%ADD23R,1.700000X1.700000*%
%ADD24O,1.700000X1.700000*%
%ADD25RoundRect,0.250000X0.600000X-0.600000X0.600000X0.600000X-0.600000X0.600000X-0.600000X-0.600000X0*%
%ADD26C,1.700000*%
%ADD27C,1.905000*%
%ADD28C,1.600000*%
%ADD29RoundRect,0.250000X0.600000X0.725000X-0.600000X0.725000X-0.600000X-0.725000X0.600000X-0.725000X0*%
%ADD30O,1.700000X1.950000*%
%ADD31C,2.400000*%
%ADD32R,2.400000X2.400000*%
%ADD33C,1.400000*%
%ADD34R,3.500000X3.500000*%
%ADD35C,3.500000*%
%ADD36R,0.900000X2.000000*%
%ADD37RoundRect,1.025000X-1.025000X-1.025000X1.025000X-1.025000X1.025000X1.025000X-1.025000X1.025000X0*%
%ADD38C,4.100000*%
G04 APERTURE END LIST*
D10*
X170097306Y-135554961D02*
X170192544Y-135602580D01*
X170192544Y-135602580D02*
X170335401Y-135602580D01*
X170335401Y-135602580D02*
X170478258Y-135554961D01*
X170478258Y-135554961D02*
X170573496Y-135459723D01*
X170573496Y-135459723D02*
X170621115Y-135364485D01*
X170621115Y-135364485D02*
X170668734Y-135174009D01*
X170668734Y-135174009D02*
X170668734Y-135031152D01*
X170668734Y-135031152D02*
X170621115Y-134840676D01*
X170621115Y-134840676D02*
X170573496Y-134745438D01*
X170573496Y-134745438D02*
X170478258Y-134650200D01*
X170478258Y-134650200D02*
X170335401Y-134602580D01*
X170335401Y-134602580D02*
X170240163Y-134602580D01*
X170240163Y-134602580D02*
X170097306Y-134650200D01*
X170097306Y-134650200D02*
X170049687Y-134697819D01*
X170049687Y-134697819D02*
X170049687Y-135031152D01*
X170049687Y-135031152D02*
X170240163Y-135031152D01*
X169621115Y-134602580D02*
X169621115Y-135602580D01*
X169621115Y-135602580D02*
X169049687Y-134602580D01*
X169049687Y-134602580D02*
X169049687Y-135602580D01*
X168573496Y-134602580D02*
X168573496Y-135602580D01*
X168573496Y-135602580D02*
X168335401Y-135602580D01*
X168335401Y-135602580D02*
X168192544Y-135554961D01*
X168192544Y-135554961D02*
X168097306Y-135459723D01*
X168097306Y-135459723D02*
X168049687Y-135364485D01*
X168049687Y-135364485D02*
X168002068Y-135174009D01*
X168002068Y-135174009D02*
X168002068Y-135031152D01*
X168002068Y-135031152D02*
X168049687Y-134840676D01*
X168049687Y-134840676D02*
X168097306Y-134745438D01*
X168097306Y-134745438D02*
X168192544Y-134650200D01*
X168192544Y-134650200D02*
X168335401Y-134602580D01*
X168335401Y-134602580D02*
X168573496Y-134602580D01*
X214672306Y-135429961D02*
X214767544Y-135477580D01*
X214767544Y-135477580D02*
X214910401Y-135477580D01*
X214910401Y-135477580D02*
X215053258Y-135429961D01*
X215053258Y-135429961D02*
X215148496Y-135334723D01*
X215148496Y-135334723D02*
X215196115Y-135239485D01*
X215196115Y-135239485D02*
X215243734Y-135049009D01*
X215243734Y-135049009D02*
X215243734Y-134906152D01*
X215243734Y-134906152D02*
X215196115Y-134715676D01*
X215196115Y-134715676D02*
X215148496Y-134620438D01*
X215148496Y-134620438D02*
X215053258Y-134525200D01*
X215053258Y-134525200D02*
X214910401Y-134477580D01*
X214910401Y-134477580D02*
X214815163Y-134477580D01*
X214815163Y-134477580D02*
X214672306Y-134525200D01*
X214672306Y-134525200D02*
X214624687Y-134572819D01*
X214624687Y-134572819D02*
X214624687Y-134906152D01*
X214624687Y-134906152D02*
X214815163Y-134906152D01*
X214196115Y-134477580D02*
X214196115Y-135477580D01*
X214196115Y-135477580D02*
X213624687Y-134477580D01*
X213624687Y-134477580D02*
X213624687Y-135477580D01*
X213148496Y-134477580D02*
X213148496Y-135477580D01*
X213148496Y-135477580D02*
X212910401Y-135477580D01*
X212910401Y-135477580D02*
X212767544Y-135429961D01*
X212767544Y-135429961D02*
X212672306Y-135334723D01*
X212672306Y-135334723D02*
X212624687Y-135239485D01*
X212624687Y-135239485D02*
X212577068Y-135049009D01*
X212577068Y-135049009D02*
X212577068Y-134906152D01*
X212577068Y-134906152D02*
X212624687Y-134715676D01*
X212624687Y-134715676D02*
X212672306Y-134620438D01*
X212672306Y-134620438D02*
X212767544Y-134525200D01*
X212767544Y-134525200D02*
X212910401Y-134477580D01*
X212910401Y-134477580D02*
X213148496Y-134477580D01*
D11*
X147416666Y-106979819D02*
X147416666Y-107694104D01*
X147416666Y-107694104D02*
X147369047Y-107836961D01*
X147369047Y-107836961D02*
X147273809Y-107932200D01*
X147273809Y-107932200D02*
X147130952Y-107979819D01*
X147130952Y-107979819D02*
X147035714Y-107979819D01*
X148321428Y-106979819D02*
X148130952Y-106979819D01*
X148130952Y-106979819D02*
X148035714Y-107027438D01*
X148035714Y-107027438D02*
X147988095Y-107075057D01*
X147988095Y-107075057D02*
X147892857Y-107217914D01*
X147892857Y-107217914D02*
X147845238Y-107408390D01*
X147845238Y-107408390D02*
X147845238Y-107789342D01*
X147845238Y-107789342D02*
X147892857Y-107884580D01*
X147892857Y-107884580D02*
X147940476Y-107932200D01*
X147940476Y-107932200D02*
X148035714Y-107979819D01*
X148035714Y-107979819D02*
X148226190Y-107979819D01*
X148226190Y-107979819D02*
X148321428Y-107932200D01*
X148321428Y-107932200D02*
X148369047Y-107884580D01*
X148369047Y-107884580D02*
X148416666Y-107789342D01*
X148416666Y-107789342D02*
X148416666Y-107551247D01*
X148416666Y-107551247D02*
X148369047Y-107456009D01*
X148369047Y-107456009D02*
X148321428Y-107408390D01*
X148321428Y-107408390D02*
X148226190Y-107360771D01*
X148226190Y-107360771D02*
X148035714Y-107360771D01*
X148035714Y-107360771D02*
X147940476Y-107408390D01*
X147940476Y-107408390D02*
X147892857Y-107456009D01*
X147892857Y-107456009D02*
X147845238Y-107551247D01*
X228408333Y-140884580D02*
X228360714Y-140932200D01*
X228360714Y-140932200D02*
X228217857Y-140979819D01*
X228217857Y-140979819D02*
X228122619Y-140979819D01*
X228122619Y-140979819D02*
X227979762Y-140932200D01*
X227979762Y-140932200D02*
X227884524Y-140836961D01*
X227884524Y-140836961D02*
X227836905Y-140741723D01*
X227836905Y-140741723D02*
X227789286Y-140551247D01*
X227789286Y-140551247D02*
X227789286Y-140408390D01*
X227789286Y-140408390D02*
X227836905Y-140217914D01*
X227836905Y-140217914D02*
X227884524Y-140122676D01*
X227884524Y-140122676D02*
X227979762Y-140027438D01*
X227979762Y-140027438D02*
X228122619Y-139979819D01*
X228122619Y-139979819D02*
X228217857Y-139979819D01*
X228217857Y-139979819D02*
X228360714Y-140027438D01*
X228360714Y-140027438D02*
X228408333Y-140075057D01*
X228741667Y-139979819D02*
X229408333Y-139979819D01*
X229408333Y-139979819D02*
X228979762Y-140979819D01*
X147563333Y-111789580D02*
X147515714Y-111837200D01*
X147515714Y-111837200D02*
X147372857Y-111884819D01*
X147372857Y-111884819D02*
X147277619Y-111884819D01*
X147277619Y-111884819D02*
X147134762Y-111837200D01*
X147134762Y-111837200D02*
X147039524Y-111741961D01*
X147039524Y-111741961D02*
X146991905Y-111646723D01*
X146991905Y-111646723D02*
X146944286Y-111456247D01*
X146944286Y-111456247D02*
X146944286Y-111313390D01*
X146944286Y-111313390D02*
X146991905Y-111122914D01*
X146991905Y-111122914D02*
X147039524Y-111027676D01*
X147039524Y-111027676D02*
X147134762Y-110932438D01*
X147134762Y-110932438D02*
X147277619Y-110884819D01*
X147277619Y-110884819D02*
X147372857Y-110884819D01*
X147372857Y-110884819D02*
X147515714Y-110932438D01*
X147515714Y-110932438D02*
X147563333Y-110980057D01*
X148468095Y-110884819D02*
X147991905Y-110884819D01*
X147991905Y-110884819D02*
X147944286Y-111361009D01*
X147944286Y-111361009D02*
X147991905Y-111313390D01*
X147991905Y-111313390D02*
X148087143Y-111265771D01*
X148087143Y-111265771D02*
X148325238Y-111265771D01*
X148325238Y-111265771D02*
X148420476Y-111313390D01*
X148420476Y-111313390D02*
X148468095Y-111361009D01*
X148468095Y-111361009D02*
X148515714Y-111456247D01*
X148515714Y-111456247D02*
X148515714Y-111694342D01*
X148515714Y-111694342D02*
X148468095Y-111789580D01*
X148468095Y-111789580D02*
X148420476Y-111837200D01*
X148420476Y-111837200D02*
X148325238Y-111884819D01*
X148325238Y-111884819D02*
X148087143Y-111884819D01*
X148087143Y-111884819D02*
X147991905Y-111837200D01*
X147991905Y-111837200D02*
X147944286Y-111789580D01*
X182166666Y-139724819D02*
X182166666Y-140439104D01*
X182166666Y-140439104D02*
X182119047Y-140581961D01*
X182119047Y-140581961D02*
X182023809Y-140677200D01*
X182023809Y-140677200D02*
X181880952Y-140724819D01*
X181880952Y-140724819D02*
X181785714Y-140724819D01*
X183071428Y-140058152D02*
X183071428Y-140724819D01*
X182833333Y-139677200D02*
X182595238Y-140391485D01*
X182595238Y-140391485D02*
X183214285Y-140391485D01*
X199666666Y-109704819D02*
X199666666Y-110419104D01*
X199666666Y-110419104D02*
X199619047Y-110561961D01*
X199619047Y-110561961D02*
X199523809Y-110657200D01*
X199523809Y-110657200D02*
X199380952Y-110704819D01*
X199380952Y-110704819D02*
X199285714Y-110704819D01*
X200666666Y-110704819D02*
X200095238Y-110704819D01*
X200380952Y-110704819D02*
X200380952Y-109704819D01*
X200380952Y-109704819D02*
X200285714Y-109847676D01*
X200285714Y-109847676D02*
X200190476Y-109942914D01*
X200190476Y-109942914D02*
X200095238Y-109990533D01*
X167833333Y-140884580D02*
X167785714Y-140932200D01*
X167785714Y-140932200D02*
X167642857Y-140979819D01*
X167642857Y-140979819D02*
X167547619Y-140979819D01*
X167547619Y-140979819D02*
X167404762Y-140932200D01*
X167404762Y-140932200D02*
X167309524Y-140836961D01*
X167309524Y-140836961D02*
X167261905Y-140741723D01*
X167261905Y-140741723D02*
X167214286Y-140551247D01*
X167214286Y-140551247D02*
X167214286Y-140408390D01*
X167214286Y-140408390D02*
X167261905Y-140217914D01*
X167261905Y-140217914D02*
X167309524Y-140122676D01*
X167309524Y-140122676D02*
X167404762Y-140027438D01*
X167404762Y-140027438D02*
X167547619Y-139979819D01*
X167547619Y-139979819D02*
X167642857Y-139979819D01*
X167642857Y-139979819D02*
X167785714Y-140027438D01*
X167785714Y-140027438D02*
X167833333Y-140075057D01*
X168166667Y-139979819D02*
X168785714Y-139979819D01*
X168785714Y-139979819D02*
X168452381Y-140360771D01*
X168452381Y-140360771D02*
X168595238Y-140360771D01*
X168595238Y-140360771D02*
X168690476Y-140408390D01*
X168690476Y-140408390D02*
X168738095Y-140456009D01*
X168738095Y-140456009D02*
X168785714Y-140551247D01*
X168785714Y-140551247D02*
X168785714Y-140789342D01*
X168785714Y-140789342D02*
X168738095Y-140884580D01*
X168738095Y-140884580D02*
X168690476Y-140932200D01*
X168690476Y-140932200D02*
X168595238Y-140979819D01*
X168595238Y-140979819D02*
X168309524Y-140979819D01*
X168309524Y-140979819D02*
X168214286Y-140932200D01*
X168214286Y-140932200D02*
X168166667Y-140884580D01*
X224786666Y-139724819D02*
X224786666Y-140439104D01*
X224786666Y-140439104D02*
X224739047Y-140581961D01*
X224739047Y-140581961D02*
X224643809Y-140677200D01*
X224643809Y-140677200D02*
X224500952Y-140724819D01*
X224500952Y-140724819D02*
X224405714Y-140724819D01*
X225310476Y-140724819D02*
X225500952Y-140724819D01*
X225500952Y-140724819D02*
X225596190Y-140677200D01*
X225596190Y-140677200D02*
X225643809Y-140629580D01*
X225643809Y-140629580D02*
X225739047Y-140486723D01*
X225739047Y-140486723D02*
X225786666Y-140296247D01*
X225786666Y-140296247D02*
X225786666Y-139915295D01*
X225786666Y-139915295D02*
X225739047Y-139820057D01*
X225739047Y-139820057D02*
X225691428Y-139772438D01*
X225691428Y-139772438D02*
X225596190Y-139724819D01*
X225596190Y-139724819D02*
X225405714Y-139724819D01*
X225405714Y-139724819D02*
X225310476Y-139772438D01*
X225310476Y-139772438D02*
X225262857Y-139820057D01*
X225262857Y-139820057D02*
X225215238Y-139915295D01*
X225215238Y-139915295D02*
X225215238Y-140153390D01*
X225215238Y-140153390D02*
X225262857Y-140248628D01*
X225262857Y-140248628D02*
X225310476Y-140296247D01*
X225310476Y-140296247D02*
X225405714Y-140343866D01*
X225405714Y-140343866D02*
X225596190Y-140343866D01*
X225596190Y-140343866D02*
X225691428Y-140296247D01*
X225691428Y-140296247D02*
X225739047Y-140248628D01*
X225739047Y-140248628D02*
X225786666Y-140153390D01*
X233333333Y-132609580D02*
X233285714Y-132657200D01*
X233285714Y-132657200D02*
X233142857Y-132704819D01*
X233142857Y-132704819D02*
X233047619Y-132704819D01*
X233047619Y-132704819D02*
X232904762Y-132657200D01*
X232904762Y-132657200D02*
X232809524Y-132561961D01*
X232809524Y-132561961D02*
X232761905Y-132466723D01*
X232761905Y-132466723D02*
X232714286Y-132276247D01*
X232714286Y-132276247D02*
X232714286Y-132133390D01*
X232714286Y-132133390D02*
X232761905Y-131942914D01*
X232761905Y-131942914D02*
X232809524Y-131847676D01*
X232809524Y-131847676D02*
X232904762Y-131752438D01*
X232904762Y-131752438D02*
X233047619Y-131704819D01*
X233047619Y-131704819D02*
X233142857Y-131704819D01*
X233142857Y-131704819D02*
X233285714Y-131752438D01*
X233285714Y-131752438D02*
X233333333Y-131800057D01*
X233904762Y-132133390D02*
X233809524Y-132085771D01*
X233809524Y-132085771D02*
X233761905Y-132038152D01*
X233761905Y-132038152D02*
X233714286Y-131942914D01*
X233714286Y-131942914D02*
X233714286Y-131895295D01*
X233714286Y-131895295D02*
X233761905Y-131800057D01*
X233761905Y-131800057D02*
X233809524Y-131752438D01*
X233809524Y-131752438D02*
X233904762Y-131704819D01*
X233904762Y-131704819D02*
X234095238Y-131704819D01*
X234095238Y-131704819D02*
X234190476Y-131752438D01*
X234190476Y-131752438D02*
X234238095Y-131800057D01*
X234238095Y-131800057D02*
X234285714Y-131895295D01*
X234285714Y-131895295D02*
X234285714Y-131942914D01*
X234285714Y-131942914D02*
X234238095Y-132038152D01*
X234238095Y-132038152D02*
X234190476Y-132085771D01*
X234190476Y-132085771D02*
X234095238Y-132133390D01*
X234095238Y-132133390D02*
X233904762Y-132133390D01*
X233904762Y-132133390D02*
X233809524Y-132181009D01*
X233809524Y-132181009D02*
X233761905Y-132228628D01*
X233761905Y-132228628D02*
X233714286Y-132323866D01*
X233714286Y-132323866D02*
X233714286Y-132514342D01*
X233714286Y-132514342D02*
X233761905Y-132609580D01*
X233761905Y-132609580D02*
X233809524Y-132657200D01*
X233809524Y-132657200D02*
X233904762Y-132704819D01*
X233904762Y-132704819D02*
X234095238Y-132704819D01*
X234095238Y-132704819D02*
X234190476Y-132657200D01*
X234190476Y-132657200D02*
X234238095Y-132609580D01*
X234238095Y-132609580D02*
X234285714Y-132514342D01*
X234285714Y-132514342D02*
X234285714Y-132323866D01*
X234285714Y-132323866D02*
X234238095Y-132228628D01*
X234238095Y-132228628D02*
X234190476Y-132181009D01*
X234190476Y-132181009D02*
X234095238Y-132133390D01*
X186083333Y-140884580D02*
X186035714Y-140932200D01*
X186035714Y-140932200D02*
X185892857Y-140979819D01*
X185892857Y-140979819D02*
X185797619Y-140979819D01*
X185797619Y-140979819D02*
X185654762Y-140932200D01*
X185654762Y-140932200D02*
X185559524Y-140836961D01*
X185559524Y-140836961D02*
X185511905Y-140741723D01*
X185511905Y-140741723D02*
X185464286Y-140551247D01*
X185464286Y-140551247D02*
X185464286Y-140408390D01*
X185464286Y-140408390D02*
X185511905Y-140217914D01*
X185511905Y-140217914D02*
X185559524Y-140122676D01*
X185559524Y-140122676D02*
X185654762Y-140027438D01*
X185654762Y-140027438D02*
X185797619Y-139979819D01*
X185797619Y-139979819D02*
X185892857Y-139979819D01*
X185892857Y-139979819D02*
X186035714Y-140027438D01*
X186035714Y-140027438D02*
X186083333Y-140075057D01*
X187035714Y-140979819D02*
X186464286Y-140979819D01*
X186750000Y-140979819D02*
X186750000Y-139979819D01*
X186750000Y-139979819D02*
X186654762Y-140122676D01*
X186654762Y-140122676D02*
X186559524Y-140217914D01*
X186559524Y-140217914D02*
X186464286Y-140265533D01*
X246063333Y-111789580D02*
X246015714Y-111837200D01*
X246015714Y-111837200D02*
X245872857Y-111884819D01*
X245872857Y-111884819D02*
X245777619Y-111884819D01*
X245777619Y-111884819D02*
X245634762Y-111837200D01*
X245634762Y-111837200D02*
X245539524Y-111741961D01*
X245539524Y-111741961D02*
X245491905Y-111646723D01*
X245491905Y-111646723D02*
X245444286Y-111456247D01*
X245444286Y-111456247D02*
X245444286Y-111313390D01*
X245444286Y-111313390D02*
X245491905Y-111122914D01*
X245491905Y-111122914D02*
X245539524Y-111027676D01*
X245539524Y-111027676D02*
X245634762Y-110932438D01*
X245634762Y-110932438D02*
X245777619Y-110884819D01*
X245777619Y-110884819D02*
X245872857Y-110884819D01*
X245872857Y-110884819D02*
X246015714Y-110932438D01*
X246015714Y-110932438D02*
X246063333Y-110980057D01*
X246920476Y-110884819D02*
X246730000Y-110884819D01*
X246730000Y-110884819D02*
X246634762Y-110932438D01*
X246634762Y-110932438D02*
X246587143Y-110980057D01*
X246587143Y-110980057D02*
X246491905Y-111122914D01*
X246491905Y-111122914D02*
X246444286Y-111313390D01*
X246444286Y-111313390D02*
X246444286Y-111694342D01*
X246444286Y-111694342D02*
X246491905Y-111789580D01*
X246491905Y-111789580D02*
X246539524Y-111837200D01*
X246539524Y-111837200D02*
X246634762Y-111884819D01*
X246634762Y-111884819D02*
X246825238Y-111884819D01*
X246825238Y-111884819D02*
X246920476Y-111837200D01*
X246920476Y-111837200D02*
X246968095Y-111789580D01*
X246968095Y-111789580D02*
X247015714Y-111694342D01*
X247015714Y-111694342D02*
X247015714Y-111456247D01*
X247015714Y-111456247D02*
X246968095Y-111361009D01*
X246968095Y-111361009D02*
X246920476Y-111313390D01*
X246920476Y-111313390D02*
X246825238Y-111265771D01*
X246825238Y-111265771D02*
X246634762Y-111265771D01*
X246634762Y-111265771D02*
X246539524Y-111313390D01*
X246539524Y-111313390D02*
X246491905Y-111361009D01*
X246491905Y-111361009D02*
X246444286Y-111456247D01*
X171083333Y-140884580D02*
X171035714Y-140932200D01*
X171035714Y-140932200D02*
X170892857Y-140979819D01*
X170892857Y-140979819D02*
X170797619Y-140979819D01*
X170797619Y-140979819D02*
X170654762Y-140932200D01*
X170654762Y-140932200D02*
X170559524Y-140836961D01*
X170559524Y-140836961D02*
X170511905Y-140741723D01*
X170511905Y-140741723D02*
X170464286Y-140551247D01*
X170464286Y-140551247D02*
X170464286Y-140408390D01*
X170464286Y-140408390D02*
X170511905Y-140217914D01*
X170511905Y-140217914D02*
X170559524Y-140122676D01*
X170559524Y-140122676D02*
X170654762Y-140027438D01*
X170654762Y-140027438D02*
X170797619Y-139979819D01*
X170797619Y-139979819D02*
X170892857Y-139979819D01*
X170892857Y-139979819D02*
X171035714Y-140027438D01*
X171035714Y-140027438D02*
X171083333Y-140075057D01*
X171940476Y-140313152D02*
X171940476Y-140979819D01*
X171702381Y-139932200D02*
X171464286Y-140646485D01*
X171464286Y-140646485D02*
X172083333Y-140646485D01*
X191083333Y-143609580D02*
X191035714Y-143657200D01*
X191035714Y-143657200D02*
X190892857Y-143704819D01*
X190892857Y-143704819D02*
X190797619Y-143704819D01*
X190797619Y-143704819D02*
X190654762Y-143657200D01*
X190654762Y-143657200D02*
X190559524Y-143561961D01*
X190559524Y-143561961D02*
X190511905Y-143466723D01*
X190511905Y-143466723D02*
X190464286Y-143276247D01*
X190464286Y-143276247D02*
X190464286Y-143133390D01*
X190464286Y-143133390D02*
X190511905Y-142942914D01*
X190511905Y-142942914D02*
X190559524Y-142847676D01*
X190559524Y-142847676D02*
X190654762Y-142752438D01*
X190654762Y-142752438D02*
X190797619Y-142704819D01*
X190797619Y-142704819D02*
X190892857Y-142704819D01*
X190892857Y-142704819D02*
X191035714Y-142752438D01*
X191035714Y-142752438D02*
X191083333Y-142800057D01*
X191464286Y-142800057D02*
X191511905Y-142752438D01*
X191511905Y-142752438D02*
X191607143Y-142704819D01*
X191607143Y-142704819D02*
X191845238Y-142704819D01*
X191845238Y-142704819D02*
X191940476Y-142752438D01*
X191940476Y-142752438D02*
X191988095Y-142800057D01*
X191988095Y-142800057D02*
X192035714Y-142895295D01*
X192035714Y-142895295D02*
X192035714Y-142990533D01*
X192035714Y-142990533D02*
X191988095Y-143133390D01*
X191988095Y-143133390D02*
X191416667Y-143704819D01*
X191416667Y-143704819D02*
X192035714Y-143704819D01*
X235166666Y-107004819D02*
X235166666Y-107719104D01*
X235166666Y-107719104D02*
X235119047Y-107861961D01*
X235119047Y-107861961D02*
X235023809Y-107957200D01*
X235023809Y-107957200D02*
X234880952Y-108004819D01*
X234880952Y-108004819D02*
X234785714Y-108004819D01*
X235547619Y-107004819D02*
X236166666Y-107004819D01*
X236166666Y-107004819D02*
X235833333Y-107385771D01*
X235833333Y-107385771D02*
X235976190Y-107385771D01*
X235976190Y-107385771D02*
X236071428Y-107433390D01*
X236071428Y-107433390D02*
X236119047Y-107481009D01*
X236119047Y-107481009D02*
X236166666Y-107576247D01*
X236166666Y-107576247D02*
X236166666Y-107814342D01*
X236166666Y-107814342D02*
X236119047Y-107909580D01*
X236119047Y-107909580D02*
X236071428Y-107957200D01*
X236071428Y-107957200D02*
X235976190Y-108004819D01*
X235976190Y-108004819D02*
X235690476Y-108004819D01*
X235690476Y-108004819D02*
X235595238Y-107957200D01*
X235595238Y-107957200D02*
X235547619Y-107909580D01*
D12*
X162686667Y-104726080D02*
X162263333Y-104726080D01*
X162263333Y-105391318D02*
X162263333Y-104121318D01*
X162263333Y-104121318D02*
X162868095Y-104121318D01*
X164017143Y-105391318D02*
X163291428Y-105391318D01*
X163654285Y-105391318D02*
X163654285Y-104121318D01*
X163654285Y-104121318D02*
X163533333Y-104302746D01*
X163533333Y-104302746D02*
X163412381Y-104423699D01*
X163412381Y-104423699D02*
X163291428Y-104484175D01*
D11*
X181116666Y-116429819D02*
X181116666Y-117144104D01*
X181116666Y-117144104D02*
X181069047Y-117286961D01*
X181069047Y-117286961D02*
X180973809Y-117382200D01*
X180973809Y-117382200D02*
X180830952Y-117429819D01*
X180830952Y-117429819D02*
X180735714Y-117429819D01*
X181735714Y-116858390D02*
X181640476Y-116810771D01*
X181640476Y-116810771D02*
X181592857Y-116763152D01*
X181592857Y-116763152D02*
X181545238Y-116667914D01*
X181545238Y-116667914D02*
X181545238Y-116620295D01*
X181545238Y-116620295D02*
X181592857Y-116525057D01*
X181592857Y-116525057D02*
X181640476Y-116477438D01*
X181640476Y-116477438D02*
X181735714Y-116429819D01*
X181735714Y-116429819D02*
X181926190Y-116429819D01*
X181926190Y-116429819D02*
X182021428Y-116477438D01*
X182021428Y-116477438D02*
X182069047Y-116525057D01*
X182069047Y-116525057D02*
X182116666Y-116620295D01*
X182116666Y-116620295D02*
X182116666Y-116667914D01*
X182116666Y-116667914D02*
X182069047Y-116763152D01*
X182069047Y-116763152D02*
X182021428Y-116810771D01*
X182021428Y-116810771D02*
X181926190Y-116858390D01*
X181926190Y-116858390D02*
X181735714Y-116858390D01*
X181735714Y-116858390D02*
X181640476Y-116906009D01*
X181640476Y-116906009D02*
X181592857Y-116953628D01*
X181592857Y-116953628D02*
X181545238Y-117048866D01*
X181545238Y-117048866D02*
X181545238Y-117239342D01*
X181545238Y-117239342D02*
X181592857Y-117334580D01*
X181592857Y-117334580D02*
X181640476Y-117382200D01*
X181640476Y-117382200D02*
X181735714Y-117429819D01*
X181735714Y-117429819D02*
X181926190Y-117429819D01*
X181926190Y-117429819D02*
X182021428Y-117382200D01*
X182021428Y-117382200D02*
X182069047Y-117334580D01*
X182069047Y-117334580D02*
X182116666Y-117239342D01*
X182116666Y-117239342D02*
X182116666Y-117048866D01*
X182116666Y-117048866D02*
X182069047Y-116953628D01*
X182069047Y-116953628D02*
X182021428Y-116906009D01*
X182021428Y-116906009D02*
X181926190Y-116858390D01*
X175378571Y-114089700D02*
X176521429Y-114089700D01*
X175950000Y-114661128D02*
X175950000Y-113518271D01*
X186378571Y-114089700D02*
X187521429Y-114089700D01*
X220566666Y-118454819D02*
X220566666Y-119169104D01*
X220566666Y-119169104D02*
X220519047Y-119311961D01*
X220519047Y-119311961D02*
X220423809Y-119407200D01*
X220423809Y-119407200D02*
X220280952Y-119454819D01*
X220280952Y-119454819D02*
X220185714Y-119454819D01*
X220995238Y-118550057D02*
X221042857Y-118502438D01*
X221042857Y-118502438D02*
X221138095Y-118454819D01*
X221138095Y-118454819D02*
X221376190Y-118454819D01*
X221376190Y-118454819D02*
X221471428Y-118502438D01*
X221471428Y-118502438D02*
X221519047Y-118550057D01*
X221519047Y-118550057D02*
X221566666Y-118645295D01*
X221566666Y-118645295D02*
X221566666Y-118740533D01*
X221566666Y-118740533D02*
X221519047Y-118883390D01*
X221519047Y-118883390D02*
X220947619Y-119454819D01*
X220947619Y-119454819D02*
X221566666Y-119454819D01*
X214428571Y-118614700D02*
X215571429Y-118614700D01*
X215000000Y-119186128D02*
X215000000Y-118043271D01*
X226919048Y-118573866D02*
X227680953Y-118573866D01*
X213703333Y-140884580D02*
X213655714Y-140932200D01*
X213655714Y-140932200D02*
X213512857Y-140979819D01*
X213512857Y-140979819D02*
X213417619Y-140979819D01*
X213417619Y-140979819D02*
X213274762Y-140932200D01*
X213274762Y-140932200D02*
X213179524Y-140836961D01*
X213179524Y-140836961D02*
X213131905Y-140741723D01*
X213131905Y-140741723D02*
X213084286Y-140551247D01*
X213084286Y-140551247D02*
X213084286Y-140408390D01*
X213084286Y-140408390D02*
X213131905Y-140217914D01*
X213131905Y-140217914D02*
X213179524Y-140122676D01*
X213179524Y-140122676D02*
X213274762Y-140027438D01*
X213274762Y-140027438D02*
X213417619Y-139979819D01*
X213417619Y-139979819D02*
X213512857Y-139979819D01*
X213512857Y-139979819D02*
X213655714Y-140027438D01*
X213655714Y-140027438D02*
X213703333Y-140075057D01*
X214179524Y-140979819D02*
X214370000Y-140979819D01*
X214370000Y-140979819D02*
X214465238Y-140932200D01*
X214465238Y-140932200D02*
X214512857Y-140884580D01*
X214512857Y-140884580D02*
X214608095Y-140741723D01*
X214608095Y-140741723D02*
X214655714Y-140551247D01*
X214655714Y-140551247D02*
X214655714Y-140170295D01*
X214655714Y-140170295D02*
X214608095Y-140075057D01*
X214608095Y-140075057D02*
X214560476Y-140027438D01*
X214560476Y-140027438D02*
X214465238Y-139979819D01*
X214465238Y-139979819D02*
X214274762Y-139979819D01*
X214274762Y-139979819D02*
X214179524Y-140027438D01*
X214179524Y-140027438D02*
X214131905Y-140075057D01*
X214131905Y-140075057D02*
X214084286Y-140170295D01*
X214084286Y-140170295D02*
X214084286Y-140408390D01*
X214084286Y-140408390D02*
X214131905Y-140503628D01*
X214131905Y-140503628D02*
X214179524Y-140551247D01*
X214179524Y-140551247D02*
X214274762Y-140598866D01*
X214274762Y-140598866D02*
X214465238Y-140598866D01*
X214465238Y-140598866D02*
X214560476Y-140551247D01*
X214560476Y-140551247D02*
X214608095Y-140503628D01*
X214608095Y-140503628D02*
X214655714Y-140408390D01*
X174546666Y-139724819D02*
X174546666Y-140439104D01*
X174546666Y-140439104D02*
X174499047Y-140581961D01*
X174499047Y-140581961D02*
X174403809Y-140677200D01*
X174403809Y-140677200D02*
X174260952Y-140724819D01*
X174260952Y-140724819D02*
X174165714Y-140724819D01*
X175499047Y-139724819D02*
X175022857Y-139724819D01*
X175022857Y-139724819D02*
X174975238Y-140201009D01*
X174975238Y-140201009D02*
X175022857Y-140153390D01*
X175022857Y-140153390D02*
X175118095Y-140105771D01*
X175118095Y-140105771D02*
X175356190Y-140105771D01*
X175356190Y-140105771D02*
X175451428Y-140153390D01*
X175451428Y-140153390D02*
X175499047Y-140201009D01*
X175499047Y-140201009D02*
X175546666Y-140296247D01*
X175546666Y-140296247D02*
X175546666Y-140534342D01*
X175546666Y-140534342D02*
X175499047Y-140629580D01*
X175499047Y-140629580D02*
X175451428Y-140677200D01*
X175451428Y-140677200D02*
X175356190Y-140724819D01*
X175356190Y-140724819D02*
X175118095Y-140724819D01*
X175118095Y-140724819D02*
X175022857Y-140677200D01*
X175022857Y-140677200D02*
X174975238Y-140629580D01*
X216690476Y-139724819D02*
X216690476Y-140439104D01*
X216690476Y-140439104D02*
X216642857Y-140581961D01*
X216642857Y-140581961D02*
X216547619Y-140677200D01*
X216547619Y-140677200D02*
X216404762Y-140724819D01*
X216404762Y-140724819D02*
X216309524Y-140724819D01*
X217690476Y-140724819D02*
X217119048Y-140724819D01*
X217404762Y-140724819D02*
X217404762Y-139724819D01*
X217404762Y-139724819D02*
X217309524Y-139867676D01*
X217309524Y-139867676D02*
X217214286Y-139962914D01*
X217214286Y-139962914D02*
X217119048Y-140010533D01*
X218309524Y-139724819D02*
X218404762Y-139724819D01*
X218404762Y-139724819D02*
X218500000Y-139772438D01*
X218500000Y-139772438D02*
X218547619Y-139820057D01*
X218547619Y-139820057D02*
X218595238Y-139915295D01*
X218595238Y-139915295D02*
X218642857Y-140105771D01*
X218642857Y-140105771D02*
X218642857Y-140343866D01*
X218642857Y-140343866D02*
X218595238Y-140534342D01*
X218595238Y-140534342D02*
X218547619Y-140629580D01*
X218547619Y-140629580D02*
X218500000Y-140677200D01*
X218500000Y-140677200D02*
X218404762Y-140724819D01*
X218404762Y-140724819D02*
X218309524Y-140724819D01*
X218309524Y-140724819D02*
X218214286Y-140677200D01*
X218214286Y-140677200D02*
X218166667Y-140629580D01*
X218166667Y-140629580D02*
X218119048Y-140534342D01*
X218119048Y-140534342D02*
X218071429Y-140343866D01*
X218071429Y-140343866D02*
X218071429Y-140105771D01*
X218071429Y-140105771D02*
X218119048Y-139915295D01*
X218119048Y-139915295D02*
X218166667Y-139820057D01*
X218166667Y-139820057D02*
X218214286Y-139772438D01*
X218214286Y-139772438D02*
X218309524Y-139724819D01*
X209977142Y-140884580D02*
X209929523Y-140932200D01*
X209929523Y-140932200D02*
X209786666Y-140979819D01*
X209786666Y-140979819D02*
X209691428Y-140979819D01*
X209691428Y-140979819D02*
X209548571Y-140932200D01*
X209548571Y-140932200D02*
X209453333Y-140836961D01*
X209453333Y-140836961D02*
X209405714Y-140741723D01*
X209405714Y-140741723D02*
X209358095Y-140551247D01*
X209358095Y-140551247D02*
X209358095Y-140408390D01*
X209358095Y-140408390D02*
X209405714Y-140217914D01*
X209405714Y-140217914D02*
X209453333Y-140122676D01*
X209453333Y-140122676D02*
X209548571Y-140027438D01*
X209548571Y-140027438D02*
X209691428Y-139979819D01*
X209691428Y-139979819D02*
X209786666Y-139979819D01*
X209786666Y-139979819D02*
X209929523Y-140027438D01*
X209929523Y-140027438D02*
X209977142Y-140075057D01*
X210929523Y-140979819D02*
X210358095Y-140979819D01*
X210643809Y-140979819D02*
X210643809Y-139979819D01*
X210643809Y-139979819D02*
X210548571Y-140122676D01*
X210548571Y-140122676D02*
X210453333Y-140217914D01*
X210453333Y-140217914D02*
X210358095Y-140265533D01*
X211548571Y-139979819D02*
X211643809Y-139979819D01*
X211643809Y-139979819D02*
X211739047Y-140027438D01*
X211739047Y-140027438D02*
X211786666Y-140075057D01*
X211786666Y-140075057D02*
X211834285Y-140170295D01*
X211834285Y-140170295D02*
X211881904Y-140360771D01*
X211881904Y-140360771D02*
X211881904Y-140598866D01*
X211881904Y-140598866D02*
X211834285Y-140789342D01*
X211834285Y-140789342D02*
X211786666Y-140884580D01*
X211786666Y-140884580D02*
X211739047Y-140932200D01*
X211739047Y-140932200D02*
X211643809Y-140979819D01*
X211643809Y-140979819D02*
X211548571Y-140979819D01*
X211548571Y-140979819D02*
X211453333Y-140932200D01*
X211453333Y-140932200D02*
X211405714Y-140884580D01*
X211405714Y-140884580D02*
X211358095Y-140789342D01*
X211358095Y-140789342D02*
X211310476Y-140598866D01*
X211310476Y-140598866D02*
X211310476Y-140360771D01*
X211310476Y-140360771D02*
X211358095Y-140170295D01*
X211358095Y-140170295D02*
X211405714Y-140075057D01*
X211405714Y-140075057D02*
X211453333Y-140027438D01*
X211453333Y-140027438D02*
X211548571Y-139979819D01*
X245916666Y-107004819D02*
X245916666Y-107719104D01*
X245916666Y-107719104D02*
X245869047Y-107861961D01*
X245869047Y-107861961D02*
X245773809Y-107957200D01*
X245773809Y-107957200D02*
X245630952Y-108004819D01*
X245630952Y-108004819D02*
X245535714Y-108004819D01*
X246297619Y-107004819D02*
X246964285Y-107004819D01*
X246964285Y-107004819D02*
X246535714Y-108004819D01*
D13*
%TO.C,IC1*%
X196730000Y-128320000D02*
X196730000Y-129105000D01*
D10*
X202300000Y-124605000D02*
X202300000Y-124605000D01*
X202300000Y-124705000D02*
X202300000Y-124705000D01*
D13*
X203270000Y-128320000D02*
X196730000Y-128320000D01*
X203270000Y-129105000D02*
X203270000Y-128320000D01*
D10*
X202300000Y-124605000D02*
G75*
G02*
X202300000Y-124705000I0J-50000D01*
G01*
X202300000Y-124705000D02*
G75*
G02*
X202300000Y-124605000I0J50000D01*
G01*
D14*
%TO.C,C11*%
X202934420Y-120740000D02*
X203215580Y-120740000D01*
X202934420Y-121760000D02*
X203215580Y-121760000D01*
%TO.C,J6*%
X143940000Y-100465000D02*
X143940000Y-106435000D01*
X143940000Y-106435000D02*
X151560000Y-106435000D01*
X143950000Y-104175000D02*
X144700000Y-104175000D01*
X143950000Y-105675000D02*
X143950000Y-106425000D01*
X143950000Y-106425000D02*
X145750000Y-106425000D01*
X144700000Y-101225000D02*
X147750000Y-101225000D01*
X144700000Y-104175000D02*
X144700000Y-101225000D01*
X145750000Y-105675000D02*
X143950000Y-105675000D01*
X145750000Y-106425000D02*
X145750000Y-105675000D01*
X147250000Y-105675000D02*
X147250000Y-106425000D01*
X147250000Y-106425000D02*
X148250000Y-106425000D01*
X148250000Y-105675000D02*
X147250000Y-105675000D01*
X148250000Y-106425000D02*
X148250000Y-105675000D01*
X149750000Y-105675000D02*
X149750000Y-106425000D01*
X149750000Y-106425000D02*
X151550000Y-106425000D01*
X150600000Y-106725000D02*
X151850000Y-106725000D01*
X150800000Y-101225000D02*
X147750000Y-101225000D01*
X150800000Y-104175000D02*
X150800000Y-101225000D01*
X151550000Y-104175000D02*
X150800000Y-104175000D01*
X151550000Y-105675000D02*
X149750000Y-105675000D01*
X151550000Y-106425000D02*
X151550000Y-105675000D01*
X151560000Y-100465000D02*
X143940000Y-100465000D01*
X151560000Y-106435000D02*
X151560000Y-100465000D01*
X151850000Y-106725000D02*
X151850000Y-105475000D01*
%TO.C,C7*%
X228065000Y-138415580D02*
X228065000Y-138134420D01*
X229085000Y-138415580D02*
X229085000Y-138134420D01*
D15*
%TO.C,G\u002A\u002A\u002A*%
G36*
X260686734Y-109927237D02*
G01*
X260681137Y-109932834D01*
X260675540Y-109927237D01*
X260681137Y-109921640D01*
X260686734Y-109927237D01*
G37*
G36*
X260014474Y-110846627D02*
G01*
X259995902Y-110857999D01*
X259981489Y-110865939D01*
X259946652Y-110882316D01*
X259924252Y-110887538D01*
X259916826Y-110881345D01*
X259920511Y-110872204D01*
X259934095Y-110866933D01*
X259938737Y-110868815D01*
X259954204Y-110868076D01*
X259957666Y-110864288D01*
X259972969Y-110853781D01*
X259998393Y-110845546D01*
X260014874Y-110842995D01*
X260014474Y-110846627D01*
G37*
G36*
X258534141Y-110712826D02*
G01*
X258613804Y-110801441D01*
X258705946Y-110873304D01*
X258811715Y-110929007D01*
X258932261Y-110969139D01*
X259068731Y-110994291D01*
X259085999Y-110996305D01*
X259190090Y-111003323D01*
X259297907Y-111001322D01*
X259413482Y-110989908D01*
X259540849Y-110968687D01*
X259679242Y-110938417D01*
X259732840Y-110925602D01*
X259778775Y-110914633D01*
X259812537Y-110906586D01*
X259829614Y-110902536D01*
X259830366Y-110902361D01*
X259849221Y-110896962D01*
X259866647Y-110891344D01*
X259893619Y-110885142D01*
X259903240Y-110888997D01*
X259896608Y-110900281D01*
X259874817Y-110916364D01*
X259850867Y-110929195D01*
X259816075Y-110944503D01*
X259789339Y-110953835D01*
X259777107Y-110955244D01*
X259763558Y-110958004D01*
X259751120Y-110967599D01*
X259727803Y-110981988D01*
X259712958Y-110985104D01*
X259693758Y-110989958D01*
X259688570Y-110995496D01*
X259676540Y-111003492D01*
X259646795Y-111016166D01*
X259603212Y-111032263D01*
X259549664Y-111050529D01*
X259490026Y-111069713D01*
X259428175Y-111088560D01*
X259367985Y-111105817D01*
X259313330Y-111120230D01*
X259276245Y-111128861D01*
X259090651Y-111160078D01*
X258912401Y-111173454D01*
X258743103Y-111169028D01*
X258584367Y-111146839D01*
X258442265Y-111108472D01*
X258392263Y-111090076D01*
X258343514Y-111070021D01*
X258300423Y-111050373D01*
X258267396Y-111033198D01*
X258248839Y-111020560D01*
X258246364Y-111016629D01*
X258237217Y-111008619D01*
X258228791Y-111007493D01*
X258204567Y-110999665D01*
X258168102Y-110977656D01*
X258122402Y-110943674D01*
X258070475Y-110899930D01*
X258024076Y-110857095D01*
X257983206Y-110815918D01*
X257944979Y-110773956D01*
X257912536Y-110735032D01*
X257889018Y-110702967D01*
X257877566Y-110681586D01*
X257876950Y-110678041D01*
X257887672Y-110676388D01*
X257917948Y-110674894D01*
X257964943Y-110673617D01*
X258025824Y-110672615D01*
X258097756Y-110671946D01*
X258177904Y-110671667D01*
X258189915Y-110671662D01*
X258502880Y-110671662D01*
X258534141Y-110712826D01*
G37*
G36*
X260464175Y-109773129D02*
G01*
X260506931Y-109777341D01*
X260516020Y-109778992D01*
X260544959Y-109787176D01*
X260561828Y-109796445D01*
X260563596Y-109799821D01*
X260570265Y-109806341D01*
X260573265Y-109805042D01*
X260584781Y-109809307D01*
X260606238Y-109824455D01*
X260631793Y-109845491D01*
X260655603Y-109867421D01*
X260671825Y-109885248D01*
X260675540Y-109892477D01*
X260665583Y-109923873D01*
X260638631Y-109956440D01*
X260604458Y-109981631D01*
X260565400Y-110002335D01*
X260538489Y-110009210D01*
X260518102Y-110002049D01*
X260498615Y-109980641D01*
X260496430Y-109977612D01*
X260478150Y-109956457D01*
X260457235Y-109946627D01*
X260424388Y-109944045D01*
X260419798Y-109944029D01*
X260385338Y-109946205D01*
X260357386Y-109954346D01*
X260334570Y-109970872D01*
X260315516Y-109998204D01*
X260298853Y-110038761D01*
X260283207Y-110094964D01*
X260267207Y-110169231D01*
X260254727Y-110235082D01*
X260249660Y-110261717D01*
X260241557Y-110303215D01*
X260231472Y-110354292D01*
X260220459Y-110409664D01*
X260209573Y-110464046D01*
X260199868Y-110512154D01*
X260192398Y-110548703D01*
X260188285Y-110568114D01*
X260184197Y-110580029D01*
X260175512Y-110587444D01*
X260157703Y-110591419D01*
X260126240Y-110593018D01*
X260080850Y-110593301D01*
X259979138Y-110593301D01*
X259984863Y-110551323D01*
X259990206Y-110515010D01*
X259995478Y-110483320D01*
X259995842Y-110481358D01*
X260018933Y-110359011D01*
X260038695Y-110256552D01*
X260055765Y-110171834D01*
X260070781Y-110102711D01*
X260084383Y-110047038D01*
X260097209Y-110002667D01*
X260109898Y-109967452D01*
X260123088Y-109939248D01*
X260137418Y-109915907D01*
X260153527Y-109895283D01*
X260172053Y-109875231D01*
X260177992Y-109869194D01*
X260212082Y-109836234D01*
X260236637Y-109817144D01*
X260256815Y-109808902D01*
X260277774Y-109808483D01*
X260280939Y-109808861D01*
X260293860Y-109804110D01*
X260294932Y-109800263D01*
X260305225Y-109790105D01*
X260332581Y-109781804D01*
X260371715Y-109775869D01*
X260417341Y-109772807D01*
X260464175Y-109773129D01*
G37*
G36*
X258814644Y-109787354D02*
G01*
X258880878Y-109787637D01*
X258929902Y-109788378D01*
X258964303Y-109789794D01*
X258986671Y-109792105D01*
X258999596Y-109795529D01*
X259005665Y-109800286D01*
X259007469Y-109806593D01*
X259007580Y-109810893D01*
X259004888Y-109837867D01*
X258997913Y-109874064D01*
X258988304Y-109913365D01*
X258977713Y-109949649D01*
X258967789Y-109976798D01*
X258960183Y-109988691D01*
X258959599Y-109988806D01*
X258955002Y-109995120D01*
X258959589Y-110002799D01*
X258962652Y-110021812D01*
X258958913Y-110061485D01*
X258948443Y-110121174D01*
X258944619Y-110139930D01*
X258931054Y-110206617D01*
X258915999Y-110283261D01*
X258901812Y-110357761D01*
X258895530Y-110391803D01*
X258885407Y-110446378D01*
X258875850Y-110495903D01*
X258868030Y-110534423D01*
X258863610Y-110554121D01*
X258855086Y-110587704D01*
X258752223Y-110590923D01*
X258649361Y-110594142D01*
X258649361Y-110565736D01*
X258653394Y-110544502D01*
X258661309Y-110537330D01*
X258668533Y-110528748D01*
X258667217Y-110517739D01*
X258666461Y-110497129D01*
X258670442Y-110462639D01*
X258677533Y-110425386D01*
X258687167Y-110379492D01*
X258695353Y-110335209D01*
X258699427Y-110308620D01*
X258705918Y-110278597D01*
X258715111Y-110259050D01*
X258717541Y-110256844D01*
X258724721Y-110241028D01*
X258722568Y-110225285D01*
X258721127Y-110205761D01*
X258728165Y-110201499D01*
X258736169Y-110193354D01*
X258734480Y-110183697D01*
X258732345Y-110161717D01*
X258734993Y-110154013D01*
X258741191Y-110135004D01*
X258745456Y-110107447D01*
X258751485Y-110056755D01*
X258758580Y-110025458D01*
X258763205Y-110016757D01*
X258765967Y-110002348D01*
X258763994Y-109982946D01*
X258758694Y-109955223D01*
X258606077Y-109955052D01*
X258548865Y-109954298D01*
X258499046Y-109952355D01*
X258461245Y-109949496D01*
X258440088Y-109945995D01*
X258437991Y-109945083D01*
X258430629Y-109937457D01*
X258427581Y-109923792D01*
X258429030Y-109899933D01*
X258435157Y-109861726D01*
X258443537Y-109818092D01*
X258449641Y-109787308D01*
X258728611Y-109787308D01*
X258814644Y-109787354D01*
G37*
G36*
X255514166Y-109395504D02*
G01*
X255531862Y-109395505D01*
X255649065Y-109395553D01*
X255745944Y-109395752D01*
X255824566Y-109396187D01*
X255886996Y-109396940D01*
X255935299Y-109398097D01*
X255971542Y-109399740D01*
X255997790Y-109401954D01*
X256016108Y-109404823D01*
X256028562Y-109408429D01*
X256037217Y-109412858D01*
X256041761Y-109416198D01*
X256067315Y-109436890D01*
X255974151Y-109805202D01*
X255951409Y-109894939D01*
X255929822Y-109979792D01*
X255910153Y-110056790D01*
X255893162Y-110122964D01*
X255879613Y-110175343D01*
X255870268Y-110210956D01*
X255866757Y-110223888D01*
X255858980Y-110252704D01*
X255847208Y-110297920D01*
X255832812Y-110354198D01*
X255817163Y-110416202D01*
X255810668Y-110442178D01*
X255795333Y-110503478D01*
X255781142Y-110559804D01*
X255769325Y-110606307D01*
X255761109Y-110638141D01*
X255758890Y-110646475D01*
X255748969Y-110682856D01*
X255561430Y-110682856D01*
X255487001Y-110682494D01*
X255432037Y-110680937D01*
X255393618Y-110677474D01*
X255368827Y-110671400D01*
X255354743Y-110662004D01*
X255348449Y-110648578D01*
X255347025Y-110630820D01*
X255349828Y-110610653D01*
X255357450Y-110573691D01*
X255368708Y-110524590D01*
X255382423Y-110468007D01*
X255397412Y-110408599D01*
X255412494Y-110351023D01*
X255426488Y-110299935D01*
X255438212Y-110259991D01*
X255446485Y-110235850D01*
X255448090Y-110232435D01*
X255457127Y-110205078D01*
X255458997Y-110187658D01*
X255461873Y-110166163D01*
X255469574Y-110129304D01*
X255480746Y-110083238D01*
X255487944Y-110055972D01*
X255504084Y-109995592D01*
X255520471Y-109932505D01*
X255536100Y-109870789D01*
X255549964Y-109814525D01*
X255561057Y-109767792D01*
X255568374Y-109734672D01*
X255570912Y-109719428D01*
X255560076Y-109716264D01*
X255528996Y-109713567D01*
X255479814Y-109711416D01*
X255414669Y-109709891D01*
X255335705Y-109709070D01*
X255287191Y-109708947D01*
X255199987Y-109708864D01*
X255132416Y-109708480D01*
X255081724Y-109707592D01*
X255045153Y-109705996D01*
X255019950Y-109703490D01*
X255003359Y-109699870D01*
X254992625Y-109694932D01*
X254984992Y-109688475D01*
X254983181Y-109686528D01*
X254971088Y-109669703D01*
X254968768Y-109651318D01*
X254975423Y-109622347D01*
X254977037Y-109616893D01*
X254987188Y-109580510D01*
X254994910Y-109548519D01*
X254996176Y-109542146D01*
X255002636Y-109516512D01*
X255007980Y-109503593D01*
X255013837Y-109484994D01*
X255017296Y-109460738D01*
X255018416Y-109445372D01*
X255020425Y-109432628D01*
X255025256Y-109422260D01*
X255034837Y-109414024D01*
X255051100Y-109407674D01*
X255075974Y-109402967D01*
X255111390Y-109399657D01*
X255159279Y-109397500D01*
X255221571Y-109396251D01*
X255300195Y-109395665D01*
X255397084Y-109395497D01*
X255514166Y-109395504D01*
G37*
G36*
X258282665Y-109922694D02*
G01*
X258301918Y-109957368D01*
X258303606Y-109961084D01*
X258319151Y-110017534D01*
X258323946Y-110086784D01*
X258318834Y-110162483D01*
X258310493Y-110207096D01*
X258304663Y-110238280D01*
X258282277Y-110307825D01*
X258252521Y-110364765D01*
X258249251Y-110369414D01*
X258213014Y-110413196D01*
X258195481Y-110430983D01*
X258167118Y-110459758D01*
X258117436Y-110503869D01*
X258069837Y-110540297D01*
X258032067Y-110562941D01*
X257941968Y-110596054D01*
X257851387Y-110611506D01*
X257765627Y-110608493D01*
X257750234Y-110605750D01*
X257683414Y-110586288D01*
X257623609Y-110557918D01*
X257577816Y-110524098D01*
X257571253Y-110517314D01*
X257561137Y-110504439D01*
X257560067Y-110493082D01*
X257570324Y-110478135D01*
X257594188Y-110454492D01*
X257603010Y-110446189D01*
X257639453Y-110412849D01*
X257664540Y-110393566D01*
X257682773Y-110386597D01*
X257698656Y-110390196D01*
X257716284Y-110402297D01*
X257770401Y-110432567D01*
X257827460Y-110443215D01*
X257885094Y-110436369D01*
X257898633Y-110430983D01*
X257966505Y-110430983D01*
X257972102Y-110436580D01*
X257977699Y-110430983D01*
X257972102Y-110425386D01*
X257966505Y-110430983D01*
X257898633Y-110430983D01*
X257940936Y-110414155D01*
X257992617Y-110378703D01*
X258037772Y-110332140D01*
X258074031Y-110276593D01*
X258099028Y-110214190D01*
X258100229Y-110207096D01*
X258123226Y-110207096D01*
X258128823Y-110212693D01*
X258134420Y-110207096D01*
X258128823Y-110201499D01*
X258123226Y-110207096D01*
X258100229Y-110207096D01*
X258110396Y-110147060D01*
X258105766Y-110077329D01*
X258100988Y-110056534D01*
X258077149Y-110002660D01*
X258038317Y-109965151D01*
X257988317Y-109943873D01*
X257929773Y-109938547D01*
X257867588Y-109950526D01*
X257810015Y-109978149D01*
X257806588Y-109980475D01*
X257780572Y-109993509D01*
X257759540Y-109995938D01*
X257758431Y-109995577D01*
X257747207Y-109995013D01*
X257748294Y-110000129D01*
X257747888Y-110010377D01*
X257744328Y-110011195D01*
X257732565Y-110002763D01*
X257712909Y-109980854D01*
X257693638Y-109955677D01*
X257671736Y-109924271D01*
X257663290Y-109904848D01*
X257664257Y-109904848D01*
X257669854Y-109910445D01*
X257675452Y-109904848D01*
X257669854Y-109899251D01*
X257664257Y-109904848D01*
X257663290Y-109904848D01*
X257663032Y-109904255D01*
X257668010Y-109888592D01*
X257687154Y-109870244D01*
X257700250Y-109859457D01*
X257731132Y-109839782D01*
X257775738Y-109818064D01*
X257826067Y-109797669D01*
X257874117Y-109781960D01*
X257898068Y-109776270D01*
X257934341Y-109769855D01*
X257961617Y-109767067D01*
X257988661Y-109767912D01*
X258024236Y-109772396D01*
X258050463Y-109776394D01*
X258095074Y-109785829D01*
X258136471Y-109798899D01*
X258169242Y-109813420D01*
X258187975Y-109827206D01*
X258190392Y-109832896D01*
X258196392Y-109840273D01*
X258199218Y-109839146D01*
X258213136Y-109842521D01*
X258234319Y-109860651D01*
X258258814Y-109888915D01*
X258270064Y-109904848D01*
X258282665Y-109922694D01*
G37*
G36*
X257006290Y-109386610D02*
G01*
X257069689Y-109388017D01*
X257125843Y-109390740D01*
X257170524Y-109394814D01*
X257197574Y-109399705D01*
X257230357Y-109409434D01*
X257252350Y-109419624D01*
X257264547Y-109434112D01*
X257267943Y-109456738D01*
X257263532Y-109491340D01*
X257252307Y-109541758D01*
X257243618Y-109577502D01*
X257210126Y-109714544D01*
X257163987Y-109717935D01*
X257122082Y-109715669D01*
X257080592Y-109705648D01*
X257076244Y-109703942D01*
X257036487Y-109693597D01*
X256983464Y-109687936D01*
X256925836Y-109687119D01*
X256872263Y-109691308D01*
X256834747Y-109699465D01*
X256802498Y-109712310D01*
X256774645Y-109728683D01*
X256750122Y-109750755D01*
X256727864Y-109780696D01*
X256706806Y-109820676D01*
X256685882Y-109872866D01*
X256664028Y-109939435D01*
X256640177Y-110022553D01*
X256613265Y-110124391D01*
X256599314Y-110179110D01*
X256585683Y-110233066D01*
X256576396Y-110270290D01*
X256570310Y-110295758D01*
X256566281Y-110314444D01*
X256563165Y-110331323D01*
X256560075Y-110349824D01*
X256553154Y-110391803D01*
X256632285Y-110391803D01*
X256672341Y-110393249D01*
X256702988Y-110397053D01*
X256717930Y-110402411D01*
X256718192Y-110402767D01*
X256719310Y-110420104D01*
X256713828Y-110452941D01*
X256702857Y-110495761D01*
X256693374Y-110526135D01*
X256688486Y-110548237D01*
X256683989Y-110579965D01*
X256683572Y-110583877D01*
X256677538Y-110620554D01*
X256668718Y-110652859D01*
X256668350Y-110653842D01*
X256657319Y-110682856D01*
X256371980Y-110682856D01*
X256284572Y-110682774D01*
X256216892Y-110682399D01*
X256166281Y-110681537D01*
X256130079Y-110679995D01*
X256105625Y-110677579D01*
X256090259Y-110674098D01*
X256081321Y-110669356D01*
X256076152Y-110663161D01*
X256075092Y-110661278D01*
X256067888Y-110637416D01*
X256068778Y-110624897D01*
X256074720Y-110602612D01*
X256078829Y-110582107D01*
X256086019Y-110546790D01*
X256096881Y-110500765D01*
X256109728Y-110450415D01*
X256122871Y-110402124D01*
X256134625Y-110362276D01*
X256143302Y-110337254D01*
X256143927Y-110335831D01*
X256154765Y-110303231D01*
X256158865Y-110279859D01*
X256162959Y-110253257D01*
X256170843Y-110218071D01*
X256180526Y-110181708D01*
X256190019Y-110151570D01*
X256197331Y-110135062D01*
X256197985Y-110134333D01*
X256203150Y-110120025D01*
X256205406Y-110100750D01*
X256209498Y-110069708D01*
X256218105Y-110028117D01*
X256228733Y-109986690D01*
X256238888Y-109956142D01*
X256239282Y-109955223D01*
X256247265Y-109928408D01*
X256248588Y-109920122D01*
X256254386Y-109888097D01*
X256264721Y-109848074D01*
X256277468Y-109806706D01*
X256290499Y-109770644D01*
X256301689Y-109746540D01*
X256305807Y-109741149D01*
X256318271Y-109720309D01*
X256320934Y-109704470D01*
X256330022Y-109671531D01*
X256357555Y-109627661D01*
X256368241Y-109613795D01*
X256380727Y-109597620D01*
X256399108Y-109573341D01*
X256400764Y-109571136D01*
X256420842Y-109551261D01*
X256438295Y-109545173D01*
X256439823Y-109545597D01*
X256452809Y-109542524D01*
X256455266Y-109531378D01*
X256464438Y-109512477D01*
X256486051Y-109495830D01*
X256514521Y-109479757D01*
X256534407Y-109466044D01*
X256553488Y-109455028D01*
X256584004Y-109441799D01*
X256619370Y-109428662D01*
X256652999Y-109417921D01*
X256678305Y-109411882D01*
X256688356Y-109412170D01*
X256700170Y-109410693D01*
X256710628Y-109403804D01*
X256728670Y-109398064D01*
X256764845Y-109393427D01*
X256814924Y-109389927D01*
X256874678Y-109387600D01*
X256939877Y-109386483D01*
X257006290Y-109386610D01*
G37*
G36*
X251423105Y-109378814D02*
G01*
X251487062Y-109382009D01*
X251537815Y-109387601D01*
X251546540Y-109389161D01*
X251632233Y-109409545D01*
X251702892Y-109434755D01*
X251765770Y-109467481D01*
X251777754Y-109474976D01*
X251826234Y-109511137D01*
X251869420Y-109552647D01*
X251904042Y-109595370D01*
X251926826Y-109635168D01*
X251934500Y-109667902D01*
X251934050Y-109672565D01*
X251938285Y-109685458D01*
X251942120Y-109686558D01*
X251953636Y-109697011D01*
X251962743Y-109725662D01*
X251969431Y-109768447D01*
X251973688Y-109821306D01*
X251975503Y-109880175D01*
X251974867Y-109940993D01*
X251971768Y-109999697D01*
X251966195Y-110052224D01*
X251958138Y-110094512D01*
X251947586Y-110122500D01*
X251943291Y-110128176D01*
X251934177Y-110147726D01*
X251932746Y-110159588D01*
X251926998Y-110185560D01*
X251911584Y-110222571D01*
X251889249Y-110266137D01*
X251862738Y-110311776D01*
X251834796Y-110355003D01*
X251808167Y-110391336D01*
X251785597Y-110416290D01*
X251770019Y-110425386D01*
X251755926Y-110434245D01*
X251743120Y-110452103D01*
X251727627Y-110471013D01*
X251699913Y-110496601D01*
X251665296Y-110524814D01*
X251629092Y-110551602D01*
X251596618Y-110572914D01*
X251573190Y-110584699D01*
X251567604Y-110585838D01*
X251553560Y-110590965D01*
X251552137Y-110594643D01*
X251542686Y-110604415D01*
X251519381Y-110617441D01*
X251489797Y-110630491D01*
X251461510Y-110640332D01*
X251442094Y-110643733D01*
X251438977Y-110642924D01*
X251429531Y-110644131D01*
X251428999Y-110647137D01*
X251419130Y-110655386D01*
X251393320Y-110666840D01*
X251359035Y-110678428D01*
X251315702Y-110687234D01*
X251255461Y-110693837D01*
X251183689Y-110698176D01*
X251105765Y-110700192D01*
X251027065Y-110699824D01*
X250952968Y-110697014D01*
X250888851Y-110691701D01*
X250841636Y-110684180D01*
X250800170Y-110673257D01*
X250752302Y-110658304D01*
X250703123Y-110641217D01*
X250657726Y-110623891D01*
X250621203Y-110608221D01*
X250598648Y-110596101D01*
X250594306Y-110592146D01*
X250595021Y-110578507D01*
X250600910Y-110548134D01*
X250610727Y-110505742D01*
X250623226Y-110456046D01*
X250637161Y-110403760D01*
X250651287Y-110353600D01*
X250664357Y-110310281D01*
X250675125Y-110278517D01*
X250680527Y-110265866D01*
X250701227Y-110247930D01*
X250733488Y-110247444D01*
X250775367Y-110264004D01*
X250822651Y-110295438D01*
X250887434Y-110341640D01*
X250944744Y-110374482D01*
X250986822Y-110390862D01*
X251007285Y-110393340D01*
X251044046Y-110395194D01*
X251091018Y-110396181D01*
X251121155Y-110396257D01*
X251175332Y-110395350D01*
X251214336Y-110392308D01*
X251245366Y-110385784D01*
X251275622Y-110374435D01*
X251300459Y-110362771D01*
X251379491Y-110311998D01*
X251444423Y-110244890D01*
X251494143Y-110163346D01*
X251527535Y-110069270D01*
X251543488Y-109964563D01*
X251544372Y-109946236D01*
X251541425Y-109862452D01*
X251525417Y-109796344D01*
X251495063Y-109746551D01*
X251449081Y-109711708D01*
X251386185Y-109690453D01*
X251305092Y-109681422D01*
X251294696Y-109681109D01*
X251249032Y-109681128D01*
X251210844Y-109683110D01*
X251186543Y-109686658D01*
X251182723Y-109688071D01*
X251162204Y-109696182D01*
X251127607Y-109707074D01*
X251086659Y-109718441D01*
X251053988Y-109726451D01*
X251039160Y-109733338D01*
X251011660Y-109748619D01*
X250977662Y-109768602D01*
X250943339Y-109789593D01*
X250914866Y-109807900D01*
X250899706Y-109818731D01*
X250876418Y-109827076D01*
X250844762Y-109827171D01*
X250815125Y-109820080D01*
X250798737Y-109808390D01*
X250795796Y-109791948D01*
X250799417Y-109760549D01*
X250809964Y-109712062D01*
X250824936Y-109654756D01*
X250839673Y-109603308D01*
X250853106Y-109560770D01*
X250863852Y-109531233D01*
X250870526Y-109518793D01*
X250870980Y-109518643D01*
X250875624Y-109510474D01*
X250873914Y-109503376D01*
X250878916Y-109491452D01*
X250903183Y-109476821D01*
X250944231Y-109460043D01*
X251017483Y-109434621D01*
X251090668Y-109411978D01*
X251155284Y-109394679D01*
X251177126Y-109389768D01*
X251222956Y-109383493D01*
X251283959Y-109379567D01*
X251353040Y-109378004D01*
X251423105Y-109378814D01*
G37*
G36*
X253322937Y-109905666D02*
G01*
X253307579Y-109966933D01*
X253290122Y-110034639D01*
X253287468Y-110044778D01*
X253271073Y-110107544D01*
X253269619Y-110113109D01*
X253253455Y-110175526D01*
X253239948Y-110228230D01*
X253230071Y-110267425D01*
X253224794Y-110289315D01*
X253224471Y-110290815D01*
X253216122Y-110314567D01*
X253207840Y-110325293D01*
X253201251Y-110340100D01*
X253202637Y-110347920D01*
X253201897Y-110363965D01*
X253195996Y-110397250D01*
X253185836Y-110443463D01*
X253172321Y-110498293D01*
X253166480Y-110520538D01*
X253124637Y-110677259D01*
X252788960Y-110680589D01*
X252674384Y-110681216D01*
X252576079Y-110680692D01*
X252495477Y-110679050D01*
X252434010Y-110676324D01*
X252393110Y-110672545D01*
X252386117Y-110671412D01*
X252290938Y-110648243D01*
X252213925Y-110617023D01*
X252151865Y-110576338D01*
X252134103Y-110560579D01*
X252094621Y-110520293D01*
X252067723Y-110484206D01*
X252051083Y-110446272D01*
X252042378Y-110400441D01*
X252039282Y-110340666D01*
X252039092Y-110313442D01*
X252039739Y-110257482D01*
X252039861Y-110255621D01*
X252474184Y-110255621D01*
X252477088Y-110303979D01*
X252482334Y-110319156D01*
X252491150Y-110345730D01*
X252493399Y-110363543D01*
X252493338Y-110363817D01*
X252495657Y-110369438D01*
X252498041Y-110367568D01*
X252512213Y-110366584D01*
X252537645Y-110373681D01*
X252543392Y-110375964D01*
X252576876Y-110384533D01*
X252625805Y-110390074D01*
X252677088Y-110391803D01*
X252723533Y-110391494D01*
X252752609Y-110389617D01*
X252769337Y-110384748D01*
X252778736Y-110375461D01*
X252785544Y-110361018D01*
X252796706Y-110327740D01*
X252802546Y-110302248D01*
X252807671Y-110277572D01*
X252816987Y-110239513D01*
X252828500Y-110196204D01*
X252828781Y-110195188D01*
X252839466Y-110155515D01*
X252847264Y-110124472D01*
X252850646Y-110108175D01*
X252850683Y-110107544D01*
X252840251Y-110104386D01*
X252811963Y-110102376D01*
X252770332Y-110101703D01*
X252727545Y-110102333D01*
X252678062Y-110104478D01*
X252638073Y-110107726D01*
X252612096Y-110111610D01*
X252604407Y-110115076D01*
X252597592Y-110119793D01*
X252594573Y-110118382D01*
X252581926Y-110122225D01*
X252558797Y-110138298D01*
X252533974Y-110159700D01*
X252493048Y-110207829D01*
X252474184Y-110255621D01*
X252039861Y-110255621D01*
X252042370Y-110217488D01*
X252048017Y-110187059D01*
X252057713Y-110159795D01*
X252067078Y-110139930D01*
X252084770Y-110104982D01*
X252098139Y-110081295D01*
X252112629Y-110060587D01*
X252133686Y-110034578D01*
X252146209Y-110019590D01*
X252170323Y-109994925D01*
X252191773Y-109979830D01*
X252199415Y-109977612D01*
X252219009Y-109969670D01*
X252240695Y-109950605D01*
X252267843Y-109928252D01*
X252311182Y-109902924D01*
X252365192Y-109877116D01*
X252407587Y-109860071D01*
X252458880Y-109860071D01*
X252464478Y-109865668D01*
X252470075Y-109860071D01*
X252464478Y-109854474D01*
X252458880Y-109860071D01*
X252407587Y-109860071D01*
X252424356Y-109853329D01*
X252483155Y-109834059D01*
X252517308Y-109825410D01*
X252560173Y-109818277D01*
X252618106Y-109811641D01*
X252683788Y-109806206D01*
X252749899Y-109802676D01*
X252755531Y-109802479D01*
X252827263Y-109799118D01*
X252880478Y-109794507D01*
X252913774Y-109788799D01*
X252924836Y-109783885D01*
X252932745Y-109767692D01*
X252943680Y-109735141D01*
X252955893Y-109691747D01*
X252962782Y-109664170D01*
X252974896Y-109615864D01*
X252986467Y-109574031D01*
X252995773Y-109544714D01*
X252999264Y-109536184D01*
X253007553Y-109510579D01*
X253013175Y-109476451D01*
X253013562Y-109471947D01*
X253016773Y-109444438D01*
X253023791Y-109424460D01*
X253037774Y-109410834D01*
X253061883Y-109402380D01*
X253099277Y-109397919D01*
X253153116Y-109396273D01*
X253216499Y-109396215D01*
X253277155Y-109397132D01*
X253331460Y-109399174D01*
X253374693Y-109402072D01*
X253402133Y-109405559D01*
X253407602Y-109407048D01*
X253428632Y-109425484D01*
X253432790Y-109446174D01*
X253430126Y-109467077D01*
X253422986Y-109503643D01*
X253412646Y-109550612D01*
X253400382Y-109602727D01*
X253387471Y-109654729D01*
X253375189Y-109701360D01*
X253364811Y-109737362D01*
X253357616Y-109757477D01*
X253356917Y-109758755D01*
X253350350Y-109778383D01*
X253347204Y-109798474D01*
X253343670Y-109817639D01*
X253335275Y-109854636D01*
X253333961Y-109860071D01*
X253322937Y-109905666D01*
G37*
G36*
X254216086Y-110656426D02*
G01*
X254090008Y-110689900D01*
X254069307Y-110693522D01*
X254033630Y-110697695D01*
X253986244Y-110701006D01*
X253931895Y-110703387D01*
X253875328Y-110704775D01*
X253821286Y-110705102D01*
X253774515Y-110704304D01*
X253739761Y-110702314D01*
X253721766Y-110699067D01*
X253720682Y-110698353D01*
X253705958Y-110693084D01*
X253678291Y-110688792D01*
X253671241Y-110688160D01*
X253638409Y-110682440D01*
X253591920Y-110670431D01*
X253538826Y-110654355D01*
X253507455Y-110643676D01*
X253555928Y-110643676D01*
X253561525Y-110649273D01*
X253567122Y-110643676D01*
X253561525Y-110638079D01*
X253555928Y-110643676D01*
X253507455Y-110643676D01*
X253486177Y-110636433D01*
X253441025Y-110618889D01*
X253418797Y-110608616D01*
X253396167Y-110592560D01*
X253389094Y-110572079D01*
X253396090Y-110540854D01*
X253400236Y-110529663D01*
X253410916Y-110498694D01*
X253417162Y-110475761D01*
X253421941Y-110455269D01*
X253430750Y-110419374D01*
X253442040Y-110374353D01*
X253447559Y-110352623D01*
X253473255Y-110251873D01*
X253512328Y-110248534D01*
X253535944Y-110249287D01*
X253560483Y-110257529D01*
X253591537Y-110275816D01*
X253627000Y-110301000D01*
X253688865Y-110343370D01*
X253743305Y-110371637D01*
X253797874Y-110388334D01*
X253860125Y-110395995D01*
X253914147Y-110397340D01*
X253968046Y-110396461D01*
X254007492Y-110392934D01*
X254040392Y-110385311D01*
X254074648Y-110372146D01*
X254090283Y-110365105D01*
X254168389Y-110317150D01*
X254233853Y-110252459D01*
X254285164Y-110173719D01*
X254320811Y-110083621D01*
X254339283Y-109984852D01*
X254341390Y-109918185D01*
X254332785Y-109841584D01*
X254312198Y-109778928D01*
X254286160Y-109739217D01*
X254245779Y-109709724D01*
X254189381Y-109690047D01*
X254121470Y-109681058D01*
X254046555Y-109683632D01*
X254019216Y-109687477D01*
X253978030Y-109694389D01*
X253944280Y-109699964D01*
X253925341Y-109702985D01*
X253906791Y-109708699D01*
X253875275Y-109721096D01*
X253842789Y-109735192D01*
X253807336Y-109750575D01*
X253779861Y-109761316D01*
X253767227Y-109764919D01*
X253757609Y-109773376D01*
X253757426Y-109775389D01*
X253747961Y-109785616D01*
X253724567Y-109797603D01*
X253718246Y-109800026D01*
X253692817Y-109811193D01*
X253679595Y-109820851D01*
X253679065Y-109822385D01*
X253669842Y-109831840D01*
X253655875Y-109837937D01*
X253629698Y-109836152D01*
X253604808Y-109820194D01*
X253590410Y-109796771D01*
X253589511Y-109789554D01*
X253592528Y-109769729D01*
X253600589Y-109734591D01*
X253612202Y-109689431D01*
X253625881Y-109639538D01*
X253640134Y-109590201D01*
X253653475Y-109546710D01*
X253664412Y-109514355D01*
X253671458Y-109498425D01*
X253671472Y-109498406D01*
X253691218Y-109483239D01*
X253724107Y-109466763D01*
X253761506Y-109452875D01*
X253785920Y-109446748D01*
X253817391Y-109437371D01*
X253835036Y-109429490D01*
X253857749Y-109422309D01*
X253870127Y-109423959D01*
X253886132Y-109423655D01*
X253914173Y-109414989D01*
X253932312Y-109407229D01*
X253964877Y-109394952D01*
X254005094Y-109386197D01*
X254058290Y-109380049D01*
X254110896Y-109376545D01*
X254164173Y-109374522D01*
X254205677Y-109374598D01*
X254231666Y-109376678D01*
X254238776Y-109379800D01*
X254248763Y-109384999D01*
X254274191Y-109386911D01*
X254291950Y-109386284D01*
X254357908Y-109390412D01*
X254431879Y-109409128D01*
X254507707Y-109439685D01*
X254579238Y-109479333D01*
X254640319Y-109525325D01*
X254669413Y-109554848D01*
X254699466Y-109595014D01*
X254724939Y-109638263D01*
X254743010Y-109678779D01*
X254750858Y-109710746D01*
X254750175Y-109721311D01*
X254751536Y-109740015D01*
X254757711Y-109745713D01*
X254766101Y-109759302D01*
X254771771Y-109790527D01*
X254774754Y-109834804D01*
X254775083Y-109887550D01*
X254772790Y-109944181D01*
X254767908Y-110000113D01*
X254760468Y-110050763D01*
X254755380Y-110074383D01*
X254740066Y-110128458D01*
X254721577Y-110182482D01*
X254701746Y-110232220D01*
X254682406Y-110273440D01*
X254665394Y-110301906D01*
X254652543Y-110313384D01*
X254651811Y-110313442D01*
X254643632Y-110317780D01*
X254645458Y-110320852D01*
X254643945Y-110333414D01*
X254631526Y-110356539D01*
X254623331Y-110368428D01*
X254543245Y-110459339D01*
X254446287Y-110539044D01*
X254336040Y-110605440D01*
X254246083Y-110643676D01*
X254216086Y-110656426D01*
G37*
G36*
X250567518Y-109721040D02*
G01*
X250560205Y-109739309D01*
X250556812Y-109742530D01*
X250551360Y-109752368D01*
X250548166Y-109776465D01*
X250548004Y-109780581D01*
X250544198Y-109810952D01*
X250535306Y-109853134D01*
X250524012Y-109895323D01*
X250516513Y-109921199D01*
X250507510Y-109953849D01*
X250496527Y-109995140D01*
X250483087Y-110046939D01*
X250466713Y-110111112D01*
X250446931Y-110189527D01*
X250437288Y-110228036D01*
X250423262Y-110284050D01*
X250395232Y-110396549D01*
X250364438Y-110520538D01*
X250362364Y-110528890D01*
X250361658Y-110531732D01*
X250325558Y-110677259D01*
X249956543Y-110677259D01*
X249847589Y-110677036D01*
X249758887Y-110676313D01*
X249688301Y-110675010D01*
X249633700Y-110673049D01*
X249592948Y-110670350D01*
X249563912Y-110666834D01*
X249544459Y-110662421D01*
X249542750Y-110661856D01*
X249503681Y-110647365D01*
X249462963Y-110630609D01*
X249426620Y-110614266D01*
X249400675Y-110601013D01*
X249391626Y-110594667D01*
X249378206Y-110584203D01*
X249363640Y-110575436D01*
X249326076Y-110543299D01*
X249311982Y-110520538D01*
X249335654Y-110520538D01*
X249341251Y-110526135D01*
X249346849Y-110520538D01*
X249341251Y-110514941D01*
X249335654Y-110520538D01*
X249311982Y-110520538D01*
X249296096Y-110494882D01*
X249276661Y-110435810D01*
X249271494Y-110400271D01*
X249274740Y-110320846D01*
X249705068Y-110320846D01*
X249710599Y-110350282D01*
X249728754Y-110370893D01*
X249761874Y-110383620D01*
X249812301Y-110389406D01*
X249875566Y-110389421D01*
X249978399Y-110386206D01*
X249991208Y-110341428D01*
X250001848Y-110300397D01*
X250010850Y-110259544D01*
X250011617Y-110255497D01*
X250015060Y-110228036D01*
X250009845Y-110215036D01*
X249993675Y-110209445D01*
X249969283Y-110205440D01*
X249946215Y-110203986D01*
X249917661Y-110205206D01*
X249876809Y-110209222D01*
X249852453Y-110211992D01*
X249785976Y-110225689D01*
X249739455Y-110249184D01*
X249712618Y-110282675D01*
X249705068Y-110320846D01*
X249274740Y-110320846D01*
X249274911Y-110316674D01*
X249298168Y-110240855D01*
X249339912Y-110175329D01*
X249398786Y-110122607D01*
X249431717Y-110103105D01*
X249472891Y-110081982D01*
X249431505Y-110056404D01*
X249380482Y-110012282D01*
X249343879Y-109954116D01*
X249323422Y-109886307D01*
X249322098Y-109848877D01*
X249745013Y-109848877D01*
X249747241Y-109870761D01*
X249758837Y-109885476D01*
X249785287Y-109899121D01*
X249793163Y-109902388D01*
X249834166Y-109913959D01*
X249892608Y-109923178D01*
X249962606Y-109929213D01*
X250015796Y-109932069D01*
X250051060Y-109932920D01*
X250072820Y-109931116D01*
X250085497Y-109926005D01*
X250093514Y-109916937D01*
X250097949Y-109909285D01*
X250108089Y-109884415D01*
X250109923Y-109868467D01*
X250113924Y-109855623D01*
X250118020Y-109854474D01*
X250125670Y-109844835D01*
X250128080Y-109823635D01*
X250130505Y-109788658D01*
X250135314Y-109764865D01*
X250145148Y-109730746D01*
X250147469Y-109710811D01*
X250138586Y-109700996D01*
X250114805Y-109697235D01*
X250072437Y-109695463D01*
X250072278Y-109695457D01*
X250005304Y-109694175D01*
X249946269Y-109695755D01*
X249900075Y-109699939D01*
X249872984Y-109705923D01*
X249849347Y-109713532D01*
X249842603Y-109715185D01*
X249815855Y-109727528D01*
X249786170Y-109750194D01*
X249762314Y-109775737D01*
X249754071Y-109790397D01*
X249747572Y-109820624D01*
X249745013Y-109848877D01*
X249322098Y-109848877D01*
X249320838Y-109813255D01*
X249324930Y-109784887D01*
X249334363Y-109748819D01*
X249348379Y-109708969D01*
X249364641Y-109670470D01*
X249380812Y-109638452D01*
X249394553Y-109618047D01*
X249402852Y-109613814D01*
X249412631Y-109608721D01*
X249422866Y-109592079D01*
X249438904Y-109570611D01*
X249466591Y-109544949D01*
X249485532Y-109530695D01*
X249517630Y-109510517D01*
X249553732Y-109490660D01*
X249588730Y-109473532D01*
X249617513Y-109461544D01*
X249634974Y-109457104D01*
X249637902Y-109458842D01*
X249644697Y-109458855D01*
X249651895Y-109453848D01*
X249668935Y-109446224D01*
X249701684Y-109436302D01*
X249743847Y-109425932D01*
X249755443Y-109423418D01*
X249787890Y-109417665D01*
X249827323Y-109412875D01*
X249876327Y-109408909D01*
X249937488Y-109405625D01*
X250013392Y-109402885D01*
X250106625Y-109400548D01*
X250214411Y-109398561D01*
X250315186Y-109396972D01*
X250395998Y-109395893D01*
X250459270Y-109395424D01*
X250507424Y-109395665D01*
X250542882Y-109396718D01*
X250568068Y-109398684D01*
X250585403Y-109401663D01*
X250597310Y-109405756D01*
X250606211Y-109411063D01*
X250611376Y-109415084D01*
X250638926Y-109437599D01*
X250618412Y-109525697D01*
X250607560Y-109568623D01*
X250597147Y-109603596D01*
X250589065Y-109624400D01*
X250587670Y-109626610D01*
X250579674Y-109644051D01*
X250579720Y-109648998D01*
X250579398Y-109667216D01*
X250574623Y-109694120D01*
X250570218Y-109710811D01*
X250567518Y-109721040D01*
G37*
G36*
X259722010Y-108817263D02*
G01*
X259752005Y-108819973D01*
X259895989Y-108844994D01*
X260029480Y-108876745D01*
X260150171Y-108914397D01*
X260255755Y-108957119D01*
X260343924Y-109004082D01*
X260412372Y-109054457D01*
X260417765Y-109059390D01*
X260441636Y-109079975D01*
X260459116Y-109091988D01*
X260462871Y-109093257D01*
X260474621Y-109101145D01*
X260494614Y-109121220D01*
X260506854Y-109135236D01*
X260530591Y-109163553D01*
X260550022Y-109186655D01*
X260555590Y-109193240D01*
X260572297Y-109215015D01*
X260593731Y-109245665D01*
X260616195Y-109279515D01*
X260635994Y-109310892D01*
X260649430Y-109334121D01*
X260653115Y-109342946D01*
X260657439Y-109357772D01*
X260668332Y-109384878D01*
X260674731Y-109399327D01*
X260684188Y-109425437D01*
X260695120Y-109463628D01*
X260706334Y-109508485D01*
X260716635Y-109554593D01*
X260724828Y-109596537D01*
X260729719Y-109628903D01*
X260730113Y-109646275D01*
X260729488Y-109647536D01*
X260723051Y-109640071D01*
X260709048Y-109616924D01*
X260690014Y-109582394D01*
X260681047Y-109565376D01*
X260659163Y-109525283D01*
X260639554Y-109492862D01*
X260625467Y-109473361D01*
X260622367Y-109470511D01*
X260609643Y-109456410D01*
X260608374Y-109451369D01*
X260600749Y-109439022D01*
X260580838Y-109416786D01*
X260555200Y-109391620D01*
X260522510Y-109362177D01*
X260486372Y-109331229D01*
X260450664Y-109301881D01*
X260419268Y-109277238D01*
X260396064Y-109260406D01*
X260384931Y-109254489D01*
X260384486Y-109255006D01*
X260375317Y-109253134D01*
X260351047Y-109243145D01*
X260316529Y-109227073D01*
X260308924Y-109223358D01*
X260262038Y-109203413D01*
X260203629Y-109183003D01*
X260144197Y-109165699D01*
X260127016Y-109161480D01*
X260085748Y-109153396D01*
X260034508Y-109145584D01*
X259977474Y-109138415D01*
X259918821Y-109132257D01*
X259862726Y-109127478D01*
X259813365Y-109124447D01*
X259774914Y-109123534D01*
X259751550Y-109125106D01*
X259746408Y-109127866D01*
X259736042Y-109131552D01*
X259708191Y-109135827D01*
X259667721Y-109140034D01*
X259640793Y-109142154D01*
X259561371Y-109150646D01*
X259473691Y-109164879D01*
X259384163Y-109183418D01*
X259299198Y-109204828D01*
X259225205Y-109227672D01*
X259179401Y-109245487D01*
X259153335Y-109256108D01*
X259136755Y-109261115D01*
X259135922Y-109261173D01*
X259121428Y-109266232D01*
X259092321Y-109279713D01*
X259053510Y-109299072D01*
X259009900Y-109321765D01*
X258966398Y-109345249D01*
X258927912Y-109366980D01*
X258904083Y-109381361D01*
X258825159Y-109437160D01*
X258747466Y-109502419D01*
X258678746Y-109570347D01*
X258647641Y-109606308D01*
X258617970Y-109643068D01*
X258592011Y-109675086D01*
X258574268Y-109696809D01*
X258571311Y-109700381D01*
X258564815Y-109706234D01*
X258554534Y-109710812D01*
X258537906Y-109714268D01*
X258512367Y-109716756D01*
X258475355Y-109718433D01*
X258424308Y-109719452D01*
X258356663Y-109719968D01*
X258269857Y-109720136D01*
X258243876Y-109720141D01*
X258163057Y-109719852D01*
X258090060Y-109719035D01*
X258027728Y-109717767D01*
X257978903Y-109716125D01*
X257946429Y-109714185D01*
X257933148Y-109712025D01*
X257932979Y-109711746D01*
X257937826Y-109698415D01*
X257949630Y-109676715D01*
X257964429Y-109652859D01*
X257978264Y-109633063D01*
X257987174Y-109623541D01*
X257988544Y-109624558D01*
X257993098Y-109622571D01*
X258004159Y-109604939D01*
X258009934Y-109594051D01*
X258029550Y-109562061D01*
X258057576Y-109524243D01*
X258089766Y-109485463D01*
X258121877Y-109450588D01*
X258149664Y-109424485D01*
X258168630Y-109412098D01*
X258186426Y-109400531D01*
X258190392Y-109391302D01*
X258198215Y-109377857D01*
X258219048Y-109354166D01*
X258248937Y-109324593D01*
X258260357Y-109314067D01*
X258296232Y-109282855D01*
X258335687Y-109250551D01*
X258375044Y-109219899D01*
X258410622Y-109193645D01*
X258438744Y-109174531D01*
X258455729Y-109165304D01*
X258459057Y-109165841D01*
X258465994Y-109164002D01*
X258482766Y-109150397D01*
X258483556Y-109149665D01*
X258507711Y-109133007D01*
X258527777Y-109126840D01*
X258549527Y-109118746D01*
X258556451Y-109110984D01*
X258568994Y-109100810D01*
X258596626Y-109083745D01*
X258634215Y-109062503D01*
X258676627Y-109039801D01*
X258718730Y-109018353D01*
X258755390Y-109000875D01*
X258781475Y-108990084D01*
X258788794Y-108988066D01*
X258809385Y-108980935D01*
X258811679Y-108979670D01*
X258833085Y-108970053D01*
X258863543Y-108959489D01*
X258894439Y-108950591D01*
X258917164Y-108945971D01*
X258922597Y-108946027D01*
X258937349Y-108941156D01*
X258939388Y-108938611D01*
X258953806Y-108929644D01*
X258983127Y-108918463D01*
X259020278Y-108907138D01*
X259058188Y-108897739D01*
X259089784Y-108892338D01*
X259099418Y-108891759D01*
X259124843Y-108887507D01*
X259137203Y-108880797D01*
X259156717Y-108871551D01*
X259194868Y-108861962D01*
X259247914Y-108852398D01*
X259312113Y-108843230D01*
X259383723Y-108834827D01*
X259459005Y-108827562D01*
X259534215Y-108821802D01*
X259605614Y-108817919D01*
X259669459Y-108816282D01*
X259722010Y-108817263D01*
G37*
G36*
X259824545Y-109945363D02*
G01*
X259829568Y-109998064D01*
X259829382Y-109999920D01*
X259823900Y-110054643D01*
X259807691Y-110107283D01*
X259804661Y-110113749D01*
X259765024Y-110175921D01*
X259712697Y-110231400D01*
X259652388Y-110276806D01*
X259588809Y-110308758D01*
X259526668Y-110323879D01*
X259510755Y-110324637D01*
X259488384Y-110323493D01*
X259467713Y-110318363D01*
X259441039Y-110306696D01*
X259412349Y-110292066D01*
X259390810Y-110284256D01*
X259376884Y-110291485D01*
X259372857Y-110296548D01*
X259358512Y-110307395D01*
X259332808Y-110311839D01*
X259295810Y-110311277D01*
X259232043Y-110307845D01*
X259277199Y-110207096D01*
X259285315Y-110189123D01*
X259443517Y-110189123D01*
X259455139Y-110218950D01*
X259457593Y-110221649D01*
X259485461Y-110234945D01*
X259523695Y-110234471D01*
X259566316Y-110221754D01*
X259607342Y-110198322D01*
X259630971Y-110177375D01*
X259658558Y-110139368D01*
X259680441Y-110093361D01*
X259695223Y-110044996D01*
X259701506Y-109999920D01*
X259697892Y-109963775D01*
X259688197Y-109946267D01*
X259660285Y-109932959D01*
X259622265Y-109933881D01*
X259580420Y-109948014D01*
X259547070Y-109969216D01*
X259510527Y-110006490D01*
X259480183Y-110051962D01*
X259457755Y-110100786D01*
X259444961Y-110148121D01*
X259443517Y-110189123D01*
X259285315Y-110189123D01*
X259299890Y-110156844D01*
X259322228Y-110108010D01*
X259340628Y-110068406D01*
X259346527Y-110055972D01*
X259366207Y-110014447D01*
X259377501Y-109988224D01*
X259381887Y-109972506D01*
X259380841Y-109962497D01*
X259377366Y-109955825D01*
X259359288Y-109945754D01*
X259329752Y-109952226D01*
X259291148Y-109974194D01*
X259245869Y-110010609D01*
X259239863Y-110016120D01*
X259209314Y-110046620D01*
X259186612Y-110073263D01*
X259175854Y-110091141D01*
X259175496Y-110093302D01*
X259170185Y-110112161D01*
X259166080Y-110116442D01*
X259159081Y-110131684D01*
X259155192Y-110162239D01*
X259154334Y-110201263D01*
X259156429Y-110241908D01*
X259161398Y-110277327D01*
X259168168Y-110298896D01*
X259205577Y-110347840D01*
X259259114Y-110384958D01*
X259324442Y-110407499D01*
X259344724Y-110410885D01*
X259412279Y-110415313D01*
X259484898Y-110412976D01*
X259554931Y-110404629D01*
X259614728Y-110391025D01*
X259640045Y-110381769D01*
X259668896Y-110369888D01*
X259687130Y-110364073D01*
X259690436Y-110364337D01*
X259697774Y-110362761D01*
X259717846Y-110347632D01*
X259747743Y-110321414D01*
X259784556Y-110286570D01*
X259798230Y-110273096D01*
X259854026Y-110206348D01*
X259893885Y-110134812D01*
X259917393Y-110061615D01*
X259924134Y-109989882D01*
X259913691Y-109922741D01*
X259885650Y-109863316D01*
X259857191Y-109829737D01*
X259801924Y-109791166D01*
X259731480Y-109763514D01*
X259650286Y-109746887D01*
X259562769Y-109741389D01*
X259473356Y-109747126D01*
X259386475Y-109764203D01*
X259306551Y-109792724D01*
X259263363Y-109815629D01*
X259219185Y-109839682D01*
X259181896Y-109851574D01*
X259146349Y-109854474D01*
X259092591Y-109854474D01*
X259135185Y-109810854D01*
X259200181Y-109757973D01*
X259282746Y-109713222D01*
X259358760Y-109684797D01*
X259413533Y-109672394D01*
X259482360Y-109663428D01*
X259557104Y-109658372D01*
X259629627Y-109657700D01*
X259691793Y-109661882D01*
X259708944Y-109664462D01*
X259807368Y-109690240D01*
X259887668Y-109728857D01*
X259942182Y-109772157D01*
X259974416Y-109807638D01*
X259991029Y-109835598D01*
X259994824Y-109861240D01*
X259994009Y-109868467D01*
X260001275Y-109876483D01*
X260004811Y-109876862D01*
X260012948Y-109884855D01*
X260012016Y-109890855D01*
X260011805Y-109911573D01*
X260016749Y-109930947D01*
X260021473Y-109965659D01*
X260017660Y-110014279D01*
X260006897Y-110070746D01*
X259990776Y-110129000D01*
X259970886Y-110182982D01*
X259948818Y-110226631D01*
X259933889Y-110246774D01*
X259917381Y-110267386D01*
X259911145Y-110281052D01*
X259911259Y-110281644D01*
X259905064Y-110295186D01*
X259883886Y-110317151D01*
X259851862Y-110344310D01*
X259813126Y-110373436D01*
X259771816Y-110401302D01*
X259732068Y-110424680D01*
X259720042Y-110430839D01*
X259642698Y-110464986D01*
X259572949Y-110486427D01*
X259501597Y-110497146D01*
X259419444Y-110499126D01*
X259404980Y-110498773D01*
X259321141Y-110492866D01*
X259254431Y-110479726D01*
X259200355Y-110457929D01*
X259154419Y-110426052D01*
X259143149Y-110415836D01*
X259102711Y-110374301D01*
X259077378Y-110338067D01*
X259063851Y-110299683D01*
X259058831Y-110251698D01*
X259058470Y-110224605D01*
X259059901Y-110176433D01*
X259065558Y-110140389D01*
X259077936Y-110106279D01*
X259096373Y-110069760D01*
X259121326Y-110029254D01*
X259150474Y-109990875D01*
X259180177Y-109958428D01*
X259206797Y-109935722D01*
X259226693Y-109926562D01*
X259232198Y-109927689D01*
X259240337Y-109925967D01*
X259240141Y-109920309D01*
X259242916Y-109916043D01*
X259668047Y-109916043D01*
X259673645Y-109921640D01*
X259679242Y-109916043D01*
X259673645Y-109910445D01*
X259668047Y-109916043D01*
X259242916Y-109916043D01*
X259248035Y-109908174D01*
X259272659Y-109893243D01*
X259308874Y-109877524D01*
X259351543Y-109863027D01*
X259395526Y-109851758D01*
X259429501Y-109846282D01*
X259466913Y-109843892D01*
X259490949Y-109847707D01*
X259510208Y-109859662D01*
X259517316Y-109866037D01*
X259544955Y-109892002D01*
X259593735Y-109867641D01*
X259650919Y-109848565D01*
X259707357Y-109846628D01*
X259758123Y-109860990D01*
X259798291Y-109890807D01*
X259808681Y-109904351D01*
X259813204Y-109916043D01*
X259824545Y-109945363D01*
G37*
D14*
%TO.C,C5*%
X147870580Y-109490000D02*
X147589420Y-109490000D01*
X147870580Y-110510000D02*
X147589420Y-110510000D01*
%TO.C,J4*%
X181170000Y-136230000D02*
X181170000Y-123470000D01*
X181170000Y-138830000D02*
X181170000Y-137500000D01*
X182500000Y-138830000D02*
X181170000Y-138830000D01*
X183830000Y-123470000D02*
X181170000Y-123470000D01*
X183830000Y-136230000D02*
X181170000Y-136230000D01*
X183830000Y-136230000D02*
X183830000Y-123470000D01*
%TO.C,J1*%
X189710000Y-100420000D02*
X210290000Y-100420000D01*
X189710000Y-109540000D02*
X189710000Y-100420000D01*
X191010000Y-101730000D02*
X208990000Y-101730000D01*
X191010000Y-108230000D02*
X191010000Y-101730000D01*
X194420000Y-110930000D02*
X195420000Y-110930000D01*
X194920000Y-109930000D02*
X194420000Y-110930000D01*
X195420000Y-110930000D02*
X194920000Y-109930000D01*
X197950000Y-108230000D02*
X191010000Y-108230000D01*
X197950000Y-109540000D02*
X197950000Y-108230000D01*
X202050000Y-108230000D02*
X202050000Y-108230000D01*
X202050000Y-108230000D02*
X202050000Y-109540000D01*
X208990000Y-101730000D02*
X208990000Y-108230000D01*
X208990000Y-108230000D02*
X202050000Y-108230000D01*
X210290000Y-100420000D02*
X210290000Y-109540000D01*
X210290000Y-109540000D02*
X189710000Y-109540000D01*
%TO.C,C3*%
X167490000Y-138415580D02*
X167490000Y-138134420D01*
X168510000Y-138415580D02*
X168510000Y-138134420D01*
%TO.C,J9*%
X223790000Y-136230000D02*
X223790000Y-123470000D01*
X223790000Y-138830000D02*
X223790000Y-137500000D01*
X225120000Y-138830000D02*
X223790000Y-138830000D01*
X226450000Y-123470000D02*
X223790000Y-123470000D01*
X226450000Y-136230000D02*
X223790000Y-136230000D01*
X226450000Y-136230000D02*
X226450000Y-123470000D01*
D10*
%TO.C,SW1*%
X158395000Y-111460000D02*
X166525000Y-111460000D01*
X158395000Y-116540000D02*
X158395000Y-111460000D01*
X165000000Y-111000000D02*
X165000000Y-111000000D01*
X165000000Y-111100000D02*
X165000000Y-111100000D01*
X166525000Y-111460000D02*
X166525000Y-116540000D01*
X166525000Y-116540000D02*
X158395000Y-116540000D01*
X165000000Y-111000000D02*
G75*
G02*
X165000000Y-111100000I0J-50000D01*
G01*
X165000000Y-111100000D02*
G75*
G02*
X165000000Y-111000000I0J50000D01*
G01*
D14*
%TO.C,C8*%
X236770000Y-136250000D02*
G75*
G02*
X230230000Y-136250000I-3270000J0D01*
G01*
X230230000Y-136250000D02*
G75*
G02*
X236770000Y-136250000I3270000J0D01*
G01*
%TO.C,C12*%
X202934420Y-118240000D02*
X203215580Y-118240000D01*
X202934420Y-119260000D02*
X203215580Y-119260000D01*
%TO.C,C1*%
X185740000Y-138415580D02*
X185740000Y-138134420D01*
X186760000Y-138415580D02*
X186760000Y-138134420D01*
%TO.C,C14*%
X197065580Y-120740000D02*
X196784420Y-120740000D01*
X197065580Y-121760000D02*
X196784420Y-121760000D01*
%TO.C,C6*%
X246370580Y-109490000D02*
X246089420Y-109490000D01*
X246370580Y-110510000D02*
X246089420Y-110510000D01*
%TO.C,C4*%
X170740000Y-138415580D02*
X170740000Y-138134420D01*
X171760000Y-138415580D02*
X171760000Y-138134420D01*
%TO.C,C13*%
X202934420Y-115740000D02*
X203215580Y-115740000D01*
X202934420Y-116760000D02*
X203215580Y-116760000D01*
%TO.C,C2*%
X194520000Y-138750000D02*
G75*
G02*
X187980000Y-138750000I-3270000J0D01*
G01*
X187980000Y-138750000D02*
G75*
G02*
X194520000Y-138750000I3270000J0D01*
G01*
%TO.C,J3*%
X230440000Y-100490000D02*
X230440000Y-106460000D01*
X230440000Y-106460000D02*
X240560000Y-106460000D01*
X230450000Y-104200000D02*
X231200000Y-104200000D01*
X230450000Y-105700000D02*
X230450000Y-106450000D01*
X230450000Y-106450000D02*
X232250000Y-106450000D01*
X231200000Y-101250000D02*
X235500000Y-101250000D01*
X231200000Y-104200000D02*
X231200000Y-101250000D01*
X232250000Y-105700000D02*
X230450000Y-105700000D01*
X232250000Y-106450000D02*
X232250000Y-105700000D01*
X233750000Y-105700000D02*
X233750000Y-106450000D01*
X233750000Y-106450000D02*
X237250000Y-106450000D01*
X237250000Y-105700000D02*
X233750000Y-105700000D01*
X237250000Y-106450000D02*
X237250000Y-105700000D01*
X238750000Y-105700000D02*
X238750000Y-106450000D01*
X238750000Y-106450000D02*
X240550000Y-106450000D01*
X239600000Y-106750000D02*
X240850000Y-106750000D01*
X239800000Y-101250000D02*
X235500000Y-101250000D01*
X239800000Y-104200000D02*
X239800000Y-101250000D01*
X240550000Y-104200000D02*
X239800000Y-104200000D01*
X240550000Y-105700000D02*
X238750000Y-105700000D01*
X240550000Y-106450000D02*
X240550000Y-105700000D01*
X240560000Y-100490000D02*
X230440000Y-100490000D01*
X240560000Y-106460000D02*
X240560000Y-100490000D01*
X240850000Y-106750000D02*
X240850000Y-105500000D01*
D13*
%TO.C,F1*%
X153205000Y-101435000D02*
X173015000Y-101435000D01*
X153205000Y-108200000D02*
X153205000Y-101435000D01*
D10*
X156375000Y-108700000D02*
X156375000Y-108700000D01*
X156375000Y-108800000D02*
X156375000Y-108800000D01*
D13*
X173015000Y-101435000D02*
X173015000Y-108200000D01*
X173015000Y-108200000D02*
X153205000Y-108200000D01*
D10*
X156375000Y-108700000D02*
G75*
G02*
X156375000Y-108800000I0J-50000D01*
G01*
X156375000Y-108800000D02*
G75*
G02*
X156375000Y-108700000I0J50000D01*
G01*
D14*
%TO.C,J8*%
X175800000Y-102865000D02*
X176390000Y-102865000D01*
X175800000Y-105085000D02*
X176390000Y-105085000D01*
X176390000Y-100765000D02*
X176390000Y-102865000D01*
X176390000Y-100765000D02*
X186510000Y-100765000D01*
X176390000Y-105085000D02*
X176390000Y-109985000D01*
X176390000Y-109985000D02*
X186510000Y-109985000D01*
X186510000Y-100765000D02*
X186510000Y-102865000D01*
X186510000Y-102865000D02*
X187100000Y-102865000D01*
X186510000Y-105085000D02*
X186510000Y-109985000D01*
X186510000Y-105085000D02*
X187100000Y-105085000D01*
X175800000Y-105085000D02*
G75*
G02*
X175800000Y-102865000I0J1110000D01*
G01*
X187100000Y-102865000D02*
G75*
G02*
X187100000Y-105085000I0J-1110000D01*
G01*
%TO.C,J2*%
X213040000Y-108240000D02*
X213040000Y-113850000D01*
X213040000Y-108240000D02*
X213890000Y-108240000D01*
X213890000Y-100540000D02*
X213890000Y-108240000D01*
X213890000Y-100540000D02*
X227910000Y-100540000D01*
X218450000Y-117960000D02*
X222190000Y-117960000D01*
X227910000Y-100540000D02*
X227910000Y-108240000D01*
X227910000Y-108240000D02*
X228760000Y-108240000D01*
X228760000Y-108240000D02*
X228760000Y-113850000D01*
X215910100Y-117808718D02*
G75*
G02*
X213040000Y-113850000I1239898J3918716D01*
G01*
X228760000Y-113850000D02*
G75*
G02*
X226766806Y-117372958I-4110000J0D01*
G01*
%TO.C,C9*%
X213360000Y-138415580D02*
X213360000Y-138134420D01*
X214380000Y-138415580D02*
X214380000Y-138134420D01*
%TO.C,J5*%
X173550000Y-136230000D02*
X173550000Y-123470000D01*
X173550000Y-138830000D02*
X173550000Y-137500000D01*
X174880000Y-138830000D02*
X173550000Y-138830000D01*
X176210000Y-123470000D02*
X173550000Y-123470000D01*
X176210000Y-136230000D02*
X173550000Y-136230000D01*
X176210000Y-136230000D02*
X176210000Y-123470000D01*
%TO.C,J10*%
X216170000Y-136230000D02*
X216170000Y-123470000D01*
X216170000Y-138830000D02*
X216170000Y-137500000D01*
X217500000Y-138830000D02*
X216170000Y-138830000D01*
X218830000Y-123470000D02*
X216170000Y-123470000D01*
X218830000Y-136230000D02*
X216170000Y-136230000D01*
X218830000Y-136230000D02*
X218830000Y-123470000D01*
%TO.C,C10*%
X210110000Y-138415580D02*
X210110000Y-138134420D01*
X211130000Y-138415580D02*
X211130000Y-138134420D01*
%TO.C,J7*%
X242440000Y-100490000D02*
X242440000Y-106460000D01*
X242440000Y-106460000D02*
X250060000Y-106460000D01*
X242450000Y-104200000D02*
X243200000Y-104200000D01*
X242450000Y-105700000D02*
X242450000Y-106450000D01*
X242450000Y-106450000D02*
X244250000Y-106450000D01*
X243200000Y-101250000D02*
X246250000Y-101250000D01*
X243200000Y-104200000D02*
X243200000Y-101250000D01*
X244250000Y-105700000D02*
X242450000Y-105700000D01*
X244250000Y-106450000D02*
X244250000Y-105700000D01*
X245750000Y-105700000D02*
X245750000Y-106450000D01*
X245750000Y-106450000D02*
X246750000Y-106450000D01*
X246750000Y-105700000D02*
X245750000Y-105700000D01*
X246750000Y-106450000D02*
X246750000Y-105700000D01*
X248250000Y-105700000D02*
X248250000Y-106450000D01*
X248250000Y-106450000D02*
X250050000Y-106450000D01*
X249100000Y-106750000D02*
X250350000Y-106750000D01*
X249300000Y-101250000D02*
X246250000Y-101250000D01*
X249300000Y-104200000D02*
X249300000Y-101250000D01*
X250050000Y-104200000D02*
X249300000Y-104200000D01*
X250050000Y-105700000D02*
X248250000Y-105700000D01*
X250050000Y-106450000D02*
X250050000Y-105700000D01*
X250060000Y-100490000D02*
X242440000Y-100490000D01*
X250060000Y-106460000D02*
X250060000Y-100490000D01*
X250350000Y-106750000D02*
X250350000Y-105500000D01*
%TD*%
%LPC*%
D16*
%TO.C,IC1*%
X202300000Y-126250000D03*
D17*
X200000000Y-132500000D03*
D16*
X197700000Y-126250000D03*
%TD*%
D18*
%TO.C,C11*%
X202300000Y-121250000D03*
X203850000Y-121250000D03*
%TD*%
D19*
%TO.C,J6*%
X149000000Y-103975000D03*
D20*
X146500000Y-103975000D03*
%TD*%
D21*
%TO.C,C7*%
X228575000Y-139050000D03*
X228575000Y-137500000D03*
%TD*%
D22*
%TO.C,C5*%
X148505000Y-110000000D03*
X146955000Y-110000000D03*
%TD*%
D23*
%TO.C,J4*%
X182500000Y-137500000D03*
D24*
X182500000Y-134960000D03*
X182500000Y-132420000D03*
X182500000Y-129880000D03*
X182500000Y-127340000D03*
X182500000Y-124800000D03*
%TD*%
D25*
%TO.C,J1*%
X194920000Y-106250000D03*
D26*
X194920000Y-103710000D03*
X197460000Y-106250000D03*
X197460000Y-103710000D03*
X200000000Y-106250000D03*
X200000000Y-103710000D03*
X202540000Y-106250000D03*
X202540000Y-103710000D03*
X205080000Y-106250000D03*
X205080000Y-103710000D03*
%TD*%
D21*
%TO.C,C3*%
X168000000Y-139050000D03*
X168000000Y-137500000D03*
%TD*%
D23*
%TO.C,J9*%
X225120000Y-137500000D03*
D24*
X225120000Y-134960000D03*
X225120000Y-132420000D03*
X225120000Y-129880000D03*
X225120000Y-127340000D03*
X225120000Y-124800000D03*
%TD*%
D27*
%TO.C,SW1*%
X165000000Y-114000000D03*
X162460000Y-114000000D03*
X159920000Y-114000000D03*
%TD*%
D28*
%TO.C,C8*%
X233500000Y-137500000D03*
X233500000Y-135000000D03*
%TD*%
D18*
%TO.C,C12*%
X202300000Y-118750000D03*
X203850000Y-118750000D03*
%TD*%
D21*
%TO.C,C1*%
X186250000Y-139050000D03*
X186250000Y-137500000D03*
%TD*%
D22*
%TO.C,C14*%
X197700000Y-121250000D03*
X196150000Y-121250000D03*
%TD*%
%TO.C,C6*%
X247005000Y-110000000D03*
X245455000Y-110000000D03*
%TD*%
D21*
%TO.C,C4*%
X171250000Y-139050000D03*
X171250000Y-137500000D03*
%TD*%
D18*
%TO.C,C13*%
X202300000Y-116250000D03*
X203850000Y-116250000D03*
%TD*%
D28*
%TO.C,C2*%
X191250000Y-137500000D03*
X191250000Y-140000000D03*
%TD*%
D29*
%TO.C,J3*%
X238000000Y-104000000D03*
D30*
X235500000Y-104000000D03*
X233000000Y-104000000D03*
%TD*%
D31*
%TO.C,F1*%
X156375000Y-103100000D03*
D32*
X156375000Y-106500000D03*
D31*
X169845000Y-103100000D03*
X169845000Y-106500000D03*
%TD*%
D33*
%TO.C,J8*%
X175950000Y-103975000D03*
X186950000Y-103975000D03*
D34*
X183950000Y-113975000D03*
D35*
X178950000Y-113975000D03*
%TD*%
D36*
%TO.C,J2*%
X214150000Y-110000000D03*
X227650000Y-110000000D03*
D37*
X224500000Y-116000000D03*
D38*
X217300000Y-116000000D03*
%TD*%
D21*
%TO.C,C9*%
X213870000Y-139050000D03*
X213870000Y-137500000D03*
%TD*%
D23*
%TO.C,J5*%
X174880000Y-137500000D03*
D24*
X174880000Y-134960000D03*
X174880000Y-132420000D03*
X174880000Y-129880000D03*
X174880000Y-127340000D03*
X174880000Y-124800000D03*
%TD*%
D23*
%TO.C,J10*%
X217500000Y-137500000D03*
D24*
X217500000Y-134960000D03*
X217500000Y-132420000D03*
X217500000Y-129880000D03*
X217500000Y-127340000D03*
X217500000Y-124800000D03*
%TD*%
D21*
%TO.C,C10*%
X210620000Y-139050000D03*
X210620000Y-137500000D03*
%TD*%
D19*
%TO.C,J7*%
X247500000Y-104000000D03*
D20*
X245000000Y-104000000D03*
%TD*%
%LPD*%
M02*
