%TF.GenerationSoftware,KiCad,Pcbnew,8.0.5*%
%TF.CreationDate,2025-12-13T14:06:30+09:00*%
%TF.ProjectId,main__,6d61696e-fa7f-42e6-9b69-6361645f7063,rev?*%
%TF.SameCoordinates,Original*%
%TF.FileFunction,Copper,L2,Bot*%
%TF.FilePolarity,Positive*%
%FSLAX46Y46*%
G04 Gerber Fmt 4.6, Leading zero omitted, Abs format (unit mm)*
G04 Created by KiCad (PCBNEW 8.0.5) date 2025-12-13 14:06:30*
%MOMM*%
%LPD*%
G01*
G04 APERTURE LIST*
G04 Aperture macros list*
%AMRoundRect*
0 Rectangle with rounded corners*
0 $1 Rounding radius*
0 $2 $3 $4 $5 $6 $7 $8 $9 X,Y pos of 4 corners*
0 Add a 4 corners polygon primitive as box body*
4,1,4,$2,$3,$4,$5,$6,$7,$8,$9,$2,$3,0*
0 Add four circle primitives for the rounded corners*
1,1,$1+$1,$2,$3*
1,1,$1+$1,$4,$5*
1,1,$1+$1,$6,$7*
1,1,$1+$1,$8,$9*
0 Add four rect primitives between the rounded corners*
20,1,$1+$1,$2,$3,$4,$5,0*
20,1,$1+$1,$4,$5,$6,$7,0*
20,1,$1+$1,$6,$7,$8,$9,0*
20,1,$1+$1,$8,$9,$2,$3,0*%
G04 Aperture macros list end*
%TA.AperFunction,ComponentPad*%
%ADD10RoundRect,0.250000X0.600000X0.725000X-0.600000X0.725000X-0.600000X-0.725000X0.600000X-0.725000X0*%
%TD*%
%TA.AperFunction,ComponentPad*%
%ADD11O,1.700000X1.950000*%
%TD*%
%TA.AperFunction,ComponentPad*%
%ADD12RoundRect,0.250000X-0.600000X-0.725000X0.600000X-0.725000X0.600000X0.725000X-0.600000X0.725000X0*%
%TD*%
%TA.AperFunction,ComponentPad*%
%ADD13R,1.700000X1.700000*%
%TD*%
%TA.AperFunction,ComponentPad*%
%ADD14O,1.700000X1.700000*%
%TD*%
%TA.AperFunction,ComponentPad*%
%ADD15RoundRect,0.250000X-0.600000X-0.750000X0.600000X-0.750000X0.600000X0.750000X-0.600000X0.750000X0*%
%TD*%
%TA.AperFunction,ComponentPad*%
%ADD16O,1.700000X2.000000*%
%TD*%
%TA.AperFunction,ComponentPad*%
%ADD17RoundRect,0.250000X-0.600000X0.600000X-0.600000X-0.600000X0.600000X-0.600000X0.600000X0.600000X0*%
%TD*%
%TA.AperFunction,ComponentPad*%
%ADD18C,1.700000*%
%TD*%
%TA.AperFunction,ComponentPad*%
%ADD19C,1.600000*%
%TD*%
%TA.AperFunction,ComponentPad*%
%ADD20C,1.676400*%
%TD*%
%TA.AperFunction,ComponentPad*%
%ADD21C,1.440000*%
%TD*%
%TA.AperFunction,ComponentPad*%
%ADD22C,1.950000*%
%TD*%
%TA.AperFunction,ViaPad*%
%ADD23C,0.600000*%
%TD*%
%TA.AperFunction,ViaPad*%
%ADD24C,0.800000*%
%TD*%
%TA.AperFunction,Conductor*%
%ADD25C,0.200000*%
%TD*%
%TA.AperFunction,Conductor*%
%ADD26C,1.000000*%
%TD*%
%TA.AperFunction,Conductor*%
%ADD27C,0.500000*%
%TD*%
G04 APERTURE END LIST*
D10*
%TO.P,J7,1,Pin_1*%
%TO.N,+3.3V*%
X184000000Y-131000000D03*
D11*
%TO.P,J7,2,Pin_2*%
%TO.N,GND*%
X181500000Y-131000000D03*
%TO.P,J7,3,Pin_3*%
%TO.N,A5*%
X179000000Y-131000000D03*
%TO.P,J7,4,Pin_4*%
%TO.N,A6*%
X176500000Y-131000000D03*
%TO.P,J7,5,Pin_5*%
%TO.N,A7*%
X174000000Y-131000000D03*
%TO.P,J7,6,Pin_6*%
%TO.N,A8*%
X171500000Y-131000000D03*
%TO.P,J7,7,Pin_7*%
%TO.N,A9*%
X169000000Y-131000000D03*
%TD*%
D12*
%TO.P,J3,1,Pin_1*%
%TO.N,+5V*%
X187500000Y-68500000D03*
D11*
%TO.P,J3,2,Pin_2*%
%TO.N,GND*%
X190000000Y-68500000D03*
%TO.P,J3,3,Pin_3*%
%TO.N,TOUCH*%
X192500000Y-68500000D03*
%TO.P,J3,4,Pin_4*%
%TO.N,LED_cathode*%
X195000000Y-68500000D03*
%TD*%
D13*
%TO.P,J4,1,Pin_1*%
%TO.N,+3.3V*%
X234880000Y-98750000D03*
D14*
%TO.P,J4,2,Pin_2*%
%TO.N,GND*%
X234880000Y-101290000D03*
%TO.P,J4,3,Pin_3*%
%TO.N,Gyro SDA*%
X234880000Y-103830000D03*
%TO.P,J4,4,Pin_4*%
%TO.N,Gyro SCL*%
X234880000Y-106370000D03*
%TD*%
D15*
%TO.P,J2,1,Pin_1*%
%TO.N,Net-(J2-Pin_1)*%
X210000000Y-68500000D03*
D16*
%TO.P,J2,2,Pin_2*%
%TO.N,LED_cathode*%
X212500000Y-68500000D03*
%TD*%
D13*
%TO.P,J8,1,Pin_1*%
%TO.N,unconnected-(J8-Pin_1-Pad1)*%
X242500000Y-98750000D03*
D14*
%TO.P,J8,2,Pin_2*%
%TO.N,GND*%
X242500000Y-101290000D03*
%TO.P,J8,3,Pin_3*%
%TO.N,unconnected-(J8-Pin_3-Pad3)*%
X242500000Y-103830000D03*
%TO.P,J8,4,Pin_4*%
%TO.N,unconnected-(J8-Pin_4-Pad4)*%
X242500000Y-106370000D03*
%TD*%
D17*
%TO.P,J1,1,Pin_1*%
%TO.N,GND*%
X205080000Y-128000000D03*
D18*
%TO.P,J1,2,Pin_2*%
X205080000Y-130540000D03*
%TO.P,J1,3,Pin_3*%
X202540000Y-128000000D03*
%TO.P,J1,4,Pin_4*%
%TO.N,+9V*%
X202540000Y-130540000D03*
%TO.P,J1,5,Pin_5*%
%TO.N,PWM4*%
X200000000Y-128000000D03*
%TO.P,J1,6,Pin_6*%
%TO.N,+9V*%
X200000000Y-130540000D03*
%TO.P,J1,7,Pin_7*%
%TO.N,PWM2*%
X197460000Y-128000000D03*
%TO.P,J1,8,Pin_8*%
%TO.N,PWM3*%
X197460000Y-130540000D03*
%TO.P,J1,9,Pin_9*%
%TO.N,PWM0*%
X194920000Y-128000000D03*
%TO.P,J1,10,Pin_10*%
%TO.N,PWM1*%
X194920000Y-130540000D03*
%TD*%
D12*
%TO.P,J6,1,Pin_1*%
%TO.N,+3.3V*%
X165000000Y-68500000D03*
D11*
%TO.P,J6,2,Pin_2*%
%TO.N,GND*%
X167500000Y-68500000D03*
%TO.P,J6,3,Pin_3*%
%TO.N,A0*%
X170000000Y-68500000D03*
%TO.P,J6,4,Pin_4*%
%TO.N,A1*%
X172500000Y-68500000D03*
%TO.P,J6,5,Pin_5*%
%TO.N,A2*%
X175000000Y-68500000D03*
%TO.P,J6,6,Pin_6*%
%TO.N,A3*%
X177500000Y-68500000D03*
%TO.P,J6,7,Pin_7*%
%TO.N,A4*%
X180000000Y-68500000D03*
%TD*%
D19*
%TO.P,C1,1*%
%TO.N,+9V*%
X177500000Y-124250000D03*
%TO.P,C1,2*%
%TO.N,GND*%
X177500000Y-121750000D03*
%TD*%
D10*
%TO.P,J5,1,Pin_1*%
%TO.N,IR RX*%
X224500000Y-130000000D03*
D11*
%TO.P,J5,2,Pin_2*%
%TO.N,IR TX*%
X222000000Y-130000000D03*
%TO.P,J5,3,Pin_3*%
%TO.N,+9V*%
X219500000Y-130000000D03*
%TO.P,J5,4,Pin_4*%
%TO.N,GND*%
X217000000Y-130000000D03*
%TO.P,J5,5,Pin_5*%
%TO.N,+3.3V*%
X214500000Y-130000000D03*
%TD*%
D20*
%TO.P,U1,3V3,3V3*%
%TO.N,+3.3V*%
X182420000Y-115240000D03*
X182420000Y-117780000D03*
%TO.P,U1,5V,5V*%
%TO.N,+5V*%
X179880000Y-115240000D03*
X179880000Y-117780000D03*
X225600000Y-100000000D03*
%TO.P,U1,A0,D54/A0*%
%TO.N,A0*%
X187500000Y-82220000D03*
%TO.P,U1,A1,D55/A1*%
%TO.N,A1*%
X187500000Y-84760000D03*
%TO.P,U1,A2,D56/A2*%
%TO.N,A2*%
X190040000Y-82220000D03*
%TO.P,U1,A3,D57/A3*%
%TO.N,A3*%
X190040000Y-84760000D03*
%TO.P,U1,A4,D58/A4*%
%TO.N,A4*%
X192580000Y-82220000D03*
%TO.P,U1,A5,D59/A5*%
%TO.N,A5*%
X192580000Y-84760000D03*
%TO.P,U1,A6,D60/A6*%
%TO.N,A6*%
X195120000Y-82220000D03*
%TO.P,U1,A7,D61/A7*%
%TO.N,A7*%
X195120000Y-84760000D03*
%TO.P,U1,A8,D62/A8*%
%TO.N,A8*%
X197660000Y-82220000D03*
%TO.P,U1,A9,D63/A9*%
%TO.N,A9*%
X197660000Y-84760000D03*
%TO.P,U1,A10,D64/A10*%
%TO.N,TOUCH*%
X200200000Y-82220000D03*
%TO.P,U1,A11,D65/A11*%
%TO.N,unconnected-(U1-D65{slash}A11-PadA11)*%
X200200000Y-84760000D03*
%TO.P,U1,A12,D66/A12*%
%TO.N,unconnected-(U1-D66{slash}A12-PadA12)*%
X202740000Y-82220000D03*
%TO.P,U1,A13,D67/A13*%
%TO.N,unconnected-(U1-D67{slash}A13-PadA13)*%
X202740000Y-84760000D03*
%TO.P,U1,A14,D68/A14*%
%TO.N,unconnected-(U1-D68{slash}A14-PadA14)*%
X205280000Y-82220000D03*
%TO.P,U1,A15,D69/A15*%
%TO.N,unconnected-(U1-D69{slash}A15-PadA15)*%
X205280000Y-84760000D03*
%TO.P,U1,AREF,AREF*%
%TO.N,unconnected-(U1-PadAREF)*%
X184960000Y-115240000D03*
%TO.P,U1,D2,D2/PWM0*%
%TO.N,PWM0*%
X190040000Y-115240000D03*
%TO.P,U1,D3,D3/PWM1*%
%TO.N,PWM1*%
X190040000Y-117780000D03*
%TO.P,U1,D4,D4/PWM2*%
%TO.N,unconnected-(U1-D4{slash}PWM2-PadD4)*%
X192580000Y-115240000D03*
%TO.P,U1,D5,D5/PWM3*%
%TO.N,unconnected-(U1-D5{slash}PWM3-PadD5)*%
X192580000Y-117780000D03*
%TO.P,U1,D6,D6/PWM4*%
%TO.N,PWM2*%
X195120000Y-115240000D03*
%TO.P,U1,D7,D7/PWM5*%
%TO.N,PWM3*%
X195120000Y-117780000D03*
%TO.P,U1,D8,D8/PWM6*%
%TO.N,unconnected-(U1-D8{slash}PWM6-PadD8)*%
X197660000Y-115240000D03*
%TO.P,U1,D9,D9/PWM7*%
%TO.N,unconnected-(U1-D9{slash}PWM7-PadD9)*%
X197660000Y-117780000D03*
%TO.P,U1,D10,D10/PWM8*%
%TO.N,unconnected-(U1-D10{slash}PWM8-PadD10)*%
X200200000Y-115240000D03*
%TO.P,U1,D11,D11/PWM9*%
%TO.N,unconnected-(U1-D11{slash}PWM9-PadD11)*%
X200200000Y-117780000D03*
%TO.P,U1,D12,D12/PWM10*%
%TO.N,unconnected-(U1-D12{slash}PWM10-PadD12)*%
X202740000Y-115240000D03*
%TO.P,U1,D13,D13/PWM11*%
%TO.N,unconnected-(U1-D13{slash}PWM11-PadD13)*%
X202740000Y-117780000D03*
%TO.P,U1,D14,D14/TX3*%
%TO.N,unconnected-(U1-D14{slash}TX3-PadD14)*%
X205280000Y-115240000D03*
%TO.P,U1,D15,D15/RX3*%
%TO.N,unconnected-(U1-D15{slash}RX3-PadD15)*%
X205280000Y-117780000D03*
%TO.P,U1,D16,D16/TX2*%
%TO.N,unconnected-(U1-D16{slash}TX2-PadD16)*%
X207820000Y-115240000D03*
%TO.P,U1,D17,D17/RX2*%
%TO.N,unconnected-(U1-D17{slash}RX2-PadD17)*%
X207820000Y-117780000D03*
%TO.P,U1,D18,D18/TX1*%
%TO.N,IR RX*%
X210360000Y-115240000D03*
%TO.P,U1,D19,D19/RX1*%
%TO.N,IR TX*%
X210360000Y-117780000D03*
%TO.P,U1,D20,D20/SDA*%
%TO.N,Gyro SDA*%
X212900000Y-115240000D03*
%TO.P,U1,D21,D21/SCL*%
%TO.N,Gyro SCL*%
X212900000Y-117780000D03*
%TO.P,U1,D22,D22*%
%TO.N,D22*%
X215440000Y-115240000D03*
%TO.P,U1,D23,D23*%
%TO.N,unconnected-(U1-PadD23)*%
X215440000Y-117780000D03*
%TO.P,U1,D24,D24*%
%TO.N,unconnected-(U1-PadD24)*%
X217980000Y-115240000D03*
%TO.P,U1,D25,D25*%
%TO.N,unconnected-(U1-PadD25)*%
X217980000Y-117780000D03*
%TO.P,U1,D26,D26*%
%TO.N,unconnected-(U1-PadD26)*%
X220520000Y-115240000D03*
%TO.P,U1,D27,D27*%
%TO.N,unconnected-(U1-PadD27)*%
X220520000Y-117780000D03*
%TO.P,U1,D28,D28*%
%TO.N,unconnected-(U1-PadD28)*%
X223060000Y-115240000D03*
%TO.P,U1,D29,D29*%
%TO.N,unconnected-(U1-PadD29)*%
X223060000Y-117780000D03*
%TO.P,U1,D30,D30*%
%TO.N,unconnected-(U1-PadD30)*%
X225600000Y-115240000D03*
%TO.P,U1,D31,D31*%
%TO.N,unconnected-(U1-PadD31)*%
X225600000Y-117780000D03*
%TO.P,U1,D32,D32*%
%TO.N,unconnected-(U1-PadD32)*%
X207820000Y-82220000D03*
%TO.P,U1,D33,D33*%
%TO.N,unconnected-(U1-PadD33)*%
X207820000Y-84760000D03*
%TO.P,U1,D34,D34*%
%TO.N,unconnected-(U1-PadD34)*%
X210360000Y-82220000D03*
%TO.P,U1,D35,D35*%
%TO.N,unconnected-(U1-PadD35)*%
X210360000Y-84760000D03*
%TO.P,U1,D36,D36*%
%TO.N,unconnected-(U1-PadD36)*%
X212900000Y-82220000D03*
%TO.P,U1,D37,D37*%
%TO.N,unconnected-(U1-PadD37)*%
X212900000Y-84760000D03*
%TO.P,U1,D38,D38*%
%TO.N,unconnected-(U1-PadD38)*%
X215440000Y-82220000D03*
%TO.P,U1,D39,D39*%
%TO.N,unconnected-(U1-PadD39)*%
X215440000Y-84760000D03*
%TO.P,U1,D40,D40*%
%TO.N,unconnected-(U1-PadD40)*%
X217980000Y-82220000D03*
%TO.P,U1,D41,D41*%
%TO.N,unconnected-(U1-PadD41)*%
X217980000Y-84760000D03*
%TO.P,U1,D42,D42*%
%TO.N,unconnected-(U1-PadD42)*%
X220520000Y-82220000D03*
%TO.P,U1,D43,D43*%
%TO.N,unconnected-(U1-PadD43)*%
X220520000Y-84760000D03*
%TO.P,U1,D44,D44/PWM12*%
%TO.N,PWM4*%
X223060000Y-82220000D03*
%TO.P,U1,D45,D45/PWM13*%
%TO.N,unconnected-(U1-D45{slash}PWM13-PadD45)*%
X223060000Y-84760000D03*
%TO.P,U1,D46,D46/PWM14*%
%TO.N,unconnected-(U1-D46{slash}PWM14-PadD46)*%
X225600000Y-82220000D03*
%TO.P,U1,D47,D47*%
%TO.N,unconnected-(U1-PadD47)*%
X225600000Y-84760000D03*
%TO.P,U1,D48,D48*%
%TO.N,unconnected-(U1-PadD48)*%
X225600000Y-87300000D03*
%TO.P,U1,D49,D49*%
%TO.N,unconnected-(U1-PadD49)*%
X223060000Y-87300000D03*
%TO.P,U1,D50,D50*%
%TO.N,unconnected-(U1-PadD50)*%
X225600000Y-89840000D03*
%TO.P,U1,D51,D51*%
%TO.N,unconnected-(U1-PadD51)*%
X223060000Y-89840000D03*
%TO.P,U1,D52,D52/PWM15*%
%TO.N,unconnected-(U1-D52{slash}PWM15-PadD52)*%
X225600000Y-92380000D03*
%TO.P,U1,D53,D53*%
%TO.N,unconnected-(U1-PadD53)*%
X223060000Y-92380000D03*
%TO.P,U1,GND,GND*%
%TO.N,GND*%
X177340000Y-115240000D03*
X177340000Y-117780000D03*
X225600000Y-105080000D03*
%TO.P,U1,MISO,MISO*%
%TO.N,unconnected-(U1-PadMISO)*%
X223060000Y-100000000D03*
%TO.P,U1,MOSI,MOSI*%
%TO.N,unconnected-(U1-PadMOSI)*%
X225600000Y-102540000D03*
%TO.P,U1,RESET,RESET*%
%TO.N,unconnected-(U1-PadRESET)*%
X223060000Y-105080000D03*
%TO.P,U1,RST,RST*%
%TO.N,unconnected-(U1-PadRST)*%
X184960000Y-117780000D03*
%TO.P,U1,RX,D0/RX0*%
%TO.N,unconnected-(U1-D0{slash}RX0-PadRX)*%
X187500000Y-115240000D03*
%TO.P,U1,SCK,SCK*%
%TO.N,unconnected-(U1-PadSCK)*%
X223060000Y-102540000D03*
%TO.P,U1,TX,D1/TX0*%
%TO.N,unconnected-(U1-D1{slash}TX0-PadTX)*%
X187500000Y-117780000D03*
%TO.P,U1,VIN,VIN*%
%TO.N,+9V*%
X174800000Y-115240000D03*
X174800000Y-117780000D03*
%TD*%
D21*
%TO.P,RV1,1,1*%
%TO.N,Net-(J2-Pin_1)*%
X219500000Y-69480000D03*
%TO.P,RV1,2,2*%
%TO.N,+5V*%
X222040000Y-72020000D03*
%TO.P,RV1,3,3*%
%TO.N,unconnected-(RV1-Pad3)*%
X224580000Y-69480000D03*
%TD*%
D22*
%TO.P,S1,1,COM_1*%
%TO.N,GND*%
X242650000Y-123500000D03*
%TO.P,S1,2,COM_2*%
%TO.N,unconnected-(S1-COM_2-Pad2)*%
X230150000Y-123500000D03*
%TO.P,S1,3,NO_1*%
%TO.N,unconnected-(S1-NO_1-Pad3)*%
X242650000Y-118500000D03*
%TO.P,S1,4,NO_2*%
%TO.N,D22*%
X230150000Y-118500000D03*
%TD*%
D23*
%TO.N,PWM3*%
X192800000Y-130046346D03*
%TO.N,GND*%
X201225000Y-131800000D03*
X208300000Y-128975000D03*
X200250000Y-124575000D03*
X194825000Y-124250000D03*
X221175000Y-73550000D03*
X216425000Y-73425000D03*
X202325000Y-73350000D03*
X181675000Y-133500000D03*
X228775000Y-129325000D03*
X222850000Y-122175000D03*
X237350000Y-75450000D03*
X237225000Y-91625000D03*
X173400000Y-70650000D03*
X182975000Y-80025000D03*
X179850000Y-77250000D03*
X175175000Y-72425000D03*
X179750000Y-72650000D03*
X177550000Y-70500000D03*
X187725000Y-79125000D03*
X185275000Y-79075000D03*
X184125000Y-76425000D03*
X219650000Y-66425000D03*
X228300000Y-92975000D03*
D24*
X217030000Y-127890000D03*
D23*
X155175000Y-85200000D03*
X185175000Y-105550000D03*
X176700000Y-126725000D03*
X232450000Y-95425000D03*
X233025000Y-82550000D03*
X187475000Y-121950000D03*
X154600000Y-66800000D03*
X198975000Y-66575000D03*
X171075000Y-117475000D03*
X163050000Y-66575000D03*
X214950000Y-102875000D03*
X202475000Y-69025000D03*
X159825000Y-133250000D03*
X221700000Y-108075000D03*
X183800000Y-66775000D03*
X245525000Y-107325000D03*
X161775000Y-102075000D03*
X192675000Y-77525000D03*
X204325000Y-111300000D03*
X201250000Y-119925000D03*
X245650000Y-126050000D03*
X206550000Y-87225000D03*
X167150000Y-106950000D03*
X174425000Y-96450000D03*
X233025000Y-122225000D03*
X180550000Y-120425000D03*
X228200000Y-86900000D03*
X245575000Y-98075000D03*
X235600000Y-67225000D03*
X191075000Y-71150000D03*
X161400000Y-112725000D03*
X202875000Y-93400000D03*
X192800000Y-109625000D03*
X245600000Y-66775000D03*
X171050000Y-76825000D03*
X228000000Y-82000000D03*
X234825000Y-133300000D03*
X189325000Y-87925000D03*
X167400000Y-94675000D03*
X222400000Y-80125000D03*
X208150000Y-125775000D03*
X245575000Y-72475000D03*
X226350000Y-78900000D03*
X179550000Y-109850000D03*
X155925000Y-111375000D03*
X177775000Y-111625000D03*
X189900000Y-76275000D03*
X160650000Y-123250000D03*
X216950000Y-133675000D03*
X187875000Y-133675000D03*
X201225000Y-78950000D03*
X160775000Y-77400000D03*
X189075000Y-130350000D03*
X169525000Y-82150000D03*
X245900000Y-92000000D03*
X181300000Y-95825000D03*
X155300000Y-121525000D03*
X226850000Y-108400000D03*
X204925000Y-121925000D03*
X209325000Y-120200000D03*
X231925000Y-133375000D03*
X232450000Y-89450000D03*
X245600000Y-117025000D03*
X154325000Y-133075000D03*
X200350000Y-87000000D03*
X192200000Y-98150000D03*
X172250000Y-127150000D03*
X245725000Y-133525000D03*
X159375000Y-89800000D03*
X229325000Y-67475000D03*
X210300000Y-130200000D03*
X212825000Y-79625000D03*
X209250000Y-133675000D03*
X180925000Y-89175000D03*
X154925000Y-75175000D03*
X218725000Y-87175000D03*
X191325000Y-66425000D03*
X213850000Y-126175000D03*
X210375000Y-92900000D03*
X174800000Y-102575000D03*
X187675000Y-72375000D03*
X206750000Y-75525000D03*
X231725000Y-114200000D03*
X171250000Y-66500000D03*
X174300000Y-83800000D03*
X240225000Y-133450000D03*
X245500000Y-76950000D03*
X195875000Y-79950000D03*
X199675000Y-133675000D03*
X200150000Y-103325000D03*
X185150000Y-127325000D03*
X217400000Y-93300000D03*
X192000000Y-133650000D03*
X196250000Y-75775000D03*
X213100000Y-87450000D03*
X206625000Y-66500000D03*
X235800000Y-110050000D03*
X155425000Y-98475000D03*
X183800000Y-70500000D03*
X236525000Y-118700000D03*
X169275000Y-121550000D03*
X196675000Y-93250000D03*
X178800000Y-66450000D03*
X218525000Y-75600000D03*
X230725000Y-101225000D03*
X185775000Y-120225000D03*
X242350000Y-110225000D03*
X211775000Y-121525000D03*
X236600000Y-123200000D03*
X245775000Y-82350000D03*
X242525000Y-92400000D03*
%TO.N,+3.3V*%
X228292500Y-74682500D03*
%TO.N,A1*%
X184140000Y-81190000D03*
%TO.N,A3*%
X182120000Y-75675000D03*
%TD*%
D25*
%TO.N,PWM3*%
X192800000Y-120100000D02*
X195120000Y-117780000D01*
X192800000Y-130046346D02*
X192800000Y-120100000D01*
D26*
%TO.N,+9V*%
X184650000Y-124250000D02*
X177500000Y-124250000D01*
X193400000Y-133000000D02*
X184650000Y-124250000D01*
X197540000Y-133000000D02*
X193400000Y-133000000D01*
X200000000Y-130540000D02*
X197540000Y-133000000D01*
D25*
%TO.N,PWM4*%
X202825000Y-125175000D02*
X200000000Y-128000000D01*
X237795000Y-125175000D02*
X202825000Y-125175000D01*
X239030000Y-123940000D02*
X237795000Y-125175000D01*
D26*
%TO.N,+9V*%
X219500000Y-131225000D02*
X219500000Y-130000000D01*
X218175000Y-132550000D02*
X219500000Y-131225000D01*
X204550000Y-132550000D02*
X218175000Y-132550000D01*
X202540000Y-130540000D02*
X204550000Y-132550000D01*
X200000000Y-130540000D02*
X202540000Y-130540000D01*
D27*
%TO.N,+5V*%
X187500000Y-70100000D02*
X187500000Y-68500000D01*
X189420000Y-72020000D02*
X187500000Y-70100000D01*
X222040000Y-72020000D02*
X189420000Y-72020000D01*
%TO.N,+3.3V*%
X165000000Y-69650000D02*
X165000000Y-68500000D01*
X195289339Y-74650000D02*
X195264339Y-74675000D01*
X195910661Y-74650000D02*
X195289339Y-74650000D01*
X228285000Y-74675000D02*
X195935661Y-74675000D01*
X195264339Y-74675000D02*
X170025000Y-74675000D01*
X170025000Y-74675000D02*
X165000000Y-69650000D01*
X228292500Y-74682500D02*
X228285000Y-74675000D01*
X195935661Y-74675000D02*
X195910661Y-74650000D01*
D25*
%TO.N,A3*%
X188350000Y-86450000D02*
X190040000Y-84760000D01*
X182120000Y-82910000D02*
X185660000Y-86450000D01*
X185660000Y-86450000D02*
X188350000Y-86450000D01*
X182120000Y-75675000D02*
X182120000Y-82910000D01*
%TO.N,PWM4*%
X239030000Y-123940000D02*
X239030000Y-87050000D01*
X239030000Y-87050000D02*
X232130000Y-80150000D01*
X225130000Y-80150000D02*
X223060000Y-82220000D01*
X232130000Y-80150000D02*
X225130000Y-80150000D01*
%TO.N,A1*%
X184140000Y-81190000D02*
X184140000Y-81400000D01*
X184140000Y-81400000D02*
X187500000Y-84760000D01*
%TD*%
%TA.AperFunction,Conductor*%
%TO.N,GND*%
G36*
X224406645Y-103178447D02*
G01*
X224432294Y-103208048D01*
X224433118Y-103207472D01*
X224436222Y-103211905D01*
X224436223Y-103211907D01*
X224570579Y-103403787D01*
X224736213Y-103569421D01*
X224928093Y-103703777D01*
X224928094Y-103703777D01*
X224932528Y-103706882D01*
X224931613Y-103708187D01*
X224974787Y-103753456D01*
X224988018Y-103822061D01*
X224962058Y-103886929D01*
X224932236Y-103912779D01*
X224932778Y-103913553D01*
X224847099Y-103973544D01*
X224847098Y-103973545D01*
X225553554Y-104680000D01*
X225547339Y-104680000D01*
X225445606Y-104707259D01*
X225354394Y-104759920D01*
X225279920Y-104834394D01*
X225227259Y-104925606D01*
X225200000Y-105027339D01*
X225200000Y-105033553D01*
X224493545Y-104327098D01*
X224493544Y-104327099D01*
X224433553Y-104412778D01*
X224432187Y-104411821D01*
X224387081Y-104454808D01*
X224318471Y-104468014D01*
X224253613Y-104442029D01*
X224227614Y-104412014D01*
X224226882Y-104412528D01*
X224223777Y-104408093D01*
X224089421Y-104216213D01*
X223923787Y-104050579D01*
X223731907Y-103916223D01*
X223731905Y-103916222D01*
X223727472Y-103913118D01*
X223728481Y-103911676D01*
X223685712Y-103866828D01*
X223672484Y-103798222D01*
X223698447Y-103733355D01*
X223728048Y-103707705D01*
X223727472Y-103706882D01*
X223731905Y-103703777D01*
X223731907Y-103703777D01*
X223923787Y-103569421D01*
X224089421Y-103403787D01*
X224223777Y-103211907D01*
X224223777Y-103211905D01*
X224226882Y-103207472D01*
X224228323Y-103208481D01*
X224273172Y-103165712D01*
X224341778Y-103152484D01*
X224406645Y-103178447D01*
G37*
%TD.AperFunction*%
%TA.AperFunction,Conductor*%
G36*
X246192539Y-66020185D02*
G01*
X246238294Y-66072989D01*
X246249500Y-66124500D01*
X246249500Y-133875500D01*
X246229815Y-133942539D01*
X246177011Y-133988294D01*
X246125500Y-133999500D01*
X198253392Y-133999500D01*
X198186353Y-133979815D01*
X198140598Y-133927011D01*
X198130654Y-133857853D01*
X198159679Y-133794297D01*
X198174725Y-133779648D01*
X198177776Y-133777142D01*
X198177782Y-133777139D01*
X198317139Y-133637782D01*
X198317139Y-133637780D01*
X198327347Y-133627573D01*
X198327348Y-133627570D01*
X200033031Y-131921888D01*
X200094352Y-131888405D01*
X200109896Y-131886044D01*
X200235408Y-131875063D01*
X200463663Y-131813903D01*
X200677830Y-131714035D01*
X200871401Y-131578495D01*
X200873077Y-131576819D01*
X200873995Y-131576317D01*
X200875544Y-131575018D01*
X200875805Y-131575329D01*
X200934400Y-131543334D01*
X200960758Y-131540500D01*
X201579242Y-131540500D01*
X201646281Y-131560185D01*
X201666923Y-131576819D01*
X201668599Y-131578495D01*
X201761310Y-131643412D01*
X201862165Y-131714032D01*
X201862167Y-131714033D01*
X201862170Y-131714035D01*
X202076337Y-131813903D01*
X202076343Y-131813904D01*
X202076344Y-131813905D01*
X202131285Y-131828626D01*
X202304592Y-131875063D01*
X202430096Y-131886043D01*
X202495164Y-131911495D01*
X202506969Y-131921890D01*
X203772860Y-133187781D01*
X203772861Y-133187782D01*
X203912218Y-133327139D01*
X203912219Y-133327140D01*
X204076079Y-133436628D01*
X204076092Y-133436635D01*
X204204833Y-133489961D01*
X204247744Y-133507735D01*
X204258164Y-133512051D01*
X204354812Y-133531275D01*
X204403135Y-133540887D01*
X204451458Y-133550500D01*
X204451459Y-133550500D01*
X218273542Y-133550500D01*
X218292870Y-133546655D01*
X218370188Y-133531275D01*
X218466836Y-133512051D01*
X218520165Y-133489961D01*
X218648914Y-133436632D01*
X218812782Y-133327139D01*
X218952139Y-133187782D01*
X218952140Y-133187779D01*
X218959206Y-133180714D01*
X218959209Y-133180710D01*
X220137778Y-132002141D01*
X220137782Y-132002139D01*
X220277139Y-131862782D01*
X220386632Y-131698914D01*
X220462051Y-131516835D01*
X220483339Y-131409814D01*
X220500500Y-131323543D01*
X220500500Y-131085199D01*
X220520185Y-131018160D01*
X220529426Y-131005725D01*
X220530346Y-131004459D01*
X220649683Y-130840204D01*
X220705011Y-130797540D01*
X220774624Y-130791561D01*
X220836420Y-130824166D01*
X220850313Y-130840199D01*
X220922894Y-130940099D01*
X220969896Y-131004792D01*
X221120213Y-131155109D01*
X221292179Y-131280048D01*
X221292181Y-131280049D01*
X221292184Y-131280051D01*
X221481588Y-131376557D01*
X221683757Y-131442246D01*
X221893713Y-131475500D01*
X221893714Y-131475500D01*
X222106286Y-131475500D01*
X222106287Y-131475500D01*
X222316243Y-131442246D01*
X222518412Y-131376557D01*
X222707816Y-131280051D01*
X222793451Y-131217834D01*
X222879784Y-131155110D01*
X222879784Y-131155109D01*
X222879792Y-131155104D01*
X223018604Y-131016291D01*
X223079923Y-130982809D01*
X223149615Y-130987793D01*
X223205549Y-131029664D01*
X223211821Y-131038878D01*
X223215185Y-131044333D01*
X223215186Y-131044334D01*
X223307288Y-131193656D01*
X223431344Y-131317712D01*
X223580666Y-131409814D01*
X223747203Y-131464999D01*
X223849991Y-131475500D01*
X225150008Y-131475499D01*
X225252797Y-131464999D01*
X225419334Y-131409814D01*
X225568656Y-131317712D01*
X225692712Y-131193656D01*
X225784814Y-131044334D01*
X225799505Y-131000000D01*
X241159076Y-131000000D01*
X241178550Y-131284708D01*
X241178550Y-131284712D01*
X241178551Y-131284714D01*
X241193027Y-131354376D01*
X241236613Y-131564127D01*
X241236614Y-131564130D01*
X241332179Y-131833022D01*
X241332178Y-131833022D01*
X241460370Y-132080421D01*
X241463474Y-132086411D01*
X241628047Y-132319557D01*
X241628051Y-132319561D01*
X241628051Y-132319562D01*
X241822836Y-132528125D01*
X241946652Y-132628856D01*
X242044205Y-132708222D01*
X242044207Y-132708223D01*
X242044208Y-132708224D01*
X242288040Y-132856502D01*
X242288045Y-132856504D01*
X242418915Y-132913348D01*
X242549792Y-132970196D01*
X242824589Y-133047190D01*
X243073144Y-133081354D01*
X243107309Y-133086050D01*
X243107310Y-133086050D01*
X243392691Y-133086050D01*
X243423171Y-133081860D01*
X243675411Y-133047190D01*
X243950208Y-132970196D01*
X244211961Y-132856501D01*
X244455795Y-132708222D01*
X244677167Y-132528122D01*
X244871953Y-132319557D01*
X245036526Y-132086411D01*
X245167819Y-131833026D01*
X245263387Y-131564125D01*
X245321449Y-131284714D01*
X245340924Y-131000000D01*
X245321449Y-130715286D01*
X245263387Y-130435875D01*
X245249168Y-130395868D01*
X245171118Y-130176257D01*
X245167820Y-130166977D01*
X245167821Y-130166977D01*
X245096173Y-130028703D01*
X245036526Y-129913589D01*
X244871953Y-129680443D01*
X244871948Y-129680437D01*
X244704839Y-129501508D01*
X244677167Y-129471878D01*
X244677165Y-129471877D01*
X244677163Y-129471874D01*
X244455791Y-129291775D01*
X244211959Y-129143497D01*
X244211954Y-129143495D01*
X243950213Y-129029806D01*
X243950211Y-129029805D01*
X243950208Y-129029804D01*
X243812513Y-128991224D01*
X243675417Y-128952811D01*
X243675412Y-128952810D01*
X243675411Y-128952810D01*
X243534050Y-128933380D01*
X243392691Y-128913950D01*
X243392690Y-128913950D01*
X243107310Y-128913950D01*
X243107309Y-128913950D01*
X242824589Y-128952810D01*
X242824582Y-128952811D01*
X242628165Y-129007845D01*
X242549792Y-129029804D01*
X242549789Y-129029804D01*
X242549786Y-129029806D01*
X242549785Y-129029806D01*
X242288045Y-129143495D01*
X242288040Y-129143497D01*
X242044208Y-129291775D01*
X241822836Y-129471874D01*
X241628051Y-129680437D01*
X241628051Y-129680438D01*
X241628048Y-129680440D01*
X241628047Y-129680443D01*
X241616484Y-129696824D01*
X241463474Y-129913588D01*
X241332179Y-130166977D01*
X241236614Y-130435869D01*
X241236613Y-130435872D01*
X241178550Y-130715291D01*
X241159076Y-131000000D01*
X225799505Y-131000000D01*
X225839999Y-130877797D01*
X225850500Y-130775009D01*
X225850499Y-129224992D01*
X225850264Y-129222696D01*
X225839999Y-129122203D01*
X225839998Y-129122200D01*
X225812260Y-129038493D01*
X225784814Y-128955666D01*
X225692712Y-128806344D01*
X225568656Y-128682288D01*
X225419334Y-128590186D01*
X225252797Y-128535001D01*
X225252795Y-128535000D01*
X225150010Y-128524500D01*
X223849998Y-128524500D01*
X223849981Y-128524501D01*
X223747203Y-128535000D01*
X223747200Y-128535001D01*
X223580668Y-128590185D01*
X223580663Y-128590187D01*
X223431342Y-128682289D01*
X223307289Y-128806342D01*
X223211821Y-128961121D01*
X223159873Y-129007845D01*
X223090910Y-129019068D01*
X223026828Y-128991224D01*
X223018601Y-128983705D01*
X222879786Y-128844890D01*
X222707820Y-128719951D01*
X222518414Y-128623444D01*
X222518413Y-128623443D01*
X222518412Y-128623443D01*
X222316243Y-128557754D01*
X222316241Y-128557753D01*
X222316240Y-128557753D01*
X222154957Y-128532208D01*
X222106287Y-128524500D01*
X221893713Y-128524500D01*
X221845042Y-128532208D01*
X221683760Y-128557753D01*
X221481585Y-128623444D01*
X221292179Y-128719951D01*
X221120213Y-128844890D01*
X220969894Y-128995209D01*
X220969890Y-128995214D01*
X220850318Y-129159793D01*
X220794989Y-129202459D01*
X220725375Y-129208438D01*
X220663580Y-129175833D01*
X220649682Y-129159793D01*
X220530109Y-128995214D01*
X220530105Y-128995209D01*
X220379786Y-128844890D01*
X220207820Y-128719951D01*
X220018414Y-128623444D01*
X220018413Y-128623443D01*
X220018412Y-128623443D01*
X219816243Y-128557754D01*
X219816241Y-128557753D01*
X219816240Y-128557753D01*
X219654957Y-128532208D01*
X219606287Y-128524500D01*
X219393713Y-128524500D01*
X219345042Y-128532208D01*
X219183760Y-128557753D01*
X218981585Y-128623444D01*
X218792179Y-128719951D01*
X218620213Y-128844890D01*
X218469894Y-128995209D01*
X218469890Y-128995214D01*
X218350008Y-129160218D01*
X218294678Y-129202884D01*
X218225065Y-129208863D01*
X218163270Y-129176257D01*
X218149372Y-129160218D01*
X218029727Y-128995540D01*
X218029723Y-128995535D01*
X217879464Y-128845276D01*
X217879459Y-128845272D01*
X217707557Y-128720379D01*
X217518215Y-128623903D01*
X217316124Y-128558241D01*
X217250000Y-128547768D01*
X217250000Y-129595854D01*
X217183343Y-129557370D01*
X217062535Y-129525000D01*
X216937465Y-129525000D01*
X216816657Y-129557370D01*
X216750000Y-129595854D01*
X216750000Y-128547768D01*
X216749999Y-128547768D01*
X216683875Y-128558241D01*
X216481784Y-128623903D01*
X216292442Y-128720379D01*
X216120540Y-128845272D01*
X216120535Y-128845276D01*
X215970276Y-128995535D01*
X215970272Y-128995540D01*
X215850627Y-129160218D01*
X215795297Y-129202884D01*
X215725684Y-129208863D01*
X215663889Y-129176257D01*
X215649991Y-129160218D01*
X215530109Y-128995214D01*
X215530105Y-128995209D01*
X215379786Y-128844890D01*
X215207820Y-128719951D01*
X215018414Y-128623444D01*
X215018413Y-128623443D01*
X215018412Y-128623443D01*
X214816243Y-128557754D01*
X214816241Y-128557753D01*
X214816240Y-128557753D01*
X214654957Y-128532208D01*
X214606287Y-128524500D01*
X214393713Y-128524500D01*
X214345042Y-128532208D01*
X214183760Y-128557753D01*
X213981585Y-128623444D01*
X213792179Y-128719951D01*
X213620213Y-128844890D01*
X213469890Y-128995213D01*
X213344951Y-129167179D01*
X213248444Y-129356585D01*
X213182753Y-129558760D01*
X213149500Y-129768713D01*
X213149500Y-130231286D01*
X213181903Y-130435875D01*
X213182754Y-130441243D01*
X213242660Y-130625615D01*
X213248444Y-130643414D01*
X213344951Y-130832820D01*
X213469890Y-131004786D01*
X213620213Y-131155109D01*
X213792179Y-131280048D01*
X213792181Y-131280049D01*
X213792184Y-131280051D01*
X213860805Y-131315015D01*
X213911601Y-131362990D01*
X213928396Y-131430811D01*
X213905859Y-131496945D01*
X213851144Y-131540397D01*
X213804510Y-131549500D01*
X206259387Y-131549500D01*
X206192348Y-131529815D01*
X206146593Y-131477011D01*
X206136649Y-131407853D01*
X206157813Y-131354376D01*
X206253595Y-131217585D01*
X206253599Y-131217579D01*
X206353429Y-131003492D01*
X206353433Y-131003483D01*
X206414567Y-130775326D01*
X206414569Y-130775315D01*
X206435157Y-130540001D01*
X206435157Y-130539998D01*
X206414569Y-130304684D01*
X206414567Y-130304673D01*
X206353433Y-130076516D01*
X206353429Y-130076507D01*
X206253600Y-129862423D01*
X206253599Y-129862421D01*
X206194925Y-129778626D01*
X206194925Y-129778625D01*
X205562961Y-130410588D01*
X205545925Y-130347007D01*
X205480099Y-130232993D01*
X205387007Y-130139901D01*
X205272993Y-130074075D01*
X205209410Y-130057037D01*
X205845605Y-129420841D01*
X205856166Y-129368295D01*
X205904781Y-129318112D01*
X205926923Y-129308282D01*
X205999119Y-129284358D01*
X205999124Y-129284356D01*
X206148345Y-129192315D01*
X206272315Y-129068345D01*
X206364356Y-128919124D01*
X206364358Y-128919119D01*
X206419505Y-128752697D01*
X206419506Y-128752690D01*
X206429999Y-128649986D01*
X206430000Y-128649973D01*
X206430000Y-128250000D01*
X205513012Y-128250000D01*
X205545925Y-128192993D01*
X205580000Y-128065826D01*
X205580000Y-127934174D01*
X205545925Y-127807007D01*
X205513012Y-127750000D01*
X206429999Y-127750000D01*
X206429999Y-127350028D01*
X206429998Y-127350013D01*
X206419505Y-127247302D01*
X206364358Y-127080880D01*
X206364356Y-127080875D01*
X206272315Y-126931654D01*
X206148345Y-126807684D01*
X205999124Y-126715643D01*
X205999119Y-126715641D01*
X205832697Y-126660494D01*
X205832690Y-126660493D01*
X205729986Y-126650000D01*
X205330000Y-126650000D01*
X205330000Y-127566988D01*
X205272993Y-127534075D01*
X205145826Y-127500000D01*
X205014174Y-127500000D01*
X204887007Y-127534075D01*
X204830000Y-127566988D01*
X204830000Y-126650000D01*
X204430028Y-126650000D01*
X204430012Y-126650001D01*
X204327302Y-126660494D01*
X204160880Y-126715641D01*
X204160875Y-126715643D01*
X204011654Y-126807684D01*
X203887684Y-126931654D01*
X203795643Y-127080875D01*
X203795641Y-127080880D01*
X203771718Y-127153076D01*
X203731945Y-127210521D01*
X203667429Y-127237344D01*
X203656087Y-127237463D01*
X203022962Y-127870589D01*
X203005925Y-127807007D01*
X202940099Y-127692993D01*
X202847007Y-127599901D01*
X202732993Y-127534075D01*
X202669408Y-127517037D01*
X203301373Y-126885073D01*
X203301373Y-126885072D01*
X203217583Y-126826402D01*
X203217579Y-126826400D01*
X203003492Y-126726570D01*
X203003483Y-126726566D01*
X202775326Y-126665432D01*
X202775315Y-126665430D01*
X202540002Y-126644843D01*
X202539997Y-126644843D01*
X202511602Y-126647327D01*
X202443103Y-126633560D01*
X202392920Y-126584944D01*
X202376987Y-126516916D01*
X202400363Y-126451072D01*
X202413105Y-126436129D01*
X203037416Y-125811819D01*
X203098739Y-125778334D01*
X203125097Y-125775500D01*
X237708331Y-125775500D01*
X237708347Y-125775501D01*
X237715943Y-125775501D01*
X237874054Y-125775501D01*
X237874057Y-125775501D01*
X238026785Y-125734577D01*
X238076904Y-125705639D01*
X238163716Y-125655520D01*
X238275520Y-125543716D01*
X238275520Y-125543714D01*
X238285728Y-125533507D01*
X238285729Y-125533504D01*
X239510520Y-124308716D01*
X239589577Y-124171784D01*
X239630501Y-124019057D01*
X239630501Y-123860942D01*
X239630501Y-123853347D01*
X239630500Y-123853329D01*
X239630500Y-123499994D01*
X241169945Y-123499994D01*
X241169945Y-123500005D01*
X241190130Y-123743605D01*
X241250138Y-123980573D01*
X241348330Y-124204429D01*
X241444626Y-124351819D01*
X242048958Y-123747487D01*
X242073978Y-123807890D01*
X242145112Y-123914351D01*
X242235649Y-124004888D01*
X242342110Y-124076022D01*
X242402511Y-124101041D01*
X241797758Y-124705794D01*
X241797758Y-124705796D01*
X241840478Y-124739046D01*
X241840484Y-124739050D01*
X242055468Y-124855394D01*
X242055476Y-124855397D01*
X242286664Y-124934765D01*
X242527779Y-124975000D01*
X242772221Y-124975000D01*
X243013335Y-124934765D01*
X243244523Y-124855397D01*
X243244531Y-124855394D01*
X243459514Y-124739051D01*
X243459514Y-124739050D01*
X243502240Y-124705795D01*
X243502240Y-124705794D01*
X242897488Y-124101041D01*
X242957890Y-124076022D01*
X243064351Y-124004888D01*
X243154888Y-123914351D01*
X243226022Y-123807890D01*
X243251041Y-123747488D01*
X243855372Y-124351819D01*
X243951667Y-124204431D01*
X243951672Y-124204423D01*
X244049861Y-123980573D01*
X244109869Y-123743605D01*
X244130055Y-123500005D01*
X244130055Y-123499994D01*
X244109869Y-123256394D01*
X244049861Y-123019426D01*
X243951669Y-122795570D01*
X243855372Y-122648179D01*
X243251041Y-123252510D01*
X243226022Y-123192110D01*
X243154888Y-123085649D01*
X243064351Y-122995112D01*
X242957890Y-122923978D01*
X242897487Y-122898958D01*
X243502240Y-122294204D01*
X243502240Y-122294203D01*
X243459514Y-122260949D01*
X243244531Y-122144605D01*
X243244523Y-122144602D01*
X243013335Y-122065234D01*
X242772221Y-122025000D01*
X242527779Y-122025000D01*
X242286664Y-122065234D01*
X242055476Y-122144602D01*
X242055468Y-122144605D01*
X241840481Y-122260951D01*
X241797758Y-122294202D01*
X241797757Y-122294204D01*
X242402511Y-122898958D01*
X242342110Y-122923978D01*
X242235649Y-122995112D01*
X242145112Y-123085649D01*
X242073978Y-123192110D01*
X242048958Y-123252511D01*
X241444626Y-122648179D01*
X241348328Y-122795575D01*
X241250138Y-123019426D01*
X241190130Y-123256394D01*
X241169945Y-123499994D01*
X239630500Y-123499994D01*
X239630500Y-118499994D01*
X241169443Y-118499994D01*
X241169443Y-118500005D01*
X241189634Y-118743683D01*
X241189636Y-118743695D01*
X241249663Y-118980734D01*
X241347888Y-119204666D01*
X241481632Y-119409378D01*
X241647242Y-119589277D01*
X241647252Y-119589286D01*
X241840208Y-119739470D01*
X241840212Y-119739473D01*
X241985494Y-119818096D01*
X242055267Y-119855855D01*
X242055270Y-119855856D01*
X242286541Y-119935251D01*
X242286543Y-119935251D01*
X242286545Y-119935252D01*
X242527737Y-119975500D01*
X242527738Y-119975500D01*
X242772262Y-119975500D01*
X242772263Y-119975500D01*
X243013455Y-119935252D01*
X243244733Y-119855855D01*
X243459788Y-119739473D01*
X243652754Y-119589281D01*
X243818368Y-119409377D01*
X243952111Y-119204667D01*
X244050336Y-118980736D01*
X244110364Y-118743692D01*
X244118642Y-118643791D01*
X244130557Y-118500005D01*
X244130557Y-118499994D01*
X244110365Y-118256316D01*
X244110363Y-118256304D01*
X244050336Y-118019265D01*
X244047744Y-118013356D01*
X243952111Y-117795333D01*
X243907689Y-117727339D01*
X243818367Y-117590621D01*
X243652757Y-117410722D01*
X243652747Y-117410713D01*
X243459791Y-117260529D01*
X243459787Y-117260526D01*
X243244734Y-117144145D01*
X243244729Y-117144143D01*
X243013458Y-117064748D01*
X242832561Y-117034562D01*
X242772263Y-117024500D01*
X242527737Y-117024500D01*
X242479498Y-117032549D01*
X242286541Y-117064748D01*
X242055270Y-117144143D01*
X242055265Y-117144145D01*
X241840212Y-117260526D01*
X241840208Y-117260529D01*
X241647252Y-117410713D01*
X241647242Y-117410722D01*
X241481632Y-117590621D01*
X241347888Y-117795333D01*
X241249663Y-118019265D01*
X241189636Y-118256304D01*
X241189634Y-118256316D01*
X241169443Y-118499994D01*
X239630500Y-118499994D01*
X239630500Y-103829999D01*
X241144341Y-103829999D01*
X241144341Y-103830000D01*
X241164936Y-104065403D01*
X241164938Y-104065413D01*
X241226094Y-104293655D01*
X241226096Y-104293659D01*
X241226097Y-104293663D01*
X241325965Y-104507830D01*
X241325967Y-104507834D01*
X241461501Y-104701395D01*
X241461506Y-104701402D01*
X241628597Y-104868493D01*
X241628603Y-104868498D01*
X241814158Y-104998425D01*
X241857783Y-105053002D01*
X241864977Y-105122500D01*
X241833454Y-105184855D01*
X241814158Y-105201575D01*
X241628597Y-105331505D01*
X241461505Y-105498597D01*
X241325965Y-105692169D01*
X241325964Y-105692171D01*
X241226098Y-105906335D01*
X241226094Y-105906344D01*
X241164938Y-106134586D01*
X241164936Y-106134596D01*
X241144341Y-106369999D01*
X241144341Y-106370000D01*
X241164936Y-106605403D01*
X241164938Y-106605413D01*
X241226094Y-106833655D01*
X241226096Y-106833659D01*
X241226097Y-106833663D01*
X241325965Y-107047830D01*
X241325967Y-107047834D01*
X241434281Y-107202521D01*
X241461505Y-107241401D01*
X241628599Y-107408495D01*
X241725384Y-107476265D01*
X241822165Y-107544032D01*
X241822167Y-107544033D01*
X241822170Y-107544035D01*
X242036337Y-107643903D01*
X242264592Y-107705063D01*
X242452918Y-107721539D01*
X242499999Y-107725659D01*
X242500000Y-107725659D01*
X242500001Y-107725659D01*
X242539234Y-107722226D01*
X242735408Y-107705063D01*
X242963663Y-107643903D01*
X243177830Y-107544035D01*
X243371401Y-107408495D01*
X243538495Y-107241401D01*
X243674035Y-107047830D01*
X243773903Y-106833663D01*
X243835063Y-106605408D01*
X243855659Y-106370000D01*
X243835063Y-106134592D01*
X243773903Y-105906337D01*
X243674035Y-105692171D01*
X243673902Y-105691980D01*
X243538494Y-105498597D01*
X243371402Y-105331506D01*
X243371396Y-105331501D01*
X243185842Y-105201575D01*
X243142217Y-105146998D01*
X243135023Y-105077500D01*
X243166546Y-105015145D01*
X243185842Y-104998425D01*
X243289838Y-104925606D01*
X243371401Y-104868495D01*
X243538495Y-104701401D01*
X243674035Y-104507830D01*
X243773903Y-104293663D01*
X243835063Y-104065408D01*
X243855659Y-103830000D01*
X243835063Y-103594592D01*
X243773903Y-103366337D01*
X243674035Y-103152171D01*
X243567213Y-102999612D01*
X243538494Y-102958597D01*
X243371402Y-102791506D01*
X243371401Y-102791505D01*
X243185405Y-102661269D01*
X243141781Y-102606692D01*
X243134588Y-102537193D01*
X243166110Y-102474839D01*
X243185405Y-102458119D01*
X243371082Y-102328105D01*
X243538105Y-102161082D01*
X243673600Y-101967578D01*
X243773429Y-101753492D01*
X243773432Y-101753486D01*
X243830636Y-101540000D01*
X242933012Y-101540000D01*
X242965925Y-101482993D01*
X243000000Y-101355826D01*
X243000000Y-101224174D01*
X242965925Y-101097007D01*
X242933012Y-101040000D01*
X243830636Y-101040000D01*
X243830635Y-101039999D01*
X243773432Y-100826513D01*
X243773429Y-100826507D01*
X243673600Y-100612422D01*
X243673599Y-100612420D01*
X243538113Y-100418926D01*
X243538108Y-100418920D01*
X243416053Y-100296865D01*
X243382568Y-100235542D01*
X243387552Y-100165850D01*
X243429424Y-100109917D01*
X243460400Y-100093002D01*
X243592331Y-100043796D01*
X243707546Y-99957546D01*
X243793796Y-99842331D01*
X243844091Y-99707483D01*
X243850500Y-99647873D01*
X243850499Y-97852128D01*
X243844091Y-97792517D01*
X243793796Y-97657669D01*
X243793795Y-97657668D01*
X243793793Y-97657664D01*
X243707547Y-97542455D01*
X243707544Y-97542452D01*
X243592335Y-97456206D01*
X243592328Y-97456202D01*
X243457482Y-97405908D01*
X243457483Y-97405908D01*
X243397883Y-97399501D01*
X243397881Y-97399500D01*
X243397873Y-97399500D01*
X243397864Y-97399500D01*
X241602129Y-97399500D01*
X241602123Y-97399501D01*
X241542516Y-97405908D01*
X241407671Y-97456202D01*
X241407664Y-97456206D01*
X241292455Y-97542452D01*
X241292452Y-97542455D01*
X241206206Y-97657664D01*
X241206202Y-97657671D01*
X241155908Y-97792517D01*
X241149501Y-97852116D01*
X241149501Y-97852123D01*
X241149500Y-97852135D01*
X241149500Y-99647870D01*
X241149501Y-99647876D01*
X241155908Y-99707483D01*
X241206202Y-99842328D01*
X241206206Y-99842335D01*
X241292452Y-99957544D01*
X241292455Y-99957547D01*
X241407664Y-100043793D01*
X241407671Y-100043797D01*
X241407674Y-100043798D01*
X241539598Y-100093002D01*
X241595531Y-100134873D01*
X241619949Y-100200337D01*
X241605098Y-100268610D01*
X241583947Y-100296865D01*
X241461886Y-100418926D01*
X241326400Y-100612420D01*
X241326399Y-100612422D01*
X241226570Y-100826507D01*
X241226567Y-100826513D01*
X241169364Y-101039999D01*
X241169364Y-101040000D01*
X242066988Y-101040000D01*
X242034075Y-101097007D01*
X242000000Y-101224174D01*
X242000000Y-101355826D01*
X242034075Y-101482993D01*
X242066988Y-101540000D01*
X241169364Y-101540000D01*
X241226567Y-101753486D01*
X241226570Y-101753492D01*
X241326399Y-101967578D01*
X241461894Y-102161082D01*
X241628917Y-102328105D01*
X241814595Y-102458119D01*
X241858219Y-102512696D01*
X241865412Y-102582195D01*
X241833890Y-102644549D01*
X241814595Y-102661269D01*
X241628594Y-102791508D01*
X241461505Y-102958597D01*
X241325965Y-103152169D01*
X241325964Y-103152171D01*
X241226098Y-103366335D01*
X241226094Y-103366344D01*
X241164938Y-103594586D01*
X241164936Y-103594596D01*
X241144341Y-103829999D01*
X239630500Y-103829999D01*
X239630500Y-87139060D01*
X239630501Y-87139047D01*
X239630501Y-86970944D01*
X239595518Y-86840389D01*
X239589577Y-86818216D01*
X239583968Y-86808501D01*
X239510524Y-86681290D01*
X239510518Y-86681282D01*
X232617590Y-79788355D01*
X232617588Y-79788352D01*
X232498717Y-79669481D01*
X232498716Y-79669480D01*
X232411904Y-79619360D01*
X232411904Y-79619359D01*
X232411900Y-79619358D01*
X232361785Y-79590423D01*
X232209057Y-79549499D01*
X232050943Y-79549499D01*
X232043347Y-79549499D01*
X232043331Y-79549500D01*
X225209057Y-79549500D01*
X225050943Y-79549500D01*
X224898215Y-79590423D01*
X224898214Y-79590423D01*
X224898212Y-79590424D01*
X224898209Y-79590425D01*
X224848096Y-79619359D01*
X224848095Y-79619360D01*
X224804689Y-79644420D01*
X224761285Y-79669479D01*
X224761282Y-79669481D01*
X224649478Y-79781286D01*
X223533895Y-80896868D01*
X223472572Y-80930353D01*
X223414121Y-80928962D01*
X223293356Y-80896603D01*
X223293346Y-80896601D01*
X223060001Y-80876186D01*
X223059999Y-80876186D01*
X222826653Y-80896601D01*
X222826643Y-80896603D01*
X222600396Y-80957225D01*
X222600389Y-80957227D01*
X222600389Y-80957228D01*
X222388093Y-81056223D01*
X222196213Y-81190579D01*
X222196211Y-81190580D01*
X222196208Y-81190583D01*
X222030583Y-81356208D01*
X222030580Y-81356211D01*
X222030579Y-81356213D01*
X221902224Y-81539523D01*
X221893118Y-81552528D01*
X221891680Y-81551521D01*
X221846810Y-81594297D01*
X221778202Y-81607513D01*
X221713340Y-81581540D01*
X221687702Y-81551953D01*
X221686882Y-81552528D01*
X221677776Y-81539523D01*
X221549421Y-81356213D01*
X221383787Y-81190579D01*
X221191907Y-81056223D01*
X220979611Y-80957228D01*
X220979607Y-80957227D01*
X220979603Y-80957225D01*
X220753356Y-80896603D01*
X220753346Y-80896601D01*
X220520001Y-80876186D01*
X220519999Y-80876186D01*
X220286653Y-80896601D01*
X220286643Y-80896603D01*
X220060396Y-80957225D01*
X220060389Y-80957227D01*
X220060389Y-80957228D01*
X219848093Y-81056223D01*
X219656213Y-81190579D01*
X219656211Y-81190580D01*
X219656208Y-81190583D01*
X219490583Y-81356208D01*
X219490580Y-81356211D01*
X219490579Y-81356213D01*
X219362224Y-81539523D01*
X219353118Y-81552528D01*
X219351680Y-81551521D01*
X219306810Y-81594297D01*
X219238202Y-81607513D01*
X219173340Y-81581540D01*
X219147702Y-81551953D01*
X219146882Y-81552528D01*
X219137776Y-81539523D01*
X219009421Y-81356213D01*
X218843787Y-81190579D01*
X218651907Y-81056223D01*
X218439611Y-80957228D01*
X218439607Y-80957227D01*
X218439603Y-80957225D01*
X218213356Y-80896603D01*
X218213346Y-80896601D01*
X217980001Y-80876186D01*
X217979999Y-80876186D01*
X217746653Y-80896601D01*
X217746643Y-80896603D01*
X217520396Y-80957225D01*
X217520389Y-80957227D01*
X217520389Y-80957228D01*
X217308093Y-81056223D01*
X217116213Y-81190579D01*
X217116211Y-81190580D01*
X217116208Y-81190583D01*
X216950583Y-81356208D01*
X216950580Y-81356211D01*
X216950579Y-81356213D01*
X216822224Y-81539523D01*
X216813118Y-81552528D01*
X216811680Y-81551521D01*
X216766810Y-81594297D01*
X216698202Y-81607513D01*
X216633340Y-81581540D01*
X216607702Y-81551953D01*
X216606882Y-81552528D01*
X216597776Y-81539523D01*
X216469421Y-81356213D01*
X216303787Y-81190579D01*
X216111907Y-81056223D01*
X215899611Y-80957228D01*
X215899607Y-80957227D01*
X215899603Y-80957225D01*
X215673356Y-80896603D01*
X215673346Y-80896601D01*
X215440001Y-80876186D01*
X215439999Y-80876186D01*
X215206653Y-80896601D01*
X215206643Y-80896603D01*
X214980396Y-80957225D01*
X214980389Y-80957227D01*
X214980389Y-80957228D01*
X214768093Y-81056223D01*
X214576213Y-81190579D01*
X214576211Y-81190580D01*
X214576208Y-81190583D01*
X214410583Y-81356208D01*
X214410580Y-81356211D01*
X214410579Y-81356213D01*
X214282224Y-81539523D01*
X214273118Y-81552528D01*
X214271680Y-81551521D01*
X214226810Y-81594297D01*
X214158202Y-81607513D01*
X214093340Y-81581540D01*
X214067702Y-81551953D01*
X214066882Y-81552528D01*
X214057776Y-81539523D01*
X213929421Y-81356213D01*
X213763787Y-81190579D01*
X213571907Y-81056223D01*
X213359611Y-80957228D01*
X213359607Y-80957227D01*
X213359603Y-80957225D01*
X213133356Y-80896603D01*
X213133346Y-80896601D01*
X212900001Y-80876186D01*
X212899999Y-80876186D01*
X212666653Y-80896601D01*
X212666643Y-80896603D01*
X212440396Y-80957225D01*
X212440389Y-80957227D01*
X212440389Y-80957228D01*
X212228093Y-81056223D01*
X212036213Y-81190579D01*
X212036211Y-81190580D01*
X212036208Y-81190583D01*
X211870583Y-81356208D01*
X211870580Y-81356211D01*
X211870579Y-81356213D01*
X211742224Y-81539523D01*
X211733118Y-81552528D01*
X211731680Y-81551521D01*
X211686810Y-81594297D01*
X211618202Y-81607513D01*
X211553340Y-81581540D01*
X211527702Y-81551953D01*
X211526882Y-81552528D01*
X211517776Y-81539523D01*
X211389421Y-81356213D01*
X211223787Y-81190579D01*
X211031907Y-81056223D01*
X210819611Y-80957228D01*
X210819607Y-80957227D01*
X210819603Y-80957225D01*
X210593356Y-80896603D01*
X210593346Y-80896601D01*
X210360001Y-80876186D01*
X210359999Y-80876186D01*
X210126653Y-80896601D01*
X210126643Y-80896603D01*
X209900396Y-80957225D01*
X209900389Y-80957227D01*
X209900389Y-80957228D01*
X209688093Y-81056223D01*
X209496213Y-81190579D01*
X209496211Y-81190580D01*
X209496208Y-81190583D01*
X209330583Y-81356208D01*
X209330580Y-81356211D01*
X209330579Y-81356213D01*
X209202224Y-81539523D01*
X209193118Y-81552528D01*
X209191680Y-81551521D01*
X209146810Y-81594297D01*
X209078202Y-81607513D01*
X209013340Y-81581540D01*
X208987702Y-81551953D01*
X208986882Y-81552528D01*
X208977776Y-81539523D01*
X208849421Y-81356213D01*
X208683787Y-81190579D01*
X208491907Y-81056223D01*
X208279611Y-80957228D01*
X208279607Y-80957227D01*
X208279603Y-80957225D01*
X208053356Y-80896603D01*
X208053346Y-80896601D01*
X207820001Y-80876186D01*
X207819999Y-80876186D01*
X207586653Y-80896601D01*
X207586643Y-80896603D01*
X207360396Y-80957225D01*
X207360389Y-80957227D01*
X207360389Y-80957228D01*
X207148093Y-81056223D01*
X206956213Y-81190579D01*
X206956211Y-81190580D01*
X206956208Y-81190583D01*
X206790583Y-81356208D01*
X206790580Y-81356211D01*
X206790579Y-81356213D01*
X206662224Y-81539523D01*
X206653118Y-81552528D01*
X206651680Y-81551521D01*
X206606810Y-81594297D01*
X206538202Y-81607513D01*
X206473340Y-81581540D01*
X206447702Y-81551953D01*
X206446882Y-81552528D01*
X206437776Y-81539523D01*
X206309421Y-81356213D01*
X206143787Y-81190579D01*
X205951907Y-81056223D01*
X205739611Y-80957228D01*
X205739607Y-80957227D01*
X205739603Y-80957225D01*
X205513356Y-80896603D01*
X205513346Y-80896601D01*
X205280001Y-80876186D01*
X205279999Y-80876186D01*
X205046653Y-80896601D01*
X205046643Y-80896603D01*
X204820396Y-80957225D01*
X204820389Y-80957227D01*
X204820389Y-80957228D01*
X204608093Y-81056223D01*
X204416213Y-81190579D01*
X204416211Y-81190580D01*
X204416208Y-81190583D01*
X204250583Y-81356208D01*
X204250580Y-81356211D01*
X204250579Y-81356213D01*
X204122224Y-81539523D01*
X204113118Y-81552528D01*
X204111680Y-81551521D01*
X204066810Y-81594297D01*
X203998202Y-81607513D01*
X203933340Y-81581540D01*
X203907702Y-81551953D01*
X203906882Y-81552528D01*
X203897776Y-81539523D01*
X203769421Y-81356213D01*
X203603787Y-81190579D01*
X203411907Y-81056223D01*
X203199611Y-80957228D01*
X203199607Y-80957227D01*
X203199603Y-80957225D01*
X202973356Y-80896603D01*
X202973346Y-80896601D01*
X202740001Y-80876186D01*
X202739999Y-80876186D01*
X202506653Y-80896601D01*
X202506643Y-80896603D01*
X202280396Y-80957225D01*
X202280389Y-80957227D01*
X202280389Y-80957228D01*
X202068093Y-81056223D01*
X201876213Y-81190579D01*
X201876211Y-81190580D01*
X201876208Y-81190583D01*
X201710583Y-81356208D01*
X201710580Y-81356211D01*
X201710579Y-81356213D01*
X201582224Y-81539523D01*
X201573118Y-81552528D01*
X201571680Y-81551521D01*
X201526810Y-81594297D01*
X201458202Y-81607513D01*
X201393340Y-81581540D01*
X201367702Y-81551953D01*
X201366882Y-81552528D01*
X201357776Y-81539523D01*
X201229421Y-81356213D01*
X201063787Y-81190579D01*
X200871907Y-81056223D01*
X200659611Y-80957228D01*
X200659607Y-80957227D01*
X200659603Y-80957225D01*
X200433356Y-80896603D01*
X200433346Y-80896601D01*
X200200001Y-80876186D01*
X200199999Y-80876186D01*
X199966653Y-80896601D01*
X199966643Y-80896603D01*
X199740396Y-80957225D01*
X199740389Y-80957227D01*
X199740389Y-80957228D01*
X199528093Y-81056223D01*
X199336213Y-81190579D01*
X199336211Y-81190580D01*
X199336208Y-81190583D01*
X199170583Y-81356208D01*
X199170580Y-81356211D01*
X199170579Y-81356213D01*
X199042224Y-81539523D01*
X199033118Y-81552528D01*
X199031680Y-81551521D01*
X198986810Y-81594297D01*
X198918202Y-81607513D01*
X198853340Y-81581540D01*
X198827702Y-81551953D01*
X198826882Y-81552528D01*
X198817776Y-81539523D01*
X198689421Y-81356213D01*
X198523787Y-81190579D01*
X198331907Y-81056223D01*
X198119611Y-80957228D01*
X198119607Y-80957227D01*
X198119603Y-80957225D01*
X197893356Y-80896603D01*
X197893346Y-80896601D01*
X197660001Y-80876186D01*
X197659999Y-80876186D01*
X197426653Y-80896601D01*
X197426643Y-80896603D01*
X197200396Y-80957225D01*
X197200389Y-80957227D01*
X197200389Y-80957228D01*
X196988093Y-81056223D01*
X196796213Y-81190579D01*
X196796211Y-81190580D01*
X196796208Y-81190583D01*
X196630583Y-81356208D01*
X196630580Y-81356211D01*
X196630579Y-81356213D01*
X196502224Y-81539523D01*
X196493118Y-81552528D01*
X196491680Y-81551521D01*
X196446810Y-81594297D01*
X196378202Y-81607513D01*
X196313340Y-81581540D01*
X196287702Y-81551953D01*
X196286882Y-81552528D01*
X196277776Y-81539523D01*
X196149421Y-81356213D01*
X195983787Y-81190579D01*
X195791907Y-81056223D01*
X195579611Y-80957228D01*
X195579607Y-80957227D01*
X195579603Y-80957225D01*
X195353356Y-80896603D01*
X195353346Y-80896601D01*
X195120001Y-80876186D01*
X195119999Y-80876186D01*
X194886653Y-80896601D01*
X194886643Y-80896603D01*
X194660396Y-80957225D01*
X194660389Y-80957227D01*
X194660389Y-80957228D01*
X194448093Y-81056223D01*
X194256213Y-81190579D01*
X194256211Y-81190580D01*
X194256208Y-81190583D01*
X194090583Y-81356208D01*
X194090580Y-81356211D01*
X194090579Y-81356213D01*
X193962224Y-81539523D01*
X193953118Y-81552528D01*
X193951680Y-81551521D01*
X193906810Y-81594297D01*
X193838202Y-81607513D01*
X193773340Y-81581540D01*
X193747702Y-81551953D01*
X193746882Y-81552528D01*
X193737776Y-81539523D01*
X193609421Y-81356213D01*
X193443787Y-81190579D01*
X193251907Y-81056223D01*
X193039611Y-80957228D01*
X193039607Y-80957227D01*
X193039603Y-80957225D01*
X192813356Y-80896603D01*
X192813346Y-80896601D01*
X192580001Y-80876186D01*
X192579999Y-80876186D01*
X192346653Y-80896601D01*
X192346643Y-80896603D01*
X192120396Y-80957225D01*
X192120389Y-80957227D01*
X192120389Y-80957228D01*
X191908093Y-81056223D01*
X191716213Y-81190579D01*
X191716211Y-81190580D01*
X191716208Y-81190583D01*
X191550583Y-81356208D01*
X191550580Y-81356211D01*
X191550579Y-81356213D01*
X191422224Y-81539523D01*
X191413118Y-81552528D01*
X191411680Y-81551521D01*
X191366810Y-81594297D01*
X191298202Y-81607513D01*
X191233340Y-81581540D01*
X191207702Y-81551953D01*
X191206882Y-81552528D01*
X191197776Y-81539523D01*
X191069421Y-81356213D01*
X190903787Y-81190579D01*
X190711907Y-81056223D01*
X190499611Y-80957228D01*
X190499607Y-80957227D01*
X190499603Y-80957225D01*
X190273356Y-80896603D01*
X190273346Y-80896601D01*
X190040001Y-80876186D01*
X190039999Y-80876186D01*
X189806653Y-80896601D01*
X189806643Y-80896603D01*
X189580396Y-80957225D01*
X189580389Y-80957227D01*
X189580389Y-80957228D01*
X189368093Y-81056223D01*
X189176213Y-81190579D01*
X189176211Y-81190580D01*
X189176208Y-81190583D01*
X189010583Y-81356208D01*
X189010580Y-81356211D01*
X189010579Y-81356213D01*
X188882224Y-81539523D01*
X188873118Y-81552528D01*
X188871680Y-81551521D01*
X188826810Y-81594297D01*
X188758202Y-81607513D01*
X188693340Y-81581540D01*
X188667702Y-81551953D01*
X188666882Y-81552528D01*
X188657776Y-81539523D01*
X188529421Y-81356213D01*
X188363787Y-81190579D01*
X188171907Y-81056223D01*
X187959611Y-80957228D01*
X187959607Y-80957227D01*
X187959603Y-80957225D01*
X187733356Y-80896603D01*
X187733346Y-80896601D01*
X187500001Y-80876186D01*
X187499999Y-80876186D01*
X187266653Y-80896601D01*
X187266643Y-80896603D01*
X187040396Y-80957225D01*
X187040389Y-80957227D01*
X187040389Y-80957228D01*
X186828093Y-81056223D01*
X186636213Y-81190579D01*
X186636211Y-81190580D01*
X186636208Y-81190583D01*
X186470583Y-81356208D01*
X186470580Y-81356211D01*
X186470579Y-81356213D01*
X186342224Y-81539523D01*
X186336223Y-81548093D01*
X186237229Y-81760387D01*
X186237225Y-81760396D01*
X186176603Y-81986643D01*
X186176601Y-81986653D01*
X186156186Y-82219999D01*
X186156186Y-82220003D01*
X186159757Y-82260826D01*
X186145990Y-82329326D01*
X186097374Y-82379508D01*
X186029345Y-82395441D01*
X185963502Y-82372065D01*
X185948548Y-82359313D01*
X185575888Y-81986653D01*
X184970947Y-81381711D01*
X184937462Y-81320388D01*
X184935408Y-81280146D01*
X184945565Y-81190002D01*
X184945565Y-81189996D01*
X184925369Y-81010750D01*
X184925368Y-81010745D01*
X184906642Y-80957229D01*
X184865789Y-80840478D01*
X184769816Y-80687738D01*
X184642262Y-80560184D01*
X184489523Y-80464211D01*
X184319254Y-80404631D01*
X184319249Y-80404630D01*
X184140004Y-80384435D01*
X184139996Y-80384435D01*
X183960750Y-80404630D01*
X183960745Y-80404631D01*
X183790476Y-80464211D01*
X183637737Y-80560184D01*
X183510184Y-80687737D01*
X183414211Y-80840476D01*
X183354631Y-81010745D01*
X183354630Y-81010750D01*
X183334435Y-81189996D01*
X183334435Y-81190003D01*
X183354630Y-81369249D01*
X183354631Y-81369254D01*
X183414211Y-81539523D01*
X183510184Y-81692262D01*
X183637738Y-81819816D01*
X183694504Y-81855484D01*
X183790477Y-81915789D01*
X183796751Y-81918810D01*
X183796205Y-81919942D01*
X183835220Y-81944455D01*
X186176868Y-84286104D01*
X186210353Y-84347427D01*
X186208962Y-84405878D01*
X186176603Y-84526643D01*
X186176601Y-84526653D01*
X186156186Y-84759999D01*
X186156186Y-84760000D01*
X186176601Y-84993346D01*
X186176603Y-84993356D01*
X186237225Y-85219603D01*
X186237227Y-85219607D01*
X186237228Y-85219611D01*
X186336223Y-85431907D01*
X186470579Y-85623787D01*
X186470583Y-85623791D01*
X186484611Y-85637819D01*
X186518096Y-85699142D01*
X186513112Y-85768834D01*
X186471240Y-85824767D01*
X186405776Y-85849184D01*
X186396930Y-85849500D01*
X185960097Y-85849500D01*
X185893058Y-85829815D01*
X185872416Y-85813181D01*
X182756819Y-82697584D01*
X182723334Y-82636261D01*
X182720500Y-82609903D01*
X182720500Y-76257412D01*
X182740185Y-76190373D01*
X182747555Y-76180097D01*
X182749810Y-76177267D01*
X182749816Y-76177262D01*
X182845789Y-76024522D01*
X182905368Y-75854255D01*
X182925565Y-75675000D01*
X182912989Y-75563383D01*
X182925043Y-75494562D01*
X182972392Y-75443182D01*
X183036209Y-75425500D01*
X195338258Y-75425500D01*
X195451957Y-75402883D01*
X195476149Y-75400500D01*
X195723851Y-75400500D01*
X195748043Y-75402883D01*
X195861741Y-75425500D01*
X195861743Y-75425500D01*
X196009578Y-75425500D01*
X227971094Y-75425500D01*
X228012049Y-75432458D01*
X228113245Y-75467868D01*
X228113250Y-75467869D01*
X228292496Y-75488065D01*
X228292500Y-75488065D01*
X228292504Y-75488065D01*
X228471749Y-75467869D01*
X228471752Y-75467868D01*
X228471755Y-75467868D01*
X228642022Y-75408289D01*
X228794762Y-75312316D01*
X228922316Y-75184762D01*
X229018289Y-75032022D01*
X229077868Y-74861755D01*
X229098065Y-74682500D01*
X229077868Y-74503245D01*
X229018289Y-74332978D01*
X228922316Y-74180238D01*
X228794762Y-74052684D01*
X228642023Y-73956711D01*
X228471754Y-73897131D01*
X228471749Y-73897130D01*
X228292504Y-73876935D01*
X228292496Y-73876935D01*
X228113253Y-73897130D01*
X228113243Y-73897132D01*
X228054920Y-73917541D01*
X228013965Y-73924500D01*
X196122471Y-73924500D01*
X196098279Y-73922117D01*
X195984581Y-73899500D01*
X195984579Y-73899500D01*
X195363256Y-73899500D01*
X195215421Y-73899500D01*
X195215419Y-73899500D01*
X195101721Y-73922117D01*
X195077529Y-73924500D01*
X170387229Y-73924500D01*
X170320190Y-73904815D01*
X170299548Y-73888181D01*
X166228588Y-69817221D01*
X166195103Y-69755898D01*
X166200087Y-69686206D01*
X166210730Y-69664444D01*
X166216726Y-69654723D01*
X166284814Y-69544334D01*
X166284814Y-69544331D01*
X166288448Y-69538441D01*
X166340395Y-69491716D01*
X166409358Y-69480493D01*
X166473440Y-69508336D01*
X166481668Y-69515856D01*
X166620535Y-69654723D01*
X166620540Y-69654727D01*
X166792442Y-69779620D01*
X166981782Y-69876095D01*
X167183871Y-69941757D01*
X167250000Y-69952231D01*
X167250000Y-68904145D01*
X167316657Y-68942630D01*
X167437465Y-68975000D01*
X167562535Y-68975000D01*
X167683343Y-68942630D01*
X167750000Y-68904145D01*
X167750000Y-69952230D01*
X167816126Y-69941757D01*
X167816129Y-69941757D01*
X168018217Y-69876095D01*
X168207557Y-69779620D01*
X168379459Y-69654727D01*
X168379464Y-69654723D01*
X168529721Y-69504466D01*
X168649371Y-69339781D01*
X168704701Y-69297115D01*
X168774314Y-69291136D01*
X168836110Y-69323741D01*
X168850008Y-69339781D01*
X168969890Y-69504785D01*
X168969894Y-69504790D01*
X169120213Y-69655109D01*
X169292179Y-69780048D01*
X169292181Y-69780049D01*
X169292184Y-69780051D01*
X169481588Y-69876557D01*
X169683757Y-69942246D01*
X169893713Y-69975500D01*
X169893714Y-69975500D01*
X170106286Y-69975500D01*
X170106287Y-69975500D01*
X170316243Y-69942246D01*
X170518412Y-69876557D01*
X170707816Y-69780051D01*
X170775339Y-69730993D01*
X170879786Y-69655109D01*
X170879788Y-69655106D01*
X170879792Y-69655104D01*
X171030104Y-69504792D01*
X171149683Y-69340204D01*
X171205011Y-69297540D01*
X171274624Y-69291561D01*
X171336420Y-69324166D01*
X171350313Y-69340199D01*
X171452242Y-69480493D01*
X171469896Y-69504792D01*
X171620213Y-69655109D01*
X171792179Y-69780048D01*
X171792181Y-69780049D01*
X171792184Y-69780051D01*
X171981588Y-69876557D01*
X172183757Y-69942246D01*
X172393713Y-69975500D01*
X172393714Y-69975500D01*
X172606286Y-69975500D01*
X172606287Y-69975500D01*
X172816243Y-69942246D01*
X173018412Y-69876557D01*
X173207816Y-69780051D01*
X173275339Y-69730993D01*
X173379786Y-69655109D01*
X173379788Y-69655106D01*
X173379792Y-69655104D01*
X173530104Y-69504792D01*
X173649683Y-69340204D01*
X173705011Y-69297540D01*
X173774624Y-69291561D01*
X173836420Y-69324166D01*
X173850313Y-69340199D01*
X173952242Y-69480493D01*
X173969896Y-69504792D01*
X174120213Y-69655109D01*
X174292179Y-69780048D01*
X174292181Y-69780049D01*
X174292184Y-69780051D01*
X174481588Y-69876557D01*
X174683757Y-69942246D01*
X174893713Y-69975500D01*
X174893714Y-69975500D01*
X175106286Y-69975500D01*
X175106287Y-69975500D01*
X175316243Y-69942246D01*
X175518412Y-69876557D01*
X175707816Y-69780051D01*
X175775339Y-69730993D01*
X175879786Y-69655109D01*
X175879788Y-69655106D01*
X175879792Y-69655104D01*
X176030104Y-69504792D01*
X176149683Y-69340204D01*
X176205011Y-69297540D01*
X176274624Y-69291561D01*
X176336420Y-69324166D01*
X176350313Y-69340199D01*
X176452242Y-69480493D01*
X176469896Y-69504792D01*
X176620213Y-69655109D01*
X176792179Y-69780048D01*
X176792181Y-69780049D01*
X176792184Y-69780051D01*
X176981588Y-69876557D01*
X177183757Y-69942246D01*
X177393713Y-69975500D01*
X177393714Y-69975500D01*
X177606286Y-69975500D01*
X177606287Y-69975500D01*
X177816243Y-69942246D01*
X178018412Y-69876557D01*
X178207816Y-69780051D01*
X178275339Y-69730993D01*
X178379786Y-69655109D01*
X178379788Y-69655106D01*
X178379792Y-69655104D01*
X178530104Y-69504792D01*
X178649683Y-69340204D01*
X178705011Y-69297540D01*
X178774624Y-69291561D01*
X178836420Y-69324166D01*
X178850313Y-69340199D01*
X178952242Y-69480493D01*
X178969896Y-69504792D01*
X179120213Y-69655109D01*
X179292179Y-69780048D01*
X179292181Y-69780049D01*
X179292184Y-69780051D01*
X179481588Y-69876557D01*
X179683757Y-69942246D01*
X179893713Y-69975500D01*
X179893714Y-69975500D01*
X180106286Y-69975500D01*
X180106287Y-69975500D01*
X180316243Y-69942246D01*
X180518412Y-69876557D01*
X180707816Y-69780051D01*
X180775339Y-69730993D01*
X180879786Y-69655109D01*
X180879788Y-69655106D01*
X180879792Y-69655104D01*
X181030104Y-69504792D01*
X181030106Y-69504788D01*
X181030109Y-69504786D01*
X181155048Y-69332820D01*
X181155047Y-69332820D01*
X181155051Y-69332816D01*
X181251557Y-69143412D01*
X181317246Y-68941243D01*
X181350500Y-68731287D01*
X181350500Y-68268713D01*
X181317246Y-68058757D01*
X181251557Y-67856588D01*
X181184501Y-67724983D01*
X186149500Y-67724983D01*
X186149500Y-69275001D01*
X186149501Y-69275018D01*
X186160000Y-69377796D01*
X186160001Y-69377799D01*
X186193867Y-69479998D01*
X186215186Y-69544334D01*
X186307288Y-69693656D01*
X186431344Y-69817712D01*
X186580666Y-69909814D01*
X186664505Y-69937595D01*
X186721948Y-69977366D01*
X186748772Y-70041882D01*
X186749500Y-70055300D01*
X186749500Y-70173918D01*
X186749500Y-70173920D01*
X186749499Y-70173920D01*
X186778340Y-70318907D01*
X186778343Y-70318917D01*
X186834914Y-70455492D01*
X186867812Y-70504727D01*
X186867813Y-70504730D01*
X186917046Y-70578414D01*
X186917052Y-70578421D01*
X188941584Y-72602952D01*
X188941586Y-72602954D01*
X188971058Y-72622645D01*
X189015270Y-72652186D01*
X189064505Y-72685084D01*
X189064506Y-72685084D01*
X189064507Y-72685085D01*
X189064509Y-72685086D01*
X189201082Y-72741656D01*
X189201087Y-72741658D01*
X189201091Y-72741658D01*
X189201092Y-72741659D01*
X189346079Y-72770500D01*
X189346082Y-72770500D01*
X189346083Y-72770500D01*
X189493917Y-72770500D01*
X221013090Y-72770500D01*
X221080129Y-72790185D01*
X221100772Y-72806819D01*
X221101468Y-72807515D01*
X221101471Y-72807519D01*
X221252481Y-72958529D01*
X221427419Y-73081021D01*
X221427421Y-73081022D01*
X221427420Y-73081022D01*
X221491936Y-73111106D01*
X221620970Y-73171276D01*
X221827253Y-73226549D01*
X221979215Y-73239844D01*
X222039998Y-73245162D01*
X222040000Y-73245162D01*
X222040002Y-73245162D01*
X222093186Y-73240508D01*
X222252747Y-73226549D01*
X222459030Y-73171276D01*
X222652581Y-73081021D01*
X222827519Y-72958529D01*
X222978529Y-72807519D01*
X223101021Y-72632581D01*
X223191276Y-72439030D01*
X223246549Y-72232747D01*
X223265162Y-72020000D01*
X223246549Y-71807253D01*
X223191276Y-71600970D01*
X223101021Y-71407419D01*
X222978529Y-71232481D01*
X222978527Y-71232478D01*
X222827521Y-71081472D01*
X222652578Y-70958977D01*
X222652579Y-70958977D01*
X222523547Y-70898809D01*
X222459030Y-70868724D01*
X222459026Y-70868723D01*
X222459022Y-70868721D01*
X222252752Y-70813452D01*
X222252748Y-70813451D01*
X222252747Y-70813451D01*
X222252746Y-70813450D01*
X222252741Y-70813450D01*
X222040002Y-70794838D01*
X222039998Y-70794838D01*
X221827258Y-70813450D01*
X221827247Y-70813452D01*
X221620977Y-70868721D01*
X221620968Y-70868725D01*
X221427421Y-70958977D01*
X221252482Y-71081469D01*
X221176627Y-71157325D01*
X221101471Y-71232481D01*
X221101468Y-71232484D01*
X221100772Y-71233181D01*
X221039448Y-71266666D01*
X221013090Y-71269500D01*
X189782230Y-71269500D01*
X189715191Y-71249815D01*
X189694549Y-71233181D01*
X188500443Y-70039075D01*
X188466958Y-69977752D01*
X188471942Y-69908060D01*
X188513814Y-69852127D01*
X188523021Y-69845859D01*
X188568656Y-69817712D01*
X188692712Y-69693656D01*
X188784814Y-69544334D01*
X188784814Y-69544331D01*
X188788448Y-69538441D01*
X188840395Y-69491716D01*
X188909358Y-69480493D01*
X188973440Y-69508336D01*
X188981668Y-69515856D01*
X189120535Y-69654723D01*
X189120540Y-69654727D01*
X189292442Y-69779620D01*
X189481782Y-69876095D01*
X189683871Y-69941757D01*
X189750000Y-69952231D01*
X189750000Y-68904145D01*
X189816657Y-68942630D01*
X189937465Y-68975000D01*
X190062535Y-68975000D01*
X190183343Y-68942630D01*
X190250000Y-68904145D01*
X190250000Y-69952230D01*
X190316126Y-69941757D01*
X190316129Y-69941757D01*
X190518217Y-69876095D01*
X190707557Y-69779620D01*
X190879459Y-69654727D01*
X190879464Y-69654723D01*
X191029721Y-69504466D01*
X191149371Y-69339781D01*
X191204701Y-69297115D01*
X191274314Y-69291136D01*
X191336110Y-69323741D01*
X191350008Y-69339781D01*
X191469890Y-69504785D01*
X191469894Y-69504790D01*
X191620213Y-69655109D01*
X191792179Y-69780048D01*
X191792181Y-69780049D01*
X191792184Y-69780051D01*
X191981588Y-69876557D01*
X192183757Y-69942246D01*
X192393713Y-69975500D01*
X192393714Y-69975500D01*
X192606286Y-69975500D01*
X192606287Y-69975500D01*
X192816243Y-69942246D01*
X193018412Y-69876557D01*
X193207816Y-69780051D01*
X193275339Y-69730993D01*
X193379786Y-69655109D01*
X193379788Y-69655106D01*
X193379792Y-69655104D01*
X193530104Y-69504792D01*
X193649683Y-69340204D01*
X193705011Y-69297540D01*
X193774624Y-69291561D01*
X193836420Y-69324166D01*
X193850313Y-69340199D01*
X193952242Y-69480493D01*
X193969896Y-69504792D01*
X194120213Y-69655109D01*
X194292179Y-69780048D01*
X194292181Y-69780049D01*
X194292184Y-69780051D01*
X194481588Y-69876557D01*
X194683757Y-69942246D01*
X194893713Y-69975500D01*
X194893714Y-69975500D01*
X195106286Y-69975500D01*
X195106287Y-69975500D01*
X195316243Y-69942246D01*
X195518412Y-69876557D01*
X195707816Y-69780051D01*
X195775339Y-69730993D01*
X195879786Y-69655109D01*
X195879788Y-69655106D01*
X195879792Y-69655104D01*
X196030104Y-69504792D01*
X196030106Y-69504788D01*
X196030109Y-69504786D01*
X196155048Y-69332820D01*
X196155047Y-69332820D01*
X196155051Y-69332816D01*
X196251557Y-69143412D01*
X196317246Y-68941243D01*
X196350500Y-68731287D01*
X196350500Y-68268713D01*
X196317246Y-68058757D01*
X196251557Y-67856588D01*
X196171763Y-67699983D01*
X208649500Y-67699983D01*
X208649500Y-69300001D01*
X208649501Y-69300018D01*
X208660000Y-69402796D01*
X208660001Y-69402799D01*
X208704949Y-69538441D01*
X208715186Y-69569334D01*
X208807288Y-69718656D01*
X208931344Y-69842712D01*
X209080666Y-69934814D01*
X209247203Y-69989999D01*
X209349991Y-70000500D01*
X210650008Y-70000499D01*
X210752797Y-69989999D01*
X210919334Y-69934814D01*
X211068656Y-69842712D01*
X211192712Y-69718656D01*
X211284814Y-69569334D01*
X211284814Y-69569331D01*
X211288178Y-69563879D01*
X211340126Y-69517154D01*
X211409088Y-69505931D01*
X211473170Y-69533774D01*
X211481398Y-69541294D01*
X211620213Y-69680109D01*
X211792179Y-69805048D01*
X211792181Y-69805049D01*
X211792184Y-69805051D01*
X211981588Y-69901557D01*
X212183757Y-69967246D01*
X212393713Y-70000500D01*
X212393714Y-70000500D01*
X212606286Y-70000500D01*
X212606287Y-70000500D01*
X212816243Y-69967246D01*
X213018412Y-69901557D01*
X213207816Y-69805051D01*
X213309749Y-69730993D01*
X213379786Y-69680109D01*
X213379788Y-69680106D01*
X213379792Y-69680104D01*
X213530104Y-69529792D01*
X213530106Y-69529788D01*
X213530109Y-69529786D01*
X213566282Y-69479998D01*
X218274838Y-69479998D01*
X218274838Y-69480001D01*
X218293450Y-69692741D01*
X218293452Y-69692752D01*
X218348721Y-69899022D01*
X218348723Y-69899026D01*
X218348724Y-69899030D01*
X218366707Y-69937594D01*
X218438977Y-70092578D01*
X218561472Y-70267521D01*
X218712478Y-70418527D01*
X218712481Y-70418529D01*
X218887419Y-70541021D01*
X218887421Y-70541022D01*
X218887420Y-70541022D01*
X218951936Y-70571106D01*
X219080970Y-70631276D01*
X219287253Y-70686549D01*
X219439215Y-70699844D01*
X219499998Y-70705162D01*
X219500000Y-70705162D01*
X219500002Y-70705162D01*
X219553186Y-70700508D01*
X219712747Y-70686549D01*
X219919030Y-70631276D01*
X220112581Y-70541021D01*
X220287519Y-70418529D01*
X220438529Y-70267519D01*
X220561021Y-70092581D01*
X220651276Y-69899030D01*
X220706549Y-69692747D01*
X220722994Y-69504785D01*
X220725162Y-69480001D01*
X220725162Y-69479998D01*
X223354838Y-69479998D01*
X223354838Y-69480001D01*
X223373450Y-69692741D01*
X223373452Y-69692752D01*
X223428721Y-69899022D01*
X223428723Y-69899026D01*
X223428724Y-69899030D01*
X223446707Y-69937594D01*
X223518977Y-70092578D01*
X223641472Y-70267521D01*
X223792478Y-70418527D01*
X223792481Y-70418529D01*
X223967419Y-70541021D01*
X223967421Y-70541022D01*
X223967420Y-70541022D01*
X224031936Y-70571106D01*
X224160970Y-70631276D01*
X224367253Y-70686549D01*
X224519215Y-70699844D01*
X224579998Y-70705162D01*
X224580000Y-70705162D01*
X224580002Y-70705162D01*
X224633186Y-70700508D01*
X224792747Y-70686549D01*
X224999030Y-70631276D01*
X225192581Y-70541021D01*
X225367519Y-70418529D01*
X225518529Y-70267519D01*
X225641021Y-70092581D01*
X225731276Y-69899030D01*
X225786549Y-69692747D01*
X225802994Y-69504785D01*
X225805162Y-69480001D01*
X225805162Y-69479998D01*
X225798408Y-69402797D01*
X225786549Y-69267253D01*
X225731276Y-69060970D01*
X225702845Y-69000000D01*
X241159076Y-69000000D01*
X241178550Y-69284708D01*
X241178550Y-69284712D01*
X241178551Y-69284714D01*
X241189994Y-69339781D01*
X241236613Y-69564127D01*
X241236614Y-69564130D01*
X241332179Y-69833022D01*
X241332178Y-69833022D01*
X241440401Y-70041882D01*
X241463474Y-70086411D01*
X241628047Y-70319557D01*
X241628051Y-70319561D01*
X241628051Y-70319562D01*
X241720478Y-70418527D01*
X241800986Y-70504730D01*
X241822836Y-70528125D01*
X241946652Y-70628856D01*
X242044205Y-70708222D01*
X242044207Y-70708223D01*
X242044208Y-70708224D01*
X242288040Y-70856502D01*
X242288045Y-70856504D01*
X242418915Y-70913348D01*
X242549792Y-70970196D01*
X242824589Y-71047190D01*
X243073144Y-71081354D01*
X243107309Y-71086050D01*
X243107310Y-71086050D01*
X243392691Y-71086050D01*
X243426018Y-71081469D01*
X243675411Y-71047190D01*
X243950208Y-70970196D01*
X244211961Y-70856501D01*
X244455795Y-70708222D01*
X244677167Y-70528122D01*
X244871953Y-70319557D01*
X245036526Y-70086411D01*
X245167819Y-69833026D01*
X245263387Y-69564125D01*
X245321449Y-69284714D01*
X245340924Y-69000000D01*
X245321449Y-68715286D01*
X245263387Y-68435875D01*
X245257381Y-68418977D01*
X245167820Y-68166977D01*
X245167821Y-68166977D01*
X245094254Y-68025000D01*
X245036526Y-67913589D01*
X244871953Y-67680443D01*
X244871948Y-67680437D01*
X244698960Y-67495213D01*
X244677167Y-67471878D01*
X244677165Y-67471877D01*
X244677163Y-67471874D01*
X244512075Y-67337565D01*
X244455795Y-67291778D01*
X244455793Y-67291777D01*
X244455791Y-67291775D01*
X244211959Y-67143497D01*
X244211954Y-67143495D01*
X243950213Y-67029806D01*
X243950211Y-67029805D01*
X243950208Y-67029804D01*
X243821619Y-66993775D01*
X243675417Y-66952811D01*
X243675412Y-66952810D01*
X243675411Y-66952810D01*
X243534050Y-66933380D01*
X243392691Y-66913950D01*
X243392690Y-66913950D01*
X243107310Y-66913950D01*
X243107309Y-66913950D01*
X242824589Y-66952810D01*
X242824582Y-66952811D01*
X242620474Y-67010000D01*
X242549792Y-67029804D01*
X242549789Y-67029804D01*
X242549786Y-67029806D01*
X242549785Y-67029806D01*
X242288045Y-67143495D01*
X242288040Y-67143497D01*
X242044208Y-67291775D01*
X241822836Y-67471874D01*
X241628051Y-67680437D01*
X241628051Y-67680438D01*
X241628048Y-67680440D01*
X241628047Y-67680443D01*
X241596601Y-67724992D01*
X241463474Y-67913588D01*
X241332179Y-68166977D01*
X241236614Y-68435869D01*
X241236613Y-68435872D01*
X241178550Y-68715291D01*
X241159076Y-69000000D01*
X225702845Y-69000000D01*
X225641021Y-68867419D01*
X225518529Y-68692481D01*
X225518527Y-68692478D01*
X225367521Y-68541472D01*
X225192578Y-68418977D01*
X225192579Y-68418977D01*
X225063547Y-68358809D01*
X224999030Y-68328724D01*
X224999026Y-68328723D01*
X224999022Y-68328721D01*
X224792752Y-68273452D01*
X224792748Y-68273451D01*
X224792747Y-68273451D01*
X224792746Y-68273450D01*
X224792741Y-68273450D01*
X224580002Y-68254838D01*
X224579998Y-68254838D01*
X224367258Y-68273450D01*
X224367247Y-68273452D01*
X224160977Y-68328721D01*
X224160968Y-68328725D01*
X223967421Y-68418977D01*
X223792478Y-68541472D01*
X223641472Y-68692478D01*
X223518977Y-68867421D01*
X223428725Y-69060968D01*
X223428721Y-69060977D01*
X223373452Y-69267247D01*
X223373450Y-69267258D01*
X223354838Y-69479998D01*
X220725162Y-69479998D01*
X220718408Y-69402797D01*
X220706549Y-69267253D01*
X220651276Y-69060970D01*
X220561021Y-68867419D01*
X220438529Y-68692481D01*
X220438527Y-68692478D01*
X220287521Y-68541472D01*
X220112578Y-68418977D01*
X220112579Y-68418977D01*
X219983547Y-68358809D01*
X219919030Y-68328724D01*
X219919026Y-68328723D01*
X219919022Y-68328721D01*
X219712752Y-68273452D01*
X219712748Y-68273451D01*
X219712747Y-68273451D01*
X219712746Y-68273450D01*
X219712741Y-68273450D01*
X219500002Y-68254838D01*
X219499998Y-68254838D01*
X219287258Y-68273450D01*
X219287247Y-68273452D01*
X219080977Y-68328721D01*
X219080968Y-68328725D01*
X218887421Y-68418977D01*
X218712478Y-68541472D01*
X218561472Y-68692478D01*
X218438977Y-68867421D01*
X218348725Y-69060968D01*
X218348721Y-69060977D01*
X218293452Y-69267247D01*
X218293450Y-69267258D01*
X218274838Y-69479998D01*
X213566282Y-69479998D01*
X213655048Y-69357820D01*
X213655047Y-69357820D01*
X213655051Y-69357816D01*
X213751557Y-69168412D01*
X213817246Y-68966243D01*
X213850500Y-68756287D01*
X213850500Y-68243713D01*
X213817246Y-68033757D01*
X213751557Y-67831588D01*
X213655051Y-67642184D01*
X213655049Y-67642181D01*
X213655048Y-67642179D01*
X213530109Y-67470213D01*
X213379786Y-67319890D01*
X213207820Y-67194951D01*
X213018414Y-67098444D01*
X213018413Y-67098443D01*
X213018412Y-67098443D01*
X212816243Y-67032754D01*
X212816241Y-67032753D01*
X212816240Y-67032753D01*
X212654957Y-67007208D01*
X212606287Y-66999500D01*
X212393713Y-66999500D01*
X212345042Y-67007208D01*
X212183760Y-67032753D01*
X211981585Y-67098444D01*
X211792179Y-67194951D01*
X211620215Y-67319889D01*
X211481398Y-67458706D01*
X211420075Y-67492190D01*
X211350383Y-67487206D01*
X211294450Y-67445334D01*
X211288178Y-67436120D01*
X211192712Y-67281344D01*
X211068657Y-67157289D01*
X211068656Y-67157288D01*
X210919334Y-67065186D01*
X210752797Y-67010001D01*
X210752795Y-67010000D01*
X210650010Y-66999500D01*
X209349998Y-66999500D01*
X209349981Y-66999501D01*
X209247203Y-67010000D01*
X209247200Y-67010001D01*
X209080668Y-67065185D01*
X209080663Y-67065187D01*
X208931342Y-67157289D01*
X208807289Y-67281342D01*
X208715187Y-67430663D01*
X208715185Y-67430668D01*
X208693689Y-67495540D01*
X208660001Y-67597203D01*
X208660001Y-67597204D01*
X208660000Y-67597204D01*
X208649500Y-67699983D01*
X196171763Y-67699983D01*
X196155051Y-67667184D01*
X196155049Y-67667181D01*
X196155048Y-67667179D01*
X196030109Y-67495213D01*
X195879786Y-67344890D01*
X195707820Y-67219951D01*
X195518414Y-67123444D01*
X195518413Y-67123443D01*
X195518412Y-67123443D01*
X195316243Y-67057754D01*
X195316241Y-67057753D01*
X195316240Y-67057753D01*
X195154957Y-67032208D01*
X195106287Y-67024500D01*
X194893713Y-67024500D01*
X194845042Y-67032208D01*
X194683760Y-67057753D01*
X194481585Y-67123444D01*
X194292179Y-67219951D01*
X194120213Y-67344890D01*
X193969894Y-67495209D01*
X193969890Y-67495214D01*
X193850318Y-67659793D01*
X193794989Y-67702459D01*
X193725375Y-67708438D01*
X193663580Y-67675833D01*
X193649682Y-67659793D01*
X193530109Y-67495214D01*
X193530105Y-67495209D01*
X193379786Y-67344890D01*
X193207820Y-67219951D01*
X193018414Y-67123444D01*
X193018413Y-67123443D01*
X193018412Y-67123443D01*
X192816243Y-67057754D01*
X192816241Y-67057753D01*
X192816240Y-67057753D01*
X192654957Y-67032208D01*
X192606287Y-67024500D01*
X192393713Y-67024500D01*
X192345042Y-67032208D01*
X192183760Y-67057753D01*
X191981585Y-67123444D01*
X191792179Y-67219951D01*
X191620213Y-67344890D01*
X191469894Y-67495209D01*
X191469890Y-67495214D01*
X191350008Y-67660218D01*
X191294678Y-67702884D01*
X191225065Y-67708863D01*
X191163270Y-67676257D01*
X191149372Y-67660218D01*
X191029727Y-67495540D01*
X191029723Y-67495535D01*
X190879464Y-67345276D01*
X190879459Y-67345272D01*
X190707557Y-67220379D01*
X190518215Y-67123903D01*
X190316124Y-67058241D01*
X190250000Y-67047768D01*
X190250000Y-68095854D01*
X190183343Y-68057370D01*
X190062535Y-68025000D01*
X189937465Y-68025000D01*
X189816657Y-68057370D01*
X189750000Y-68095854D01*
X189750000Y-67047768D01*
X189749999Y-67047768D01*
X189683875Y-67058241D01*
X189481784Y-67123903D01*
X189292442Y-67220379D01*
X189120541Y-67345271D01*
X188981668Y-67484144D01*
X188920345Y-67517628D01*
X188850653Y-67512644D01*
X188794720Y-67470772D01*
X188788448Y-67461558D01*
X188692712Y-67306344D01*
X188568657Y-67182289D01*
X188568656Y-67182288D01*
X188473253Y-67123443D01*
X188419336Y-67090187D01*
X188419331Y-67090185D01*
X188417862Y-67089698D01*
X188252797Y-67035001D01*
X188252795Y-67035000D01*
X188150010Y-67024500D01*
X186849998Y-67024500D01*
X186849981Y-67024501D01*
X186747203Y-67035000D01*
X186747200Y-67035001D01*
X186580668Y-67090185D01*
X186580663Y-67090187D01*
X186431342Y-67182289D01*
X186307289Y-67306342D01*
X186215187Y-67455663D01*
X186215185Y-67455668D01*
X186203083Y-67492190D01*
X186160001Y-67622203D01*
X186160001Y-67622204D01*
X186160000Y-67622204D01*
X186149500Y-67724983D01*
X181184501Y-67724983D01*
X181155051Y-67667184D01*
X181155049Y-67667181D01*
X181155048Y-67667179D01*
X181030109Y-67495213D01*
X180879786Y-67344890D01*
X180707820Y-67219951D01*
X180518414Y-67123444D01*
X180518413Y-67123443D01*
X180518412Y-67123443D01*
X180316243Y-67057754D01*
X180316241Y-67057753D01*
X180316240Y-67057753D01*
X180154957Y-67032208D01*
X180106287Y-67024500D01*
X179893713Y-67024500D01*
X179845042Y-67032208D01*
X179683760Y-67057753D01*
X179481585Y-67123444D01*
X179292179Y-67219951D01*
X179120213Y-67344890D01*
X178969894Y-67495209D01*
X178969890Y-67495214D01*
X178850318Y-67659793D01*
X178794989Y-67702459D01*
X178725375Y-67708438D01*
X178663580Y-67675833D01*
X178649682Y-67659793D01*
X178530109Y-67495214D01*
X178530105Y-67495209D01*
X178379786Y-67344890D01*
X178207820Y-67219951D01*
X178018414Y-67123444D01*
X178018413Y-67123443D01*
X178018412Y-67123443D01*
X177816243Y-67057754D01*
X177816241Y-67057753D01*
X177816240Y-67057753D01*
X177654957Y-67032208D01*
X177606287Y-67024500D01*
X177393713Y-67024500D01*
X177345042Y-67032208D01*
X177183760Y-67057753D01*
X176981585Y-67123444D01*
X176792179Y-67219951D01*
X176620213Y-67344890D01*
X176469894Y-67495209D01*
X176469890Y-67495214D01*
X176350318Y-67659793D01*
X176294989Y-67702459D01*
X176225375Y-67708438D01*
X176163580Y-67675833D01*
X176149682Y-67659793D01*
X176030109Y-67495214D01*
X176030105Y-67495209D01*
X175879786Y-67344890D01*
X175707820Y-67219951D01*
X175518414Y-67123444D01*
X175518413Y-67123443D01*
X175518412Y-67123443D01*
X175316243Y-67057754D01*
X175316241Y-67057753D01*
X175316240Y-67057753D01*
X175154957Y-67032208D01*
X175106287Y-67024500D01*
X174893713Y-67024500D01*
X174845042Y-67032208D01*
X174683760Y-67057753D01*
X174481585Y-67123444D01*
X174292179Y-67219951D01*
X174120213Y-67344890D01*
X173969894Y-67495209D01*
X173969890Y-67495214D01*
X173850318Y-67659793D01*
X173794989Y-67702459D01*
X173725375Y-67708438D01*
X173663580Y-67675833D01*
X173649682Y-67659793D01*
X173530109Y-67495214D01*
X173530105Y-67495209D01*
X173379786Y-67344890D01*
X173207820Y-67219951D01*
X173018414Y-67123444D01*
X173018413Y-67123443D01*
X173018412Y-67123443D01*
X172816243Y-67057754D01*
X172816241Y-67057753D01*
X172816240Y-67057753D01*
X172654957Y-67032208D01*
X172606287Y-67024500D01*
X172393713Y-67024500D01*
X172345042Y-67032208D01*
X172183760Y-67057753D01*
X171981585Y-67123444D01*
X171792179Y-67219951D01*
X171620213Y-67344890D01*
X171469894Y-67495209D01*
X171469890Y-67495214D01*
X171350318Y-67659793D01*
X171294989Y-67702459D01*
X171225375Y-67708438D01*
X171163580Y-67675833D01*
X171149682Y-67659793D01*
X171030109Y-67495214D01*
X171030105Y-67495209D01*
X170879786Y-67344890D01*
X170707820Y-67219951D01*
X170518414Y-67123444D01*
X170518413Y-67123443D01*
X170518412Y-67123443D01*
X170316243Y-67057754D01*
X170316241Y-67057753D01*
X170316240Y-67057753D01*
X170154957Y-67032208D01*
X170106287Y-67024500D01*
X169893713Y-67024500D01*
X169845042Y-67032208D01*
X169683760Y-67057753D01*
X169481585Y-67123444D01*
X169292179Y-67219951D01*
X169120213Y-67344890D01*
X168969894Y-67495209D01*
X168969890Y-67495214D01*
X168850008Y-67660218D01*
X168794678Y-67702884D01*
X168725065Y-67708863D01*
X168663270Y-67676257D01*
X168649372Y-67660218D01*
X168529727Y-67495540D01*
X168529723Y-67495535D01*
X168379464Y-67345276D01*
X168379459Y-67345272D01*
X168207557Y-67220379D01*
X168018215Y-67123903D01*
X167816124Y-67058241D01*
X167750000Y-67047768D01*
X167750000Y-68095854D01*
X167683343Y-68057370D01*
X167562535Y-68025000D01*
X167437465Y-68025000D01*
X167316657Y-68057370D01*
X167250000Y-68095854D01*
X167250000Y-67047768D01*
X167249999Y-67047768D01*
X167183875Y-67058241D01*
X166981784Y-67123903D01*
X166792442Y-67220379D01*
X166620541Y-67345271D01*
X166481668Y-67484144D01*
X166420345Y-67517628D01*
X166350653Y-67512644D01*
X166294720Y-67470772D01*
X166288448Y-67461558D01*
X166192712Y-67306344D01*
X166068657Y-67182289D01*
X166068656Y-67182288D01*
X165973253Y-67123443D01*
X165919336Y-67090187D01*
X165919331Y-67090185D01*
X165917862Y-67089698D01*
X165752797Y-67035001D01*
X165752795Y-67035000D01*
X165650010Y-67024500D01*
X164349998Y-67024500D01*
X164349981Y-67024501D01*
X164247203Y-67035000D01*
X164247200Y-67035001D01*
X164080668Y-67090185D01*
X164080663Y-67090187D01*
X163931342Y-67182289D01*
X163807289Y-67306342D01*
X163715187Y-67455663D01*
X163715185Y-67455668D01*
X163703083Y-67492190D01*
X163660001Y-67622203D01*
X163660001Y-67622204D01*
X163660000Y-67622204D01*
X163649500Y-67724983D01*
X163649500Y-69275001D01*
X163649501Y-69275018D01*
X163660000Y-69377796D01*
X163660001Y-69377799D01*
X163693867Y-69479998D01*
X163715186Y-69544334D01*
X163807288Y-69693656D01*
X163931344Y-69817712D01*
X164080666Y-69909814D01*
X164178539Y-69942246D01*
X164247199Y-69964998D01*
X164247200Y-69964998D01*
X164247203Y-69964999D01*
X164254225Y-69965716D01*
X164318916Y-69992107D01*
X164344731Y-70020185D01*
X164360395Y-70043628D01*
X164417049Y-70128418D01*
X164417052Y-70128421D01*
X169546580Y-75257948D01*
X169546584Y-75257951D01*
X169669498Y-75340080D01*
X169669511Y-75340087D01*
X169806082Y-75396656D01*
X169806087Y-75396658D01*
X169806091Y-75396658D01*
X169806092Y-75396659D01*
X169951079Y-75425500D01*
X169951082Y-75425500D01*
X170098917Y-75425500D01*
X181203791Y-75425500D01*
X181270830Y-75445185D01*
X181316585Y-75497989D01*
X181327011Y-75563384D01*
X181314435Y-75674997D01*
X181314435Y-75675003D01*
X181334630Y-75854249D01*
X181334631Y-75854254D01*
X181394211Y-76024523D01*
X181490185Y-76177263D01*
X181492445Y-76180097D01*
X181493334Y-76182275D01*
X181493889Y-76183158D01*
X181493734Y-76183255D01*
X181518855Y-76244783D01*
X181519500Y-76257412D01*
X181519500Y-82823330D01*
X181519499Y-82823348D01*
X181519499Y-82989054D01*
X181519498Y-82989054D01*
X181560423Y-83141785D01*
X181589358Y-83191900D01*
X181589359Y-83191904D01*
X181589360Y-83191904D01*
X181639479Y-83278714D01*
X181639481Y-83278717D01*
X181758349Y-83397585D01*
X181758355Y-83397590D01*
X185175139Y-86814374D01*
X185175149Y-86814385D01*
X185179479Y-86818715D01*
X185179480Y-86818716D01*
X185291284Y-86930520D01*
X185378095Y-86980639D01*
X185378097Y-86980641D01*
X185416151Y-87002611D01*
X185428215Y-87009577D01*
X185580943Y-87050501D01*
X185580946Y-87050501D01*
X185746653Y-87050501D01*
X185746669Y-87050500D01*
X188263331Y-87050500D01*
X188263347Y-87050501D01*
X188270943Y-87050501D01*
X188429054Y-87050501D01*
X188429057Y-87050501D01*
X188581785Y-87009577D01*
X188631904Y-86980639D01*
X188718716Y-86930520D01*
X188830520Y-86818716D01*
X188830520Y-86818714D01*
X188840728Y-86808507D01*
X188840730Y-86808504D01*
X189566104Y-86083129D01*
X189627425Y-86049646D01*
X189685876Y-86051037D01*
X189727902Y-86062297D01*
X189806649Y-86083398D01*
X189993329Y-86099730D01*
X190039999Y-86103814D01*
X190040000Y-86103814D01*
X190040001Y-86103814D01*
X190078891Y-86100411D01*
X190273351Y-86083398D01*
X190499611Y-86022772D01*
X190711907Y-85923777D01*
X190903787Y-85789421D01*
X191069421Y-85623787D01*
X191203777Y-85431907D01*
X191203777Y-85431905D01*
X191206882Y-85427472D01*
X191208323Y-85428481D01*
X191253172Y-85385712D01*
X191321778Y-85372484D01*
X191386645Y-85398447D01*
X191412294Y-85428048D01*
X191413118Y-85427472D01*
X191416222Y-85431905D01*
X191416223Y-85431907D01*
X191550579Y-85623787D01*
X191716213Y-85789421D01*
X191908093Y-85923777D01*
X192120389Y-86022772D01*
X192346649Y-86083398D01*
X192533329Y-86099730D01*
X192579999Y-86103814D01*
X192580000Y-86103814D01*
X192580001Y-86103814D01*
X192618891Y-86100411D01*
X192813351Y-86083398D01*
X193039611Y-86022772D01*
X193251907Y-85923777D01*
X193443787Y-85789421D01*
X193609421Y-85623787D01*
X193743777Y-85431907D01*
X193743777Y-85431905D01*
X193746882Y-85427472D01*
X193748323Y-85428481D01*
X193793172Y-85385712D01*
X193861778Y-85372484D01*
X193926645Y-85398447D01*
X193952294Y-85428048D01*
X193953118Y-85427472D01*
X193956222Y-85431905D01*
X193956223Y-85431907D01*
X194090579Y-85623787D01*
X194256213Y-85789421D01*
X194448093Y-85923777D01*
X194660389Y-86022772D01*
X194886649Y-86083398D01*
X195073329Y-86099730D01*
X195119999Y-86103814D01*
X195120000Y-86103814D01*
X195120001Y-86103814D01*
X195158891Y-86100411D01*
X195353351Y-86083398D01*
X195579611Y-86022772D01*
X195791907Y-85923777D01*
X195983787Y-85789421D01*
X196149421Y-85623787D01*
X196283777Y-85431907D01*
X196283777Y-85431905D01*
X196286882Y-85427472D01*
X196288323Y-85428481D01*
X196333172Y-85385712D01*
X196401778Y-85372484D01*
X196466645Y-85398447D01*
X196492294Y-85428048D01*
X196493118Y-85427472D01*
X196496222Y-85431905D01*
X196496223Y-85431907D01*
X196630579Y-85623787D01*
X196796213Y-85789421D01*
X196988093Y-85923777D01*
X197200389Y-86022772D01*
X197426649Y-86083398D01*
X197613329Y-86099730D01*
X197659999Y-86103814D01*
X197660000Y-86103814D01*
X197660001Y-86103814D01*
X197698891Y-86100411D01*
X197893351Y-86083398D01*
X198119611Y-86022772D01*
X198331907Y-85923777D01*
X198523787Y-85789421D01*
X198689421Y-85623787D01*
X198823777Y-85431907D01*
X198823777Y-85431905D01*
X198826882Y-85427472D01*
X198828323Y-85428481D01*
X198873172Y-85385712D01*
X198941778Y-85372484D01*
X199006645Y-85398447D01*
X199032294Y-85428048D01*
X199033118Y-85427472D01*
X199036222Y-85431905D01*
X199036223Y-85431907D01*
X199170579Y-85623787D01*
X199336213Y-85789421D01*
X199528093Y-85923777D01*
X199740389Y-86022772D01*
X199966649Y-86083398D01*
X200153329Y-86099730D01*
X200199999Y-86103814D01*
X200200000Y-86103814D01*
X200200001Y-86103814D01*
X200238891Y-86100411D01*
X200433351Y-86083398D01*
X200659611Y-86022772D01*
X200871907Y-85923777D01*
X201063787Y-85789421D01*
X201229421Y-85623787D01*
X201363777Y-85431907D01*
X201363777Y-85431905D01*
X201366882Y-85427472D01*
X201368323Y-85428481D01*
X201413172Y-85385712D01*
X201481778Y-85372484D01*
X201546645Y-85398447D01*
X201572294Y-85428048D01*
X201573118Y-85427472D01*
X201576222Y-85431905D01*
X201576223Y-85431907D01*
X201710579Y-85623787D01*
X201876213Y-85789421D01*
X202068093Y-85923777D01*
X202280389Y-86022772D01*
X202506649Y-86083398D01*
X202693329Y-86099730D01*
X202739999Y-86103814D01*
X202740000Y-86103814D01*
X202740001Y-86103814D01*
X202778891Y-86100411D01*
X202973351Y-86083398D01*
X203199611Y-86022772D01*
X203411907Y-85923777D01*
X203603787Y-85789421D01*
X203769421Y-85623787D01*
X203903777Y-85431907D01*
X203903777Y-85431905D01*
X203906882Y-85427472D01*
X203908323Y-85428481D01*
X203953172Y-85385712D01*
X204021778Y-85372484D01*
X204086645Y-85398447D01*
X204112294Y-85428048D01*
X204113118Y-85427472D01*
X204116222Y-85431905D01*
X204116223Y-85431907D01*
X204250579Y-85623787D01*
X204416213Y-85789421D01*
X204608093Y-85923777D01*
X204820389Y-86022772D01*
X205046649Y-86083398D01*
X205233329Y-86099730D01*
X205279999Y-86103814D01*
X205280000Y-86103814D01*
X205280001Y-86103814D01*
X205318891Y-86100411D01*
X205513351Y-86083398D01*
X205739611Y-86022772D01*
X205951907Y-85923777D01*
X206143787Y-85789421D01*
X206309421Y-85623787D01*
X206443777Y-85431907D01*
X206443777Y-85431905D01*
X206446882Y-85427472D01*
X206448323Y-85428481D01*
X206493172Y-85385712D01*
X206561778Y-85372484D01*
X206626645Y-85398447D01*
X206652294Y-85428048D01*
X206653118Y-85427472D01*
X206656222Y-85431905D01*
X206656223Y-85431907D01*
X206790579Y-85623787D01*
X206956213Y-85789421D01*
X207148093Y-85923777D01*
X207360389Y-86022772D01*
X207586649Y-86083398D01*
X207773329Y-86099730D01*
X207819999Y-86103814D01*
X207820000Y-86103814D01*
X207820001Y-86103814D01*
X207858891Y-86100411D01*
X208053351Y-86083398D01*
X208279611Y-86022772D01*
X208491907Y-85923777D01*
X208683787Y-85789421D01*
X208849421Y-85623787D01*
X208983777Y-85431907D01*
X208983777Y-85431905D01*
X208986882Y-85427472D01*
X208988323Y-85428481D01*
X209033172Y-85385712D01*
X209101778Y-85372484D01*
X209166645Y-85398447D01*
X209192294Y-85428048D01*
X209193118Y-85427472D01*
X209196222Y-85431905D01*
X209196223Y-85431907D01*
X209330579Y-85623787D01*
X209496213Y-85789421D01*
X209688093Y-85923777D01*
X209900389Y-86022772D01*
X210126649Y-86083398D01*
X210313329Y-86099730D01*
X210359999Y-86103814D01*
X210360000Y-86103814D01*
X210360001Y-86103814D01*
X210398891Y-86100411D01*
X210593351Y-86083398D01*
X210819611Y-86022772D01*
X211031907Y-85923777D01*
X211223787Y-85789421D01*
X211389421Y-85623787D01*
X211523777Y-85431907D01*
X211523777Y-85431905D01*
X211526882Y-85427472D01*
X211528323Y-85428481D01*
X211573172Y-85385712D01*
X211641778Y-85372484D01*
X211706645Y-85398447D01*
X211732294Y-85428048D01*
X211733118Y-85427472D01*
X211736222Y-85431905D01*
X211736223Y-85431907D01*
X211870579Y-85623787D01*
X212036213Y-85789421D01*
X212228093Y-85923777D01*
X212440389Y-86022772D01*
X212666649Y-86083398D01*
X212853329Y-86099730D01*
X212899999Y-86103814D01*
X212900000Y-86103814D01*
X212900001Y-86103814D01*
X212938891Y-86100411D01*
X213133351Y-86083398D01*
X213359611Y-86022772D01*
X213571907Y-85923777D01*
X213763787Y-85789421D01*
X213929421Y-85623787D01*
X214063777Y-85431907D01*
X214063777Y-85431905D01*
X214066882Y-85427472D01*
X214068323Y-85428481D01*
X214113172Y-85385712D01*
X214181778Y-85372484D01*
X214246645Y-85398447D01*
X214272294Y-85428048D01*
X214273118Y-85427472D01*
X214276222Y-85431905D01*
X214276223Y-85431907D01*
X214410579Y-85623787D01*
X214576213Y-85789421D01*
X214768093Y-85923777D01*
X214980389Y-86022772D01*
X215206649Y-86083398D01*
X215393329Y-86099730D01*
X215439999Y-86103814D01*
X215440000Y-86103814D01*
X215440001Y-86103814D01*
X215478891Y-86100411D01*
X215673351Y-86083398D01*
X215899611Y-86022772D01*
X216111907Y-85923777D01*
X216303787Y-85789421D01*
X216469421Y-85623787D01*
X216603777Y-85431907D01*
X216603777Y-85431905D01*
X216606882Y-85427472D01*
X216608323Y-85428481D01*
X216653172Y-85385712D01*
X216721778Y-85372484D01*
X216786645Y-85398447D01*
X216812294Y-85428048D01*
X216813118Y-85427472D01*
X216816222Y-85431905D01*
X216816223Y-85431907D01*
X216950579Y-85623787D01*
X217116213Y-85789421D01*
X217308093Y-85923777D01*
X217520389Y-86022772D01*
X217746649Y-86083398D01*
X217933329Y-86099730D01*
X217979999Y-86103814D01*
X217980000Y-86103814D01*
X217980001Y-86103814D01*
X218018891Y-86100411D01*
X218213351Y-86083398D01*
X218439611Y-86022772D01*
X218651907Y-85923777D01*
X218843787Y-85789421D01*
X219009421Y-85623787D01*
X219143777Y-85431907D01*
X219143777Y-85431905D01*
X219146882Y-85427472D01*
X219148323Y-85428481D01*
X219193172Y-85385712D01*
X219261778Y-85372484D01*
X219326645Y-85398447D01*
X219352294Y-85428048D01*
X219353118Y-85427472D01*
X219356222Y-85431905D01*
X219356223Y-85431907D01*
X219490579Y-85623787D01*
X219656213Y-85789421D01*
X219848093Y-85923777D01*
X220060389Y-86022772D01*
X220286649Y-86083398D01*
X220473329Y-86099730D01*
X220519999Y-86103814D01*
X220520000Y-86103814D01*
X220520001Y-86103814D01*
X220558891Y-86100411D01*
X220753351Y-86083398D01*
X220979611Y-86022772D01*
X221191907Y-85923777D01*
X221383787Y-85789421D01*
X221549421Y-85623787D01*
X221683777Y-85431907D01*
X221683777Y-85431905D01*
X221686882Y-85427472D01*
X221688323Y-85428481D01*
X221733172Y-85385712D01*
X221801778Y-85372484D01*
X221866645Y-85398447D01*
X221892294Y-85428048D01*
X221893118Y-85427472D01*
X221896222Y-85431905D01*
X221896223Y-85431907D01*
X222030579Y-85623787D01*
X222196213Y-85789421D01*
X222388093Y-85923777D01*
X222388094Y-85923777D01*
X222392528Y-85926882D01*
X222391521Y-85928319D01*
X222434297Y-85973190D01*
X222447513Y-86041798D01*
X222421540Y-86106660D01*
X222391953Y-86132297D01*
X222392528Y-86133118D01*
X222388094Y-86136222D01*
X222388093Y-86136223D01*
X222196213Y-86270579D01*
X222196211Y-86270580D01*
X222196208Y-86270583D01*
X222030583Y-86436208D01*
X221896223Y-86628093D01*
X221797229Y-86840387D01*
X221797225Y-86840396D01*
X221736603Y-87066643D01*
X221736601Y-87066653D01*
X221716186Y-87299999D01*
X221716186Y-87300000D01*
X221736601Y-87533346D01*
X221736603Y-87533356D01*
X221797225Y-87759603D01*
X221797227Y-87759607D01*
X221797228Y-87759611D01*
X221896223Y-87971907D01*
X222030579Y-88163787D01*
X222196213Y-88329421D01*
X222388093Y-88463777D01*
X222388094Y-88463777D01*
X222392528Y-88466882D01*
X222391521Y-88468319D01*
X222434297Y-88513190D01*
X222447513Y-88581798D01*
X222421540Y-88646660D01*
X222391953Y-88672297D01*
X222392528Y-88673118D01*
X222388094Y-88676222D01*
X222388093Y-88676223D01*
X222196213Y-88810579D01*
X222196211Y-88810580D01*
X222196208Y-88810583D01*
X222030583Y-88976208D01*
X221896223Y-89168093D01*
X221797229Y-89380387D01*
X221797225Y-89380396D01*
X221736603Y-89606643D01*
X221736601Y-89606653D01*
X221716186Y-89839999D01*
X221716186Y-89840000D01*
X221736601Y-90073346D01*
X221736603Y-90073356D01*
X221797225Y-90299603D01*
X221797227Y-90299607D01*
X221797228Y-90299611D01*
X221896223Y-90511907D01*
X222030579Y-90703787D01*
X222196213Y-90869421D01*
X222388093Y-91003777D01*
X222388094Y-91003777D01*
X222392528Y-91006882D01*
X222391521Y-91008319D01*
X222434297Y-91053190D01*
X222447513Y-91121798D01*
X222421540Y-91186660D01*
X222391953Y-91212297D01*
X222392528Y-91213118D01*
X222388094Y-91216222D01*
X222388093Y-91216223D01*
X222196213Y-91350579D01*
X222196211Y-91350580D01*
X222196208Y-91350583D01*
X222030583Y-91516208D01*
X221896223Y-91708093D01*
X221797229Y-91920387D01*
X221797225Y-91920396D01*
X221736603Y-92146643D01*
X221736601Y-92146653D01*
X221716186Y-92379999D01*
X221716186Y-92380000D01*
X221736601Y-92613346D01*
X221736603Y-92613356D01*
X221797225Y-92839603D01*
X221797227Y-92839607D01*
X221797228Y-92839611D01*
X221896223Y-93051907D01*
X222030579Y-93243787D01*
X222196213Y-93409421D01*
X222388093Y-93543777D01*
X222600389Y-93642772D01*
X222826649Y-93703398D01*
X223013329Y-93719730D01*
X223059999Y-93723814D01*
X223060000Y-93723814D01*
X223060001Y-93723814D01*
X223098891Y-93720411D01*
X223293351Y-93703398D01*
X223519611Y-93642772D01*
X223731907Y-93543777D01*
X223923787Y-93409421D01*
X224089421Y-93243787D01*
X224223777Y-93051907D01*
X224223777Y-93051905D01*
X224226882Y-93047472D01*
X224228323Y-93048481D01*
X224273172Y-93005712D01*
X224341778Y-92992484D01*
X224406645Y-93018447D01*
X224432294Y-93048048D01*
X224433118Y-93047472D01*
X224436222Y-93051905D01*
X224436223Y-93051907D01*
X224570579Y-93243787D01*
X224736213Y-93409421D01*
X224928093Y-93543777D01*
X225140389Y-93642772D01*
X225366649Y-93703398D01*
X225553329Y-93719730D01*
X225599999Y-93723814D01*
X225600000Y-93723814D01*
X225600001Y-93723814D01*
X225638891Y-93720411D01*
X225833351Y-93703398D01*
X226059611Y-93642772D01*
X226271907Y-93543777D01*
X226463787Y-93409421D01*
X226629421Y-93243787D01*
X226763777Y-93051907D01*
X226862772Y-92839611D01*
X226923398Y-92613351D01*
X226943814Y-92380000D01*
X226923398Y-92146649D01*
X226862772Y-91920389D01*
X226763777Y-91708093D01*
X226629421Y-91516213D01*
X226463787Y-91350579D01*
X226271907Y-91216223D01*
X226271905Y-91216222D01*
X226267472Y-91213118D01*
X226268481Y-91211676D01*
X226225712Y-91166828D01*
X226212484Y-91098222D01*
X226238447Y-91033355D01*
X226268048Y-91007705D01*
X226267472Y-91006882D01*
X226271905Y-91003777D01*
X226271907Y-91003777D01*
X226463787Y-90869421D01*
X226629421Y-90703787D01*
X226763777Y-90511907D01*
X226862772Y-90299611D01*
X226923398Y-90073351D01*
X226943814Y-89840000D01*
X226923398Y-89606649D01*
X226862772Y-89380389D01*
X226763777Y-89168093D01*
X226629421Y-88976213D01*
X226463787Y-88810579D01*
X226271907Y-88676223D01*
X226271905Y-88676222D01*
X226267472Y-88673118D01*
X226268481Y-88671676D01*
X226225712Y-88626828D01*
X226212484Y-88558222D01*
X226238447Y-88493355D01*
X226268048Y-88467705D01*
X226267472Y-88466882D01*
X226271905Y-88463777D01*
X226271907Y-88463777D01*
X226463787Y-88329421D01*
X226629421Y-88163787D01*
X226763777Y-87971907D01*
X226862772Y-87759611D01*
X226923398Y-87533351D01*
X226943814Y-87300000D01*
X226923398Y-87066649D01*
X226862772Y-86840389D01*
X226763777Y-86628093D01*
X226629421Y-86436213D01*
X226463787Y-86270579D01*
X226271907Y-86136223D01*
X226271905Y-86136222D01*
X226267472Y-86133118D01*
X226268481Y-86131676D01*
X226225712Y-86086828D01*
X226212484Y-86018222D01*
X226238447Y-85953355D01*
X226268048Y-85927705D01*
X226267472Y-85926882D01*
X226271905Y-85923777D01*
X226271907Y-85923777D01*
X226463787Y-85789421D01*
X226629421Y-85623787D01*
X226763777Y-85431907D01*
X226862772Y-85219611D01*
X226923398Y-84993351D01*
X226943814Y-84760000D01*
X226923398Y-84526649D01*
X226862772Y-84300389D01*
X226763777Y-84088093D01*
X226629421Y-83896213D01*
X226463787Y-83730579D01*
X226271907Y-83596223D01*
X226271905Y-83596222D01*
X226267472Y-83593118D01*
X226268481Y-83591676D01*
X226225712Y-83546828D01*
X226212484Y-83478222D01*
X226238447Y-83413355D01*
X226268048Y-83387705D01*
X226267472Y-83386882D01*
X226271905Y-83383777D01*
X226271907Y-83383777D01*
X226463787Y-83249421D01*
X226629421Y-83083787D01*
X226763777Y-82891907D01*
X226862772Y-82679611D01*
X226923398Y-82453351D01*
X226943814Y-82220000D01*
X226923398Y-81986649D01*
X226862772Y-81760389D01*
X226763777Y-81548093D01*
X226629421Y-81356213D01*
X226463787Y-81190579D01*
X226271907Y-81056223D01*
X226123203Y-80986881D01*
X226070765Y-80940710D01*
X226051613Y-80873516D01*
X226071829Y-80806635D01*
X226124994Y-80761301D01*
X226175609Y-80750500D01*
X231829903Y-80750500D01*
X231896942Y-80770185D01*
X231917584Y-80786819D01*
X238393181Y-87262416D01*
X238426666Y-87323739D01*
X238429500Y-87350097D01*
X238429500Y-123639902D01*
X238409815Y-123706941D01*
X238393181Y-123727583D01*
X237582584Y-124538181D01*
X237521261Y-124571666D01*
X237494903Y-124574500D01*
X231439620Y-124574500D01*
X231372581Y-124554815D01*
X231326826Y-124502011D01*
X231316882Y-124432853D01*
X231335811Y-124382679D01*
X231422493Y-124250001D01*
X231452111Y-124204667D01*
X231550336Y-123980736D01*
X231610364Y-123743692D01*
X231611699Y-123727583D01*
X231630557Y-123500005D01*
X231630557Y-123499994D01*
X231610365Y-123256316D01*
X231610363Y-123256304D01*
X231575702Y-123119432D01*
X231550336Y-123019264D01*
X231452111Y-122795333D01*
X231318368Y-122590623D01*
X231318367Y-122590621D01*
X231152757Y-122410722D01*
X231152747Y-122410713D01*
X230959791Y-122260529D01*
X230959787Y-122260526D01*
X230744734Y-122144145D01*
X230744729Y-122144143D01*
X230513458Y-122064748D01*
X230332561Y-122034562D01*
X230272263Y-122024500D01*
X230027737Y-122024500D01*
X229979498Y-122032549D01*
X229786541Y-122064748D01*
X229555270Y-122144143D01*
X229555265Y-122144145D01*
X229340212Y-122260526D01*
X229340208Y-122260529D01*
X229147252Y-122410713D01*
X229147242Y-122410722D01*
X228981632Y-122590621D01*
X228847888Y-122795333D01*
X228749663Y-123019265D01*
X228689636Y-123256304D01*
X228689634Y-123256316D01*
X228669443Y-123499994D01*
X228669443Y-123500005D01*
X228689634Y-123743683D01*
X228689636Y-123743695D01*
X228749663Y-123980734D01*
X228847888Y-124204666D01*
X228964189Y-124382679D01*
X228984377Y-124449568D01*
X228965196Y-124516754D01*
X228912737Y-124562904D01*
X228860380Y-124574500D01*
X202904057Y-124574500D01*
X202745942Y-124574500D01*
X202593215Y-124615423D01*
X202593214Y-124615423D01*
X202593212Y-124615424D01*
X202593209Y-124615425D01*
X202543096Y-124644359D01*
X202543095Y-124644360D01*
X202499689Y-124669420D01*
X202456285Y-124694479D01*
X202456282Y-124694481D01*
X202344478Y-124806286D01*
X200483530Y-126667233D01*
X200422207Y-126700718D01*
X200363756Y-126699327D01*
X200235413Y-126664938D01*
X200235403Y-126664936D01*
X200000001Y-126644341D01*
X199999999Y-126644341D01*
X199764596Y-126664936D01*
X199764586Y-126664938D01*
X199536344Y-126726094D01*
X199536335Y-126726098D01*
X199322171Y-126825964D01*
X199322169Y-126825965D01*
X199128597Y-126961505D01*
X198961505Y-127128597D01*
X198831575Y-127314158D01*
X198776998Y-127357783D01*
X198707500Y-127364977D01*
X198645145Y-127333454D01*
X198628425Y-127314158D01*
X198498494Y-127128597D01*
X198331402Y-126961506D01*
X198331395Y-126961501D01*
X198137834Y-126825967D01*
X198137830Y-126825965D01*
X198098626Y-126807684D01*
X197923663Y-126726097D01*
X197923659Y-126726096D01*
X197923655Y-126726094D01*
X197695413Y-126664938D01*
X197695403Y-126664936D01*
X197460001Y-126644341D01*
X197459999Y-126644341D01*
X197224596Y-126664936D01*
X197224586Y-126664938D01*
X196996344Y-126726094D01*
X196996335Y-126726098D01*
X196782171Y-126825964D01*
X196782169Y-126825965D01*
X196588597Y-126961505D01*
X196421505Y-127128597D01*
X196291575Y-127314158D01*
X196236998Y-127357783D01*
X196167500Y-127364977D01*
X196105145Y-127333454D01*
X196088425Y-127314158D01*
X195958494Y-127128597D01*
X195791402Y-126961506D01*
X195791395Y-126961501D01*
X195597834Y-126825967D01*
X195597830Y-126825965D01*
X195558626Y-126807684D01*
X195383663Y-126726097D01*
X195383659Y-126726096D01*
X195383655Y-126726094D01*
X195155413Y-126664938D01*
X195155403Y-126664936D01*
X194920001Y-126644341D01*
X194919999Y-126644341D01*
X194684596Y-126664936D01*
X194684586Y-126664938D01*
X194456344Y-126726094D01*
X194456335Y-126726098D01*
X194242171Y-126825964D01*
X194242169Y-126825965D01*
X194048597Y-126961505D01*
X193881505Y-127128597D01*
X193745965Y-127322169D01*
X193745964Y-127322171D01*
X193646098Y-127536335D01*
X193646096Y-127536339D01*
X193644275Y-127543137D01*
X193607909Y-127602797D01*
X193545062Y-127633325D01*
X193475686Y-127625030D01*
X193421809Y-127580544D01*
X193400535Y-127513992D01*
X193400500Y-127511042D01*
X193400500Y-120400096D01*
X193420185Y-120333057D01*
X193436814Y-120312420D01*
X194646104Y-119103129D01*
X194707425Y-119069646D01*
X194765876Y-119071037D01*
X194807902Y-119082297D01*
X194886649Y-119103398D01*
X195073329Y-119119730D01*
X195119999Y-119123814D01*
X195120000Y-119123814D01*
X195120001Y-119123814D01*
X195160827Y-119120242D01*
X195353351Y-119103398D01*
X195579611Y-119042772D01*
X195791907Y-118943777D01*
X195983787Y-118809421D01*
X196149421Y-118643787D01*
X196283777Y-118451907D01*
X196283777Y-118451905D01*
X196286882Y-118447472D01*
X196288323Y-118448481D01*
X196333172Y-118405712D01*
X196401778Y-118392484D01*
X196466645Y-118418447D01*
X196492294Y-118448048D01*
X196493118Y-118447472D01*
X196496222Y-118451905D01*
X196496223Y-118451907D01*
X196630579Y-118643787D01*
X196796213Y-118809421D01*
X196988093Y-118943777D01*
X197200389Y-119042772D01*
X197426649Y-119103398D01*
X197613329Y-119119730D01*
X197659999Y-119123814D01*
X197660000Y-119123814D01*
X197660001Y-119123814D01*
X197700827Y-119120242D01*
X197893351Y-119103398D01*
X198119611Y-119042772D01*
X198331907Y-118943777D01*
X198523787Y-118809421D01*
X198689421Y-118643787D01*
X198823777Y-118451907D01*
X198823777Y-118451905D01*
X198826882Y-118447472D01*
X198828323Y-118448481D01*
X198873172Y-118405712D01*
X198941778Y-118392484D01*
X199006645Y-118418447D01*
X199032294Y-118448048D01*
X199033118Y-118447472D01*
X199036222Y-118451905D01*
X199036223Y-118451907D01*
X199170579Y-118643787D01*
X199336213Y-118809421D01*
X199528093Y-118943777D01*
X199740389Y-119042772D01*
X199966649Y-119103398D01*
X200153329Y-119119730D01*
X200199999Y-119123814D01*
X200200000Y-119123814D01*
X200200001Y-119123814D01*
X200240827Y-119120242D01*
X200433351Y-119103398D01*
X200659611Y-119042772D01*
X200871907Y-118943777D01*
X201063787Y-118809421D01*
X201229421Y-118643787D01*
X201363777Y-118451907D01*
X201363777Y-118451905D01*
X201366882Y-118447472D01*
X201368323Y-118448481D01*
X201413172Y-118405712D01*
X201481778Y-118392484D01*
X201546645Y-118418447D01*
X201572294Y-118448048D01*
X201573118Y-118447472D01*
X201576222Y-118451905D01*
X201576223Y-118451907D01*
X201710579Y-118643787D01*
X201876213Y-118809421D01*
X202068093Y-118943777D01*
X202280389Y-119042772D01*
X202506649Y-119103398D01*
X202693329Y-119119730D01*
X202739999Y-119123814D01*
X202740000Y-119123814D01*
X202740001Y-119123814D01*
X202780827Y-119120242D01*
X202973351Y-119103398D01*
X203199611Y-119042772D01*
X203411907Y-118943777D01*
X203603787Y-118809421D01*
X203769421Y-118643787D01*
X203903777Y-118451907D01*
X203903777Y-118451905D01*
X203906882Y-118447472D01*
X203908323Y-118448481D01*
X203953172Y-118405712D01*
X204021778Y-118392484D01*
X204086645Y-118418447D01*
X204112294Y-118448048D01*
X204113118Y-118447472D01*
X204116222Y-118451905D01*
X204116223Y-118451907D01*
X204250579Y-118643787D01*
X204416213Y-118809421D01*
X204608093Y-118943777D01*
X204820389Y-119042772D01*
X205046649Y-119103398D01*
X205233329Y-119119730D01*
X205279999Y-119123814D01*
X205280000Y-119123814D01*
X205280001Y-119123814D01*
X205320827Y-119120242D01*
X205513351Y-119103398D01*
X205739611Y-119042772D01*
X205951907Y-118943777D01*
X206143787Y-118809421D01*
X206309421Y-118643787D01*
X206443777Y-118451907D01*
X206443777Y-118451905D01*
X206446882Y-118447472D01*
X206448323Y-118448481D01*
X206493172Y-118405712D01*
X206561778Y-118392484D01*
X206626645Y-118418447D01*
X206652294Y-118448048D01*
X206653118Y-118447472D01*
X206656222Y-118451905D01*
X206656223Y-118451907D01*
X206790579Y-118643787D01*
X206956213Y-118809421D01*
X207148093Y-118943777D01*
X207360389Y-119042772D01*
X207586649Y-119103398D01*
X207773329Y-119119730D01*
X207819999Y-119123814D01*
X207820000Y-119123814D01*
X207820001Y-119123814D01*
X207860827Y-119120242D01*
X208053351Y-119103398D01*
X208279611Y-119042772D01*
X208491907Y-118943777D01*
X208683787Y-118809421D01*
X208849421Y-118643787D01*
X208983777Y-118451907D01*
X208983777Y-118451905D01*
X208986882Y-118447472D01*
X208988323Y-118448481D01*
X209033172Y-118405712D01*
X209101778Y-118392484D01*
X209166645Y-118418447D01*
X209192294Y-118448048D01*
X209193118Y-118447472D01*
X209196222Y-118451905D01*
X209196223Y-118451907D01*
X209330579Y-118643787D01*
X209496213Y-118809421D01*
X209688093Y-118943777D01*
X209900389Y-119042772D01*
X210126649Y-119103398D01*
X210313329Y-119119730D01*
X210359999Y-119123814D01*
X210360000Y-119123814D01*
X210360001Y-119123814D01*
X210400827Y-119120242D01*
X210593351Y-119103398D01*
X210819611Y-119042772D01*
X211031907Y-118943777D01*
X211223787Y-118809421D01*
X211389421Y-118643787D01*
X211523777Y-118451907D01*
X211523777Y-118451905D01*
X211526882Y-118447472D01*
X211528323Y-118448481D01*
X211573172Y-118405712D01*
X211641778Y-118392484D01*
X211706645Y-118418447D01*
X211732294Y-118448048D01*
X211733118Y-118447472D01*
X211736222Y-118451905D01*
X211736223Y-118451907D01*
X211870579Y-118643787D01*
X212036213Y-118809421D01*
X212228093Y-118943777D01*
X212440389Y-119042772D01*
X212666649Y-119103398D01*
X212853329Y-119119730D01*
X212899999Y-119123814D01*
X212900000Y-119123814D01*
X212900001Y-119123814D01*
X212940827Y-119120242D01*
X213133351Y-119103398D01*
X213359611Y-119042772D01*
X213571907Y-118943777D01*
X213763787Y-118809421D01*
X213929421Y-118643787D01*
X214063777Y-118451907D01*
X214063777Y-118451905D01*
X214066882Y-118447472D01*
X214068323Y-118448481D01*
X214113172Y-118405712D01*
X214181778Y-118392484D01*
X214246645Y-118418447D01*
X214272294Y-118448048D01*
X214273118Y-118447472D01*
X214276222Y-118451905D01*
X214276223Y-118451907D01*
X214410579Y-118643787D01*
X214576213Y-118809421D01*
X214768093Y-118943777D01*
X214980389Y-119042772D01*
X215206649Y-119103398D01*
X215393329Y-119119730D01*
X215439999Y-119123814D01*
X215440000Y-119123814D01*
X215440001Y-119123814D01*
X215480827Y-119120242D01*
X215673351Y-119103398D01*
X215899611Y-119042772D01*
X216111907Y-118943777D01*
X216303787Y-118809421D01*
X216469421Y-118643787D01*
X216603777Y-118451907D01*
X216603777Y-118451905D01*
X216606882Y-118447472D01*
X216608323Y-118448481D01*
X216653172Y-118405712D01*
X216721778Y-118392484D01*
X216786645Y-118418447D01*
X216812294Y-118448048D01*
X216813118Y-118447472D01*
X216816222Y-118451905D01*
X216816223Y-118451907D01*
X216950579Y-118643787D01*
X217116213Y-118809421D01*
X217308093Y-118943777D01*
X217520389Y-119042772D01*
X217746649Y-119103398D01*
X217933329Y-119119730D01*
X217979999Y-119123814D01*
X217980000Y-119123814D01*
X217980001Y-119123814D01*
X218020827Y-119120242D01*
X218213351Y-119103398D01*
X218439611Y-119042772D01*
X218651907Y-118943777D01*
X218843787Y-118809421D01*
X219009421Y-118643787D01*
X219143777Y-118451907D01*
X219143777Y-118451905D01*
X219146882Y-118447472D01*
X219148323Y-118448481D01*
X219193172Y-118405712D01*
X219261778Y-118392484D01*
X219326645Y-118418447D01*
X219352294Y-118448048D01*
X219353118Y-118447472D01*
X219356222Y-118451905D01*
X219356223Y-118451907D01*
X219490579Y-118643787D01*
X219656213Y-118809421D01*
X219848093Y-118943777D01*
X220060389Y-119042772D01*
X220286649Y-119103398D01*
X220473329Y-119119730D01*
X220519999Y-119123814D01*
X220520000Y-119123814D01*
X220520001Y-119123814D01*
X220560827Y-119120242D01*
X220753351Y-119103398D01*
X220979611Y-119042772D01*
X221191907Y-118943777D01*
X221383787Y-118809421D01*
X221549421Y-118643787D01*
X221683777Y-118451907D01*
X221683777Y-118451905D01*
X221686882Y-118447472D01*
X221688323Y-118448481D01*
X221733172Y-118405712D01*
X221801778Y-118392484D01*
X221866645Y-118418447D01*
X221892294Y-118448048D01*
X221893118Y-118447472D01*
X221896222Y-118451905D01*
X221896223Y-118451907D01*
X222030579Y-118643787D01*
X222196213Y-118809421D01*
X222388093Y-118943777D01*
X222600389Y-119042772D01*
X222826649Y-119103398D01*
X223013329Y-119119730D01*
X223059999Y-119123814D01*
X223060000Y-119123814D01*
X223060001Y-119123814D01*
X223100827Y-119120242D01*
X223293351Y-119103398D01*
X223519611Y-119042772D01*
X223731907Y-118943777D01*
X223923787Y-118809421D01*
X224089421Y-118643787D01*
X224223777Y-118451907D01*
X224223777Y-118451905D01*
X224226882Y-118447472D01*
X224228323Y-118448481D01*
X224273172Y-118405712D01*
X224341778Y-118392484D01*
X224406645Y-118418447D01*
X224432294Y-118448048D01*
X224433118Y-118447472D01*
X224436222Y-118451905D01*
X224436223Y-118451907D01*
X224570579Y-118643787D01*
X224736213Y-118809421D01*
X224928093Y-118943777D01*
X225140389Y-119042772D01*
X225366649Y-119103398D01*
X225553329Y-119119730D01*
X225599999Y-119123814D01*
X225600000Y-119123814D01*
X225600001Y-119123814D01*
X225640827Y-119120242D01*
X225833351Y-119103398D01*
X226059611Y-119042772D01*
X226271907Y-118943777D01*
X226463787Y-118809421D01*
X226629421Y-118643787D01*
X226730106Y-118499994D01*
X228669443Y-118499994D01*
X228669443Y-118500005D01*
X228689634Y-118743683D01*
X228689636Y-118743695D01*
X228749663Y-118980734D01*
X228847888Y-119204666D01*
X228981632Y-119409378D01*
X229147242Y-119589277D01*
X229147252Y-119589286D01*
X229340208Y-119739470D01*
X229340212Y-119739473D01*
X229485494Y-119818096D01*
X229555267Y-119855855D01*
X229555270Y-119855856D01*
X229786541Y-119935251D01*
X229786543Y-119935251D01*
X229786545Y-119935252D01*
X230027737Y-119975500D01*
X230027738Y-119975500D01*
X230272262Y-119975500D01*
X230272263Y-119975500D01*
X230513455Y-119935252D01*
X230744733Y-119855855D01*
X230959788Y-119739473D01*
X231152754Y-119589281D01*
X231318368Y-119409377D01*
X231452111Y-119204667D01*
X231550336Y-118980736D01*
X231610364Y-118743692D01*
X231618642Y-118643791D01*
X231630557Y-118500005D01*
X231630557Y-118499994D01*
X231610365Y-118256316D01*
X231610363Y-118256304D01*
X231550336Y-118019265D01*
X231547744Y-118013356D01*
X231452111Y-117795333D01*
X231407689Y-117727339D01*
X231318367Y-117590621D01*
X231152757Y-117410722D01*
X231152747Y-117410713D01*
X230959791Y-117260529D01*
X230959787Y-117260526D01*
X230744734Y-117144145D01*
X230744729Y-117144143D01*
X230513458Y-117064748D01*
X230332561Y-117034562D01*
X230272263Y-117024500D01*
X230027737Y-117024500D01*
X229979498Y-117032549D01*
X229786541Y-117064748D01*
X229555270Y-117144143D01*
X229555265Y-117144145D01*
X229340212Y-117260526D01*
X229340208Y-117260529D01*
X229147252Y-117410713D01*
X229147242Y-117410722D01*
X228981632Y-117590621D01*
X228847888Y-117795333D01*
X228749663Y-118019265D01*
X228689636Y-118256304D01*
X228689634Y-118256316D01*
X228669443Y-118499994D01*
X226730106Y-118499994D01*
X226763777Y-118451907D01*
X226862772Y-118239611D01*
X226923398Y-118013351D01*
X226943814Y-117780000D01*
X226923398Y-117546649D01*
X226862772Y-117320389D01*
X226763777Y-117108093D01*
X226629421Y-116916213D01*
X226463787Y-116750579D01*
X226271907Y-116616223D01*
X226271905Y-116616222D01*
X226267472Y-116613118D01*
X226268481Y-116611676D01*
X226225712Y-116566828D01*
X226212484Y-116498222D01*
X226238447Y-116433355D01*
X226268048Y-116407705D01*
X226267472Y-116406882D01*
X226271905Y-116403777D01*
X226271907Y-116403777D01*
X226463787Y-116269421D01*
X226629421Y-116103787D01*
X226763777Y-115911907D01*
X226862772Y-115699611D01*
X226923398Y-115473351D01*
X226943814Y-115240000D01*
X226923398Y-115006649D01*
X226862772Y-114780389D01*
X226763777Y-114568093D01*
X226629421Y-114376213D01*
X226463787Y-114210579D01*
X226271907Y-114076223D01*
X226059611Y-113977228D01*
X226059607Y-113977227D01*
X226059603Y-113977225D01*
X225833356Y-113916603D01*
X225833346Y-113916601D01*
X225600001Y-113896186D01*
X225599999Y-113896186D01*
X225366653Y-113916601D01*
X225366643Y-113916603D01*
X225140396Y-113977225D01*
X225140389Y-113977227D01*
X225140389Y-113977228D01*
X224928093Y-114076223D01*
X224736213Y-114210579D01*
X224736211Y-114210580D01*
X224736208Y-114210583D01*
X224570583Y-114376208D01*
X224570580Y-114376211D01*
X224570579Y-114376213D01*
X224492936Y-114487099D01*
X224433118Y-114572528D01*
X224431680Y-114571521D01*
X224386810Y-114614297D01*
X224318202Y-114627513D01*
X224253340Y-114601540D01*
X224227702Y-114571953D01*
X224226882Y-114572528D01*
X224223777Y-114568093D01*
X224089421Y-114376213D01*
X223923787Y-114210579D01*
X223731907Y-114076223D01*
X223519611Y-113977228D01*
X223519607Y-113977227D01*
X223519603Y-113977225D01*
X223293356Y-113916603D01*
X223293346Y-113916601D01*
X223060001Y-113896186D01*
X223059999Y-113896186D01*
X222826653Y-113916601D01*
X222826643Y-113916603D01*
X222600396Y-113977225D01*
X222600389Y-113977227D01*
X222600389Y-113977228D01*
X222388093Y-114076223D01*
X222196213Y-114210579D01*
X222196211Y-114210580D01*
X222196208Y-114210583D01*
X222030583Y-114376208D01*
X222030580Y-114376211D01*
X222030579Y-114376213D01*
X221952936Y-114487099D01*
X221893118Y-114572528D01*
X221891680Y-114571521D01*
X221846810Y-114614297D01*
X221778202Y-114627513D01*
X221713340Y-114601540D01*
X221687702Y-114571953D01*
X221686882Y-114572528D01*
X221683777Y-114568093D01*
X221549421Y-114376213D01*
X221383787Y-114210579D01*
X221191907Y-114076223D01*
X220979611Y-113977228D01*
X220979607Y-113977227D01*
X220979603Y-113977225D01*
X220753356Y-113916603D01*
X220753346Y-113916601D01*
X220520001Y-113896186D01*
X220519999Y-113896186D01*
X220286653Y-113916601D01*
X220286643Y-113916603D01*
X220060396Y-113977225D01*
X220060389Y-113977227D01*
X220060389Y-113977228D01*
X219848093Y-114076223D01*
X219656213Y-114210579D01*
X219656211Y-114210580D01*
X219656208Y-114210583D01*
X219490583Y-114376208D01*
X219490580Y-114376211D01*
X219490579Y-114376213D01*
X219412936Y-114487099D01*
X219353118Y-114572528D01*
X219351680Y-114571521D01*
X219306810Y-114614297D01*
X219238202Y-114627513D01*
X219173340Y-114601540D01*
X219147702Y-114571953D01*
X219146882Y-114572528D01*
X219143777Y-114568093D01*
X219009421Y-114376213D01*
X218843787Y-114210579D01*
X218651907Y-114076223D01*
X218439611Y-113977228D01*
X218439607Y-113977227D01*
X218439603Y-113977225D01*
X218213356Y-113916603D01*
X218213346Y-113916601D01*
X217980001Y-113896186D01*
X217979999Y-113896186D01*
X217746653Y-113916601D01*
X217746643Y-113916603D01*
X217520396Y-113977225D01*
X217520389Y-113977227D01*
X217520389Y-113977228D01*
X217308093Y-114076223D01*
X217116213Y-114210579D01*
X217116211Y-114210580D01*
X217116208Y-114210583D01*
X216950583Y-114376208D01*
X216950580Y-114376211D01*
X216950579Y-114376213D01*
X216872936Y-114487099D01*
X216813118Y-114572528D01*
X216811680Y-114571521D01*
X216766810Y-114614297D01*
X216698202Y-114627513D01*
X216633340Y-114601540D01*
X216607702Y-114571953D01*
X216606882Y-114572528D01*
X216603777Y-114568093D01*
X216469421Y-114376213D01*
X216303787Y-114210579D01*
X216111907Y-114076223D01*
X215899611Y-113977228D01*
X215899607Y-113977227D01*
X215899603Y-113977225D01*
X215673356Y-113916603D01*
X215673346Y-113916601D01*
X215440001Y-113896186D01*
X215439999Y-113896186D01*
X215206653Y-113916601D01*
X215206643Y-113916603D01*
X214980396Y-113977225D01*
X214980389Y-113977227D01*
X214980389Y-113977228D01*
X214768093Y-114076223D01*
X214576213Y-114210579D01*
X214576211Y-114210580D01*
X214576208Y-114210583D01*
X214410583Y-114376208D01*
X214410580Y-114376211D01*
X214410579Y-114376213D01*
X214332936Y-114487099D01*
X214273118Y-114572528D01*
X214271680Y-114571521D01*
X214226810Y-114614297D01*
X214158202Y-114627513D01*
X214093340Y-114601540D01*
X214067702Y-114571953D01*
X214066882Y-114572528D01*
X214063777Y-114568093D01*
X213929421Y-114376213D01*
X213763787Y-114210579D01*
X213571907Y-114076223D01*
X213359611Y-113977228D01*
X213359607Y-113977227D01*
X213359603Y-113977225D01*
X213133356Y-113916603D01*
X213133346Y-113916601D01*
X212900001Y-113896186D01*
X212899999Y-113896186D01*
X212666653Y-113916601D01*
X212666643Y-113916603D01*
X212440396Y-113977225D01*
X212440389Y-113977227D01*
X212440389Y-113977228D01*
X212228093Y-114076223D01*
X212036213Y-114210579D01*
X212036211Y-114210580D01*
X212036208Y-114210583D01*
X211870583Y-114376208D01*
X211870580Y-114376211D01*
X211870579Y-114376213D01*
X211792936Y-114487099D01*
X211733118Y-114572528D01*
X211731680Y-114571521D01*
X211686810Y-114614297D01*
X211618202Y-114627513D01*
X211553340Y-114601540D01*
X211527702Y-114571953D01*
X211526882Y-114572528D01*
X211523777Y-114568093D01*
X211389421Y-114376213D01*
X211223787Y-114210579D01*
X211031907Y-114076223D01*
X210819611Y-113977228D01*
X210819607Y-113977227D01*
X210819603Y-113977225D01*
X210593356Y-113916603D01*
X210593346Y-113916601D01*
X210360001Y-113896186D01*
X210359999Y-113896186D01*
X210126653Y-113916601D01*
X210126643Y-113916603D01*
X209900396Y-113977225D01*
X209900389Y-113977227D01*
X209900389Y-113977228D01*
X209688093Y-114076223D01*
X209496213Y-114210579D01*
X209496211Y-114210580D01*
X209496208Y-114210583D01*
X209330583Y-114376208D01*
X209330580Y-114376211D01*
X209330579Y-114376213D01*
X209252936Y-114487099D01*
X209193118Y-114572528D01*
X209191680Y-114571521D01*
X209146810Y-114614297D01*
X209078202Y-114627513D01*
X209013340Y-114601540D01*
X208987702Y-114571953D01*
X208986882Y-114572528D01*
X208983777Y-114568093D01*
X208849421Y-114376213D01*
X208683787Y-114210579D01*
X208491907Y-114076223D01*
X208279611Y-113977228D01*
X208279607Y-113977227D01*
X208279603Y-113977225D01*
X208053356Y-113916603D01*
X208053346Y-113916601D01*
X207820001Y-113896186D01*
X207819999Y-113896186D01*
X207586653Y-113916601D01*
X207586643Y-113916603D01*
X207360396Y-113977225D01*
X207360389Y-113977227D01*
X207360389Y-113977228D01*
X207148093Y-114076223D01*
X206956213Y-114210579D01*
X206956211Y-114210580D01*
X206956208Y-114210583D01*
X206790583Y-114376208D01*
X206790580Y-114376211D01*
X206790579Y-114376213D01*
X206712936Y-114487099D01*
X206653118Y-114572528D01*
X206651680Y-114571521D01*
X206606810Y-114614297D01*
X206538202Y-114627513D01*
X206473340Y-114601540D01*
X206447702Y-114571953D01*
X206446882Y-114572528D01*
X206443777Y-114568093D01*
X206309421Y-114376213D01*
X206143787Y-114210579D01*
X205951907Y-114076223D01*
X205739611Y-113977228D01*
X205739607Y-113977227D01*
X205739603Y-113977225D01*
X205513356Y-113916603D01*
X205513346Y-113916601D01*
X205280001Y-113896186D01*
X205279999Y-113896186D01*
X205046653Y-113916601D01*
X205046643Y-113916603D01*
X204820396Y-113977225D01*
X204820389Y-113977227D01*
X204820389Y-113977228D01*
X204608093Y-114076223D01*
X204416213Y-114210579D01*
X204416211Y-114210580D01*
X204416208Y-114210583D01*
X204250583Y-114376208D01*
X204250580Y-114376211D01*
X204250579Y-114376213D01*
X204172936Y-114487099D01*
X204113118Y-114572528D01*
X204111680Y-114571521D01*
X204066810Y-114614297D01*
X203998202Y-114627513D01*
X203933340Y-114601540D01*
X203907702Y-114571953D01*
X203906882Y-114572528D01*
X203903777Y-114568093D01*
X203769421Y-114376213D01*
X203603787Y-114210579D01*
X203411907Y-114076223D01*
X203199611Y-113977228D01*
X203199607Y-113977227D01*
X203199603Y-113977225D01*
X202973356Y-113916603D01*
X202973346Y-113916601D01*
X202740001Y-113896186D01*
X202739999Y-113896186D01*
X202506653Y-113916601D01*
X202506643Y-113916603D01*
X202280396Y-113977225D01*
X202280389Y-113977227D01*
X202280389Y-113977228D01*
X202068093Y-114076223D01*
X201876213Y-114210579D01*
X201876211Y-114210580D01*
X201876208Y-114210583D01*
X201710583Y-114376208D01*
X201710580Y-114376211D01*
X201710579Y-114376213D01*
X201632936Y-114487099D01*
X201573118Y-114572528D01*
X201571680Y-114571521D01*
X201526810Y-114614297D01*
X201458202Y-114627513D01*
X201393340Y-114601540D01*
X201367702Y-114571953D01*
X201366882Y-114572528D01*
X201363777Y-114568093D01*
X201229421Y-114376213D01*
X201063787Y-114210579D01*
X200871907Y-114076223D01*
X200659611Y-113977228D01*
X200659607Y-113977227D01*
X200659603Y-113977225D01*
X200433356Y-113916603D01*
X200433346Y-113916601D01*
X200200001Y-113896186D01*
X200199999Y-113896186D01*
X199966653Y-113916601D01*
X199966643Y-113916603D01*
X199740396Y-113977225D01*
X199740389Y-113977227D01*
X199740389Y-113977228D01*
X199528093Y-114076223D01*
X199336213Y-114210579D01*
X199336211Y-114210580D01*
X199336208Y-114210583D01*
X199170583Y-114376208D01*
X199170580Y-114376211D01*
X199170579Y-114376213D01*
X199092936Y-114487099D01*
X199033118Y-114572528D01*
X199031680Y-114571521D01*
X198986810Y-114614297D01*
X198918202Y-114627513D01*
X198853340Y-114601540D01*
X198827702Y-114571953D01*
X198826882Y-114572528D01*
X198823777Y-114568093D01*
X198689421Y-114376213D01*
X198523787Y-114210579D01*
X198331907Y-114076223D01*
X198119611Y-113977228D01*
X198119607Y-113977227D01*
X198119603Y-113977225D01*
X197893356Y-113916603D01*
X197893346Y-113916601D01*
X197660001Y-113896186D01*
X197659999Y-113896186D01*
X197426653Y-113916601D01*
X197426643Y-113916603D01*
X197200396Y-113977225D01*
X197200389Y-113977227D01*
X197200389Y-113977228D01*
X196988093Y-114076223D01*
X196796213Y-114210579D01*
X196796211Y-114210580D01*
X196796208Y-114210583D01*
X196630583Y-114376208D01*
X196630580Y-114376211D01*
X196630579Y-114376213D01*
X196552936Y-114487099D01*
X196493118Y-114572528D01*
X196491680Y-114571521D01*
X196446810Y-114614297D01*
X196378202Y-114627513D01*
X196313340Y-114601540D01*
X196287702Y-114571953D01*
X196286882Y-114572528D01*
X196283777Y-114568093D01*
X196149421Y-114376213D01*
X195983787Y-114210579D01*
X195791907Y-114076223D01*
X195579611Y-113977228D01*
X195579607Y-113977227D01*
X195579603Y-113977225D01*
X195353356Y-113916603D01*
X195353346Y-113916601D01*
X195120001Y-113896186D01*
X195119999Y-113896186D01*
X194886653Y-113916601D01*
X194886643Y-113916603D01*
X194660396Y-113977225D01*
X194660389Y-113977227D01*
X194660389Y-113977228D01*
X194448093Y-114076223D01*
X194256213Y-114210579D01*
X194256211Y-114210580D01*
X194256208Y-114210583D01*
X194090583Y-114376208D01*
X194090580Y-114376211D01*
X194090579Y-114376213D01*
X194012936Y-114487099D01*
X193953118Y-114572528D01*
X193951680Y-114571521D01*
X193906810Y-114614297D01*
X193838202Y-114627513D01*
X193773340Y-114601540D01*
X193747702Y-114571953D01*
X193746882Y-114572528D01*
X193743777Y-114568093D01*
X193609421Y-114376213D01*
X193443787Y-114210579D01*
X193251907Y-114076223D01*
X193039611Y-113977228D01*
X193039607Y-113977227D01*
X193039603Y-113977225D01*
X192813356Y-113916603D01*
X192813346Y-113916601D01*
X192580001Y-113896186D01*
X192579999Y-113896186D01*
X192346653Y-113916601D01*
X192346643Y-113916603D01*
X192120396Y-113977225D01*
X192120389Y-113977227D01*
X192120389Y-113977228D01*
X191908093Y-114076223D01*
X191716213Y-114210579D01*
X191716211Y-114210580D01*
X191716208Y-114210583D01*
X191550583Y-114376208D01*
X191550580Y-114376211D01*
X191550579Y-114376213D01*
X191472936Y-114487099D01*
X191413118Y-114572528D01*
X191411680Y-114571521D01*
X191366810Y-114614297D01*
X191298202Y-114627513D01*
X191233340Y-114601540D01*
X191207702Y-114571953D01*
X191206882Y-114572528D01*
X191203777Y-114568093D01*
X191069421Y-114376213D01*
X190903787Y-114210579D01*
X190711907Y-114076223D01*
X190499611Y-113977228D01*
X190499607Y-113977227D01*
X190499603Y-113977225D01*
X190273356Y-113916603D01*
X190273346Y-113916601D01*
X190040001Y-113896186D01*
X190039999Y-113896186D01*
X189806653Y-113916601D01*
X189806643Y-113916603D01*
X189580396Y-113977225D01*
X189580389Y-113977227D01*
X189580389Y-113977228D01*
X189368093Y-114076223D01*
X189176213Y-114210579D01*
X189176211Y-114210580D01*
X189176208Y-114210583D01*
X189010583Y-114376208D01*
X189010580Y-114376211D01*
X189010579Y-114376213D01*
X188932936Y-114487099D01*
X188873118Y-114572528D01*
X188871680Y-114571521D01*
X188826810Y-114614297D01*
X188758202Y-114627513D01*
X188693340Y-114601540D01*
X188667702Y-114571953D01*
X188666882Y-114572528D01*
X188663777Y-114568093D01*
X188529421Y-114376213D01*
X188363787Y-114210579D01*
X188171907Y-114076223D01*
X187959611Y-113977228D01*
X187959607Y-113977227D01*
X187959603Y-113977225D01*
X187733356Y-113916603D01*
X187733346Y-113916601D01*
X187500001Y-113896186D01*
X187499999Y-113896186D01*
X187266653Y-113916601D01*
X187266643Y-113916603D01*
X187040396Y-113977225D01*
X187040389Y-113977227D01*
X187040389Y-113977228D01*
X186828093Y-114076223D01*
X186636213Y-114210579D01*
X186636211Y-114210580D01*
X186636208Y-114210583D01*
X186470583Y-114376208D01*
X186470580Y-114376211D01*
X186470579Y-114376213D01*
X186392936Y-114487099D01*
X186333118Y-114572528D01*
X186331680Y-114571521D01*
X186286810Y-114614297D01*
X186218202Y-114627513D01*
X186153340Y-114601540D01*
X186127702Y-114571953D01*
X186126882Y-114572528D01*
X186123777Y-114568093D01*
X185989421Y-114376213D01*
X185823787Y-114210579D01*
X185631907Y-114076223D01*
X185419611Y-113977228D01*
X185419607Y-113977227D01*
X185419603Y-113977225D01*
X185193356Y-113916603D01*
X185193346Y-113916601D01*
X184960001Y-113896186D01*
X184959999Y-113896186D01*
X184726653Y-113916601D01*
X184726643Y-113916603D01*
X184500396Y-113977225D01*
X184500389Y-113977227D01*
X184500389Y-113977228D01*
X184288093Y-114076223D01*
X184096213Y-114210579D01*
X184096211Y-114210580D01*
X184096208Y-114210583D01*
X183930583Y-114376208D01*
X183930580Y-114376211D01*
X183930579Y-114376213D01*
X183852936Y-114487099D01*
X183793118Y-114572528D01*
X183791680Y-114571521D01*
X183746810Y-114614297D01*
X183678202Y-114627513D01*
X183613340Y-114601540D01*
X183587702Y-114571953D01*
X183586882Y-114572528D01*
X183583777Y-114568093D01*
X183449421Y-114376213D01*
X183283787Y-114210579D01*
X183091907Y-114076223D01*
X182879611Y-113977228D01*
X182879607Y-113977227D01*
X182879603Y-113977225D01*
X182653356Y-113916603D01*
X182653346Y-113916601D01*
X182420001Y-113896186D01*
X182419999Y-113896186D01*
X182186653Y-113916601D01*
X182186643Y-113916603D01*
X181960396Y-113977225D01*
X181960389Y-113977227D01*
X181960389Y-113977228D01*
X181748093Y-114076223D01*
X181556213Y-114210579D01*
X181556211Y-114210580D01*
X181556208Y-114210583D01*
X181390583Y-114376208D01*
X181390580Y-114376211D01*
X181390579Y-114376213D01*
X181312936Y-114487099D01*
X181253118Y-114572528D01*
X181251680Y-114571521D01*
X181206810Y-114614297D01*
X181138202Y-114627513D01*
X181073340Y-114601540D01*
X181047702Y-114571953D01*
X181046882Y-114572528D01*
X181043777Y-114568093D01*
X180909421Y-114376213D01*
X180743787Y-114210579D01*
X180551907Y-114076223D01*
X180339611Y-113977228D01*
X180339607Y-113977227D01*
X180339603Y-113977225D01*
X180113356Y-113916603D01*
X180113346Y-113916601D01*
X179880001Y-113896186D01*
X179879999Y-113896186D01*
X179646653Y-113916601D01*
X179646643Y-113916603D01*
X179420396Y-113977225D01*
X179420389Y-113977227D01*
X179420389Y-113977228D01*
X179208093Y-114076223D01*
X179016213Y-114210579D01*
X179016211Y-114210580D01*
X179016208Y-114210583D01*
X178850583Y-114376208D01*
X178850580Y-114376211D01*
X178850579Y-114376213D01*
X178772936Y-114487099D01*
X178713118Y-114572528D01*
X178711819Y-114571618D01*
X178666505Y-114614807D01*
X178597895Y-114628015D01*
X178533036Y-114602033D01*
X178507224Y-114572234D01*
X178506447Y-114572779D01*
X178446453Y-114487099D01*
X178446453Y-114487098D01*
X177740000Y-115193551D01*
X177740000Y-115187339D01*
X177712741Y-115085606D01*
X177660080Y-114994394D01*
X177585606Y-114919920D01*
X177494394Y-114867259D01*
X177392661Y-114840000D01*
X177386447Y-114840000D01*
X178092900Y-114133546D01*
X178092899Y-114133545D01*
X178011656Y-114076658D01*
X178011654Y-114076657D01*
X177799441Y-113977701D01*
X177799432Y-113977697D01*
X177573268Y-113917097D01*
X177573258Y-113917095D01*
X177340002Y-113896688D01*
X177339998Y-113896688D01*
X177106741Y-113917095D01*
X177106731Y-113917097D01*
X176880567Y-113977697D01*
X176880558Y-113977701D01*
X176668341Y-114076659D01*
X176587099Y-114133544D01*
X176587098Y-114133545D01*
X177293554Y-114840000D01*
X177287339Y-114840000D01*
X177185606Y-114867259D01*
X177094394Y-114919920D01*
X177019920Y-114994394D01*
X176967259Y-115085606D01*
X176940000Y-115187339D01*
X176940000Y-115193553D01*
X176233545Y-114487098D01*
X176233544Y-114487099D01*
X176173553Y-114572778D01*
X176172187Y-114571821D01*
X176127081Y-114614808D01*
X176058471Y-114628014D01*
X175993613Y-114602029D01*
X175967614Y-114572014D01*
X175966882Y-114572528D01*
X175963777Y-114568093D01*
X175829421Y-114376213D01*
X175663787Y-114210579D01*
X175471907Y-114076223D01*
X175259611Y-113977228D01*
X175259607Y-113977227D01*
X175259603Y-113977225D01*
X175033356Y-113916603D01*
X175033346Y-113916601D01*
X174800001Y-113896186D01*
X174799999Y-113896186D01*
X174566653Y-113916601D01*
X174566643Y-113916603D01*
X174340396Y-113977225D01*
X174340389Y-113977227D01*
X174340389Y-113977228D01*
X174128093Y-114076223D01*
X173936213Y-114210579D01*
X173936211Y-114210580D01*
X173936208Y-114210583D01*
X173770583Y-114376208D01*
X173770580Y-114376211D01*
X173770579Y-114376213D01*
X173636223Y-114568093D01*
X173614440Y-114614808D01*
X173537229Y-114780387D01*
X173537225Y-114780396D01*
X173476603Y-115006643D01*
X173476601Y-115006653D01*
X173456186Y-115239999D01*
X173456186Y-115240000D01*
X173476601Y-115473346D01*
X173476603Y-115473356D01*
X173537225Y-115699603D01*
X173537227Y-115699607D01*
X173537228Y-115699611D01*
X173636223Y-115911907D01*
X173770579Y-116103787D01*
X173936213Y-116269421D01*
X174128093Y-116403777D01*
X174128094Y-116403777D01*
X174132528Y-116406882D01*
X174131521Y-116408319D01*
X174174297Y-116453190D01*
X174187513Y-116521798D01*
X174161540Y-116586660D01*
X174131953Y-116612297D01*
X174132528Y-116613118D01*
X174128094Y-116616222D01*
X174128093Y-116616223D01*
X173936213Y-116750579D01*
X173936211Y-116750580D01*
X173936208Y-116750583D01*
X173770583Y-116916208D01*
X173770580Y-116916211D01*
X173770579Y-116916213D01*
X173636223Y-117108093D01*
X173614440Y-117154808D01*
X173537229Y-117320387D01*
X173537225Y-117320396D01*
X173476603Y-117546643D01*
X173476601Y-117546653D01*
X173456186Y-117779999D01*
X173456186Y-117780000D01*
X173476601Y-118013346D01*
X173476603Y-118013356D01*
X173537225Y-118239603D01*
X173537227Y-118239607D01*
X173537228Y-118239611D01*
X173636223Y-118451907D01*
X173770579Y-118643787D01*
X173936213Y-118809421D01*
X174128093Y-118943777D01*
X174340389Y-119042772D01*
X174566649Y-119103398D01*
X174753329Y-119119730D01*
X174799999Y-119123814D01*
X174800000Y-119123814D01*
X174800001Y-119123814D01*
X174840827Y-119120242D01*
X175033351Y-119103398D01*
X175259611Y-119042772D01*
X175471907Y-118943777D01*
X175663787Y-118809421D01*
X175829421Y-118643787D01*
X175963777Y-118451907D01*
X175963777Y-118451905D01*
X175966882Y-118447472D01*
X175968188Y-118448386D01*
X176013453Y-118405213D01*
X176082058Y-118391980D01*
X176146926Y-118417937D01*
X176172775Y-118447765D01*
X176173553Y-118447221D01*
X176233545Y-118532899D01*
X176233546Y-118532900D01*
X176940000Y-117826446D01*
X176940000Y-117832661D01*
X176967259Y-117934394D01*
X177019920Y-118025606D01*
X177094394Y-118100080D01*
X177185606Y-118152741D01*
X177287339Y-118180000D01*
X177293553Y-118180000D01*
X176587098Y-118886453D01*
X176668343Y-118943341D01*
X176668345Y-118943342D01*
X176880558Y-119042298D01*
X176880567Y-119042302D01*
X177106731Y-119102902D01*
X177106741Y-119102904D01*
X177339998Y-119123312D01*
X177340002Y-119123312D01*
X177573258Y-119102904D01*
X177573268Y-119102902D01*
X177799432Y-119042302D01*
X177799441Y-119042298D01*
X178011655Y-118943342D01*
X178092900Y-118886453D01*
X177386448Y-118180000D01*
X177392661Y-118180000D01*
X177494394Y-118152741D01*
X177585606Y-118100080D01*
X177660080Y-118025606D01*
X177712741Y-117934394D01*
X177740000Y-117832661D01*
X177740000Y-117826447D01*
X178446453Y-118532900D01*
X178506447Y-118447221D01*
X178507819Y-118448181D01*
X178552885Y-118405208D01*
X178621491Y-118391982D01*
X178686357Y-118417947D01*
X178712385Y-118447984D01*
X178713118Y-118447472D01*
X178716222Y-118451905D01*
X178716223Y-118451907D01*
X178850579Y-118643787D01*
X179016213Y-118809421D01*
X179208093Y-118943777D01*
X179420389Y-119042772D01*
X179646649Y-119103398D01*
X179833329Y-119119730D01*
X179879999Y-119123814D01*
X179880000Y-119123814D01*
X179880001Y-119123814D01*
X179920827Y-119120242D01*
X180113351Y-119103398D01*
X180339611Y-119042772D01*
X180551907Y-118943777D01*
X180743787Y-118809421D01*
X180909421Y-118643787D01*
X181043777Y-118451907D01*
X181043777Y-118451905D01*
X181046882Y-118447472D01*
X181048323Y-118448481D01*
X181093172Y-118405712D01*
X181161778Y-118392484D01*
X181226645Y-118418447D01*
X181252294Y-118448048D01*
X181253118Y-118447472D01*
X181256222Y-118451905D01*
X181256223Y-118451907D01*
X181390579Y-118643787D01*
X181556213Y-118809421D01*
X181748093Y-118943777D01*
X181960389Y-119042772D01*
X182186649Y-119103398D01*
X182373329Y-119119730D01*
X182419999Y-119123814D01*
X182420000Y-119123814D01*
X182420001Y-119123814D01*
X182460827Y-119120242D01*
X182653351Y-119103398D01*
X182879611Y-119042772D01*
X183091907Y-118943777D01*
X183283787Y-118809421D01*
X183449421Y-118643787D01*
X183583777Y-118451907D01*
X183583777Y-118451905D01*
X183586882Y-118447472D01*
X183588323Y-118448481D01*
X183633172Y-118405712D01*
X183701778Y-118392484D01*
X183766645Y-118418447D01*
X183792294Y-118448048D01*
X183793118Y-118447472D01*
X183796222Y-118451905D01*
X183796223Y-118451907D01*
X183930579Y-118643787D01*
X184096213Y-118809421D01*
X184288093Y-118943777D01*
X184500389Y-119042772D01*
X184726649Y-119103398D01*
X184913329Y-119119730D01*
X184959999Y-119123814D01*
X184960000Y-119123814D01*
X184960001Y-119123814D01*
X185000827Y-119120242D01*
X185193351Y-119103398D01*
X185419611Y-119042772D01*
X185631907Y-118943777D01*
X185823787Y-118809421D01*
X185989421Y-118643787D01*
X186123777Y-118451907D01*
X186123777Y-118451905D01*
X186126882Y-118447472D01*
X186128323Y-118448481D01*
X186173172Y-118405712D01*
X186241778Y-118392484D01*
X186306645Y-118418447D01*
X186332294Y-118448048D01*
X186333118Y-118447472D01*
X186336222Y-118451905D01*
X186336223Y-118451907D01*
X186470579Y-118643787D01*
X186636213Y-118809421D01*
X186828093Y-118943777D01*
X187040389Y-119042772D01*
X187266649Y-119103398D01*
X187453329Y-119119730D01*
X187499999Y-119123814D01*
X187500000Y-119123814D01*
X187500001Y-119123814D01*
X187540827Y-119120242D01*
X187733351Y-119103398D01*
X187959611Y-119042772D01*
X188171907Y-118943777D01*
X188363787Y-118809421D01*
X188529421Y-118643787D01*
X188663777Y-118451907D01*
X188663777Y-118451905D01*
X188666882Y-118447472D01*
X188668323Y-118448481D01*
X188713172Y-118405712D01*
X188781778Y-118392484D01*
X188846645Y-118418447D01*
X188872294Y-118448048D01*
X188873118Y-118447472D01*
X188876222Y-118451905D01*
X188876223Y-118451907D01*
X189010579Y-118643787D01*
X189176213Y-118809421D01*
X189368093Y-118943777D01*
X189580389Y-119042772D01*
X189806649Y-119103398D01*
X189993329Y-119119730D01*
X190039999Y-119123814D01*
X190040000Y-119123814D01*
X190040001Y-119123814D01*
X190080827Y-119120242D01*
X190273351Y-119103398D01*
X190499611Y-119042772D01*
X190711907Y-118943777D01*
X190903787Y-118809421D01*
X191069421Y-118643787D01*
X191203777Y-118451907D01*
X191203777Y-118451905D01*
X191206882Y-118447472D01*
X191208323Y-118448481D01*
X191253172Y-118405712D01*
X191321778Y-118392484D01*
X191386645Y-118418447D01*
X191412294Y-118448048D01*
X191413118Y-118447472D01*
X191416222Y-118451905D01*
X191416223Y-118451907D01*
X191550579Y-118643787D01*
X191716213Y-118809421D01*
X191908093Y-118943777D01*
X192120389Y-119042772D01*
X192346649Y-119103398D01*
X192533329Y-119119730D01*
X192579999Y-119123814D01*
X192579999Y-119123813D01*
X192580000Y-119123814D01*
X192620823Y-119120242D01*
X192689322Y-119134008D01*
X192739506Y-119182623D01*
X192755440Y-119250651D01*
X192732065Y-119316495D01*
X192719312Y-119331451D01*
X192431286Y-119619478D01*
X192319481Y-119731282D01*
X192319479Y-119731285D01*
X192269361Y-119818094D01*
X192269359Y-119818096D01*
X192240425Y-119868209D01*
X192240424Y-119868210D01*
X192240423Y-119868215D01*
X192199499Y-120020943D01*
X192199499Y-120020945D01*
X192199499Y-120189046D01*
X192199500Y-120189059D01*
X192199500Y-129463933D01*
X192179815Y-129530972D01*
X192172450Y-129541242D01*
X192170186Y-129544080D01*
X192074211Y-129696822D01*
X192014631Y-129867091D01*
X192014631Y-129867094D01*
X192009778Y-129910161D01*
X191982710Y-129974574D01*
X191925115Y-130014128D01*
X191855278Y-130016265D01*
X191798877Y-129983956D01*
X185434209Y-123619289D01*
X185434206Y-123619285D01*
X185434206Y-123619286D01*
X185427139Y-123612219D01*
X185427139Y-123612218D01*
X185287782Y-123472861D01*
X185287781Y-123472860D01*
X185287780Y-123472859D01*
X185123920Y-123363371D01*
X185123911Y-123363366D01*
X185051315Y-123333296D01*
X184995165Y-123310038D01*
X184941836Y-123287949D01*
X184941832Y-123287948D01*
X184941828Y-123287946D01*
X184845188Y-123268724D01*
X184748544Y-123249500D01*
X184748541Y-123249500D01*
X178377588Y-123249500D01*
X178310549Y-123229815D01*
X178306465Y-123227075D01*
X178152734Y-123119432D01*
X178152730Y-123119430D01*
X178137022Y-123112105D01*
X178084583Y-123065931D01*
X178065433Y-122998737D01*
X178085650Y-122931857D01*
X178137028Y-122887340D01*
X178152481Y-122880134D01*
X178225471Y-122829024D01*
X177546447Y-122150000D01*
X177552661Y-122150000D01*
X177654394Y-122122741D01*
X177745606Y-122070080D01*
X177820080Y-121995606D01*
X177872741Y-121904394D01*
X177900000Y-121802661D01*
X177900000Y-121796447D01*
X178579024Y-122475471D01*
X178630136Y-122402478D01*
X178726264Y-122196331D01*
X178726269Y-122196317D01*
X178785139Y-121976610D01*
X178785141Y-121976599D01*
X178804966Y-121750002D01*
X178804966Y-121749997D01*
X178785141Y-121523400D01*
X178785139Y-121523389D01*
X178726269Y-121303682D01*
X178726264Y-121303668D01*
X178630136Y-121097521D01*
X178630132Y-121097513D01*
X178579025Y-121024526D01*
X177900000Y-121703551D01*
X177900000Y-121697339D01*
X177872741Y-121595606D01*
X177820080Y-121504394D01*
X177745606Y-121429920D01*
X177654394Y-121377259D01*
X177552661Y-121350000D01*
X177546448Y-121350000D01*
X178225472Y-120670974D01*
X178152478Y-120619863D01*
X177946331Y-120523735D01*
X177946317Y-120523730D01*
X177726610Y-120464860D01*
X177726599Y-120464858D01*
X177500002Y-120445034D01*
X177499998Y-120445034D01*
X177273400Y-120464858D01*
X177273389Y-120464860D01*
X177053682Y-120523730D01*
X177053673Y-120523734D01*
X176847516Y-120619866D01*
X176847512Y-120619868D01*
X176774526Y-120670973D01*
X176774526Y-120670974D01*
X177453553Y-121350000D01*
X177447339Y-121350000D01*
X177345606Y-121377259D01*
X177254394Y-121429920D01*
X177179920Y-121504394D01*
X177127259Y-121595606D01*
X177100000Y-121697339D01*
X177100000Y-121703552D01*
X176420974Y-121024526D01*
X176420973Y-121024526D01*
X176369868Y-121097512D01*
X176369866Y-121097516D01*
X176273734Y-121303673D01*
X176273730Y-121303682D01*
X176214860Y-121523389D01*
X176214858Y-121523400D01*
X176195034Y-121749997D01*
X176195034Y-121750002D01*
X176214858Y-121976599D01*
X176214860Y-121976610D01*
X176273730Y-122196317D01*
X176273735Y-122196331D01*
X176369863Y-122402478D01*
X176420974Y-122475472D01*
X177100000Y-121796446D01*
X177100000Y-121802661D01*
X177127259Y-121904394D01*
X177179920Y-121995606D01*
X177254394Y-122070080D01*
X177345606Y-122122741D01*
X177447339Y-122150000D01*
X177453553Y-122150000D01*
X176774526Y-122829025D01*
X176847513Y-122880132D01*
X176847515Y-122880133D01*
X176862973Y-122887341D01*
X176915413Y-122933513D01*
X176934566Y-123000706D01*
X176914351Y-123067587D01*
X176862979Y-123112104D01*
X176847270Y-123119429D01*
X176847265Y-123119432D01*
X176660858Y-123249954D01*
X176499954Y-123410858D01*
X176369432Y-123597265D01*
X176369431Y-123597267D01*
X176273261Y-123803502D01*
X176273258Y-123803511D01*
X176214366Y-124023302D01*
X176214364Y-124023313D01*
X176194532Y-124249998D01*
X176194532Y-124250001D01*
X176214364Y-124476686D01*
X176214366Y-124476697D01*
X176273258Y-124696488D01*
X176273261Y-124696497D01*
X176369431Y-124902732D01*
X176369432Y-124902734D01*
X176499954Y-125089141D01*
X176660858Y-125250045D01*
X176660861Y-125250047D01*
X176847266Y-125380568D01*
X177053504Y-125476739D01*
X177273308Y-125535635D01*
X177435230Y-125549801D01*
X177499998Y-125555468D01*
X177500000Y-125555468D01*
X177500002Y-125555468D01*
X177556673Y-125550509D01*
X177726692Y-125535635D01*
X177946496Y-125476739D01*
X178152734Y-125380568D01*
X178306465Y-125272924D01*
X178372671Y-125250598D01*
X178377588Y-125250500D01*
X184184218Y-125250500D01*
X184251257Y-125270185D01*
X184271899Y-125286819D01*
X192762216Y-133777138D01*
X192765273Y-133779647D01*
X192766443Y-133781365D01*
X192766526Y-133781448D01*
X192766510Y-133781463D01*
X192804607Y-133837393D01*
X192806478Y-133907238D01*
X192770290Y-133967006D01*
X192707534Y-133997722D01*
X192686608Y-133999500D01*
X153874500Y-133999500D01*
X153807461Y-133979815D01*
X153761706Y-133927011D01*
X153750500Y-133875500D01*
X153750500Y-131000000D01*
X154659076Y-131000000D01*
X154678550Y-131284708D01*
X154678550Y-131284712D01*
X154678551Y-131284714D01*
X154693027Y-131354376D01*
X154736613Y-131564127D01*
X154736614Y-131564130D01*
X154832179Y-131833022D01*
X154832178Y-131833022D01*
X154960370Y-132080421D01*
X154963474Y-132086411D01*
X155128047Y-132319557D01*
X155128051Y-132319561D01*
X155128051Y-132319562D01*
X155322836Y-132528125D01*
X155446652Y-132628856D01*
X155544205Y-132708222D01*
X155544207Y-132708223D01*
X155544208Y-132708224D01*
X155788040Y-132856502D01*
X155788045Y-132856504D01*
X155918915Y-132913348D01*
X156049792Y-132970196D01*
X156324589Y-133047190D01*
X156573144Y-133081354D01*
X156607309Y-133086050D01*
X156607310Y-133086050D01*
X156892691Y-133086050D01*
X156923171Y-133081860D01*
X157175411Y-133047190D01*
X157450208Y-132970196D01*
X157711961Y-132856501D01*
X157955795Y-132708222D01*
X158177167Y-132528122D01*
X158371953Y-132319557D01*
X158536526Y-132086411D01*
X158667819Y-131833026D01*
X158763387Y-131564125D01*
X158821449Y-131284714D01*
X158840924Y-131000000D01*
X158825104Y-130768713D01*
X167649500Y-130768713D01*
X167649500Y-131231286D01*
X167681101Y-131430811D01*
X167682754Y-131441243D01*
X167727349Y-131578493D01*
X167748444Y-131643414D01*
X167844951Y-131832820D01*
X167969890Y-132004786D01*
X168120213Y-132155109D01*
X168292179Y-132280048D01*
X168292181Y-132280049D01*
X168292184Y-132280051D01*
X168481588Y-132376557D01*
X168683757Y-132442246D01*
X168893713Y-132475500D01*
X168893714Y-132475500D01*
X169106286Y-132475500D01*
X169106287Y-132475500D01*
X169316243Y-132442246D01*
X169518412Y-132376557D01*
X169707816Y-132280051D01*
X169729789Y-132264086D01*
X169879786Y-132155109D01*
X169879788Y-132155106D01*
X169879792Y-132155104D01*
X170030104Y-132004792D01*
X170149683Y-131840204D01*
X170205011Y-131797540D01*
X170274624Y-131791561D01*
X170336420Y-131824166D01*
X170350313Y-131840199D01*
X170467970Y-132002141D01*
X170469896Y-132004792D01*
X170620213Y-132155109D01*
X170792179Y-132280048D01*
X170792181Y-132280049D01*
X170792184Y-132280051D01*
X170981588Y-132376557D01*
X171183757Y-132442246D01*
X171393713Y-132475500D01*
X171393714Y-132475500D01*
X171606286Y-132475500D01*
X171606287Y-132475500D01*
X171816243Y-132442246D01*
X172018412Y-132376557D01*
X172207816Y-132280051D01*
X172229789Y-132264086D01*
X172379786Y-132155109D01*
X172379788Y-132155106D01*
X172379792Y-132155104D01*
X172530104Y-132004792D01*
X172649683Y-131840204D01*
X172705011Y-131797540D01*
X172774624Y-131791561D01*
X172836420Y-131824166D01*
X172850313Y-131840199D01*
X172967970Y-132002141D01*
X172969896Y-132004792D01*
X173120213Y-132155109D01*
X173292179Y-132280048D01*
X173292181Y-132280049D01*
X173292184Y-132280051D01*
X173481588Y-132376557D01*
X173683757Y-132442246D01*
X173893713Y-132475500D01*
X173893714Y-132475500D01*
X174106286Y-132475500D01*
X174106287Y-132475500D01*
X174316243Y-132442246D01*
X174518412Y-132376557D01*
X174707816Y-132280051D01*
X174729789Y-132264086D01*
X174879786Y-132155109D01*
X174879788Y-132155106D01*
X174879792Y-132155104D01*
X175030104Y-132004792D01*
X175149683Y-131840204D01*
X175205011Y-131797540D01*
X175274624Y-131791561D01*
X175336420Y-131824166D01*
X175350313Y-131840199D01*
X175467970Y-132002141D01*
X175469896Y-132004792D01*
X175620213Y-132155109D01*
X175792179Y-132280048D01*
X175792181Y-132280049D01*
X175792184Y-132280051D01*
X175981588Y-132376557D01*
X176183757Y-132442246D01*
X176393713Y-132475500D01*
X176393714Y-132475500D01*
X176606286Y-132475500D01*
X176606287Y-132475500D01*
X176816243Y-132442246D01*
X177018412Y-132376557D01*
X177207816Y-132280051D01*
X177229789Y-132264086D01*
X177379786Y-132155109D01*
X177379788Y-132155106D01*
X177379792Y-132155104D01*
X177530104Y-132004792D01*
X177649683Y-131840204D01*
X177705011Y-131797540D01*
X177774624Y-131791561D01*
X177836420Y-131824166D01*
X177850313Y-131840199D01*
X177967970Y-132002141D01*
X177969896Y-132004792D01*
X178120213Y-132155109D01*
X178292179Y-132280048D01*
X178292181Y-132280049D01*
X178292184Y-132280051D01*
X178481588Y-132376557D01*
X178683757Y-132442246D01*
X178893713Y-132475500D01*
X178893714Y-132475500D01*
X179106286Y-132475500D01*
X179106287Y-132475500D01*
X179316243Y-132442246D01*
X179518412Y-132376557D01*
X179707816Y-132280051D01*
X179729789Y-132264086D01*
X179879786Y-132155109D01*
X179879788Y-132155106D01*
X179879792Y-132155104D01*
X180030104Y-132004792D01*
X180149991Y-131839779D01*
X180205320Y-131797115D01*
X180274933Y-131791136D01*
X180336729Y-131823741D01*
X180350627Y-131839781D01*
X180470272Y-132004459D01*
X180470276Y-132004464D01*
X180620535Y-132154723D01*
X180620540Y-132154727D01*
X180792442Y-132279620D01*
X180981782Y-132376095D01*
X181183871Y-132441757D01*
X181250000Y-132452231D01*
X181250000Y-131404145D01*
X181316657Y-131442630D01*
X181437465Y-131475000D01*
X181562535Y-131475000D01*
X181683343Y-131442630D01*
X181750000Y-131404145D01*
X181750000Y-132452230D01*
X181816126Y-132441757D01*
X181816129Y-132441757D01*
X182018217Y-132376095D01*
X182207557Y-132279620D01*
X182379458Y-132154728D01*
X182518330Y-132015856D01*
X182579653Y-131982371D01*
X182649345Y-131987355D01*
X182705279Y-132029226D01*
X182711551Y-132038440D01*
X182715185Y-132044331D01*
X182715186Y-132044334D01*
X182807288Y-132193656D01*
X182931344Y-132317712D01*
X183080666Y-132409814D01*
X183247203Y-132464999D01*
X183349991Y-132475500D01*
X184650008Y-132475499D01*
X184752797Y-132464999D01*
X184919334Y-132409814D01*
X185068656Y-132317712D01*
X185192712Y-132193656D01*
X185284814Y-132044334D01*
X185339999Y-131877797D01*
X185350500Y-131775009D01*
X185350499Y-130224992D01*
X185348851Y-130208863D01*
X185339999Y-130122203D01*
X185339998Y-130122200D01*
X185314862Y-130046346D01*
X185284814Y-129955666D01*
X185192712Y-129806344D01*
X185068656Y-129682288D01*
X184973253Y-129623443D01*
X184919336Y-129590187D01*
X184919331Y-129590185D01*
X184917862Y-129589698D01*
X184752797Y-129535001D01*
X184752795Y-129535000D01*
X184650010Y-129524500D01*
X183349998Y-129524500D01*
X183349981Y-129524501D01*
X183247203Y-129535000D01*
X183247200Y-129535001D01*
X183080668Y-129590185D01*
X183080663Y-129590187D01*
X182931342Y-129682289D01*
X182807289Y-129806342D01*
X182711551Y-129961559D01*
X182659603Y-130008283D01*
X182590640Y-130019506D01*
X182526558Y-129991662D01*
X182518331Y-129984143D01*
X182379464Y-129845276D01*
X182379459Y-129845272D01*
X182207557Y-129720379D01*
X182018215Y-129623903D01*
X181816124Y-129558241D01*
X181750000Y-129547768D01*
X181750000Y-130595854D01*
X181683343Y-130557370D01*
X181562535Y-130525000D01*
X181437465Y-130525000D01*
X181316657Y-130557370D01*
X181250000Y-130595854D01*
X181250000Y-129547768D01*
X181249999Y-129547768D01*
X181183875Y-129558241D01*
X180981784Y-129623903D01*
X180792442Y-129720379D01*
X180620540Y-129845272D01*
X180620535Y-129845276D01*
X180470276Y-129995535D01*
X180470272Y-129995540D01*
X180350627Y-130160218D01*
X180295297Y-130202884D01*
X180225684Y-130208863D01*
X180163889Y-130176257D01*
X180149991Y-130160218D01*
X180030109Y-129995214D01*
X180030105Y-129995209D01*
X179879786Y-129844890D01*
X179707820Y-129719951D01*
X179518414Y-129623444D01*
X179518413Y-129623443D01*
X179518412Y-129623443D01*
X179316243Y-129557754D01*
X179316241Y-129557753D01*
X179316240Y-129557753D01*
X179147149Y-129530972D01*
X179106287Y-129524500D01*
X178893713Y-129524500D01*
X178852851Y-129530972D01*
X178683760Y-129557753D01*
X178481585Y-129623444D01*
X178292179Y-129719951D01*
X178120213Y-129844890D01*
X177969894Y-129995209D01*
X177969890Y-129995214D01*
X177850318Y-130159793D01*
X177794989Y-130202459D01*
X177725375Y-130208438D01*
X177663580Y-130175833D01*
X177649682Y-130159793D01*
X177530109Y-129995214D01*
X177530105Y-129995209D01*
X177379786Y-129844890D01*
X177207820Y-129719951D01*
X177018414Y-129623444D01*
X177018413Y-129623443D01*
X177018412Y-129623443D01*
X176816243Y-129557754D01*
X176816241Y-129557753D01*
X176816240Y-129557753D01*
X176647149Y-129530972D01*
X176606287Y-129524500D01*
X176393713Y-129524500D01*
X176352851Y-129530972D01*
X176183760Y-129557753D01*
X175981585Y-129623444D01*
X175792179Y-129719951D01*
X175620213Y-129844890D01*
X175469894Y-129995209D01*
X175469890Y-129995214D01*
X175350318Y-130159793D01*
X175294989Y-130202459D01*
X175225375Y-130208438D01*
X175163580Y-130175833D01*
X175149682Y-130159793D01*
X175030109Y-129995214D01*
X175030105Y-129995209D01*
X174879786Y-129844890D01*
X174707820Y-129719951D01*
X174518414Y-129623444D01*
X174518413Y-129623443D01*
X174518412Y-129623443D01*
X174316243Y-129557754D01*
X174316241Y-129557753D01*
X174316240Y-129557753D01*
X174147149Y-129530972D01*
X174106287Y-129524500D01*
X173893713Y-129524500D01*
X173852851Y-129530972D01*
X173683760Y-129557753D01*
X173481585Y-129623444D01*
X173292179Y-129719951D01*
X173120213Y-129844890D01*
X172969894Y-129995209D01*
X172969890Y-129995214D01*
X172850318Y-130159793D01*
X172794989Y-130202459D01*
X172725375Y-130208438D01*
X172663580Y-130175833D01*
X172649682Y-130159793D01*
X172530109Y-129995214D01*
X172530105Y-129995209D01*
X172379786Y-129844890D01*
X172207820Y-129719951D01*
X172018414Y-129623444D01*
X172018413Y-129623443D01*
X172018412Y-129623443D01*
X171816243Y-129557754D01*
X171816241Y-129557753D01*
X171816240Y-129557753D01*
X171647149Y-129530972D01*
X171606287Y-129524500D01*
X171393713Y-129524500D01*
X171352851Y-129530972D01*
X171183760Y-129557753D01*
X170981585Y-129623444D01*
X170792179Y-129719951D01*
X170620213Y-129844890D01*
X170469894Y-129995209D01*
X170469890Y-129995214D01*
X170350318Y-130159793D01*
X170294989Y-130202459D01*
X170225375Y-130208438D01*
X170163580Y-130175833D01*
X170149682Y-130159793D01*
X170030109Y-129995214D01*
X170030105Y-129995209D01*
X169879786Y-129844890D01*
X169707820Y-129719951D01*
X169518414Y-129623444D01*
X169518413Y-129623443D01*
X169518412Y-129623443D01*
X169316243Y-129557754D01*
X169316241Y-129557753D01*
X169316240Y-129557753D01*
X169147149Y-129530972D01*
X169106287Y-129524500D01*
X168893713Y-129524500D01*
X168852851Y-129530972D01*
X168683760Y-129557753D01*
X168481585Y-129623444D01*
X168292179Y-129719951D01*
X168120213Y-129844890D01*
X167969890Y-129995213D01*
X167844951Y-130167179D01*
X167748444Y-130356585D01*
X167682753Y-130558760D01*
X167649500Y-130768713D01*
X158825104Y-130768713D01*
X158821449Y-130715286D01*
X158763387Y-130435875D01*
X158749168Y-130395868D01*
X158671118Y-130176257D01*
X158667820Y-130166977D01*
X158667821Y-130166977D01*
X158596173Y-130028703D01*
X158536526Y-129913589D01*
X158371953Y-129680443D01*
X158371948Y-129680437D01*
X158204839Y-129501508D01*
X158177167Y-129471878D01*
X158177165Y-129471877D01*
X158177163Y-129471874D01*
X157955791Y-129291775D01*
X157711959Y-129143497D01*
X157711954Y-129143495D01*
X157450213Y-129029806D01*
X157450211Y-129029805D01*
X157450208Y-129029804D01*
X157312513Y-128991224D01*
X157175417Y-128952811D01*
X157175412Y-128952810D01*
X157175411Y-128952810D01*
X157034050Y-128933380D01*
X156892691Y-128913950D01*
X156892690Y-128913950D01*
X156607310Y-128913950D01*
X156607309Y-128913950D01*
X156324589Y-128952810D01*
X156324582Y-128952811D01*
X156128165Y-129007845D01*
X156049792Y-129029804D01*
X156049789Y-129029804D01*
X156049786Y-129029806D01*
X156049785Y-129029806D01*
X155788045Y-129143495D01*
X155788040Y-129143497D01*
X155544208Y-129291775D01*
X155322836Y-129471874D01*
X155128051Y-129680437D01*
X155128051Y-129680438D01*
X155128048Y-129680440D01*
X155128047Y-129680443D01*
X155116484Y-129696824D01*
X154963474Y-129913588D01*
X154832179Y-130166977D01*
X154736614Y-130435869D01*
X154736613Y-130435872D01*
X154678550Y-130715291D01*
X154659076Y-131000000D01*
X153750500Y-131000000D01*
X153750500Y-99999999D01*
X221716186Y-99999999D01*
X221716186Y-100000000D01*
X221736601Y-100233346D01*
X221736603Y-100233356D01*
X221797225Y-100459603D01*
X221797227Y-100459607D01*
X221797228Y-100459611D01*
X221896223Y-100671907D01*
X222030579Y-100863787D01*
X222196213Y-101029421D01*
X222388093Y-101163777D01*
X222388094Y-101163777D01*
X222392528Y-101166882D01*
X222391521Y-101168319D01*
X222434297Y-101213190D01*
X222447513Y-101281798D01*
X222421540Y-101346660D01*
X222391953Y-101372297D01*
X222392528Y-101373118D01*
X222388094Y-101376222D01*
X222388093Y-101376223D01*
X222196213Y-101510579D01*
X222196211Y-101510580D01*
X222196208Y-101510583D01*
X222030583Y-101676208D01*
X222030580Y-101676211D01*
X222030579Y-101676213D01*
X221896223Y-101868093D01*
X221797229Y-102080387D01*
X221797225Y-102080396D01*
X221736603Y-102306643D01*
X221736601Y-102306653D01*
X221716186Y-102539999D01*
X221716186Y-102540000D01*
X221736601Y-102773346D01*
X221736603Y-102773356D01*
X221797225Y-102999603D01*
X221797227Y-102999607D01*
X221797228Y-102999611D01*
X221896223Y-103211907D01*
X222030579Y-103403787D01*
X222196213Y-103569421D01*
X222388093Y-103703777D01*
X222388094Y-103703777D01*
X222392528Y-103706882D01*
X222391521Y-103708319D01*
X222434297Y-103753190D01*
X222447513Y-103821798D01*
X222421540Y-103886660D01*
X222391953Y-103912297D01*
X222392528Y-103913118D01*
X222388094Y-103916222D01*
X222388093Y-103916223D01*
X222196213Y-104050579D01*
X222196211Y-104050580D01*
X222196208Y-104050583D01*
X222030583Y-104216208D01*
X222030580Y-104216211D01*
X222030579Y-104216213D01*
X221896223Y-104408093D01*
X221874440Y-104454808D01*
X221797229Y-104620387D01*
X221797225Y-104620396D01*
X221736603Y-104846643D01*
X221736601Y-104846653D01*
X221716186Y-105079999D01*
X221716186Y-105080000D01*
X221736601Y-105313346D01*
X221736603Y-105313356D01*
X221797225Y-105539603D01*
X221797227Y-105539607D01*
X221797228Y-105539611D01*
X221896223Y-105751907D01*
X222030579Y-105943787D01*
X222196213Y-106109421D01*
X222388093Y-106243777D01*
X222600389Y-106342772D01*
X222826649Y-106403398D01*
X223013329Y-106419730D01*
X223059999Y-106423814D01*
X223060000Y-106423814D01*
X223060001Y-106423814D01*
X223098891Y-106420411D01*
X223293351Y-106403398D01*
X223519611Y-106342772D01*
X223731907Y-106243777D01*
X223923787Y-106109421D01*
X224089421Y-105943787D01*
X224223777Y-105751907D01*
X224223777Y-105751905D01*
X224226882Y-105747472D01*
X224228188Y-105748386D01*
X224273453Y-105705213D01*
X224342058Y-105691980D01*
X224406926Y-105717937D01*
X224432775Y-105747765D01*
X224433553Y-105747221D01*
X224493545Y-105832899D01*
X224493546Y-105832900D01*
X225200000Y-105126446D01*
X225200000Y-105132661D01*
X225227259Y-105234394D01*
X225279920Y-105325606D01*
X225354394Y-105400080D01*
X225445606Y-105452741D01*
X225547339Y-105480000D01*
X225553553Y-105480000D01*
X224847098Y-106186453D01*
X224928343Y-106243341D01*
X224928345Y-106243342D01*
X225140558Y-106342298D01*
X225140567Y-106342302D01*
X225366731Y-106402902D01*
X225366741Y-106402904D01*
X225599998Y-106423312D01*
X225600002Y-106423312D01*
X225833258Y-106402904D01*
X225833268Y-106402902D01*
X226059432Y-106342302D01*
X226059441Y-106342298D01*
X226271655Y-106243342D01*
X226352900Y-106186453D01*
X225646448Y-105480000D01*
X225652661Y-105480000D01*
X225754394Y-105452741D01*
X225845606Y-105400080D01*
X225920080Y-105325606D01*
X225972741Y-105234394D01*
X226000000Y-105132661D01*
X226000000Y-105126447D01*
X226706453Y-105832900D01*
X226763342Y-105751655D01*
X226862298Y-105539441D01*
X226862302Y-105539432D01*
X226922902Y-105313268D01*
X226922904Y-105313258D01*
X226943312Y-105080001D01*
X226943312Y-105079998D01*
X226922904Y-104846741D01*
X226922902Y-104846731D01*
X226862302Y-104620567D01*
X226862298Y-104620558D01*
X226763342Y-104408345D01*
X226763341Y-104408343D01*
X226706453Y-104327099D01*
X226706453Y-104327098D01*
X226000000Y-105033551D01*
X226000000Y-105027339D01*
X225972741Y-104925606D01*
X225920080Y-104834394D01*
X225845606Y-104759920D01*
X225754394Y-104707259D01*
X225652661Y-104680000D01*
X225646447Y-104680000D01*
X226352900Y-103973546D01*
X226352899Y-103973545D01*
X226267221Y-103913553D01*
X226268181Y-103912181D01*
X226225207Y-103867115D01*
X226218052Y-103829999D01*
X233524341Y-103829999D01*
X233524341Y-103830000D01*
X233544936Y-104065403D01*
X233544938Y-104065413D01*
X233606094Y-104293655D01*
X233606096Y-104293659D01*
X233606097Y-104293663D01*
X233705965Y-104507830D01*
X233705967Y-104507834D01*
X233841501Y-104701395D01*
X233841506Y-104701402D01*
X234008597Y-104868493D01*
X234008603Y-104868498D01*
X234194158Y-104998425D01*
X234237783Y-105053002D01*
X234244977Y-105122500D01*
X234213454Y-105184855D01*
X234194158Y-105201575D01*
X234008597Y-105331505D01*
X233841505Y-105498597D01*
X233705965Y-105692169D01*
X233705964Y-105692171D01*
X233606098Y-105906335D01*
X233606094Y-105906344D01*
X233544938Y-106134586D01*
X233544936Y-106134596D01*
X233524341Y-106369999D01*
X233524341Y-106370000D01*
X233544936Y-106605403D01*
X233544938Y-106605413D01*
X233606094Y-106833655D01*
X233606096Y-106833659D01*
X233606097Y-106833663D01*
X233705965Y-107047830D01*
X233705967Y-107047834D01*
X233814281Y-107202521D01*
X233841505Y-107241401D01*
X234008599Y-107408495D01*
X234105384Y-107476265D01*
X234202165Y-107544032D01*
X234202167Y-107544033D01*
X234202170Y-107544035D01*
X234416337Y-107643903D01*
X234644592Y-107705063D01*
X234832918Y-107721539D01*
X234879999Y-107725659D01*
X234880000Y-107725659D01*
X234880001Y-107725659D01*
X234919234Y-107722226D01*
X235115408Y-107705063D01*
X235343663Y-107643903D01*
X235557830Y-107544035D01*
X235751401Y-107408495D01*
X235918495Y-107241401D01*
X236054035Y-107047830D01*
X236153903Y-106833663D01*
X236215063Y-106605408D01*
X236235659Y-106370000D01*
X236215063Y-106134592D01*
X236153903Y-105906337D01*
X236054035Y-105692171D01*
X236053902Y-105691980D01*
X235918494Y-105498597D01*
X235751402Y-105331506D01*
X235751396Y-105331501D01*
X235565842Y-105201575D01*
X235522217Y-105146998D01*
X235515023Y-105077500D01*
X235546546Y-105015145D01*
X235565842Y-104998425D01*
X235669838Y-104925606D01*
X235751401Y-104868495D01*
X235918495Y-104701401D01*
X236054035Y-104507830D01*
X236153903Y-104293663D01*
X236215063Y-104065408D01*
X236235659Y-103830000D01*
X236215063Y-103594592D01*
X236153903Y-103366337D01*
X236054035Y-103152171D01*
X235947213Y-102999612D01*
X235918494Y-102958597D01*
X235751402Y-102791506D01*
X235751401Y-102791505D01*
X235565405Y-102661269D01*
X235521781Y-102606692D01*
X235514588Y-102537193D01*
X235546110Y-102474839D01*
X235565405Y-102458119D01*
X235751082Y-102328105D01*
X235918105Y-102161082D01*
X236053600Y-101967578D01*
X236153429Y-101753492D01*
X236153432Y-101753486D01*
X236210636Y-101540000D01*
X235313012Y-101540000D01*
X235345925Y-101482993D01*
X235380000Y-101355826D01*
X235380000Y-101224174D01*
X235345925Y-101097007D01*
X235313012Y-101040000D01*
X236210636Y-101040000D01*
X236210635Y-101039999D01*
X236153432Y-100826513D01*
X236153429Y-100826507D01*
X236053600Y-100612422D01*
X236053599Y-100612420D01*
X235918113Y-100418926D01*
X235918108Y-100418920D01*
X235796053Y-100296865D01*
X235762568Y-100235542D01*
X235767552Y-100165850D01*
X235809424Y-100109917D01*
X235840400Y-100093002D01*
X235972331Y-100043796D01*
X236087546Y-99957546D01*
X236173796Y-99842331D01*
X236224091Y-99707483D01*
X236230500Y-99647873D01*
X236230499Y-97852128D01*
X236224091Y-97792517D01*
X236173796Y-97657669D01*
X236173795Y-97657668D01*
X236173793Y-97657664D01*
X236087547Y-97542455D01*
X236087544Y-97542452D01*
X235972335Y-97456206D01*
X235972328Y-97456202D01*
X235837482Y-97405908D01*
X235837483Y-97405908D01*
X235777883Y-97399501D01*
X235777881Y-97399500D01*
X235777873Y-97399500D01*
X235777864Y-97399500D01*
X233982129Y-97399500D01*
X233982123Y-97399501D01*
X233922516Y-97405908D01*
X233787671Y-97456202D01*
X233787664Y-97456206D01*
X233672455Y-97542452D01*
X233672452Y-97542455D01*
X233586206Y-97657664D01*
X233586202Y-97657671D01*
X233535908Y-97792517D01*
X233529501Y-97852116D01*
X233529501Y-97852123D01*
X233529500Y-97852135D01*
X233529500Y-99647870D01*
X233529501Y-99647876D01*
X233535908Y-99707483D01*
X233586202Y-99842328D01*
X233586206Y-99842335D01*
X233672452Y-99957544D01*
X233672455Y-99957547D01*
X233787664Y-100043793D01*
X233787671Y-100043797D01*
X233787674Y-100043798D01*
X233919598Y-100093002D01*
X233975531Y-100134873D01*
X233999949Y-100200337D01*
X233985098Y-100268610D01*
X233963947Y-100296865D01*
X233841886Y-100418926D01*
X233706400Y-100612420D01*
X233706399Y-100612422D01*
X233606570Y-100826507D01*
X233606567Y-100826513D01*
X233549364Y-101039999D01*
X233549364Y-101040000D01*
X234446988Y-101040000D01*
X234414075Y-101097007D01*
X234380000Y-101224174D01*
X234380000Y-101355826D01*
X234414075Y-101482993D01*
X234446988Y-101540000D01*
X233549364Y-101540000D01*
X233606567Y-101753486D01*
X233606570Y-101753492D01*
X233706399Y-101967578D01*
X233841894Y-102161082D01*
X234008917Y-102328105D01*
X234194595Y-102458119D01*
X234238219Y-102512696D01*
X234245412Y-102582195D01*
X234213890Y-102644549D01*
X234194595Y-102661269D01*
X234008594Y-102791508D01*
X233841505Y-102958597D01*
X233705965Y-103152169D01*
X233705964Y-103152171D01*
X233606098Y-103366335D01*
X233606094Y-103366344D01*
X233544938Y-103594586D01*
X233544936Y-103594596D01*
X233524341Y-103829999D01*
X226218052Y-103829999D01*
X226211981Y-103798509D01*
X226237946Y-103733643D01*
X226267985Y-103707615D01*
X226267472Y-103706882D01*
X226271905Y-103703777D01*
X226271907Y-103703777D01*
X226463787Y-103569421D01*
X226629421Y-103403787D01*
X226763777Y-103211907D01*
X226862772Y-102999611D01*
X226923398Y-102773351D01*
X226943814Y-102540000D01*
X226923398Y-102306649D01*
X226862772Y-102080389D01*
X226763777Y-101868093D01*
X226629421Y-101676213D01*
X226463787Y-101510579D01*
X226271907Y-101376223D01*
X226271905Y-101376222D01*
X226267472Y-101373118D01*
X226268481Y-101371676D01*
X226225712Y-101326828D01*
X226212484Y-101258222D01*
X226238447Y-101193355D01*
X226268048Y-101167705D01*
X226267472Y-101166882D01*
X226271905Y-101163777D01*
X226271907Y-101163777D01*
X226463787Y-101029421D01*
X226629421Y-100863787D01*
X226763777Y-100671907D01*
X226862772Y-100459611D01*
X226923398Y-100233351D01*
X226943814Y-100000000D01*
X226923398Y-99766649D01*
X226862772Y-99540389D01*
X226763777Y-99328093D01*
X226629421Y-99136213D01*
X226463787Y-98970579D01*
X226271907Y-98836223D01*
X226059611Y-98737228D01*
X226059607Y-98737227D01*
X226059603Y-98737225D01*
X225833356Y-98676603D01*
X225833346Y-98676601D01*
X225600001Y-98656186D01*
X225599999Y-98656186D01*
X225366653Y-98676601D01*
X225366643Y-98676603D01*
X225140396Y-98737225D01*
X225140389Y-98737227D01*
X225140389Y-98737228D01*
X224928093Y-98836223D01*
X224736213Y-98970579D01*
X224736211Y-98970580D01*
X224736208Y-98970583D01*
X224570583Y-99136208D01*
X224433118Y-99332528D01*
X224431680Y-99331521D01*
X224386810Y-99374297D01*
X224318202Y-99387513D01*
X224253340Y-99361540D01*
X224227702Y-99331953D01*
X224226882Y-99332528D01*
X224223777Y-99328093D01*
X224089421Y-99136213D01*
X223923787Y-98970579D01*
X223731907Y-98836223D01*
X223519611Y-98737228D01*
X223519607Y-98737227D01*
X223519603Y-98737225D01*
X223293356Y-98676603D01*
X223293346Y-98676601D01*
X223060001Y-98656186D01*
X223059999Y-98656186D01*
X222826653Y-98676601D01*
X222826643Y-98676603D01*
X222600396Y-98737225D01*
X222600389Y-98737227D01*
X222600389Y-98737228D01*
X222388093Y-98836223D01*
X222196213Y-98970579D01*
X222196211Y-98970580D01*
X222196208Y-98970583D01*
X222030583Y-99136208D01*
X221896223Y-99328093D01*
X221797229Y-99540387D01*
X221797225Y-99540396D01*
X221736603Y-99766643D01*
X221736601Y-99766653D01*
X221716186Y-99999999D01*
X153750500Y-99999999D01*
X153750500Y-69000000D01*
X154659076Y-69000000D01*
X154678550Y-69284708D01*
X154678550Y-69284712D01*
X154678551Y-69284714D01*
X154689994Y-69339781D01*
X154736613Y-69564127D01*
X154736614Y-69564130D01*
X154832179Y-69833022D01*
X154832178Y-69833022D01*
X154940401Y-70041882D01*
X154963474Y-70086411D01*
X155128047Y-70319557D01*
X155128051Y-70319561D01*
X155128051Y-70319562D01*
X155220478Y-70418527D01*
X155300986Y-70504730D01*
X155322836Y-70528125D01*
X155446652Y-70628856D01*
X155544205Y-70708222D01*
X155544207Y-70708223D01*
X155544208Y-70708224D01*
X155788040Y-70856502D01*
X155788045Y-70856504D01*
X155918915Y-70913348D01*
X156049792Y-70970196D01*
X156324589Y-71047190D01*
X156573144Y-71081354D01*
X156607309Y-71086050D01*
X156607310Y-71086050D01*
X156892691Y-71086050D01*
X156926018Y-71081469D01*
X157175411Y-71047190D01*
X157450208Y-70970196D01*
X157711961Y-70856501D01*
X157955795Y-70708222D01*
X158177167Y-70528122D01*
X158371953Y-70319557D01*
X158536526Y-70086411D01*
X158667819Y-69833026D01*
X158763387Y-69564125D01*
X158821449Y-69284714D01*
X158840924Y-69000000D01*
X158821449Y-68715286D01*
X158763387Y-68435875D01*
X158757381Y-68418977D01*
X158667820Y-68166977D01*
X158667821Y-68166977D01*
X158594254Y-68025000D01*
X158536526Y-67913589D01*
X158371953Y-67680443D01*
X158371948Y-67680437D01*
X158198960Y-67495213D01*
X158177167Y-67471878D01*
X158177165Y-67471877D01*
X158177163Y-67471874D01*
X158012075Y-67337565D01*
X157955795Y-67291778D01*
X157955793Y-67291777D01*
X157955791Y-67291775D01*
X157711959Y-67143497D01*
X157711954Y-67143495D01*
X157450213Y-67029806D01*
X157450211Y-67029805D01*
X157450208Y-67029804D01*
X157321619Y-66993775D01*
X157175417Y-66952811D01*
X157175412Y-66952810D01*
X157175411Y-66952810D01*
X157034050Y-66933380D01*
X156892691Y-66913950D01*
X156892690Y-66913950D01*
X156607310Y-66913950D01*
X156607309Y-66913950D01*
X156324589Y-66952810D01*
X156324582Y-66952811D01*
X156120474Y-67010000D01*
X156049792Y-67029804D01*
X156049789Y-67029804D01*
X156049786Y-67029806D01*
X156049785Y-67029806D01*
X155788045Y-67143495D01*
X155788040Y-67143497D01*
X155544208Y-67291775D01*
X155322836Y-67471874D01*
X155128051Y-67680437D01*
X155128051Y-67680438D01*
X155128048Y-67680440D01*
X155128047Y-67680443D01*
X155096601Y-67724992D01*
X154963474Y-67913588D01*
X154832179Y-68166977D01*
X154736614Y-68435869D01*
X154736613Y-68435872D01*
X154678550Y-68715291D01*
X154659076Y-69000000D01*
X153750500Y-69000000D01*
X153750500Y-66124500D01*
X153770185Y-66057461D01*
X153822989Y-66011706D01*
X153874500Y-66000500D01*
X246125500Y-66000500D01*
X246192539Y-66020185D01*
G37*
%TD.AperFunction*%
%TA.AperFunction,Conductor*%
G36*
X203659156Y-128765604D02*
G01*
X203711701Y-128776163D01*
X203761885Y-128824777D01*
X203771717Y-128846921D01*
X203795642Y-128919121D01*
X203795643Y-128919124D01*
X203887684Y-129068345D01*
X204011654Y-129192315D01*
X204160875Y-129284356D01*
X204160882Y-129284359D01*
X204233075Y-129308281D01*
X204290520Y-129348053D01*
X204317344Y-129412569D01*
X204317463Y-129423910D01*
X204950590Y-130057037D01*
X204887007Y-130074075D01*
X204772993Y-130139901D01*
X204679901Y-130232993D01*
X204614075Y-130347007D01*
X204597037Y-130410590D01*
X203965073Y-129778626D01*
X203911881Y-129854594D01*
X203857304Y-129898219D01*
X203787806Y-129905413D01*
X203725451Y-129873891D01*
X203708730Y-129854594D01*
X203578494Y-129668597D01*
X203411402Y-129501506D01*
X203411401Y-129501505D01*
X203225405Y-129371269D01*
X203181781Y-129316692D01*
X203174588Y-129247193D01*
X203206110Y-129184839D01*
X203225405Y-129168119D01*
X203301373Y-129114925D01*
X202669409Y-128482962D01*
X202732993Y-128465925D01*
X202847007Y-128400099D01*
X202940099Y-128307007D01*
X203005925Y-128192993D01*
X203022962Y-128129410D01*
X203659156Y-128765604D01*
G37*
%TD.AperFunction*%
%TA.AperFunction,Conductor*%
G36*
X202074075Y-128192993D02*
G01*
X202139901Y-128307007D01*
X202232993Y-128400099D01*
X202347007Y-128465925D01*
X202410590Y-128482962D01*
X201778625Y-129114925D01*
X201854594Y-129168119D01*
X201898219Y-129222696D01*
X201905413Y-129292194D01*
X201873890Y-129354549D01*
X201854595Y-129371269D01*
X201668594Y-129501508D01*
X201666922Y-129503181D01*
X201666000Y-129503684D01*
X201664449Y-129504986D01*
X201664187Y-129504674D01*
X201605599Y-129536666D01*
X201579241Y-129539500D01*
X200960758Y-129539500D01*
X200893719Y-129519815D01*
X200873077Y-129503181D01*
X200871402Y-129501506D01*
X200871396Y-129501501D01*
X200685842Y-129371575D01*
X200642217Y-129316998D01*
X200635023Y-129247500D01*
X200666546Y-129185145D01*
X200685842Y-129168425D01*
X200762248Y-129114925D01*
X200871401Y-129038495D01*
X201038495Y-128871401D01*
X201168732Y-128685403D01*
X201223307Y-128641780D01*
X201292805Y-128634586D01*
X201355160Y-128666109D01*
X201371880Y-128685405D01*
X201425073Y-128761373D01*
X202057037Y-128129408D01*
X202074075Y-128192993D01*
G37*
%TD.AperFunction*%
%TA.AperFunction,Conductor*%
G36*
X176940000Y-115292661D02*
G01*
X176967259Y-115394394D01*
X177019920Y-115485606D01*
X177094394Y-115560080D01*
X177185606Y-115612741D01*
X177287339Y-115640000D01*
X177293553Y-115640000D01*
X176587098Y-116346453D01*
X176672779Y-116406447D01*
X176671913Y-116407683D01*
X176715291Y-116453169D01*
X176728521Y-116521774D01*
X176702559Y-116586642D01*
X176672298Y-116612868D01*
X176672778Y-116613553D01*
X176587099Y-116673544D01*
X176587098Y-116673545D01*
X177293554Y-117380000D01*
X177287339Y-117380000D01*
X177185606Y-117407259D01*
X177094394Y-117459920D01*
X177019920Y-117534394D01*
X176967259Y-117625606D01*
X176940000Y-117727339D01*
X176940000Y-117733553D01*
X176233545Y-117027098D01*
X176233544Y-117027099D01*
X176173553Y-117112778D01*
X176172187Y-117111821D01*
X176127081Y-117154808D01*
X176058471Y-117168014D01*
X175993613Y-117142029D01*
X175967614Y-117112014D01*
X175966882Y-117112528D01*
X175933426Y-117064748D01*
X175829421Y-116916213D01*
X175663787Y-116750579D01*
X175471907Y-116616223D01*
X175471905Y-116616222D01*
X175467472Y-116613118D01*
X175468481Y-116611676D01*
X175425712Y-116566828D01*
X175412484Y-116498222D01*
X175438447Y-116433355D01*
X175468048Y-116407705D01*
X175467472Y-116406882D01*
X175471905Y-116403777D01*
X175471907Y-116403777D01*
X175663787Y-116269421D01*
X175829421Y-116103787D01*
X175963777Y-115911907D01*
X175963777Y-115911905D01*
X175966882Y-115907472D01*
X175968188Y-115908386D01*
X176013453Y-115865213D01*
X176082058Y-115851980D01*
X176146926Y-115877937D01*
X176172775Y-115907765D01*
X176173553Y-115907221D01*
X176233545Y-115992899D01*
X176233546Y-115992900D01*
X176940000Y-115286446D01*
X176940000Y-115292661D01*
G37*
%TD.AperFunction*%
%TA.AperFunction,Conductor*%
G36*
X178446453Y-115992900D02*
G01*
X178506447Y-115907221D01*
X178507819Y-115908181D01*
X178552885Y-115865208D01*
X178621491Y-115851982D01*
X178686357Y-115877947D01*
X178712385Y-115907984D01*
X178713118Y-115907472D01*
X178716222Y-115911905D01*
X178716223Y-115911907D01*
X178850579Y-116103787D01*
X179016213Y-116269421D01*
X179208093Y-116403777D01*
X179208094Y-116403777D01*
X179212528Y-116406882D01*
X179211521Y-116408319D01*
X179254297Y-116453190D01*
X179267513Y-116521798D01*
X179241540Y-116586660D01*
X179211953Y-116612297D01*
X179212528Y-116613118D01*
X179208094Y-116616222D01*
X179208093Y-116616223D01*
X179016213Y-116750579D01*
X179016211Y-116750580D01*
X179016208Y-116750583D01*
X178850583Y-116916208D01*
X178850580Y-116916211D01*
X178850579Y-116916213D01*
X178772936Y-117027099D01*
X178713118Y-117112528D01*
X178711819Y-117111618D01*
X178666505Y-117154807D01*
X178597895Y-117168015D01*
X178533036Y-117142033D01*
X178507224Y-117112234D01*
X178506447Y-117112779D01*
X178446453Y-117027099D01*
X178446453Y-117027098D01*
X177740000Y-117733551D01*
X177740000Y-117727339D01*
X177712741Y-117625606D01*
X177660080Y-117534394D01*
X177585606Y-117459920D01*
X177494394Y-117407259D01*
X177392661Y-117380000D01*
X177386447Y-117380000D01*
X178092900Y-116673546D01*
X178092899Y-116673545D01*
X178007221Y-116613553D01*
X178008085Y-116612318D01*
X177964702Y-116566820D01*
X177951479Y-116498213D01*
X177977447Y-116433348D01*
X178007702Y-116407135D01*
X178007221Y-116406447D01*
X178092900Y-116346453D01*
X177386448Y-115640000D01*
X177392661Y-115640000D01*
X177494394Y-115612741D01*
X177585606Y-115560080D01*
X177660080Y-115485606D01*
X177712741Y-115394394D01*
X177740000Y-115292661D01*
X177740000Y-115286447D01*
X178446453Y-115992900D01*
G37*
%TD.AperFunction*%
%TD*%
M02*
