%TF.GenerationSoftware,KiCad,Pcbnew,8.0.5*%
%TF.CreationDate,2025-12-13T14:06:30+09:00*%
%TF.ProjectId,main__,6d61696e-fa7f-42e6-9b69-6361645f7063,rev?*%
%TF.SameCoordinates,Original*%
%TF.FileFunction,Legend,Top*%
%TF.FilePolarity,Positive*%
%FSLAX46Y46*%
G04 Gerber Fmt 4.6, Leading zero omitted, Abs format (unit mm)*
G04 Created by KiCad (PCBNEW 8.0.5) date 2025-12-13 14:06:30*
%MOMM*%
%LPD*%
G01*
G04 APERTURE LIST*
%ADD10C,0.150000*%
%ADD11C,0.254000*%
%ADD12C,0.120000*%
%ADD13C,0.000000*%
%ADD14C,0.127000*%
%ADD15C,0.100000*%
%ADD16C,0.200000*%
G04 APERTURE END LIST*
D10*
X173666666Y-125954819D02*
X173666666Y-126669104D01*
X173666666Y-126669104D02*
X173619047Y-126811961D01*
X173619047Y-126811961D02*
X173523809Y-126907200D01*
X173523809Y-126907200D02*
X173380952Y-126954819D01*
X173380952Y-126954819D02*
X173285714Y-126954819D01*
X174047619Y-125954819D02*
X174714285Y-125954819D01*
X174714285Y-125954819D02*
X174285714Y-126954819D01*
X190916666Y-72454819D02*
X190916666Y-73169104D01*
X190916666Y-73169104D02*
X190869047Y-73311961D01*
X190869047Y-73311961D02*
X190773809Y-73407200D01*
X190773809Y-73407200D02*
X190630952Y-73454819D01*
X190630952Y-73454819D02*
X190535714Y-73454819D01*
X191297619Y-72454819D02*
X191916666Y-72454819D01*
X191916666Y-72454819D02*
X191583333Y-72835771D01*
X191583333Y-72835771D02*
X191726190Y-72835771D01*
X191726190Y-72835771D02*
X191821428Y-72883390D01*
X191821428Y-72883390D02*
X191869047Y-72931009D01*
X191869047Y-72931009D02*
X191916666Y-73026247D01*
X191916666Y-73026247D02*
X191916666Y-73264342D01*
X191916666Y-73264342D02*
X191869047Y-73359580D01*
X191869047Y-73359580D02*
X191821428Y-73407200D01*
X191821428Y-73407200D02*
X191726190Y-73454819D01*
X191726190Y-73454819D02*
X191440476Y-73454819D01*
X191440476Y-73454819D02*
X191345238Y-73407200D01*
X191345238Y-73407200D02*
X191297619Y-73359580D01*
X234546666Y-95434819D02*
X234546666Y-96149104D01*
X234546666Y-96149104D02*
X234499047Y-96291961D01*
X234499047Y-96291961D02*
X234403809Y-96387200D01*
X234403809Y-96387200D02*
X234260952Y-96434819D01*
X234260952Y-96434819D02*
X234165714Y-96434819D01*
X235451428Y-95768152D02*
X235451428Y-96434819D01*
X235213333Y-95387200D02*
X234975238Y-96101485D01*
X234975238Y-96101485D02*
X235594285Y-96101485D01*
X210916666Y-72454819D02*
X210916666Y-73169104D01*
X210916666Y-73169104D02*
X210869047Y-73311961D01*
X210869047Y-73311961D02*
X210773809Y-73407200D01*
X210773809Y-73407200D02*
X210630952Y-73454819D01*
X210630952Y-73454819D02*
X210535714Y-73454819D01*
X211345238Y-72550057D02*
X211392857Y-72502438D01*
X211392857Y-72502438D02*
X211488095Y-72454819D01*
X211488095Y-72454819D02*
X211726190Y-72454819D01*
X211726190Y-72454819D02*
X211821428Y-72502438D01*
X211821428Y-72502438D02*
X211869047Y-72550057D01*
X211869047Y-72550057D02*
X211916666Y-72645295D01*
X211916666Y-72645295D02*
X211916666Y-72740533D01*
X211916666Y-72740533D02*
X211869047Y-72883390D01*
X211869047Y-72883390D02*
X211297619Y-73454819D01*
X211297619Y-73454819D02*
X211916666Y-73454819D01*
X242166666Y-95434819D02*
X242166666Y-96149104D01*
X242166666Y-96149104D02*
X242119047Y-96291961D01*
X242119047Y-96291961D02*
X242023809Y-96387200D01*
X242023809Y-96387200D02*
X241880952Y-96434819D01*
X241880952Y-96434819D02*
X241785714Y-96434819D01*
X242785714Y-95863390D02*
X242690476Y-95815771D01*
X242690476Y-95815771D02*
X242642857Y-95768152D01*
X242642857Y-95768152D02*
X242595238Y-95672914D01*
X242595238Y-95672914D02*
X242595238Y-95625295D01*
X242595238Y-95625295D02*
X242642857Y-95530057D01*
X242642857Y-95530057D02*
X242690476Y-95482438D01*
X242690476Y-95482438D02*
X242785714Y-95434819D01*
X242785714Y-95434819D02*
X242976190Y-95434819D01*
X242976190Y-95434819D02*
X243071428Y-95482438D01*
X243071428Y-95482438D02*
X243119047Y-95530057D01*
X243119047Y-95530057D02*
X243166666Y-95625295D01*
X243166666Y-95625295D02*
X243166666Y-95672914D01*
X243166666Y-95672914D02*
X243119047Y-95768152D01*
X243119047Y-95768152D02*
X243071428Y-95815771D01*
X243071428Y-95815771D02*
X242976190Y-95863390D01*
X242976190Y-95863390D02*
X242785714Y-95863390D01*
X242785714Y-95863390D02*
X242690476Y-95911009D01*
X242690476Y-95911009D02*
X242642857Y-95958628D01*
X242642857Y-95958628D02*
X242595238Y-96053866D01*
X242595238Y-96053866D02*
X242595238Y-96244342D01*
X242595238Y-96244342D02*
X242642857Y-96339580D01*
X242642857Y-96339580D02*
X242690476Y-96387200D01*
X242690476Y-96387200D02*
X242785714Y-96434819D01*
X242785714Y-96434819D02*
X242976190Y-96434819D01*
X242976190Y-96434819D02*
X243071428Y-96387200D01*
X243071428Y-96387200D02*
X243119047Y-96339580D01*
X243119047Y-96339580D02*
X243166666Y-96244342D01*
X243166666Y-96244342D02*
X243166666Y-96053866D01*
X243166666Y-96053866D02*
X243119047Y-95958628D01*
X243119047Y-95958628D02*
X243071428Y-95911009D01*
X243071428Y-95911009D02*
X242976190Y-95863390D01*
X199606666Y-122954819D02*
X199606666Y-123669104D01*
X199606666Y-123669104D02*
X199559047Y-123811961D01*
X199559047Y-123811961D02*
X199463809Y-123907200D01*
X199463809Y-123907200D02*
X199320952Y-123954819D01*
X199320952Y-123954819D02*
X199225714Y-123954819D01*
X200606666Y-123954819D02*
X200035238Y-123954819D01*
X200320952Y-123954819D02*
X200320952Y-122954819D01*
X200320952Y-122954819D02*
X200225714Y-123097676D01*
X200225714Y-123097676D02*
X200130476Y-123192914D01*
X200130476Y-123192914D02*
X200035238Y-123240533D01*
X172166666Y-72454819D02*
X172166666Y-73169104D01*
X172166666Y-73169104D02*
X172119047Y-73311961D01*
X172119047Y-73311961D02*
X172023809Y-73407200D01*
X172023809Y-73407200D02*
X171880952Y-73454819D01*
X171880952Y-73454819D02*
X171785714Y-73454819D01*
X173071428Y-72454819D02*
X172880952Y-72454819D01*
X172880952Y-72454819D02*
X172785714Y-72502438D01*
X172785714Y-72502438D02*
X172738095Y-72550057D01*
X172738095Y-72550057D02*
X172642857Y-72692914D01*
X172642857Y-72692914D02*
X172595238Y-72883390D01*
X172595238Y-72883390D02*
X172595238Y-73264342D01*
X172595238Y-73264342D02*
X172642857Y-73359580D01*
X172642857Y-73359580D02*
X172690476Y-73407200D01*
X172690476Y-73407200D02*
X172785714Y-73454819D01*
X172785714Y-73454819D02*
X172976190Y-73454819D01*
X172976190Y-73454819D02*
X173071428Y-73407200D01*
X173071428Y-73407200D02*
X173119047Y-73359580D01*
X173119047Y-73359580D02*
X173166666Y-73264342D01*
X173166666Y-73264342D02*
X173166666Y-73026247D01*
X173166666Y-73026247D02*
X173119047Y-72931009D01*
X173119047Y-72931009D02*
X173071428Y-72883390D01*
X173071428Y-72883390D02*
X172976190Y-72835771D01*
X172976190Y-72835771D02*
X172785714Y-72835771D01*
X172785714Y-72835771D02*
X172690476Y-72883390D01*
X172690476Y-72883390D02*
X172642857Y-72931009D01*
X172642857Y-72931009D02*
X172595238Y-73026247D01*
X172933333Y-123359580D02*
X172885714Y-123407200D01*
X172885714Y-123407200D02*
X172742857Y-123454819D01*
X172742857Y-123454819D02*
X172647619Y-123454819D01*
X172647619Y-123454819D02*
X172504762Y-123407200D01*
X172504762Y-123407200D02*
X172409524Y-123311961D01*
X172409524Y-123311961D02*
X172361905Y-123216723D01*
X172361905Y-123216723D02*
X172314286Y-123026247D01*
X172314286Y-123026247D02*
X172314286Y-122883390D01*
X172314286Y-122883390D02*
X172361905Y-122692914D01*
X172361905Y-122692914D02*
X172409524Y-122597676D01*
X172409524Y-122597676D02*
X172504762Y-122502438D01*
X172504762Y-122502438D02*
X172647619Y-122454819D01*
X172647619Y-122454819D02*
X172742857Y-122454819D01*
X172742857Y-122454819D02*
X172885714Y-122502438D01*
X172885714Y-122502438D02*
X172933333Y-122550057D01*
X173885714Y-123454819D02*
X173314286Y-123454819D01*
X173600000Y-123454819D02*
X173600000Y-122454819D01*
X173600000Y-122454819D02*
X173504762Y-122597676D01*
X173504762Y-122597676D02*
X173409524Y-122692914D01*
X173409524Y-122692914D02*
X173314286Y-122740533D01*
X219166666Y-124954819D02*
X219166666Y-125669104D01*
X219166666Y-125669104D02*
X219119047Y-125811961D01*
X219119047Y-125811961D02*
X219023809Y-125907200D01*
X219023809Y-125907200D02*
X218880952Y-125954819D01*
X218880952Y-125954819D02*
X218785714Y-125954819D01*
X220119047Y-124954819D02*
X219642857Y-124954819D01*
X219642857Y-124954819D02*
X219595238Y-125431009D01*
X219595238Y-125431009D02*
X219642857Y-125383390D01*
X219642857Y-125383390D02*
X219738095Y-125335771D01*
X219738095Y-125335771D02*
X219976190Y-125335771D01*
X219976190Y-125335771D02*
X220071428Y-125383390D01*
X220071428Y-125383390D02*
X220119047Y-125431009D01*
X220119047Y-125431009D02*
X220166666Y-125526247D01*
X220166666Y-125526247D02*
X220166666Y-125764342D01*
X220166666Y-125764342D02*
X220119047Y-125859580D01*
X220119047Y-125859580D02*
X220071428Y-125907200D01*
X220071428Y-125907200D02*
X219976190Y-125954819D01*
X219976190Y-125954819D02*
X219738095Y-125954819D01*
X219738095Y-125954819D02*
X219642857Y-125907200D01*
X219642857Y-125907200D02*
X219595238Y-125859580D01*
X175943095Y-79769819D02*
X175943095Y-80579342D01*
X175943095Y-80579342D02*
X175990714Y-80674580D01*
X175990714Y-80674580D02*
X176038333Y-80722200D01*
X176038333Y-80722200D02*
X176133571Y-80769819D01*
X176133571Y-80769819D02*
X176324047Y-80769819D01*
X176324047Y-80769819D02*
X176419285Y-80722200D01*
X176419285Y-80722200D02*
X176466904Y-80674580D01*
X176466904Y-80674580D02*
X176514523Y-80579342D01*
X176514523Y-80579342D02*
X176514523Y-79769819D01*
X177514523Y-80769819D02*
X176943095Y-80769819D01*
X177228809Y-80769819D02*
X177228809Y-79769819D01*
X177228809Y-79769819D02*
X177133571Y-79912676D01*
X177133571Y-79912676D02*
X177038333Y-80007914D01*
X177038333Y-80007914D02*
X176943095Y-80055533D01*
X221444761Y-74434819D02*
X221111428Y-73958628D01*
X220873333Y-74434819D02*
X220873333Y-73434819D01*
X220873333Y-73434819D02*
X221254285Y-73434819D01*
X221254285Y-73434819D02*
X221349523Y-73482438D01*
X221349523Y-73482438D02*
X221397142Y-73530057D01*
X221397142Y-73530057D02*
X221444761Y-73625295D01*
X221444761Y-73625295D02*
X221444761Y-73768152D01*
X221444761Y-73768152D02*
X221397142Y-73863390D01*
X221397142Y-73863390D02*
X221349523Y-73911009D01*
X221349523Y-73911009D02*
X221254285Y-73958628D01*
X221254285Y-73958628D02*
X220873333Y-73958628D01*
X221730476Y-73434819D02*
X222063809Y-74434819D01*
X222063809Y-74434819D02*
X222397142Y-73434819D01*
X223254285Y-74434819D02*
X222682857Y-74434819D01*
X222968571Y-74434819D02*
X222968571Y-73434819D01*
X222968571Y-73434819D02*
X222873333Y-73577676D01*
X222873333Y-73577676D02*
X222778095Y-73672914D01*
X222778095Y-73672914D02*
X222682857Y-73720533D01*
D11*
X235432380Y-114513842D02*
X235613809Y-114574318D01*
X235613809Y-114574318D02*
X235916190Y-114574318D01*
X235916190Y-114574318D02*
X236037142Y-114513842D01*
X236037142Y-114513842D02*
X236097618Y-114453365D01*
X236097618Y-114453365D02*
X236158095Y-114332413D01*
X236158095Y-114332413D02*
X236158095Y-114211461D01*
X236158095Y-114211461D02*
X236097618Y-114090508D01*
X236097618Y-114090508D02*
X236037142Y-114030032D01*
X236037142Y-114030032D02*
X235916190Y-113969556D01*
X235916190Y-113969556D02*
X235674285Y-113909080D01*
X235674285Y-113909080D02*
X235553333Y-113848603D01*
X235553333Y-113848603D02*
X235492856Y-113788127D01*
X235492856Y-113788127D02*
X235432380Y-113667175D01*
X235432380Y-113667175D02*
X235432380Y-113546222D01*
X235432380Y-113546222D02*
X235492856Y-113425270D01*
X235492856Y-113425270D02*
X235553333Y-113364794D01*
X235553333Y-113364794D02*
X235674285Y-113304318D01*
X235674285Y-113304318D02*
X235976666Y-113304318D01*
X235976666Y-113304318D02*
X236158095Y-113364794D01*
X237367619Y-114574318D02*
X236641904Y-114574318D01*
X237004761Y-114574318D02*
X237004761Y-113304318D01*
X237004761Y-113304318D02*
X236883809Y-113485746D01*
X236883809Y-113485746D02*
X236762857Y-113606699D01*
X236762857Y-113606699D02*
X236641904Y-113667175D01*
D12*
%TO.C,J7*%
X166440000Y-127490000D02*
X166440000Y-133460000D01*
X166440000Y-133460000D02*
X186560000Y-133460000D01*
X166450000Y-131200000D02*
X167200000Y-131200000D01*
X166450000Y-132700000D02*
X166450000Y-133450000D01*
X166450000Y-133450000D02*
X168250000Y-133450000D01*
X167200000Y-128250000D02*
X176500000Y-128250000D01*
X167200000Y-131200000D02*
X167200000Y-128250000D01*
X168250000Y-132700000D02*
X166450000Y-132700000D01*
X168250000Y-133450000D02*
X168250000Y-132700000D01*
X169750000Y-132700000D02*
X169750000Y-133450000D01*
X169750000Y-133450000D02*
X183250000Y-133450000D01*
X183250000Y-132700000D02*
X169750000Y-132700000D01*
X183250000Y-133450000D02*
X183250000Y-132700000D01*
X184750000Y-132700000D02*
X184750000Y-133450000D01*
X184750000Y-133450000D02*
X186550000Y-133450000D01*
X185600000Y-133750000D02*
X186850000Y-133750000D01*
X185800000Y-128250000D02*
X176500000Y-128250000D01*
X185800000Y-131200000D02*
X185800000Y-128250000D01*
X186550000Y-131200000D02*
X185800000Y-131200000D01*
X186550000Y-132700000D02*
X184750000Y-132700000D01*
X186550000Y-133450000D02*
X186550000Y-132700000D01*
X186560000Y-127490000D02*
X166440000Y-127490000D01*
X186560000Y-133460000D02*
X186560000Y-127490000D01*
X186850000Y-133750000D02*
X186850000Y-132500000D01*
%TO.C,J3*%
X184650000Y-65750000D02*
X184650000Y-67000000D01*
X184940000Y-66040000D02*
X184940000Y-72010000D01*
X184940000Y-72010000D02*
X197560000Y-72010000D01*
X184950000Y-66050000D02*
X184950000Y-66800000D01*
X184950000Y-66800000D02*
X186750000Y-66800000D01*
X184950000Y-68300000D02*
X185700000Y-68300000D01*
X185700000Y-68300000D02*
X185700000Y-71250000D01*
X185700000Y-71250000D02*
X191250000Y-71250000D01*
X185900000Y-65750000D02*
X184650000Y-65750000D01*
X186750000Y-66050000D02*
X184950000Y-66050000D01*
X186750000Y-66800000D02*
X186750000Y-66050000D01*
X188250000Y-66050000D02*
X188250000Y-66800000D01*
X188250000Y-66800000D02*
X194250000Y-66800000D01*
X194250000Y-66050000D02*
X188250000Y-66050000D01*
X194250000Y-66800000D02*
X194250000Y-66050000D01*
X195750000Y-66050000D02*
X195750000Y-66800000D01*
X195750000Y-66800000D02*
X197550000Y-66800000D01*
X196800000Y-68300000D02*
X196800000Y-71250000D01*
X196800000Y-71250000D02*
X191250000Y-71250000D01*
X197550000Y-66050000D02*
X195750000Y-66050000D01*
X197550000Y-66800000D02*
X197550000Y-66050000D01*
X197550000Y-68300000D02*
X196800000Y-68300000D01*
X197560000Y-66040000D02*
X184940000Y-66040000D01*
X197560000Y-72010000D02*
X197560000Y-66040000D01*
D13*
%TO.C,G\u002A\u002A\u002A*%
G36*
X245078360Y-90681137D02*
G01*
X245072763Y-90686734D01*
X245067166Y-90681137D01*
X245072763Y-90675540D01*
X245078360Y-90681137D01*
G37*
G36*
X244127796Y-89920511D02*
G01*
X244133067Y-89934095D01*
X244131185Y-89938737D01*
X244131924Y-89954204D01*
X244135712Y-89957666D01*
X244146219Y-89972969D01*
X244154454Y-89998393D01*
X244157005Y-90014874D01*
X244153373Y-90014474D01*
X244142001Y-89995902D01*
X244134061Y-89981489D01*
X244117684Y-89946652D01*
X244112462Y-89924252D01*
X244118655Y-89916826D01*
X244127796Y-89920511D01*
G37*
G36*
X244323612Y-87887672D02*
G01*
X244325106Y-87917948D01*
X244326383Y-87964943D01*
X244327385Y-88025824D01*
X244328054Y-88097756D01*
X244328333Y-88177904D01*
X244328338Y-88189915D01*
X244328338Y-88502880D01*
X244287174Y-88534141D01*
X244198559Y-88613804D01*
X244126696Y-88705946D01*
X244070993Y-88811715D01*
X244030861Y-88932261D01*
X244005709Y-89068731D01*
X244003695Y-89085999D01*
X243996677Y-89190090D01*
X243998678Y-89297907D01*
X244010092Y-89413482D01*
X244031313Y-89540849D01*
X244061583Y-89679242D01*
X244074398Y-89732840D01*
X244085367Y-89778775D01*
X244093414Y-89812537D01*
X244097464Y-89829614D01*
X244097639Y-89830366D01*
X244103038Y-89849221D01*
X244108656Y-89866647D01*
X244114858Y-89893619D01*
X244111003Y-89903240D01*
X244099719Y-89896608D01*
X244083636Y-89874817D01*
X244070805Y-89850867D01*
X244055497Y-89816075D01*
X244046165Y-89789339D01*
X244044756Y-89777107D01*
X244041996Y-89763558D01*
X244032401Y-89751120D01*
X244018012Y-89727803D01*
X244014896Y-89712958D01*
X244010042Y-89693758D01*
X244004504Y-89688570D01*
X243996508Y-89676540D01*
X243983834Y-89646795D01*
X243967737Y-89603212D01*
X243949471Y-89549664D01*
X243930287Y-89490026D01*
X243911440Y-89428175D01*
X243894183Y-89367985D01*
X243879770Y-89313330D01*
X243871139Y-89276245D01*
X243839922Y-89090651D01*
X243826546Y-88912401D01*
X243830972Y-88743103D01*
X243853161Y-88584367D01*
X243891528Y-88442265D01*
X243909924Y-88392263D01*
X243929979Y-88343514D01*
X243949627Y-88300423D01*
X243966802Y-88267396D01*
X243979440Y-88248839D01*
X243983371Y-88246364D01*
X243991381Y-88237217D01*
X243992507Y-88228791D01*
X244000335Y-88204567D01*
X244022344Y-88168102D01*
X244056326Y-88122402D01*
X244100070Y-88070475D01*
X244142905Y-88024076D01*
X244184082Y-87983206D01*
X244226044Y-87944979D01*
X244264968Y-87912536D01*
X244297033Y-87889018D01*
X244318414Y-87877566D01*
X244321959Y-87876950D01*
X244323612Y-87887672D01*
G37*
G36*
X244448677Y-89984863D02*
G01*
X244484990Y-89990206D01*
X244516680Y-89995478D01*
X244518642Y-89995842D01*
X244640989Y-90018933D01*
X244743448Y-90038695D01*
X244828166Y-90055765D01*
X244897289Y-90070781D01*
X244952962Y-90084383D01*
X244997333Y-90097209D01*
X245032548Y-90109898D01*
X245060752Y-90123088D01*
X245084093Y-90137418D01*
X245104717Y-90153527D01*
X245124769Y-90172053D01*
X245130806Y-90177992D01*
X245163766Y-90212082D01*
X245182856Y-90236637D01*
X245191098Y-90256815D01*
X245191517Y-90277774D01*
X245191139Y-90280939D01*
X245195890Y-90293860D01*
X245199737Y-90294932D01*
X245209895Y-90305225D01*
X245218196Y-90332581D01*
X245224131Y-90371715D01*
X245227193Y-90417341D01*
X245226871Y-90464175D01*
X245222659Y-90506931D01*
X245221008Y-90516020D01*
X245212824Y-90544959D01*
X245203555Y-90561828D01*
X245200179Y-90563596D01*
X245193659Y-90570265D01*
X245194958Y-90573265D01*
X245190693Y-90584781D01*
X245175545Y-90606238D01*
X245154509Y-90631793D01*
X245132579Y-90655603D01*
X245114752Y-90671825D01*
X245107523Y-90675540D01*
X245076127Y-90665583D01*
X245043560Y-90638631D01*
X245018369Y-90604458D01*
X244997665Y-90565400D01*
X244990790Y-90538489D01*
X244997951Y-90518102D01*
X245019359Y-90498615D01*
X245022388Y-90496430D01*
X245043543Y-90478150D01*
X245053373Y-90457235D01*
X245055955Y-90424388D01*
X245055971Y-90419798D01*
X245053795Y-90385338D01*
X245045654Y-90357386D01*
X245029128Y-90334570D01*
X245001796Y-90315516D01*
X244961239Y-90298853D01*
X244905036Y-90283207D01*
X244830769Y-90267207D01*
X244764918Y-90254727D01*
X244738283Y-90249660D01*
X244696785Y-90241557D01*
X244645708Y-90231472D01*
X244590336Y-90220459D01*
X244535954Y-90209573D01*
X244487846Y-90199868D01*
X244451297Y-90192398D01*
X244431886Y-90188285D01*
X244419971Y-90184197D01*
X244412556Y-90175512D01*
X244408581Y-90157703D01*
X244406982Y-90126240D01*
X244406699Y-90080850D01*
X244406699Y-89979138D01*
X244448677Y-89984863D01*
G37*
G36*
X245100067Y-88429030D02*
G01*
X245138274Y-88435157D01*
X245181908Y-88443537D01*
X245212692Y-88449641D01*
X245212692Y-88728611D01*
X245212646Y-88814644D01*
X245212363Y-88880878D01*
X245211622Y-88929902D01*
X245210206Y-88964303D01*
X245207895Y-88986671D01*
X245204471Y-88999596D01*
X245199714Y-89005665D01*
X245193407Y-89007469D01*
X245189107Y-89007580D01*
X245162133Y-89004888D01*
X245125936Y-88997913D01*
X245086635Y-88988304D01*
X245050351Y-88977713D01*
X245023202Y-88967789D01*
X245011309Y-88960183D01*
X245011194Y-88959599D01*
X245004880Y-88955002D01*
X244997201Y-88959589D01*
X244978188Y-88962652D01*
X244938515Y-88958913D01*
X244878826Y-88948443D01*
X244860070Y-88944619D01*
X244793383Y-88931054D01*
X244716739Y-88915999D01*
X244642239Y-88901812D01*
X244608197Y-88895530D01*
X244553622Y-88885407D01*
X244504097Y-88875850D01*
X244465577Y-88868030D01*
X244445879Y-88863610D01*
X244412296Y-88855086D01*
X244409077Y-88752223D01*
X244405858Y-88649361D01*
X244434264Y-88649361D01*
X244455498Y-88653394D01*
X244462670Y-88661309D01*
X244471252Y-88668533D01*
X244482261Y-88667217D01*
X244502871Y-88666461D01*
X244537361Y-88670442D01*
X244574614Y-88677533D01*
X244620508Y-88687167D01*
X244664791Y-88695353D01*
X244691380Y-88699427D01*
X244721403Y-88705918D01*
X244740950Y-88715111D01*
X244743156Y-88717541D01*
X244758972Y-88724721D01*
X244774715Y-88722568D01*
X244794239Y-88721127D01*
X244798501Y-88728165D01*
X244806646Y-88736169D01*
X244816303Y-88734480D01*
X244838283Y-88732345D01*
X244845987Y-88734993D01*
X244864996Y-88741191D01*
X244892553Y-88745456D01*
X244943245Y-88751485D01*
X244974542Y-88758580D01*
X244983243Y-88763205D01*
X244997652Y-88765967D01*
X245017054Y-88763994D01*
X245044777Y-88758694D01*
X245044948Y-88606077D01*
X245045702Y-88548865D01*
X245047645Y-88499046D01*
X245050504Y-88461245D01*
X245054005Y-88440088D01*
X245054917Y-88437991D01*
X245062543Y-88430629D01*
X245076208Y-88427581D01*
X245100067Y-88429030D01*
G37*
G36*
X245377653Y-84975423D02*
G01*
X245383107Y-84977037D01*
X245419490Y-84987188D01*
X245451481Y-84994910D01*
X245457854Y-84996176D01*
X245483488Y-85002636D01*
X245496407Y-85007980D01*
X245515006Y-85013837D01*
X245539262Y-85017296D01*
X245554628Y-85018416D01*
X245567372Y-85020425D01*
X245577740Y-85025256D01*
X245585976Y-85034837D01*
X245592326Y-85051100D01*
X245597033Y-85075974D01*
X245600343Y-85111390D01*
X245602500Y-85159279D01*
X245603749Y-85221571D01*
X245604335Y-85300195D01*
X245604503Y-85397084D01*
X245604496Y-85514166D01*
X245604495Y-85531862D01*
X245604447Y-85649065D01*
X245604248Y-85745944D01*
X245603813Y-85824566D01*
X245603060Y-85886996D01*
X245601903Y-85935299D01*
X245600260Y-85971542D01*
X245598046Y-85997790D01*
X245595177Y-86016108D01*
X245591571Y-86028562D01*
X245587142Y-86037217D01*
X245583802Y-86041761D01*
X245563110Y-86067315D01*
X245194798Y-85974151D01*
X245105061Y-85951409D01*
X245020208Y-85929822D01*
X244943210Y-85910153D01*
X244877036Y-85893162D01*
X244824657Y-85879613D01*
X244789044Y-85870268D01*
X244776112Y-85866757D01*
X244747296Y-85858980D01*
X244702080Y-85847208D01*
X244645802Y-85832812D01*
X244583798Y-85817163D01*
X244557822Y-85810668D01*
X244496522Y-85795333D01*
X244440196Y-85781142D01*
X244393693Y-85769325D01*
X244361859Y-85761109D01*
X244353525Y-85758890D01*
X244317144Y-85748969D01*
X244317144Y-85561430D01*
X244317506Y-85487001D01*
X244319063Y-85432037D01*
X244322526Y-85393618D01*
X244328600Y-85368827D01*
X244337996Y-85354743D01*
X244351422Y-85348449D01*
X244369180Y-85347025D01*
X244389347Y-85349828D01*
X244426309Y-85357450D01*
X244475410Y-85368708D01*
X244531993Y-85382423D01*
X244591401Y-85397412D01*
X244648977Y-85412494D01*
X244700065Y-85426488D01*
X244740009Y-85438212D01*
X244764150Y-85446485D01*
X244767565Y-85448090D01*
X244794922Y-85457127D01*
X244812342Y-85458997D01*
X244833837Y-85461873D01*
X244870696Y-85469574D01*
X244916762Y-85480746D01*
X244944028Y-85487944D01*
X245004408Y-85504084D01*
X245067495Y-85520471D01*
X245129211Y-85536100D01*
X245185475Y-85549964D01*
X245232208Y-85561057D01*
X245265328Y-85568374D01*
X245280572Y-85570912D01*
X245283736Y-85560076D01*
X245286433Y-85528996D01*
X245288584Y-85479814D01*
X245290109Y-85414669D01*
X245290930Y-85335705D01*
X245291053Y-85287191D01*
X245291136Y-85199987D01*
X245291520Y-85132416D01*
X245292408Y-85081724D01*
X245294004Y-85045153D01*
X245296510Y-85019950D01*
X245300130Y-85003359D01*
X245305068Y-84992625D01*
X245311525Y-84984992D01*
X245313472Y-84983181D01*
X245330297Y-84971088D01*
X245348682Y-84968768D01*
X245377653Y-84975423D01*
G37*
G36*
X244521865Y-87570324D02*
G01*
X244545508Y-87594188D01*
X244553811Y-87603010D01*
X244587151Y-87639453D01*
X244606434Y-87664540D01*
X244613403Y-87682773D01*
X244609804Y-87698656D01*
X244597703Y-87716284D01*
X244567433Y-87770401D01*
X244556785Y-87827460D01*
X244563631Y-87885094D01*
X244585845Y-87940936D01*
X244621297Y-87992617D01*
X244667860Y-88037772D01*
X244723407Y-88074031D01*
X244785810Y-88099028D01*
X244852940Y-88110396D01*
X244922671Y-88105766D01*
X244943466Y-88100988D01*
X244997340Y-88077149D01*
X245034849Y-88038317D01*
X245056127Y-87988317D01*
X245061453Y-87929773D01*
X245049474Y-87867588D01*
X245021851Y-87810015D01*
X245019525Y-87806588D01*
X245006491Y-87780572D01*
X245004062Y-87759540D01*
X245004423Y-87758431D01*
X245004987Y-87747207D01*
X244999871Y-87748294D01*
X244989623Y-87747888D01*
X244988805Y-87744328D01*
X244997237Y-87732565D01*
X245019146Y-87712909D01*
X245044323Y-87693638D01*
X245075729Y-87671736D01*
X245080057Y-87669854D01*
X245089555Y-87669854D01*
X245095152Y-87675452D01*
X245100749Y-87669854D01*
X245095152Y-87664257D01*
X245089555Y-87669854D01*
X245080057Y-87669854D01*
X245095745Y-87663032D01*
X245111408Y-87668010D01*
X245129756Y-87687154D01*
X245140543Y-87700250D01*
X245160218Y-87731132D01*
X245181936Y-87775738D01*
X245202331Y-87826067D01*
X245218040Y-87874117D01*
X245223730Y-87898068D01*
X245230145Y-87934341D01*
X245232933Y-87961617D01*
X245232088Y-87988661D01*
X245227604Y-88024236D01*
X245223606Y-88050463D01*
X245214171Y-88095074D01*
X245201101Y-88136471D01*
X245186580Y-88169242D01*
X245172794Y-88187975D01*
X245167104Y-88190392D01*
X245159727Y-88196392D01*
X245160854Y-88199218D01*
X245157479Y-88213136D01*
X245139349Y-88234319D01*
X245111085Y-88258814D01*
X245095152Y-88270064D01*
X245077306Y-88282665D01*
X245042632Y-88301918D01*
X245038916Y-88303606D01*
X244982466Y-88319151D01*
X244913216Y-88323946D01*
X244837517Y-88318834D01*
X244792904Y-88310493D01*
X244761720Y-88304663D01*
X244692175Y-88282277D01*
X244635235Y-88252521D01*
X244630586Y-88249251D01*
X244586804Y-88213014D01*
X244569017Y-88195481D01*
X244540242Y-88167118D01*
X244506241Y-88128823D01*
X244787307Y-88128823D01*
X244792904Y-88134420D01*
X244798501Y-88128823D01*
X244792904Y-88123226D01*
X244787307Y-88128823D01*
X244506241Y-88128823D01*
X244496131Y-88117436D01*
X244459703Y-88069837D01*
X244437059Y-88032067D01*
X244415021Y-87972102D01*
X244563420Y-87972102D01*
X244569017Y-87977699D01*
X244574614Y-87972102D01*
X244569017Y-87966505D01*
X244563420Y-87972102D01*
X244415021Y-87972102D01*
X244403946Y-87941968D01*
X244388494Y-87851387D01*
X244391507Y-87765627D01*
X244394250Y-87750234D01*
X244413712Y-87683414D01*
X244442082Y-87623609D01*
X244475902Y-87577816D01*
X244482686Y-87571253D01*
X244495561Y-87561137D01*
X244506918Y-87560067D01*
X244521865Y-87570324D01*
G37*
G36*
X244375103Y-86068778D02*
G01*
X244397388Y-86074720D01*
X244417893Y-86078829D01*
X244453210Y-86086019D01*
X244499235Y-86096881D01*
X244549585Y-86109728D01*
X244597876Y-86122871D01*
X244637724Y-86134625D01*
X244662746Y-86143302D01*
X244664169Y-86143927D01*
X244696769Y-86154765D01*
X244720141Y-86158865D01*
X244746743Y-86162959D01*
X244781929Y-86170843D01*
X244818292Y-86180526D01*
X244848430Y-86190019D01*
X244864938Y-86197331D01*
X244865667Y-86197985D01*
X244879975Y-86203150D01*
X244899250Y-86205406D01*
X244930292Y-86209498D01*
X244971883Y-86218105D01*
X245013310Y-86228733D01*
X245043858Y-86238888D01*
X245044777Y-86239282D01*
X245071592Y-86247265D01*
X245079878Y-86248588D01*
X245111903Y-86254386D01*
X245151926Y-86264721D01*
X245193294Y-86277468D01*
X245229356Y-86290499D01*
X245253460Y-86301689D01*
X245258851Y-86305807D01*
X245279691Y-86318271D01*
X245295530Y-86320934D01*
X245328469Y-86330022D01*
X245372339Y-86357555D01*
X245386205Y-86368241D01*
X245402380Y-86380727D01*
X245426659Y-86399108D01*
X245428864Y-86400764D01*
X245448739Y-86420842D01*
X245454827Y-86438295D01*
X245454403Y-86439823D01*
X245457476Y-86452809D01*
X245468622Y-86455266D01*
X245487523Y-86464438D01*
X245504170Y-86486051D01*
X245520243Y-86514521D01*
X245533956Y-86534407D01*
X245544972Y-86553488D01*
X245558201Y-86584004D01*
X245571338Y-86619370D01*
X245582079Y-86652999D01*
X245588118Y-86678305D01*
X245587830Y-86688356D01*
X245589307Y-86700170D01*
X245596196Y-86710628D01*
X245601936Y-86728670D01*
X245606573Y-86764845D01*
X245610073Y-86814924D01*
X245612400Y-86874678D01*
X245613517Y-86939877D01*
X245613390Y-87006290D01*
X245611983Y-87069689D01*
X245609260Y-87125843D01*
X245605186Y-87170524D01*
X245600295Y-87197574D01*
X245590566Y-87230357D01*
X245580376Y-87252350D01*
X245565888Y-87264547D01*
X245543262Y-87267943D01*
X245508660Y-87263532D01*
X245458242Y-87252307D01*
X245422498Y-87243618D01*
X245285456Y-87210126D01*
X245282065Y-87163987D01*
X245284331Y-87122082D01*
X245294352Y-87080592D01*
X245296058Y-87076244D01*
X245306403Y-87036487D01*
X245312064Y-86983464D01*
X245312881Y-86925836D01*
X245308692Y-86872263D01*
X245300535Y-86834747D01*
X245287690Y-86802498D01*
X245271317Y-86774645D01*
X245249245Y-86750122D01*
X245219304Y-86727864D01*
X245179324Y-86706806D01*
X245127134Y-86685882D01*
X245060565Y-86664028D01*
X244977447Y-86640177D01*
X244875609Y-86613265D01*
X244820890Y-86599314D01*
X244766934Y-86585683D01*
X244729710Y-86576396D01*
X244704242Y-86570310D01*
X244685556Y-86566281D01*
X244668677Y-86563165D01*
X244650176Y-86560075D01*
X244608197Y-86553154D01*
X244608197Y-86632285D01*
X244606751Y-86672341D01*
X244602947Y-86702988D01*
X244597589Y-86717930D01*
X244597233Y-86718192D01*
X244579896Y-86719310D01*
X244547059Y-86713828D01*
X244504239Y-86702857D01*
X244473865Y-86693374D01*
X244451763Y-86688486D01*
X244420035Y-86683989D01*
X244416123Y-86683572D01*
X244379446Y-86677538D01*
X244347141Y-86668718D01*
X244346158Y-86668350D01*
X244317144Y-86657319D01*
X244317144Y-86371980D01*
X244317226Y-86284572D01*
X244317601Y-86216892D01*
X244318463Y-86166281D01*
X244320005Y-86130079D01*
X244322421Y-86105625D01*
X244325902Y-86090259D01*
X244330644Y-86081321D01*
X244336839Y-86076152D01*
X244338722Y-86075092D01*
X244362584Y-86067888D01*
X244375103Y-86068778D01*
G37*
G36*
X244421493Y-80595021D02*
G01*
X244451866Y-80600910D01*
X244494258Y-80610727D01*
X244543954Y-80623226D01*
X244596240Y-80637161D01*
X244646400Y-80651287D01*
X244689719Y-80664357D01*
X244721483Y-80675125D01*
X244734134Y-80680527D01*
X244752070Y-80701227D01*
X244752556Y-80733488D01*
X244735996Y-80775367D01*
X244704562Y-80822651D01*
X244658360Y-80887434D01*
X244625518Y-80944744D01*
X244609138Y-80986822D01*
X244606660Y-81007285D01*
X244604806Y-81044046D01*
X244603819Y-81091018D01*
X244603743Y-81121155D01*
X244604650Y-81175332D01*
X244607692Y-81214336D01*
X244614216Y-81245366D01*
X244625565Y-81275622D01*
X244637229Y-81300459D01*
X244688002Y-81379491D01*
X244755110Y-81444423D01*
X244836654Y-81494143D01*
X244930730Y-81527535D01*
X245035437Y-81543488D01*
X245053764Y-81544372D01*
X245137548Y-81541425D01*
X245203656Y-81525417D01*
X245253449Y-81495063D01*
X245288292Y-81449081D01*
X245309547Y-81386185D01*
X245318578Y-81305092D01*
X245318891Y-81294696D01*
X245318872Y-81249032D01*
X245316890Y-81210844D01*
X245313342Y-81186543D01*
X245311929Y-81182723D01*
X245303818Y-81162204D01*
X245292926Y-81127607D01*
X245281559Y-81086659D01*
X245273549Y-81053988D01*
X245266662Y-81039160D01*
X245251381Y-81011660D01*
X245231398Y-80977662D01*
X245210407Y-80943339D01*
X245192100Y-80914866D01*
X245181269Y-80899706D01*
X245172924Y-80876418D01*
X245172829Y-80844762D01*
X245179920Y-80815125D01*
X245191610Y-80798737D01*
X245208052Y-80795796D01*
X245239451Y-80799417D01*
X245287938Y-80809964D01*
X245345244Y-80824936D01*
X245396692Y-80839673D01*
X245439230Y-80853106D01*
X245468767Y-80863852D01*
X245481207Y-80870526D01*
X245481357Y-80870980D01*
X245489526Y-80875624D01*
X245496624Y-80873914D01*
X245508548Y-80878916D01*
X245523179Y-80903183D01*
X245539957Y-80944231D01*
X245565379Y-81017483D01*
X245588022Y-81090668D01*
X245605321Y-81155284D01*
X245610232Y-81177126D01*
X245616507Y-81222956D01*
X245620433Y-81283959D01*
X245621996Y-81353040D01*
X245621186Y-81423105D01*
X245617991Y-81487062D01*
X245612399Y-81537815D01*
X245610839Y-81546540D01*
X245590455Y-81632233D01*
X245565245Y-81702892D01*
X245532519Y-81765770D01*
X245525024Y-81777754D01*
X245488863Y-81826234D01*
X245447353Y-81869420D01*
X245404630Y-81904042D01*
X245364832Y-81926826D01*
X245332098Y-81934500D01*
X245327435Y-81934050D01*
X245314542Y-81938285D01*
X245313442Y-81942120D01*
X245302989Y-81953636D01*
X245274338Y-81962743D01*
X245231553Y-81969431D01*
X245178694Y-81973688D01*
X245119825Y-81975503D01*
X245059007Y-81974867D01*
X245000303Y-81971768D01*
X244947776Y-81966195D01*
X244905488Y-81958138D01*
X244877500Y-81947586D01*
X244871824Y-81943291D01*
X244852274Y-81934177D01*
X244840412Y-81932746D01*
X244814440Y-81926998D01*
X244777429Y-81911584D01*
X244733863Y-81889249D01*
X244688224Y-81862738D01*
X244644997Y-81834796D01*
X244608664Y-81808167D01*
X244583710Y-81785597D01*
X244574614Y-81770019D01*
X244565755Y-81755926D01*
X244547897Y-81743120D01*
X244528987Y-81727627D01*
X244503399Y-81699913D01*
X244475186Y-81665296D01*
X244448398Y-81629092D01*
X244427086Y-81596618D01*
X244415301Y-81573190D01*
X244414162Y-81567604D01*
X244409035Y-81553560D01*
X244405357Y-81552137D01*
X244395585Y-81542686D01*
X244382559Y-81519381D01*
X244369509Y-81489797D01*
X244359668Y-81461510D01*
X244356267Y-81442094D01*
X244357076Y-81438977D01*
X244355869Y-81429531D01*
X244352863Y-81428999D01*
X244344614Y-81419130D01*
X244333160Y-81393320D01*
X244321572Y-81359035D01*
X244312766Y-81315702D01*
X244306163Y-81255461D01*
X244301824Y-81183689D01*
X244299808Y-81105765D01*
X244300176Y-81027065D01*
X244302986Y-80952968D01*
X244308299Y-80888851D01*
X244315820Y-80841636D01*
X244326743Y-80800170D01*
X244341696Y-80752302D01*
X244358783Y-80703123D01*
X244376109Y-80657726D01*
X244391779Y-80621203D01*
X244403899Y-80598648D01*
X244407854Y-80594306D01*
X244421493Y-80595021D01*
G37*
G36*
X244459146Y-83396090D02*
G01*
X244470337Y-83400236D01*
X244501306Y-83410916D01*
X244524239Y-83417162D01*
X244544731Y-83421941D01*
X244580626Y-83430750D01*
X244625647Y-83442040D01*
X244647377Y-83447559D01*
X244748127Y-83473255D01*
X244751466Y-83512328D01*
X244750713Y-83535944D01*
X244742471Y-83560483D01*
X244724184Y-83591537D01*
X244699000Y-83627000D01*
X244656630Y-83688865D01*
X244628363Y-83743305D01*
X244611666Y-83797874D01*
X244604005Y-83860125D01*
X244602660Y-83914147D01*
X244603539Y-83968046D01*
X244607066Y-84007492D01*
X244614689Y-84040392D01*
X244627854Y-84074648D01*
X244634895Y-84090283D01*
X244682850Y-84168389D01*
X244747541Y-84233853D01*
X244826281Y-84285164D01*
X244916379Y-84320811D01*
X245015148Y-84339283D01*
X245081815Y-84341390D01*
X245158416Y-84332785D01*
X245221072Y-84312198D01*
X245260783Y-84286160D01*
X245290276Y-84245779D01*
X245309953Y-84189381D01*
X245318942Y-84121470D01*
X245316368Y-84046555D01*
X245312523Y-84019216D01*
X245305611Y-83978030D01*
X245300036Y-83944280D01*
X245297015Y-83925341D01*
X245291301Y-83906791D01*
X245278904Y-83875275D01*
X245264808Y-83842789D01*
X245249425Y-83807336D01*
X245238684Y-83779861D01*
X245235081Y-83767227D01*
X245226624Y-83757609D01*
X245224611Y-83757426D01*
X245214384Y-83747961D01*
X245202397Y-83724567D01*
X245199974Y-83718246D01*
X245188807Y-83692817D01*
X245179149Y-83679595D01*
X245177615Y-83679065D01*
X245168160Y-83669842D01*
X245162063Y-83655875D01*
X245163848Y-83629698D01*
X245179806Y-83604808D01*
X245203229Y-83590410D01*
X245210446Y-83589511D01*
X245230271Y-83592528D01*
X245265409Y-83600589D01*
X245310569Y-83612202D01*
X245360462Y-83625881D01*
X245409799Y-83640134D01*
X245453290Y-83653475D01*
X245485645Y-83664412D01*
X245501575Y-83671458D01*
X245501594Y-83671472D01*
X245516761Y-83691218D01*
X245533237Y-83724107D01*
X245547125Y-83761506D01*
X245553252Y-83785920D01*
X245562629Y-83817391D01*
X245570510Y-83835036D01*
X245577691Y-83857749D01*
X245576041Y-83870127D01*
X245576345Y-83886132D01*
X245585011Y-83914173D01*
X245592771Y-83932312D01*
X245605048Y-83964877D01*
X245613803Y-84005094D01*
X245619951Y-84058290D01*
X245623455Y-84110896D01*
X245625478Y-84164173D01*
X245625402Y-84205677D01*
X245623322Y-84231666D01*
X245620200Y-84238776D01*
X245615001Y-84248763D01*
X245613089Y-84274191D01*
X245613716Y-84291950D01*
X245609588Y-84357908D01*
X245590872Y-84431879D01*
X245560315Y-84507707D01*
X245520667Y-84579238D01*
X245474675Y-84640319D01*
X245445152Y-84669413D01*
X245404986Y-84699466D01*
X245361737Y-84724939D01*
X245321221Y-84743010D01*
X245289254Y-84750858D01*
X245278689Y-84750175D01*
X245259985Y-84751536D01*
X245254287Y-84757711D01*
X245240698Y-84766101D01*
X245209473Y-84771771D01*
X245165196Y-84774754D01*
X245112450Y-84775083D01*
X245055819Y-84772790D01*
X244999887Y-84767908D01*
X244949237Y-84760468D01*
X244925617Y-84755380D01*
X244871542Y-84740066D01*
X244817518Y-84721577D01*
X244767780Y-84701746D01*
X244726560Y-84682406D01*
X244698094Y-84665394D01*
X244686616Y-84652543D01*
X244686558Y-84651811D01*
X244682220Y-84643632D01*
X244679148Y-84645458D01*
X244666586Y-84643945D01*
X244643461Y-84631526D01*
X244631572Y-84623331D01*
X244540661Y-84543245D01*
X244460956Y-84446287D01*
X244394560Y-84336040D01*
X244356324Y-84246083D01*
X244343574Y-84216086D01*
X244310100Y-84090008D01*
X244306478Y-84069307D01*
X244302305Y-84033630D01*
X244298994Y-83986244D01*
X244296613Y-83931895D01*
X244295225Y-83875328D01*
X244294898Y-83821286D01*
X244295696Y-83774515D01*
X244297686Y-83739761D01*
X244300933Y-83721766D01*
X244301647Y-83720682D01*
X244306916Y-83705958D01*
X244311208Y-83678291D01*
X244311840Y-83671241D01*
X244317560Y-83638409D01*
X244329569Y-83591920D01*
X244338772Y-83561525D01*
X244350727Y-83561525D01*
X244356324Y-83567122D01*
X244361921Y-83561525D01*
X244356324Y-83555928D01*
X244350727Y-83561525D01*
X244338772Y-83561525D01*
X244345645Y-83538826D01*
X244363567Y-83486177D01*
X244381111Y-83441025D01*
X244391384Y-83418797D01*
X244407440Y-83396167D01*
X244427921Y-83389094D01*
X244459146Y-83396090D01*
G37*
G36*
X244742518Y-82039739D02*
G01*
X244782512Y-82042370D01*
X244812941Y-82048017D01*
X244840205Y-82057713D01*
X244860070Y-82067078D01*
X244895018Y-82084770D01*
X244918705Y-82098139D01*
X244939413Y-82112629D01*
X244965422Y-82133686D01*
X244980410Y-82146209D01*
X245005075Y-82170323D01*
X245020170Y-82191773D01*
X245022388Y-82199415D01*
X245030330Y-82219009D01*
X245049395Y-82240695D01*
X245071748Y-82267843D01*
X245097076Y-82311182D01*
X245122884Y-82365192D01*
X245146671Y-82424356D01*
X245165941Y-82483155D01*
X245174590Y-82517308D01*
X245181723Y-82560173D01*
X245188359Y-82618106D01*
X245193794Y-82683788D01*
X245197324Y-82749899D01*
X245197521Y-82755531D01*
X245200882Y-82827263D01*
X245205493Y-82880478D01*
X245211201Y-82913774D01*
X245216115Y-82924836D01*
X245232308Y-82932745D01*
X245264859Y-82943680D01*
X245308253Y-82955893D01*
X245335830Y-82962782D01*
X245384136Y-82974896D01*
X245425969Y-82986467D01*
X245455286Y-82995773D01*
X245463816Y-82999264D01*
X245489421Y-83007553D01*
X245523549Y-83013175D01*
X245528053Y-83013562D01*
X245555562Y-83016773D01*
X245575540Y-83023791D01*
X245589166Y-83037774D01*
X245597620Y-83061883D01*
X245602081Y-83099277D01*
X245603727Y-83153116D01*
X245603785Y-83216499D01*
X245602868Y-83277155D01*
X245600826Y-83331460D01*
X245597928Y-83374693D01*
X245594441Y-83402133D01*
X245592952Y-83407602D01*
X245574516Y-83428632D01*
X245553826Y-83432790D01*
X245532923Y-83430126D01*
X245496357Y-83422986D01*
X245449388Y-83412646D01*
X245397273Y-83400382D01*
X245345271Y-83387471D01*
X245298640Y-83375189D01*
X245262638Y-83364811D01*
X245242523Y-83357616D01*
X245241245Y-83356917D01*
X245221617Y-83350350D01*
X245201526Y-83347204D01*
X245182361Y-83343670D01*
X245145364Y-83335275D01*
X245139929Y-83333961D01*
X245094334Y-83322937D01*
X245033067Y-83307579D01*
X244965361Y-83290122D01*
X244955222Y-83287468D01*
X244892456Y-83271073D01*
X244886891Y-83269619D01*
X244824474Y-83253455D01*
X244771770Y-83239948D01*
X244732575Y-83230071D01*
X244710685Y-83224794D01*
X244709185Y-83224471D01*
X244685433Y-83216122D01*
X244674707Y-83207840D01*
X244659900Y-83201251D01*
X244652080Y-83202637D01*
X244636035Y-83201897D01*
X244602750Y-83195996D01*
X244556537Y-83185836D01*
X244501707Y-83172321D01*
X244479462Y-83166480D01*
X244322741Y-83124637D01*
X244319411Y-82788960D01*
X244318799Y-82677088D01*
X244608197Y-82677088D01*
X244608506Y-82723533D01*
X244610383Y-82752609D01*
X244615252Y-82769337D01*
X244624539Y-82778736D01*
X244638982Y-82785544D01*
X244672260Y-82796706D01*
X244697752Y-82802546D01*
X244722428Y-82807671D01*
X244760487Y-82816987D01*
X244803796Y-82828500D01*
X244804812Y-82828781D01*
X244844485Y-82839466D01*
X244875528Y-82847264D01*
X244891825Y-82850646D01*
X244892456Y-82850683D01*
X244895614Y-82840251D01*
X244897624Y-82811963D01*
X244898297Y-82770332D01*
X244897667Y-82727545D01*
X244895522Y-82678062D01*
X244892274Y-82638073D01*
X244888390Y-82612096D01*
X244884924Y-82604407D01*
X244880207Y-82597592D01*
X244881618Y-82594573D01*
X244877775Y-82581926D01*
X244861702Y-82558797D01*
X244840300Y-82533974D01*
X244792171Y-82493048D01*
X244744379Y-82474184D01*
X244696021Y-82477088D01*
X244680844Y-82482334D01*
X244654270Y-82491150D01*
X244636457Y-82493399D01*
X244636183Y-82493338D01*
X244630562Y-82495657D01*
X244632432Y-82498041D01*
X244633416Y-82512213D01*
X244626319Y-82537645D01*
X244624036Y-82543392D01*
X244615467Y-82576876D01*
X244609926Y-82625805D01*
X244608197Y-82677088D01*
X244318799Y-82677088D01*
X244318784Y-82674384D01*
X244319308Y-82576079D01*
X244320950Y-82495477D01*
X244322325Y-82464478D01*
X245134332Y-82464478D01*
X245139929Y-82470075D01*
X245145526Y-82464478D01*
X245139929Y-82458880D01*
X245134332Y-82464478D01*
X244322325Y-82464478D01*
X244323676Y-82434010D01*
X244327455Y-82393110D01*
X244328588Y-82386117D01*
X244351757Y-82290938D01*
X244382977Y-82213925D01*
X244423662Y-82151865D01*
X244439421Y-82134103D01*
X244479707Y-82094621D01*
X244515794Y-82067723D01*
X244553728Y-82051083D01*
X244599559Y-82042378D01*
X244659334Y-82039282D01*
X244686558Y-82039092D01*
X244742518Y-82039739D01*
G37*
G36*
X244683326Y-79274911D02*
G01*
X244759145Y-79298168D01*
X244824671Y-79339912D01*
X244877393Y-79398786D01*
X244896895Y-79431717D01*
X244918018Y-79472891D01*
X244943596Y-79431505D01*
X244987718Y-79380482D01*
X245045884Y-79343879D01*
X245113693Y-79323422D01*
X245186745Y-79320838D01*
X245215113Y-79324930D01*
X245251181Y-79334363D01*
X245291031Y-79348379D01*
X245329530Y-79364641D01*
X245361548Y-79380812D01*
X245381953Y-79394553D01*
X245386186Y-79402852D01*
X245391279Y-79412631D01*
X245407921Y-79422866D01*
X245429389Y-79438904D01*
X245455051Y-79466591D01*
X245469305Y-79485532D01*
X245489483Y-79517630D01*
X245509340Y-79553732D01*
X245526468Y-79588730D01*
X245538456Y-79617513D01*
X245542896Y-79634974D01*
X245541158Y-79637902D01*
X245541145Y-79644697D01*
X245546152Y-79651895D01*
X245553776Y-79668935D01*
X245563698Y-79701684D01*
X245574068Y-79743847D01*
X245576582Y-79755443D01*
X245582335Y-79787890D01*
X245587125Y-79827323D01*
X245591091Y-79876327D01*
X245594375Y-79937488D01*
X245597115Y-80013392D01*
X245599452Y-80106625D01*
X245601439Y-80214411D01*
X245603028Y-80315186D01*
X245604107Y-80395998D01*
X245604576Y-80459270D01*
X245604335Y-80507424D01*
X245603282Y-80542882D01*
X245601316Y-80568068D01*
X245598337Y-80585403D01*
X245594244Y-80597310D01*
X245588937Y-80606211D01*
X245584916Y-80611376D01*
X245562401Y-80638926D01*
X245474303Y-80618412D01*
X245431377Y-80607560D01*
X245396404Y-80597147D01*
X245375600Y-80589065D01*
X245373390Y-80587670D01*
X245355949Y-80579674D01*
X245351002Y-80579720D01*
X245332784Y-80579398D01*
X245305880Y-80574623D01*
X245289189Y-80570218D01*
X245278960Y-80567518D01*
X245260691Y-80560205D01*
X245257470Y-80556812D01*
X245247632Y-80551360D01*
X245223535Y-80548166D01*
X245219419Y-80548004D01*
X245189048Y-80544198D01*
X245146866Y-80535306D01*
X245104677Y-80524012D01*
X245078801Y-80516513D01*
X245046151Y-80507510D01*
X245004860Y-80496527D01*
X244953061Y-80483087D01*
X244888888Y-80466713D01*
X244810473Y-80446931D01*
X244771964Y-80437288D01*
X244715950Y-80423262D01*
X244603451Y-80395232D01*
X244479462Y-80364438D01*
X244471110Y-80362364D01*
X244468268Y-80361658D01*
X244322741Y-80325558D01*
X244322741Y-80051060D01*
X245067080Y-80051060D01*
X245068884Y-80072820D01*
X245073995Y-80085497D01*
X245083063Y-80093514D01*
X245090715Y-80097949D01*
X245115585Y-80108089D01*
X245131533Y-80109923D01*
X245144377Y-80113924D01*
X245145526Y-80118020D01*
X245155165Y-80125670D01*
X245176365Y-80128080D01*
X245211342Y-80130505D01*
X245235135Y-80135314D01*
X245269254Y-80145148D01*
X245289189Y-80147469D01*
X245299004Y-80138586D01*
X245302765Y-80114805D01*
X245304537Y-80072437D01*
X245304543Y-80072278D01*
X245305825Y-80005304D01*
X245304245Y-79946269D01*
X245300061Y-79900075D01*
X245294077Y-79872984D01*
X245286468Y-79849347D01*
X245284815Y-79842603D01*
X245272472Y-79815855D01*
X245249806Y-79786170D01*
X245224263Y-79762314D01*
X245209603Y-79754071D01*
X245179376Y-79747572D01*
X245151123Y-79745013D01*
X245129239Y-79747241D01*
X245114524Y-79758837D01*
X245100879Y-79785287D01*
X245097612Y-79793163D01*
X245086041Y-79834166D01*
X245076822Y-79892608D01*
X245070787Y-79962606D01*
X245067931Y-80015796D01*
X245067080Y-80051060D01*
X244322741Y-80051060D01*
X244322741Y-79956543D01*
X244322907Y-79875566D01*
X244610579Y-79875566D01*
X244613794Y-79978399D01*
X244658572Y-79991208D01*
X244699603Y-80001848D01*
X244740456Y-80010850D01*
X244744503Y-80011617D01*
X244771964Y-80015060D01*
X244784964Y-80009845D01*
X244790555Y-79993675D01*
X244794560Y-79969283D01*
X244796014Y-79946215D01*
X244794794Y-79917661D01*
X244790778Y-79876809D01*
X244788008Y-79852453D01*
X244774311Y-79785976D01*
X244750816Y-79739455D01*
X244717325Y-79712618D01*
X244679154Y-79705068D01*
X244649718Y-79710599D01*
X244629107Y-79728754D01*
X244616380Y-79761874D01*
X244610594Y-79812301D01*
X244610579Y-79875566D01*
X244322907Y-79875566D01*
X244322964Y-79847589D01*
X244323687Y-79758887D01*
X244324990Y-79688301D01*
X244326951Y-79633700D01*
X244329650Y-79592948D01*
X244333166Y-79563912D01*
X244337579Y-79544459D01*
X244338144Y-79542750D01*
X244352635Y-79503681D01*
X244369391Y-79462963D01*
X244385734Y-79426620D01*
X244398987Y-79400675D01*
X244405333Y-79391626D01*
X244415797Y-79378206D01*
X244424564Y-79363640D01*
X244443718Y-79341251D01*
X244473865Y-79341251D01*
X244479462Y-79346849D01*
X244485059Y-79341251D01*
X244479462Y-79335654D01*
X244473865Y-79341251D01*
X244443718Y-79341251D01*
X244456701Y-79326076D01*
X244505118Y-79296096D01*
X244564190Y-79276661D01*
X244599729Y-79271494D01*
X244683326Y-79274911D01*
G37*
G36*
X245301585Y-87937826D02*
G01*
X245323285Y-87949630D01*
X245347141Y-87964429D01*
X245366937Y-87978264D01*
X245376459Y-87987174D01*
X245375442Y-87988544D01*
X245377429Y-87993098D01*
X245395061Y-88004159D01*
X245405949Y-88009934D01*
X245437939Y-88029550D01*
X245475757Y-88057576D01*
X245514537Y-88089766D01*
X245549412Y-88121877D01*
X245575515Y-88149664D01*
X245587902Y-88168630D01*
X245599469Y-88186426D01*
X245608698Y-88190392D01*
X245622143Y-88198215D01*
X245645834Y-88219048D01*
X245675407Y-88248937D01*
X245685933Y-88260357D01*
X245717145Y-88296232D01*
X245749449Y-88335687D01*
X245780101Y-88375044D01*
X245806355Y-88410622D01*
X245825469Y-88438744D01*
X245834696Y-88455729D01*
X245834159Y-88459057D01*
X245835998Y-88465994D01*
X245849603Y-88482766D01*
X245850335Y-88483556D01*
X245866993Y-88507711D01*
X245873160Y-88527777D01*
X245881254Y-88549527D01*
X245889016Y-88556451D01*
X245899190Y-88568994D01*
X245916255Y-88596626D01*
X245937497Y-88634215D01*
X245960199Y-88676627D01*
X245981647Y-88718730D01*
X245999125Y-88755390D01*
X246009916Y-88781475D01*
X246011934Y-88788794D01*
X246019065Y-88809385D01*
X246020330Y-88811679D01*
X246029947Y-88833085D01*
X246040511Y-88863543D01*
X246049409Y-88894439D01*
X246054029Y-88917164D01*
X246053973Y-88922597D01*
X246058844Y-88937349D01*
X246061389Y-88939388D01*
X246070356Y-88953806D01*
X246081537Y-88983127D01*
X246092862Y-89020278D01*
X246102261Y-89058188D01*
X246107662Y-89089784D01*
X246108241Y-89099418D01*
X246112493Y-89124843D01*
X246119203Y-89137203D01*
X246128449Y-89156717D01*
X246138038Y-89194868D01*
X246147602Y-89247914D01*
X246156770Y-89312113D01*
X246165173Y-89383723D01*
X246172438Y-89459005D01*
X246178198Y-89534215D01*
X246182081Y-89605614D01*
X246183718Y-89669459D01*
X246182737Y-89722010D01*
X246180027Y-89752005D01*
X246155006Y-89895989D01*
X246123255Y-90029480D01*
X246085603Y-90150171D01*
X246042881Y-90255755D01*
X245995918Y-90343924D01*
X245945543Y-90412372D01*
X245940610Y-90417765D01*
X245920025Y-90441636D01*
X245908012Y-90459116D01*
X245906743Y-90462871D01*
X245898855Y-90474621D01*
X245878780Y-90494614D01*
X245864764Y-90506854D01*
X245836447Y-90530591D01*
X245813345Y-90550022D01*
X245806760Y-90555590D01*
X245784985Y-90572297D01*
X245754335Y-90593731D01*
X245720485Y-90616195D01*
X245689108Y-90635994D01*
X245665879Y-90649430D01*
X245657054Y-90653115D01*
X245642228Y-90657439D01*
X245615122Y-90668332D01*
X245600673Y-90674731D01*
X245574563Y-90684188D01*
X245536372Y-90695120D01*
X245491515Y-90706334D01*
X245445407Y-90716635D01*
X245403463Y-90724828D01*
X245371097Y-90729719D01*
X245353725Y-90730113D01*
X245352464Y-90729488D01*
X245359929Y-90723051D01*
X245383076Y-90709048D01*
X245417606Y-90690014D01*
X245434624Y-90681047D01*
X245474717Y-90659163D01*
X245507138Y-90639554D01*
X245526639Y-90625467D01*
X245529489Y-90622367D01*
X245543590Y-90609643D01*
X245548631Y-90608374D01*
X245560978Y-90600749D01*
X245583214Y-90580838D01*
X245608380Y-90555200D01*
X245637823Y-90522510D01*
X245668771Y-90486372D01*
X245698119Y-90450664D01*
X245722762Y-90419268D01*
X245739594Y-90396064D01*
X245745511Y-90384931D01*
X245744994Y-90384486D01*
X245746866Y-90375317D01*
X245756855Y-90351047D01*
X245772927Y-90316529D01*
X245776642Y-90308924D01*
X245796587Y-90262038D01*
X245816997Y-90203629D01*
X245834301Y-90144197D01*
X245838520Y-90127016D01*
X245846604Y-90085748D01*
X245854416Y-90034508D01*
X245861585Y-89977474D01*
X245867743Y-89918821D01*
X245872522Y-89862726D01*
X245875553Y-89813365D01*
X245876466Y-89774914D01*
X245874894Y-89751550D01*
X245872134Y-89746408D01*
X245868448Y-89736042D01*
X245864173Y-89708191D01*
X245859966Y-89667721D01*
X245857846Y-89640793D01*
X245849354Y-89561371D01*
X245835121Y-89473691D01*
X245816582Y-89384163D01*
X245795172Y-89299198D01*
X245772328Y-89225205D01*
X245754513Y-89179401D01*
X245743892Y-89153335D01*
X245738885Y-89136755D01*
X245738827Y-89135922D01*
X245733768Y-89121428D01*
X245720287Y-89092321D01*
X245700928Y-89053510D01*
X245678235Y-89009900D01*
X245654751Y-88966398D01*
X245633020Y-88927912D01*
X245618639Y-88904083D01*
X245562840Y-88825159D01*
X245497581Y-88747466D01*
X245429653Y-88678746D01*
X245393692Y-88647641D01*
X245356932Y-88617970D01*
X245324914Y-88592011D01*
X245303191Y-88574268D01*
X245299619Y-88571311D01*
X245293766Y-88564815D01*
X245289188Y-88554534D01*
X245285732Y-88537906D01*
X245283244Y-88512367D01*
X245281567Y-88475355D01*
X245280548Y-88424308D01*
X245280032Y-88356663D01*
X245279864Y-88269857D01*
X245279859Y-88243876D01*
X245280148Y-88163057D01*
X245280965Y-88090060D01*
X245282233Y-88027728D01*
X245283875Y-87978903D01*
X245285815Y-87946429D01*
X245287975Y-87933148D01*
X245288254Y-87932979D01*
X245301585Y-87937826D01*
G37*
G36*
X244823567Y-89059901D02*
G01*
X244859611Y-89065558D01*
X244893721Y-89077936D01*
X244930240Y-89096373D01*
X244970746Y-89121326D01*
X245009125Y-89150474D01*
X245041572Y-89180177D01*
X245064278Y-89206797D01*
X245073438Y-89226693D01*
X245072311Y-89232198D01*
X245074033Y-89240337D01*
X245079691Y-89240141D01*
X245091826Y-89248035D01*
X245106757Y-89272659D01*
X245122476Y-89308874D01*
X245136973Y-89351543D01*
X245148242Y-89395526D01*
X245153718Y-89429501D01*
X245156108Y-89466913D01*
X245152293Y-89490949D01*
X245140338Y-89510208D01*
X245133963Y-89517316D01*
X245107998Y-89544955D01*
X245132359Y-89593735D01*
X245151435Y-89650919D01*
X245153372Y-89707357D01*
X245139010Y-89758123D01*
X245109193Y-89798291D01*
X245095649Y-89808681D01*
X245083957Y-89813204D01*
X245054637Y-89824545D01*
X245001936Y-89829568D01*
X245000080Y-89829382D01*
X244945357Y-89823900D01*
X244892717Y-89807691D01*
X244886251Y-89804661D01*
X244824079Y-89765024D01*
X244768600Y-89712697D01*
X244723194Y-89652388D01*
X244691242Y-89588809D01*
X244676121Y-89526668D01*
X244675363Y-89510755D01*
X244676507Y-89488384D01*
X244677232Y-89485461D01*
X244765055Y-89485461D01*
X244765529Y-89523695D01*
X244778246Y-89566316D01*
X244801678Y-89607342D01*
X244822625Y-89630971D01*
X244860632Y-89658558D01*
X244906639Y-89680441D01*
X244955004Y-89695223D01*
X245000080Y-89701506D01*
X245036225Y-89697892D01*
X245053733Y-89688197D01*
X245060671Y-89673645D01*
X245078360Y-89673645D01*
X245083957Y-89679242D01*
X245089555Y-89673645D01*
X245083957Y-89668047D01*
X245078360Y-89673645D01*
X245060671Y-89673645D01*
X245067041Y-89660285D01*
X245066119Y-89622265D01*
X245051986Y-89580420D01*
X245030784Y-89547070D01*
X244993510Y-89510527D01*
X244948038Y-89480183D01*
X244899214Y-89457755D01*
X244851879Y-89444961D01*
X244810877Y-89443517D01*
X244781050Y-89455139D01*
X244778351Y-89457593D01*
X244765055Y-89485461D01*
X244677232Y-89485461D01*
X244681637Y-89467713D01*
X244693304Y-89441039D01*
X244707934Y-89412349D01*
X244715744Y-89390810D01*
X244708515Y-89376884D01*
X244703452Y-89372857D01*
X244692605Y-89358512D01*
X244688161Y-89332808D01*
X244688723Y-89295810D01*
X244692155Y-89232043D01*
X244792904Y-89277199D01*
X244843156Y-89299890D01*
X244891990Y-89322228D01*
X244931594Y-89340628D01*
X244944028Y-89346527D01*
X244985553Y-89366207D01*
X245011776Y-89377501D01*
X245027494Y-89381887D01*
X245037503Y-89380841D01*
X245044175Y-89377366D01*
X245054246Y-89359288D01*
X245047774Y-89329752D01*
X245025806Y-89291148D01*
X244989391Y-89245869D01*
X244983880Y-89239863D01*
X244953380Y-89209314D01*
X244926737Y-89186612D01*
X244908859Y-89175854D01*
X244906698Y-89175496D01*
X244887839Y-89170185D01*
X244883558Y-89166080D01*
X244868316Y-89159081D01*
X244837761Y-89155192D01*
X244798737Y-89154334D01*
X244758092Y-89156429D01*
X244722673Y-89161398D01*
X244701104Y-89168168D01*
X244652160Y-89205577D01*
X244615042Y-89259114D01*
X244592501Y-89324442D01*
X244589115Y-89344724D01*
X244584687Y-89412279D01*
X244587024Y-89484898D01*
X244595371Y-89554931D01*
X244608975Y-89614728D01*
X244618231Y-89640045D01*
X244630112Y-89668896D01*
X244635927Y-89687130D01*
X244635663Y-89690436D01*
X244637239Y-89697774D01*
X244652368Y-89717846D01*
X244678586Y-89747743D01*
X244713430Y-89784556D01*
X244726904Y-89798230D01*
X244793652Y-89854026D01*
X244865188Y-89893885D01*
X244938385Y-89917393D01*
X245010118Y-89924134D01*
X245077259Y-89913691D01*
X245136684Y-89885650D01*
X245170263Y-89857191D01*
X245208834Y-89801924D01*
X245236486Y-89731480D01*
X245253113Y-89650286D01*
X245258611Y-89562769D01*
X245252874Y-89473356D01*
X245235797Y-89386475D01*
X245207276Y-89306551D01*
X245184371Y-89263363D01*
X245160318Y-89219185D01*
X245148426Y-89181896D01*
X245145526Y-89146349D01*
X245145526Y-89092591D01*
X245189146Y-89135185D01*
X245242027Y-89200181D01*
X245286778Y-89282746D01*
X245315203Y-89358760D01*
X245327606Y-89413533D01*
X245336572Y-89482360D01*
X245341628Y-89557104D01*
X245342300Y-89629627D01*
X245338118Y-89691793D01*
X245335538Y-89708944D01*
X245309760Y-89807368D01*
X245271143Y-89887668D01*
X245227843Y-89942182D01*
X245192362Y-89974416D01*
X245164402Y-89991029D01*
X245138760Y-89994824D01*
X245131533Y-89994009D01*
X245123517Y-90001275D01*
X245123138Y-90004811D01*
X245115145Y-90012948D01*
X245109145Y-90012016D01*
X245088427Y-90011805D01*
X245069053Y-90016749D01*
X245034341Y-90021473D01*
X244985721Y-90017660D01*
X244929254Y-90006897D01*
X244871000Y-89990776D01*
X244817018Y-89970886D01*
X244773369Y-89948818D01*
X244753226Y-89933889D01*
X244732614Y-89917381D01*
X244718948Y-89911145D01*
X244718356Y-89911259D01*
X244704814Y-89905064D01*
X244682849Y-89883886D01*
X244655690Y-89851862D01*
X244626564Y-89813126D01*
X244598698Y-89771816D01*
X244575320Y-89732068D01*
X244569161Y-89720042D01*
X244535014Y-89642698D01*
X244513573Y-89572949D01*
X244502854Y-89501597D01*
X244500874Y-89419444D01*
X244501227Y-89404980D01*
X244507134Y-89321141D01*
X244520274Y-89254431D01*
X244542071Y-89200355D01*
X244573948Y-89154419D01*
X244584164Y-89143149D01*
X244625699Y-89102711D01*
X244661933Y-89077378D01*
X244700317Y-89063851D01*
X244748302Y-89058831D01*
X244775395Y-89058470D01*
X244823567Y-89059901D01*
G37*
D12*
%TO.C,J4*%
X233550000Y-100020000D02*
X233550000Y-107700000D01*
X233550000Y-100020000D02*
X236210000Y-100020000D01*
X233550000Y-107700000D02*
X236210000Y-107700000D01*
X234880000Y-97420000D02*
X236210000Y-97420000D01*
X236210000Y-97420000D02*
X236210000Y-98750000D01*
X236210000Y-100020000D02*
X236210000Y-107700000D01*
%TO.C,J2*%
X207150000Y-65750000D02*
X207150000Y-67000000D01*
X207440000Y-66040000D02*
X207440000Y-72010000D01*
X207440000Y-72010000D02*
X215060000Y-72010000D01*
X207450000Y-66050000D02*
X207450000Y-66800000D01*
X207450000Y-66800000D02*
X209250000Y-66800000D01*
X207450000Y-68300000D02*
X208200000Y-68300000D01*
X208200000Y-68300000D02*
X208200000Y-71250000D01*
X208200000Y-71250000D02*
X211250000Y-71250000D01*
X208400000Y-65750000D02*
X207150000Y-65750000D01*
X209250000Y-66050000D02*
X207450000Y-66050000D01*
X209250000Y-66800000D02*
X209250000Y-66050000D01*
X210750000Y-66050000D02*
X210750000Y-66800000D01*
X210750000Y-66800000D02*
X211750000Y-66800000D01*
X211750000Y-66050000D02*
X210750000Y-66050000D01*
X211750000Y-66800000D02*
X211750000Y-66050000D01*
X213250000Y-66050000D02*
X213250000Y-66800000D01*
X213250000Y-66800000D02*
X215050000Y-66800000D01*
X214300000Y-68300000D02*
X214300000Y-71250000D01*
X214300000Y-71250000D02*
X211250000Y-71250000D01*
X215050000Y-66050000D02*
X213250000Y-66050000D01*
X215050000Y-66800000D02*
X215050000Y-66050000D01*
X215050000Y-68300000D02*
X214300000Y-68300000D01*
X215060000Y-66040000D02*
X207440000Y-66040000D01*
X215060000Y-72010000D02*
X215060000Y-66040000D01*
%TO.C,J8*%
X241170000Y-100020000D02*
X241170000Y-107700000D01*
X241170000Y-100020000D02*
X243830000Y-100020000D01*
X241170000Y-107700000D02*
X243830000Y-107700000D01*
X242500000Y-97420000D02*
X243830000Y-97420000D01*
X243830000Y-97420000D02*
X243830000Y-98750000D01*
X243830000Y-100020000D02*
X243830000Y-107700000D01*
%TO.C,J1*%
X189710000Y-124710000D02*
X210290000Y-124710000D01*
X189710000Y-133830000D02*
X189710000Y-124710000D01*
X191010000Y-126020000D02*
X197950000Y-126020000D01*
X191010000Y-132520000D02*
X191010000Y-126020000D01*
X197950000Y-126020000D02*
X197950000Y-124710000D01*
X197950000Y-126020000D02*
X197950000Y-126020000D01*
X202050000Y-124710000D02*
X202050000Y-126020000D01*
X202050000Y-126020000D02*
X208990000Y-126020000D01*
X204580000Y-123320000D02*
X205080000Y-124320000D01*
X205080000Y-124320000D02*
X205580000Y-123320000D01*
X205580000Y-123320000D02*
X204580000Y-123320000D01*
X208990000Y-126020000D02*
X208990000Y-132520000D01*
X208990000Y-132520000D02*
X191010000Y-132520000D01*
X210290000Y-124710000D02*
X210290000Y-133830000D01*
X210290000Y-133830000D02*
X189710000Y-133830000D01*
%TO.C,J6*%
X162150000Y-65750000D02*
X162150000Y-67000000D01*
X162440000Y-66040000D02*
X162440000Y-72010000D01*
X162440000Y-72010000D02*
X182560000Y-72010000D01*
X162450000Y-66050000D02*
X162450000Y-66800000D01*
X162450000Y-66800000D02*
X164250000Y-66800000D01*
X162450000Y-68300000D02*
X163200000Y-68300000D01*
X163200000Y-68300000D02*
X163200000Y-71250000D01*
X163200000Y-71250000D02*
X172500000Y-71250000D01*
X163400000Y-65750000D02*
X162150000Y-65750000D01*
X164250000Y-66050000D02*
X162450000Y-66050000D01*
X164250000Y-66800000D02*
X164250000Y-66050000D01*
X165750000Y-66050000D02*
X165750000Y-66800000D01*
X165750000Y-66800000D02*
X179250000Y-66800000D01*
X179250000Y-66050000D02*
X165750000Y-66050000D01*
X179250000Y-66800000D02*
X179250000Y-66050000D01*
X180750000Y-66050000D02*
X180750000Y-66800000D01*
X180750000Y-66800000D02*
X182550000Y-66800000D01*
X181800000Y-68300000D02*
X181800000Y-71250000D01*
X181800000Y-71250000D02*
X172500000Y-71250000D01*
X182550000Y-66050000D02*
X180750000Y-66050000D01*
X182550000Y-66800000D02*
X182550000Y-66050000D01*
X182550000Y-68300000D02*
X181800000Y-68300000D01*
X182560000Y-66040000D02*
X162440000Y-66040000D01*
X182560000Y-72010000D02*
X182560000Y-66040000D01*
%TO.C,C1*%
X180770000Y-123000000D02*
G75*
G02*
X174230000Y-123000000I-3270000J0D01*
G01*
X174230000Y-123000000D02*
G75*
G02*
X180770000Y-123000000I3270000J0D01*
G01*
%TO.C,J5*%
X211940000Y-126490000D02*
X211940000Y-132460000D01*
X211940000Y-132460000D02*
X227060000Y-132460000D01*
X211950000Y-130200000D02*
X212700000Y-130200000D01*
X211950000Y-131700000D02*
X211950000Y-132450000D01*
X211950000Y-132450000D02*
X213750000Y-132450000D01*
X212700000Y-127250000D02*
X219500000Y-127250000D01*
X212700000Y-130200000D02*
X212700000Y-127250000D01*
X213750000Y-131700000D02*
X211950000Y-131700000D01*
X213750000Y-132450000D02*
X213750000Y-131700000D01*
X215250000Y-131700000D02*
X215250000Y-132450000D01*
X215250000Y-132450000D02*
X223750000Y-132450000D01*
X223750000Y-131700000D02*
X215250000Y-131700000D01*
X223750000Y-132450000D02*
X223750000Y-131700000D01*
X225250000Y-131700000D02*
X225250000Y-132450000D01*
X225250000Y-132450000D02*
X227050000Y-132450000D01*
X226100000Y-132750000D02*
X227350000Y-132750000D01*
X226300000Y-127250000D02*
X219500000Y-127250000D01*
X226300000Y-130200000D02*
X226300000Y-127250000D01*
X227050000Y-130200000D02*
X226300000Y-130200000D01*
X227050000Y-131700000D02*
X225250000Y-131700000D01*
X227050000Y-132450000D02*
X227050000Y-131700000D01*
X227060000Y-126490000D02*
X211940000Y-126490000D01*
X227060000Y-132460000D02*
X227060000Y-126490000D01*
X227350000Y-132750000D02*
X227350000Y-131500000D01*
D14*
%TO.C,U1*%
X173000000Y-81000000D02*
X227000000Y-81000000D01*
X173000000Y-119000000D02*
X173000000Y-81000000D01*
X173000000Y-119000000D02*
X227000000Y-119000000D01*
X227000000Y-119000000D02*
X227000000Y-81000000D01*
D12*
%TO.C,RV1*%
X218620000Y-65800000D02*
X218620000Y-68830000D01*
X218620000Y-70130000D02*
X218620000Y-73040000D01*
X225460000Y-65800000D02*
X218620000Y-65800000D01*
X225460000Y-65800000D02*
X225460000Y-68830000D01*
X225460000Y-70130000D02*
X225460000Y-73040000D01*
X225460000Y-73040000D02*
X218620000Y-73040000D01*
D15*
%TO.C,S1*%
X230400000Y-115000000D02*
X230400000Y-117000000D01*
X230400000Y-127000000D02*
X230400000Y-125000000D01*
X242400000Y-115000000D02*
X230400000Y-115000000D01*
X242400000Y-117000000D02*
X242400000Y-115000000D01*
X242400000Y-125000000D02*
X242400000Y-127000000D01*
X242400000Y-127000000D02*
X230400000Y-127000000D01*
D16*
X244150000Y-123400000D02*
X244150000Y-123400000D01*
X244150000Y-123600000D02*
X244150000Y-123600000D01*
X244150000Y-123400000D02*
G75*
G02*
X244150000Y-123600000I0J-100000D01*
G01*
X244150000Y-123600000D02*
G75*
G02*
X244150000Y-123400000I0J100000D01*
G01*
%TD*%
M02*
