%TF.GenerationSoftware,KiCad,Pcbnew,8.0.5*%
%TF.CreationDate,2025-12-13T14:06:30+09:00*%
%TF.ProjectId,main__,6d61696e-fa7f-42e6-9b69-6361645f7063,rev?*%
%TF.SameCoordinates,Original*%
%TF.FileFunction,Copper,L1,Top*%
%TF.FilePolarity,Positive*%
%FSLAX46Y46*%
G04 Gerber Fmt 4.6, Leading zero omitted, Abs format (unit mm)*
G04 Created by KiCad (PCBNEW 8.0.5) date 2025-12-13 14:06:30*
%MOMM*%
%LPD*%
G01*
G04 APERTURE LIST*
G04 Aperture macros list*
%AMRoundRect*
0 Rectangle with rounded corners*
0 $1 Rounding radius*
0 $2 $3 $4 $5 $6 $7 $8 $9 X,Y pos of 4 corners*
0 Add a 4 corners polygon primitive as box body*
4,1,4,$2,$3,$4,$5,$6,$7,$8,$9,$2,$3,0*
0 Add four circle primitives for the rounded corners*
1,1,$1+$1,$2,$3*
1,1,$1+$1,$4,$5*
1,1,$1+$1,$6,$7*
1,1,$1+$1,$8,$9*
0 Add four rect primitives between the rounded corners*
20,1,$1+$1,$2,$3,$4,$5,0*
20,1,$1+$1,$4,$5,$6,$7,0*
20,1,$1+$1,$6,$7,$8,$9,0*
20,1,$1+$1,$8,$9,$2,$3,0*%
G04 Aperture macros list end*
%TA.AperFunction,ComponentPad*%
%ADD10RoundRect,0.250000X0.600000X0.725000X-0.600000X0.725000X-0.600000X-0.725000X0.600000X-0.725000X0*%
%TD*%
%TA.AperFunction,ComponentPad*%
%ADD11O,1.700000X1.950000*%
%TD*%
%TA.AperFunction,ComponentPad*%
%ADD12RoundRect,0.250000X-0.600000X-0.725000X0.600000X-0.725000X0.600000X0.725000X-0.600000X0.725000X0*%
%TD*%
%TA.AperFunction,ComponentPad*%
%ADD13R,1.700000X1.700000*%
%TD*%
%TA.AperFunction,ComponentPad*%
%ADD14O,1.700000X1.700000*%
%TD*%
%TA.AperFunction,ComponentPad*%
%ADD15RoundRect,0.250000X-0.600000X-0.750000X0.600000X-0.750000X0.600000X0.750000X-0.600000X0.750000X0*%
%TD*%
%TA.AperFunction,ComponentPad*%
%ADD16O,1.700000X2.000000*%
%TD*%
%TA.AperFunction,ComponentPad*%
%ADD17RoundRect,0.250000X-0.600000X0.600000X-0.600000X-0.600000X0.600000X-0.600000X0.600000X0.600000X0*%
%TD*%
%TA.AperFunction,ComponentPad*%
%ADD18C,1.700000*%
%TD*%
%TA.AperFunction,ComponentPad*%
%ADD19C,1.600000*%
%TD*%
%TA.AperFunction,ComponentPad*%
%ADD20C,1.676400*%
%TD*%
%TA.AperFunction,ComponentPad*%
%ADD21C,1.440000*%
%TD*%
%TA.AperFunction,ComponentPad*%
%ADD22C,1.950000*%
%TD*%
%TA.AperFunction,ViaPad*%
%ADD23C,0.600000*%
%TD*%
%TA.AperFunction,ViaPad*%
%ADD24C,0.800000*%
%TD*%
%TA.AperFunction,Conductor*%
%ADD25C,0.200000*%
%TD*%
%TA.AperFunction,Conductor*%
%ADD26C,0.500000*%
%TD*%
%TA.AperFunction,Conductor*%
%ADD27C,0.750000*%
%TD*%
%TA.AperFunction,Conductor*%
%ADD28C,1.000000*%
%TD*%
G04 APERTURE END LIST*
D10*
%TO.P,J7,1,Pin_1*%
%TO.N,+3.3V*%
X184000000Y-131000000D03*
D11*
%TO.P,J7,2,Pin_2*%
%TO.N,GND*%
X181500000Y-131000000D03*
%TO.P,J7,3,Pin_3*%
%TO.N,A5*%
X179000000Y-131000000D03*
%TO.P,J7,4,Pin_4*%
%TO.N,A6*%
X176500000Y-131000000D03*
%TO.P,J7,5,Pin_5*%
%TO.N,A7*%
X174000000Y-131000000D03*
%TO.P,J7,6,Pin_6*%
%TO.N,A8*%
X171500000Y-131000000D03*
%TO.P,J7,7,Pin_7*%
%TO.N,A9*%
X169000000Y-131000000D03*
%TD*%
D12*
%TO.P,J3,1,Pin_1*%
%TO.N,+5V*%
X187500000Y-68500000D03*
D11*
%TO.P,J3,2,Pin_2*%
%TO.N,GND*%
X190000000Y-68500000D03*
%TO.P,J3,3,Pin_3*%
%TO.N,TOUCH*%
X192500000Y-68500000D03*
%TO.P,J3,4,Pin_4*%
%TO.N,LED_cathode*%
X195000000Y-68500000D03*
%TD*%
D13*
%TO.P,J4,1,Pin_1*%
%TO.N,+3.3V*%
X234880000Y-98750000D03*
D14*
%TO.P,J4,2,Pin_2*%
%TO.N,GND*%
X234880000Y-101290000D03*
%TO.P,J4,3,Pin_3*%
%TO.N,Gyro SDA*%
X234880000Y-103830000D03*
%TO.P,J4,4,Pin_4*%
%TO.N,Gyro SCL*%
X234880000Y-106370000D03*
%TD*%
D15*
%TO.P,J2,1,Pin_1*%
%TO.N,Net-(J2-Pin_1)*%
X210000000Y-68500000D03*
D16*
%TO.P,J2,2,Pin_2*%
%TO.N,LED_cathode*%
X212500000Y-68500000D03*
%TD*%
D13*
%TO.P,J8,1,Pin_1*%
%TO.N,unconnected-(J8-Pin_1-Pad1)*%
X242500000Y-98750000D03*
D14*
%TO.P,J8,2,Pin_2*%
%TO.N,GND*%
X242500000Y-101290000D03*
%TO.P,J8,3,Pin_3*%
%TO.N,unconnected-(J8-Pin_3-Pad3)*%
X242500000Y-103830000D03*
%TO.P,J8,4,Pin_4*%
%TO.N,unconnected-(J8-Pin_4-Pad4)*%
X242500000Y-106370000D03*
%TD*%
D17*
%TO.P,J1,1,Pin_1*%
%TO.N,GND*%
X205080000Y-128000000D03*
D18*
%TO.P,J1,2,Pin_2*%
X205080000Y-130540000D03*
%TO.P,J1,3,Pin_3*%
X202540000Y-128000000D03*
%TO.P,J1,4,Pin_4*%
%TO.N,+9V*%
X202540000Y-130540000D03*
%TO.P,J1,5,Pin_5*%
%TO.N,PWM4*%
X200000000Y-128000000D03*
%TO.P,J1,6,Pin_6*%
%TO.N,+9V*%
X200000000Y-130540000D03*
%TO.P,J1,7,Pin_7*%
%TO.N,PWM2*%
X197460000Y-128000000D03*
%TO.P,J1,8,Pin_8*%
%TO.N,PWM3*%
X197460000Y-130540000D03*
%TO.P,J1,9,Pin_9*%
%TO.N,PWM0*%
X194920000Y-128000000D03*
%TO.P,J1,10,Pin_10*%
%TO.N,PWM1*%
X194920000Y-130540000D03*
%TD*%
D12*
%TO.P,J6,1,Pin_1*%
%TO.N,+3.3V*%
X165000000Y-68500000D03*
D11*
%TO.P,J6,2,Pin_2*%
%TO.N,GND*%
X167500000Y-68500000D03*
%TO.P,J6,3,Pin_3*%
%TO.N,A0*%
X170000000Y-68500000D03*
%TO.P,J6,4,Pin_4*%
%TO.N,A1*%
X172500000Y-68500000D03*
%TO.P,J6,5,Pin_5*%
%TO.N,A2*%
X175000000Y-68500000D03*
%TO.P,J6,6,Pin_6*%
%TO.N,A3*%
X177500000Y-68500000D03*
%TO.P,J6,7,Pin_7*%
%TO.N,A4*%
X180000000Y-68500000D03*
%TD*%
D19*
%TO.P,C1,1*%
%TO.N,+9V*%
X177500000Y-124250000D03*
%TO.P,C1,2*%
%TO.N,GND*%
X177500000Y-121750000D03*
%TD*%
D10*
%TO.P,J5,1,Pin_1*%
%TO.N,IR RX*%
X224500000Y-130000000D03*
D11*
%TO.P,J5,2,Pin_2*%
%TO.N,IR TX*%
X222000000Y-130000000D03*
%TO.P,J5,3,Pin_3*%
%TO.N,+9V*%
X219500000Y-130000000D03*
%TO.P,J5,4,Pin_4*%
%TO.N,GND*%
X217000000Y-130000000D03*
%TO.P,J5,5,Pin_5*%
%TO.N,+3.3V*%
X214500000Y-130000000D03*
%TD*%
D20*
%TO.P,U1,3V3,3V3*%
%TO.N,+3.3V*%
X182420000Y-115240000D03*
X182420000Y-117780000D03*
%TO.P,U1,5V,5V*%
%TO.N,+5V*%
X179880000Y-115240000D03*
X179880000Y-117780000D03*
X225600000Y-100000000D03*
%TO.P,U1,A0,D54/A0*%
%TO.N,A0*%
X187500000Y-82220000D03*
%TO.P,U1,A1,D55/A1*%
%TO.N,A1*%
X187500000Y-84760000D03*
%TO.P,U1,A2,D56/A2*%
%TO.N,A2*%
X190040000Y-82220000D03*
%TO.P,U1,A3,D57/A3*%
%TO.N,A3*%
X190040000Y-84760000D03*
%TO.P,U1,A4,D58/A4*%
%TO.N,A4*%
X192580000Y-82220000D03*
%TO.P,U1,A5,D59/A5*%
%TO.N,A5*%
X192580000Y-84760000D03*
%TO.P,U1,A6,D60/A6*%
%TO.N,A6*%
X195120000Y-82220000D03*
%TO.P,U1,A7,D61/A7*%
%TO.N,A7*%
X195120000Y-84760000D03*
%TO.P,U1,A8,D62/A8*%
%TO.N,A8*%
X197660000Y-82220000D03*
%TO.P,U1,A9,D63/A9*%
%TO.N,A9*%
X197660000Y-84760000D03*
%TO.P,U1,A10,D64/A10*%
%TO.N,TOUCH*%
X200200000Y-82220000D03*
%TO.P,U1,A11,D65/A11*%
%TO.N,unconnected-(U1-D65{slash}A11-PadA11)*%
X200200000Y-84760000D03*
%TO.P,U1,A12,D66/A12*%
%TO.N,unconnected-(U1-D66{slash}A12-PadA12)*%
X202740000Y-82220000D03*
%TO.P,U1,A13,D67/A13*%
%TO.N,unconnected-(U1-D67{slash}A13-PadA13)*%
X202740000Y-84760000D03*
%TO.P,U1,A14,D68/A14*%
%TO.N,unconnected-(U1-D68{slash}A14-PadA14)*%
X205280000Y-82220000D03*
%TO.P,U1,A15,D69/A15*%
%TO.N,unconnected-(U1-D69{slash}A15-PadA15)*%
X205280000Y-84760000D03*
%TO.P,U1,AREF,AREF*%
%TO.N,unconnected-(U1-PadAREF)*%
X184960000Y-115240000D03*
%TO.P,U1,D2,D2/PWM0*%
%TO.N,PWM0*%
X190040000Y-115240000D03*
%TO.P,U1,D3,D3/PWM1*%
%TO.N,PWM1*%
X190040000Y-117780000D03*
%TO.P,U1,D4,D4/PWM2*%
%TO.N,unconnected-(U1-D4{slash}PWM2-PadD4)*%
X192580000Y-115240000D03*
%TO.P,U1,D5,D5/PWM3*%
%TO.N,unconnected-(U1-D5{slash}PWM3-PadD5)*%
X192580000Y-117780000D03*
%TO.P,U1,D6,D6/PWM4*%
%TO.N,PWM2*%
X195120000Y-115240000D03*
%TO.P,U1,D7,D7/PWM5*%
%TO.N,PWM3*%
X195120000Y-117780000D03*
%TO.P,U1,D8,D8/PWM6*%
%TO.N,unconnected-(U1-D8{slash}PWM6-PadD8)*%
X197660000Y-115240000D03*
%TO.P,U1,D9,D9/PWM7*%
%TO.N,unconnected-(U1-D9{slash}PWM7-PadD9)*%
X197660000Y-117780000D03*
%TO.P,U1,D10,D10/PWM8*%
%TO.N,unconnected-(U1-D10{slash}PWM8-PadD10)*%
X200200000Y-115240000D03*
%TO.P,U1,D11,D11/PWM9*%
%TO.N,unconnected-(U1-D11{slash}PWM9-PadD11)*%
X200200000Y-117780000D03*
%TO.P,U1,D12,D12/PWM10*%
%TO.N,unconnected-(U1-D12{slash}PWM10-PadD12)*%
X202740000Y-115240000D03*
%TO.P,U1,D13,D13/PWM11*%
%TO.N,unconnected-(U1-D13{slash}PWM11-PadD13)*%
X202740000Y-117780000D03*
%TO.P,U1,D14,D14/TX3*%
%TO.N,unconnected-(U1-D14{slash}TX3-PadD14)*%
X205280000Y-115240000D03*
%TO.P,U1,D15,D15/RX3*%
%TO.N,unconnected-(U1-D15{slash}RX3-PadD15)*%
X205280000Y-117780000D03*
%TO.P,U1,D16,D16/TX2*%
%TO.N,unconnected-(U1-D16{slash}TX2-PadD16)*%
X207820000Y-115240000D03*
%TO.P,U1,D17,D17/RX2*%
%TO.N,unconnected-(U1-D17{slash}RX2-PadD17)*%
X207820000Y-117780000D03*
%TO.P,U1,D18,D18/TX1*%
%TO.N,IR RX*%
X210360000Y-115240000D03*
%TO.P,U1,D19,D19/RX1*%
%TO.N,IR TX*%
X210360000Y-117780000D03*
%TO.P,U1,D20,D20/SDA*%
%TO.N,Gyro SDA*%
X212900000Y-115240000D03*
%TO.P,U1,D21,D21/SCL*%
%TO.N,Gyro SCL*%
X212900000Y-117780000D03*
%TO.P,U1,D22,D22*%
%TO.N,D22*%
X215440000Y-115240000D03*
%TO.P,U1,D23,D23*%
%TO.N,unconnected-(U1-PadD23)*%
X215440000Y-117780000D03*
%TO.P,U1,D24,D24*%
%TO.N,unconnected-(U1-PadD24)*%
X217980000Y-115240000D03*
%TO.P,U1,D25,D25*%
%TO.N,unconnected-(U1-PadD25)*%
X217980000Y-117780000D03*
%TO.P,U1,D26,D26*%
%TO.N,unconnected-(U1-PadD26)*%
X220520000Y-115240000D03*
%TO.P,U1,D27,D27*%
%TO.N,unconnected-(U1-PadD27)*%
X220520000Y-117780000D03*
%TO.P,U1,D28,D28*%
%TO.N,unconnected-(U1-PadD28)*%
X223060000Y-115240000D03*
%TO.P,U1,D29,D29*%
%TO.N,unconnected-(U1-PadD29)*%
X223060000Y-117780000D03*
%TO.P,U1,D30,D30*%
%TO.N,unconnected-(U1-PadD30)*%
X225600000Y-115240000D03*
%TO.P,U1,D31,D31*%
%TO.N,unconnected-(U1-PadD31)*%
X225600000Y-117780000D03*
%TO.P,U1,D32,D32*%
%TO.N,unconnected-(U1-PadD32)*%
X207820000Y-82220000D03*
%TO.P,U1,D33,D33*%
%TO.N,unconnected-(U1-PadD33)*%
X207820000Y-84760000D03*
%TO.P,U1,D34,D34*%
%TO.N,unconnected-(U1-PadD34)*%
X210360000Y-82220000D03*
%TO.P,U1,D35,D35*%
%TO.N,unconnected-(U1-PadD35)*%
X210360000Y-84760000D03*
%TO.P,U1,D36,D36*%
%TO.N,unconnected-(U1-PadD36)*%
X212900000Y-82220000D03*
%TO.P,U1,D37,D37*%
%TO.N,unconnected-(U1-PadD37)*%
X212900000Y-84760000D03*
%TO.P,U1,D38,D38*%
%TO.N,unconnected-(U1-PadD38)*%
X215440000Y-82220000D03*
%TO.P,U1,D39,D39*%
%TO.N,unconnected-(U1-PadD39)*%
X215440000Y-84760000D03*
%TO.P,U1,D40,D40*%
%TO.N,unconnected-(U1-PadD40)*%
X217980000Y-82220000D03*
%TO.P,U1,D41,D41*%
%TO.N,unconnected-(U1-PadD41)*%
X217980000Y-84760000D03*
%TO.P,U1,D42,D42*%
%TO.N,unconnected-(U1-PadD42)*%
X220520000Y-82220000D03*
%TO.P,U1,D43,D43*%
%TO.N,unconnected-(U1-PadD43)*%
X220520000Y-84760000D03*
%TO.P,U1,D44,D44/PWM12*%
%TO.N,PWM4*%
X223060000Y-82220000D03*
%TO.P,U1,D45,D45/PWM13*%
%TO.N,unconnected-(U1-D45{slash}PWM13-PadD45)*%
X223060000Y-84760000D03*
%TO.P,U1,D46,D46/PWM14*%
%TO.N,unconnected-(U1-D46{slash}PWM14-PadD46)*%
X225600000Y-82220000D03*
%TO.P,U1,D47,D47*%
%TO.N,unconnected-(U1-PadD47)*%
X225600000Y-84760000D03*
%TO.P,U1,D48,D48*%
%TO.N,unconnected-(U1-PadD48)*%
X225600000Y-87300000D03*
%TO.P,U1,D49,D49*%
%TO.N,unconnected-(U1-PadD49)*%
X223060000Y-87300000D03*
%TO.P,U1,D50,D50*%
%TO.N,unconnected-(U1-PadD50)*%
X225600000Y-89840000D03*
%TO.P,U1,D51,D51*%
%TO.N,unconnected-(U1-PadD51)*%
X223060000Y-89840000D03*
%TO.P,U1,D52,D52/PWM15*%
%TO.N,unconnected-(U1-D52{slash}PWM15-PadD52)*%
X225600000Y-92380000D03*
%TO.P,U1,D53,D53*%
%TO.N,unconnected-(U1-PadD53)*%
X223060000Y-92380000D03*
%TO.P,U1,GND,GND*%
%TO.N,GND*%
X177340000Y-115240000D03*
X177340000Y-117780000D03*
X225600000Y-105080000D03*
%TO.P,U1,MISO,MISO*%
%TO.N,unconnected-(U1-PadMISO)*%
X223060000Y-100000000D03*
%TO.P,U1,MOSI,MOSI*%
%TO.N,unconnected-(U1-PadMOSI)*%
X225600000Y-102540000D03*
%TO.P,U1,RESET,RESET*%
%TO.N,unconnected-(U1-PadRESET)*%
X223060000Y-105080000D03*
%TO.P,U1,RST,RST*%
%TO.N,unconnected-(U1-PadRST)*%
X184960000Y-117780000D03*
%TO.P,U1,RX,D0/RX0*%
%TO.N,unconnected-(U1-D0{slash}RX0-PadRX)*%
X187500000Y-115240000D03*
%TO.P,U1,SCK,SCK*%
%TO.N,unconnected-(U1-PadSCK)*%
X223060000Y-102540000D03*
%TO.P,U1,TX,D1/TX0*%
%TO.N,unconnected-(U1-D1{slash}TX0-PadTX)*%
X187500000Y-117780000D03*
%TO.P,U1,VIN,VIN*%
%TO.N,+9V*%
X174800000Y-115240000D03*
X174800000Y-117780000D03*
%TD*%
D21*
%TO.P,RV1,1,1*%
%TO.N,Net-(J2-Pin_1)*%
X219500000Y-69480000D03*
%TO.P,RV1,2,2*%
%TO.N,+5V*%
X222040000Y-72020000D03*
%TO.P,RV1,3,3*%
%TO.N,unconnected-(RV1-Pad3)*%
X224580000Y-69480000D03*
%TD*%
D22*
%TO.P,S1,1,COM_1*%
%TO.N,GND*%
X242650000Y-123500000D03*
%TO.P,S1,2,COM_2*%
%TO.N,unconnected-(S1-COM_2-Pad2)*%
X230150000Y-123500000D03*
%TO.P,S1,3,NO_1*%
%TO.N,unconnected-(S1-NO_1-Pad3)*%
X242650000Y-118500000D03*
%TO.P,S1,4,NO_2*%
%TO.N,D22*%
X230150000Y-118500000D03*
%TD*%
D23*
%TO.N,PWM3*%
X192800000Y-130046346D03*
%TO.N,GND*%
X201225000Y-131800000D03*
X208300000Y-128975000D03*
X200250000Y-124575000D03*
X194825000Y-124250000D03*
X221175000Y-73550000D03*
X216425000Y-73425000D03*
X202325000Y-73350000D03*
X181675000Y-133500000D03*
X228775000Y-129325000D03*
X222850000Y-122175000D03*
X237350000Y-75450000D03*
X237225000Y-91625000D03*
X173400000Y-70650000D03*
X182975000Y-80025000D03*
X179850000Y-77250000D03*
X175175000Y-72425000D03*
X179750000Y-72650000D03*
X177550000Y-70500000D03*
X187725000Y-79125000D03*
X185275000Y-79075000D03*
X184125000Y-76425000D03*
X219650000Y-66425000D03*
X228300000Y-92975000D03*
D24*
X217030000Y-127890000D03*
D23*
X155175000Y-85200000D03*
X185175000Y-105550000D03*
X176700000Y-126725000D03*
X232450000Y-95425000D03*
X233025000Y-82550000D03*
X187475000Y-121950000D03*
X154600000Y-66800000D03*
X198975000Y-66575000D03*
X171075000Y-117475000D03*
X163050000Y-66575000D03*
X214950000Y-102875000D03*
X202475000Y-69025000D03*
X159825000Y-133250000D03*
X221700000Y-108075000D03*
X183800000Y-66775000D03*
X245525000Y-107325000D03*
X161775000Y-102075000D03*
X192675000Y-77525000D03*
X204325000Y-111300000D03*
X201250000Y-119925000D03*
X245650000Y-126050000D03*
X206550000Y-87225000D03*
X167150000Y-106950000D03*
X174425000Y-96450000D03*
X233025000Y-122225000D03*
X180550000Y-120425000D03*
X228200000Y-86900000D03*
X245575000Y-98075000D03*
X235600000Y-67225000D03*
X191075000Y-71150000D03*
X161400000Y-112725000D03*
X202875000Y-93400000D03*
X192800000Y-109625000D03*
X245600000Y-66775000D03*
X171050000Y-76825000D03*
X228000000Y-82000000D03*
X234825000Y-133300000D03*
X189325000Y-87925000D03*
X167400000Y-94675000D03*
X222400000Y-80125000D03*
X208150000Y-125775000D03*
X245575000Y-72475000D03*
X226350000Y-78900000D03*
X179550000Y-109850000D03*
X155925000Y-111375000D03*
X177775000Y-111625000D03*
X189900000Y-76275000D03*
X160650000Y-123250000D03*
X216950000Y-133675000D03*
X187875000Y-133675000D03*
X201225000Y-78950000D03*
X160775000Y-77400000D03*
X189075000Y-130350000D03*
X169525000Y-82150000D03*
X245900000Y-92000000D03*
X181300000Y-95825000D03*
X155300000Y-121525000D03*
X226850000Y-108400000D03*
X204925000Y-121925000D03*
X209325000Y-120200000D03*
X231925000Y-133375000D03*
X232450000Y-89450000D03*
X245600000Y-117025000D03*
X154325000Y-133075000D03*
X200350000Y-87000000D03*
X192200000Y-98150000D03*
X172250000Y-127150000D03*
X245725000Y-133525000D03*
X159375000Y-89800000D03*
X229325000Y-67475000D03*
X210300000Y-130200000D03*
X212825000Y-79625000D03*
X209250000Y-133675000D03*
X180925000Y-89175000D03*
X154925000Y-75175000D03*
X218725000Y-87175000D03*
X191325000Y-66425000D03*
X213850000Y-126175000D03*
X210375000Y-92900000D03*
X174800000Y-102575000D03*
X187675000Y-72375000D03*
X206750000Y-75525000D03*
X231725000Y-114200000D03*
X171250000Y-66500000D03*
X174300000Y-83800000D03*
X240225000Y-133450000D03*
X245500000Y-76950000D03*
X195875000Y-79950000D03*
X199675000Y-133675000D03*
X200150000Y-103325000D03*
X185150000Y-127325000D03*
X217400000Y-93300000D03*
X192000000Y-133650000D03*
X196250000Y-75775000D03*
X213100000Y-87450000D03*
X206625000Y-66500000D03*
X235800000Y-110050000D03*
X155425000Y-98475000D03*
X183800000Y-70500000D03*
X236525000Y-118700000D03*
X169275000Y-121550000D03*
X196675000Y-93250000D03*
X178800000Y-66450000D03*
X218525000Y-75600000D03*
X230725000Y-101225000D03*
X185775000Y-120225000D03*
X242350000Y-110225000D03*
X211775000Y-121525000D03*
X236600000Y-123200000D03*
X245775000Y-82350000D03*
X242525000Y-92400000D03*
%TO.N,+3.3V*%
X228292500Y-74682500D03*
%TO.N,A1*%
X184140000Y-81190000D03*
%TO.N,A3*%
X182120000Y-75675000D03*
%TD*%
D25*
%TO.N,PWM3*%
X196310000Y-131690000D02*
X197460000Y-130540000D01*
X194443654Y-131690000D02*
X196310000Y-131690000D01*
X192800000Y-130046346D02*
X194443654Y-131690000D01*
D26*
%TO.N,+3.3V*%
X184000000Y-126575000D02*
X184000000Y-131000000D01*
X184000000Y-126575000D02*
X182420000Y-124995000D01*
X182420000Y-124995000D02*
X182420000Y-117780000D01*
D25*
%TO.N,PWM2*%
X197460000Y-120530000D02*
X197460000Y-128000000D01*
X196370000Y-119440000D02*
X197460000Y-120530000D01*
%TO.N,PWM0*%
X191300000Y-124380000D02*
X194920000Y-128000000D01*
X191300000Y-116500000D02*
X191300000Y-124380000D01*
X190040000Y-115240000D02*
X191300000Y-116500000D01*
%TO.N,PWM1*%
X190040000Y-125660000D02*
X194920000Y-130540000D01*
X190040000Y-117780000D02*
X190040000Y-125660000D01*
D27*
%TO.N,+9V*%
X177500000Y-124250000D02*
X177625000Y-124125000D01*
D25*
%TO.N,A3*%
X182120000Y-75675000D02*
X182120000Y-73120000D01*
X182120000Y-73120000D02*
X177500000Y-68500000D01*
%TO.N,A2*%
X188250000Y-80430000D02*
X190040000Y-82220000D01*
X175000000Y-70225000D02*
X185205000Y-80430000D01*
X185205000Y-80430000D02*
X188250000Y-80430000D01*
X175000000Y-68500000D02*
X175000000Y-70225000D01*
D26*
%TO.N,+3.3V*%
X234880000Y-81270000D02*
X234880000Y-98750000D01*
X228292500Y-74682500D02*
X234880000Y-81270000D01*
D28*
%TO.N,GND*%
X217030000Y-129970000D02*
X217000000Y-130000000D01*
X217030000Y-127890000D02*
X217030000Y-129970000D01*
D27*
%TO.N,+9V*%
X174800000Y-121550000D02*
X177500000Y-124250000D01*
X174800000Y-115240000D02*
X174800000Y-117780000D01*
X174800000Y-117780000D02*
X174800000Y-121550000D01*
D25*
%TO.N,PWM2*%
X195120000Y-115240000D02*
X196370000Y-116490000D01*
X196370000Y-116490000D02*
X196370000Y-119440000D01*
%TO.N,TOUCH*%
X192500000Y-74520000D02*
X200200000Y-82220000D01*
X192500000Y-68500000D02*
X192500000Y-74520000D01*
D26*
%TO.N,+3.3V*%
X234880000Y-98750000D02*
X236540000Y-98750000D01*
X229890000Y-132620000D02*
X211880000Y-132620000D01*
X236540000Y-98750000D02*
X238580000Y-100790000D01*
X182420000Y-115240000D02*
X182420000Y-117780000D01*
X185620000Y-132620000D02*
X184000000Y-131000000D01*
X211880000Y-132620000D02*
X185620000Y-132620000D01*
X238580000Y-123930000D02*
X229890000Y-132620000D01*
X211880000Y-132620000D02*
X214500000Y-130000000D01*
X238580000Y-100790000D02*
X238580000Y-123930000D01*
D25*
%TO.N,Gyro SDA*%
X212900000Y-113900000D02*
X215130000Y-111670000D01*
X212900000Y-115240000D02*
X212900000Y-113900000D01*
X227040000Y-111670000D02*
X234880000Y-103830000D01*
X215130000Y-111670000D02*
X227040000Y-111670000D01*
%TO.N,Gyro SCL*%
X215250000Y-112130000D02*
X229120000Y-112130000D01*
X212900000Y-117780000D02*
X214301800Y-116378200D01*
X214301800Y-116378200D02*
X214301800Y-113078200D01*
X214301800Y-113078200D02*
X215250000Y-112130000D01*
X229120000Y-112130000D02*
X234880000Y-106370000D01*
%TO.N,IR TX*%
X214120000Y-121540000D02*
X210360000Y-117780000D01*
X222000000Y-128065686D02*
X215474314Y-121540000D01*
X222000000Y-130000000D02*
X222000000Y-128065686D01*
X215474314Y-121540000D02*
X214120000Y-121540000D01*
%TO.N,IR RX*%
X211630000Y-116510000D02*
X211630000Y-118119658D01*
X214650342Y-121140000D02*
X215640000Y-121140000D01*
X215640000Y-121140000D02*
X224500000Y-130000000D01*
X210360000Y-115240000D02*
X211630000Y-116510000D01*
X211630000Y-118119658D02*
X214650342Y-121140000D01*
%TO.N,A1*%
X184140000Y-80140000D02*
X184140000Y-81190000D01*
X172500000Y-68500000D02*
X184140000Y-80140000D01*
%TO.N,A0*%
X170000000Y-68500000D02*
X183720000Y-82220000D01*
X183720000Y-82220000D02*
X187500000Y-82220000D01*
%TO.N,A4*%
X180000000Y-68500000D02*
X180000000Y-69640000D01*
X180000000Y-69640000D02*
X192580000Y-82220000D01*
%TO.N,A9*%
X197660000Y-84760000D02*
X197660000Y-86210000D01*
X197660000Y-86210000D02*
X165890000Y-117980000D01*
X165890000Y-127890000D02*
X169000000Y-131000000D01*
X165890000Y-117980000D02*
X165890000Y-127890000D01*
%TO.N,A5*%
X176300000Y-133700000D02*
X179000000Y-131000000D01*
X192580000Y-89592942D02*
X164690000Y-117482942D01*
X164690000Y-117482942D02*
X164690000Y-130115000D01*
X192580000Y-84760000D02*
X192580000Y-89592942D01*
X168275000Y-133700000D02*
X176300000Y-133700000D01*
X164690000Y-130115000D02*
X168275000Y-133700000D01*
%TO.N,A8*%
X198798200Y-85637486D02*
X198798200Y-83358200D01*
X198798200Y-83358200D02*
X197660000Y-82220000D01*
X171500000Y-131000000D02*
X166440000Y-125940000D01*
X166440000Y-125940000D02*
X166440000Y-117995686D01*
X166440000Y-117995686D02*
X198798200Y-85637486D01*
%TO.N,A7*%
X165490000Y-117814314D02*
X165490000Y-129665000D01*
X168725000Y-132900000D02*
X172100000Y-132900000D01*
X172100000Y-132900000D02*
X174000000Y-131000000D01*
X195120000Y-88184314D02*
X165490000Y-117814314D01*
X165490000Y-129665000D02*
X168725000Y-132900000D01*
X195120000Y-84760000D02*
X195120000Y-88184314D01*
%TO.N,A6*%
X193981800Y-83358200D02*
X193981800Y-88756828D01*
X193981800Y-88756828D02*
X165090000Y-117648628D01*
X195120000Y-82220000D02*
X193981800Y-83358200D01*
X174200000Y-133300000D02*
X176500000Y-131000000D01*
X168440686Y-133300000D02*
X174200000Y-133300000D01*
X165090000Y-129949314D02*
X168440686Y-133300000D01*
X165090000Y-117648628D02*
X165090000Y-129949314D01*
D26*
%TO.N,+5V*%
X225600000Y-100000000D02*
X227080000Y-100000000D01*
D28*
X179880000Y-117780000D02*
X179880000Y-115240000D01*
D26*
X197400000Y-97720000D02*
X223320000Y-97720000D01*
X179880000Y-115240000D02*
X197400000Y-97720000D01*
X223320000Y-97720000D02*
X225600000Y-100000000D01*
X230560000Y-96520000D02*
X230560000Y-80540000D01*
X227080000Y-100000000D02*
X230560000Y-96520000D01*
X230560000Y-80540000D02*
X222040000Y-72020000D01*
D25*
%TO.N,D22*%
X215440000Y-113680000D02*
X215990000Y-113130000D01*
X230150000Y-116871142D02*
X230150000Y-118500000D01*
X226408858Y-113130000D02*
X230150000Y-116871142D01*
X215990000Y-113130000D02*
X226408858Y-113130000D01*
X215440000Y-115240000D02*
X215440000Y-113680000D01*
D26*
%TO.N,LED_cathode*%
X210120000Y-70880000D02*
X212500000Y-68500000D01*
X195000000Y-68500000D02*
X197380000Y-70880000D01*
X197380000Y-70880000D02*
X210120000Y-70880000D01*
%TO.N,Net-(J2-Pin_1)*%
X219500000Y-68380000D02*
X219500000Y-69480000D01*
X210000000Y-67920000D02*
X211340000Y-66580000D01*
X217700000Y-66580000D02*
X219500000Y-68380000D01*
X210000000Y-68500000D02*
X210000000Y-67920000D01*
X211340000Y-66580000D02*
X217700000Y-66580000D01*
%TD*%
%TA.AperFunction,Conductor*%
%TO.N,GND*%
G36*
X210625810Y-66020185D02*
G01*
X210671565Y-66072989D01*
X210681509Y-66142147D01*
X210652484Y-66205703D01*
X210646452Y-66212181D01*
X209895449Y-66963181D01*
X209834126Y-66996666D01*
X209807768Y-66999500D01*
X209349998Y-66999500D01*
X209349980Y-66999501D01*
X209247203Y-67010000D01*
X209247200Y-67010001D01*
X209080668Y-67065185D01*
X209080663Y-67065187D01*
X208931342Y-67157289D01*
X208807289Y-67281342D01*
X208715187Y-67430663D01*
X208715185Y-67430668D01*
X208693689Y-67495540D01*
X208660001Y-67597203D01*
X208660001Y-67597204D01*
X208660000Y-67597204D01*
X208649500Y-67699983D01*
X208649500Y-69300001D01*
X208649501Y-69300018D01*
X208660000Y-69402796D01*
X208660001Y-69402799D01*
X208693798Y-69504790D01*
X208715186Y-69569334D01*
X208791867Y-69693655D01*
X208807289Y-69718657D01*
X208931344Y-69842712D01*
X209024160Y-69899961D01*
X209070885Y-69951909D01*
X209082108Y-70020871D01*
X209054264Y-70084954D01*
X208996196Y-70123810D01*
X208959064Y-70129500D01*
X197742229Y-70129500D01*
X197675190Y-70109815D01*
X197654548Y-70093181D01*
X196386701Y-68825334D01*
X196353216Y-68764011D01*
X196351328Y-68736160D01*
X196350500Y-68736160D01*
X196350500Y-68268713D01*
X196333454Y-68161092D01*
X196317246Y-68058757D01*
X196251557Y-67856588D01*
X196155051Y-67667184D01*
X196155049Y-67667181D01*
X196155048Y-67667179D01*
X196030109Y-67495213D01*
X195879786Y-67344890D01*
X195707820Y-67219951D01*
X195518414Y-67123444D01*
X195518413Y-67123443D01*
X195518412Y-67123443D01*
X195316243Y-67057754D01*
X195316241Y-67057753D01*
X195316240Y-67057753D01*
X195154957Y-67032208D01*
X195106287Y-67024500D01*
X194893713Y-67024500D01*
X194845042Y-67032208D01*
X194683760Y-67057753D01*
X194481585Y-67123444D01*
X194292179Y-67219951D01*
X194120213Y-67344890D01*
X193969894Y-67495209D01*
X193969890Y-67495214D01*
X193850318Y-67659793D01*
X193794989Y-67702459D01*
X193725375Y-67708438D01*
X193663580Y-67675833D01*
X193649682Y-67659793D01*
X193530109Y-67495214D01*
X193530105Y-67495209D01*
X193379786Y-67344890D01*
X193207820Y-67219951D01*
X193018414Y-67123444D01*
X193018413Y-67123443D01*
X193018412Y-67123443D01*
X192816243Y-67057754D01*
X192816241Y-67057753D01*
X192816240Y-67057753D01*
X192654957Y-67032208D01*
X192606287Y-67024500D01*
X192393713Y-67024500D01*
X192345042Y-67032208D01*
X192183760Y-67057753D01*
X191981585Y-67123444D01*
X191792179Y-67219951D01*
X191620213Y-67344890D01*
X191469894Y-67495209D01*
X191469890Y-67495214D01*
X191350008Y-67660218D01*
X191294678Y-67702884D01*
X191225065Y-67708863D01*
X191163270Y-67676257D01*
X191149372Y-67660218D01*
X191029727Y-67495540D01*
X191029723Y-67495535D01*
X190879464Y-67345276D01*
X190879459Y-67345272D01*
X190707557Y-67220379D01*
X190518215Y-67123903D01*
X190316124Y-67058241D01*
X190250000Y-67047768D01*
X190250000Y-68095854D01*
X190183343Y-68057370D01*
X190062535Y-68025000D01*
X189937465Y-68025000D01*
X189816657Y-68057370D01*
X189750000Y-68095854D01*
X189750000Y-67047768D01*
X189749999Y-67047768D01*
X189683875Y-67058241D01*
X189481784Y-67123903D01*
X189292442Y-67220379D01*
X189120541Y-67345271D01*
X188981668Y-67484144D01*
X188920345Y-67517628D01*
X188850653Y-67512644D01*
X188794720Y-67470772D01*
X188788448Y-67461558D01*
X188692712Y-67306344D01*
X188568657Y-67182289D01*
X188568656Y-67182288D01*
X188419334Y-67090186D01*
X188252797Y-67035001D01*
X188252795Y-67035000D01*
X188150010Y-67024500D01*
X186849998Y-67024500D01*
X186849981Y-67024501D01*
X186747203Y-67035000D01*
X186747200Y-67035001D01*
X186580668Y-67090185D01*
X186580663Y-67090187D01*
X186431342Y-67182289D01*
X186307289Y-67306342D01*
X186215187Y-67455663D01*
X186215185Y-67455668D01*
X186210367Y-67470208D01*
X186160001Y-67622203D01*
X186160001Y-67622204D01*
X186160000Y-67622204D01*
X186149500Y-67724983D01*
X186149500Y-69275001D01*
X186149501Y-69275018D01*
X186160000Y-69377796D01*
X186160001Y-69377799D01*
X186193867Y-69479998D01*
X186215186Y-69544334D01*
X186307288Y-69693656D01*
X186431344Y-69817712D01*
X186580666Y-69909814D01*
X186747203Y-69964999D01*
X186849991Y-69975500D01*
X188150008Y-69975499D01*
X188252797Y-69964999D01*
X188419334Y-69909814D01*
X188568656Y-69817712D01*
X188692712Y-69693656D01*
X188784814Y-69544334D01*
X188784814Y-69544331D01*
X188788448Y-69538441D01*
X188840395Y-69491716D01*
X188909358Y-69480493D01*
X188973440Y-69508336D01*
X188981668Y-69515856D01*
X189120535Y-69654723D01*
X189120540Y-69654727D01*
X189292442Y-69779620D01*
X189481782Y-69876095D01*
X189683871Y-69941757D01*
X189750000Y-69952231D01*
X189750000Y-68904145D01*
X189816657Y-68942630D01*
X189937465Y-68975000D01*
X190062535Y-68975000D01*
X190183343Y-68942630D01*
X190250000Y-68904145D01*
X190250000Y-69952230D01*
X190316126Y-69941757D01*
X190316129Y-69941757D01*
X190518217Y-69876095D01*
X190707557Y-69779620D01*
X190879459Y-69654727D01*
X190879464Y-69654723D01*
X191029721Y-69504466D01*
X191149371Y-69339781D01*
X191204701Y-69297115D01*
X191274314Y-69291136D01*
X191336110Y-69323741D01*
X191350008Y-69339781D01*
X191469890Y-69504785D01*
X191469894Y-69504790D01*
X191620213Y-69655109D01*
X191792184Y-69780051D01*
X191792184Y-69780052D01*
X191831793Y-69800233D01*
X191882590Y-69848206D01*
X191899500Y-69910718D01*
X191899500Y-74433330D01*
X191899499Y-74433348D01*
X191899499Y-74599054D01*
X191899498Y-74599054D01*
X191940423Y-74751785D01*
X191969358Y-74801900D01*
X191969359Y-74801904D01*
X191969360Y-74801904D01*
X192019479Y-74888714D01*
X192019481Y-74888717D01*
X192138349Y-75007585D01*
X192138355Y-75007590D01*
X197799313Y-80668548D01*
X197832798Y-80729871D01*
X197827814Y-80799563D01*
X197785942Y-80855496D01*
X197720478Y-80879913D01*
X197700826Y-80879757D01*
X197660004Y-80876186D01*
X197659999Y-80876186D01*
X197426653Y-80896601D01*
X197426643Y-80896603D01*
X197200396Y-80957225D01*
X197200389Y-80957227D01*
X197200389Y-80957228D01*
X196988093Y-81056223D01*
X196796213Y-81190579D01*
X196796211Y-81190580D01*
X196796208Y-81190583D01*
X196630583Y-81356208D01*
X196630580Y-81356211D01*
X196630579Y-81356213D01*
X196498705Y-81544549D01*
X196493118Y-81552528D01*
X196491680Y-81551521D01*
X196446810Y-81594297D01*
X196378202Y-81607513D01*
X196313340Y-81581540D01*
X196287702Y-81551953D01*
X196286882Y-81552528D01*
X196281295Y-81544549D01*
X196149421Y-81356213D01*
X195983787Y-81190579D01*
X195791907Y-81056223D01*
X195579611Y-80957228D01*
X195579607Y-80957227D01*
X195579603Y-80957225D01*
X195353356Y-80896603D01*
X195353346Y-80896601D01*
X195120001Y-80876186D01*
X195119999Y-80876186D01*
X194886653Y-80896601D01*
X194886643Y-80896603D01*
X194660396Y-80957225D01*
X194660389Y-80957227D01*
X194660389Y-80957228D01*
X194448093Y-81056223D01*
X194256213Y-81190579D01*
X194256211Y-81190580D01*
X194256208Y-81190583D01*
X194090583Y-81356208D01*
X194090580Y-81356211D01*
X194090579Y-81356213D01*
X193958705Y-81544549D01*
X193953118Y-81552528D01*
X193951680Y-81551521D01*
X193906810Y-81594297D01*
X193838202Y-81607513D01*
X193773340Y-81581540D01*
X193747702Y-81551953D01*
X193746882Y-81552528D01*
X193741295Y-81544549D01*
X193609421Y-81356213D01*
X193443787Y-81190579D01*
X193251907Y-81056223D01*
X193039611Y-80957228D01*
X193039607Y-80957227D01*
X193039603Y-80957225D01*
X192813356Y-80896603D01*
X192813346Y-80896601D01*
X192580001Y-80876186D01*
X192579999Y-80876186D01*
X192346653Y-80896601D01*
X192346643Y-80896603D01*
X192225878Y-80928962D01*
X192156028Y-80927299D01*
X192106104Y-80896868D01*
X186534712Y-75325476D01*
X180959745Y-69750510D01*
X180926261Y-69689188D01*
X180931245Y-69619496D01*
X180959742Y-69575153D01*
X181030104Y-69504792D01*
X181155051Y-69332816D01*
X181251557Y-69143412D01*
X181317246Y-68941243D01*
X181350500Y-68731287D01*
X181350500Y-68268713D01*
X181317246Y-68058757D01*
X181251557Y-67856588D01*
X181155051Y-67667184D01*
X181155049Y-67667181D01*
X181155048Y-67667179D01*
X181030109Y-67495213D01*
X180879786Y-67344890D01*
X180707820Y-67219951D01*
X180518414Y-67123444D01*
X180518413Y-67123443D01*
X180518412Y-67123443D01*
X180316243Y-67057754D01*
X180316241Y-67057753D01*
X180316240Y-67057753D01*
X180154957Y-67032208D01*
X180106287Y-67024500D01*
X179893713Y-67024500D01*
X179845042Y-67032208D01*
X179683760Y-67057753D01*
X179481585Y-67123444D01*
X179292179Y-67219951D01*
X179120213Y-67344890D01*
X178969894Y-67495209D01*
X178969890Y-67495214D01*
X178850318Y-67659793D01*
X178794989Y-67702459D01*
X178725375Y-67708438D01*
X178663580Y-67675833D01*
X178649682Y-67659793D01*
X178530109Y-67495214D01*
X178530105Y-67495209D01*
X178379786Y-67344890D01*
X178207820Y-67219951D01*
X178018414Y-67123444D01*
X178018413Y-67123443D01*
X178018412Y-67123443D01*
X177816243Y-67057754D01*
X177816241Y-67057753D01*
X177816240Y-67057753D01*
X177654957Y-67032208D01*
X177606287Y-67024500D01*
X177393713Y-67024500D01*
X177345042Y-67032208D01*
X177183760Y-67057753D01*
X176981585Y-67123444D01*
X176792179Y-67219951D01*
X176620213Y-67344890D01*
X176469894Y-67495209D01*
X176469890Y-67495214D01*
X176350318Y-67659793D01*
X176294989Y-67702459D01*
X176225375Y-67708438D01*
X176163580Y-67675833D01*
X176149682Y-67659793D01*
X176030109Y-67495214D01*
X176030105Y-67495209D01*
X175879786Y-67344890D01*
X175707820Y-67219951D01*
X175518414Y-67123444D01*
X175518413Y-67123443D01*
X175518412Y-67123443D01*
X175316243Y-67057754D01*
X175316241Y-67057753D01*
X175316240Y-67057753D01*
X175154957Y-67032208D01*
X175106287Y-67024500D01*
X174893713Y-67024500D01*
X174845042Y-67032208D01*
X174683760Y-67057753D01*
X174481585Y-67123444D01*
X174292179Y-67219951D01*
X174120213Y-67344890D01*
X173969894Y-67495209D01*
X173969890Y-67495214D01*
X173850318Y-67659793D01*
X173794989Y-67702459D01*
X173725375Y-67708438D01*
X173663580Y-67675833D01*
X173649682Y-67659793D01*
X173530109Y-67495214D01*
X173530105Y-67495209D01*
X173379786Y-67344890D01*
X173207820Y-67219951D01*
X173018414Y-67123444D01*
X173018413Y-67123443D01*
X173018412Y-67123443D01*
X172816243Y-67057754D01*
X172816241Y-67057753D01*
X172816240Y-67057753D01*
X172654957Y-67032208D01*
X172606287Y-67024500D01*
X172393713Y-67024500D01*
X172345042Y-67032208D01*
X172183760Y-67057753D01*
X171981585Y-67123444D01*
X171792179Y-67219951D01*
X171620213Y-67344890D01*
X171469894Y-67495209D01*
X171469890Y-67495214D01*
X171350318Y-67659793D01*
X171294989Y-67702459D01*
X171225375Y-67708438D01*
X171163580Y-67675833D01*
X171149682Y-67659793D01*
X171030109Y-67495214D01*
X171030105Y-67495209D01*
X170879786Y-67344890D01*
X170707820Y-67219951D01*
X170518414Y-67123444D01*
X170518413Y-67123443D01*
X170518412Y-67123443D01*
X170316243Y-67057754D01*
X170316241Y-67057753D01*
X170316240Y-67057753D01*
X170154957Y-67032208D01*
X170106287Y-67024500D01*
X169893713Y-67024500D01*
X169845042Y-67032208D01*
X169683760Y-67057753D01*
X169481585Y-67123444D01*
X169292179Y-67219951D01*
X169120213Y-67344890D01*
X168969894Y-67495209D01*
X168969890Y-67495214D01*
X168850008Y-67660218D01*
X168794678Y-67702884D01*
X168725065Y-67708863D01*
X168663270Y-67676257D01*
X168649372Y-67660218D01*
X168529727Y-67495540D01*
X168529723Y-67495535D01*
X168379464Y-67345276D01*
X168379459Y-67345272D01*
X168207557Y-67220379D01*
X168018215Y-67123903D01*
X167816124Y-67058241D01*
X167750000Y-67047768D01*
X167750000Y-68095854D01*
X167683343Y-68057370D01*
X167562535Y-68025000D01*
X167437465Y-68025000D01*
X167316657Y-68057370D01*
X167250000Y-68095854D01*
X167250000Y-67047768D01*
X167249999Y-67047768D01*
X167183875Y-67058241D01*
X166981784Y-67123903D01*
X166792442Y-67220379D01*
X166620541Y-67345271D01*
X166481668Y-67484144D01*
X166420345Y-67517628D01*
X166350653Y-67512644D01*
X166294720Y-67470772D01*
X166288448Y-67461558D01*
X166192712Y-67306344D01*
X166068657Y-67182289D01*
X166068656Y-67182288D01*
X165919334Y-67090186D01*
X165752797Y-67035001D01*
X165752795Y-67035000D01*
X165650010Y-67024500D01*
X164349998Y-67024500D01*
X164349981Y-67024501D01*
X164247203Y-67035000D01*
X164247200Y-67035001D01*
X164080668Y-67090185D01*
X164080663Y-67090187D01*
X163931342Y-67182289D01*
X163807289Y-67306342D01*
X163715187Y-67455663D01*
X163715185Y-67455668D01*
X163710367Y-67470208D01*
X163660001Y-67622203D01*
X163660001Y-67622204D01*
X163660000Y-67622204D01*
X163649500Y-67724983D01*
X163649500Y-69275001D01*
X163649501Y-69275018D01*
X163660000Y-69377796D01*
X163660001Y-69377799D01*
X163693867Y-69479998D01*
X163715186Y-69544334D01*
X163807288Y-69693656D01*
X163931344Y-69817712D01*
X164080666Y-69909814D01*
X164247203Y-69964999D01*
X164349991Y-69975500D01*
X165650008Y-69975499D01*
X165752797Y-69964999D01*
X165919334Y-69909814D01*
X166068656Y-69817712D01*
X166192712Y-69693656D01*
X166284814Y-69544334D01*
X166284814Y-69544331D01*
X166288448Y-69538441D01*
X166340395Y-69491716D01*
X166409358Y-69480493D01*
X166473440Y-69508336D01*
X166481668Y-69515856D01*
X166620535Y-69654723D01*
X166620540Y-69654727D01*
X166792442Y-69779620D01*
X166981782Y-69876095D01*
X167183871Y-69941757D01*
X167250000Y-69952231D01*
X167250000Y-68904145D01*
X167316657Y-68942630D01*
X167437465Y-68975000D01*
X167562535Y-68975000D01*
X167683343Y-68942630D01*
X167750000Y-68904145D01*
X167750000Y-69952230D01*
X167816126Y-69941757D01*
X167816129Y-69941757D01*
X168018217Y-69876095D01*
X168207557Y-69779620D01*
X168379459Y-69654727D01*
X168379464Y-69654723D01*
X168529721Y-69504466D01*
X168649371Y-69339781D01*
X168704701Y-69297115D01*
X168774314Y-69291136D01*
X168836110Y-69323741D01*
X168850008Y-69339781D01*
X168969890Y-69504785D01*
X168969894Y-69504790D01*
X169120213Y-69655109D01*
X169292179Y-69780048D01*
X169292181Y-69780049D01*
X169292184Y-69780051D01*
X169481588Y-69876557D01*
X169683757Y-69942246D01*
X169893713Y-69975500D01*
X169893714Y-69975500D01*
X170106286Y-69975500D01*
X170106287Y-69975500D01*
X170316243Y-69942246D01*
X170452873Y-69897851D01*
X170522708Y-69895856D01*
X170578867Y-69928102D01*
X183235139Y-82584374D01*
X183235149Y-82584385D01*
X183239479Y-82588715D01*
X183239480Y-82588716D01*
X183351284Y-82700520D01*
X183438095Y-82750639D01*
X183438097Y-82750641D01*
X183476151Y-82772611D01*
X183488215Y-82779577D01*
X183640943Y-82820500D01*
X186223928Y-82820500D01*
X186290967Y-82840185D01*
X186332542Y-82887778D01*
X186333515Y-82887217D01*
X186336220Y-82891902D01*
X186336222Y-82891904D01*
X186336223Y-82891907D01*
X186470579Y-83083787D01*
X186636213Y-83249421D01*
X186828093Y-83383777D01*
X186828094Y-83383777D01*
X186832528Y-83386882D01*
X186831521Y-83388319D01*
X186874297Y-83433190D01*
X186887513Y-83501798D01*
X186861540Y-83566660D01*
X186831953Y-83592297D01*
X186832528Y-83593118D01*
X186828094Y-83596222D01*
X186828093Y-83596223D01*
X186636213Y-83730579D01*
X186636211Y-83730580D01*
X186636208Y-83730583D01*
X186470583Y-83896208D01*
X186336223Y-84088093D01*
X186237229Y-84300387D01*
X186237225Y-84300396D01*
X186176603Y-84526643D01*
X186176601Y-84526653D01*
X186156186Y-84759999D01*
X186156186Y-84760000D01*
X186176601Y-84993346D01*
X186176603Y-84993356D01*
X186237225Y-85219603D01*
X186237227Y-85219607D01*
X186237228Y-85219611D01*
X186336223Y-85431907D01*
X186470579Y-85623787D01*
X186636213Y-85789421D01*
X186828093Y-85923777D01*
X187040389Y-86022772D01*
X187266649Y-86083398D01*
X187453329Y-86099730D01*
X187499999Y-86103814D01*
X187500000Y-86103814D01*
X187500001Y-86103814D01*
X187538891Y-86100411D01*
X187733351Y-86083398D01*
X187959611Y-86022772D01*
X188171907Y-85923777D01*
X188363787Y-85789421D01*
X188529421Y-85623787D01*
X188663777Y-85431907D01*
X188663777Y-85431905D01*
X188666882Y-85427472D01*
X188668323Y-85428481D01*
X188713172Y-85385712D01*
X188781778Y-85372484D01*
X188846645Y-85398447D01*
X188872294Y-85428048D01*
X188873118Y-85427472D01*
X188876222Y-85431905D01*
X188876223Y-85431907D01*
X189010579Y-85623787D01*
X189176213Y-85789421D01*
X189368093Y-85923777D01*
X189580389Y-86022772D01*
X189806649Y-86083398D01*
X189993329Y-86099730D01*
X190039999Y-86103814D01*
X190040000Y-86103814D01*
X190040001Y-86103814D01*
X190078891Y-86100411D01*
X190273351Y-86083398D01*
X190499611Y-86022772D01*
X190711907Y-85923777D01*
X190903787Y-85789421D01*
X191069421Y-85623787D01*
X191203777Y-85431907D01*
X191203777Y-85431905D01*
X191206882Y-85427472D01*
X191208323Y-85428481D01*
X191253172Y-85385712D01*
X191321778Y-85372484D01*
X191386645Y-85398447D01*
X191412294Y-85428048D01*
X191413118Y-85427472D01*
X191416222Y-85431905D01*
X191416223Y-85431907D01*
X191550579Y-85623787D01*
X191716213Y-85789421D01*
X191908093Y-85923777D01*
X191908100Y-85923780D01*
X191912784Y-85926485D01*
X191912209Y-85927479D01*
X191960344Y-85969860D01*
X191979500Y-86036071D01*
X191979500Y-89292844D01*
X191959815Y-89359883D01*
X191943181Y-89380525D01*
X164209481Y-117114224D01*
X164209479Y-117114227D01*
X164161664Y-117197047D01*
X164161663Y-117197048D01*
X164130423Y-117251156D01*
X164130423Y-117251157D01*
X164089499Y-117403885D01*
X164089499Y-117403887D01*
X164089499Y-117571988D01*
X164089500Y-117572001D01*
X164089500Y-130028330D01*
X164089499Y-130028348D01*
X164089499Y-130194054D01*
X164089498Y-130194054D01*
X164089499Y-130194057D01*
X164130423Y-130346785D01*
X164130424Y-130346787D01*
X164130423Y-130346787D01*
X164136083Y-130356589D01*
X164136084Y-130356590D01*
X164209477Y-130483712D01*
X164209481Y-130483717D01*
X164328349Y-130602585D01*
X164328355Y-130602590D01*
X167513583Y-133787819D01*
X167547068Y-133849142D01*
X167542084Y-133918834D01*
X167500212Y-133974767D01*
X167434748Y-133999184D01*
X167425902Y-133999500D01*
X153874500Y-133999500D01*
X153807461Y-133979815D01*
X153761706Y-133927011D01*
X153750500Y-133875500D01*
X153750500Y-131000000D01*
X154659076Y-131000000D01*
X154678550Y-131284708D01*
X154736613Y-131564127D01*
X154736614Y-131564130D01*
X154832179Y-131833022D01*
X154832178Y-131833022D01*
X154960370Y-132080421D01*
X154963474Y-132086411D01*
X155128047Y-132319557D01*
X155128051Y-132319561D01*
X155128051Y-132319562D01*
X155322836Y-132528125D01*
X155426092Y-132612130D01*
X155544205Y-132708222D01*
X155544207Y-132708223D01*
X155544208Y-132708224D01*
X155788040Y-132856502D01*
X155788045Y-132856504D01*
X155875054Y-132894297D01*
X156049792Y-132970196D01*
X156324589Y-133047190D01*
X156561948Y-133079815D01*
X156607309Y-133086050D01*
X156607310Y-133086050D01*
X156892691Y-133086050D01*
X156923171Y-133081860D01*
X157175411Y-133047190D01*
X157450208Y-132970196D01*
X157711961Y-132856501D01*
X157955795Y-132708222D01*
X158177167Y-132528122D01*
X158371953Y-132319557D01*
X158536526Y-132086411D01*
X158667819Y-131833026D01*
X158763387Y-131564125D01*
X158821449Y-131284714D01*
X158840924Y-131000000D01*
X158821449Y-130715286D01*
X158763387Y-130435875D01*
X158749168Y-130395868D01*
X158671118Y-130176257D01*
X158667820Y-130166977D01*
X158667821Y-130166977D01*
X158595980Y-130028330D01*
X158536526Y-129913589D01*
X158371953Y-129680443D01*
X158371948Y-129680437D01*
X158204839Y-129501508D01*
X158177167Y-129471878D01*
X158177165Y-129471877D01*
X158177163Y-129471874D01*
X157955791Y-129291775D01*
X157711959Y-129143497D01*
X157711954Y-129143495D01*
X157450213Y-129029806D01*
X157450211Y-129029805D01*
X157450208Y-129029804D01*
X157321619Y-128993775D01*
X157175417Y-128952811D01*
X157175412Y-128952810D01*
X157175411Y-128952810D01*
X157034050Y-128933380D01*
X156892691Y-128913950D01*
X156892690Y-128913950D01*
X156607310Y-128913950D01*
X156607309Y-128913950D01*
X156324589Y-128952810D01*
X156324582Y-128952811D01*
X156118236Y-129010626D01*
X156049792Y-129029804D01*
X156049789Y-129029804D01*
X156049786Y-129029806D01*
X156049785Y-129029806D01*
X155788045Y-129143495D01*
X155788040Y-129143497D01*
X155544208Y-129291775D01*
X155322836Y-129471874D01*
X155128051Y-129680437D01*
X155128051Y-129680438D01*
X155128048Y-129680440D01*
X155128047Y-129680443D01*
X155116484Y-129696824D01*
X154963474Y-129913588D01*
X154832179Y-130166977D01*
X154736614Y-130435869D01*
X154736613Y-130435872D01*
X154678550Y-130715291D01*
X154659076Y-131000000D01*
X153750500Y-131000000D01*
X153750500Y-69000000D01*
X154659076Y-69000000D01*
X154678550Y-69284708D01*
X154678550Y-69284712D01*
X154678551Y-69284714D01*
X154689994Y-69339781D01*
X154736613Y-69564127D01*
X154736614Y-69564130D01*
X154832179Y-69833022D01*
X154832178Y-69833022D01*
X154925220Y-70012584D01*
X154963474Y-70086411D01*
X155128047Y-70319557D01*
X155128051Y-70319561D01*
X155128051Y-70319562D01*
X155322836Y-70528125D01*
X155338689Y-70541022D01*
X155544205Y-70708222D01*
X155544207Y-70708223D01*
X155544208Y-70708224D01*
X155788040Y-70856502D01*
X155788045Y-70856504D01*
X155918915Y-70913348D01*
X156049792Y-70970196D01*
X156324589Y-71047190D01*
X156573144Y-71081354D01*
X156607309Y-71086050D01*
X156607310Y-71086050D01*
X156892691Y-71086050D01*
X156926004Y-71081471D01*
X157175411Y-71047190D01*
X157450208Y-70970196D01*
X157711961Y-70856501D01*
X157955795Y-70708222D01*
X158177167Y-70528122D01*
X158371953Y-70319557D01*
X158536526Y-70086411D01*
X158667819Y-69833026D01*
X158763387Y-69564125D01*
X158821449Y-69284714D01*
X158840924Y-69000000D01*
X158821449Y-68715286D01*
X158763387Y-68435875D01*
X158757381Y-68418977D01*
X158667820Y-68166977D01*
X158667821Y-68166977D01*
X158593994Y-68024498D01*
X158536526Y-67913589D01*
X158371953Y-67680443D01*
X158371948Y-67680437D01*
X158198960Y-67495213D01*
X158177167Y-67471878D01*
X158177165Y-67471877D01*
X158177163Y-67471874D01*
X157973699Y-67306344D01*
X157955795Y-67291778D01*
X157955793Y-67291777D01*
X157955791Y-67291775D01*
X157711959Y-67143497D01*
X157711954Y-67143495D01*
X157450213Y-67029806D01*
X157450211Y-67029805D01*
X157450208Y-67029804D01*
X157321619Y-66993775D01*
X157175417Y-66952811D01*
X157175412Y-66952810D01*
X157175411Y-66952810D01*
X157034050Y-66933380D01*
X156892691Y-66913950D01*
X156892690Y-66913950D01*
X156607310Y-66913950D01*
X156607309Y-66913950D01*
X156324589Y-66952810D01*
X156324582Y-66952811D01*
X156120474Y-67010000D01*
X156049792Y-67029804D01*
X156049789Y-67029804D01*
X156049786Y-67029806D01*
X156049785Y-67029806D01*
X155788045Y-67143495D01*
X155788040Y-67143497D01*
X155544208Y-67291775D01*
X155322836Y-67471874D01*
X155128051Y-67680437D01*
X155128051Y-67680438D01*
X155128048Y-67680440D01*
X155128047Y-67680443D01*
X155096601Y-67724992D01*
X154963474Y-67913588D01*
X154832179Y-68166977D01*
X154736614Y-68435869D01*
X154736613Y-68435872D01*
X154678550Y-68715291D01*
X154659076Y-69000000D01*
X153750500Y-69000000D01*
X153750500Y-66124500D01*
X153770185Y-66057461D01*
X153822989Y-66011706D01*
X153874500Y-66000500D01*
X210558771Y-66000500D01*
X210625810Y-66020185D01*
G37*
%TD.AperFunction*%
%TA.AperFunction,Conductor*%
G36*
X246192539Y-66020185D02*
G01*
X246238294Y-66072989D01*
X246249500Y-66124500D01*
X246249500Y-133875500D01*
X246229815Y-133942539D01*
X246177011Y-133988294D01*
X246125500Y-133999500D01*
X177149097Y-133999500D01*
X177082058Y-133979815D01*
X177036303Y-133927011D01*
X177026359Y-133857853D01*
X177055384Y-133794297D01*
X177061416Y-133787819D01*
X177213528Y-133635705D01*
X178421133Y-132428100D01*
X178482454Y-132394617D01*
X178547126Y-132397851D01*
X178683757Y-132442246D01*
X178893713Y-132475500D01*
X178893714Y-132475500D01*
X179106286Y-132475500D01*
X179106287Y-132475500D01*
X179316243Y-132442246D01*
X179518412Y-132376557D01*
X179707816Y-132280051D01*
X179792075Y-132218834D01*
X179879786Y-132155109D01*
X179879788Y-132155106D01*
X179879792Y-132155104D01*
X180030104Y-132004792D01*
X180149991Y-131839779D01*
X180205320Y-131797115D01*
X180274933Y-131791136D01*
X180336729Y-131823741D01*
X180350627Y-131839781D01*
X180470272Y-132004459D01*
X180470276Y-132004464D01*
X180620535Y-132154723D01*
X180620540Y-132154727D01*
X180792442Y-132279620D01*
X180981782Y-132376095D01*
X181183871Y-132441757D01*
X181250000Y-132452231D01*
X181250000Y-131404145D01*
X181316657Y-131442630D01*
X181437465Y-131475000D01*
X181562535Y-131475000D01*
X181683343Y-131442630D01*
X181750000Y-131404145D01*
X181750000Y-132452230D01*
X181816126Y-132441757D01*
X181816129Y-132441757D01*
X182018217Y-132376095D01*
X182207557Y-132279620D01*
X182379458Y-132154728D01*
X182518330Y-132015856D01*
X182579653Y-131982371D01*
X182649345Y-131987355D01*
X182705279Y-132029226D01*
X182711551Y-132038440D01*
X182715185Y-132044332D01*
X182715186Y-132044334D01*
X182807288Y-132193656D01*
X182931344Y-132317712D01*
X183080666Y-132409814D01*
X183247203Y-132464999D01*
X183349991Y-132475500D01*
X184362769Y-132475499D01*
X184429808Y-132495183D01*
X184450450Y-132511818D01*
X185141586Y-133202954D01*
X185171058Y-133222645D01*
X185215270Y-133252186D01*
X185264505Y-133285084D01*
X185264506Y-133285084D01*
X185264507Y-133285085D01*
X185264509Y-133285086D01*
X185401082Y-133341656D01*
X185401087Y-133341658D01*
X185401091Y-133341658D01*
X185401092Y-133341659D01*
X185546079Y-133370500D01*
X185546082Y-133370500D01*
X229963920Y-133370500D01*
X230061462Y-133351096D01*
X230108913Y-133341658D01*
X230245495Y-133285084D01*
X230294729Y-133252186D01*
X230294734Y-133252183D01*
X230319071Y-133235921D01*
X230368416Y-133202952D01*
X232571368Y-131000000D01*
X241159076Y-131000000D01*
X241178550Y-131284708D01*
X241236613Y-131564127D01*
X241236614Y-131564130D01*
X241332179Y-131833022D01*
X241332178Y-131833022D01*
X241460370Y-132080421D01*
X241463474Y-132086411D01*
X241628047Y-132319557D01*
X241628051Y-132319561D01*
X241628051Y-132319562D01*
X241822836Y-132528125D01*
X241926092Y-132612130D01*
X242044205Y-132708222D01*
X242044207Y-132708223D01*
X242044208Y-132708224D01*
X242288040Y-132856502D01*
X242288045Y-132856504D01*
X242375054Y-132894297D01*
X242549792Y-132970196D01*
X242824589Y-133047190D01*
X243061948Y-133079815D01*
X243107309Y-133086050D01*
X243107310Y-133086050D01*
X243392691Y-133086050D01*
X243423171Y-133081860D01*
X243675411Y-133047190D01*
X243950208Y-132970196D01*
X244211961Y-132856501D01*
X244455795Y-132708222D01*
X244677167Y-132528122D01*
X244871953Y-132319557D01*
X245036526Y-132086411D01*
X245167819Y-131833026D01*
X245263387Y-131564125D01*
X245321449Y-131284714D01*
X245340924Y-131000000D01*
X245321449Y-130715286D01*
X245263387Y-130435875D01*
X245249168Y-130395868D01*
X245171118Y-130176257D01*
X245167820Y-130166977D01*
X245167821Y-130166977D01*
X245095980Y-130028330D01*
X245036526Y-129913589D01*
X244871953Y-129680443D01*
X244871948Y-129680437D01*
X244704839Y-129501508D01*
X244677167Y-129471878D01*
X244677165Y-129471877D01*
X244677163Y-129471874D01*
X244455791Y-129291775D01*
X244211959Y-129143497D01*
X244211954Y-129143495D01*
X243950213Y-129029806D01*
X243950211Y-129029805D01*
X243950208Y-129029804D01*
X243821619Y-128993775D01*
X243675417Y-128952811D01*
X243675412Y-128952810D01*
X243675411Y-128952810D01*
X243534050Y-128933380D01*
X243392691Y-128913950D01*
X243392690Y-128913950D01*
X243107310Y-128913950D01*
X243107309Y-128913950D01*
X242824589Y-128952810D01*
X242824582Y-128952811D01*
X242618236Y-129010626D01*
X242549792Y-129029804D01*
X242549789Y-129029804D01*
X242549786Y-129029806D01*
X242549785Y-129029806D01*
X242288045Y-129143495D01*
X242288040Y-129143497D01*
X242044208Y-129291775D01*
X241822836Y-129471874D01*
X241628051Y-129680437D01*
X241628051Y-129680438D01*
X241628048Y-129680440D01*
X241628047Y-129680443D01*
X241616484Y-129696824D01*
X241463474Y-129913588D01*
X241332179Y-130166977D01*
X241236614Y-130435869D01*
X241236613Y-130435872D01*
X241178550Y-130715291D01*
X241159076Y-131000000D01*
X232571368Y-131000000D01*
X239162952Y-124408416D01*
X239200768Y-124351819D01*
X239234756Y-124300953D01*
X239234758Y-124300948D01*
X239234762Y-124300943D01*
X239245084Y-124285495D01*
X239301658Y-124148913D01*
X239326643Y-124023308D01*
X239330500Y-124003920D01*
X239330500Y-123499994D01*
X241169945Y-123499994D01*
X241169945Y-123500005D01*
X241190130Y-123743605D01*
X241250138Y-123980573D01*
X241348330Y-124204429D01*
X241444626Y-124351819D01*
X242048958Y-123747487D01*
X242073978Y-123807890D01*
X242145112Y-123914351D01*
X242235649Y-124004888D01*
X242342110Y-124076022D01*
X242402511Y-124101041D01*
X241797758Y-124705794D01*
X241797758Y-124705796D01*
X241840478Y-124739046D01*
X241840484Y-124739050D01*
X242055468Y-124855394D01*
X242055476Y-124855397D01*
X242286664Y-124934765D01*
X242527779Y-124975000D01*
X242772221Y-124975000D01*
X243013335Y-124934765D01*
X243244523Y-124855397D01*
X243244531Y-124855394D01*
X243459514Y-124739051D01*
X243459514Y-124739050D01*
X243502240Y-124705795D01*
X243502240Y-124705794D01*
X242897488Y-124101041D01*
X242957890Y-124076022D01*
X243064351Y-124004888D01*
X243154888Y-123914351D01*
X243226022Y-123807890D01*
X243251041Y-123747488D01*
X243855372Y-124351819D01*
X243951667Y-124204431D01*
X243951672Y-124204423D01*
X244049861Y-123980573D01*
X244109869Y-123743605D01*
X244130055Y-123500005D01*
X244130055Y-123499994D01*
X244109869Y-123256394D01*
X244049861Y-123019426D01*
X243951669Y-122795570D01*
X243855372Y-122648179D01*
X243251041Y-123252510D01*
X243226022Y-123192110D01*
X243154888Y-123085649D01*
X243064351Y-122995112D01*
X242957890Y-122923978D01*
X242897487Y-122898958D01*
X243502240Y-122294204D01*
X243502240Y-122294203D01*
X243459514Y-122260949D01*
X243244531Y-122144605D01*
X243244523Y-122144602D01*
X243013335Y-122065234D01*
X242772221Y-122025000D01*
X242527779Y-122025000D01*
X242286664Y-122065234D01*
X242055476Y-122144602D01*
X242055468Y-122144605D01*
X241840481Y-122260951D01*
X241797758Y-122294202D01*
X241797757Y-122294204D01*
X242402511Y-122898958D01*
X242342110Y-122923978D01*
X242235649Y-122995112D01*
X242145112Y-123085649D01*
X242073978Y-123192110D01*
X242048958Y-123252511D01*
X241444626Y-122648179D01*
X241348328Y-122795575D01*
X241250138Y-123019426D01*
X241190130Y-123256394D01*
X241169945Y-123499994D01*
X239330500Y-123499994D01*
X239330500Y-118499994D01*
X241169443Y-118499994D01*
X241169443Y-118500005D01*
X241189634Y-118743683D01*
X241189636Y-118743695D01*
X241249663Y-118980734D01*
X241347888Y-119204666D01*
X241481632Y-119409378D01*
X241647242Y-119589277D01*
X241647252Y-119589286D01*
X241817634Y-119721900D01*
X241840212Y-119739473D01*
X242055267Y-119855855D01*
X242055270Y-119855856D01*
X242286541Y-119935251D01*
X242286543Y-119935251D01*
X242286545Y-119935252D01*
X242527737Y-119975500D01*
X242527738Y-119975500D01*
X242772262Y-119975500D01*
X242772263Y-119975500D01*
X243013455Y-119935252D01*
X243244733Y-119855855D01*
X243459788Y-119739473D01*
X243652754Y-119589281D01*
X243818368Y-119409377D01*
X243952111Y-119204667D01*
X244050336Y-118980736D01*
X244110364Y-118743692D01*
X244118642Y-118643791D01*
X244130557Y-118500005D01*
X244130557Y-118499994D01*
X244110365Y-118256316D01*
X244110363Y-118256304D01*
X244050336Y-118019265D01*
X244047744Y-118013356D01*
X243952111Y-117795333D01*
X243907689Y-117727339D01*
X243818367Y-117590621D01*
X243652757Y-117410722D01*
X243652747Y-117410713D01*
X243459791Y-117260529D01*
X243459787Y-117260526D01*
X243244734Y-117144145D01*
X243244729Y-117144143D01*
X243013458Y-117064748D01*
X242832561Y-117034562D01*
X242772263Y-117024500D01*
X242527737Y-117024500D01*
X242479498Y-117032549D01*
X242286541Y-117064748D01*
X242055270Y-117144143D01*
X242055265Y-117144145D01*
X241840212Y-117260526D01*
X241840208Y-117260529D01*
X241647252Y-117410713D01*
X241647242Y-117410722D01*
X241481632Y-117590621D01*
X241347888Y-117795333D01*
X241249663Y-118019265D01*
X241189636Y-118256304D01*
X241189634Y-118256316D01*
X241169443Y-118499994D01*
X239330500Y-118499994D01*
X239330500Y-103829999D01*
X241144341Y-103829999D01*
X241144341Y-103830000D01*
X241164936Y-104065403D01*
X241164938Y-104065413D01*
X241226094Y-104293655D01*
X241226096Y-104293659D01*
X241226097Y-104293663D01*
X241325965Y-104507830D01*
X241325967Y-104507834D01*
X241461501Y-104701395D01*
X241461506Y-104701402D01*
X241628597Y-104868493D01*
X241628603Y-104868498D01*
X241814158Y-104998425D01*
X241857783Y-105053002D01*
X241864977Y-105122500D01*
X241833454Y-105184855D01*
X241814158Y-105201575D01*
X241628597Y-105331505D01*
X241461505Y-105498597D01*
X241325965Y-105692169D01*
X241325964Y-105692171D01*
X241226098Y-105906335D01*
X241226094Y-105906344D01*
X241164938Y-106134586D01*
X241164936Y-106134596D01*
X241144341Y-106369999D01*
X241144341Y-106370000D01*
X241164936Y-106605403D01*
X241164938Y-106605413D01*
X241226094Y-106833655D01*
X241226096Y-106833659D01*
X241226097Y-106833663D01*
X241325965Y-107047830D01*
X241325967Y-107047834D01*
X241434281Y-107202521D01*
X241461505Y-107241401D01*
X241628599Y-107408495D01*
X241725384Y-107476265D01*
X241822165Y-107544032D01*
X241822167Y-107544033D01*
X241822170Y-107544035D01*
X242036337Y-107643903D01*
X242264592Y-107705063D01*
X242452918Y-107721539D01*
X242499999Y-107725659D01*
X242500000Y-107725659D01*
X242500001Y-107725659D01*
X242539234Y-107722226D01*
X242735408Y-107705063D01*
X242963663Y-107643903D01*
X243177830Y-107544035D01*
X243371401Y-107408495D01*
X243538495Y-107241401D01*
X243674035Y-107047830D01*
X243773903Y-106833663D01*
X243835063Y-106605408D01*
X243855659Y-106370000D01*
X243835063Y-106134592D01*
X243773903Y-105906337D01*
X243674035Y-105692171D01*
X243673902Y-105691980D01*
X243538494Y-105498597D01*
X243371402Y-105331506D01*
X243371396Y-105331501D01*
X243185842Y-105201575D01*
X243142217Y-105146998D01*
X243135023Y-105077500D01*
X243166546Y-105015145D01*
X243185842Y-104998425D01*
X243289838Y-104925606D01*
X243371401Y-104868495D01*
X243538495Y-104701401D01*
X243674035Y-104507830D01*
X243773903Y-104293663D01*
X243835063Y-104065408D01*
X243855659Y-103830000D01*
X243835063Y-103594592D01*
X243773903Y-103366337D01*
X243674035Y-103152171D01*
X243567213Y-102999612D01*
X243538494Y-102958597D01*
X243371402Y-102791506D01*
X243371401Y-102791505D01*
X243185405Y-102661269D01*
X243141781Y-102606692D01*
X243134588Y-102537193D01*
X243166110Y-102474839D01*
X243185405Y-102458119D01*
X243371082Y-102328105D01*
X243538105Y-102161082D01*
X243673600Y-101967578D01*
X243773429Y-101753492D01*
X243773432Y-101753486D01*
X243830636Y-101540000D01*
X242933012Y-101540000D01*
X242965925Y-101482993D01*
X243000000Y-101355826D01*
X243000000Y-101224174D01*
X242965925Y-101097007D01*
X242933012Y-101040000D01*
X243830636Y-101040000D01*
X243830635Y-101039999D01*
X243773432Y-100826513D01*
X243773429Y-100826507D01*
X243673600Y-100612422D01*
X243673599Y-100612420D01*
X243538113Y-100418926D01*
X243538108Y-100418920D01*
X243416053Y-100296865D01*
X243382568Y-100235542D01*
X243387552Y-100165850D01*
X243429424Y-100109917D01*
X243460400Y-100093002D01*
X243592331Y-100043796D01*
X243707546Y-99957546D01*
X243793796Y-99842331D01*
X243844091Y-99707483D01*
X243850500Y-99647873D01*
X243850499Y-97852128D01*
X243844091Y-97792517D01*
X243793796Y-97657669D01*
X243793795Y-97657668D01*
X243793793Y-97657664D01*
X243707547Y-97542455D01*
X243707544Y-97542452D01*
X243592335Y-97456206D01*
X243592328Y-97456202D01*
X243457482Y-97405908D01*
X243457483Y-97405908D01*
X243397883Y-97399501D01*
X243397881Y-97399500D01*
X243397873Y-97399500D01*
X243397864Y-97399500D01*
X241602129Y-97399500D01*
X241602123Y-97399501D01*
X241542516Y-97405908D01*
X241407671Y-97456202D01*
X241407664Y-97456206D01*
X241292455Y-97542452D01*
X241292452Y-97542455D01*
X241206206Y-97657664D01*
X241206202Y-97657671D01*
X241155908Y-97792517D01*
X241149501Y-97852116D01*
X241149501Y-97852123D01*
X241149500Y-97852135D01*
X241149500Y-99647870D01*
X241149501Y-99647876D01*
X241155908Y-99707483D01*
X241206202Y-99842328D01*
X241206206Y-99842335D01*
X241292452Y-99957544D01*
X241292455Y-99957547D01*
X241407664Y-100043793D01*
X241407671Y-100043797D01*
X241407674Y-100043798D01*
X241539598Y-100093002D01*
X241595531Y-100134873D01*
X241619949Y-100200337D01*
X241605098Y-100268610D01*
X241583947Y-100296865D01*
X241461886Y-100418926D01*
X241326400Y-100612420D01*
X241326399Y-100612422D01*
X241226570Y-100826507D01*
X241226567Y-100826513D01*
X241169364Y-101039999D01*
X241169364Y-101040000D01*
X242066988Y-101040000D01*
X242034075Y-101097007D01*
X242000000Y-101224174D01*
X242000000Y-101355826D01*
X242034075Y-101482993D01*
X242066988Y-101540000D01*
X241169364Y-101540000D01*
X241226567Y-101753486D01*
X241226570Y-101753492D01*
X241326399Y-101967578D01*
X241461894Y-102161082D01*
X241628917Y-102328105D01*
X241814595Y-102458119D01*
X241858219Y-102512696D01*
X241865412Y-102582195D01*
X241833890Y-102644549D01*
X241814595Y-102661269D01*
X241628594Y-102791508D01*
X241461505Y-102958597D01*
X241325965Y-103152169D01*
X241325964Y-103152171D01*
X241226098Y-103366335D01*
X241226094Y-103366344D01*
X241164938Y-103594586D01*
X241164936Y-103594596D01*
X241144341Y-103829999D01*
X239330500Y-103829999D01*
X239330500Y-100716081D01*
X239330499Y-100716080D01*
X239320356Y-100665084D01*
X239301659Y-100571088D01*
X239247408Y-100440117D01*
X239245764Y-100435522D01*
X239162954Y-100311588D01*
X239162953Y-100311587D01*
X239162951Y-100311584D01*
X239058416Y-100207049D01*
X237018416Y-98167048D01*
X237018415Y-98167047D01*
X237018413Y-98167045D01*
X236969179Y-98134150D01*
X236936355Y-98112218D01*
X236895495Y-98084916D01*
X236895494Y-98084915D01*
X236895492Y-98084914D01*
X236895490Y-98084913D01*
X236758917Y-98028343D01*
X236758907Y-98028340D01*
X236613920Y-97999500D01*
X236613918Y-97999500D01*
X236354499Y-97999500D01*
X236287460Y-97979815D01*
X236241705Y-97927011D01*
X236230499Y-97875500D01*
X236230499Y-97852129D01*
X236230498Y-97852123D01*
X236230497Y-97852116D01*
X236224091Y-97792517D01*
X236173796Y-97657669D01*
X236173795Y-97657668D01*
X236173793Y-97657664D01*
X236087547Y-97542455D01*
X236087544Y-97542452D01*
X235972335Y-97456206D01*
X235972328Y-97456202D01*
X235837482Y-97405908D01*
X235837483Y-97405908D01*
X235777883Y-97399501D01*
X235777881Y-97399500D01*
X235777873Y-97399500D01*
X235777865Y-97399500D01*
X235754500Y-97399500D01*
X235687461Y-97379815D01*
X235641706Y-97327011D01*
X235630500Y-97275500D01*
X235630500Y-81196079D01*
X235601659Y-81051092D01*
X235601658Y-81051091D01*
X235601658Y-81051087D01*
X235562781Y-80957229D01*
X235545085Y-80914507D01*
X235533122Y-80896603D01*
X235495621Y-80840478D01*
X235478296Y-80814548D01*
X235462954Y-80791586D01*
X229045807Y-74374439D01*
X229023153Y-74338369D01*
X229021313Y-74339256D01*
X229018292Y-74332984D01*
X229018289Y-74332980D01*
X229018289Y-74332978D01*
X228922316Y-74180238D01*
X228794762Y-74052684D01*
X228642023Y-73956711D01*
X228471754Y-73897131D01*
X228471749Y-73897130D01*
X228292504Y-73876935D01*
X228292496Y-73876935D01*
X228113250Y-73897130D01*
X228113245Y-73897131D01*
X227942976Y-73956711D01*
X227790237Y-74052684D01*
X227662684Y-74180237D01*
X227566711Y-74332976D01*
X227507131Y-74503245D01*
X227507130Y-74503250D01*
X227486935Y-74682496D01*
X227486935Y-74682503D01*
X227507130Y-74861749D01*
X227507131Y-74861754D01*
X227566711Y-75032023D01*
X227612697Y-75105209D01*
X227662684Y-75184762D01*
X227790238Y-75312316D01*
X227942978Y-75408289D01*
X227942980Y-75408289D01*
X227942984Y-75408292D01*
X227949256Y-75411313D01*
X227948369Y-75413153D01*
X227984439Y-75435807D01*
X234093181Y-81544549D01*
X234126666Y-81605872D01*
X234129500Y-81632230D01*
X234129500Y-97275500D01*
X234109815Y-97342539D01*
X234057011Y-97388294D01*
X234005505Y-97399500D01*
X233982132Y-97399500D01*
X233982123Y-97399501D01*
X233922516Y-97405908D01*
X233787671Y-97456202D01*
X233787664Y-97456206D01*
X233672455Y-97542452D01*
X233672452Y-97542455D01*
X233586206Y-97657664D01*
X233586202Y-97657671D01*
X233535908Y-97792517D01*
X233529501Y-97852116D01*
X233529501Y-97852123D01*
X233529500Y-97852135D01*
X233529500Y-99647870D01*
X233529501Y-99647876D01*
X233535908Y-99707483D01*
X233586202Y-99842328D01*
X233586206Y-99842335D01*
X233672452Y-99957544D01*
X233672455Y-99957547D01*
X233787664Y-100043793D01*
X233787671Y-100043797D01*
X233787674Y-100043798D01*
X233919598Y-100093002D01*
X233975531Y-100134873D01*
X233999949Y-100200337D01*
X233985098Y-100268610D01*
X233963947Y-100296865D01*
X233841886Y-100418926D01*
X233706400Y-100612420D01*
X233706399Y-100612422D01*
X233606570Y-100826507D01*
X233606567Y-100826513D01*
X233549364Y-101039999D01*
X233549364Y-101040000D01*
X234446988Y-101040000D01*
X234414075Y-101097007D01*
X234380000Y-101224174D01*
X234380000Y-101355826D01*
X234414075Y-101482993D01*
X234446988Y-101540000D01*
X233549364Y-101540000D01*
X233606567Y-101753486D01*
X233606570Y-101753492D01*
X233706399Y-101967578D01*
X233841894Y-102161082D01*
X234008917Y-102328105D01*
X234194595Y-102458119D01*
X234238219Y-102512696D01*
X234245412Y-102582195D01*
X234213890Y-102644549D01*
X234194595Y-102661269D01*
X234008594Y-102791508D01*
X233841505Y-102958597D01*
X233705965Y-103152169D01*
X233705964Y-103152171D01*
X233606098Y-103366335D01*
X233606094Y-103366344D01*
X233544938Y-103594586D01*
X233544936Y-103594596D01*
X233524341Y-103829999D01*
X233524341Y-103830000D01*
X233544936Y-104065403D01*
X233544938Y-104065413D01*
X233579327Y-104193756D01*
X233577664Y-104263606D01*
X233547233Y-104313530D01*
X226827584Y-111033181D01*
X226766261Y-111066666D01*
X226739903Y-111069500D01*
X215209057Y-111069500D01*
X215050942Y-111069500D01*
X214898215Y-111110423D01*
X214898214Y-111110423D01*
X214898212Y-111110424D01*
X214898209Y-111110425D01*
X214848096Y-111139359D01*
X214848095Y-111139360D01*
X214804689Y-111164420D01*
X214761285Y-111189479D01*
X214761282Y-111189481D01*
X212419481Y-113531282D01*
X212419479Y-113531285D01*
X212369361Y-113618094D01*
X212369359Y-113618096D01*
X212340425Y-113668209D01*
X212340424Y-113668210D01*
X212340423Y-113668215D01*
X212299499Y-113820943D01*
X212299499Y-113820945D01*
X212299499Y-113963928D01*
X212279814Y-114030967D01*
X212232222Y-114072544D01*
X212232783Y-114073515D01*
X212228097Y-114076220D01*
X212227470Y-114076659D01*
X212036213Y-114210579D01*
X212036211Y-114210580D01*
X212036208Y-114210583D01*
X211870583Y-114376208D01*
X211870580Y-114376211D01*
X211870579Y-114376213D01*
X211792936Y-114487099D01*
X211733118Y-114572528D01*
X211731680Y-114571521D01*
X211686810Y-114614297D01*
X211618202Y-114627513D01*
X211553340Y-114601540D01*
X211527702Y-114571953D01*
X211526882Y-114572528D01*
X211523777Y-114568093D01*
X211389421Y-114376213D01*
X211223787Y-114210579D01*
X211031907Y-114076223D01*
X210819611Y-113977228D01*
X210819607Y-113977227D01*
X210819603Y-113977225D01*
X210593356Y-113916603D01*
X210593346Y-113916601D01*
X210360001Y-113896186D01*
X210359999Y-113896186D01*
X210126653Y-113916601D01*
X210126643Y-113916603D01*
X209900396Y-113977225D01*
X209900389Y-113977227D01*
X209900389Y-113977228D01*
X209688093Y-114076223D01*
X209496213Y-114210579D01*
X209496211Y-114210580D01*
X209496208Y-114210583D01*
X209330583Y-114376208D01*
X209330580Y-114376211D01*
X209330579Y-114376213D01*
X209252936Y-114487099D01*
X209193118Y-114572528D01*
X209191680Y-114571521D01*
X209146810Y-114614297D01*
X209078202Y-114627513D01*
X209013340Y-114601540D01*
X208987702Y-114571953D01*
X208986882Y-114572528D01*
X208983777Y-114568093D01*
X208849421Y-114376213D01*
X208683787Y-114210579D01*
X208491907Y-114076223D01*
X208279611Y-113977228D01*
X208279607Y-113977227D01*
X208279603Y-113977225D01*
X208053356Y-113916603D01*
X208053346Y-113916601D01*
X207820001Y-113896186D01*
X207819999Y-113896186D01*
X207586653Y-113916601D01*
X207586643Y-113916603D01*
X207360396Y-113977225D01*
X207360389Y-113977227D01*
X207360389Y-113977228D01*
X207148093Y-114076223D01*
X206956213Y-114210579D01*
X206956211Y-114210580D01*
X206956208Y-114210583D01*
X206790583Y-114376208D01*
X206790580Y-114376211D01*
X206790579Y-114376213D01*
X206712936Y-114487099D01*
X206653118Y-114572528D01*
X206651680Y-114571521D01*
X206606810Y-114614297D01*
X206538202Y-114627513D01*
X206473340Y-114601540D01*
X206447702Y-114571953D01*
X206446882Y-114572528D01*
X206443777Y-114568093D01*
X206309421Y-114376213D01*
X206143787Y-114210579D01*
X205951907Y-114076223D01*
X205739611Y-113977228D01*
X205739607Y-113977227D01*
X205739603Y-113977225D01*
X205513356Y-113916603D01*
X205513346Y-113916601D01*
X205280001Y-113896186D01*
X205279999Y-113896186D01*
X205046653Y-113916601D01*
X205046643Y-113916603D01*
X204820396Y-113977225D01*
X204820389Y-113977227D01*
X204820389Y-113977228D01*
X204608093Y-114076223D01*
X204416213Y-114210579D01*
X204416211Y-114210580D01*
X204416208Y-114210583D01*
X204250583Y-114376208D01*
X204250580Y-114376211D01*
X204250579Y-114376213D01*
X204172936Y-114487099D01*
X204113118Y-114572528D01*
X204111680Y-114571521D01*
X204066810Y-114614297D01*
X203998202Y-114627513D01*
X203933340Y-114601540D01*
X203907702Y-114571953D01*
X203906882Y-114572528D01*
X203903777Y-114568093D01*
X203769421Y-114376213D01*
X203603787Y-114210579D01*
X203411907Y-114076223D01*
X203199611Y-113977228D01*
X203199607Y-113977227D01*
X203199603Y-113977225D01*
X202973356Y-113916603D01*
X202973346Y-113916601D01*
X202740001Y-113896186D01*
X202739999Y-113896186D01*
X202506653Y-113916601D01*
X202506643Y-113916603D01*
X202280396Y-113977225D01*
X202280389Y-113977227D01*
X202280389Y-113977228D01*
X202068093Y-114076223D01*
X201876213Y-114210579D01*
X201876211Y-114210580D01*
X201876208Y-114210583D01*
X201710583Y-114376208D01*
X201710580Y-114376211D01*
X201710579Y-114376213D01*
X201632936Y-114487099D01*
X201573118Y-114572528D01*
X201571680Y-114571521D01*
X201526810Y-114614297D01*
X201458202Y-114627513D01*
X201393340Y-114601540D01*
X201367702Y-114571953D01*
X201366882Y-114572528D01*
X201363777Y-114568093D01*
X201229421Y-114376213D01*
X201063787Y-114210579D01*
X200871907Y-114076223D01*
X200659611Y-113977228D01*
X200659607Y-113977227D01*
X200659603Y-113977225D01*
X200433356Y-113916603D01*
X200433346Y-113916601D01*
X200200001Y-113896186D01*
X200199999Y-113896186D01*
X199966653Y-113916601D01*
X199966643Y-113916603D01*
X199740396Y-113977225D01*
X199740389Y-113977227D01*
X199740389Y-113977228D01*
X199528093Y-114076223D01*
X199336213Y-114210579D01*
X199336211Y-114210580D01*
X199336208Y-114210583D01*
X199170583Y-114376208D01*
X199170580Y-114376211D01*
X199170579Y-114376213D01*
X199092936Y-114487099D01*
X199033118Y-114572528D01*
X199031680Y-114571521D01*
X198986810Y-114614297D01*
X198918202Y-114627513D01*
X198853340Y-114601540D01*
X198827702Y-114571953D01*
X198826882Y-114572528D01*
X198823777Y-114568093D01*
X198689421Y-114376213D01*
X198523787Y-114210579D01*
X198331907Y-114076223D01*
X198119611Y-113977228D01*
X198119607Y-113977227D01*
X198119603Y-113977225D01*
X197893356Y-113916603D01*
X197893346Y-113916601D01*
X197660001Y-113896186D01*
X197659999Y-113896186D01*
X197426653Y-113916601D01*
X197426643Y-113916603D01*
X197200396Y-113977225D01*
X197200389Y-113977227D01*
X197200389Y-113977228D01*
X196988093Y-114076223D01*
X196796213Y-114210579D01*
X196796211Y-114210580D01*
X196796208Y-114210583D01*
X196630583Y-114376208D01*
X196630580Y-114376211D01*
X196630579Y-114376213D01*
X196552936Y-114487099D01*
X196493118Y-114572528D01*
X196491680Y-114571521D01*
X196446810Y-114614297D01*
X196378202Y-114627513D01*
X196313340Y-114601540D01*
X196287702Y-114571953D01*
X196286882Y-114572528D01*
X196283777Y-114568093D01*
X196149421Y-114376213D01*
X195983787Y-114210579D01*
X195791907Y-114076223D01*
X195579611Y-113977228D01*
X195579607Y-113977227D01*
X195579603Y-113977225D01*
X195353356Y-113916603D01*
X195353346Y-113916601D01*
X195120001Y-113896186D01*
X195119999Y-113896186D01*
X194886653Y-113916601D01*
X194886643Y-113916603D01*
X194660396Y-113977225D01*
X194660389Y-113977227D01*
X194660389Y-113977228D01*
X194448093Y-114076223D01*
X194256213Y-114210579D01*
X194256211Y-114210580D01*
X194256208Y-114210583D01*
X194090583Y-114376208D01*
X194090580Y-114376211D01*
X194090579Y-114376213D01*
X194012936Y-114487099D01*
X193953118Y-114572528D01*
X193951680Y-114571521D01*
X193906810Y-114614297D01*
X193838202Y-114627513D01*
X193773340Y-114601540D01*
X193747702Y-114571953D01*
X193746882Y-114572528D01*
X193743777Y-114568093D01*
X193609421Y-114376213D01*
X193443787Y-114210579D01*
X193251907Y-114076223D01*
X193039611Y-113977228D01*
X193039607Y-113977227D01*
X193039603Y-113977225D01*
X192813356Y-113916603D01*
X192813346Y-113916601D01*
X192580001Y-113896186D01*
X192579999Y-113896186D01*
X192346653Y-113916601D01*
X192346643Y-113916603D01*
X192120396Y-113977225D01*
X192120389Y-113977227D01*
X192120389Y-113977228D01*
X191908093Y-114076223D01*
X191716213Y-114210579D01*
X191716211Y-114210580D01*
X191716208Y-114210583D01*
X191550583Y-114376208D01*
X191550580Y-114376211D01*
X191550579Y-114376213D01*
X191472936Y-114487099D01*
X191413118Y-114572528D01*
X191411680Y-114571521D01*
X191366810Y-114614297D01*
X191298202Y-114627513D01*
X191233340Y-114601540D01*
X191207702Y-114571953D01*
X191206882Y-114572528D01*
X191203777Y-114568093D01*
X191069421Y-114376213D01*
X190903787Y-114210579D01*
X190711907Y-114076223D01*
X190499611Y-113977228D01*
X190499607Y-113977227D01*
X190499603Y-113977225D01*
X190273356Y-113916603D01*
X190273346Y-113916601D01*
X190040001Y-113896186D01*
X190039999Y-113896186D01*
X189806653Y-113916601D01*
X189806643Y-113916603D01*
X189580396Y-113977225D01*
X189580389Y-113977227D01*
X189580389Y-113977228D01*
X189368093Y-114076223D01*
X189176213Y-114210579D01*
X189176211Y-114210580D01*
X189176208Y-114210583D01*
X189010583Y-114376208D01*
X189010580Y-114376211D01*
X189010579Y-114376213D01*
X188932936Y-114487099D01*
X188873118Y-114572528D01*
X188871680Y-114571521D01*
X188826810Y-114614297D01*
X188758202Y-114627513D01*
X188693340Y-114601540D01*
X188667702Y-114571953D01*
X188666882Y-114572528D01*
X188663777Y-114568093D01*
X188529421Y-114376213D01*
X188363787Y-114210579D01*
X188171907Y-114076223D01*
X187959611Y-113977228D01*
X187959607Y-113977227D01*
X187959603Y-113977225D01*
X187733356Y-113916603D01*
X187733346Y-113916601D01*
X187500001Y-113896186D01*
X187499999Y-113896186D01*
X187266653Y-113916601D01*
X187266643Y-113916603D01*
X187040396Y-113977225D01*
X187040389Y-113977227D01*
X187040389Y-113977228D01*
X186828093Y-114076223D01*
X186636213Y-114210579D01*
X186636211Y-114210580D01*
X186636208Y-114210583D01*
X186470583Y-114376208D01*
X186470580Y-114376211D01*
X186470579Y-114376213D01*
X186392936Y-114487099D01*
X186333118Y-114572528D01*
X186331680Y-114571521D01*
X186286810Y-114614297D01*
X186218202Y-114627513D01*
X186153340Y-114601540D01*
X186127702Y-114571953D01*
X186126882Y-114572528D01*
X186123777Y-114568093D01*
X185989421Y-114376213D01*
X185823787Y-114210579D01*
X185631907Y-114076223D01*
X185419611Y-113977228D01*
X185419607Y-113977227D01*
X185419603Y-113977225D01*
X185193356Y-113916603D01*
X185193346Y-113916601D01*
X184960001Y-113896186D01*
X184959999Y-113896186D01*
X184726653Y-113916601D01*
X184726643Y-113916603D01*
X184500396Y-113977225D01*
X184500389Y-113977227D01*
X184500389Y-113977228D01*
X184288093Y-114076223D01*
X184096213Y-114210579D01*
X184096211Y-114210580D01*
X184096208Y-114210583D01*
X183930583Y-114376208D01*
X183930580Y-114376211D01*
X183930579Y-114376213D01*
X183852936Y-114487099D01*
X183793118Y-114572528D01*
X183791680Y-114571521D01*
X183746810Y-114614297D01*
X183678202Y-114627513D01*
X183613340Y-114601540D01*
X183587702Y-114571953D01*
X183586882Y-114572528D01*
X183583777Y-114568093D01*
X183449421Y-114376213D01*
X183283787Y-114210579D01*
X183091907Y-114076223D01*
X182879611Y-113977228D01*
X182879607Y-113977227D01*
X182879603Y-113977225D01*
X182653356Y-113916603D01*
X182653346Y-113916601D01*
X182560932Y-113908516D01*
X182495863Y-113883063D01*
X182454885Y-113826472D01*
X182451007Y-113756710D01*
X182484057Y-113697309D01*
X197674548Y-98506819D01*
X197735871Y-98473334D01*
X197762229Y-98470500D01*
X222653957Y-98470500D01*
X222720996Y-98490185D01*
X222766751Y-98542989D01*
X222776695Y-98612147D01*
X222747670Y-98675703D01*
X222688892Y-98713477D01*
X222686050Y-98714275D01*
X222600396Y-98737225D01*
X222600389Y-98737227D01*
X222600389Y-98737228D01*
X222388093Y-98836223D01*
X222196213Y-98970579D01*
X222196211Y-98970580D01*
X222196208Y-98970583D01*
X222030583Y-99136208D01*
X222030580Y-99136211D01*
X222030579Y-99136213D01*
X221896223Y-99328093D01*
X221797229Y-99540387D01*
X221797225Y-99540396D01*
X221736603Y-99766643D01*
X221736601Y-99766653D01*
X221716186Y-99999999D01*
X221716186Y-100000000D01*
X221736601Y-100233346D01*
X221736603Y-100233356D01*
X221797225Y-100459603D01*
X221797227Y-100459607D01*
X221797228Y-100459611D01*
X221896223Y-100671907D01*
X222030579Y-100863787D01*
X222196213Y-101029421D01*
X222388093Y-101163777D01*
X222388094Y-101163777D01*
X222392528Y-101166882D01*
X222391521Y-101168319D01*
X222434297Y-101213190D01*
X222447513Y-101281798D01*
X222421540Y-101346660D01*
X222391953Y-101372297D01*
X222392528Y-101373118D01*
X222388094Y-101376222D01*
X222388093Y-101376223D01*
X222196213Y-101510579D01*
X222196211Y-101510580D01*
X222196208Y-101510583D01*
X222030583Y-101676208D01*
X222030580Y-101676211D01*
X222030579Y-101676213D01*
X221896223Y-101868093D01*
X221797229Y-102080387D01*
X221797225Y-102080396D01*
X221736603Y-102306643D01*
X221736601Y-102306653D01*
X221716186Y-102539999D01*
X221716186Y-102540000D01*
X221736601Y-102773346D01*
X221736603Y-102773356D01*
X221797225Y-102999603D01*
X221797227Y-102999607D01*
X221797228Y-102999611D01*
X221896223Y-103211907D01*
X222030579Y-103403787D01*
X222196213Y-103569421D01*
X222388093Y-103703777D01*
X222388094Y-103703777D01*
X222392528Y-103706882D01*
X222391521Y-103708319D01*
X222434297Y-103753190D01*
X222447513Y-103821798D01*
X222421540Y-103886660D01*
X222391953Y-103912297D01*
X222392528Y-103913118D01*
X222388094Y-103916222D01*
X222388093Y-103916223D01*
X222196213Y-104050579D01*
X222196211Y-104050580D01*
X222196208Y-104050583D01*
X222030583Y-104216208D01*
X222030580Y-104216211D01*
X222030579Y-104216213D01*
X221896223Y-104408093D01*
X221874440Y-104454808D01*
X221797229Y-104620387D01*
X221797225Y-104620396D01*
X221736603Y-104846643D01*
X221736601Y-104846653D01*
X221716186Y-105079999D01*
X221716186Y-105080000D01*
X221736601Y-105313346D01*
X221736603Y-105313356D01*
X221797225Y-105539603D01*
X221797227Y-105539607D01*
X221797228Y-105539611D01*
X221896223Y-105751907D01*
X222030579Y-105943787D01*
X222196213Y-106109421D01*
X222388093Y-106243777D01*
X222600389Y-106342772D01*
X222826649Y-106403398D01*
X223013329Y-106419730D01*
X223059999Y-106423814D01*
X223060000Y-106423814D01*
X223060001Y-106423814D01*
X223098891Y-106420411D01*
X223293351Y-106403398D01*
X223519611Y-106342772D01*
X223731907Y-106243777D01*
X223923787Y-106109421D01*
X224089421Y-105943787D01*
X224223777Y-105751907D01*
X224223777Y-105751905D01*
X224226882Y-105747472D01*
X224228188Y-105748386D01*
X224273453Y-105705213D01*
X224342058Y-105691980D01*
X224406926Y-105717937D01*
X224432775Y-105747765D01*
X224433553Y-105747221D01*
X224493545Y-105832899D01*
X224493546Y-105832900D01*
X225200000Y-105126446D01*
X225200000Y-105132661D01*
X225227259Y-105234394D01*
X225279920Y-105325606D01*
X225354394Y-105400080D01*
X225445606Y-105452741D01*
X225547339Y-105480000D01*
X225553553Y-105480000D01*
X224847098Y-106186453D01*
X224928343Y-106243341D01*
X224928345Y-106243342D01*
X225140558Y-106342298D01*
X225140567Y-106342302D01*
X225366731Y-106402902D01*
X225366741Y-106402904D01*
X225599998Y-106423312D01*
X225600002Y-106423312D01*
X225833258Y-106402904D01*
X225833268Y-106402902D01*
X226059432Y-106342302D01*
X226059441Y-106342298D01*
X226271655Y-106243342D01*
X226352900Y-106186453D01*
X225646448Y-105480000D01*
X225652661Y-105480000D01*
X225754394Y-105452741D01*
X225845606Y-105400080D01*
X225920080Y-105325606D01*
X225972741Y-105234394D01*
X226000000Y-105132661D01*
X226000000Y-105126447D01*
X226706453Y-105832900D01*
X226763342Y-105751655D01*
X226862298Y-105539441D01*
X226862302Y-105539432D01*
X226922902Y-105313268D01*
X226922904Y-105313258D01*
X226943312Y-105080001D01*
X226943312Y-105079998D01*
X226922904Y-104846741D01*
X226922902Y-104846731D01*
X226862302Y-104620567D01*
X226862298Y-104620558D01*
X226763342Y-104408345D01*
X226763341Y-104408343D01*
X226706453Y-104327099D01*
X226706453Y-104327098D01*
X226000000Y-105033551D01*
X226000000Y-105027339D01*
X225972741Y-104925606D01*
X225920080Y-104834394D01*
X225845606Y-104759920D01*
X225754394Y-104707259D01*
X225652661Y-104680000D01*
X225646447Y-104680000D01*
X226352900Y-103973546D01*
X226352899Y-103973545D01*
X226267221Y-103913553D01*
X226268181Y-103912181D01*
X226225207Y-103867115D01*
X226211981Y-103798509D01*
X226237946Y-103733643D01*
X226267985Y-103707615D01*
X226267472Y-103706882D01*
X226271905Y-103703777D01*
X226271907Y-103703777D01*
X226463787Y-103569421D01*
X226629421Y-103403787D01*
X226763777Y-103211907D01*
X226862772Y-102999611D01*
X226923398Y-102773351D01*
X226943814Y-102540000D01*
X226923398Y-102306649D01*
X226862772Y-102080389D01*
X226763777Y-101868093D01*
X226629421Y-101676213D01*
X226463787Y-101510579D01*
X226271907Y-101376223D01*
X226271905Y-101376222D01*
X226267472Y-101373118D01*
X226268481Y-101371676D01*
X226225712Y-101326828D01*
X226212484Y-101258222D01*
X226238447Y-101193355D01*
X226268048Y-101167705D01*
X226267472Y-101166882D01*
X226271905Y-101163777D01*
X226271907Y-101163777D01*
X226463787Y-101029421D01*
X226629421Y-100863787D01*
X226671722Y-100803374D01*
X226726298Y-100759751D01*
X226773296Y-100750500D01*
X227153920Y-100750500D01*
X227251462Y-100731096D01*
X227298913Y-100721658D01*
X227435495Y-100665084D01*
X227484729Y-100632186D01*
X227494419Y-100625712D01*
X227514312Y-100612420D01*
X227558416Y-100582952D01*
X231142951Y-96998416D01*
X231225084Y-96875495D01*
X231281658Y-96738913D01*
X231310500Y-96593918D01*
X231310500Y-96446083D01*
X231310500Y-80466082D01*
X231310500Y-80466079D01*
X231296758Y-80396998D01*
X231287597Y-80350942D01*
X231281659Y-80321088D01*
X231227408Y-80190117D01*
X231225764Y-80185522D01*
X231142954Y-80061588D01*
X231142953Y-80061587D01*
X231142951Y-80061584D01*
X231038416Y-79957049D01*
X223292870Y-72211502D01*
X223259385Y-72150179D01*
X223257023Y-72113018D01*
X223265162Y-72020000D01*
X223246549Y-71807253D01*
X223204581Y-71650627D01*
X223191278Y-71600977D01*
X223191277Y-71600976D01*
X223191276Y-71600970D01*
X223101021Y-71407419D01*
X222978529Y-71232481D01*
X222978527Y-71232478D01*
X222827521Y-71081472D01*
X222652578Y-70958977D01*
X222652579Y-70958977D01*
X222523547Y-70898809D01*
X222459030Y-70868724D01*
X222459026Y-70868723D01*
X222459022Y-70868721D01*
X222252752Y-70813452D01*
X222252748Y-70813451D01*
X222252747Y-70813451D01*
X222252746Y-70813450D01*
X222252741Y-70813450D01*
X222040002Y-70794838D01*
X222039998Y-70794838D01*
X221827258Y-70813450D01*
X221827247Y-70813452D01*
X221620977Y-70868721D01*
X221620968Y-70868725D01*
X221427421Y-70958977D01*
X221252478Y-71081472D01*
X221101472Y-71232478D01*
X220978977Y-71407421D01*
X220888725Y-71600968D01*
X220888721Y-71600977D01*
X220833452Y-71807247D01*
X220833450Y-71807258D01*
X220814838Y-72019998D01*
X220814838Y-72020001D01*
X220833450Y-72232741D01*
X220833452Y-72232752D01*
X220888721Y-72439022D01*
X220888723Y-72439026D01*
X220888724Y-72439030D01*
X220931171Y-72530058D01*
X220978977Y-72632578D01*
X221101472Y-72807521D01*
X221252478Y-72958527D01*
X221252481Y-72958529D01*
X221427419Y-73081021D01*
X221427421Y-73081022D01*
X221427420Y-73081022D01*
X221491936Y-73111106D01*
X221620970Y-73171276D01*
X221827253Y-73226549D01*
X221979215Y-73239844D01*
X222039998Y-73245162D01*
X222039999Y-73245162D01*
X222039999Y-73245161D01*
X222040000Y-73245162D01*
X222133015Y-73237023D01*
X222201512Y-73250789D01*
X222231502Y-73272870D01*
X229773181Y-80814548D01*
X229806666Y-80875871D01*
X229809500Y-80902229D01*
X229809500Y-96157770D01*
X229789815Y-96224809D01*
X229773181Y-96245451D01*
X226838109Y-99180522D01*
X226776786Y-99214007D01*
X226707094Y-99209023D01*
X226651161Y-99167151D01*
X226648854Y-99163965D01*
X226629426Y-99136220D01*
X226629425Y-99136219D01*
X226629421Y-99136213D01*
X226463787Y-98970579D01*
X226271907Y-98836223D01*
X226059611Y-98737228D01*
X226059607Y-98737227D01*
X226059603Y-98737225D01*
X225833356Y-98676603D01*
X225833346Y-98676601D01*
X225600001Y-98656186D01*
X225599998Y-98656186D01*
X225397878Y-98673869D01*
X225329378Y-98660102D01*
X225299390Y-98638022D01*
X223798421Y-97137052D01*
X223798414Y-97137046D01*
X223724729Y-97087812D01*
X223724729Y-97087813D01*
X223675491Y-97054913D01*
X223538917Y-96998343D01*
X223538907Y-96998340D01*
X223393920Y-96969500D01*
X223393918Y-96969500D01*
X197326082Y-96969500D01*
X197326076Y-96969500D01*
X197297242Y-96975234D01*
X197297243Y-96975235D01*
X197181093Y-96998339D01*
X197181083Y-96998342D01*
X197101081Y-97031479D01*
X197101082Y-97031480D01*
X197044505Y-97054915D01*
X196962372Y-97109795D01*
X196921585Y-97137047D01*
X196921581Y-97137050D01*
X180180608Y-113878022D01*
X180119285Y-113911507D01*
X180082120Y-113913869D01*
X179880002Y-113896186D01*
X179879999Y-113896186D01*
X179646653Y-113916601D01*
X179646643Y-113916603D01*
X179420396Y-113977225D01*
X179420389Y-113977227D01*
X179420389Y-113977228D01*
X179208093Y-114076223D01*
X179016213Y-114210579D01*
X179016211Y-114210580D01*
X179016208Y-114210583D01*
X178850583Y-114376208D01*
X178850580Y-114376211D01*
X178850579Y-114376213D01*
X178772936Y-114487099D01*
X178713118Y-114572528D01*
X178711819Y-114571618D01*
X178666505Y-114614807D01*
X178597895Y-114628015D01*
X178533036Y-114602033D01*
X178507224Y-114572234D01*
X178506447Y-114572779D01*
X178446453Y-114487099D01*
X178446453Y-114487098D01*
X177740000Y-115193551D01*
X177740000Y-115187339D01*
X177712741Y-115085606D01*
X177660080Y-114994394D01*
X177585606Y-114919920D01*
X177494394Y-114867259D01*
X177392661Y-114840000D01*
X177386447Y-114840000D01*
X178092900Y-114133546D01*
X178092899Y-114133545D01*
X178011656Y-114076658D01*
X178011654Y-114076657D01*
X177799441Y-113977701D01*
X177799432Y-113977697D01*
X177573268Y-113917097D01*
X177573258Y-113917095D01*
X177340002Y-113896688D01*
X177339998Y-113896688D01*
X177106741Y-113917095D01*
X177106731Y-113917097D01*
X176880567Y-113977697D01*
X176880558Y-113977701D01*
X176668341Y-114076659D01*
X176587099Y-114133544D01*
X176587098Y-114133545D01*
X177293554Y-114840000D01*
X177287339Y-114840000D01*
X177185606Y-114867259D01*
X177094394Y-114919920D01*
X177019920Y-114994394D01*
X176967259Y-115085606D01*
X176940000Y-115187339D01*
X176940000Y-115193553D01*
X176233545Y-114487098D01*
X176233544Y-114487099D01*
X176173553Y-114572778D01*
X176172187Y-114571821D01*
X176127081Y-114614808D01*
X176058471Y-114628014D01*
X175993613Y-114602029D01*
X175967614Y-114572014D01*
X175966882Y-114572528D01*
X175963777Y-114568093D01*
X175829421Y-114376213D01*
X175663787Y-114210579D01*
X175471907Y-114076223D01*
X175259611Y-113977228D01*
X175259607Y-113977227D01*
X175259603Y-113977225D01*
X175033356Y-113916603D01*
X175033346Y-113916601D01*
X174800001Y-113896186D01*
X174799999Y-113896186D01*
X174566653Y-113916601D01*
X174566643Y-113916603D01*
X174340396Y-113977225D01*
X174340389Y-113977227D01*
X174340389Y-113977228D01*
X174128093Y-114076223D01*
X173936213Y-114210579D01*
X173936211Y-114210580D01*
X173936208Y-114210583D01*
X173770583Y-114376208D01*
X173770580Y-114376211D01*
X173770579Y-114376213D01*
X173636223Y-114568093D01*
X173614440Y-114614808D01*
X173537229Y-114780387D01*
X173537225Y-114780396D01*
X173476603Y-115006643D01*
X173476601Y-115006653D01*
X173456186Y-115239999D01*
X173456186Y-115240000D01*
X173476601Y-115473346D01*
X173476603Y-115473356D01*
X173537225Y-115699603D01*
X173537227Y-115699607D01*
X173537228Y-115699611D01*
X173636223Y-115911907D01*
X173770579Y-116103787D01*
X173770583Y-116103791D01*
X173888181Y-116221389D01*
X173921666Y-116282712D01*
X173924500Y-116309070D01*
X173924500Y-116710930D01*
X173904815Y-116777969D01*
X173888181Y-116798611D01*
X173770583Y-116916208D01*
X173770580Y-116916211D01*
X173770579Y-116916213D01*
X173636223Y-117108093D01*
X173614440Y-117154808D01*
X173537229Y-117320387D01*
X173537225Y-117320396D01*
X173476603Y-117546643D01*
X173476601Y-117546653D01*
X173456186Y-117779999D01*
X173456186Y-117780000D01*
X173476601Y-118013346D01*
X173476603Y-118013356D01*
X173537225Y-118239603D01*
X173537227Y-118239607D01*
X173537228Y-118239611D01*
X173636223Y-118451907D01*
X173770579Y-118643787D01*
X173770583Y-118643791D01*
X173888181Y-118761389D01*
X173921666Y-118822712D01*
X173924500Y-118849070D01*
X173924500Y-121636233D01*
X173958143Y-121805366D01*
X173958146Y-121805378D01*
X174024138Y-121964698D01*
X174024145Y-121964711D01*
X174119954Y-122108098D01*
X174119957Y-122108102D01*
X176159061Y-124147205D01*
X176192546Y-124208528D01*
X176194909Y-124245685D01*
X176194532Y-124249997D01*
X176194532Y-124250001D01*
X176214364Y-124476686D01*
X176214366Y-124476697D01*
X176273258Y-124696488D01*
X176273261Y-124696497D01*
X176369431Y-124902732D01*
X176369432Y-124902734D01*
X176499954Y-125089141D01*
X176660858Y-125250045D01*
X176660861Y-125250047D01*
X176847266Y-125380568D01*
X177053504Y-125476739D01*
X177273308Y-125535635D01*
X177435230Y-125549801D01*
X177499998Y-125555468D01*
X177500000Y-125555468D01*
X177500002Y-125555468D01*
X177556673Y-125550509D01*
X177726692Y-125535635D01*
X177946496Y-125476739D01*
X178152734Y-125380568D01*
X178339139Y-125250047D01*
X178500047Y-125089139D01*
X178630568Y-124902734D01*
X178726739Y-124696496D01*
X178785635Y-124476692D01*
X178805468Y-124250000D01*
X178805090Y-124245685D01*
X178799801Y-124185230D01*
X178785635Y-124023308D01*
X178726739Y-123803504D01*
X178630568Y-123597266D01*
X178500047Y-123410861D01*
X178500045Y-123410858D01*
X178339141Y-123249954D01*
X178152734Y-123119432D01*
X178152730Y-123119430D01*
X178137022Y-123112105D01*
X178084583Y-123065931D01*
X178065433Y-122998737D01*
X178085650Y-122931857D01*
X178137028Y-122887340D01*
X178152481Y-122880134D01*
X178225471Y-122829024D01*
X177546447Y-122150000D01*
X177552661Y-122150000D01*
X177654394Y-122122741D01*
X177745606Y-122070080D01*
X177820080Y-121995606D01*
X177872741Y-121904394D01*
X177900000Y-121802661D01*
X177900000Y-121796447D01*
X178579024Y-122475471D01*
X178630136Y-122402478D01*
X178726264Y-122196331D01*
X178726269Y-122196317D01*
X178785139Y-121976610D01*
X178785141Y-121976599D01*
X178804966Y-121750002D01*
X178804966Y-121749997D01*
X178785141Y-121523400D01*
X178785139Y-121523389D01*
X178726269Y-121303682D01*
X178726264Y-121303668D01*
X178630136Y-121097521D01*
X178630132Y-121097513D01*
X178579025Y-121024526D01*
X177900000Y-121703551D01*
X177900000Y-121697339D01*
X177872741Y-121595606D01*
X177820080Y-121504394D01*
X177745606Y-121429920D01*
X177654394Y-121377259D01*
X177552661Y-121350000D01*
X177546448Y-121350000D01*
X178225472Y-120670974D01*
X178152478Y-120619863D01*
X177946331Y-120523735D01*
X177946317Y-120523730D01*
X177726610Y-120464860D01*
X177726599Y-120464858D01*
X177500002Y-120445034D01*
X177499998Y-120445034D01*
X177273400Y-120464858D01*
X177273389Y-120464860D01*
X177053682Y-120523730D01*
X177053673Y-120523734D01*
X176847516Y-120619866D01*
X176847512Y-120619868D01*
X176774526Y-120670973D01*
X176774526Y-120670974D01*
X177453553Y-121350000D01*
X177447339Y-121350000D01*
X177345606Y-121377259D01*
X177254394Y-121429920D01*
X177179920Y-121504394D01*
X177127259Y-121595606D01*
X177100000Y-121697339D01*
X177100000Y-121703552D01*
X176420974Y-121024526D01*
X176420973Y-121024526D01*
X176369868Y-121097512D01*
X176369866Y-121097516D01*
X176273734Y-121303673D01*
X176273731Y-121303679D01*
X176227480Y-121476293D01*
X176191115Y-121535953D01*
X176128268Y-121566482D01*
X176058892Y-121558187D01*
X176020024Y-121531880D01*
X175711819Y-121223675D01*
X175678334Y-121162352D01*
X175675500Y-121135994D01*
X175675500Y-118849070D01*
X175695185Y-118782031D01*
X175711819Y-118761389D01*
X175729525Y-118743683D01*
X175829421Y-118643787D01*
X175963777Y-118451907D01*
X175963777Y-118451905D01*
X175966882Y-118447472D01*
X175968188Y-118448386D01*
X176013453Y-118405213D01*
X176082058Y-118391980D01*
X176146926Y-118417937D01*
X176172775Y-118447765D01*
X176173553Y-118447221D01*
X176233545Y-118532899D01*
X176233546Y-118532900D01*
X176940000Y-117826446D01*
X176940000Y-117832661D01*
X176967259Y-117934394D01*
X177019920Y-118025606D01*
X177094394Y-118100080D01*
X177185606Y-118152741D01*
X177287339Y-118180000D01*
X177293553Y-118180000D01*
X176587098Y-118886453D01*
X176668343Y-118943341D01*
X176668345Y-118943342D01*
X176880558Y-119042298D01*
X176880567Y-119042302D01*
X177106731Y-119102902D01*
X177106741Y-119102904D01*
X177339998Y-119123312D01*
X177340002Y-119123312D01*
X177573258Y-119102904D01*
X177573268Y-119102902D01*
X177799432Y-119042302D01*
X177799441Y-119042298D01*
X178011655Y-118943342D01*
X178092900Y-118886453D01*
X177386448Y-118180000D01*
X177392661Y-118180000D01*
X177494394Y-118152741D01*
X177585606Y-118100080D01*
X177660080Y-118025606D01*
X177712741Y-117934394D01*
X177740000Y-117832661D01*
X177740000Y-117826447D01*
X178446453Y-118532900D01*
X178506447Y-118447221D01*
X178507819Y-118448181D01*
X178552885Y-118405208D01*
X178621491Y-118391982D01*
X178686357Y-118417947D01*
X178712385Y-118447984D01*
X178713118Y-118447472D01*
X178716222Y-118451905D01*
X178716223Y-118451907D01*
X178850579Y-118643787D01*
X179016213Y-118809421D01*
X179208093Y-118943777D01*
X179420389Y-119042772D01*
X179646649Y-119103398D01*
X179833329Y-119119730D01*
X179879999Y-119123814D01*
X179880000Y-119123814D01*
X179880001Y-119123814D01*
X179918891Y-119120411D01*
X180113351Y-119103398D01*
X180339611Y-119042772D01*
X180551907Y-118943777D01*
X180743787Y-118809421D01*
X180909421Y-118643787D01*
X181043777Y-118451907D01*
X181043777Y-118451905D01*
X181046882Y-118447472D01*
X181048323Y-118448481D01*
X181093172Y-118405712D01*
X181161778Y-118392484D01*
X181226645Y-118418447D01*
X181252294Y-118448048D01*
X181253118Y-118447472D01*
X181256222Y-118451905D01*
X181256223Y-118451907D01*
X181390579Y-118643787D01*
X181390583Y-118643791D01*
X181556209Y-118809418D01*
X181556212Y-118809420D01*
X181556213Y-118809421D01*
X181616623Y-118851720D01*
X181660248Y-118906296D01*
X181669500Y-118953295D01*
X181669500Y-125068918D01*
X181669500Y-125068920D01*
X181669499Y-125068920D01*
X181698340Y-125213907D01*
X181698343Y-125213917D01*
X181713308Y-125250045D01*
X181754916Y-125350495D01*
X181768305Y-125370534D01*
X181774912Y-125380422D01*
X181837049Y-125473418D01*
X181837052Y-125473421D01*
X183213181Y-126849548D01*
X183246666Y-126910871D01*
X183249500Y-126937229D01*
X183249500Y-129444699D01*
X183229815Y-129511738D01*
X183177011Y-129557493D01*
X183164507Y-129562403D01*
X183131962Y-129573188D01*
X183080668Y-129590185D01*
X183080663Y-129590187D01*
X182931342Y-129682289D01*
X182807289Y-129806342D01*
X182711551Y-129961559D01*
X182659603Y-130008283D01*
X182590640Y-130019506D01*
X182526558Y-129991662D01*
X182518331Y-129984143D01*
X182379464Y-129845276D01*
X182379459Y-129845272D01*
X182207557Y-129720379D01*
X182018215Y-129623903D01*
X181816124Y-129558241D01*
X181750000Y-129547768D01*
X181750000Y-130595854D01*
X181683343Y-130557370D01*
X181562535Y-130525000D01*
X181437465Y-130525000D01*
X181316657Y-130557370D01*
X181250000Y-130595854D01*
X181250000Y-129547768D01*
X181249999Y-129547768D01*
X181183875Y-129558241D01*
X180981784Y-129623903D01*
X180792442Y-129720379D01*
X180620540Y-129845272D01*
X180620535Y-129845276D01*
X180470276Y-129995535D01*
X180470272Y-129995540D01*
X180350627Y-130160218D01*
X180295297Y-130202884D01*
X180225684Y-130208863D01*
X180163889Y-130176257D01*
X180149991Y-130160218D01*
X180030109Y-129995214D01*
X180030105Y-129995209D01*
X179879786Y-129844890D01*
X179707820Y-129719951D01*
X179518414Y-129623444D01*
X179518413Y-129623443D01*
X179518412Y-129623443D01*
X179316243Y-129557754D01*
X179316241Y-129557753D01*
X179316240Y-129557753D01*
X179154957Y-129532208D01*
X179106287Y-129524500D01*
X178893713Y-129524500D01*
X178845042Y-129532208D01*
X178683760Y-129557753D01*
X178481585Y-129623444D01*
X178292179Y-129719951D01*
X178120213Y-129844890D01*
X177969894Y-129995209D01*
X177969890Y-129995214D01*
X177850318Y-130159793D01*
X177794989Y-130202459D01*
X177725375Y-130208438D01*
X177663580Y-130175833D01*
X177649682Y-130159793D01*
X177530109Y-129995214D01*
X177530105Y-129995209D01*
X177379786Y-129844890D01*
X177207820Y-129719951D01*
X177018414Y-129623444D01*
X177018413Y-129623443D01*
X177018412Y-129623443D01*
X176816243Y-129557754D01*
X176816241Y-129557753D01*
X176816240Y-129557753D01*
X176654957Y-129532208D01*
X176606287Y-129524500D01*
X176393713Y-129524500D01*
X176345042Y-129532208D01*
X176183760Y-129557753D01*
X175981585Y-129623444D01*
X175792179Y-129719951D01*
X175620213Y-129844890D01*
X175469894Y-129995209D01*
X175469890Y-129995214D01*
X175350318Y-130159793D01*
X175294989Y-130202459D01*
X175225375Y-130208438D01*
X175163580Y-130175833D01*
X175149682Y-130159793D01*
X175030109Y-129995214D01*
X175030105Y-129995209D01*
X174879786Y-129844890D01*
X174707820Y-129719951D01*
X174518414Y-129623444D01*
X174518413Y-129623443D01*
X174518412Y-129623443D01*
X174316243Y-129557754D01*
X174316241Y-129557753D01*
X174316240Y-129557753D01*
X174154957Y-129532208D01*
X174106287Y-129524500D01*
X173893713Y-129524500D01*
X173845042Y-129532208D01*
X173683760Y-129557753D01*
X173481585Y-129623444D01*
X173292179Y-129719951D01*
X173120213Y-129844890D01*
X172969894Y-129995209D01*
X172969890Y-129995214D01*
X172850318Y-130159793D01*
X172794989Y-130202459D01*
X172725375Y-130208438D01*
X172663580Y-130175833D01*
X172649682Y-130159793D01*
X172530109Y-129995214D01*
X172530105Y-129995209D01*
X172379786Y-129844890D01*
X172207820Y-129719951D01*
X172018414Y-129623444D01*
X172018413Y-129623443D01*
X172018412Y-129623443D01*
X171816243Y-129557754D01*
X171816241Y-129557753D01*
X171816240Y-129557753D01*
X171654957Y-129532208D01*
X171606287Y-129524500D01*
X171393713Y-129524500D01*
X171354202Y-129530757D01*
X171183759Y-129557753D01*
X171183755Y-129557754D01*
X171047130Y-129602146D01*
X170977289Y-129604141D01*
X170921132Y-129571896D01*
X167076819Y-125727583D01*
X167043334Y-125666260D01*
X167040500Y-125639902D01*
X167040500Y-118295782D01*
X167060185Y-118228743D01*
X167076814Y-118208106D01*
X199166913Y-86118007D01*
X199166916Y-86118006D01*
X199278720Y-86006202D01*
X199316736Y-85940352D01*
X199367300Y-85892138D01*
X199435907Y-85878913D01*
X199495245Y-85900777D01*
X199528093Y-85923777D01*
X199740389Y-86022772D01*
X199966649Y-86083398D01*
X200153329Y-86099730D01*
X200199999Y-86103814D01*
X200200000Y-86103814D01*
X200200001Y-86103814D01*
X200238891Y-86100411D01*
X200433351Y-86083398D01*
X200659611Y-86022772D01*
X200871907Y-85923777D01*
X201063787Y-85789421D01*
X201229421Y-85623787D01*
X201363777Y-85431907D01*
X201363777Y-85431905D01*
X201366882Y-85427472D01*
X201368323Y-85428481D01*
X201413172Y-85385712D01*
X201481778Y-85372484D01*
X201546645Y-85398447D01*
X201572294Y-85428048D01*
X201573118Y-85427472D01*
X201576222Y-85431905D01*
X201576223Y-85431907D01*
X201710579Y-85623787D01*
X201876213Y-85789421D01*
X202068093Y-85923777D01*
X202280389Y-86022772D01*
X202506649Y-86083398D01*
X202693329Y-86099730D01*
X202739999Y-86103814D01*
X202740000Y-86103814D01*
X202740001Y-86103814D01*
X202778891Y-86100411D01*
X202973351Y-86083398D01*
X203199611Y-86022772D01*
X203411907Y-85923777D01*
X203603787Y-85789421D01*
X203769421Y-85623787D01*
X203903777Y-85431907D01*
X203903777Y-85431905D01*
X203906882Y-85427472D01*
X203908323Y-85428481D01*
X203953172Y-85385712D01*
X204021778Y-85372484D01*
X204086645Y-85398447D01*
X204112294Y-85428048D01*
X204113118Y-85427472D01*
X204116222Y-85431905D01*
X204116223Y-85431907D01*
X204250579Y-85623787D01*
X204416213Y-85789421D01*
X204608093Y-85923777D01*
X204820389Y-86022772D01*
X205046649Y-86083398D01*
X205233329Y-86099730D01*
X205279999Y-86103814D01*
X205280000Y-86103814D01*
X205280001Y-86103814D01*
X205318891Y-86100411D01*
X205513351Y-86083398D01*
X205739611Y-86022772D01*
X205951907Y-85923777D01*
X206143787Y-85789421D01*
X206309421Y-85623787D01*
X206443777Y-85431907D01*
X206443777Y-85431905D01*
X206446882Y-85427472D01*
X206448323Y-85428481D01*
X206493172Y-85385712D01*
X206561778Y-85372484D01*
X206626645Y-85398447D01*
X206652294Y-85428048D01*
X206653118Y-85427472D01*
X206656222Y-85431905D01*
X206656223Y-85431907D01*
X206790579Y-85623787D01*
X206956213Y-85789421D01*
X207148093Y-85923777D01*
X207360389Y-86022772D01*
X207586649Y-86083398D01*
X207773329Y-86099730D01*
X207819999Y-86103814D01*
X207820000Y-86103814D01*
X207820001Y-86103814D01*
X207858891Y-86100411D01*
X208053351Y-86083398D01*
X208279611Y-86022772D01*
X208491907Y-85923777D01*
X208683787Y-85789421D01*
X208849421Y-85623787D01*
X208983777Y-85431907D01*
X208983777Y-85431905D01*
X208986882Y-85427472D01*
X208988323Y-85428481D01*
X209033172Y-85385712D01*
X209101778Y-85372484D01*
X209166645Y-85398447D01*
X209192294Y-85428048D01*
X209193118Y-85427472D01*
X209196222Y-85431905D01*
X209196223Y-85431907D01*
X209330579Y-85623787D01*
X209496213Y-85789421D01*
X209688093Y-85923777D01*
X209900389Y-86022772D01*
X210126649Y-86083398D01*
X210313329Y-86099730D01*
X210359999Y-86103814D01*
X210360000Y-86103814D01*
X210360001Y-86103814D01*
X210398891Y-86100411D01*
X210593351Y-86083398D01*
X210819611Y-86022772D01*
X211031907Y-85923777D01*
X211223787Y-85789421D01*
X211389421Y-85623787D01*
X211523777Y-85431907D01*
X211523777Y-85431905D01*
X211526882Y-85427472D01*
X211528323Y-85428481D01*
X211573172Y-85385712D01*
X211641778Y-85372484D01*
X211706645Y-85398447D01*
X211732294Y-85428048D01*
X211733118Y-85427472D01*
X211736222Y-85431905D01*
X211736223Y-85431907D01*
X211870579Y-85623787D01*
X212036213Y-85789421D01*
X212228093Y-85923777D01*
X212440389Y-86022772D01*
X212666649Y-86083398D01*
X212853329Y-86099730D01*
X212899999Y-86103814D01*
X212900000Y-86103814D01*
X212900001Y-86103814D01*
X212938891Y-86100411D01*
X213133351Y-86083398D01*
X213359611Y-86022772D01*
X213571907Y-85923777D01*
X213763787Y-85789421D01*
X213929421Y-85623787D01*
X214063777Y-85431907D01*
X214063777Y-85431905D01*
X214066882Y-85427472D01*
X214068323Y-85428481D01*
X214113172Y-85385712D01*
X214181778Y-85372484D01*
X214246645Y-85398447D01*
X214272294Y-85428048D01*
X214273118Y-85427472D01*
X214276222Y-85431905D01*
X214276223Y-85431907D01*
X214410579Y-85623787D01*
X214576213Y-85789421D01*
X214768093Y-85923777D01*
X214980389Y-86022772D01*
X215206649Y-86083398D01*
X215393329Y-86099730D01*
X215439999Y-86103814D01*
X215440000Y-86103814D01*
X215440001Y-86103814D01*
X215478891Y-86100411D01*
X215673351Y-86083398D01*
X215899611Y-86022772D01*
X216111907Y-85923777D01*
X216303787Y-85789421D01*
X216469421Y-85623787D01*
X216603777Y-85431907D01*
X216603777Y-85431905D01*
X216606882Y-85427472D01*
X216608323Y-85428481D01*
X216653172Y-85385712D01*
X216721778Y-85372484D01*
X216786645Y-85398447D01*
X216812294Y-85428048D01*
X216813118Y-85427472D01*
X216816222Y-85431905D01*
X216816223Y-85431907D01*
X216950579Y-85623787D01*
X217116213Y-85789421D01*
X217308093Y-85923777D01*
X217520389Y-86022772D01*
X217746649Y-86083398D01*
X217933329Y-86099730D01*
X217979999Y-86103814D01*
X217980000Y-86103814D01*
X217980001Y-86103814D01*
X218018891Y-86100411D01*
X218213351Y-86083398D01*
X218439611Y-86022772D01*
X218651907Y-85923777D01*
X218843787Y-85789421D01*
X219009421Y-85623787D01*
X219143777Y-85431907D01*
X219143777Y-85431905D01*
X219146882Y-85427472D01*
X219148323Y-85428481D01*
X219193172Y-85385712D01*
X219261778Y-85372484D01*
X219326645Y-85398447D01*
X219352294Y-85428048D01*
X219353118Y-85427472D01*
X219356222Y-85431905D01*
X219356223Y-85431907D01*
X219490579Y-85623787D01*
X219656213Y-85789421D01*
X219848093Y-85923777D01*
X220060389Y-86022772D01*
X220286649Y-86083398D01*
X220473329Y-86099730D01*
X220519999Y-86103814D01*
X220520000Y-86103814D01*
X220520001Y-86103814D01*
X220558891Y-86100411D01*
X220753351Y-86083398D01*
X220979611Y-86022772D01*
X221191907Y-85923777D01*
X221383787Y-85789421D01*
X221549421Y-85623787D01*
X221683777Y-85431907D01*
X221683777Y-85431905D01*
X221686882Y-85427472D01*
X221688323Y-85428481D01*
X221733172Y-85385712D01*
X221801778Y-85372484D01*
X221866645Y-85398447D01*
X221892294Y-85428048D01*
X221893118Y-85427472D01*
X221896222Y-85431905D01*
X221896223Y-85431907D01*
X222030579Y-85623787D01*
X222196213Y-85789421D01*
X222388093Y-85923777D01*
X222388094Y-85923777D01*
X222392528Y-85926882D01*
X222391521Y-85928319D01*
X222434297Y-85973190D01*
X222447513Y-86041798D01*
X222421540Y-86106660D01*
X222391953Y-86132297D01*
X222392528Y-86133118D01*
X222388094Y-86136222D01*
X222388093Y-86136223D01*
X222196213Y-86270579D01*
X222196211Y-86270580D01*
X222196208Y-86270583D01*
X222030583Y-86436208D01*
X221896223Y-86628093D01*
X221797229Y-86840387D01*
X221797225Y-86840396D01*
X221736603Y-87066643D01*
X221736601Y-87066653D01*
X221716186Y-87299999D01*
X221716186Y-87300000D01*
X221736601Y-87533346D01*
X221736603Y-87533356D01*
X221797225Y-87759603D01*
X221797227Y-87759607D01*
X221797228Y-87759611D01*
X221896223Y-87971907D01*
X222030579Y-88163787D01*
X222196213Y-88329421D01*
X222388093Y-88463777D01*
X222388094Y-88463777D01*
X222392528Y-88466882D01*
X222391521Y-88468319D01*
X222434297Y-88513190D01*
X222447513Y-88581798D01*
X222421540Y-88646660D01*
X222391953Y-88672297D01*
X222392528Y-88673118D01*
X222388094Y-88676222D01*
X222388093Y-88676223D01*
X222196213Y-88810579D01*
X222196211Y-88810580D01*
X222196208Y-88810583D01*
X222030583Y-88976208D01*
X221896223Y-89168093D01*
X221797229Y-89380387D01*
X221797225Y-89380396D01*
X221736603Y-89606643D01*
X221736601Y-89606653D01*
X221716186Y-89839999D01*
X221716186Y-89840000D01*
X221736601Y-90073346D01*
X221736603Y-90073356D01*
X221797225Y-90299603D01*
X221797227Y-90299607D01*
X221797228Y-90299611D01*
X221896223Y-90511907D01*
X222030579Y-90703787D01*
X222196213Y-90869421D01*
X222388093Y-91003777D01*
X222388094Y-91003777D01*
X222392528Y-91006882D01*
X222391521Y-91008319D01*
X222434297Y-91053190D01*
X222447513Y-91121798D01*
X222421540Y-91186660D01*
X222391953Y-91212297D01*
X222392528Y-91213118D01*
X222388094Y-91216222D01*
X222388093Y-91216223D01*
X222196213Y-91350579D01*
X222196211Y-91350580D01*
X222196208Y-91350583D01*
X222030583Y-91516208D01*
X221896223Y-91708093D01*
X221797229Y-91920387D01*
X221797225Y-91920396D01*
X221736603Y-92146643D01*
X221736601Y-92146653D01*
X221716186Y-92379999D01*
X221716186Y-92380000D01*
X221736601Y-92613346D01*
X221736603Y-92613356D01*
X221797225Y-92839603D01*
X221797227Y-92839607D01*
X221797228Y-92839611D01*
X221896223Y-93051907D01*
X222030579Y-93243787D01*
X222196213Y-93409421D01*
X222388093Y-93543777D01*
X222600389Y-93642772D01*
X222826649Y-93703398D01*
X223013329Y-93719730D01*
X223059999Y-93723814D01*
X223060000Y-93723814D01*
X223060001Y-93723814D01*
X223098891Y-93720411D01*
X223293351Y-93703398D01*
X223519611Y-93642772D01*
X223731907Y-93543777D01*
X223923787Y-93409421D01*
X224089421Y-93243787D01*
X224223777Y-93051907D01*
X224223777Y-93051905D01*
X224226882Y-93047472D01*
X224228323Y-93048481D01*
X224273172Y-93005712D01*
X224341778Y-92992484D01*
X224406645Y-93018447D01*
X224432294Y-93048048D01*
X224433118Y-93047472D01*
X224436222Y-93051905D01*
X224436223Y-93051907D01*
X224570579Y-93243787D01*
X224736213Y-93409421D01*
X224928093Y-93543777D01*
X225140389Y-93642772D01*
X225366649Y-93703398D01*
X225553329Y-93719730D01*
X225599999Y-93723814D01*
X225600000Y-93723814D01*
X225600001Y-93723814D01*
X225638891Y-93720411D01*
X225833351Y-93703398D01*
X226059611Y-93642772D01*
X226271907Y-93543777D01*
X226463787Y-93409421D01*
X226629421Y-93243787D01*
X226763777Y-93051907D01*
X226862772Y-92839611D01*
X226923398Y-92613351D01*
X226943814Y-92380000D01*
X226923398Y-92146649D01*
X226862772Y-91920389D01*
X226763777Y-91708093D01*
X226629421Y-91516213D01*
X226463787Y-91350579D01*
X226271907Y-91216223D01*
X226271905Y-91216222D01*
X226267472Y-91213118D01*
X226268481Y-91211676D01*
X226225712Y-91166828D01*
X226212484Y-91098222D01*
X226238447Y-91033355D01*
X226268048Y-91007705D01*
X226267472Y-91006882D01*
X226271905Y-91003777D01*
X226271907Y-91003777D01*
X226463787Y-90869421D01*
X226629421Y-90703787D01*
X226763777Y-90511907D01*
X226862772Y-90299611D01*
X226923398Y-90073351D01*
X226943814Y-89840000D01*
X226923398Y-89606649D01*
X226870000Y-89407364D01*
X226862774Y-89380396D01*
X226862773Y-89380395D01*
X226862772Y-89380389D01*
X226763777Y-89168093D01*
X226629421Y-88976213D01*
X226463787Y-88810579D01*
X226271907Y-88676223D01*
X226271905Y-88676222D01*
X226267472Y-88673118D01*
X226268481Y-88671676D01*
X226225712Y-88626828D01*
X226212484Y-88558222D01*
X226238447Y-88493355D01*
X226268048Y-88467705D01*
X226267472Y-88466882D01*
X226271905Y-88463777D01*
X226271907Y-88463777D01*
X226463787Y-88329421D01*
X226629421Y-88163787D01*
X226763777Y-87971907D01*
X226862772Y-87759611D01*
X226923398Y-87533351D01*
X226943814Y-87300000D01*
X226923398Y-87066649D01*
X226862772Y-86840389D01*
X226763777Y-86628093D01*
X226629421Y-86436213D01*
X226463787Y-86270579D01*
X226271907Y-86136223D01*
X226271905Y-86136222D01*
X226267472Y-86133118D01*
X226268481Y-86131676D01*
X226225712Y-86086828D01*
X226212484Y-86018222D01*
X226238447Y-85953355D01*
X226268048Y-85927705D01*
X226267472Y-85926882D01*
X226271905Y-85923777D01*
X226271907Y-85923777D01*
X226463787Y-85789421D01*
X226629421Y-85623787D01*
X226763777Y-85431907D01*
X226862772Y-85219611D01*
X226923398Y-84993351D01*
X226943814Y-84760000D01*
X226923398Y-84526649D01*
X226862772Y-84300389D01*
X226763777Y-84088093D01*
X226629421Y-83896213D01*
X226463787Y-83730579D01*
X226271907Y-83596223D01*
X226271905Y-83596222D01*
X226267472Y-83593118D01*
X226268481Y-83591676D01*
X226225712Y-83546828D01*
X226212484Y-83478222D01*
X226238447Y-83413355D01*
X226268048Y-83387705D01*
X226267472Y-83386882D01*
X226271905Y-83383777D01*
X226271907Y-83383777D01*
X226463787Y-83249421D01*
X226629421Y-83083787D01*
X226763777Y-82891907D01*
X226862772Y-82679611D01*
X226923398Y-82453351D01*
X226943814Y-82220000D01*
X226923398Y-81986649D01*
X226862772Y-81760389D01*
X226763777Y-81548093D01*
X226629421Y-81356213D01*
X226463787Y-81190579D01*
X226271907Y-81056223D01*
X226059611Y-80957228D01*
X226059607Y-80957227D01*
X226059603Y-80957225D01*
X225833356Y-80896603D01*
X225833346Y-80896601D01*
X225600001Y-80876186D01*
X225599999Y-80876186D01*
X225366653Y-80896601D01*
X225366643Y-80896603D01*
X225140396Y-80957225D01*
X225140389Y-80957227D01*
X225140389Y-80957228D01*
X224928093Y-81056223D01*
X224736213Y-81190579D01*
X224736211Y-81190580D01*
X224736208Y-81190583D01*
X224570583Y-81356208D01*
X224570580Y-81356211D01*
X224570579Y-81356213D01*
X224438705Y-81544549D01*
X224433118Y-81552528D01*
X224431680Y-81551521D01*
X224386810Y-81594297D01*
X224318202Y-81607513D01*
X224253340Y-81581540D01*
X224227702Y-81551953D01*
X224226882Y-81552528D01*
X224221295Y-81544549D01*
X224089421Y-81356213D01*
X223923787Y-81190579D01*
X223731907Y-81056223D01*
X223519611Y-80957228D01*
X223519607Y-80957227D01*
X223519603Y-80957225D01*
X223293356Y-80896603D01*
X223293346Y-80896601D01*
X223060001Y-80876186D01*
X223059999Y-80876186D01*
X222826653Y-80896601D01*
X222826643Y-80896603D01*
X222600396Y-80957225D01*
X222600389Y-80957227D01*
X222600389Y-80957228D01*
X222388093Y-81056223D01*
X222196213Y-81190579D01*
X222196211Y-81190580D01*
X222196208Y-81190583D01*
X222030583Y-81356208D01*
X222030580Y-81356211D01*
X222030579Y-81356213D01*
X221898705Y-81544549D01*
X221893118Y-81552528D01*
X221891680Y-81551521D01*
X221846810Y-81594297D01*
X221778202Y-81607513D01*
X221713340Y-81581540D01*
X221687702Y-81551953D01*
X221686882Y-81552528D01*
X221681295Y-81544549D01*
X221549421Y-81356213D01*
X221383787Y-81190579D01*
X221191907Y-81056223D01*
X220979611Y-80957228D01*
X220979607Y-80957227D01*
X220979603Y-80957225D01*
X220753356Y-80896603D01*
X220753346Y-80896601D01*
X220520001Y-80876186D01*
X220519999Y-80876186D01*
X220286653Y-80896601D01*
X220286643Y-80896603D01*
X220060396Y-80957225D01*
X220060389Y-80957227D01*
X220060389Y-80957228D01*
X219848093Y-81056223D01*
X219656213Y-81190579D01*
X219656211Y-81190580D01*
X219656208Y-81190583D01*
X219490583Y-81356208D01*
X219490580Y-81356211D01*
X219490579Y-81356213D01*
X219358705Y-81544549D01*
X219353118Y-81552528D01*
X219351680Y-81551521D01*
X219306810Y-81594297D01*
X219238202Y-81607513D01*
X219173340Y-81581540D01*
X219147702Y-81551953D01*
X219146882Y-81552528D01*
X219141295Y-81544549D01*
X219009421Y-81356213D01*
X218843787Y-81190579D01*
X218651907Y-81056223D01*
X218439611Y-80957228D01*
X218439607Y-80957227D01*
X218439603Y-80957225D01*
X218213356Y-80896603D01*
X218213346Y-80896601D01*
X217980001Y-80876186D01*
X217979999Y-80876186D01*
X217746653Y-80896601D01*
X217746643Y-80896603D01*
X217520396Y-80957225D01*
X217520389Y-80957227D01*
X217520389Y-80957228D01*
X217308093Y-81056223D01*
X217116213Y-81190579D01*
X217116211Y-81190580D01*
X217116208Y-81190583D01*
X216950583Y-81356208D01*
X216950580Y-81356211D01*
X216950579Y-81356213D01*
X216818705Y-81544549D01*
X216813118Y-81552528D01*
X216811680Y-81551521D01*
X216766810Y-81594297D01*
X216698202Y-81607513D01*
X216633340Y-81581540D01*
X216607702Y-81551953D01*
X216606882Y-81552528D01*
X216601295Y-81544549D01*
X216469421Y-81356213D01*
X216303787Y-81190579D01*
X216111907Y-81056223D01*
X215899611Y-80957228D01*
X215899607Y-80957227D01*
X215899603Y-80957225D01*
X215673356Y-80896603D01*
X215673346Y-80896601D01*
X215440001Y-80876186D01*
X215439999Y-80876186D01*
X215206653Y-80896601D01*
X215206643Y-80896603D01*
X214980396Y-80957225D01*
X214980389Y-80957227D01*
X214980389Y-80957228D01*
X214768093Y-81056223D01*
X214576213Y-81190579D01*
X214576211Y-81190580D01*
X214576208Y-81190583D01*
X214410583Y-81356208D01*
X214410580Y-81356211D01*
X214410579Y-81356213D01*
X214278705Y-81544549D01*
X214273118Y-81552528D01*
X214271680Y-81551521D01*
X214226810Y-81594297D01*
X214158202Y-81607513D01*
X214093340Y-81581540D01*
X214067702Y-81551953D01*
X214066882Y-81552528D01*
X214061295Y-81544549D01*
X213929421Y-81356213D01*
X213763787Y-81190579D01*
X213571907Y-81056223D01*
X213359611Y-80957228D01*
X213359607Y-80957227D01*
X213359603Y-80957225D01*
X213133356Y-80896603D01*
X213133346Y-80896601D01*
X212900001Y-80876186D01*
X212899999Y-80876186D01*
X212666653Y-80896601D01*
X212666643Y-80896603D01*
X212440396Y-80957225D01*
X212440389Y-80957227D01*
X212440389Y-80957228D01*
X212228093Y-81056223D01*
X212036213Y-81190579D01*
X212036211Y-81190580D01*
X212036208Y-81190583D01*
X211870583Y-81356208D01*
X211870580Y-81356211D01*
X211870579Y-81356213D01*
X211738705Y-81544549D01*
X211733118Y-81552528D01*
X211731680Y-81551521D01*
X211686810Y-81594297D01*
X211618202Y-81607513D01*
X211553340Y-81581540D01*
X211527702Y-81551953D01*
X211526882Y-81552528D01*
X211521295Y-81544549D01*
X211389421Y-81356213D01*
X211223787Y-81190579D01*
X211031907Y-81056223D01*
X210819611Y-80957228D01*
X210819607Y-80957227D01*
X210819603Y-80957225D01*
X210593356Y-80896603D01*
X210593346Y-80896601D01*
X210360001Y-80876186D01*
X210359999Y-80876186D01*
X210126653Y-80896601D01*
X210126643Y-80896603D01*
X209900396Y-80957225D01*
X209900389Y-80957227D01*
X209900389Y-80957228D01*
X209688093Y-81056223D01*
X209496213Y-81190579D01*
X209496211Y-81190580D01*
X209496208Y-81190583D01*
X209330583Y-81356208D01*
X209330580Y-81356211D01*
X209330579Y-81356213D01*
X209198705Y-81544549D01*
X209193118Y-81552528D01*
X209191680Y-81551521D01*
X209146810Y-81594297D01*
X209078202Y-81607513D01*
X209013340Y-81581540D01*
X208987702Y-81551953D01*
X208986882Y-81552528D01*
X208981295Y-81544549D01*
X208849421Y-81356213D01*
X208683787Y-81190579D01*
X208491907Y-81056223D01*
X208279611Y-80957228D01*
X208279607Y-80957227D01*
X208279603Y-80957225D01*
X208053356Y-80896603D01*
X208053346Y-80896601D01*
X207820001Y-80876186D01*
X207819999Y-80876186D01*
X207586653Y-80896601D01*
X207586643Y-80896603D01*
X207360396Y-80957225D01*
X207360389Y-80957227D01*
X207360389Y-80957228D01*
X207148093Y-81056223D01*
X206956213Y-81190579D01*
X206956211Y-81190580D01*
X206956208Y-81190583D01*
X206790583Y-81356208D01*
X206790580Y-81356211D01*
X206790579Y-81356213D01*
X206658705Y-81544549D01*
X206653118Y-81552528D01*
X206651680Y-81551521D01*
X206606810Y-81594297D01*
X206538202Y-81607513D01*
X206473340Y-81581540D01*
X206447702Y-81551953D01*
X206446882Y-81552528D01*
X206441295Y-81544549D01*
X206309421Y-81356213D01*
X206143787Y-81190579D01*
X205951907Y-81056223D01*
X205739611Y-80957228D01*
X205739607Y-80957227D01*
X205739603Y-80957225D01*
X205513356Y-80896603D01*
X205513346Y-80896601D01*
X205280001Y-80876186D01*
X205279999Y-80876186D01*
X205046653Y-80896601D01*
X205046643Y-80896603D01*
X204820396Y-80957225D01*
X204820389Y-80957227D01*
X204820389Y-80957228D01*
X204608093Y-81056223D01*
X204416213Y-81190579D01*
X204416211Y-81190580D01*
X204416208Y-81190583D01*
X204250583Y-81356208D01*
X204250580Y-81356211D01*
X204250579Y-81356213D01*
X204118705Y-81544549D01*
X204113118Y-81552528D01*
X204111680Y-81551521D01*
X204066810Y-81594297D01*
X203998202Y-81607513D01*
X203933340Y-81581540D01*
X203907702Y-81551953D01*
X203906882Y-81552528D01*
X203901295Y-81544549D01*
X203769421Y-81356213D01*
X203603787Y-81190579D01*
X203411907Y-81056223D01*
X203199611Y-80957228D01*
X203199607Y-80957227D01*
X203199603Y-80957225D01*
X202973356Y-80896603D01*
X202973346Y-80896601D01*
X202740001Y-80876186D01*
X202739999Y-80876186D01*
X202506653Y-80896601D01*
X202506643Y-80896603D01*
X202280396Y-80957225D01*
X202280389Y-80957227D01*
X202280389Y-80957228D01*
X202068093Y-81056223D01*
X201876213Y-81190579D01*
X201876211Y-81190580D01*
X201876208Y-81190583D01*
X201710583Y-81356208D01*
X201710580Y-81356211D01*
X201710579Y-81356213D01*
X201578705Y-81544549D01*
X201573118Y-81552528D01*
X201571680Y-81551521D01*
X201526810Y-81594297D01*
X201458202Y-81607513D01*
X201393340Y-81581540D01*
X201367702Y-81551953D01*
X201366882Y-81552528D01*
X201361295Y-81544549D01*
X201229421Y-81356213D01*
X201063787Y-81190579D01*
X200871907Y-81056223D01*
X200659611Y-80957228D01*
X200659607Y-80957227D01*
X200659603Y-80957225D01*
X200433356Y-80896603D01*
X200433346Y-80896601D01*
X200200001Y-80876186D01*
X200199999Y-80876186D01*
X199966653Y-80896601D01*
X199966643Y-80896603D01*
X199845877Y-80928962D01*
X199776027Y-80927299D01*
X199726103Y-80896868D01*
X193136819Y-74307584D01*
X193103334Y-74246261D01*
X193100500Y-74219903D01*
X193100500Y-69910718D01*
X193120185Y-69843679D01*
X193168207Y-69800233D01*
X193207815Y-69780052D01*
X193207815Y-69780051D01*
X193207816Y-69780051D01*
X193326728Y-69693657D01*
X193379786Y-69655109D01*
X193379788Y-69655106D01*
X193379792Y-69655104D01*
X193530104Y-69504792D01*
X193649683Y-69340204D01*
X193705011Y-69297540D01*
X193774624Y-69291561D01*
X193836420Y-69324166D01*
X193850313Y-69340199D01*
X193952242Y-69480493D01*
X193969896Y-69504792D01*
X194120213Y-69655109D01*
X194292179Y-69780048D01*
X194292181Y-69780049D01*
X194292184Y-69780051D01*
X194481588Y-69876557D01*
X194683757Y-69942246D01*
X194893713Y-69975500D01*
X194893714Y-69975500D01*
X195106286Y-69975500D01*
X195106287Y-69975500D01*
X195309638Y-69943292D01*
X195378931Y-69952247D01*
X195416717Y-69978084D01*
X196797049Y-71358416D01*
X196901583Y-71462950D01*
X196901585Y-71462952D01*
X197024498Y-71545080D01*
X197024511Y-71545087D01*
X197159421Y-71600968D01*
X197161087Y-71601658D01*
X197161091Y-71601658D01*
X197161092Y-71601659D01*
X197306079Y-71630500D01*
X197306082Y-71630500D01*
X210193920Y-71630500D01*
X210291462Y-71611096D01*
X210338913Y-71601658D01*
X210475495Y-71545084D01*
X210524729Y-71512186D01*
X210598416Y-71462952D01*
X212062373Y-69998992D01*
X212123694Y-69965509D01*
X212178251Y-69969300D01*
X212179018Y-69966108D01*
X212183745Y-69967242D01*
X212183757Y-69967246D01*
X212393713Y-70000500D01*
X212393714Y-70000500D01*
X212606286Y-70000500D01*
X212606287Y-70000500D01*
X212816243Y-69967246D01*
X213018412Y-69901557D01*
X213207816Y-69805051D01*
X213242819Y-69779620D01*
X213379786Y-69680109D01*
X213379788Y-69680106D01*
X213379792Y-69680104D01*
X213530104Y-69529792D01*
X213530106Y-69529788D01*
X213530109Y-69529786D01*
X213655048Y-69357820D01*
X213655047Y-69357820D01*
X213655051Y-69357816D01*
X213751557Y-69168412D01*
X213817246Y-68966243D01*
X213850500Y-68756287D01*
X213850500Y-68243713D01*
X213817246Y-68033757D01*
X213751557Y-67831588D01*
X213655051Y-67642184D01*
X213639733Y-67621100D01*
X213571646Y-67527385D01*
X213548166Y-67461579D01*
X213563992Y-67393525D01*
X213614098Y-67344830D01*
X213671964Y-67330500D01*
X217337770Y-67330500D01*
X217404809Y-67350185D01*
X217425451Y-67366819D01*
X218015003Y-67956371D01*
X218568610Y-68509977D01*
X218602095Y-68571300D01*
X218597111Y-68640992D01*
X218568618Y-68685331D01*
X218561473Y-68692476D01*
X218438977Y-68867421D01*
X218348725Y-69060968D01*
X218348721Y-69060977D01*
X218293452Y-69267247D01*
X218293450Y-69267258D01*
X218274838Y-69479998D01*
X218274838Y-69480001D01*
X218293450Y-69692741D01*
X218293452Y-69692752D01*
X218348721Y-69899022D01*
X218348723Y-69899026D01*
X218348724Y-69899030D01*
X218368648Y-69941757D01*
X218438977Y-70092578D01*
X218561472Y-70267521D01*
X218712478Y-70418527D01*
X218712481Y-70418529D01*
X218887419Y-70541021D01*
X218887421Y-70541022D01*
X218887420Y-70541022D01*
X218951936Y-70571106D01*
X219080970Y-70631276D01*
X219287253Y-70686549D01*
X219439215Y-70699844D01*
X219499998Y-70705162D01*
X219500000Y-70705162D01*
X219500002Y-70705162D01*
X219553186Y-70700508D01*
X219712747Y-70686549D01*
X219919030Y-70631276D01*
X220112581Y-70541021D01*
X220287519Y-70418529D01*
X220438529Y-70267519D01*
X220561021Y-70092581D01*
X220651276Y-69899030D01*
X220706549Y-69692747D01*
X220722994Y-69504784D01*
X220725162Y-69480001D01*
X220725162Y-69479998D01*
X223354838Y-69479998D01*
X223354838Y-69480001D01*
X223373450Y-69692741D01*
X223373452Y-69692752D01*
X223428721Y-69899022D01*
X223428723Y-69899026D01*
X223428724Y-69899030D01*
X223448648Y-69941757D01*
X223518977Y-70092578D01*
X223641472Y-70267521D01*
X223792478Y-70418527D01*
X223792481Y-70418529D01*
X223967419Y-70541021D01*
X223967421Y-70541022D01*
X223967420Y-70541022D01*
X224031936Y-70571106D01*
X224160970Y-70631276D01*
X224367253Y-70686549D01*
X224519215Y-70699844D01*
X224579998Y-70705162D01*
X224580000Y-70705162D01*
X224580002Y-70705162D01*
X224633186Y-70700508D01*
X224792747Y-70686549D01*
X224999030Y-70631276D01*
X225192581Y-70541021D01*
X225367519Y-70418529D01*
X225518529Y-70267519D01*
X225641021Y-70092581D01*
X225731276Y-69899030D01*
X225786549Y-69692747D01*
X225802994Y-69504784D01*
X225805162Y-69480001D01*
X225805162Y-69479998D01*
X225798408Y-69402797D01*
X225786549Y-69267253D01*
X225731276Y-69060970D01*
X225702845Y-69000000D01*
X241159076Y-69000000D01*
X241178550Y-69284708D01*
X241178550Y-69284712D01*
X241178551Y-69284714D01*
X241189994Y-69339781D01*
X241236613Y-69564127D01*
X241236614Y-69564130D01*
X241332179Y-69833022D01*
X241332178Y-69833022D01*
X241425220Y-70012584D01*
X241463474Y-70086411D01*
X241628047Y-70319557D01*
X241628051Y-70319561D01*
X241628051Y-70319562D01*
X241822836Y-70528125D01*
X241838689Y-70541022D01*
X242044205Y-70708222D01*
X242044207Y-70708223D01*
X242044208Y-70708224D01*
X242288040Y-70856502D01*
X242288045Y-70856504D01*
X242418915Y-70913348D01*
X242549792Y-70970196D01*
X242824589Y-71047190D01*
X243073144Y-71081354D01*
X243107309Y-71086050D01*
X243107310Y-71086050D01*
X243392691Y-71086050D01*
X243426004Y-71081471D01*
X243675411Y-71047190D01*
X243950208Y-70970196D01*
X244211961Y-70856501D01*
X244455795Y-70708222D01*
X244677167Y-70528122D01*
X244871953Y-70319557D01*
X245036526Y-70086411D01*
X245167819Y-69833026D01*
X245263387Y-69564125D01*
X245321449Y-69284714D01*
X245340924Y-69000000D01*
X245321449Y-68715286D01*
X245263387Y-68435875D01*
X245257381Y-68418977D01*
X245167820Y-68166977D01*
X245167821Y-68166977D01*
X245093994Y-68024498D01*
X245036526Y-67913589D01*
X244871953Y-67680443D01*
X244871948Y-67680437D01*
X244698960Y-67495213D01*
X244677167Y-67471878D01*
X244677165Y-67471877D01*
X244677163Y-67471874D01*
X244473699Y-67306344D01*
X244455795Y-67291778D01*
X244455793Y-67291777D01*
X244455791Y-67291775D01*
X244211959Y-67143497D01*
X244211954Y-67143495D01*
X243950213Y-67029806D01*
X243950211Y-67029805D01*
X243950208Y-67029804D01*
X243821619Y-66993775D01*
X243675417Y-66952811D01*
X243675412Y-66952810D01*
X243675411Y-66952810D01*
X243534050Y-66933380D01*
X243392691Y-66913950D01*
X243392690Y-66913950D01*
X243107310Y-66913950D01*
X243107309Y-66913950D01*
X242824589Y-66952810D01*
X242824582Y-66952811D01*
X242620474Y-67010000D01*
X242549792Y-67029804D01*
X242549789Y-67029804D01*
X242549786Y-67029806D01*
X242549785Y-67029806D01*
X242288045Y-67143495D01*
X242288040Y-67143497D01*
X242044208Y-67291775D01*
X241822836Y-67471874D01*
X241628051Y-67680437D01*
X241628051Y-67680438D01*
X241628048Y-67680440D01*
X241628047Y-67680443D01*
X241596601Y-67724992D01*
X241463474Y-67913588D01*
X241332179Y-68166977D01*
X241236614Y-68435869D01*
X241236613Y-68435872D01*
X241178550Y-68715291D01*
X241159076Y-69000000D01*
X225702845Y-69000000D01*
X225641021Y-68867419D01*
X225518529Y-68692481D01*
X225518527Y-68692478D01*
X225367521Y-68541472D01*
X225192578Y-68418977D01*
X225192579Y-68418977D01*
X225063547Y-68358809D01*
X224999030Y-68328724D01*
X224999026Y-68328723D01*
X224999022Y-68328721D01*
X224792752Y-68273452D01*
X224792748Y-68273451D01*
X224792747Y-68273451D01*
X224792746Y-68273450D01*
X224792741Y-68273450D01*
X224580002Y-68254838D01*
X224579998Y-68254838D01*
X224367258Y-68273450D01*
X224367247Y-68273452D01*
X224160977Y-68328721D01*
X224160968Y-68328725D01*
X223967421Y-68418977D01*
X223792478Y-68541472D01*
X223641472Y-68692478D01*
X223518977Y-68867421D01*
X223428725Y-69060968D01*
X223428721Y-69060977D01*
X223373452Y-69267247D01*
X223373450Y-69267258D01*
X223354838Y-69479998D01*
X220725162Y-69479998D01*
X220718408Y-69402797D01*
X220706549Y-69267253D01*
X220651276Y-69060970D01*
X220561021Y-68867419D01*
X220438529Y-68692481D01*
X220438527Y-68692478D01*
X220286819Y-68540770D01*
X220253334Y-68479447D01*
X220250500Y-68453089D01*
X220250500Y-68306079D01*
X220221659Y-68161092D01*
X220221658Y-68161091D01*
X220221658Y-68161087D01*
X220179272Y-68058757D01*
X220165087Y-68024511D01*
X220165080Y-68024498D01*
X220082952Y-67901585D01*
X220034899Y-67853532D01*
X219978416Y-67797049D01*
X219191367Y-67010000D01*
X218393549Y-66212181D01*
X218360064Y-66150858D01*
X218365048Y-66081166D01*
X218406920Y-66025233D01*
X218472384Y-66000816D01*
X218481230Y-66000500D01*
X246125500Y-66000500D01*
X246192539Y-66020185D01*
G37*
%TD.AperFunction*%
%TA.AperFunction,Conductor*%
G36*
X188846645Y-118418447D02*
G01*
X188872294Y-118448048D01*
X188873118Y-118447472D01*
X188876222Y-118451905D01*
X188876223Y-118451907D01*
X189010579Y-118643787D01*
X189176213Y-118809421D01*
X189368093Y-118943777D01*
X189368100Y-118943780D01*
X189372784Y-118946485D01*
X189372209Y-118947479D01*
X189420344Y-118989860D01*
X189439500Y-119056071D01*
X189439500Y-125573330D01*
X189439499Y-125573348D01*
X189439499Y-125739054D01*
X189439498Y-125739054D01*
X189480424Y-125891787D01*
X189490890Y-125909914D01*
X189490891Y-125909916D01*
X189559477Y-126028712D01*
X189559481Y-126028717D01*
X189678349Y-126147585D01*
X189678355Y-126147590D01*
X192607874Y-129077109D01*
X192641359Y-129138432D01*
X192636375Y-129208124D01*
X192594503Y-129264057D01*
X192561148Y-129281832D01*
X192450476Y-129320557D01*
X192297737Y-129416530D01*
X192170184Y-129544083D01*
X192074211Y-129696822D01*
X192014631Y-129867091D01*
X192014630Y-129867096D01*
X191994435Y-130046342D01*
X191994435Y-130046349D01*
X192014630Y-130225595D01*
X192014631Y-130225600D01*
X192074211Y-130395869D01*
X192129410Y-130483717D01*
X192170184Y-130548608D01*
X192297738Y-130676162D01*
X192450478Y-130772135D01*
X192620745Y-130831714D01*
X192707669Y-130841507D01*
X192772080Y-130868572D01*
X192781465Y-130877046D01*
X193562237Y-131657819D01*
X193595722Y-131719142D01*
X193590738Y-131788834D01*
X193548866Y-131844767D01*
X193483402Y-131869184D01*
X193474556Y-131869500D01*
X185982230Y-131869500D01*
X185915191Y-131849815D01*
X185894549Y-131833181D01*
X185386818Y-131325450D01*
X185353333Y-131264127D01*
X185350499Y-131237769D01*
X185350499Y-130224998D01*
X185350498Y-130224981D01*
X185339999Y-130122203D01*
X185339998Y-130122200D01*
X185314861Y-130046342D01*
X185284814Y-129955666D01*
X185192712Y-129806344D01*
X185068656Y-129682288D01*
X184973253Y-129623443D01*
X184919336Y-129590187D01*
X184919331Y-129590185D01*
X184917082Y-129589439D01*
X184835495Y-129562404D01*
X184778051Y-129522632D01*
X184751228Y-129458116D01*
X184750500Y-129444699D01*
X184750500Y-126501079D01*
X184721659Y-126356092D01*
X184721658Y-126356091D01*
X184721658Y-126356087D01*
X184721656Y-126356082D01*
X184665087Y-126219511D01*
X184665080Y-126219498D01*
X184582952Y-126096585D01*
X184582951Y-126096584D01*
X184478416Y-125992049D01*
X183846270Y-125359903D01*
X183206819Y-124720451D01*
X183173334Y-124659128D01*
X183170500Y-124632770D01*
X183170500Y-118953295D01*
X183190185Y-118886256D01*
X183223376Y-118851720D01*
X183283787Y-118809421D01*
X183449421Y-118643787D01*
X183583777Y-118451907D01*
X183583777Y-118451905D01*
X183586882Y-118447472D01*
X183588323Y-118448481D01*
X183633172Y-118405712D01*
X183701778Y-118392484D01*
X183766645Y-118418447D01*
X183792294Y-118448048D01*
X183793118Y-118447472D01*
X183796222Y-118451905D01*
X183796223Y-118451907D01*
X183930579Y-118643787D01*
X184096213Y-118809421D01*
X184288093Y-118943777D01*
X184500389Y-119042772D01*
X184726649Y-119103398D01*
X184913329Y-119119730D01*
X184959999Y-119123814D01*
X184960000Y-119123814D01*
X184960001Y-119123814D01*
X184998891Y-119120411D01*
X185193351Y-119103398D01*
X185419611Y-119042772D01*
X185631907Y-118943777D01*
X185823787Y-118809421D01*
X185989421Y-118643787D01*
X186123777Y-118451907D01*
X186123777Y-118451905D01*
X186126882Y-118447472D01*
X186128323Y-118448481D01*
X186173172Y-118405712D01*
X186241778Y-118392484D01*
X186306645Y-118418447D01*
X186332294Y-118448048D01*
X186333118Y-118447472D01*
X186336222Y-118451905D01*
X186336223Y-118451907D01*
X186470579Y-118643787D01*
X186636213Y-118809421D01*
X186828093Y-118943777D01*
X187040389Y-119042772D01*
X187266649Y-119103398D01*
X187453329Y-119119730D01*
X187499999Y-119123814D01*
X187500000Y-119123814D01*
X187500001Y-119123814D01*
X187538891Y-119120411D01*
X187733351Y-119103398D01*
X187959611Y-119042772D01*
X188171907Y-118943777D01*
X188363787Y-118809421D01*
X188529421Y-118643787D01*
X188663777Y-118451907D01*
X188663777Y-118451905D01*
X188666882Y-118447472D01*
X188668323Y-118448481D01*
X188713172Y-118405712D01*
X188781778Y-118392484D01*
X188846645Y-118418447D01*
G37*
%TD.AperFunction*%
%TA.AperFunction,Conductor*%
G36*
X201354855Y-131206546D02*
G01*
X201371575Y-131225842D01*
X201500393Y-131409814D01*
X201501505Y-131411401D01*
X201668599Y-131578495D01*
X201761310Y-131643412D01*
X201762043Y-131643925D01*
X201805667Y-131698502D01*
X201812860Y-131768001D01*
X201781338Y-131830355D01*
X201721108Y-131865769D01*
X201690919Y-131869500D01*
X200849081Y-131869500D01*
X200782042Y-131849815D01*
X200736287Y-131797011D01*
X200726343Y-131727853D01*
X200755368Y-131664297D01*
X200777957Y-131643925D01*
X200778690Y-131643412D01*
X200871401Y-131578495D01*
X201038495Y-131411401D01*
X201168425Y-131225842D01*
X201223002Y-131182217D01*
X201292500Y-131175023D01*
X201354855Y-131206546D01*
G37*
%TD.AperFunction*%
%TA.AperFunction,Conductor*%
G36*
X204614075Y-130732993D02*
G01*
X204679901Y-130847007D01*
X204772993Y-130940099D01*
X204887007Y-131005925D01*
X204950590Y-131022962D01*
X204318625Y-131654925D01*
X204319475Y-131664643D01*
X204346540Y-131698502D01*
X204353734Y-131768000D01*
X204322211Y-131830355D01*
X204261981Y-131865769D01*
X204231792Y-131869500D01*
X203389081Y-131869500D01*
X203322042Y-131849815D01*
X203276287Y-131797011D01*
X203266343Y-131727853D01*
X203295368Y-131664297D01*
X203317957Y-131643925D01*
X203318690Y-131643412D01*
X203411401Y-131578495D01*
X203578495Y-131411401D01*
X203708732Y-131225403D01*
X203763307Y-131181780D01*
X203832805Y-131174586D01*
X203895160Y-131206109D01*
X203911880Y-131225405D01*
X203965073Y-131301373D01*
X204597037Y-130669409D01*
X204614075Y-130732993D01*
G37*
%TD.AperFunction*%
%TA.AperFunction,Conductor*%
G36*
X209166645Y-118418447D02*
G01*
X209192294Y-118448048D01*
X209193118Y-118447472D01*
X209196222Y-118451905D01*
X209196223Y-118451907D01*
X209330579Y-118643787D01*
X209496213Y-118809421D01*
X209688093Y-118943777D01*
X209900389Y-119042772D01*
X210126649Y-119103398D01*
X210313329Y-119119730D01*
X210359999Y-119123814D01*
X210360000Y-119123814D01*
X210360001Y-119123814D01*
X210398891Y-119120411D01*
X210593351Y-119103398D01*
X210714122Y-119071037D01*
X210783971Y-119072700D01*
X210833896Y-119103131D01*
X213635139Y-121904374D01*
X213635149Y-121904385D01*
X213639479Y-121908715D01*
X213639480Y-121908716D01*
X213751284Y-122020520D01*
X213751286Y-122020521D01*
X213751287Y-122020522D01*
X213769724Y-122031166D01*
X213827890Y-122064748D01*
X213827891Y-122064749D01*
X213888209Y-122099574D01*
X213888210Y-122099575D01*
X213888212Y-122099575D01*
X213888215Y-122099577D01*
X214040943Y-122140501D01*
X214040946Y-122140501D01*
X214206653Y-122140501D01*
X214206669Y-122140500D01*
X215174217Y-122140500D01*
X215241256Y-122160185D01*
X215261898Y-122176819D01*
X221363181Y-128278102D01*
X221396666Y-128339425D01*
X221399500Y-128365783D01*
X221399500Y-128589281D01*
X221379815Y-128656320D01*
X221331795Y-128699765D01*
X221292185Y-128719947D01*
X221292184Y-128719948D01*
X221120213Y-128844890D01*
X220969894Y-128995209D01*
X220969890Y-128995214D01*
X220850318Y-129159793D01*
X220794989Y-129202459D01*
X220725375Y-129208438D01*
X220663580Y-129175833D01*
X220649682Y-129159793D01*
X220530109Y-128995214D01*
X220530105Y-128995209D01*
X220379786Y-128844890D01*
X220207820Y-128719951D01*
X220018414Y-128623444D01*
X220018413Y-128623443D01*
X220018412Y-128623443D01*
X219816243Y-128557754D01*
X219816241Y-128557753D01*
X219816240Y-128557753D01*
X219654957Y-128532208D01*
X219606287Y-128524500D01*
X219393713Y-128524500D01*
X219345042Y-128532208D01*
X219183760Y-128557753D01*
X218981585Y-128623444D01*
X218792179Y-128719951D01*
X218620213Y-128844890D01*
X218469894Y-128995209D01*
X218469890Y-128995214D01*
X218350008Y-129160218D01*
X218294678Y-129202884D01*
X218225065Y-129208863D01*
X218163270Y-129176257D01*
X218149372Y-129160218D01*
X218029727Y-128995540D01*
X218029723Y-128995535D01*
X217879464Y-128845276D01*
X217879459Y-128845272D01*
X217707557Y-128720379D01*
X217518215Y-128623903D01*
X217316124Y-128558241D01*
X217250000Y-128547768D01*
X217250000Y-129595854D01*
X217183343Y-129557370D01*
X217062535Y-129525000D01*
X216937465Y-129525000D01*
X216816657Y-129557370D01*
X216750000Y-129595854D01*
X216750000Y-128547768D01*
X216749999Y-128547768D01*
X216683875Y-128558241D01*
X216481784Y-128623903D01*
X216292442Y-128720379D01*
X216120540Y-128845272D01*
X216120535Y-128845276D01*
X215970276Y-128995535D01*
X215970272Y-128995540D01*
X215850627Y-129160218D01*
X215795297Y-129202884D01*
X215725684Y-129208863D01*
X215663889Y-129176257D01*
X215649991Y-129160218D01*
X215530109Y-128995214D01*
X215530105Y-128995209D01*
X215379786Y-128844890D01*
X215207820Y-128719951D01*
X215018414Y-128623444D01*
X215018413Y-128623443D01*
X215018412Y-128623443D01*
X214816243Y-128557754D01*
X214816241Y-128557753D01*
X214816240Y-128557753D01*
X214654957Y-128532208D01*
X214606287Y-128524500D01*
X214393713Y-128524500D01*
X214345042Y-128532208D01*
X214183760Y-128557753D01*
X213981585Y-128623444D01*
X213792179Y-128719951D01*
X213620213Y-128844890D01*
X213469890Y-128995213D01*
X213344951Y-129167179D01*
X213248444Y-129356585D01*
X213182753Y-129558760D01*
X213149500Y-129768713D01*
X213149500Y-130236159D01*
X213147514Y-130236159D01*
X213134851Y-130296337D01*
X213113298Y-130325333D01*
X211605451Y-131833181D01*
X211544128Y-131866666D01*
X211517770Y-131869500D01*
X205928207Y-131869500D01*
X205861168Y-131849815D01*
X205815413Y-131797011D01*
X205805469Y-131727853D01*
X205834494Y-131664297D01*
X205841072Y-131658364D01*
X205841373Y-131654925D01*
X205209409Y-131022962D01*
X205272993Y-131005925D01*
X205387007Y-130940099D01*
X205480099Y-130847007D01*
X205545925Y-130732993D01*
X205562962Y-130669410D01*
X206194925Y-131301373D01*
X206194926Y-131301373D01*
X206253598Y-131217582D01*
X206253600Y-131217578D01*
X206353429Y-131003492D01*
X206353433Y-131003483D01*
X206414567Y-130775326D01*
X206414569Y-130775315D01*
X206435157Y-130540001D01*
X206435157Y-130539998D01*
X206414569Y-130304684D01*
X206414567Y-130304673D01*
X206353433Y-130076516D01*
X206353429Y-130076507D01*
X206253600Y-129862423D01*
X206253599Y-129862421D01*
X206194925Y-129778626D01*
X206194925Y-129778625D01*
X205562962Y-130410589D01*
X205545925Y-130347007D01*
X205480099Y-130232993D01*
X205387007Y-130139901D01*
X205272993Y-130074075D01*
X205209410Y-130057037D01*
X205845605Y-129420841D01*
X205856166Y-129368295D01*
X205904781Y-129318112D01*
X205926923Y-129308282D01*
X205999119Y-129284358D01*
X205999124Y-129284356D01*
X206148345Y-129192315D01*
X206272315Y-129068345D01*
X206364356Y-128919124D01*
X206364358Y-128919119D01*
X206419505Y-128752697D01*
X206419506Y-128752690D01*
X206429999Y-128649986D01*
X206430000Y-128649973D01*
X206430000Y-128250000D01*
X205513012Y-128250000D01*
X205545925Y-128192993D01*
X205580000Y-128065826D01*
X205580000Y-127934174D01*
X205545925Y-127807007D01*
X205513012Y-127750000D01*
X206429999Y-127750000D01*
X206429999Y-127350028D01*
X206429998Y-127350013D01*
X206419505Y-127247302D01*
X206364358Y-127080880D01*
X206364356Y-127080875D01*
X206272315Y-126931654D01*
X206148345Y-126807684D01*
X205999124Y-126715643D01*
X205999119Y-126715641D01*
X205832697Y-126660494D01*
X205832690Y-126660493D01*
X205729986Y-126650000D01*
X205330000Y-126650000D01*
X205330000Y-127566988D01*
X205272993Y-127534075D01*
X205145826Y-127500000D01*
X205014174Y-127500000D01*
X204887007Y-127534075D01*
X204830000Y-127566988D01*
X204830000Y-126650000D01*
X204430028Y-126650000D01*
X204430012Y-126650001D01*
X204327302Y-126660494D01*
X204160880Y-126715641D01*
X204160875Y-126715643D01*
X204011654Y-126807684D01*
X203887684Y-126931654D01*
X203795643Y-127080875D01*
X203795641Y-127080880D01*
X203771718Y-127153076D01*
X203731945Y-127210521D01*
X203667429Y-127237344D01*
X203656087Y-127237463D01*
X203022962Y-127870589D01*
X203005925Y-127807007D01*
X202940099Y-127692993D01*
X202847007Y-127599901D01*
X202732993Y-127534075D01*
X202669410Y-127517037D01*
X203301373Y-126885073D01*
X203301373Y-126885072D01*
X203217583Y-126826402D01*
X203217579Y-126826400D01*
X203003492Y-126726570D01*
X203003483Y-126726566D01*
X202775326Y-126665432D01*
X202775315Y-126665430D01*
X202540002Y-126644843D01*
X202539998Y-126644843D01*
X202304684Y-126665430D01*
X202304673Y-126665432D01*
X202076516Y-126726566D01*
X202076507Y-126726570D01*
X201862419Y-126826401D01*
X201778625Y-126885072D01*
X202410590Y-127517037D01*
X202347007Y-127534075D01*
X202232993Y-127599901D01*
X202139901Y-127692993D01*
X202074075Y-127807007D01*
X202057037Y-127870590D01*
X201425073Y-127238626D01*
X201371881Y-127314594D01*
X201317304Y-127358219D01*
X201247806Y-127365413D01*
X201185451Y-127333891D01*
X201168730Y-127314594D01*
X201038494Y-127128597D01*
X200871402Y-126961506D01*
X200871395Y-126961501D01*
X200677834Y-126825967D01*
X200677830Y-126825965D01*
X200574855Y-126777947D01*
X200463663Y-126726097D01*
X200463659Y-126726096D01*
X200463655Y-126726094D01*
X200235413Y-126664938D01*
X200235403Y-126664936D01*
X200000001Y-126644341D01*
X199999999Y-126644341D01*
X199764596Y-126664936D01*
X199764586Y-126664938D01*
X199536344Y-126726094D01*
X199536335Y-126726098D01*
X199322171Y-126825964D01*
X199322169Y-126825965D01*
X199128597Y-126961505D01*
X198961505Y-127128597D01*
X198831575Y-127314158D01*
X198776998Y-127357783D01*
X198707500Y-127364977D01*
X198645145Y-127333454D01*
X198628425Y-127314158D01*
X198498494Y-127128597D01*
X198331402Y-126961506D01*
X198331395Y-126961501D01*
X198137831Y-126825965D01*
X198137826Y-126825962D01*
X198132091Y-126823288D01*
X198079653Y-126777113D01*
X198060500Y-126710908D01*
X198060500Y-120619060D01*
X198060501Y-120619047D01*
X198060501Y-120450944D01*
X198060501Y-120450943D01*
X198019577Y-120298216D01*
X198019573Y-120298209D01*
X197940524Y-120161290D01*
X197940518Y-120161282D01*
X197006819Y-119227583D01*
X196973334Y-119166260D01*
X196970500Y-119139902D01*
X196970500Y-119130213D01*
X196990185Y-119063174D01*
X197042989Y-119017419D01*
X197112147Y-119007475D01*
X197146896Y-119017828D01*
X197200389Y-119042772D01*
X197426649Y-119103398D01*
X197613329Y-119119730D01*
X197659999Y-119123814D01*
X197660000Y-119123814D01*
X197660001Y-119123814D01*
X197698891Y-119120411D01*
X197893351Y-119103398D01*
X198119611Y-119042772D01*
X198331907Y-118943777D01*
X198523787Y-118809421D01*
X198689421Y-118643787D01*
X198823777Y-118451907D01*
X198823777Y-118451905D01*
X198826882Y-118447472D01*
X198828323Y-118448481D01*
X198873172Y-118405712D01*
X198941778Y-118392484D01*
X199006645Y-118418447D01*
X199032294Y-118448048D01*
X199033118Y-118447472D01*
X199036222Y-118451905D01*
X199036223Y-118451907D01*
X199170579Y-118643787D01*
X199336213Y-118809421D01*
X199528093Y-118943777D01*
X199740389Y-119042772D01*
X199966649Y-119103398D01*
X200153329Y-119119730D01*
X200199999Y-119123814D01*
X200200000Y-119123814D01*
X200200001Y-119123814D01*
X200238891Y-119120411D01*
X200433351Y-119103398D01*
X200659611Y-119042772D01*
X200871907Y-118943777D01*
X201063787Y-118809421D01*
X201229421Y-118643787D01*
X201363777Y-118451907D01*
X201363777Y-118451905D01*
X201366882Y-118447472D01*
X201368323Y-118448481D01*
X201413172Y-118405712D01*
X201481778Y-118392484D01*
X201546645Y-118418447D01*
X201572294Y-118448048D01*
X201573118Y-118447472D01*
X201576222Y-118451905D01*
X201576223Y-118451907D01*
X201710579Y-118643787D01*
X201876213Y-118809421D01*
X202068093Y-118943777D01*
X202280389Y-119042772D01*
X202506649Y-119103398D01*
X202693329Y-119119730D01*
X202739999Y-119123814D01*
X202740000Y-119123814D01*
X202740001Y-119123814D01*
X202778891Y-119120411D01*
X202973351Y-119103398D01*
X203199611Y-119042772D01*
X203411907Y-118943777D01*
X203603787Y-118809421D01*
X203769421Y-118643787D01*
X203903777Y-118451907D01*
X203903777Y-118451905D01*
X203906882Y-118447472D01*
X203908323Y-118448481D01*
X203953172Y-118405712D01*
X204021778Y-118392484D01*
X204086645Y-118418447D01*
X204112294Y-118448048D01*
X204113118Y-118447472D01*
X204116222Y-118451905D01*
X204116223Y-118451907D01*
X204250579Y-118643787D01*
X204416213Y-118809421D01*
X204608093Y-118943777D01*
X204820389Y-119042772D01*
X205046649Y-119103398D01*
X205233329Y-119119730D01*
X205279999Y-119123814D01*
X205280000Y-119123814D01*
X205280001Y-119123814D01*
X205318891Y-119120411D01*
X205513351Y-119103398D01*
X205739611Y-119042772D01*
X205951907Y-118943777D01*
X206143787Y-118809421D01*
X206309421Y-118643787D01*
X206443777Y-118451907D01*
X206443777Y-118451905D01*
X206446882Y-118447472D01*
X206448323Y-118448481D01*
X206493172Y-118405712D01*
X206561778Y-118392484D01*
X206626645Y-118418447D01*
X206652294Y-118448048D01*
X206653118Y-118447472D01*
X206656222Y-118451905D01*
X206656223Y-118451907D01*
X206790579Y-118643787D01*
X206956213Y-118809421D01*
X207148093Y-118943777D01*
X207360389Y-119042772D01*
X207586649Y-119103398D01*
X207773329Y-119119730D01*
X207819999Y-119123814D01*
X207820000Y-119123814D01*
X207820001Y-119123814D01*
X207858891Y-119120411D01*
X208053351Y-119103398D01*
X208279611Y-119042772D01*
X208491907Y-118943777D01*
X208683787Y-118809421D01*
X208849421Y-118643787D01*
X208983777Y-118451907D01*
X208983777Y-118451905D01*
X208986882Y-118447472D01*
X208988323Y-118448481D01*
X209033172Y-118405712D01*
X209101778Y-118392484D01*
X209166645Y-118418447D01*
G37*
%TD.AperFunction*%
%TA.AperFunction,Conductor*%
G36*
X236389867Y-99668339D02*
G01*
X236418123Y-99689491D01*
X237793181Y-101064548D01*
X237826666Y-101125871D01*
X237829500Y-101152229D01*
X237829500Y-123567770D01*
X237809815Y-123634809D01*
X237793181Y-123655451D01*
X229615451Y-131833181D01*
X229554128Y-131866666D01*
X229527770Y-131869500D01*
X213991229Y-131869500D01*
X213924190Y-131849815D01*
X213878435Y-131797011D01*
X213868491Y-131727853D01*
X213897516Y-131664297D01*
X213903548Y-131657819D01*
X213990162Y-131571205D01*
X214083282Y-131478083D01*
X214144605Y-131444599D01*
X214190361Y-131443292D01*
X214393713Y-131475500D01*
X214393714Y-131475500D01*
X214606286Y-131475500D01*
X214606287Y-131475500D01*
X214816243Y-131442246D01*
X215018412Y-131376557D01*
X215207816Y-131280051D01*
X215266013Y-131237769D01*
X215379786Y-131155109D01*
X215379788Y-131155106D01*
X215379792Y-131155104D01*
X215530104Y-131004792D01*
X215649991Y-130839779D01*
X215705320Y-130797115D01*
X215774933Y-130791136D01*
X215836729Y-130823741D01*
X215850627Y-130839781D01*
X215970272Y-131004459D01*
X215970276Y-131004464D01*
X216120535Y-131154723D01*
X216120540Y-131154727D01*
X216292442Y-131279620D01*
X216481782Y-131376095D01*
X216683871Y-131441757D01*
X216750000Y-131452231D01*
X216750000Y-130404145D01*
X216816657Y-130442630D01*
X216937465Y-130475000D01*
X217062535Y-130475000D01*
X217183343Y-130442630D01*
X217250000Y-130404145D01*
X217250000Y-131452230D01*
X217316126Y-131441757D01*
X217316129Y-131441757D01*
X217518217Y-131376095D01*
X217707557Y-131279620D01*
X217879459Y-131154727D01*
X217879464Y-131154723D01*
X218029721Y-131004466D01*
X218149371Y-130839781D01*
X218204701Y-130797115D01*
X218274314Y-130791136D01*
X218336110Y-130823741D01*
X218350008Y-130839781D01*
X218469890Y-131004785D01*
X218469894Y-131004790D01*
X218620213Y-131155109D01*
X218792179Y-131280048D01*
X218792181Y-131280049D01*
X218792184Y-131280051D01*
X218981588Y-131376557D01*
X219183757Y-131442246D01*
X219393713Y-131475500D01*
X219393714Y-131475500D01*
X219606286Y-131475500D01*
X219606287Y-131475500D01*
X219816243Y-131442246D01*
X220018412Y-131376557D01*
X220207816Y-131280051D01*
X220266013Y-131237769D01*
X220379786Y-131155109D01*
X220379788Y-131155106D01*
X220379792Y-131155104D01*
X220530104Y-131004792D01*
X220649683Y-130840204D01*
X220705011Y-130797540D01*
X220774624Y-130791561D01*
X220836420Y-130824166D01*
X220850313Y-130840199D01*
X220922894Y-130940099D01*
X220969896Y-131004792D01*
X221120213Y-131155109D01*
X221292179Y-131280048D01*
X221292181Y-131280049D01*
X221292184Y-131280051D01*
X221481588Y-131376557D01*
X221683757Y-131442246D01*
X221893713Y-131475500D01*
X221893714Y-131475500D01*
X222106286Y-131475500D01*
X222106287Y-131475500D01*
X222316243Y-131442246D01*
X222518412Y-131376557D01*
X222707816Y-131280051D01*
X222783030Y-131225405D01*
X222879784Y-131155110D01*
X222879784Y-131155109D01*
X222879792Y-131155104D01*
X223018604Y-131016291D01*
X223079923Y-130982809D01*
X223149615Y-130987793D01*
X223205549Y-131029664D01*
X223211821Y-131038878D01*
X223215185Y-131044333D01*
X223215186Y-131044334D01*
X223307288Y-131193656D01*
X223431344Y-131317712D01*
X223580666Y-131409814D01*
X223747203Y-131464999D01*
X223849991Y-131475500D01*
X225150008Y-131475499D01*
X225252797Y-131464999D01*
X225419334Y-131409814D01*
X225568656Y-131317712D01*
X225692712Y-131193656D01*
X225784814Y-131044334D01*
X225839999Y-130877797D01*
X225850500Y-130775009D01*
X225850499Y-129224992D01*
X225850264Y-129222696D01*
X225839999Y-129122203D01*
X225839998Y-129122200D01*
X225812260Y-129038493D01*
X225784814Y-128955666D01*
X225692712Y-128806344D01*
X225568656Y-128682288D01*
X225419334Y-128590186D01*
X225252797Y-128535001D01*
X225252795Y-128535000D01*
X225150016Y-128524500D01*
X225150009Y-128524500D01*
X223925097Y-128524500D01*
X223858058Y-128504815D01*
X223837416Y-128488181D01*
X218849229Y-123499994D01*
X228669443Y-123499994D01*
X228669443Y-123500005D01*
X228689634Y-123743683D01*
X228689636Y-123743695D01*
X228749663Y-123980734D01*
X228847888Y-124204666D01*
X228981632Y-124409378D01*
X229147242Y-124589277D01*
X229147252Y-124589286D01*
X229340208Y-124739470D01*
X229340212Y-124739473D01*
X229406571Y-124775385D01*
X229555267Y-124855855D01*
X229555270Y-124855856D01*
X229786541Y-124935251D01*
X229786543Y-124935251D01*
X229786545Y-124935252D01*
X230027737Y-124975500D01*
X230027738Y-124975500D01*
X230272262Y-124975500D01*
X230272263Y-124975500D01*
X230513455Y-124935252D01*
X230744733Y-124855855D01*
X230959788Y-124739473D01*
X231152754Y-124589281D01*
X231318368Y-124409377D01*
X231452111Y-124204667D01*
X231550336Y-123980736D01*
X231610364Y-123743692D01*
X231610371Y-123743605D01*
X231630557Y-123500005D01*
X231630557Y-123499994D01*
X231610365Y-123256316D01*
X231610363Y-123256304D01*
X231575702Y-123119432D01*
X231550336Y-123019264D01*
X231452111Y-122795333D01*
X231318368Y-122590623D01*
X231318367Y-122590621D01*
X231152757Y-122410722D01*
X231152747Y-122410713D01*
X230959791Y-122260529D01*
X230959787Y-122260526D01*
X230744734Y-122144145D01*
X230744729Y-122144143D01*
X230513458Y-122064748D01*
X230332561Y-122034562D01*
X230272263Y-122024500D01*
X230027737Y-122024500D01*
X229979498Y-122032549D01*
X229786541Y-122064748D01*
X229555270Y-122144143D01*
X229555265Y-122144145D01*
X229340212Y-122260526D01*
X229340208Y-122260529D01*
X229147252Y-122410713D01*
X229147242Y-122410722D01*
X228981632Y-122590621D01*
X228847888Y-122795333D01*
X228749663Y-123019265D01*
X228689636Y-123256304D01*
X228689634Y-123256316D01*
X228669443Y-123499994D01*
X218849229Y-123499994D01*
X216127590Y-120778355D01*
X216127588Y-120778352D01*
X216008717Y-120659481D01*
X216008709Y-120659475D01*
X215921383Y-120609058D01*
X215921382Y-120609058D01*
X215871785Y-120580423D01*
X215719057Y-120539499D01*
X215560943Y-120539499D01*
X215553347Y-120539499D01*
X215553331Y-120539500D01*
X214950440Y-120539500D01*
X214883401Y-120519815D01*
X214862759Y-120503181D01*
X213513979Y-119154401D01*
X213480494Y-119093078D01*
X213485478Y-119023386D01*
X213527350Y-118967453D01*
X213549242Y-118954345D01*
X213571907Y-118943777D01*
X213763787Y-118809421D01*
X213929421Y-118643787D01*
X214063777Y-118451907D01*
X214063777Y-118451905D01*
X214066882Y-118447472D01*
X214068323Y-118448481D01*
X214113172Y-118405712D01*
X214181778Y-118392484D01*
X214246645Y-118418447D01*
X214272294Y-118448048D01*
X214273118Y-118447472D01*
X214276222Y-118451905D01*
X214276223Y-118451907D01*
X214410579Y-118643787D01*
X214576213Y-118809421D01*
X214768093Y-118943777D01*
X214980389Y-119042772D01*
X215206649Y-119103398D01*
X215393329Y-119119730D01*
X215439999Y-119123814D01*
X215440000Y-119123814D01*
X215440001Y-119123814D01*
X215478891Y-119120411D01*
X215673351Y-119103398D01*
X215899611Y-119042772D01*
X216111907Y-118943777D01*
X216303787Y-118809421D01*
X216469421Y-118643787D01*
X216603777Y-118451907D01*
X216603777Y-118451905D01*
X216606882Y-118447472D01*
X216608323Y-118448481D01*
X216653172Y-118405712D01*
X216721778Y-118392484D01*
X216786645Y-118418447D01*
X216812294Y-118448048D01*
X216813118Y-118447472D01*
X216816222Y-118451905D01*
X216816223Y-118451907D01*
X216950579Y-118643787D01*
X217116213Y-118809421D01*
X217308093Y-118943777D01*
X217520389Y-119042772D01*
X217746649Y-119103398D01*
X217933329Y-119119730D01*
X217979999Y-119123814D01*
X217980000Y-119123814D01*
X217980001Y-119123814D01*
X218018891Y-119120411D01*
X218213351Y-119103398D01*
X218439611Y-119042772D01*
X218651907Y-118943777D01*
X218843787Y-118809421D01*
X219009421Y-118643787D01*
X219143777Y-118451907D01*
X219143777Y-118451905D01*
X219146882Y-118447472D01*
X219148323Y-118448481D01*
X219193172Y-118405712D01*
X219261778Y-118392484D01*
X219326645Y-118418447D01*
X219352294Y-118448048D01*
X219353118Y-118447472D01*
X219356222Y-118451905D01*
X219356223Y-118451907D01*
X219490579Y-118643787D01*
X219656213Y-118809421D01*
X219848093Y-118943777D01*
X220060389Y-119042772D01*
X220286649Y-119103398D01*
X220473329Y-119119730D01*
X220519999Y-119123814D01*
X220520000Y-119123814D01*
X220520001Y-119123814D01*
X220558891Y-119120411D01*
X220753351Y-119103398D01*
X220979611Y-119042772D01*
X221191907Y-118943777D01*
X221383787Y-118809421D01*
X221549421Y-118643787D01*
X221683777Y-118451907D01*
X221683777Y-118451905D01*
X221686882Y-118447472D01*
X221688323Y-118448481D01*
X221733172Y-118405712D01*
X221801778Y-118392484D01*
X221866645Y-118418447D01*
X221892294Y-118448048D01*
X221893118Y-118447472D01*
X221896222Y-118451905D01*
X221896223Y-118451907D01*
X222030579Y-118643787D01*
X222196213Y-118809421D01*
X222388093Y-118943777D01*
X222600389Y-119042772D01*
X222826649Y-119103398D01*
X223013329Y-119119730D01*
X223059999Y-119123814D01*
X223060000Y-119123814D01*
X223060001Y-119123814D01*
X223098891Y-119120411D01*
X223293351Y-119103398D01*
X223519611Y-119042772D01*
X223731907Y-118943777D01*
X223923787Y-118809421D01*
X224089421Y-118643787D01*
X224223777Y-118451907D01*
X224223777Y-118451905D01*
X224226882Y-118447472D01*
X224228323Y-118448481D01*
X224273172Y-118405712D01*
X224341778Y-118392484D01*
X224406645Y-118418447D01*
X224432294Y-118448048D01*
X224433118Y-118447472D01*
X224436222Y-118451905D01*
X224436223Y-118451907D01*
X224570579Y-118643787D01*
X224736213Y-118809421D01*
X224928093Y-118943777D01*
X225140389Y-119042772D01*
X225366649Y-119103398D01*
X225553329Y-119119730D01*
X225599999Y-119123814D01*
X225600000Y-119123814D01*
X225600001Y-119123814D01*
X225638891Y-119120411D01*
X225833351Y-119103398D01*
X226059611Y-119042772D01*
X226271907Y-118943777D01*
X226463787Y-118809421D01*
X226629421Y-118643787D01*
X226763777Y-118451907D01*
X226862772Y-118239611D01*
X226923398Y-118013351D01*
X226943814Y-117780000D01*
X226923398Y-117546649D01*
X226862772Y-117320389D01*
X226763777Y-117108093D01*
X226629421Y-116916213D01*
X226463787Y-116750579D01*
X226271907Y-116616223D01*
X226271905Y-116616222D01*
X226267472Y-116613118D01*
X226268481Y-116611676D01*
X226225712Y-116566828D01*
X226212484Y-116498222D01*
X226238447Y-116433355D01*
X226268048Y-116407705D01*
X226267472Y-116406882D01*
X226271905Y-116403777D01*
X226271907Y-116403777D01*
X226463787Y-116269421D01*
X226629421Y-116103787D01*
X226763777Y-115911907D01*
X226862772Y-115699611D01*
X226923398Y-115473351D01*
X226943814Y-115240000D01*
X226923398Y-115006649D01*
X226862772Y-114780389D01*
X226856575Y-114767101D01*
X226846084Y-114698024D01*
X226874604Y-114634240D01*
X226933080Y-114596001D01*
X227002948Y-114595446D01*
X227056639Y-114627016D01*
X229449682Y-117020059D01*
X229483167Y-117081382D01*
X229478183Y-117151074D01*
X229436311Y-117207007D01*
X229421020Y-117216794D01*
X229340217Y-117260523D01*
X229340208Y-117260529D01*
X229147252Y-117410713D01*
X229147242Y-117410722D01*
X228981632Y-117590621D01*
X228847888Y-117795333D01*
X228749663Y-118019265D01*
X228689636Y-118256304D01*
X228689634Y-118256316D01*
X228669443Y-118499994D01*
X228669443Y-118500005D01*
X228689634Y-118743683D01*
X228689636Y-118743695D01*
X228749663Y-118980734D01*
X228847888Y-119204666D01*
X228981632Y-119409378D01*
X229147242Y-119589277D01*
X229147252Y-119589286D01*
X229317634Y-119721900D01*
X229340212Y-119739473D01*
X229555267Y-119855855D01*
X229555270Y-119855856D01*
X229786541Y-119935251D01*
X229786543Y-119935251D01*
X229786545Y-119935252D01*
X230027737Y-119975500D01*
X230027738Y-119975500D01*
X230272262Y-119975500D01*
X230272263Y-119975500D01*
X230513455Y-119935252D01*
X230744733Y-119855855D01*
X230959788Y-119739473D01*
X231152754Y-119589281D01*
X231318368Y-119409377D01*
X231452111Y-119204667D01*
X231550336Y-118980736D01*
X231610364Y-118743692D01*
X231618642Y-118643791D01*
X231630557Y-118500005D01*
X231630557Y-118499994D01*
X231610365Y-118256316D01*
X231610363Y-118256304D01*
X231550336Y-118019265D01*
X231547744Y-118013356D01*
X231452111Y-117795333D01*
X231407689Y-117727339D01*
X231318367Y-117590621D01*
X231152757Y-117410722D01*
X231152747Y-117410713D01*
X230959791Y-117260529D01*
X230959782Y-117260523D01*
X230815481Y-117182430D01*
X230765891Y-117133210D01*
X230750500Y-117073376D01*
X230750500Y-116960202D01*
X230750501Y-116960189D01*
X230750501Y-116792086D01*
X230750501Y-116792085D01*
X230709577Y-116639358D01*
X230694679Y-116613553D01*
X230630524Y-116502432D01*
X230630518Y-116502424D01*
X228895196Y-114767102D01*
X227070273Y-112942180D01*
X227036789Y-112880858D01*
X227041773Y-112811166D01*
X227083645Y-112755233D01*
X227149109Y-112730816D01*
X227157955Y-112730500D01*
X229033331Y-112730500D01*
X229033347Y-112730501D01*
X229040943Y-112730501D01*
X229199054Y-112730501D01*
X229199057Y-112730501D01*
X229351785Y-112689577D01*
X229421233Y-112649481D01*
X229488716Y-112610520D01*
X229600520Y-112498716D01*
X229600520Y-112498714D01*
X229610724Y-112488511D01*
X229610728Y-112488506D01*
X234396470Y-107702763D01*
X234457791Y-107669280D01*
X234516238Y-107670670D01*
X234644592Y-107705063D01*
X234832918Y-107721539D01*
X234879999Y-107725659D01*
X234880000Y-107725659D01*
X234880001Y-107725659D01*
X234919234Y-107722226D01*
X235115408Y-107705063D01*
X235343663Y-107643903D01*
X235557830Y-107544035D01*
X235751401Y-107408495D01*
X235918495Y-107241401D01*
X236054035Y-107047830D01*
X236153903Y-106833663D01*
X236215063Y-106605408D01*
X236235659Y-106370000D01*
X236215063Y-106134592D01*
X236153903Y-105906337D01*
X236054035Y-105692171D01*
X236053902Y-105691980D01*
X235918494Y-105498597D01*
X235751402Y-105331506D01*
X235751396Y-105331501D01*
X235565842Y-105201575D01*
X235522217Y-105146998D01*
X235515023Y-105077500D01*
X235546546Y-105015145D01*
X235565842Y-104998425D01*
X235669838Y-104925606D01*
X235751401Y-104868495D01*
X235918495Y-104701401D01*
X236054035Y-104507830D01*
X236153903Y-104293663D01*
X236215063Y-104065408D01*
X236235659Y-103830000D01*
X236215063Y-103594592D01*
X236153903Y-103366337D01*
X236054035Y-103152171D01*
X235947213Y-102999612D01*
X235918494Y-102958597D01*
X235751402Y-102791506D01*
X235751401Y-102791505D01*
X235565405Y-102661269D01*
X235521781Y-102606692D01*
X235514588Y-102537193D01*
X235546110Y-102474839D01*
X235565405Y-102458119D01*
X235751082Y-102328105D01*
X235918105Y-102161082D01*
X236053600Y-101967578D01*
X236153429Y-101753492D01*
X236153432Y-101753486D01*
X236210636Y-101540000D01*
X235313012Y-101540000D01*
X235345925Y-101482993D01*
X235380000Y-101355826D01*
X235380000Y-101224174D01*
X235345925Y-101097007D01*
X235313012Y-101040000D01*
X236210636Y-101040000D01*
X236210635Y-101039999D01*
X236153432Y-100826513D01*
X236153429Y-100826507D01*
X236053600Y-100612422D01*
X236053599Y-100612420D01*
X235918113Y-100418926D01*
X235918108Y-100418920D01*
X235796053Y-100296865D01*
X235762568Y-100235542D01*
X235767552Y-100165850D01*
X235809424Y-100109917D01*
X235840400Y-100093002D01*
X235972331Y-100043796D01*
X236087546Y-99957546D01*
X236173796Y-99842331D01*
X236214260Y-99733838D01*
X236256130Y-99677906D01*
X236321594Y-99653488D01*
X236389867Y-99668339D01*
G37*
%TD.AperFunction*%
%TA.AperFunction,Conductor*%
G36*
X203659156Y-128765604D02*
G01*
X203711701Y-128776163D01*
X203761885Y-128824777D01*
X203771717Y-128846921D01*
X203795642Y-128919121D01*
X203795643Y-128919124D01*
X203887684Y-129068345D01*
X204011654Y-129192315D01*
X204160875Y-129284356D01*
X204160882Y-129284359D01*
X204233075Y-129308281D01*
X204290520Y-129348053D01*
X204317344Y-129412569D01*
X204317463Y-129423910D01*
X204950590Y-130057037D01*
X204887007Y-130074075D01*
X204772993Y-130139901D01*
X204679901Y-130232993D01*
X204614075Y-130347007D01*
X204597037Y-130410589D01*
X203965073Y-129778626D01*
X203911881Y-129854594D01*
X203857304Y-129898219D01*
X203787806Y-129905413D01*
X203725451Y-129873891D01*
X203708730Y-129854594D01*
X203578494Y-129668597D01*
X203411402Y-129501506D01*
X203411401Y-129501505D01*
X203225405Y-129371269D01*
X203181781Y-129316692D01*
X203174588Y-129247193D01*
X203206110Y-129184839D01*
X203225405Y-129168119D01*
X203301373Y-129114925D01*
X202669409Y-128482962D01*
X202732993Y-128465925D01*
X202847007Y-128400099D01*
X202940099Y-128307007D01*
X203005925Y-128192993D01*
X203022962Y-128129410D01*
X203659156Y-128765604D01*
G37*
%TD.AperFunction*%
%TA.AperFunction,Conductor*%
G36*
X202074075Y-128192993D02*
G01*
X202139901Y-128307007D01*
X202232993Y-128400099D01*
X202347007Y-128465925D01*
X202410590Y-128482962D01*
X201778625Y-129114925D01*
X201854594Y-129168119D01*
X201898219Y-129222696D01*
X201905413Y-129292194D01*
X201873890Y-129354549D01*
X201854595Y-129371269D01*
X201668594Y-129501508D01*
X201501505Y-129668597D01*
X201371575Y-129854158D01*
X201316998Y-129897783D01*
X201247500Y-129904977D01*
X201185145Y-129873454D01*
X201168425Y-129854158D01*
X201038494Y-129668597D01*
X200871402Y-129501506D01*
X200871396Y-129501501D01*
X200685842Y-129371575D01*
X200642217Y-129316998D01*
X200635023Y-129247500D01*
X200666546Y-129185145D01*
X200685842Y-129168425D01*
X200762248Y-129114925D01*
X200871401Y-129038495D01*
X201038495Y-128871401D01*
X201168732Y-128685403D01*
X201223307Y-128641780D01*
X201292805Y-128634586D01*
X201355160Y-128666109D01*
X201371880Y-128685405D01*
X201425073Y-128761373D01*
X202057037Y-128129409D01*
X202074075Y-128192993D01*
G37*
%TD.AperFunction*%
%TA.AperFunction,Conductor*%
G36*
X193926645Y-118418447D02*
G01*
X193952294Y-118448048D01*
X193953118Y-118447472D01*
X193956222Y-118451905D01*
X193956223Y-118451907D01*
X194090579Y-118643787D01*
X194256213Y-118809421D01*
X194448093Y-118943777D01*
X194660389Y-119042772D01*
X194886649Y-119103398D01*
X195073329Y-119119730D01*
X195119999Y-119123814D01*
X195120000Y-119123814D01*
X195120001Y-119123814D01*
X195158891Y-119120411D01*
X195353351Y-119103398D01*
X195579611Y-119042772D01*
X195593095Y-119036483D01*
X195662172Y-119025992D01*
X195725956Y-119054511D01*
X195764196Y-119112988D01*
X195769500Y-119148866D01*
X195769500Y-119353330D01*
X195769499Y-119353348D01*
X195769499Y-119519054D01*
X195769498Y-119519054D01*
X195810423Y-119671785D01*
X195839358Y-119721900D01*
X195839359Y-119721904D01*
X195839360Y-119721904D01*
X195889479Y-119808714D01*
X195889481Y-119808717D01*
X196008349Y-119927585D01*
X196008355Y-119927590D01*
X196823181Y-120742416D01*
X196856666Y-120803739D01*
X196859500Y-120830097D01*
X196859500Y-126710908D01*
X196839815Y-126777947D01*
X196787914Y-126823286D01*
X196782173Y-126825963D01*
X196782169Y-126825965D01*
X196588597Y-126961505D01*
X196421505Y-127128597D01*
X196291575Y-127314158D01*
X196236998Y-127357783D01*
X196167500Y-127364977D01*
X196105145Y-127333454D01*
X196088425Y-127314158D01*
X195958494Y-127128597D01*
X195791402Y-126961506D01*
X195791395Y-126961501D01*
X195597834Y-126825967D01*
X195597830Y-126825965D01*
X195494855Y-126777947D01*
X195383663Y-126726097D01*
X195383659Y-126726096D01*
X195383655Y-126726094D01*
X195155413Y-126664938D01*
X195155403Y-126664936D01*
X194920001Y-126644341D01*
X194919999Y-126644341D01*
X194684596Y-126664936D01*
X194684583Y-126664939D01*
X194556241Y-126699327D01*
X194486392Y-126697664D01*
X194436468Y-126667233D01*
X191936819Y-124167584D01*
X191903334Y-124106261D01*
X191900500Y-124079903D01*
X191900500Y-119134877D01*
X191920185Y-119067838D01*
X191972989Y-119022083D01*
X192042147Y-119012139D01*
X192076904Y-119022495D01*
X192120382Y-119042769D01*
X192120384Y-119042769D01*
X192120389Y-119042772D01*
X192346649Y-119103398D01*
X192533329Y-119119730D01*
X192579999Y-119123814D01*
X192580000Y-119123814D01*
X192580001Y-119123814D01*
X192618891Y-119120411D01*
X192813351Y-119103398D01*
X193039611Y-119042772D01*
X193251907Y-118943777D01*
X193443787Y-118809421D01*
X193609421Y-118643787D01*
X193743777Y-118451907D01*
X193743777Y-118451905D01*
X193746882Y-118447472D01*
X193748323Y-118448481D01*
X193793172Y-118405712D01*
X193861778Y-118392484D01*
X193926645Y-118418447D01*
G37*
%TD.AperFunction*%
%TA.AperFunction,Conductor*%
G36*
X176940000Y-115292661D02*
G01*
X176967259Y-115394394D01*
X177019920Y-115485606D01*
X177094394Y-115560080D01*
X177185606Y-115612741D01*
X177287339Y-115640000D01*
X177293553Y-115640000D01*
X176587098Y-116346453D01*
X176672779Y-116406447D01*
X176671913Y-116407683D01*
X176715291Y-116453169D01*
X176728521Y-116521774D01*
X176702559Y-116586642D01*
X176672298Y-116612868D01*
X176672778Y-116613553D01*
X176587099Y-116673544D01*
X176587098Y-116673545D01*
X177293554Y-117380000D01*
X177287339Y-117380000D01*
X177185606Y-117407259D01*
X177094394Y-117459920D01*
X177019920Y-117534394D01*
X176967259Y-117625606D01*
X176940000Y-117727339D01*
X176940000Y-117733553D01*
X176233545Y-117027098D01*
X176233544Y-117027099D01*
X176173553Y-117112778D01*
X176172187Y-117111821D01*
X176127081Y-117154808D01*
X176058471Y-117168014D01*
X175993613Y-117142029D01*
X175967614Y-117112014D01*
X175966882Y-117112528D01*
X175963777Y-117108093D01*
X175829421Y-116916213D01*
X175711819Y-116798611D01*
X175678334Y-116737288D01*
X175675500Y-116710930D01*
X175675500Y-116309070D01*
X175695185Y-116242031D01*
X175711819Y-116221389D01*
X175765521Y-116167687D01*
X175829421Y-116103787D01*
X175963777Y-115911907D01*
X175963777Y-115911905D01*
X175966882Y-115907472D01*
X175968188Y-115908386D01*
X176013453Y-115865213D01*
X176082058Y-115851980D01*
X176146926Y-115877937D01*
X176172775Y-115907765D01*
X176173553Y-115907221D01*
X176233545Y-115992899D01*
X176233546Y-115992900D01*
X176940000Y-115286446D01*
X176940000Y-115292661D01*
G37*
%TD.AperFunction*%
%TA.AperFunction,Conductor*%
G36*
X178446453Y-115992900D02*
G01*
X178506447Y-115907221D01*
X178507819Y-115908181D01*
X178552885Y-115865208D01*
X178621491Y-115851982D01*
X178686357Y-115877947D01*
X178712385Y-115907984D01*
X178713118Y-115907472D01*
X178716222Y-115911905D01*
X178716223Y-115911907D01*
X178850579Y-116103787D01*
X178850583Y-116103791D01*
X178853685Y-116108221D01*
X178852760Y-116108868D01*
X178878502Y-116167687D01*
X178879500Y-116183385D01*
X178879500Y-116836614D01*
X178859815Y-116903653D01*
X178850786Y-116915917D01*
X178798284Y-116990896D01*
X178734927Y-117081382D01*
X178713118Y-117112528D01*
X178711819Y-117111618D01*
X178666505Y-117154807D01*
X178597895Y-117168015D01*
X178533036Y-117142033D01*
X178507224Y-117112234D01*
X178506447Y-117112779D01*
X178446453Y-117027099D01*
X178446453Y-117027098D01*
X177740000Y-117733551D01*
X177740000Y-117727339D01*
X177712741Y-117625606D01*
X177660080Y-117534394D01*
X177585606Y-117459920D01*
X177494394Y-117407259D01*
X177392661Y-117380000D01*
X177386447Y-117380000D01*
X178092900Y-116673546D01*
X178092899Y-116673545D01*
X178007221Y-116613553D01*
X178008085Y-116612318D01*
X177964702Y-116566820D01*
X177951479Y-116498213D01*
X177977447Y-116433348D01*
X178007702Y-116407135D01*
X178007221Y-116406447D01*
X178092900Y-116346453D01*
X177386448Y-115640000D01*
X177392661Y-115640000D01*
X177494394Y-115612741D01*
X177585606Y-115560080D01*
X177660080Y-115485606D01*
X177712741Y-115394394D01*
X177740000Y-115292661D01*
X177740000Y-115286447D01*
X178446453Y-115992900D01*
G37*
%TD.AperFunction*%
%TA.AperFunction,Conductor*%
G36*
X224406645Y-103178447D02*
G01*
X224432294Y-103208048D01*
X224433118Y-103207472D01*
X224436222Y-103211905D01*
X224436223Y-103211907D01*
X224570579Y-103403787D01*
X224736213Y-103569421D01*
X224928093Y-103703777D01*
X224928094Y-103703777D01*
X224932528Y-103706882D01*
X224931613Y-103708187D01*
X224974787Y-103753456D01*
X224988018Y-103822061D01*
X224962058Y-103886929D01*
X224932236Y-103912779D01*
X224932778Y-103913553D01*
X224847099Y-103973544D01*
X224847098Y-103973545D01*
X225553554Y-104680000D01*
X225547339Y-104680000D01*
X225445606Y-104707259D01*
X225354394Y-104759920D01*
X225279920Y-104834394D01*
X225227259Y-104925606D01*
X225200000Y-105027339D01*
X225200000Y-105033553D01*
X224493545Y-104327098D01*
X224493544Y-104327099D01*
X224433553Y-104412778D01*
X224432187Y-104411821D01*
X224387081Y-104454808D01*
X224318471Y-104468014D01*
X224253613Y-104442029D01*
X224227614Y-104412014D01*
X224226882Y-104412528D01*
X224223777Y-104408093D01*
X224089421Y-104216213D01*
X223923787Y-104050579D01*
X223731907Y-103916223D01*
X223731905Y-103916222D01*
X223727472Y-103913118D01*
X223728481Y-103911676D01*
X223685712Y-103866828D01*
X223672484Y-103798222D01*
X223698447Y-103733355D01*
X223728048Y-103707705D01*
X223727472Y-103706882D01*
X223731905Y-103703777D01*
X223731907Y-103703777D01*
X223923787Y-103569421D01*
X224089421Y-103403787D01*
X224223777Y-103211907D01*
X224223777Y-103211905D01*
X224226882Y-103207472D01*
X224228323Y-103208481D01*
X224273172Y-103165712D01*
X224341778Y-103152484D01*
X224406645Y-103178447D01*
G37*
%TD.AperFunction*%
%TA.AperFunction,Conductor*%
G36*
X182925703Y-73415384D02*
G01*
X182932181Y-73421416D01*
X190179312Y-80668548D01*
X190212797Y-80729871D01*
X190207813Y-80799563D01*
X190165941Y-80855496D01*
X190100477Y-80879913D01*
X190080825Y-80879757D01*
X190040004Y-80876186D01*
X190039999Y-80876186D01*
X189806653Y-80896601D01*
X189806643Y-80896603D01*
X189685877Y-80928962D01*
X189616027Y-80927299D01*
X189566103Y-80896868D01*
X188737590Y-80068355D01*
X188737588Y-80068352D01*
X188618717Y-79949481D01*
X188618716Y-79949480D01*
X188531904Y-79899360D01*
X188531904Y-79899359D01*
X188531900Y-79899358D01*
X188481785Y-79870423D01*
X188329057Y-79829499D01*
X188170943Y-79829499D01*
X188163347Y-79829499D01*
X188163331Y-79829500D01*
X185505097Y-79829500D01*
X185438058Y-79809815D01*
X185417416Y-79793181D01*
X182279787Y-76655552D01*
X182246302Y-76594229D01*
X182251286Y-76524537D01*
X182293158Y-76468604D01*
X182326510Y-76450830D01*
X182469522Y-76400789D01*
X182622262Y-76304816D01*
X182749816Y-76177262D01*
X182845789Y-76024522D01*
X182905368Y-75854255D01*
X182925565Y-75675000D01*
X182907561Y-75515212D01*
X182905369Y-75495750D01*
X182905368Y-75495745D01*
X182884395Y-75435807D01*
X182845789Y-75325478D01*
X182749816Y-75172738D01*
X182749814Y-75172736D01*
X182749813Y-75172734D01*
X182747550Y-75169896D01*
X182746659Y-75167715D01*
X182746111Y-75166842D01*
X182746264Y-75166745D01*
X182721144Y-75105209D01*
X182720500Y-75092587D01*
X182720500Y-73509097D01*
X182740185Y-73442058D01*
X182792989Y-73396303D01*
X182862147Y-73386359D01*
X182925703Y-73415384D01*
G37*
%TD.AperFunction*%
%TA.AperFunction,Conductor*%
G36*
X173078867Y-69928102D02*
G01*
X183503181Y-80352416D01*
X183536666Y-80413739D01*
X183539500Y-80440097D01*
X183539500Y-80607587D01*
X183519815Y-80674626D01*
X183512450Y-80684896D01*
X183510186Y-80687734D01*
X183410506Y-80846374D01*
X183407895Y-80844733D01*
X183370150Y-80886466D01*
X183302707Y-80904720D01*
X183236101Y-80883613D01*
X183217664Y-80868429D01*
X172535314Y-70186079D01*
X172501829Y-70124756D01*
X172506813Y-70055064D01*
X172548685Y-69999131D01*
X172603598Y-69975925D01*
X172606281Y-69975500D01*
X172606287Y-69975500D01*
X172816243Y-69942246D01*
X172952873Y-69897851D01*
X173022708Y-69895856D01*
X173078867Y-69928102D01*
G37*
%TD.AperFunction*%
%TA.AperFunction,Conductor*%
G36*
X176336420Y-69324166D02*
G01*
X176350313Y-69340199D01*
X176452242Y-69480493D01*
X176469896Y-69504792D01*
X176620213Y-69655109D01*
X176792179Y-69780048D01*
X176792181Y-69780049D01*
X176792184Y-69780051D01*
X176981588Y-69876557D01*
X177183757Y-69942246D01*
X177393713Y-69975500D01*
X177393714Y-69975500D01*
X177606286Y-69975500D01*
X177606287Y-69975500D01*
X177816243Y-69942246D01*
X177952873Y-69897851D01*
X178022708Y-69895856D01*
X178078867Y-69928102D01*
X181483181Y-73332416D01*
X181516666Y-73393739D01*
X181519500Y-73420097D01*
X181519500Y-75092587D01*
X181499815Y-75159626D01*
X181492450Y-75169896D01*
X181490186Y-75172734D01*
X181394209Y-75325480D01*
X181344169Y-75468486D01*
X181303448Y-75525262D01*
X181238495Y-75551009D01*
X181169933Y-75537553D01*
X181139447Y-75515212D01*
X175636819Y-70012584D01*
X175603334Y-69951261D01*
X175600500Y-69924903D01*
X175600500Y-69910718D01*
X175620185Y-69843679D01*
X175668207Y-69800233D01*
X175707815Y-69780052D01*
X175707815Y-69780051D01*
X175707816Y-69780051D01*
X175826728Y-69693657D01*
X175879786Y-69655109D01*
X175879788Y-69655106D01*
X175879792Y-69655104D01*
X176030104Y-69504792D01*
X176149683Y-69340204D01*
X176205011Y-69297540D01*
X176274624Y-69291561D01*
X176336420Y-69324166D01*
G37*
%TD.AperFunction*%
%TD*%
M02*
