%TF.GenerationSoftware,KiCad,Pcbnew,8.0.5*%
%TF.CreationDate,2025-12-13T14:06:30+09:00*%
%TF.ProjectId,main__,6d61696e-fa7f-42e6-9b69-6361645f7063,rev?*%
%TF.SameCoordinates,Original*%
%TF.FileFunction,Soldermask,Top*%
%TF.FilePolarity,Negative*%
%FSLAX46Y46*%
G04 Gerber Fmt 4.6, Leading zero omitted, Abs format (unit mm)*
G04 Created by KiCad (PCBNEW 8.0.5) date 2025-12-13 14:06:30*
%MOMM*%
%LPD*%
G01*
G04 APERTURE LIST*
G04 Aperture macros list*
%AMRoundRect*
0 Rectangle with rounded corners*
0 $1 Rounding radius*
0 $2 $3 $4 $5 $6 $7 $8 $9 X,Y pos of 4 corners*
0 Add a 4 corners polygon primitive as box body*
4,1,4,$2,$3,$4,$5,$6,$7,$8,$9,$2,$3,0*
0 Add four circle primitives for the rounded corners*
1,1,$1+$1,$2,$3*
1,1,$1+$1,$4,$5*
1,1,$1+$1,$6,$7*
1,1,$1+$1,$8,$9*
0 Add four rect primitives between the rounded corners*
20,1,$1+$1,$2,$3,$4,$5,0*
20,1,$1+$1,$4,$5,$6,$7,0*
20,1,$1+$1,$6,$7,$8,$9,0*
20,1,$1+$1,$8,$9,$2,$3,0*%
G04 Aperture macros list end*
%ADD10RoundRect,0.250000X0.600000X0.725000X-0.600000X0.725000X-0.600000X-0.725000X0.600000X-0.725000X0*%
%ADD11O,1.700000X1.950000*%
%ADD12RoundRect,0.250000X-0.600000X-0.725000X0.600000X-0.725000X0.600000X0.725000X-0.600000X0.725000X0*%
%ADD13R,1.700000X1.700000*%
%ADD14O,1.700000X1.700000*%
%ADD15RoundRect,0.250000X-0.600000X-0.750000X0.600000X-0.750000X0.600000X0.750000X-0.600000X0.750000X0*%
%ADD16O,1.700000X2.000000*%
%ADD17RoundRect,0.250000X-0.600000X0.600000X-0.600000X-0.600000X0.600000X-0.600000X0.600000X0.600000X0*%
%ADD18C,1.700000*%
%ADD19C,1.600000*%
%ADD20C,1.880400*%
%ADD21C,1.440000*%
%ADD22C,1.950000*%
G04 APERTURE END LIST*
D10*
%TO.C,J7*%
X184000000Y-131000000D03*
D11*
X181500000Y-131000000D03*
X179000000Y-131000000D03*
X176500000Y-131000000D03*
X174000000Y-131000000D03*
X171500000Y-131000000D03*
X169000000Y-131000000D03*
%TD*%
D12*
%TO.C,J3*%
X187500000Y-68500000D03*
D11*
X190000000Y-68500000D03*
X192500000Y-68500000D03*
X195000000Y-68500000D03*
%TD*%
D13*
%TO.C,J4*%
X234880000Y-98750000D03*
D14*
X234880000Y-101290000D03*
X234880000Y-103830000D03*
X234880000Y-106370000D03*
%TD*%
D15*
%TO.C,J2*%
X210000000Y-68500000D03*
D16*
X212500000Y-68500000D03*
%TD*%
D13*
%TO.C,J8*%
X242500000Y-98750000D03*
D14*
X242500000Y-101290000D03*
X242500000Y-103830000D03*
X242500000Y-106370000D03*
%TD*%
D17*
%TO.C,J1*%
X205080000Y-128000000D03*
D18*
X205080000Y-130540000D03*
X202540000Y-128000000D03*
X202540000Y-130540000D03*
X200000000Y-128000000D03*
X200000000Y-130540000D03*
X197460000Y-128000000D03*
X197460000Y-130540000D03*
X194920000Y-128000000D03*
X194920000Y-130540000D03*
%TD*%
D12*
%TO.C,J6*%
X165000000Y-68500000D03*
D11*
X167500000Y-68500000D03*
X170000000Y-68500000D03*
X172500000Y-68500000D03*
X175000000Y-68500000D03*
X177500000Y-68500000D03*
X180000000Y-68500000D03*
%TD*%
D19*
%TO.C,C1*%
X177500000Y-124250000D03*
X177500000Y-121750000D03*
%TD*%
D10*
%TO.C,J5*%
X224500000Y-130000000D03*
D11*
X222000000Y-130000000D03*
X219500000Y-130000000D03*
X217000000Y-130000000D03*
X214500000Y-130000000D03*
%TD*%
D20*
%TO.C,U1*%
X182420000Y-115240000D03*
X182420000Y-117780000D03*
X179880000Y-115240000D03*
X179880000Y-117780000D03*
X225600000Y-100000000D03*
X187500000Y-82220000D03*
X187500000Y-84760000D03*
X190040000Y-82220000D03*
X190040000Y-84760000D03*
X192580000Y-82220000D03*
X192580000Y-84760000D03*
X195120000Y-82220000D03*
X195120000Y-84760000D03*
X197660000Y-82220000D03*
X197660000Y-84760000D03*
X200200000Y-82220000D03*
X200200000Y-84760000D03*
X202740000Y-82220000D03*
X202740000Y-84760000D03*
X205280000Y-82220000D03*
X205280000Y-84760000D03*
X184960000Y-115240000D03*
X190040000Y-115240000D03*
X190040000Y-117780000D03*
X192580000Y-115240000D03*
X192580000Y-117780000D03*
X195120000Y-115240000D03*
X195120000Y-117780000D03*
X197660000Y-115240000D03*
X197660000Y-117780000D03*
X200200000Y-115240000D03*
X200200000Y-117780000D03*
X202740000Y-115240000D03*
X202740000Y-117780000D03*
X205280000Y-115240000D03*
X205280000Y-117780000D03*
X207820000Y-115240000D03*
X207820000Y-117780000D03*
X210360000Y-115240000D03*
X210360000Y-117780000D03*
X212900000Y-115240000D03*
X212900000Y-117780000D03*
X215440000Y-115240000D03*
X215440000Y-117780000D03*
X217980000Y-115240000D03*
X217980000Y-117780000D03*
X220520000Y-115240000D03*
X220520000Y-117780000D03*
X223060000Y-115240000D03*
X223060000Y-117780000D03*
X225600000Y-115240000D03*
X225600000Y-117780000D03*
X207820000Y-82220000D03*
X207820000Y-84760000D03*
X210360000Y-82220000D03*
X210360000Y-84760000D03*
X212900000Y-82220000D03*
X212900000Y-84760000D03*
X215440000Y-82220000D03*
X215440000Y-84760000D03*
X217980000Y-82220000D03*
X217980000Y-84760000D03*
X220520000Y-82220000D03*
X220520000Y-84760000D03*
X223060000Y-82220000D03*
X223060000Y-84760000D03*
X225600000Y-82220000D03*
X225600000Y-84760000D03*
X225600000Y-87300000D03*
X223060000Y-87300000D03*
X225600000Y-89840000D03*
X223060000Y-89840000D03*
X225600000Y-92380000D03*
X223060000Y-92380000D03*
X177340000Y-115240000D03*
X177340000Y-117780000D03*
X225600000Y-105080000D03*
X223060000Y-100000000D03*
X225600000Y-102540000D03*
X223060000Y-105080000D03*
X184960000Y-117780000D03*
X187500000Y-115240000D03*
X223060000Y-102540000D03*
X187500000Y-117780000D03*
X174800000Y-115240000D03*
X174800000Y-117780000D03*
%TD*%
D21*
%TO.C,RV1*%
X219500000Y-69480000D03*
X222040000Y-72020000D03*
X224580000Y-69480000D03*
%TD*%
D22*
%TO.C,S1*%
X242650000Y-123500000D03*
X230150000Y-123500000D03*
X242650000Y-118500000D03*
X230150000Y-118500000D03*
%TD*%
M02*
