M48
; DRILL file {KiCad 8.0.5} date 2025-12-13T14:06:32+0900
; FORMAT={-:-/ absolute / metric / decimal}
; #@! TF.CreationDate,2025-12-13T14:06:32+09:00
; #@! TF.GenerationSoftware,Kicad,Pcbnew,8.0.5
; #@! TF.FileFunction,Plated,1,2,PTH
FMAT,2
METRIC
; #@! TA.AperFunction,Plated,PTH,ViaDrill
T1C0.300
; #@! TA.AperFunction,Plated,PTH,ViaDrill
T2C0.400
; #@! TA.AperFunction,Plated,PTH,ComponentDrill
T3C0.800
; #@! TA.AperFunction,Plated,PTH,ComponentDrill
T4C0.950
; #@! TA.AperFunction,Plated,PTH,ComponentDrill
T5C1.000
; #@! TA.AperFunction,Plated,PTH,ComponentDrill
T6C1.300
%
G90
G05
T1
X154.325Y-133.075
X154.6Y-66.8
X154.925Y-75.175
X155.175Y-85.2
X155.3Y-121.525
X155.425Y-98.475
X155.925Y-111.375
X159.375Y-89.8
X159.825Y-133.25
X160.65Y-123.25
X160.775Y-77.4
X161.4Y-112.725
X161.775Y-102.075
X163.05Y-66.575
X167.15Y-106.95
X167.4Y-94.675
X169.275Y-121.55
X169.525Y-82.15
X171.05Y-76.825
X171.075Y-117.475
X171.25Y-66.5
X172.25Y-127.15
X173.4Y-70.65
X174.3Y-83.8
X174.425Y-96.45
X174.8Y-102.575
X175.175Y-72.425
X176.7Y-126.725
X177.55Y-70.5
X177.775Y-111.625
X178.8Y-66.45
X179.55Y-109.85
X179.75Y-72.65
X179.85Y-77.25
X180.55Y-120.425
X180.925Y-89.175
X181.3Y-95.825
X181.675Y-133.5
X182.12Y-75.675
X182.975Y-80.025
X183.8Y-66.775
X183.8Y-70.5
X184.125Y-76.425
X184.14Y-81.19
X185.15Y-127.325
X185.175Y-105.55
X185.275Y-79.075
X185.775Y-120.225
X187.475Y-121.95
X187.675Y-72.375
X187.725Y-79.125
X187.875Y-133.675
X189.075Y-130.35
X189.325Y-87.925
X189.9Y-76.275
X191.075Y-71.15
X191.325Y-66.425
X192.0Y-133.65
X192.2Y-98.15
X192.675Y-77.525
X192.8Y-109.625
X192.8Y-130.046
X194.825Y-124.25
X195.875Y-79.95
X196.25Y-75.775
X196.675Y-93.25
X198.975Y-66.575
X199.675Y-133.675
X200.15Y-103.325
X200.25Y-124.575
X200.35Y-87.0
X201.225Y-78.95
X201.225Y-131.8
X201.25Y-119.925
X202.325Y-73.35
X202.475Y-69.025
X202.875Y-93.4
X204.325Y-111.3
X204.925Y-121.925
X206.55Y-87.225
X206.625Y-66.5
X206.75Y-75.525
X208.15Y-125.775
X208.3Y-128.975
X209.25Y-133.675
X209.325Y-120.2
X210.3Y-130.2
X210.375Y-92.9
X211.775Y-121.525
X212.825Y-79.625
X213.1Y-87.45
X213.85Y-126.175
X214.95Y-102.875
X216.425Y-73.425
X216.95Y-133.675
X217.4Y-93.3
X218.525Y-75.6
X218.725Y-87.175
X219.65Y-66.425
X221.175Y-73.55
X221.7Y-108.075
X222.4Y-80.125
X222.85Y-122.175
X226.35Y-78.9
X226.85Y-108.4
X228.0Y-82.0
X228.2Y-86.9
X228.292Y-74.682
X228.3Y-92.975
X228.775Y-129.325
X229.325Y-67.475
X230.725Y-101.225
X231.725Y-114.2
X231.925Y-133.375
X232.45Y-89.45
X232.45Y-95.425
X233.025Y-82.55
X233.025Y-122.225
X234.825Y-133.3
X235.6Y-67.225
X235.8Y-110.05
X236.525Y-118.7
X236.6Y-123.2
X237.225Y-91.625
X237.35Y-75.45
X240.225Y-133.45
X242.35Y-110.225
X242.525Y-92.4
X245.5Y-76.95
X245.525Y-107.325
X245.575Y-72.475
X245.575Y-98.075
X245.6Y-66.775
X245.6Y-117.025
X245.65Y-126.05
X245.725Y-133.525
X245.775Y-82.35
X245.9Y-92.0
T2
X217.03Y-127.89
T3
X174.8Y-115.24
X174.8Y-117.78
X177.34Y-115.24
X177.34Y-117.78
X177.5Y-121.75
X177.5Y-124.25
X179.88Y-115.24
X179.88Y-117.78
X182.42Y-115.24
X182.42Y-117.78
X184.96Y-115.24
X184.96Y-117.78
X187.5Y-82.22
X187.5Y-84.76
X187.5Y-115.24
X187.5Y-117.78
X190.04Y-82.22
X190.04Y-84.76
X190.04Y-115.24
X190.04Y-117.78
X192.58Y-82.22
X192.58Y-84.76
X192.58Y-115.24
X192.58Y-117.78
X195.12Y-82.22
X195.12Y-84.76
X195.12Y-115.24
X195.12Y-117.78
X197.66Y-82.22
X197.66Y-84.76
X197.66Y-115.24
X197.66Y-117.78
X200.2Y-82.22
X200.2Y-84.76
X200.2Y-115.24
X200.2Y-117.78
X202.74Y-82.22
X202.74Y-84.76
X202.74Y-115.24
X202.74Y-117.78
X205.28Y-82.22
X205.28Y-84.76
X205.28Y-115.24
X205.28Y-117.78
X207.82Y-82.22
X207.82Y-84.76
X207.82Y-115.24
X207.82Y-117.78
X210.36Y-82.22
X210.36Y-84.76
X210.36Y-115.24
X210.36Y-117.78
X212.9Y-82.22
X212.9Y-84.76
X212.9Y-115.24
X212.9Y-117.78
X215.44Y-82.22
X215.44Y-84.76
X215.44Y-115.24
X215.44Y-117.78
X217.98Y-82.22
X217.98Y-84.76
X217.98Y-115.24
X217.98Y-117.78
X219.5Y-69.48
X220.52Y-82.22
X220.52Y-84.76
X220.52Y-115.24
X220.52Y-117.78
X222.04Y-72.02
X223.06Y-82.22
X223.06Y-84.76
X223.06Y-87.3
X223.06Y-89.84
X223.06Y-92.38
X223.06Y-100.0
X223.06Y-102.54
X223.06Y-105.08
X223.06Y-115.24
X223.06Y-117.78
X224.58Y-69.48
X225.6Y-82.22
X225.6Y-84.76
X225.6Y-87.3
X225.6Y-89.84
X225.6Y-92.38
X225.6Y-100.0
X225.6Y-102.54
X225.6Y-105.08
X225.6Y-115.24
X225.6Y-117.78
T4
X165.0Y-68.5
X167.5Y-68.5
X169.0Y-131.0
X170.0Y-68.5
X171.5Y-131.0
X172.5Y-68.5
X174.0Y-131.0
X175.0Y-68.5
X176.5Y-131.0
X177.5Y-68.5
X179.0Y-131.0
X180.0Y-68.5
X181.5Y-131.0
X184.0Y-131.0
X187.5Y-68.5
X190.0Y-68.5
X192.5Y-68.5
X195.0Y-68.5
X214.5Y-130.0
X217.0Y-130.0
X219.5Y-130.0
X222.0Y-130.0
X224.5Y-130.0
T5
X194.92Y-128.0
X194.92Y-130.54
X197.46Y-128.0
X197.46Y-130.54
X200.0Y-128.0
X200.0Y-130.54
X202.54Y-128.0
X202.54Y-130.54
X205.08Y-128.0
X205.08Y-130.54
X210.0Y-68.5
X212.5Y-68.5
X234.88Y-98.75
X234.88Y-101.29
X234.88Y-103.83
X234.88Y-106.37
X242.5Y-98.75
X242.5Y-101.29
X242.5Y-103.83
X242.5Y-106.37
T6
X230.15Y-118.5
X230.15Y-123.5
X242.65Y-118.5
X242.65Y-123.5
M30
