%TF.GenerationSoftware,KiCad,Pcbnew,8.0.5*%
%TF.CreationDate,2025-10-03T18:43:46+09:00*%
%TF.ProjectId,IR board,49522062-6f61-4726-942e-6b696361645f,rev?*%
%TF.SameCoordinates,Original*%
%TF.FileFunction,Soldermask,Top*%
%TF.FilePolarity,Negative*%
%FSLAX46Y46*%
G04 Gerber Fmt 4.6, Leading zero omitted, Abs format (unit mm)*
G04 Created by KiCad (PCBNEW 8.0.5) date 2025-10-03 18:43:46*
%MOMM*%
%LPD*%
G01*
G04 APERTURE LIST*
G04 Aperture macros list*
%AMRoundRect*
0 Rectangle with rounded corners*
0 $1 Rounding radius*
0 $2 $3 $4 $5 $6 $7 $8 $9 X,Y pos of 4 corners*
0 Add a 4 corners polygon primitive as box body*
4,1,4,$2,$3,$4,$5,$6,$7,$8,$9,$2,$3,0*
0 Add four circle primitives for the rounded corners*
1,1,$1+$1,$2,$3*
1,1,$1+$1,$4,$5*
1,1,$1+$1,$6,$7*
1,1,$1+$1,$8,$9*
0 Add four rect primitives between the rounded corners*
20,1,$1+$1,$2,$3,$4,$5,0*
20,1,$1+$1,$4,$5,$6,$7,0*
20,1,$1+$1,$6,$7,$8,$9,0*
20,1,$1+$1,$8,$9,$2,$3,0*%
G04 Aperture macros list end*
%ADD10RoundRect,0.250200X0.918956X0.000000X0.000000X0.918956X-0.918956X0.000000X0.000000X-0.918956X0*%
%ADD11C,1.800000*%
%ADD12RoundRect,0.250200X-0.649800X-0.649800X0.649800X-0.649800X0.649800X0.649800X-0.649800X0.649800X0*%
%ADD13RoundRect,0.250200X0.649800X-0.649800X0.649800X0.649800X-0.649800X0.649800X-0.649800X-0.649800X0*%
%ADD14RoundRect,0.250200X-0.649800X0.649800X-0.649800X-0.649800X0.649800X-0.649800X0.649800X0.649800X0*%
%ADD15RoundRect,0.250200X-0.849005X-0.351669X0.351669X-0.849005X0.849005X0.351669X-0.351669X0.849005X0*%
%ADD16RoundRect,0.250200X-0.849005X0.351669X-0.351669X-0.849005X0.849005X-0.351669X0.351669X0.849005X0*%
%ADD17RoundRect,0.250200X0.849005X-0.351669X0.351669X0.849005X-0.849005X0.351669X-0.351669X-0.849005X0*%
%ADD18RoundRect,0.250200X0.849005X0.351669X-0.351669X0.849005X-0.849005X-0.351669X0.351669X-0.849005X0*%
%ADD19RoundRect,0.250200X0.649800X0.649800X-0.649800X0.649800X-0.649800X-0.649800X0.649800X-0.649800X0*%
%ADD20RoundRect,0.250200X0.351669X-0.849005X0.849005X0.351669X-0.351669X0.849005X-0.849005X-0.351669X0*%
%ADD21RoundRect,0.250200X-0.351669X-0.849005X0.849005X-0.351669X0.351669X0.849005X-0.849005X0.351669X0*%
%ADD22RoundRect,0.250200X0.000000X-0.918956X0.918956X0.000000X0.000000X0.918956X-0.918956X0.000000X0*%
%ADD23RoundRect,0.250200X0.351669X0.849005X-0.849005X0.351669X-0.351669X-0.849005X0.849005X-0.351669X0*%
%ADD24RoundRect,0.250200X-0.918956X0.000000X0.000000X-0.918956X0.918956X0.000000X0.000000X0.918956X0*%
%ADD25RoundRect,0.250200X-0.351669X0.849005X-0.849005X-0.351669X0.351669X-0.849005X0.849005X0.351669X0*%
%ADD26R,1.600000X1.600000*%
%ADD27O,1.600000X1.600000*%
%ADD28RoundRect,0.250200X0.000000X0.918956X-0.918956X0.000000X0.000000X-0.918956X0.918956X0.000000X0*%
%ADD29RoundRect,0.250000X-0.600000X-0.725000X0.600000X-0.725000X0.600000X0.725000X-0.600000X0.725000X0*%
%ADD30O,1.700000X1.950000*%
G04 APERTURE END LIST*
D10*
%TO.C,U15*%
X233883657Y-69708343D03*
D11*
X232087606Y-67912292D03*
X230291556Y-66116241D03*
%TD*%
D12*
%TO.C,U9*%
X197460000Y-145378800D03*
D11*
X200000000Y-145378800D03*
X202540000Y-145378800D03*
%TD*%
D13*
%TO.C,U13*%
X245378800Y-102540000D03*
D11*
X245378800Y-100000000D03*
X245378800Y-97460000D03*
%TD*%
D14*
%TO.C,U5*%
X154621200Y-97460000D03*
D11*
X154621200Y-100000000D03*
X154621200Y-102540000D03*
%TD*%
D15*
%TO.C,U8*%
X180287285Y-140952545D03*
D11*
X182633939Y-141924561D03*
X184980592Y-142896577D03*
%TD*%
D16*
%TO.C,U6*%
X157103455Y-115018715D03*
D11*
X158075471Y-117365369D03*
X159047487Y-119712022D03*
%TD*%
D17*
%TO.C,U14*%
X242896545Y-84981285D03*
D11*
X241924529Y-82634631D03*
X240952513Y-80287978D03*
%TD*%
D18*
%TO.C,U16*%
X219712715Y-59047455D03*
D11*
X217366061Y-58075439D03*
X215019407Y-57103423D03*
%TD*%
D19*
%TO.C,U1*%
X202540000Y-54621200D03*
D11*
X200000000Y-54621200D03*
X197460000Y-54621200D03*
%TD*%
D20*
%TO.C,U12*%
X240952545Y-119712715D03*
D11*
X241924561Y-117366061D03*
X242896577Y-115019407D03*
%TD*%
D21*
%TO.C,U10*%
X215018715Y-142896545D03*
D11*
X217365369Y-141924529D03*
X219712023Y-140952512D03*
%TD*%
D22*
%TO.C,U11*%
X230291657Y-133883657D03*
D11*
X232087708Y-132087606D03*
X233883759Y-130291554D03*
%TD*%
D23*
%TO.C,U2*%
X184981285Y-57103455D03*
D11*
X182634631Y-58075471D03*
X180287978Y-59047487D03*
%TD*%
D24*
%TO.C,U7*%
X166116343Y-130291657D03*
D11*
X167912394Y-132087708D03*
X169708445Y-133883760D03*
%TD*%
D25*
%TO.C,U4*%
X159047455Y-80287285D03*
D11*
X158075439Y-82633939D03*
X157103423Y-84980593D03*
%TD*%
D26*
%TO.C,A1*%
X192380000Y-82220000D03*
D27*
X192380000Y-84760000D03*
X192380000Y-87300000D03*
X192380000Y-89840000D03*
X192380000Y-92380000D03*
X192380000Y-94920000D03*
X192380000Y-97460000D03*
X192380000Y-100000000D03*
X192380000Y-102540000D03*
X192380000Y-105080000D03*
X192380000Y-107620000D03*
X192380000Y-110160000D03*
X192380000Y-112700000D03*
X192380000Y-115240000D03*
X192380000Y-117780000D03*
X207620000Y-117780000D03*
X207620000Y-115240000D03*
X207620000Y-112700000D03*
X207620000Y-110160000D03*
X207620000Y-107620000D03*
X207620000Y-105080000D03*
X207620000Y-102540000D03*
X207620000Y-100000000D03*
X207620000Y-97460000D03*
X207620000Y-94920000D03*
X207620000Y-92380000D03*
X207620000Y-89840000D03*
X207620000Y-87300000D03*
X207620000Y-84760000D03*
X207620000Y-82220000D03*
%TD*%
D28*
%TO.C,U3*%
X169708343Y-66116343D03*
D11*
X167912292Y-67912394D03*
X166116239Y-69708445D03*
%TD*%
D29*
%TO.C,J1*%
X194920000Y-133890000D03*
D30*
X197420000Y-133890000D03*
X199920000Y-133890000D03*
X202420000Y-133890000D03*
X204920000Y-133890000D03*
%TD*%
M02*
