%TF.GenerationSoftware,KiCad,Pcbnew,8.0.5*%
%TF.CreationDate,2025-10-03T18:43:45+09:00*%
%TF.ProjectId,IR board,49522062-6f61-4726-942e-6b696361645f,rev?*%
%TF.SameCoordinates,Original*%
%TF.FileFunction,Copper,L2,Bot*%
%TF.FilePolarity,Positive*%
%FSLAX46Y46*%
G04 Gerber Fmt 4.6, Leading zero omitted, Abs format (unit mm)*
G04 Created by KiCad (PCBNEW 8.0.5) date 2025-10-03 18:43:45*
%MOMM*%
%LPD*%
G01*
G04 APERTURE LIST*
G04 Aperture macros list*
%AMRoundRect*
0 Rectangle with rounded corners*
0 $1 Rounding radius*
0 $2 $3 $4 $5 $6 $7 $8 $9 X,Y pos of 4 corners*
0 Add a 4 corners polygon primitive as box body*
4,1,4,$2,$3,$4,$5,$6,$7,$8,$9,$2,$3,0*
0 Add four circle primitives for the rounded corners*
1,1,$1+$1,$2,$3*
1,1,$1+$1,$4,$5*
1,1,$1+$1,$6,$7*
1,1,$1+$1,$8,$9*
0 Add four rect primitives between the rounded corners*
20,1,$1+$1,$2,$3,$4,$5,0*
20,1,$1+$1,$4,$5,$6,$7,0*
20,1,$1+$1,$6,$7,$8,$9,0*
20,1,$1+$1,$8,$9,$2,$3,0*%
G04 Aperture macros list end*
%TA.AperFunction,ComponentPad*%
%ADD10RoundRect,0.250200X0.918956X0.000000X0.000000X0.918956X-0.918956X0.000000X0.000000X-0.918956X0*%
%TD*%
%TA.AperFunction,ComponentPad*%
%ADD11C,1.800000*%
%TD*%
%TA.AperFunction,ComponentPad*%
%ADD12RoundRect,0.250200X-0.649800X-0.649800X0.649800X-0.649800X0.649800X0.649800X-0.649800X0.649800X0*%
%TD*%
%TA.AperFunction,ComponentPad*%
%ADD13RoundRect,0.250200X0.649800X-0.649800X0.649800X0.649800X-0.649800X0.649800X-0.649800X-0.649800X0*%
%TD*%
%TA.AperFunction,ComponentPad*%
%ADD14RoundRect,0.250200X-0.649800X0.649800X-0.649800X-0.649800X0.649800X-0.649800X0.649800X0.649800X0*%
%TD*%
%TA.AperFunction,ComponentPad*%
%ADD15RoundRect,0.250200X-0.849005X-0.351669X0.351669X-0.849005X0.849005X0.351669X-0.351669X0.849005X0*%
%TD*%
%TA.AperFunction,ComponentPad*%
%ADD16RoundRect,0.250200X-0.849005X0.351669X-0.351669X-0.849005X0.849005X-0.351669X0.351669X0.849005X0*%
%TD*%
%TA.AperFunction,ComponentPad*%
%ADD17RoundRect,0.250200X0.849005X-0.351669X0.351669X0.849005X-0.849005X0.351669X-0.351669X-0.849005X0*%
%TD*%
%TA.AperFunction,ComponentPad*%
%ADD18RoundRect,0.250200X0.849005X0.351669X-0.351669X0.849005X-0.849005X-0.351669X0.351669X-0.849005X0*%
%TD*%
%TA.AperFunction,ComponentPad*%
%ADD19RoundRect,0.250200X0.649800X0.649800X-0.649800X0.649800X-0.649800X-0.649800X0.649800X-0.649800X0*%
%TD*%
%TA.AperFunction,ComponentPad*%
%ADD20RoundRect,0.250200X0.351669X-0.849005X0.849005X0.351669X-0.351669X0.849005X-0.849005X-0.351669X0*%
%TD*%
%TA.AperFunction,ComponentPad*%
%ADD21RoundRect,0.250200X-0.351669X-0.849005X0.849005X-0.351669X0.351669X0.849005X-0.849005X0.351669X0*%
%TD*%
%TA.AperFunction,ComponentPad*%
%ADD22RoundRect,0.250200X0.000000X-0.918956X0.918956X0.000000X0.000000X0.918956X-0.918956X0.000000X0*%
%TD*%
%TA.AperFunction,ComponentPad*%
%ADD23RoundRect,0.250200X0.351669X0.849005X-0.849005X0.351669X-0.351669X-0.849005X0.849005X-0.351669X0*%
%TD*%
%TA.AperFunction,ComponentPad*%
%ADD24RoundRect,0.250200X-0.918956X0.000000X0.000000X-0.918956X0.918956X0.000000X0.000000X0.918956X0*%
%TD*%
%TA.AperFunction,ComponentPad*%
%ADD25RoundRect,0.250200X-0.351669X0.849005X-0.849005X-0.351669X0.351669X-0.849005X0.849005X0.351669X0*%
%TD*%
%TA.AperFunction,ComponentPad*%
%ADD26R,1.600000X1.600000*%
%TD*%
%TA.AperFunction,ComponentPad*%
%ADD27O,1.600000X1.600000*%
%TD*%
%TA.AperFunction,ComponentPad*%
%ADD28RoundRect,0.250200X0.000000X0.918956X-0.918956X0.000000X0.000000X-0.918956X0.918956X0.000000X0*%
%TD*%
%TA.AperFunction,ComponentPad*%
%ADD29RoundRect,0.250000X-0.600000X-0.725000X0.600000X-0.725000X0.600000X0.725000X-0.600000X0.725000X0*%
%TD*%
%TA.AperFunction,ComponentPad*%
%ADD30O,1.700000X1.950000*%
%TD*%
%TA.AperFunction,ViaPad*%
%ADD31C,0.800000*%
%TD*%
%TA.AperFunction,ViaPad*%
%ADD32C,0.600000*%
%TD*%
%TA.AperFunction,Conductor*%
%ADD33C,0.500000*%
%TD*%
%TA.AperFunction,Conductor*%
%ADD34C,1.000000*%
%TD*%
%TA.AperFunction,Conductor*%
%ADD35C,0.200000*%
%TD*%
G04 APERTURE END LIST*
D10*
%TO.P,U15,1,OUT*%
%TO.N,IR 14*%
X233883657Y-69708343D03*
D11*
%TO.P,U15,2,GND*%
%TO.N,GND*%
X232087606Y-67912292D03*
%TO.P,U15,3,Vs*%
%TO.N,+3.3V*%
X230291556Y-66116241D03*
%TD*%
D12*
%TO.P,U9,1,OUT*%
%TO.N,IR 8*%
X197460000Y-145378800D03*
D11*
%TO.P,U9,2,GND*%
%TO.N,GND*%
X200000000Y-145378800D03*
%TO.P,U9,3,Vs*%
%TO.N,+3.3V*%
X202540000Y-145378800D03*
%TD*%
D13*
%TO.P,U13,1,OUT*%
%TO.N,IR 12*%
X245378800Y-102540000D03*
D11*
%TO.P,U13,2,GND*%
%TO.N,GND*%
X245378800Y-100000000D03*
%TO.P,U13,3,Vs*%
%TO.N,+3.3V*%
X245378800Y-97460000D03*
%TD*%
D14*
%TO.P,U5,1,OUT*%
%TO.N,IR 4*%
X154621200Y-97460000D03*
D11*
%TO.P,U5,2,GND*%
%TO.N,GND*%
X154621200Y-100000000D03*
%TO.P,U5,3,Vs*%
%TO.N,+3.3V*%
X154621200Y-102540000D03*
%TD*%
D15*
%TO.P,U8,1,OUT*%
%TO.N,IR 7*%
X180287285Y-140952545D03*
D11*
%TO.P,U8,2,GND*%
%TO.N,GND*%
X182633939Y-141924561D03*
%TO.P,U8,3,Vs*%
%TO.N,+3.3V*%
X184980592Y-142896577D03*
%TD*%
D16*
%TO.P,U6,1,OUT*%
%TO.N,IR 5*%
X157103455Y-115018715D03*
D11*
%TO.P,U6,2,GND*%
%TO.N,GND*%
X158075471Y-117365369D03*
%TO.P,U6,3,Vs*%
%TO.N,+3.3V*%
X159047487Y-119712022D03*
%TD*%
D17*
%TO.P,U14,1,OUT*%
%TO.N,IR 13*%
X242896545Y-84981285D03*
D11*
%TO.P,U14,2,GND*%
%TO.N,GND*%
X241924529Y-82634631D03*
%TO.P,U14,3,Vs*%
%TO.N,+3.3V*%
X240952513Y-80287978D03*
%TD*%
D18*
%TO.P,U16,1,OUT*%
%TO.N,IR 15*%
X219712715Y-59047455D03*
D11*
%TO.P,U16,2,GND*%
%TO.N,GND*%
X217366061Y-58075439D03*
%TO.P,U16,3,Vs*%
%TO.N,+3.3V*%
X215019407Y-57103423D03*
%TD*%
D19*
%TO.P,U1,1,OUT*%
%TO.N,IR 0*%
X202540000Y-54621200D03*
D11*
%TO.P,U1,2,GND*%
%TO.N,GND*%
X200000000Y-54621200D03*
%TO.P,U1,3,Vs*%
%TO.N,+3.3V*%
X197460000Y-54621200D03*
%TD*%
D20*
%TO.P,U12,1,OUT*%
%TO.N,IR 11*%
X240952545Y-119712715D03*
D11*
%TO.P,U12,2,GND*%
%TO.N,GND*%
X241924561Y-117366061D03*
%TO.P,U12,3,Vs*%
%TO.N,+3.3V*%
X242896577Y-115019407D03*
%TD*%
D21*
%TO.P,U10,1,OUT*%
%TO.N,IR 9*%
X215018715Y-142896545D03*
D11*
%TO.P,U10,2,GND*%
%TO.N,GND*%
X217365369Y-141924529D03*
%TO.P,U10,3,Vs*%
%TO.N,+3.3V*%
X219712023Y-140952512D03*
%TD*%
D22*
%TO.P,U11,1,OUT*%
%TO.N,IR 10*%
X230291657Y-133883657D03*
D11*
%TO.P,U11,2,GND*%
%TO.N,GND*%
X232087708Y-132087606D03*
%TO.P,U11,3,Vs*%
%TO.N,+3.3V*%
X233883759Y-130291554D03*
%TD*%
D23*
%TO.P,U2,1,OUT*%
%TO.N,IR 1*%
X184981285Y-57103455D03*
D11*
%TO.P,U2,2,GND*%
%TO.N,GND*%
X182634631Y-58075471D03*
%TO.P,U2,3,Vs*%
%TO.N,+3.3V*%
X180287978Y-59047487D03*
%TD*%
D24*
%TO.P,U7,1,OUT*%
%TO.N,IR 6*%
X166116343Y-130291657D03*
D11*
%TO.P,U7,2,GND*%
%TO.N,GND*%
X167912394Y-132087708D03*
%TO.P,U7,3,Vs*%
%TO.N,+3.3V*%
X169708445Y-133883760D03*
%TD*%
D25*
%TO.P,U4,1,OUT*%
%TO.N,IR 3*%
X159047455Y-80287285D03*
D11*
%TO.P,U4,2,GND*%
%TO.N,GND*%
X158075439Y-82633939D03*
%TO.P,U4,3,Vs*%
%TO.N,+3.3V*%
X157103423Y-84980593D03*
%TD*%
D26*
%TO.P,A1,1,TX1*%
%TO.N,IR TX*%
X192380000Y-82220000D03*
D27*
%TO.P,A1,2,RX1*%
%TO.N,IR RX*%
X192380000Y-84760000D03*
%TO.P,A1,3,~{RESET}*%
%TO.N,unconnected-(A1-~{RESET}-Pad3)*%
X192380000Y-87300000D03*
%TO.P,A1,4,GND*%
%TO.N,GND*%
X192380000Y-89840000D03*
%TO.P,A1,5,D2*%
%TO.N,IR 0*%
X192380000Y-92380000D03*
%TO.P,A1,6,D3*%
%TO.N,IR 1*%
X192380000Y-94920000D03*
%TO.P,A1,7,D4*%
%TO.N,IR 2*%
X192380000Y-97460000D03*
%TO.P,A1,8,D5*%
%TO.N,IR 3*%
X192380000Y-100000000D03*
%TO.P,A1,9,D6*%
%TO.N,IR 4*%
X192380000Y-102540000D03*
%TO.P,A1,10,D7*%
%TO.N,IR 5*%
X192380000Y-105080000D03*
%TO.P,A1,11,D8*%
%TO.N,IR 6*%
X192380000Y-107620000D03*
%TO.P,A1,12,D9*%
%TO.N,IR 7*%
X192380000Y-110160000D03*
%TO.P,A1,13,D10*%
%TO.N,IR 8*%
X192380000Y-112700000D03*
%TO.P,A1,14,MOSI*%
%TO.N,unconnected-(A1-MOSI-Pad14)*%
X192380000Y-115240000D03*
%TO.P,A1,15,MISO*%
%TO.N,unconnected-(A1-MISO-Pad15)*%
X192380000Y-117780000D03*
%TO.P,A1,16,SCK*%
%TO.N,unconnected-(A1-SCK-Pad16)*%
X207620000Y-117780000D03*
%TO.P,A1,17,3V3*%
%TO.N,unconnected-(A1-3V3-Pad17)*%
X207620000Y-115240000D03*
%TO.P,A1,18,AREF*%
%TO.N,unconnected-(A1-AREF-Pad18)*%
X207620000Y-112700000D03*
%TO.P,A1,19,A0*%
%TO.N,IR 9*%
X207620000Y-110160000D03*
%TO.P,A1,20,A1*%
%TO.N,IR 10*%
X207620000Y-107620000D03*
%TO.P,A1,21,A2*%
%TO.N,IR 11*%
X207620000Y-105080000D03*
%TO.P,A1,22,A3*%
%TO.N,IR 12*%
X207620000Y-102540000D03*
%TO.P,A1,23,SDA/A4*%
%TO.N,IR 13*%
X207620000Y-100000000D03*
%TO.P,A1,24,SCL/A5*%
%TO.N,IR 14*%
X207620000Y-97460000D03*
%TO.P,A1,25,A6*%
%TO.N,IR 15*%
X207620000Y-94920000D03*
%TO.P,A1,26,A7*%
%TO.N,unconnected-(A1-A7-Pad26)*%
X207620000Y-92380000D03*
%TO.P,A1,27,+5V*%
%TO.N,unconnected-(A1-+5V-Pad27)*%
X207620000Y-89840000D03*
%TO.P,A1,28,~{RESET}*%
%TO.N,unconnected-(A1-~{RESET}-Pad28)*%
X207620000Y-87300000D03*
%TO.P,A1,29,GND*%
%TO.N,GND*%
X207620000Y-84760000D03*
%TO.P,A1,30,VIN*%
%TO.N,+9V*%
X207620000Y-82220000D03*
%TD*%
D28*
%TO.P,U3,1,OUT*%
%TO.N,IR 2*%
X169708343Y-66116343D03*
D11*
%TO.P,U3,2,GND*%
%TO.N,GND*%
X167912292Y-67912394D03*
%TO.P,U3,3,Vs*%
%TO.N,+3.3V*%
X166116239Y-69708445D03*
%TD*%
D29*
%TO.P,J1,1,Pin_1*%
%TO.N,IR TX*%
X194920000Y-133890000D03*
D30*
%TO.P,J1,2,Pin_2*%
%TO.N,IR RX*%
X197420000Y-133890000D03*
%TO.P,J1,3,Pin_3*%
%TO.N,+3.3V*%
X199920000Y-133890000D03*
%TO.P,J1,4,Pin_4*%
%TO.N,+9V*%
X202420000Y-133890000D03*
%TO.P,J1,5,Pin_5*%
%TO.N,GND*%
X204920000Y-133890000D03*
%TD*%
D31*
%TO.N,GND*%
X195550000Y-147800000D03*
X199850000Y-70800000D03*
X230350000Y-72250000D03*
X197000000Y-89840000D03*
X190100000Y-131300000D03*
X218850000Y-98800000D03*
X195900000Y-82000000D03*
X238700000Y-85600000D03*
X213250000Y-145450000D03*
X241400000Y-76450000D03*
X204650000Y-109200000D03*
X238150000Y-83600000D03*
X236450000Y-131750000D03*
X156200000Y-111550000D03*
X245900000Y-67300000D03*
X164900000Y-124750000D03*
X188600000Y-105200000D03*
X218500000Y-63150000D03*
X200225000Y-85250000D03*
X230100000Y-137150000D03*
X178500000Y-143500000D03*
X203750000Y-88900000D03*
D32*
X248800000Y-94200000D03*
D31*
X226400000Y-140250000D03*
X172700000Y-139750000D03*
X152200000Y-106850000D03*
X209400000Y-61600000D03*
X245350000Y-115800000D03*
X180100000Y-136400000D03*
X205600000Y-51800000D03*
X209400000Y-146000000D03*
X166950000Y-75050000D03*
X166450000Y-66050000D03*
X223850000Y-101650000D03*
X151600000Y-96750000D03*
X202350000Y-121850000D03*
X195950000Y-59800000D03*
X154650000Y-84400000D03*
X226900000Y-60550000D03*
X186800000Y-129350000D03*
X188200000Y-102700000D03*
X239450000Y-72000000D03*
X210000000Y-65350000D03*
X240100000Y-68650000D03*
X201050000Y-90950000D03*
X161400000Y-113950000D03*
X201400000Y-67100000D03*
X206700000Y-54600000D03*
X203500000Y-100250000D03*
X152850000Y-90300000D03*
X187350000Y-68900000D03*
X152650000Y-93200000D03*
X229000000Y-63950000D03*
X210550000Y-104850000D03*
X243900000Y-79550000D03*
X199800000Y-113200000D03*
X181900000Y-144400000D03*
X171550000Y-138550000D03*
X201700000Y-148050000D03*
X244700000Y-117900000D03*
X201850000Y-79150000D03*
X208450000Y-76350000D03*
X188850000Y-125800000D03*
D32*
X238300000Y-99000000D03*
D31*
X187750000Y-86050000D03*
X241850000Y-77900000D03*
X171400000Y-131450000D03*
X157000000Y-122450000D03*
X230350000Y-101400000D03*
X203150000Y-94800000D03*
X228650000Y-98650000D03*
X221800000Y-99400000D03*
X243450000Y-105650000D03*
X191300000Y-64500000D03*
X198900000Y-127850000D03*
X164400000Y-120600000D03*
X231900000Y-135950000D03*
X161250000Y-99300000D03*
X232900000Y-65150000D03*
X188000000Y-71100000D03*
X246750000Y-86500000D03*
X246250000Y-113450000D03*
X151900000Y-104100000D03*
X241700000Y-123700000D03*
X213000000Y-65100000D03*
X195950000Y-74450000D03*
X178600000Y-56950000D03*
X240100000Y-91350000D03*
X163550000Y-119450000D03*
X242850000Y-94350000D03*
X242150000Y-72050000D03*
X175650000Y-99600000D03*
X212450000Y-69650000D03*
X187650000Y-136250000D03*
X167300000Y-135200000D03*
X181800000Y-98800000D03*
X154700000Y-115950000D03*
X210900000Y-119600000D03*
X186850000Y-88200000D03*
X219900000Y-144000000D03*
X209750000Y-147600000D03*
X244750000Y-82150000D03*
D32*
X248200000Y-100400000D03*
D31*
X243050000Y-121150000D03*
X201500000Y-126400000D03*
X168450000Y-128400000D03*
X198050000Y-72350000D03*
X207350000Y-61150000D03*
D32*
X205350000Y-84800000D03*
D31*
X212150000Y-55350000D03*
X187800000Y-107750000D03*
X189400000Y-146300000D03*
X240550000Y-74200000D03*
X242300000Y-96700000D03*
X211450000Y-98000000D03*
X187550000Y-116400000D03*
X174200000Y-64200000D03*
X216550000Y-145150000D03*
X195100000Y-52050000D03*
X188950000Y-52850000D03*
X164850000Y-132400000D03*
X159000000Y-92350000D03*
X207300000Y-69050000D03*
X198125000Y-77225000D03*
X189150000Y-60550000D03*
X200700000Y-68600000D03*
X211350000Y-114800000D03*
X175100000Y-141450000D03*
X235350000Y-133050000D03*
X216900000Y-54900000D03*
X169550000Y-137700000D03*
X239300000Y-126600000D03*
X187300000Y-96750000D03*
X211200000Y-92000000D03*
X237400000Y-70150000D03*
X162800000Y-129950000D03*
X161700000Y-115850000D03*
X198700000Y-60450000D03*
X174950000Y-132600000D03*
X172700000Y-100700000D03*
X190100000Y-140950000D03*
X159800000Y-89900000D03*
X228050000Y-69600000D03*
X155850000Y-118500000D03*
X212550000Y-62800000D03*
X156750000Y-78950000D03*
X201150000Y-73750000D03*
X216900000Y-62300000D03*
X202200000Y-116200000D03*
D32*
X238650000Y-101200000D03*
X248600000Y-98000000D03*
D31*
X228350000Y-138450000D03*
X216350000Y-99300000D03*
X235800000Y-68250000D03*
X229400000Y-70950000D03*
X153700000Y-113100000D03*
X198950000Y-147900000D03*
X188250000Y-78950000D03*
X158800000Y-101800000D03*
X232900000Y-134900000D03*
X218100000Y-144250000D03*
X159350000Y-125000000D03*
X163300000Y-123250000D03*
X188750000Y-63300000D03*
X212600000Y-81250000D03*
X158750000Y-97600000D03*
X246700000Y-111600000D03*
X212750000Y-53450000D03*
X239550000Y-88250000D03*
X247000000Y-108000000D03*
X162200000Y-117450000D03*
X187200000Y-91350000D03*
D32*
X248200000Y-96000000D03*
D31*
X198450000Y-120950000D03*
X162350000Y-69950000D03*
X187200000Y-133550000D03*
X222550000Y-57400000D03*
X245400000Y-91350000D03*
X188100000Y-120550000D03*
X242800000Y-89000000D03*
X233450000Y-73800000D03*
X200050000Y-52100000D03*
X162600000Y-81800000D03*
X185750000Y-101800000D03*
X158700000Y-107250000D03*
X230750000Y-63050000D03*
X237350000Y-129900000D03*
X210000000Y-52500000D03*
X235600000Y-75200000D03*
X207400000Y-64100000D03*
X236800000Y-75900000D03*
X200150000Y-105050000D03*
X187200000Y-83100000D03*
X187950000Y-112700000D03*
X184250000Y-54550000D03*
X193500000Y-76500000D03*
X212150000Y-74200000D03*
X219650000Y-101200000D03*
X205700000Y-146850000D03*
X168550000Y-101550000D03*
X158550000Y-94500000D03*
X219600000Y-56000000D03*
X154700000Y-105500000D03*
X212600000Y-77350000D03*
X154750000Y-109700000D03*
X219750000Y-63750000D03*
X208950000Y-72450000D03*
X178100000Y-135400000D03*
X174300000Y-58800000D03*
X169100000Y-72000000D03*
X245650000Y-84550000D03*
X209700000Y-54850000D03*
X195350000Y-64350000D03*
X151950000Y-102050000D03*
X245200000Y-94650000D03*
X170600000Y-61850000D03*
X199650000Y-97350000D03*
X193750000Y-147250000D03*
X187500000Y-74550000D03*
X224850000Y-141100000D03*
X178850000Y-101600000D03*
X211300000Y-87100000D03*
X191575000Y-146425000D03*
X243550000Y-110550000D03*
X198800000Y-109250000D03*
X151400000Y-99900000D03*
X161050000Y-127050000D03*
X185900000Y-146300000D03*
X169650000Y-99100000D03*
X222350000Y-142450000D03*
X158800000Y-73800000D03*
D32*
%TO.N,IR RX*%
X194150000Y-91750000D03*
%TD*%
D33*
%TO.N,+3.3V*%
X216380000Y-140620000D02*
X202540000Y-140620000D01*
X217000000Y-140000000D02*
X216380000Y-140620000D01*
D34*
%TO.N,GND*%
X192380000Y-89840000D02*
X197000000Y-89840000D01*
D35*
%TO.N,IR RX*%
X197420000Y-95020000D02*
X197420000Y-133890000D01*
X194150000Y-91750000D02*
X197420000Y-95020000D01*
D33*
%TO.N,+3.3V*%
X242896577Y-115019407D02*
X241055593Y-115019407D01*
X218000000Y-139000000D02*
X223266125Y-139000000D01*
X157103423Y-109103423D02*
X157103423Y-104815377D01*
X216643192Y-60000000D02*
X215019407Y-58376215D01*
X230291556Y-68025431D02*
X230291556Y-66116241D01*
X240000000Y-114875000D02*
X240000000Y-116075000D01*
X215019407Y-58376215D02*
X215019407Y-57103423D01*
X188896577Y-142896577D02*
X187000000Y-141000000D01*
X230291556Y-68025431D02*
X226492851Y-68025431D01*
X239000000Y-82240491D02*
X240952513Y-80287978D01*
X166116239Y-71883761D02*
X166116239Y-69708445D01*
X173000000Y-133000000D02*
X173000000Y-131000000D01*
X166116239Y-71883761D02*
X168000000Y-70000000D01*
X241019407Y-113855593D02*
X240000000Y-114875000D01*
X215019407Y-58376215D02*
X201215015Y-58376215D01*
X201215015Y-58376215D02*
X197460000Y-54621200D01*
X186000000Y-141000000D02*
X183000000Y-138000000D01*
X188896577Y-142896577D02*
X184980592Y-142896577D01*
X157000000Y-104918800D02*
X154621200Y-102540000D01*
X157103423Y-90000000D02*
X161000000Y-86103423D01*
X223266125Y-139000000D02*
X231974571Y-130291554D01*
X241019407Y-101819393D02*
X245378800Y-97460000D01*
X241019407Y-87019407D02*
X240000000Y-86000000D01*
X187000000Y-141000000D02*
X186000000Y-141000000D01*
X183000000Y-138000000D02*
X178000000Y-138000000D01*
X240000000Y-116075000D02*
X240000000Y-117381433D01*
X231974571Y-130291554D02*
X233883759Y-130291554D01*
X241055593Y-115019407D02*
X240000000Y-116075000D01*
X199920000Y-138000000D02*
X199920000Y-139180000D01*
X226492851Y-68025431D02*
X218467420Y-60000000D01*
X157103423Y-104815377D02*
X157103423Y-90000000D01*
X162000000Y-120000000D02*
X160000000Y-118000000D01*
X168000000Y-70000000D02*
X171000000Y-70000000D01*
X157000000Y-104918800D02*
X157103423Y-104815377D01*
X157103423Y-90000000D02*
X157103423Y-84980593D01*
X161000000Y-81000000D02*
X165000000Y-77000000D01*
X202540000Y-140620000D02*
X202540000Y-145378800D01*
X180287978Y-60712022D02*
X180287978Y-59047487D01*
X196203423Y-142896577D02*
X188896577Y-142896577D01*
X171000000Y-70000000D02*
X180287978Y-60712022D01*
X218759511Y-140000000D02*
X219712023Y-140952512D01*
X165000000Y-73000000D02*
X166116239Y-71883761D01*
X162000000Y-120000000D02*
X159335465Y-120000000D01*
X160000000Y-112000000D02*
X157103423Y-109103423D01*
X165000000Y-77000000D02*
X165000000Y-73000000D01*
X240000000Y-86000000D02*
X240000000Y-84000000D01*
X201772500Y-139852500D02*
X202540000Y-140620000D01*
X237650000Y-75383875D02*
X237650000Y-81650000D01*
X160000000Y-118000000D02*
X160000000Y-112000000D01*
X231974571Y-125406862D02*
X240000000Y-117381433D01*
X161000000Y-86103423D02*
X161000000Y-81000000D01*
X230291556Y-68025431D02*
X237650000Y-75383875D01*
X199920000Y-138000000D02*
X199920000Y-133890000D01*
X217000000Y-140000000D02*
X218759511Y-140000000D01*
X201772500Y-139852500D02*
X199920000Y-138000000D01*
X217000000Y-140000000D02*
X218000000Y-139000000D01*
X231974571Y-130291554D02*
X231974571Y-125406862D01*
X173883760Y-133883760D02*
X169708445Y-133883760D01*
X240000000Y-84000000D02*
X239000000Y-83000000D01*
X237650000Y-81650000D02*
X239000000Y-83000000D01*
X241019407Y-101819393D02*
X241019407Y-87019407D01*
X218467420Y-60000000D02*
X216643192Y-60000000D01*
X178000000Y-138000000D02*
X173883760Y-133883760D01*
X239000000Y-83000000D02*
X239000000Y-82240491D01*
X199920000Y-139180000D02*
X196203423Y-142896577D01*
X173883760Y-133883760D02*
X173000000Y-133000000D01*
X173000000Y-131000000D02*
X162000000Y-120000000D01*
X241019407Y-101819393D02*
X241019407Y-113855593D01*
X159335465Y-120000000D02*
X159047487Y-119712022D01*
D34*
%TO.N,+9V*%
X207620000Y-82220000D02*
X209320000Y-82220000D01*
X212900000Y-122425000D02*
X209415000Y-125910000D01*
X212900000Y-85800000D02*
X212900000Y-122425000D01*
X209320000Y-82220000D02*
X212900000Y-85800000D01*
X209415000Y-125910000D02*
X203890000Y-125910000D01*
X202420000Y-127380000D02*
X202420000Y-133890000D01*
X203890000Y-125910000D02*
X202420000Y-127380000D01*
%TD*%
%TA.AperFunction,Conductor*%
%TO.N,GND*%
G36*
X241609751Y-115789592D02*
G01*
X241655506Y-115842396D01*
X241665450Y-115911554D01*
X241651151Y-115954049D01*
X241627756Y-115996230D01*
X242011878Y-116923583D01*
X241983805Y-116916061D01*
X241865317Y-116916061D01*
X241750867Y-116946728D01*
X241648255Y-117005971D01*
X241564471Y-117089755D01*
X241549938Y-117114925D01*
X241158932Y-116170952D01*
X241135536Y-116154015D01*
X241110075Y-116088950D01*
X241123833Y-116020448D01*
X241145918Y-115990449D01*
X241330142Y-115806226D01*
X241391465Y-115772741D01*
X241417823Y-115769907D01*
X241542712Y-115769907D01*
X241609751Y-115789592D01*
G37*
%TD.AperFunction*%
%TA.AperFunction,Conductor*%
G36*
X160209691Y-81541662D02*
G01*
X160245545Y-81601631D01*
X160249500Y-81632700D01*
X160249500Y-85741193D01*
X160229815Y-85808232D01*
X160213181Y-85828874D01*
X158065604Y-87976451D01*
X158004281Y-88009936D01*
X157934589Y-88004952D01*
X157878656Y-87963080D01*
X157854239Y-87897616D01*
X157853923Y-87888770D01*
X157853923Y-86231791D01*
X157873608Y-86164752D01*
X157901761Y-86133937D01*
X158055207Y-86014506D01*
X158212402Y-85843746D01*
X158339347Y-85649442D01*
X158432580Y-85436893D01*
X158489557Y-85211898D01*
X158489558Y-85211890D01*
X158508723Y-84980599D01*
X158508723Y-84980586D01*
X158489558Y-84749295D01*
X158489556Y-84749284D01*
X158432580Y-84524292D01*
X158339347Y-84311744D01*
X158264959Y-84197884D01*
X158244772Y-84130995D01*
X158263952Y-84063809D01*
X158316410Y-84017659D01*
X158348358Y-84007754D01*
X158372242Y-84003768D01*
X157988120Y-83076416D01*
X158016195Y-83083939D01*
X158134683Y-83083939D01*
X158249133Y-83053272D01*
X158351745Y-82994029D01*
X158435529Y-82910245D01*
X158450059Y-82885076D01*
X158835116Y-83814682D01*
X158835117Y-83814682D01*
X158843788Y-83809990D01*
X159026880Y-83667483D01*
X159184024Y-83496781D01*
X159310922Y-83302548D01*
X159404121Y-83090074D01*
X159461077Y-82865157D01*
X159480237Y-82633944D01*
X159480237Y-82633933D01*
X159461078Y-82402725D01*
X159461076Y-82402713D01*
X159444545Y-82337434D01*
X158517916Y-82721255D01*
X158525439Y-82693183D01*
X158525439Y-82574695D01*
X158494772Y-82460245D01*
X158435529Y-82357633D01*
X158351745Y-82273849D01*
X158326573Y-82259316D01*
X159220192Y-81889167D01*
X159276651Y-81880056D01*
X159422424Y-81890676D01*
X159432092Y-81891381D01*
X159432092Y-81891380D01*
X159432093Y-81891381D01*
X159558139Y-81871041D01*
X159605335Y-81863426D01*
X159605337Y-81863425D01*
X159605340Y-81863425D01*
X159605341Y-81863424D01*
X159605343Y-81863424D01*
X159652830Y-81843753D01*
X159767470Y-81796268D01*
X159909742Y-81693532D01*
X160018860Y-81567267D01*
X160028915Y-81555632D01*
X160030240Y-81556777D01*
X160077663Y-81518299D01*
X160147107Y-81510597D01*
X160209691Y-81541662D01*
G37*
%TD.AperFunction*%
%TA.AperFunction,Conductor*%
G36*
X240657059Y-81747312D02*
G01*
X240712992Y-81789184D01*
X240732198Y-81826885D01*
X240747530Y-81876503D01*
X241673393Y-82260008D01*
X241648223Y-82274541D01*
X241564439Y-82358325D01*
X241505196Y-82460937D01*
X241474529Y-82575387D01*
X241474529Y-82693875D01*
X241482051Y-82721948D01*
X240555422Y-82338126D01*
X240555421Y-82338126D01*
X240538891Y-82403406D01*
X240538889Y-82403415D01*
X240519731Y-82634625D01*
X240519731Y-82634636D01*
X240538890Y-82865849D01*
X240595846Y-83090766D01*
X240677879Y-83277784D01*
X240686782Y-83347085D01*
X240656804Y-83410197D01*
X240597465Y-83447083D01*
X240527603Y-83446032D01*
X240476642Y-83415275D01*
X240152133Y-83090766D01*
X239786819Y-82725451D01*
X239753334Y-82664128D01*
X239750500Y-82637770D01*
X239750500Y-82602719D01*
X239770185Y-82535680D01*
X239786815Y-82515042D01*
X240526044Y-81775812D01*
X240587367Y-81742328D01*
X240657059Y-81747312D01*
G37*
%TD.AperFunction*%
%TA.AperFunction,Conductor*%
G36*
X200692090Y-50505364D02*
G01*
X202068858Y-50543778D01*
X202072305Y-50543922D01*
X203447459Y-50620721D01*
X203450857Y-50620959D01*
X204823344Y-50736084D01*
X204826779Y-50736420D01*
X205453009Y-50806586D01*
X206195499Y-50889779D01*
X206198931Y-50890212D01*
X206328525Y-50908405D01*
X207562908Y-51081695D01*
X207566219Y-51082207D01*
X208924317Y-51311658D01*
X208927621Y-51312263D01*
X210278866Y-51579518D01*
X210282152Y-51580216D01*
X211625347Y-51885040D01*
X211628609Y-51885828D01*
X212962792Y-52227999D01*
X212966106Y-52228898D01*
X214290209Y-52608144D01*
X214293447Y-52609120D01*
X215606431Y-53025141D01*
X215609633Y-53026204D01*
X216882223Y-53468847D01*
X216910539Y-53478696D01*
X216913788Y-53479877D01*
X216973722Y-53502617D01*
X218201501Y-53968453D01*
X218204717Y-53969725D01*
X218587318Y-54127231D01*
X219478320Y-54494032D01*
X219481427Y-54495361D01*
X220284575Y-54852508D01*
X220739962Y-55055011D01*
X220743102Y-55056461D01*
X220773903Y-55071200D01*
X221985444Y-55650949D01*
X221988512Y-55652469D01*
X223213885Y-56281426D01*
X223216833Y-56282991D01*
X224393276Y-56928910D01*
X224424188Y-56945882D01*
X224427183Y-56947582D01*
X225615539Y-57643864D01*
X225618425Y-57645610D01*
X226786928Y-58374785D01*
X226789793Y-58376629D01*
X227920327Y-59126715D01*
X227937467Y-59138087D01*
X227940310Y-59140031D01*
X228362289Y-59437282D01*
X229066283Y-59933191D01*
X229069083Y-59935222D01*
X230172511Y-60759490D01*
X230175252Y-60761599D01*
X231255227Y-61616296D01*
X231257899Y-61618471D01*
X232272041Y-62468126D01*
X232313641Y-62502979D01*
X232316259Y-62505235D01*
X233346905Y-63418831D01*
X233346907Y-63418832D01*
X233349447Y-63421147D01*
X234294881Y-64307512D01*
X234354240Y-64363162D01*
X234356718Y-64365551D01*
X235334846Y-65335224D01*
X235337225Y-65337649D01*
X235996367Y-66028597D01*
X236287934Y-66334233D01*
X236290286Y-66336769D01*
X237212777Y-67359424D01*
X237215058Y-67362024D01*
X238096798Y-68396091D01*
X238103267Y-68404363D01*
X238126553Y-68436889D01*
X238126558Y-68436894D01*
X238131238Y-68440738D01*
X238148003Y-68457429D01*
X238151869Y-68462093D01*
X238151868Y-68462093D01*
X238187583Y-68487422D01*
X238194545Y-68492739D01*
X238221792Y-68515121D01*
X238228392Y-68520542D01*
X238233905Y-68523042D01*
X238254418Y-68534823D01*
X238259364Y-68538331D01*
X238259365Y-68538331D01*
X238259366Y-68538332D01*
X238272562Y-68543225D01*
X238300419Y-68553554D01*
X238308507Y-68556883D01*
X238348405Y-68574982D01*
X238354384Y-68575971D01*
X238377240Y-68582041D01*
X238382927Y-68584150D01*
X238426536Y-68588229D01*
X238435215Y-68589352D01*
X238478420Y-68596505D01*
X238484445Y-68595913D01*
X238508101Y-68595861D01*
X238514138Y-68596426D01*
X238538963Y-68592202D01*
X238557308Y-68589082D01*
X238565967Y-68587921D01*
X238609575Y-68583646D01*
X238615252Y-68581511D01*
X238638081Y-68575340D01*
X238644056Y-68574324D01*
X238683863Y-68556052D01*
X238691930Y-68552689D01*
X238732933Y-68537278D01*
X238737861Y-68533749D01*
X238758319Y-68521876D01*
X238763826Y-68519350D01*
X238797571Y-68491378D01*
X238804465Y-68486064D01*
X242308007Y-65977773D01*
X242373972Y-65954755D01*
X242400434Y-65956263D01*
X246461984Y-66628649D01*
X246524908Y-66659019D01*
X246561424Y-66718586D01*
X246564066Y-66771236D01*
X245891682Y-70832780D01*
X245861312Y-70895705D01*
X245841530Y-70913352D01*
X242338016Y-73421622D01*
X242330710Y-73426472D01*
X242293387Y-73449385D01*
X242293384Y-73449387D01*
X242289209Y-73453794D01*
X242271398Y-73469316D01*
X242266460Y-73472851D01*
X242266458Y-73472853D01*
X242238671Y-73506681D01*
X242232871Y-73513253D01*
X242202748Y-73545048D01*
X242202745Y-73545052D01*
X242199852Y-73550390D01*
X242186663Y-73569996D01*
X242182812Y-73574684D01*
X242182810Y-73574687D01*
X242164724Y-73614556D01*
X242160823Y-73622405D01*
X242139957Y-73660910D01*
X242139954Y-73660918D01*
X242138540Y-73666828D01*
X242130877Y-73689174D01*
X242128373Y-73694693D01*
X242128370Y-73694704D01*
X242121218Y-73737898D01*
X242119481Y-73746489D01*
X242109293Y-73789075D01*
X242109292Y-73789082D01*
X242109456Y-73795148D01*
X242107837Y-73818730D01*
X242106846Y-73824712D01*
X242106846Y-73824716D01*
X242111118Y-73868286D01*
X242111665Y-73877038D01*
X242112846Y-73920815D01*
X242112847Y-73920817D01*
X242114572Y-73926625D01*
X242119112Y-73949820D01*
X242119705Y-73955865D01*
X242119708Y-73955879D01*
X242135115Y-73996870D01*
X242137908Y-74005182D01*
X242150375Y-74047145D01*
X242153545Y-74052309D01*
X242163939Y-74073551D01*
X242166074Y-74079229D01*
X242166075Y-74079230D01*
X242189378Y-74111781D01*
X242195111Y-74120549D01*
X242880795Y-75272779D01*
X242882500Y-75275736D01*
X243545164Y-76462439D01*
X243546787Y-76465442D01*
X244176533Y-77669932D01*
X244178073Y-77672979D01*
X244774429Y-78894346D01*
X244775884Y-78897433D01*
X245338395Y-80134753D01*
X245339765Y-80137880D01*
X245860380Y-81372135D01*
X245868009Y-81390220D01*
X245869282Y-81393360D01*
X246362855Y-82659765D01*
X246364047Y-82662953D01*
X246436510Y-82865157D01*
X246822584Y-83942488D01*
X246823691Y-83945717D01*
X247246822Y-85237347D01*
X247247840Y-85240605D01*
X247635261Y-86543405D01*
X247636189Y-86546690D01*
X247987605Y-87859664D01*
X247988442Y-87862973D01*
X248303590Y-89185140D01*
X248304335Y-89188471D01*
X248582960Y-90518754D01*
X248583614Y-90522104D01*
X248825526Y-91859607D01*
X248826087Y-91862974D01*
X249031086Y-93206577D01*
X249031555Y-93209958D01*
X249199501Y-94558755D01*
X249199876Y-94562148D01*
X249330631Y-95915045D01*
X249330912Y-95918447D01*
X249424377Y-97274385D01*
X249424565Y-97277793D01*
X249480674Y-98635823D01*
X249480768Y-98639235D01*
X249499475Y-99998292D01*
X249499475Y-100001706D01*
X249480768Y-101360763D01*
X249480674Y-101364175D01*
X249424565Y-102722206D01*
X249424377Y-102725614D01*
X249330912Y-104081552D01*
X249330631Y-104084954D01*
X249199876Y-105437851D01*
X249199501Y-105441244D01*
X249031555Y-106790041D01*
X249031086Y-106793422D01*
X248826088Y-108137024D01*
X248825527Y-108140391D01*
X248583620Y-109477860D01*
X248582967Y-109481210D01*
X248304329Y-110811562D01*
X248303583Y-110814893D01*
X247988442Y-112137026D01*
X247987605Y-112140335D01*
X247636189Y-113453309D01*
X247635261Y-113456594D01*
X247247840Y-114759393D01*
X247246822Y-114762651D01*
X246823691Y-116054281D01*
X246822584Y-116057510D01*
X246364051Y-117337037D01*
X246362855Y-117340234D01*
X245869292Y-118606615D01*
X245868009Y-118609778D01*
X245339765Y-119862118D01*
X245338395Y-119865245D01*
X244775884Y-121102566D01*
X244774429Y-121105653D01*
X244178073Y-122327020D01*
X244176533Y-122330067D01*
X243546778Y-123534572D01*
X243545155Y-123537574D01*
X242882510Y-124724247D01*
X242880805Y-124727205D01*
X242195123Y-125879431D01*
X242189390Y-125888199D01*
X242166074Y-125920767D01*
X242166072Y-125920771D01*
X242163936Y-125926453D01*
X242153552Y-125947674D01*
X242150376Y-125952847D01*
X242150373Y-125952856D01*
X242137903Y-125994826D01*
X242135112Y-126003133D01*
X242119705Y-126044127D01*
X242119111Y-126050179D01*
X242114573Y-126073365D01*
X242112846Y-126079177D01*
X242112845Y-126079185D01*
X242111664Y-126122947D01*
X242111118Y-126131694D01*
X242106846Y-126175284D01*
X242107836Y-126181266D01*
X242109455Y-126204850D01*
X242109291Y-126210916D01*
X242109291Y-126210919D01*
X242119481Y-126253509D01*
X242121218Y-126262104D01*
X242128369Y-126305297D01*
X242130874Y-126310819D01*
X242138540Y-126333176D01*
X242139952Y-126339077D01*
X242139954Y-126339083D01*
X242160816Y-126377579D01*
X242164719Y-126385431D01*
X242182810Y-126425312D01*
X242182811Y-126425313D01*
X242186661Y-126430000D01*
X242199857Y-126449618D01*
X242202745Y-126454948D01*
X242202748Y-126454951D01*
X242232866Y-126486739D01*
X242238659Y-126493303D01*
X242266456Y-126527143D01*
X242266460Y-126527148D01*
X242271385Y-126530674D01*
X242289211Y-126546208D01*
X242293384Y-126550612D01*
X242293390Y-126550617D01*
X242330703Y-126573522D01*
X242338009Y-126578371D01*
X242852652Y-126946819D01*
X245841530Y-129086646D01*
X245884581Y-129141676D01*
X245891682Y-129167218D01*
X246564066Y-133228762D01*
X246555595Y-133298116D01*
X246510973Y-133351881D01*
X246461983Y-133371349D01*
X242400440Y-134043734D01*
X242331086Y-134035263D01*
X242308005Y-134022223D01*
X242245363Y-133977376D01*
X240902711Y-133016131D01*
X238804490Y-131513952D01*
X238797542Y-131508597D01*
X238763826Y-131480651D01*
X238763825Y-131480650D01*
X238758308Y-131478117D01*
X238737865Y-131466254D01*
X238732932Y-131462722D01*
X238732927Y-131462720D01*
X238691949Y-131447316D01*
X238683858Y-131443944D01*
X238660532Y-131433238D01*
X238644055Y-131425676D01*
X238638075Y-131424658D01*
X238615254Y-131418489D01*
X238609575Y-131416354D01*
X238609569Y-131416353D01*
X238565992Y-131412080D01*
X238557300Y-131410916D01*
X238514136Y-131403573D01*
X238508090Y-131404139D01*
X238484462Y-131404086D01*
X238478429Y-131403495D01*
X238478419Y-131403495D01*
X238467847Y-131405245D01*
X238435235Y-131410643D01*
X238426542Y-131411767D01*
X238382936Y-131415848D01*
X238382919Y-131415851D01*
X238377230Y-131417961D01*
X238354393Y-131424026D01*
X238348404Y-131425017D01*
X238308530Y-131443105D01*
X238300424Y-131446441D01*
X238259368Y-131461666D01*
X238259358Y-131461671D01*
X238254413Y-131465179D01*
X238233925Y-131476947D01*
X238228392Y-131479458D01*
X238228390Y-131479459D01*
X238194556Y-131507250D01*
X238187588Y-131512571D01*
X238151870Y-131537904D01*
X238151864Y-131537909D01*
X238147992Y-131542581D01*
X238131248Y-131559251D01*
X238126560Y-131563102D01*
X238126557Y-131563105D01*
X238103276Y-131595623D01*
X238096808Y-131603893D01*
X237215056Y-132637975D01*
X237212775Y-132640575D01*
X236290284Y-133663229D01*
X236287932Y-133665765D01*
X235337244Y-134662327D01*
X235334822Y-134664796D01*
X234356729Y-135634435D01*
X234354239Y-135636836D01*
X233349461Y-136578836D01*
X233346905Y-136581166D01*
X232316259Y-137494761D01*
X232313639Y-137497019D01*
X231257892Y-138381532D01*
X231255209Y-138383716D01*
X230175268Y-139238386D01*
X230172527Y-139240495D01*
X229069082Y-140064776D01*
X229066282Y-140066807D01*
X227940321Y-140859959D01*
X227937466Y-140861911D01*
X226789814Y-141623355D01*
X226786905Y-141625227D01*
X225618476Y-142354355D01*
X225615517Y-142356145D01*
X224427180Y-143052418D01*
X224424171Y-143054125D01*
X223216885Y-143716976D01*
X223213830Y-143718598D01*
X221988525Y-144347520D01*
X221985426Y-144349056D01*
X220743100Y-144943536D01*
X220739960Y-144944986D01*
X219481462Y-145504620D01*
X219478282Y-145505981D01*
X218204705Y-146030278D01*
X218201488Y-146031550D01*
X216913799Y-146520115D01*
X216910549Y-146521296D01*
X215609671Y-146973779D01*
X215606388Y-146974870D01*
X214293483Y-147390865D01*
X214290172Y-147391864D01*
X212966117Y-147771095D01*
X212962779Y-147772001D01*
X211628657Y-148114157D01*
X211625295Y-148114969D01*
X210282200Y-148419770D01*
X210278816Y-148420489D01*
X208927669Y-148687725D01*
X208924267Y-148688348D01*
X207566273Y-148917781D01*
X207562855Y-148918310D01*
X206198930Y-149109785D01*
X206195498Y-149110218D01*
X204826782Y-149263576D01*
X204823340Y-149263913D01*
X203450883Y-149379036D01*
X203447432Y-149379277D01*
X202072309Y-149456074D01*
X202068854Y-149456219D01*
X200720110Y-149493852D01*
X200692088Y-149494634D01*
X200688631Y-149494682D01*
X199311369Y-149494682D01*
X199307911Y-149494634D01*
X199279019Y-149493827D01*
X197931145Y-149456219D01*
X197927690Y-149456074D01*
X196552567Y-149379277D01*
X196549116Y-149379036D01*
X195176658Y-149263913D01*
X195173216Y-149263576D01*
X193804501Y-149110218D01*
X193801069Y-149109785D01*
X192437144Y-148918310D01*
X192433726Y-148917781D01*
X191075732Y-148688348D01*
X191072330Y-148687725D01*
X189721182Y-148420489D01*
X189717798Y-148419770D01*
X188374704Y-148114969D01*
X188371342Y-148114157D01*
X187037219Y-147772001D01*
X187033881Y-147771095D01*
X185709827Y-147391864D01*
X185706516Y-147390865D01*
X184393611Y-146974870D01*
X184390328Y-146973780D01*
X183089449Y-146521297D01*
X183086199Y-146520115D01*
X181798511Y-146031550D01*
X181795294Y-146030278D01*
X180521717Y-145505981D01*
X180518537Y-145504620D01*
X179260038Y-144944986D01*
X179256898Y-144943536D01*
X178014573Y-144349056D01*
X178011474Y-144347520D01*
X176786169Y-143718598D01*
X176783114Y-143716976D01*
X175575828Y-143054125D01*
X175572819Y-143052418D01*
X174384482Y-142356145D01*
X174381523Y-142354355D01*
X173230326Y-141635980D01*
X173213090Y-141625225D01*
X173210185Y-141623355D01*
X173209764Y-141623076D01*
X172062533Y-140861911D01*
X172059678Y-140859959D01*
X170933717Y-140066806D01*
X170930917Y-140064775D01*
X169827472Y-139240495D01*
X169824731Y-139238386D01*
X168744790Y-138383716D01*
X168742107Y-138381532D01*
X167686359Y-137497019D01*
X167683739Y-137494761D01*
X167315636Y-137168463D01*
X166653082Y-136581155D01*
X166650538Y-136578836D01*
X166317441Y-136266551D01*
X165645749Y-135636825D01*
X165643270Y-135634435D01*
X165441171Y-135434083D01*
X165139664Y-135135181D01*
X164665177Y-134664795D01*
X164662755Y-134662326D01*
X163712067Y-133665765D01*
X163709715Y-133663229D01*
X162847406Y-132707291D01*
X162787221Y-132640571D01*
X162784943Y-132637974D01*
X162761045Y-132609948D01*
X162106293Y-131842083D01*
X161903207Y-131603912D01*
X161896738Y-131595639D01*
X161873448Y-131563108D01*
X161873444Y-131563104D01*
X161868756Y-131559253D01*
X161851998Y-131542569D01*
X161848134Y-131537908D01*
X161848132Y-131537905D01*
X161838320Y-131530946D01*
X161812413Y-131512572D01*
X161805454Y-131507257D01*
X161771611Y-131479458D01*
X161766080Y-131476949D01*
X161745581Y-131465173D01*
X161740646Y-131461673D01*
X161740642Y-131461671D01*
X161740638Y-131461668D01*
X161721355Y-131454517D01*
X161699587Y-131446445D01*
X161691477Y-131443107D01*
X161651596Y-131425016D01*
X161645610Y-131424025D01*
X161622765Y-131417958D01*
X161617077Y-131415849D01*
X161617069Y-131415847D01*
X161573459Y-131411766D01*
X161564766Y-131410642D01*
X161556923Y-131409343D01*
X161521582Y-131403494D01*
X161521580Y-131403494D01*
X161521579Y-131403494D01*
X161515537Y-131404086D01*
X161491908Y-131404138D01*
X161485863Y-131403572D01*
X161442699Y-131410915D01*
X161434008Y-131412079D01*
X161390426Y-131416353D01*
X161390422Y-131416354D01*
X161384741Y-131418489D01*
X161361924Y-131424657D01*
X161355952Y-131425673D01*
X161355943Y-131425676D01*
X161316149Y-131443939D01*
X161308062Y-131447310D01*
X161267069Y-131462720D01*
X161262130Y-131466256D01*
X161241689Y-131478118D01*
X161236176Y-131480648D01*
X161202454Y-131508599D01*
X161195508Y-131513952D01*
X157691995Y-134022222D01*
X157626027Y-134045242D01*
X157599560Y-134043733D01*
X153538014Y-133371349D01*
X153475089Y-133340979D01*
X153438573Y-133281412D01*
X153435931Y-133228762D01*
X153451742Y-133133260D01*
X153810042Y-130968942D01*
X154652116Y-130968942D01*
X154671590Y-131253650D01*
X154671590Y-131253654D01*
X154671591Y-131253656D01*
X154688675Y-131335871D01*
X154729653Y-131533069D01*
X154729654Y-131533072D01*
X154825219Y-131801964D01*
X154825218Y-131801964D01*
X154896867Y-131940239D01*
X154956514Y-132055353D01*
X155121087Y-132288499D01*
X155121091Y-132288503D01*
X155121091Y-132288504D01*
X155315876Y-132497067D01*
X155438490Y-132596821D01*
X155537245Y-132677164D01*
X155537247Y-132677165D01*
X155537248Y-132677166D01*
X155781080Y-132825444D01*
X155781085Y-132825446D01*
X155892192Y-132873706D01*
X156042832Y-132939138D01*
X156317629Y-133016132D01*
X156562525Y-133049793D01*
X156600349Y-133054992D01*
X156600350Y-133054992D01*
X156885731Y-133054992D01*
X156916211Y-133050802D01*
X157168451Y-133016132D01*
X157443248Y-132939138D01*
X157705001Y-132825443D01*
X157948835Y-132677164D01*
X158170207Y-132497064D01*
X158364993Y-132288499D01*
X158529566Y-132055353D01*
X158660859Y-131801968D01*
X158756427Y-131533067D01*
X158814489Y-131253656D01*
X158833964Y-130968942D01*
X158814489Y-130684228D01*
X158756427Y-130404817D01*
X158749653Y-130385758D01*
X158660860Y-130135919D01*
X158660861Y-130135919D01*
X158588549Y-129996363D01*
X158529566Y-129882531D01*
X158364993Y-129649385D01*
X158364988Y-129649379D01*
X158170203Y-129440816D01*
X157948831Y-129260717D01*
X157704999Y-129112439D01*
X157704994Y-129112437D01*
X157443253Y-128998748D01*
X157443251Y-128998747D01*
X157443248Y-128998746D01*
X157314659Y-128962717D01*
X157168457Y-128921753D01*
X157168452Y-128921752D01*
X157168451Y-128921752D01*
X156945112Y-128891054D01*
X156885731Y-128882892D01*
X156885730Y-128882892D01*
X156600350Y-128882892D01*
X156600349Y-128882892D01*
X156317629Y-128921752D01*
X156317622Y-128921753D01*
X156111276Y-128979568D01*
X156042832Y-128998746D01*
X156042829Y-128998746D01*
X156042826Y-128998748D01*
X156042825Y-128998748D01*
X155781085Y-129112437D01*
X155781080Y-129112439D01*
X155537248Y-129260717D01*
X155315876Y-129440816D01*
X155121091Y-129649379D01*
X155121091Y-129649380D01*
X154956514Y-129882530D01*
X154825219Y-130135919D01*
X154729654Y-130404811D01*
X154729653Y-130404814D01*
X154671590Y-130684233D01*
X154652116Y-130968942D01*
X153810042Y-130968942D01*
X154108316Y-129167217D01*
X154138686Y-129104293D01*
X154158467Y-129086646D01*
X157662000Y-126578363D01*
X157669302Y-126573518D01*
X157706613Y-126550614D01*
X157706612Y-126550614D01*
X157706615Y-126550613D01*
X157710779Y-126546216D01*
X157728613Y-126530674D01*
X157733542Y-126527146D01*
X157761345Y-126493296D01*
X157767122Y-126486749D01*
X157797254Y-126454949D01*
X157800142Y-126449620D01*
X157813346Y-126429991D01*
X157817190Y-126425312D01*
X157835280Y-126385431D01*
X157839183Y-126377579D01*
X157860045Y-126339085D01*
X157861456Y-126333186D01*
X157869125Y-126310819D01*
X157871631Y-126305298D01*
X157878785Y-126262077D01*
X157880511Y-126253534D01*
X157890708Y-126210918D01*
X157890544Y-126204853D01*
X157892163Y-126181266D01*
X157893154Y-126175283D01*
X157888879Y-126131686D01*
X157888335Y-126122971D01*
X157887154Y-126079182D01*
X157885426Y-126073365D01*
X157880887Y-126050168D01*
X157880295Y-126044128D01*
X157864885Y-126003132D01*
X157862100Y-125994844D01*
X157849626Y-125952854D01*
X157846453Y-125947686D01*
X157836060Y-125926443D01*
X157833931Y-125920779D01*
X157833929Y-125920775D01*
X157833927Y-125920770D01*
X157826798Y-125910812D01*
X157810617Y-125888210D01*
X157804883Y-125879441D01*
X157360599Y-125132861D01*
X157119191Y-124727197D01*
X157117499Y-124724262D01*
X156862645Y-124267868D01*
X156454824Y-123537539D01*
X156453212Y-123534556D01*
X156372299Y-123379798D01*
X155823465Y-122330066D01*
X155821926Y-122327020D01*
X155708962Y-122095663D01*
X155225555Y-121105621D01*
X155224129Y-121102596D01*
X154661591Y-119865215D01*
X154660247Y-119862148D01*
X154131965Y-118609718D01*
X154130731Y-118606675D01*
X153637124Y-117340185D01*
X153635965Y-117337085D01*
X153177413Y-116057508D01*
X153176307Y-116054281D01*
X153168115Y-116029274D01*
X152753162Y-114762606D01*
X152752172Y-114759438D01*
X152364722Y-113456547D01*
X152363821Y-113453357D01*
X152012390Y-112140329D01*
X152011555Y-112137026D01*
X151894159Y-111644505D01*
X151696404Y-110814846D01*
X151695662Y-110811528D01*
X151652719Y-110606497D01*
X151417030Y-109481210D01*
X151416383Y-109477895D01*
X151388247Y-109322336D01*
X151174468Y-108140375D01*
X151173910Y-108137025D01*
X151129613Y-107846697D01*
X150968910Y-106793418D01*
X150968442Y-106790041D01*
X150947264Y-106619954D01*
X150800493Y-105441222D01*
X150800121Y-105437851D01*
X150795218Y-105387124D01*
X150669365Y-104084948D01*
X150669085Y-104081552D01*
X150658465Y-103927483D01*
X150575616Y-102725555D01*
X150575435Y-102722263D01*
X150567904Y-102539993D01*
X153215900Y-102539993D01*
X153215900Y-102540006D01*
X153235064Y-102771297D01*
X153235066Y-102771308D01*
X153292042Y-102996300D01*
X153385275Y-103208848D01*
X153512216Y-103403147D01*
X153512219Y-103403151D01*
X153512221Y-103403153D01*
X153669416Y-103573913D01*
X153669419Y-103573915D01*
X153669422Y-103573918D01*
X153852565Y-103716464D01*
X153852571Y-103716468D01*
X153852574Y-103716470D01*
X154056697Y-103826936D01*
X154133379Y-103853261D01*
X154276215Y-103902297D01*
X154276217Y-103902297D01*
X154276219Y-103902298D01*
X154505151Y-103940500D01*
X154505152Y-103940500D01*
X154737247Y-103940500D01*
X154737249Y-103940500D01*
X154865474Y-103919102D01*
X154934835Y-103927483D01*
X154973562Y-103953730D01*
X156316604Y-105296771D01*
X156350089Y-105358094D01*
X156352923Y-105384452D01*
X156352923Y-109177341D01*
X156352923Y-109177343D01*
X156352922Y-109177343D01*
X156381763Y-109322330D01*
X156381766Y-109322340D01*
X156438336Y-109458913D01*
X156438339Y-109458918D01*
X156451019Y-109477895D01*
X156452131Y-109479558D01*
X156452132Y-109479563D01*
X156452134Y-109479563D01*
X156470643Y-109507265D01*
X156520474Y-109581843D01*
X156520475Y-109581844D01*
X159213181Y-112274548D01*
X159246666Y-112335871D01*
X159249500Y-112362229D01*
X159249500Y-116255833D01*
X159229815Y-116322872D01*
X159177011Y-116368627D01*
X159107853Y-116378571D01*
X159044297Y-116349546D01*
X159034272Y-116339818D01*
X159026913Y-116331825D01*
X158843825Y-116189321D01*
X158843825Y-116189320D01*
X158835149Y-116184625D01*
X158450092Y-117114231D01*
X158435561Y-117089063D01*
X158351777Y-117005279D01*
X158249165Y-116946036D01*
X158134715Y-116915369D01*
X158016227Y-116915369D01*
X157988150Y-116922892D01*
X158358300Y-116029274D01*
X158391780Y-115982909D01*
X158509702Y-115881002D01*
X158612438Y-115738730D01*
X158679595Y-115576600D01*
X158707551Y-115403353D01*
X158694800Y-115228327D01*
X158665160Y-115129322D01*
X158129536Y-113836212D01*
X158080488Y-113745246D01*
X158080487Y-113745244D01*
X157996906Y-113648530D01*
X157965742Y-113612468D01*
X157965741Y-113612467D01*
X157965740Y-113612466D01*
X157823471Y-113509732D01*
X157661343Y-113442575D01*
X157661335Y-113442573D01*
X157488096Y-113414619D01*
X157488091Y-113414618D01*
X157313068Y-113427369D01*
X157214060Y-113457010D01*
X155920949Y-113992635D01*
X155829984Y-114041682D01*
X155697206Y-114156429D01*
X155594472Y-114298698D01*
X155527315Y-114460826D01*
X155527313Y-114460834D01*
X155499359Y-114634073D01*
X155499358Y-114634078D01*
X155512109Y-114809101D01*
X155541750Y-114908109D01*
X155887971Y-115743959D01*
X156064837Y-116170952D01*
X156077375Y-116201220D01*
X156126422Y-116292185D01*
X156207383Y-116385868D01*
X156236799Y-116419907D01*
X156241169Y-116424963D01*
X156383438Y-116527697D01*
X156545566Y-116594854D01*
X156545574Y-116594856D01*
X156626616Y-116607933D01*
X156718817Y-116622811D01*
X156718817Y-116622810D01*
X156718818Y-116622811D01*
X156784909Y-116617995D01*
X156874254Y-116611487D01*
X156930717Y-116620598D01*
X157824335Y-116990746D01*
X157799165Y-117005279D01*
X157715381Y-117089063D01*
X157656138Y-117191675D01*
X157625471Y-117306125D01*
X157625471Y-117424613D01*
X157632993Y-117452686D01*
X156706364Y-117068864D01*
X156706363Y-117068864D01*
X156689833Y-117134144D01*
X156689831Y-117134153D01*
X156670673Y-117365363D01*
X156670673Y-117365374D01*
X156689832Y-117596587D01*
X156746788Y-117821504D01*
X156839987Y-118033978D01*
X156966885Y-118228211D01*
X157124029Y-118398913D01*
X157307118Y-118541418D01*
X157315792Y-118546111D01*
X157700848Y-117616504D01*
X157715381Y-117641675D01*
X157799165Y-117725459D01*
X157901777Y-117784702D01*
X158016227Y-117815369D01*
X158134715Y-117815369D01*
X158162787Y-117807846D01*
X157778666Y-118735198D01*
X157802551Y-118739184D01*
X157865436Y-118769635D01*
X157901875Y-118829249D01*
X157900300Y-118899101D01*
X157885950Y-118929314D01*
X157811562Y-119043173D01*
X157718329Y-119255721D01*
X157661353Y-119480713D01*
X157661351Y-119480724D01*
X157642187Y-119712015D01*
X157642187Y-119712028D01*
X157661351Y-119943319D01*
X157661353Y-119943330D01*
X157718329Y-120168322D01*
X157811562Y-120380870D01*
X157938503Y-120575169D01*
X157938506Y-120575173D01*
X157938508Y-120575175D01*
X158095703Y-120745935D01*
X158095706Y-120745937D01*
X158095709Y-120745940D01*
X158278852Y-120888486D01*
X158278858Y-120888490D01*
X158278861Y-120888492D01*
X158482984Y-120998958D01*
X158596974Y-121038090D01*
X158702502Y-121074319D01*
X158702504Y-121074319D01*
X158702506Y-121074320D01*
X158931438Y-121112522D01*
X158931439Y-121112522D01*
X159163535Y-121112522D01*
X159163536Y-121112522D01*
X159392468Y-121074320D01*
X159611990Y-120998958D01*
X159816113Y-120888492D01*
X159816121Y-120888486D01*
X159959813Y-120776647D01*
X160024807Y-120751004D01*
X160035975Y-120750500D01*
X161637770Y-120750500D01*
X161704809Y-120770185D01*
X161725451Y-120786819D01*
X172213181Y-131274548D01*
X172246666Y-131335871D01*
X172249500Y-131362229D01*
X172249500Y-133009260D01*
X172229815Y-133076299D01*
X172177011Y-133122054D01*
X172125500Y-133133260D01*
X170958130Y-133133260D01*
X170891091Y-133113575D01*
X170854322Y-133077082D01*
X170817429Y-133020614D01*
X170817427Y-133020612D01*
X170817424Y-133020607D01*
X170660229Y-132849847D01*
X170660224Y-132849843D01*
X170660222Y-132849841D01*
X170477079Y-132707295D01*
X170477073Y-132707291D01*
X170272949Y-132596824D01*
X170272940Y-132596821D01*
X170053429Y-132521462D01*
X169881727Y-132492810D01*
X169824494Y-132483260D01*
X169592396Y-132483260D01*
X169428802Y-132510559D01*
X169359436Y-132502177D01*
X169305614Y-132457624D01*
X169284424Y-132391045D01*
X169288186Y-132357810D01*
X169293277Y-132337708D01*
X168287672Y-132337708D01*
X168331727Y-132261402D01*
X168362394Y-132146952D01*
X168362394Y-132028464D01*
X168331727Y-131914014D01*
X168287672Y-131837708D01*
X169293277Y-131837708D01*
X169241076Y-131631572D01*
X169147877Y-131419098D01*
X169020979Y-131224865D01*
X168863835Y-131054162D01*
X168863831Y-131054159D01*
X168680749Y-130911660D01*
X168680745Y-130911657D01*
X168476696Y-130801231D01*
X168476687Y-130801228D01*
X168257255Y-130725896D01*
X168162394Y-130710067D01*
X168162394Y-131712430D01*
X168086088Y-131668375D01*
X167971638Y-131637708D01*
X167853150Y-131637708D01*
X167738700Y-131668375D01*
X167662394Y-131712430D01*
X167662394Y-130745081D01*
X167675583Y-130689430D01*
X167745529Y-130550159D01*
X167784493Y-130385759D01*
X167786000Y-130379402D01*
X167786000Y-130203911D01*
X167751950Y-130060249D01*
X167745529Y-130033155D01*
X167666769Y-129876332D01*
X167601498Y-129796206D01*
X167601497Y-129796205D01*
X167601493Y-129796200D01*
X166611799Y-128806506D01*
X166531668Y-128741231D01*
X166374843Y-128662470D01*
X166204088Y-128622000D01*
X166204087Y-128622000D01*
X166028599Y-128622000D01*
X166028598Y-128622000D01*
X165857842Y-128662470D01*
X165701017Y-128741231D01*
X165620886Y-128806506D01*
X164631192Y-129796200D01*
X164565917Y-129876331D01*
X164487156Y-130033156D01*
X164446686Y-130203911D01*
X164446686Y-130379402D01*
X164487156Y-130550157D01*
X164565917Y-130706982D01*
X164631192Y-130787113D01*
X165620886Y-131776807D01*
X165620891Y-131776811D01*
X165620892Y-131776812D01*
X165701018Y-131842083D01*
X165857841Y-131920843D01*
X165939678Y-131940239D01*
X166028598Y-131961314D01*
X166028599Y-131961314D01*
X166204088Y-131961314D01*
X166293008Y-131940239D01*
X166374845Y-131920843D01*
X166514116Y-131850897D01*
X166569767Y-131837708D01*
X167537116Y-131837708D01*
X167493061Y-131914014D01*
X167462394Y-132028464D01*
X167462394Y-132146952D01*
X167493061Y-132261402D01*
X167537116Y-132337708D01*
X166531511Y-132337708D01*
X166583711Y-132543843D01*
X166676910Y-132756317D01*
X166803808Y-132950550D01*
X166960952Y-133121253D01*
X166960956Y-133121256D01*
X167144038Y-133263755D01*
X167144042Y-133263758D01*
X167348091Y-133374184D01*
X167348100Y-133374187D01*
X167567533Y-133449519D01*
X167662393Y-133465348D01*
X167662394Y-133465347D01*
X167662394Y-132462985D01*
X167738700Y-132507041D01*
X167853150Y-132537708D01*
X167971638Y-132537708D01*
X168086088Y-132507041D01*
X168162394Y-132462985D01*
X168162394Y-133465347D01*
X168191630Y-133460469D01*
X168260995Y-133468851D01*
X168314818Y-133513404D01*
X168336008Y-133579982D01*
X168332246Y-133613216D01*
X168322313Y-133652443D01*
X168322309Y-133652462D01*
X168303145Y-133883753D01*
X168303145Y-133883766D01*
X168322309Y-134115057D01*
X168322311Y-134115068D01*
X168379287Y-134340060D01*
X168472520Y-134552608D01*
X168599461Y-134746907D01*
X168599464Y-134746911D01*
X168599466Y-134746913D01*
X168756661Y-134917673D01*
X168756664Y-134917675D01*
X168756667Y-134917678D01*
X168939810Y-135060224D01*
X168939816Y-135060228D01*
X168939819Y-135060230D01*
X169078316Y-135135181D01*
X169142744Y-135170048D01*
X169143942Y-135170696D01*
X169251760Y-135207710D01*
X169363460Y-135246057D01*
X169363462Y-135246057D01*
X169363464Y-135246058D01*
X169592396Y-135284260D01*
X169592397Y-135284260D01*
X169824493Y-135284260D01*
X169824494Y-135284260D01*
X170053426Y-135246058D01*
X170272948Y-135170696D01*
X170477071Y-135060230D01*
X170496990Y-135044727D01*
X170638820Y-134934336D01*
X170660229Y-134917673D01*
X170817424Y-134746913D01*
X170828617Y-134729781D01*
X170854322Y-134690438D01*
X170907468Y-134645082D01*
X170958130Y-134634260D01*
X173521530Y-134634260D01*
X173588569Y-134653945D01*
X173609211Y-134670579D01*
X177417048Y-138478415D01*
X177417049Y-138478416D01*
X177521584Y-138582951D01*
X177521585Y-138582952D01*
X177644498Y-138665080D01*
X177644511Y-138665087D01*
X177781082Y-138721656D01*
X177781087Y-138721658D01*
X177781091Y-138721658D01*
X177781092Y-138721659D01*
X177926079Y-138750500D01*
X177926082Y-138750500D01*
X182637770Y-138750500D01*
X182704809Y-138770185D01*
X182725451Y-138786819D01*
X184028891Y-140090259D01*
X185228723Y-141290090D01*
X185262208Y-141351413D01*
X185257224Y-141421105D01*
X185215352Y-141477038D01*
X185149888Y-141501455D01*
X185120635Y-141500080D01*
X185096643Y-141496077D01*
X185096641Y-141496077D01*
X184864543Y-141496077D01*
X184818756Y-141503717D01*
X184635607Y-141534279D01*
X184416096Y-141609638D01*
X184416087Y-141609641D01*
X184211963Y-141720108D01*
X184211954Y-141720114D01*
X184206687Y-141724214D01*
X184141692Y-141749854D01*
X184073153Y-141736285D01*
X184022830Y-141687815D01*
X184010323Y-141656798D01*
X184003044Y-141628056D01*
X183076416Y-142011877D01*
X183083939Y-141983805D01*
X183083939Y-141865317D01*
X183053272Y-141750867D01*
X182994029Y-141648255D01*
X182910245Y-141564471D01*
X182885073Y-141549938D01*
X183810936Y-141166433D01*
X183742524Y-141061718D01*
X183585380Y-140891015D01*
X183585376Y-140891012D01*
X183402294Y-140748513D01*
X183402290Y-140748510D01*
X183198241Y-140638084D01*
X183198232Y-140638081D01*
X182978799Y-140562749D01*
X182749946Y-140524561D01*
X182517932Y-140524561D01*
X182337134Y-140554729D01*
X182721256Y-141482083D01*
X182693183Y-141474561D01*
X182574695Y-141474561D01*
X182460245Y-141505228D01*
X182357633Y-141564471D01*
X182273849Y-141648255D01*
X182259317Y-141673424D01*
X181889168Y-140779807D01*
X181880057Y-140723344D01*
X181891381Y-140567908D01*
X181891380Y-140567903D01*
X181890548Y-140562749D01*
X181874355Y-140462395D01*
X181863426Y-140394664D01*
X181863424Y-140394656D01*
X181796267Y-140232528D01*
X181693533Y-140090259D01*
X181692497Y-140089364D01*
X181664046Y-140064776D01*
X181560755Y-139975512D01*
X181469790Y-139926465D01*
X180176679Y-139390840D01*
X180077671Y-139361199D01*
X179902648Y-139348448D01*
X179902643Y-139348449D01*
X179729404Y-139376403D01*
X179729396Y-139376405D01*
X179567268Y-139443562D01*
X179424999Y-139546296D01*
X179310252Y-139679074D01*
X179261205Y-139770039D01*
X178725580Y-141063150D01*
X178695939Y-141162158D01*
X178683188Y-141337181D01*
X178683189Y-141337186D01*
X178711143Y-141510425D01*
X178711145Y-141510433D01*
X178778302Y-141672561D01*
X178881036Y-141814830D01*
X179013814Y-141929577D01*
X179013816Y-141929578D01*
X179104782Y-141978626D01*
X180397892Y-142514250D01*
X180496897Y-142543890D01*
X180555239Y-142548140D01*
X180671921Y-142556641D01*
X180671921Y-142556640D01*
X180671923Y-142556641D01*
X180797969Y-142536301D01*
X180845165Y-142528686D01*
X180845167Y-142528685D01*
X180845170Y-142528685D01*
X180845171Y-142528684D01*
X180845173Y-142528684D01*
X180892660Y-142509013D01*
X181007300Y-142461528D01*
X181149572Y-142358792D01*
X181251479Y-142240870D01*
X181297844Y-142207390D01*
X182191462Y-141837240D01*
X182183939Y-141865317D01*
X182183939Y-141983805D01*
X182214606Y-142098255D01*
X182273849Y-142200867D01*
X182357633Y-142284651D01*
X182382801Y-142299182D01*
X181456940Y-142682686D01*
X181456940Y-142682687D01*
X181525353Y-142787403D01*
X181682497Y-142958106D01*
X181682501Y-142958109D01*
X181865583Y-143100608D01*
X181865587Y-143100611D01*
X182069636Y-143211037D01*
X182069645Y-143211040D01*
X182289078Y-143286372D01*
X182517932Y-143324561D01*
X182749945Y-143324561D01*
X182930742Y-143294390D01*
X182546620Y-142367038D01*
X182574695Y-142374561D01*
X182693183Y-142374561D01*
X182807633Y-142343894D01*
X182910245Y-142284651D01*
X182994029Y-142200867D01*
X183008559Y-142175698D01*
X183393616Y-143105304D01*
X183393617Y-143105304D01*
X183402287Y-143100613D01*
X183407267Y-143096737D01*
X183472259Y-143071091D01*
X183540800Y-143084653D01*
X183591128Y-143133118D01*
X183603641Y-143164145D01*
X183651435Y-143352878D01*
X183744667Y-143565425D01*
X183871608Y-143759724D01*
X183871611Y-143759728D01*
X183871613Y-143759730D01*
X184028808Y-143930490D01*
X184028811Y-143930492D01*
X184028814Y-143930495D01*
X184211957Y-144073041D01*
X184211963Y-144073045D01*
X184211966Y-144073047D01*
X184416089Y-144183513D01*
X184530079Y-144222645D01*
X184635607Y-144258874D01*
X184635609Y-144258874D01*
X184635611Y-144258875D01*
X184864543Y-144297077D01*
X184864544Y-144297077D01*
X185096640Y-144297077D01*
X185096641Y-144297077D01*
X185325573Y-144258875D01*
X185545095Y-144183513D01*
X185749218Y-144073047D01*
X185932376Y-143930490D01*
X186089571Y-143759730D01*
X186096506Y-143749114D01*
X186126469Y-143703255D01*
X186179615Y-143657899D01*
X186230277Y-143647077D01*
X196277343Y-143647077D01*
X196374885Y-143627673D01*
X196422336Y-143618235D01*
X196558918Y-143561661D01*
X196608152Y-143528763D01*
X196681839Y-143479529D01*
X200422319Y-139739047D01*
X200483642Y-139705563D01*
X200553334Y-139710547D01*
X200597678Y-139739046D01*
X200923408Y-140064775D01*
X201185207Y-140326574D01*
X201185228Y-140326597D01*
X201753181Y-140894549D01*
X201786666Y-140955872D01*
X201789500Y-140982230D01*
X201789500Y-144127601D01*
X201769815Y-144194640D01*
X201741663Y-144225454D01*
X201588218Y-144344885D01*
X201588216Y-144344886D01*
X201588216Y-144344887D01*
X201470570Y-144472686D01*
X201431015Y-144515654D01*
X201373509Y-144603674D01*
X201320363Y-144649030D01*
X201251132Y-144658454D01*
X201187796Y-144628952D01*
X201165892Y-144603674D01*
X201151186Y-144581165D01*
X200442137Y-145290214D01*
X200419333Y-145205106D01*
X200360090Y-145102494D01*
X200276306Y-145018710D01*
X200173694Y-144959467D01*
X200088584Y-144936661D01*
X200798797Y-144226447D01*
X200798797Y-144226445D01*
X200768360Y-144202755D01*
X200768354Y-144202751D01*
X200564302Y-144092323D01*
X200564293Y-144092320D01*
X200344860Y-144016988D01*
X200116007Y-143978800D01*
X199883993Y-143978800D01*
X199655139Y-144016988D01*
X199435706Y-144092320D01*
X199435697Y-144092323D01*
X199231650Y-144202749D01*
X199201200Y-144226447D01*
X199911415Y-144936661D01*
X199826306Y-144959467D01*
X199723694Y-145018710D01*
X199639910Y-145102494D01*
X199580667Y-145205106D01*
X199557861Y-145290215D01*
X198873844Y-144606198D01*
X198843819Y-144557521D01*
X198829945Y-144515652D01*
X198794797Y-144409580D01*
X198702670Y-144260219D01*
X198578581Y-144136130D01*
X198429220Y-144044003D01*
X198429217Y-144044002D01*
X198262638Y-143988803D01*
X198159833Y-143978300D01*
X198159826Y-143978300D01*
X196760174Y-143978300D01*
X196760166Y-143978300D01*
X196657361Y-143988803D01*
X196490782Y-144044002D01*
X196490777Y-144044004D01*
X196341417Y-144136131D01*
X196217331Y-144260217D01*
X196125204Y-144409577D01*
X196125202Y-144409582D01*
X196070003Y-144576161D01*
X196059500Y-144678966D01*
X196059500Y-146078633D01*
X196070003Y-146181438D01*
X196090056Y-146241953D01*
X196125203Y-146348020D01*
X196217330Y-146497381D01*
X196341419Y-146621470D01*
X196490780Y-146713597D01*
X196573771Y-146741097D01*
X196657361Y-146768796D01*
X196694236Y-146772563D01*
X196760174Y-146779300D01*
X196760178Y-146779300D01*
X198159822Y-146779300D01*
X198159826Y-146779300D01*
X198262638Y-146768796D01*
X198429220Y-146713597D01*
X198578581Y-146621470D01*
X198702670Y-146497381D01*
X198794797Y-146348020D01*
X198843819Y-146200076D01*
X198873844Y-146151400D01*
X199557861Y-145467384D01*
X199580667Y-145552494D01*
X199639910Y-145655106D01*
X199723694Y-145738890D01*
X199826306Y-145798133D01*
X199911414Y-145820938D01*
X199201201Y-146531151D01*
X199231649Y-146554850D01*
X199435697Y-146665276D01*
X199435706Y-146665279D01*
X199655139Y-146740611D01*
X199883993Y-146778800D01*
X200116007Y-146778800D01*
X200344860Y-146740611D01*
X200564293Y-146665279D01*
X200564301Y-146665276D01*
X200768355Y-146554847D01*
X200798797Y-146531151D01*
X200798798Y-146531150D01*
X200088585Y-145820937D01*
X200173694Y-145798133D01*
X200276306Y-145738890D01*
X200360090Y-145655106D01*
X200419333Y-145552494D01*
X200442138Y-145467385D01*
X201151185Y-146176432D01*
X201165891Y-146153925D01*
X201219037Y-146108568D01*
X201288268Y-146099144D01*
X201351604Y-146128646D01*
X201373508Y-146153923D01*
X201431021Y-146241953D01*
X201588216Y-146412713D01*
X201588219Y-146412715D01*
X201588222Y-146412718D01*
X201771365Y-146555264D01*
X201771371Y-146555268D01*
X201771374Y-146555270D01*
X201893697Y-146621468D01*
X201974652Y-146665279D01*
X201975497Y-146665736D01*
X202083356Y-146702764D01*
X202195015Y-146741097D01*
X202195017Y-146741097D01*
X202195019Y-146741098D01*
X202423951Y-146779300D01*
X202423952Y-146779300D01*
X202656048Y-146779300D01*
X202656049Y-146779300D01*
X202884981Y-146741098D01*
X203104503Y-146665736D01*
X203308626Y-146555270D01*
X203309170Y-146554847D01*
X203383002Y-146497381D01*
X203491784Y-146412713D01*
X203648979Y-146241953D01*
X203775924Y-146047649D01*
X203869157Y-145835100D01*
X203926134Y-145610105D01*
X203945300Y-145378800D01*
X203945300Y-145378799D01*
X203945300Y-145378793D01*
X203926135Y-145147502D01*
X203926133Y-145147491D01*
X203869157Y-144922499D01*
X203775924Y-144709951D01*
X203648983Y-144515652D01*
X203648980Y-144515649D01*
X203648979Y-144515647D01*
X203491784Y-144344887D01*
X203450268Y-144312574D01*
X203338337Y-144225454D01*
X203297524Y-144168744D01*
X203290500Y-144127601D01*
X203290500Y-141494500D01*
X203310185Y-141427461D01*
X203362989Y-141381706D01*
X203414500Y-141370500D01*
X214419841Y-141370500D01*
X214486880Y-141390185D01*
X214532635Y-141442989D01*
X214542579Y-141512147D01*
X214513554Y-141575703D01*
X214467294Y-141609061D01*
X213836209Y-141870465D01*
X213745244Y-141919512D01*
X213612468Y-142034258D01*
X213612466Y-142034259D01*
X213509732Y-142176528D01*
X213442575Y-142338656D01*
X213442573Y-142338664D01*
X213414619Y-142511903D01*
X213414618Y-142511908D01*
X213427369Y-142686931D01*
X213457010Y-142785939D01*
X213801758Y-143618233D01*
X213990147Y-144073045D01*
X213992635Y-144079050D01*
X214041682Y-144170015D01*
X214156429Y-144302793D01*
X214298698Y-144405527D01*
X214298699Y-144405527D01*
X214298700Y-144405528D01*
X214308487Y-144409582D01*
X214460826Y-144472684D01*
X214460834Y-144472686D01*
X214547453Y-144486663D01*
X214634077Y-144500641D01*
X214634077Y-144500640D01*
X214634078Y-144500641D01*
X214692419Y-144496390D01*
X214809103Y-144487890D01*
X214908108Y-144458250D01*
X216201218Y-143922626D01*
X216292184Y-143873578D01*
X216424962Y-143758832D01*
X216527698Y-143616560D01*
X216584459Y-143479529D01*
X216594854Y-143454433D01*
X216594856Y-143454425D01*
X216615816Y-143324529D01*
X216622811Y-143281183D01*
X216611486Y-143125741D01*
X216620597Y-143069282D01*
X216990747Y-142175664D01*
X217005279Y-142200835D01*
X217089063Y-142284619D01*
X217191675Y-142343862D01*
X217306125Y-142374529D01*
X217424613Y-142374529D01*
X217452685Y-142367006D01*
X217068564Y-143294358D01*
X217249363Y-143324529D01*
X217481376Y-143324529D01*
X217710229Y-143286340D01*
X217929662Y-143211008D01*
X217929671Y-143211005D01*
X218133720Y-143100579D01*
X218133724Y-143100576D01*
X218316806Y-142958077D01*
X218316810Y-142958074D01*
X218473947Y-142787378D01*
X218473955Y-142787368D01*
X218542366Y-142682655D01*
X218542366Y-142682654D01*
X217616506Y-142299149D01*
X217641675Y-142284619D01*
X217725459Y-142200835D01*
X217784702Y-142098223D01*
X217815369Y-141983773D01*
X217815369Y-141865285D01*
X217807846Y-141837210D01*
X218734474Y-142221032D01*
X218741753Y-142192289D01*
X218777293Y-142132133D01*
X218839713Y-142100741D01*
X218909196Y-142108079D01*
X218938119Y-142124874D01*
X218943397Y-142128982D01*
X219076169Y-142200835D01*
X219147520Y-142239448D01*
X219261510Y-142278580D01*
X219367038Y-142314809D01*
X219367040Y-142314809D01*
X219367042Y-142314810D01*
X219595974Y-142353012D01*
X219595975Y-142353012D01*
X219828071Y-142353012D01*
X219828072Y-142353012D01*
X220057004Y-142314810D01*
X220276526Y-142239448D01*
X220480649Y-142128982D01*
X220490463Y-142121344D01*
X220569457Y-142059860D01*
X220663807Y-141986425D01*
X220821002Y-141815665D01*
X220947947Y-141621361D01*
X221041180Y-141408812D01*
X221098157Y-141183817D01*
X221098158Y-141183809D01*
X221117323Y-140952518D01*
X221117323Y-140952505D01*
X221098158Y-140721214D01*
X221098156Y-140721203D01*
X221041180Y-140496211D01*
X220947947Y-140283663D01*
X220821006Y-140089364D01*
X220821003Y-140089361D01*
X220821002Y-140089359D01*
X220700521Y-139958481D01*
X220669600Y-139895828D01*
X220677460Y-139826402D01*
X220721608Y-139772247D01*
X220788025Y-139750556D01*
X220791752Y-139750500D01*
X223340045Y-139750500D01*
X223437587Y-139731096D01*
X223485038Y-139721658D01*
X223621620Y-139665084D01*
X223670854Y-139632186D01*
X223744541Y-139582952D01*
X228789763Y-134537728D01*
X228851084Y-134504245D01*
X228920776Y-134509229D01*
X228965123Y-134537730D01*
X229796200Y-135368807D01*
X229796205Y-135368811D01*
X229796206Y-135368812D01*
X229876332Y-135434083D01*
X230033155Y-135512843D01*
X230118534Y-135533078D01*
X230203912Y-135553314D01*
X230203913Y-135553314D01*
X230379402Y-135553314D01*
X230436320Y-135539823D01*
X230550159Y-135512843D01*
X230706982Y-135434083D01*
X230787108Y-135368812D01*
X231776812Y-134379108D01*
X231842083Y-134298982D01*
X231920843Y-134142159D01*
X231961314Y-133971401D01*
X231961314Y-133795913D01*
X231954832Y-133768564D01*
X231920843Y-133625154D01*
X231850898Y-133485883D01*
X231837708Y-133430232D01*
X231837708Y-132462883D01*
X231914014Y-132506939D01*
X232028464Y-132537606D01*
X232146952Y-132537606D01*
X232261402Y-132506939D01*
X232337708Y-132462883D01*
X232337708Y-133465246D01*
X232432568Y-133449417D01*
X232652001Y-133374085D01*
X232652010Y-133374082D01*
X232856059Y-133263656D01*
X232856063Y-133263653D01*
X233039145Y-133121154D01*
X233039149Y-133121151D01*
X233196293Y-132950448D01*
X233323191Y-132756215D01*
X233416390Y-132543741D01*
X233468591Y-132337606D01*
X232462986Y-132337606D01*
X232507041Y-132261300D01*
X232537708Y-132146850D01*
X232537708Y-132028362D01*
X232507041Y-131913912D01*
X232462986Y-131837606D01*
X233468591Y-131837606D01*
X233463500Y-131817504D01*
X233466125Y-131747684D01*
X233506081Y-131690367D01*
X233570682Y-131663750D01*
X233604116Y-131664755D01*
X233767710Y-131692054D01*
X233767711Y-131692054D01*
X233999807Y-131692054D01*
X233999808Y-131692054D01*
X234228740Y-131653852D01*
X234448262Y-131578490D01*
X234652385Y-131468024D01*
X234656041Y-131465179D01*
X234790009Y-131360907D01*
X234835543Y-131325467D01*
X234992738Y-131154707D01*
X235114104Y-130968942D01*
X241166036Y-130968942D01*
X241185510Y-131253650D01*
X241185510Y-131253654D01*
X241185511Y-131253656D01*
X241202595Y-131335871D01*
X241243573Y-131533069D01*
X241243574Y-131533072D01*
X241339139Y-131801964D01*
X241339138Y-131801964D01*
X241410787Y-131940239D01*
X241470434Y-132055353D01*
X241635007Y-132288499D01*
X241635011Y-132288503D01*
X241635011Y-132288504D01*
X241829796Y-132497067D01*
X241952410Y-132596821D01*
X242051165Y-132677164D01*
X242051167Y-132677165D01*
X242051168Y-132677166D01*
X242295000Y-132825444D01*
X242295005Y-132825446D01*
X242406112Y-132873706D01*
X242556752Y-132939138D01*
X242831549Y-133016132D01*
X243076445Y-133049793D01*
X243114269Y-133054992D01*
X243114270Y-133054992D01*
X243399651Y-133054992D01*
X243430131Y-133050802D01*
X243682371Y-133016132D01*
X243957168Y-132939138D01*
X244218921Y-132825443D01*
X244462755Y-132677164D01*
X244684127Y-132497064D01*
X244878913Y-132288499D01*
X245043486Y-132055353D01*
X245174779Y-131801968D01*
X245270347Y-131533067D01*
X245328409Y-131253656D01*
X245347884Y-130968942D01*
X245328409Y-130684228D01*
X245270347Y-130404817D01*
X245263573Y-130385758D01*
X245174780Y-130135919D01*
X245174781Y-130135919D01*
X245102469Y-129996363D01*
X245043486Y-129882531D01*
X244878913Y-129649385D01*
X244878908Y-129649379D01*
X244684123Y-129440816D01*
X244462751Y-129260717D01*
X244218919Y-129112439D01*
X244218914Y-129112437D01*
X243957173Y-128998748D01*
X243957171Y-128998747D01*
X243957168Y-128998746D01*
X243828579Y-128962717D01*
X243682377Y-128921753D01*
X243682372Y-128921752D01*
X243682371Y-128921752D01*
X243459032Y-128891054D01*
X243399651Y-128882892D01*
X243399650Y-128882892D01*
X243114270Y-128882892D01*
X243114269Y-128882892D01*
X242831549Y-128921752D01*
X242831542Y-128921753D01*
X242625196Y-128979568D01*
X242556752Y-128998746D01*
X242556749Y-128998746D01*
X242556746Y-128998748D01*
X242556745Y-128998748D01*
X242295005Y-129112437D01*
X242295000Y-129112439D01*
X242051168Y-129260717D01*
X241829796Y-129440816D01*
X241635011Y-129649379D01*
X241635011Y-129649380D01*
X241470434Y-129882530D01*
X241339139Y-130135919D01*
X241243574Y-130404811D01*
X241243573Y-130404814D01*
X241185510Y-130684233D01*
X241166036Y-130968942D01*
X235114104Y-130968942D01*
X235119683Y-130960403D01*
X235212916Y-130747854D01*
X235269893Y-130522859D01*
X235279674Y-130404817D01*
X235289059Y-130291560D01*
X235289059Y-130291547D01*
X235269894Y-130060256D01*
X235269892Y-130060245D01*
X235212916Y-129835253D01*
X235119683Y-129622705D01*
X234992742Y-129428406D01*
X234992739Y-129428403D01*
X234992738Y-129428401D01*
X234835543Y-129257641D01*
X234835538Y-129257637D01*
X234835536Y-129257635D01*
X234652393Y-129115089D01*
X234652387Y-129115085D01*
X234448263Y-129004618D01*
X234448254Y-129004615D01*
X234228743Y-128929256D01*
X234057041Y-128900604D01*
X233999808Y-128891054D01*
X233767710Y-128891054D01*
X233721923Y-128898694D01*
X233538774Y-128929256D01*
X233319263Y-129004615D01*
X233319254Y-129004618D01*
X233115130Y-129115085D01*
X233115124Y-129115089D01*
X232927927Y-129260791D01*
X232927020Y-129259625D01*
X232870399Y-129287570D01*
X232800973Y-129279710D01*
X232746818Y-129235563D01*
X232725127Y-129169145D01*
X232725071Y-129165418D01*
X232725071Y-125769090D01*
X232744756Y-125702051D01*
X232761385Y-125681414D01*
X239495475Y-118947323D01*
X239556796Y-118913840D01*
X239626488Y-118918824D01*
X239682421Y-118960696D01*
X239706838Y-119026160D01*
X239697715Y-119082459D01*
X239390840Y-119823320D01*
X239361199Y-119922328D01*
X239348448Y-120097351D01*
X239348449Y-120097356D01*
X239376403Y-120270595D01*
X239376405Y-120270603D01*
X239443562Y-120432731D01*
X239546296Y-120575000D01*
X239546297Y-120575001D01*
X239546298Y-120575002D01*
X239546498Y-120575175D01*
X239679074Y-120689747D01*
X239679076Y-120689748D01*
X239770042Y-120738796D01*
X241063152Y-121274420D01*
X241162157Y-121304060D01*
X241220499Y-121308310D01*
X241337181Y-121316811D01*
X241337181Y-121316810D01*
X241337183Y-121316811D01*
X241476228Y-121294374D01*
X241510425Y-121288856D01*
X241510427Y-121288855D01*
X241510430Y-121288855D01*
X241510431Y-121288854D01*
X241510433Y-121288854D01*
X241557920Y-121269183D01*
X241672560Y-121221698D01*
X241814832Y-121118962D01*
X241929578Y-120986184D01*
X241978626Y-120895218D01*
X242514250Y-119602108D01*
X242543890Y-119503103D01*
X242556641Y-119328077D01*
X242528685Y-119154830D01*
X242528684Y-119154826D01*
X242461527Y-118992698D01*
X242358793Y-118850429D01*
X242240872Y-118748522D01*
X242207390Y-118702155D01*
X241837242Y-117808538D01*
X241865317Y-117816061D01*
X241983805Y-117816061D01*
X242098255Y-117785394D01*
X242200867Y-117726151D01*
X242284651Y-117642367D01*
X242299181Y-117617198D01*
X242684238Y-118546804D01*
X242684239Y-118546804D01*
X242692910Y-118542112D01*
X242876002Y-118399605D01*
X243033146Y-118228903D01*
X243160044Y-118034670D01*
X243253243Y-117822196D01*
X243310199Y-117597279D01*
X243329359Y-117366066D01*
X243329359Y-117366055D01*
X243310200Y-117134847D01*
X243310198Y-117134835D01*
X243293667Y-117069556D01*
X242367038Y-117453377D01*
X242374561Y-117425305D01*
X242374561Y-117306817D01*
X242343894Y-117192367D01*
X242284651Y-117089755D01*
X242200867Y-117005971D01*
X242175695Y-116991438D01*
X243101558Y-116607933D01*
X243085857Y-116583899D01*
X243065669Y-116517009D01*
X243084850Y-116449824D01*
X243137309Y-116403674D01*
X243169252Y-116393770D01*
X243241558Y-116381705D01*
X243461080Y-116306343D01*
X243665203Y-116195877D01*
X243673628Y-116189320D01*
X243815186Y-116079141D01*
X243848361Y-116053320D01*
X244005556Y-115882560D01*
X244132501Y-115688256D01*
X244225734Y-115475707D01*
X244282711Y-115250712D01*
X244284566Y-115228327D01*
X244301877Y-115019413D01*
X244301877Y-115019400D01*
X244282712Y-114788109D01*
X244282710Y-114788098D01*
X244225734Y-114563106D01*
X244132501Y-114350558D01*
X244005560Y-114156259D01*
X244005557Y-114156256D01*
X244005556Y-114156254D01*
X243848361Y-113985494D01*
X243848356Y-113985490D01*
X243848354Y-113985488D01*
X243665211Y-113842942D01*
X243665205Y-113842938D01*
X243461081Y-113732471D01*
X243461072Y-113732468D01*
X243241561Y-113657109D01*
X243069859Y-113628457D01*
X243012626Y-113618907D01*
X242780528Y-113618907D01*
X242734741Y-113626547D01*
X242551592Y-113657109D01*
X242332081Y-113732468D01*
X242332072Y-113732471D01*
X242127949Y-113842938D01*
X241970069Y-113965821D01*
X241905075Y-113991463D01*
X241836535Y-113977896D01*
X241786210Y-113929428D01*
X241769907Y-113867967D01*
X241769907Y-102181622D01*
X241789592Y-102114583D01*
X241806221Y-102093946D01*
X243779189Y-100120978D01*
X243840509Y-100087495D01*
X243910201Y-100092479D01*
X243966134Y-100134351D01*
X243990443Y-100198419D01*
X243993161Y-100231219D01*
X244050117Y-100456135D01*
X244143315Y-100668606D01*
X244227612Y-100797632D01*
X244936661Y-100088584D01*
X244959467Y-100173694D01*
X245018710Y-100276306D01*
X245102494Y-100360090D01*
X245205106Y-100419333D01*
X245290214Y-100442138D01*
X244606196Y-101126156D01*
X244557519Y-101156181D01*
X244409582Y-101205202D01*
X244409577Y-101205204D01*
X244260217Y-101297331D01*
X244136131Y-101421417D01*
X244044004Y-101570777D01*
X244044002Y-101570782D01*
X243988803Y-101737361D01*
X243978300Y-101840166D01*
X243978300Y-103239833D01*
X243988803Y-103342638D01*
X244044002Y-103509217D01*
X244044003Y-103509220D01*
X244136130Y-103658581D01*
X244260219Y-103782670D01*
X244409580Y-103874797D01*
X244492571Y-103902297D01*
X244576161Y-103929996D01*
X244613036Y-103933763D01*
X244678974Y-103940500D01*
X244678978Y-103940500D01*
X246078622Y-103940500D01*
X246078626Y-103940500D01*
X246181438Y-103929996D01*
X246348020Y-103874797D01*
X246497381Y-103782670D01*
X246621470Y-103658581D01*
X246713597Y-103509220D01*
X246768796Y-103342638D01*
X246779300Y-103239826D01*
X246779300Y-101840174D01*
X246768796Y-101737362D01*
X246713597Y-101570780D01*
X246621470Y-101421419D01*
X246497381Y-101297330D01*
X246348020Y-101205203D01*
X246200078Y-101156180D01*
X246151402Y-101126156D01*
X245467385Y-100442137D01*
X245552494Y-100419333D01*
X245655106Y-100360090D01*
X245738890Y-100276306D01*
X245798133Y-100173694D01*
X245820938Y-100088585D01*
X246529986Y-100797633D01*
X246614282Y-100668611D01*
X246707482Y-100456135D01*
X246764438Y-100231218D01*
X246783598Y-100000005D01*
X246783598Y-99999994D01*
X246764438Y-99768781D01*
X246707482Y-99543864D01*
X246614284Y-99331393D01*
X246529986Y-99202365D01*
X245820937Y-99911414D01*
X245798133Y-99826306D01*
X245738890Y-99723694D01*
X245655106Y-99639910D01*
X245552494Y-99580667D01*
X245467384Y-99557861D01*
X246177597Y-98847647D01*
X246177597Y-98847646D01*
X246152573Y-98828169D01*
X246111761Y-98771459D01*
X246108086Y-98701686D01*
X246142718Y-98641003D01*
X246152560Y-98632473D01*
X246330584Y-98493913D01*
X246487779Y-98323153D01*
X246614724Y-98128849D01*
X246707957Y-97916300D01*
X246764934Y-97691305D01*
X246765316Y-97686697D01*
X246784100Y-97460006D01*
X246784100Y-97459993D01*
X246764935Y-97228702D01*
X246764933Y-97228691D01*
X246707957Y-97003699D01*
X246614724Y-96791151D01*
X246487783Y-96596852D01*
X246487780Y-96596849D01*
X246487779Y-96596847D01*
X246330584Y-96426087D01*
X246330579Y-96426083D01*
X246330577Y-96426081D01*
X246147434Y-96283535D01*
X246147428Y-96283531D01*
X245943304Y-96173064D01*
X245943295Y-96173061D01*
X245723784Y-96097702D01*
X245552082Y-96069050D01*
X245494849Y-96059500D01*
X245262751Y-96059500D01*
X245216964Y-96067140D01*
X245033815Y-96097702D01*
X244814304Y-96173061D01*
X244814295Y-96173064D01*
X244610171Y-96283531D01*
X244610165Y-96283535D01*
X244427022Y-96426081D01*
X244427019Y-96426084D01*
X244269816Y-96596852D01*
X244142875Y-96791151D01*
X244049642Y-97003699D01*
X243992666Y-97228691D01*
X243992664Y-97228702D01*
X243973500Y-97459993D01*
X243973500Y-97460006D01*
X243992665Y-97691304D01*
X243992665Y-97691307D01*
X243994254Y-97697578D01*
X243991630Y-97767398D01*
X243961730Y-97815700D01*
X241981588Y-99795843D01*
X241920265Y-99829328D01*
X241850573Y-99824344D01*
X241794640Y-99782472D01*
X241770223Y-99717008D01*
X241769907Y-99708162D01*
X241769907Y-86945486D01*
X241741066Y-86800499D01*
X241741065Y-86800498D01*
X241741065Y-86800494D01*
X241686461Y-86668667D01*
X241684494Y-86663918D01*
X241684487Y-86663905D01*
X241602359Y-86540992D01*
X241551634Y-86490267D01*
X241497823Y-86436456D01*
X241156665Y-86095298D01*
X240786819Y-85725451D01*
X240753334Y-85664128D01*
X240750500Y-85637770D01*
X240750500Y-83926082D01*
X240749461Y-83920858D01*
X240740014Y-83873368D01*
X240721659Y-83781088D01*
X240698273Y-83724631D01*
X240690805Y-83655166D01*
X240722079Y-83592686D01*
X240782168Y-83557033D01*
X240851993Y-83559526D01*
X240904065Y-83593198D01*
X240973087Y-83668175D01*
X241156176Y-83810680D01*
X241164850Y-83815373D01*
X241549906Y-82885766D01*
X241564439Y-82910937D01*
X241648223Y-82994721D01*
X241750835Y-83053964D01*
X241865285Y-83084631D01*
X241983773Y-83084631D01*
X242011846Y-83077108D01*
X241641697Y-83970728D01*
X241608215Y-84017095D01*
X241490296Y-84118999D01*
X241387562Y-84261268D01*
X241320405Y-84423396D01*
X241320403Y-84423404D01*
X241292449Y-84596643D01*
X241292448Y-84596648D01*
X241305199Y-84771671D01*
X241334840Y-84870679D01*
X241678959Y-85701455D01*
X241867678Y-86157063D01*
X241870465Y-86163790D01*
X241919512Y-86254755D01*
X242034259Y-86387533D01*
X242176528Y-86490267D01*
X242338656Y-86557424D01*
X242338664Y-86557426D01*
X242425283Y-86571403D01*
X242511907Y-86585381D01*
X242511907Y-86585380D01*
X242511908Y-86585381D01*
X242570249Y-86581130D01*
X242686933Y-86572630D01*
X242785938Y-86542990D01*
X244079048Y-86007366D01*
X244170014Y-85958318D01*
X244302792Y-85843572D01*
X244405528Y-85701300D01*
X244472685Y-85539170D01*
X244500641Y-85365923D01*
X244487890Y-85190897D01*
X244458250Y-85091892D01*
X243922626Y-83798782D01*
X243873578Y-83707816D01*
X243873577Y-83707814D01*
X243774083Y-83592686D01*
X243758832Y-83575038D01*
X243758831Y-83575037D01*
X243758830Y-83575036D01*
X243616561Y-83472302D01*
X243454433Y-83405145D01*
X243454425Y-83405143D01*
X243281186Y-83377189D01*
X243281180Y-83377188D01*
X243125745Y-83388512D01*
X243069283Y-83379401D01*
X242175666Y-83009252D01*
X242200835Y-82994721D01*
X242284619Y-82910937D01*
X242343862Y-82808325D01*
X242374529Y-82693875D01*
X242374529Y-82575387D01*
X242367006Y-82547311D01*
X243293634Y-82931135D01*
X243293635Y-82931134D01*
X243310165Y-82865861D01*
X243310168Y-82865844D01*
X243329327Y-82634636D01*
X243329327Y-82634625D01*
X243310167Y-82403412D01*
X243253211Y-82178495D01*
X243160012Y-81966021D01*
X243033114Y-81771788D01*
X242875970Y-81601086D01*
X242692883Y-81458583D01*
X242692883Y-81458582D01*
X242684207Y-81453887D01*
X242299149Y-82383492D01*
X242284619Y-82358325D01*
X242200835Y-82274541D01*
X242098223Y-82215298D01*
X241983773Y-82184631D01*
X241865285Y-82184631D01*
X241837208Y-82192154D01*
X242221332Y-81264799D01*
X242221333Y-81264799D01*
X242197449Y-81260814D01*
X242134564Y-81230363D01*
X242098124Y-81170748D01*
X242099700Y-81100897D01*
X242114051Y-81070683D01*
X242119427Y-81062455D01*
X242188437Y-80956827D01*
X242281670Y-80744278D01*
X242338647Y-80519283D01*
X242340502Y-80496897D01*
X242357813Y-80287984D01*
X242357813Y-80287971D01*
X242338648Y-80056680D01*
X242338646Y-80056669D01*
X242281670Y-79831677D01*
X242188437Y-79619129D01*
X242061496Y-79424830D01*
X242061493Y-79424827D01*
X242061492Y-79424825D01*
X241904297Y-79254065D01*
X241904292Y-79254061D01*
X241904290Y-79254059D01*
X241721147Y-79111513D01*
X241721141Y-79111509D01*
X241517017Y-79001042D01*
X241517008Y-79001039D01*
X241297497Y-78925680D01*
X241118912Y-78895880D01*
X241068562Y-78887478D01*
X240836464Y-78887478D01*
X240795306Y-78894346D01*
X240607528Y-78925680D01*
X240388017Y-79001039D01*
X240388008Y-79001042D01*
X240183884Y-79111509D01*
X240183878Y-79111513D01*
X240000735Y-79254059D01*
X240000732Y-79254062D01*
X239843529Y-79424830D01*
X239716588Y-79619129D01*
X239623355Y-79831677D01*
X239566379Y-80056669D01*
X239566377Y-80056680D01*
X239547213Y-80287971D01*
X239547213Y-80287984D01*
X239566378Y-80519281D01*
X239567968Y-80525559D01*
X239565342Y-80595379D01*
X239535443Y-80643679D01*
X238707926Y-81471196D01*
X238646603Y-81504681D01*
X238576911Y-81499697D01*
X238532564Y-81471196D01*
X238436819Y-81375451D01*
X238403334Y-81314128D01*
X238400500Y-81287770D01*
X238400500Y-75309954D01*
X238371659Y-75164967D01*
X238371658Y-75164966D01*
X238371658Y-75164962D01*
X238371656Y-75164957D01*
X238315087Y-75028386D01*
X238315080Y-75028373D01*
X238232952Y-74905460D01*
X238232951Y-74905459D01*
X238128416Y-74800924D01*
X234537730Y-71210237D01*
X234504245Y-71148914D01*
X234509229Y-71079222D01*
X234537730Y-71034875D01*
X234940417Y-70632189D01*
X235368812Y-70203794D01*
X235434083Y-70123668D01*
X235512843Y-69966845D01*
X235553314Y-69796087D01*
X235553314Y-69620599D01*
X235551807Y-69614241D01*
X235512843Y-69449842D01*
X235512843Y-69449841D01*
X235434083Y-69293018D01*
X235368812Y-69212892D01*
X235368811Y-69212891D01*
X235368807Y-69212886D01*
X235186979Y-69031058D01*
X241166036Y-69031058D01*
X241185510Y-69315766D01*
X241243573Y-69595185D01*
X241243574Y-69595188D01*
X241339139Y-69864080D01*
X241339138Y-69864080D01*
X241378349Y-69939753D01*
X241470434Y-70117469D01*
X241635007Y-70350615D01*
X241635011Y-70350619D01*
X241635011Y-70350620D01*
X241829796Y-70559183D01*
X241859015Y-70582954D01*
X242051165Y-70739280D01*
X242051167Y-70739281D01*
X242051168Y-70739282D01*
X242295000Y-70887560D01*
X242295005Y-70887562D01*
X242389407Y-70928566D01*
X242556752Y-71001254D01*
X242831549Y-71078248D01*
X243080104Y-71112412D01*
X243114269Y-71117108D01*
X243114270Y-71117108D01*
X243399651Y-71117108D01*
X243430131Y-71112918D01*
X243682371Y-71078248D01*
X243957168Y-71001254D01*
X244218921Y-70887559D01*
X244462755Y-70739280D01*
X244684127Y-70559180D01*
X244878913Y-70350615D01*
X245043486Y-70117469D01*
X245174779Y-69864084D01*
X245270347Y-69595183D01*
X245328409Y-69315772D01*
X245347884Y-69031058D01*
X245328409Y-68746344D01*
X245270347Y-68466933D01*
X245268626Y-68462092D01*
X245174780Y-68198035D01*
X245174781Y-68198035D01*
X245092009Y-68038292D01*
X245043486Y-67944647D01*
X244878913Y-67711501D01*
X244878908Y-67711495D01*
X244684123Y-67502932D01*
X244462751Y-67322833D01*
X244218919Y-67174555D01*
X244218914Y-67174553D01*
X243957173Y-67060864D01*
X243957171Y-67060863D01*
X243957168Y-67060862D01*
X243828579Y-67024833D01*
X243682377Y-66983869D01*
X243682372Y-66983868D01*
X243682371Y-66983868D01*
X243541010Y-66964438D01*
X243399651Y-66945008D01*
X243399650Y-66945008D01*
X243114270Y-66945008D01*
X243114269Y-66945008D01*
X242831549Y-66983868D01*
X242831542Y-66983869D01*
X242625196Y-67041684D01*
X242556752Y-67060862D01*
X242556749Y-67060862D01*
X242556746Y-67060864D01*
X242556745Y-67060864D01*
X242295005Y-67174553D01*
X242295000Y-67174555D01*
X242051168Y-67322833D01*
X241829796Y-67502932D01*
X241635011Y-67711495D01*
X241635011Y-67711496D01*
X241635008Y-67711498D01*
X241635007Y-67711501D01*
X241582420Y-67786000D01*
X241470434Y-67944646D01*
X241339139Y-68198035D01*
X241243574Y-68466927D01*
X241243573Y-68466930D01*
X241185510Y-68746349D01*
X241166036Y-69031058D01*
X235186979Y-69031058D01*
X234379113Y-68223192D01*
X234298982Y-68157917D01*
X234142157Y-68079156D01*
X233971402Y-68038686D01*
X233971401Y-68038686D01*
X233795913Y-68038686D01*
X233795912Y-68038686D01*
X233625156Y-68079156D01*
X233611557Y-68085986D01*
X233485883Y-68149102D01*
X233430233Y-68162292D01*
X232462884Y-68162292D01*
X232506939Y-68085986D01*
X232537606Y-67971536D01*
X232537606Y-67853048D01*
X232506939Y-67738598D01*
X232462884Y-67662292D01*
X233468489Y-67662292D01*
X233416288Y-67456156D01*
X233323089Y-67243682D01*
X233196191Y-67049449D01*
X233039047Y-66878746D01*
X233039043Y-66878743D01*
X232855961Y-66736244D01*
X232855957Y-66736241D01*
X232651908Y-66625815D01*
X232651899Y-66625812D01*
X232432467Y-66550480D01*
X232337606Y-66534651D01*
X232337606Y-67537014D01*
X232261300Y-67492959D01*
X232146850Y-67462292D01*
X232028362Y-67462292D01*
X231913912Y-67492959D01*
X231837606Y-67537014D01*
X231837606Y-66534651D01*
X231837605Y-66534650D01*
X231808369Y-66539529D01*
X231739004Y-66531147D01*
X231685182Y-66486593D01*
X231663991Y-66420014D01*
X231667755Y-66386778D01*
X231677688Y-66347554D01*
X231677691Y-66347538D01*
X231696856Y-66116247D01*
X231696856Y-66116234D01*
X231677691Y-65884943D01*
X231677689Y-65884932D01*
X231620713Y-65659940D01*
X231527480Y-65447392D01*
X231400539Y-65253093D01*
X231400536Y-65253090D01*
X231400535Y-65253088D01*
X231243340Y-65082328D01*
X231243335Y-65082324D01*
X231243333Y-65082322D01*
X231060190Y-64939776D01*
X231060184Y-64939772D01*
X230856060Y-64829305D01*
X230856051Y-64829302D01*
X230636540Y-64753943D01*
X230464838Y-64725291D01*
X230407605Y-64715741D01*
X230175507Y-64715741D01*
X230129720Y-64723381D01*
X229946571Y-64753943D01*
X229727060Y-64829302D01*
X229727051Y-64829305D01*
X229522927Y-64939772D01*
X229522921Y-64939776D01*
X229339778Y-65082322D01*
X229339775Y-65082325D01*
X229182572Y-65253093D01*
X229055631Y-65447392D01*
X228962398Y-65659940D01*
X228905422Y-65884932D01*
X228905420Y-65884943D01*
X228886256Y-66116234D01*
X228886256Y-66116247D01*
X228905420Y-66347538D01*
X228905422Y-66347549D01*
X228962398Y-66572541D01*
X229055631Y-66785089D01*
X229182572Y-66979388D01*
X229182575Y-66979392D01*
X229182577Y-66979394D01*
X229263178Y-67066950D01*
X229294099Y-67129603D01*
X229286239Y-67199029D01*
X229242092Y-67253184D01*
X229175674Y-67274875D01*
X229171947Y-67274931D01*
X226855080Y-67274931D01*
X226788041Y-67255246D01*
X226767399Y-67238612D01*
X220318231Y-60789443D01*
X220284746Y-60728120D01*
X220289730Y-60658428D01*
X220331602Y-60602495D01*
X220358454Y-60587204D01*
X220432730Y-60556438D01*
X220575002Y-60453702D01*
X220689748Y-60320924D01*
X220738796Y-60229958D01*
X221274420Y-58936848D01*
X221304060Y-58837843D01*
X221316811Y-58662817D01*
X221289700Y-58494804D01*
X221288856Y-58489574D01*
X221288854Y-58489566D01*
X221231779Y-58351777D01*
X221221698Y-58327440D01*
X221191743Y-58285958D01*
X221118963Y-58185169D01*
X220986185Y-58070422D01*
X220895220Y-58021375D01*
X220882714Y-58016195D01*
X220265529Y-57760548D01*
X219602109Y-57485750D01*
X219503101Y-57456109D01*
X219328078Y-57443358D01*
X219328073Y-57443359D01*
X219154834Y-57471313D01*
X219154826Y-57471315D01*
X218992698Y-57538472D01*
X218850429Y-57641206D01*
X218748525Y-57759125D01*
X218702158Y-57792607D01*
X217808538Y-58162756D01*
X217816061Y-58134683D01*
X217816061Y-58016195D01*
X217785394Y-57901745D01*
X217726151Y-57799133D01*
X217642367Y-57715349D01*
X217617195Y-57700816D01*
X218543058Y-57317311D01*
X218474646Y-57212596D01*
X218317502Y-57041893D01*
X218317498Y-57041890D01*
X218134416Y-56899391D01*
X218134412Y-56899388D01*
X217930363Y-56788962D01*
X217930354Y-56788959D01*
X217710921Y-56713627D01*
X217482068Y-56675439D01*
X217250054Y-56675439D01*
X217069256Y-56705607D01*
X217453378Y-57632961D01*
X217425305Y-57625439D01*
X217306817Y-57625439D01*
X217192367Y-57656106D01*
X217089755Y-57715349D01*
X217005971Y-57799133D01*
X216991438Y-57824303D01*
X216606382Y-56894695D01*
X216597704Y-56899391D01*
X216597695Y-56899397D01*
X216592716Y-56903273D01*
X216527720Y-56928910D01*
X216459181Y-56915337D01*
X216408861Y-56866864D01*
X216396357Y-56835853D01*
X216348564Y-56647122D01*
X216255331Y-56434574D01*
X216128390Y-56240275D01*
X216128387Y-56240272D01*
X216128386Y-56240270D01*
X215971191Y-56069510D01*
X215971186Y-56069506D01*
X215971184Y-56069504D01*
X215788041Y-55926958D01*
X215788035Y-55926954D01*
X215583911Y-55816487D01*
X215583902Y-55816484D01*
X215364391Y-55741125D01*
X215192689Y-55712473D01*
X215135456Y-55702923D01*
X214903358Y-55702923D01*
X214857571Y-55710563D01*
X214674422Y-55741125D01*
X214454911Y-55816484D01*
X214454902Y-55816487D01*
X214250778Y-55926954D01*
X214250772Y-55926958D01*
X214067629Y-56069504D01*
X214067626Y-56069507D01*
X214067623Y-56069509D01*
X214067623Y-56069510D01*
X214015232Y-56126422D01*
X213910423Y-56240275D01*
X213783482Y-56434574D01*
X213690249Y-56647122D01*
X213633273Y-56872114D01*
X213633271Y-56872125D01*
X213614107Y-57103416D01*
X213614107Y-57103429D01*
X213633271Y-57334720D01*
X213633275Y-57334740D01*
X213667851Y-57471274D01*
X213665227Y-57541095D01*
X213625271Y-57598412D01*
X213560670Y-57625029D01*
X213547646Y-57625715D01*
X201577244Y-57625715D01*
X201510205Y-57606030D01*
X201489563Y-57589396D01*
X200119542Y-56219374D01*
X200086057Y-56158051D01*
X200091041Y-56088359D01*
X200132913Y-56032426D01*
X200186814Y-56009384D01*
X200344860Y-55983011D01*
X200564293Y-55907679D01*
X200564301Y-55907676D01*
X200768355Y-55797247D01*
X200798797Y-55773551D01*
X200798798Y-55773551D01*
X200088585Y-55063338D01*
X200173694Y-55040533D01*
X200276306Y-54981290D01*
X200360090Y-54897506D01*
X200419333Y-54794894D01*
X200442138Y-54709784D01*
X201126156Y-55393802D01*
X201156180Y-55442478D01*
X201205203Y-55590420D01*
X201297330Y-55739781D01*
X201421419Y-55863870D01*
X201570780Y-55955997D01*
X201653771Y-55983497D01*
X201737361Y-56011196D01*
X201774236Y-56014963D01*
X201840174Y-56021700D01*
X201840178Y-56021700D01*
X203239822Y-56021700D01*
X203239826Y-56021700D01*
X203342638Y-56011196D01*
X203509220Y-55955997D01*
X203658581Y-55863870D01*
X203782670Y-55739781D01*
X203874797Y-55590420D01*
X203929996Y-55423838D01*
X203940500Y-55321026D01*
X203940500Y-53921374D01*
X203933376Y-53851649D01*
X203929996Y-53818561D01*
X203909944Y-53758047D01*
X203874797Y-53651980D01*
X203782670Y-53502619D01*
X203658581Y-53378530D01*
X203565791Y-53321297D01*
X203509222Y-53286404D01*
X203509217Y-53286402D01*
X203342638Y-53231203D01*
X203239833Y-53220700D01*
X203239826Y-53220700D01*
X201840174Y-53220700D01*
X201840166Y-53220700D01*
X201737361Y-53231203D01*
X201570782Y-53286402D01*
X201570777Y-53286404D01*
X201421417Y-53378531D01*
X201297331Y-53502617D01*
X201205204Y-53651977D01*
X201205202Y-53651982D01*
X201156181Y-53799919D01*
X201126156Y-53848596D01*
X200442137Y-54532614D01*
X200419333Y-54447506D01*
X200360090Y-54344894D01*
X200276306Y-54261110D01*
X200173694Y-54201867D01*
X200088584Y-54179061D01*
X200798797Y-53468847D01*
X200798797Y-53468845D01*
X200768360Y-53445155D01*
X200768354Y-53445151D01*
X200564302Y-53334723D01*
X200564293Y-53334720D01*
X200344860Y-53259388D01*
X200116007Y-53221200D01*
X199883993Y-53221200D01*
X199655139Y-53259388D01*
X199435706Y-53334720D01*
X199435697Y-53334723D01*
X199231650Y-53445149D01*
X199201200Y-53468847D01*
X199911415Y-54179061D01*
X199826306Y-54201867D01*
X199723694Y-54261110D01*
X199639910Y-54344894D01*
X199580667Y-54447506D01*
X199557861Y-54532615D01*
X198848811Y-53823565D01*
X198834106Y-53846073D01*
X198780959Y-53891430D01*
X198711728Y-53900853D01*
X198648392Y-53871350D01*
X198626489Y-53846073D01*
X198568981Y-53758050D01*
X198568980Y-53758049D01*
X198568979Y-53758047D01*
X198411784Y-53587287D01*
X198411779Y-53587283D01*
X198411777Y-53587281D01*
X198228634Y-53444735D01*
X198228628Y-53444731D01*
X198024504Y-53334264D01*
X198024495Y-53334261D01*
X197804984Y-53258902D01*
X197633282Y-53230250D01*
X197576049Y-53220700D01*
X197343951Y-53220700D01*
X197298164Y-53228340D01*
X197115015Y-53258902D01*
X196895504Y-53334261D01*
X196895495Y-53334264D01*
X196691371Y-53444731D01*
X196691365Y-53444735D01*
X196508222Y-53587281D01*
X196508219Y-53587284D01*
X196351016Y-53758052D01*
X196224075Y-53952351D01*
X196130842Y-54164899D01*
X196073866Y-54389891D01*
X196073864Y-54389902D01*
X196054700Y-54621193D01*
X196054700Y-54621206D01*
X196073864Y-54852497D01*
X196073866Y-54852508D01*
X196130842Y-55077500D01*
X196224075Y-55290048D01*
X196351016Y-55484347D01*
X196351019Y-55484351D01*
X196351021Y-55484353D01*
X196508216Y-55655113D01*
X196508219Y-55655115D01*
X196508222Y-55655118D01*
X196691365Y-55797664D01*
X196691371Y-55797668D01*
X196691374Y-55797670D01*
X196726145Y-55816487D01*
X196894652Y-55907679D01*
X196895497Y-55908136D01*
X196950324Y-55926958D01*
X197115015Y-55983497D01*
X197115017Y-55983497D01*
X197115019Y-55983498D01*
X197343951Y-56021700D01*
X197343952Y-56021700D01*
X197576047Y-56021700D01*
X197576049Y-56021700D01*
X197704274Y-56000302D01*
X197773635Y-56008683D01*
X197812362Y-56034930D01*
X199233542Y-57456109D01*
X200632064Y-58854631D01*
X200714281Y-58936848D01*
X200736600Y-58959167D01*
X200859513Y-59041295D01*
X200859526Y-59041302D01*
X200996097Y-59097871D01*
X200996102Y-59097873D01*
X200996106Y-59097873D01*
X200996107Y-59097874D01*
X201141094Y-59126715D01*
X201141097Y-59126715D01*
X201288932Y-59126715D01*
X214657177Y-59126715D01*
X214724216Y-59146400D01*
X214744858Y-59163034D01*
X216164776Y-60582952D01*
X216194025Y-60602495D01*
X216225599Y-60623592D01*
X216225601Y-60623593D01*
X216225604Y-60623595D01*
X216287697Y-60665084D01*
X216424279Y-60721658D01*
X216424283Y-60721658D01*
X216424284Y-60721659D01*
X216569271Y-60750500D01*
X216569274Y-60750500D01*
X216569275Y-60750500D01*
X216717110Y-60750500D01*
X218105190Y-60750500D01*
X218172229Y-60770185D01*
X218192871Y-60786819D01*
X226014431Y-68608379D01*
X226014435Y-68608382D01*
X226137349Y-68690511D01*
X226137362Y-68690518D01*
X226272139Y-68746344D01*
X226273938Y-68747089D01*
X226273942Y-68747089D01*
X226273943Y-68747090D01*
X226418930Y-68775931D01*
X226418933Y-68775931D01*
X226566768Y-68775931D01*
X229929326Y-68775931D01*
X229996365Y-68795616D01*
X230017007Y-68812250D01*
X236863181Y-75658423D01*
X236896666Y-75719746D01*
X236899500Y-75746104D01*
X236899500Y-81723918D01*
X236899500Y-81723920D01*
X236899499Y-81723920D01*
X236928340Y-81868907D01*
X236928343Y-81868917D01*
X236984912Y-82005488D01*
X236984918Y-82005499D01*
X236995660Y-82021574D01*
X236995662Y-82021579D01*
X237067046Y-82128414D01*
X237067052Y-82128421D01*
X238412707Y-83474074D01*
X238412728Y-83474097D01*
X239213181Y-84274548D01*
X239246666Y-84335871D01*
X239249500Y-84362229D01*
X239249500Y-86073918D01*
X239249500Y-86073920D01*
X239249499Y-86073920D01*
X239278340Y-86218907D01*
X239278343Y-86218917D01*
X239334914Y-86355492D01*
X239334915Y-86355494D01*
X239334916Y-86355495D01*
X239356322Y-86387532D01*
X239367812Y-86404727D01*
X239367813Y-86404730D01*
X239417046Y-86478414D01*
X239417052Y-86478421D01*
X240232588Y-87293955D01*
X240266073Y-87355278D01*
X240268907Y-87381636D01*
X240268907Y-93752870D01*
X240249222Y-93819909D01*
X240196418Y-93865664D01*
X240127260Y-93875608D01*
X240063704Y-93846583D01*
X240025930Y-93787805D01*
X240022646Y-93773565D01*
X240013218Y-93717865D01*
X239828093Y-92624198D01*
X239581460Y-91398405D01*
X239297110Y-90180807D01*
X238975314Y-88972567D01*
X238616379Y-87774834D01*
X238220646Y-86588751D01*
X238220646Y-86588750D01*
X238220640Y-86588733D01*
X237834061Y-85539165D01*
X237788493Y-85415447D01*
X237320332Y-84256041D01*
X236816608Y-83111637D01*
X236588824Y-82634636D01*
X236277806Y-81983336D01*
X236215929Y-81863424D01*
X235704426Y-80872183D01*
X235097028Y-79779267D01*
X235067263Y-79729400D01*
X234456189Y-78705624D01*
X233782514Y-77652266D01*
X233134510Y-76704808D01*
X233076644Y-76620201D01*
X232339259Y-75610418D01*
X231571059Y-74623876D01*
X230772774Y-73661515D01*
X230431079Y-73274547D01*
X229945160Y-72724245D01*
X229089035Y-71812991D01*
X228205142Y-70928547D01*
X227294438Y-70071867D01*
X226982510Y-69796087D01*
X226357676Y-69243662D01*
X225395813Y-68444777D01*
X224498976Y-67745529D01*
X224409749Y-67675960D01*
X223400425Y-66937944D01*
X222538334Y-66347538D01*
X222368806Y-66231436D01*
X222006014Y-65999093D01*
X221315883Y-65557111D01*
X220242616Y-64915588D01*
X219150067Y-64307503D01*
X218039310Y-63733448D01*
X216911323Y-63193933D01*
X216235234Y-62895840D01*
X215767236Y-62689496D01*
X215767231Y-62689494D01*
X215767222Y-62689490D01*
X215228058Y-62471365D01*
X215212564Y-62463804D01*
X215193188Y-62452618D01*
X215193182Y-62452615D01*
X215166562Y-62445482D01*
X215152161Y-62440660D01*
X215126611Y-62430325D01*
X215126605Y-62430323D01*
X215126604Y-62430323D01*
X215126602Y-62430322D01*
X215126599Y-62430322D01*
X215104596Y-62427611D01*
X215104408Y-62427587D01*
X215087480Y-62424293D01*
X215065897Y-62418509D01*
X215065892Y-62418509D01*
X215038331Y-62418509D01*
X215023168Y-62417578D01*
X215015224Y-62416599D01*
X214995812Y-62414207D01*
X214995803Y-62414207D01*
X214973669Y-62417309D01*
X214956463Y-62418509D01*
X214934103Y-62418509D01*
X214907478Y-62425643D01*
X214892598Y-62428667D01*
X214865301Y-62432491D01*
X214865301Y-62432492D01*
X214844722Y-62441217D01*
X214828421Y-62446826D01*
X214806813Y-62452616D01*
X214782937Y-62466401D01*
X214769350Y-62473172D01*
X214743972Y-62483933D01*
X214743965Y-62483937D01*
X214726346Y-62497690D01*
X214712052Y-62507327D01*
X214692690Y-62518505D01*
X214692686Y-62518509D01*
X214673191Y-62538003D01*
X214661816Y-62548062D01*
X214640090Y-62565022D01*
X214640086Y-62565026D01*
X214626622Y-62582877D01*
X214615308Y-62595886D01*
X214599502Y-62611691D01*
X214599496Y-62611700D01*
X214585715Y-62635569D01*
X214577329Y-62648232D01*
X214560733Y-62670235D01*
X214552347Y-62690967D01*
X214544787Y-62706458D01*
X214533609Y-62725822D01*
X214533608Y-62725823D01*
X214533606Y-62725827D01*
X214526474Y-62752445D01*
X214521653Y-62766844D01*
X214511314Y-62792404D01*
X214508578Y-62814604D01*
X214505285Y-62831524D01*
X214499500Y-62853114D01*
X214499500Y-62880676D01*
X214498569Y-62895840D01*
X214495198Y-62923195D01*
X214495198Y-62923203D01*
X214498300Y-62945338D01*
X214499500Y-62962545D01*
X214499500Y-97065891D01*
X214533608Y-97193187D01*
X214556775Y-97233313D01*
X214599500Y-97307314D01*
X214692686Y-97400500D01*
X214779446Y-97450591D01*
X214806810Y-97466390D01*
X214806814Y-97466392D01*
X214934108Y-97500500D01*
X215065892Y-97500500D01*
X239828864Y-97500500D01*
X239851880Y-97502655D01*
X239855674Y-97503371D01*
X239859171Y-97504032D01*
X239899866Y-97500971D01*
X239901496Y-97500849D01*
X239910794Y-97500500D01*
X239953230Y-97500500D01*
X239953232Y-97500500D01*
X239960394Y-97498580D01*
X239983186Y-97494705D01*
X239990584Y-97494149D01*
X240030677Y-97480106D01*
X240039498Y-97477384D01*
X240080526Y-97466392D01*
X240082899Y-97465021D01*
X240085158Y-97464473D01*
X240088040Y-97463280D01*
X240088225Y-97463728D01*
X240150796Y-97448544D01*
X240216825Y-97471390D01*
X240260021Y-97526308D01*
X240268907Y-97572404D01*
X240268907Y-102427595D01*
X240249222Y-102494634D01*
X240196418Y-102540389D01*
X240127260Y-102550333D01*
X240082912Y-102534985D01*
X240080530Y-102533610D01*
X240080522Y-102533606D01*
X240039527Y-102522621D01*
X240030640Y-102519878D01*
X239990588Y-102505851D01*
X239990578Y-102505849D01*
X239983180Y-102505293D01*
X239960399Y-102501420D01*
X239953232Y-102499500D01*
X239910794Y-102499500D01*
X239901496Y-102499151D01*
X239859172Y-102495968D01*
X239859165Y-102495968D01*
X239851880Y-102497345D01*
X239828864Y-102499500D01*
X214934108Y-102499500D01*
X214806812Y-102533608D01*
X214692686Y-102599500D01*
X214692683Y-102599502D01*
X214599502Y-102692683D01*
X214599500Y-102692686D01*
X214533608Y-102806812D01*
X214499500Y-102934108D01*
X214499500Y-137037448D01*
X214498301Y-137054651D01*
X214495198Y-137076798D01*
X214495198Y-137076803D01*
X214498569Y-137104157D01*
X214499500Y-137119322D01*
X214499500Y-137146888D01*
X214505284Y-137168471D01*
X214508579Y-137185400D01*
X214511313Y-137207591D01*
X214511316Y-137207604D01*
X214521650Y-137233149D01*
X214526473Y-137247551D01*
X214533608Y-137274178D01*
X214544785Y-137293537D01*
X214552347Y-137309033D01*
X214552944Y-137310508D01*
X214560733Y-137329762D01*
X214577335Y-137351774D01*
X214585715Y-137364430D01*
X214599497Y-137388301D01*
X214599499Y-137388303D01*
X214599499Y-137388304D01*
X214599502Y-137388307D01*
X214615304Y-137404109D01*
X214626621Y-137417121D01*
X214640088Y-137434976D01*
X214661817Y-137451937D01*
X214673188Y-137461993D01*
X214692686Y-137481491D01*
X214712051Y-137492671D01*
X214726347Y-137502309D01*
X214743970Y-137516066D01*
X214769351Y-137526827D01*
X214782941Y-137533600D01*
X214806810Y-137547381D01*
X214806814Y-137547383D01*
X214828415Y-137553170D01*
X214844717Y-137558780D01*
X214865299Y-137567507D01*
X214892605Y-137571332D01*
X214907480Y-137574355D01*
X214926891Y-137579557D01*
X214934107Y-137581491D01*
X214934108Y-137581491D01*
X214956463Y-137581491D01*
X214973669Y-137582691D01*
X214981099Y-137583731D01*
X214995809Y-137585793D01*
X215023168Y-137582421D01*
X215038331Y-137581491D01*
X215065891Y-137581491D01*
X215065892Y-137581491D01*
X215087480Y-137575705D01*
X215104406Y-137572411D01*
X215126604Y-137569677D01*
X215152161Y-137559338D01*
X215166562Y-137554516D01*
X215193186Y-137547383D01*
X215212565Y-137536193D01*
X215228045Y-137528637D01*
X215767236Y-137310504D01*
X216911325Y-136806066D01*
X218039300Y-136266556D01*
X219150085Y-135692487D01*
X220242622Y-135084408D01*
X221315870Y-134442896D01*
X221315875Y-134442892D01*
X221315883Y-134442888D01*
X221510242Y-134318414D01*
X222368806Y-133768564D01*
X223400427Y-133062054D01*
X224409750Y-132324039D01*
X225395813Y-131555223D01*
X226357676Y-130756338D01*
X227294423Y-129928146D01*
X227342916Y-129882530D01*
X228205142Y-129071452D01*
X228205144Y-129071449D01*
X228205161Y-129071434D01*
X229089023Y-128187021D01*
X229945165Y-127275749D01*
X230772774Y-126338485D01*
X231004633Y-126058970D01*
X231062584Y-126019940D01*
X231132437Y-126018437D01*
X231192015Y-126054937D01*
X231222401Y-126117853D01*
X231224071Y-126138138D01*
X231224071Y-129929324D01*
X231204386Y-129996363D01*
X231187752Y-130017005D01*
X222991576Y-138213181D01*
X222930253Y-138246666D01*
X222903895Y-138249500D01*
X217926076Y-138249500D01*
X217897242Y-138255234D01*
X217897243Y-138255235D01*
X217781093Y-138278339D01*
X217781083Y-138278342D01*
X217701081Y-138311479D01*
X217701082Y-138311480D01*
X217701080Y-138311481D01*
X217644505Y-138334916D01*
X217574739Y-138381532D01*
X217573099Y-138382628D01*
X217521582Y-138417049D01*
X217521579Y-138417052D01*
X216105451Y-139833181D01*
X216044128Y-139866666D01*
X216017770Y-139869500D01*
X202902230Y-139869500D01*
X202835191Y-139849815D01*
X202814549Y-139833181D01*
X202246597Y-139265228D01*
X202246574Y-139265207D01*
X200706819Y-137725451D01*
X200673334Y-137664128D01*
X200670500Y-137637770D01*
X200670500Y-135202220D01*
X200690185Y-135135181D01*
X200721614Y-135101902D01*
X200799792Y-135045104D01*
X200950104Y-134894792D01*
X201069683Y-134730204D01*
X201125011Y-134687540D01*
X201194624Y-134681561D01*
X201256420Y-134714166D01*
X201270313Y-134730199D01*
X201365868Y-134861720D01*
X201389896Y-134894792D01*
X201540213Y-135045109D01*
X201712179Y-135170048D01*
X201712181Y-135170049D01*
X201712184Y-135170051D01*
X201901588Y-135266557D01*
X202103757Y-135332246D01*
X202313713Y-135365500D01*
X202313714Y-135365500D01*
X202526286Y-135365500D01*
X202526287Y-135365500D01*
X202736243Y-135332246D01*
X202938412Y-135266557D01*
X203127816Y-135170051D01*
X203175811Y-135135181D01*
X203299786Y-135045109D01*
X203299788Y-135045106D01*
X203299792Y-135045104D01*
X203450104Y-134894792D01*
X203569991Y-134729779D01*
X203625320Y-134687115D01*
X203694933Y-134681136D01*
X203756729Y-134713741D01*
X203770627Y-134729781D01*
X203890272Y-134894459D01*
X203890276Y-134894464D01*
X204040535Y-135044723D01*
X204040540Y-135044727D01*
X204212442Y-135169620D01*
X204401782Y-135266095D01*
X204603871Y-135331757D01*
X204670000Y-135342231D01*
X204670000Y-134294145D01*
X204736657Y-134332630D01*
X204857465Y-134365000D01*
X204982535Y-134365000D01*
X205103343Y-134332630D01*
X205170000Y-134294145D01*
X205170000Y-135342230D01*
X205236126Y-135331757D01*
X205236129Y-135331757D01*
X205438217Y-135266095D01*
X205627557Y-135169620D01*
X205799459Y-135044727D01*
X205799464Y-135044723D01*
X205949723Y-134894464D01*
X205949727Y-134894459D01*
X206074620Y-134722557D01*
X206171095Y-134533217D01*
X206236757Y-134331130D01*
X206236757Y-134331127D01*
X206267030Y-134140000D01*
X205324146Y-134140000D01*
X205362630Y-134073343D01*
X205395000Y-133952535D01*
X205395000Y-133827465D01*
X205362630Y-133706657D01*
X205324146Y-133640000D01*
X206267030Y-133640000D01*
X206236757Y-133448872D01*
X206236757Y-133448869D01*
X206171095Y-133246782D01*
X206074620Y-133057442D01*
X205949727Y-132885540D01*
X205949723Y-132885535D01*
X205799464Y-132735276D01*
X205799459Y-132735272D01*
X205627557Y-132610379D01*
X205438215Y-132513903D01*
X205236124Y-132448241D01*
X205170000Y-132437768D01*
X205170000Y-133485854D01*
X205103343Y-133447370D01*
X204982535Y-133415000D01*
X204857465Y-133415000D01*
X204736657Y-133447370D01*
X204670000Y-133485854D01*
X204670000Y-132437768D01*
X204669999Y-132437768D01*
X204603875Y-132448241D01*
X204401784Y-132513903D01*
X204212442Y-132610379D01*
X204040540Y-132735272D01*
X204040535Y-132735276D01*
X203890276Y-132885535D01*
X203890272Y-132885540D01*
X203770627Y-133050218D01*
X203715297Y-133092884D01*
X203645684Y-133098863D01*
X203583889Y-133066257D01*
X203569991Y-133050218D01*
X203447241Y-132881266D01*
X203448108Y-132880635D01*
X203421641Y-132821581D01*
X203420500Y-132804800D01*
X203420500Y-127845782D01*
X203440185Y-127778743D01*
X203456819Y-127758101D01*
X204268101Y-126946819D01*
X204329424Y-126913334D01*
X204355782Y-126910500D01*
X209513542Y-126910500D01*
X209535766Y-126906079D01*
X209610188Y-126891275D01*
X209706836Y-126872051D01*
X209760165Y-126849961D01*
X209888914Y-126796632D01*
X210052782Y-126687139D01*
X210192139Y-126547782D01*
X210192139Y-126547780D01*
X210202347Y-126537573D01*
X210202348Y-126537570D01*
X213677139Y-123062782D01*
X213786632Y-122898914D01*
X213862051Y-122716835D01*
X213900500Y-122523541D01*
X213900500Y-100000000D01*
X232909076Y-100000000D01*
X232928550Y-100284708D01*
X232986613Y-100564127D01*
X232986614Y-100564130D01*
X233082179Y-100833022D01*
X233082178Y-100833022D01*
X233153827Y-100971297D01*
X233213474Y-101086411D01*
X233378047Y-101319557D01*
X233378051Y-101319561D01*
X233378051Y-101319562D01*
X233572836Y-101528125D01*
X233625269Y-101570782D01*
X233794205Y-101708222D01*
X233794207Y-101708223D01*
X233794208Y-101708224D01*
X234038040Y-101856502D01*
X234038045Y-101856504D01*
X234168915Y-101913348D01*
X234299792Y-101970196D01*
X234574589Y-102047190D01*
X234823144Y-102081354D01*
X234857309Y-102086050D01*
X234857310Y-102086050D01*
X235142691Y-102086050D01*
X235173171Y-102081860D01*
X235425411Y-102047190D01*
X235700208Y-101970196D01*
X235961961Y-101856501D01*
X236205795Y-101708222D01*
X236427167Y-101528122D01*
X236621953Y-101319557D01*
X236786526Y-101086411D01*
X236917819Y-100833026D01*
X237013387Y-100564125D01*
X237071449Y-100284714D01*
X237090924Y-100000000D01*
X237071449Y-99715286D01*
X237013387Y-99435875D01*
X236917820Y-99166977D01*
X236917821Y-99166977D01*
X236846173Y-99028703D01*
X236786526Y-98913589D01*
X236621953Y-98680443D01*
X236621948Y-98680437D01*
X236427163Y-98471874D01*
X236244360Y-98323153D01*
X236205795Y-98291778D01*
X236205793Y-98291777D01*
X236205791Y-98291775D01*
X235961959Y-98143497D01*
X235961954Y-98143495D01*
X235700213Y-98029806D01*
X235700211Y-98029805D01*
X235700208Y-98029804D01*
X235571619Y-97993775D01*
X235425417Y-97952811D01*
X235425412Y-97952810D01*
X235425411Y-97952810D01*
X235284050Y-97933380D01*
X235142691Y-97913950D01*
X235142690Y-97913950D01*
X234857310Y-97913950D01*
X234857309Y-97913950D01*
X234574589Y-97952810D01*
X234574582Y-97952811D01*
X234368236Y-98010626D01*
X234299792Y-98029804D01*
X234299789Y-98029804D01*
X234299786Y-98029806D01*
X234299785Y-98029806D01*
X234038045Y-98143495D01*
X234038040Y-98143497D01*
X233794208Y-98291775D01*
X233572836Y-98471874D01*
X233378051Y-98680437D01*
X233378051Y-98680438D01*
X233378048Y-98680440D01*
X233378047Y-98680443D01*
X233343760Y-98729017D01*
X233213474Y-98913588D01*
X233082179Y-99166977D01*
X232986614Y-99435869D01*
X232986613Y-99435872D01*
X232928550Y-99715291D01*
X232909076Y-100000000D01*
X213900500Y-100000000D01*
X213900500Y-85904675D01*
X213900501Y-85904654D01*
X213900501Y-85701457D01*
X213900500Y-85701455D01*
X213880148Y-85599139D01*
X213862052Y-85508165D01*
X213786632Y-85326086D01*
X213786631Y-85326085D01*
X213786628Y-85326079D01*
X213677140Y-85162219D01*
X213677137Y-85162215D01*
X210104209Y-81589289D01*
X210104206Y-81589285D01*
X210104206Y-81589286D01*
X210097139Y-81582219D01*
X210097139Y-81582218D01*
X209957782Y-81442861D01*
X209957781Y-81442860D01*
X209957780Y-81442859D01*
X209793920Y-81333371D01*
X209793911Y-81333366D01*
X209701745Y-81295190D01*
X209665165Y-81280038D01*
X209627213Y-81264318D01*
X209611837Y-81257949D01*
X209611833Y-81257948D01*
X209510465Y-81237785D01*
X209479823Y-81231690D01*
X209418543Y-81219500D01*
X209418541Y-81219500D01*
X208497588Y-81219500D01*
X208430549Y-81199815D01*
X208426465Y-81197075D01*
X208398750Y-81177669D01*
X208272734Y-81089432D01*
X208214876Y-81062452D01*
X208066497Y-80993261D01*
X208066488Y-80993258D01*
X207846697Y-80934366D01*
X207846693Y-80934365D01*
X207846692Y-80934365D01*
X207846691Y-80934364D01*
X207846686Y-80934364D01*
X207620002Y-80914532D01*
X207619998Y-80914532D01*
X207393313Y-80934364D01*
X207393302Y-80934366D01*
X207173511Y-80993258D01*
X207173502Y-80993261D01*
X206967267Y-81089431D01*
X206967265Y-81089432D01*
X206780858Y-81219954D01*
X206619954Y-81380858D01*
X206489432Y-81567265D01*
X206489431Y-81567267D01*
X206393261Y-81773502D01*
X206393258Y-81773511D01*
X206334366Y-81993302D01*
X206334364Y-81993313D01*
X206314532Y-82219998D01*
X206314532Y-82220001D01*
X206334364Y-82446686D01*
X206334366Y-82446697D01*
X206393258Y-82666488D01*
X206393261Y-82666497D01*
X206489431Y-82872732D01*
X206489432Y-82872734D01*
X206619954Y-83059141D01*
X206780858Y-83220045D01*
X206780861Y-83220047D01*
X206967266Y-83350568D01*
X207025865Y-83377893D01*
X207078305Y-83424065D01*
X207097457Y-83491258D01*
X207077242Y-83558139D01*
X207025867Y-83602657D01*
X206967515Y-83629867D01*
X206781179Y-83760342D01*
X206620342Y-83921179D01*
X206489865Y-84107517D01*
X206393734Y-84313673D01*
X206393730Y-84313682D01*
X206341127Y-84509999D01*
X206341128Y-84510000D01*
X207186988Y-84510000D01*
X207154075Y-84567007D01*
X207120000Y-84694174D01*
X207120000Y-84825826D01*
X207154075Y-84952993D01*
X207186988Y-85010000D01*
X206341128Y-85010000D01*
X206393730Y-85206317D01*
X206393734Y-85206326D01*
X206489865Y-85412482D01*
X206620342Y-85598820D01*
X206781179Y-85759657D01*
X206967518Y-85890134D01*
X206967520Y-85890135D01*
X207025865Y-85917342D01*
X207078305Y-85963514D01*
X207097457Y-86030707D01*
X207077242Y-86097589D01*
X207025867Y-86142105D01*
X206967268Y-86169431D01*
X206967264Y-86169433D01*
X206780858Y-86299954D01*
X206619954Y-86460858D01*
X206489432Y-86647265D01*
X206489431Y-86647267D01*
X206393261Y-86853502D01*
X206393258Y-86853511D01*
X206334366Y-87073302D01*
X206334364Y-87073313D01*
X206314532Y-87299998D01*
X206314532Y-87300001D01*
X206334364Y-87526686D01*
X206334366Y-87526697D01*
X206393258Y-87746488D01*
X206393261Y-87746497D01*
X206489431Y-87952732D01*
X206489432Y-87952734D01*
X206619954Y-88139141D01*
X206780858Y-88300045D01*
X206780861Y-88300047D01*
X206967266Y-88430568D01*
X207025275Y-88457618D01*
X207077714Y-88503791D01*
X207096866Y-88570984D01*
X207076650Y-88637865D01*
X207025275Y-88682382D01*
X206967267Y-88709431D01*
X206967265Y-88709432D01*
X206780858Y-88839954D01*
X206619954Y-89000858D01*
X206489432Y-89187265D01*
X206489431Y-89187267D01*
X206393261Y-89393502D01*
X206393258Y-89393511D01*
X206334366Y-89613302D01*
X206334364Y-89613313D01*
X206314532Y-89839998D01*
X206314532Y-89840001D01*
X206334364Y-90066686D01*
X206334366Y-90066697D01*
X206393258Y-90286488D01*
X206393261Y-90286497D01*
X206489431Y-90492732D01*
X206489432Y-90492734D01*
X206619954Y-90679141D01*
X206780858Y-90840045D01*
X206780861Y-90840047D01*
X206967266Y-90970568D01*
X207024681Y-90997341D01*
X207025275Y-90997618D01*
X207077714Y-91043791D01*
X207096866Y-91110984D01*
X207076650Y-91177865D01*
X207025275Y-91222382D01*
X206967267Y-91249431D01*
X206967265Y-91249432D01*
X206780858Y-91379954D01*
X206619954Y-91540858D01*
X206489432Y-91727265D01*
X206489431Y-91727267D01*
X206393261Y-91933502D01*
X206393258Y-91933511D01*
X206334366Y-92153302D01*
X206334364Y-92153313D01*
X206314532Y-92379998D01*
X206314532Y-92380001D01*
X206334364Y-92606686D01*
X206334366Y-92606697D01*
X206393258Y-92826488D01*
X206393261Y-92826497D01*
X206489431Y-93032732D01*
X206489432Y-93032734D01*
X206619954Y-93219141D01*
X206780858Y-93380045D01*
X206780861Y-93380047D01*
X206967266Y-93510568D01*
X207025275Y-93537618D01*
X207077714Y-93583791D01*
X207096866Y-93650984D01*
X207076650Y-93717865D01*
X207025275Y-93762382D01*
X206967267Y-93789431D01*
X206967265Y-93789432D01*
X206780858Y-93919954D01*
X206619954Y-94080858D01*
X206489432Y-94267265D01*
X206489431Y-94267267D01*
X206393261Y-94473502D01*
X206393258Y-94473511D01*
X206334366Y-94693302D01*
X206334364Y-94693313D01*
X206314532Y-94919998D01*
X206314532Y-94920001D01*
X206334364Y-95146686D01*
X206334366Y-95146697D01*
X206393258Y-95366488D01*
X206393261Y-95366497D01*
X206489431Y-95572732D01*
X206489432Y-95572734D01*
X206619954Y-95759141D01*
X206780858Y-95920045D01*
X206780861Y-95920047D01*
X206967266Y-96050568D01*
X207025275Y-96077618D01*
X207077714Y-96123791D01*
X207096866Y-96190984D01*
X207076650Y-96257865D01*
X207025275Y-96302382D01*
X206967267Y-96329431D01*
X206967265Y-96329432D01*
X206780858Y-96459954D01*
X206619954Y-96620858D01*
X206489432Y-96807265D01*
X206489431Y-96807267D01*
X206393261Y-97013502D01*
X206393258Y-97013511D01*
X206334366Y-97233302D01*
X206334364Y-97233313D01*
X206314532Y-97459998D01*
X206314532Y-97460001D01*
X206334364Y-97686686D01*
X206334366Y-97686697D01*
X206393258Y-97906488D01*
X206393261Y-97906497D01*
X206489431Y-98112732D01*
X206489432Y-98112734D01*
X206619954Y-98299141D01*
X206780858Y-98460045D01*
X206827693Y-98492839D01*
X206967266Y-98590568D01*
X207025275Y-98617618D01*
X207077714Y-98663791D01*
X207096866Y-98730984D01*
X207076650Y-98797865D01*
X207025275Y-98842382D01*
X206967267Y-98869431D01*
X206967265Y-98869432D01*
X206780858Y-98999954D01*
X206619954Y-99160858D01*
X206489432Y-99347265D01*
X206489431Y-99347267D01*
X206393261Y-99553502D01*
X206393258Y-99553511D01*
X206334366Y-99773302D01*
X206334364Y-99773313D01*
X206314532Y-99999998D01*
X206314532Y-100000001D01*
X206334364Y-100226686D01*
X206334366Y-100226697D01*
X206393258Y-100446488D01*
X206393261Y-100446497D01*
X206489431Y-100652732D01*
X206489432Y-100652734D01*
X206619954Y-100839141D01*
X206780858Y-101000045D01*
X206780861Y-101000047D01*
X206967266Y-101130568D01*
X207013982Y-101152352D01*
X207025275Y-101157618D01*
X207077714Y-101203791D01*
X207096866Y-101270984D01*
X207076650Y-101337865D01*
X207025275Y-101382382D01*
X206967267Y-101409431D01*
X206967265Y-101409432D01*
X206780858Y-101539954D01*
X206619954Y-101700858D01*
X206489432Y-101887265D01*
X206489431Y-101887267D01*
X206393261Y-102093502D01*
X206393258Y-102093511D01*
X206334366Y-102313302D01*
X206334364Y-102313313D01*
X206314532Y-102539998D01*
X206314532Y-102540001D01*
X206334364Y-102766686D01*
X206334366Y-102766697D01*
X206393258Y-102986488D01*
X206393261Y-102986497D01*
X206489431Y-103192732D01*
X206489432Y-103192734D01*
X206619954Y-103379141D01*
X206780858Y-103540045D01*
X206780861Y-103540047D01*
X206967266Y-103670568D01*
X207025275Y-103697618D01*
X207077714Y-103743791D01*
X207096866Y-103810984D01*
X207076650Y-103877865D01*
X207025275Y-103922381D01*
X207008946Y-103929996D01*
X206967267Y-103949431D01*
X206967265Y-103949432D01*
X206780858Y-104079954D01*
X206619954Y-104240858D01*
X206489432Y-104427265D01*
X206489431Y-104427267D01*
X206393261Y-104633502D01*
X206393258Y-104633511D01*
X206334366Y-104853302D01*
X206334364Y-104853313D01*
X206314532Y-105079998D01*
X206314532Y-105080001D01*
X206334364Y-105306686D01*
X206334366Y-105306697D01*
X206393258Y-105526488D01*
X206393261Y-105526497D01*
X206489431Y-105732732D01*
X206489432Y-105732734D01*
X206619954Y-105919141D01*
X206780858Y-106080045D01*
X206780861Y-106080047D01*
X206967266Y-106210568D01*
X207025275Y-106237618D01*
X207077714Y-106283791D01*
X207096866Y-106350984D01*
X207076650Y-106417865D01*
X207025275Y-106462382D01*
X206967267Y-106489431D01*
X206967265Y-106489432D01*
X206780858Y-106619954D01*
X206619954Y-106780858D01*
X206489432Y-106967265D01*
X206489431Y-106967267D01*
X206393261Y-107173502D01*
X206393258Y-107173511D01*
X206334366Y-107393302D01*
X206334364Y-107393313D01*
X206314532Y-107619998D01*
X206314532Y-107620001D01*
X206334364Y-107846686D01*
X206334366Y-107846697D01*
X206393258Y-108066488D01*
X206393261Y-108066497D01*
X206489431Y-108272732D01*
X206489432Y-108272734D01*
X206619954Y-108459141D01*
X206780858Y-108620045D01*
X206780861Y-108620047D01*
X206967266Y-108750568D01*
X207025275Y-108777618D01*
X207077714Y-108823791D01*
X207096866Y-108890984D01*
X207076650Y-108957865D01*
X207025275Y-109002382D01*
X206967267Y-109029431D01*
X206967265Y-109029432D01*
X206780858Y-109159954D01*
X206619954Y-109320858D01*
X206489432Y-109507265D01*
X206489431Y-109507267D01*
X206393261Y-109713502D01*
X206393258Y-109713511D01*
X206334366Y-109933302D01*
X206334364Y-109933313D01*
X206314532Y-110159998D01*
X206314532Y-110160001D01*
X206334364Y-110386686D01*
X206334366Y-110386697D01*
X206393258Y-110606488D01*
X206393261Y-110606497D01*
X206489431Y-110812732D01*
X206489432Y-110812734D01*
X206619954Y-110999141D01*
X206780858Y-111160045D01*
X206780861Y-111160047D01*
X206967266Y-111290568D01*
X207025275Y-111317618D01*
X207077714Y-111363791D01*
X207096866Y-111430984D01*
X207076650Y-111497865D01*
X207025275Y-111542382D01*
X206967267Y-111569431D01*
X206967265Y-111569432D01*
X206780858Y-111699954D01*
X206619954Y-111860858D01*
X206489432Y-112047265D01*
X206489431Y-112047267D01*
X206393261Y-112253502D01*
X206393258Y-112253511D01*
X206334366Y-112473302D01*
X206334364Y-112473313D01*
X206314532Y-112699998D01*
X206314532Y-112700001D01*
X206334364Y-112926686D01*
X206334366Y-112926697D01*
X206393258Y-113146488D01*
X206393261Y-113146497D01*
X206489431Y-113352732D01*
X206489432Y-113352734D01*
X206619954Y-113539141D01*
X206780858Y-113700045D01*
X206780861Y-113700047D01*
X206967266Y-113830568D01*
X207025275Y-113857618D01*
X207077714Y-113903791D01*
X207096866Y-113970984D01*
X207076650Y-114037865D01*
X207025275Y-114082382D01*
X206967267Y-114109431D01*
X206967265Y-114109432D01*
X206780858Y-114239954D01*
X206619954Y-114400858D01*
X206489432Y-114587265D01*
X206489431Y-114587267D01*
X206393261Y-114793502D01*
X206393258Y-114793511D01*
X206334366Y-115013302D01*
X206334364Y-115013313D01*
X206314532Y-115239998D01*
X206314532Y-115240001D01*
X206334364Y-115466686D01*
X206334366Y-115466697D01*
X206393258Y-115686488D01*
X206393261Y-115686497D01*
X206489431Y-115892732D01*
X206489432Y-115892734D01*
X206619954Y-116079141D01*
X206780858Y-116240045D01*
X206780861Y-116240047D01*
X206967266Y-116370568D01*
X207025275Y-116397618D01*
X207077714Y-116443791D01*
X207096866Y-116510984D01*
X207076650Y-116577865D01*
X207025275Y-116622382D01*
X206967267Y-116649431D01*
X206967265Y-116649432D01*
X206780858Y-116779954D01*
X206619954Y-116940858D01*
X206489432Y-117127265D01*
X206489431Y-117127267D01*
X206393261Y-117333502D01*
X206393258Y-117333511D01*
X206334366Y-117553302D01*
X206334364Y-117553313D01*
X206314532Y-117779998D01*
X206314532Y-117780001D01*
X206334364Y-118006686D01*
X206334366Y-118006697D01*
X206393258Y-118226488D01*
X206393261Y-118226497D01*
X206489431Y-118432732D01*
X206489432Y-118432734D01*
X206619954Y-118619141D01*
X206780858Y-118780045D01*
X206780861Y-118780047D01*
X206967266Y-118910568D01*
X207173504Y-119006739D01*
X207393308Y-119065635D01*
X207555230Y-119079801D01*
X207619998Y-119085468D01*
X207620000Y-119085468D01*
X207620002Y-119085468D01*
X207676673Y-119080509D01*
X207846692Y-119065635D01*
X208066496Y-119006739D01*
X208272734Y-118910568D01*
X208459139Y-118780047D01*
X208620047Y-118619139D01*
X208750568Y-118432734D01*
X208846739Y-118226496D01*
X208905635Y-118006692D01*
X208925468Y-117780000D01*
X208905635Y-117553308D01*
X208855461Y-117366055D01*
X208846741Y-117333511D01*
X208846738Y-117333502D01*
X208834620Y-117307515D01*
X208750568Y-117127266D01*
X208620047Y-116940861D01*
X208620045Y-116940858D01*
X208459141Y-116779954D01*
X208272734Y-116649432D01*
X208272728Y-116649429D01*
X208214725Y-116622382D01*
X208162285Y-116576210D01*
X208143133Y-116509017D01*
X208163348Y-116442135D01*
X208214725Y-116397618D01*
X208272734Y-116370568D01*
X208459139Y-116240047D01*
X208620047Y-116079139D01*
X208750568Y-115892734D01*
X208846739Y-115686496D01*
X208905635Y-115466692D01*
X208925468Y-115240000D01*
X208905635Y-115013308D01*
X208846739Y-114793504D01*
X208750568Y-114587266D01*
X208620047Y-114400861D01*
X208620045Y-114400858D01*
X208459141Y-114239954D01*
X208272734Y-114109432D01*
X208272728Y-114109429D01*
X208214725Y-114082382D01*
X208162285Y-114036210D01*
X208143133Y-113969017D01*
X208163348Y-113902135D01*
X208214725Y-113857618D01*
X208272734Y-113830568D01*
X208459139Y-113700047D01*
X208620047Y-113539139D01*
X208750568Y-113352734D01*
X208846739Y-113146496D01*
X208905635Y-112926692D01*
X208925468Y-112700000D01*
X208905635Y-112473308D01*
X208846739Y-112253504D01*
X208750568Y-112047266D01*
X208620047Y-111860861D01*
X208620045Y-111860858D01*
X208459141Y-111699954D01*
X208272734Y-111569432D01*
X208272728Y-111569429D01*
X208214725Y-111542382D01*
X208162285Y-111496210D01*
X208143133Y-111429017D01*
X208163348Y-111362135D01*
X208214725Y-111317618D01*
X208272734Y-111290568D01*
X208459139Y-111160047D01*
X208620047Y-110999139D01*
X208750568Y-110812734D01*
X208846739Y-110606496D01*
X208905635Y-110386692D01*
X208924969Y-110165699D01*
X208925468Y-110160001D01*
X208925468Y-110159998D01*
X208905635Y-109933313D01*
X208905635Y-109933308D01*
X208846739Y-109713504D01*
X208750568Y-109507266D01*
X208620047Y-109320861D01*
X208620045Y-109320858D01*
X208459141Y-109159954D01*
X208272734Y-109029432D01*
X208272728Y-109029429D01*
X208214725Y-109002382D01*
X208162285Y-108956210D01*
X208143133Y-108889017D01*
X208163348Y-108822135D01*
X208214725Y-108777618D01*
X208272734Y-108750568D01*
X208459139Y-108620047D01*
X208620047Y-108459139D01*
X208750568Y-108272734D01*
X208846739Y-108066496D01*
X208905635Y-107846692D01*
X208925468Y-107620000D01*
X208905635Y-107393308D01*
X208846739Y-107173504D01*
X208750568Y-106967266D01*
X208620047Y-106780861D01*
X208620045Y-106780858D01*
X208459141Y-106619954D01*
X208272734Y-106489432D01*
X208272728Y-106489429D01*
X208214725Y-106462382D01*
X208162285Y-106416210D01*
X208143133Y-106349017D01*
X208163348Y-106282135D01*
X208214725Y-106237618D01*
X208272734Y-106210568D01*
X208459139Y-106080047D01*
X208620047Y-105919139D01*
X208750568Y-105732734D01*
X208846739Y-105526496D01*
X208905635Y-105306692D01*
X208925468Y-105080000D01*
X208905635Y-104853308D01*
X208846739Y-104633504D01*
X208750568Y-104427266D01*
X208620047Y-104240861D01*
X208620045Y-104240858D01*
X208459141Y-104079954D01*
X208272734Y-103949432D01*
X208272728Y-103949429D01*
X208245038Y-103936517D01*
X208214724Y-103922381D01*
X208162285Y-103876210D01*
X208143133Y-103809017D01*
X208163348Y-103742135D01*
X208214725Y-103697618D01*
X208272734Y-103670568D01*
X208459139Y-103540047D01*
X208620047Y-103379139D01*
X208750568Y-103192734D01*
X208846739Y-102986496D01*
X208905635Y-102766692D01*
X208924564Y-102550333D01*
X208925468Y-102540001D01*
X208925468Y-102539998D01*
X208905635Y-102313313D01*
X208905635Y-102313308D01*
X208846739Y-102093504D01*
X208750568Y-101887266D01*
X208620047Y-101700861D01*
X208620045Y-101700858D01*
X208459141Y-101539954D01*
X208272734Y-101409432D01*
X208272728Y-101409429D01*
X208214725Y-101382382D01*
X208162285Y-101336210D01*
X208143133Y-101269017D01*
X208163348Y-101202135D01*
X208214725Y-101157618D01*
X208226018Y-101152352D01*
X208272734Y-101130568D01*
X208459139Y-101000047D01*
X208620047Y-100839139D01*
X208750568Y-100652734D01*
X208846739Y-100446496D01*
X208905635Y-100226692D01*
X208925468Y-100000000D01*
X208925467Y-99999994D01*
X208910536Y-99829328D01*
X208905635Y-99773308D01*
X208846739Y-99553504D01*
X208750568Y-99347266D01*
X208649108Y-99202365D01*
X208620045Y-99160858D01*
X208459141Y-98999954D01*
X208272734Y-98869432D01*
X208272728Y-98869429D01*
X208245038Y-98856517D01*
X208214724Y-98842381D01*
X208162285Y-98796210D01*
X208143133Y-98729017D01*
X208163348Y-98662135D01*
X208214725Y-98617618D01*
X208272734Y-98590568D01*
X208459139Y-98460047D01*
X208620047Y-98299139D01*
X208750568Y-98112734D01*
X208846739Y-97906496D01*
X208905635Y-97686692D01*
X208925233Y-97462684D01*
X208925468Y-97460001D01*
X208925468Y-97459998D01*
X208915332Y-97344150D01*
X208905635Y-97233308D01*
X208858788Y-97058473D01*
X208846741Y-97013511D01*
X208846738Y-97013502D01*
X208809716Y-96934108D01*
X208750568Y-96807266D01*
X208620047Y-96620861D01*
X208620045Y-96620858D01*
X208459141Y-96459954D01*
X208272734Y-96329432D01*
X208272728Y-96329429D01*
X208214725Y-96302382D01*
X208162285Y-96256210D01*
X208143133Y-96189017D01*
X208163348Y-96122135D01*
X208214725Y-96077618D01*
X208272734Y-96050568D01*
X208459139Y-95920047D01*
X208620047Y-95759139D01*
X208750568Y-95572734D01*
X208846739Y-95366496D01*
X208905635Y-95146692D01*
X208925468Y-94920000D01*
X208905635Y-94693308D01*
X208846739Y-94473504D01*
X208750568Y-94267266D01*
X208620047Y-94080861D01*
X208620045Y-94080858D01*
X208459141Y-93919954D01*
X208272734Y-93789432D01*
X208272728Y-93789429D01*
X208214725Y-93762382D01*
X208162285Y-93716210D01*
X208143133Y-93649017D01*
X208163348Y-93582135D01*
X208214725Y-93537618D01*
X208272734Y-93510568D01*
X208459139Y-93380047D01*
X208620047Y-93219139D01*
X208750568Y-93032734D01*
X208846739Y-92826496D01*
X208905635Y-92606692D01*
X208925468Y-92380000D01*
X208905635Y-92153308D01*
X208846739Y-91933504D01*
X208750568Y-91727266D01*
X208620047Y-91540861D01*
X208620045Y-91540858D01*
X208459141Y-91379954D01*
X208272734Y-91249432D01*
X208272728Y-91249429D01*
X208214725Y-91222382D01*
X208162285Y-91176210D01*
X208143133Y-91109017D01*
X208163348Y-91042135D01*
X208214725Y-90997618D01*
X208215319Y-90997341D01*
X208272734Y-90970568D01*
X208459139Y-90840047D01*
X208620047Y-90679139D01*
X208750568Y-90492734D01*
X208846739Y-90286496D01*
X208905635Y-90066692D01*
X208925468Y-89840000D01*
X208924969Y-89834301D01*
X208905635Y-89613313D01*
X208905635Y-89613308D01*
X208846739Y-89393504D01*
X208750568Y-89187266D01*
X208620047Y-89000861D01*
X208620045Y-89000858D01*
X208459141Y-88839954D01*
X208272734Y-88709432D01*
X208272728Y-88709429D01*
X208214725Y-88682382D01*
X208162285Y-88636210D01*
X208143133Y-88569017D01*
X208163348Y-88502135D01*
X208214725Y-88457618D01*
X208272734Y-88430568D01*
X208459139Y-88300047D01*
X208620047Y-88139139D01*
X208750568Y-87952734D01*
X208846739Y-87746496D01*
X208905635Y-87526692D01*
X208925468Y-87300000D01*
X208905635Y-87073308D01*
X208846739Y-86853504D01*
X208750568Y-86647266D01*
X208620047Y-86460861D01*
X208620045Y-86460858D01*
X208459141Y-86299954D01*
X208272734Y-86169432D01*
X208272732Y-86169431D01*
X208214725Y-86142382D01*
X208214132Y-86142105D01*
X208161694Y-86095934D01*
X208142542Y-86028740D01*
X208162758Y-85961859D01*
X208214134Y-85917341D01*
X208272484Y-85890132D01*
X208458820Y-85759657D01*
X208619657Y-85598820D01*
X208750134Y-85412482D01*
X208846265Y-85206326D01*
X208846269Y-85206317D01*
X208898872Y-85010000D01*
X208053012Y-85010000D01*
X208085925Y-84952993D01*
X208120000Y-84825826D01*
X208120000Y-84694174D01*
X208085925Y-84567007D01*
X208053012Y-84510000D01*
X208898872Y-84510000D01*
X208898872Y-84509999D01*
X208846269Y-84313682D01*
X208846265Y-84313673D01*
X208750134Y-84107517D01*
X208619657Y-83921179D01*
X208458820Y-83760342D01*
X208272482Y-83629865D01*
X208214133Y-83602657D01*
X208161694Y-83556484D01*
X208142542Y-83489291D01*
X208162758Y-83422410D01*
X208214129Y-83377895D01*
X208272734Y-83350568D01*
X208426465Y-83242924D01*
X208492671Y-83220598D01*
X208497588Y-83220500D01*
X208854218Y-83220500D01*
X208921257Y-83240185D01*
X208941899Y-83256819D01*
X211863181Y-86178101D01*
X211896666Y-86239424D01*
X211899500Y-86265782D01*
X211899500Y-121959217D01*
X211879815Y-122026256D01*
X211863181Y-122046898D01*
X209036899Y-124873181D01*
X208975576Y-124906666D01*
X208949218Y-124909500D01*
X203791457Y-124909500D01*
X203727961Y-124922130D01*
X203696212Y-124928446D01*
X203598167Y-124947947D01*
X203598159Y-124947950D01*
X203544834Y-124970037D01*
X203544834Y-124970038D01*
X203499315Y-124988892D01*
X203416089Y-125023366D01*
X203416079Y-125023371D01*
X203252219Y-125132859D01*
X203182540Y-125202538D01*
X203112861Y-125272218D01*
X203112858Y-125272221D01*
X201782221Y-126602858D01*
X201782218Y-126602861D01*
X201712538Y-126672540D01*
X201642859Y-126742219D01*
X201533371Y-126906079D01*
X201533364Y-126906092D01*
X201457950Y-127088160D01*
X201457947Y-127088170D01*
X201419500Y-127281456D01*
X201419500Y-132804800D01*
X201399815Y-132871839D01*
X201390506Y-132884365D01*
X201270318Y-133049793D01*
X201214989Y-133092459D01*
X201145375Y-133098438D01*
X201083580Y-133065833D01*
X201069682Y-133049793D01*
X200950109Y-132885214D01*
X200950105Y-132885209D01*
X200799786Y-132734890D01*
X200627820Y-132609951D01*
X200438414Y-132513444D01*
X200438413Y-132513443D01*
X200438412Y-132513443D01*
X200236243Y-132447754D01*
X200236241Y-132447753D01*
X200236240Y-132447753D01*
X200074957Y-132422208D01*
X200026287Y-132414500D01*
X199813713Y-132414500D01*
X199765042Y-132422208D01*
X199603760Y-132447753D01*
X199401585Y-132513444D01*
X199212179Y-132609951D01*
X199040213Y-132734890D01*
X198889894Y-132885209D01*
X198889890Y-132885214D01*
X198770318Y-133049793D01*
X198714989Y-133092459D01*
X198645375Y-133098438D01*
X198583580Y-133065833D01*
X198569682Y-133049793D01*
X198450109Y-132885214D01*
X198450105Y-132885209D01*
X198299786Y-132734890D01*
X198127815Y-132609948D01*
X198127814Y-132609947D01*
X198088205Y-132589765D01*
X198037409Y-132541791D01*
X198020500Y-132479281D01*
X198020500Y-94940945D01*
X198020500Y-94940943D01*
X197979577Y-94788216D01*
X197979573Y-94788209D01*
X197900524Y-94651290D01*
X197900521Y-94651286D01*
X197900520Y-94651284D01*
X197788716Y-94539480D01*
X197788715Y-94539479D01*
X197784385Y-94535149D01*
X197784374Y-94535139D01*
X194980700Y-91731465D01*
X194947215Y-91670142D01*
X194945163Y-91657686D01*
X194935368Y-91570745D01*
X194875789Y-91400478D01*
X194779816Y-91247738D01*
X194652262Y-91120184D01*
X194637620Y-91110984D01*
X194499523Y-91024211D01*
X194329254Y-90964631D01*
X194329249Y-90964630D01*
X194150004Y-90944435D01*
X194149996Y-90944435D01*
X193970750Y-90964630D01*
X193970745Y-90964631D01*
X193800476Y-91024211D01*
X193647737Y-91120184D01*
X193520184Y-91247737D01*
X193520182Y-91247740D01*
X193435723Y-91382154D01*
X193383388Y-91428445D01*
X193314335Y-91439092D01*
X193250486Y-91410717D01*
X193243049Y-91403862D01*
X193219141Y-91379954D01*
X193032734Y-91249432D01*
X193032732Y-91249431D01*
X192974725Y-91222382D01*
X192974132Y-91222105D01*
X192921694Y-91175934D01*
X192902542Y-91108740D01*
X192922758Y-91041859D01*
X192974134Y-90997341D01*
X193032484Y-90970132D01*
X193218820Y-90839657D01*
X193379657Y-90678820D01*
X193510134Y-90492482D01*
X193606265Y-90286326D01*
X193606269Y-90286317D01*
X193658872Y-90090000D01*
X192813012Y-90090000D01*
X192845925Y-90032993D01*
X192880000Y-89905826D01*
X192880000Y-89774174D01*
X192845925Y-89647007D01*
X192813012Y-89590000D01*
X193658872Y-89590000D01*
X193658872Y-89589999D01*
X193606269Y-89393682D01*
X193606265Y-89393673D01*
X193510134Y-89187517D01*
X193379657Y-89001179D01*
X193218820Y-88840342D01*
X193032482Y-88709865D01*
X192974133Y-88682657D01*
X192921694Y-88636484D01*
X192902542Y-88569291D01*
X192922758Y-88502410D01*
X192974129Y-88457895D01*
X193032734Y-88430568D01*
X193219139Y-88300047D01*
X193380047Y-88139139D01*
X193510568Y-87952734D01*
X193606739Y-87746496D01*
X193665635Y-87526692D01*
X193685468Y-87300000D01*
X193665635Y-87073308D01*
X193606739Y-86853504D01*
X193510568Y-86647266D01*
X193380047Y-86460861D01*
X193380045Y-86460858D01*
X193219141Y-86299954D01*
X193032734Y-86169432D01*
X193032728Y-86169429D01*
X192974725Y-86142382D01*
X192922285Y-86096210D01*
X192903133Y-86029017D01*
X192923348Y-85962135D01*
X192974725Y-85917618D01*
X192975319Y-85917341D01*
X193032734Y-85890568D01*
X193219139Y-85760047D01*
X193380047Y-85599139D01*
X193510568Y-85412734D01*
X193606739Y-85206496D01*
X193665635Y-84986692D01*
X193685468Y-84760000D01*
X193684531Y-84749295D01*
X193679709Y-84694174D01*
X193665635Y-84533308D01*
X193606739Y-84313504D01*
X193510568Y-84107266D01*
X193404094Y-83955204D01*
X193380045Y-83920858D01*
X193219143Y-83759956D01*
X193194536Y-83742726D01*
X193150912Y-83688149D01*
X193143719Y-83618650D01*
X193175241Y-83556296D01*
X193235471Y-83520882D01*
X193252404Y-83517861D01*
X193287483Y-83514091D01*
X193422331Y-83463796D01*
X193537546Y-83377546D01*
X193623796Y-83262331D01*
X193674091Y-83127483D01*
X193680500Y-83067873D01*
X193680499Y-81372128D01*
X193674091Y-81312517D01*
X193667628Y-81295190D01*
X193623797Y-81177671D01*
X193623793Y-81177664D01*
X193537547Y-81062455D01*
X193537544Y-81062452D01*
X193422335Y-80976206D01*
X193422328Y-80976202D01*
X193287482Y-80925908D01*
X193287483Y-80925908D01*
X193227883Y-80919501D01*
X193227881Y-80919500D01*
X193227873Y-80919500D01*
X193227864Y-80919500D01*
X191532129Y-80919500D01*
X191532123Y-80919501D01*
X191472516Y-80925908D01*
X191337671Y-80976202D01*
X191337664Y-80976206D01*
X191222455Y-81062452D01*
X191222452Y-81062455D01*
X191136206Y-81177664D01*
X191136202Y-81177671D01*
X191085908Y-81312517D01*
X191083047Y-81339132D01*
X191079501Y-81372123D01*
X191079500Y-81372135D01*
X191079500Y-83067870D01*
X191079501Y-83067876D01*
X191085908Y-83127483D01*
X191136202Y-83262328D01*
X191136206Y-83262335D01*
X191222452Y-83377544D01*
X191222455Y-83377547D01*
X191337664Y-83463793D01*
X191337671Y-83463797D01*
X191365226Y-83474074D01*
X191472517Y-83514091D01*
X191507596Y-83517862D01*
X191572144Y-83544599D01*
X191611993Y-83601991D01*
X191614488Y-83671816D01*
X191578836Y-83731905D01*
X191565464Y-83742725D01*
X191540858Y-83759954D01*
X191379954Y-83920858D01*
X191249432Y-84107265D01*
X191249431Y-84107267D01*
X191153261Y-84313502D01*
X191153258Y-84313511D01*
X191094366Y-84533302D01*
X191094364Y-84533313D01*
X191074532Y-84759998D01*
X191074532Y-84760001D01*
X191094364Y-84986686D01*
X191094366Y-84986697D01*
X191153258Y-85206488D01*
X191153261Y-85206497D01*
X191249431Y-85412732D01*
X191249432Y-85412734D01*
X191379954Y-85599141D01*
X191540858Y-85760045D01*
X191540861Y-85760047D01*
X191727266Y-85890568D01*
X191784681Y-85917341D01*
X191785275Y-85917618D01*
X191837714Y-85963791D01*
X191856866Y-86030984D01*
X191836650Y-86097865D01*
X191785275Y-86142382D01*
X191727267Y-86169431D01*
X191727265Y-86169432D01*
X191540858Y-86299954D01*
X191379954Y-86460858D01*
X191249432Y-86647265D01*
X191249431Y-86647267D01*
X191153261Y-86853502D01*
X191153258Y-86853511D01*
X191094366Y-87073302D01*
X191094364Y-87073313D01*
X191074532Y-87299998D01*
X191074532Y-87300001D01*
X191094364Y-87526686D01*
X191094366Y-87526697D01*
X191153258Y-87746488D01*
X191153261Y-87746497D01*
X191249431Y-87952732D01*
X191249432Y-87952734D01*
X191379954Y-88139141D01*
X191540858Y-88300045D01*
X191540861Y-88300047D01*
X191727266Y-88430568D01*
X191785865Y-88457893D01*
X191838305Y-88504065D01*
X191857457Y-88571258D01*
X191837242Y-88638139D01*
X191785867Y-88682657D01*
X191727515Y-88709867D01*
X191541179Y-88840342D01*
X191380342Y-89001179D01*
X191249865Y-89187517D01*
X191153734Y-89393673D01*
X191153730Y-89393682D01*
X191101127Y-89589999D01*
X191101128Y-89590000D01*
X191946988Y-89590000D01*
X191914075Y-89647007D01*
X191880000Y-89774174D01*
X191880000Y-89905826D01*
X191914075Y-90032993D01*
X191946988Y-90090000D01*
X191101128Y-90090000D01*
X191153730Y-90286317D01*
X191153734Y-90286326D01*
X191249865Y-90492482D01*
X191380342Y-90678820D01*
X191541179Y-90839657D01*
X191727518Y-90970134D01*
X191727520Y-90970135D01*
X191785865Y-90997342D01*
X191838305Y-91043514D01*
X191857457Y-91110707D01*
X191837242Y-91177589D01*
X191785867Y-91222105D01*
X191727268Y-91249431D01*
X191727264Y-91249433D01*
X191540858Y-91379954D01*
X191379954Y-91540858D01*
X191249432Y-91727265D01*
X191249431Y-91727267D01*
X191153261Y-91933502D01*
X191153258Y-91933511D01*
X191094366Y-92153302D01*
X191094364Y-92153313D01*
X191074532Y-92379998D01*
X191074532Y-92380001D01*
X191094364Y-92606686D01*
X191094366Y-92606697D01*
X191153258Y-92826488D01*
X191153261Y-92826497D01*
X191249431Y-93032732D01*
X191249432Y-93032734D01*
X191379954Y-93219141D01*
X191540858Y-93380045D01*
X191540861Y-93380047D01*
X191727266Y-93510568D01*
X191785275Y-93537618D01*
X191837714Y-93583791D01*
X191856866Y-93650984D01*
X191836650Y-93717865D01*
X191785275Y-93762382D01*
X191727267Y-93789431D01*
X191727265Y-93789432D01*
X191540858Y-93919954D01*
X191379954Y-94080858D01*
X191249432Y-94267265D01*
X191249431Y-94267267D01*
X191153261Y-94473502D01*
X191153258Y-94473511D01*
X191094366Y-94693302D01*
X191094364Y-94693313D01*
X191074532Y-94919998D01*
X191074532Y-94920001D01*
X191094364Y-95146686D01*
X191094366Y-95146697D01*
X191153258Y-95366488D01*
X191153261Y-95366497D01*
X191249431Y-95572732D01*
X191249432Y-95572734D01*
X191379954Y-95759141D01*
X191540858Y-95920045D01*
X191540861Y-95920047D01*
X191727266Y-96050568D01*
X191785275Y-96077618D01*
X191837714Y-96123791D01*
X191856866Y-96190984D01*
X191836650Y-96257865D01*
X191785275Y-96302382D01*
X191727267Y-96329431D01*
X191727265Y-96329432D01*
X191540858Y-96459954D01*
X191379954Y-96620858D01*
X191249432Y-96807265D01*
X191249431Y-96807267D01*
X191153261Y-97013502D01*
X191153258Y-97013511D01*
X191094366Y-97233302D01*
X191094364Y-97233313D01*
X191074532Y-97459998D01*
X191074532Y-97460001D01*
X191094364Y-97686686D01*
X191094366Y-97686697D01*
X191153258Y-97906488D01*
X191153261Y-97906497D01*
X191249431Y-98112732D01*
X191249432Y-98112734D01*
X191379954Y-98299141D01*
X191540858Y-98460045D01*
X191587693Y-98492839D01*
X191727266Y-98590568D01*
X191785275Y-98617618D01*
X191837714Y-98663791D01*
X191856866Y-98730984D01*
X191836650Y-98797865D01*
X191785275Y-98842382D01*
X191727267Y-98869431D01*
X191727265Y-98869432D01*
X191540858Y-98999954D01*
X191379954Y-99160858D01*
X191249432Y-99347265D01*
X191249431Y-99347267D01*
X191153261Y-99553502D01*
X191153258Y-99553511D01*
X191094366Y-99773302D01*
X191094364Y-99773313D01*
X191074532Y-99999998D01*
X191074532Y-100000001D01*
X191094364Y-100226686D01*
X191094366Y-100226697D01*
X191153258Y-100446488D01*
X191153261Y-100446497D01*
X191249431Y-100652732D01*
X191249432Y-100652734D01*
X191379954Y-100839141D01*
X191540858Y-101000045D01*
X191540861Y-101000047D01*
X191727266Y-101130568D01*
X191773982Y-101152352D01*
X191785275Y-101157618D01*
X191837714Y-101203791D01*
X191856866Y-101270984D01*
X191836650Y-101337865D01*
X191785275Y-101382382D01*
X191727267Y-101409431D01*
X191727265Y-101409432D01*
X191540858Y-101539954D01*
X191379954Y-101700858D01*
X191249432Y-101887265D01*
X191249431Y-101887267D01*
X191153261Y-102093502D01*
X191153258Y-102093511D01*
X191094366Y-102313302D01*
X191094364Y-102313313D01*
X191074532Y-102539998D01*
X191074532Y-102540001D01*
X191094364Y-102766686D01*
X191094366Y-102766697D01*
X191153258Y-102986488D01*
X191153261Y-102986497D01*
X191249431Y-103192732D01*
X191249432Y-103192734D01*
X191379954Y-103379141D01*
X191540858Y-103540045D01*
X191540861Y-103540047D01*
X191727266Y-103670568D01*
X191785275Y-103697618D01*
X191837714Y-103743791D01*
X191856866Y-103810984D01*
X191836650Y-103877865D01*
X191785275Y-103922381D01*
X191768946Y-103929996D01*
X191727267Y-103949431D01*
X191727265Y-103949432D01*
X191540858Y-104079954D01*
X191379954Y-104240858D01*
X191249432Y-104427265D01*
X191249431Y-104427267D01*
X191153261Y-104633502D01*
X191153258Y-104633511D01*
X191094366Y-104853302D01*
X191094364Y-104853313D01*
X191074532Y-105079998D01*
X191074532Y-105080001D01*
X191094364Y-105306686D01*
X191094366Y-105306697D01*
X191153258Y-105526488D01*
X191153261Y-105526497D01*
X191249431Y-105732732D01*
X191249432Y-105732734D01*
X191379954Y-105919141D01*
X191540858Y-106080045D01*
X191540861Y-106080047D01*
X191727266Y-106210568D01*
X191785275Y-106237618D01*
X191837714Y-106283791D01*
X191856866Y-106350984D01*
X191836650Y-106417865D01*
X191785275Y-106462382D01*
X191727267Y-106489431D01*
X191727265Y-106489432D01*
X191540858Y-106619954D01*
X191379954Y-106780858D01*
X191249432Y-106967265D01*
X191249431Y-106967267D01*
X191153261Y-107173502D01*
X191153258Y-107173511D01*
X191094366Y-107393302D01*
X191094364Y-107393313D01*
X191074532Y-107619998D01*
X191074532Y-107620001D01*
X191094364Y-107846686D01*
X191094366Y-107846697D01*
X191153258Y-108066488D01*
X191153261Y-108066497D01*
X191249431Y-108272732D01*
X191249432Y-108272734D01*
X191379954Y-108459141D01*
X191540858Y-108620045D01*
X191540861Y-108620047D01*
X191727266Y-108750568D01*
X191785275Y-108777618D01*
X191837714Y-108823791D01*
X191856866Y-108890984D01*
X191836650Y-108957865D01*
X191785275Y-109002382D01*
X191727267Y-109029431D01*
X191727265Y-109029432D01*
X191540858Y-109159954D01*
X191379954Y-109320858D01*
X191249432Y-109507265D01*
X191249431Y-109507267D01*
X191153261Y-109713502D01*
X191153258Y-109713511D01*
X191094366Y-109933302D01*
X191094364Y-109933313D01*
X191074532Y-110159998D01*
X191074532Y-110160001D01*
X191094364Y-110386686D01*
X191094366Y-110386697D01*
X191153258Y-110606488D01*
X191153261Y-110606497D01*
X191249431Y-110812732D01*
X191249432Y-110812734D01*
X191379954Y-110999141D01*
X191540858Y-111160045D01*
X191540861Y-111160047D01*
X191727266Y-111290568D01*
X191785275Y-111317618D01*
X191837714Y-111363791D01*
X191856866Y-111430984D01*
X191836650Y-111497865D01*
X191785275Y-111542382D01*
X191727267Y-111569431D01*
X191727265Y-111569432D01*
X191540858Y-111699954D01*
X191379954Y-111860858D01*
X191249432Y-112047265D01*
X191249431Y-112047267D01*
X191153261Y-112253502D01*
X191153258Y-112253511D01*
X191094366Y-112473302D01*
X191094364Y-112473313D01*
X191074532Y-112699998D01*
X191074532Y-112700001D01*
X191094364Y-112926686D01*
X191094366Y-112926697D01*
X191153258Y-113146488D01*
X191153261Y-113146497D01*
X191249431Y-113352732D01*
X191249432Y-113352734D01*
X191379954Y-113539141D01*
X191540858Y-113700045D01*
X191540861Y-113700047D01*
X191727266Y-113830568D01*
X191785275Y-113857618D01*
X191837714Y-113903791D01*
X191856866Y-113970984D01*
X191836650Y-114037865D01*
X191785275Y-114082382D01*
X191727267Y-114109431D01*
X191727265Y-114109432D01*
X191540858Y-114239954D01*
X191379954Y-114400858D01*
X191249432Y-114587265D01*
X191249431Y-114587267D01*
X191153261Y-114793502D01*
X191153258Y-114793511D01*
X191094366Y-115013302D01*
X191094364Y-115013313D01*
X191074532Y-115239998D01*
X191074532Y-115240001D01*
X191094364Y-115466686D01*
X191094366Y-115466697D01*
X191153258Y-115686488D01*
X191153261Y-115686497D01*
X191249431Y-115892732D01*
X191249432Y-115892734D01*
X191379954Y-116079141D01*
X191540858Y-116240045D01*
X191540861Y-116240047D01*
X191727266Y-116370568D01*
X191785275Y-116397618D01*
X191837714Y-116443791D01*
X191856866Y-116510984D01*
X191836650Y-116577865D01*
X191785275Y-116622382D01*
X191727267Y-116649431D01*
X191727265Y-116649432D01*
X191540858Y-116779954D01*
X191379954Y-116940858D01*
X191249432Y-117127265D01*
X191249431Y-117127267D01*
X191153261Y-117333502D01*
X191153258Y-117333511D01*
X191094366Y-117553302D01*
X191094364Y-117553313D01*
X191074532Y-117779998D01*
X191074532Y-117780001D01*
X191094364Y-118006686D01*
X191094366Y-118006697D01*
X191153258Y-118226488D01*
X191153261Y-118226497D01*
X191249431Y-118432732D01*
X191249432Y-118432734D01*
X191379954Y-118619141D01*
X191540858Y-118780045D01*
X191540861Y-118780047D01*
X191727266Y-118910568D01*
X191933504Y-119006739D01*
X192153308Y-119065635D01*
X192315230Y-119079801D01*
X192379998Y-119085468D01*
X192380000Y-119085468D01*
X192380002Y-119085468D01*
X192436673Y-119080509D01*
X192606692Y-119065635D01*
X192826496Y-119006739D01*
X193032734Y-118910568D01*
X193219139Y-118780047D01*
X193380047Y-118619139D01*
X193510568Y-118432734D01*
X193606739Y-118226496D01*
X193665635Y-118006692D01*
X193685468Y-117780000D01*
X193665635Y-117553308D01*
X193615461Y-117366055D01*
X193606741Y-117333511D01*
X193606738Y-117333502D01*
X193594620Y-117307515D01*
X193510568Y-117127266D01*
X193380047Y-116940861D01*
X193380045Y-116940858D01*
X193219141Y-116779954D01*
X193032734Y-116649432D01*
X193032728Y-116649429D01*
X192974725Y-116622382D01*
X192922285Y-116576210D01*
X192903133Y-116509017D01*
X192923348Y-116442135D01*
X192974725Y-116397618D01*
X193032734Y-116370568D01*
X193219139Y-116240047D01*
X193380047Y-116079139D01*
X193510568Y-115892734D01*
X193606739Y-115686496D01*
X193665635Y-115466692D01*
X193685468Y-115240000D01*
X193665635Y-115013308D01*
X193606739Y-114793504D01*
X193510568Y-114587266D01*
X193380047Y-114400861D01*
X193380045Y-114400858D01*
X193219141Y-114239954D01*
X193032734Y-114109432D01*
X193032728Y-114109429D01*
X192974725Y-114082382D01*
X192922285Y-114036210D01*
X192903133Y-113969017D01*
X192923348Y-113902135D01*
X192974725Y-113857618D01*
X193032734Y-113830568D01*
X193219139Y-113700047D01*
X193380047Y-113539139D01*
X193510568Y-113352734D01*
X193606739Y-113146496D01*
X193665635Y-112926692D01*
X193685468Y-112700000D01*
X193665635Y-112473308D01*
X193606739Y-112253504D01*
X193510568Y-112047266D01*
X193380047Y-111860861D01*
X193380045Y-111860858D01*
X193219141Y-111699954D01*
X193032734Y-111569432D01*
X193032728Y-111569429D01*
X192974725Y-111542382D01*
X192922285Y-111496210D01*
X192903133Y-111429017D01*
X192923348Y-111362135D01*
X192974725Y-111317618D01*
X193032734Y-111290568D01*
X193219139Y-111160047D01*
X193380047Y-110999139D01*
X193510568Y-110812734D01*
X193606739Y-110606496D01*
X193665635Y-110386692D01*
X193684969Y-110165699D01*
X193685468Y-110160001D01*
X193685468Y-110159998D01*
X193665635Y-109933313D01*
X193665635Y-109933308D01*
X193606739Y-109713504D01*
X193510568Y-109507266D01*
X193380047Y-109320861D01*
X193380045Y-109320858D01*
X193219141Y-109159954D01*
X193032734Y-109029432D01*
X193032728Y-109029429D01*
X192974725Y-109002382D01*
X192922285Y-108956210D01*
X192903133Y-108889017D01*
X192923348Y-108822135D01*
X192974725Y-108777618D01*
X193032734Y-108750568D01*
X193219139Y-108620047D01*
X193380047Y-108459139D01*
X193510568Y-108272734D01*
X193606739Y-108066496D01*
X193665635Y-107846692D01*
X193685468Y-107620000D01*
X193665635Y-107393308D01*
X193606739Y-107173504D01*
X193510568Y-106967266D01*
X193380047Y-106780861D01*
X193380045Y-106780858D01*
X193219141Y-106619954D01*
X193032734Y-106489432D01*
X193032728Y-106489429D01*
X192974725Y-106462382D01*
X192922285Y-106416210D01*
X192903133Y-106349017D01*
X192923348Y-106282135D01*
X192974725Y-106237618D01*
X193032734Y-106210568D01*
X193219139Y-106080047D01*
X193380047Y-105919139D01*
X193510568Y-105732734D01*
X193606739Y-105526496D01*
X193665635Y-105306692D01*
X193685468Y-105080000D01*
X193665635Y-104853308D01*
X193606739Y-104633504D01*
X193510568Y-104427266D01*
X193380047Y-104240861D01*
X193380045Y-104240858D01*
X193219141Y-104079954D01*
X193032734Y-103949432D01*
X193032728Y-103949429D01*
X193005038Y-103936517D01*
X192974724Y-103922381D01*
X192922285Y-103876210D01*
X192903133Y-103809017D01*
X192923348Y-103742135D01*
X192974725Y-103697618D01*
X193032734Y-103670568D01*
X193219139Y-103540047D01*
X193380047Y-103379139D01*
X193510568Y-103192734D01*
X193606739Y-102986496D01*
X193665635Y-102766692D01*
X193684564Y-102550333D01*
X193685468Y-102540001D01*
X193685468Y-102539998D01*
X193665635Y-102313313D01*
X193665635Y-102313308D01*
X193606739Y-102093504D01*
X193510568Y-101887266D01*
X193380047Y-101700861D01*
X193380045Y-101700858D01*
X193219141Y-101539954D01*
X193032734Y-101409432D01*
X193032728Y-101409429D01*
X192974725Y-101382382D01*
X192922285Y-101336210D01*
X192903133Y-101269017D01*
X192923348Y-101202135D01*
X192974725Y-101157618D01*
X192986018Y-101152352D01*
X193032734Y-101130568D01*
X193219139Y-101000047D01*
X193380047Y-100839139D01*
X193510568Y-100652734D01*
X193606739Y-100446496D01*
X193665635Y-100226692D01*
X193685468Y-100000000D01*
X193685467Y-99999994D01*
X193670536Y-99829328D01*
X193665635Y-99773308D01*
X193606739Y-99553504D01*
X193510568Y-99347266D01*
X193409108Y-99202365D01*
X193380045Y-99160858D01*
X193219141Y-98999954D01*
X193032734Y-98869432D01*
X193032728Y-98869429D01*
X193005038Y-98856517D01*
X192974724Y-98842381D01*
X192922285Y-98796210D01*
X192903133Y-98729017D01*
X192923348Y-98662135D01*
X192974725Y-98617618D01*
X193032734Y-98590568D01*
X193219139Y-98460047D01*
X193380047Y-98299139D01*
X193510568Y-98112734D01*
X193606739Y-97906496D01*
X193665635Y-97686692D01*
X193685233Y-97462684D01*
X193685468Y-97460001D01*
X193685468Y-97459998D01*
X193675332Y-97344150D01*
X193665635Y-97233308D01*
X193618788Y-97058473D01*
X193606741Y-97013511D01*
X193606738Y-97013502D01*
X193569716Y-96934108D01*
X193510568Y-96807266D01*
X193380047Y-96620861D01*
X193380045Y-96620858D01*
X193219141Y-96459954D01*
X193032734Y-96329432D01*
X193032728Y-96329429D01*
X192974725Y-96302382D01*
X192922285Y-96256210D01*
X192903133Y-96189017D01*
X192923348Y-96122135D01*
X192974725Y-96077618D01*
X193032734Y-96050568D01*
X193219139Y-95920047D01*
X193380047Y-95759139D01*
X193510568Y-95572734D01*
X193606739Y-95366496D01*
X193665635Y-95146692D01*
X193685468Y-94920000D01*
X193665635Y-94693308D01*
X193606739Y-94473504D01*
X193510568Y-94267266D01*
X193380047Y-94080861D01*
X193380045Y-94080858D01*
X193219141Y-93919954D01*
X193032734Y-93789432D01*
X193032728Y-93789429D01*
X192974725Y-93762382D01*
X192922285Y-93716210D01*
X192903133Y-93649017D01*
X192923348Y-93582135D01*
X192974725Y-93537618D01*
X193032734Y-93510568D01*
X193219139Y-93380047D01*
X193380047Y-93219139D01*
X193510568Y-93032734D01*
X193606739Y-92826496D01*
X193665635Y-92606692D01*
X193666848Y-92592821D01*
X193692298Y-92527754D01*
X193748888Y-92486774D01*
X193818650Y-92482893D01*
X193831330Y-92486585D01*
X193912498Y-92514986D01*
X193970745Y-92535368D01*
X194057669Y-92545161D01*
X194122080Y-92572226D01*
X194131465Y-92580700D01*
X196783181Y-95232416D01*
X196816666Y-95293739D01*
X196819500Y-95320097D01*
X196819500Y-132479281D01*
X196799815Y-132546320D01*
X196751795Y-132589765D01*
X196712185Y-132609947D01*
X196712184Y-132609948D01*
X196540215Y-132734889D01*
X196401398Y-132873706D01*
X196340075Y-132907190D01*
X196270383Y-132902206D01*
X196214450Y-132860334D01*
X196208178Y-132851120D01*
X196149640Y-132756215D01*
X196112712Y-132696344D01*
X195988656Y-132572288D01*
X195839334Y-132480186D01*
X195672797Y-132425001D01*
X195672795Y-132425000D01*
X195570010Y-132414500D01*
X194269998Y-132414500D01*
X194269981Y-132414501D01*
X194167203Y-132425000D01*
X194167200Y-132425001D01*
X194000668Y-132480185D01*
X194000663Y-132480187D01*
X193851342Y-132572289D01*
X193727289Y-132696342D01*
X193635187Y-132845663D01*
X193635185Y-132845668D01*
X193631893Y-132855604D01*
X193580001Y-133012203D01*
X193580001Y-133012204D01*
X193580000Y-133012204D01*
X193569500Y-133114983D01*
X193569500Y-134665001D01*
X193569501Y-134665018D01*
X193580000Y-134767796D01*
X193580001Y-134767799D01*
X193625894Y-134906294D01*
X193635186Y-134934334D01*
X193727288Y-135083656D01*
X193851344Y-135207712D01*
X194000666Y-135299814D01*
X194167203Y-135354999D01*
X194269991Y-135365500D01*
X195570008Y-135365499D01*
X195672797Y-135354999D01*
X195839334Y-135299814D01*
X195988656Y-135207712D01*
X196112712Y-135083656D01*
X196204814Y-134934334D01*
X196204814Y-134934331D01*
X196208178Y-134928879D01*
X196260126Y-134882154D01*
X196329088Y-134870931D01*
X196393170Y-134898774D01*
X196401398Y-134906294D01*
X196540213Y-135045109D01*
X196712179Y-135170048D01*
X196712181Y-135170049D01*
X196712184Y-135170051D01*
X196901588Y-135266557D01*
X197103757Y-135332246D01*
X197313713Y-135365500D01*
X197313714Y-135365500D01*
X197526286Y-135365500D01*
X197526287Y-135365500D01*
X197736243Y-135332246D01*
X197938412Y-135266557D01*
X198127816Y-135170051D01*
X198175811Y-135135181D01*
X198299786Y-135045109D01*
X198299788Y-135045106D01*
X198299792Y-135045104D01*
X198450104Y-134894792D01*
X198569683Y-134730204D01*
X198625011Y-134687540D01*
X198694624Y-134681561D01*
X198756420Y-134714166D01*
X198770313Y-134730199D01*
X198889896Y-134894792D01*
X199040208Y-135045104D01*
X199118384Y-135101902D01*
X199161051Y-135157231D01*
X199169500Y-135202220D01*
X199169500Y-138817770D01*
X199149815Y-138884809D01*
X199133181Y-138905451D01*
X195928874Y-142109758D01*
X195867551Y-142143243D01*
X195841193Y-142146077D01*
X189258807Y-142146077D01*
X189191768Y-142126392D01*
X189171126Y-142109758D01*
X187478421Y-140417052D01*
X187478414Y-140417046D01*
X187404729Y-140367812D01*
X187404729Y-140367813D01*
X187355491Y-140334913D01*
X187218917Y-140278343D01*
X187218907Y-140278340D01*
X187073920Y-140249500D01*
X187073918Y-140249500D01*
X186362229Y-140249500D01*
X186295190Y-140229815D01*
X186274548Y-140213181D01*
X183478421Y-137417052D01*
X183478414Y-137417046D01*
X183404729Y-137367812D01*
X183404729Y-137367813D01*
X183355491Y-137334913D01*
X183218917Y-137278343D01*
X183218907Y-137278340D01*
X183073920Y-137249500D01*
X183073918Y-137249500D01*
X178362229Y-137249500D01*
X178295190Y-137229815D01*
X178274548Y-137213181D01*
X174357857Y-133296488D01*
X174357834Y-133296467D01*
X173786819Y-132725451D01*
X173753334Y-132664128D01*
X173750500Y-132637770D01*
X173750500Y-131110363D01*
X173770185Y-131043324D01*
X173822989Y-130997569D01*
X173892147Y-130987625D01*
X173953725Y-131014973D01*
X174604188Y-131555222D01*
X175509785Y-132261300D01*
X175590251Y-132324038D01*
X176599574Y-133062054D01*
X176919873Y-133281412D01*
X177631194Y-133768563D01*
X177993988Y-134000907D01*
X178684116Y-134442887D01*
X179757383Y-135084410D01*
X179912417Y-135170698D01*
X180849915Y-135692486D01*
X180849926Y-135692492D01*
X180849932Y-135692495D01*
X181960689Y-136266550D01*
X181960702Y-136266556D01*
X183088675Y-136806065D01*
X184232764Y-137310503D01*
X184232772Y-137310506D01*
X184232776Y-137310508D01*
X184771941Y-137528632D01*
X184787429Y-137536189D01*
X184806814Y-137547382D01*
X184833440Y-137554516D01*
X184847842Y-137559339D01*
X184857171Y-137563112D01*
X184873396Y-137569676D01*
X184895594Y-137572410D01*
X184912513Y-137575703D01*
X184934108Y-137581490D01*
X184961669Y-137581490D01*
X184976831Y-137582420D01*
X185004191Y-137585792D01*
X185021640Y-137583347D01*
X185026331Y-137582690D01*
X185043537Y-137581490D01*
X185065893Y-137581490D01*
X185087472Y-137575707D01*
X185092512Y-137574356D01*
X185107399Y-137571330D01*
X185134701Y-137567506D01*
X185155279Y-137558780D01*
X185171587Y-137553168D01*
X185193186Y-137547382D01*
X185217064Y-137533595D01*
X185230658Y-137526822D01*
X185256026Y-137516067D01*
X185256026Y-137516066D01*
X185256030Y-137516065D01*
X185273650Y-137502309D01*
X185287951Y-137492668D01*
X185307314Y-137481490D01*
X185326810Y-137461992D01*
X185338173Y-137451943D01*
X185359912Y-137434975D01*
X185373382Y-137417114D01*
X185384687Y-137404115D01*
X185400500Y-137388304D01*
X185414283Y-137364430D01*
X185422662Y-137351775D01*
X185439267Y-137329761D01*
X185447655Y-137309023D01*
X185455213Y-137293537D01*
X185466392Y-137274176D01*
X185473525Y-137247551D01*
X185478350Y-137233143D01*
X185479696Y-137229815D01*
X185488686Y-137207594D01*
X185491420Y-137185396D01*
X185494713Y-137168476D01*
X185500500Y-137146882D01*
X185500500Y-137119321D01*
X185501431Y-137104156D01*
X185504802Y-137076799D01*
X185501699Y-137054650D01*
X185500500Y-137037447D01*
X185500500Y-102934110D01*
X185500500Y-102934108D01*
X185466392Y-102806814D01*
X185400500Y-102692686D01*
X185307314Y-102599500D01*
X185250250Y-102566554D01*
X185193187Y-102533608D01*
X185089594Y-102505851D01*
X185065892Y-102499500D01*
X185065891Y-102499500D01*
X160171137Y-102499500D01*
X160148121Y-102497345D01*
X160140832Y-102495968D01*
X160140830Y-102495968D01*
X160108918Y-102498367D01*
X160098505Y-102499151D01*
X160089207Y-102499500D01*
X160046768Y-102499500D01*
X160039591Y-102501422D01*
X160016820Y-102505293D01*
X160009422Y-102505849D01*
X160009409Y-102505852D01*
X159969350Y-102519881D01*
X159960464Y-102522624D01*
X159919472Y-102533608D01*
X159919470Y-102533609D01*
X159913043Y-102537320D01*
X159892050Y-102546954D01*
X159885049Y-102549406D01*
X159885036Y-102549413D01*
X159849990Y-102573320D01*
X159842117Y-102578269D01*
X159805346Y-102599500D01*
X159805343Y-102599502D01*
X159800093Y-102604752D01*
X159782309Y-102619491D01*
X159776177Y-102623674D01*
X159748502Y-102655850D01*
X159742178Y-102662668D01*
X159712161Y-102692685D01*
X159712153Y-102692696D01*
X159708445Y-102699119D01*
X159695082Y-102717959D01*
X159690244Y-102723584D01*
X159690239Y-102723592D01*
X159671842Y-102761819D01*
X159667497Y-102770043D01*
X159646270Y-102806810D01*
X159646267Y-102806817D01*
X159644344Y-102813992D01*
X159636315Y-102835643D01*
X159633093Y-102842339D01*
X159633092Y-102842342D01*
X159625215Y-102884036D01*
X159623146Y-102893107D01*
X159612161Y-102934102D01*
X159612161Y-102941524D01*
X159610006Y-102964540D01*
X159608629Y-102971825D01*
X159608629Y-102971831D01*
X159611812Y-103014151D01*
X159612161Y-103023450D01*
X159612161Y-103065897D01*
X159614083Y-103073067D01*
X159617959Y-103095858D01*
X159660479Y-103660934D01*
X159705391Y-104083277D01*
X159787275Y-104853308D01*
X159792700Y-104904319D01*
X159851729Y-105333090D01*
X159963228Y-106142979D01*
X160171908Y-107375801D01*
X160418541Y-108601595D01*
X160485664Y-108889017D01*
X160702890Y-109819191D01*
X160854037Y-110386697D01*
X161024687Y-111027433D01*
X161172774Y-111521584D01*
X161383620Y-112225160D01*
X161779360Y-113411266D01*
X162211505Y-114584546D01*
X162342158Y-114908109D01*
X162657176Y-115688256D01*
X162679670Y-115743961D01*
X163183394Y-116888366D01*
X163722194Y-118016663D01*
X163791520Y-118151010D01*
X164295575Y-119127817D01*
X164704544Y-119863691D01*
X164902980Y-120220746D01*
X165543811Y-121294374D01*
X166217486Y-122347732D01*
X166923346Y-123379785D01*
X167284897Y-123874896D01*
X167308535Y-123940646D01*
X167292875Y-124008738D01*
X167242887Y-124057554D01*
X167174442Y-124071594D01*
X167109272Y-124046403D01*
X167097074Y-124035705D01*
X162474097Y-119412728D01*
X162474074Y-119412707D01*
X160786819Y-117725451D01*
X160753334Y-117664128D01*
X160750500Y-117637770D01*
X160750500Y-111926079D01*
X160721659Y-111781092D01*
X160721658Y-111781091D01*
X160721658Y-111781087D01*
X160688052Y-111699954D01*
X160665087Y-111644511D01*
X160665080Y-111644498D01*
X160582952Y-111521585D01*
X160534628Y-111473261D01*
X160478416Y-111417049D01*
X157890242Y-108828874D01*
X157856757Y-108767551D01*
X157853923Y-108741193D01*
X157853923Y-100000000D01*
X162909076Y-100000000D01*
X162928550Y-100284708D01*
X162986613Y-100564127D01*
X162986614Y-100564130D01*
X163082179Y-100833022D01*
X163082178Y-100833022D01*
X163153827Y-100971297D01*
X163213474Y-101086411D01*
X163378047Y-101319557D01*
X163378051Y-101319561D01*
X163378051Y-101319562D01*
X163572836Y-101528125D01*
X163625269Y-101570782D01*
X163794205Y-101708222D01*
X163794207Y-101708223D01*
X163794208Y-101708224D01*
X164038040Y-101856502D01*
X164038045Y-101856504D01*
X164168915Y-101913348D01*
X164299792Y-101970196D01*
X164574589Y-102047190D01*
X164823144Y-102081354D01*
X164857309Y-102086050D01*
X164857310Y-102086050D01*
X165142691Y-102086050D01*
X165173171Y-102081860D01*
X165425411Y-102047190D01*
X165700208Y-101970196D01*
X165961961Y-101856501D01*
X166205795Y-101708222D01*
X166427167Y-101528122D01*
X166621953Y-101319557D01*
X166786526Y-101086411D01*
X166917819Y-100833026D01*
X167013387Y-100564125D01*
X167071449Y-100284714D01*
X167090924Y-100000000D01*
X167071449Y-99715286D01*
X167013387Y-99435875D01*
X166917820Y-99166977D01*
X166917821Y-99166977D01*
X166846173Y-99028703D01*
X166786526Y-98913589D01*
X166621953Y-98680443D01*
X166621948Y-98680437D01*
X166427163Y-98471874D01*
X166244360Y-98323153D01*
X166205795Y-98291778D01*
X166205793Y-98291777D01*
X166205791Y-98291775D01*
X165961959Y-98143497D01*
X165961954Y-98143495D01*
X165700213Y-98029806D01*
X165700211Y-98029805D01*
X165700208Y-98029804D01*
X165571619Y-97993775D01*
X165425417Y-97952811D01*
X165425412Y-97952810D01*
X165425411Y-97952810D01*
X165284050Y-97933380D01*
X165142691Y-97913950D01*
X165142690Y-97913950D01*
X164857310Y-97913950D01*
X164857309Y-97913950D01*
X164574589Y-97952810D01*
X164574582Y-97952811D01*
X164368236Y-98010626D01*
X164299792Y-98029804D01*
X164299789Y-98029804D01*
X164299786Y-98029806D01*
X164299785Y-98029806D01*
X164038045Y-98143495D01*
X164038040Y-98143497D01*
X163794208Y-98291775D01*
X163572836Y-98471874D01*
X163378051Y-98680437D01*
X163378051Y-98680438D01*
X163378048Y-98680440D01*
X163378047Y-98680443D01*
X163343760Y-98729017D01*
X163213474Y-98913588D01*
X163082179Y-99166977D01*
X162986614Y-99435869D01*
X162986613Y-99435872D01*
X162928550Y-99715291D01*
X162909076Y-100000000D01*
X157853923Y-100000000D01*
X157853923Y-90362230D01*
X157873608Y-90295191D01*
X157890242Y-90274549D01*
X159662656Y-88502135D01*
X161509496Y-86655294D01*
X161570817Y-86621811D01*
X161640509Y-86626795D01*
X161696442Y-86668667D01*
X161720859Y-86734131D01*
X161714801Y-86782222D01*
X161383618Y-87774839D01*
X161024685Y-88972566D01*
X160702888Y-90180807D01*
X160485891Y-91110000D01*
X160418539Y-91398404D01*
X160171906Y-92624198D01*
X159974942Y-93787805D01*
X159963224Y-93857033D01*
X159816884Y-94920000D01*
X159792696Y-95095696D01*
X159774295Y-95268735D01*
X159660477Y-96339065D01*
X159617957Y-96904140D01*
X159614083Y-96926924D01*
X159612160Y-96934101D01*
X159612159Y-96934110D01*
X159612159Y-96976548D01*
X159611810Y-96985846D01*
X159608627Y-97028168D01*
X159608627Y-97028171D01*
X159610003Y-97035451D01*
X159612159Y-97058473D01*
X159612159Y-97065892D01*
X159618405Y-97089203D01*
X159623145Y-97106895D01*
X159625213Y-97115964D01*
X159633090Y-97157658D01*
X159633092Y-97157662D01*
X159636309Y-97164348D01*
X159644345Y-97186015D01*
X159646267Y-97193186D01*
X159666772Y-97228702D01*
X159667489Y-97229943D01*
X159671829Y-97238157D01*
X159690239Y-97276411D01*
X159690241Y-97276413D01*
X159695072Y-97282030D01*
X159708446Y-97300884D01*
X159712159Y-97307314D01*
X159712161Y-97307317D01*
X159742171Y-97337326D01*
X159748501Y-97344150D01*
X159776173Y-97376323D01*
X159782299Y-97380502D01*
X159800099Y-97395254D01*
X159805345Y-97400500D01*
X159825595Y-97412191D01*
X159842108Y-97421726D01*
X159849983Y-97426675D01*
X159885038Y-97450589D01*
X159885041Y-97450590D01*
X159885043Y-97450591D01*
X159892036Y-97453040D01*
X159913045Y-97462681D01*
X159919473Y-97466392D01*
X159960476Y-97477378D01*
X159969354Y-97480118D01*
X160009415Y-97494149D01*
X160016816Y-97494705D01*
X160039600Y-97498579D01*
X160046767Y-97500500D01*
X160089205Y-97500500D01*
X160098503Y-97500849D01*
X160100814Y-97501022D01*
X160140828Y-97504032D01*
X160140833Y-97504031D01*
X160148119Y-97502655D01*
X160171135Y-97500500D01*
X185065890Y-97500500D01*
X185065892Y-97500500D01*
X185193186Y-97466392D01*
X185307314Y-97400500D01*
X185400500Y-97307314D01*
X185466392Y-97193186D01*
X185500500Y-97065892D01*
X185500500Y-62962544D01*
X185501700Y-62945337D01*
X185504801Y-62923203D01*
X185504802Y-62923199D01*
X185501431Y-62895839D01*
X185500500Y-62880675D01*
X185500500Y-62853117D01*
X185500499Y-62853114D01*
X185494713Y-62831521D01*
X185491420Y-62814598D01*
X185488686Y-62792404D01*
X185478349Y-62766851D01*
X185473522Y-62752435D01*
X185466393Y-62725827D01*
X185466392Y-62725822D01*
X185455210Y-62706455D01*
X185447652Y-62690967D01*
X185439267Y-62670237D01*
X185432109Y-62660747D01*
X185422666Y-62648226D01*
X185414278Y-62635559D01*
X185400500Y-62611694D01*
X185384692Y-62595886D01*
X185373381Y-62582881D01*
X185359912Y-62565023D01*
X185359908Y-62565020D01*
X185359907Y-62565018D01*
X185338180Y-62548058D01*
X185326800Y-62537994D01*
X185307315Y-62518509D01*
X185307314Y-62518508D01*
X185287941Y-62507323D01*
X185273650Y-62497688D01*
X185256030Y-62483933D01*
X185230656Y-62473174D01*
X185217064Y-62466401D01*
X185193190Y-62452618D01*
X185193181Y-62452614D01*
X185171587Y-62446828D01*
X185155280Y-62441217D01*
X185134703Y-62432493D01*
X185134704Y-62432493D01*
X185134701Y-62432492D01*
X185134699Y-62432491D01*
X185134697Y-62432491D01*
X185122486Y-62430780D01*
X185107396Y-62428666D01*
X185092518Y-62425642D01*
X185065892Y-62418508D01*
X185065891Y-62418508D01*
X185043537Y-62418508D01*
X185026331Y-62417308D01*
X185004196Y-62414206D01*
X185004187Y-62414206D01*
X184983256Y-62416785D01*
X184976831Y-62417577D01*
X184961669Y-62418508D01*
X184934105Y-62418508D01*
X184912515Y-62424293D01*
X184895595Y-62427586D01*
X184873396Y-62430322D01*
X184847837Y-62440660D01*
X184833442Y-62445480D01*
X184806812Y-62452615D01*
X184787428Y-62463807D01*
X184771936Y-62471367D01*
X184232776Y-62689489D01*
X183088675Y-63193932D01*
X181960689Y-63733447D01*
X180849932Y-64307502D01*
X179757383Y-64915587D01*
X178684116Y-65557110D01*
X177631189Y-66231438D01*
X176599574Y-66937943D01*
X175590250Y-67675959D01*
X174940580Y-68182496D01*
X174604187Y-68444776D01*
X174240200Y-68747089D01*
X173642331Y-69243655D01*
X172705561Y-70071867D01*
X171794856Y-70928546D01*
X170910964Y-71812990D01*
X170054838Y-72724244D01*
X169227226Y-73661513D01*
X168428946Y-74623868D01*
X167660743Y-75610413D01*
X166923345Y-76620212D01*
X166217484Y-77652266D01*
X165543809Y-78705623D01*
X164902978Y-79779252D01*
X164449409Y-80595379D01*
X164295573Y-80872182D01*
X164295572Y-80872184D01*
X163722192Y-81983335D01*
X163183392Y-83111632D01*
X162679668Y-84256037D01*
X162211502Y-85415452D01*
X161990858Y-86014508D01*
X161949216Y-86070613D01*
X161883853Y-86095298D01*
X161815519Y-86080726D01*
X161765912Y-86031523D01*
X161750500Y-85971651D01*
X161750500Y-81362229D01*
X161770185Y-81295190D01*
X161786819Y-81274548D01*
X165582948Y-77478419D01*
X165582951Y-77478416D01*
X165665084Y-77355495D01*
X165721658Y-77218913D01*
X165750500Y-77073918D01*
X165750500Y-76926083D01*
X165750500Y-73362228D01*
X165770185Y-73295189D01*
X165786815Y-73274551D01*
X166584445Y-72476920D01*
X166584450Y-72476917D01*
X166594653Y-72466713D01*
X166594655Y-72466713D01*
X168274548Y-70786818D01*
X168335871Y-70753334D01*
X168362229Y-70750500D01*
X171073920Y-70750500D01*
X171171462Y-70731096D01*
X171218913Y-70721658D01*
X171355495Y-70665084D01*
X171404729Y-70632186D01*
X171478416Y-70582952D01*
X180870929Y-61190438D01*
X180953062Y-61067517D01*
X181009636Y-60930935D01*
X181019074Y-60883484D01*
X181038478Y-60785942D01*
X181038478Y-60298685D01*
X181058163Y-60231646D01*
X181086316Y-60200831D01*
X181239762Y-60081400D01*
X181396957Y-59910640D01*
X181523902Y-59716336D01*
X181617135Y-59503787D01*
X181664929Y-59315054D01*
X181700468Y-59254900D01*
X181762888Y-59223508D01*
X181832371Y-59230846D01*
X181861296Y-59247642D01*
X181866279Y-59251520D01*
X181874952Y-59256213D01*
X182260008Y-58326606D01*
X182274541Y-58351777D01*
X182358325Y-58435561D01*
X182460937Y-58494804D01*
X182575387Y-58525471D01*
X182693875Y-58525471D01*
X182721947Y-58517948D01*
X182337826Y-59445300D01*
X182518625Y-59475471D01*
X182750638Y-59475471D01*
X182979491Y-59437282D01*
X183198924Y-59361950D01*
X183198933Y-59361947D01*
X183402982Y-59251521D01*
X183402986Y-59251518D01*
X183586068Y-59109019D01*
X183586072Y-59109016D01*
X183743209Y-58938320D01*
X183743217Y-58938310D01*
X183811628Y-58833597D01*
X183811628Y-58833596D01*
X182885768Y-58450091D01*
X182910937Y-58435561D01*
X182994721Y-58351777D01*
X183053964Y-58249165D01*
X183084631Y-58134715D01*
X183084631Y-58016227D01*
X183077108Y-57988151D01*
X183970725Y-58358300D01*
X184017092Y-58391782D01*
X184054898Y-58435529D01*
X184101603Y-58489574D01*
X184118999Y-58509703D01*
X184261268Y-58612437D01*
X184423396Y-58679594D01*
X184423404Y-58679596D01*
X184510023Y-58693573D01*
X184596647Y-58707551D01*
X184596647Y-58707550D01*
X184596648Y-58707551D01*
X184654989Y-58703300D01*
X184771673Y-58694800D01*
X184870678Y-58665160D01*
X186163788Y-58129536D01*
X186254754Y-58080488D01*
X186387532Y-57965742D01*
X186490268Y-57823470D01*
X186557425Y-57661340D01*
X186558265Y-57656138D01*
X186576828Y-57541095D01*
X186585381Y-57488093D01*
X186572630Y-57313067D01*
X186542990Y-57214062D01*
X186007366Y-55920952D01*
X185958318Y-55829986D01*
X185958317Y-55829984D01*
X185843570Y-55697206D01*
X185701301Y-55594472D01*
X185539173Y-55527315D01*
X185539165Y-55527313D01*
X185365926Y-55499359D01*
X185365921Y-55499358D01*
X185190898Y-55512109D01*
X185091890Y-55541750D01*
X183798779Y-56077375D01*
X183707814Y-56126422D01*
X183575036Y-56241169D01*
X183472302Y-56383438D01*
X183405145Y-56545566D01*
X183405143Y-56545574D01*
X183377189Y-56718813D01*
X183377188Y-56718819D01*
X183388512Y-56874254D01*
X183379401Y-56930716D01*
X183009251Y-57824332D01*
X182994721Y-57799165D01*
X182910937Y-57715381D01*
X182808325Y-57656138D01*
X182693875Y-57625471D01*
X182575387Y-57625471D01*
X182547310Y-57632994D01*
X182931434Y-56705639D01*
X182931435Y-56705639D01*
X182750638Y-56675471D01*
X182518624Y-56675471D01*
X182289770Y-56713659D01*
X182070337Y-56788991D01*
X182070328Y-56788994D01*
X181866279Y-56899420D01*
X181866275Y-56899423D01*
X181683193Y-57041922D01*
X181683189Y-57041925D01*
X181526049Y-57212624D01*
X181526046Y-57212628D01*
X181457632Y-57317343D01*
X182383495Y-57700848D01*
X182358325Y-57715381D01*
X182274541Y-57799165D01*
X182215298Y-57901777D01*
X182184631Y-58016227D01*
X182184631Y-58134715D01*
X182192153Y-58162788D01*
X181265524Y-57778966D01*
X181265523Y-57778966D01*
X181258246Y-57807706D01*
X181222707Y-57867862D01*
X181160287Y-57899255D01*
X181090804Y-57891918D01*
X181061883Y-57875125D01*
X181056606Y-57871018D01*
X180852482Y-57760551D01*
X180852473Y-57760548D01*
X180632962Y-57685189D01*
X180458674Y-57656106D01*
X180404027Y-57646987D01*
X180171929Y-57646987D01*
X180126142Y-57654627D01*
X179942993Y-57685189D01*
X179723482Y-57760548D01*
X179723473Y-57760551D01*
X179519349Y-57871018D01*
X179519343Y-57871022D01*
X179336200Y-58013568D01*
X179336197Y-58013571D01*
X179178994Y-58184339D01*
X179052053Y-58378638D01*
X178958820Y-58591186D01*
X178901844Y-58816178D01*
X178901842Y-58816189D01*
X178882678Y-59047480D01*
X178882678Y-59047493D01*
X178901842Y-59278784D01*
X178901844Y-59278795D01*
X178958820Y-59503787D01*
X179052053Y-59716335D01*
X179178994Y-59910634D01*
X179178997Y-59910638D01*
X179178999Y-59910640D01*
X179336194Y-60081400D01*
X179489640Y-60200831D01*
X179530453Y-60257542D01*
X179537478Y-60298685D01*
X179537478Y-60349792D01*
X179517793Y-60416831D01*
X179501159Y-60437473D01*
X170725451Y-69213181D01*
X170664128Y-69246666D01*
X170637770Y-69249500D01*
X168834918Y-69249500D01*
X168767879Y-69229815D01*
X168722124Y-69177011D01*
X168712180Y-69107853D01*
X168741205Y-69044297D01*
X168758756Y-69027647D01*
X168863729Y-68945942D01*
X168863733Y-68945939D01*
X169020877Y-68775236D01*
X169147775Y-68581003D01*
X169240974Y-68368529D01*
X169293175Y-68162394D01*
X168287570Y-68162394D01*
X168331625Y-68086088D01*
X168362292Y-67971638D01*
X168362292Y-67853150D01*
X168331625Y-67738700D01*
X168287570Y-67662394D01*
X169254919Y-67662394D01*
X169310569Y-67675583D01*
X169449841Y-67745529D01*
X169535220Y-67765764D01*
X169620598Y-67786000D01*
X169620599Y-67786000D01*
X169796088Y-67786000D01*
X169853006Y-67772509D01*
X169966845Y-67745529D01*
X170123668Y-67666769D01*
X170203794Y-67601498D01*
X171193498Y-66611794D01*
X171258769Y-66531668D01*
X171337529Y-66374845D01*
X171378000Y-66204087D01*
X171378000Y-66028599D01*
X171365954Y-65977775D01*
X171337529Y-65857842D01*
X171337529Y-65857841D01*
X171258769Y-65701018D01*
X171193498Y-65620892D01*
X171193497Y-65620891D01*
X171193493Y-65620886D01*
X170203799Y-64631192D01*
X170123668Y-64565917D01*
X169966843Y-64487156D01*
X169796088Y-64446686D01*
X169796087Y-64446686D01*
X169620599Y-64446686D01*
X169620598Y-64446686D01*
X169449842Y-64487156D01*
X169293017Y-64565917D01*
X169212886Y-64631192D01*
X168223192Y-65620886D01*
X168157917Y-65701017D01*
X168079156Y-65857842D01*
X168038686Y-66028597D01*
X168038686Y-66204088D01*
X168079156Y-66374843D01*
X168079156Y-66374844D01*
X168079157Y-66374845D01*
X168149102Y-66514116D01*
X168162292Y-66569767D01*
X168162292Y-67537116D01*
X168085986Y-67493061D01*
X167971536Y-67462394D01*
X167853048Y-67462394D01*
X167738598Y-67493061D01*
X167662292Y-67537116D01*
X167662292Y-66534753D01*
X167662291Y-66534753D01*
X167567430Y-66550582D01*
X167347998Y-66625914D01*
X167347989Y-66625917D01*
X167143940Y-66736343D01*
X167143936Y-66736346D01*
X166960854Y-66878845D01*
X166960850Y-66878848D01*
X166803706Y-67049551D01*
X166676808Y-67243784D01*
X166583609Y-67456258D01*
X166531409Y-67662394D01*
X167537014Y-67662394D01*
X167492959Y-67738700D01*
X167462292Y-67853150D01*
X167462292Y-67971638D01*
X167492959Y-68086088D01*
X167537014Y-68162394D01*
X166531409Y-68162394D01*
X166536499Y-68182496D01*
X166533873Y-68252316D01*
X166493917Y-68309633D01*
X166429315Y-68336249D01*
X166395884Y-68335244D01*
X166232288Y-68307945D01*
X166000190Y-68307945D01*
X165954403Y-68315585D01*
X165771254Y-68346147D01*
X165551743Y-68421506D01*
X165551734Y-68421509D01*
X165347610Y-68531976D01*
X165347604Y-68531980D01*
X165164461Y-68674526D01*
X165164458Y-68674529D01*
X165164455Y-68674531D01*
X165164455Y-68674532D01*
X165149742Y-68690515D01*
X165007255Y-68845297D01*
X164880314Y-69039596D01*
X164787081Y-69252144D01*
X164730105Y-69477136D01*
X164730103Y-69477147D01*
X164710939Y-69708438D01*
X164710939Y-69708451D01*
X164730103Y-69939742D01*
X164730105Y-69939753D01*
X164787081Y-70164745D01*
X164880314Y-70377293D01*
X165007255Y-70571592D01*
X165007258Y-70571596D01*
X165007260Y-70571598D01*
X165164455Y-70742358D01*
X165317901Y-70861789D01*
X165358714Y-70918500D01*
X165365739Y-70959643D01*
X165365739Y-71521530D01*
X165346054Y-71588569D01*
X165329420Y-71609211D01*
X164417050Y-72521580D01*
X164417044Y-72521588D01*
X164367812Y-72595268D01*
X164367813Y-72595269D01*
X164334921Y-72644496D01*
X164334914Y-72644508D01*
X164278342Y-72781086D01*
X164278340Y-72781092D01*
X164249500Y-72926079D01*
X164249500Y-76637769D01*
X164229815Y-76704808D01*
X164213181Y-76725450D01*
X160856901Y-80081729D01*
X160795578Y-80115214D01*
X160725886Y-80110230D01*
X160669953Y-80068358D01*
X160645536Y-80002894D01*
X160645547Y-79985046D01*
X160651551Y-79902647D01*
X160631640Y-79779253D01*
X160623596Y-79729404D01*
X160623594Y-79729396D01*
X160556437Y-79567268D01*
X160453703Y-79424999D01*
X160453507Y-79424830D01*
X160435671Y-79409415D01*
X160320925Y-79310252D01*
X160229960Y-79261205D01*
X160212715Y-79254062D01*
X159601872Y-79001042D01*
X158936849Y-78725580D01*
X158837841Y-78695939D01*
X158662818Y-78683188D01*
X158662813Y-78683189D01*
X158489574Y-78711143D01*
X158489566Y-78711145D01*
X158327438Y-78778302D01*
X158185169Y-78881036D01*
X158070422Y-79013814D01*
X158021375Y-79104779D01*
X157485750Y-80397890D01*
X157456109Y-80496898D01*
X157443358Y-80671921D01*
X157443359Y-80671926D01*
X157471313Y-80845165D01*
X157471315Y-80845173D01*
X157538472Y-81007301D01*
X157641206Y-81149570D01*
X157641205Y-81149570D01*
X157722125Y-81219500D01*
X157743283Y-81237785D01*
X157759125Y-81251475D01*
X157792607Y-81297842D01*
X158162756Y-82191461D01*
X158134683Y-82183939D01*
X158016195Y-82183939D01*
X157901745Y-82214606D01*
X157799133Y-82273849D01*
X157715349Y-82357633D01*
X157700817Y-82382802D01*
X157315760Y-81453195D01*
X157307084Y-81457891D01*
X157123997Y-81600394D01*
X156966853Y-81771096D01*
X156839955Y-81965329D01*
X156746756Y-82177803D01*
X156689800Y-82402720D01*
X156670641Y-82633933D01*
X156670641Y-82633944D01*
X156689800Y-82865157D01*
X156706332Y-82930442D01*
X157632962Y-82546618D01*
X157625439Y-82574695D01*
X157625439Y-82693183D01*
X157656106Y-82807633D01*
X157715349Y-82910245D01*
X157799133Y-82994029D01*
X157824301Y-83008560D01*
X156898440Y-83392064D01*
X156898439Y-83392065D01*
X156914142Y-83416100D01*
X156934330Y-83482990D01*
X156915149Y-83550175D01*
X156862690Y-83596325D01*
X156830743Y-83606230D01*
X156758438Y-83618295D01*
X156538927Y-83693654D01*
X156538918Y-83693657D01*
X156334794Y-83804124D01*
X156334788Y-83804128D01*
X156151645Y-83946674D01*
X156151642Y-83946677D01*
X155994439Y-84117445D01*
X155867498Y-84311744D01*
X155774265Y-84524292D01*
X155717289Y-84749284D01*
X155717287Y-84749295D01*
X155698123Y-84980586D01*
X155698123Y-84980599D01*
X155717287Y-85211890D01*
X155717289Y-85211901D01*
X155774265Y-85436893D01*
X155867498Y-85649441D01*
X155994439Y-85843740D01*
X155994442Y-85843744D01*
X155994444Y-85843746D01*
X156151639Y-86014506D01*
X156305085Y-86133937D01*
X156345898Y-86190648D01*
X156352923Y-86231791D01*
X156352923Y-102910993D01*
X156333238Y-102978032D01*
X156280434Y-103023787D01*
X156211276Y-103033731D01*
X156147720Y-103004706D01*
X156141242Y-102998674D01*
X156038269Y-102895701D01*
X156004784Y-102834378D01*
X156005744Y-102777579D01*
X156007334Y-102771305D01*
X156011288Y-102723584D01*
X156026500Y-102540006D01*
X156026500Y-102539993D01*
X156007335Y-102308702D01*
X156007333Y-102308691D01*
X155950357Y-102083699D01*
X155857124Y-101871151D01*
X155730183Y-101676852D01*
X155730180Y-101676849D01*
X155730179Y-101676847D01*
X155572984Y-101506087D01*
X155394973Y-101367536D01*
X155354161Y-101310826D01*
X155350486Y-101241053D01*
X155385117Y-101180370D01*
X155394972Y-101171831D01*
X155419997Y-101152352D01*
X155419998Y-101152350D01*
X154709785Y-100442137D01*
X154794894Y-100419333D01*
X154897506Y-100360090D01*
X154981290Y-100276306D01*
X155040533Y-100173694D01*
X155063338Y-100088585D01*
X155772386Y-100797633D01*
X155856682Y-100668611D01*
X155949882Y-100456135D01*
X156006838Y-100231218D01*
X156025998Y-100000005D01*
X156025998Y-99999994D01*
X156006838Y-99768781D01*
X155949882Y-99543864D01*
X155856684Y-99331393D01*
X155772386Y-99202365D01*
X155063337Y-99911414D01*
X155040533Y-99826306D01*
X154981290Y-99723694D01*
X154897506Y-99639910D01*
X154794894Y-99580667D01*
X154709784Y-99557861D01*
X155393800Y-98873844D01*
X155442476Y-98843819D01*
X155590420Y-98794797D01*
X155739781Y-98702670D01*
X155863870Y-98578581D01*
X155955997Y-98429220D01*
X156011196Y-98262638D01*
X156021700Y-98159826D01*
X156021700Y-96760174D01*
X156011196Y-96657362D01*
X155955997Y-96490780D01*
X155863870Y-96341419D01*
X155739781Y-96217330D01*
X155590420Y-96125203D01*
X155581161Y-96122135D01*
X155423838Y-96070003D01*
X155321033Y-96059500D01*
X155321026Y-96059500D01*
X153921374Y-96059500D01*
X153921366Y-96059500D01*
X153818561Y-96070003D01*
X153651982Y-96125202D01*
X153651977Y-96125204D01*
X153502617Y-96217331D01*
X153378531Y-96341417D01*
X153286404Y-96490777D01*
X153286402Y-96490782D01*
X153231203Y-96657361D01*
X153220700Y-96760166D01*
X153220700Y-98159833D01*
X153231203Y-98262638D01*
X153251254Y-98323147D01*
X153286403Y-98429220D01*
X153378530Y-98578581D01*
X153502619Y-98702670D01*
X153651980Y-98794797D01*
X153795584Y-98842382D01*
X153799921Y-98843819D01*
X153848598Y-98873844D01*
X154532615Y-99557861D01*
X154447506Y-99580667D01*
X154344894Y-99639910D01*
X154261110Y-99723694D01*
X154201867Y-99826306D01*
X154179061Y-99911415D01*
X153470011Y-99202365D01*
X153385716Y-99331390D01*
X153292517Y-99543864D01*
X153235561Y-99768781D01*
X153216402Y-99999994D01*
X153216402Y-100000005D01*
X153235561Y-100231218D01*
X153292517Y-100456135D01*
X153385715Y-100668606D01*
X153470012Y-100797633D01*
X154179061Y-100088584D01*
X154201867Y-100173694D01*
X154261110Y-100276306D01*
X154344894Y-100360090D01*
X154447506Y-100419333D01*
X154532614Y-100442138D01*
X153822401Y-101152351D01*
X153847426Y-101171829D01*
X153888238Y-101228539D01*
X153891913Y-101298312D01*
X153857281Y-101358995D01*
X153847426Y-101367535D01*
X153669418Y-101506085D01*
X153669416Y-101506086D01*
X153669416Y-101506087D01*
X153649129Y-101528125D01*
X153512216Y-101676852D01*
X153385275Y-101871151D01*
X153292042Y-102083699D01*
X153235066Y-102308691D01*
X153235064Y-102308702D01*
X153215900Y-102539993D01*
X150567904Y-102539993D01*
X150519321Y-101364137D01*
X150519230Y-101360802D01*
X150500522Y-100001670D01*
X150500522Y-99998293D01*
X150519230Y-98639195D01*
X150519321Y-98635864D01*
X150575435Y-97277732D01*
X150575616Y-97274448D01*
X150669085Y-95918434D01*
X150669366Y-95915045D01*
X150684434Y-95759139D01*
X150800124Y-94562118D01*
X150800496Y-94558755D01*
X150802897Y-94539478D01*
X150968443Y-93209945D01*
X150968911Y-93206577D01*
X150995435Y-93032732D01*
X151173914Y-91862946D01*
X151174471Y-91859607D01*
X151197648Y-91731465D01*
X151416389Y-90522069D01*
X151417030Y-90518789D01*
X151695668Y-89188442D01*
X151696407Y-89185140D01*
X151740256Y-89001179D01*
X152011560Y-87862950D01*
X152012392Y-87859664D01*
X152363826Y-86546623D01*
X152364717Y-86543471D01*
X152752178Y-85240541D01*
X152753155Y-85237413D01*
X153176314Y-83945695D01*
X153177414Y-83942489D01*
X153635973Y-82662890D01*
X153637115Y-82659838D01*
X154130741Y-81393298D01*
X154131955Y-81390306D01*
X154660258Y-80137824D01*
X154661579Y-80134810D01*
X155224142Y-78897375D01*
X155225542Y-78894406D01*
X155821940Y-77672949D01*
X155823450Y-77669962D01*
X156453239Y-76465391D01*
X156454807Y-76462490D01*
X157117536Y-75275671D01*
X157119165Y-75272846D01*
X157804888Y-74120548D01*
X157810607Y-74111801D01*
X157833927Y-74079230D01*
X157836056Y-74073562D01*
X157846456Y-74052309D01*
X157849626Y-74047146D01*
X157862095Y-74005171D01*
X157864882Y-73996874D01*
X157880295Y-73955872D01*
X157880886Y-73949833D01*
X157885429Y-73926623D01*
X157887154Y-73920818D01*
X157888335Y-73877027D01*
X157888879Y-73868316D01*
X157893154Y-73824717D01*
X157892163Y-73818730D01*
X157890544Y-73795145D01*
X157890708Y-73789082D01*
X157880519Y-73746497D01*
X157878781Y-73737895D01*
X157871632Y-73694705D01*
X157871631Y-73694702D01*
X157869125Y-73689179D01*
X157861454Y-73666808D01*
X157860045Y-73660915D01*
X157839171Y-73622399D01*
X157835282Y-73614572D01*
X157817190Y-73574688D01*
X157817187Y-73574684D01*
X157813340Y-73570000D01*
X157800143Y-73550381D01*
X157797256Y-73545055D01*
X157797254Y-73545051D01*
X157767130Y-73513257D01*
X157761342Y-73506698D01*
X157733542Y-73472854D01*
X157733540Y-73472852D01*
X157733538Y-73472850D01*
X157728605Y-73469318D01*
X157710779Y-73453781D01*
X157706618Y-73449390D01*
X157706617Y-73449389D01*
X157706615Y-73449387D01*
X157669298Y-73426478D01*
X157661997Y-73421632D01*
X154158468Y-70913352D01*
X154115417Y-70858322D01*
X154108316Y-70832780D01*
X153810042Y-69031058D01*
X154652116Y-69031058D01*
X154671590Y-69315766D01*
X154729653Y-69595185D01*
X154729654Y-69595188D01*
X154825219Y-69864080D01*
X154825218Y-69864080D01*
X154864429Y-69939753D01*
X154956514Y-70117469D01*
X155121087Y-70350615D01*
X155121091Y-70350619D01*
X155121091Y-70350620D01*
X155315876Y-70559183D01*
X155345095Y-70582954D01*
X155537245Y-70739280D01*
X155537247Y-70739281D01*
X155537248Y-70739282D01*
X155781080Y-70887560D01*
X155781085Y-70887562D01*
X155875487Y-70928566D01*
X156042832Y-71001254D01*
X156317629Y-71078248D01*
X156566184Y-71112412D01*
X156600349Y-71117108D01*
X156600350Y-71117108D01*
X156885731Y-71117108D01*
X156916211Y-71112918D01*
X157168451Y-71078248D01*
X157443248Y-71001254D01*
X157705001Y-70887559D01*
X157948835Y-70739280D01*
X158170207Y-70559180D01*
X158364993Y-70350615D01*
X158529566Y-70117469D01*
X158660859Y-69864084D01*
X158756427Y-69595183D01*
X158814489Y-69315772D01*
X158833964Y-69031058D01*
X158814489Y-68746344D01*
X158756427Y-68466933D01*
X158754706Y-68462092D01*
X158660860Y-68198035D01*
X158660861Y-68198035D01*
X158578089Y-68038292D01*
X158529566Y-67944647D01*
X158364993Y-67711501D01*
X158364988Y-67711495D01*
X158170203Y-67502932D01*
X157948831Y-67322833D01*
X157704999Y-67174555D01*
X157704994Y-67174553D01*
X157443253Y-67060864D01*
X157443251Y-67060863D01*
X157443248Y-67060862D01*
X157314659Y-67024833D01*
X157168457Y-66983869D01*
X157168452Y-66983868D01*
X157168451Y-66983868D01*
X157027090Y-66964438D01*
X156885731Y-66945008D01*
X156885730Y-66945008D01*
X156600350Y-66945008D01*
X156600349Y-66945008D01*
X156317629Y-66983868D01*
X156317622Y-66983869D01*
X156111276Y-67041684D01*
X156042832Y-67060862D01*
X156042829Y-67060862D01*
X156042826Y-67060864D01*
X156042825Y-67060864D01*
X155781085Y-67174553D01*
X155781080Y-67174555D01*
X155537248Y-67322833D01*
X155315876Y-67502932D01*
X155121091Y-67711495D01*
X155121091Y-67711496D01*
X155121088Y-67711498D01*
X155121087Y-67711501D01*
X155068500Y-67786000D01*
X154956514Y-67944646D01*
X154825219Y-68198035D01*
X154729654Y-68466927D01*
X154729653Y-68466930D01*
X154671590Y-68746349D01*
X154652116Y-69031058D01*
X153810042Y-69031058D01*
X153795951Y-68945939D01*
X153435931Y-66771235D01*
X153444402Y-66701882D01*
X153489024Y-66648117D01*
X153538011Y-66628650D01*
X157599562Y-65956265D01*
X157668914Y-65964736D01*
X157691992Y-65977774D01*
X159765545Y-67462292D01*
X161195509Y-68486046D01*
X161202459Y-68491403D01*
X161236171Y-68519347D01*
X161236172Y-68519347D01*
X161236174Y-68519349D01*
X161241677Y-68521875D01*
X161262135Y-68533746D01*
X161267067Y-68537277D01*
X161285115Y-68544061D01*
X161308059Y-68552686D01*
X161316148Y-68556057D01*
X161355944Y-68574323D01*
X161361917Y-68575339D01*
X161384741Y-68581508D01*
X161390425Y-68583645D01*
X161429223Y-68587449D01*
X161433996Y-68587917D01*
X161442694Y-68589081D01*
X161485862Y-68596425D01*
X161491898Y-68595860D01*
X161515543Y-68595911D01*
X161521580Y-68596504D01*
X161564790Y-68589349D01*
X161573461Y-68588228D01*
X161617073Y-68584149D01*
X161622754Y-68582042D01*
X161645615Y-68575969D01*
X161651595Y-68574980D01*
X161691488Y-68556883D01*
X161699562Y-68553559D01*
X161740636Y-68538330D01*
X161745578Y-68534825D01*
X161766088Y-68523043D01*
X161771609Y-68520540D01*
X161805455Y-68492737D01*
X161812397Y-68487434D01*
X161848130Y-68462093D01*
X161851997Y-68457426D01*
X161868760Y-68440738D01*
X161873443Y-68436892D01*
X161896730Y-68404362D01*
X161903179Y-68396115D01*
X162784975Y-67361984D01*
X162787188Y-67359461D01*
X163709744Y-66336734D01*
X163712035Y-66334264D01*
X164662809Y-65337612D01*
X164665116Y-65335260D01*
X165643317Y-64365516D01*
X165645710Y-64363208D01*
X166650588Y-63421113D01*
X166653041Y-63418878D01*
X167683789Y-62505190D01*
X167686324Y-62503007D01*
X168742169Y-61618413D01*
X168744723Y-61616334D01*
X169824779Y-60761573D01*
X169827423Y-60759539D01*
X170930945Y-59935200D01*
X170933686Y-59933212D01*
X172059723Y-59140006D01*
X172062486Y-59138117D01*
X173210238Y-58376608D01*
X173213038Y-58374805D01*
X174381605Y-57645590D01*
X174384428Y-57643883D01*
X175572847Y-56947564D01*
X175575768Y-56945906D01*
X176783197Y-56282975D01*
X176786085Y-56281442D01*
X178011516Y-55652455D01*
X178014527Y-55650963D01*
X179256922Y-55056449D01*
X179260014Y-55055021D01*
X180518598Y-54495350D01*
X180521652Y-54494043D01*
X181795331Y-53969703D01*
X181798473Y-53968461D01*
X183086235Y-53479868D01*
X183089413Y-53478712D01*
X184390388Y-53026196D01*
X184393547Y-53025147D01*
X185706572Y-52609114D01*
X185709770Y-52608149D01*
X187033911Y-52228893D01*
X187037189Y-52228004D01*
X188371408Y-51885824D01*
X188374637Y-51885044D01*
X189717862Y-51580213D01*
X189721119Y-51579521D01*
X191072390Y-51312260D01*
X191075669Y-51311660D01*
X192433791Y-51082205D01*
X192437081Y-51081696D01*
X193801073Y-50890211D01*
X193804496Y-50889779D01*
X195173228Y-50736419D01*
X195176649Y-50736084D01*
X196549148Y-50620958D01*
X196552536Y-50620722D01*
X197927698Y-50543922D01*
X197931139Y-50543778D01*
X199307911Y-50505364D01*
X199311369Y-50505316D01*
X200688632Y-50505316D01*
X200692090Y-50505364D01*
G37*
%TD.AperFunction*%
%TD*%
M02*
