%TF.GenerationSoftware,KiCad,Pcbnew,8.0.5*%
%TF.CreationDate,2025-10-03T18:43:46+09:00*%
%TF.ProjectId,IR board,49522062-6f61-4726-942e-6b696361645f,rev?*%
%TF.SameCoordinates,Original*%
%TF.FileFunction,Legend,Bot*%
%TF.FilePolarity,Positive*%
%FSLAX46Y46*%
G04 Gerber Fmt 4.6, Leading zero omitted, Abs format (unit mm)*
G04 Created by KiCad (PCBNEW 8.0.5) date 2025-10-03 18:43:46*
%MOMM*%
%LPD*%
G01*
G04 APERTURE LIST*
%ADD10C,0.153000*%
%ADD11C,0.120000*%
G04 APERTURE END LIST*
D10*
X200253333Y-136894663D02*
X200253333Y-137608948D01*
X200253333Y-137608948D02*
X200300952Y-137751805D01*
X200300952Y-137751805D02*
X200396190Y-137847044D01*
X200396190Y-137847044D02*
X200539047Y-137894663D01*
X200539047Y-137894663D02*
X200634285Y-137894663D01*
X199253333Y-137894663D02*
X199824761Y-137894663D01*
X199539047Y-137894663D02*
X199539047Y-136894663D01*
X199539047Y-136894663D02*
X199634285Y-137037520D01*
X199634285Y-137037520D02*
X199729523Y-137132758D01*
X199729523Y-137132758D02*
X199824761Y-137180377D01*
D11*
%TO.C,J1*%
X192070000Y-135390000D02*
X192070000Y-136640000D01*
X192070000Y-136640000D02*
X193320000Y-136640000D01*
X192360000Y-130380000D02*
X192360000Y-136350000D01*
X192360000Y-136350000D02*
X207480000Y-136350000D01*
X192370000Y-135590000D02*
X192370000Y-136340000D01*
X192370000Y-136340000D02*
X194170000Y-136340000D01*
X193120000Y-131140000D02*
X193120000Y-134090000D01*
X193120000Y-134090000D02*
X192370000Y-134090000D01*
X194170000Y-135590000D02*
X192370000Y-135590000D01*
X194170000Y-136340000D02*
X194170000Y-135590000D01*
X195670000Y-135590000D02*
X195670000Y-136340000D01*
X195670000Y-136340000D02*
X204170000Y-136340000D01*
X199920000Y-131140000D02*
X193120000Y-131140000D01*
X199920000Y-131140000D02*
X206720000Y-131140000D01*
X204170000Y-135590000D02*
X195670000Y-135590000D01*
X204170000Y-136340000D02*
X204170000Y-135590000D01*
X205670000Y-135590000D02*
X205670000Y-136340000D01*
X205670000Y-136340000D02*
X207470000Y-136340000D01*
X206720000Y-131140000D02*
X206720000Y-134090000D01*
X206720000Y-134090000D02*
X207470000Y-134090000D01*
X207470000Y-135590000D02*
X205670000Y-135590000D01*
X207470000Y-136340000D02*
X207470000Y-135590000D01*
X207480000Y-130380000D02*
X192360000Y-130380000D01*
X207480000Y-136350000D02*
X207480000Y-130380000D01*
%TD*%
M02*
