M48
; DRILL file {KiCad 8.0.5} date 2025-12-13T08:36:30+0900
; FORMAT={-:-/ absolute / metric / decimal}
; #@! TF.CreationDate,2025-12-13T08:36:30+09:00
; #@! TF.GenerationSoftware,Kicad,Pcbnew,8.0.5
; #@! TF.FileFunction,Plated,1,2,PTH
FMAT,2
METRIC
; #@! TA.AperFunction,Plated,PTH,ViaDrill
T1C0.300
; #@! TA.AperFunction,Plated,PTH,ComponentDrill
T2C0.762
; #@! TA.AperFunction,Plated,PTH,ComponentDrill
T3C0.950
%
G90
G05
T1
X200.925Y-76.425
X200.975Y-66.925
X200.975Y-94.175
X200.975Y-99.05
X201.075Y-73.15
X201.1Y-71.025
X203.275Y-79.225
X204.475Y-71.975
X205.325Y-66.975
X206.65Y-97.625
X207.45Y-94.25
X208.775Y-67.025
X210.0Y-96.25
X210.2Y-72.425
X211.875Y-70.625
X211.95Y-67.025
X212.0Y-73.75
X212.15Y-99.125
X212.175Y-96.15
T2
X207.23Y-70.625
X207.23Y-76.375
X209.77Y-70.625
X209.77Y-76.375
T3
X210.0Y-82.5
X210.0Y-85.0
X210.0Y-87.5
X210.0Y-90.0
M30
