M48
; DRILL file {KiCad 8.0.5} date 2025-05-24T17:56:30+0900
; FORMAT={-:-/ absolute / inch / decimal}
; #@! TF.CreationDate,2025-05-24T17:56:30+09:00
; #@! TF.GenerationSoftware,Kicad,Pcbnew,8.0.5
; #@! TF.FileFunction,Plated,1,2,PTH
FMAT,2
INCH
; #@! TA.AperFunction,Plated,PTH,ViaDrill
T1C0.0157
; #@! TA.AperFunction,Plated,PTH,ComponentDrill
T2C0.0315
; #@! TA.AperFunction,Plated,PTH,ComponentDrill
T3C0.0394
; #@! TA.AperFunction,Plated,PTH,ComponentDrill
T4C0.0512
; #@! TA.AperFunction,Plated,PTH,ComponentDrill
T5C0.0728
%
G90
G05
T1
X5.5512Y-4.7874
X5.5531Y-4.1201
X5.5561Y-4.6171
X5.563Y-3.9803
X5.5709Y-4.3435
X5.5797Y-4.5069
X5.627Y-4.1978
X5.6496Y-4.3898
X5.6703Y-4.5846
X5.7224Y-4.2933
X5.7352Y-4.5423
X5.7362Y-4.8858
X5.747Y-3.9744
X5.7697Y-4.8396
X5.812Y-4.6644
X5.8209Y-4.0443
X5.8209Y-4.186
X5.8711Y-4.9616
X5.9301Y-3.9951
X5.9665Y-4.5659
X5.9774Y-5.0463
X6.001Y-4.2776
X6.0098Y-4.7087
X6.0384Y-4.1486
X6.1152Y-4.5837
X6.1644Y-4.7835
X6.2096Y-3.9764
X6.2096Y-4.1742
X6.2175Y-5.0837
X6.2215Y-4.5404
X6.2441Y-4.3179
X6.2894Y-4.4321
X6.3445Y-4.1604
X6.377Y-3.9744
X6.4409Y-4.3091
X6.4459Y-5.1014
X6.4557Y-4.3917
X6.4764Y-5.249
X6.4961Y-4.1427
X6.5079Y-3.9764
X6.5758Y-4.2864
X6.5945Y-5.0748
X6.5984Y-4.3799
X6.6654Y-5.3258
X6.7224Y-4.3957
X6.7953Y-4.4222
X6.8622Y-5.3543
X6.9498Y-4.2943
X7.063Y-5.4341
X7.1132Y-5.2569
X7.122Y-4.3346
X7.1358Y-4.4715
X7.1634Y-4.9094
X7.2008Y-5.3337
X7.2904Y-4.3002
X7.3189Y-5.252
X7.3228Y-5.5059
X7.3504Y-4.4035
X7.4222Y-4.186
X7.4331Y-4.063
X7.4803Y-5.5177
X7.499Y-4.2776
X7.502Y-4.4085
X7.5157Y-5.4291
X7.563Y-4.9094
X7.565Y-4.0512
X7.5817Y-4.1683
X7.5876Y-4.2913
X7.6211Y-4.5758
X7.6417Y-5.247
X7.6427Y-5.5226
X7.7539Y-5.3307
X7.7776Y-5.5404
X7.8199Y-4.2913
X7.8622Y-5.2352
X7.9291Y-5.5433
X7.9931Y-4.2933
X8.0246Y-5.2264
X8.0866Y-4.3701
X8.1289Y-5.5433
X8.1555Y-5.2303
X8.1663Y-4.0906
X8.1663Y-4.2874
X8.2195Y-5.0118
X8.2303Y-5.2323
X8.2608Y-4.5138
X8.2795Y-4.1644
X8.2815Y-4.3809
X8.3169Y-5.4911
X8.3337Y-4.4665
X8.3819Y-4.378
X8.4134Y-5.1969
X8.4557Y-5.0079
X8.4892Y-5.4606
X8.5089Y-4.3799
X8.5669Y-5.0039
X8.5945Y-5.3917
X8.7018Y-4.7904
X8.7638Y-5.3346
X8.8543Y-5.0335
X8.9577Y-4.3169
X8.9636Y-5.3061
X8.9744Y-4.0974
X8.9803Y-4.6516
X8.9911Y-4.5128
X9.0748Y-5.2776
X9.0768Y-4.5364
X9.0906Y-4.9862
X9.1132Y-4.3976
X9.1398Y-4.186
X9.2077Y-5.2972
X9.2234Y-4.8189
X9.2913Y-4.9862
X9.3504Y-3.9921
X9.3563Y-5.248
X9.4498Y-4.0138
X9.4567Y-4.8317
X9.4793Y-4.6427
X9.4833Y-4.3189
X9.4892Y-4.2274
X9.5207Y-5.1811
X9.5433Y-4.063
X9.5522Y-4.752
X9.5827Y-4.4833
X9.626Y-4.2746
X9.628Y-4.626
X9.6378Y-4.3415
X9.6663Y-3.997
X9.6713Y-5.0748
X9.7254Y-4.5226
X9.7382Y-4.6545
X9.7579Y-3.9941
X9.7766Y-4.3967
X9.8228Y-4.6122
X9.8602Y-4.4921
X9.8622Y-4.9469
X9.8652Y-4.0108
X9.9409Y-4.3858
X9.9567Y-4.0089
X9.9833Y-4.7648
X10.0157Y-4.9006
X10.0364Y-4.1624
X10.0945Y-4.5974
X10.1329Y-4.2215
X10.1378Y-4.3622
X10.1516Y-4.5059
X10.1742Y-3.9852
X10.1821Y-4.1673
X10.19Y-4.7904
X10.1998Y-4.6201
T2
X8.0709Y-5.315
X8.0709Y-5.4134
X9.8425Y-4.1339
X9.8425Y-4.2323
T3
X6.6929Y-4.1016
X6.7913Y-4.1016
X7.122Y-4.1016
X7.2205Y-4.1016
X7.674Y-4.0929
X7.674Y-4.1929
X7.7465Y-4.626
X7.7567Y-5.126
X7.774Y-4.0929
X7.774Y-4.1929
X7.8465Y-4.626
X7.8567Y-5.126
X7.874Y-4.0929
X7.874Y-4.1929
X7.9465Y-4.626
X7.9567Y-5.126
X7.974Y-4.0929
X7.974Y-4.1929
X8.0465Y-4.626
X8.0567Y-5.126
X8.074Y-4.0929
X8.074Y-4.1929
X8.1465Y-4.626
X8.1567Y-5.126
X8.2465Y-4.626
X8.2567Y-5.126
X8.3465Y-4.626
X8.3567Y-5.126
X8.4646Y-4.1016
X8.563Y-4.1016
X8.8583Y-4.1339
X8.8583Y-4.2339
X8.8583Y-4.3339
X8.8583Y-4.4339
X8.8583Y-4.5339
X8.8583Y-4.6339
X8.8583Y-4.7339
X9.3583Y-4.1339
X9.3583Y-4.2339
X9.3583Y-4.3339
X9.3583Y-4.4339
X9.3583Y-4.5339
X9.3583Y-4.6339
X9.3583Y-4.7339
T4
X6.0531Y-4.0256
X6.0531Y-4.9114
T5
X6.4114Y-4.5394
X6.4114Y-4.7244
X6.4114Y-4.9094
X6.6004Y-4.5394
X6.6004Y-4.7244
X6.6004Y-4.9094
M30
