%TF.GenerationSoftware,KiCad,Pcbnew,8.0.5*%
%TF.CreationDate,2025-05-24T17:56:30+09:00*%
%TF.ProjectId,mein board,6d65696e-2062-46f6-9172-642e6b696361,rev?*%
%TF.SameCoordinates,Original*%
%TF.FileFunction,Legend,Bot*%
%TF.FilePolarity,Positive*%
%FSLAX46Y46*%
G04 Gerber Fmt 4.6, Leading zero omitted, Abs format (unit mm)*
G04 Created by KiCad (PCBNEW 8.0.5) date 2025-05-24 17:56:30*
%MOMM*%
%LPD*%
G01*
G04 APERTURE LIST*
G04 Aperture macros list*
%AMRoundRect*
0 Rectangle with rounded corners*
0 $1 Rounding radius*
0 $2 $3 $4 $5 $6 $7 $8 $9 X,Y pos of 4 corners*
0 Add a 4 corners polygon primitive as box body*
4,1,4,$2,$3,$4,$5,$6,$7,$8,$9,$2,$3,0*
0 Add four circle primitives for the rounded corners*
1,1,$1+$1,$2,$3*
1,1,$1+$1,$4,$5*
1,1,$1+$1,$6,$7*
1,1,$1+$1,$8,$9*
0 Add four rect primitives between the rounded corners*
20,1,$1+$1,$2,$3,$4,$5,0*
20,1,$1+$1,$4,$5,$6,$7,0*
20,1,$1+$1,$6,$7,$8,$9,0*
20,1,$1+$1,$8,$9,$2,$3,0*%
G04 Aperture macros list end*
%ADD10C,2.775000*%
%ADD11R,1.700000X1.700000*%
%ADD12O,1.700000X1.700000*%
%ADD13C,2.700000*%
%ADD14C,3.000000*%
%ADD15R,1.600000X1.600000*%
%ADD16C,1.600000*%
%ADD17RoundRect,0.250000X0.600000X0.750000X-0.600000X0.750000X-0.600000X-0.750000X0.600000X-0.750000X0*%
%ADD18O,1.700000X2.000000*%
%ADD19RoundRect,0.250000X0.600000X-0.600000X0.600000X0.600000X-0.600000X0.600000X-0.600000X-0.600000X0*%
%ADD20C,1.700000*%
G04 APERTURE END LIST*
%LPC*%
D10*
%TO.C,SW1*%
X162850000Y-124700000D03*
X162850000Y-120000000D03*
X162850000Y-115300000D03*
X167650000Y-124700000D03*
X167650000Y-120000000D03*
X167650000Y-115300000D03*
%TD*%
D11*
%TO.C,J9*%
X237700000Y-105000000D03*
D12*
X237700000Y-107540000D03*
X237700000Y-110080000D03*
X237700000Y-112620000D03*
X237700000Y-115160000D03*
X237700000Y-117700000D03*
X237700000Y-120240000D03*
%TD*%
D11*
%TO.C,J4*%
X212260000Y-130200000D03*
D12*
X209720000Y-130200000D03*
X207180000Y-130200000D03*
X204640000Y-130200000D03*
X202100000Y-130200000D03*
X199560000Y-130200000D03*
X197020000Y-130200000D03*
%TD*%
D13*
%TO.C,F1*%
X153750000Y-113500000D03*
D14*
X153750000Y-102250000D03*
X153750000Y-124750000D03*
%TD*%
D15*
%TO.C,C11*%
X205000000Y-137500000D03*
D16*
X205000000Y-135000000D03*
%TD*%
D17*
%TO.C,J5*%
X183400000Y-104180000D03*
D18*
X180900000Y-104180000D03*
%TD*%
D17*
%TO.C,J1*%
X172500000Y-104180000D03*
D18*
X170000000Y-104180000D03*
%TD*%
D17*
%TO.C,J2*%
X217500000Y-104180000D03*
D18*
X215000000Y-104180000D03*
%TD*%
D11*
%TO.C,J8*%
X225000000Y-105000000D03*
D12*
X225000000Y-107540000D03*
X225000000Y-110080000D03*
X225000000Y-112620000D03*
X225000000Y-115160000D03*
X225000000Y-117700000D03*
X225000000Y-120240000D03*
%TD*%
D15*
%TO.C,C9*%
X250000000Y-105000000D03*
D16*
X250000000Y-107500000D03*
%TD*%
D19*
%TO.C,J6*%
X194920000Y-106500000D03*
D20*
X194920000Y-103960000D03*
X197460000Y-106500000D03*
X197460000Y-103960000D03*
X200000000Y-106500000D03*
X200000000Y-103960000D03*
X202540000Y-106500000D03*
X202540000Y-103960000D03*
X205080000Y-106500000D03*
X205080000Y-103960000D03*
%TD*%
D11*
%TO.C,J3*%
X212000000Y-117500000D03*
D12*
X209460000Y-117500000D03*
X206920000Y-117500000D03*
X204380000Y-117500000D03*
X201840000Y-117500000D03*
X199300000Y-117500000D03*
X196760000Y-117500000D03*
%TD*%
%LPD*%
M02*
