%TF.GenerationSoftware,KiCad,Pcbnew,8.0.5*%
%TF.CreationDate,2025-10-03T18:55:05+09:00*%
%TF.ProjectId,Line____,4c696e65-bbf3-4b5f-9c2e-6b696361645f,rev?*%
%TF.SameCoordinates,Original*%
%TF.FileFunction,Copper,L1,Top*%
%TF.FilePolarity,Positive*%
%FSLAX46Y46*%
G04 Gerber Fmt 4.6, Leading zero omitted, Abs format (unit mm)*
G04 Created by KiCad (PCBNEW 8.0.5) date 2025-10-03 18:55:05*
%MOMM*%
%LPD*%
G01*
G04 APERTURE LIST*
G04 Aperture macros list*
%AMRoundRect*
0 Rectangle with rounded corners*
0 $1 Rounding radius*
0 $2 $3 $4 $5 $6 $7 $8 $9 X,Y pos of 4 corners*
0 Add a 4 corners polygon primitive as box body*
4,1,4,$2,$3,$4,$5,$6,$7,$8,$9,$2,$3,0*
0 Add four circle primitives for the rounded corners*
1,1,$1+$1,$2,$3*
1,1,$1+$1,$4,$5*
1,1,$1+$1,$6,$7*
1,1,$1+$1,$8,$9*
0 Add four rect primitives between the rounded corners*
20,1,$1+$1,$2,$3,$4,$5,0*
20,1,$1+$1,$4,$5,$6,$7,0*
20,1,$1+$1,$6,$7,$8,$9,0*
20,1,$1+$1,$8,$9,$2,$3,0*%
G04 Aperture macros list end*
%TA.AperFunction,ComponentPad*%
%ADD10R,1.416000X1.416000*%
%TD*%
%TA.AperFunction,ComponentPad*%
%ADD11C,1.416000*%
%TD*%
%TA.AperFunction,ComponentPad*%
%ADD12R,1.800000X1.800000*%
%TD*%
%TA.AperFunction,ComponentPad*%
%ADD13C,1.800000*%
%TD*%
%TA.AperFunction,ComponentPad*%
%ADD14RoundRect,0.250000X-0.600000X-0.725000X0.600000X-0.725000X0.600000X0.725000X-0.600000X0.725000X0*%
%TD*%
%TA.AperFunction,ComponentPad*%
%ADD15O,1.700000X1.950000*%
%TD*%
%TA.AperFunction,ComponentPad*%
%ADD16RoundRect,0.250000X-0.600000X-0.750000X0.600000X-0.750000X0.600000X0.750000X-0.600000X0.750000X0*%
%TD*%
%TA.AperFunction,ComponentPad*%
%ADD17O,1.700000X2.000000*%
%TD*%
%TA.AperFunction,ViaPad*%
%ADD18C,0.600000*%
%TD*%
%TA.AperFunction,Conductor*%
%ADD19C,0.200000*%
%TD*%
G04 APERTURE END LIST*
D10*
%TO.P,Q4,1,C*%
%TO.N,VCC*%
X35270000Y-10500000D03*
D11*
%TO.P,Q4,2,E*%
%TO.N,A1*%
X32730000Y-10500000D03*
%TD*%
D12*
%TO.P,D6,1,K*%
%TO.N,GND*%
X48730000Y-4500000D03*
D13*
%TO.P,D6,2,A*%
%TO.N,Net-(D6-A)*%
X51270000Y-4500000D03*
%TD*%
D10*
%TO.P,Q6,1,C*%
%TO.N,VCC*%
X51270000Y-10500000D03*
D11*
%TO.P,Q6,2,E*%
%TO.N,A3*%
X48730000Y-10500000D03*
%TD*%
D12*
%TO.P,D1,1,K*%
%TO.N,GND*%
X8730000Y-4500000D03*
D13*
%TO.P,D1,2,A*%
%TO.N,Net-(D1-A)*%
X11270000Y-4500000D03*
%TD*%
D12*
%TO.P,D4,1,K*%
%TO.N,GND*%
X32730000Y-4500000D03*
D13*
%TO.P,D4,2,A*%
%TO.N,Net-(D3-A)*%
X35270000Y-4500000D03*
%TD*%
D12*
%TO.P,D8,1,K*%
%TO.N,GND*%
X64730000Y-4500000D03*
D13*
%TO.P,D8,2,A*%
%TO.N,Net-(D8-A)*%
X67270000Y-4500000D03*
%TD*%
D12*
%TO.P,D9,1,K*%
%TO.N,GND*%
X72730000Y-4500000D03*
D13*
%TO.P,D9,2,A*%
%TO.N,Net-(D8-A)*%
X75270000Y-4500000D03*
%TD*%
D10*
%TO.P,Q1,1,C*%
%TO.N,VCC*%
X11270000Y-10500000D03*
D11*
%TO.P,Q1,2,E*%
%TO.N,A0*%
X8730000Y-10500000D03*
%TD*%
D10*
%TO.P,Q5,1,C*%
%TO.N,VCC*%
X43270000Y-10500000D03*
D11*
%TO.P,Q5,2,E*%
%TO.N,A2*%
X40730000Y-10500000D03*
%TD*%
D12*
%TO.P,D7,1,K*%
%TO.N,GND*%
X56730000Y-4500000D03*
D13*
%TO.P,D7,2,A*%
%TO.N,Net-(D6-A)*%
X59270000Y-4500000D03*
%TD*%
D12*
%TO.P,D2,1,K*%
%TO.N,GND*%
X16730000Y-4500000D03*
D13*
%TO.P,D2,2,A*%
%TO.N,Net-(D1-A)*%
X19270000Y-4500000D03*
%TD*%
D12*
%TO.P,D3,1,K*%
%TO.N,GND*%
X24730000Y-4500000D03*
D13*
%TO.P,D3,2,A*%
%TO.N,Net-(D3-A)*%
X27270000Y-4500000D03*
%TD*%
D10*
%TO.P,Q3,1,C*%
%TO.N,VCC*%
X27270000Y-10500000D03*
D11*
%TO.P,Q3,2,E*%
%TO.N,A1*%
X24730000Y-10500000D03*
%TD*%
D10*
%TO.P,Q2,1,C*%
%TO.N,VCC*%
X19270000Y-10500000D03*
D11*
%TO.P,Q2,2,E*%
%TO.N,A0*%
X16730000Y-10500000D03*
%TD*%
D10*
%TO.P,Q8,1,C*%
%TO.N,VCC*%
X67270000Y-10500000D03*
D11*
%TO.P,Q8,2,E*%
%TO.N,A4*%
X64730000Y-10500000D03*
%TD*%
D12*
%TO.P,D5,1,K*%
%TO.N,GND*%
X40730000Y-4500000D03*
D13*
%TO.P,D5,2,A*%
%TO.N,Net-(D5-A)*%
X43270000Y-4500000D03*
%TD*%
D10*
%TO.P,Q7,1,C*%
%TO.N,VCC*%
X59270000Y-10500000D03*
D11*
%TO.P,Q7,2,E*%
%TO.N,A3*%
X56730000Y-10500000D03*
%TD*%
D10*
%TO.P,Q9,1,C*%
%TO.N,VCC*%
X75270000Y-10500000D03*
D11*
%TO.P,Q9,2,E*%
%TO.N,A4*%
X72730000Y-10500000D03*
%TD*%
D14*
%TO.P,J1,1,Pin_1*%
%TO.N,A0*%
X25000000Y-19000000D03*
D15*
%TO.P,J1,2,Pin_2*%
%TO.N,A1*%
X27500000Y-19000000D03*
%TO.P,J1,3,Pin_3*%
%TO.N,A2*%
X30000000Y-19000000D03*
%TO.P,J1,4,Pin_4*%
%TO.N,A3*%
X32500000Y-19000000D03*
%TO.P,J1,5,Pin_5*%
%TO.N,A4*%
X35000000Y-19000000D03*
%TD*%
D16*
%TO.P,J2,1,Pin_1*%
%TO.N,VCC*%
X50000000Y-19000000D03*
D17*
%TO.P,J2,2,Pin_2*%
%TO.N,GND*%
X52500000Y-19000000D03*
%TD*%
D18*
%TO.N,GND*%
X73250000Y-6300000D03*
X63050000Y-6100000D03*
X38200000Y-5420000D03*
%TO.N,A2*%
X33860000Y-14650000D03*
%TD*%
D19*
%TO.N,Net-(D1-A)*%
X11270000Y-4500000D02*
X12470000Y-3300000D01*
X12470000Y-3300000D02*
X18070000Y-3300000D01*
X18070000Y-3300000D02*
X19270000Y-4500000D01*
%TO.N,GND*%
X72730000Y-5780000D02*
X73250000Y-6300000D01*
X72730000Y-4500000D02*
X72730000Y-5780000D01*
%TO.N,Net-(D3-A)*%
X34070000Y-3300000D02*
X35270000Y-4500000D01*
X27270000Y-4500000D02*
X28470000Y-3300000D01*
X28470000Y-3300000D02*
X34070000Y-3300000D01*
%TO.N,Net-(D6-A)*%
X51270000Y-4500000D02*
X52470000Y-3300000D01*
X52470000Y-3300000D02*
X58070000Y-3300000D01*
X58070000Y-3300000D02*
X59270000Y-4500000D01*
%TO.N,Net-(D8-A)*%
X67270000Y-4500000D02*
X68470000Y-3300000D01*
X68470000Y-3300000D02*
X74070000Y-3300000D01*
X74070000Y-3300000D02*
X75270000Y-4500000D01*
%TO.N,A0*%
X15722000Y-11508000D02*
X16730000Y-10500000D01*
X9738000Y-11508000D02*
X15722000Y-11508000D01*
X16730000Y-11801346D02*
X23928654Y-19000000D01*
X8730000Y-10500000D02*
X9738000Y-11508000D01*
X16730000Y-10500000D02*
X16730000Y-11801346D01*
X23928654Y-19000000D02*
X25000000Y-19000000D01*
%TO.N,A1*%
X26000000Y-9230000D02*
X31460000Y-9230000D01*
X32730000Y-13770000D02*
X27500000Y-19000000D01*
X24730000Y-10500000D02*
X26000000Y-9230000D01*
X32730000Y-10500000D02*
X32730000Y-13770000D01*
X24730000Y-10500000D02*
X24520000Y-10710000D01*
X31460000Y-9230000D02*
X32730000Y-10500000D01*
%TO.N,A3*%
X48730000Y-10500000D02*
X49738000Y-11508000D01*
X32500000Y-19000000D02*
X35310000Y-16190000D01*
X55722000Y-11508000D02*
X56155000Y-11075000D01*
X49738000Y-11508000D02*
X55722000Y-11508000D01*
X43040000Y-16190000D02*
X48730000Y-10500000D01*
X35310000Y-16190000D02*
X43040000Y-16190000D01*
X56155000Y-11075000D02*
X56730000Y-10500000D01*
X56155000Y-10845000D02*
X56155000Y-11075000D01*
%TO.N,A4*%
X48140000Y-15340000D02*
X44480000Y-19000000D01*
X71722000Y-11508000D02*
X72730000Y-10500000D01*
X64730000Y-10500000D02*
X65738000Y-11508000D01*
X62765000Y-10500000D02*
X57925000Y-15340000D01*
X44480000Y-19000000D02*
X35000000Y-19000000D01*
X57925000Y-15340000D02*
X48140000Y-15340000D01*
X64730000Y-10500000D02*
X62765000Y-10500000D01*
X65738000Y-11508000D02*
X71722000Y-11508000D01*
%TO.N,A2*%
X38010000Y-10500000D02*
X33860000Y-14650000D01*
X38010000Y-10500000D02*
X40730000Y-10500000D01*
%TD*%
%TA.AperFunction,Conductor*%
%TO.N,GND*%
G36*
X93442539Y-520185D02*
G01*
X93488294Y-572989D01*
X93499500Y-624500D01*
X93499500Y-23375500D01*
X93479815Y-23442539D01*
X93427011Y-23488294D01*
X93375500Y-23499500D01*
X624500Y-23499500D01*
X557461Y-23479815D01*
X511706Y-23427011D01*
X500500Y-23375500D01*
X500500Y-10499998D01*
X7516884Y-10499998D01*
X7516884Y-10500001D01*
X7535313Y-10710649D01*
X7535315Y-10710660D01*
X7590041Y-10914902D01*
X7590043Y-10914906D01*
X7590044Y-10914910D01*
X7635715Y-11012851D01*
X7679410Y-11106556D01*
X7679411Y-11106558D01*
X7800700Y-11279778D01*
X7950221Y-11429299D01*
X7950224Y-11429301D01*
X8123442Y-11550589D01*
X8315090Y-11639956D01*
X8519345Y-11694686D01*
X8669812Y-11707850D01*
X8729998Y-11713116D01*
X8730000Y-11713116D01*
X8730002Y-11713116D01*
X8782784Y-11708498D01*
X8940655Y-11694686D01*
X8977814Y-11684729D01*
X9047663Y-11686392D01*
X9097588Y-11716823D01*
X9253139Y-11872374D01*
X9253149Y-11872385D01*
X9257479Y-11876715D01*
X9257480Y-11876716D01*
X9369284Y-11988520D01*
X9446553Y-12033131D01*
X9506215Y-12067577D01*
X9658942Y-12108500D01*
X9658943Y-12108500D01*
X15635331Y-12108500D01*
X15635347Y-12108501D01*
X15642943Y-12108501D01*
X15801054Y-12108501D01*
X15801057Y-12108501D01*
X15953785Y-12067577D01*
X16013447Y-12033131D01*
X16023785Y-12027162D01*
X16091680Y-12010684D01*
X16157709Y-12033530D01*
X16193177Y-12072542D01*
X16229356Y-12135206D01*
X16249479Y-12170061D01*
X16368349Y-12288931D01*
X16368355Y-12288936D01*
X23443793Y-19364374D01*
X23443803Y-19364385D01*
X23448133Y-19368715D01*
X23448134Y-19368716D01*
X23559938Y-19480520D01*
X23587498Y-19496431D01*
X23635714Y-19546996D01*
X23649500Y-19603818D01*
X23649500Y-19775000D01*
X23649501Y-19775019D01*
X23660000Y-19877796D01*
X23660001Y-19877799D01*
X23715185Y-20044331D01*
X23715186Y-20044334D01*
X23807288Y-20193656D01*
X23931344Y-20317712D01*
X24080666Y-20409814D01*
X24247203Y-20464999D01*
X24349991Y-20475500D01*
X25650008Y-20475499D01*
X25752797Y-20464999D01*
X25919334Y-20409814D01*
X26068656Y-20317712D01*
X26192712Y-20193656D01*
X26284814Y-20044334D01*
X26284814Y-20044331D01*
X26288178Y-20038879D01*
X26340126Y-19992154D01*
X26409088Y-19980931D01*
X26473170Y-20008774D01*
X26481398Y-20016294D01*
X26620213Y-20155109D01*
X26792179Y-20280048D01*
X26792181Y-20280049D01*
X26792184Y-20280051D01*
X26981588Y-20376557D01*
X27183757Y-20442246D01*
X27393713Y-20475500D01*
X27393714Y-20475500D01*
X27606286Y-20475500D01*
X27606287Y-20475500D01*
X27816243Y-20442246D01*
X28018412Y-20376557D01*
X28207816Y-20280051D01*
X28229789Y-20264086D01*
X28379786Y-20155109D01*
X28379788Y-20155106D01*
X28379792Y-20155104D01*
X28530104Y-20004792D01*
X28649683Y-19840204D01*
X28705011Y-19797540D01*
X28774624Y-19791561D01*
X28836420Y-19824166D01*
X28850313Y-19840199D01*
X28952560Y-19980931D01*
X28969896Y-20004792D01*
X29120213Y-20155109D01*
X29292179Y-20280048D01*
X29292181Y-20280049D01*
X29292184Y-20280051D01*
X29481588Y-20376557D01*
X29683757Y-20442246D01*
X29893713Y-20475500D01*
X29893714Y-20475500D01*
X30106286Y-20475500D01*
X30106287Y-20475500D01*
X30316243Y-20442246D01*
X30518412Y-20376557D01*
X30707816Y-20280051D01*
X30729789Y-20264086D01*
X30879786Y-20155109D01*
X30879788Y-20155106D01*
X30879792Y-20155104D01*
X31030104Y-20004792D01*
X31149683Y-19840204D01*
X31205011Y-19797540D01*
X31274624Y-19791561D01*
X31336420Y-19824166D01*
X31350313Y-19840199D01*
X31452560Y-19980931D01*
X31469896Y-20004792D01*
X31620213Y-20155109D01*
X31792179Y-20280048D01*
X31792181Y-20280049D01*
X31792184Y-20280051D01*
X31981588Y-20376557D01*
X32183757Y-20442246D01*
X32393713Y-20475500D01*
X32393714Y-20475500D01*
X32606286Y-20475500D01*
X32606287Y-20475500D01*
X32816243Y-20442246D01*
X33018412Y-20376557D01*
X33207816Y-20280051D01*
X33229789Y-20264086D01*
X33379786Y-20155109D01*
X33379788Y-20155106D01*
X33379792Y-20155104D01*
X33530104Y-20004792D01*
X33649683Y-19840204D01*
X33705011Y-19797540D01*
X33774624Y-19791561D01*
X33836420Y-19824166D01*
X33850313Y-19840199D01*
X33952560Y-19980931D01*
X33969896Y-20004792D01*
X34120213Y-20155109D01*
X34292179Y-20280048D01*
X34292181Y-20280049D01*
X34292184Y-20280051D01*
X34481588Y-20376557D01*
X34683757Y-20442246D01*
X34893713Y-20475500D01*
X34893714Y-20475500D01*
X35106286Y-20475500D01*
X35106287Y-20475500D01*
X35316243Y-20442246D01*
X35518412Y-20376557D01*
X35707816Y-20280051D01*
X35729789Y-20264086D01*
X35879786Y-20155109D01*
X35879788Y-20155106D01*
X35879792Y-20155104D01*
X36030104Y-20004792D01*
X36030106Y-20004788D01*
X36030109Y-20004786D01*
X36155048Y-19832820D01*
X36155047Y-19832820D01*
X36155051Y-19832816D01*
X36238924Y-19668204D01*
X36286898Y-19617409D01*
X36349409Y-19600500D01*
X44393331Y-19600500D01*
X44393347Y-19600501D01*
X44400943Y-19600501D01*
X44559054Y-19600501D01*
X44559057Y-19600501D01*
X44711785Y-19559577D01*
X44761904Y-19530639D01*
X44848716Y-19480520D01*
X44960520Y-19368716D01*
X44960520Y-19368714D01*
X44970728Y-19358507D01*
X44970729Y-19358504D01*
X46129251Y-18199983D01*
X48649500Y-18199983D01*
X48649500Y-19800001D01*
X48649501Y-19800018D01*
X48660000Y-19902796D01*
X48660001Y-19902799D01*
X48685892Y-19980931D01*
X48715186Y-20069334D01*
X48807288Y-20218656D01*
X48931344Y-20342712D01*
X49080666Y-20434814D01*
X49247203Y-20489999D01*
X49349991Y-20500500D01*
X50650008Y-20500499D01*
X50752797Y-20489999D01*
X50919334Y-20434814D01*
X51068656Y-20342712D01*
X51192712Y-20218656D01*
X51284814Y-20069334D01*
X51284814Y-20069331D01*
X51288448Y-20063441D01*
X51340395Y-20016716D01*
X51409358Y-20005493D01*
X51473440Y-20033336D01*
X51481668Y-20040856D01*
X51620535Y-20179723D01*
X51620540Y-20179727D01*
X51792442Y-20304620D01*
X51981782Y-20401095D01*
X52183871Y-20466757D01*
X52250000Y-20477231D01*
X52250000Y-19433012D01*
X52307007Y-19465925D01*
X52434174Y-19500000D01*
X52565826Y-19500000D01*
X52692993Y-19465925D01*
X52750000Y-19433012D01*
X52750000Y-20477230D01*
X52816126Y-20466757D01*
X52816129Y-20466757D01*
X53018217Y-20401095D01*
X53207557Y-20304620D01*
X53379459Y-20179727D01*
X53379464Y-20179723D01*
X53529723Y-20029464D01*
X53529727Y-20029459D01*
X53654620Y-19857557D01*
X53751095Y-19668217D01*
X53816757Y-19466130D01*
X53816757Y-19466127D01*
X53850000Y-19256246D01*
X53850000Y-19250000D01*
X52933012Y-19250000D01*
X52965925Y-19192993D01*
X53000000Y-19065826D01*
X53000000Y-18934174D01*
X52965925Y-18807007D01*
X52933012Y-18750000D01*
X53850000Y-18750000D01*
X53850000Y-18743753D01*
X53816757Y-18533872D01*
X53816757Y-18533869D01*
X53751095Y-18331782D01*
X53654620Y-18142442D01*
X53529727Y-17970540D01*
X53529723Y-17970535D01*
X53379464Y-17820276D01*
X53379459Y-17820272D01*
X53207557Y-17695379D01*
X53018215Y-17598903D01*
X52816124Y-17533241D01*
X52750000Y-17522768D01*
X52750000Y-18566988D01*
X52692993Y-18534075D01*
X52565826Y-18500000D01*
X52434174Y-18500000D01*
X52307007Y-18534075D01*
X52250000Y-18566988D01*
X52250000Y-17522768D01*
X52249999Y-17522768D01*
X52183875Y-17533241D01*
X51981784Y-17598903D01*
X51792442Y-17695379D01*
X51620541Y-17820271D01*
X51481668Y-17959144D01*
X51420345Y-17992628D01*
X51350653Y-17987644D01*
X51294720Y-17945772D01*
X51288448Y-17936558D01*
X51246639Y-17868775D01*
X51192712Y-17781344D01*
X51068656Y-17657288D01*
X50919334Y-17565186D01*
X50752797Y-17510001D01*
X50752795Y-17510000D01*
X50650010Y-17499500D01*
X49349998Y-17499500D01*
X49349981Y-17499501D01*
X49247203Y-17510000D01*
X49247200Y-17510001D01*
X49080668Y-17565185D01*
X49080663Y-17565187D01*
X48931342Y-17657289D01*
X48807289Y-17781342D01*
X48715187Y-17930663D01*
X48715185Y-17930668D01*
X48693797Y-17995213D01*
X48660001Y-18097203D01*
X48660001Y-18097204D01*
X48660000Y-18097204D01*
X48649500Y-18199983D01*
X46129251Y-18199983D01*
X48352417Y-15976819D01*
X48413740Y-15943334D01*
X48440098Y-15940500D01*
X57838331Y-15940500D01*
X57838347Y-15940501D01*
X57845943Y-15940501D01*
X58004054Y-15940501D01*
X58004057Y-15940501D01*
X58156785Y-15899577D01*
X58206904Y-15870639D01*
X58293716Y-15820520D01*
X58405520Y-15708716D01*
X58405520Y-15708714D01*
X58415728Y-15698507D01*
X58415729Y-15698504D01*
X62977417Y-11136819D01*
X63038740Y-11103334D01*
X63065098Y-11100500D01*
X63610619Y-11100500D01*
X63677658Y-11120185D01*
X63712194Y-11153377D01*
X63800700Y-11279778D01*
X63950221Y-11429299D01*
X63950224Y-11429301D01*
X64123442Y-11550589D01*
X64315090Y-11639956D01*
X64519345Y-11694686D01*
X64669812Y-11707850D01*
X64729998Y-11713116D01*
X64730000Y-11713116D01*
X64730002Y-11713116D01*
X64782784Y-11708498D01*
X64940655Y-11694686D01*
X64977814Y-11684729D01*
X65047663Y-11686392D01*
X65097588Y-11716823D01*
X65253139Y-11872374D01*
X65253149Y-11872385D01*
X65257479Y-11876715D01*
X65257480Y-11876716D01*
X65369284Y-11988520D01*
X65446553Y-12033131D01*
X65506215Y-12067577D01*
X65658942Y-12108500D01*
X65658943Y-12108500D01*
X71635331Y-12108500D01*
X71635347Y-12108501D01*
X71642943Y-12108501D01*
X71801054Y-12108501D01*
X71801057Y-12108501D01*
X71953785Y-12067577D01*
X72013447Y-12033131D01*
X72090716Y-11988520D01*
X72202520Y-11876716D01*
X72202520Y-11876714D01*
X72212724Y-11866511D01*
X72212728Y-11866506D01*
X72362412Y-11716821D01*
X72423733Y-11683338D01*
X72482184Y-11684729D01*
X72488391Y-11686392D01*
X72519345Y-11694686D01*
X72669812Y-11707850D01*
X72729998Y-11713116D01*
X72730000Y-11713116D01*
X72730002Y-11713116D01*
X72782784Y-11708498D01*
X72940655Y-11694686D01*
X73144910Y-11639956D01*
X73336558Y-11550589D01*
X73509776Y-11429301D01*
X73659301Y-11279776D01*
X73780589Y-11106558D01*
X73825121Y-11011057D01*
X73871289Y-10958624D01*
X73938482Y-10939471D01*
X74005364Y-10959686D01*
X74050699Y-11012851D01*
X74061500Y-11063466D01*
X74061500Y-11255869D01*
X74061501Y-11255876D01*
X74067908Y-11315483D01*
X74118202Y-11450328D01*
X74118206Y-11450335D01*
X74204452Y-11565544D01*
X74204455Y-11565547D01*
X74319664Y-11651793D01*
X74319671Y-11651797D01*
X74454517Y-11702091D01*
X74454516Y-11702091D01*
X74461444Y-11702835D01*
X74514127Y-11708500D01*
X76025872Y-11708499D01*
X76085483Y-11702091D01*
X76220331Y-11651796D01*
X76335546Y-11565546D01*
X76421796Y-11450331D01*
X76472091Y-11315483D01*
X76478500Y-11255873D01*
X76478499Y-9744128D01*
X76472091Y-9684517D01*
X76421796Y-9549669D01*
X76421795Y-9549668D01*
X76421793Y-9549664D01*
X76335547Y-9434455D01*
X76335544Y-9434452D01*
X76220335Y-9348206D01*
X76220328Y-9348202D01*
X76085482Y-9297908D01*
X76085483Y-9297908D01*
X76025883Y-9291501D01*
X76025881Y-9291500D01*
X76025873Y-9291500D01*
X76025864Y-9291500D01*
X74514129Y-9291500D01*
X74514123Y-9291501D01*
X74454516Y-9297908D01*
X74319671Y-9348202D01*
X74319664Y-9348206D01*
X74204455Y-9434452D01*
X74204452Y-9434455D01*
X74118206Y-9549664D01*
X74118202Y-9549671D01*
X74067908Y-9684517D01*
X74061501Y-9744116D01*
X74061501Y-9744123D01*
X74061500Y-9744135D01*
X74061500Y-9936530D01*
X74041815Y-10003569D01*
X73989011Y-10049324D01*
X73919853Y-10059268D01*
X73856297Y-10030243D01*
X73825118Y-9988935D01*
X73780589Y-9893442D01*
X73659301Y-9720224D01*
X73659299Y-9720221D01*
X73509778Y-9570700D01*
X73336558Y-9449411D01*
X73336556Y-9449410D01*
X73304478Y-9434452D01*
X73144910Y-9360044D01*
X73144906Y-9360043D01*
X73144902Y-9360041D01*
X72940660Y-9305315D01*
X72940656Y-9305314D01*
X72940655Y-9305314D01*
X72940654Y-9305313D01*
X72940649Y-9305313D01*
X72730002Y-9286884D01*
X72729998Y-9286884D01*
X72519350Y-9305313D01*
X72519339Y-9305315D01*
X72315097Y-9360041D01*
X72315088Y-9360045D01*
X72123443Y-9449410D01*
X72123441Y-9449411D01*
X71950221Y-9570700D01*
X71800700Y-9720221D01*
X71679411Y-9893441D01*
X71679410Y-9893443D01*
X71590045Y-10085088D01*
X71590041Y-10085097D01*
X71535315Y-10289339D01*
X71535313Y-10289350D01*
X71516884Y-10499998D01*
X71516884Y-10500001D01*
X71535313Y-10710649D01*
X71535316Y-10710663D01*
X71545270Y-10747814D01*
X71543607Y-10817664D01*
X71513188Y-10867575D01*
X71509595Y-10871169D01*
X71448277Y-10904663D01*
X71421902Y-10907500D01*
X68602500Y-10907500D01*
X68535461Y-10887815D01*
X68489706Y-10835011D01*
X68478500Y-10783500D01*
X68478499Y-9744129D01*
X68478498Y-9744123D01*
X68478497Y-9744116D01*
X68472091Y-9684517D01*
X68421796Y-9549669D01*
X68421795Y-9549668D01*
X68421793Y-9549664D01*
X68335547Y-9434455D01*
X68335544Y-9434452D01*
X68220335Y-9348206D01*
X68220328Y-9348202D01*
X68085482Y-9297908D01*
X68085483Y-9297908D01*
X68025883Y-9291501D01*
X68025881Y-9291500D01*
X68025873Y-9291500D01*
X68025864Y-9291500D01*
X66514129Y-9291500D01*
X66514123Y-9291501D01*
X66454516Y-9297908D01*
X66319671Y-9348202D01*
X66319664Y-9348206D01*
X66204455Y-9434452D01*
X66204452Y-9434455D01*
X66118206Y-9549664D01*
X66118202Y-9549671D01*
X66067908Y-9684517D01*
X66061501Y-9744116D01*
X66061501Y-9744123D01*
X66061500Y-9744135D01*
X66061500Y-9936530D01*
X66041815Y-10003569D01*
X65989011Y-10049324D01*
X65919853Y-10059268D01*
X65856297Y-10030243D01*
X65825118Y-9988935D01*
X65780589Y-9893442D01*
X65659301Y-9720224D01*
X65659299Y-9720221D01*
X65509778Y-9570700D01*
X65336558Y-9449411D01*
X65336556Y-9449410D01*
X65304478Y-9434452D01*
X65144910Y-9360044D01*
X65144906Y-9360043D01*
X65144902Y-9360041D01*
X64940660Y-9305315D01*
X64940656Y-9305314D01*
X64940655Y-9305314D01*
X64940654Y-9305313D01*
X64940649Y-9305313D01*
X64730002Y-9286884D01*
X64729998Y-9286884D01*
X64519350Y-9305313D01*
X64519339Y-9305315D01*
X64315097Y-9360041D01*
X64315088Y-9360045D01*
X64123443Y-9449410D01*
X64123441Y-9449411D01*
X63950221Y-9570700D01*
X63800700Y-9720221D01*
X63712194Y-9846623D01*
X63657618Y-9890248D01*
X63610619Y-9899500D01*
X62851670Y-9899500D01*
X62851654Y-9899499D01*
X62844058Y-9899499D01*
X62685943Y-9899499D01*
X62609579Y-9919961D01*
X62533214Y-9940423D01*
X62533209Y-9940426D01*
X62396290Y-10019475D01*
X62396282Y-10019481D01*
X57712584Y-14703181D01*
X57651261Y-14736666D01*
X57624903Y-14739500D01*
X48226670Y-14739500D01*
X48226654Y-14739499D01*
X48219058Y-14739499D01*
X48060943Y-14739499D01*
X47984579Y-14759961D01*
X47908214Y-14780423D01*
X47908209Y-14780426D01*
X47771290Y-14859475D01*
X47771282Y-14859481D01*
X44267584Y-18363181D01*
X44206261Y-18396666D01*
X44179903Y-18399500D01*
X36349409Y-18399500D01*
X36282370Y-18379815D01*
X36238924Y-18331795D01*
X36155051Y-18167184D01*
X36155049Y-18167181D01*
X36155048Y-18167179D01*
X36030109Y-17995213D01*
X35879786Y-17844890D01*
X35707820Y-17719951D01*
X35518414Y-17623444D01*
X35518413Y-17623443D01*
X35518412Y-17623443D01*
X35316243Y-17557754D01*
X35316241Y-17557753D01*
X35316239Y-17557753D01*
X35103597Y-17524074D01*
X35040462Y-17494145D01*
X35003531Y-17434833D01*
X35004529Y-17364971D01*
X35035314Y-17313920D01*
X35522416Y-16826819D01*
X35583739Y-16793334D01*
X35610097Y-16790500D01*
X42953331Y-16790500D01*
X42953347Y-16790501D01*
X42960943Y-16790501D01*
X43119054Y-16790501D01*
X43119057Y-16790501D01*
X43271785Y-16749577D01*
X43321904Y-16720639D01*
X43408716Y-16670520D01*
X43520520Y-16558716D01*
X43520520Y-16558714D01*
X43530728Y-16548507D01*
X43530730Y-16548504D01*
X48362412Y-11716821D01*
X48423733Y-11683338D01*
X48482184Y-11684729D01*
X48488391Y-11686392D01*
X48519345Y-11694686D01*
X48669812Y-11707850D01*
X48729998Y-11713116D01*
X48730000Y-11713116D01*
X48730002Y-11713116D01*
X48782784Y-11708498D01*
X48940655Y-11694686D01*
X48977814Y-11684729D01*
X49047663Y-11686392D01*
X49097588Y-11716823D01*
X49253139Y-11872374D01*
X49253149Y-11872385D01*
X49257479Y-11876715D01*
X49257480Y-11876716D01*
X49369284Y-11988520D01*
X49446553Y-12033131D01*
X49506215Y-12067577D01*
X49658942Y-12108500D01*
X49658943Y-12108500D01*
X55635331Y-12108500D01*
X55635347Y-12108501D01*
X55642943Y-12108501D01*
X55801054Y-12108501D01*
X55801057Y-12108501D01*
X55953785Y-12067577D01*
X56013447Y-12033131D01*
X56090716Y-11988520D01*
X56202520Y-11876716D01*
X56202520Y-11876714D01*
X56212724Y-11866511D01*
X56212728Y-11866506D01*
X56362412Y-11716821D01*
X56423733Y-11683338D01*
X56482184Y-11684729D01*
X56488391Y-11686392D01*
X56519345Y-11694686D01*
X56669812Y-11707850D01*
X56729998Y-11713116D01*
X56730000Y-11713116D01*
X56730002Y-11713116D01*
X56782784Y-11708498D01*
X56940655Y-11694686D01*
X57144910Y-11639956D01*
X57336558Y-11550589D01*
X57509776Y-11429301D01*
X57659301Y-11279776D01*
X57780589Y-11106558D01*
X57825121Y-11011057D01*
X57871289Y-10958624D01*
X57938482Y-10939471D01*
X58005364Y-10959686D01*
X58050699Y-11012851D01*
X58061500Y-11063466D01*
X58061500Y-11255869D01*
X58061501Y-11255876D01*
X58067908Y-11315483D01*
X58118202Y-11450328D01*
X58118206Y-11450335D01*
X58204452Y-11565544D01*
X58204455Y-11565547D01*
X58319664Y-11651793D01*
X58319671Y-11651797D01*
X58454517Y-11702091D01*
X58454516Y-11702091D01*
X58461444Y-11702835D01*
X58514127Y-11708500D01*
X60025872Y-11708499D01*
X60085483Y-11702091D01*
X60220331Y-11651796D01*
X60335546Y-11565546D01*
X60421796Y-11450331D01*
X60472091Y-11315483D01*
X60478500Y-11255873D01*
X60478499Y-9744128D01*
X60472091Y-9684517D01*
X60421796Y-9549669D01*
X60421795Y-9549668D01*
X60421793Y-9549664D01*
X60335547Y-9434455D01*
X60335544Y-9434452D01*
X60220335Y-9348206D01*
X60220328Y-9348202D01*
X60085482Y-9297908D01*
X60085483Y-9297908D01*
X60025883Y-9291501D01*
X60025881Y-9291500D01*
X60025873Y-9291500D01*
X60025864Y-9291500D01*
X58514129Y-9291500D01*
X58514123Y-9291501D01*
X58454516Y-9297908D01*
X58319671Y-9348202D01*
X58319664Y-9348206D01*
X58204455Y-9434452D01*
X58204452Y-9434455D01*
X58118206Y-9549664D01*
X58118202Y-9549671D01*
X58067908Y-9684517D01*
X58061501Y-9744116D01*
X58061501Y-9744123D01*
X58061500Y-9744135D01*
X58061500Y-9936530D01*
X58041815Y-10003569D01*
X57989011Y-10049324D01*
X57919853Y-10059268D01*
X57856297Y-10030243D01*
X57825118Y-9988935D01*
X57780589Y-9893442D01*
X57659301Y-9720224D01*
X57659299Y-9720221D01*
X57509778Y-9570700D01*
X57336558Y-9449411D01*
X57336556Y-9449410D01*
X57304478Y-9434452D01*
X57144910Y-9360044D01*
X57144906Y-9360043D01*
X57144902Y-9360041D01*
X56940660Y-9305315D01*
X56940656Y-9305314D01*
X56940655Y-9305314D01*
X56940654Y-9305313D01*
X56940649Y-9305313D01*
X56730002Y-9286884D01*
X56729998Y-9286884D01*
X56519350Y-9305313D01*
X56519339Y-9305315D01*
X56315097Y-9360041D01*
X56315088Y-9360045D01*
X56123443Y-9449410D01*
X56123441Y-9449411D01*
X55950221Y-9570700D01*
X55800700Y-9720221D01*
X55679411Y-9893441D01*
X55679410Y-9893443D01*
X55590045Y-10085088D01*
X55590041Y-10085097D01*
X55535315Y-10289339D01*
X55535313Y-10289350D01*
X55516884Y-10499998D01*
X55516884Y-10500001D01*
X55535313Y-10710649D01*
X55535316Y-10710666D01*
X55545270Y-10747816D01*
X55543606Y-10817665D01*
X55513188Y-10867576D01*
X55509596Y-10871169D01*
X55448278Y-10904663D01*
X55421903Y-10907500D01*
X52602500Y-10907500D01*
X52535461Y-10887815D01*
X52489706Y-10835011D01*
X52478500Y-10783500D01*
X52478499Y-9744129D01*
X52478498Y-9744123D01*
X52478497Y-9744116D01*
X52472091Y-9684517D01*
X52421796Y-9549669D01*
X52421795Y-9549668D01*
X52421793Y-9549664D01*
X52335547Y-9434455D01*
X52335544Y-9434452D01*
X52220335Y-9348206D01*
X52220328Y-9348202D01*
X52085482Y-9297908D01*
X52085483Y-9297908D01*
X52025883Y-9291501D01*
X52025881Y-9291500D01*
X52025873Y-9291500D01*
X52025864Y-9291500D01*
X50514129Y-9291500D01*
X50514123Y-9291501D01*
X50454516Y-9297908D01*
X50319671Y-9348202D01*
X50319664Y-9348206D01*
X50204455Y-9434452D01*
X50204452Y-9434455D01*
X50118206Y-9549664D01*
X50118202Y-9549671D01*
X50067908Y-9684517D01*
X50061501Y-9744116D01*
X50061501Y-9744123D01*
X50061500Y-9744135D01*
X50061500Y-9936530D01*
X50041815Y-10003569D01*
X49989011Y-10049324D01*
X49919853Y-10059268D01*
X49856297Y-10030243D01*
X49825118Y-9988935D01*
X49780589Y-9893442D01*
X49659301Y-9720224D01*
X49659299Y-9720221D01*
X49509778Y-9570700D01*
X49336558Y-9449411D01*
X49336556Y-9449410D01*
X49304478Y-9434452D01*
X49144910Y-9360044D01*
X49144906Y-9360043D01*
X49144902Y-9360041D01*
X48940660Y-9305315D01*
X48940656Y-9305314D01*
X48940655Y-9305314D01*
X48940654Y-9305313D01*
X48940649Y-9305313D01*
X48730002Y-9286884D01*
X48729998Y-9286884D01*
X48519350Y-9305313D01*
X48519339Y-9305315D01*
X48315097Y-9360041D01*
X48315088Y-9360045D01*
X48123443Y-9449410D01*
X48123441Y-9449411D01*
X47950221Y-9570700D01*
X47800700Y-9720221D01*
X47679411Y-9893441D01*
X47679410Y-9893443D01*
X47590045Y-10085088D01*
X47590041Y-10085097D01*
X47535315Y-10289339D01*
X47535313Y-10289350D01*
X47516884Y-10499998D01*
X47516884Y-10500001D01*
X47535313Y-10710649D01*
X47535316Y-10710663D01*
X47545270Y-10747814D01*
X47543607Y-10817664D01*
X47513176Y-10867587D01*
X42827584Y-15553181D01*
X42766261Y-15586666D01*
X42739903Y-15589500D01*
X35389057Y-15589500D01*
X35230943Y-15589500D01*
X35078215Y-15630423D01*
X35078214Y-15630423D01*
X35078212Y-15630424D01*
X35078209Y-15630425D01*
X35028096Y-15659359D01*
X35028095Y-15659360D01*
X34984689Y-15684420D01*
X34941285Y-15709479D01*
X34941282Y-15709481D01*
X34829478Y-15821286D01*
X33078867Y-17571896D01*
X33017544Y-17605381D01*
X32952868Y-17602146D01*
X32816240Y-17557753D01*
X32654957Y-17532208D01*
X32606287Y-17524500D01*
X32393713Y-17524500D01*
X32345042Y-17532208D01*
X32183760Y-17557753D01*
X31981585Y-17623444D01*
X31792179Y-17719951D01*
X31620213Y-17844890D01*
X31469894Y-17995209D01*
X31469890Y-17995214D01*
X31350318Y-18159793D01*
X31294989Y-18202459D01*
X31225375Y-18208438D01*
X31163580Y-18175833D01*
X31149682Y-18159793D01*
X31030109Y-17995214D01*
X31030105Y-17995209D01*
X30879786Y-17844890D01*
X30707820Y-17719951D01*
X30518414Y-17623444D01*
X30518413Y-17623443D01*
X30518412Y-17623443D01*
X30316243Y-17557754D01*
X30316241Y-17557753D01*
X30316240Y-17557753D01*
X30161475Y-17533241D01*
X30106287Y-17524500D01*
X30106286Y-17524500D01*
X30103596Y-17524074D01*
X30040461Y-17494145D01*
X30003530Y-17434833D01*
X30004528Y-17364971D01*
X30035311Y-17313922D01*
X32848962Y-14500271D01*
X32910283Y-14466788D01*
X32979975Y-14471772D01*
X33035908Y-14513644D01*
X33060325Y-14579108D01*
X33059861Y-14601837D01*
X33054435Y-14649996D01*
X33054435Y-14650003D01*
X33074630Y-14829249D01*
X33074631Y-14829254D01*
X33134211Y-14999523D01*
X33230184Y-15152262D01*
X33357738Y-15279816D01*
X33510478Y-15375789D01*
X33680745Y-15435368D01*
X33680750Y-15435369D01*
X33859996Y-15455565D01*
X33860000Y-15455565D01*
X33860004Y-15455565D01*
X34039249Y-15435369D01*
X34039252Y-15435368D01*
X34039255Y-15435368D01*
X34209522Y-15375789D01*
X34362262Y-15279816D01*
X34489816Y-15152262D01*
X34585789Y-14999522D01*
X34645368Y-14829255D01*
X34655161Y-14742329D01*
X34682226Y-14677918D01*
X34690690Y-14668543D01*
X38222416Y-11136819D01*
X38283739Y-11103334D01*
X38310097Y-11100500D01*
X39610619Y-11100500D01*
X39677658Y-11120185D01*
X39712194Y-11153377D01*
X39800700Y-11279778D01*
X39950221Y-11429299D01*
X39950224Y-11429301D01*
X40123442Y-11550589D01*
X40315090Y-11639956D01*
X40519345Y-11694686D01*
X40669812Y-11707850D01*
X40729998Y-11713116D01*
X40730000Y-11713116D01*
X40730002Y-11713116D01*
X40782784Y-11708498D01*
X40940655Y-11694686D01*
X41144910Y-11639956D01*
X41336558Y-11550589D01*
X41509776Y-11429301D01*
X41659301Y-11279776D01*
X41780589Y-11106558D01*
X41825121Y-11011057D01*
X41871289Y-10958624D01*
X41938482Y-10939471D01*
X42005364Y-10959686D01*
X42050699Y-11012851D01*
X42061500Y-11063466D01*
X42061500Y-11255869D01*
X42061501Y-11255876D01*
X42067908Y-11315483D01*
X42118202Y-11450328D01*
X42118206Y-11450335D01*
X42204452Y-11565544D01*
X42204455Y-11565547D01*
X42319664Y-11651793D01*
X42319671Y-11651797D01*
X42454517Y-11702091D01*
X42454516Y-11702091D01*
X42461444Y-11702835D01*
X42514127Y-11708500D01*
X44025872Y-11708499D01*
X44085483Y-11702091D01*
X44220331Y-11651796D01*
X44335546Y-11565546D01*
X44421796Y-11450331D01*
X44472091Y-11315483D01*
X44478500Y-11255873D01*
X44478499Y-9744128D01*
X44472091Y-9684517D01*
X44421796Y-9549669D01*
X44421795Y-9549668D01*
X44421793Y-9549664D01*
X44335547Y-9434455D01*
X44335544Y-9434452D01*
X44220335Y-9348206D01*
X44220328Y-9348202D01*
X44085482Y-9297908D01*
X44085483Y-9297908D01*
X44025883Y-9291501D01*
X44025881Y-9291500D01*
X44025873Y-9291500D01*
X44025864Y-9291500D01*
X42514129Y-9291500D01*
X42514123Y-9291501D01*
X42454516Y-9297908D01*
X42319671Y-9348202D01*
X42319664Y-9348206D01*
X42204455Y-9434452D01*
X42204452Y-9434455D01*
X42118206Y-9549664D01*
X42118202Y-9549671D01*
X42067908Y-9684517D01*
X42061501Y-9744116D01*
X42061501Y-9744123D01*
X42061500Y-9744135D01*
X42061500Y-9936530D01*
X42041815Y-10003569D01*
X41989011Y-10049324D01*
X41919853Y-10059268D01*
X41856297Y-10030243D01*
X41825118Y-9988935D01*
X41780589Y-9893442D01*
X41659301Y-9720224D01*
X41659299Y-9720221D01*
X41509778Y-9570700D01*
X41336558Y-9449411D01*
X41336556Y-9449410D01*
X41304478Y-9434452D01*
X41144910Y-9360044D01*
X41144906Y-9360043D01*
X41144902Y-9360041D01*
X40940660Y-9305315D01*
X40940656Y-9305314D01*
X40940655Y-9305314D01*
X40940654Y-9305313D01*
X40940649Y-9305313D01*
X40730002Y-9286884D01*
X40729998Y-9286884D01*
X40519350Y-9305313D01*
X40519339Y-9305315D01*
X40315097Y-9360041D01*
X40315088Y-9360045D01*
X40123443Y-9449410D01*
X40123441Y-9449411D01*
X39950221Y-9570700D01*
X39800700Y-9720221D01*
X39712194Y-9846623D01*
X39657618Y-9890248D01*
X39610619Y-9899500D01*
X38089057Y-9899500D01*
X37930942Y-9899500D01*
X37778215Y-9940423D01*
X37778214Y-9940423D01*
X37778212Y-9940424D01*
X37778209Y-9940425D01*
X37728096Y-9969359D01*
X37728095Y-9969360D01*
X37694190Y-9988935D01*
X37641285Y-10019479D01*
X37641282Y-10019481D01*
X36690180Y-10970584D01*
X36628857Y-11004069D01*
X36559165Y-10999085D01*
X36503232Y-10957213D01*
X36478815Y-10891749D01*
X36478499Y-10882903D01*
X36478499Y-9744129D01*
X36478498Y-9744123D01*
X36478497Y-9744116D01*
X36472091Y-9684517D01*
X36421796Y-9549669D01*
X36421795Y-9549668D01*
X36421793Y-9549664D01*
X36335547Y-9434455D01*
X36335544Y-9434452D01*
X36220335Y-9348206D01*
X36220328Y-9348202D01*
X36085482Y-9297908D01*
X36085483Y-9297908D01*
X36025883Y-9291501D01*
X36025881Y-9291500D01*
X36025873Y-9291500D01*
X36025864Y-9291500D01*
X34514129Y-9291500D01*
X34514123Y-9291501D01*
X34454516Y-9297908D01*
X34319671Y-9348202D01*
X34319664Y-9348206D01*
X34204455Y-9434452D01*
X34204452Y-9434455D01*
X34118206Y-9549664D01*
X34118202Y-9549671D01*
X34067908Y-9684517D01*
X34061501Y-9744116D01*
X34061501Y-9744123D01*
X34061500Y-9744135D01*
X34061500Y-9936530D01*
X34041815Y-10003569D01*
X33989011Y-10049324D01*
X33919853Y-10059268D01*
X33856297Y-10030243D01*
X33825118Y-9988935D01*
X33780589Y-9893442D01*
X33659301Y-9720224D01*
X33659299Y-9720221D01*
X33509778Y-9570700D01*
X33336558Y-9449411D01*
X33336556Y-9449410D01*
X33304478Y-9434452D01*
X33144910Y-9360044D01*
X33144906Y-9360043D01*
X33144902Y-9360041D01*
X32940660Y-9305315D01*
X32940656Y-9305314D01*
X32940655Y-9305314D01*
X32940654Y-9305313D01*
X32940649Y-9305313D01*
X32730002Y-9286884D01*
X32729999Y-9286884D01*
X32519350Y-9305313D01*
X32519341Y-9305315D01*
X32482182Y-9315271D01*
X32412332Y-9313606D01*
X32362411Y-9283176D01*
X31947590Y-8868355D01*
X31947588Y-8868352D01*
X31828717Y-8749481D01*
X31828716Y-8749480D01*
X31741904Y-8699360D01*
X31741904Y-8699359D01*
X31741900Y-8699358D01*
X31691785Y-8670423D01*
X31539057Y-8629499D01*
X31380943Y-8629499D01*
X31373347Y-8629499D01*
X31373331Y-8629500D01*
X26079057Y-8629500D01*
X25920942Y-8629500D01*
X25768215Y-8670423D01*
X25768214Y-8670423D01*
X25768212Y-8670424D01*
X25768209Y-8670425D01*
X25718096Y-8699359D01*
X25718095Y-8699360D01*
X25674689Y-8724420D01*
X25631285Y-8749479D01*
X25631282Y-8749481D01*
X25519478Y-8861286D01*
X25097587Y-9283176D01*
X25036264Y-9316661D01*
X24977814Y-9315270D01*
X24940663Y-9305316D01*
X24940660Y-9305315D01*
X24940655Y-9305314D01*
X24940652Y-9305313D01*
X24940649Y-9305313D01*
X24730002Y-9286884D01*
X24729998Y-9286884D01*
X24519350Y-9305313D01*
X24519339Y-9305315D01*
X24315097Y-9360041D01*
X24315088Y-9360045D01*
X24123443Y-9449410D01*
X24123441Y-9449411D01*
X23950221Y-9570700D01*
X23800700Y-9720221D01*
X23679411Y-9893441D01*
X23679410Y-9893443D01*
X23590045Y-10085088D01*
X23590041Y-10085097D01*
X23535315Y-10289339D01*
X23535313Y-10289350D01*
X23516884Y-10499998D01*
X23516884Y-10500001D01*
X23535313Y-10710649D01*
X23535315Y-10710660D01*
X23590041Y-10914902D01*
X23590043Y-10914906D01*
X23590044Y-10914910D01*
X23635715Y-11012851D01*
X23679410Y-11106556D01*
X23679411Y-11106558D01*
X23800700Y-11279778D01*
X23950221Y-11429299D01*
X23950224Y-11429301D01*
X24123442Y-11550589D01*
X24315090Y-11639956D01*
X24519345Y-11694686D01*
X24669812Y-11707850D01*
X24729998Y-11713116D01*
X24730000Y-11713116D01*
X24730002Y-11713116D01*
X24782784Y-11708498D01*
X24940655Y-11694686D01*
X25144910Y-11639956D01*
X25336558Y-11550589D01*
X25509776Y-11429301D01*
X25659301Y-11279776D01*
X25780589Y-11106558D01*
X25825119Y-11011062D01*
X25871290Y-10958624D01*
X25938483Y-10939472D01*
X26005364Y-10959687D01*
X26050699Y-11012852D01*
X26061500Y-11063467D01*
X26061500Y-11255869D01*
X26061501Y-11255876D01*
X26067908Y-11315483D01*
X26118202Y-11450328D01*
X26118206Y-11450335D01*
X26204452Y-11565544D01*
X26204455Y-11565547D01*
X26319664Y-11651793D01*
X26319671Y-11651797D01*
X26454517Y-11702091D01*
X26454516Y-11702091D01*
X26461444Y-11702835D01*
X26514127Y-11708500D01*
X28025872Y-11708499D01*
X28085483Y-11702091D01*
X28220331Y-11651796D01*
X28335546Y-11565546D01*
X28421796Y-11450331D01*
X28472091Y-11315483D01*
X28478500Y-11255873D01*
X28478499Y-9954499D01*
X28498184Y-9887461D01*
X28550987Y-9841706D01*
X28602499Y-9830500D01*
X31159903Y-9830500D01*
X31226942Y-9850185D01*
X31247584Y-9866819D01*
X31513176Y-10132411D01*
X31546661Y-10193734D01*
X31545271Y-10252182D01*
X31535315Y-10289341D01*
X31535313Y-10289350D01*
X31516884Y-10499999D01*
X31516884Y-10500001D01*
X31535313Y-10710649D01*
X31535315Y-10710660D01*
X31590041Y-10914902D01*
X31590043Y-10914906D01*
X31590044Y-10914910D01*
X31635715Y-11012851D01*
X31679410Y-11106556D01*
X31679411Y-11106558D01*
X31800700Y-11279778D01*
X31950220Y-11429298D01*
X31950223Y-11429300D01*
X31950224Y-11429301D01*
X32076624Y-11517807D01*
X32120248Y-11572381D01*
X32129500Y-11619380D01*
X32129500Y-13469902D01*
X32109815Y-13536941D01*
X32093181Y-13557583D01*
X28078867Y-17571896D01*
X28017544Y-17605381D01*
X27952868Y-17602146D01*
X27816240Y-17557753D01*
X27654957Y-17532208D01*
X27606287Y-17524500D01*
X27393713Y-17524500D01*
X27345042Y-17532208D01*
X27183760Y-17557753D01*
X26981585Y-17623444D01*
X26792179Y-17719951D01*
X26620215Y-17844889D01*
X26481398Y-17983706D01*
X26420075Y-18017190D01*
X26350383Y-18012206D01*
X26294450Y-17970334D01*
X26288178Y-17961120D01*
X26192712Y-17806344D01*
X26068657Y-17682289D01*
X26068656Y-17682288D01*
X25943969Y-17605381D01*
X25919336Y-17590187D01*
X25919331Y-17590185D01*
X25917862Y-17589698D01*
X25752797Y-17535001D01*
X25752795Y-17535000D01*
X25650010Y-17524500D01*
X24349998Y-17524500D01*
X24349981Y-17524501D01*
X24247203Y-17535000D01*
X24247200Y-17535001D01*
X24080668Y-17590185D01*
X24080663Y-17590187D01*
X23931342Y-17682289D01*
X23807287Y-17806344D01*
X23804521Y-17810830D01*
X23752573Y-17857554D01*
X23683610Y-17868775D01*
X23619528Y-17840931D01*
X23611302Y-17833413D01*
X17436300Y-11658411D01*
X17402815Y-11597088D01*
X17407799Y-11527396D01*
X17449671Y-11471463D01*
X17452807Y-11469190D01*
X17509776Y-11429301D01*
X17659301Y-11279776D01*
X17780589Y-11106558D01*
X17825121Y-11011057D01*
X17871289Y-10958624D01*
X17938482Y-10939471D01*
X18005364Y-10959686D01*
X18050699Y-11012851D01*
X18061500Y-11063466D01*
X18061500Y-11255869D01*
X18061501Y-11255876D01*
X18067908Y-11315483D01*
X18118202Y-11450328D01*
X18118206Y-11450335D01*
X18204452Y-11565544D01*
X18204455Y-11565547D01*
X18319664Y-11651793D01*
X18319671Y-11651797D01*
X18454517Y-11702091D01*
X18454516Y-11702091D01*
X18461444Y-11702835D01*
X18514127Y-11708500D01*
X20025872Y-11708499D01*
X20085483Y-11702091D01*
X20220331Y-11651796D01*
X20335546Y-11565546D01*
X20421796Y-11450331D01*
X20472091Y-11315483D01*
X20478500Y-11255873D01*
X20478499Y-9744128D01*
X20472091Y-9684517D01*
X20421796Y-9549669D01*
X20421795Y-9549668D01*
X20421793Y-9549664D01*
X20335547Y-9434455D01*
X20335544Y-9434452D01*
X20220335Y-9348206D01*
X20220328Y-9348202D01*
X20085482Y-9297908D01*
X20085483Y-9297908D01*
X20025883Y-9291501D01*
X20025881Y-9291500D01*
X20025873Y-9291500D01*
X20025864Y-9291500D01*
X18514129Y-9291500D01*
X18514123Y-9291501D01*
X18454516Y-9297908D01*
X18319671Y-9348202D01*
X18319664Y-9348206D01*
X18204455Y-9434452D01*
X18204452Y-9434455D01*
X18118206Y-9549664D01*
X18118202Y-9549671D01*
X18067908Y-9684517D01*
X18061501Y-9744116D01*
X18061501Y-9744123D01*
X18061500Y-9744135D01*
X18061500Y-9936530D01*
X18041815Y-10003569D01*
X17989011Y-10049324D01*
X17919853Y-10059268D01*
X17856297Y-10030243D01*
X17825118Y-9988935D01*
X17780589Y-9893442D01*
X17659301Y-9720224D01*
X17659299Y-9720221D01*
X17509778Y-9570700D01*
X17336558Y-9449411D01*
X17336556Y-9449410D01*
X17304478Y-9434452D01*
X17144910Y-9360044D01*
X17144906Y-9360043D01*
X17144902Y-9360041D01*
X16940660Y-9305315D01*
X16940656Y-9305314D01*
X16940655Y-9305314D01*
X16940654Y-9305313D01*
X16940649Y-9305313D01*
X16730002Y-9286884D01*
X16729998Y-9286884D01*
X16519350Y-9305313D01*
X16519339Y-9305315D01*
X16315097Y-9360041D01*
X16315088Y-9360045D01*
X16123443Y-9449410D01*
X16123441Y-9449411D01*
X15950221Y-9570700D01*
X15800700Y-9720221D01*
X15679411Y-9893441D01*
X15679410Y-9893443D01*
X15590045Y-10085088D01*
X15590041Y-10085097D01*
X15535315Y-10289339D01*
X15535313Y-10289350D01*
X15516884Y-10499998D01*
X15516884Y-10500001D01*
X15535313Y-10710649D01*
X15535316Y-10710663D01*
X15545270Y-10747814D01*
X15543607Y-10817664D01*
X15513188Y-10867575D01*
X15509595Y-10871169D01*
X15448277Y-10904663D01*
X15421902Y-10907500D01*
X12602500Y-10907500D01*
X12535461Y-10887815D01*
X12489706Y-10835011D01*
X12478500Y-10783500D01*
X12478499Y-9744129D01*
X12478498Y-9744123D01*
X12478497Y-9744116D01*
X12472091Y-9684517D01*
X12421796Y-9549669D01*
X12421795Y-9549668D01*
X12421793Y-9549664D01*
X12335547Y-9434455D01*
X12335544Y-9434452D01*
X12220335Y-9348206D01*
X12220328Y-9348202D01*
X12085482Y-9297908D01*
X12085483Y-9297908D01*
X12025883Y-9291501D01*
X12025881Y-9291500D01*
X12025873Y-9291500D01*
X12025864Y-9291500D01*
X10514129Y-9291500D01*
X10514123Y-9291501D01*
X10454516Y-9297908D01*
X10319671Y-9348202D01*
X10319664Y-9348206D01*
X10204455Y-9434452D01*
X10204452Y-9434455D01*
X10118206Y-9549664D01*
X10118202Y-9549671D01*
X10067908Y-9684517D01*
X10061501Y-9744116D01*
X10061501Y-9744123D01*
X10061500Y-9744135D01*
X10061500Y-9936530D01*
X10041815Y-10003569D01*
X9989011Y-10049324D01*
X9919853Y-10059268D01*
X9856297Y-10030243D01*
X9825118Y-9988935D01*
X9780589Y-9893442D01*
X9659301Y-9720224D01*
X9659299Y-9720221D01*
X9509778Y-9570700D01*
X9336558Y-9449411D01*
X9336556Y-9449410D01*
X9304478Y-9434452D01*
X9144910Y-9360044D01*
X9144906Y-9360043D01*
X9144902Y-9360041D01*
X8940660Y-9305315D01*
X8940656Y-9305314D01*
X8940655Y-9305314D01*
X8940654Y-9305313D01*
X8940649Y-9305313D01*
X8730002Y-9286884D01*
X8729998Y-9286884D01*
X8519350Y-9305313D01*
X8519339Y-9305315D01*
X8315097Y-9360041D01*
X8315088Y-9360045D01*
X8123443Y-9449410D01*
X8123441Y-9449411D01*
X7950221Y-9570700D01*
X7800700Y-9720221D01*
X7679411Y-9893441D01*
X7679410Y-9893443D01*
X7590045Y-10085088D01*
X7590041Y-10085097D01*
X7535315Y-10289339D01*
X7535313Y-10289350D01*
X7516884Y-10499998D01*
X500500Y-10499998D01*
X500500Y-3069998D01*
X1044390Y-3069998D01*
X1044390Y-3070001D01*
X1064804Y-3355433D01*
X1125628Y-3635037D01*
X1125630Y-3635043D01*
X1125631Y-3635046D01*
X1224847Y-3901054D01*
X1225635Y-3903166D01*
X1362770Y-4154309D01*
X1362775Y-4154317D01*
X1534254Y-4383387D01*
X1534270Y-4383405D01*
X1736594Y-4585729D01*
X1736612Y-4585745D01*
X1965682Y-4757224D01*
X1965690Y-4757229D01*
X2216833Y-4894364D01*
X2216832Y-4894364D01*
X2216836Y-4894365D01*
X2216839Y-4894367D01*
X2484954Y-4994369D01*
X2484960Y-4994370D01*
X2484962Y-4994371D01*
X2764566Y-5055195D01*
X2764568Y-5055195D01*
X2764572Y-5055196D01*
X3018220Y-5073337D01*
X3049999Y-5075610D01*
X3050000Y-5075610D01*
X3050001Y-5075610D01*
X3078595Y-5073564D01*
X3335428Y-5055196D01*
X3615046Y-4994369D01*
X3883161Y-4894367D01*
X4134315Y-4757226D01*
X4363395Y-4585739D01*
X4565739Y-4383395D01*
X4737226Y-4154315D01*
X4874367Y-3903161D01*
X4974369Y-3635046D01*
X4992401Y-3552155D01*
X7330000Y-3552155D01*
X7330000Y-4250000D01*
X8354722Y-4250000D01*
X8310667Y-4326306D01*
X8280000Y-4440756D01*
X8280000Y-4559244D01*
X8310667Y-4673694D01*
X8354722Y-4750000D01*
X7330000Y-4750000D01*
X7330000Y-5447844D01*
X7336401Y-5507372D01*
X7336403Y-5507379D01*
X7386645Y-5642086D01*
X7386649Y-5642093D01*
X7472809Y-5757187D01*
X7472812Y-5757190D01*
X7587906Y-5843350D01*
X7587913Y-5843354D01*
X7722620Y-5893596D01*
X7722627Y-5893598D01*
X7782155Y-5899999D01*
X7782172Y-5900000D01*
X8480000Y-5900000D01*
X8480000Y-4875277D01*
X8556306Y-4919333D01*
X8670756Y-4950000D01*
X8789244Y-4950000D01*
X8903694Y-4919333D01*
X8980000Y-4875277D01*
X8980000Y-5900000D01*
X9677828Y-5900000D01*
X9677844Y-5899999D01*
X9737372Y-5893598D01*
X9737379Y-5893596D01*
X9872086Y-5843354D01*
X9872093Y-5843350D01*
X9987187Y-5757190D01*
X9987190Y-5757187D01*
X10073350Y-5642093D01*
X10073355Y-5642084D01*
X10102075Y-5565081D01*
X10143945Y-5509147D01*
X10209409Y-5484729D01*
X10277682Y-5499580D01*
X10309484Y-5524428D01*
X10318216Y-5533913D01*
X10318219Y-5533915D01*
X10318222Y-5533918D01*
X10501365Y-5676464D01*
X10501371Y-5676468D01*
X10501374Y-5676470D01*
X10705497Y-5786936D01*
X10819487Y-5826068D01*
X10925015Y-5862297D01*
X10925017Y-5862297D01*
X10925019Y-5862298D01*
X11153951Y-5900500D01*
X11153952Y-5900500D01*
X11386048Y-5900500D01*
X11386049Y-5900500D01*
X11614981Y-5862298D01*
X11834503Y-5786936D01*
X12038626Y-5676470D01*
X12221784Y-5533913D01*
X12378979Y-5363153D01*
X12505924Y-5168849D01*
X12599157Y-4956300D01*
X12656134Y-4731305D01*
X12660908Y-4673694D01*
X12675300Y-4500006D01*
X12675300Y-4499993D01*
X12656135Y-4268702D01*
X12656131Y-4268682D01*
X12611680Y-4093152D01*
X12614304Y-4023332D01*
X12644203Y-3975030D01*
X12682419Y-3936816D01*
X12743743Y-3903333D01*
X12770098Y-3900500D01*
X15206000Y-3900500D01*
X15273039Y-3920185D01*
X15318794Y-3972989D01*
X15330000Y-4024500D01*
X15330000Y-4250000D01*
X16354722Y-4250000D01*
X16310667Y-4326306D01*
X16280000Y-4440756D01*
X16280000Y-4559244D01*
X16310667Y-4673694D01*
X16354722Y-4750000D01*
X15330000Y-4750000D01*
X15330000Y-5447844D01*
X15336401Y-5507372D01*
X15336403Y-5507379D01*
X15386645Y-5642086D01*
X15386649Y-5642093D01*
X15472809Y-5757187D01*
X15472812Y-5757190D01*
X15587906Y-5843350D01*
X15587913Y-5843354D01*
X15722620Y-5893596D01*
X15722627Y-5893598D01*
X15782155Y-5899999D01*
X15782172Y-5900000D01*
X16480000Y-5900000D01*
X16480000Y-4875277D01*
X16556306Y-4919333D01*
X16670756Y-4950000D01*
X16789244Y-4950000D01*
X16903694Y-4919333D01*
X16980000Y-4875277D01*
X16980000Y-5900000D01*
X17677828Y-5900000D01*
X17677844Y-5899999D01*
X17737372Y-5893598D01*
X17737379Y-5893596D01*
X17872086Y-5843354D01*
X17872093Y-5843350D01*
X17987187Y-5757190D01*
X17987190Y-5757187D01*
X18073350Y-5642093D01*
X18073355Y-5642084D01*
X18102075Y-5565081D01*
X18143945Y-5509147D01*
X18209409Y-5484729D01*
X18277682Y-5499580D01*
X18309484Y-5524428D01*
X18318216Y-5533913D01*
X18318219Y-5533915D01*
X18318222Y-5533918D01*
X18501365Y-5676464D01*
X18501371Y-5676468D01*
X18501374Y-5676470D01*
X18705497Y-5786936D01*
X18819487Y-5826068D01*
X18925015Y-5862297D01*
X18925017Y-5862297D01*
X18925019Y-5862298D01*
X19153951Y-5900500D01*
X19153952Y-5900500D01*
X19386048Y-5900500D01*
X19386049Y-5900500D01*
X19614981Y-5862298D01*
X19834503Y-5786936D01*
X20038626Y-5676470D01*
X20221784Y-5533913D01*
X20378979Y-5363153D01*
X20505924Y-5168849D01*
X20599157Y-4956300D01*
X20656134Y-4731305D01*
X20660908Y-4673694D01*
X20675300Y-4500006D01*
X20675300Y-4499993D01*
X20656135Y-4268702D01*
X20656133Y-4268691D01*
X20599157Y-4043699D01*
X20505924Y-3831151D01*
X20378983Y-3636852D01*
X20378980Y-3636849D01*
X20378979Y-3636847D01*
X20301015Y-3552155D01*
X23330000Y-3552155D01*
X23330000Y-4250000D01*
X24354722Y-4250000D01*
X24310667Y-4326306D01*
X24280000Y-4440756D01*
X24280000Y-4559244D01*
X24310667Y-4673694D01*
X24354722Y-4750000D01*
X23330000Y-4750000D01*
X23330000Y-5447844D01*
X23336401Y-5507372D01*
X23336403Y-5507379D01*
X23386645Y-5642086D01*
X23386649Y-5642093D01*
X23472809Y-5757187D01*
X23472812Y-5757190D01*
X23587906Y-5843350D01*
X23587913Y-5843354D01*
X23722620Y-5893596D01*
X23722627Y-5893598D01*
X23782155Y-5899999D01*
X23782172Y-5900000D01*
X24480000Y-5900000D01*
X24480000Y-4875277D01*
X24556306Y-4919333D01*
X24670756Y-4950000D01*
X24789244Y-4950000D01*
X24903694Y-4919333D01*
X24980000Y-4875277D01*
X24980000Y-5900000D01*
X25677828Y-5900000D01*
X25677844Y-5899999D01*
X25737372Y-5893598D01*
X25737379Y-5893596D01*
X25872086Y-5843354D01*
X25872093Y-5843350D01*
X25987187Y-5757190D01*
X25987190Y-5757187D01*
X26073350Y-5642093D01*
X26073355Y-5642084D01*
X26102075Y-5565081D01*
X26143945Y-5509147D01*
X26209409Y-5484729D01*
X26277682Y-5499580D01*
X26309484Y-5524428D01*
X26318216Y-5533913D01*
X26318219Y-5533915D01*
X26318222Y-5533918D01*
X26501365Y-5676464D01*
X26501371Y-5676468D01*
X26501374Y-5676470D01*
X26705497Y-5786936D01*
X26819487Y-5826068D01*
X26925015Y-5862297D01*
X26925017Y-5862297D01*
X26925019Y-5862298D01*
X27153951Y-5900500D01*
X27153952Y-5900500D01*
X27386048Y-5900500D01*
X27386049Y-5900500D01*
X27614981Y-5862298D01*
X27834503Y-5786936D01*
X28038626Y-5676470D01*
X28221784Y-5533913D01*
X28378979Y-5363153D01*
X28505924Y-5168849D01*
X28599157Y-4956300D01*
X28656134Y-4731305D01*
X28660908Y-4673694D01*
X28675300Y-4500006D01*
X28675300Y-4499993D01*
X28656135Y-4268702D01*
X28656131Y-4268682D01*
X28611680Y-4093152D01*
X28614304Y-4023332D01*
X28644203Y-3975030D01*
X28682419Y-3936816D01*
X28743743Y-3903333D01*
X28770098Y-3900500D01*
X31206000Y-3900500D01*
X31273039Y-3920185D01*
X31318794Y-3972989D01*
X31330000Y-4024500D01*
X31330000Y-4250000D01*
X32354722Y-4250000D01*
X32310667Y-4326306D01*
X32280000Y-4440756D01*
X32280000Y-4559244D01*
X32310667Y-4673694D01*
X32354722Y-4750000D01*
X31330000Y-4750000D01*
X31330000Y-5447844D01*
X31336401Y-5507372D01*
X31336403Y-5507379D01*
X31386645Y-5642086D01*
X31386649Y-5642093D01*
X31472809Y-5757187D01*
X31472812Y-5757190D01*
X31587906Y-5843350D01*
X31587913Y-5843354D01*
X31722620Y-5893596D01*
X31722627Y-5893598D01*
X31782155Y-5899999D01*
X31782172Y-5900000D01*
X32480000Y-5900000D01*
X32480000Y-4875277D01*
X32556306Y-4919333D01*
X32670756Y-4950000D01*
X32789244Y-4950000D01*
X32903694Y-4919333D01*
X32980000Y-4875277D01*
X32980000Y-5900000D01*
X33677828Y-5900000D01*
X33677844Y-5899999D01*
X33737372Y-5893598D01*
X33737379Y-5893596D01*
X33872086Y-5843354D01*
X33872093Y-5843350D01*
X33987187Y-5757190D01*
X33987190Y-5757187D01*
X34073350Y-5642093D01*
X34073355Y-5642084D01*
X34102075Y-5565081D01*
X34143945Y-5509147D01*
X34209409Y-5484729D01*
X34277682Y-5499580D01*
X34309484Y-5524428D01*
X34318216Y-5533913D01*
X34318219Y-5533915D01*
X34318222Y-5533918D01*
X34501365Y-5676464D01*
X34501371Y-5676468D01*
X34501374Y-5676470D01*
X34705497Y-5786936D01*
X34819487Y-5826068D01*
X34925015Y-5862297D01*
X34925017Y-5862297D01*
X34925019Y-5862298D01*
X35153951Y-5900500D01*
X35153952Y-5900500D01*
X35386048Y-5900500D01*
X35386049Y-5900500D01*
X35614981Y-5862298D01*
X35834503Y-5786936D01*
X36038626Y-5676470D01*
X36221784Y-5533913D01*
X36378979Y-5363153D01*
X36505924Y-5168849D01*
X36599157Y-4956300D01*
X36656134Y-4731305D01*
X36660908Y-4673694D01*
X36675300Y-4500006D01*
X36675300Y-4499993D01*
X36656135Y-4268702D01*
X36656133Y-4268691D01*
X36599157Y-4043699D01*
X36505924Y-3831151D01*
X36378983Y-3636852D01*
X36378980Y-3636849D01*
X36378979Y-3636847D01*
X36301015Y-3552155D01*
X39330000Y-3552155D01*
X39330000Y-4250000D01*
X40354722Y-4250000D01*
X40310667Y-4326306D01*
X40280000Y-4440756D01*
X40280000Y-4559244D01*
X40310667Y-4673694D01*
X40354722Y-4750000D01*
X39330000Y-4750000D01*
X39330000Y-5447844D01*
X39336401Y-5507372D01*
X39336403Y-5507379D01*
X39386645Y-5642086D01*
X39386649Y-5642093D01*
X39472809Y-5757187D01*
X39472812Y-5757190D01*
X39587906Y-5843350D01*
X39587913Y-5843354D01*
X39722620Y-5893596D01*
X39722627Y-5893598D01*
X39782155Y-5899999D01*
X39782172Y-5900000D01*
X40480000Y-5900000D01*
X40480000Y-4875277D01*
X40556306Y-4919333D01*
X40670756Y-4950000D01*
X40789244Y-4950000D01*
X40903694Y-4919333D01*
X40980000Y-4875277D01*
X40980000Y-5900000D01*
X41677828Y-5900000D01*
X41677844Y-5899999D01*
X41737372Y-5893598D01*
X41737379Y-5893596D01*
X41872086Y-5843354D01*
X41872093Y-5843350D01*
X41987187Y-5757190D01*
X41987190Y-5757187D01*
X42073350Y-5642093D01*
X42073355Y-5642084D01*
X42102075Y-5565081D01*
X42143945Y-5509147D01*
X42209409Y-5484729D01*
X42277682Y-5499580D01*
X42309484Y-5524428D01*
X42318216Y-5533913D01*
X42318219Y-5533915D01*
X42318222Y-5533918D01*
X42501365Y-5676464D01*
X42501371Y-5676468D01*
X42501374Y-5676470D01*
X42705497Y-5786936D01*
X42819487Y-5826068D01*
X42925015Y-5862297D01*
X42925017Y-5862297D01*
X42925019Y-5862298D01*
X43153951Y-5900500D01*
X43153952Y-5900500D01*
X43386048Y-5900500D01*
X43386049Y-5900500D01*
X43614981Y-5862298D01*
X43834503Y-5786936D01*
X44038626Y-5676470D01*
X44221784Y-5533913D01*
X44378979Y-5363153D01*
X44505924Y-5168849D01*
X44599157Y-4956300D01*
X44656134Y-4731305D01*
X44660908Y-4673694D01*
X44675300Y-4500006D01*
X44675300Y-4499993D01*
X44656135Y-4268702D01*
X44656133Y-4268691D01*
X44599157Y-4043699D01*
X44505924Y-3831151D01*
X44378983Y-3636852D01*
X44378980Y-3636849D01*
X44378979Y-3636847D01*
X44301015Y-3552155D01*
X47330000Y-3552155D01*
X47330000Y-4250000D01*
X48354722Y-4250000D01*
X48310667Y-4326306D01*
X48280000Y-4440756D01*
X48280000Y-4559244D01*
X48310667Y-4673694D01*
X48354722Y-4750000D01*
X47330000Y-4750000D01*
X47330000Y-5447844D01*
X47336401Y-5507372D01*
X47336403Y-5507379D01*
X47386645Y-5642086D01*
X47386649Y-5642093D01*
X47472809Y-5757187D01*
X47472812Y-5757190D01*
X47587906Y-5843350D01*
X47587913Y-5843354D01*
X47722620Y-5893596D01*
X47722627Y-5893598D01*
X47782155Y-5899999D01*
X47782172Y-5900000D01*
X48480000Y-5900000D01*
X48480000Y-4875277D01*
X48556306Y-4919333D01*
X48670756Y-4950000D01*
X48789244Y-4950000D01*
X48903694Y-4919333D01*
X48980000Y-4875277D01*
X48980000Y-5900000D01*
X49677828Y-5900000D01*
X49677844Y-5899999D01*
X49737372Y-5893598D01*
X49737379Y-5893596D01*
X49872086Y-5843354D01*
X49872093Y-5843350D01*
X49987187Y-5757190D01*
X49987190Y-5757187D01*
X50073350Y-5642093D01*
X50073355Y-5642084D01*
X50102075Y-5565081D01*
X50143945Y-5509147D01*
X50209409Y-5484729D01*
X50277682Y-5499580D01*
X50309484Y-5524428D01*
X50318216Y-5533913D01*
X50318219Y-5533915D01*
X50318222Y-5533918D01*
X50501365Y-5676464D01*
X50501371Y-5676468D01*
X50501374Y-5676470D01*
X50705497Y-5786936D01*
X50819487Y-5826068D01*
X50925015Y-5862297D01*
X50925017Y-5862297D01*
X50925019Y-5862298D01*
X51153951Y-5900500D01*
X51153952Y-5900500D01*
X51386048Y-5900500D01*
X51386049Y-5900500D01*
X51614981Y-5862298D01*
X51834503Y-5786936D01*
X52038626Y-5676470D01*
X52221784Y-5533913D01*
X52378979Y-5363153D01*
X52505924Y-5168849D01*
X52599157Y-4956300D01*
X52656134Y-4731305D01*
X52660908Y-4673694D01*
X52675300Y-4500006D01*
X52675300Y-4499993D01*
X52656135Y-4268702D01*
X52656131Y-4268682D01*
X52611680Y-4093152D01*
X52614304Y-4023332D01*
X52644203Y-3975030D01*
X52682419Y-3936816D01*
X52743743Y-3903333D01*
X52770098Y-3900500D01*
X55206000Y-3900500D01*
X55273039Y-3920185D01*
X55318794Y-3972989D01*
X55330000Y-4024500D01*
X55330000Y-4250000D01*
X56354722Y-4250000D01*
X56310667Y-4326306D01*
X56280000Y-4440756D01*
X56280000Y-4559244D01*
X56310667Y-4673694D01*
X56354722Y-4750000D01*
X55330000Y-4750000D01*
X55330000Y-5447844D01*
X55336401Y-5507372D01*
X55336403Y-5507379D01*
X55386645Y-5642086D01*
X55386649Y-5642093D01*
X55472809Y-5757187D01*
X55472812Y-5757190D01*
X55587906Y-5843350D01*
X55587913Y-5843354D01*
X55722620Y-5893596D01*
X55722627Y-5893598D01*
X55782155Y-5899999D01*
X55782172Y-5900000D01*
X56480000Y-5900000D01*
X56480000Y-4875277D01*
X56556306Y-4919333D01*
X56670756Y-4950000D01*
X56789244Y-4950000D01*
X56903694Y-4919333D01*
X56980000Y-4875277D01*
X56980000Y-5900000D01*
X57677828Y-5900000D01*
X57677844Y-5899999D01*
X57737372Y-5893598D01*
X57737379Y-5893596D01*
X57872086Y-5843354D01*
X57872093Y-5843350D01*
X57987187Y-5757190D01*
X57987190Y-5757187D01*
X58073350Y-5642093D01*
X58073355Y-5642084D01*
X58102075Y-5565081D01*
X58143945Y-5509147D01*
X58209409Y-5484729D01*
X58277682Y-5499580D01*
X58309484Y-5524428D01*
X58318216Y-5533913D01*
X58318219Y-5533915D01*
X58318222Y-5533918D01*
X58501365Y-5676464D01*
X58501371Y-5676468D01*
X58501374Y-5676470D01*
X58705497Y-5786936D01*
X58819487Y-5826068D01*
X58925015Y-5862297D01*
X58925017Y-5862297D01*
X58925019Y-5862298D01*
X59153951Y-5900500D01*
X59153952Y-5900500D01*
X59386048Y-5900500D01*
X59386049Y-5900500D01*
X59614981Y-5862298D01*
X59834503Y-5786936D01*
X60038626Y-5676470D01*
X60221784Y-5533913D01*
X60378979Y-5363153D01*
X60505924Y-5168849D01*
X60599157Y-4956300D01*
X60656134Y-4731305D01*
X60660908Y-4673694D01*
X60675300Y-4500006D01*
X60675300Y-4499993D01*
X60656135Y-4268702D01*
X60656133Y-4268691D01*
X60599157Y-4043699D01*
X60505924Y-3831151D01*
X60378983Y-3636852D01*
X60378980Y-3636849D01*
X60378979Y-3636847D01*
X60301015Y-3552155D01*
X63330000Y-3552155D01*
X63330000Y-4250000D01*
X64354722Y-4250000D01*
X64310667Y-4326306D01*
X64280000Y-4440756D01*
X64280000Y-4559244D01*
X64310667Y-4673694D01*
X64354722Y-4750000D01*
X63330000Y-4750000D01*
X63330000Y-5447844D01*
X63336401Y-5507372D01*
X63336403Y-5507379D01*
X63386645Y-5642086D01*
X63386649Y-5642093D01*
X63472809Y-5757187D01*
X63472812Y-5757190D01*
X63587906Y-5843350D01*
X63587913Y-5843354D01*
X63722620Y-5893596D01*
X63722627Y-5893598D01*
X63782155Y-5899999D01*
X63782172Y-5900000D01*
X64480000Y-5900000D01*
X64480000Y-4875277D01*
X64556306Y-4919333D01*
X64670756Y-4950000D01*
X64789244Y-4950000D01*
X64903694Y-4919333D01*
X64980000Y-4875277D01*
X64980000Y-5900000D01*
X65677828Y-5900000D01*
X65677844Y-5899999D01*
X65737372Y-5893598D01*
X65737379Y-5893596D01*
X65872086Y-5843354D01*
X65872093Y-5843350D01*
X65987187Y-5757190D01*
X65987190Y-5757187D01*
X66073350Y-5642093D01*
X66073355Y-5642084D01*
X66102075Y-5565081D01*
X66143945Y-5509147D01*
X66209409Y-5484729D01*
X66277682Y-5499580D01*
X66309484Y-5524428D01*
X66318216Y-5533913D01*
X66318219Y-5533915D01*
X66318222Y-5533918D01*
X66501365Y-5676464D01*
X66501371Y-5676468D01*
X66501374Y-5676470D01*
X66705497Y-5786936D01*
X66819487Y-5826068D01*
X66925015Y-5862297D01*
X66925017Y-5862297D01*
X66925019Y-5862298D01*
X67153951Y-5900500D01*
X67153952Y-5900500D01*
X67386048Y-5900500D01*
X67386049Y-5900500D01*
X67614981Y-5862298D01*
X67834503Y-5786936D01*
X68038626Y-5676470D01*
X68221784Y-5533913D01*
X68378979Y-5363153D01*
X68505924Y-5168849D01*
X68599157Y-4956300D01*
X68656134Y-4731305D01*
X68660908Y-4673694D01*
X68675300Y-4500006D01*
X68675300Y-4499993D01*
X68656135Y-4268702D01*
X68656131Y-4268682D01*
X68611680Y-4093152D01*
X68614304Y-4023332D01*
X68644203Y-3975030D01*
X68682419Y-3936816D01*
X68743743Y-3903333D01*
X68770098Y-3900500D01*
X71206000Y-3900500D01*
X71273039Y-3920185D01*
X71318794Y-3972989D01*
X71330000Y-4024500D01*
X71330000Y-4250000D01*
X72354722Y-4250000D01*
X72310667Y-4326306D01*
X72280000Y-4440756D01*
X72280000Y-4559244D01*
X72310667Y-4673694D01*
X72354722Y-4750000D01*
X71330000Y-4750000D01*
X71330000Y-5447844D01*
X71336401Y-5507372D01*
X71336403Y-5507379D01*
X71386645Y-5642086D01*
X71386649Y-5642093D01*
X71472809Y-5757187D01*
X71472812Y-5757190D01*
X71587906Y-5843350D01*
X71587913Y-5843354D01*
X71722620Y-5893596D01*
X71722627Y-5893598D01*
X71782155Y-5899999D01*
X71782172Y-5900000D01*
X72480000Y-5900000D01*
X72480000Y-4875277D01*
X72556306Y-4919333D01*
X72670756Y-4950000D01*
X72789244Y-4950000D01*
X72903694Y-4919333D01*
X72980000Y-4875277D01*
X72980000Y-5900000D01*
X73677828Y-5900000D01*
X73677844Y-5899999D01*
X73737372Y-5893598D01*
X73737379Y-5893596D01*
X73872086Y-5843354D01*
X73872093Y-5843350D01*
X73987187Y-5757190D01*
X73987190Y-5757187D01*
X74073350Y-5642093D01*
X74073355Y-5642084D01*
X74102075Y-5565081D01*
X74143945Y-5509147D01*
X74209409Y-5484729D01*
X74277682Y-5499580D01*
X74309484Y-5524428D01*
X74318216Y-5533913D01*
X74318219Y-5533915D01*
X74318222Y-5533918D01*
X74501365Y-5676464D01*
X74501371Y-5676468D01*
X74501374Y-5676470D01*
X74705497Y-5786936D01*
X74819487Y-5826068D01*
X74925015Y-5862297D01*
X74925017Y-5862297D01*
X74925019Y-5862298D01*
X75153951Y-5900500D01*
X75153952Y-5900500D01*
X75386048Y-5900500D01*
X75386049Y-5900500D01*
X75614981Y-5862298D01*
X75834503Y-5786936D01*
X76038626Y-5676470D01*
X76221784Y-5533913D01*
X76378979Y-5363153D01*
X76505924Y-5168849D01*
X76599157Y-4956300D01*
X76656134Y-4731305D01*
X76660908Y-4673694D01*
X76675300Y-4500006D01*
X76675300Y-4499993D01*
X76656135Y-4268702D01*
X76656133Y-4268691D01*
X76599157Y-4043699D01*
X76505924Y-3831151D01*
X76378983Y-3636852D01*
X76378980Y-3636849D01*
X76378979Y-3636847D01*
X76221784Y-3466087D01*
X76221779Y-3466083D01*
X76221777Y-3466081D01*
X76038634Y-3323535D01*
X76038628Y-3323531D01*
X75834504Y-3213064D01*
X75834495Y-3213061D01*
X75614984Y-3137702D01*
X75427404Y-3106401D01*
X75386049Y-3099500D01*
X75153951Y-3099500D01*
X75115795Y-3105867D01*
X74925014Y-3137702D01*
X74873098Y-3155524D01*
X74803300Y-3158672D01*
X74745158Y-3125923D01*
X74689233Y-3069998D01*
X89044390Y-3069998D01*
X89044390Y-3070001D01*
X89064804Y-3355433D01*
X89125628Y-3635037D01*
X89125630Y-3635043D01*
X89125631Y-3635046D01*
X89224847Y-3901054D01*
X89225635Y-3903166D01*
X89362770Y-4154309D01*
X89362775Y-4154317D01*
X89534254Y-4383387D01*
X89534270Y-4383405D01*
X89736594Y-4585729D01*
X89736612Y-4585745D01*
X89965682Y-4757224D01*
X89965690Y-4757229D01*
X90216833Y-4894364D01*
X90216832Y-4894364D01*
X90216836Y-4894365D01*
X90216839Y-4894367D01*
X90484954Y-4994369D01*
X90484960Y-4994370D01*
X90484962Y-4994371D01*
X90764566Y-5055195D01*
X90764568Y-5055195D01*
X90764572Y-5055196D01*
X91018220Y-5073337D01*
X91049999Y-5075610D01*
X91050000Y-5075610D01*
X91050001Y-5075610D01*
X91078595Y-5073564D01*
X91335428Y-5055196D01*
X91615046Y-4994369D01*
X91883161Y-4894367D01*
X92134315Y-4757226D01*
X92363395Y-4585739D01*
X92565739Y-4383395D01*
X92737226Y-4154315D01*
X92874367Y-3903161D01*
X92974369Y-3635046D01*
X92992401Y-3552155D01*
X93035195Y-3355433D01*
X93035195Y-3355432D01*
X93035196Y-3355428D01*
X93055610Y-3070000D01*
X93035196Y-2784572D01*
X93031886Y-2769358D01*
X92974371Y-2504962D01*
X92974370Y-2504960D01*
X92974369Y-2504954D01*
X92874367Y-2236839D01*
X92794025Y-2089705D01*
X92737229Y-1985690D01*
X92737224Y-1985682D01*
X92565745Y-1756612D01*
X92565729Y-1756594D01*
X92363405Y-1554270D01*
X92363387Y-1554254D01*
X92134317Y-1382775D01*
X92134309Y-1382770D01*
X91883166Y-1245635D01*
X91883167Y-1245635D01*
X91775915Y-1205632D01*
X91615046Y-1145631D01*
X91615043Y-1145630D01*
X91615037Y-1145628D01*
X91335433Y-1084804D01*
X91050001Y-1064390D01*
X91049999Y-1064390D01*
X90764566Y-1084804D01*
X90484962Y-1145628D01*
X90216833Y-1245635D01*
X89965690Y-1382770D01*
X89965682Y-1382775D01*
X89736612Y-1554254D01*
X89736594Y-1554270D01*
X89534270Y-1756594D01*
X89534254Y-1756612D01*
X89362775Y-1985682D01*
X89362770Y-1985690D01*
X89225635Y-2236833D01*
X89125628Y-2504962D01*
X89064804Y-2784566D01*
X89044390Y-3069998D01*
X74689233Y-3069998D01*
X74557590Y-2938355D01*
X74557588Y-2938352D01*
X74438717Y-2819481D01*
X74438716Y-2819480D01*
X74351904Y-2769360D01*
X74351904Y-2769359D01*
X74351900Y-2769358D01*
X74301785Y-2740423D01*
X74149057Y-2699499D01*
X73990943Y-2699499D01*
X73983347Y-2699499D01*
X73983331Y-2699500D01*
X68549057Y-2699500D01*
X68390942Y-2699500D01*
X68238215Y-2740423D01*
X68238214Y-2740423D01*
X68238212Y-2740424D01*
X68238209Y-2740425D01*
X68188096Y-2769359D01*
X68188095Y-2769360D01*
X68161747Y-2784572D01*
X68101285Y-2819479D01*
X68101282Y-2819481D01*
X67989478Y-2931286D01*
X67794840Y-3125923D01*
X67733517Y-3159408D01*
X67666898Y-3155524D01*
X67614981Y-3137702D01*
X67427404Y-3106401D01*
X67386049Y-3099500D01*
X67153951Y-3099500D01*
X67112596Y-3106401D01*
X66925015Y-3137702D01*
X66705504Y-3213061D01*
X66705495Y-3213064D01*
X66501371Y-3323531D01*
X66501365Y-3323535D01*
X66318222Y-3466081D01*
X66318215Y-3466087D01*
X66309484Y-3475572D01*
X66249595Y-3511561D01*
X66179757Y-3509458D01*
X66122143Y-3469932D01*
X66102075Y-3434918D01*
X66073355Y-3357915D01*
X66073350Y-3357906D01*
X65987190Y-3242812D01*
X65987187Y-3242809D01*
X65872093Y-3156649D01*
X65872086Y-3156645D01*
X65737379Y-3106403D01*
X65737372Y-3106401D01*
X65677844Y-3100000D01*
X64980000Y-3100000D01*
X64980000Y-4124722D01*
X64903694Y-4080667D01*
X64789244Y-4050000D01*
X64670756Y-4050000D01*
X64556306Y-4080667D01*
X64480000Y-4124722D01*
X64480000Y-3100000D01*
X63782155Y-3100000D01*
X63722627Y-3106401D01*
X63722620Y-3106403D01*
X63587913Y-3156645D01*
X63587906Y-3156649D01*
X63472812Y-3242809D01*
X63472809Y-3242812D01*
X63386649Y-3357906D01*
X63386645Y-3357913D01*
X63336403Y-3492620D01*
X63336401Y-3492627D01*
X63330000Y-3552155D01*
X60301015Y-3552155D01*
X60221784Y-3466087D01*
X60221779Y-3466083D01*
X60221777Y-3466081D01*
X60038634Y-3323535D01*
X60038628Y-3323531D01*
X59834504Y-3213064D01*
X59834495Y-3213061D01*
X59614984Y-3137702D01*
X59427404Y-3106401D01*
X59386049Y-3099500D01*
X59153951Y-3099500D01*
X59115795Y-3105867D01*
X58925014Y-3137702D01*
X58873098Y-3155524D01*
X58803300Y-3158672D01*
X58745158Y-3125923D01*
X58557590Y-2938355D01*
X58557588Y-2938352D01*
X58438717Y-2819481D01*
X58438716Y-2819480D01*
X58351904Y-2769360D01*
X58351904Y-2769359D01*
X58351900Y-2769358D01*
X58301785Y-2740423D01*
X58149057Y-2699499D01*
X57990943Y-2699499D01*
X57983347Y-2699499D01*
X57983331Y-2699500D01*
X52549057Y-2699500D01*
X52390942Y-2699500D01*
X52238215Y-2740423D01*
X52238214Y-2740423D01*
X52238212Y-2740424D01*
X52238209Y-2740425D01*
X52188096Y-2769359D01*
X52188095Y-2769360D01*
X52161747Y-2784572D01*
X52101285Y-2819479D01*
X52101282Y-2819481D01*
X51989478Y-2931286D01*
X51794840Y-3125923D01*
X51733517Y-3159408D01*
X51666898Y-3155524D01*
X51614981Y-3137702D01*
X51427404Y-3106401D01*
X51386049Y-3099500D01*
X51153951Y-3099500D01*
X51112596Y-3106401D01*
X50925015Y-3137702D01*
X50705504Y-3213061D01*
X50705495Y-3213064D01*
X50501371Y-3323531D01*
X50501365Y-3323535D01*
X50318222Y-3466081D01*
X50318215Y-3466087D01*
X50309484Y-3475572D01*
X50249595Y-3511561D01*
X50179757Y-3509458D01*
X50122143Y-3469932D01*
X50102075Y-3434918D01*
X50073355Y-3357915D01*
X50073350Y-3357906D01*
X49987190Y-3242812D01*
X49987187Y-3242809D01*
X49872093Y-3156649D01*
X49872086Y-3156645D01*
X49737379Y-3106403D01*
X49737372Y-3106401D01*
X49677844Y-3100000D01*
X48980000Y-3100000D01*
X48980000Y-4124722D01*
X48903694Y-4080667D01*
X48789244Y-4050000D01*
X48670756Y-4050000D01*
X48556306Y-4080667D01*
X48480000Y-4124722D01*
X48480000Y-3100000D01*
X47782155Y-3100000D01*
X47722627Y-3106401D01*
X47722620Y-3106403D01*
X47587913Y-3156645D01*
X47587906Y-3156649D01*
X47472812Y-3242809D01*
X47472809Y-3242812D01*
X47386649Y-3357906D01*
X47386645Y-3357913D01*
X47336403Y-3492620D01*
X47336401Y-3492627D01*
X47330000Y-3552155D01*
X44301015Y-3552155D01*
X44221784Y-3466087D01*
X44221779Y-3466083D01*
X44221777Y-3466081D01*
X44038634Y-3323535D01*
X44038628Y-3323531D01*
X43834504Y-3213064D01*
X43834495Y-3213061D01*
X43614984Y-3137702D01*
X43427404Y-3106401D01*
X43386049Y-3099500D01*
X43153951Y-3099500D01*
X43112596Y-3106401D01*
X42925015Y-3137702D01*
X42705504Y-3213061D01*
X42705495Y-3213064D01*
X42501371Y-3323531D01*
X42501365Y-3323535D01*
X42318222Y-3466081D01*
X42318215Y-3466087D01*
X42309484Y-3475572D01*
X42249595Y-3511561D01*
X42179757Y-3509458D01*
X42122143Y-3469932D01*
X42102075Y-3434918D01*
X42073355Y-3357915D01*
X42073350Y-3357906D01*
X41987190Y-3242812D01*
X41987187Y-3242809D01*
X41872093Y-3156649D01*
X41872086Y-3156645D01*
X41737379Y-3106403D01*
X41737372Y-3106401D01*
X41677844Y-3100000D01*
X40980000Y-3100000D01*
X40980000Y-4124722D01*
X40903694Y-4080667D01*
X40789244Y-4050000D01*
X40670756Y-4050000D01*
X40556306Y-4080667D01*
X40480000Y-4124722D01*
X40480000Y-3100000D01*
X39782155Y-3100000D01*
X39722627Y-3106401D01*
X39722620Y-3106403D01*
X39587913Y-3156645D01*
X39587906Y-3156649D01*
X39472812Y-3242809D01*
X39472809Y-3242812D01*
X39386649Y-3357906D01*
X39386645Y-3357913D01*
X39336403Y-3492620D01*
X39336401Y-3492627D01*
X39330000Y-3552155D01*
X36301015Y-3552155D01*
X36221784Y-3466087D01*
X36221779Y-3466083D01*
X36221777Y-3466081D01*
X36038634Y-3323535D01*
X36038628Y-3323531D01*
X35834504Y-3213064D01*
X35834495Y-3213061D01*
X35614984Y-3137702D01*
X35427404Y-3106401D01*
X35386049Y-3099500D01*
X35153951Y-3099500D01*
X35115795Y-3105867D01*
X34925014Y-3137702D01*
X34873098Y-3155524D01*
X34803300Y-3158672D01*
X34745158Y-3125923D01*
X34557590Y-2938355D01*
X34557588Y-2938352D01*
X34438717Y-2819481D01*
X34438716Y-2819480D01*
X34351904Y-2769360D01*
X34351904Y-2769359D01*
X34351900Y-2769358D01*
X34301785Y-2740423D01*
X34149057Y-2699499D01*
X33990943Y-2699499D01*
X33983347Y-2699499D01*
X33983331Y-2699500D01*
X28549057Y-2699500D01*
X28390942Y-2699500D01*
X28238215Y-2740423D01*
X28238214Y-2740423D01*
X28238212Y-2740424D01*
X28238209Y-2740425D01*
X28188096Y-2769359D01*
X28188095Y-2769360D01*
X28161747Y-2784572D01*
X28101285Y-2819479D01*
X28101282Y-2819481D01*
X27989478Y-2931286D01*
X27794840Y-3125923D01*
X27733517Y-3159408D01*
X27666898Y-3155524D01*
X27614981Y-3137702D01*
X27427404Y-3106401D01*
X27386049Y-3099500D01*
X27153951Y-3099500D01*
X27112596Y-3106401D01*
X26925015Y-3137702D01*
X26705504Y-3213061D01*
X26705495Y-3213064D01*
X26501371Y-3323531D01*
X26501365Y-3323535D01*
X26318222Y-3466081D01*
X26318215Y-3466087D01*
X26309484Y-3475572D01*
X26249595Y-3511561D01*
X26179757Y-3509458D01*
X26122143Y-3469932D01*
X26102075Y-3434918D01*
X26073355Y-3357915D01*
X26073350Y-3357906D01*
X25987190Y-3242812D01*
X25987187Y-3242809D01*
X25872093Y-3156649D01*
X25872086Y-3156645D01*
X25737379Y-3106403D01*
X25737372Y-3106401D01*
X25677844Y-3100000D01*
X24980000Y-3100000D01*
X24980000Y-4124722D01*
X24903694Y-4080667D01*
X24789244Y-4050000D01*
X24670756Y-4050000D01*
X24556306Y-4080667D01*
X24480000Y-4124722D01*
X24480000Y-3100000D01*
X23782155Y-3100000D01*
X23722627Y-3106401D01*
X23722620Y-3106403D01*
X23587913Y-3156645D01*
X23587906Y-3156649D01*
X23472812Y-3242809D01*
X23472809Y-3242812D01*
X23386649Y-3357906D01*
X23386645Y-3357913D01*
X23336403Y-3492620D01*
X23336401Y-3492627D01*
X23330000Y-3552155D01*
X20301015Y-3552155D01*
X20221784Y-3466087D01*
X20221779Y-3466083D01*
X20221777Y-3466081D01*
X20038634Y-3323535D01*
X20038628Y-3323531D01*
X19834504Y-3213064D01*
X19834495Y-3213061D01*
X19614984Y-3137702D01*
X19427404Y-3106401D01*
X19386049Y-3099500D01*
X19153951Y-3099500D01*
X19115795Y-3105867D01*
X18925014Y-3137702D01*
X18873098Y-3155524D01*
X18803300Y-3158672D01*
X18745158Y-3125923D01*
X18557590Y-2938355D01*
X18557588Y-2938352D01*
X18438717Y-2819481D01*
X18438716Y-2819480D01*
X18351904Y-2769360D01*
X18351904Y-2769359D01*
X18351900Y-2769358D01*
X18301785Y-2740423D01*
X18149057Y-2699499D01*
X17990943Y-2699499D01*
X17983347Y-2699499D01*
X17983331Y-2699500D01*
X12549057Y-2699500D01*
X12390942Y-2699500D01*
X12238215Y-2740423D01*
X12238214Y-2740423D01*
X12238212Y-2740424D01*
X12238209Y-2740425D01*
X12188096Y-2769359D01*
X12188095Y-2769360D01*
X12161747Y-2784572D01*
X12101285Y-2819479D01*
X12101282Y-2819481D01*
X11989478Y-2931286D01*
X11794840Y-3125923D01*
X11733517Y-3159408D01*
X11666898Y-3155524D01*
X11614981Y-3137702D01*
X11427404Y-3106401D01*
X11386049Y-3099500D01*
X11153951Y-3099500D01*
X11112596Y-3106401D01*
X10925015Y-3137702D01*
X10705504Y-3213061D01*
X10705495Y-3213064D01*
X10501371Y-3323531D01*
X10501365Y-3323535D01*
X10318222Y-3466081D01*
X10318215Y-3466087D01*
X10309484Y-3475572D01*
X10249595Y-3511561D01*
X10179757Y-3509458D01*
X10122143Y-3469932D01*
X10102075Y-3434918D01*
X10073355Y-3357915D01*
X10073350Y-3357906D01*
X9987190Y-3242812D01*
X9987187Y-3242809D01*
X9872093Y-3156649D01*
X9872086Y-3156645D01*
X9737379Y-3106403D01*
X9737372Y-3106401D01*
X9677844Y-3100000D01*
X8980000Y-3100000D01*
X8980000Y-4124722D01*
X8903694Y-4080667D01*
X8789244Y-4050000D01*
X8670756Y-4050000D01*
X8556306Y-4080667D01*
X8480000Y-4124722D01*
X8480000Y-3100000D01*
X7782155Y-3100000D01*
X7722627Y-3106401D01*
X7722620Y-3106403D01*
X7587913Y-3156645D01*
X7587906Y-3156649D01*
X7472812Y-3242809D01*
X7472809Y-3242812D01*
X7386649Y-3357906D01*
X7386645Y-3357913D01*
X7336403Y-3492620D01*
X7336401Y-3492627D01*
X7330000Y-3552155D01*
X4992401Y-3552155D01*
X5035195Y-3355433D01*
X5035195Y-3355432D01*
X5035196Y-3355428D01*
X5055610Y-3070000D01*
X5035196Y-2784572D01*
X5031886Y-2769358D01*
X4974371Y-2504962D01*
X4974370Y-2504960D01*
X4974369Y-2504954D01*
X4874367Y-2236839D01*
X4794025Y-2089705D01*
X4737229Y-1985690D01*
X4737224Y-1985682D01*
X4565745Y-1756612D01*
X4565729Y-1756594D01*
X4363405Y-1554270D01*
X4363387Y-1554254D01*
X4134317Y-1382775D01*
X4134309Y-1382770D01*
X3883166Y-1245635D01*
X3883167Y-1245635D01*
X3775915Y-1205632D01*
X3615046Y-1145631D01*
X3615043Y-1145630D01*
X3615037Y-1145628D01*
X3335433Y-1084804D01*
X3050001Y-1064390D01*
X3049999Y-1064390D01*
X2764566Y-1084804D01*
X2484962Y-1145628D01*
X2216833Y-1245635D01*
X1965690Y-1382770D01*
X1965682Y-1382775D01*
X1736612Y-1554254D01*
X1736594Y-1554270D01*
X1534270Y-1756594D01*
X1534254Y-1756612D01*
X1362775Y-1985682D01*
X1362770Y-1985690D01*
X1225635Y-2236833D01*
X1125628Y-2504962D01*
X1064804Y-2784566D01*
X1044390Y-3069998D01*
X500500Y-3069998D01*
X500500Y-624500D01*
X520185Y-557461D01*
X572989Y-511706D01*
X624500Y-500500D01*
X93375500Y-500500D01*
X93442539Y-520185D01*
G37*
%TD.AperFunction*%
%TD*%
M02*
