%TF.GenerationSoftware,KiCad,Pcbnew,8.0.5*%
%TF.CreationDate,2025-10-03T18:55:05+09:00*%
%TF.ProjectId,Line____,4c696e65-bbf3-4b5f-9c2e-6b696361645f,rev?*%
%TF.SameCoordinates,Original*%
%TF.FileFunction,Legend,Bot*%
%TF.FilePolarity,Positive*%
%FSLAX46Y46*%
G04 Gerber Fmt 4.6, Leading zero omitted, Abs format (unit mm)*
G04 Created by KiCad (PCBNEW 8.0.5) date 2025-10-03 18:55:05*
%MOMM*%
%LPD*%
G01*
G04 APERTURE LIST*
%ADD10C,0.150000*%
%ADD11C,0.120000*%
G04 APERTURE END LIST*
D10*
X30333333Y-22004819D02*
X30333333Y-22719104D01*
X30333333Y-22719104D02*
X30380952Y-22861961D01*
X30380952Y-22861961D02*
X30476190Y-22957200D01*
X30476190Y-22957200D02*
X30619047Y-23004819D01*
X30619047Y-23004819D02*
X30714285Y-23004819D01*
X29333333Y-23004819D02*
X29904761Y-23004819D01*
X29619047Y-23004819D02*
X29619047Y-22004819D01*
X29619047Y-22004819D02*
X29714285Y-22147676D01*
X29714285Y-22147676D02*
X29809523Y-22242914D01*
X29809523Y-22242914D02*
X29904761Y-22290533D01*
X51583333Y-22004819D02*
X51583333Y-22719104D01*
X51583333Y-22719104D02*
X51630952Y-22861961D01*
X51630952Y-22861961D02*
X51726190Y-22957200D01*
X51726190Y-22957200D02*
X51869047Y-23004819D01*
X51869047Y-23004819D02*
X51964285Y-23004819D01*
X51154761Y-22100057D02*
X51107142Y-22052438D01*
X51107142Y-22052438D02*
X51011904Y-22004819D01*
X51011904Y-22004819D02*
X50773809Y-22004819D01*
X50773809Y-22004819D02*
X50678571Y-22052438D01*
X50678571Y-22052438D02*
X50630952Y-22100057D01*
X50630952Y-22100057D02*
X50583333Y-22195295D01*
X50583333Y-22195295D02*
X50583333Y-22290533D01*
X50583333Y-22290533D02*
X50630952Y-22433390D01*
X50630952Y-22433390D02*
X51202380Y-23004819D01*
X51202380Y-23004819D02*
X50583333Y-23004819D01*
D11*
%TO.C,R9*%
X56762742Y-7477500D02*
X57237258Y-7477500D01*
X56762742Y-8522500D02*
X57237258Y-8522500D01*
%TO.C,R8*%
X44762742Y-7477500D02*
X45237258Y-7477500D01*
X44762742Y-8522500D02*
X45237258Y-8522500D01*
%TO.C,R5*%
X66762742Y-7477500D02*
X67237258Y-7477500D01*
X66762742Y-8522500D02*
X67237258Y-8522500D01*
%TO.C,R4*%
X50762742Y-7477500D02*
X51237258Y-7477500D01*
X50762742Y-8522500D02*
X51237258Y-8522500D01*
%TO.C,J1*%
X22150000Y-20500000D02*
X22150000Y-21750000D01*
X22150000Y-21750000D02*
X23400000Y-21750000D01*
X22440000Y-15490000D02*
X22440000Y-21460000D01*
X22440000Y-21460000D02*
X37560000Y-21460000D01*
X22450000Y-20700000D02*
X22450000Y-21450000D01*
X22450000Y-21450000D02*
X24250000Y-21450000D01*
X23200000Y-16250000D02*
X23200000Y-19200000D01*
X23200000Y-19200000D02*
X22450000Y-19200000D01*
X24250000Y-20700000D02*
X22450000Y-20700000D01*
X24250000Y-21450000D02*
X24250000Y-20700000D01*
X25750000Y-20700000D02*
X25750000Y-21450000D01*
X25750000Y-21450000D02*
X34250000Y-21450000D01*
X30000000Y-16250000D02*
X23200000Y-16250000D01*
X30000000Y-16250000D02*
X36800000Y-16250000D01*
X34250000Y-20700000D02*
X25750000Y-20700000D01*
X34250000Y-21450000D02*
X34250000Y-20700000D01*
X35750000Y-20700000D02*
X35750000Y-21450000D01*
X35750000Y-21450000D02*
X37550000Y-21450000D01*
X36800000Y-16250000D02*
X36800000Y-19200000D01*
X36800000Y-19200000D02*
X37550000Y-19200000D01*
X37550000Y-20700000D02*
X35750000Y-20700000D01*
X37550000Y-21450000D02*
X37550000Y-20700000D01*
X37560000Y-15490000D02*
X22440000Y-15490000D01*
X37560000Y-21460000D02*
X37560000Y-15490000D01*
%TO.C,R2*%
X26762742Y-7477500D02*
X27237258Y-7477500D01*
X26762742Y-8522500D02*
X27237258Y-8522500D01*
%TO.C,R3*%
X38762742Y-7477500D02*
X39237258Y-7477500D01*
X38762742Y-8522500D02*
X39237258Y-8522500D01*
%TO.C,J2*%
X47150000Y-20500000D02*
X47150000Y-21750000D01*
X47150000Y-21750000D02*
X48400000Y-21750000D01*
X47440000Y-15490000D02*
X47440000Y-21460000D01*
X47440000Y-21460000D02*
X55060000Y-21460000D01*
X47450000Y-20700000D02*
X47450000Y-21450000D01*
X47450000Y-21450000D02*
X49250000Y-21450000D01*
X48200000Y-16250000D02*
X48200000Y-19200000D01*
X48200000Y-19200000D02*
X47450000Y-19200000D01*
X49250000Y-20700000D02*
X47450000Y-20700000D01*
X49250000Y-21450000D02*
X49250000Y-20700000D01*
X50750000Y-20700000D02*
X50750000Y-21450000D01*
X50750000Y-21450000D02*
X51750000Y-21450000D01*
X51250000Y-16250000D02*
X48200000Y-16250000D01*
X51250000Y-16250000D02*
X54300000Y-16250000D01*
X51750000Y-20700000D02*
X50750000Y-20700000D01*
X51750000Y-21450000D02*
X51750000Y-20700000D01*
X53250000Y-20700000D02*
X53250000Y-21450000D01*
X53250000Y-21450000D02*
X55050000Y-21450000D01*
X54300000Y-16250000D02*
X54300000Y-19200000D01*
X54300000Y-19200000D02*
X55050000Y-19200000D01*
X55050000Y-20700000D02*
X53250000Y-20700000D01*
X55050000Y-21450000D02*
X55050000Y-20700000D01*
X55060000Y-15490000D02*
X47440000Y-15490000D01*
X55060000Y-21460000D02*
X55060000Y-15490000D01*
%TO.C,R6*%
X16762742Y-7477500D02*
X17237258Y-7477500D01*
X16762742Y-8522500D02*
X17237258Y-8522500D01*
%TO.C,R7*%
X32762742Y-7477500D02*
X33237258Y-7477500D01*
X32762742Y-8522500D02*
X33237258Y-8522500D01*
%TO.C,R10*%
X73762742Y-7477500D02*
X74237258Y-7477500D01*
X73762742Y-8522500D02*
X74237258Y-8522500D01*
%TO.C,R1*%
X10762742Y-7477500D02*
X11237258Y-7477500D01*
X10762742Y-8522500D02*
X11237258Y-8522500D01*
%TD*%
M02*
