%TF.GenerationSoftware,KiCad,Pcbnew,8.0.5*%
%TF.CreationDate,2025-10-03T18:55:05+09:00*%
%TF.ProjectId,Line____,4c696e65-bbf3-4b5f-9c2e-6b696361645f,rev?*%
%TF.SameCoordinates,Original*%
%TF.FileFunction,Copper,L2,Bot*%
%TF.FilePolarity,Positive*%
%FSLAX46Y46*%
G04 Gerber Fmt 4.6, Leading zero omitted, Abs format (unit mm)*
G04 Created by KiCad (PCBNEW 8.0.5) date 2025-10-03 18:55:05*
%MOMM*%
%LPD*%
G01*
G04 APERTURE LIST*
G04 Aperture macros list*
%AMRoundRect*
0 Rectangle with rounded corners*
0 $1 Rounding radius*
0 $2 $3 $4 $5 $6 $7 $8 $9 X,Y pos of 4 corners*
0 Add a 4 corners polygon primitive as box body*
4,1,4,$2,$3,$4,$5,$6,$7,$8,$9,$2,$3,0*
0 Add four circle primitives for the rounded corners*
1,1,$1+$1,$2,$3*
1,1,$1+$1,$4,$5*
1,1,$1+$1,$6,$7*
1,1,$1+$1,$8,$9*
0 Add four rect primitives between the rounded corners*
20,1,$1+$1,$2,$3,$4,$5,0*
20,1,$1+$1,$4,$5,$6,$7,0*
20,1,$1+$1,$6,$7,$8,$9,0*
20,1,$1+$1,$8,$9,$2,$3,0*%
G04 Aperture macros list end*
%TA.AperFunction,ComponentPad*%
%ADD10R,1.416000X1.416000*%
%TD*%
%TA.AperFunction,ComponentPad*%
%ADD11C,1.416000*%
%TD*%
%TA.AperFunction,ComponentPad*%
%ADD12R,1.800000X1.800000*%
%TD*%
%TA.AperFunction,ComponentPad*%
%ADD13C,1.800000*%
%TD*%
%TA.AperFunction,SMDPad,CuDef*%
%ADD14RoundRect,0.200000X0.200000X0.275000X-0.200000X0.275000X-0.200000X-0.275000X0.200000X-0.275000X0*%
%TD*%
%TA.AperFunction,ComponentPad*%
%ADD15RoundRect,0.250000X-0.600000X-0.725000X0.600000X-0.725000X0.600000X0.725000X-0.600000X0.725000X0*%
%TD*%
%TA.AperFunction,ComponentPad*%
%ADD16O,1.700000X1.950000*%
%TD*%
%TA.AperFunction,ComponentPad*%
%ADD17RoundRect,0.250000X-0.600000X-0.750000X0.600000X-0.750000X0.600000X0.750000X-0.600000X0.750000X0*%
%TD*%
%TA.AperFunction,ComponentPad*%
%ADD18O,1.700000X2.000000*%
%TD*%
%TA.AperFunction,ViaPad*%
%ADD19C,0.600000*%
%TD*%
%TA.AperFunction,Conductor*%
%ADD20C,0.200000*%
%TD*%
%TA.AperFunction,Conductor*%
%ADD21C,0.500000*%
%TD*%
G04 APERTURE END LIST*
D10*
%TO.P,Q4,1,C*%
%TO.N,VCC*%
X35270000Y-10500000D03*
D11*
%TO.P,Q4,2,E*%
%TO.N,A1*%
X32730000Y-10500000D03*
%TD*%
D12*
%TO.P,D6,1,K*%
%TO.N,GND*%
X48730000Y-4500000D03*
D13*
%TO.P,D6,2,A*%
%TO.N,Net-(D6-A)*%
X51270000Y-4500000D03*
%TD*%
D10*
%TO.P,Q6,1,C*%
%TO.N,VCC*%
X51270000Y-10500000D03*
D11*
%TO.P,Q6,2,E*%
%TO.N,A3*%
X48730000Y-10500000D03*
%TD*%
D12*
%TO.P,D1,1,K*%
%TO.N,GND*%
X8730000Y-4500000D03*
D13*
%TO.P,D1,2,A*%
%TO.N,Net-(D1-A)*%
X11270000Y-4500000D03*
%TD*%
D12*
%TO.P,D4,1,K*%
%TO.N,GND*%
X32730000Y-4500000D03*
D13*
%TO.P,D4,2,A*%
%TO.N,Net-(D3-A)*%
X35270000Y-4500000D03*
%TD*%
D12*
%TO.P,D8,1,K*%
%TO.N,GND*%
X64730000Y-4500000D03*
D13*
%TO.P,D8,2,A*%
%TO.N,Net-(D8-A)*%
X67270000Y-4500000D03*
%TD*%
D12*
%TO.P,D9,1,K*%
%TO.N,GND*%
X72730000Y-4500000D03*
D13*
%TO.P,D9,2,A*%
%TO.N,Net-(D8-A)*%
X75270000Y-4500000D03*
%TD*%
D10*
%TO.P,Q1,1,C*%
%TO.N,VCC*%
X11270000Y-10500000D03*
D11*
%TO.P,Q1,2,E*%
%TO.N,A0*%
X8730000Y-10500000D03*
%TD*%
D10*
%TO.P,Q5,1,C*%
%TO.N,VCC*%
X43270000Y-10500000D03*
D11*
%TO.P,Q5,2,E*%
%TO.N,A2*%
X40730000Y-10500000D03*
%TD*%
D12*
%TO.P,D7,1,K*%
%TO.N,GND*%
X56730000Y-4500000D03*
D13*
%TO.P,D7,2,A*%
%TO.N,Net-(D6-A)*%
X59270000Y-4500000D03*
%TD*%
D12*
%TO.P,D2,1,K*%
%TO.N,GND*%
X16730000Y-4500000D03*
D13*
%TO.P,D2,2,A*%
%TO.N,Net-(D1-A)*%
X19270000Y-4500000D03*
%TD*%
D12*
%TO.P,D3,1,K*%
%TO.N,GND*%
X24730000Y-4500000D03*
D13*
%TO.P,D3,2,A*%
%TO.N,Net-(D3-A)*%
X27270000Y-4500000D03*
%TD*%
D10*
%TO.P,Q3,1,C*%
%TO.N,VCC*%
X27270000Y-10500000D03*
D11*
%TO.P,Q3,2,E*%
%TO.N,A1*%
X24730000Y-10500000D03*
%TD*%
D10*
%TO.P,Q2,1,C*%
%TO.N,VCC*%
X19270000Y-10500000D03*
D11*
%TO.P,Q2,2,E*%
%TO.N,A0*%
X16730000Y-10500000D03*
%TD*%
D10*
%TO.P,Q8,1,C*%
%TO.N,VCC*%
X67270000Y-10500000D03*
D11*
%TO.P,Q8,2,E*%
%TO.N,A4*%
X64730000Y-10500000D03*
%TD*%
D12*
%TO.P,D5,1,K*%
%TO.N,GND*%
X40730000Y-4500000D03*
D13*
%TO.P,D5,2,A*%
%TO.N,Net-(D5-A)*%
X43270000Y-4500000D03*
%TD*%
D10*
%TO.P,Q7,1,C*%
%TO.N,VCC*%
X59270000Y-10500000D03*
D11*
%TO.P,Q7,2,E*%
%TO.N,A3*%
X56730000Y-10500000D03*
%TD*%
D10*
%TO.P,Q9,1,C*%
%TO.N,VCC*%
X75270000Y-10500000D03*
D11*
%TO.P,Q9,2,E*%
%TO.N,A4*%
X72730000Y-10500000D03*
%TD*%
D14*
%TO.P,R9,1*%
%TO.N,A3*%
X57825000Y-8000000D03*
%TO.P,R9,2*%
%TO.N,GND*%
X56175000Y-8000000D03*
%TD*%
%TO.P,R8,1*%
%TO.N,A2*%
X45825000Y-8000000D03*
%TO.P,R8,2*%
%TO.N,GND*%
X44175000Y-8000000D03*
%TD*%
%TO.P,R5,1*%
%TO.N,VCC*%
X67825000Y-8000000D03*
%TO.P,R5,2*%
%TO.N,Net-(D8-A)*%
X66175000Y-8000000D03*
%TD*%
%TO.P,R4,1*%
%TO.N,VCC*%
X51825000Y-8000000D03*
%TO.P,R4,2*%
%TO.N,Net-(D6-A)*%
X50175000Y-8000000D03*
%TD*%
D15*
%TO.P,J1,1,Pin_1*%
%TO.N,A0*%
X25000000Y-19000000D03*
D16*
%TO.P,J1,2,Pin_2*%
%TO.N,A1*%
X27500000Y-19000000D03*
%TO.P,J1,3,Pin_3*%
%TO.N,A2*%
X30000000Y-19000000D03*
%TO.P,J1,4,Pin_4*%
%TO.N,A3*%
X32500000Y-19000000D03*
%TO.P,J1,5,Pin_5*%
%TO.N,A4*%
X35000000Y-19000000D03*
%TD*%
D14*
%TO.P,R2,1*%
%TO.N,VCC*%
X27825000Y-8000000D03*
%TO.P,R2,2*%
%TO.N,Net-(D3-A)*%
X26175000Y-8000000D03*
%TD*%
%TO.P,R3,1*%
%TO.N,VCC*%
X39825000Y-8000000D03*
%TO.P,R3,2*%
%TO.N,Net-(D5-A)*%
X38175000Y-8000000D03*
%TD*%
D17*
%TO.P,J2,1,Pin_1*%
%TO.N,VCC*%
X50000000Y-19000000D03*
D18*
%TO.P,J2,2,Pin_2*%
%TO.N,GND*%
X52500000Y-19000000D03*
%TD*%
D14*
%TO.P,R6,1*%
%TO.N,A0*%
X17825000Y-8000000D03*
%TO.P,R6,2*%
%TO.N,GND*%
X16175000Y-8000000D03*
%TD*%
%TO.P,R7,1*%
%TO.N,A1*%
X33825000Y-8000000D03*
%TO.P,R7,2*%
%TO.N,GND*%
X32175000Y-8000000D03*
%TD*%
%TO.P,R10,1*%
%TO.N,A4*%
X74825000Y-8000000D03*
%TO.P,R10,2*%
%TO.N,GND*%
X73175000Y-8000000D03*
%TD*%
%TO.P,R1,1*%
%TO.N,VCC*%
X11825000Y-8000000D03*
%TO.P,R1,2*%
%TO.N,Net-(D1-A)*%
X10175000Y-8000000D03*
%TD*%
D19*
%TO.N,GND*%
X73250000Y-6300000D03*
X63050000Y-6100000D03*
X38200000Y-5420000D03*
%TO.N,A2*%
X33860000Y-14650000D03*
%TD*%
D20*
%TO.N,Net-(D1-A)*%
X11270000Y-4500000D02*
X10160000Y-5610000D01*
X10160000Y-5610000D02*
X10160000Y-7985000D01*
X10160000Y-7985000D02*
X10175000Y-8000000D01*
%TO.N,GND*%
X39120000Y-4500000D02*
X38200000Y-5420000D01*
X64730000Y-4500000D02*
X63130000Y-6100000D01*
X63130000Y-6100000D02*
X63050000Y-6100000D01*
X40730000Y-4500000D02*
X39120000Y-4500000D01*
%TO.N,Net-(D3-A)*%
X27270000Y-6905000D02*
X26175000Y-8000000D01*
X27270000Y-4500000D02*
X27270000Y-6905000D01*
%TO.N,Net-(D5-A)*%
X42070000Y-5700000D02*
X40475000Y-5700000D01*
X43270000Y-4500000D02*
X42070000Y-5700000D01*
X40475000Y-5700000D02*
X38175000Y-8000000D01*
%TO.N,Net-(D6-A)*%
X51270000Y-4500000D02*
X51270000Y-6905000D01*
X51270000Y-6905000D02*
X50175000Y-8000000D01*
%TO.N,Net-(D8-A)*%
X67270000Y-4500000D02*
X67270000Y-6905000D01*
X67270000Y-6905000D02*
X66175000Y-8000000D01*
%TO.N,A0*%
X17825000Y-8000000D02*
X17825000Y-9405000D01*
X17825000Y-9405000D02*
X16730000Y-10500000D01*
D21*
%TO.N,VCC*%
X12428000Y-11658000D02*
X11270000Y-10500000D01*
X67825000Y-8000000D02*
X67825000Y-9945000D01*
X26112000Y-11658000D02*
X27270000Y-10500000D01*
X11260000Y-10490000D02*
X11270000Y-10500000D01*
X59270000Y-10500000D02*
X60428000Y-11658000D01*
X34112000Y-11658000D02*
X35270000Y-10500000D01*
X51825000Y-9945000D02*
X51270000Y-10500000D01*
X74112000Y-11658000D02*
X75270000Y-10500000D01*
X36428000Y-11658000D02*
X39800000Y-11658000D01*
X68428000Y-11658000D02*
X74112000Y-11658000D01*
X52428000Y-11658000D02*
X58112000Y-11658000D01*
X39825000Y-8000000D02*
X38500000Y-9325000D01*
X39598000Y-11658000D02*
X39800000Y-11658000D01*
X11825000Y-8000000D02*
X11260000Y-8565000D01*
X19270000Y-10500000D02*
X20428000Y-11658000D01*
X38500000Y-9325000D02*
X38500000Y-10560000D01*
X51825000Y-8000000D02*
X51825000Y-9945000D01*
X19270000Y-10500000D02*
X18112000Y-11658000D01*
X20428000Y-11658000D02*
X26112000Y-11658000D01*
X58112000Y-11658000D02*
X59270000Y-10500000D01*
X52030000Y-21030000D02*
X50000000Y-19000000D01*
X18112000Y-11658000D02*
X12428000Y-11658000D01*
X67825000Y-9945000D02*
X67270000Y-10500000D01*
X51270000Y-10500000D02*
X52428000Y-11658000D01*
X27825000Y-9945000D02*
X27270000Y-10500000D01*
X28428000Y-11658000D02*
X34112000Y-11658000D01*
X27825000Y-8000000D02*
X27825000Y-9945000D01*
X39800000Y-11658000D02*
X42112000Y-11658000D01*
X67270000Y-10500000D02*
X68428000Y-11658000D01*
X50365000Y-11405000D02*
X51270000Y-10500000D01*
X75270000Y-10500000D02*
X64740000Y-21030000D01*
X38500000Y-10560000D02*
X39598000Y-11658000D01*
X44428000Y-11658000D02*
X50112000Y-11658000D01*
X60428000Y-11658000D02*
X66112000Y-11658000D01*
X35270000Y-10500000D02*
X36428000Y-11658000D01*
X66112000Y-11658000D02*
X67270000Y-10500000D01*
X43270000Y-10500000D02*
X44428000Y-11658000D01*
X11260000Y-8565000D02*
X11260000Y-10490000D01*
X50112000Y-11658000D02*
X50365000Y-11405000D01*
X64740000Y-21030000D02*
X52030000Y-21030000D01*
X27270000Y-10500000D02*
X28428000Y-11658000D01*
X42112000Y-11658000D02*
X43270000Y-10500000D01*
D20*
%TO.N,A1*%
X33825000Y-9405000D02*
X32730000Y-10500000D01*
X33825000Y-8000000D02*
X33825000Y-9405000D01*
%TO.N,A3*%
X57825000Y-8000000D02*
X57825000Y-9405000D01*
X57825000Y-9405000D02*
X56730000Y-10500000D01*
%TO.N,A4*%
X74825000Y-8405000D02*
X72730000Y-10500000D01*
X74825000Y-8000000D02*
X74825000Y-8405000D01*
%TO.N,A2*%
X30000000Y-16120000D02*
X30000000Y-19000000D01*
X31470000Y-14650000D02*
X30000000Y-16120000D01*
X45825000Y-8000000D02*
X44333000Y-9492000D01*
X41738000Y-9492000D02*
X40730000Y-10500000D01*
X44333000Y-9492000D02*
X41738000Y-9492000D01*
X31730000Y-14650000D02*
X33860000Y-14650000D01*
X31470000Y-14650000D02*
X31730000Y-14650000D01*
%TD*%
%TA.AperFunction,Conductor*%
%TO.N,GND*%
G36*
X93442539Y-520185D02*
G01*
X93488294Y-572989D01*
X93499500Y-624500D01*
X93499500Y-23375500D01*
X93479815Y-23442539D01*
X93427011Y-23488294D01*
X93375500Y-23499500D01*
X624500Y-23499500D01*
X557461Y-23479815D01*
X511706Y-23427011D01*
X500500Y-23375500D01*
X500500Y-18224983D01*
X23649500Y-18224983D01*
X23649500Y-19775001D01*
X23649501Y-19775018D01*
X23660000Y-19877796D01*
X23660001Y-19877799D01*
X23715185Y-20044331D01*
X23715187Y-20044336D01*
X23730604Y-20069331D01*
X23807288Y-20193656D01*
X23931344Y-20317712D01*
X24080666Y-20409814D01*
X24247203Y-20464999D01*
X24349991Y-20475500D01*
X25650008Y-20475499D01*
X25752797Y-20464999D01*
X25919334Y-20409814D01*
X26068656Y-20317712D01*
X26192712Y-20193656D01*
X26284814Y-20044334D01*
X26284814Y-20044331D01*
X26288178Y-20038879D01*
X26340126Y-19992154D01*
X26409088Y-19980931D01*
X26473170Y-20008774D01*
X26481398Y-20016294D01*
X26620213Y-20155109D01*
X26792179Y-20280048D01*
X26792181Y-20280049D01*
X26792184Y-20280051D01*
X26981588Y-20376557D01*
X27183757Y-20442246D01*
X27393713Y-20475500D01*
X27393714Y-20475500D01*
X27606286Y-20475500D01*
X27606287Y-20475500D01*
X27816243Y-20442246D01*
X28018412Y-20376557D01*
X28207816Y-20280051D01*
X28258564Y-20243181D01*
X28379786Y-20155109D01*
X28379788Y-20155106D01*
X28379792Y-20155104D01*
X28530104Y-20004792D01*
X28649683Y-19840204D01*
X28705011Y-19797540D01*
X28774624Y-19791561D01*
X28836420Y-19824166D01*
X28850313Y-19840199D01*
X28952560Y-19980931D01*
X28969896Y-20004792D01*
X29120213Y-20155109D01*
X29292179Y-20280048D01*
X29292181Y-20280049D01*
X29292184Y-20280051D01*
X29481588Y-20376557D01*
X29683757Y-20442246D01*
X29893713Y-20475500D01*
X29893714Y-20475500D01*
X30106286Y-20475500D01*
X30106287Y-20475500D01*
X30316243Y-20442246D01*
X30518412Y-20376557D01*
X30707816Y-20280051D01*
X30758564Y-20243181D01*
X30879786Y-20155109D01*
X30879788Y-20155106D01*
X30879792Y-20155104D01*
X31030104Y-20004792D01*
X31149683Y-19840204D01*
X31205011Y-19797540D01*
X31274624Y-19791561D01*
X31336420Y-19824166D01*
X31350313Y-19840199D01*
X31452560Y-19980931D01*
X31469896Y-20004792D01*
X31620213Y-20155109D01*
X31792179Y-20280048D01*
X31792181Y-20280049D01*
X31792184Y-20280051D01*
X31981588Y-20376557D01*
X32183757Y-20442246D01*
X32393713Y-20475500D01*
X32393714Y-20475500D01*
X32606286Y-20475500D01*
X32606287Y-20475500D01*
X32816243Y-20442246D01*
X33018412Y-20376557D01*
X33207816Y-20280051D01*
X33258564Y-20243181D01*
X33379786Y-20155109D01*
X33379788Y-20155106D01*
X33379792Y-20155104D01*
X33530104Y-20004792D01*
X33649683Y-19840204D01*
X33705011Y-19797540D01*
X33774624Y-19791561D01*
X33836420Y-19824166D01*
X33850313Y-19840199D01*
X33952560Y-19980931D01*
X33969896Y-20004792D01*
X34120213Y-20155109D01*
X34292179Y-20280048D01*
X34292181Y-20280049D01*
X34292184Y-20280051D01*
X34481588Y-20376557D01*
X34683757Y-20442246D01*
X34893713Y-20475500D01*
X34893714Y-20475500D01*
X35106286Y-20475500D01*
X35106287Y-20475500D01*
X35316243Y-20442246D01*
X35518412Y-20376557D01*
X35707816Y-20280051D01*
X35758564Y-20243181D01*
X35879786Y-20155109D01*
X35879788Y-20155106D01*
X35879792Y-20155104D01*
X36030104Y-20004792D01*
X36030106Y-20004788D01*
X36030109Y-20004786D01*
X36155048Y-19832820D01*
X36155047Y-19832820D01*
X36155051Y-19832816D01*
X36251557Y-19643412D01*
X36317246Y-19441243D01*
X36350500Y-19231287D01*
X36350500Y-18768713D01*
X36317246Y-18558757D01*
X36251557Y-18356588D01*
X36155051Y-18167184D01*
X36155049Y-18167181D01*
X36155048Y-18167179D01*
X36030109Y-17995213D01*
X35879786Y-17844890D01*
X35707820Y-17719951D01*
X35518414Y-17623444D01*
X35518413Y-17623443D01*
X35518412Y-17623443D01*
X35316243Y-17557754D01*
X35316241Y-17557753D01*
X35316240Y-17557753D01*
X35154957Y-17532208D01*
X35106287Y-17524500D01*
X34893713Y-17524500D01*
X34845042Y-17532208D01*
X34683760Y-17557753D01*
X34481585Y-17623444D01*
X34292179Y-17719951D01*
X34120213Y-17844890D01*
X33969894Y-17995209D01*
X33969890Y-17995214D01*
X33850318Y-18159793D01*
X33794989Y-18202459D01*
X33725375Y-18208438D01*
X33663580Y-18175833D01*
X33649682Y-18159793D01*
X33530109Y-17995214D01*
X33530105Y-17995209D01*
X33379786Y-17844890D01*
X33207820Y-17719951D01*
X33018414Y-17623444D01*
X33018413Y-17623443D01*
X33018412Y-17623443D01*
X32816243Y-17557754D01*
X32816241Y-17557753D01*
X32816240Y-17557753D01*
X32654957Y-17532208D01*
X32606287Y-17524500D01*
X32393713Y-17524500D01*
X32345042Y-17532208D01*
X32183760Y-17557753D01*
X31981585Y-17623444D01*
X31792179Y-17719951D01*
X31620213Y-17844890D01*
X31469894Y-17995209D01*
X31469890Y-17995214D01*
X31350318Y-18159793D01*
X31294989Y-18202459D01*
X31225375Y-18208438D01*
X31163580Y-18175833D01*
X31149682Y-18159793D01*
X31030109Y-17995214D01*
X31030105Y-17995209D01*
X30879786Y-17844890D01*
X30707815Y-17719948D01*
X30707814Y-17719947D01*
X30668205Y-17699765D01*
X30617409Y-17651791D01*
X30600500Y-17589281D01*
X30600500Y-16420097D01*
X30620185Y-16353058D01*
X30636819Y-16332416D01*
X31682416Y-15286819D01*
X31743739Y-15253334D01*
X31770097Y-15250500D01*
X33277588Y-15250500D01*
X33344627Y-15270185D01*
X33354903Y-15277555D01*
X33357736Y-15279814D01*
X33357738Y-15279816D01*
X33510478Y-15375789D01*
X33680745Y-15435368D01*
X33680750Y-15435369D01*
X33859996Y-15455565D01*
X33860000Y-15455565D01*
X33860004Y-15455565D01*
X34039249Y-15435369D01*
X34039252Y-15435368D01*
X34039255Y-15435368D01*
X34209522Y-15375789D01*
X34362262Y-15279816D01*
X34489816Y-15152262D01*
X34585789Y-14999522D01*
X34645368Y-14829255D01*
X34665565Y-14650000D01*
X34645368Y-14470745D01*
X34585789Y-14300478D01*
X34489816Y-14147738D01*
X34362262Y-14020184D01*
X34209523Y-13924211D01*
X34039254Y-13864631D01*
X34039249Y-13864630D01*
X33860004Y-13844435D01*
X33859996Y-13844435D01*
X33680750Y-13864630D01*
X33680745Y-13864631D01*
X33510476Y-13924211D01*
X33357736Y-14020185D01*
X33354903Y-14022445D01*
X33352724Y-14023334D01*
X33351842Y-14023889D01*
X33351744Y-14023734D01*
X33290217Y-14048855D01*
X33277588Y-14049500D01*
X31556669Y-14049500D01*
X31556653Y-14049499D01*
X31549057Y-14049499D01*
X31390943Y-14049499D01*
X31283587Y-14078265D01*
X31238210Y-14090424D01*
X31238209Y-14090425D01*
X31203066Y-14110716D01*
X31203064Y-14110717D01*
X31101290Y-14169475D01*
X31101282Y-14169481D01*
X29519481Y-15751282D01*
X29519479Y-15751285D01*
X29469361Y-15838094D01*
X29469359Y-15838096D01*
X29440425Y-15888209D01*
X29440424Y-15888210D01*
X29440423Y-15888215D01*
X29399499Y-16040943D01*
X29399499Y-16040945D01*
X29399499Y-16209046D01*
X29399500Y-16209059D01*
X29399500Y-17589281D01*
X29379815Y-17656320D01*
X29331795Y-17699765D01*
X29292185Y-17719947D01*
X29292184Y-17719948D01*
X29120213Y-17844890D01*
X28969894Y-17995209D01*
X28969890Y-17995214D01*
X28850318Y-18159793D01*
X28794989Y-18202459D01*
X28725375Y-18208438D01*
X28663580Y-18175833D01*
X28649682Y-18159793D01*
X28530109Y-17995214D01*
X28530105Y-17995209D01*
X28379786Y-17844890D01*
X28207820Y-17719951D01*
X28018414Y-17623444D01*
X28018413Y-17623443D01*
X28018412Y-17623443D01*
X27816243Y-17557754D01*
X27816241Y-17557753D01*
X27816240Y-17557753D01*
X27654957Y-17532208D01*
X27606287Y-17524500D01*
X27393713Y-17524500D01*
X27345042Y-17532208D01*
X27183760Y-17557753D01*
X26981585Y-17623444D01*
X26792179Y-17719951D01*
X26620215Y-17844889D01*
X26481398Y-17983706D01*
X26420075Y-18017190D01*
X26350383Y-18012206D01*
X26294450Y-17970334D01*
X26288178Y-17961120D01*
X26192712Y-17806344D01*
X26068657Y-17682289D01*
X26068656Y-17682288D01*
X25919334Y-17590186D01*
X25752797Y-17535001D01*
X25752795Y-17535000D01*
X25650010Y-17524500D01*
X24349998Y-17524500D01*
X24349981Y-17524501D01*
X24247203Y-17535000D01*
X24247200Y-17535001D01*
X24080668Y-17590185D01*
X24080663Y-17590187D01*
X23931342Y-17682289D01*
X23807289Y-17806342D01*
X23715187Y-17955663D01*
X23715185Y-17955668D01*
X23702938Y-17992628D01*
X23660001Y-18122203D01*
X23660001Y-18122204D01*
X23660000Y-18122204D01*
X23649500Y-18224983D01*
X500500Y-18224983D01*
X500500Y-3069998D01*
X1044390Y-3069998D01*
X1044390Y-3070001D01*
X1064804Y-3355433D01*
X1125628Y-3635037D01*
X1225635Y-3903166D01*
X1362770Y-4154309D01*
X1362775Y-4154317D01*
X1534254Y-4383387D01*
X1534270Y-4383405D01*
X1736594Y-4585729D01*
X1736612Y-4585745D01*
X1965682Y-4757224D01*
X1965690Y-4757229D01*
X2216833Y-4894364D01*
X2216832Y-4894364D01*
X2216836Y-4894365D01*
X2216839Y-4894367D01*
X2484954Y-4994369D01*
X2484960Y-4994370D01*
X2484962Y-4994371D01*
X2764566Y-5055195D01*
X2764568Y-5055195D01*
X2764572Y-5055196D01*
X3018220Y-5073337D01*
X3049999Y-5075610D01*
X3050000Y-5075610D01*
X3050001Y-5075610D01*
X3078595Y-5073564D01*
X3335428Y-5055196D01*
X3615046Y-4994369D01*
X3883161Y-4894367D01*
X4134315Y-4757226D01*
X4363395Y-4585739D01*
X4565739Y-4383395D01*
X4737226Y-4154315D01*
X4874367Y-3903161D01*
X4974369Y-3635046D01*
X4992401Y-3552155D01*
X7330000Y-3552155D01*
X7330000Y-4250000D01*
X8354722Y-4250000D01*
X8310667Y-4326306D01*
X8280000Y-4440756D01*
X8280000Y-4559244D01*
X8310667Y-4673694D01*
X8354722Y-4750000D01*
X7330000Y-4750000D01*
X7330000Y-5447844D01*
X7336401Y-5507372D01*
X7336403Y-5507379D01*
X7386645Y-5642086D01*
X7386649Y-5642093D01*
X7472809Y-5757187D01*
X7472812Y-5757190D01*
X7587906Y-5843350D01*
X7587913Y-5843354D01*
X7722620Y-5893596D01*
X7722627Y-5893598D01*
X7782155Y-5899999D01*
X7782172Y-5900000D01*
X8480000Y-5900000D01*
X8480000Y-4875277D01*
X8556306Y-4919333D01*
X8670756Y-4950000D01*
X8789244Y-4950000D01*
X8903694Y-4919333D01*
X8980000Y-4875277D01*
X8980000Y-5900000D01*
X9435500Y-5900000D01*
X9502539Y-5919685D01*
X9548294Y-5972489D01*
X9559500Y-6024000D01*
X9559500Y-7098480D01*
X9539815Y-7165519D01*
X9523181Y-7186161D01*
X9419531Y-7289810D01*
X9419530Y-7289811D01*
X9331522Y-7435393D01*
X9280913Y-7597807D01*
X9274500Y-7668386D01*
X9274500Y-8331613D01*
X9280913Y-8402192D01*
X9280913Y-8402194D01*
X9280914Y-8402196D01*
X9331522Y-8564606D01*
X9413058Y-8699483D01*
X9419530Y-8710188D01*
X9539811Y-8830469D01*
X9539813Y-8830470D01*
X9539815Y-8830472D01*
X9685394Y-8918478D01*
X9847804Y-8969086D01*
X9918384Y-8975500D01*
X9918387Y-8975500D01*
X10385500Y-8975500D01*
X10452539Y-8995185D01*
X10498294Y-9047989D01*
X10509500Y-9099500D01*
X10509500Y-9191306D01*
X10489815Y-9258345D01*
X10437011Y-9304100D01*
X10428833Y-9307488D01*
X10319671Y-9348202D01*
X10319664Y-9348206D01*
X10204455Y-9434452D01*
X10204452Y-9434455D01*
X10118206Y-9549664D01*
X10118202Y-9549671D01*
X10067908Y-9684517D01*
X10061501Y-9744116D01*
X10061501Y-9744123D01*
X10061500Y-9744135D01*
X10061500Y-9936530D01*
X10041815Y-10003569D01*
X9989011Y-10049324D01*
X9919853Y-10059268D01*
X9856297Y-10030243D01*
X9825118Y-9988935D01*
X9780589Y-9893442D01*
X9659301Y-9720224D01*
X9659299Y-9720221D01*
X9509778Y-9570700D01*
X9336558Y-9449411D01*
X9336556Y-9449410D01*
X9304478Y-9434452D01*
X9144910Y-9360044D01*
X9144906Y-9360043D01*
X9144902Y-9360041D01*
X8940660Y-9305315D01*
X8940656Y-9305314D01*
X8940655Y-9305314D01*
X8940654Y-9305313D01*
X8940649Y-9305313D01*
X8730002Y-9286884D01*
X8729998Y-9286884D01*
X8519350Y-9305313D01*
X8519339Y-9305315D01*
X8315097Y-9360041D01*
X8315088Y-9360045D01*
X8123443Y-9449410D01*
X8123441Y-9449411D01*
X7950221Y-9570700D01*
X7800700Y-9720221D01*
X7679411Y-9893441D01*
X7679410Y-9893443D01*
X7590045Y-10085088D01*
X7590041Y-10085097D01*
X7535315Y-10289339D01*
X7535313Y-10289350D01*
X7516884Y-10499998D01*
X7516884Y-10500001D01*
X7535313Y-10710649D01*
X7535315Y-10710660D01*
X7590041Y-10914902D01*
X7590043Y-10914906D01*
X7590044Y-10914910D01*
X7634881Y-11011063D01*
X7679410Y-11106556D01*
X7679411Y-11106558D01*
X7800700Y-11279778D01*
X7950221Y-11429299D01*
X7950224Y-11429301D01*
X8123442Y-11550589D01*
X8315090Y-11639956D01*
X8519345Y-11694686D01*
X8669812Y-11707850D01*
X8729998Y-11713116D01*
X8730000Y-11713116D01*
X8730002Y-11713116D01*
X8782784Y-11708498D01*
X8940655Y-11694686D01*
X9144910Y-11639956D01*
X9336558Y-11550589D01*
X9509776Y-11429301D01*
X9659301Y-11279776D01*
X9780589Y-11106558D01*
X9825121Y-11011057D01*
X9871289Y-10958624D01*
X9938482Y-10939471D01*
X10005364Y-10959686D01*
X10050699Y-11012851D01*
X10061500Y-11063466D01*
X10061500Y-11255869D01*
X10061501Y-11255876D01*
X10067908Y-11315483D01*
X10118202Y-11450328D01*
X10118206Y-11450335D01*
X10204452Y-11565544D01*
X10204455Y-11565547D01*
X10319664Y-11651793D01*
X10319671Y-11651797D01*
X10454517Y-11702091D01*
X10454516Y-11702091D01*
X10461444Y-11702835D01*
X10514127Y-11708500D01*
X11365769Y-11708499D01*
X11432808Y-11728183D01*
X11453449Y-11744817D01*
X11845048Y-12136415D01*
X11845049Y-12136416D01*
X11949581Y-12240948D01*
X11949585Y-12240952D01*
X12072498Y-12323080D01*
X12072511Y-12323087D01*
X12209082Y-12379656D01*
X12209087Y-12379658D01*
X12209091Y-12379658D01*
X12209092Y-12379659D01*
X12354079Y-12408500D01*
X12354082Y-12408500D01*
X18185920Y-12408500D01*
X18283462Y-12389096D01*
X18330913Y-12379658D01*
X18467495Y-12323084D01*
X18516729Y-12290186D01*
X18590416Y-12240952D01*
X19086548Y-11744817D01*
X19147871Y-11711333D01*
X19174229Y-11708499D01*
X19365769Y-11708499D01*
X19432808Y-11728184D01*
X19453449Y-11744817D01*
X19845048Y-12136415D01*
X19845049Y-12136416D01*
X19949581Y-12240948D01*
X19949585Y-12240952D01*
X20072498Y-12323080D01*
X20072511Y-12323087D01*
X20209082Y-12379656D01*
X20209087Y-12379658D01*
X20209091Y-12379658D01*
X20209092Y-12379659D01*
X20354079Y-12408500D01*
X20354082Y-12408500D01*
X26185920Y-12408500D01*
X26283462Y-12389096D01*
X26330913Y-12379658D01*
X26467495Y-12323084D01*
X26516729Y-12290186D01*
X26590416Y-12240952D01*
X27086548Y-11744817D01*
X27147871Y-11711333D01*
X27174229Y-11708499D01*
X27365769Y-11708499D01*
X27432808Y-11728184D01*
X27453450Y-11744818D01*
X27949580Y-12240948D01*
X27949584Y-12240951D01*
X28072498Y-12323080D01*
X28072511Y-12323087D01*
X28209082Y-12379656D01*
X28209087Y-12379658D01*
X28209091Y-12379658D01*
X28209092Y-12379659D01*
X28354079Y-12408500D01*
X28354082Y-12408500D01*
X34185920Y-12408500D01*
X34283462Y-12389096D01*
X34330913Y-12379658D01*
X34467495Y-12323084D01*
X34516729Y-12290186D01*
X34590416Y-12240952D01*
X35086548Y-11744817D01*
X35147871Y-11711333D01*
X35174229Y-11708499D01*
X35365769Y-11708499D01*
X35432808Y-11728184D01*
X35453450Y-11744818D01*
X35949580Y-12240948D01*
X35949584Y-12240951D01*
X36072498Y-12323080D01*
X36072511Y-12323087D01*
X36209082Y-12379656D01*
X36209087Y-12379658D01*
X36209091Y-12379658D01*
X36209092Y-12379659D01*
X36354079Y-12408500D01*
X36354082Y-12408500D01*
X42185920Y-12408500D01*
X42283462Y-12389096D01*
X42330913Y-12379658D01*
X42467495Y-12323084D01*
X42516729Y-12290186D01*
X42590416Y-12240952D01*
X43086548Y-11744817D01*
X43147871Y-11711333D01*
X43174229Y-11708499D01*
X43365769Y-11708499D01*
X43432808Y-11728184D01*
X43453450Y-11744818D01*
X43949580Y-12240948D01*
X43949584Y-12240951D01*
X44072498Y-12323080D01*
X44072511Y-12323087D01*
X44209082Y-12379656D01*
X44209087Y-12379658D01*
X44209091Y-12379658D01*
X44209092Y-12379659D01*
X44354079Y-12408500D01*
X44354082Y-12408500D01*
X50185920Y-12408500D01*
X50283462Y-12389096D01*
X50330913Y-12379658D01*
X50467495Y-12323084D01*
X50516729Y-12290186D01*
X50590416Y-12240952D01*
X50947952Y-11883416D01*
X50947952Y-11883415D01*
X51086551Y-11744815D01*
X51147872Y-11711333D01*
X51174230Y-11708499D01*
X51365769Y-11708499D01*
X51432808Y-11728184D01*
X51453450Y-11744818D01*
X51949580Y-12240948D01*
X51949584Y-12240951D01*
X52072498Y-12323080D01*
X52072511Y-12323087D01*
X52209082Y-12379656D01*
X52209087Y-12379658D01*
X52209091Y-12379658D01*
X52209092Y-12379659D01*
X52354079Y-12408500D01*
X52354082Y-12408500D01*
X58185920Y-12408500D01*
X58283462Y-12389096D01*
X58330913Y-12379658D01*
X58467495Y-12323084D01*
X58516729Y-12290186D01*
X58590416Y-12240952D01*
X59086548Y-11744817D01*
X59147871Y-11711333D01*
X59174229Y-11708499D01*
X59365769Y-11708499D01*
X59432808Y-11728184D01*
X59453449Y-11744817D01*
X59845048Y-12136415D01*
X59845049Y-12136416D01*
X59949581Y-12240948D01*
X59949585Y-12240952D01*
X60072498Y-12323080D01*
X60072511Y-12323087D01*
X60209082Y-12379656D01*
X60209087Y-12379658D01*
X60209091Y-12379658D01*
X60209092Y-12379659D01*
X60354079Y-12408500D01*
X60354082Y-12408500D01*
X66185920Y-12408500D01*
X66283462Y-12389096D01*
X66330913Y-12379658D01*
X66467495Y-12323084D01*
X66516729Y-12290186D01*
X66590416Y-12240952D01*
X67086548Y-11744817D01*
X67147871Y-11711333D01*
X67174229Y-11708499D01*
X67365769Y-11708499D01*
X67432808Y-11728184D01*
X67453450Y-11744818D01*
X67949580Y-12240948D01*
X67949584Y-12240951D01*
X68072498Y-12323080D01*
X68072511Y-12323087D01*
X68209082Y-12379656D01*
X68209087Y-12379658D01*
X68209091Y-12379658D01*
X68209092Y-12379659D01*
X68354079Y-12408500D01*
X68354082Y-12408500D01*
X68501917Y-12408500D01*
X72000770Y-12408500D01*
X72067809Y-12428185D01*
X72113564Y-12480989D01*
X72123508Y-12550147D01*
X72094483Y-12613703D01*
X72088451Y-12620181D01*
X64465451Y-20243181D01*
X64404128Y-20276666D01*
X64377770Y-20279500D01*
X53579050Y-20279500D01*
X53512011Y-20259815D01*
X53466256Y-20207011D01*
X53456312Y-20137853D01*
X53485337Y-20074297D01*
X53491369Y-20067819D01*
X53529723Y-20029464D01*
X53529727Y-20029459D01*
X53654620Y-19857557D01*
X53751095Y-19668217D01*
X53816757Y-19466130D01*
X53816757Y-19466127D01*
X53850000Y-19256246D01*
X53850000Y-19250000D01*
X52933012Y-19250000D01*
X52965925Y-19192993D01*
X53000000Y-19065826D01*
X53000000Y-18934174D01*
X52965925Y-18807007D01*
X52933012Y-18750000D01*
X53850000Y-18750000D01*
X53850000Y-18743753D01*
X53816757Y-18533872D01*
X53816757Y-18533869D01*
X53751095Y-18331782D01*
X53654620Y-18142442D01*
X53529727Y-17970540D01*
X53529723Y-17970535D01*
X53379464Y-17820276D01*
X53379459Y-17820272D01*
X53207557Y-17695379D01*
X53018215Y-17598903D01*
X52816124Y-17533241D01*
X52750000Y-17522768D01*
X52750000Y-18566988D01*
X52692993Y-18534075D01*
X52565826Y-18500000D01*
X52434174Y-18500000D01*
X52307007Y-18534075D01*
X52250000Y-18566988D01*
X52250000Y-17522768D01*
X52249999Y-17522768D01*
X52183875Y-17533241D01*
X51981784Y-17598903D01*
X51792442Y-17695379D01*
X51620541Y-17820271D01*
X51481668Y-17959144D01*
X51420345Y-17992628D01*
X51350653Y-17987644D01*
X51294720Y-17945772D01*
X51288448Y-17936558D01*
X51192712Y-17781344D01*
X51068657Y-17657289D01*
X51068656Y-17657288D01*
X50959864Y-17590185D01*
X50919336Y-17565187D01*
X50919331Y-17565185D01*
X50917862Y-17564698D01*
X50752797Y-17510001D01*
X50752795Y-17510000D01*
X50650010Y-17499500D01*
X49349998Y-17499500D01*
X49349981Y-17499501D01*
X49247203Y-17510000D01*
X49247200Y-17510001D01*
X49080668Y-17565185D01*
X49080663Y-17565187D01*
X48931342Y-17657289D01*
X48807289Y-17781342D01*
X48715187Y-17930663D01*
X48715185Y-17930668D01*
X48693797Y-17995213D01*
X48660001Y-18097203D01*
X48660001Y-18097204D01*
X48660000Y-18097204D01*
X48649500Y-18199983D01*
X48649500Y-19800001D01*
X48649501Y-19800018D01*
X48660000Y-19902796D01*
X48660001Y-19902799D01*
X48685892Y-19980931D01*
X48715186Y-20069334D01*
X48807288Y-20218656D01*
X48931344Y-20342712D01*
X49080666Y-20434814D01*
X49247203Y-20489999D01*
X49349991Y-20500500D01*
X50387769Y-20500499D01*
X50454808Y-20520183D01*
X50475450Y-20536818D01*
X51447049Y-21508416D01*
X51551584Y-21612951D01*
X51551587Y-21612953D01*
X51551588Y-21612954D01*
X51674503Y-21695083D01*
X51674506Y-21695085D01*
X51731079Y-21718518D01*
X51731080Y-21718518D01*
X51811088Y-21751659D01*
X51927241Y-21774763D01*
X51946468Y-21778587D01*
X51956081Y-21780500D01*
X51956082Y-21780500D01*
X64813920Y-21780500D01*
X64911462Y-21761096D01*
X64958913Y-21751658D01*
X65095495Y-21695084D01*
X65144729Y-21662186D01*
X65218416Y-21612952D01*
X75086549Y-11744817D01*
X75147872Y-11711333D01*
X75174230Y-11708499D01*
X76025871Y-11708499D01*
X76025872Y-11708499D01*
X76085483Y-11702091D01*
X76220331Y-11651796D01*
X76335546Y-11565546D01*
X76421796Y-11450331D01*
X76472091Y-11315483D01*
X76478500Y-11255873D01*
X76478499Y-9744128D01*
X76472091Y-9684517D01*
X76421796Y-9549669D01*
X76421795Y-9549668D01*
X76421793Y-9549664D01*
X76335547Y-9434455D01*
X76335544Y-9434452D01*
X76220335Y-9348206D01*
X76220328Y-9348202D01*
X76085482Y-9297908D01*
X76085483Y-9297908D01*
X76025883Y-9291501D01*
X76025881Y-9291500D01*
X76025873Y-9291500D01*
X76025865Y-9291500D01*
X75087096Y-9291500D01*
X75020057Y-9271815D01*
X74974302Y-9219011D01*
X74964358Y-9149853D01*
X74993383Y-9086297D01*
X74999400Y-9079833D01*
X75074200Y-9005033D01*
X75135519Y-8971551D01*
X75150660Y-8969225D01*
X75152196Y-8969086D01*
X75314606Y-8918478D01*
X75460185Y-8830472D01*
X75580472Y-8710185D01*
X75668478Y-8564606D01*
X75719086Y-8402196D01*
X75725500Y-8331616D01*
X75725500Y-7668384D01*
X75719086Y-7597804D01*
X75668478Y-7435394D01*
X75580472Y-7289815D01*
X75580470Y-7289813D01*
X75580469Y-7289811D01*
X75460188Y-7169530D01*
X75454676Y-7166198D01*
X75314606Y-7081522D01*
X75152196Y-7030914D01*
X75152194Y-7030913D01*
X75152192Y-7030913D01*
X75102778Y-7026423D01*
X75081616Y-7024500D01*
X74568384Y-7024500D01*
X74549145Y-7026248D01*
X74497807Y-7030913D01*
X74335393Y-7081522D01*
X74189811Y-7169530D01*
X74189810Y-7169531D01*
X74087327Y-7272015D01*
X74026004Y-7305500D01*
X73956312Y-7300516D01*
X73911965Y-7272015D01*
X73809877Y-7169927D01*
X73664395Y-7081980D01*
X73664396Y-7081980D01*
X73502105Y-7031409D01*
X73502106Y-7031409D01*
X73431572Y-7025000D01*
X73425000Y-7025000D01*
X73425000Y-8904402D01*
X73405315Y-8971441D01*
X73388681Y-8992083D01*
X73097587Y-9283176D01*
X73036264Y-9316661D01*
X72977814Y-9315270D01*
X72940663Y-9305316D01*
X72940660Y-9305315D01*
X72940655Y-9305314D01*
X72940652Y-9305313D01*
X72940649Y-9305313D01*
X72730002Y-9286884D01*
X72729998Y-9286884D01*
X72519350Y-9305313D01*
X72519339Y-9305315D01*
X72315097Y-9360041D01*
X72315088Y-9360045D01*
X72123443Y-9449410D01*
X72123441Y-9449411D01*
X71950221Y-9570700D01*
X71800700Y-9720221D01*
X71679411Y-9893441D01*
X71679410Y-9893443D01*
X71590045Y-10085088D01*
X71590041Y-10085097D01*
X71535315Y-10289339D01*
X71535313Y-10289350D01*
X71516884Y-10499998D01*
X71516884Y-10500001D01*
X71535313Y-10710649D01*
X71535316Y-10710663D01*
X71546233Y-10751408D01*
X71544570Y-10821258D01*
X71505406Y-10879120D01*
X71441178Y-10906623D01*
X71426458Y-10907500D01*
X68790229Y-10907500D01*
X68723190Y-10887815D01*
X68702548Y-10871181D01*
X68514818Y-10683451D01*
X68481333Y-10622128D01*
X68478499Y-10595770D01*
X68478499Y-10353127D01*
X68487938Y-10305673D01*
X68490081Y-10300499D01*
X68490084Y-10300495D01*
X68529844Y-10204506D01*
X68546659Y-10163912D01*
X68575500Y-10018917D01*
X68575500Y-9871082D01*
X68575500Y-8752976D01*
X68593382Y-8688829D01*
X68668478Y-8564606D01*
X68719086Y-8402196D01*
X68725500Y-8331616D01*
X68725500Y-8331582D01*
X72275001Y-8331582D01*
X72281408Y-8402102D01*
X72281409Y-8402107D01*
X72331981Y-8564396D01*
X72419927Y-8709877D01*
X72540122Y-8830072D01*
X72685604Y-8918019D01*
X72685603Y-8918019D01*
X72847894Y-8968590D01*
X72847893Y-8968590D01*
X72918408Y-8974998D01*
X72918426Y-8974999D01*
X72924999Y-8974998D01*
X72925000Y-8974998D01*
X72925000Y-8250000D01*
X72275001Y-8250000D01*
X72275001Y-8331582D01*
X68725500Y-8331582D01*
X68725500Y-7668427D01*
X72275000Y-7668427D01*
X72275000Y-7750000D01*
X72925000Y-7750000D01*
X72925000Y-7025000D01*
X72924999Y-7024999D01*
X72918436Y-7025000D01*
X72918417Y-7025001D01*
X72847897Y-7031408D01*
X72847892Y-7031409D01*
X72685603Y-7081981D01*
X72540122Y-7169927D01*
X72419927Y-7290122D01*
X72331980Y-7435604D01*
X72281409Y-7597893D01*
X72275000Y-7668427D01*
X68725500Y-7668427D01*
X68725500Y-7668384D01*
X68719086Y-7597804D01*
X68668478Y-7435394D01*
X68580472Y-7289815D01*
X68580470Y-7289813D01*
X68580469Y-7289811D01*
X68460188Y-7169530D01*
X68454676Y-7166198D01*
X68314606Y-7081522D01*
X68152196Y-7030914D01*
X68152194Y-7030913D01*
X68152192Y-7030913D01*
X68102778Y-7026423D01*
X68081616Y-7024500D01*
X68081613Y-7024500D01*
X67994501Y-7024500D01*
X67927462Y-7004815D01*
X67881707Y-6952011D01*
X67870501Y-6900500D01*
X67870501Y-6818348D01*
X67870500Y-6818330D01*
X67870500Y-5841343D01*
X67890185Y-5774304D01*
X67935483Y-5732288D01*
X67947217Y-5725938D01*
X68038626Y-5676470D01*
X68221784Y-5533913D01*
X68378979Y-5363153D01*
X68505924Y-5168849D01*
X68599157Y-4956300D01*
X68656134Y-4731305D01*
X68664860Y-4626000D01*
X68675300Y-4500006D01*
X68675300Y-4499993D01*
X68656135Y-4268702D01*
X68656133Y-4268691D01*
X68599157Y-4043699D01*
X68505924Y-3831151D01*
X68378983Y-3636852D01*
X68378980Y-3636849D01*
X68378979Y-3636847D01*
X68301015Y-3552155D01*
X71330000Y-3552155D01*
X71330000Y-4250000D01*
X72354722Y-4250000D01*
X72310667Y-4326306D01*
X72280000Y-4440756D01*
X72280000Y-4559244D01*
X72310667Y-4673694D01*
X72354722Y-4750000D01*
X71330000Y-4750000D01*
X71330000Y-5447844D01*
X71336401Y-5507372D01*
X71336403Y-5507379D01*
X71386645Y-5642086D01*
X71386649Y-5642093D01*
X71472809Y-5757187D01*
X71472812Y-5757190D01*
X71587906Y-5843350D01*
X71587913Y-5843354D01*
X71722620Y-5893596D01*
X71722627Y-5893598D01*
X71782155Y-5899999D01*
X71782172Y-5900000D01*
X72480000Y-5900000D01*
X72480000Y-4875277D01*
X72556306Y-4919333D01*
X72670756Y-4950000D01*
X72789244Y-4950000D01*
X72903694Y-4919333D01*
X72980000Y-4875277D01*
X72980000Y-5900000D01*
X73677828Y-5900000D01*
X73677844Y-5899999D01*
X73737372Y-5893598D01*
X73737379Y-5893596D01*
X73872086Y-5843354D01*
X73872093Y-5843350D01*
X73987187Y-5757190D01*
X73987190Y-5757187D01*
X74073350Y-5642093D01*
X74073355Y-5642084D01*
X74102075Y-5565081D01*
X74143945Y-5509147D01*
X74209409Y-5484729D01*
X74277682Y-5499580D01*
X74309484Y-5524428D01*
X74318216Y-5533913D01*
X74318219Y-5533915D01*
X74318222Y-5533918D01*
X74501365Y-5676464D01*
X74501371Y-5676468D01*
X74501374Y-5676470D01*
X74705497Y-5786936D01*
X74819487Y-5826068D01*
X74925015Y-5862297D01*
X74925017Y-5862297D01*
X74925019Y-5862298D01*
X75153951Y-5900500D01*
X75153952Y-5900500D01*
X75386048Y-5900500D01*
X75386049Y-5900500D01*
X75614981Y-5862298D01*
X75834503Y-5786936D01*
X76038626Y-5676470D01*
X76221784Y-5533913D01*
X76378979Y-5363153D01*
X76505924Y-5168849D01*
X76599157Y-4956300D01*
X76656134Y-4731305D01*
X76664860Y-4626000D01*
X76675300Y-4500006D01*
X76675300Y-4499993D01*
X76656135Y-4268702D01*
X76656133Y-4268691D01*
X76599157Y-4043699D01*
X76505924Y-3831151D01*
X76378983Y-3636852D01*
X76378980Y-3636849D01*
X76378979Y-3636847D01*
X76221784Y-3466087D01*
X76221779Y-3466083D01*
X76221777Y-3466081D01*
X76038634Y-3323535D01*
X76038628Y-3323531D01*
X75834504Y-3213064D01*
X75834495Y-3213061D01*
X75614984Y-3137702D01*
X75427404Y-3106401D01*
X75386049Y-3099500D01*
X75153951Y-3099500D01*
X75112596Y-3106401D01*
X74925015Y-3137702D01*
X74705504Y-3213061D01*
X74705495Y-3213064D01*
X74501371Y-3323531D01*
X74501365Y-3323535D01*
X74318222Y-3466081D01*
X74318215Y-3466087D01*
X74309484Y-3475572D01*
X74249595Y-3511561D01*
X74179757Y-3509458D01*
X74122143Y-3469932D01*
X74102075Y-3434918D01*
X74073355Y-3357915D01*
X74073350Y-3357906D01*
X73987190Y-3242812D01*
X73987187Y-3242809D01*
X73872093Y-3156649D01*
X73872086Y-3156645D01*
X73737379Y-3106403D01*
X73737372Y-3106401D01*
X73677844Y-3100000D01*
X72980000Y-3100000D01*
X72980000Y-4124722D01*
X72903694Y-4080667D01*
X72789244Y-4050000D01*
X72670756Y-4050000D01*
X72556306Y-4080667D01*
X72480000Y-4124722D01*
X72480000Y-3100000D01*
X71782155Y-3100000D01*
X71722627Y-3106401D01*
X71722620Y-3106403D01*
X71587913Y-3156645D01*
X71587906Y-3156649D01*
X71472812Y-3242809D01*
X71472809Y-3242812D01*
X71386649Y-3357906D01*
X71386645Y-3357913D01*
X71336403Y-3492620D01*
X71336401Y-3492627D01*
X71330000Y-3552155D01*
X68301015Y-3552155D01*
X68221784Y-3466087D01*
X68221779Y-3466083D01*
X68221777Y-3466081D01*
X68038634Y-3323535D01*
X68038628Y-3323531D01*
X67834504Y-3213064D01*
X67834495Y-3213061D01*
X67614984Y-3137702D01*
X67427404Y-3106401D01*
X67386049Y-3099500D01*
X67153951Y-3099500D01*
X67112596Y-3106401D01*
X66925015Y-3137702D01*
X66705504Y-3213061D01*
X66705495Y-3213064D01*
X66501371Y-3323531D01*
X66501365Y-3323535D01*
X66318222Y-3466081D01*
X66318215Y-3466087D01*
X66309484Y-3475572D01*
X66249595Y-3511561D01*
X66179757Y-3509458D01*
X66122143Y-3469932D01*
X66102075Y-3434918D01*
X66073355Y-3357915D01*
X66073350Y-3357906D01*
X65987190Y-3242812D01*
X65987187Y-3242809D01*
X65872093Y-3156649D01*
X65872086Y-3156645D01*
X65737379Y-3106403D01*
X65737372Y-3106401D01*
X65677844Y-3100000D01*
X64980000Y-3100000D01*
X64980000Y-4124722D01*
X64903694Y-4080667D01*
X64789244Y-4050000D01*
X64670756Y-4050000D01*
X64556306Y-4080667D01*
X64480000Y-4124722D01*
X64480000Y-3100000D01*
X63782155Y-3100000D01*
X63722627Y-3106401D01*
X63722620Y-3106403D01*
X63587913Y-3156645D01*
X63587906Y-3156649D01*
X63472812Y-3242809D01*
X63472809Y-3242812D01*
X63386649Y-3357906D01*
X63386645Y-3357913D01*
X63336403Y-3492620D01*
X63336401Y-3492627D01*
X63330000Y-3552155D01*
X63330000Y-4250000D01*
X64354722Y-4250000D01*
X64310667Y-4326306D01*
X64280000Y-4440756D01*
X64280000Y-4559244D01*
X64310667Y-4673694D01*
X64354722Y-4750000D01*
X63330000Y-4750000D01*
X63330000Y-5447844D01*
X63336401Y-5507372D01*
X63336403Y-5507379D01*
X63386645Y-5642086D01*
X63386649Y-5642093D01*
X63472809Y-5757187D01*
X63472812Y-5757190D01*
X63587906Y-5843350D01*
X63587913Y-5843354D01*
X63722620Y-5893596D01*
X63722627Y-5893598D01*
X63782155Y-5899999D01*
X63782172Y-5900000D01*
X64480000Y-5900000D01*
X64480000Y-4875277D01*
X64556306Y-4919333D01*
X64670756Y-4950000D01*
X64789244Y-4950000D01*
X64903694Y-4919333D01*
X64980000Y-4875277D01*
X64980000Y-5900000D01*
X65677828Y-5900000D01*
X65677844Y-5899999D01*
X65737372Y-5893598D01*
X65737379Y-5893596D01*
X65872086Y-5843354D01*
X65872093Y-5843350D01*
X65987187Y-5757190D01*
X65987190Y-5757187D01*
X66073350Y-5642093D01*
X66073355Y-5642084D01*
X66102075Y-5565081D01*
X66143945Y-5509147D01*
X66209409Y-5484729D01*
X66277682Y-5499580D01*
X66309484Y-5524428D01*
X66318216Y-5533913D01*
X66318219Y-5533915D01*
X66318222Y-5533918D01*
X66501365Y-5676464D01*
X66501376Y-5676471D01*
X66604517Y-5732288D01*
X66654108Y-5781507D01*
X66669500Y-5841343D01*
X66669500Y-6604903D01*
X66649815Y-6671942D01*
X66633181Y-6692584D01*
X66337584Y-6988181D01*
X66276261Y-7021666D01*
X66249903Y-7024500D01*
X65918384Y-7024500D01*
X65899145Y-7026248D01*
X65847807Y-7030913D01*
X65685393Y-7081522D01*
X65539811Y-7169530D01*
X65419530Y-7289811D01*
X65331522Y-7435393D01*
X65280913Y-7597807D01*
X65274500Y-7668386D01*
X65274500Y-8331613D01*
X65280913Y-8402192D01*
X65280913Y-8402194D01*
X65280914Y-8402196D01*
X65331522Y-8564606D01*
X65413058Y-8699483D01*
X65419530Y-8710188D01*
X65539811Y-8830469D01*
X65539813Y-8830470D01*
X65539815Y-8830472D01*
X65685394Y-8918478D01*
X65847804Y-8969086D01*
X65918384Y-8975500D01*
X65918387Y-8975500D01*
X66431613Y-8975500D01*
X66431616Y-8975500D01*
X66502196Y-8969086D01*
X66664606Y-8918478D01*
X66810185Y-8830472D01*
X66811820Y-8828837D01*
X66862819Y-8777839D01*
X66924142Y-8744354D01*
X66993834Y-8749338D01*
X67049767Y-8791210D01*
X67074184Y-8856674D01*
X67074500Y-8865520D01*
X67074500Y-9167500D01*
X67054815Y-9234539D01*
X67002011Y-9280294D01*
X66950500Y-9291500D01*
X66514129Y-9291500D01*
X66514123Y-9291501D01*
X66454516Y-9297908D01*
X66319671Y-9348202D01*
X66319664Y-9348206D01*
X66204455Y-9434452D01*
X66204452Y-9434455D01*
X66118206Y-9549664D01*
X66118202Y-9549671D01*
X66067908Y-9684517D01*
X66061501Y-9744116D01*
X66061501Y-9744123D01*
X66061500Y-9744135D01*
X66061500Y-9936530D01*
X66041815Y-10003569D01*
X65989011Y-10049324D01*
X65919853Y-10059268D01*
X65856297Y-10030243D01*
X65825118Y-9988935D01*
X65780589Y-9893442D01*
X65659301Y-9720224D01*
X65659299Y-9720221D01*
X65509778Y-9570700D01*
X65336558Y-9449411D01*
X65336556Y-9449410D01*
X65304478Y-9434452D01*
X65144910Y-9360044D01*
X65144906Y-9360043D01*
X65144902Y-9360041D01*
X64940660Y-9305315D01*
X64940656Y-9305314D01*
X64940655Y-9305314D01*
X64940654Y-9305313D01*
X64940649Y-9305313D01*
X64730002Y-9286884D01*
X64729998Y-9286884D01*
X64519350Y-9305313D01*
X64519339Y-9305315D01*
X64315097Y-9360041D01*
X64315088Y-9360045D01*
X64123443Y-9449410D01*
X64123441Y-9449411D01*
X63950221Y-9570700D01*
X63800700Y-9720221D01*
X63679411Y-9893441D01*
X63679410Y-9893443D01*
X63590045Y-10085088D01*
X63590041Y-10085097D01*
X63535315Y-10289339D01*
X63535313Y-10289350D01*
X63516884Y-10499998D01*
X63516884Y-10500001D01*
X63535313Y-10710649D01*
X63535316Y-10710663D01*
X63546233Y-10751408D01*
X63544570Y-10821258D01*
X63505406Y-10879120D01*
X63441178Y-10906623D01*
X63426458Y-10907500D01*
X60790229Y-10907500D01*
X60723190Y-10887815D01*
X60702548Y-10871181D01*
X60514818Y-10683451D01*
X60481333Y-10622128D01*
X60478499Y-10595770D01*
X60478499Y-9744129D01*
X60478498Y-9744123D01*
X60478497Y-9744116D01*
X60472091Y-9684517D01*
X60421796Y-9549669D01*
X60421795Y-9549668D01*
X60421793Y-9549664D01*
X60335547Y-9434455D01*
X60335544Y-9434452D01*
X60220335Y-9348206D01*
X60220328Y-9348202D01*
X60085482Y-9297908D01*
X60085483Y-9297908D01*
X60025883Y-9291501D01*
X60025881Y-9291500D01*
X60025873Y-9291500D01*
X60025865Y-9291500D01*
X58549500Y-9291500D01*
X58482461Y-9271815D01*
X58436706Y-9219011D01*
X58425500Y-9167500D01*
X58425500Y-8916519D01*
X58445185Y-8849480D01*
X58461814Y-8828842D01*
X58580472Y-8710185D01*
X58668478Y-8564606D01*
X58719086Y-8402196D01*
X58725500Y-8331616D01*
X58725500Y-7668384D01*
X58719086Y-7597804D01*
X58668478Y-7435394D01*
X58580472Y-7289815D01*
X58580470Y-7289813D01*
X58580469Y-7289811D01*
X58460188Y-7169530D01*
X58454676Y-7166198D01*
X58314606Y-7081522D01*
X58152196Y-7030914D01*
X58152194Y-7030913D01*
X58152192Y-7030913D01*
X58102778Y-7026423D01*
X58081616Y-7024500D01*
X57568384Y-7024500D01*
X57549145Y-7026248D01*
X57497807Y-7030913D01*
X57335393Y-7081522D01*
X57189811Y-7169530D01*
X57189810Y-7169531D01*
X57087327Y-7272015D01*
X57026004Y-7305500D01*
X56956312Y-7300516D01*
X56911965Y-7272015D01*
X56809877Y-7169927D01*
X56664395Y-7081980D01*
X56664396Y-7081980D01*
X56502105Y-7031409D01*
X56502106Y-7031409D01*
X56431572Y-7025000D01*
X56425000Y-7025000D01*
X56425000Y-8974999D01*
X56431581Y-8974999D01*
X56502102Y-8968591D01*
X56502107Y-8968590D01*
X56664396Y-8918018D01*
X56809877Y-8830072D01*
X56809878Y-8830071D01*
X56911963Y-8727985D01*
X56973286Y-8694499D01*
X57042977Y-8699483D01*
X57087326Y-8727983D01*
X57188182Y-8828839D01*
X57221666Y-8890160D01*
X57224500Y-8916519D01*
X57224500Y-9104902D01*
X57204815Y-9171941D01*
X57188181Y-9192584D01*
X57097587Y-9283177D01*
X57036263Y-9316661D01*
X56977814Y-9315270D01*
X56940663Y-9305316D01*
X56940660Y-9305315D01*
X56940655Y-9305314D01*
X56940652Y-9305313D01*
X56940649Y-9305313D01*
X56730002Y-9286884D01*
X56729998Y-9286884D01*
X56519350Y-9305313D01*
X56519339Y-9305315D01*
X56315097Y-9360041D01*
X56315088Y-9360045D01*
X56123443Y-9449410D01*
X56123441Y-9449411D01*
X55950221Y-9570700D01*
X55800700Y-9720221D01*
X55679411Y-9893441D01*
X55679410Y-9893443D01*
X55590045Y-10085088D01*
X55590041Y-10085097D01*
X55535315Y-10289339D01*
X55535313Y-10289350D01*
X55516884Y-10499998D01*
X55516884Y-10500001D01*
X55535313Y-10710649D01*
X55535316Y-10710663D01*
X55546233Y-10751408D01*
X55544570Y-10821258D01*
X55505406Y-10879120D01*
X55441178Y-10906623D01*
X55426458Y-10907500D01*
X52790229Y-10907500D01*
X52723190Y-10887815D01*
X52702548Y-10871181D01*
X52514818Y-10683451D01*
X52481333Y-10622128D01*
X52478499Y-10595770D01*
X52478499Y-10353127D01*
X52487938Y-10305673D01*
X52490081Y-10300499D01*
X52490084Y-10300495D01*
X52529844Y-10204506D01*
X52546659Y-10163912D01*
X52575500Y-10018917D01*
X52575500Y-9871082D01*
X52575500Y-8752976D01*
X52593382Y-8688829D01*
X52668478Y-8564606D01*
X52719086Y-8402196D01*
X52725500Y-8331616D01*
X52725500Y-8331582D01*
X55275001Y-8331582D01*
X55281408Y-8402102D01*
X55281409Y-8402107D01*
X55331981Y-8564396D01*
X55419927Y-8709877D01*
X55540122Y-8830072D01*
X55685604Y-8918019D01*
X55685603Y-8918019D01*
X55847894Y-8968590D01*
X55847893Y-8968590D01*
X55918408Y-8974998D01*
X55918426Y-8974999D01*
X55924999Y-8974998D01*
X55925000Y-8974998D01*
X55925000Y-8250000D01*
X55275001Y-8250000D01*
X55275001Y-8331582D01*
X52725500Y-8331582D01*
X52725500Y-7668427D01*
X55275000Y-7668427D01*
X55275000Y-7750000D01*
X55925000Y-7750000D01*
X55925000Y-7025000D01*
X55924999Y-7024999D01*
X55918436Y-7025000D01*
X55918417Y-7025001D01*
X55847897Y-7031408D01*
X55847892Y-7031409D01*
X55685603Y-7081981D01*
X55540122Y-7169927D01*
X55419927Y-7290122D01*
X55331980Y-7435604D01*
X55281409Y-7597893D01*
X55275000Y-7668427D01*
X52725500Y-7668427D01*
X52725500Y-7668384D01*
X52719086Y-7597804D01*
X52668478Y-7435394D01*
X52580472Y-7289815D01*
X52580470Y-7289813D01*
X52580469Y-7289811D01*
X52460188Y-7169530D01*
X52454676Y-7166198D01*
X52314606Y-7081522D01*
X52152196Y-7030914D01*
X52152194Y-7030913D01*
X52152192Y-7030913D01*
X52102778Y-7026423D01*
X52081616Y-7024500D01*
X52081613Y-7024500D01*
X51994501Y-7024500D01*
X51927462Y-7004815D01*
X51881707Y-6952011D01*
X51870501Y-6900500D01*
X51870501Y-6818348D01*
X51870500Y-6818330D01*
X51870500Y-5841343D01*
X51890185Y-5774304D01*
X51935483Y-5732288D01*
X51947217Y-5725938D01*
X52038626Y-5676470D01*
X52221784Y-5533913D01*
X52378979Y-5363153D01*
X52505924Y-5168849D01*
X52599157Y-4956300D01*
X52656134Y-4731305D01*
X52664860Y-4626000D01*
X52675300Y-4500006D01*
X52675300Y-4499993D01*
X52656135Y-4268702D01*
X52656133Y-4268691D01*
X52599157Y-4043699D01*
X52505924Y-3831151D01*
X52378983Y-3636852D01*
X52378980Y-3636849D01*
X52378979Y-3636847D01*
X52301015Y-3552155D01*
X55330000Y-3552155D01*
X55330000Y-4250000D01*
X56354722Y-4250000D01*
X56310667Y-4326306D01*
X56280000Y-4440756D01*
X56280000Y-4559244D01*
X56310667Y-4673694D01*
X56354722Y-4750000D01*
X55330000Y-4750000D01*
X55330000Y-5447844D01*
X55336401Y-5507372D01*
X55336403Y-5507379D01*
X55386645Y-5642086D01*
X55386649Y-5642093D01*
X55472809Y-5757187D01*
X55472812Y-5757190D01*
X55587906Y-5843350D01*
X55587913Y-5843354D01*
X55722620Y-5893596D01*
X55722627Y-5893598D01*
X55782155Y-5899999D01*
X55782172Y-5900000D01*
X56480000Y-5900000D01*
X56480000Y-4875277D01*
X56556306Y-4919333D01*
X56670756Y-4950000D01*
X56789244Y-4950000D01*
X56903694Y-4919333D01*
X56980000Y-4875277D01*
X56980000Y-5900000D01*
X57677828Y-5900000D01*
X57677844Y-5899999D01*
X57737372Y-5893598D01*
X57737379Y-5893596D01*
X57872086Y-5843354D01*
X57872093Y-5843350D01*
X57987187Y-5757190D01*
X57987190Y-5757187D01*
X58073350Y-5642093D01*
X58073355Y-5642084D01*
X58102075Y-5565081D01*
X58143945Y-5509147D01*
X58209409Y-5484729D01*
X58277682Y-5499580D01*
X58309484Y-5524428D01*
X58318216Y-5533913D01*
X58318219Y-5533915D01*
X58318222Y-5533918D01*
X58501365Y-5676464D01*
X58501371Y-5676468D01*
X58501374Y-5676470D01*
X58705497Y-5786936D01*
X58819487Y-5826068D01*
X58925015Y-5862297D01*
X58925017Y-5862297D01*
X58925019Y-5862298D01*
X59153951Y-5900500D01*
X59153952Y-5900500D01*
X59386048Y-5900500D01*
X59386049Y-5900500D01*
X59614981Y-5862298D01*
X59834503Y-5786936D01*
X60038626Y-5676470D01*
X60221784Y-5533913D01*
X60378979Y-5363153D01*
X60505924Y-5168849D01*
X60599157Y-4956300D01*
X60656134Y-4731305D01*
X60664860Y-4626000D01*
X60675300Y-4500006D01*
X60675300Y-4499993D01*
X60656135Y-4268702D01*
X60656133Y-4268691D01*
X60599157Y-4043699D01*
X60505924Y-3831151D01*
X60378983Y-3636852D01*
X60378980Y-3636849D01*
X60378979Y-3636847D01*
X60221784Y-3466087D01*
X60221779Y-3466083D01*
X60221777Y-3466081D01*
X60038634Y-3323535D01*
X60038628Y-3323531D01*
X59834504Y-3213064D01*
X59834495Y-3213061D01*
X59614984Y-3137702D01*
X59427404Y-3106401D01*
X59386049Y-3099500D01*
X59153951Y-3099500D01*
X59112596Y-3106401D01*
X58925015Y-3137702D01*
X58705504Y-3213061D01*
X58705495Y-3213064D01*
X58501371Y-3323531D01*
X58501365Y-3323535D01*
X58318222Y-3466081D01*
X58318215Y-3466087D01*
X58309484Y-3475572D01*
X58249595Y-3511561D01*
X58179757Y-3509458D01*
X58122143Y-3469932D01*
X58102075Y-3434918D01*
X58073355Y-3357915D01*
X58073350Y-3357906D01*
X57987190Y-3242812D01*
X57987187Y-3242809D01*
X57872093Y-3156649D01*
X57872086Y-3156645D01*
X57737379Y-3106403D01*
X57737372Y-3106401D01*
X57677844Y-3100000D01*
X56980000Y-3100000D01*
X56980000Y-4124722D01*
X56903694Y-4080667D01*
X56789244Y-4050000D01*
X56670756Y-4050000D01*
X56556306Y-4080667D01*
X56480000Y-4124722D01*
X56480000Y-3100000D01*
X55782155Y-3100000D01*
X55722627Y-3106401D01*
X55722620Y-3106403D01*
X55587913Y-3156645D01*
X55587906Y-3156649D01*
X55472812Y-3242809D01*
X55472809Y-3242812D01*
X55386649Y-3357906D01*
X55386645Y-3357913D01*
X55336403Y-3492620D01*
X55336401Y-3492627D01*
X55330000Y-3552155D01*
X52301015Y-3552155D01*
X52221784Y-3466087D01*
X52221779Y-3466083D01*
X52221777Y-3466081D01*
X52038634Y-3323535D01*
X52038628Y-3323531D01*
X51834504Y-3213064D01*
X51834495Y-3213061D01*
X51614984Y-3137702D01*
X51427404Y-3106401D01*
X51386049Y-3099500D01*
X51153951Y-3099500D01*
X51112596Y-3106401D01*
X50925015Y-3137702D01*
X50705504Y-3213061D01*
X50705495Y-3213064D01*
X50501371Y-3323531D01*
X50501365Y-3323535D01*
X50318222Y-3466081D01*
X50318215Y-3466087D01*
X50309484Y-3475572D01*
X50249595Y-3511561D01*
X50179757Y-3509458D01*
X50122143Y-3469932D01*
X50102075Y-3434918D01*
X50073355Y-3357915D01*
X50073350Y-3357906D01*
X49987190Y-3242812D01*
X49987187Y-3242809D01*
X49872093Y-3156649D01*
X49872086Y-3156645D01*
X49737379Y-3106403D01*
X49737372Y-3106401D01*
X49677844Y-3100000D01*
X48980000Y-3100000D01*
X48980000Y-4124722D01*
X48903694Y-4080667D01*
X48789244Y-4050000D01*
X48670756Y-4050000D01*
X48556306Y-4080667D01*
X48480000Y-4124722D01*
X48480000Y-3100000D01*
X47782155Y-3100000D01*
X47722627Y-3106401D01*
X47722620Y-3106403D01*
X47587913Y-3156645D01*
X47587906Y-3156649D01*
X47472812Y-3242809D01*
X47472809Y-3242812D01*
X47386649Y-3357906D01*
X47386645Y-3357913D01*
X47336403Y-3492620D01*
X47336401Y-3492627D01*
X47330000Y-3552155D01*
X47330000Y-4250000D01*
X48354722Y-4250000D01*
X48310667Y-4326306D01*
X48280000Y-4440756D01*
X48280000Y-4559244D01*
X48310667Y-4673694D01*
X48354722Y-4750000D01*
X47330000Y-4750000D01*
X47330000Y-5447844D01*
X47336401Y-5507372D01*
X47336403Y-5507379D01*
X47386645Y-5642086D01*
X47386649Y-5642093D01*
X47472809Y-5757187D01*
X47472812Y-5757190D01*
X47587906Y-5843350D01*
X47587913Y-5843354D01*
X47722620Y-5893596D01*
X47722627Y-5893598D01*
X47782155Y-5899999D01*
X47782172Y-5900000D01*
X48480000Y-5900000D01*
X48480000Y-4875277D01*
X48556306Y-4919333D01*
X48670756Y-4950000D01*
X48789244Y-4950000D01*
X48903694Y-4919333D01*
X48980000Y-4875277D01*
X48980000Y-5900000D01*
X49677828Y-5900000D01*
X49677844Y-5899999D01*
X49737372Y-5893598D01*
X49737379Y-5893596D01*
X49872086Y-5843354D01*
X49872093Y-5843350D01*
X49987187Y-5757190D01*
X49987190Y-5757187D01*
X50073350Y-5642093D01*
X50073355Y-5642084D01*
X50102075Y-5565081D01*
X50143945Y-5509147D01*
X50209409Y-5484729D01*
X50277682Y-5499580D01*
X50309484Y-5524428D01*
X50318216Y-5533913D01*
X50318219Y-5533915D01*
X50318222Y-5533918D01*
X50501365Y-5676464D01*
X50501376Y-5676471D01*
X50604517Y-5732288D01*
X50654108Y-5781507D01*
X50669500Y-5841343D01*
X50669500Y-6604903D01*
X50649815Y-6671942D01*
X50633181Y-6692584D01*
X50337584Y-6988181D01*
X50276261Y-7021666D01*
X50249903Y-7024500D01*
X49918384Y-7024500D01*
X49899145Y-7026248D01*
X49847807Y-7030913D01*
X49685393Y-7081522D01*
X49539811Y-7169530D01*
X49419530Y-7289811D01*
X49331522Y-7435393D01*
X49280913Y-7597807D01*
X49274500Y-7668386D01*
X49274500Y-8331613D01*
X49280913Y-8402192D01*
X49280913Y-8402194D01*
X49280914Y-8402196D01*
X49331522Y-8564606D01*
X49413058Y-8699483D01*
X49419530Y-8710188D01*
X49539811Y-8830469D01*
X49539813Y-8830470D01*
X49539815Y-8830472D01*
X49685394Y-8918478D01*
X49847804Y-8969086D01*
X49918384Y-8975500D01*
X49918387Y-8975500D01*
X50431613Y-8975500D01*
X50431616Y-8975500D01*
X50502196Y-8969086D01*
X50664606Y-8918478D01*
X50810185Y-8830472D01*
X50811820Y-8828837D01*
X50862819Y-8777839D01*
X50924142Y-8744354D01*
X50993834Y-8749338D01*
X51049767Y-8791210D01*
X51074184Y-8856674D01*
X51074500Y-8865520D01*
X51074500Y-9167500D01*
X51054815Y-9234539D01*
X51002011Y-9280294D01*
X50950500Y-9291500D01*
X50514129Y-9291500D01*
X50514123Y-9291501D01*
X50454516Y-9297908D01*
X50319671Y-9348202D01*
X50319664Y-9348206D01*
X50204455Y-9434452D01*
X50204452Y-9434455D01*
X50118206Y-9549664D01*
X50118202Y-9549671D01*
X50067908Y-9684517D01*
X50061501Y-9744116D01*
X50061501Y-9744123D01*
X50061500Y-9744135D01*
X50061500Y-9936530D01*
X50041815Y-10003569D01*
X49989011Y-10049324D01*
X49919853Y-10059268D01*
X49856297Y-10030243D01*
X49825118Y-9988935D01*
X49780589Y-9893442D01*
X49659301Y-9720224D01*
X49659299Y-9720221D01*
X49509778Y-9570700D01*
X49336558Y-9449411D01*
X49336556Y-9449410D01*
X49304478Y-9434452D01*
X49144910Y-9360044D01*
X49144906Y-9360043D01*
X49144902Y-9360041D01*
X48940660Y-9305315D01*
X48940656Y-9305314D01*
X48940655Y-9305314D01*
X48940654Y-9305313D01*
X48940649Y-9305313D01*
X48730002Y-9286884D01*
X48729998Y-9286884D01*
X48519350Y-9305313D01*
X48519339Y-9305315D01*
X48315097Y-9360041D01*
X48315088Y-9360045D01*
X48123443Y-9449410D01*
X48123441Y-9449411D01*
X47950221Y-9570700D01*
X47800700Y-9720221D01*
X47679411Y-9893441D01*
X47679410Y-9893443D01*
X47590045Y-10085088D01*
X47590041Y-10085097D01*
X47535315Y-10289339D01*
X47535313Y-10289350D01*
X47516884Y-10499998D01*
X47516884Y-10500001D01*
X47535313Y-10710649D01*
X47535316Y-10710663D01*
X47546233Y-10751408D01*
X47544570Y-10821258D01*
X47505406Y-10879120D01*
X47441178Y-10906623D01*
X47426458Y-10907500D01*
X44790229Y-10907500D01*
X44723190Y-10887815D01*
X44702548Y-10871181D01*
X44514818Y-10683451D01*
X44481333Y-10622128D01*
X44478499Y-10595770D01*
X44478499Y-10169845D01*
X44498184Y-10102806D01*
X44550988Y-10057051D01*
X44557318Y-10054775D01*
X44557281Y-10054685D01*
X44564778Y-10051578D01*
X44564785Y-10051577D01*
X44575765Y-10045237D01*
X44616733Y-10021585D01*
X44616734Y-10021584D01*
X44701716Y-9972520D01*
X44813520Y-9860716D01*
X44813520Y-9860714D01*
X44823724Y-9850511D01*
X44823727Y-9850506D01*
X45662417Y-9011819D01*
X45723740Y-8978334D01*
X45750098Y-8975500D01*
X46081613Y-8975500D01*
X46081616Y-8975500D01*
X46152196Y-8969086D01*
X46314606Y-8918478D01*
X46460185Y-8830472D01*
X46580472Y-8710185D01*
X46668478Y-8564606D01*
X46719086Y-8402196D01*
X46725500Y-8331616D01*
X46725500Y-7668384D01*
X46719086Y-7597804D01*
X46668478Y-7435394D01*
X46580472Y-7289815D01*
X46580470Y-7289813D01*
X46580469Y-7289811D01*
X46460188Y-7169530D01*
X46454676Y-7166198D01*
X46314606Y-7081522D01*
X46152196Y-7030914D01*
X46152194Y-7030913D01*
X46152192Y-7030913D01*
X46102778Y-7026423D01*
X46081616Y-7024500D01*
X45568384Y-7024500D01*
X45549145Y-7026248D01*
X45497807Y-7030913D01*
X45335393Y-7081522D01*
X45189811Y-7169530D01*
X45189810Y-7169531D01*
X45087327Y-7272015D01*
X45026004Y-7305500D01*
X44956312Y-7300516D01*
X44911965Y-7272015D01*
X44809877Y-7169927D01*
X44664395Y-7081980D01*
X44664396Y-7081980D01*
X44502105Y-7031409D01*
X44502106Y-7031409D01*
X44431572Y-7025000D01*
X44425000Y-7025000D01*
X44425000Y-8126000D01*
X44405315Y-8193039D01*
X44352511Y-8238794D01*
X44301000Y-8250000D01*
X43275001Y-8250000D01*
X43275001Y-8331582D01*
X43281408Y-8402102D01*
X43281409Y-8402107D01*
X43331981Y-8564396D01*
X43415982Y-8703350D01*
X43433818Y-8770904D01*
X43412301Y-8837378D01*
X43358260Y-8881666D01*
X43309865Y-8891500D01*
X41817057Y-8891500D01*
X41658942Y-8891500D01*
X41506215Y-8932423D01*
X41506214Y-8932423D01*
X41506212Y-8932424D01*
X41506209Y-8932425D01*
X41456096Y-8961359D01*
X41456095Y-8961360D01*
X41431604Y-8975500D01*
X41369285Y-9011479D01*
X41369282Y-9011481D01*
X41300945Y-9079819D01*
X41257480Y-9123284D01*
X41257478Y-9123286D01*
X41161753Y-9219011D01*
X41097587Y-9283177D01*
X41036264Y-9316661D01*
X40977814Y-9315270D01*
X40940663Y-9305316D01*
X40940660Y-9305315D01*
X40940655Y-9305314D01*
X40940652Y-9305313D01*
X40940649Y-9305313D01*
X40730002Y-9286884D01*
X40729998Y-9286884D01*
X40519350Y-9305313D01*
X40519339Y-9305315D01*
X40315097Y-9360041D01*
X40315088Y-9360045D01*
X40123443Y-9449410D01*
X40123441Y-9449411D01*
X39950221Y-9570700D01*
X39800700Y-9720221D01*
X39679411Y-9893441D01*
X39679410Y-9893443D01*
X39590045Y-10085088D01*
X39590042Y-10085094D01*
X39539211Y-10274800D01*
X39502846Y-10334460D01*
X39439999Y-10364989D01*
X39370623Y-10356694D01*
X39331755Y-10330387D01*
X39286819Y-10285451D01*
X39253334Y-10224128D01*
X39250500Y-10197770D01*
X39250500Y-9687230D01*
X39270185Y-9620191D01*
X39286819Y-9599549D01*
X39874549Y-9011819D01*
X39935872Y-8978334D01*
X39962230Y-8975500D01*
X40081613Y-8975500D01*
X40081616Y-8975500D01*
X40152196Y-8969086D01*
X40314606Y-8918478D01*
X40460185Y-8830472D01*
X40580472Y-8710185D01*
X40668478Y-8564606D01*
X40719086Y-8402196D01*
X40725500Y-8331616D01*
X40725500Y-7668427D01*
X43275000Y-7668427D01*
X43275000Y-7750000D01*
X43925000Y-7750000D01*
X43925000Y-7025000D01*
X43924999Y-7024999D01*
X43918436Y-7025000D01*
X43918417Y-7025001D01*
X43847897Y-7031408D01*
X43847892Y-7031409D01*
X43685603Y-7081981D01*
X43540122Y-7169927D01*
X43419927Y-7290122D01*
X43331980Y-7435604D01*
X43281409Y-7597893D01*
X43275000Y-7668427D01*
X40725500Y-7668427D01*
X40725500Y-7668384D01*
X40719086Y-7597804D01*
X40668478Y-7435394D01*
X40580472Y-7289815D01*
X40580470Y-7289813D01*
X40580469Y-7289811D01*
X40460188Y-7169530D01*
X40457386Y-7167836D01*
X40314606Y-7081522D01*
X40226897Y-7054191D01*
X40168752Y-7015456D01*
X40140777Y-6951431D01*
X40151858Y-6882445D01*
X40176105Y-6848129D01*
X40687416Y-6336819D01*
X40748739Y-6303334D01*
X40775097Y-6300500D01*
X41983331Y-6300500D01*
X41983347Y-6300501D01*
X41990943Y-6300501D01*
X42149054Y-6300501D01*
X42149057Y-6300501D01*
X42301785Y-6259577D01*
X42351904Y-6230639D01*
X42438716Y-6180520D01*
X42550520Y-6068716D01*
X42550520Y-6068714D01*
X42560728Y-6058507D01*
X42560730Y-6058504D01*
X42745160Y-5874073D01*
X42806481Y-5840590D01*
X42873102Y-5844474D01*
X42925019Y-5862298D01*
X43153951Y-5900500D01*
X43153952Y-5900500D01*
X43386048Y-5900500D01*
X43386049Y-5900500D01*
X43614981Y-5862298D01*
X43834503Y-5786936D01*
X44038626Y-5676470D01*
X44221784Y-5533913D01*
X44378979Y-5363153D01*
X44505924Y-5168849D01*
X44599157Y-4956300D01*
X44656134Y-4731305D01*
X44664860Y-4626000D01*
X44675300Y-4500006D01*
X44675300Y-4499993D01*
X44656135Y-4268702D01*
X44656133Y-4268691D01*
X44599157Y-4043699D01*
X44505924Y-3831151D01*
X44378983Y-3636852D01*
X44378980Y-3636849D01*
X44378979Y-3636847D01*
X44221784Y-3466087D01*
X44221779Y-3466083D01*
X44221777Y-3466081D01*
X44038634Y-3323535D01*
X44038628Y-3323531D01*
X43834504Y-3213064D01*
X43834495Y-3213061D01*
X43614984Y-3137702D01*
X43427404Y-3106401D01*
X43386049Y-3099500D01*
X43153951Y-3099500D01*
X43112596Y-3106401D01*
X42925015Y-3137702D01*
X42705504Y-3213061D01*
X42705495Y-3213064D01*
X42501371Y-3323531D01*
X42501365Y-3323535D01*
X42318222Y-3466081D01*
X42318215Y-3466087D01*
X42309484Y-3475572D01*
X42249595Y-3511561D01*
X42179757Y-3509458D01*
X42122143Y-3469932D01*
X42102075Y-3434918D01*
X42073355Y-3357915D01*
X42073350Y-3357906D01*
X41987190Y-3242812D01*
X41987187Y-3242809D01*
X41872093Y-3156649D01*
X41872086Y-3156645D01*
X41737379Y-3106403D01*
X41737372Y-3106401D01*
X41677844Y-3100000D01*
X40980000Y-3100000D01*
X40980000Y-4124722D01*
X40903694Y-4080667D01*
X40789244Y-4050000D01*
X40670756Y-4050000D01*
X40556306Y-4080667D01*
X40480000Y-4124722D01*
X40480000Y-3100000D01*
X39782155Y-3100000D01*
X39722627Y-3106401D01*
X39722620Y-3106403D01*
X39587913Y-3156645D01*
X39587906Y-3156649D01*
X39472812Y-3242809D01*
X39472809Y-3242812D01*
X39386649Y-3357906D01*
X39386645Y-3357913D01*
X39336403Y-3492620D01*
X39336401Y-3492627D01*
X39330000Y-3552155D01*
X39330000Y-4250000D01*
X40354722Y-4250000D01*
X40310667Y-4326306D01*
X40280000Y-4440756D01*
X40280000Y-4559244D01*
X40310667Y-4673694D01*
X40354722Y-4750000D01*
X39330000Y-4750000D01*
X39330000Y-5447844D01*
X39336401Y-5507372D01*
X39336403Y-5507379D01*
X39386645Y-5642086D01*
X39386647Y-5642089D01*
X39449417Y-5725938D01*
X39473835Y-5791402D01*
X39458984Y-5859676D01*
X39437832Y-5887931D01*
X38337584Y-6988181D01*
X38276261Y-7021666D01*
X38249903Y-7024500D01*
X37918384Y-7024500D01*
X37899145Y-7026248D01*
X37847807Y-7030913D01*
X37685393Y-7081522D01*
X37539811Y-7169530D01*
X37419530Y-7289811D01*
X37331522Y-7435393D01*
X37280913Y-7597807D01*
X37274500Y-7668386D01*
X37274500Y-8331613D01*
X37280913Y-8402192D01*
X37280913Y-8402194D01*
X37280914Y-8402196D01*
X37331522Y-8564606D01*
X37413058Y-8699483D01*
X37419530Y-8710188D01*
X37539811Y-8830469D01*
X37539813Y-8830470D01*
X37539815Y-8830472D01*
X37685394Y-8918478D01*
X37706911Y-8925182D01*
X37765058Y-8963919D01*
X37793033Y-9027944D01*
X37784584Y-9091017D01*
X37778342Y-9106087D01*
X37778340Y-9106092D01*
X37749500Y-9251079D01*
X37749500Y-9251082D01*
X37749500Y-10633918D01*
X37749500Y-10633920D01*
X37749499Y-10633920D01*
X37774442Y-10759308D01*
X37768215Y-10828900D01*
X37725352Y-10884077D01*
X37659463Y-10907322D01*
X37652825Y-10907500D01*
X36790229Y-10907500D01*
X36723190Y-10887815D01*
X36702548Y-10871181D01*
X36514818Y-10683451D01*
X36481333Y-10622128D01*
X36478499Y-10595770D01*
X36478499Y-9744129D01*
X36478498Y-9744123D01*
X36478497Y-9744116D01*
X36472091Y-9684517D01*
X36421796Y-9549669D01*
X36421795Y-9549668D01*
X36421793Y-9549664D01*
X36335547Y-9434455D01*
X36335544Y-9434452D01*
X36220335Y-9348206D01*
X36220328Y-9348202D01*
X36085482Y-9297908D01*
X36085483Y-9297908D01*
X36025883Y-9291501D01*
X36025881Y-9291500D01*
X36025873Y-9291500D01*
X36025865Y-9291500D01*
X34549500Y-9291500D01*
X34482461Y-9271815D01*
X34436706Y-9219011D01*
X34425500Y-9167500D01*
X34425500Y-8916519D01*
X34445185Y-8849480D01*
X34461814Y-8828842D01*
X34580472Y-8710185D01*
X34668478Y-8564606D01*
X34719086Y-8402196D01*
X34725500Y-8331616D01*
X34725500Y-7668384D01*
X34719086Y-7597804D01*
X34668478Y-7435394D01*
X34580472Y-7289815D01*
X34580470Y-7289813D01*
X34580469Y-7289811D01*
X34460188Y-7169530D01*
X34454676Y-7166198D01*
X34314606Y-7081522D01*
X34152196Y-7030914D01*
X34152194Y-7030913D01*
X34152192Y-7030913D01*
X34102778Y-7026423D01*
X34081616Y-7024500D01*
X33568384Y-7024500D01*
X33549145Y-7026248D01*
X33497807Y-7030913D01*
X33335393Y-7081522D01*
X33189811Y-7169530D01*
X33189810Y-7169531D01*
X33087327Y-7272015D01*
X33026004Y-7305500D01*
X32956312Y-7300516D01*
X32911965Y-7272015D01*
X32809877Y-7169927D01*
X32664395Y-7081980D01*
X32664396Y-7081980D01*
X32502105Y-7031409D01*
X32502106Y-7031409D01*
X32431572Y-7025000D01*
X32425000Y-7025000D01*
X32425000Y-8974999D01*
X32431581Y-8974999D01*
X32502102Y-8968591D01*
X32502107Y-8968590D01*
X32664396Y-8918018D01*
X32809877Y-8830072D01*
X32809878Y-8830071D01*
X32911963Y-8727985D01*
X32973286Y-8694499D01*
X33042977Y-8699483D01*
X33087326Y-8727983D01*
X33188182Y-8828839D01*
X33221666Y-8890160D01*
X33224500Y-8916519D01*
X33224500Y-9104902D01*
X33204815Y-9171941D01*
X33188181Y-9192584D01*
X33097587Y-9283177D01*
X33036263Y-9316661D01*
X32977814Y-9315270D01*
X32940663Y-9305316D01*
X32940660Y-9305315D01*
X32940655Y-9305314D01*
X32940652Y-9305313D01*
X32940649Y-9305313D01*
X32730002Y-9286884D01*
X32729998Y-9286884D01*
X32519350Y-9305313D01*
X32519339Y-9305315D01*
X32315097Y-9360041D01*
X32315088Y-9360045D01*
X32123443Y-9449410D01*
X32123441Y-9449411D01*
X31950221Y-9570700D01*
X31800700Y-9720221D01*
X31679411Y-9893441D01*
X31679410Y-9893443D01*
X31590045Y-10085088D01*
X31590041Y-10085097D01*
X31535315Y-10289339D01*
X31535313Y-10289350D01*
X31516884Y-10499998D01*
X31516884Y-10500001D01*
X31535313Y-10710649D01*
X31535316Y-10710663D01*
X31546233Y-10751408D01*
X31544570Y-10821258D01*
X31505406Y-10879120D01*
X31441178Y-10906623D01*
X31426458Y-10907500D01*
X28790229Y-10907500D01*
X28723190Y-10887815D01*
X28702548Y-10871181D01*
X28514818Y-10683451D01*
X28481333Y-10622128D01*
X28478499Y-10595770D01*
X28478499Y-10353127D01*
X28487938Y-10305673D01*
X28490081Y-10300499D01*
X28490084Y-10300495D01*
X28529844Y-10204506D01*
X28546659Y-10163912D01*
X28575500Y-10018917D01*
X28575500Y-9871082D01*
X28575500Y-8752976D01*
X28593382Y-8688829D01*
X28668478Y-8564606D01*
X28719086Y-8402196D01*
X28725500Y-8331616D01*
X28725500Y-8331582D01*
X31275001Y-8331582D01*
X31281408Y-8402102D01*
X31281409Y-8402107D01*
X31331981Y-8564396D01*
X31419927Y-8709877D01*
X31540122Y-8830072D01*
X31685604Y-8918019D01*
X31685603Y-8918019D01*
X31847894Y-8968590D01*
X31847893Y-8968590D01*
X31918408Y-8974998D01*
X31918426Y-8974999D01*
X31924999Y-8974998D01*
X31925000Y-8974998D01*
X31925000Y-8250000D01*
X31275001Y-8250000D01*
X31275001Y-8331582D01*
X28725500Y-8331582D01*
X28725500Y-7668427D01*
X31275000Y-7668427D01*
X31275000Y-7750000D01*
X31925000Y-7750000D01*
X31925000Y-7025000D01*
X31924999Y-7024999D01*
X31918436Y-7025000D01*
X31918417Y-7025001D01*
X31847897Y-7031408D01*
X31847892Y-7031409D01*
X31685603Y-7081981D01*
X31540122Y-7169927D01*
X31419927Y-7290122D01*
X31331980Y-7435604D01*
X31281409Y-7597893D01*
X31275000Y-7668427D01*
X28725500Y-7668427D01*
X28725500Y-7668384D01*
X28719086Y-7597804D01*
X28668478Y-7435394D01*
X28580472Y-7289815D01*
X28580470Y-7289813D01*
X28580469Y-7289811D01*
X28460188Y-7169530D01*
X28454676Y-7166198D01*
X28314606Y-7081522D01*
X28152196Y-7030914D01*
X28152194Y-7030913D01*
X28152192Y-7030913D01*
X28102778Y-7026423D01*
X28081616Y-7024500D01*
X28081613Y-7024500D01*
X27994501Y-7024500D01*
X27927462Y-7004815D01*
X27881707Y-6952011D01*
X27870501Y-6900500D01*
X27870501Y-6818348D01*
X27870500Y-6818330D01*
X27870500Y-5841343D01*
X27890185Y-5774304D01*
X27935483Y-5732288D01*
X27947217Y-5725938D01*
X28038626Y-5676470D01*
X28221784Y-5533913D01*
X28378979Y-5363153D01*
X28505924Y-5168849D01*
X28599157Y-4956300D01*
X28656134Y-4731305D01*
X28664860Y-4626000D01*
X28675300Y-4500006D01*
X28675300Y-4499993D01*
X28656135Y-4268702D01*
X28656133Y-4268691D01*
X28599157Y-4043699D01*
X28505924Y-3831151D01*
X28378983Y-3636852D01*
X28378980Y-3636849D01*
X28378979Y-3636847D01*
X28301015Y-3552155D01*
X31330000Y-3552155D01*
X31330000Y-4250000D01*
X32354722Y-4250000D01*
X32310667Y-4326306D01*
X32280000Y-4440756D01*
X32280000Y-4559244D01*
X32310667Y-4673694D01*
X32354722Y-4750000D01*
X31330000Y-4750000D01*
X31330000Y-5447844D01*
X31336401Y-5507372D01*
X31336403Y-5507379D01*
X31386645Y-5642086D01*
X31386649Y-5642093D01*
X31472809Y-5757187D01*
X31472812Y-5757190D01*
X31587906Y-5843350D01*
X31587913Y-5843354D01*
X31722620Y-5893596D01*
X31722627Y-5893598D01*
X31782155Y-5899999D01*
X31782172Y-5900000D01*
X32480000Y-5900000D01*
X32480000Y-4875277D01*
X32556306Y-4919333D01*
X32670756Y-4950000D01*
X32789244Y-4950000D01*
X32903694Y-4919333D01*
X32980000Y-4875277D01*
X32980000Y-5900000D01*
X33677828Y-5900000D01*
X33677844Y-5899999D01*
X33737372Y-5893598D01*
X33737379Y-5893596D01*
X33872086Y-5843354D01*
X33872093Y-5843350D01*
X33987187Y-5757190D01*
X33987190Y-5757187D01*
X34073350Y-5642093D01*
X34073355Y-5642084D01*
X34102075Y-5565081D01*
X34143945Y-5509147D01*
X34209409Y-5484729D01*
X34277682Y-5499580D01*
X34309484Y-5524428D01*
X34318216Y-5533913D01*
X34318219Y-5533915D01*
X34318222Y-5533918D01*
X34501365Y-5676464D01*
X34501371Y-5676468D01*
X34501374Y-5676470D01*
X34705497Y-5786936D01*
X34819487Y-5826068D01*
X34925015Y-5862297D01*
X34925017Y-5862297D01*
X34925019Y-5862298D01*
X35153951Y-5900500D01*
X35153952Y-5900500D01*
X35386048Y-5900500D01*
X35386049Y-5900500D01*
X35614981Y-5862298D01*
X35834503Y-5786936D01*
X36038626Y-5676470D01*
X36221784Y-5533913D01*
X36378979Y-5363153D01*
X36505924Y-5168849D01*
X36599157Y-4956300D01*
X36656134Y-4731305D01*
X36664860Y-4626000D01*
X36675300Y-4500006D01*
X36675300Y-4499993D01*
X36656135Y-4268702D01*
X36656133Y-4268691D01*
X36599157Y-4043699D01*
X36505924Y-3831151D01*
X36378983Y-3636852D01*
X36378980Y-3636849D01*
X36378979Y-3636847D01*
X36221784Y-3466087D01*
X36221779Y-3466083D01*
X36221777Y-3466081D01*
X36038634Y-3323535D01*
X36038628Y-3323531D01*
X35834504Y-3213064D01*
X35834495Y-3213061D01*
X35614984Y-3137702D01*
X35427404Y-3106401D01*
X35386049Y-3099500D01*
X35153951Y-3099500D01*
X35112596Y-3106401D01*
X34925015Y-3137702D01*
X34705504Y-3213061D01*
X34705495Y-3213064D01*
X34501371Y-3323531D01*
X34501365Y-3323535D01*
X34318222Y-3466081D01*
X34318215Y-3466087D01*
X34309484Y-3475572D01*
X34249595Y-3511561D01*
X34179757Y-3509458D01*
X34122143Y-3469932D01*
X34102075Y-3434918D01*
X34073355Y-3357915D01*
X34073350Y-3357906D01*
X33987190Y-3242812D01*
X33987187Y-3242809D01*
X33872093Y-3156649D01*
X33872086Y-3156645D01*
X33737379Y-3106403D01*
X33737372Y-3106401D01*
X33677844Y-3100000D01*
X32980000Y-3100000D01*
X32980000Y-4124722D01*
X32903694Y-4080667D01*
X32789244Y-4050000D01*
X32670756Y-4050000D01*
X32556306Y-4080667D01*
X32480000Y-4124722D01*
X32480000Y-3100000D01*
X31782155Y-3100000D01*
X31722627Y-3106401D01*
X31722620Y-3106403D01*
X31587913Y-3156645D01*
X31587906Y-3156649D01*
X31472812Y-3242809D01*
X31472809Y-3242812D01*
X31386649Y-3357906D01*
X31386645Y-3357913D01*
X31336403Y-3492620D01*
X31336401Y-3492627D01*
X31330000Y-3552155D01*
X28301015Y-3552155D01*
X28221784Y-3466087D01*
X28221779Y-3466083D01*
X28221777Y-3466081D01*
X28038634Y-3323535D01*
X28038628Y-3323531D01*
X27834504Y-3213064D01*
X27834495Y-3213061D01*
X27614984Y-3137702D01*
X27427404Y-3106401D01*
X27386049Y-3099500D01*
X27153951Y-3099500D01*
X27112596Y-3106401D01*
X26925015Y-3137702D01*
X26705504Y-3213061D01*
X26705495Y-3213064D01*
X26501371Y-3323531D01*
X26501365Y-3323535D01*
X26318222Y-3466081D01*
X26318215Y-3466087D01*
X26309484Y-3475572D01*
X26249595Y-3511561D01*
X26179757Y-3509458D01*
X26122143Y-3469932D01*
X26102075Y-3434918D01*
X26073355Y-3357915D01*
X26073350Y-3357906D01*
X25987190Y-3242812D01*
X25987187Y-3242809D01*
X25872093Y-3156649D01*
X25872086Y-3156645D01*
X25737379Y-3106403D01*
X25737372Y-3106401D01*
X25677844Y-3100000D01*
X24980000Y-3100000D01*
X24980000Y-4124722D01*
X24903694Y-4080667D01*
X24789244Y-4050000D01*
X24670756Y-4050000D01*
X24556306Y-4080667D01*
X24480000Y-4124722D01*
X24480000Y-3100000D01*
X23782155Y-3100000D01*
X23722627Y-3106401D01*
X23722620Y-3106403D01*
X23587913Y-3156645D01*
X23587906Y-3156649D01*
X23472812Y-3242809D01*
X23472809Y-3242812D01*
X23386649Y-3357906D01*
X23386645Y-3357913D01*
X23336403Y-3492620D01*
X23336401Y-3492627D01*
X23330000Y-3552155D01*
X23330000Y-4250000D01*
X24354722Y-4250000D01*
X24310667Y-4326306D01*
X24280000Y-4440756D01*
X24280000Y-4559244D01*
X24310667Y-4673694D01*
X24354722Y-4750000D01*
X23330000Y-4750000D01*
X23330000Y-5447844D01*
X23336401Y-5507372D01*
X23336403Y-5507379D01*
X23386645Y-5642086D01*
X23386649Y-5642093D01*
X23472809Y-5757187D01*
X23472812Y-5757190D01*
X23587906Y-5843350D01*
X23587913Y-5843354D01*
X23722620Y-5893596D01*
X23722627Y-5893598D01*
X23782155Y-5899999D01*
X23782172Y-5900000D01*
X24480000Y-5900000D01*
X24480000Y-4875277D01*
X24556306Y-4919333D01*
X24670756Y-4950000D01*
X24789244Y-4950000D01*
X24903694Y-4919333D01*
X24980000Y-4875277D01*
X24980000Y-5900000D01*
X25677828Y-5900000D01*
X25677844Y-5899999D01*
X25737372Y-5893598D01*
X25737379Y-5893596D01*
X25872086Y-5843354D01*
X25872093Y-5843350D01*
X25987187Y-5757190D01*
X25987190Y-5757187D01*
X26073350Y-5642093D01*
X26073355Y-5642084D01*
X26102075Y-5565081D01*
X26143945Y-5509147D01*
X26209409Y-5484729D01*
X26277682Y-5499580D01*
X26309484Y-5524428D01*
X26318216Y-5533913D01*
X26318219Y-5533915D01*
X26318222Y-5533918D01*
X26501365Y-5676464D01*
X26501376Y-5676471D01*
X26604517Y-5732288D01*
X26654108Y-5781507D01*
X26669500Y-5841343D01*
X26669500Y-6604903D01*
X26649815Y-6671942D01*
X26633181Y-6692584D01*
X26337584Y-6988181D01*
X26276261Y-7021666D01*
X26249903Y-7024500D01*
X25918384Y-7024500D01*
X25899145Y-7026248D01*
X25847807Y-7030913D01*
X25685393Y-7081522D01*
X25539811Y-7169530D01*
X25419530Y-7289811D01*
X25331522Y-7435393D01*
X25280913Y-7597807D01*
X25274500Y-7668386D01*
X25274500Y-8331613D01*
X25280913Y-8402192D01*
X25280913Y-8402194D01*
X25280914Y-8402196D01*
X25331522Y-8564606D01*
X25413058Y-8699483D01*
X25419530Y-8710188D01*
X25539811Y-8830469D01*
X25539813Y-8830470D01*
X25539815Y-8830472D01*
X25685394Y-8918478D01*
X25847804Y-8969086D01*
X25918384Y-8975500D01*
X25918387Y-8975500D01*
X26431613Y-8975500D01*
X26431616Y-8975500D01*
X26502196Y-8969086D01*
X26664606Y-8918478D01*
X26810185Y-8830472D01*
X26811820Y-8828837D01*
X26862819Y-8777839D01*
X26924142Y-8744354D01*
X26993834Y-8749338D01*
X27049767Y-8791210D01*
X27074184Y-8856674D01*
X27074500Y-8865520D01*
X27074500Y-9167500D01*
X27054815Y-9234539D01*
X27002011Y-9280294D01*
X26950500Y-9291500D01*
X26514129Y-9291500D01*
X26514123Y-9291501D01*
X26454516Y-9297908D01*
X26319671Y-9348202D01*
X26319664Y-9348206D01*
X26204455Y-9434452D01*
X26204452Y-9434455D01*
X26118206Y-9549664D01*
X26118202Y-9549671D01*
X26067908Y-9684517D01*
X26061501Y-9744116D01*
X26061501Y-9744123D01*
X26061500Y-9744135D01*
X26061500Y-9936530D01*
X26041815Y-10003569D01*
X25989011Y-10049324D01*
X25919853Y-10059268D01*
X25856297Y-10030243D01*
X25825118Y-9988935D01*
X25780589Y-9893442D01*
X25659301Y-9720224D01*
X25659299Y-9720221D01*
X25509778Y-9570700D01*
X25336558Y-9449411D01*
X25336556Y-9449410D01*
X25304478Y-9434452D01*
X25144910Y-9360044D01*
X25144906Y-9360043D01*
X25144902Y-9360041D01*
X24940660Y-9305315D01*
X24940656Y-9305314D01*
X24940655Y-9305314D01*
X24940654Y-9305313D01*
X24940649Y-9305313D01*
X24730002Y-9286884D01*
X24729998Y-9286884D01*
X24519350Y-9305313D01*
X24519339Y-9305315D01*
X24315097Y-9360041D01*
X24315088Y-9360045D01*
X24123443Y-9449410D01*
X24123441Y-9449411D01*
X23950221Y-9570700D01*
X23800700Y-9720221D01*
X23679411Y-9893441D01*
X23679410Y-9893443D01*
X23590045Y-10085088D01*
X23590041Y-10085097D01*
X23535315Y-10289339D01*
X23535313Y-10289350D01*
X23516884Y-10499998D01*
X23516884Y-10500001D01*
X23535313Y-10710649D01*
X23535316Y-10710663D01*
X23546233Y-10751408D01*
X23544570Y-10821258D01*
X23505406Y-10879120D01*
X23441178Y-10906623D01*
X23426458Y-10907500D01*
X20790229Y-10907500D01*
X20723190Y-10887815D01*
X20702548Y-10871181D01*
X20514818Y-10683451D01*
X20481333Y-10622128D01*
X20478499Y-10595770D01*
X20478499Y-9744129D01*
X20478498Y-9744123D01*
X20478497Y-9744116D01*
X20472091Y-9684517D01*
X20421796Y-9549669D01*
X20421795Y-9549668D01*
X20421793Y-9549664D01*
X20335547Y-9434455D01*
X20335544Y-9434452D01*
X20220335Y-9348206D01*
X20220328Y-9348202D01*
X20085482Y-9297908D01*
X20085483Y-9297908D01*
X20025883Y-9291501D01*
X20025881Y-9291500D01*
X20025873Y-9291500D01*
X20025865Y-9291500D01*
X18549500Y-9291500D01*
X18482461Y-9271815D01*
X18436706Y-9219011D01*
X18425500Y-9167500D01*
X18425500Y-8916519D01*
X18445185Y-8849480D01*
X18461814Y-8828842D01*
X18580472Y-8710185D01*
X18668478Y-8564606D01*
X18719086Y-8402196D01*
X18725500Y-8331616D01*
X18725500Y-7668384D01*
X18719086Y-7597804D01*
X18668478Y-7435394D01*
X18580472Y-7289815D01*
X18580470Y-7289813D01*
X18580469Y-7289811D01*
X18460188Y-7169530D01*
X18454676Y-7166198D01*
X18314606Y-7081522D01*
X18152196Y-7030914D01*
X18152194Y-7030913D01*
X18152192Y-7030913D01*
X18102778Y-7026423D01*
X18081616Y-7024500D01*
X17568384Y-7024500D01*
X17549145Y-7026248D01*
X17497807Y-7030913D01*
X17335393Y-7081522D01*
X17189811Y-7169530D01*
X17189810Y-7169531D01*
X17087327Y-7272015D01*
X17026004Y-7305500D01*
X16956312Y-7300516D01*
X16911965Y-7272015D01*
X16809877Y-7169927D01*
X16664395Y-7081980D01*
X16664396Y-7081980D01*
X16502105Y-7031409D01*
X16502106Y-7031409D01*
X16431572Y-7025000D01*
X16425000Y-7025000D01*
X16425000Y-8974999D01*
X16431581Y-8974999D01*
X16502102Y-8968591D01*
X16502107Y-8968590D01*
X16664396Y-8918018D01*
X16809877Y-8830072D01*
X16809878Y-8830071D01*
X16911963Y-8727985D01*
X16973286Y-8694499D01*
X17042977Y-8699483D01*
X17087326Y-8727983D01*
X17188182Y-8828839D01*
X17221666Y-8890160D01*
X17224500Y-8916519D01*
X17224500Y-9104902D01*
X17204815Y-9171941D01*
X17188181Y-9192584D01*
X17097587Y-9283177D01*
X17036263Y-9316661D01*
X16977814Y-9315270D01*
X16940663Y-9305316D01*
X16940660Y-9305315D01*
X16940655Y-9305314D01*
X16940652Y-9305313D01*
X16940649Y-9305313D01*
X16730002Y-9286884D01*
X16729998Y-9286884D01*
X16519350Y-9305313D01*
X16519339Y-9305315D01*
X16315097Y-9360041D01*
X16315088Y-9360045D01*
X16123443Y-9449410D01*
X16123441Y-9449411D01*
X15950221Y-9570700D01*
X15800700Y-9720221D01*
X15679411Y-9893441D01*
X15679410Y-9893443D01*
X15590045Y-10085088D01*
X15590041Y-10085097D01*
X15535315Y-10289339D01*
X15535313Y-10289350D01*
X15516884Y-10499998D01*
X15516884Y-10500001D01*
X15535313Y-10710649D01*
X15535316Y-10710663D01*
X15546233Y-10751408D01*
X15544570Y-10821258D01*
X15505406Y-10879120D01*
X15441178Y-10906623D01*
X15426458Y-10907500D01*
X12790229Y-10907500D01*
X12723190Y-10887815D01*
X12702548Y-10871181D01*
X12514818Y-10683451D01*
X12481333Y-10622128D01*
X12478499Y-10595770D01*
X12478499Y-9744129D01*
X12478498Y-9744123D01*
X12478497Y-9744116D01*
X12472091Y-9684517D01*
X12421796Y-9549669D01*
X12421795Y-9549668D01*
X12421793Y-9549664D01*
X12335547Y-9434455D01*
X12335544Y-9434452D01*
X12220335Y-9348206D01*
X12220328Y-9348202D01*
X12091167Y-9300028D01*
X12035233Y-9258157D01*
X12010816Y-9192692D01*
X12010500Y-9183846D01*
X12010500Y-9095204D01*
X12030185Y-9028165D01*
X12082989Y-8982410D01*
X12123275Y-8971714D01*
X12152196Y-8969086D01*
X12314606Y-8918478D01*
X12460185Y-8830472D01*
X12580472Y-8710185D01*
X12668478Y-8564606D01*
X12719086Y-8402196D01*
X12725500Y-8331616D01*
X12725500Y-8331582D01*
X15275001Y-8331582D01*
X15281408Y-8402102D01*
X15281409Y-8402107D01*
X15331981Y-8564396D01*
X15419927Y-8709877D01*
X15540122Y-8830072D01*
X15685604Y-8918019D01*
X15685603Y-8918019D01*
X15847894Y-8968590D01*
X15847893Y-8968590D01*
X15918408Y-8974998D01*
X15918426Y-8974999D01*
X15924999Y-8974998D01*
X15925000Y-8974998D01*
X15925000Y-8250000D01*
X15275001Y-8250000D01*
X15275001Y-8331582D01*
X12725500Y-8331582D01*
X12725500Y-7668427D01*
X15275000Y-7668427D01*
X15275000Y-7750000D01*
X15925000Y-7750000D01*
X15925000Y-7025000D01*
X15924999Y-7024999D01*
X15918436Y-7025000D01*
X15918417Y-7025001D01*
X15847897Y-7031408D01*
X15847892Y-7031409D01*
X15685603Y-7081981D01*
X15540122Y-7169927D01*
X15419927Y-7290122D01*
X15331980Y-7435604D01*
X15281409Y-7597893D01*
X15275000Y-7668427D01*
X12725500Y-7668427D01*
X12725500Y-7668384D01*
X12719086Y-7597804D01*
X12668478Y-7435394D01*
X12580472Y-7289815D01*
X12580470Y-7289813D01*
X12580469Y-7289811D01*
X12460188Y-7169530D01*
X12454676Y-7166198D01*
X12314606Y-7081522D01*
X12152196Y-7030914D01*
X12152194Y-7030913D01*
X12152192Y-7030913D01*
X12102778Y-7026423D01*
X12081616Y-7024500D01*
X11568384Y-7024500D01*
X11549145Y-7026248D01*
X11497807Y-7030913D01*
X11335393Y-7081522D01*
X11189811Y-7169530D01*
X11189810Y-7169531D01*
X11087681Y-7271661D01*
X11026358Y-7305146D01*
X10956666Y-7300162D01*
X10912319Y-7271661D01*
X10810183Y-7169525D01*
X10808027Y-7167836D01*
X10806856Y-7166198D01*
X10804882Y-7164224D01*
X10805210Y-7163895D01*
X10767394Y-7110997D01*
X10760500Y-7070226D01*
X10760500Y-5979491D01*
X10780185Y-5912452D01*
X10832989Y-5866697D01*
X10902147Y-5856753D01*
X10920036Y-5861070D01*
X10920045Y-5861039D01*
X10922883Y-5861757D01*
X10924775Y-5862214D01*
X10925019Y-5862298D01*
X11153951Y-5900500D01*
X11153952Y-5900500D01*
X11386048Y-5900500D01*
X11386049Y-5900500D01*
X11614981Y-5862298D01*
X11834503Y-5786936D01*
X12038626Y-5676470D01*
X12221784Y-5533913D01*
X12378979Y-5363153D01*
X12505924Y-5168849D01*
X12599157Y-4956300D01*
X12656134Y-4731305D01*
X12664860Y-4626000D01*
X12675300Y-4500006D01*
X12675300Y-4499993D01*
X12656135Y-4268702D01*
X12656133Y-4268691D01*
X12599157Y-4043699D01*
X12505924Y-3831151D01*
X12378983Y-3636852D01*
X12378980Y-3636849D01*
X12378979Y-3636847D01*
X12301015Y-3552155D01*
X15330000Y-3552155D01*
X15330000Y-4250000D01*
X16354722Y-4250000D01*
X16310667Y-4326306D01*
X16280000Y-4440756D01*
X16280000Y-4559244D01*
X16310667Y-4673694D01*
X16354722Y-4750000D01*
X15330000Y-4750000D01*
X15330000Y-5447844D01*
X15336401Y-5507372D01*
X15336403Y-5507379D01*
X15386645Y-5642086D01*
X15386649Y-5642093D01*
X15472809Y-5757187D01*
X15472812Y-5757190D01*
X15587906Y-5843350D01*
X15587913Y-5843354D01*
X15722620Y-5893596D01*
X15722627Y-5893598D01*
X15782155Y-5899999D01*
X15782172Y-5900000D01*
X16480000Y-5900000D01*
X16480000Y-4875277D01*
X16556306Y-4919333D01*
X16670756Y-4950000D01*
X16789244Y-4950000D01*
X16903694Y-4919333D01*
X16980000Y-4875277D01*
X16980000Y-5900000D01*
X17677828Y-5900000D01*
X17677844Y-5899999D01*
X17737372Y-5893598D01*
X17737379Y-5893596D01*
X17872086Y-5843354D01*
X17872093Y-5843350D01*
X17987187Y-5757190D01*
X17987190Y-5757187D01*
X18073350Y-5642093D01*
X18073355Y-5642084D01*
X18102075Y-5565081D01*
X18143945Y-5509147D01*
X18209409Y-5484729D01*
X18277682Y-5499580D01*
X18309484Y-5524428D01*
X18318216Y-5533913D01*
X18318219Y-5533915D01*
X18318222Y-5533918D01*
X18501365Y-5676464D01*
X18501371Y-5676468D01*
X18501374Y-5676470D01*
X18705497Y-5786936D01*
X18819487Y-5826068D01*
X18925015Y-5862297D01*
X18925017Y-5862297D01*
X18925019Y-5862298D01*
X19153951Y-5900500D01*
X19153952Y-5900500D01*
X19386048Y-5900500D01*
X19386049Y-5900500D01*
X19614981Y-5862298D01*
X19834503Y-5786936D01*
X20038626Y-5676470D01*
X20221784Y-5533913D01*
X20378979Y-5363153D01*
X20505924Y-5168849D01*
X20599157Y-4956300D01*
X20656134Y-4731305D01*
X20664860Y-4626000D01*
X20675300Y-4500006D01*
X20675300Y-4499993D01*
X20656135Y-4268702D01*
X20656133Y-4268691D01*
X20599157Y-4043699D01*
X20505924Y-3831151D01*
X20378983Y-3636852D01*
X20378980Y-3636849D01*
X20378979Y-3636847D01*
X20221784Y-3466087D01*
X20221779Y-3466083D01*
X20221777Y-3466081D01*
X20038634Y-3323535D01*
X20038628Y-3323531D01*
X19834504Y-3213064D01*
X19834495Y-3213061D01*
X19614984Y-3137702D01*
X19427404Y-3106401D01*
X19386049Y-3099500D01*
X19153951Y-3099500D01*
X19112596Y-3106401D01*
X18925015Y-3137702D01*
X18705504Y-3213061D01*
X18705495Y-3213064D01*
X18501371Y-3323531D01*
X18501365Y-3323535D01*
X18318222Y-3466081D01*
X18318215Y-3466087D01*
X18309484Y-3475572D01*
X18249595Y-3511561D01*
X18179757Y-3509458D01*
X18122143Y-3469932D01*
X18102075Y-3434918D01*
X18073355Y-3357915D01*
X18073350Y-3357906D01*
X17987190Y-3242812D01*
X17987187Y-3242809D01*
X17872093Y-3156649D01*
X17872086Y-3156645D01*
X17737379Y-3106403D01*
X17737372Y-3106401D01*
X17677844Y-3100000D01*
X16980000Y-3100000D01*
X16980000Y-4124722D01*
X16903694Y-4080667D01*
X16789244Y-4050000D01*
X16670756Y-4050000D01*
X16556306Y-4080667D01*
X16480000Y-4124722D01*
X16480000Y-3100000D01*
X15782155Y-3100000D01*
X15722627Y-3106401D01*
X15722620Y-3106403D01*
X15587913Y-3156645D01*
X15587906Y-3156649D01*
X15472812Y-3242809D01*
X15472809Y-3242812D01*
X15386649Y-3357906D01*
X15386645Y-3357913D01*
X15336403Y-3492620D01*
X15336401Y-3492627D01*
X15330000Y-3552155D01*
X12301015Y-3552155D01*
X12221784Y-3466087D01*
X12221779Y-3466083D01*
X12221777Y-3466081D01*
X12038634Y-3323535D01*
X12038628Y-3323531D01*
X11834504Y-3213064D01*
X11834495Y-3213061D01*
X11614984Y-3137702D01*
X11427404Y-3106401D01*
X11386049Y-3099500D01*
X11153951Y-3099500D01*
X11112596Y-3106401D01*
X10925015Y-3137702D01*
X10705504Y-3213061D01*
X10705495Y-3213064D01*
X10501371Y-3323531D01*
X10501365Y-3323535D01*
X10318222Y-3466081D01*
X10318215Y-3466087D01*
X10309484Y-3475572D01*
X10249595Y-3511561D01*
X10179757Y-3509458D01*
X10122143Y-3469932D01*
X10102075Y-3434918D01*
X10073355Y-3357915D01*
X10073350Y-3357906D01*
X9987190Y-3242812D01*
X9987187Y-3242809D01*
X9872093Y-3156649D01*
X9872086Y-3156645D01*
X9737379Y-3106403D01*
X9737372Y-3106401D01*
X9677844Y-3100000D01*
X8980000Y-3100000D01*
X8980000Y-4124722D01*
X8903694Y-4080667D01*
X8789244Y-4050000D01*
X8670756Y-4050000D01*
X8556306Y-4080667D01*
X8480000Y-4124722D01*
X8480000Y-3100000D01*
X7782155Y-3100000D01*
X7722627Y-3106401D01*
X7722620Y-3106403D01*
X7587913Y-3156645D01*
X7587906Y-3156649D01*
X7472812Y-3242809D01*
X7472809Y-3242812D01*
X7386649Y-3357906D01*
X7386645Y-3357913D01*
X7336403Y-3492620D01*
X7336401Y-3492627D01*
X7330000Y-3552155D01*
X4992401Y-3552155D01*
X5035195Y-3355433D01*
X5035195Y-3355432D01*
X5035196Y-3355428D01*
X5055610Y-3070000D01*
X5055610Y-3069998D01*
X89044390Y-3069998D01*
X89044390Y-3070001D01*
X89064804Y-3355433D01*
X89125628Y-3635037D01*
X89225635Y-3903166D01*
X89362770Y-4154309D01*
X89362775Y-4154317D01*
X89534254Y-4383387D01*
X89534270Y-4383405D01*
X89736594Y-4585729D01*
X89736612Y-4585745D01*
X89965682Y-4757224D01*
X89965690Y-4757229D01*
X90216833Y-4894364D01*
X90216832Y-4894364D01*
X90216836Y-4894365D01*
X90216839Y-4894367D01*
X90484954Y-4994369D01*
X90484960Y-4994370D01*
X90484962Y-4994371D01*
X90764566Y-5055195D01*
X90764568Y-5055195D01*
X90764572Y-5055196D01*
X91018220Y-5073337D01*
X91049999Y-5075610D01*
X91050000Y-5075610D01*
X91050001Y-5075610D01*
X91078595Y-5073564D01*
X91335428Y-5055196D01*
X91615046Y-4994369D01*
X91883161Y-4894367D01*
X92134315Y-4757226D01*
X92363395Y-4585739D01*
X92565739Y-4383395D01*
X92737226Y-4154315D01*
X92874367Y-3903161D01*
X92974369Y-3635046D01*
X92992401Y-3552155D01*
X93035195Y-3355433D01*
X93035195Y-3355432D01*
X93035196Y-3355428D01*
X93055610Y-3070000D01*
X93035196Y-2784572D01*
X92974369Y-2504954D01*
X92874367Y-2236839D01*
X92794025Y-2089705D01*
X92737229Y-1985690D01*
X92737224Y-1985682D01*
X92565745Y-1756612D01*
X92565729Y-1756594D01*
X92363405Y-1554270D01*
X92363387Y-1554254D01*
X92134317Y-1382775D01*
X92134309Y-1382770D01*
X91883166Y-1245635D01*
X91883167Y-1245635D01*
X91775915Y-1205632D01*
X91615046Y-1145631D01*
X91615043Y-1145630D01*
X91615037Y-1145628D01*
X91335433Y-1084804D01*
X91050001Y-1064390D01*
X91049999Y-1064390D01*
X90764566Y-1084804D01*
X90484962Y-1145628D01*
X90216833Y-1245635D01*
X89965690Y-1382770D01*
X89965682Y-1382775D01*
X89736612Y-1554254D01*
X89736594Y-1554270D01*
X89534270Y-1756594D01*
X89534254Y-1756612D01*
X89362775Y-1985682D01*
X89362770Y-1985690D01*
X89225635Y-2236833D01*
X89125628Y-2504962D01*
X89064804Y-2784566D01*
X89044390Y-3069998D01*
X5055610Y-3069998D01*
X5035196Y-2784572D01*
X4974369Y-2504954D01*
X4874367Y-2236839D01*
X4794025Y-2089705D01*
X4737229Y-1985690D01*
X4737224Y-1985682D01*
X4565745Y-1756612D01*
X4565729Y-1756594D01*
X4363405Y-1554270D01*
X4363387Y-1554254D01*
X4134317Y-1382775D01*
X4134309Y-1382770D01*
X3883166Y-1245635D01*
X3883167Y-1245635D01*
X3775915Y-1205632D01*
X3615046Y-1145631D01*
X3615043Y-1145630D01*
X3615037Y-1145628D01*
X3335433Y-1084804D01*
X3050001Y-1064390D01*
X3049999Y-1064390D01*
X2764566Y-1084804D01*
X2484962Y-1145628D01*
X2216833Y-1245635D01*
X1965690Y-1382770D01*
X1965682Y-1382775D01*
X1736612Y-1554254D01*
X1736594Y-1554270D01*
X1534270Y-1756594D01*
X1534254Y-1756612D01*
X1362775Y-1985682D01*
X1362770Y-1985690D01*
X1225635Y-2236833D01*
X1125628Y-2504962D01*
X1064804Y-2784566D01*
X1044390Y-3069998D01*
X500500Y-3069998D01*
X500500Y-624500D01*
X520185Y-557461D01*
X572989Y-511706D01*
X624500Y-500500D01*
X93375500Y-500500D01*
X93442539Y-520185D01*
G37*
%TD.AperFunction*%
%TD*%
M02*
