M48
; DRILL file {KiCad 8.0.5} date 2025-10-03T18:55:28+0900
; FORMAT={-:-/ absolute / metric / decimal}
; #@! TF.CreationDate,2025-10-03T18:55:28+09:00
; #@! TF.GenerationSoftware,Kicad,Pcbnew,8.0.5
; #@! TF.FileFunction,Plated,1,2,PTH
FMAT,2
METRIC
; #@! TA.AperFunction,Plated,PTH,ViaDrill
T1C0.300
; #@! TA.AperFunction,Plated,PTH,ComponentDrill
T2C0.900
; #@! TA.AperFunction,Plated,PTH,ComponentDrill
T3C0.910
; #@! TA.AperFunction,Plated,PTH,ComponentDrill
T4C0.950
; #@! TA.AperFunction,Plated,PTH,ComponentDrill
T5C1.000
%
G90
G05
T1
X33.86Y-14.65
X38.2Y-5.42
X63.05Y-6.1
X73.25Y-6.3
T2
X8.73Y-4.5
X11.27Y-4.5
X16.73Y-4.5
X19.27Y-4.5
X24.73Y-4.5
X27.27Y-4.5
X32.73Y-4.5
X35.27Y-4.5
X40.73Y-4.5
X43.27Y-4.5
X48.73Y-4.5
X51.27Y-4.5
X56.73Y-4.5
X59.27Y-4.5
X64.73Y-4.5
X67.27Y-4.5
X72.73Y-4.5
X75.27Y-4.5
T3
X8.73Y-10.5
X11.27Y-10.5
X16.73Y-10.5
X19.27Y-10.5
X24.73Y-10.5
X27.27Y-10.5
X32.73Y-10.5
X35.27Y-10.5
X40.73Y-10.5
X43.27Y-10.5
X48.73Y-10.5
X51.27Y-10.5
X56.73Y-10.5
X59.27Y-10.5
X64.73Y-10.5
X67.27Y-10.5
X72.73Y-10.5
X75.27Y-10.5
T4
X25.0Y-19.0
X27.5Y-19.0
X30.0Y-19.0
X32.5Y-19.0
X35.0Y-19.0
T5
X50.0Y-19.0
X52.5Y-19.0
M30
